<svg width="24" height="24" viewBox="0 0 24 24" fill="none" xmlns="http://www.w3.org/2000/svg">
    <path fill-rule="evenodd" clip-rule="evenodd" d="M12 1.00195C15.3969 1.00195 18.4234 3.1472 19.5485 6.35242C20.6735 9.55765 19.6517 13.1239 17 15.247V22.118C17 22.2981 16.9032 22.4643 16.7465 22.5531C16.5898 22.6419 16.3975 22.6395 16.243 22.547L12 20.001L7.75696 22.547C7.60232 22.6396 7.40976 22.6419 7.25301 22.5528C7.09625 22.4638 6.99956 22.2972 6.99996 22.117V15.247C4.34823 13.1239 3.32642 9.55765 4.45145 6.35242C5.57649 3.1472 8.60303 1.00195 12 1.00195ZM12 3.00095C8.68625 3.00095 5.99996 5.68724 5.99996 9.00095C5.99996 12.3147 8.68625 15.001 12 15.001C15.3137 15.001 18 12.3147 18 9.00095C18 5.68724 15.3137 3.00095 12 3.00095ZM12 5.00095C14.2091 5.00095 16 6.79181 16 9.00095C16 11.2101 14.2091 13.001 12 13.001C9.79082 13.001 7.99996 11.2101 7.99996 9.00095C7.99996 6.79181 9.79082 5.00095 12 5.00095Z" fill="#929292"/>
</svg>
