<svg width="240" height="186" viewBox="0 0 240 186" fill="none" xmlns="http://www.w3.org/2000/svg">
<g clip-path="url(#clip0_3281_2456)">
<g clip-path="url(#clip1_3281_2456)">
<path d="M237.947 98.5953C237.916 98.2152 237.895 97.8297 237.879 97.4442C237.858 97.1238 237.838 96.8904 237.472 96.8632C237.144 96.7818 236.779 96.8524 236.471 96.7166C233.315 96.5429 230.149 96.6026 226.993 96.532C224.703 96.5483 222.402 96.608 220.113 96.5592C219.174 96.4994 218.266 96.4343 217.332 96.4614C214.547 96.6352 211.756 96.6677 208.965 96.6569C203.473 96.8035 197.975 96.9338 192.482 96.9067C191.167 96.9012 189.858 97.037 188.549 97.1238C187.902 97.1564 187.255 97.1401 186.619 97.2704C186.452 97.3302 186.217 97.3302 186.128 97.5093C185.935 98.6604 186.029 99.7952 186.17 100.935C186.186 101.592 186.217 102.249 186.274 102.906C186.29 103.748 186.196 104.59 186.28 105.431C186.431 106.783 186.212 106.685 187.552 107.022C188.721 107.223 189.915 107.212 191.099 107.185C193.327 107.185 195.554 107.163 197.782 107.19C200.583 107.256 203.379 107.19 206.18 107.055C208.981 107.022 211.782 107 214.583 106.81C218.49 106.647 222.402 106.512 226.304 106.294C228.469 106.24 230.634 106.18 232.799 106.18C234.661 106.094 236.549 106.24 238.39 105.876C238.589 105.176 238.521 104.427 238.505 103.71C238.526 101.983 238.088 100.306 237.958 98.5844L237.947 98.5953Z" fill="#BFC9E7"/>
<path d="M193.922 122.484C193.969 120.882 193.688 119.307 193.709 117.706C193.062 117.38 192.201 117.565 191.565 117.592C190.74 117.624 189.916 117.717 189.092 117.787C188.524 117.836 187.955 117.809 187.381 117.765C185.806 117.684 184.23 117.765 182.655 117.727C178.221 117.776 173.787 117.592 169.359 117.706C166.057 117.689 162.765 118.021 159.469 117.89C153.84 117.961 148.201 117.146 142.599 117.901C142.823 118.591 142.641 119.362 142.641 120.078C142.636 121.935 142.448 123.787 142.411 125.644C142.396 126.073 142.39 126.507 142.375 126.936C142.359 127.62 142.25 128.359 142.604 128.972C143.277 129.141 143.992 129.086 144.68 129.086C147.419 128.902 150.163 128.945 152.907 128.989C155.108 128.864 157.314 128.885 159.521 128.788C162.306 128.739 165.097 128.706 167.883 128.728C170.715 128.891 173.553 128.967 176.39 128.956C178.602 128.913 180.814 128.826 183.031 128.815C185.665 128.864 188.294 128.902 190.923 128.793C192.055 128.798 193.192 128.744 194.308 128.527C194.11 126.518 193.75 124.515 193.922 122.489V122.484Z" fill="#BFC9E7"/>
<path d="M239.606 102.201C239.454 101.094 239.105 100.024 238.948 98.9165C238.734 96.9347 238.896 95.7945 236.533 95.9899C234.509 95.6153 232.459 95.5827 230.399 95.5555C228.547 95.5393 226.7 95.5013 224.849 95.5338C223.216 95.5338 221.588 95.6153 219.956 95.5718C218.479 95.4578 216.988 95.5013 215.517 95.6207C212.778 95.8596 210.024 95.6641 207.28 95.7673C201.787 95.9139 196.294 95.827 190.807 96.0442C189.931 96.1094 189.054 96.2234 188.178 96.2668C187.317 96.3537 186.013 96.2234 185.408 96.9618C184.98 97.6025 185.064 98.455 184.98 99.1988C184.949 100.491 185.09 101.789 185.043 103.086C184.939 104.281 184.871 105.486 185.168 106.659C185.225 106.99 185.335 107.322 185.57 107.566C187.458 109.064 191.172 108.446 193.499 108.598C196.858 108.598 200.212 108.462 203.571 108.391C205.788 108.353 208.01 108.424 210.227 108.348C213.06 108.299 215.887 108.038 218.714 107.875C220.942 107.713 223.174 107.713 225.402 107.528C228.114 107.376 230.826 107.202 233.549 107.262C235.375 107.197 237.305 107.49 239.047 106.817C239.866 106.16 239.673 104.819 239.679 103.857C239.652 103.314 239.663 102.761 239.606 102.218V102.201ZM238.38 105.883C236.538 106.247 234.655 106.1 232.788 106.187C230.623 106.187 228.458 106.247 226.294 106.301C222.386 106.513 218.479 106.654 214.572 106.817C211.777 107.007 208.97 107.028 206.169 107.061C203.373 107.197 200.572 107.262 197.771 107.197C195.543 107.17 193.316 107.186 191.089 107.191C189.905 107.218 188.715 107.229 187.542 107.028C186.206 106.686 186.42 106.789 186.269 105.437C186.185 104.596 186.279 103.754 186.264 102.913C186.206 102.256 186.175 101.599 186.159 100.942C186.018 99.8015 185.919 98.6613 186.117 97.5156C186.206 97.3365 186.441 97.3365 186.608 97.2767C187.244 97.1464 187.896 97.1627 188.538 97.1301C189.847 97.0433 191.156 96.9075 192.471 96.913C197.964 96.9401 203.462 96.8098 208.954 96.6632C211.745 96.6741 214.536 96.6415 217.321 96.4677C218.255 96.4351 219.163 96.5057 220.102 96.5655C222.386 96.6143 224.692 96.5546 226.982 96.5383C230.143 96.6089 233.304 96.5546 236.46 96.7229C236.768 96.8587 237.133 96.7881 237.462 96.8695C237.827 96.9021 237.848 97.1301 237.869 97.4505C237.884 97.836 237.905 98.2161 237.936 98.6016C238.072 100.317 238.505 101.995 238.484 103.727C238.5 104.449 238.567 105.199 238.369 105.894L238.38 105.883Z" fill="#0D0C21"/>
<path d="M237.947 98.5953C237.916 98.2152 237.895 97.8297 237.879 97.4442C237.858 97.1238 237.838 96.8904 237.472 96.8632C237.144 96.7818 236.779 96.8524 236.471 96.7166C233.315 96.5429 230.149 96.6026 226.993 96.532C224.703 96.5483 222.402 96.608 220.113 96.5592C219.174 96.4994 218.266 96.4343 217.332 96.4614C214.547 96.6352 211.756 96.6677 208.965 96.6569C203.473 96.8035 197.975 96.9338 192.482 96.9067C191.167 96.9012 189.858 97.037 188.549 97.1238C187.902 97.1564 187.255 97.1401 186.619 97.2704C186.452 97.3302 186.217 97.3302 186.128 97.5093C185.935 98.6604 186.029 99.7952 186.17 100.935C186.186 101.592 186.217 102.249 186.274 102.906C186.29 103.748 186.196 104.59 186.28 105.431C186.431 106.783 186.212 106.685 187.552 107.022C188.721 107.223 189.915 107.212 191.099 107.185C193.327 107.185 195.554 107.163 197.782 107.19C200.583 107.256 203.379 107.19 206.18 107.055C208.981 107.022 211.782 107 214.583 106.81C218.49 106.647 222.402 106.512 226.304 106.294C228.469 106.24 230.634 106.18 232.799 106.18C234.661 106.094 236.549 106.24 238.39 105.876C238.589 105.176 238.521 104.427 238.505 103.71C238.526 101.983 238.088 100.306 237.958 98.5844L237.947 98.5953Z" fill="white"/>
<path d="M194.829 129.084L193.937 117.036L142.494 117.509L141.769 129.508L194.829 129.084Z" fill="white"/>
<path d="M239.606 102.201C239.454 101.094 239.105 100.024 238.948 98.9165C238.734 96.9347 238.896 95.7945 236.533 95.9899C234.509 95.6153 232.459 95.5827 230.399 95.5555C228.547 95.5393 226.7 95.5013 224.849 95.5338C223.216 95.5338 221.588 95.6153 219.956 95.5718C218.479 95.4578 216.988 95.5013 215.517 95.6207C212.778 95.8596 210.024 95.6641 207.28 95.7673C201.787 95.9139 196.294 95.827 190.807 96.0442C189.931 96.1094 189.054 96.2234 188.178 96.2668C187.317 96.3537 186.013 96.2234 185.408 96.9618C184.98 97.6025 185.064 98.455 184.98 99.1988C184.949 100.491 185.09 101.789 185.043 103.086C184.939 104.281 184.871 105.486 185.168 106.659C185.225 106.99 185.335 107.322 185.57 107.566C187.458 109.064 191.172 108.446 193.499 108.598C196.858 108.598 200.212 108.462 203.571 108.391C205.788 108.353 208.01 108.424 210.227 108.348C213.06 108.299 215.887 108.038 218.714 107.875C220.942 107.713 223.174 107.713 225.402 107.528C228.114 107.376 230.826 107.202 233.549 107.262C235.375 107.197 237.305 107.49 239.047 106.817C239.866 106.16 239.673 104.819 239.679 103.857C239.652 103.314 239.663 102.761 239.606 102.218V102.201ZM238.38 105.883C236.538 106.247 234.655 106.1 232.788 106.187C230.623 106.187 228.458 106.247 226.294 106.301C222.386 106.513 218.479 106.654 214.572 106.817C211.777 107.007 208.97 107.028 206.169 107.061C203.373 107.197 200.572 107.262 197.771 107.197C195.543 107.17 193.316 107.186 191.089 107.191C189.905 107.218 188.715 107.229 187.542 107.028C186.206 106.686 186.42 106.789 186.269 105.437C186.185 104.596 186.279 103.754 186.264 102.913C186.206 102.256 186.175 101.599 186.159 100.942C186.018 99.8015 185.919 98.6613 186.117 97.5156C186.206 97.3365 186.441 97.3365 186.608 97.2767C187.244 97.1464 187.896 97.1627 188.538 97.1301C189.847 97.0433 191.156 96.9075 192.471 96.913C197.964 96.9401 203.462 96.8098 208.954 96.6632C211.745 96.6741 214.536 96.6415 217.321 96.4677C218.255 96.4351 219.163 96.5057 220.102 96.5655C222.386 96.6143 224.692 96.5546 226.982 96.5383C230.143 96.6089 233.304 96.5546 236.46 96.7229C236.768 96.8587 237.133 96.7881 237.462 96.8695C237.827 96.9021 237.848 97.1301 237.869 97.4505C237.884 97.836 237.905 98.2161 237.936 98.6016C238.072 100.317 238.505 101.995 238.484 103.727C238.5 104.449 238.567 105.199 238.369 105.894L238.38 105.883Z" fill="#0D0C21"/>
<path d="M195.236 128.319C195.226 127.554 195.184 126.788 195.059 126.033C194.762 124.052 195.075 122.043 194.97 120.05C194.85 119.149 195.132 118.046 194.809 117.161C194.058 115.961 192.461 116.287 191.288 116.352C190.469 116.38 189.655 116.488 188.836 116.559C187.141 116.575 185.44 116.45 183.74 116.51C177.094 116.553 170.454 116.325 163.819 116.754C161.106 116.868 158.388 116.863 155.676 116.711C154.367 116.711 153.073 116.705 151.764 116.624C148.655 116.608 145.499 116.314 142.432 116.988C142.025 117.102 141.712 117.438 141.712 117.889C141.712 117.949 141.597 119.045 141.472 120.479C141.206 122.374 141.122 124.318 141.081 126.229C141.075 127.478 140.841 128.841 141.665 129.888C142.343 130.562 143.392 130.404 144.257 130.453C145.817 130.437 147.377 130.285 148.942 130.317C150.627 130.285 152.311 130.399 153.996 130.29C155.264 130.182 156.557 130.176 157.835 130.1C158.947 129.997 160.209 129.921 161.351 129.894C166.093 129.91 170.84 129.791 175.581 129.91C178.878 129.943 182.175 129.85 185.471 129.872C187.115 129.888 188.753 129.867 190.396 129.812C191.189 129.812 191.976 129.867 192.769 129.812C193.447 129.818 194.12 129.709 194.767 129.492C195.32 129.324 195.299 128.797 195.231 128.308L195.236 128.319ZM190.923 128.781C188.294 128.889 185.664 128.846 183.03 128.803C180.819 128.808 178.602 128.9 176.39 128.944C173.552 128.955 170.715 128.879 167.882 128.716C165.097 128.694 162.306 128.727 159.52 128.775C157.319 128.873 155.113 128.851 152.906 128.976C150.162 128.938 147.424 128.889 144.68 129.074C143.991 129.074 143.277 129.128 142.604 128.96C142.244 128.346 142.353 127.608 142.374 126.924C142.39 126.495 142.395 126.061 142.411 125.632C142.447 123.775 142.635 121.923 142.64 120.066C142.64 119.529 142.745 118.964 142.698 118.421C142.672 118.117 142.901 117.851 143.193 117.818C148.597 117.194 154.043 117.949 159.468 117.884C162.77 118.014 166.062 117.677 169.358 117.699C173.792 117.585 178.221 117.77 182.655 117.721C184.23 117.764 185.805 117.672 187.381 117.759C188.257 117.829 189.139 117.846 190.02 117.634C190.437 117.536 190.865 117.552 191.293 117.579C191.94 117.623 192.967 117.319 193.708 117.694C193.682 119.295 193.964 120.87 193.922 122.472C193.75 124.502 194.11 126.5 194.308 128.509C193.192 128.721 192.054 128.781 190.923 128.775V128.781Z" fill="#0D0C21"/>
<path d="M134.691 143.534C134.691 143.534 134.694 143.548 134.698 143.556C134.698 143.556 134.695 143.541 134.691 143.534Z" fill="#0D0C21"/>
<path d="M116.491 130.832C102.548 129.958 90.9257 138.808 78.8604 144.455C86.8622 129.442 94.332 114.358 97.9417 98.0585C97.8738 93.0035 92.3445 94.4695 89.1208 95.3003C75.2403 99.5625 69.7683 115.118 63.274 127.178C63.1071 120.608 66.9203 112.816 64.8494 106.442C50.734 101.593 45.5699 121.596 44.5892 132.629C28.2048 132.542 29.2637 155.814 22.7224 166.581C7.27696 171.63 -11.4444 173.308 -27.2446 169.192C-27.0464 169.084 -26.8377 168.991 -26.6291 168.894C-8.48152 166.005 14.632 159.674 20.0048 138.574C20.6725 131.445 17.7878 122.106 9.51476 122.53C-9.87427 124.832 -27.1976 136.12 -45.8564 141.61C-60.9524 145.025 -76.9873 145.595 -91.0192 153.213C-110.992 163.833 -122.348 186.35 -144.632 192.246C-159.624 197.709 -212.152 196.167 -225.078 197.464C-225.423 198.089 -246.71 296.132 -239.194 297.169C-177.605 292.38 -119.505 263.456 -58.1617 256.115C16.7028 253.71 20.5838 223.494 41.2769 203.947C43.2591 202.074 45.6899 198.811 48.0998 196.976C49.2631 196.091 53.3839 195.39 54.6411 194.5C57.4109 192.534 57.9325 193.083 61.2136 191.079C74.9325 182.717 82.3292 175.246 92.9705 168.389C105.568 160.885 162.003 134.904 116.491 130.837V130.832Z" fill="white"/>
<path d="M12.6291 129.816C16.99 136.647 3.42234 150.243 -2.67031 150.672C-3.18151 144.731 -4.12567 136.81 -8.90381 132.515C-1.64271 128.421 7.75709 125.103 12.6343 129.816H12.6291Z" fill="white"/>
<path d="M65.413 108.908C65.9346 111.444 65.3973 118.269 63.4151 120.072C61.9076 120.207 60.3062 121.814 58.8822 121.109C58.1728 116.911 61.699 110.434 65.413 108.914V108.908Z" fill="white"/>
<path d="M87.3579 110.878C87.5666 99.7965 98.4895 97.1632 97.728 97.3152C97.4619 102.055 96.377 105.72 94.1027 110.683C87.2484 109.537 87.2901 114.685 87.3579 110.873V110.878Z" fill="white"/>
<path d="M124.243 141.555C115.208 144.411 111.28 147.972 118.625 153.234C123.382 152.832 141.044 136.315 124.243 141.555Z" fill="white"/>
<path d="M34.4403 162.616C34.4403 162.616 34.4331 162.616 34.4296 162.616C34.4296 162.616 34.4296 162.616 34.426 162.616C34.426 162.616 34.426 162.616 34.4224 162.616C34.4295 162.616 34.4367 162.613 34.4439 162.609L34.4403 162.616Z" fill="#0D0C21"/>
<path d="M59.9823 116.586L59.9927 116.597C59.9823 116.749 59.9719 116.906 59.9614 117.058C59.9666 116.901 59.9718 116.743 59.9823 116.586Z" fill="#0D0C21"/>
<path d="M65.468 108.551C65.468 108.551 65.461 108.551 65.4541 108.554C65.4576 108.554 65.4611 108.554 65.468 108.551Z" fill="#0D0C21"/>
<path d="M13.0557 131.374C13.0557 131.374 13.061 131.39 13.0662 131.396C12.9932 131.406 12.915 131.412 12.842 131.423C12.842 131.423 12.8368 131.423 12.8315 131.423C12.9045 131.406 12.9775 131.39 13.0557 131.374Z" fill="#0D0C21"/>
<path d="M13.698 129.808C13.2859 128.618 10.949 126.848 5.87352 127.087C1.79958 127.245 -2.20133 128.309 -5.88927 130.003C-7.60543 130.828 -9.45722 131.523 -10.9126 132.772C-13.5729 135.476 -13.8233 139.635 -13.2547 143.181C-12.9626 144.913 -12.4305 146.612 -11.695 148.214C-10.9334 150 -9.53024 151.684 -7.51153 152.053C-6.89079 152.161 -6.26484 152.21 -5.6441 152.21C1.20492 152.21 7.79834 145.988 11.4602 140.851C13.6197 137.708 15.0594 133.532 13.7032 129.813L13.698 129.808ZM-9.75455 149.164C-10.8291 147.492 -11.4812 145.575 -11.9089 143.648C-12.5453 140.308 -12.5557 136.16 -9.9632 133.57C-9.79106 133.429 -9.60328 133.299 -9.4155 133.174C-9.31639 133.255 -9.20684 133.326 -9.11816 133.413C-5.52412 136.714 -2.06571 145.271 -3.7245 150.429C-3.7558 150.543 -3.78709 150.668 -3.81839 150.799C-4.27221 150.88 -4.72603 150.951 -5.19028 150.989C-7.00556 151.097 -8.67998 150.712 -9.75976 149.159L-9.75455 149.164ZM12.7225 135.031C12.0705 138.169 10.13 140.819 8.01742 143.181C5.19539 146.265 1.67961 149.267 -2.42563 150.478C-0.719894 143.436 -4.3974 135.932 -8.35136 132.55C-7.91319 132.321 -7.46458 132.104 -7.02119 131.882C-2.82207 129.797 1.87782 128.304 6.62988 128.304C6.85418 128.304 10.1196 128.217 11.9818 129.531C13.2755 130.443 13.0616 133.625 12.7173 135.036L12.7225 135.031Z" fill="#0D0C21"/>
<path d="M134.706 137.028C134.482 136.393 133.767 135.676 133.511 135.529C129.01 132.255 123.527 130.616 118.128 129.91C104.31 128.574 92.3806 136.566 80.3936 142.767C81.8281 140.688 83.1113 138.494 84.2641 136.235C88.0094 128.569 91.1444 120.576 94.2794 112.622C95.7608 108.235 100.539 98.5753 97.7899 94.4705C97.2631 93.8135 95.5939 93.8406 94.3472 93.8786C89.9238 94.009 86.867 94.9103 83.1739 97.321C80.8943 98.7056 78.7556 100.356 76.8934 102.311C71.6041 108.115 68.5421 115.586 64.8333 122.487C64.6716 122.786 64.4943 123.079 64.3273 123.372C64.8333 120.897 65.3237 118.421 65.694 115.918C65.9757 113.892 66.3617 111.862 66.2678 109.809C66.2 107.578 65.6158 105.351 63.1276 105.14C61.7192 104.988 60.269 105.102 58.9076 105.52C55.1519 106.649 51.8082 109.212 49.6434 112.6C48.0316 115.299 46.9883 118.317 46.0442 121.325C45.2722 123.774 44.5992 126.424 44.2811 129.008C44.1819 129.741 44.015 131.566 43.989 131.745C41.6625 130.822 36.5609 134.574 35.2307 135.969C32.247 138.776 30.0196 142.436 28.8512 146.438C28.6634 147.1 28.4965 147.762 28.3348 148.436C28.1105 149.299 27.8966 150.162 27.6462 151.015C27.3698 151.943 27.0724 152.866 26.749 153.784C25.4241 157.487 23.9948 161.152 22.9307 164.947C22.8003 165.425 22.6699 165.908 22.5656 166.391C21.4701 166.712 20.3747 167.027 19.274 167.331C10.2915 169.812 0.938705 169.883 -8.28374 170.572C-13.5731 171.208 -18.972 170.849 -24.1048 169.361C-18.5181 168.096 -12.848 167.173 -7.41782 165.251C-2.2589 163.503 2.6653 161.011 7.21913 157.943C8.72665 156.895 10.1246 155.684 11.4339 154.381C13.5413 152.291 15.4818 149.989 16.9789 147.377C18.8098 144.266 20.286 140.84 20.4999 137.153C20.8181 132.749 20.3694 127.694 16.9997 124.589C12.5502 120.24 5.96202 121.695 0.636154 123.166C-10.2972 126.19 -20.5942 131.159 -31.2251 135.095C-31.971 135.361 -32.7169 135.627 -33.4629 135.904C-34.5896 136.366 -36.2536 137.223 -37.3855 137.674C-42.967 139.9 -48.9397 141.355 -54.8497 142.365C-90.7588 147.382 -98.2599 154.311 -123.439 179.781C-128.248 184.097 -133.866 187.377 -139.787 189.739C-147.919 192.823 -156.537 194.229 -165.154 194.886C-168.2 195.071 -171.252 195.141 -174.303 195.179C-174.961 195.19 -179.008 195.272 -180.125 195.304C-181.836 195.353 -183.547 195.407 -185.258 195.456C-187.198 195.516 -189.138 195.576 -191.079 195.63C-192.988 195.684 -194.897 195.744 -196.806 195.804C-198.648 195.858 -200.489 195.912 -202.331 195.972C-204.214 196.026 -206.091 196.086 -207.975 196.14C-209.879 196.195 -211.782 196.254 -213.686 196.314C-215.611 196.374 -217.541 196.428 -219.466 196.488C-221.13 196.537 -222.789 196.586 -224.453 196.64C-224.771 196.651 -225.032 196.917 -225.032 197.248C-225.032 197.568 -224.771 197.851 -224.463 197.851C-224.458 197.851 -224.453 197.851 -224.448 197.851C-223.676 197.824 -222.904 197.807 -222.137 197.78C-220.16 197.72 -218.183 197.661 -216.201 197.601C-214.333 197.547 -212.471 197.487 -210.604 197.433C-208.694 197.378 -206.78 197.319 -204.871 197.259C-203.035 197.205 -201.199 197.15 -199.362 197.096C-197.5 197.036 -195.638 196.982 -193.776 196.928C-191.773 196.868 -189.775 196.808 -187.772 196.749C-185.977 196.694 -184.183 196.64 -182.389 196.586C-180.865 196.542 -174.955 196.477 -174.058 196.406C-173.803 196.396 -173.542 196.363 -173.317 196.379C-170.542 196.336 -167.767 196.265 -164.992 196.092C-156.563 195.456 -148.102 194.061 -140.105 191.156C-127.946 186.753 -120.7 179.151 -111.88 169.953C-101.165 158.817 -88.4585 150.244 -73.4511 147.013C-61.005 143.972 -47.9381 143.565 -36.0084 138.413C-34.9443 137.973 -33.9115 137.386 -32.8473 136.963C-31.9762 136.642 -31.0999 136.322 -30.2288 136.013C-18.0956 131.544 -6.36935 125.528 6.3741 123.106C8.62233 122.824 11.0896 122.753 13.2596 123.59C15.4974 124.475 17.3701 126.304 18.356 128.574C19.6548 131.978 19.6548 136.116 18.9558 139.694C18.2047 142.935 16.6294 145.835 14.7984 148.62C12.6389 151.65 10.0359 154.359 7.08875 156.564C-0.678345 162.075 -9.70256 165.268 -18.9041 167.01C-21.3871 167.543 -23.8909 168.047 -26.3635 168.656C-26.5252 168.634 -26.666 168.661 -26.7651 168.753C-29.4724 169.432 -32.1379 170.246 -34.7044 171.392C-38.6792 173.189 -42.4506 175.421 -46.4306 177.213C-52.0799 179.77 -58.1047 181.643 -63.9105 183.837C-66.1848 184.678 -68.4487 185.542 -70.676 186.508C-70.723 186.579 -70.7908 186.639 -70.8534 186.693C-70.8847 186.725 -70.9212 186.758 -70.9577 186.791C-70.9786 186.829 -71.0047 186.867 -71.0255 186.905C-71.0412 186.937 -71.0568 186.97 -71.0673 187.008C-71.0673 187.013 -71.0673 187.024 -71.0725 187.03C-71.0725 187.078 -71.0673 187.133 -71.0568 187.182C-71.0516 187.22 -71.0412 187.263 -71.0307 187.301C-71.0203 187.312 -71.0099 187.328 -71.0047 187.339C-70.9734 187.372 -70.9421 187.404 -70.9108 187.437C-70.8638 187.48 -70.8169 187.518 -70.7647 187.556C-70.7126 187.589 -70.6604 187.621 -70.6082 187.654C-70.6082 187.654 -70.603 187.654 -70.5978 187.654C-70.5195 187.67 -70.4465 187.676 -70.3683 187.686C-62.549 184.282 -54.3177 181.996 -46.5036 178.559C-40.9326 176.148 -35.8154 172.701 -30.0045 170.898C-28.7734 170.523 -27.5267 170.187 -26.28 169.883C-25.3985 170.404 -23.9953 170.578 -22.9624 170.914C-19.9318 171.609 -16.8333 172.114 -13.7243 172.114C-13.4583 172.114 -13.1923 172.114 -12.9211 172.103C-10.1251 172.006 -7.33958 171.674 -4.54886 171.495C0.166687 171.159 4.91873 171.164 9.6082 170.442C17.0101 169.421 24.2661 167.456 31.3029 164.882C31.3185 164.882 31.3289 164.877 31.3446 164.871C32.3513 164.611 33.332 164.247 34.2971 163.85C46.9727 159.528 59.3197 154.294 71.4059 148.43C80.9309 144.271 89.7882 138.689 99.2819 134.465C108.311 130.719 117.732 129.573 126.949 133.363C128.968 134.091 130.877 135.111 132.635 136.376C133.976 137.31 133.423 138.586 133.261 139.01C133.042 139.558 132.729 140.058 132.39 140.541C131.962 140.4 131.169 140.318 129.802 140.058C124.247 139.281 116.652 142.593 113.992 147.871C113.016 149.815 112.443 151.954 112.239 154.131C112.229 154.387 112.171 154.696 112.187 154.973C112.088 155.717 112.077 156.542 112.213 157.123C110.747 157.959 109.276 158.785 107.805 159.61C104.503 161.478 101.217 163.383 97.9413 165.295C94.0447 167.559 90.1376 169.823 86.4758 172.478C83.419 174.661 80.4875 177.017 77.5142 179.319C69.914 185.14 62.0113 190.781 53.1592 194.338C44.5314 197.927 35.2933 199.86 26.4986 202.949C20.8389 204.92 15.294 207.271 9.91599 209.975C9.00835 210.437 8.10591 210.904 7.21391 211.392C6.93224 211.528 6.79662 211.908 6.93745 212.201C7.03134 212.413 7.25043 212.549 7.47473 212.549C7.69904 212.549 7.86075 212.397 8.04854 212.304C8.99789 211.794 9.96294 211.3 10.9227 210.811C14.0108 209.248 17.1875 207.879 20.3747 206.549C28.5226 203.09 37.1608 201.071 45.5643 198.367C45.4182 198.508 45.2669 198.654 45.1209 198.796C44.9905 198.958 44.2863 199.675 43.6603 200.305C43.1856 200.788 42.737 201.239 42.5492 201.445C39.722 204.725 36.9052 208.118 34.1823 211.398C28.992 217.642 23.6245 224.103 17.9648 230.092C11.8199 236.819 5.74815 241.559 -0.605316 244.584C-11.7787 250.095 -24.2509 251.941 -35.0643 253.244C-37.1821 253.499 -39.3051 253.749 -41.4282 253.999C-57.8283 255.932 -74.7865 257.935 -91.1761 261.535C-104.363 264.402 -117.498 268.398 -130.199 272.264C-139.067 274.962 -148.232 277.748 -157.345 280.131C-180.093 286.207 -203.03 291.3 -225.517 295.264C-226.07 295.362 -226.623 295.465 -227.171 295.562C-229.393 295.97 -231.693 296.388 -233.962 296.708C-234.917 296.833 -235.689 296.882 -236.393 296.871C-236.409 296.871 -236.419 296.871 -236.435 296.871C-236.753 296.871 -237.014 297.001 -237.144 297.219C-237.243 297.387 -237.249 297.577 -237.16 297.745C-237.019 298.011 -236.67 298.163 -236.2 298.169C-233.712 298.093 -231.224 297.626 -228.819 297.175C-227.89 297.001 -226.931 296.822 -225.987 296.665C-202.111 292.462 -178.028 287.081 -154.408 280.674C-146.057 278.432 -137.643 275.875 -129.506 273.404C-120.429 270.646 -111.04 267.795 -101.708 265.368C-88.3854 261.888 -73.8997 259.276 -54.7402 256.898C-51.2244 256.447 -47.6252 256.029 -44.1459 255.628C-37.4533 254.857 -30.5365 254.053 -23.8127 252.956C-15.7431 251.615 -8.89404 249.677 -2.8692 247.032C1.54379 245.127 5.16393 243.069 8.21025 240.734C11.5487 238.264 14.6472 235.5 17.4223 232.524C21.5901 228.159 25.8831 223.316 31.3394 216.816C33.019 214.824 34.7091 212.777 36.347 210.795C38.757 207.874 41.2504 204.855 43.7646 201.939C44.015 201.646 47.1135 198.578 48.0368 197.786C48.0941 197.737 48.1672 197.677 48.2402 197.617C48.3393 197.541 48.4437 197.46 48.5428 197.368C50.3894 196.727 52.2203 196.043 54.0303 195.288C65.188 190.722 74.7287 182.968 84.2693 175.589C91.5774 169.964 99.7253 165.702 107.628 161.092C115.332 156.748 123.287 152.519 129.458 145.889C130.987 144.282 132.463 142.599 133.683 140.726C134.085 140.079 135.16 138.337 134.701 137.033L134.706 137.028ZM92.2555 114.528C92.2137 114.506 92.1772 114.479 92.1303 114.462C91.7651 114.359 91.4104 114.223 91.0714 114.05C89.9499 113.48 89.0683 112.66 88.4945 111.688C90.1638 111.389 91.8277 111.009 93.5595 111.199C93.1266 112.307 92.6884 113.414 92.2555 114.522V114.528ZM93.9925 110.048C93.7943 109.983 93.57 109.967 93.3822 109.967C92.8919 109.891 89.4752 110.021 88.0094 110.629C87.566 109.283 87.6599 107.757 88.4424 106.258C89.6734 103.782 91.3217 101.464 93.6013 99.9327C94.5715 99.2486 95.6148 98.673 96.7206 98.2604C96.9032 98.1626 97.1744 98.1192 97.4405 98.0703C97.3779 101.866 95.114 106.883 93.9873 110.054L93.9925 110.048ZM65.115 111.101C64.8907 113.849 64.4577 116.558 63.9465 119.257C62.4599 119.409 61.0359 120.055 59.8204 120.94C59.7057 121.038 59.5335 121.168 59.351 121.32C59.3562 121.103 59.3614 120.886 59.3719 120.674C59.544 117.937 60.2169 115.185 61.6827 112.877C62.3138 111.938 63.0389 111.058 63.8579 110.287C64.2387 109.94 64.6404 109.646 65.0785 109.369C65.1202 109.994 65.1046 110.613 65.1046 111.107L65.115 111.101ZM63.7118 120.506C63.498 121.602 63.2737 122.699 63.0546 123.801C62.9346 124.388 62.8042 124.969 62.679 125.555C61.521 125.338 60.3055 124.849 59.5857 123.834C59.4188 123.568 59.4136 123.231 59.3927 122.916C59.5336 122.781 59.6692 122.629 59.7944 122.515C60.5768 121.798 61.4845 121.228 62.4651 120.859C62.872 120.717 63.2945 120.587 63.717 120.511L63.7118 120.506ZM32.6382 163.21C32.5704 163.237 32.4974 163.264 32.4296 163.297C32.3722 163.318 32.3096 163.34 32.2522 163.362C32.2157 163.373 32.1792 163.383 32.1427 163.394C29.5554 164.268 26.9576 165.099 24.3443 165.881C24.3339 165.881 24.3286 165.886 24.3234 165.886C24.2243 165.919 24.1304 165.952 24.0313 165.979C23.9739 165.995 23.9113 166.011 23.854 166.028C23.8592 166.001 23.8644 165.973 23.8748 165.952C24.3339 164.187 24.9024 162.455 25.4971 160.739C26.7751 156.982 28.3348 153.317 29.2894 149.446C29.4824 148.669 29.7014 147.904 29.884 147.127C29.9414 146.91 29.9988 146.693 30.0666 146.476C31.1829 142.903 33.1547 139.612 35.8098 137.066C37.8128 135.095 40.2332 133.434 42.977 132.809C43.3317 132.76 43.6082 132.809 43.7803 133.048C43.123 136.947 41.6625 140.628 40.0454 144.19C37.4425 149.587 35.1212 155.141 33.259 160.864C33.0138 161.635 32.7895 162.412 32.6382 163.204V163.21ZM35.116 162.194C34.73 162.357 34.3388 162.515 33.9475 162.672C34.0414 162.303 34.1458 161.928 34.2605 161.554C35.7367 157.025 37.4738 152.562 39.4403 148.235C41.2347 144.439 43.1335 140.476 44.2498 136.36C44.6723 134.758 44.9644 133.124 45.2148 131.484C45.2461 131.142 45.559 128.33 45.726 127.363C46.2789 124.274 47.2804 121.152 48.3393 118.187C49.007 116.433 49.6904 114.804 50.6763 113.176C52.1629 110.884 54.2912 108.973 56.675 107.713C58.0782 107.018 59.6274 106.405 61.2028 106.313C62.1261 106.258 63.112 106.209 63.9779 106.6C64.4995 106.937 64.7812 107.529 64.9377 108.213C63.9883 108.452 62.5121 109.918 62.0948 110.434C59.4657 113.3 58.3181 117.297 58.1982 121.195C58.2034 122.221 58.1095 123.329 58.5007 124.295C59.2936 125.68 60.8168 126.408 62.3086 126.717C60.2378 129.964 57.9948 133.119 55.9447 136.382C53.2792 140.568 50.6658 144.792 47.6664 148.74C45.0896 152.269 42.3406 155.668 39.4247 158.899C39.1065 159.355 37.7659 160.538 37.3747 161.298C36.6131 161.57 35.8619 161.874 35.116 162.2V162.194ZM78.1088 143.918C77.3577 144.287 76.6065 144.651 75.8554 144.999C63.8526 150.803 51.6778 156.276 39.2108 160.875C40.7131 159.224 42.1997 157.568 43.6186 155.842C48.0681 150.477 52.1055 144.754 55.7778 138.793C58.4485 134.557 61.3071 130.458 63.9987 126.239C69.0064 118.193 71.9953 108.598 78.9226 101.974C80.6075 100.411 82.4853 99.102 84.4467 97.9454C86.1628 96.9301 87.9155 95.8767 89.882 95.4858C91.3687 95.1546 93.0483 94.9157 94.5611 94.9971C97.9204 95.1818 97.2527 95.6867 97.3831 96.8595C96.0686 96.9464 93.7891 98.3581 93.1475 98.7925C90.1064 100.801 86.9453 105.02 86.5488 108.81C86.4341 112.024 88.9379 114.821 91.8173 115.624C88.9483 122.933 86.022 130.23 82.4175 137.18C81.1604 139.504 79.7468 141.741 78.1506 143.831C78.1297 143.858 78.1193 143.886 78.1036 143.907L78.1088 143.918ZM113.569 156.336C113.611 155.673 113.611 155.011 113.637 154.349C113.768 153.056 114.013 151.769 114.42 150.537C114.446 150.445 114.477 150.358 114.508 150.271C114.675 150.352 114.847 150.434 114.993 150.553C115.004 150.564 115.019 150.569 115.03 150.58C115.332 150.798 115.614 151.047 115.88 151.313C116.391 151.845 116.84 152.437 117.21 153.094C117.335 153.311 117.445 153.539 117.544 153.773C117.56 153.822 117.575 153.865 117.591 153.909C116.271 154.745 114.931 155.554 113.575 156.341L113.569 156.336ZM128.222 145.455C125.384 148.425 122.197 150.879 118.843 153.089C118.76 152.893 118.676 152.698 118.577 152.508C118.363 152.09 118.102 151.71 117.805 151.368C117.299 150.656 116.699 150.021 116.016 149.494C115.739 149.315 115.411 149.049 115.066 148.886C116.282 146.41 118.405 144.526 120.841 143.343C122.813 142.344 124.936 141.562 127.137 141.426C128.112 141.361 129.098 141.377 130.063 141.583C130.611 141.676 131.034 141.795 131.378 141.893C130.392 143.136 129.338 144.32 128.232 145.449L128.222 145.455Z" fill="#0D0C21"/>
<path d="M141.368 21.2247C141.764 26.4806 137.982 27.1376 133.887 27.0996C135.035 30.3031 131.931 29.4995 130.001 30.504C129.501 30.9655 128.541 31.1773 128.515 30.2108C128.384 22.5496 125.14 25.8399 124.274 20.2691C123.945 16.6041 128.103 16.0991 129.787 18.8574C129.36 11.522 133.439 8.59538 136.563 9.38811C139.057 12.6025 142.056 14.9481 141.373 21.2247H141.368Z" fill="white"/>
<path d="M122.025 67.1116C123.485 70.6843 120.147 75.2669 120.872 79.2142C120.679 81.2504 122.797 91.0889 119.594 90.2038C119.766 91.5124 119.197 94.2652 117.799 92.1856C116.793 92.696 115.953 91.3766 115.593 90.5568C114.79 90.5785 114.45 89.6174 114.138 88.9985C112.818 88.689 113.439 85.8275 113.694 84.8611C114.743 78.693 114.904 72.362 115.958 66.2048C115.734 65.5913 116.401 65.032 116.954 65.2927C118.498 66.3406 120.392 66.3406 122.035 67.117L122.025 67.1116Z" fill="white"/>
<path d="M164.737 70.0151C165.644 72.1056 165.655 76.547 163.339 72.7082C163.276 73.4087 162.556 74.9344 161.717 74.3806C161.336 73.9733 162.009 72.9471 161.758 72.5453C160.261 73.3164 160.371 68.332 159.061 70.7264C160.423 72.73 160.626 74.0982 160.193 74.272C159.557 74.196 156.078 71.4323 152.197 69.255C148.864 66.7031 146.026 63.8416 146.026 63.8416L151.08 57.9233C154.899 64.2489 161.424 65.7149 164.742 70.026L164.737 70.0151Z" fill="white"/>
<path d="M121.502 137.038C118.712 137.038 117.074 136.305 117.851 133.037C117.914 132.765 119.906 133.037 119.906 133.037C119.906 133.037 122.999 137.006 121.502 137.038Z" fill="white"/>
<path d="M147.267 117.04C145.77 115.872 142.541 116.106 142.322 113.717C142.234 113.103 141.618 111.713 142.661 111.724C143.653 111.648 144.727 112.159 144.701 113.434C145.671 114.081 150.22 116.595 147.267 117.04Z" fill="white"/>
<path d="M127.377 32.5403C129.25 32.1114 132.088 33.4959 133.924 32.6543C134.279 32.0353 134.618 29.782 133.131 29.9504C131.284 30.4988 128.515 30.2164 127.383 32.5457L127.377 32.5403Z" fill="white"/>
<path d="M150.595 54.7787C149.588 53.5679 148.06 51.0649 146.323 52.0313C145.478 51.1789 142.213 46.6832 142.213 46.6832C142.213 46.6832 140.47 37.1324 137.888 33.9344C137.111 32.5009 135.943 35.0692 135.139 35.5687C132.004 37.9577 122.61 34.7868 122.61 34.7868C122.61 34.7868 121.509 36.1279 120.972 37.4962C118.739 43.2733 114.368 63.7214 116.303 65.0462C125.27 69.6994 123.778 65.9692 126.501 65.2254C127.972 64.8236 131.436 65.6597 139.104 68.7546C141.122 60.4636 139.104 58.8564 144.106 62.8906C146.151 65.7249 153.391 56.6465 150.595 54.7787Z" fill="white"/>
<path d="M137.226 31.6273C136.522 30.9757 133.669 28.6138 134.248 31.2364C135.323 36.0796 123.534 30.6554 119.543 32.6209C114.092 30.183 105.308 24.938 101.359 29.3957C100.326 30.5631 102.846 30.0256 103.628 29.8084C109.079 31.6816 113.972 33.7992 119.966 33.0879C124.405 36.7366 137.967 38.6804 137.221 31.6219L137.226 31.6273Z" fill="#FED980"/>
<path d="M137.116 18.7088C134.623 19.002 133.564 12.8122 136.047 12.7687C138.493 12.7307 139.458 18.4319 137.116 18.7088Z" fill="white"/>
<path d="M141.837 15.9736C140.079 16.017 137.502 10.001 140.684 10.9294C141.514 11.467 143.705 15.9356 141.837 15.9736Z" fill="white"/>
<path d="M158.968 82.6068C158.378 87.4337 152.536 105.151 146.381 112.122C144.79 112.122 142.104 111.503 140.346 109.777C139.313 101.583 147.064 93.2923 146.115 84.7949C139.574 84.0565 132.573 83.1443 132.573 83.1443C132.573 83.1443 131.087 87.0971 130.242 91.4734C128.155 102.338 128.202 115 124.019 125.973C117.576 140.78 113.795 129.275 116.622 119.04C117.957 110.271 115.552 100.025 116.241 91.81C117.707 92.695 120.315 94.2642 119.783 90.3114C121.473 90.2354 121.494 86.1849 121.035 83.1715C120.033 78.111 120.988 72.3882 122.553 67.7784C122.949 66.6165 123.836 68.0934 124.05 64.9713C128.223 63.5216 134.211 67.7187 138.828 68.5657C144.446 68.3757 158.566 78.7083 158.963 82.6068H158.968Z" fill="#FED980"/>
<path d="M123.078 67.1479C123.078 67.1479 123.041 67.1639 123.026 67.1693C123.01 67.1693 122.995 67.1746 122.979 67.1799C122.979 67.1799 122.969 67.1799 122.964 67.1799C123 67.1746 123.041 67.1639 123.083 67.1426L123.078 67.1479Z" fill="#0D0C21"/>
<path d="M123.057 67.1591C123.057 67.1591 123.036 67.1645 123.026 67.1698C123.01 67.1698 122.995 67.1805 122.979 67.1805C122.979 67.1805 122.969 67.1805 122.964 67.1805C122.995 67.1805 123.026 67.1645 123.057 67.1538V67.1591Z" fill="#0D0C21"/>
<path d="M158.79 65.1013C158.79 65.1013 158.796 65.1013 158.801 65.1068C158.577 64.9439 158.352 64.7756 158.133 64.6018L158.144 64.6127C158.097 64.5747 158.05 64.5421 158.003 64.5041C155.64 62.5114 153.418 60.345 151.43 57.9559C151.378 57.8908 151.373 57.7985 151.415 57.7225C152.124 56.4682 151.545 55.2683 150.549 54.3778C150.549 54.3778 150.544 54.3778 150.538 54.3724C149.62 53.4331 148.092 51.0549 146.725 51.3969C146.683 51.4078 146.631 51.4024 146.595 51.3861C144.665 50.3653 143.616 48.1392 142.229 46.4668C142.203 46.4342 142.187 46.4017 142.187 46.3582C142.02 44.2298 141.681 42.1123 141.081 40.0707C141.081 40.0707 141.081 40.0599 141.081 40.0544C140.2 37.6382 139.141 35.2438 137.659 33.1534C137.628 33.1099 137.617 33.0556 137.628 33.0013C137.998 31.0955 135.661 30.5851 134.665 29.6078C134.639 29.5861 134.582 29.4938 134.54 29.4449C134.519 29.4178 134.509 29.3906 134.503 29.358C134.477 29.1952 134.462 29.0268 134.43 28.8639C134.373 28.4187 134.331 27.9898 134.284 27.55C134.269 27.4197 134.383 27.3111 134.503 27.3382C140.455 28.4459 143.006 25.3401 141.53 19.0689C141.29 18.173 142.302 17.4454 141.9 16.6201C141.853 16.517 141.9 16.3921 142.004 16.3541C144.534 15.507 140.299 6.81962 138.541 11.4294C138.515 11.3859 138.494 11.3425 138.463 11.2991C138.463 11.2991 138.463 11.3045 138.468 11.3099C138.348 11.0819 138.077 10.9407 137.983 10.7018C137.977 10.6855 137.967 10.6638 137.957 10.6529C137.654 10.2729 137.336 9.90366 137.002 9.55073C136.939 9.48557 136.934 9.38241 136.981 9.3064C138.609 6.83591 137.492 4.12652 135.609 3.03517C134.895 2.75825 134.696 1.94381 134.253 1.37913C132.563 -1.19452 129.757 0.412651 127.727 1.54744C127.717 1.55287 127.707 1.5583 127.691 1.56373C126.768 1.88408 125.928 1.19995 125.093 0.885029C121.77 -0.640699 119.105 2.54107 117.258 5.01155C117.013 5.29932 116.716 5.5328 116.356 5.64682C116.345 5.64682 116.335 5.65225 116.325 5.65225C111.75 6.30924 112.23 10.0611 112.783 13.775C112.783 13.8021 112.783 13.8239 112.783 13.851C110.967 21.143 118.802 27.2676 125.286 26.9364C125.307 26.9364 125.333 26.9364 125.354 26.9419C125.724 27.0667 126.189 27.2948 126.486 27.3274C130.242 27.4034 127.18 25.1392 127.174 25.1338C128.432 26.6269 127.769 29.0757 128.479 30.7806C128.51 30.8566 128.494 30.9544 128.432 31.0087C127.675 31.6711 126.434 31.9969 125.495 31.9371C123.497 31.7905 121.478 31.9751 119.533 32.4529C119.486 32.4638 119.439 32.4529 119.397 32.4312C117.79 31.4593 116.199 30.4548 114.514 29.6295C114.52 29.6295 114.525 29.635 114.535 29.6404C114.535 29.6404 114.541 29.6404 114.546 29.6404C110.753 27.7454 107.029 26.8767 102.851 27.7563C102.507 27.6477 101.479 28.7445 100.921 29.597C100.91 29.6078 100.905 29.6187 100.895 29.6295C100.274 30.4277 100.389 30.8838 100.394 30.9218C100.53 31.8828 101.208 36.3406 102.084 36.1614C103.352 35.8247 104.077 34.3316 104.943 33.3923C105.464 32.7841 105.313 31.8394 105.287 31.0467C105.287 30.9109 105.412 30.8078 105.537 30.8512C110.044 32.4529 114.598 34.766 119.439 33.2945C119.486 33.2782 119.538 33.2837 119.585 33.3108C120.341 33.7561 121.092 34.2121 121.875 34.5976C121.979 34.6519 122.016 34.7823 121.948 34.88C117.592 41.3575 117.065 51.4838 115.954 59.3568C115.563 61.7893 115.292 63.6516 115.553 64.4661C115.631 64.7973 115.777 65.0036 115.865 65.1068C115.907 65.1502 115.918 65.2099 115.907 65.2751C114.974 69.9772 114.4 79.403 114.405 79.3976C114.509 81.4717 112.078 88.4488 114.076 89.2089C114.144 89.2361 114.191 89.2958 114.196 89.3664C114.264 90.1157 114.655 90.7944 115.485 91.0007C115.568 91.0224 115.626 91.093 115.636 91.1799C116.257 99.8239 116.121 108.386 115.907 117.025C115.907 117.03 115.907 117.036 115.907 117.041C116.173 120.435 113.769 131.891 117.43 133.178C117.524 133.211 117.571 133.319 117.545 133.417C117.331 134.123 117.055 135.241 117.284 135.893C117.295 135.915 117.305 135.936 117.321 135.958C118.14 137.006 119.626 137.435 120.852 137.701C121.76 137.82 122.949 137.06 122.568 136.018C122.563 135.996 122.548 135.974 122.537 135.958C121.922 135.144 120.925 134.682 120.539 133.651C120.414 133.428 120.117 133.374 119.908 133.493C119.887 133.504 119.866 133.526 119.851 133.547C119.267 134.324 120.524 135.551 121.249 136.197C121.369 136.3 121.322 136.506 121.17 136.539C120.263 136.735 119.194 136.061 118.39 135.676C118.375 135.665 118.359 135.654 118.343 135.643C117.822 135.165 118.228 134.264 118.02 133.607C117.978 133.471 118.082 133.336 118.223 133.357C122.892 133.993 124.076 127.841 124.822 124.138C126.157 117.253 128.661 110.493 128.651 103.402C128.651 103.402 128.651 103.397 128.651 103.391C128.995 96.6747 132.01 90.4035 132.579 83.7304C132.589 83.611 132.699 83.5295 132.813 83.5621C136.908 84.7023 141.17 84.686 145.338 85.381C145.437 85.3973 145.505 85.4896 145.494 85.5928C144.868 92.4504 141.493 98.7325 140.142 105.471C140.142 105.471 140.142 105.482 140.142 105.487C139.521 107.567 138.922 110.488 141.217 111.595C141.279 111.622 141.321 111.682 141.326 111.753C141.504 113.718 141.045 115.716 143.434 116.303C143.439 116.303 143.444 116.303 143.449 116.303C144.853 116.808 149.156 118.898 148.739 115.847C148.733 115.803 148.713 115.765 148.687 115.733C147.737 114.728 146.224 114.348 145.139 113.463C145.103 113.436 145.077 113.393 145.066 113.344C145.035 113.164 145.025 112.985 145.019 112.801C145.019 112.681 145.119 112.589 145.228 112.605C146.115 112.736 147.054 112.301 147.356 111.394C147.362 111.378 147.372 111.362 147.382 111.346C152.766 104.07 160.538 90.8867 159.411 81.5043C159.411 81.4826 159.401 81.4608 159.396 81.4445C157.257 76.5144 144.899 69.5102 139.647 67.8487C139.537 67.8162 139.485 67.6967 139.527 67.5881C140.08 66.2307 140.784 62.6037 141.019 61.4201C141.05 61.268 141.227 61.2137 141.332 61.3223C142.542 62.5657 143.794 64.6833 145.703 63.9883C145.771 63.9611 145.844 63.9774 145.896 64.0317C148.441 66.6216 151.128 69.103 154.237 70.9328C154.237 70.9328 154.247 70.9328 154.252 70.9382C155.416 71.5355 156.777 71.8612 157.622 72.9852C158.217 73.7507 160.481 75.814 160.679 73.8322C160.679 73.8159 160.679 73.7996 160.679 73.7833C160.559 72.5617 159.286 71.7201 159.437 70.4387C159.448 70.3409 159.536 70.2703 159.63 70.2703C159.677 70.2703 159.719 70.2812 159.766 70.2866C159.797 70.2921 159.829 70.3084 159.855 70.3301C160.574 70.9708 160.23 73.0829 161.32 72.8766C161.456 72.8494 161.571 72.9689 161.54 73.1046C161.065 75.3091 162.598 75.1245 163.297 73.4413C163.365 73.2838 163.579 73.2838 163.642 73.4413C163.809 73.8756 163.976 74.348 164.315 74.6358C164.33 74.6521 164.351 74.6629 164.372 74.6684C165.003 74.9398 165.426 74.0548 165.389 73.4684C165.864 68.0551 162.322 67.6153 158.811 65.0905L158.79 65.1013ZM117.603 32.8113C115.302 33.1316 112.976 32.8927 110.79 32.0729C109.371 31.5733 107.947 31.0467 106.518 30.5471C105.104 30.0368 103.592 29.5915 102.084 29.8576C101.943 29.8793 101.802 29.901 101.661 29.9227C102.016 29.3526 102.449 28.7988 102.96 28.3644C107.086 27.6097 110.487 28.359 114.248 30.2322C114.238 30.2268 114.228 30.2214 114.212 30.2105C115.688 30.9326 117.091 31.8014 118.5 32.6647C118.197 32.7244 117.9 32.7733 117.592 32.8059L117.603 32.8113ZM134.253 30.2322C134.336 30.2159 135.875 31.0304 135.933 31.0521C135.959 31.063 135.985 31.0738 136.011 31.0901C136.068 31.1172 136.131 31.1444 136.188 31.177C136.366 31.2747 136.538 31.3996 136.668 31.5625C136.814 31.7471 136.929 31.9806 136.986 32.2086C136.986 32.2195 136.986 32.2303 136.992 32.2412C136.997 32.2738 137.007 32.3063 137.012 32.3389C137.018 32.3715 137.023 32.3986 137.028 32.4312C137.028 32.4366 137.028 32.4475 137.028 32.4529C137.028 32.4801 137.028 32.5018 137.033 32.529C137.033 32.5398 137.033 32.5507 137.033 32.567C137.033 32.5887 137.033 32.6104 137.033 32.6321C137.033 32.6484 137.033 32.6593 137.033 32.6756C137.033 32.6918 137.033 32.7136 137.028 32.7299C137.028 32.7461 137.023 32.7624 137.018 32.7787C137.018 32.795 136.903 33.3488 136.694 33.6583C136.637 33.7398 136.574 33.8158 136.496 33.8701C136.48 33.8809 136.454 33.8918 136.433 33.8972C136.032 33.2728 135.427 32.795 134.811 32.4095C134.769 32.3824 134.691 32.3281 134.608 32.2738C134.608 32.2412 134.352 30.9924 134.321 30.8838C134.29 30.7752 134.243 30.2268 134.258 30.2214L134.253 30.2322ZM139.396 11.3859C139.647 10.9407 140.267 10.5552 140.815 11.3208C142.38 13.4981 142.803 15.7568 141.624 15.7568C140.554 15.7568 139.532 12.9823 139.532 12.9823C139.323 12.4393 139.24 11.6683 139.396 11.3859ZM131.603 14.8175C131.848 14.4917 132.078 14.1442 132.328 13.8184C132.349 13.6447 132.375 13.4655 132.401 13.2863C132.464 12.8791 132.584 12.4827 132.751 12.1081C132.944 11.6683 133.205 11.2502 133.538 10.9081C133.789 10.6529 134.076 10.4629 134.383 10.2946C134.618 10.1697 134.874 10.0883 135.129 10.0177C135.317 9.96338 136.089 9.76249 136.162 9.73534C136.23 9.71362 136.35 9.66475 136.402 9.7462C136.407 9.75706 137.492 10.9842 138.17 11.9181C138.202 11.9669 138.238 12.0104 138.27 12.0592C138.327 12.1461 138.39 12.2275 138.442 12.3144C138.473 12.3633 138.499 12.4067 138.53 12.4556C138.556 12.5045 138.588 12.5533 138.614 12.6076C138.656 12.6728 138.697 12.7379 138.739 12.7977C138.739 12.7977 138.744 12.8085 138.749 12.8139C138.588 12.89 138.447 13.0528 138.348 13.3135C138.29 13.5035 138.259 13.7098 138.254 13.9107C138.113 13.6827 137.957 13.4655 137.795 13.2483C137.774 13.2103 137.727 13.1451 137.664 13.0691C137.492 12.7922 137.258 12.5642 136.965 12.4176C135.301 11.7009 134.248 12.966 134.17 14.6383C134.17 14.7089 134.17 14.7795 134.17 14.8555C133.205 15.0781 132.239 15.3224 131.311 15.6916C131.207 15.7405 131.108 15.7894 131.003 15.8382C131.175 15.4799 131.405 15.1433 131.603 14.812V14.8175ZM137.555 18.5151C135.787 19.4978 133.632 14.8283 135.614 13.1669C137.023 11.9832 139.683 17.326 137.555 18.5151ZM128.411 25.8342C128.416 25.7745 128.411 25.7148 128.385 25.6442C128.134 24.8026 127.352 24.3628 126.575 24.1347C126.512 24.113 126.455 24.075 126.413 24.0207C125.662 23.0054 124.921 21.9575 124.707 20.6706C124.592 19.8562 124.639 18.9169 125.265 18.3305C125.589 18.0698 125.928 17.7495 126.329 17.6517C126.423 17.63 126.517 17.6137 126.616 17.6192C126.637 17.6192 126.663 17.6192 126.684 17.63C127.237 17.7603 127.821 17.9395 128.239 18.3522C128.88 18.8517 129.292 19.677 130.064 19.9865C130.497 20.1277 131.014 20.0408 131.337 19.6879C131.707 19.2861 131.687 18.6779 131.467 18.2056C131.306 17.8038 131.008 17.4563 130.842 17.0599C130.946 16.8645 130.977 16.8102 131.081 16.6093C131.097 16.6093 131.108 16.6093 131.123 16.6038C131.65 16.5115 132.182 16.4138 132.699 16.278C132.709 16.278 132.714 16.278 132.725 16.2726C133.111 16.1369 133.502 16.0066 133.898 15.8763C134.081 15.8165 134.274 15.936 134.305 16.1369C134.556 17.7983 135.515 19.3567 137.059 19.3567C137.185 19.3567 137.315 19.3458 137.445 19.3241C137.544 19.3241 137.633 19.3132 137.722 19.2915C138.092 19.1992 138.4 18.9169 138.609 18.5856C139.219 17.6789 139.276 16.4627 138.948 15.3604C138.932 15.3116 138.922 15.2627 138.932 15.2138C138.953 15.0564 138.901 14.8338 138.896 14.7306C138.885 14.6166 138.869 14.4917 138.864 14.3614C138.854 14.0302 139.266 13.889 139.438 14.1659C139.626 14.47 139.798 14.8012 139.814 14.8283C139.834 14.8663 140.116 15.4745 140.205 15.6645C140.22 15.6971 140.241 15.7297 140.273 15.7568C140.377 15.86 140.904 16.4138 141.149 16.859C141.206 16.9676 141.191 17.1034 141.118 17.2011C140.633 17.8689 140.403 18.3522 140.466 19.0797C140.434 19.1015 140.403 19.1232 140.377 19.1503C139.72 19.9268 138.953 19.9919 138.024 19.8182C138.014 19.8182 138.003 19.8182 137.988 19.8182C137.784 19.8073 137.56 19.7476 137.378 19.8616C136.892 20.4263 138.969 20.953 139.318 20.8281C139.814 20.7792 140.262 20.5457 140.633 20.22C140.711 20.1494 140.826 20.1168 140.925 20.1494C140.972 20.1657 141.024 20.1711 141.076 20.1711C141.086 20.1711 141.097 20.1711 141.107 20.1711C141.3 21.8 141.279 23.5158 140.669 24.922C140.664 24.9383 140.653 24.9546 140.643 24.9709C139.918 26.2143 138.322 26.3555 137.049 26.4858C137.038 26.4858 137.033 26.4858 137.023 26.4858C136.079 26.5075 135.119 26.4858 134.196 26.2469C133.721 26.1383 133.257 26.008 132.782 25.9102C132.448 25.8342 132.104 25.8451 131.77 25.7853C131.598 25.7745 131.212 25.6062 131.201 25.9048C131.207 25.9591 131.243 26.008 131.29 26.0297C131.786 26.2903 132.286 26.5401 132.813 26.7247C132.991 26.7953 133.168 26.8713 133.345 26.9527C133.444 26.9962 133.512 27.0885 133.533 27.1971C133.554 27.3111 133.575 27.4197 133.601 27.5337C133.606 27.5608 133.606 27.588 133.606 27.6151C133.58 28.1961 133.637 28.6848 133.789 29.244C133.763 29.244 133.737 29.244 133.71 29.244C132.641 29.1137 131.598 29.4721 130.607 29.8521C130.195 30.0205 129.777 30.1834 129.386 30.3951C129.157 30.2594 129.162 30.2594 128.932 30.1236C128.901 29.5318 128.88 28.9182 128.802 28.3318C128.708 27.3219 128.614 26.5292 128.416 25.8451L128.411 25.8342ZM134.086 31.9426C133.225 31.7797 132.354 31.91 131.499 31.6711C130.956 31.557 130.45 31.3073 129.934 31.1172C130.894 30.8946 132.777 30.1562 133.825 30.2539C133.825 30.2865 133.83 30.3245 133.841 30.3517C133.919 30.8838 134.013 31.4104 134.091 31.9426H134.086ZM128.656 31.3942C128.802 31.4159 128.953 31.3887 129.099 31.3453C129.668 31.4865 130.205 31.7362 130.753 31.948C131.342 32.1652 131.958 32.3063 132.584 32.3661C132.996 32.4204 133.413 32.4149 133.82 32.5181C131.775 32.8873 129.72 32.4909 127.67 32.1923C128.056 31.9806 128.447 31.7254 128.661 31.3942H128.656ZM120.44 33.0611C121.337 32.871 122.245 32.7299 123.158 32.681C123.549 32.6593 123.935 32.6538 124.326 32.6593C124.337 32.6593 124.347 32.6593 124.352 32.6593C124.358 32.6593 124.368 32.6538 124.373 32.6538C124.41 32.6538 124.446 32.6538 124.483 32.6538C124.519 32.6538 124.561 32.6647 124.598 32.6701C124.608 32.6701 124.624 32.6701 124.634 32.6701C124.655 32.6701 124.676 32.6701 124.697 32.6701C124.707 32.6701 124.712 32.6701 124.723 32.6701C124.738 32.6701 124.749 32.6701 124.765 32.6701C124.796 32.6701 124.822 32.6701 124.853 32.6701C124.869 32.6701 124.884 32.6701 124.895 32.6756C124.968 32.6864 125.041 32.7027 125.119 32.7136C125.119 32.7136 125.135 32.7136 125.145 32.7136C125.145 32.7136 125.156 32.7136 125.166 32.7136C125.166 32.7136 125.161 32.7136 125.156 32.7136C125.255 32.7244 125.354 32.7299 125.453 32.7299C125.5 32.7299 125.547 32.7299 125.594 32.7299C125.646 32.7299 125.703 32.7299 125.756 32.7299C125.782 32.7299 125.813 32.7299 125.839 32.7299C126.011 32.7299 126.183 32.7244 126.355 32.7299C126.402 32.7299 126.444 32.7353 126.491 32.7407C126.502 32.7407 126.517 32.7407 126.528 32.7407C126.575 32.7461 126.627 32.757 126.674 32.7624C126.773 32.7787 126.877 32.795 126.976 32.8167C127.086 32.8384 127.195 32.871 127.305 32.9036C127.315 32.9036 127.331 32.909 127.347 32.9145C127.503 32.9362 127.66 32.9633 127.821 32.9905C129.777 33.3054 131.853 33.6366 133.789 33.0122C133.909 32.9688 134.18 32.871 134.326 32.7461C134.357 32.7787 134.394 32.8113 134.436 32.833C134.79 33.5171 135.26 34.1687 135.954 34.4782C135.99 34.4999 136.037 34.5162 136.079 34.5271C133.914 36.232 131.368 36.2808 128.672 35.8736C127.028 35.5967 125.401 35.2546 123.831 34.6899C123.8 34.6845 123.773 34.6791 123.742 34.6737C123.742 34.6737 123.753 34.6737 123.758 34.6737C123.7 34.6628 123.638 34.6465 123.58 34.6248C123.471 34.5922 123.367 34.5434 123.257 34.4999C123.194 34.4782 123.132 34.451 123.074 34.4185C123.012 34.3913 122.954 34.3533 122.897 34.3207C122.845 34.2936 122.793 34.2719 122.741 34.2393C122.725 34.2284 122.709 34.223 122.688 34.2176C122.641 34.2013 122.595 34.1904 122.548 34.1687C122.532 34.1633 122.516 34.1578 122.501 34.147C122.375 34.0927 122.255 34.033 122.13 33.9732C121.562 33.68 120.998 33.3597 120.445 33.0393L120.44 33.0611ZM116.064 63.6353C116.267 62.5223 116.45 61.4038 116.627 60.2853C118.041 60.5187 119.418 60.9748 120.852 61.154C121.494 61.2789 124.05 61.3875 124.097 61.7458C124.279 63.0489 123.758 66.513 123.382 66.9637C122.84 67.6153 119.12 66.3176 117.66 65.4597C117.185 65.2045 116.664 64.971 116.293 64.5584C116.194 64.4172 116.126 64.2652 116.079 64.1023C116.038 63.9503 116.032 63.7928 116.064 63.6353ZM115.641 90.2786C115.61 90.2677 115.579 90.2623 115.547 90.2569C115.266 90.1157 115.005 89.8876 114.937 89.5564C114.874 88.0524 115.01 86.5538 115.135 85.0553C115.135 84.9684 115.146 84.8815 115.172 84.8001C115.172 84.7349 115.12 84.6969 115.062 84.7023C114.984 84.7078 114.968 84.8001 114.958 84.8652C114.874 85.7774 114.368 87.1565 114.217 88.3999C114.196 88.3836 114.175 88.3673 114.16 88.3456C113.184 87.0642 115.057 81.336 114.812 79.4356C114.807 79.3976 114.916 78.3768 114.968 77.9153C115.177 75.7706 115.349 73.6204 115.636 71.4812C115.834 69.8848 116.038 68.2885 116.189 66.6868C116.22 66.2904 116.257 65.8941 116.267 65.4977C116.596 65.742 116.971 65.9267 117.331 66.1167C118.87 67.0289 120.565 67.3981 122.282 67.7619C122.229 68.0279 122.214 68.2994 122.151 68.5655C121.421 71.8612 120.764 75.2168 120.372 78.5777C120.289 79.4627 120.32 80.3532 120.461 81.2328C120.758 82.6065 121.108 83.9911 120.983 85.4136C120.931 85.886 120.899 86.3638 120.826 86.8362L120.837 87.0262C120.852 87.1402 120.863 87.2488 120.858 87.3629C120.858 87.39 120.858 87.4171 120.858 87.4443C120.858 87.5366 120.863 87.6235 120.868 87.7158C120.884 87.7266 120.899 87.7321 120.915 87.7429C120.936 87.7592 120.957 87.7809 120.972 87.8027C120.894 88.9049 120.717 90.0234 120.117 90.0505C120.132 89.9691 120.08 89.9094 120.018 89.8931C120.018 89.8768 120.018 89.8605 120.018 89.8442C120.054 89.7085 120.112 89.5836 120.169 89.4641C120.169 89.4315 120.169 89.3935 120.164 89.361C120.164 89.3284 120.164 89.2904 120.164 89.2578C120.148 89.2035 120.138 89.1438 120.122 89.0895C120.091 88.9592 120.065 88.8234 120.044 88.6877C120.033 88.6062 120.023 88.5302 120.018 88.4488C120.018 88.3565 120.033 88.2642 120.054 88.1719C120.054 88.1556 120.065 88.1393 120.07 88.123C120.07 88.1013 120.07 88.0741 120.07 88.0524C120.07 88.0253 120.07 87.9981 120.07 87.9764C119.778 87.0805 119.329 86.2226 119.235 85.2779C119.298 85.2127 119.256 85.0933 119.167 85.0878C118.839 85.0498 119.032 86.3258 119.027 86.5756C119.079 87.2868 119.277 87.9547 119.522 88.6225C119.585 88.7528 119.621 88.9157 119.679 89.0623C119.058 90.0179 119.287 91.3482 119.131 92.4558C119.11 92.5862 119.016 92.6839 118.938 92.7762C118.938 92.7762 118.938 92.7816 118.933 92.7816C118.802 92.7056 118.604 92.7708 118.505 92.6459C118.427 92.1138 118.521 91.6686 118.489 91.0876C118.463 90.0397 118.354 89.0026 118.27 87.9601C118.26 87.7646 118.239 87.5692 118.244 87.3737C118.26 87.2868 118.187 87.2054 118.103 87.2054C118.02 87.2054 117.947 87.2868 117.962 87.3737C117.973 87.933 117.936 88.4868 117.863 89.0406C117.79 89.7573 117.394 91.0876 117.467 92.0812C117.274 91.9726 117.091 91.8477 116.924 91.6903C116.559 91.3754 116.627 90.8813 116.632 90.4415C116.617 89.3881 116.632 88.3348 116.679 87.2814C116.7 86.923 116.679 86.5647 116.705 86.2063C116.726 86.1249 116.684 86.0326 116.601 86.0054C116.325 85.9729 116.408 86.3747 116.366 86.5593C116.33 86.9936 116.22 87.4063 116.116 87.8244C115.949 88.5248 115.709 89.437 115.662 90.2949L115.641 90.2786ZM145.066 114.359C145.578 114.658 146.026 114.967 146.563 115.298C146.976 115.602 147.575 115.722 147.894 116.134C147.32 116.645 145.698 115.771 145.004 115.586C144.43 115.374 143.861 115.157 143.303 114.913C143.001 114.783 142.651 114.62 142.641 114.223C142.563 113.528 142.604 112.822 142.5 112.127C143.079 112.296 143.689 112.41 144.274 112.491C144.268 112.529 144.112 113.469 144.258 113.659C144.461 113.968 144.759 114.18 145.072 114.354L145.066 114.359ZM140.622 58.7867C140.466 59.7749 140.314 60.7631 140.147 61.7513C140.127 61.8599 140.127 61.8653 140.111 61.963C139.892 63.239 139.641 64.5095 139.318 65.7638C139.182 66.285 139.026 66.8117 138.859 67.3275C138.828 67.4198 138.833 67.523 138.869 67.6098C137.983 67.3112 137.091 67.0343 136.173 66.8605C134.775 66.5945 133.45 66.0787 132.088 65.666C131.394 65.4543 130.695 65.2479 129.991 65.1122C129.809 65.0416 129.626 64.9765 129.444 64.9059C128.286 64.4932 127.06 64.5204 125.86 64.6072C125.651 64.5964 124.958 64.4552 125.077 64.857C125.197 65.0959 125.437 65.2154 125.651 65.3402C125.834 65.4706 126.016 65.5846 126.23 65.6443C126.757 65.8181 127.305 65.666 127.837 65.6334C128.645 65.5737 129.553 65.7203 130.325 66.019C131.426 66.399 132.532 66.7791 133.643 67.1429C134.117 67.3275 134.597 67.5067 135.082 67.6478C135.453 67.7402 135.828 67.8379 136.204 67.9465C136.256 67.9628 136.303 67.9791 136.35 67.9899C136.371 67.9899 136.386 68.0008 136.407 68.0008C137.602 68.3428 138.807 68.7501 139.96 69.1736C141.827 69.7926 143.627 70.5907 145.312 71.6386C146.73 72.4476 148.181 73.1969 149.505 74.1743C150.351 74.7281 151.18 75.2982 151.999 75.89C152.823 76.4547 153.699 76.938 154.492 77.5569C155.363 78.2465 155.989 79.213 156.834 79.9297C158.817 81.4988 158.54 83.497 158.123 85.7774C156.709 92.3093 153.788 98.3633 150.705 104.195C149.891 105.59 148.973 106.92 148.071 108.251C147.518 109.092 146.908 109.896 146.428 110.786C146.339 110.955 146.355 111.161 146.444 111.318C146.344 111.411 146.25 111.503 146.151 111.557C145.51 111.769 144.806 111.481 144.159 111.384C143.204 111.183 142.218 110.933 141.431 110.303C140.966 109.934 140.679 109.304 140.773 108.701C140.956 107.306 141.305 105.981 141.66 104.624C142.568 101.257 143.533 97.9072 144.691 94.6277C145.478 92.3092 146.256 89.9691 146.558 87.5203C146.642 86.6299 146.845 85.6579 146.506 84.8055C146.35 84.4417 145.984 84.2788 145.625 84.2245C145.139 84.1376 144.649 84.0779 144.169 83.9965C143.142 83.8553 142.104 83.7413 141.076 83.6001C139.944 83.4481 138.822 83.2146 137.701 83.0191C137.691 83.0191 137.685 83.0191 137.675 83.0191C137.367 82.9323 137.059 82.8454 136.752 82.764C135.374 82.4382 133.987 82.183 132.62 81.8192C130.101 81.1459 127.503 80.2283 124.994 79.441C124.629 79.3324 124.259 79.2293 123.888 79.1587C123.779 79.137 123.622 79.1207 123.539 79.2184C123.455 79.3161 123.513 79.479 123.627 79.5062C124.17 79.8157 124.686 80.1957 125.203 80.5541C125.87 80.9722 126.585 81.3034 127.289 81.6563C128.87 82.3187 130.492 82.9051 132.14 83.3829C131.958 83.9096 131.791 84.4417 131.655 84.9901C131.071 87.1891 130.388 89.3555 129.762 91.5437C128.786 94.6331 128.04 97.7878 127.472 100.986C127.023 103.103 127.237 105.292 126.955 107.431C126.449 110.83 125.771 114.196 125.067 117.557C124.598 119.664 124.17 121.781 123.706 123.888C123.147 126.141 122.829 128.509 121.525 130.463C121.004 131.424 120.132 132.125 119.074 132.304C118.432 132.369 117.811 132.157 117.185 132.038C117.081 131.94 116.971 131.826 116.924 131.685C116.684 131.033 116.591 130.338 116.491 129.654C116.1 126.185 116.606 122.715 116.83 119.251C117.227 111.563 117.316 103.842 116.752 96.1534C116.632 94.9426 116.549 93.7318 116.486 92.521C116.7 92.6568 116.961 92.7545 117.284 92.8033C117.42 92.8033 117.524 92.7382 117.587 92.6405C117.743 93.0368 118.051 93.2974 118.609 93.3192C118.719 93.3192 118.823 93.3192 118.922 93.2703C118.948 93.2594 118.969 93.2431 118.985 93.2269C119.021 93.2486 119.058 93.2703 119.1 93.2757C119.621 93.2377 119.898 92.6405 119.892 92.1464C119.934 91.5925 119.939 91.0387 119.966 90.4849C120.007 90.5229 120.059 90.5555 120.106 90.5718C120.372 90.6586 120.628 90.5066 120.842 90.3546C121.191 90.0994 121.27 89.627 121.301 89.2089C121.369 88.5845 121.395 87.9547 121.416 87.3303C121.457 87.1185 121.489 86.9013 121.515 86.6842C121.755 84.9847 121.708 83.2418 121.311 81.5694C121.066 80.1143 121.082 78.6157 121.306 77.1388C121.562 74.0059 122.511 70.9599 122.563 67.8053C122.819 67.8596 123.074 67.9139 123.33 67.9736C123.335 67.9736 123.346 67.9736 123.351 67.9736C123.857 67.9736 124.013 67.3655 124.092 66.942C124.3 65.8941 124.488 64.8353 124.665 63.7819C124.765 63.0164 124.958 62.2399 124.952 61.4635C124.843 61.1486 124.618 60.9422 124.337 60.7956C124.707 58.9224 125.135 57.0655 125.589 55.214C126.455 51.9073 127.623 48.7201 128.786 45.5112C129.11 44.6316 129.339 43.7194 129.558 42.8018C129.584 42.6932 129.61 42.5846 129.637 42.476C130.174 41.9657 130.575 41.3087 130.789 40.5811C130.826 40.4562 130.779 40.3205 130.669 40.2553C130.346 40.0761 130.143 40.5485 129.918 40.7168C129.856 40.7711 129.793 40.8309 129.741 40.896C129.741 40.8689 129.746 40.8417 129.751 40.8092C129.725 40.2065 129.824 39.6201 129.85 39.0174C129.85 38.7242 129.438 38.6536 129.365 38.9359C129.089 39.6363 129.146 40.4236 128.943 41.1566C128.906 41.3304 128.865 41.515 128.828 41.6996C128.823 41.6996 128.812 41.7105 128.807 41.7159C128.797 41.7268 128.786 41.7322 128.776 41.743C128.645 42.2534 128.51 42.7638 128.369 43.2742C128.218 43.8009 128.035 44.3167 127.858 44.8379C127.649 45.4678 127.482 46.1193 127.3 46.76C127.258 46.9066 127.211 47.0532 127.169 47.1998C127.148 47.2596 127.133 47.3193 127.112 47.379C127.06 47.5473 127.002 47.7102 126.94 47.8785C126.934 47.8948 126.929 47.9111 126.924 47.9274C126.731 48.4432 125.432 52.472 125.271 53.1181C125.114 53.7425 124.952 54.367 124.796 54.9968C124.624 55.6918 124.452 56.3922 124.274 57.0872C124.175 57.4836 124.076 57.8854 123.966 58.2817C123.852 58.7107 123.565 60.2853 123.518 60.535C123.413 60.5133 120.764 60.2201 119.632 59.9703C118.708 59.7966 117.733 59.5305 116.773 59.4491C116.773 59.4491 116.768 59.4437 116.763 59.4382C117.733 53.1073 118.495 46.7112 120.618 40.668C121.259 38.7676 121.807 36.6718 123.101 35.146C125.015 35.9008 127.039 36.3514 129.073 36.5795C129.073 36.5795 129.078 36.5795 129.084 36.5795C129.178 36.5795 129.271 36.5849 129.365 36.5958C129.464 36.6066 129.564 36.6175 129.657 36.6283C129.652 36.6283 129.647 36.6283 129.642 36.6283C129.699 36.6338 129.757 36.6392 129.814 36.6446C129.95 36.6555 130.085 36.6555 130.216 36.6663C130.273 36.6663 130.325 36.6772 130.382 36.6826C130.45 36.6935 130.513 36.6935 130.581 36.6989C130.649 36.6989 130.722 36.6989 130.789 36.6989C130.831 36.6989 130.878 36.6989 130.92 36.7098H130.925C133.032 36.7098 135.009 36.1234 136.564 34.5542C136.579 34.5542 136.595 34.5542 136.606 34.5542C136.856 34.5542 137.07 34.2556 137.232 33.9841C138.243 35.4935 138.875 37.2473 139.511 38.9576C140.325 41.0698 140.716 43.3285 140.925 45.5872C141.092 47.189 141.18 48.731 141.112 50.3599C141.112 53.1779 141.154 56.0067 140.612 58.7812L140.622 58.7867ZM142.145 55.871C142.307 54.5624 142.328 50.2459 142.333 49.7409C142.328 48.9645 142.302 48.1826 142.26 47.4007C142.265 47.4116 142.276 47.4279 142.281 47.4387C142.552 47.8188 142.818 48.1989 143.084 48.5844C143.074 48.5898 143.063 48.5952 143.053 48.6007C143.074 48.6224 143.089 48.6495 143.11 48.6767C143.189 48.7799 143.267 48.8776 143.345 48.9808C143.522 49.2142 143.705 49.4423 143.882 49.6703C144.216 50.1047 144.576 50.5119 144.941 50.9137C145.019 50.9951 145.092 51.082 145.165 51.1689C145.165 51.1689 145.155 51.158 145.15 51.1526C145.244 51.2612 145.338 51.3752 145.421 51.4947C145.463 51.5544 146.037 52.1517 145.797 52.358C145.698 52.472 145.593 52.5806 145.484 52.6838C145.479 52.6892 145.468 52.6946 145.458 52.7055C145.348 52.8195 145.239 52.939 145.129 53.053C144.206 54.0846 143.632 55.3932 142.902 56.566C142.417 57.3913 141.957 58.2383 141.509 59.0853C141.759 58.0211 142.004 56.9569 142.14 55.871H142.145ZM144.665 63.1141C144.592 63.0924 142.505 61.6535 141.791 61.0345C141.405 60.7033 141.311 60.1278 141.571 59.6771C142.328 58.3632 143.966 56.3433 144.712 55.1488C145.113 54.4864 147.195 52.0376 147.21 52.0105C147.32 51.9833 147.429 51.9779 147.549 52.0322C147.763 52.1082 147.915 52.358 148.081 52.5154C148.509 52.9987 150.382 55.0511 150.794 55.6049C150.976 55.8492 151.05 56.1587 150.992 56.4628C150.919 56.8374 150.778 57.1904 150.778 57.1904C150.773 57.2121 150.763 57.2338 150.757 57.2501C150.737 57.3098 150.71 57.3695 150.679 57.4238C150.679 57.4293 150.674 57.4401 150.669 57.4456C150.663 57.4564 150.653 57.4727 150.648 57.4836C150.648 57.4836 150.648 57.4836 150.648 57.489C150.622 57.5541 150.403 57.9071 150.314 58.0048C150.288 58.032 147.982 60.4753 147.57 60.8499C147.189 61.192 145.405 63.429 144.68 63.1032L144.665 63.1141ZM161.602 72.0893C161.409 72.1382 161.378 72.4259 161.148 72.4205C161.127 72.4205 161.101 72.4151 161.086 72.4042C160.929 72.2033 160.929 71.9101 160.856 71.6712C160.778 71.1988 160.522 70.8079 160.23 70.455C160.543 70.5798 160.851 70.7319 161.148 70.9002C161.373 71.2694 161.56 71.6441 161.665 72.0839C161.644 72.0839 161.623 72.0839 161.602 72.0893ZM162.113 74.0982C162.019 73.4413 162.385 72.8114 162.306 72.1599C162.228 71.883 162.103 71.6169 161.952 71.3671C162.113 71.4649 162.27 71.5572 162.432 71.6441C162.656 71.8232 162.849 72.0404 163.011 72.2739C162.844 72.9309 162.583 73.6204 162.113 74.0928V74.0982ZM164.607 74.0602C164.158 73.2132 164.007 72.187 163.329 71.4757C162.932 70.9925 162.385 70.721 161.852 70.4332C161.107 70.0206 160.267 69.5482 159.396 69.7328C158.629 69.9663 158.858 70.9708 159.072 71.5572C159.359 72.3716 160.084 73.0558 160.089 73.9571C160.089 73.9679 160.089 73.9788 160.089 73.9951C158.681 73.4467 158.013 71.8504 156.678 71.1662C152.745 70.2486 147.252 64.5475 146.214 63.6191C146.944 63.0109 148.008 61.9793 148.556 61.4743C149.14 60.9205 150.846 58.7161 150.888 58.7052C150.888 58.7052 150.893 58.7052 150.898 58.7052C150.924 58.7052 150.95 58.7052 150.976 58.727C151.07 58.7758 151.154 58.8573 151.232 58.9278C151.316 58.9984 151.389 59.0799 151.467 59.1559C151.644 59.3405 151.822 59.5142 152.004 59.6934C152.041 59.7314 152.077 59.764 152.114 59.802C152.114 59.802 152.119 59.8074 152.124 59.8129C152.14 59.8292 152.155 59.8455 152.176 59.8617C152.176 59.8617 152.181 59.8672 152.187 59.8726C152.187 59.8726 152.192 59.8726 152.197 59.878C152.249 59.9269 152.301 59.9758 152.354 60.0246C152.348 60.0192 152.338 60.0138 152.333 60.0029C152.734 60.3776 153.12 60.7631 153.512 61.1486C153.689 61.3277 153.872 61.5069 154.059 61.6698C154.258 61.8436 154.461 62.0227 154.654 62.1965C154.706 62.2454 154.764 62.2942 154.816 62.3431C154.805 62.3322 154.795 62.3214 154.784 62.3159C154.816 62.3431 154.847 62.3757 154.883 62.4028C154.894 62.4137 154.904 62.4191 154.91 62.43L154.894 62.4137C154.894 62.4137 154.904 62.4245 154.91 62.43C154.915 62.4354 154.925 62.4408 154.93 62.4517C155.191 62.6797 155.452 62.8969 155.713 63.125C155.984 63.3693 156.266 63.5973 156.547 63.8362L156.516 63.8037C156.542 63.8254 156.574 63.8525 156.6 63.8742C156.605 63.8797 156.615 63.8851 156.621 63.8905C156.631 63.896 156.636 63.9068 156.647 63.9123C156.657 63.9177 156.662 63.9285 156.673 63.934C156.678 63.934 156.683 63.9448 156.694 63.9503C156.694 63.9503 156.683 63.9394 156.678 63.9394C156.714 63.972 156.751 63.9991 156.787 64.0317C156.793 64.0317 156.798 64.0426 156.803 64.048C156.803 64.048 156.803 64.048 156.808 64.0534C156.808 64.0534 156.819 64.0589 156.819 64.0643C157.22 64.4009 157.617 64.743 158.008 65.0959C158.076 65.1611 158.149 65.2208 158.222 65.2859C158.545 65.5683 158.869 65.8506 159.203 66.1275C159.328 66.2307 159.458 66.3393 159.589 66.437C159.63 66.4696 159.677 66.5022 159.719 66.5348C159.714 66.5348 159.709 66.5293 159.703 66.5239C159.912 66.6705 160.121 66.8117 160.335 66.9474C160.554 67.0886 160.773 67.2189 160.997 67.3438C161.101 67.4035 161.211 67.4687 161.315 67.5338C161.852 67.7836 162.39 68.0279 162.901 68.3483C163.725 68.9401 164.612 69.7002 164.664 70.8242C164.748 71.5029 164.753 72.187 164.779 72.8766C164.758 73.2349 164.847 73.7453 164.617 74.0711L164.607 74.0602ZM128.776 22.0769C128.682 21.8489 128.432 21.7348 128.197 21.7891C128.113 21.8109 128.025 21.7946 127.941 21.7891C127.148 21.4959 126.215 20.258 126.804 19.4435C126.841 19.411 126.914 19.3458 126.971 19.3512C127.258 19.3838 127.294 18.9549 127.008 18.944C126.434 18.8463 125.975 19.3892 125.85 19.905C125.568 20.8878 126.079 22.0009 126.903 22.5656C127.112 22.7176 127.508 22.8316 127.884 22.8425C127.905 22.8425 127.92 22.8425 127.936 22.8425C128.066 22.8425 128.192 22.8316 128.301 22.8045C128.593 22.7339 128.807 22.5656 128.797 22.2507C128.797 22.2018 128.786 22.1421 128.776 22.0823V22.0769Z" fill="#0D0C21"/>
</g>
</g>
<defs>
<clipPath id="clip0_3281_2456">
<rect width="240" height="186" fill="white" transform="translate(0 -0.000488281)"/>
</clipPath>
<clipPath id="clip1_3281_2456">
<rect width="240" height="186" fill="white" transform="translate(0 -0.000488281)"/>
</clipPath>
</defs>
</svg>
