<svg width="288" height="216" viewBox="0 0 288 216" fill="none" xmlns="http://www.w3.org/2000/svg">
    <rect x="0.5" y="0.499512" width="287" height="215" fill="#F8FAFC"/>
    <rect x="0.5" y="0.499512" width="287" height="215" stroke="#E2E8F0"/>
    <path d="M154.667 98.1662H133.333V116.833L145.723 104.441C145.973 104.191 146.312 104.05 146.665 104.05C147.019 104.05 147.358 104.191 147.608 104.441L154.667 111.513V98.1662ZM130.667 96.8235C130.669 96.4733 130.809 96.1382 131.057 95.8905C131.304 95.6427 131.639 95.5023 131.989 95.4995H156.011C156.741 95.4995 157.333 96.0928 157.333 96.8235V118.176C157.331 118.526 157.191 118.861 156.943 119.109C156.696 119.356 156.361 119.497 156.011 119.5H131.989C131.638 119.499 131.302 119.36 131.054 119.111C130.806 118.863 130.667 118.526 130.667 118.176V96.8235ZM138.667 106.166C137.959 106.166 137.281 105.885 136.781 105.385C136.281 104.885 136 104.207 136 103.5C136 102.792 136.281 102.114 136.781 101.614C137.281 101.114 137.959 100.833 138.667 100.833C139.374 100.833 140.052 101.114 140.552 101.614C141.052 102.114 141.333 102.792 141.333 103.5C141.333 104.207 141.052 104.885 140.552 105.385C140.052 105.885 139.374 106.166 138.667 106.166Z" fill="#929292"/>
</svg>
