<svg width="306" height="273" viewBox="0 0 306 273" fill="none" xmlns="http://www.w3.org/2000/svg">
    <rect x="16.8369" y="13.4893" width="272.327" height="239.02" rx="3.91837" fill="#F6F6F6"/>
    <g clip-path="url(#clip0_3552_42816)">
        <rect x="30.5508" y="29.02" width="244.898" height="207.959" rx="3.91837" fill="white"/>
        <circle cx="38.3879" cy="35.8772" r="1.95918" fill="#D9D9D9"/>
        <circle cx="44.2653" cy="35.8772" r="1.95918" fill="#D9D9D9"/>
        <circle cx="50.1428" cy="35.8772" r="1.95918" fill="#D9D9D9"/>
        <path d="M43.416 58.6528V51.11H45.3772L48.7499 56.5624V51.11H50.28V58.6528H48.3189L44.9462 53.2004V58.6528H43.416ZM52.896 52.2737C52.4111 52.2737 52.0017 51.8643 52.0017 51.3794C52.0017 50.8945 52.4111 50.485 52.896 50.485C53.3809 50.485 53.7796 50.8945 53.7796 51.3794C53.7796 51.8643 53.3809 52.2737 52.896 52.2737ZM52.2064 58.6528V53.222H53.5749V58.6528H52.2064ZM54.4401 53.222H55.9056L57.3172 57.1012L58.718 53.222H60.1943L58.2116 58.6528H56.4121L54.4401 53.222ZM65.9929 57.7692C65.4865 58.4481 64.646 58.8683 63.6223 58.8683C61.6935 58.8683 60.6052 57.5214 60.6052 55.9374C60.6052 54.3319 61.6181 53.0065 63.396 53.0065C64.9046 53.0065 65.8959 54.0301 65.8959 55.4525C65.8959 55.7542 65.8528 56.0344 65.8097 56.2176H62.006C62.1353 57.2305 62.7603 57.6399 63.6115 57.6399C64.2042 57.6399 64.7214 57.3813 65.0123 56.9934L65.9929 57.7692ZM63.3637 54.1271C62.6633 54.1271 62.1999 54.515 62.0491 55.2262H64.549C64.5274 54.6767 64.1287 54.1271 63.3637 54.1271ZM68.6897 58.8145C67.6013 58.8145 66.8578 58.1895 66.8578 57.1874C66.8578 56.3684 67.4936 55.7542 68.6573 55.5603L70.3168 55.2801V55.14C70.3168 54.5689 69.8857 54.2025 69.2608 54.2025C68.7328 54.2025 68.3233 54.4504 68.0323 54.8491L67.0302 54.084C67.5151 53.4159 68.3125 53.0065 69.3039 53.0065C70.8771 53.0065 71.6852 53.9439 71.6852 55.14V58.6528H70.3168V58.1248C69.9719 58.5451 69.3254 58.8145 68.6897 58.8145ZM68.2155 57.1227C68.2155 57.4891 68.5065 57.7261 68.9698 57.7261C69.5948 57.7261 70.0474 57.4352 70.3168 57.0042V56.2391L69.0237 56.4546C68.4526 56.5516 68.2155 56.7887 68.2155 57.1227ZM76.8298 56.3038V53.222H78.2091V56.2391C78.2091 57.8662 77.2608 58.8683 75.666 58.8683C74.0713 58.8683 73.1338 57.8662 73.1338 56.2391V53.222H74.5131V56.3038C74.5131 57.0904 74.9225 57.5753 75.6768 57.5753C76.4203 57.5753 76.8298 57.0904 76.8298 56.3038ZM82.2404 55.9374C82.2404 54.3534 83.2856 53.0065 84.9989 53.0065C85.7316 53.0065 86.2596 53.2327 86.6799 53.653V50.5712H88.0591V58.6528H86.6799V58.2218C86.2596 58.6421 85.7316 58.8683 84.9989 58.8683C83.2856 58.8683 82.2404 57.5214 82.2404 55.9374ZM83.6735 55.9374C83.6735 56.8856 84.2662 57.5753 85.1929 57.5753C85.8071 57.5753 86.3135 57.3167 86.6799 56.821V55.0538C86.3135 54.5581 85.8071 54.2995 85.1929 54.2995C84.2662 54.2995 83.6735 54.9892 83.6735 55.9374ZM94.6995 57.7692C94.1931 58.4481 93.3526 58.8683 92.3289 58.8683C90.4001 58.8683 89.3118 57.5214 89.3118 55.9374C89.3118 54.3319 90.3247 53.0065 92.1026 53.0065C93.6112 53.0065 94.6026 54.0301 94.6026 55.4525C94.6026 55.7542 94.5595 56.0344 94.5164 56.2176H90.7126C90.8419 57.2305 91.4669 57.6399 92.3182 57.6399C92.9108 57.6399 93.428 57.3813 93.719 56.9934L94.6995 57.7692ZM92.0703 54.1271C91.3699 54.1271 90.9066 54.515 90.7557 55.2262H93.2556C93.2341 54.6767 92.8354 54.1271 92.0703 54.1271ZM98.8442 58.6528V53.222H100.213V53.6314C100.579 53.2759 101.042 53.0065 101.71 53.0065C102.4 53.0065 103.004 53.3082 103.359 53.8901C103.747 53.4159 104.264 53.0065 105.18 53.0065C106.301 53.0065 107.184 53.7823 107.184 55.3124V58.6528H105.805V55.3663C105.805 54.709 105.45 54.2995 104.835 54.2995C104.243 54.2995 103.919 54.709 103.704 55.0754C103.715 55.1508 103.715 55.2262 103.715 55.3124V58.6528H102.335V55.3663C102.335 54.709 101.98 54.2995 101.366 54.2995C100.741 54.2995 100.417 54.7629 100.213 55.1077V58.6528H98.8442ZM110.276 58.8145C109.188 58.8145 108.445 58.1895 108.445 57.1874C108.445 56.3684 109.08 55.7542 110.244 55.5603L111.903 55.2801V55.14C111.903 54.5689 111.472 54.2025 110.847 54.2025C110.319 54.2025 109.91 54.4504 109.619 54.8491L108.617 54.084C109.102 53.4159 109.899 53.0065 110.891 53.0065C112.464 53.0065 113.272 53.9439 113.272 55.14V58.6528H111.903V58.1248C111.559 58.5451 110.912 58.8145 110.276 58.8145ZM109.802 57.1227C109.802 57.4891 110.093 57.7261 110.557 57.7261C111.182 57.7261 111.634 57.4352 111.903 57.0042V56.2391L110.61 56.4546C110.039 56.5516 109.802 56.7887 109.802 57.1227ZM115.184 56.6701V54.4504H114.171V53.222H115.184V51.8643H116.563V53.222H118.223V54.4504H116.563V56.6701C116.563 57.2736 116.886 57.5106 117.425 57.5106C117.802 57.5106 118.05 57.4675 118.233 57.3921V58.5882C117.964 58.7067 117.641 58.7606 117.188 58.7606C115.83 58.7606 115.184 57.9955 115.184 56.6701ZM123.015 56.3038V53.222H124.394V56.2391C124.394 57.8662 123.446 58.8683 121.851 58.8683C120.257 58.8683 119.319 57.8662 119.319 56.2391V53.222H120.698V56.3038C120.698 57.0904 121.108 57.5753 121.862 57.5753C122.606 57.5753 123.015 57.0904 123.015 56.3038ZM125.909 58.6528V53.222H127.278V53.7607C127.633 53.3944 128.097 53.1142 128.711 53.1142C128.894 53.1142 129.056 53.1465 129.185 53.1896V54.5366C129.013 54.4935 128.829 54.4612 128.582 54.4612C127.913 54.4612 127.482 54.8275 127.278 55.1723V58.6528H125.909ZM130.976 52.2737C130.492 52.2737 130.082 51.8643 130.082 51.3794C130.082 50.8945 130.492 50.485 130.976 50.485C131.461 50.485 131.86 50.8945 131.86 51.3794C131.86 51.8643 131.461 52.2737 130.976 52.2737ZM130.287 58.6528V53.222H131.655V58.6528H130.287ZM133.641 56.6701V54.4504H132.628V53.222H133.641V51.8643H135.02V53.222H136.68V54.4504H135.02V56.6701C135.02 57.2736 135.344 57.5106 135.882 57.5106C136.26 57.5106 136.507 57.4675 136.691 57.3921V58.5882C136.421 58.7067 136.098 58.7606 135.645 58.7606C134.288 58.7606 133.641 57.9955 133.641 56.6701ZM140.957 52.3599H139.643L140.763 50.5712H142.25L140.957 52.3599ZM142.8 57.7692C142.294 58.4481 141.453 58.8683 140.429 58.8683C138.501 58.8683 137.412 57.5214 137.412 55.9374C137.412 54.3319 138.425 53.0065 140.203 53.0065C141.712 53.0065 142.703 54.0301 142.703 55.4525C142.703 55.7542 142.66 56.0344 142.617 56.2176H138.813C138.942 57.2305 139.567 57.6399 140.419 57.6399C141.011 57.6399 141.528 57.3813 141.819 56.9934L142.8 57.7692ZM140.171 54.1271C139.47 54.1271 139.007 54.515 138.856 55.2262H141.356C141.335 54.6767 140.936 54.1271 140.171 54.1271ZM149.552 57.5753C150.091 57.5753 150.522 57.3274 150.781 56.9503L151.847 57.7692C151.341 58.4373 150.544 58.8683 149.552 58.8683C147.677 58.8683 146.557 57.5214 146.557 55.9374C146.557 54.3534 147.677 53.0065 149.552 53.0065C150.544 53.0065 151.341 53.4375 151.847 54.1056L150.781 54.9245C150.522 54.5474 150.091 54.2995 149.531 54.2995C148.636 54.2995 147.979 54.9892 147.979 55.9374C147.979 56.8964 148.636 57.5753 149.552 57.5753ZM155.283 59.892C154.906 60.7864 154.292 61.3467 153.257 61.3467C152.837 61.3467 152.546 61.2821 152.288 61.1743V59.9674C152.46 60.0429 152.719 60.0968 152.956 60.0968C153.495 60.0968 153.829 59.9136 154.055 59.364L154.357 58.6421L152.072 53.222H153.592L155.079 56.8749L156.576 53.222H158.02L155.283 59.892ZM164.696 55.9374C164.696 57.5214 163.662 58.8683 161.938 58.8683C161.194 58.8683 160.666 58.6313 160.246 58.211V58.6528H158.878V50.5712H160.246V53.6638C160.666 53.2435 161.194 53.0065 161.938 53.0065C163.662 53.0065 164.696 54.3534 164.696 55.9374ZM161.744 54.2995C161.108 54.2995 160.58 54.5797 160.246 55.0754V56.7994C160.613 57.3059 161.13 57.5753 161.744 57.5753C162.671 57.5753 163.274 56.8856 163.274 55.9374C163.274 54.9892 162.671 54.2995 161.744 54.2995ZM170.949 57.7692C170.442 58.4481 169.602 58.8683 168.578 58.8683C166.649 58.8683 165.561 57.5214 165.561 55.9374C165.561 54.3319 166.574 53.0065 168.352 53.0065C169.861 53.0065 170.852 54.0301 170.852 55.4525C170.852 55.7542 170.809 56.0344 170.766 56.2176H166.962C167.091 57.2305 167.716 57.6399 168.568 57.6399C169.16 57.6399 169.677 57.3813 169.968 56.9934L170.949 57.7692ZM168.32 54.1271C167.619 54.1271 167.156 54.515 167.005 55.2262H169.505C169.483 54.6767 169.085 54.1271 168.32 54.1271ZM172.189 58.6528V53.222H173.558V53.7607C173.913 53.3944 174.377 53.1142 174.991 53.1142C175.174 53.1142 175.336 53.1465 175.465 53.1896V54.5366C175.293 54.4935 175.109 54.4612 174.862 54.4612C174.193 54.4612 173.762 54.8275 173.558 55.1723V58.6528H172.189Z" fill="black"/>
        <g clip-path="url(#clip1_3552_42816)">
            <rect x="22.7139" y="87.4023" width="79.6656" height="122.532" rx="3.54069" fill="white"/>
            <rect x="23.1562" y="167.068" width="78.7804" height="0.885173" fill="#0D0C21"/>
            <path d="M70.3247 157.931L68.2576 170.644C65.7199 171.595 61.386 171.912 57.7444 171.044C57.3218 170.38 55.0539 157.906 55.257 157.715C55.6042 157.416 67.1952 157.554 70.3247 157.93V157.931Z" fill="#FED980"/>
            <path d="M65.9323 150.803C66.3134 151.372 66.3014 152.116 66.1245 152.756C65.7226 154.242 64.0301 154.818 62.6324 154.815C61.5198 154.779 60.3022 154.388 59.6023 153.479C59.1983 152.898 59.1655 152.149 59.325 151.478C59.4702 150.806 59.9386 150.262 60.4868 149.87C61.0273 149.485 61.6825 149.124 62.2524 148.829C62.4381 148.759 62.5899 148.554 62.8115 148.631C63.1325 148.768 63.4274 148.962 63.7353 149.127C64.527 149.589 65.394 150.035 65.9323 150.804V150.803Z" fill="#9ACF71"/>
            <path d="M70.3302 157.684C69.5364 157.57 68.7425 157.46 67.9454 157.373C66.4025 157.213 64.8399 157.111 63.2708 157.065C63.2435 156.451 63.1846 155.165 63.1802 155.095C63.214 155.092 63.2468 155.087 63.2806 155.083C63.9347 154.994 64.5801 154.775 65.1359 154.416C65.6895 154.057 66.1645 153.569 66.4407 152.966C66.705 152.39 66.7683 151.727 66.5881 151.117C66.5204 150.889 66.4232 150.668 66.2988 150.465C66.2125 150.325 66.1153 150.194 66.0072 150.071C65.9908 150.053 65.9745 150.035 65.9592 150.017C65.8489 149.871 65.6436 149.837 65.4885 149.916C64.8902 149.251 63.2097 148.213 62.7947 148.259C62.3776 148.268 60.9767 149.146 60.4034 149.861C60.3848 149.852 60.0529 149.713 59.8705 150.05C59.6849 150.179 59.5244 150.345 59.3933 150.527C59.2547 150.722 59.1356 150.932 59.0537 151.157C58.9719 151.384 58.9107 151.619 58.8932 151.861C58.8736 152.119 58.8878 152.374 58.9402 152.628C59.0396 153.107 59.2885 153.546 59.6139 153.907C60.0354 154.373 60.5945 154.697 61.1863 154.896C61.5838 155.029 62.0031 155.102 62.4235 155.121C62.4278 155.334 62.4781 156.435 62.5054 157.047C60.1752 157.007 57.8373 157.093 55.5388 157.308C55.4886 157.313 55.0103 157.331 54.9382 157.517C54.8956 157.627 54.9142 157.744 54.9306 157.856C54.9415 157.937 54.9535 158.018 54.9666 158.099C55.0037 158.335 55.0452 158.569 55.0867 158.805C55.1937 159.416 55.304 160.025 55.4143 160.635C55.6534 161.96 55.8948 163.284 56.135 164.609C56.3567 165.828 56.5772 167.046 56.7989 168.265C56.9529 169.112 57.097 169.962 57.2608 170.808C57.358 171.31 57.7893 171.461 58.1049 171.544C59.4064 171.845 60.743 171.958 62.0751 172.016C63.8081 172.084 67.9574 171.819 68.7513 170.968C68.8124 170.913 68.9369 170.343 68.9697 170.137C69.128 169.146 69.2863 168.156 69.4446 167.164C69.6204 166.063 69.7963 164.964 69.971 163.863C70.1337 162.842 70.2975 161.821 70.4547 160.799C70.5322 160.3 70.6087 159.801 70.6742 159.3C70.7091 159.037 70.7397 158.772 70.7659 158.507C70.7746 158.412 70.7823 158.317 70.7801 158.221C70.7768 158.088 70.8107 157.753 70.3291 157.683L70.3302 157.684ZM65.5999 150.787C65.648 150.862 65.6927 150.939 65.7331 151.02C65.7703 151.096 65.803 151.176 65.8314 151.256C65.8554 151.33 65.8762 151.406 65.8926 151.483C65.9079 151.563 65.9188 151.644 65.9242 151.726C65.9286 151.81 65.9275 151.894 65.922 151.98C65.9144 152.065 65.9024 152.149 65.8849 152.233C65.8664 152.315 65.8434 152.394 65.8172 152.473C65.7823 152.566 65.7441 152.657 65.6993 152.744C65.6545 152.829 65.6043 152.911 65.5508 152.992C65.5071 153.054 65.4613 153.114 65.4132 153.172L65.3728 153.145C65.3488 153.128 65.2844 153.086 65.2199 153.043C65.0059 152.9 64.7504 152.73 64.4949 152.56C64.2863 152.422 64.0789 152.283 63.8703 152.144C64.1946 151.922 64.5014 151.674 64.8072 151.427C65.0714 151.214 65.3368 151.001 65.601 150.788L65.5999 150.787ZM61.349 149.935C61.7934 149.579 62.2564 149.23 62.7893 149.008C63.5198 149.281 64.1411 149.768 64.7471 150.26C64.7919 150.299 64.8367 150.341 64.8814 150.385C64.6303 150.587 64.378 150.79 64.128 150.994C63.9489 151.139 63.772 151.287 63.5984 151.44C63.5067 151.521 63.416 151.603 63.3287 151.688C63.309 151.707 63.2905 151.725 63.2708 151.744C62.881 151.484 62.4912 151.225 62.1014 150.965C62.0937 150.96 62.0773 150.949 62.0609 150.939L62.0162 150.909C61.9856 150.89 61.9561 150.869 61.9255 150.849L61.919 150.845C61.919 150.845 61.9135 150.842 61.9103 150.84C61.907 150.837 61.9026 150.835 61.8993 150.832C61.8993 150.832 61.8993 150.832 61.8983 150.832C61.8972 150.832 61.8983 150.832 61.8972 150.832C61.8972 150.832 61.8961 150.831 61.895 150.831C61.8939 150.831 61.8928 150.83 61.8917 150.829C61.8917 150.829 61.8906 150.829 61.8895 150.829H61.8884C61.8884 150.829 61.8884 150.826 61.8873 150.826C61.883 150.824 61.8797 150.821 61.8753 150.819C61.8491 150.801 61.8229 150.784 61.7967 150.766C61.7858 150.76 61.776 150.752 61.765 150.746C61.67 150.682 61.5652 150.612 61.4604 150.543C61.3829 150.491 61.2922 150.431 61.2016 150.37C61.2016 150.37 61.2016 150.37 61.2005 150.369C61.1929 150.365 61.1743 150.351 61.1557 150.339L61.123 150.318C61.123 150.318 61.123 150.318 61.1219 150.318C61.1055 150.307 61.088 150.296 61.0706 150.284L61.0334 150.26C61.147 150.13 61.254 150.004 61.3501 149.94L61.349 149.935ZM62.3197 154.351C62.1538 154.337 61.9878 154.313 61.824 154.281C61.6602 154.245 61.5008 154.201 61.3425 154.146C61.2049 154.095 61.0717 154.037 60.9406 153.971C60.8281 153.911 60.7179 153.846 60.6119 153.775C60.5191 153.709 60.4285 153.638 60.3433 153.563C60.2702 153.495 60.1992 153.424 60.1326 153.349C60.0736 153.278 60.0168 153.205 59.9644 153.128C59.9153 153.053 59.8705 152.974 59.829 152.895C59.793 152.819 59.7613 152.743 59.7329 152.663C59.7067 152.584 59.686 152.504 59.6685 152.422C59.6543 152.343 59.6434 152.263 59.6379 152.184C59.6336 152.099 59.6347 152.013 59.6401 151.928C59.6478 151.844 59.6598 151.761 59.6772 151.679C59.6969 151.594 59.7209 151.51 59.7493 151.427C59.7853 151.328 59.8279 151.232 59.8749 151.138C59.9535 150.986 60.0463 150.841 60.1435 150.7L60.1457 150.696C60.1511 150.688 60.1577 150.678 60.1643 150.669L60.1752 150.654C60.1839 150.642 60.1915 150.629 60.2003 150.617C60.4067 150.76 60.6174 150.897 60.8271 151.037C60.8817 151.074 60.9777 151.138 61.0738 151.201C61.1404 151.246 61.2485 151.318 61.3566 151.39L61.3818 151.406C61.3992 151.418 61.4375 151.443 61.4768 151.47C61.5019 151.486 61.5259 151.503 61.551 151.52C61.5707 151.533 61.5958 151.549 61.6198 151.566C61.6744 151.602 61.7006 151.62 61.7279 151.638C61.8939 151.749 62.1024 151.887 62.3088 152.025C63.1485 152.584 63.9893 153.145 64.8301 153.704C64.8126 153.716 64.7963 153.728 64.7788 153.74C64.6576 153.819 64.532 153.892 64.4032 153.957C64.2503 154.032 64.092 154.098 63.9304 154.154C63.7589 154.209 63.5853 154.256 63.4084 154.292C63.2337 154.325 63.0568 154.347 62.8788 154.359C62.6921 154.369 62.5054 154.368 62.3197 154.354V154.351ZM70.0288 158.885C69.9284 159.387 69.8432 159.893 69.7591 160.398C69.675 160.904 69.5932 161.408 69.5113 161.914C69.3431 162.959 69.176 164.005 69.009 165.05C68.8375 166.122 68.6661 167.195 68.4947 168.267C68.3735 169.023 68.2555 169.779 68.1321 170.536C66.8022 171.216 63.8091 171.327 62.0074 171.246C60.6655 171.192 59.3267 171.052 58.0208 170.736C58.0208 170.725 58.0208 170.714 58.0186 170.702C57.8799 169.936 57.7401 169.171 57.6015 168.404C57.3798 167.185 57.1581 165.966 56.9365 164.746C56.6973 163.431 56.4571 162.116 56.2169 160.8C56.0979 160.146 55.9778 159.492 55.8565 158.839C55.8052 158.567 55.755 158.296 55.6993 158.026C60.506 157.672 65.3422 157.691 70.1282 158.424C70.0933 158.577 70.0605 158.73 70.0299 158.883L70.0288 158.885Z" fill="#0D0C21"/>
            <path fill-rule="evenodd" clip-rule="evenodd" d="M62.5474 187.427C60.103 187.427 58.1216 185.445 58.1216 183.001C58.1216 180.557 60.103 178.575 62.5474 178.575C64.9919 178.575 66.9733 180.557 66.9733 183.001C66.9733 185.445 64.9919 187.427 62.5474 187.427ZM62.1062 184.771L65.2353 181.642L64.6095 181.016L62.1062 183.52L60.8541 182.268L60.2283 182.894L62.1062 184.771Z" fill="#0D0C21"/>
            <path d="M44.8674 199.853V194.896H45.873V199.853H44.8674ZM47.1381 199.853V196.284H48.0374V196.567C48.2853 196.326 48.6181 196.142 49.0926 196.142C49.8644 196.142 50.4805 196.673 50.4805 197.729V199.853H49.5741V197.764C49.5741 197.29 49.305 196.992 48.866 196.992C48.4128 196.992 48.172 197.297 48.0374 197.523V199.853H47.1381ZM51.1902 199.336L51.785 198.798C52.0045 199.074 52.2665 199.272 52.6064 199.272C52.8968 199.272 53.0455 199.102 53.0455 198.89C53.0455 198.267 51.3389 198.5 51.3389 197.247C51.3389 196.617 51.87 196.142 52.6135 196.142C53.1588 196.142 53.6545 196.404 53.9094 196.751L53.3146 197.275C53.1305 197.049 52.8968 196.865 52.6206 196.865C52.3373 196.865 52.2028 197.02 52.2028 197.205C52.2028 197.814 53.9094 197.601 53.9094 198.833C53.8952 199.584 53.2933 199.995 52.6206 199.995C51.9833 199.995 51.5301 199.74 51.1902 199.336ZM57.0892 198.309V196.284H57.9956V198.267C57.9956 199.336 57.3724 199.995 56.3244 199.995C55.2763 199.995 54.6603 199.336 54.6603 198.267V196.284H55.5667V198.309C55.5667 198.826 55.8358 199.145 56.3315 199.145C56.8201 199.145 57.0892 198.826 57.0892 198.309ZM58.6074 196.284H59.2731V195.909C59.2731 195.151 59.7758 194.542 60.6681 194.542C60.9938 194.542 61.27 194.62 61.4966 194.74L61.1142 195.491C61.008 195.413 60.8664 195.349 60.6823 195.349C60.3778 195.349 60.1795 195.562 60.1795 195.887V196.284H61.27V197.091H60.1795V199.853H59.2731V197.091H58.6074V196.284ZM61.6225 196.284H62.2882V195.909C62.2882 195.151 62.791 194.542 63.6832 194.542C64.009 194.542 64.2851 194.62 64.5117 194.74L64.1293 195.491C64.0231 195.413 63.8815 195.349 63.6974 195.349C63.3929 195.349 63.1946 195.562 63.1946 195.887V196.284H64.2851V197.091H63.1946V199.853H62.2882V197.091H61.6225V196.284ZM65.4123 195.661C65.0937 195.661 64.8246 195.392 64.8246 195.073C64.8246 194.754 65.0937 194.485 65.4123 194.485C65.731 194.485 65.993 194.754 65.993 195.073C65.993 195.392 65.731 195.661 65.4123 195.661ZM64.9591 199.853V196.284H65.8585V199.853H64.9591ZM66.577 199.336L67.1718 198.798C67.3913 199.074 67.6533 199.272 67.9932 199.272C68.2836 199.272 68.4323 199.102 68.4323 198.89C68.4323 198.267 66.7257 198.5 66.7257 197.247C66.7257 196.617 67.2568 196.142 68.0003 196.142C68.5456 196.142 69.0413 196.404 69.2962 196.751L68.7014 197.275C68.5173 197.049 68.2836 196.865 68.0074 196.865C67.7241 196.865 67.5896 197.02 67.5896 197.205C67.5896 197.814 69.2962 197.601 69.2962 198.833C69.282 199.584 68.6801 199.995 68.0074 199.995C67.3701 199.995 66.9169 199.74 66.577 199.336ZM71.1029 199.959C70.3876 199.959 69.899 199.549 69.899 198.89C69.899 198.352 70.3168 197.948 71.0816 197.821L72.1721 197.637V197.544C72.1721 197.169 71.8889 196.928 71.4782 196.928C71.1312 196.928 70.8621 197.091 70.6709 197.353L70.0123 196.851C70.331 196.411 70.855 196.142 71.5065 196.142C72.5404 196.142 73.0715 196.758 73.0715 197.544V199.853H72.1721V199.506C71.9455 199.782 71.5207 199.959 71.1029 199.959ZM70.7913 198.847C70.7913 199.088 70.9825 199.244 71.287 199.244C71.6977 199.244 71.9951 199.053 72.1721 198.77V198.267L71.3224 198.408C70.9471 198.472 70.7913 198.628 70.7913 198.847ZM74.1013 199.853V196.284H75.0007V196.567C75.2485 196.326 75.5813 196.142 76.0558 196.142C76.8277 196.142 77.4437 196.673 77.4437 197.729V199.853H76.5373V197.764C76.5373 197.29 76.2682 196.992 75.8292 196.992C75.376 196.992 75.1352 197.297 75.0007 197.523V199.853H74.1013ZM78.6916 198.55V197.091H78.0259V196.284H78.6916V195.392H79.598V196.284H80.6885V197.091H79.598V198.55C79.598 198.947 79.8104 199.102 80.1645 199.102C80.4123 199.102 80.5752 199.074 80.6956 199.025V199.811C80.5185 199.888 80.3061 199.924 80.0087 199.924C79.1164 199.924 78.6916 199.421 78.6916 198.55Z" fill="#0D0C21"/>
            <rect x="22.9352" y="87.6236" width="79.223" height="123.201" rx="3.3194" stroke="#DDDDDD" stroke-width="0.442587"/>
            <rect x="113.001" y="87.4023" width="79.6656" height="122.532" rx="3.54069" fill="#FFF7DB"/>
            <rect x="113.444" y="167.068" width="78.7804" height="0.885173" fill="#0D0C21"/>
            <path d="M160.458 158.303L158.391 171.017C155.854 171.968 151.52 172.285 147.878 171.417C147.456 170.753 145.188 158.278 145.391 158.087C145.738 157.788 157.329 157.927 160.458 158.302V158.303Z" fill="#FED980"/>
            <path d="M135.237 141.28C136.208 146.159 141.456 150.093 146.244 150.86C147.542 151.056 149.908 151.161 149.08 149.187C147.521 142.692 141.03 139.327 135.237 141.28Z" fill="#9ACF71"/>
            <path d="M166.311 138.2C160.503 137.63 154.184 141.974 154.083 148.238C152.949 148.773 154.887 149.512 155.407 149.529C160.598 150.492 167.04 142.976 166.311 138.2Z" fill="#9ACF71"/>
            <path d="M145.962 128.31C143.602 136.301 147.903 139.865 151.476 143.879C152.347 145.454 152.812 141.717 153 139.003C153.232 131.422 146.258 127.307 145.962 128.31Z" fill="#9ACF71"/>
            <path d="M165.305 137.621C163.988 137.649 162.657 137.783 161.401 138.198C159.303 138.885 157.512 140.322 156.052 141.945C154.661 143.53 154.019 145.577 153.818 147.645C153.815 147.913 153.64 148.737 153.732 149.198C153.466 149.666 153.211 150.14 152.969 150.621C152.873 149.706 152.764 148.793 152.633 147.882C152.503 147.035 152.348 146.192 152.172 145.354C152.344 145.004 152.448 144.409 152.642 143.773C153.03 142.76 153.198 141.68 153.266 140.601C153.559 135.814 151.796 131.273 147.663 128.625C147.215 128.327 146.748 128.058 146.259 127.832C146.181 127.782 146.088 127.744 145.995 127.727C145.75 127.579 145.474 127.803 145.424 128.061C143.335 134.545 146.444 139.97 151.152 144.274C151.278 144.802 151.395 145.333 151.501 145.865C152.018 148.51 152.302 151.207 152.514 153.905C152.426 153.749 152.335 153.594 152.241 153.441C151.499 152.341 150.677 151.288 149.785 150.295C149.737 150.073 149.688 149.85 149.634 149.628C149.318 148.331 148.901 147.048 148.284 145.861C147.968 145.254 147.595 144.681 147.163 144.15C146.677 143.553 146.124 142.999 145.514 142.53C144.338 141.625 142.952 140.971 141.499 140.667C141.487 140.665 141.476 140.662 141.464 140.66C141.464 140.66 141.462 140.66 141.46 140.66C141.457 140.66 141.453 140.659 141.45 140.658C141.443 140.656 141.424 140.651 141.406 140.649C140.586 140.491 139.75 140.451 138.917 140.46C138.152 140.47 137.383 140.535 136.626 140.655C136.274 140.711 135.922 140.779 135.574 140.86C135.472 140.884 135.37 140.907 135.269 140.938C135.094 140.99 134.948 141.086 134.914 141.28C134.889 141.423 134.97 141.571 135.094 141.642C135.088 142.207 135.507 143.193 135.583 143.488C136.05 144.819 136.843 146.018 137.784 147.061C140.207 149.844 143.341 151.052 146.971 151.219C147.334 151.247 148.629 151.286 149.387 151.059C149.417 151.066 149.448 151.072 149.48 151.072C149.482 151.072 149.484 151.072 149.485 151.072C150.823 152.594 151.934 154.253 152.666 155.988C152.696 156.432 152.726 156.877 152.755 157.321C150.401 157.274 148.084 157.371 145.53 157.619C145.48 157.623 145.003 157.644 144.931 157.83C144.888 157.94 144.908 158.057 144.924 158.169C144.936 158.25 144.948 158.331 144.961 158.412C144.999 158.648 145.041 158.882 145.083 159.117C145.193 159.728 145.305 160.336 145.417 160.946C145.66 162.27 145.906 163.594 146.15 164.918C146.376 166.135 146.601 167.353 146.827 168.571C146.985 169.419 147.131 170.267 147.298 171.113C147.397 171.616 147.829 171.765 148.145 171.846C149.448 172.143 150.784 172.251 152.118 172.305C152.291 172.311 152.489 172.313 152.704 172.313C153.664 172.331 154.628 172.305 155.581 172.186V172.141C157.021 171.976 158.373 171.685 158.791 171.236C158.852 171.18 158.974 170.609 159.006 170.405C159.161 169.413 159.316 168.422 159.471 167.43C159.642 166.329 159.815 165.229 159.986 164.128C160.146 163.106 160.306 162.085 160.46 161.063C160.536 160.564 160.611 160.065 160.675 159.564C160.709 159.301 160.74 159.035 160.764 158.771C160.772 158.676 160.779 158.581 160.777 158.485C160.774 158.352 160.806 158.015 160.324 157.949C159.53 157.837 158.735 157.73 157.938 157.645C156.404 157.492 154.955 157.393 153.529 157.345C153.515 157.06 153.499 156.775 153.478 156.49C153.465 156.332 153.453 156.173 153.441 156.015C153.451 155.955 153.446 155.893 153.427 155.832C153.324 154.526 153.222 153.22 153.1 151.916C153.169 151.809 153.251 151.682 153.356 151.53C153.703 150.836 154.068 150.15 154.452 149.475C155.175 149.67 155.92 149.792 156.668 149.819C161.243 149.965 164.557 146.164 166.135 142.225C166.783 140.793 168.067 137.375 165.307 137.63L165.305 137.621ZM151.827 143.831C151.16 141.087 150.258 138.399 149.155 135.8C149.052 135.429 148.543 135.261 148.395 135.685C148.357 135.989 148.585 136.255 148.663 136.541C149.481 138.614 150.211 140.725 150.794 142.876C150.353 142.437 149.924 141.986 149.516 141.516C146.428 137.945 144.835 134.142 145.824 129.377C145.833 129.18 145.959 128.865 146.053 128.561C146.988 129.036 147.852 129.642 148.64 130.333C152.036 133.219 153.074 138.07 152.272 142.329C152.183 142.767 152.037 143.189 151.887 143.609C151.879 143.666 151.855 143.743 151.824 143.832L151.827 143.831ZM146.992 150.452C144.804 150.3 142.478 149.867 140.645 148.563C139.022 147.43 137.599 145.942 136.69 144.166C136.359 143.484 136.103 142.768 135.901 142.037C135.848 141.9 135.83 141.734 135.788 141.583C135.86 141.568 135.932 141.551 136.004 141.536C136.693 141.397 137.386 141.306 138.086 141.254C138.757 141.213 139.427 141.208 140.097 141.248C140.49 141.276 140.883 141.318 141.27 141.396C141.273 141.396 141.274 141.396 141.276 141.396C141.304 141.403 141.333 141.408 141.361 141.414C141.728 141.494 142.089 141.597 142.445 141.718C142.823 141.856 143.191 142.014 143.551 142.193C143.909 142.378 144.256 142.578 144.591 142.8C144.901 143.013 145.197 143.244 145.481 143.49H145.482C145.49 143.498 145.497 143.505 145.504 143.511C145.772 143.754 146.048 144.029 146.308 144.319C146.589 144.641 146.849 144.98 147.089 145.333C147.301 145.653 147.491 145.984 147.665 146.326C147.933 146.866 148.165 147.424 148.364 147.993C148.495 148.375 148.616 148.773 148.728 149.179C146.247 146.699 143.305 144.672 140.069 143.339C139.796 143.188 139.363 143.314 139.45 143.68C139.602 144.056 140.673 144.316 141.064 144.579C143.745 145.944 146.565 147.964 148.851 150.374C148.24 150.491 147.612 150.501 146.991 150.452H146.992ZM160.121 158.684C160.086 158.837 160.054 158.989 160.023 159.143C159.924 159.647 159.841 160.152 159.758 160.658C159.676 161.164 159.596 161.669 159.516 162.175C159.351 163.221 159.187 164.267 159.023 165.313C158.855 166.385 158.688 167.459 158.52 168.532C158.402 169.289 158.285 170.045 158.165 170.802C157.559 171.114 156.606 171.31 155.577 171.422V171.409C155.174 171.462 154.768 171.497 154.36 171.518C154.115 171.53 153.873 171.54 153.634 171.546C153.078 171.557 152.522 171.547 151.975 171.525C151.277 171.5 150.58 171.45 149.887 171.364C149.27 171.287 148.657 171.182 148.052 171.037C148.052 171.026 148.052 171.015 148.05 171.003C147.908 170.238 147.766 169.472 147.626 168.708C147.399 167.489 147.175 166.271 146.949 165.052C146.705 163.737 146.46 162.423 146.216 161.108C146.095 160.455 145.972 159.801 145.849 159.148C145.798 158.876 145.745 158.605 145.69 158.334C150.495 157.964 155.331 157.967 160.119 158.685L160.121 158.684ZM165.226 142.366C163.865 145.553 161.238 148.667 157.574 149.015C156.642 149.109 155.758 149.001 154.852 148.781C154.996 148.541 155.142 148.303 155.293 148.067C156.888 145.525 159.151 143.469 161.839 142.111C162.295 141.897 161.977 141.216 161.525 141.415C158.661 142.839 156.246 145.089 154.556 147.797C154.781 145.824 155.343 143.864 156.705 142.356C159.203 139.604 161.954 138.27 165.717 138.39C167.053 138.423 165.523 141.705 165.226 142.367V142.366Z" fill="#0D0C21"/>
            <path fill-rule="evenodd" clip-rule="evenodd" d="M152.834 187.427C150.39 187.427 148.408 185.445 148.408 183.001C148.408 180.557 150.39 178.575 152.834 178.575C155.278 178.575 157.26 180.557 157.26 183.001C157.26 185.445 155.278 187.427 152.834 187.427ZM152.393 184.771L155.522 181.642L154.896 181.016L152.393 183.52L151.141 182.268L150.515 182.894L152.393 184.771Z" fill="#0D0C21"/>
            <path d="M139.055 194.471H138.141L138.941 193.515H139.975L139.055 194.471ZM137.164 199.853V194.896H140.053V195.732H138.17V196.907H139.77V197.743H138.17V199.017H140.053V199.853H137.164ZM141.087 199.853V196.284H141.987V196.553C142.228 196.319 142.532 196.142 142.971 196.142C143.424 196.142 143.821 196.341 144.055 196.723C144.309 196.411 144.649 196.142 145.251 196.142C145.988 196.142 146.568 196.652 146.568 197.658V199.853H145.662V197.693C145.662 197.261 145.428 196.992 145.025 196.992C144.635 196.992 144.423 197.261 144.281 197.502C144.288 197.552 144.288 197.601 144.288 197.658V199.853H143.382V197.693C143.382 197.261 143.148 196.992 142.744 196.992C142.334 196.992 142.121 197.297 141.987 197.523V199.853H141.087ZM150.881 199.272C150.548 199.718 149.995 199.995 149.323 199.995C148.055 199.995 147.34 199.109 147.34 198.069C147.34 197.013 148.006 196.142 149.174 196.142C150.165 196.142 150.817 196.815 150.817 197.75C150.817 197.948 150.789 198.132 150.76 198.253H148.26C148.345 198.918 148.756 199.187 149.316 199.187C149.705 199.187 150.045 199.017 150.236 198.762L150.881 199.272ZM149.153 196.879C148.692 196.879 148.388 197.134 148.289 197.601H149.932C149.918 197.24 149.656 196.879 149.153 196.879ZM151.696 199.853V196.284H152.595V196.638C152.829 196.397 153.133 196.213 153.537 196.213C153.657 196.213 153.763 196.234 153.848 196.263V197.148C153.735 197.12 153.615 197.098 153.452 197.098C153.013 197.098 152.73 197.339 152.595 197.566V199.853H151.696ZM154.149 200.476C154.149 200.122 154.326 199.839 154.645 199.605C154.503 199.464 154.425 199.272 154.425 199.088C154.425 198.805 154.546 198.578 154.815 198.38C154.503 198.146 154.333 197.792 154.333 197.396C154.333 196.702 154.872 196.142 155.764 196.142C156.04 196.142 156.281 196.192 156.486 196.284H157.789V197.049H157.159C157.194 197.162 157.208 197.275 157.208 197.396C157.208 198.097 156.684 198.663 155.764 198.663C155.643 198.663 155.53 198.656 155.424 198.635C155.346 198.706 155.304 198.784 155.304 198.862C155.304 199.003 155.381 199.074 155.544 199.074H156.444C157.343 199.074 157.832 199.556 157.832 200.221C157.832 201.014 157.074 201.623 155.962 201.623C154.822 201.623 154.149 201.227 154.149 200.476ZM155.778 197.984C156.153 197.984 156.394 197.75 156.394 197.396C156.394 197.042 156.153 196.815 155.778 196.815C155.389 196.815 155.155 197.049 155.155 197.396C155.155 197.75 155.389 197.984 155.778 197.984ZM154.999 200.349C154.999 200.689 155.325 200.901 155.955 200.901C156.607 200.901 156.939 200.66 156.939 200.306C156.939 200.037 156.776 199.846 156.344 199.846H155.24C155.105 199.973 154.999 200.129 154.999 200.349ZM161.565 199.272C161.232 199.718 160.68 199.995 160.007 199.995C158.739 199.995 158.024 199.109 158.024 198.069C158.024 197.013 158.69 196.142 159.858 196.142C160.85 196.142 161.501 196.815 161.501 197.75C161.501 197.948 161.473 198.132 161.445 198.253H158.945C159.03 198.918 159.44 199.187 160 199.187C160.389 199.187 160.729 199.017 160.921 198.762L161.565 199.272ZM159.837 196.879C159.377 196.879 159.072 197.134 158.973 197.601H160.616C160.602 197.24 160.34 196.879 159.837 196.879ZM162.38 199.853V196.284H163.279V196.567C163.527 196.326 163.86 196.142 164.334 196.142C165.106 196.142 165.722 196.673 165.722 197.729V199.853H164.816V197.764C164.816 197.29 164.547 196.992 164.108 196.992C163.655 196.992 163.414 197.297 163.279 197.523V199.853H162.38ZM166.97 198.55V197.091H166.305V196.284H166.97V195.392H167.877V196.284H168.967V197.091H167.877V198.55C167.877 198.947 168.089 199.102 168.443 199.102C168.691 199.102 168.854 199.074 168.974 199.025V199.811C168.797 199.888 168.585 199.924 168.287 199.924C167.395 199.924 166.97 199.421 166.97 198.55Z" fill="#0D0C21"/>
            <rect x="110.568" y="84.9684" width="84.534" height="128.512" rx="5.97492" stroke="#FED980" stroke-width="1.32776"/>
            <rect x="203.289" y="87.4023" width="79.6656" height="122.532" rx="3.54069" fill="#F6F6F6"/>
            <rect x="203.731" y="167.068" width="78.7804" height="0.885173" fill="#0D0C21"/>
            <path d="M250.709 158.175L248.647 170.854C246.117 171.803 241.794 172.119 238.163 171.253C237.741 170.591 235.479 158.15 235.682 157.959C236.028 157.661 247.588 157.799 250.709 158.174V158.175Z" fill="#E6E6E6"/>
            <path d="M255.018 124.82C255.941 123.493 256.05 121.776 255.751 120.228C255.577 119.481 255.313 118.665 254.829 118.042C254.293 117.597 253.764 118.646 253.502 119.01C252.58 120.437 251.972 122.141 252.237 123.856C252.334 124.555 252.505 125.321 253.033 125.825C253.818 126.344 254.604 125.416 255.018 124.82Z" fill="#C1C1C1"/>
            <path d="M266.829 122.702C266.655 122.526 266.402 122.482 266.178 122.399C264.906 121.942 263.497 121.924 262.224 122.385C260.95 122.783 259.863 123.618 259.146 124.742C258.865 125.137 258.563 125.558 258.321 125.988C258.237 126.14 258.148 126.336 258.272 126.495C258.372 126.622 258.533 126.651 258.666 126.588C259.1 127.011 259.735 127.121 260.322 127.135C261.858 127.205 263.27 126.547 264.475 125.644C265.045 125.212 267.502 123.474 266.827 122.7L266.829 122.702Z" fill="#C1C1C1"/>
            <path d="M254.64 129.441C254.395 129.835 254.662 130.321 254.868 130.675C255.459 131.615 256.491 132.299 257.608 132.38C258.22 132.481 258.65 131.946 258.484 131.362C258.188 130.377 257.385 129.536 256.421 129.179C255.943 129.024 255.447 128.887 254.946 128.838C254.645 128.832 254.454 129.204 254.639 129.441H254.64Z" fill="#C1C1C1"/>
            <path d="M243.773 120.592C243.541 120.265 243.142 120.571 242.865 120.675C242.003 121.053 241.183 121.531 240.447 122.12C240.109 122.445 239.196 123.033 239.163 123.487C239.226 124.14 240.083 124.257 240.61 124.321C241.977 124.415 243.424 123.915 244.404 122.947C244.814 122.476 245.274 121.972 245.443 121.359C245.488 120.52 244.382 120.428 243.773 120.593V120.592Z" fill="#C1C1C1"/>
            <path d="M235.835 118.319C235.616 118.139 235.427 117.812 235.12 117.802C235.054 117.69 234.929 117.642 234.804 117.652C234.351 117.722 234.344 118.729 234.296 119.101C234.273 119.597 234.316 120.092 234.406 120.58C234.657 121.803 235.054 123.157 236.07 123.96C236.4 124.161 236.82 124.051 237.066 123.772C237.719 122.938 237.537 121.728 237.283 120.771C237.03 119.841 236.527 118.989 235.835 118.318V118.319Z" fill="#C1C1C1"/>
            <path d="M229.682 116.349C229.039 116.256 228.997 117.001 228.983 117.468C229.038 119.021 229.597 120.587 230.679 121.72C230.892 121.945 231.131 122.203 231.458 122.227C233.014 122.05 232.371 118.927 231.754 118.055C231.283 117.286 230.607 116.525 229.682 116.349Z" fill="#C1C1C1"/>
            <path d="M225.405 125.098C225.039 125.133 224.662 125.125 224.303 125.194C224.155 125.214 224.036 125.322 223.993 125.457C223.603 126.1 224.133 126.868 224.669 127.241C225.221 127.617 225.882 127.847 226.548 127.899C227.251 127.957 227.94 127.757 228.585 127.496C229.379 127.245 229.527 126.611 228.974 126.006C228.035 125.14 226.623 125.055 225.405 125.097V125.098Z" fill="#C1C1C1"/>
            <path d="M225.123 132.796C224.991 132.695 224.811 132.693 224.679 132.78C224.275 132.993 224.517 133.862 224.574 134.237C224.826 135.286 225.255 136.303 225.86 137.198C226.432 138.039 227.315 138.599 228.18 139.102C228.435 139.222 228.748 139.111 228.881 138.865C229.195 138.074 228.679 137.146 228.329 136.44C227.493 135.051 226.41 133.787 225.124 132.797L225.123 132.796Z" fill="#C1C1C1"/>
            <path d="M221.461 144.039C220.414 143.878 219.356 144.221 218.422 144.673C217.497 145.14 215.534 146.336 216.745 147.466C218.251 148.623 221.39 146.249 222.012 144.831C222.139 144.742 222.173 144.547 222.106 144.413C222.153 144.053 221.746 143.762 221.461 144.039Z" fill="#C1C1C1"/>
            <path d="M223.99 145.66C223.844 145.512 223.597 145.514 223.451 145.66C223.226 145.881 223.386 146.163 223.574 146.343C222.5 147.633 222.436 149.49 222.902 151.043C223.077 151.617 223.261 152.28 223.811 152.607C224.722 152.945 225.125 151.44 225.263 150.787C225.45 149.891 225.469 148.95 225.258 148.057C225.033 147.178 224.587 146.343 223.99 145.661V145.66Z" fill="#C1C1C1"/>
            <path d="M261.286 137.863C260.766 137.95 260.249 138.054 259.738 138.181C257.922 138.64 256.24 139.835 255.334 141.49C255.068 141.614 255.061 142.001 255.304 142.152C255.854 142.5 256.483 142.751 257.132 142.823C258.841 142.99 260.486 141.989 261.38 140.567C261.784 139.952 262.176 139.281 262.256 138.537C262.274 137.938 261.821 137.715 261.286 137.863Z" fill="#C1C1C1"/>
            <path d="M255.662 145.703C255.264 144.929 254.636 144.303 253.91 143.831C253.363 143.417 252.92 143.65 252.692 144.245C252.271 145.351 252.627 146.593 253.238 147.557C253.805 148.421 254.662 149.07 255.568 149.544C256.325 149.824 256.476 148.74 256.444 148.21C256.395 147.33 256.07 146.478 255.662 145.705V145.703Z" fill="#C1C1C1"/>
            <path d="M253.752 127.52C250.073 128.116 247.158 130.745 244.938 133.592C244.22 134.46 243.156 135.636 242.521 136.566C242.487 136.627 241.631 134.798 241.537 134.303C241.22 132.766 240.905 131.116 240.199 129.685C239.934 129.13 238.645 127.121 238.163 126.802C237.117 126.13 235.935 125.715 234.762 125.327C234.055 125.088 231.947 124.452 231.714 124.367C231.617 124.331 231.522 126.158 235.858 128.362C236.831 128.985 237.496 129.947 238.052 130.949C239.94 134.359 240.591 143.062 240.563 144.794C240.506 145.135 240.419 146.222 239.922 146.107C239.069 145.991 238.3 145.558 237.524 145.211C235.775 144.476 234.2 143.42 232.523 142.548C231.719 142.129 230.862 141.846 230.008 141.551C228.786 141.107 227.571 140.643 226.328 140.26C225.552 140.012 223.641 139.09 223.486 139.163C223.35 139.227 223.261 139.37 223.288 139.522C223.302 139.604 223.833 140.211 223.981 140.346C224.203 140.547 225.986 141.861 226.256 141.97C231.242 144.017 239.442 148.878 239.766 149.16L239.778 149.17C239.784 149.175 239.79 149.181 239.796 149.185C239.796 149.185 240.759 150.472 240.799 150.587C240.856 150.76 241.566 158.116 241.582 157.416C241.561 157.475 244.53 157.439 245.108 157.463C245.299 148.933 245.859 146.642 246.423 145.744C246.853 145.159 247.439 144.614 248.08 144.241C249.332 143.694 250.781 143.555 252.139 143.401C252.516 143.369 252.987 143.394 253.163 142.98C253.323 142.683 253.156 142.348 252.912 142.156C249.081 140.051 244.07 145.283 243.792 145.503C243.617 143.936 245.197 136.096 245.688 135.263C246.795 133.66 247.982 132.113 249.544 130.894C250.678 130.021 252.024 129.509 253.321 128.937C253.732 128.714 254.412 128.54 254.437 127.983C254.419 127.645 254.05 127.479 253.75 127.523L253.752 127.52Z" fill="white"/>
            <path fill-rule="evenodd" clip-rule="evenodd" d="M257.927 126.435C258.51 123.355 262.332 121.087 265.327 121.873L265.331 121.871C265.414 121.887 265.504 121.902 265.597 121.918C266.404 122.057 267.502 122.245 267.227 123.288C266.989 124.002 266.442 124.552 265.911 125.086C265.779 125.219 265.648 125.35 265.523 125.483C264.231 126.844 262.393 127.695 260.498 127.558C259.703 127.504 258.899 127.425 258.131 127.204C258.112 127.198 258.093 127.19 258.076 127.181C257.194 127.423 256.302 127.633 255.412 127.822C254.481 128.004 253.544 128.167 252.606 128.305C252.588 128.308 252.569 128.312 252.55 128.317C252.495 128.379 252.415 128.424 252.306 128.432C248.899 128.977 246.442 132.275 244.705 134.606C243.486 136.243 242.621 137.403 242.033 136.799C241.65 136.198 241.507 135.483 241.365 134.772C241.292 134.406 241.22 134.041 241.114 133.694C241.069 133.534 241.024 133.373 240.979 133.211L240.978 133.208L240.978 133.207C240.419 131.204 239.825 129.077 238.382 127.546C237.751 127.062 237.004 126.771 236.261 126.482C235.962 126.366 235.665 126.25 235.375 126.122C234.278 125.67 233.187 125.201 232.096 124.731L232.095 124.731L232.021 124.699C232.002 124.688 231.98 124.677 231.958 124.666C232.13 125.049 232.378 125.386 232.624 125.721C232.748 125.889 232.871 126.056 232.984 126.228C233.344 126.364 233.699 126.521 234.045 126.692C236.253 127.791 238.175 129.579 239.105 131.895C239.533 133.187 239.799 134.531 240.028 135.87C240.408 138.037 240.663 140.226 240.71 142.427C240.713 142.519 240.716 142.611 240.719 142.703L240.719 142.704C240.743 143.442 240.767 144.181 240.763 144.921C240.771 145.661 240.712 146.975 239.645 146.734C238.579 146.399 237.619 145.801 236.67 145.21C236.438 145.066 236.207 144.921 235.974 144.781C234.951 144.143 233.924 143.511 232.85 142.958C231.591 142.28 230.246 141.81 228.902 141.341C228.473 141.191 228.044 141.042 227.617 140.885C227.614 140.884 227.61 140.883 227.607 140.881C227.603 140.88 227.599 140.878 227.596 140.877C226.728 140.675 225.417 140.185 224.509 139.846C224.064 139.68 223.715 139.549 223.562 139.506C224.435 140.452 225.517 141.203 226.66 141.788C226.752 141.836 226.845 141.879 226.94 141.92C227.197 142.019 227.584 142.168 227.807 142.283C228.777 142.863 229.819 143.288 230.861 143.712C231.981 144.169 233.101 144.625 234.131 145.274C234.949 145.819 235.805 146.26 236.655 146.698C238.014 147.398 239.357 148.09 240.506 149.186C240.719 149.421 241.059 150.14 241.073 150.642C241.085 150.739 241.094 150.835 241.103 150.924C241.118 151.076 241.131 151.206 241.148 151.275C241.465 153.156 241.76 155.041 241.972 156.937C241.987 157.045 241.96 157.133 241.909 157.202C242.91 157.202 243.911 157.227 244.907 157.273C244.871 157.049 244.881 156.78 244.89 156.527C244.898 156.293 244.906 156.074 244.877 155.918C244.874 155.772 244.871 155.625 244.869 155.479L244.868 155.475C244.824 153.19 244.779 150.891 245.131 148.631C245.176 148.423 245.218 148.21 245.261 147.995L245.261 147.994C245.482 146.874 245.714 145.701 246.477 144.838C247.889 143.53 249.886 142.984 251.759 142.887C252.103 142.869 252.531 143.172 252.964 143.617C253.172 143.515 253.454 143.597 253.707 143.669C253.803 143.697 253.895 143.724 253.977 143.738C255.307 144.179 256.379 145.327 256.742 146.68C257.023 147.569 257.19 150.186 255.725 149.953C253.696 149.139 251.916 147.158 252.034 144.871L252.038 144.835C252.064 144.603 252.105 144.241 252.23 143.992C252.063 143.811 251.878 143.633 251.682 143.665C249.883 143.899 247.699 144.274 246.655 145.889C245.562 148.613 245.586 151.596 245.609 154.48L245.609 154.499C245.612 154.782 245.616 155.064 245.621 155.347L245.621 155.347C245.63 155.912 245.639 156.476 245.635 157.041C245.643 157.123 245.641 157.219 245.628 157.313C246.236 157.349 246.84 157.393 247.443 157.445V157.455C247.693 157.477 247.942 157.5 248.191 157.525C248.986 157.61 249.779 157.717 250.571 157.828V157.829C251.02 157.891 251.021 158.187 251.022 158.334C251.022 158.345 251.022 158.355 251.023 158.364C251.025 158.459 251.018 158.554 251.009 158.649C250.986 158.912 250.955 159.177 250.921 159.44C250.857 159.939 250.782 160.437 250.707 160.935C250.577 161.793 250.444 162.651 250.309 163.509C250.284 163.67 250.259 163.831 250.234 163.992C250.149 164.54 250.063 165.089 249.977 165.638C249.891 166.187 249.806 166.736 249.72 167.285L249.256 170.251C249.225 170.455 249.103 171.024 249.042 171.08C248.789 171.353 248.192 171.567 247.441 171.73V171.746C245.983 172.107 244.476 172.185 242.982 172.156C242.763 172.156 242.563 172.154 242.388 172.147C241.058 172.094 239.725 171.986 238.426 171.69C238.11 171.609 237.68 171.46 237.581 170.959C237.472 170.406 237.371 169.852 237.271 169.298C237.218 169.006 237.166 168.715 237.112 168.424C237.01 167.879 236.91 167.333 236.809 166.788C236.685 166.119 236.561 165.449 236.436 164.78C236.361 164.371 236.285 163.962 236.209 163.552C236.041 162.641 235.872 161.73 235.705 160.819C235.673 160.644 235.64 160.468 235.608 160.292C235.529 159.86 235.45 159.428 235.372 158.995C235.33 158.761 235.289 158.527 235.25 158.292C235.237 158.211 235.225 158.131 235.214 158.05L235.211 158.036C235.196 157.928 235.179 157.817 235.22 157.711C235.287 157.538 235.708 157.509 235.803 157.502C235.81 157.502 235.815 157.501 235.818 157.501C237.04 157.383 238.273 157.301 239.51 157.256V157.246C240.097 157.224 240.685 157.21 241.273 157.205C241.244 157.16 241.223 157.107 241.215 157.041C241.099 155.875 240.918 154.717 240.738 153.559L240.738 153.558C240.6 152.672 240.462 151.787 240.353 150.897C240.353 150.895 240.353 150.892 240.353 150.889C240.353 150.882 240.353 150.875 240.353 150.867C240.353 150.861 240.353 150.855 240.353 150.849C240.349 150.825 240.345 150.801 240.345 150.778C240.298 150.229 239.74 149.396 239.083 148.976C238.183 148.371 237.221 147.87 236.26 147.369L236.084 147.277C235.478 146.97 234.895 146.621 234.312 146.273C233.722 145.92 233.131 145.567 232.517 145.256C231.872 144.942 231.207 144.674 230.542 144.406C229.54 144.001 228.538 143.597 227.609 143.036C227.493 142.97 227.345 142.904 227.192 142.836L227.139 142.813L227.116 142.802L227.085 142.789L227.051 142.777C227.017 142.765 226.983 142.753 226.95 142.74C226.06 143.075 225.189 143.46 224.333 143.875C224.35 143.977 224.326 144.085 224.302 144.19C224.297 144.216 224.291 144.241 224.286 144.265C224.185 144.828 224.166 145.366 224.166 145.911C224.882 145.698 225.695 147.772 225.763 148.289C226.048 149.608 226.142 151.094 225.379 152.276C225.09 152.745 224.521 153.281 223.937 152.99C222.076 151.266 221.779 148.146 223.024 145.974C223.035 145.956 223.047 145.938 223.058 145.919C223.15 145.773 223.247 145.617 223.415 145.556C223.417 145.121 223.434 144.688 223.531 144.274C223.354 144.364 223.177 144.457 223.001 144.549C222.655 145.158 222.225 145.719 221.749 146.232C220.463 147.587 218.091 148.996 216.352 147.673C215.607 147.005 215.883 146.273 216.516 145.655C217.189 144.919 217.991 144.315 218.915 143.945C220.035 143.559 221.486 143.236 222.538 143.931C222.952 143.713 223.369 143.501 223.789 143.294C223.891 143.252 224.081 143.158 224.322 143.041C224.774 142.819 225.405 142.509 225.964 142.285C225.287 141.924 224.651 141.481 224.056 141C223.972 140.927 223.885 140.855 223.798 140.783C223.374 140.428 222.939 140.065 222.699 139.561C222.507 139.127 222.721 138.644 223.236 138.673C223.558 138.693 223.861 138.804 224.162 138.915C224.258 138.95 224.353 138.985 224.449 139.017C225.317 139.334 226.178 139.642 227.058 139.916C227.092 139.928 227.141 139.944 227.2 139.963C227.396 140.026 227.702 140.125 227.971 140.25L228.043 140.273C228.226 140.333 228.41 140.392 228.594 140.45C228.679 140.477 228.764 140.504 228.849 140.531C228.814 140.467 228.779 140.403 228.744 140.339C228.689 140.24 228.634 140.14 228.58 140.04C228.569 140.02 228.556 139.996 228.541 139.969L228.54 139.968L228.54 139.968L228.539 139.966C228.527 139.944 228.513 139.92 228.498 139.893C228.482 139.889 228.466 139.884 228.449 139.878C226.75 139.072 224.619 136.384 224.208 134.596C224.2 134.539 224.191 134.481 224.182 134.422C224.092 133.835 223.986 133.138 224.341 132.651C224.341 132.651 224.341 132.65 224.341 132.65C224.342 132.649 224.343 132.649 224.343 132.649C224.409 132.515 224.562 132.422 224.723 132.45C227.249 133.233 229.725 136.435 229.401 139.137C229.389 139.204 229.38 139.282 229.371 139.364C229.356 139.505 229.339 139.659 229.299 139.793C229.512 140.175 229.692 140.502 229.796 140.707C229.836 140.76 229.863 140.816 229.881 140.874C230.948 141.245 232 141.67 232.999 142.18C234.085 142.724 235.123 143.353 236.153 143.994C236.444 144.167 236.732 144.348 237.022 144.53C237.931 145.102 238.848 145.68 239.87 145.997C240.028 145.495 240.011 144.955 239.995 144.423C239.988 144.221 239.982 144.02 239.985 143.822C239.971 143.245 239.954 142.669 239.933 142.092C239.887 140.08 239.624 138.085 239.29 136.103C239.086 134.824 238.812 133.551 238.443 132.308C237.968 131.087 237.18 129.955 236.216 129.079C235.123 128.111 233.874 127.355 232.51 126.863C232.509 126.863 232.508 126.862 232.508 126.862C232.507 126.862 232.506 126.861 232.506 126.861C232.506 126.861 232.505 126.861 232.505 126.861C232.249 126.913 231.938 126.912 231.662 126.912C231.453 126.912 231.265 126.911 231.137 126.934C230.76 126.952 230.383 126.964 230.007 126.973C229.85 127.397 228.705 127.921 228.306 128.018C227.772 128.17 227.202 128.199 226.649 128.148C225.762 128.06 224.861 127.853 224.117 127.338C223.605 126.993 223.179 126.381 223.205 125.745C223.286 125.147 223.915 124.954 224.427 124.796C224.469 124.783 224.51 124.771 224.551 124.758C225.899 124.389 227.413 124.549 228.619 125.27C228.946 125.464 229.265 125.672 229.572 125.897C229.688 125.967 229.778 126.088 229.799 126.214C230.341 126.203 230.883 126.182 231.425 126.16C231.605 126.153 231.784 126.146 231.964 126.139L231.934 126.094C231.606 125.602 230.296 123.639 231.294 123.586C231.39 123.61 231.465 123.665 231.526 123.739C231.693 123.734 231.89 123.806 232.03 123.89L232.097 123.918L232.097 123.918C232.149 123.94 232.201 123.962 232.253 123.984C232.206 123.867 232.162 123.747 232.119 123.632C232.05 123.444 231.985 123.267 231.916 123.134C231.892 123.075 231.868 123.015 231.844 122.956C231.82 122.896 231.796 122.836 231.772 122.777C231.368 122.799 230.863 122.426 230.543 122.19C230.513 122.168 230.484 122.146 230.457 122.127C229.133 121.049 228.364 119.364 228.388 117.659C228.293 116.456 229.091 115.805 230.248 116.154C231.009 116.358 231.586 116.955 232.027 117.58C232.799 118.676 233.189 120.053 233.07 121.386C233.037 121.695 232.894 122.481 232.578 122.776L232.6 122.833C232.736 123.181 232.873 123.53 233.016 123.876C233.035 123.931 233.059 123.985 233.083 124.039C233.133 124.149 233.182 124.259 233.192 124.378C233.379 124.457 233.566 124.536 233.753 124.615C234.562 124.958 235.37 125.301 236.185 125.63C236.395 125.722 236.61 125.808 236.826 125.894L236.903 125.925C236.726 125.441 236.556 124.953 236.402 124.46C236.378 124.455 236.356 124.45 236.333 124.441C235.068 123.869 234.37 122.48 234.127 121.169C233.928 120.197 233.862 119.193 233.959 118.206C233.961 117.609 234.391 117.101 235.02 117.284C237.155 118.074 238.554 121.772 237.632 123.825C237.555 124.059 237.392 124.347 237.184 124.414C237.244 124.601 237.305 124.786 237.368 124.969C237.68 124.615 238.287 124.176 238.902 123.781C238.751 123.531 238.954 123.191 239.102 122.945C239.116 122.922 239.13 122.899 239.142 122.877C239.91 121.686 241.157 120.853 242.501 120.441C243.878 120.061 246.502 119.411 245.828 121.805C245.125 123.64 243.004 124.807 241.082 124.73C241.006 124.716 240.913 124.707 240.811 124.697C240.365 124.651 239.758 124.59 239.777 124.13C239.261 124.45 238.76 124.794 238.283 125.168C238.195 125.227 238.115 125.301 238.035 125.375C237.908 125.492 237.782 125.609 237.622 125.663C237.711 125.882 237.805 126.121 237.854 126.334C238.272 126.535 238.669 126.774 239.011 127.094C240.722 129.034 241.353 131.576 241.969 134.062C242.143 134.763 242.315 135.459 242.511 136.136C243.011 135.53 243.501 134.888 243.997 134.239C246.14 131.436 248.388 128.494 251.957 127.73C251.991 127.681 252.036 127.637 252.086 127.603C252.209 127.494 252.313 127.365 252.406 127.23C252.645 126.855 252.813 126.447 252.944 126.026C252.922 125.998 252.9 125.971 252.878 125.943L252.872 125.937L252.849 125.907C252.639 125.636 252.473 125.333 252.336 125.02C251.566 123.16 252.063 121.031 252.898 119.279L252.904 119.265C253.109 118.855 253.317 118.439 253.594 118.073C254.309 117.213 255.363 117.837 255.831 118.62C256.129 119.07 256.301 119.594 256.406 120.12C256.807 122.047 256.155 124.054 254.975 125.587C254.692 125.95 254.367 126.296 253.997 126.572C253.863 126.672 253.683 126.673 253.55 126.583C253.437 126.885 253.302 127.178 253.135 127.454C253.666 127.369 254.196 127.276 254.725 127.178C255.798 126.978 256.869 126.732 257.927 126.435ZM243.731 171.399C243.253 171.403 242.778 171.392 242.31 171.373C241.372 171.338 240.435 171.261 239.508 171.11V171.121C239.116 171.057 238.725 170.98 238.338 170.887C238.338 170.876 238.338 170.865 238.336 170.853C238.194 170.09 238.053 169.327 237.912 168.564C237.799 167.957 237.687 167.35 237.575 166.743C237.462 166.135 237.35 165.526 237.237 164.918C236.994 163.607 236.75 162.296 236.506 160.985C236.385 160.334 236.263 159.681 236.14 159.03C236.089 158.759 236.037 158.489 235.981 158.219C240.774 157.851 245.597 157.853 250.372 158.568C250.338 158.721 250.306 158.873 250.275 159.027C250.176 159.529 250.094 160.033 250.011 160.537H250.01C249.955 160.873 249.902 161.209 249.848 161.545C249.822 161.713 249.795 161.882 249.768 162.05C249.604 163.093 249.44 164.136 249.277 165.18C249.187 165.753 249.097 166.326 249.008 166.9C248.93 167.396 248.853 167.893 248.775 168.39C248.745 168.579 248.716 168.768 248.687 168.957C248.599 169.523 248.511 170.089 248.421 170.654C248.154 170.792 247.819 170.907 247.441 171.002V170.963C246.772 171.139 246.08 171.251 245.38 171.317C244.827 171.364 244.263 171.39 243.731 171.399ZM244.608 120.812C243.168 120.956 241.692 121.344 240.594 122.335L240.593 122.333C240.289 122.603 240.011 122.903 239.778 123.238C240.08 123.06 240.339 122.915 240.505 122.824C240.77 122.684 241.039 122.549 241.31 122.419C241.767 122.228 242.063 122.919 241.607 123.121C241.16 123.338 240.72 123.57 240.29 123.817C240.371 123.828 240.461 123.846 240.56 123.866C241.025 123.959 241.684 124.091 242.541 123.769C243.33 123.492 244.062 123.026 244.615 122.398C245.007 122.001 245.648 120.689 244.608 120.812ZM223.964 125.894C224.309 127.156 226.309 127.447 227.429 127.4C227.919 127.372 228.394 127.221 228.821 126.983L228.715 126.982L228.715 126.982L228.714 126.982C228.575 126.98 228.436 126.978 228.296 126.974C227.769 126.959 227.236 126.937 226.719 126.829C226.4 126.758 226.342 126.284 226.627 126.132C226.822 126.055 227.042 126.098 227.252 126.139C227.389 126.165 227.522 126.191 227.639 126.181C228.012 126.205 228.384 126.217 228.758 126.222L228.749 126.216C228.741 126.211 228.734 126.207 228.726 126.203C228.193 125.874 227.635 125.563 227.014 125.439C226.176 125.272 225.293 125.29 224.483 125.578C224.446 125.598 224.387 125.618 224.322 125.639C224.155 125.694 223.949 125.762 223.964 125.894ZM228.599 138.554L228.668 138.676C228.672 138.552 228.669 138.427 228.663 138.294C228.386 136.225 226.864 134.339 225.061 133.367C224.995 133.323 224.919 133.289 224.841 133.259L224.841 133.266L224.84 133.272C224.839 133.28 224.838 133.288 224.838 133.297C224.8 134.881 226.296 137.092 227.632 138.373C227.311 137.81 227.013 137.281 226.915 137.097C226.818 136.914 226.867 136.685 227.052 136.576C227.225 136.475 227.477 136.529 227.574 136.713C227.761 137.071 228.173 137.801 228.599 138.554ZM221.438 145.435C221.138 145.605 220.843 145.694 220.665 145.421H220.664C220.416 145.023 221.065 144.705 221.567 144.459C221.619 144.434 221.669 144.409 221.717 144.385C220.759 144.136 219.686 144.43 218.805 144.827C217.974 145.299 217.132 145.913 216.655 146.753C216.794 147.355 217.575 147.46 218.096 147.427C219.438 147.276 220.567 146.449 221.438 145.435ZM224.174 146.7V146.738L224.173 146.737C224.186 147.344 224.207 147.949 224.238 148.554C224.256 148.883 223.809 149.063 223.588 148.824C223.515 148.75 223.482 148.656 223.477 148.554C223.449 148.002 223.43 147.447 223.418 146.894C222.89 148.217 222.881 149.779 223.499 151.062C223.532 151.108 223.59 151.22 223.662 151.358C223.881 151.776 224.227 152.438 224.387 152.261C225.652 151.043 225.26 148.855 224.657 147.398C224.542 147.172 224.405 146.954 224.238 146.761L224.174 146.7ZM254.129 146.569C253.761 145.858 253.356 145.217 252.844 144.641V144.64C252.483 146.618 254.185 148.478 255.917 149.217C256.438 148.166 256.126 146.81 255.534 145.844C255.081 145.163 254.414 144.701 253.665 144.451C254.131 145.067 254.548 145.738 254.804 146.216C255.038 146.527 254.723 146.973 254.356 146.818C254.242 146.772 254.177 146.674 254.128 146.567L254.129 146.569ZM231.626 120.342C231.817 120.835 232.009 121.328 232.202 121.819V121.818C232.568 120.62 232.135 119.129 231.479 118.127C231.02 117.455 230.27 116.62 229.37 116.878C229.108 117.08 229.131 117.429 229.152 117.752C229.16 117.86 229.166 117.965 229.163 118.061C229.256 119.587 230.104 121.091 231.415 121.888C231.248 121.473 231.084 121.056 230.926 120.638C230.742 120.179 231.429 119.885 231.626 120.342ZM236.601 122.212C236.694 122.666 236.805 123.116 236.928 123.56H236.929C237.676 121.826 236.448 118.605 234.767 118.018C234.538 119.753 234.709 122.14 236.094 123.383C235.985 122.969 235.885 122.552 235.809 122.131C235.775 121.946 235.909 121.761 236.085 121.712C236.407 121.628 236.589 121.928 236.601 122.212ZM254.119 118.64C253.716 119.27 253.398 119.953 253.143 120.656V120.653C252.668 122.048 252.467 123.759 253.188 125.077L253.195 125.048L253.206 124.996L253.206 124.996L253.213 124.968L253.224 124.916C253.36 124.249 253.483 123.577 253.585 122.903C253.669 122.411 254.393 122.507 254.339 123.007C254.239 123.671 254.12 124.322 253.995 124.931C253.941 125.195 253.882 125.46 253.814 125.724C255.471 124.124 256.325 121.468 255.345 119.304C255.152 118.918 254.527 118.012 254.119 118.64ZM261.293 126.789C263.152 126.7 264.635 125.431 265.804 124.09L265.803 124.091C266.854 122.91 266.589 122.866 265.686 122.717C265.485 122.684 265.252 122.646 264.995 122.589C262.492 122.031 259.579 123.779 258.75 126.194C260.063 125.789 261.35 125.302 262.584 124.724C263.097 124.703 263.144 125.333 262.679 125.496C261.693 125.978 260.67 126.377 259.624 126.719C260.178 126.791 260.736 126.822 261.293 126.789Z" fill="#0D0C21"/>
            <path d="M237.618 128.912C237.487 128.735 237.374 128.428 237.613 128.287L237.614 128.288C237.912 128.153 238.128 128.439 238.303 128.672C238.338 128.718 238.372 128.763 238.404 128.801L238.453 128.871C238.624 129.111 238.797 129.354 238.947 129.608C239.108 129.893 238.871 130.164 238.618 130.164C238.518 130.164 238.417 130.121 238.336 130.02C238.282 129.936 238.228 129.851 238.174 129.767L238.172 129.765C237.989 129.479 237.806 129.194 237.618 128.912Z" fill="#0D0C21"/>
            <path d="M241.565 140.812C241.472 140.812 241.379 140.778 241.308 140.702V140.701C241.176 140.539 241.177 140.321 241.179 140.108C241.18 139.999 241.18 139.893 241.163 139.795C241.146 139.518 241.12 139.245 241.089 138.969C240.956 138.448 241.652 138.232 241.796 138.765C241.902 139.24 241.925 139.729 241.948 140.214L241.948 140.214C241.951 140.287 241.955 140.36 241.958 140.433C241.968 140.657 241.766 140.812 241.565 140.812Z" fill="#0D0C21"/>
            <path d="M243.724 150.284C243.731 150.388 243.713 150.485 243.647 150.568L243.648 150.567C243.577 150.666 243.468 150.711 243.357 150.711C243.175 150.711 242.99 150.589 242.971 150.387C242.948 150.132 242.923 149.878 242.898 149.623L242.898 149.623C242.867 149.306 242.835 148.99 242.808 148.674C242.805 148.645 242.803 148.617 242.8 148.588C242.79 148.467 242.779 148.344 242.785 148.223C242.781 147.811 243.406 147.764 243.468 148.17C243.591 148.816 243.65 149.475 243.71 150.129L243.724 150.284Z" fill="#0D0C21"/>
            <path d="M241.367 145.656C241.371 145.903 241.561 146.027 241.749 146.027C241.938 146.027 242.126 145.903 242.126 145.656C242.121 145.563 242.116 145.47 242.111 145.377L242.111 145.376C242.088 144.922 242.064 144.467 241.971 144.022C241.897 143.538 241.171 143.67 241.275 144.151C241.315 144.653 241.347 145.154 241.367 145.657V145.656Z" fill="#0D0C21"/>
            <path d="M230.746 142.781C230.521 143.127 231.007 143.366 231.391 143.555C231.526 143.621 231.649 143.682 231.723 143.738C231.772 143.76 231.82 143.769 231.864 143.769C232.176 143.769 232.353 143.309 232.033 143.117C231.958 143.084 231.867 143.03 231.768 142.971C231.429 142.77 230.991 142.511 230.746 142.781Z" fill="#0D0C21"/>
            <path d="M242.291 153.39C242.174 152.74 241.997 151.754 242.523 151.816V151.815C242.69 151.838 242.794 151.99 242.778 152.151C242.783 152.114 242.781 152.077 242.772 152.041C242.9 152.447 242.965 152.872 243.031 153.295C243.055 153.448 243.078 153.601 243.105 153.754C243.134 153.956 242.985 154.15 242.783 154.177C242.775 154.179 242.767 154.18 242.759 154.18C242.75 154.181 242.741 154.181 242.731 154.181C242.55 154.181 242.388 154.042 242.359 153.856C242.357 153.76 242.327 153.591 242.291 153.39Z" fill="#0D0C21"/>
            <path fill-rule="evenodd" clip-rule="evenodd" d="M261.552 137.573C261.811 137.534 262.074 137.494 262.32 137.594L262.321 137.595C263.022 137.969 262.656 138.978 262.425 139.616C262.405 139.67 262.387 139.722 262.37 139.77C261.465 141.793 259.403 143.486 257.113 143.426C256.608 143.411 256.098 143.278 255.684 142.98C255.64 142.942 255.586 142.898 255.527 142.851L255.527 142.851C255.241 142.623 254.842 142.305 254.899 141.99C254.062 141.943 253.228 141.95 252.437 142.001C251.545 142.062 250.653 142.165 249.777 142.342C248.189 142.683 246.646 143.219 245.436 144.322C245.035 144.674 244.699 145.046 244.377 145.458C244.349 145.49 244.323 145.524 244.296 145.56C244.216 145.666 244.133 145.774 244.002 145.809C243.855 145.843 243.687 145.782 243.623 145.636C243.561 145.499 243.611 145.328 243.71 145.152C243.589 144.993 243.61 144.754 243.629 144.538C243.635 144.463 243.641 144.391 243.641 144.326C243.773 142.632 243.936 140.938 244.115 139.247C244.31 137.383 244.866 135.504 245.949 133.958C247.645 131.603 249.965 129.663 252.681 128.603C252.751 128.577 252.819 128.551 252.885 128.526C253.625 128.242 254.103 128.06 254.857 128.634C254.944 128.692 255.03 128.753 255.116 128.814C255.163 128.631 255.347 128.507 255.535 128.532C255.914 128.559 256.298 128.626 256.659 128.745C257.094 128.881 257.488 129.12 257.82 129.431C258.422 129.993 258.926 130.73 259.06 131.557C259.168 132.434 258.701 132.894 257.825 132.794C256.425 132.778 255.062 132.01 254.429 130.743C254.224 130.336 254.005 129.613 254.112 129.078C254.054 129.052 253.997 129.028 253.937 129.008C253.293 129.131 252.686 129.415 252.092 129.692L252.01 129.731C251.979 129.745 251.948 129.759 251.917 129.774C249.609 130.935 247.631 132.745 246.231 134.911C245.237 136.636 244.89 138.56 244.749 140.511C244.7 141.005 244.653 141.499 244.606 141.993L244.606 141.994L244.606 141.994C244.534 142.759 244.461 143.524 244.382 144.288C244.381 144.29 244.381 144.294 244.381 144.296C246.983 141.472 251.381 141.089 255.022 141.233C255.054 141.225 255.087 141.218 255.119 141.213C255.276 140.862 255.57 140.465 255.786 140.173C255.858 140.077 255.921 139.992 255.968 139.923C257.01 138.599 258.676 137.952 260.307 137.738C260.506 137.71 260.705 137.684 260.903 137.659C261.039 137.641 261.174 137.624 261.309 137.606C261.389 137.598 261.47 137.586 261.552 137.573ZM255.282 129.822C255.224 129.811 255.167 129.789 255.119 129.752L255.12 129.75C255.023 129.687 254.93 129.618 254.836 129.548C254.852 129.662 254.874 129.771 254.904 129.877C254.91 129.875 254.917 129.873 254.923 129.873C254.954 129.873 254.98 129.899 254.98 129.93C254.98 129.956 254.961 129.978 254.936 129.984C255.361 131.328 256.794 132.17 258.258 132.019C258.53 131.295 257.57 130.125 256.992 129.74C256.712 129.55 256.387 129.441 256.058 129.371C256.031 129.366 256.004 129.362 255.978 129.358C255.96 129.355 255.942 129.352 255.924 129.349C256.475 129.725 257.28 130.274 257.425 130.647C257.482 130.97 257.064 131.216 256.814 131.001C256.322 130.585 255.816 130.182 255.282 129.822ZM255.625 141.892C256.034 142.424 256.673 142.713 257.343 142.664V142.663C259.55 142.583 261.755 140.491 261.956 138.294C259.302 138.552 257.433 138.932 256.066 141.078C256.38 141.02 256.689 140.946 256.986 140.859C257.735 140.623 258.455 140.331 259.139 139.955C259.552 139.74 259.915 140.338 259.531 140.605C258.358 141.233 256.98 141.796 255.625 141.892Z" fill="#0D0C21"/>
            <path fill-rule="evenodd" clip-rule="evenodd" d="M243.122 187.427C240.678 187.427 238.696 185.445 238.696 183.001C238.696 180.557 240.678 178.575 243.122 178.575C245.567 178.575 247.548 180.557 247.548 183.001C247.548 185.445 245.567 187.427 243.122 187.427ZM243.122 186.542C245.078 186.542 246.663 184.957 246.663 183.001C246.663 181.046 245.078 179.46 243.122 179.46C241.167 179.46 239.581 181.046 239.581 183.001C239.581 184.957 241.167 186.542 243.122 186.542ZM242.681 184.771L240.803 182.894L241.429 182.268L242.681 183.52L245.184 181.016L245.81 181.642L242.681 184.771Z" fill="#929292"/>
            <path d="M220.721 199.853V194.896H221.386V199.853H220.721ZM222.813 199.853V196.284H223.415V196.688C223.705 196.369 224.073 196.142 224.604 196.142C225.404 196.142 225.999 196.681 225.999 197.693V199.853H225.397V197.714C225.397 197.077 225.036 196.709 224.484 196.709C223.967 196.709 223.641 197.006 223.415 197.382V199.853H222.813ZM227.416 198.656V196.829H226.743V196.284H227.416V195.392H228.025V196.284H229.264V196.829H228.025V198.656C228.025 199.216 228.308 199.371 228.74 199.371C228.974 199.371 229.137 199.343 229.271 199.287V199.825C229.102 199.896 228.91 199.924 228.655 199.924C227.862 199.924 227.416 199.527 227.416 198.656ZM233.288 199.265C232.955 199.711 232.424 199.995 231.758 199.995C230.554 199.995 229.811 199.109 229.811 198.069C229.811 196.985 230.505 196.142 231.609 196.142C232.58 196.142 233.21 196.822 233.21 197.7C233.21 197.842 233.189 197.976 233.167 198.076H230.427C230.448 198.932 230.993 199.449 231.758 199.449C232.218 199.449 232.608 199.237 232.842 198.918L233.288 199.265ZM231.595 196.652C231.008 196.652 230.597 196.999 230.469 197.615H232.608C232.587 197.091 232.226 196.652 231.595 196.652ZM234.23 199.853V196.284H234.832V196.73C235.094 196.419 235.42 196.213 235.873 196.213C235.986 196.213 236.092 196.227 236.177 196.256V196.843C236.071 196.815 235.965 196.801 235.823 196.801C235.356 196.801 235.051 197.042 234.832 197.403V199.853H234.23ZM237.045 199.853V196.284H237.646V196.673C237.916 196.362 238.27 196.142 238.765 196.142C239.282 196.142 239.707 196.376 239.927 196.829C240.21 196.44 240.585 196.142 241.201 196.142C241.966 196.142 242.526 196.652 242.526 197.622V199.853H241.924V197.644C241.924 197.049 241.591 196.709 241.081 196.709C240.628 196.709 240.309 196.964 240.075 197.382C240.082 197.46 240.09 197.537 240.09 197.622V199.853H239.488V197.644C239.488 197.049 239.162 196.709 238.645 196.709C238.156 196.709 237.852 197.013 237.646 197.382V199.853H237.045ZM245.551 195.717H244.964L245.7 194.542H246.38L245.551 195.717ZM246.911 199.265C246.578 199.711 246.047 199.995 245.382 199.995C244.178 199.995 243.434 199.109 243.434 198.069C243.434 196.985 244.128 196.142 245.233 196.142C246.203 196.142 246.833 196.822 246.833 197.7C246.833 197.842 246.812 197.976 246.791 198.076H244.05C244.071 198.932 244.617 199.449 245.382 199.449C245.842 199.449 246.231 199.237 246.465 198.918L246.911 199.265ZM245.219 196.652C244.631 196.652 244.22 196.999 244.093 197.615H246.231C246.21 197.091 245.849 196.652 245.219 196.652ZM247.535 198.069C247.535 197.028 248.25 196.142 249.369 196.142C249.9 196.142 250.318 196.348 250.637 196.709V194.542H251.239V199.853H250.637V199.428C250.318 199.789 249.9 199.995 249.369 199.995C248.25 199.995 247.535 199.109 247.535 198.069ZM248.172 198.069C248.172 198.826 248.682 199.428 249.44 199.428C249.936 199.428 250.375 199.187 250.637 198.77V197.367C250.36 196.943 249.929 196.709 249.44 196.709C248.682 196.709 248.172 197.311 248.172 198.069ZM252.812 195.356C252.578 195.356 252.387 195.165 252.387 194.931C252.387 194.705 252.578 194.514 252.812 194.514C253.046 194.514 253.23 194.705 253.23 194.931C253.23 195.165 253.046 195.356 252.812 195.356ZM252.507 199.853V196.284H253.109V199.853H252.507ZM255.352 199.952C254.651 199.952 254.176 199.563 254.176 198.954C254.176 198.416 254.587 198.033 255.345 197.906L256.548 197.707V197.46C256.548 196.964 256.194 196.681 255.684 196.681C255.274 196.681 254.941 196.872 254.721 197.176L254.268 196.829C254.58 196.404 255.083 196.142 255.706 196.142C256.612 196.142 257.15 196.673 257.15 197.46V199.853H256.548V199.4C256.279 199.747 255.812 199.952 255.352 199.952ZM254.785 198.932C254.785 199.237 255.033 199.456 255.451 199.456C255.925 199.456 256.315 199.23 256.548 198.847V198.146L255.493 198.323C255.005 198.408 254.785 198.628 254.785 198.932ZM258.662 195.356C258.429 195.356 258.237 195.165 258.237 194.931C258.237 194.705 258.429 194.514 258.662 194.514C258.896 194.514 259.08 194.705 259.08 194.931C259.08 195.165 258.896 195.356 258.662 195.356ZM258.358 199.853V196.284H258.96V199.853H258.358ZM260.232 199.853V196.284H260.834V196.73C261.096 196.419 261.422 196.213 261.875 196.213C261.988 196.213 262.094 196.227 262.179 196.256V196.843C262.073 196.815 261.967 196.801 261.825 196.801C261.358 196.801 261.053 197.042 260.834 197.403V199.853H260.232ZM266.005 199.265C265.672 199.711 265.141 199.995 264.475 199.995C263.271 199.995 262.528 199.109 262.528 198.069C262.528 196.985 263.222 196.142 264.326 196.142C265.296 196.142 265.927 196.822 265.927 197.7C265.927 197.842 265.905 197.976 265.884 198.076H263.144C263.165 198.932 263.71 199.449 264.475 199.449C264.935 199.449 265.325 199.237 265.558 198.918L266.005 199.265ZM264.312 196.652C263.724 196.652 263.314 196.999 263.186 197.615H265.325C265.304 197.091 264.942 196.652 264.312 196.652Z" fill="#0D0C21"/>
            <rect x="203.51" y="87.6236" width="79.223" height="123.201" rx="3.3194" stroke="#DDDDDD" stroke-width="0.442587"/>
        </g>
    </g>
    <rect x="30.7957" y="29.2649" width="244.408" height="207.469" rx="3.67347" stroke="#DDDDDD" stroke-width="0.489796"/>
    <g filter="url(#filter0_d_3552_42816)">
        <g clip-path="url(#clip2_3552_42816)">
            <rect x="189.245" y="5.99951" width="107.755" height="105.796" rx="3.91837" fill="white"/>
            <circle cx="197.082" cy="12.8566" r="1.95918" fill="#D9D9D9"/>
            <circle cx="202.959" cy="12.8566" r="1.95918" fill="#D9D9D9"/>
            <circle cx="208.837" cy="12.8566" r="1.95918" fill="#D9D9D9"/>
            <g clip-path="url(#clip3_3552_42816)">
                <path d="M285.536 62.8157L264.328 99.5485H221.913L200.705 62.8157L221.913 26.083L264.328 26.083L285.536 62.8157Z" stroke="#DDDDDD" stroke-width="0.489796"/>
                <path d="M276.541 62.816L259.878 91.6775H226.551L209.888 62.816L226.551 33.9546L259.878 33.9546L276.541 62.816Z" stroke="#DDDDDD" stroke-width="0.489796"/>
                <path d="M267.546 62.8158L255.427 83.806H231.19L219.071 62.8158L231.19 41.8257L255.427 41.8257L267.546 62.8158Z" stroke="#DDDDDD" stroke-width="0.489796"/>
                <path d="M258.114 62.8161L250.54 75.9349H235.392L227.817 62.8161L235.392 49.6973L250.54 49.6973L258.114 62.8161Z" stroke="#DDDDDD" stroke-width="0.489796"/>
                <path d="M249.119 62.8159L246.089 68.0634H240.03L237 62.8159L240.03 57.5684L246.089 57.5684L249.119 62.8159Z" stroke="#DDDDDD" stroke-width="0.489796"/>
                <path d="M200.705 62.8159H285.54" stroke="#DDDDDD" stroke-width="0.489796"/>
                <path d="M221.914 26.0811L264.332 99.5504" stroke="#DDDDDD" stroke-width="0.489796"/>
                <path d="M264.331 26.0811L221.913 99.5504" stroke="#DDDDDD" stroke-width="0.489796"/>
                <path d="M249.026 62.8161L246.184 68.0636L235.392 75.9349L227.817 62.8161L235.392 49.6973L250.54 49.6973L249.026 62.8161Z" stroke="#FED980" stroke-width="0.979592"/>
                <path d="M267.612 62.8157L254.388 81.6728L230.877 83.632L222.551 62.8157L231.367 42.2443L257.326 38.5708L267.612 62.8157Z" stroke="#6469F0" stroke-width="0.979592"/>
                <g filter="url(#filter1_d_3552_42816)">
                    <circle cx="246.551" cy="68.2034" r="2.44898" fill="#0D0C21"/>
                    <circle cx="246.551" cy="68.2034" r="2.44898" stroke="white" stroke-width="0.979592"/>
                </g>
            </g>
            <g filter="url(#filter2_d_3552_42816)">
                <rect x="238.714" y="72.1221" width="46.8367" height="15.9184" rx="1.74918" fill="white"/>
                <path d="M243.503 83.0811V78.2811H244.916C245.917 78.2811 246.527 78.7748 246.527 79.5839C246.527 79.9748 246.349 80.3108 246.013 80.5302C246.52 80.7565 246.801 81.1679 246.801 81.6685C246.801 82.5462 246.123 83.0811 245.019 83.0811H243.503ZM244.936 79.0902H244.477V80.1736H244.936C245.307 80.1736 245.526 79.9748 245.526 79.6251C245.526 79.2891 245.307 79.0902 244.936 79.0902ZM245.073 80.9828H244.477V82.2719H245.073C245.526 82.2719 245.8 82.0319 245.8 81.6273C245.8 81.2159 245.526 80.9828 245.073 80.9828ZM249.92 81.5862V79.6251H250.798V81.5451C250.798 82.5805 250.195 83.2182 249.18 83.2182C248.165 83.2182 247.568 82.5805 247.568 81.5451V79.6251H248.446V81.5862C248.446 82.0868 248.707 82.3953 249.187 82.3953C249.66 82.3953 249.92 82.0868 249.92 81.5862ZM251.515 81.3531C251.515 80.3451 252.181 79.4879 253.271 79.4879C253.737 79.4879 254.073 79.6319 254.341 79.8993V77.9382H255.218V83.0811H254.341V82.8068C254.073 83.0742 253.737 83.2182 253.271 83.2182C252.181 83.2182 251.515 82.3611 251.515 81.3531ZM252.427 81.3531C252.427 81.9565 252.805 82.3953 253.394 82.3953C253.785 82.3953 254.107 82.2308 254.341 81.9153V80.7908C254.107 80.4753 253.785 80.3108 253.394 80.3108C252.805 80.3108 252.427 80.7496 252.427 81.3531ZM255.919 83.6845C255.919 83.3416 256.091 83.0673 256.399 82.8411C256.262 82.7039 256.187 82.5188 256.187 82.3405C256.187 82.0662 256.303 81.8468 256.564 81.6548C256.262 81.4285 256.098 81.0856 256.098 80.7016C256.098 80.0296 256.619 79.4879 257.483 79.4879C257.75 79.4879 257.983 79.5359 258.182 79.6251H259.444V80.3656H258.834C258.868 80.4753 258.882 80.5851 258.882 80.7016C258.882 81.3805 258.374 81.9291 257.483 81.9291C257.366 81.9291 257.257 81.9222 257.154 81.9016C257.078 81.9702 257.037 82.0456 257.037 82.1211C257.037 82.2582 257.113 82.3268 257.27 82.3268H258.141C259.012 82.3268 259.485 82.7931 259.485 83.4376C259.485 84.2056 258.751 84.7953 257.675 84.7953C256.571 84.7953 255.919 84.4113 255.919 83.6845ZM257.497 81.2708C257.86 81.2708 258.093 81.0445 258.093 80.7016C258.093 80.3588 257.86 80.1393 257.497 80.1393C257.119 80.1393 256.893 80.3656 256.893 80.7016C256.893 81.0445 257.119 81.2708 257.497 81.2708ZM256.742 83.5611C256.742 83.8902 257.058 84.0959 257.668 84.0959C258.299 84.0959 258.621 83.8628 258.621 83.5199C258.621 83.2593 258.463 83.0742 258.045 83.0742H256.975C256.845 83.1976 256.742 83.3485 256.742 83.5611ZM263.1 82.5188C262.778 82.9508 262.243 83.2182 261.592 83.2182C260.364 83.2182 259.672 82.3611 259.672 81.3531C259.672 80.3313 260.316 79.4879 261.448 79.4879C262.408 79.4879 263.038 80.1393 263.038 81.0445C263.038 81.2365 263.011 81.4148 262.984 81.5313H260.563C260.645 82.1759 261.043 82.4365 261.585 82.4365C261.962 82.4365 262.291 82.2719 262.476 82.0251L263.1 82.5188ZM261.427 80.2011C260.981 80.2011 260.686 80.4479 260.59 80.9005H262.181C262.168 80.5508 261.914 80.2011 261.427 80.2011ZM264.102 81.8193V80.4068H263.458V79.6251H264.102V78.7611H264.98V79.6251H266.036V80.4068H264.98V81.8193C264.98 82.2033 265.186 82.3542 265.528 82.3542C265.768 82.3542 265.926 82.3268 266.043 82.2788V83.0399C265.871 83.1153 265.666 83.1496 265.378 83.1496C264.514 83.1496 264.102 82.6628 264.102 81.8193ZM268.026 80.9073H269.877V81.7508H268.026V80.9073ZM273.072 83.0742V79.2273L272.078 79.7896L271.619 79.1313L273.1 78.2742H273.998V83.0742H273.072ZM274.848 84.4319L276.397 77.9382H277.282L275.732 84.4319H274.848ZM277.974 80.9553L278.118 78.2811H280.978V79.1176H279.003L278.948 80.1188H279.318C280.594 80.1188 281.156 80.7016 281.156 81.6342C281.156 82.6148 280.388 83.2182 279.401 83.2182C278.509 83.2182 277.919 82.8273 277.522 82.1348L278.331 81.6342C278.605 82.1622 278.934 82.3953 279.401 82.3953C279.874 82.3953 280.21 82.1142 280.21 81.6685C280.21 81.2159 279.874 80.9553 279.277 80.9553H277.974Z" fill="black"/>
            </g>
        </g>
    </g>
    <g filter="url(#filter3_d_3552_42816)">
        <g clip-path="url(#clip4_3552_42816)">
            <rect x="9" y="130.51" width="107.755" height="130.49" rx="3.91837" fill="white"/>
            <circle cx="16.8366" cy="137.367" r="1.95918" fill="#D9D9D9"/>
            <circle cx="22.7141" cy="137.367" r="1.95918" fill="#D9D9D9"/>
            <circle cx="28.592" cy="137.367" r="1.95918" fill="#D9D9D9"/>
            <path d="M15.7855 155.673V149.502H19.3826V150.542H17.0374V152.006H19.0299V153.046H17.0374V155.673H15.7855ZM21.3884 155.806C20.4979 155.806 19.8896 155.294 19.8896 154.474C19.8896 153.804 20.4098 153.302 21.3619 153.143L22.7196 152.914V152.799C22.7196 152.332 22.367 152.032 21.8556 152.032C21.4236 152.032 21.0886 152.235 20.8506 152.561L20.0307 151.935C20.4274 151.389 21.0798 151.054 21.8909 151.054C23.1781 151.054 23.8393 151.821 23.8393 152.799V155.673H22.7196V155.241C22.4375 155.585 21.9085 155.806 21.3884 155.806ZM21.0004 154.421C21.0004 154.721 21.2385 154.915 21.6176 154.915C22.1289 154.915 22.4992 154.677 22.7196 154.324V153.698L21.6617 153.875C21.1944 153.954 21.0004 154.148 21.0004 154.421ZM24.4436 151.23H25.6427L26.7976 154.404L27.9437 151.23H29.1516L27.5294 155.673H26.057L24.4436 151.23ZM31.9211 151.054C33.3669 151.054 34.3544 152.12 34.3544 153.452C34.3544 154.783 33.3669 155.85 31.9211 155.85C30.4752 155.85 29.4877 154.783 29.4877 153.452C29.4877 152.12 30.4752 151.054 31.9211 151.054ZM31.9387 154.792C32.6528 154.792 33.1906 154.219 33.1906 153.452C33.1906 152.676 32.6528 152.112 31.9387 152.112C31.1981 152.112 30.6515 152.676 30.6515 153.452C30.6515 154.227 31.1981 154.792 31.9387 154.792ZM35.3756 155.673V151.23H36.4953V151.671C36.7862 151.371 37.1653 151.142 37.6679 151.142C37.8177 151.142 37.95 151.168 38.0558 151.203V152.306C37.9147 152.27 37.7648 152.244 37.5621 152.244C37.0154 152.244 36.6628 152.544 36.4953 152.826V155.673H35.3756ZM39.5215 150.454C39.1248 150.454 38.7897 150.119 38.7897 149.722C38.7897 149.326 39.1248 148.991 39.5215 148.991C39.9182 148.991 40.2444 149.326 40.2444 149.722C40.2444 150.119 39.9182 150.454 39.5215 150.454ZM38.9572 155.673V151.23H40.0769V155.673H38.9572ZM40.9714 155.03L41.712 154.36C41.9853 154.704 42.3115 154.95 42.7347 154.95C43.0962 154.95 43.2813 154.739 43.2813 154.474C43.2813 153.698 41.1566 153.989 41.1566 152.429C41.1566 151.644 41.8178 151.054 42.7435 151.054C43.4224 151.054 44.0395 151.38 44.3569 151.812L43.6163 152.464C43.3871 152.182 43.0962 151.953 42.7523 151.953C42.3997 151.953 42.2322 152.147 42.2322 152.376C42.2322 153.134 44.3569 152.87 44.3569 154.404C44.3393 155.338 43.5899 155.85 42.7523 155.85C41.9589 155.85 41.3946 155.532 40.9714 155.03Z" fill="black"/>
            <rect x="79.2859" y="145.449" width="31.3469" height="13.4286" rx="1.71429" stroke="#DDDDDD" stroke-width="0.489796"/>
            <path d="M83.6114 154.163V150.048H84.8163C85.6391 150.048 86.1505 150.501 86.1505 151.206C86.1505 151.911 85.6391 152.358 84.8163 152.358H84.1639V154.163H83.6114ZM84.828 150.519H84.1639V151.888H84.828C85.2982 151.888 85.5804 151.635 85.5804 151.194C85.5804 150.777 85.2982 150.519 84.828 150.519ZM87.5534 154.245C86.9715 154.245 86.5777 153.922 86.5777 153.416C86.5777 152.969 86.9186 152.652 87.5475 152.546L88.5467 152.382V152.176C88.5467 151.765 88.2528 151.529 87.8296 151.529C87.4887 151.529 87.2125 151.688 87.0303 151.941L86.6541 151.653C86.9127 151.3 87.33 151.083 87.8473 151.083C88.5996 151.083 89.0463 151.524 89.0463 152.176V154.163H88.5467V153.786C88.3234 154.074 87.9354 154.245 87.5534 154.245ZM87.0832 153.399C87.0832 153.651 87.2889 153.833 87.6357 153.833C88.0295 153.833 88.3527 153.645 88.5467 153.328V152.746L87.6709 152.893C87.2654 152.964 87.0832 153.146 87.0832 153.399ZM90.0486 154.163V151.2H90.5481V151.571C90.7656 151.312 91.036 151.142 91.4121 151.142C91.5062 151.142 91.5943 151.153 91.6649 151.177V151.665C91.5767 151.641 91.4886 151.629 91.371 151.629C90.9831 151.629 90.7303 151.829 90.5481 152.129V154.163H90.0486ZM92.6929 153.169V151.653H92.1345V151.2H92.6929V150.46H93.1983V151.2H94.2269V151.653H93.1983V153.169C93.1983 153.634 93.4334 153.763 93.792 153.763C93.9859 153.763 94.1211 153.739 94.2328 153.692V154.139C94.0917 154.198 93.933 154.221 93.7214 154.221C93.0631 154.221 92.6929 153.892 92.6929 153.169ZM95.7957 154.245C95.2139 154.245 94.8201 153.922 94.8201 153.416C94.8201 152.969 95.161 152.652 95.7899 152.546L96.789 152.382V152.176C96.789 151.765 96.4952 151.529 96.072 151.529C95.7311 151.529 95.4548 151.688 95.2726 151.941L94.8965 151.653C95.1551 151.3 95.5724 151.083 96.0896 151.083C96.8419 151.083 97.2886 151.524 97.2886 152.176V154.163H96.789V153.786C96.5657 154.074 96.1778 154.245 95.7957 154.245ZM95.3255 153.399C95.3255 153.651 95.5312 153.833 95.878 153.833C96.2718 153.833 96.5951 153.645 96.789 153.328V152.746L95.9133 152.893C95.5077 152.964 95.3255 153.146 95.3255 153.399ZM97.95 154.697C97.95 154.398 98.0969 154.157 98.3908 153.951C98.2556 153.845 98.1851 153.687 98.1851 153.528C98.1851 153.293 98.3085 153.099 98.5378 152.952C98.2791 152.758 98.1263 152.458 98.1263 152.129C98.1263 151.559 98.573 151.077 99.2783 151.077C99.4958 151.077 99.6898 151.124 99.8484 151.2H100.948V151.635H100.307C100.389 151.782 100.43 151.953 100.43 152.129C100.43 152.693 99.9895 153.175 99.2783 153.175C99.1314 153.175 98.9903 153.152 98.8669 153.116C98.7435 153.205 98.6729 153.31 98.6729 153.422C98.6729 153.545 98.7376 153.634 98.9198 153.634H99.7662C100.548 153.634 100.912 154.016 100.912 154.545C100.912 155.168 100.289 155.632 99.4018 155.632C98.526 155.632 97.95 155.291 97.95 154.697ZM99.2842 152.781C99.7133 152.781 99.9601 152.487 99.9601 152.129C99.9601 151.765 99.7133 151.471 99.2842 151.471C98.8434 151.471 98.6024 151.765 98.6024 152.129C98.6024 152.493 98.8434 152.781 99.2842 152.781ZM98.4378 154.639C98.4378 154.997 98.8081 155.215 99.3959 155.215C100.019 155.215 100.413 154.968 100.413 154.58C100.413 154.298 100.254 154.074 99.725 154.074H98.767C98.5613 154.227 98.4378 154.404 98.4378 154.639ZM104.058 153.675C103.782 154.045 103.341 154.28 102.788 154.28C101.789 154.28 101.172 153.545 101.172 152.681C101.172 151.782 101.748 151.083 102.665 151.083C103.47 151.083 103.993 151.647 103.993 152.376C103.993 152.493 103.976 152.605 103.958 152.687H101.683C101.701 153.399 102.154 153.828 102.788 153.828C103.17 153.828 103.494 153.651 103.688 153.387L104.058 153.675ZM102.653 151.506C102.165 151.506 101.825 151.794 101.719 152.305H103.494C103.476 151.87 103.176 151.506 102.653 151.506ZM104.84 154.163V151.2H105.34V151.571C105.557 151.312 105.827 151.142 106.204 151.142C106.298 151.142 106.386 151.153 106.456 151.177V151.665C106.368 151.641 106.28 151.629 106.162 151.629C105.775 151.629 105.522 151.829 105.34 152.129V154.163H104.84Z" fill="black"/>
            <g clip-path="url(#clip5_3552_42816)">
                <g clip-path="url(#clip6_3552_42816)">
                    <rect x="14.8774" y="166.958" width="45.551" height="53.3878" rx="1.95918" fill="white"/>
                    <g clip-path="url(#clip7_3552_42816)">
                        <rect width="45.551" height="22.0408" transform="translate(14.8774 166.958)" fill="#F6F6F6"/>
                        <g filter="url(#filter4_d_3552_42816)">
                            <mask id="path-61-inside-1_3552_42816" fill="white">
                                <path d="M20.7549 172.836H54.5508V189H20.7549V172.836Z"/>
                            </mask>
                            <path d="M20.7549 172.836H54.5508V189H20.7549V172.836Z" fill="#E0E7FF"/>
                            <path d="M20.7549 172.836V171.857H19.7753V172.836H20.7549ZM54.5508 172.836H55.5304V171.857H54.5508V172.836ZM20.7549 173.816H54.5508V171.857H20.7549V173.816ZM53.5712 172.836V189H55.5304V172.836H53.5712ZM21.7345 189V172.836H19.7753V189H21.7345Z" fill="white" mask="url(#path-61-inside-1_3552_42816)"/>
                        </g>
                    </g>
                    <rect x="20.7549" y="194.877" width="24" height="1.95918" rx="0.979592" fill="#DDDDDD"/>
                    <g clip-path="url(#clip8_3552_42816)">
                        <path fill-rule="evenodd" clip-rule="evenodd" d="M51.6123 194.027C52.1876 193.51 53.0766 193.527 53.6308 194.083C54.1847 194.638 54.2038 195.523 53.6886 196.1L51.6118 198.179L49.5356 196.1C49.0203 195.523 49.0397 194.637 49.5934 194.083C50.1481 193.528 51.0353 193.51 51.6123 194.027Z" fill="#FED980" stroke="#0D0C21" stroke-width="0.489796"/>
                    </g>
                    <rect x="20.7549" y="200.754" width="33.7959" height="2.93878" rx="1.46939" fill="#DDDDDD"/>
                    <rect x="20.7549" y="205.652" width="15.6735" height="2.93878" rx="1.46939" fill="#DDDDDD"/>
                    <path fill-rule="evenodd" clip-rule="evenodd" d="M52.6337 213.244L51.3201 211.931L51.6664 211.584L53.5712 213.489L51.6664 215.394L51.3201 215.048L52.6337 213.734H49.6528V213.244H52.6337Z" fill="#0D0C21"/>
                </g>
                <rect x="15.1223" y="167.203" width="45.0612" height="52.898" rx="1.71429" stroke="#DDDDDD" stroke-width="0.489796"/>
                <g clip-path="url(#clip9_3552_42816)">
                    <rect x="65.3267" y="166.958" width="45.551" height="53.3878" rx="1.95918" fill="white"/>
                    <g clip-path="url(#clip10_3552_42816)">
                        <rect width="45.551" height="22.0408" transform="translate(65.3267 166.958)" fill="#F6F6F6"/>
                        <g filter="url(#filter5_d_3552_42816)">
                            <mask id="path-70-inside-2_3552_42816" fill="white">
                                <path d="M71.2041 172.836H105V189H71.2041V172.836Z"/>
                            </mask>
                            <path d="M71.2041 172.836H105V189H71.2041V172.836Z" fill="#E0E7FF"/>
                            <path d="M71.2041 172.836V171.857H70.2245V172.836H71.2041ZM105 172.836H105.98V171.857H105V172.836ZM71.2041 173.816H105V171.857H71.2041V173.816ZM104.02 172.836V189H105.98V172.836H104.02ZM72.1837 189V172.836H70.2245V189H72.1837Z" fill="white" mask="url(#path-70-inside-2_3552_42816)"/>
                        </g>
                    </g>
                    <rect x="71.2041" y="194.877" width="24" height="1.95918" rx="0.979592" fill="#DDDDDD"/>
                    <g clip-path="url(#clip11_3552_42816)">
                        <path fill-rule="evenodd" clip-rule="evenodd" d="M102.062 194.027C102.637 193.51 103.526 193.527 104.08 194.083C104.634 194.638 104.653 195.523 104.138 196.1L102.061 198.179L99.9848 196.1C99.4695 195.523 99.4889 194.637 100.043 194.083C100.597 193.528 101.485 193.51 102.062 194.027Z" fill="#FED980" stroke="#0D0C21" stroke-width="0.489796"/>
                    </g>
                    <rect x="71.2041" y="200.754" width="33.7959" height="2.93878" rx="1.46939" fill="#DDDDDD"/>
                    <rect x="71.2041" y="205.652" width="15.6735" height="2.93878" rx="1.46939" fill="#DDDDDD"/>
                    <path fill-rule="evenodd" clip-rule="evenodd" d="M103.083 213.244L101.769 211.931L102.116 211.584L104.02 213.489L102.116 215.394L101.769 215.048L103.083 213.734H100.102V213.244H103.083Z" fill="#0D0C21"/>
                </g>
                <rect x="65.5716" y="167.203" width="45.0612" height="52.898" rx="1.71429" stroke="#DDDDDD" stroke-width="0.489796"/>
                <g clip-path="url(#clip12_3552_42816)">
                    <rect x="14.8774" y="225.245" width="45.551" height="53.3878" rx="1.95918" fill="white"/>
                    <g clip-path="url(#clip13_3552_42816)">
                        <rect width="45.551" height="22.0408" transform="translate(14.8774 225.245)" fill="#F6F6F6"/>
                        <g filter="url(#filter6_d_3552_42816)">
                            <mask id="path-79-inside-3_3552_42816" fill="white">
                                <path d="M20.7549 231.122H54.5508V247.285H20.7549V231.122Z"/>
                            </mask>
                            <path d="M20.7549 231.122H54.5508V247.285H20.7549V231.122Z" fill="#E0E7FF"/>
                            <path d="M20.7549 231.122V230.142H19.7753V231.122H20.7549ZM54.5508 231.122H55.5304V230.142H54.5508V231.122ZM20.7549 232.102H54.5508V230.142H20.7549V232.102ZM53.5712 231.122V247.285H55.5304V231.122H53.5712ZM21.7345 247.285V231.122H19.7753V247.285H21.7345Z" fill="white" mask="url(#path-79-inside-3_3552_42816)"/>
                        </g>
                    </g>
                    <rect x="20.7549" y="253.163" width="24" height="1.95918" rx="0.979592" fill="#DDDDDD"/>
                    <g clip-path="url(#clip14_3552_42816)">
                        <path fill-rule="evenodd" clip-rule="evenodd" d="M51.6123 252.313C52.1876 251.796 53.0766 251.814 53.6308 252.369C54.1847 252.924 54.2038 253.809 53.6886 254.386L51.6118 256.465L49.5356 254.386C49.0203 253.809 49.0397 252.923 49.5934 252.369C50.1481 251.814 51.0353 251.796 51.6123 252.313Z" fill="#FED980" stroke="#0D0C21" stroke-width="0.489796"/>
                    </g>
                    <rect x="20.7549" y="259.041" width="33.7959" height="2.93878" rx="1.46939" fill="#DDDDDD"/>
                </g>
                <rect x="15.1223" y="225.49" width="45.0612" height="52.898" rx="1.71429" stroke="#DDDDDD" stroke-width="0.489796"/>
                <g clip-path="url(#clip15_3552_42816)">
                    <rect x="65.3267" y="225.245" width="45.551" height="53.3878" rx="1.95918" fill="white"/>
                    <g clip-path="url(#clip16_3552_42816)">
                        <rect width="45.551" height="22.0408" transform="translate(65.3267 225.245)" fill="#F6F6F6"/>
                        <g filter="url(#filter7_d_3552_42816)">
                            <mask id="path-86-inside-4_3552_42816" fill="white">
                                <path d="M71.2041 231.122H105V247.285H71.2041V231.122Z"/>
                            </mask>
                            <path d="M71.2041 231.122H105V247.285H71.2041V231.122Z" fill="#E0E7FF"/>
                            <path d="M71.2041 231.122V230.142H70.2245V231.122H71.2041ZM105 231.122H105.98V230.142H105V231.122ZM71.2041 232.102H105V230.142H71.2041V232.102ZM104.02 231.122V247.285H105.98V231.122H104.02ZM72.1837 247.285V231.122H70.2245V247.285H72.1837Z" fill="white" mask="url(#path-86-inside-4_3552_42816)"/>
                        </g>
                    </g>
                    <rect x="71.2041" y="253.163" width="24" height="1.95918" rx="0.979592" fill="#DDDDDD"/>
                    <g clip-path="url(#clip17_3552_42816)">
                        <path fill-rule="evenodd" clip-rule="evenodd" d="M102.062 252.313C102.637 251.796 103.526 251.814 104.08 252.369C104.634 252.924 104.653 253.809 104.138 254.386L102.061 256.465L99.9848 254.386C99.4695 253.809 99.4889 252.923 100.043 252.369C100.597 251.814 101.485 251.796 102.062 252.313Z" fill="#FED980" stroke="#0D0C21" stroke-width="0.489796"/>
                    </g>
                    <rect x="71.2041" y="259.041" width="33.7959" height="2.93878" rx="1.46939" fill="#DDDDDD"/>
                </g>
                <rect x="65.5716" y="225.49" width="45.0612" height="52.898" rx="1.71429" stroke="#DDDDDD" stroke-width="0.489796"/>
            </g>
        </g>
    </g>
    <defs>
        <filter id="filter0_d_3552_42816" x="180.429" y="0.121961" width="125.388" height="123.429" filterUnits="userSpaceOnUse" color-interpolation-filters="sRGB">
            <feFlood flood-opacity="0" result="BackgroundImageFix"/>
            <feColorMatrix in="SourceAlpha" type="matrix" values="0 0 0 0 0 0 0 0 0 0 0 0 0 0 0 0 0 0 127 0" result="hardAlpha"/>
            <feOffset dy="2.93878"/>
            <feGaussianBlur stdDeviation="4.40816"/>
            <feColorMatrix type="matrix" values="0 0 0 0 0 0 0 0 0 0 0 0 0 0 0.0705882 0 0 0 0.16 0"/>
            <feBlend mode="normal" in2="BackgroundImageFix" result="effect1_dropShadow_3552_42816"/>
            <feBlend mode="normal" in="SourceGraphic" in2="effect1_dropShadow_3552_42816" result="shape"/>
        </filter>
        <filter id="filter1_d_3552_42816" x="240.989" y="63.5155" width="11.125" height="11.125" filterUnits="userSpaceOnUse" color-interpolation-filters="sRGB">
            <feFlood flood-opacity="0" result="BackgroundImageFix"/>
            <feColorMatrix in="SourceAlpha" type="matrix" values="0 0 0 0 0 0 0 0 0 0 0 0 0 0 0 0 0 0 127 0" result="hardAlpha"/>
            <feOffset dy="0.874589"/>
            <feGaussianBlur stdDeviation="1.31188"/>
            <feColorMatrix type="matrix" values="0 0 0 0 0 0 0 0 0 0 0 0 0 0 0.0705882 0 0 0 0.16 0"/>
            <feBlend mode="normal" in2="BackgroundImageFix" result="effect1_dropShadow_3552_42816"/>
            <feBlend mode="normal" in="SourceGraphic" in2="effect1_dropShadow_3552_42816" result="shape"/>
        </filter>
        <filter id="filter2_d_3552_42816" x="236.091" y="70.3729" width="52.0844" height="21.166" filterUnits="userSpaceOnUse" color-interpolation-filters="sRGB">
            <feFlood flood-opacity="0" result="BackgroundImageFix"/>
            <feColorMatrix in="SourceAlpha" type="matrix" values="0 0 0 0 0 0 0 0 0 0 0 0 0 0 0 0 0 0 127 0" result="hardAlpha"/>
            <feOffset dy="0.874589"/>
            <feGaussianBlur stdDeviation="1.31188"/>
            <feColorMatrix type="matrix" values="0 0 0 0 0 0 0 0 0 0 0 0 0 0 0.0705882 0 0 0 0.16 0"/>
            <feBlend mode="normal" in2="BackgroundImageFix" result="effect1_dropShadow_3552_42816"/>
            <feBlend mode="normal" in="SourceGraphic" in2="effect1_dropShadow_3552_42816" result="shape"/>
        </filter>
        <filter id="filter3_d_3552_42816" x="0.183674" y="124.632" width="125.388" height="148.122" filterUnits="userSpaceOnUse" color-interpolation-filters="sRGB">
            <feFlood flood-opacity="0" result="BackgroundImageFix"/>
            <feColorMatrix in="SourceAlpha" type="matrix" values="0 0 0 0 0 0 0 0 0 0 0 0 0 0 0 0 0 0 127 0" result="hardAlpha"/>
            <feOffset dy="2.93878"/>
            <feGaussianBlur stdDeviation="4.40816"/>
            <feColorMatrix type="matrix" values="0 0 0 0 0 0 0 0 0 0 0 0 0 0 0.0705882 0 0 0 0.16 0"/>
            <feBlend mode="normal" in2="BackgroundImageFix" result="effect1_dropShadow_3552_42816"/>
            <feBlend mode="normal" in="SourceGraphic" in2="effect1_dropShadow_3552_42816" result="shape"/>
        </filter>
        <filter id="filter4_d_3552_42816" x="17.8161" y="170.877" width="39.6734" height="22.0406" filterUnits="userSpaceOnUse" color-interpolation-filters="sRGB">
            <feFlood flood-opacity="0" result="BackgroundImageFix"/>
            <feColorMatrix in="SourceAlpha" type="matrix" values="0 0 0 0 0 0 0 0 0 0 0 0 0 0 0 0 0 0 127 0" result="hardAlpha"/>
            <feOffset dy="0.979592"/>
            <feGaussianBlur stdDeviation="1.46939"/>
            <feColorMatrix type="matrix" values="0 0 0 0 0 0 0 0 0 0 0 0 0 0 0.0705882 0 0 0 0.16 0"/>
            <feBlend mode="normal" in2="BackgroundImageFix" result="effect1_dropShadow_3552_42816"/>
            <feBlend mode="normal" in="SourceGraphic" in2="effect1_dropShadow_3552_42816" result="shape"/>
        </filter>
        <filter id="filter5_d_3552_42816" x="68.2653" y="170.877" width="39.6734" height="22.0406" filterUnits="userSpaceOnUse" color-interpolation-filters="sRGB">
            <feFlood flood-opacity="0" result="BackgroundImageFix"/>
            <feColorMatrix in="SourceAlpha" type="matrix" values="0 0 0 0 0 0 0 0 0 0 0 0 0 0 0 0 0 0 127 0" result="hardAlpha"/>
            <feOffset dy="0.979592"/>
            <feGaussianBlur stdDeviation="1.46939"/>
            <feColorMatrix type="matrix" values="0 0 0 0 0 0 0 0 0 0 0 0 0 0 0.0705882 0 0 0 0.16 0"/>
            <feBlend mode="normal" in2="BackgroundImageFix" result="effect1_dropShadow_3552_42816"/>
            <feBlend mode="normal" in="SourceGraphic" in2="effect1_dropShadow_3552_42816" result="shape"/>
        </filter>
        <filter id="filter6_d_3552_42816" x="17.8161" y="229.163" width="39.6734" height="22.0406" filterUnits="userSpaceOnUse" color-interpolation-filters="sRGB">
            <feFlood flood-opacity="0" result="BackgroundImageFix"/>
            <feColorMatrix in="SourceAlpha" type="matrix" values="0 0 0 0 0 0 0 0 0 0 0 0 0 0 0 0 0 0 127 0" result="hardAlpha"/>
            <feOffset dy="0.979592"/>
            <feGaussianBlur stdDeviation="1.46939"/>
            <feColorMatrix type="matrix" values="0 0 0 0 0 0 0 0 0 0 0 0 0 0 0.0705882 0 0 0 0.16 0"/>
            <feBlend mode="normal" in2="BackgroundImageFix" result="effect1_dropShadow_3552_42816"/>
            <feBlend mode="normal" in="SourceGraphic" in2="effect1_dropShadow_3552_42816" result="shape"/>
        </filter>
        <filter id="filter7_d_3552_42816" x="68.2653" y="229.163" width="39.6734" height="22.0406" filterUnits="userSpaceOnUse" color-interpolation-filters="sRGB">
            <feFlood flood-opacity="0" result="BackgroundImageFix"/>
            <feColorMatrix in="SourceAlpha" type="matrix" values="0 0 0 0 0 0 0 0 0 0 0 0 0 0 0 0 0 0 127 0" result="hardAlpha"/>
            <feOffset dy="0.979592"/>
            <feGaussianBlur stdDeviation="1.46939"/>
            <feColorMatrix type="matrix" values="0 0 0 0 0 0 0 0 0 0 0 0 0 0 0.0705882 0 0 0 0.16 0"/>
            <feBlend mode="normal" in2="BackgroundImageFix" result="effect1_dropShadow_3552_42816"/>
            <feBlend mode="normal" in="SourceGraphic" in2="effect1_dropShadow_3552_42816" result="shape"/>
        </filter>
        <clipPath id="clip0_3552_42816">
            <rect x="30.5508" y="29.02" width="244.898" height="207.959" rx="3.91837" fill="white"/>
        </clipPath>
        <clipPath id="clip1_3552_42816">
            <rect width="221.388" height="129.306" fill="white" transform="translate(42.3057 84.1631)"/>
        </clipPath>
        <clipPath id="clip2_3552_42816">
            <rect x="189.245" y="5.99951" width="107.755" height="105.796" rx="3.91837" fill="white"/>
        </clipPath>
        <clipPath id="clip3_3552_42816">
            <rect width="85.7143" height="74.449" fill="white" transform="translate(200.265 25.5913)"/>
        </clipPath>
        <clipPath id="clip4_3552_42816">
            <rect x="9" y="130.51" width="107.755" height="130.49" rx="3.91837" fill="white"/>
        </clipPath>
        <clipPath id="clip5_3552_42816">
            <rect width="96" height="97.9592" fill="white" transform="translate(14.8774 163.041)"/>
        </clipPath>
        <clipPath id="clip6_3552_42816">
            <rect x="14.8774" y="166.958" width="45.551" height="53.3878" rx="1.95918" fill="white"/>
        </clipPath>
        <clipPath id="clip7_3552_42816">
            <rect width="45.551" height="22.0408" fill="white" transform="translate(14.8774 166.958)"/>
        </clipPath>
        <clipPath id="clip8_3552_42816">
            <rect width="5.87755" height="5.87755" fill="white" transform="translate(48.6733 192.918)"/>
        </clipPath>
        <clipPath id="clip9_3552_42816">
            <rect x="65.3267" y="166.958" width="45.551" height="53.3878" rx="1.95918" fill="white"/>
        </clipPath>
        <clipPath id="clip10_3552_42816">
            <rect width="45.551" height="22.0408" fill="white" transform="translate(65.3267 166.958)"/>
        </clipPath>
        <clipPath id="clip11_3552_42816">
            <rect width="5.87755" height="5.87755" fill="white" transform="translate(99.1226 192.918)"/>
        </clipPath>
        <clipPath id="clip12_3552_42816">
            <rect x="14.8774" y="225.245" width="45.551" height="53.3878" rx="1.95918" fill="white"/>
        </clipPath>
        <clipPath id="clip13_3552_42816">
            <rect width="45.551" height="22.0408" fill="white" transform="translate(14.8774 225.245)"/>
        </clipPath>
        <clipPath id="clip14_3552_42816">
            <rect width="5.87755" height="5.87755" fill="white" transform="translate(48.6733 251.204)"/>
        </clipPath>
        <clipPath id="clip15_3552_42816">
            <rect x="65.3267" y="225.245" width="45.551" height="53.3878" rx="1.95918" fill="white"/>
        </clipPath>
        <clipPath id="clip16_3552_42816">
            <rect width="45.551" height="22.0408" fill="white" transform="translate(65.3267 225.245)"/>
        </clipPath>
        <clipPath id="clip17_3552_42816">
            <rect width="5.87755" height="5.87755" fill="white" transform="translate(99.1226 251.204)"/>
        </clipPath>
    </defs>
</svg>
