<svg width="282" height="211" viewBox="0 0 282 211" fill="none" xmlns="http://www.w3.org/2000/svg">
    <g clip-path="url(#clip0_2774_8734)">
        <path d="M93.032 91.2218C91.6909 88.4221 93.7025 85.2216 96.2374 83.9251C97.2621 83.3645 98.5718 83.2455 99.3928 82.3561C98.8382 81.3133 98.1143 80.3644 97.5441 79.3278C96.8202 78.1064 96.1215 76.8506 95.4259 75.6293C94.8305 74.4017 92.9411 72.2377 94.4514 71.0759C95.4259 70.3368 96.4254 69.6228 97.4219 68.9119C99.4147 67.4619 101.677 66.4347 103.711 65.0568C105.268 63.9357 103.704 63.5098 102.89 62.6924C102.006 61.8657 101.361 60.732 101.307 59.5044C101.229 57.7726 101.837 55.9844 103.009 54.6973C104.635 52.9749 106.991 51.9101 109.266 53.0563C111.246 54.0929 111.635 55.8403 111.992 57.8603C112.152 58.3363 112.243 58.9501 112.682 59.2507C112.948 59.2006 113.214 59.0158 113.421 58.9031C116.648 56.9928 119.663 54.7537 122.721 52.5928C123.088 52.3078 123.79 52.0354 124.006 52.6273C124.14 53.0813 123.689 53.3914 123.382 53.6356C123.019 53.9332 122.64 54.2087 122.26 54.4875C120.101 56.0815 117.883 57.6003 115.624 59.0503C114.756 59.5639 113.935 60.2247 112.957 60.5096C110.886 60.7289 110.736 57.8509 110.36 56.4103C110.028 54.8132 108.464 53.6513 106.831 53.8674C104.908 54.2651 103.259 55.8748 102.796 57.782C102.128 60.2435 103.169 61.374 105.036 62.7488C106.058 63.6225 105.782 65.0975 104.779 65.8648C103.103 67.1801 101.094 68.0037 99.3332 69.2C97.9107 70.1238 96.5351 71.1228 95.1877 72.15C95.2253 72.7513 95.617 73.2993 95.8802 73.8035C96.5476 74.9497 97.215 76.1335 97.8637 77.2766C98.5499 78.476 99.2518 79.666 100.01 80.8216C100.386 81.4166 100.963 82.1432 100.605 82.876C99.7625 84.3228 97.9044 84.4637 96.5633 85.2278C94.6895 86.3521 93.0946 88.8668 94.3793 90.9744C95.6953 93.2606 98.0705 94.1437 100.433 92.8065C101.404 92.3023 101.9 91.2939 102.592 90.4953C102.912 90.1195 103.259 89.7625 103.639 89.4431C104.174 89.0547 104.726 88.4284 105.443 88.4973C105.891 88.5599 106.086 89.0516 106.289 89.3836C106.615 89.9535 106.988 90.4984 107.367 91.0026C109.185 93.2856 111.058 95.6343 113.308 97.4852C114.396 97.0436 115.336 96.2983 116.332 95.6845C118.67 94.1625 121.016 92.6561 123.323 91.0872C121.593 90.1132 119.801 89.2552 119.462 87.0755C119.02 84.6955 120.998 81.8425 122.99 80.6744C124.836 79.5314 127.597 79.5 129.148 81.1567C130.482 82.544 130.279 84.5671 130.523 86.3302C132.225 85.494 133.685 84.2508 135.258 83.2017C136.549 82.2997 137.846 81.4103 139.171 80.5617C139.679 80.2203 140.209 79.9103 140.654 79.4938C140.644 79.4687 140.635 79.4437 140.625 79.4186C140.672 79.4155 140.719 79.4123 140.766 79.4092C140.995 79.3936 141.221 79.3748 141.446 79.356C141.615 79.4249 141.785 79.4969 141.954 79.5658C141.929 80.0387 141.662 80.4458 141.139 80.7934C140.356 81.3884 139.513 81.8958 138.692 82.4375C137.291 83.3676 135.913 84.3353 134.54 85.303C133.469 86.0014 131.466 87.7081 130.222 87.6956C128.997 87.5891 129.223 85.9951 129.088 85.1088C129.019 83.9063 128.903 82.5158 127.854 81.736C125.456 80.1953 122.602 81.9396 121.392 84.1662C120.487 85.7446 120.34 87.4858 121.881 88.6946C122.712 89.3272 123.733 89.6842 124.532 90.3544C125.212 90.9337 124.827 91.7041 124.166 92.0862C123.351 92.6561 122.517 93.1979 121.69 93.7491C119.453 95.2022 117.238 96.6866 114.975 98.0958C114.298 98.4716 113.427 99.1168 112.663 98.6282C111.989 98.1491 111.403 97.5666 110.82 96.981C109.564 95.7346 108.414 94.3817 107.295 93.0069C106.506 92.0392 105.713 91.0559 105.114 89.9504C104.362 90.4608 103.726 91.1216 103.181 91.845C102.742 92.4432 102.319 93.0633 101.721 93.5111C98.788 95.6563 95.3914 94.8734 93.5176 92.058C93.3422 91.7949 93.1792 91.5131 93.032 91.2156V91.2218Z" fill="black"/>
        <path d="M123.539 52.3607C124.112 52.3169 124.472 52.8994 124.845 53.2439C127.308 55.9997 129.73 58.812 131.917 61.7964C131.767 61.8653 131.62 61.9374 131.469 62.0094C131.228 62.1284 130.99 62.2537 130.752 62.3789C130.745 62.3789 130.742 62.3821 130.736 62.3852C128.442 59.2942 125.889 56.3943 123.363 53.4913C123.313 53.4443 123.269 53.3942 123.231 53.3378C122.993 52.9808 123.018 52.4703 123.539 52.3607Z" fill="black"/>
        <path d="M140.628 79.8908C139.907 78.1716 139.067 76.5024 138.193 74.8551C137.281 73.0795 136.341 71.3163 135.348 69.5814C135.395 69.5438 135.442 69.5062 135.489 69.4687C135.633 69.3528 135.781 69.2369 135.925 69.1179C136.003 69.0553 136.081 68.9927 136.157 68.93C136.16 68.9269 136.163 68.9238 136.169 68.9206C136.244 68.8737 136.316 68.8235 136.392 68.7734C138.09 71.7297 139.653 74.7643 141.148 77.8271C141.374 78.3344 141.618 78.8386 141.803 79.3647C142.007 80.0693 141.048 80.5297 140.64 79.919C140.634 79.9096 140.631 79.9034 140.625 79.894L140.628 79.8908Z" fill="black"/>
        <path d="M135.295 68.8843C135.674 68.1797 136.401 67.713 137.097 67.356C138.037 66.8769 139.074 66.8142 140.058 66.5105C141.145 66.1535 142.094 65.3486 142.655 64.3559C143.291 62.9686 142.912 61.2587 142.141 59.9998C140.935 58.1771 138.488 57.2376 136.724 58.8817C136.028 59.4799 135.592 60.3067 134.953 60.958C134.474 61.4622 133.91 61.9007 133.283 62.2044C132.854 62.4111 132.381 62.5333 131.911 62.6053C131.579 62.646 131.209 62.6992 130.905 62.5301C130.548 62.3297 130.557 61.7911 130.908 61.5906C131.365 61.3589 131.917 61.3965 132.396 61.2054C133.869 60.7294 134.593 59.2795 135.592 58.2241C137.106 56.6363 139.406 56.3075 141.286 57.4537C143.426 58.7126 144.56 61.3401 144.172 63.7703C143.981 64.9634 143.204 65.9562 142.292 66.7078C141.605 67.3059 140.766 67.6911 139.885 67.9009C138.666 68.1703 137.291 68.4051 136.467 69.4386C136.059 70.1401 135 69.6578 135.298 68.8843H135.295Z" fill="black"/>
        <path d="M141.282 57.4495C139.402 56.3033 137.102 56.6321 135.589 58.2199C134.589 59.2753 133.865 60.7252 132.393 61.2012C132.142 61.3015 131.873 61.339 131.606 61.386C129.501 58.555 127.191 55.8743 124.841 53.2437C124.547 52.9681 124.255 52.5516 123.864 52.4107C123.569 52.1257 123.024 52.3543 122.717 52.5954C119.655 54.7532 116.644 56.9954 113.417 58.9057C113.21 59.0185 112.941 59.2001 112.677 59.2533C112.239 58.9496 112.148 58.3358 111.988 57.8629C111.628 55.843 111.242 54.0955 109.262 53.0589C106.987 51.9159 104.634 52.9775 103.004 54.6999C101.833 55.987 101.225 57.7752 101.303 59.507C101.356 60.7315 102.005 61.8652 102.885 62.695C103.7 63.5124 105.264 63.9383 103.706 65.0594C101.67 66.4374 99.4105 67.4646 97.4176 68.9145C96.4212 69.6254 95.4248 70.3394 94.4471 71.0785C92.9368 72.2403 94.8263 74.4043 95.4216 75.6319C96.1172 76.8533 96.816 78.1091 97.5398 79.3304C98.1132 80.367 98.8339 81.319 99.3885 82.3587C98.5707 83.2481 97.2578 83.364 96.2332 83.9277C93.6951 85.2273 91.6835 88.4279 93.0277 91.2245C93.175 91.522 93.3379 91.8038 93.5134 92.0669C95.3872 94.8823 98.7838 95.6683 101.717 93.52C102.315 93.0722 102.741 92.449 103.177 91.8539C103.722 91.1305 104.358 90.4697 105.11 89.9593C105.709 91.0616 106.501 92.045 107.291 93.0158C108.41 94.3875 109.556 95.7435 110.816 96.9899C111.399 97.5724 111.985 98.158 112.659 98.6371C113.423 99.1257 114.294 98.4805 114.971 98.1047C117.233 96.6955 119.449 95.2079 121.686 93.758C122.513 93.2068 123.347 92.6619 124.161 92.0951C124.819 91.7099 125.205 90.9395 124.528 90.3633C123.729 89.69 122.707 89.3361 121.877 88.7035C120.335 87.4947 120.483 85.7535 121.388 84.1751C122.595 81.9485 125.452 80.2073 127.849 81.7449C128.899 82.5216 129.015 83.912 129.084 85.1177C129.219 86.004 128.99 87.598 130.218 87.7045C131.462 87.717 133.461 86.0103 134.536 85.3119C135.912 84.3442 137.29 83.3765 138.688 82.4464C139.506 81.9047 140.352 81.3973 141.135 80.8023C141.658 80.4547 141.925 80.0476 141.95 79.5747C141.909 79.559 141.871 79.5402 141.831 79.5246C141.831 79.4745 141.821 79.4244 141.806 79.3711C141.621 78.8482 141.376 78.344 141.151 77.8335C139.731 74.9273 138.249 72.0493 136.648 69.2371C137.485 68.379 138.75 68.1567 139.882 67.9061C140.765 67.6963 141.602 67.3111 142.288 66.713C143.2 65.9582 143.977 64.9686 144.168 63.7755C144.557 61.3453 143.422 58.7178 141.282 57.4589V57.4495ZM142.655 64.3548C142.094 65.3507 141.144 66.1524 140.057 66.5094C139.073 66.8132 138.036 66.8758 137.096 67.355C136.4 67.712 135.673 68.1786 135.294 68.8832C135.191 69.1525 135.254 69.3843 135.395 69.544L135.351 69.5784C136.341 71.3134 137.284 73.0765 138.196 74.8522C139.023 76.4117 139.816 77.9901 140.508 79.6123C140.095 79.9662 139.625 80.2543 139.17 80.558C137.845 81.4067 136.545 82.2961 135.257 83.198C133.684 84.244 132.227 85.4904 130.522 86.3266C130.281 84.5634 130.481 82.5404 129.147 81.1531C127.595 79.4933 124.835 79.5277 122.989 80.6708C120.997 81.8389 119.016 84.6918 119.461 87.0719C119.8 89.2515 121.595 90.1096 123.322 91.0835C121.015 92.6525 118.668 94.1588 116.331 95.6808C115.338 96.2946 114.394 97.0431 113.307 97.4815C111.06 95.6307 109.187 93.282 107.366 90.999C106.987 90.4979 106.617 89.953 106.288 89.3799C106.088 89.048 105.89 88.5563 105.442 88.4937C104.725 88.4279 104.173 89.0511 103.637 89.4394C103.258 89.762 102.914 90.1159 102.591 90.4917C101.898 91.2902 101.403 92.2986 100.432 92.8028C98.0694 94.1401 95.6911 93.2569 94.3782 90.9708C93.0966 88.8632 94.6884 86.3516 96.5622 85.2242C97.9064 84.4601 99.7614 84.3192 100.604 82.8723C100.962 82.1427 100.385 81.4161 100.009 80.818C99.2507 79.6624 98.5488 78.4692 97.8626 77.2729C97.2108 76.1299 96.5434 74.9461 95.8791 73.7999C95.6159 73.2957 95.2242 72.7477 95.1866 72.1464C96.5371 71.1192 97.9096 70.1202 99.3321 69.1964C101.096 68.0032 103.105 67.1796 104.778 65.8612C105.781 65.0939 106.053 63.622 105.035 62.7451C103.167 61.3703 102.127 60.2398 102.795 57.7783C103.258 55.8712 104.906 54.2615 106.83 53.8638C108.46 53.6445 110.026 54.8095 110.359 56.4067C110.735 57.8472 110.882 60.7252 112.956 60.506C113.934 60.2179 114.755 59.5603 115.623 59.0467C117.882 57.5967 120.1 56.0778 122.259 54.4838C122.638 54.2051 123.018 53.9295 123.381 53.632C123.4 53.6164 123.422 53.5976 123.444 53.5819C125.944 56.4536 128.463 59.3222 130.732 62.3787C130.735 62.3787 130.738 62.3787 130.741 62.3756C130.782 62.432 130.832 62.4852 130.901 62.5228C131.208 62.6888 131.575 62.6355 131.907 62.598C132.377 62.5291 132.85 62.4038 133.28 62.1971C133.909 61.8933 134.47 61.458 134.95 60.9507C135.589 60.2993 136.024 59.4726 136.72 58.8744C138.484 57.2334 140.931 58.1698 142.138 59.9924C142.908 61.2513 143.288 62.9612 142.652 64.3486L142.655 64.3548Z" fill="black"/>
        <path d="M135.253 83.2009C133.68 84.2469 132.223 85.4933 130.518 86.3263C130.277 84.5632 130.477 82.5401 129.142 81.1528C127.591 79.4961 124.831 79.5274 122.985 80.6705C120.992 81.8386 119.015 84.6884 119.457 87.0716C119.795 89.2512 121.591 90.1093 123.317 91.0833C121.011 92.6554 118.664 94.1586 116.327 95.6806C115.333 96.2944 114.39 97.0428 113.303 97.4844C111.056 95.6304 109.183 93.2848 107.362 91.0019C106.983 90.5008 106.613 89.9559 106.284 89.3828C106.084 89.0477 105.886 88.5592 105.438 88.4965C104.721 88.4308 104.169 89.054 103.633 89.4423C103.257 89.7648 102.909 90.1187 102.587 90.4945C101.894 91.29 101.399 92.3015 100.428 92.8057C98.0652 94.146 95.687 93.2598 94.3741 90.9768C93.0925 88.8692 94.6843 86.3576 96.558 85.2302C97.8991 84.4661 99.7573 84.3251 100.6 82.8783C100.957 82.1486 100.381 81.4221 100.005 80.8239C99.2465 79.6684 98.5446 78.4783 97.8584 77.2789C97.2067 76.1359 96.5424 74.9521 95.8718 73.8059C95.6086 73.3017 95.2169 72.7537 95.1825 72.1524C96.533 71.1252 97.9054 70.1262 99.328 69.2024C101.092 68.0092 103.101 67.1856 104.774 65.8671C105.777 65.0999 106.049 63.628 105.031 62.7511C103.166 61.3763 102.123 60.2458 102.794 57.7843C103.257 55.8771 104.905 54.2706 106.829 53.8697C108.459 53.6505 110.025 54.8155 110.358 56.4126C110.734 57.8501 110.881 60.7343 112.955 60.512C113.933 60.2239 114.754 59.5662 115.622 59.0526C117.881 57.6027 120.099 56.0838 122.258 54.4898C122.637 54.2111 123.017 53.9355 123.38 53.638C123.402 53.6223 123.421 53.6035 123.443 53.5879C125.943 56.4596 128.462 59.3282 130.731 62.3847C130.731 62.3847 130.734 62.3847 130.737 62.3847C130.778 62.4442 130.834 62.4912 130.9 62.5288C131.207 62.6948 131.574 62.6415 131.906 62.6039C132.376 62.535 132.849 62.4098 133.278 62.2031C133.908 61.8993 134.469 61.464 134.949 60.9567C135.588 60.3053 136.023 59.4785 136.719 58.8804C138.483 57.2394 140.93 58.1758 142.137 59.9984C142.907 61.2605 143.287 62.9672 142.651 64.3545C142.09 65.3504 141.14 66.1521 140.053 66.5091C139.069 66.8129 138.032 66.8755 137.092 67.3547C136.396 67.7117 135.669 68.1783 135.29 68.8829C135.187 69.1522 135.246 69.384 135.387 69.5468C135.372 69.5594 135.359 69.5688 135.347 69.5813C136.337 71.3162 137.28 73.0793 138.192 74.855C139.019 76.4146 139.818 77.9929 140.51 79.6151C140.097 79.9721 139.624 80.254 139.169 80.5609C137.844 81.4096 136.544 82.299 135.256 83.2009H135.253Z" fill="#FED980"/>
        <path d="M91.5914 161.48C81.6272 177.627 50.7787 177.107 46.3042 176.932C17.8434 176.217 0.318284 161.273 0.330817 160.985C1.37424 149.617 6.3877 56.1183 6.3783 55.1256C3.17909 52.2538 3.53003 47.4843 3.8371 43.5635C3.94677 40.8608 4.35725 38.8221 7.18045 37.8043C9.07617 37.1122 10.8277 37.9703 12.1187 39.3295C12.1469 38.3336 12.1876 36.3074 12.4352 35.3397C12.8394 33.7488 19.0279 29.5305 23.7029 30.1568C33.7737 31.5066 32.6081 36.1508 32.7679 36.0851C33.263 35.9003 35.3185 35.8627 35.378 35.1299C35.5378 33.5735 35.5848 29.9501 35.9702 28.4219C36.5342 26.1577 40.9085 25.8884 42.8731 25.5752C44.9067 25.3372 46.9591 25.4186 48.999 25.5094C51.3145 25.5376 53.9466 26.2297 55.1906 28.3499C56.0742 30.3385 55.5384 32.6935 55.4162 34.7917C55.742 35.7093 57.0267 36.226 57.9072 36.4483C59.0697 36.7991 58.9601 34.8387 59.3517 34.1591C59.6431 33.4889 64.4279 28.8384 70.2779 30.4011C79.885 32.9659 78.7256 37.5601 78.6348 38.4526C78.2525 41.1114 83.0403 38.5403 85.0708 39.6458C87.4177 41.3431 87.3644 45.7588 87.355 48.4457C87.5368 52.2758 85.8761 53.1777 84.8295 55.7456C84.8138 55.7926 91.5538 159.285 91.5945 161.48H91.5914Z" fill="#FED980"/>
        <path d="M58.7887 17.3834C54.9158 15.9491 50.9614 14.6088 46.7877 14.8718C46.6749 14.875 46.5715 14.8405 46.4838 14.7779C46.3867 14.8374 46.2707 14.8624 46.1579 14.8405C46.1078 14.8311 46.0639 14.8186 46.0201 14.8029C45.9449 14.8624 45.8571 14.9 45.7662 14.9126C45.4936 14.947 45.196 14.7466 45.174 14.4616C44.9954 11.9688 44.9296 9.47286 44.8858 6.97379C44.8732 6.18461 44.8764 5.3923 44.8701 4.60312C44.8983 4.01124 44.7855 3.37238 44.9735 2.80242C45.2304 2.43915 45.6346 2.52997 45.8133 2.82121C49.5953 1.92869 54.7435 3.41936 58.068 5.19501C62.2543 7.34646 65.4973 10.9353 69.5802 13.2246C71.0999 13.995 72.7794 14.3457 74.4652 14.5086C74.7754 13.8791 75.9222 14.2424 75.4835 15.041C75.261 15.4011 74.8976 15.6516 74.578 15.9178C72.0336 17.9189 68.8219 19.181 65.5663 19.2123C65.5569 19.2123 65.5506 19.2123 65.5412 19.2123C63.1598 19.2123 60.9821 18.1695 58.7856 17.3834H58.7887Z" fill="white"/>
        <path d="M7.00278 41.7747C6.90564 40.926 6.89937 40.0679 6.77404 39.2255C6.51083 38.9812 6.6017 38.4395 6.95264 38.3267C6.91191 37.5469 7.98667 37.6378 8.51935 37.5532C9.11156 37.5094 9.70378 37.5094 10.2741 37.6973C11.7248 38.0668 12.2199 39.7516 11.8439 41.0669C11.2955 42.4323 9.49384 43.5065 8.05874 43.5754C7.11245 43.5535 7.07171 42.4887 6.99964 41.7778L7.00278 41.7747Z" fill="#A7A6B5"/>
        <path d="M26.6771 36.9742C25.8467 36.6016 26.0692 35.3427 25.9595 34.5879C25.9094 33.852 25.8749 33.116 25.7621 32.3895C25.7183 32.117 25.6587 31.8446 25.5898 31.5784C25.5271 31.3373 25.4206 31.0742 25.5616 30.8425C25.6744 30.6514 25.9407 30.57 26.1413 30.6671C26.4891 30.5888 26.8118 30.8675 27.1408 30.9552C28.4537 31.4657 29.8732 31.8446 30.9698 32.7716C31.7751 33.4668 33.1946 35.2236 32.1699 36.207C31.8378 36.4262 31.4211 36.4826 31.0419 36.5828C30.3024 36.7519 29.5567 36.8866 28.8047 36.9899C28.3785 37.0306 27.9367 37.1152 27.5012 37.1152C27.2223 37.1152 26.9465 37.0807 26.6802 36.9774L26.6771 36.9742Z" fill="#A7A6B5"/>
        <path d="M61.7827 36.8408C60.6139 36.8376 58.4863 36.8627 58.9438 35.1152C59.1255 34.4513 59.3073 33.2957 59.912 32.9074C61.2281 31.7612 62.7822 30.7497 64.5213 30.424C65.6681 30.2455 65.6368 31.1568 65.5114 31.9929C65.3704 34.3104 64.8753 36.8595 62.1869 36.8595C62.0584 36.8595 61.9237 36.8533 61.7827 36.8408Z" fill="#A7A6B5"/>
        <path d="M80.7951 42.4619C79.9522 41.9765 79.0999 41.2061 78.8774 40.2228C78.8054 39.7718 79.3631 39.4305 79.7109 39.7436C80.0368 39.3647 80.5977 39.4085 81.0458 39.2895C81.5095 39.2144 82.1801 39.0265 82.4652 39.5307C82.6657 39.9597 82.4088 40.4169 82.3179 40.8428C82.1456 41.4629 81.8605 42.5277 81.1304 42.5277C81.027 42.5277 80.9173 42.5058 80.7951 42.4588V42.4619Z" fill="#A7A6B5"/>
        <path d="M32.1668 35.6446C31.9976 34.821 31.7094 33.9504 31.0827 33.3585C30.0988 32.5881 28.9206 32.1183 27.7707 31.6517C26.5706 31.1788 25.4833 30.803 24.2706 30.493C23.4935 30.4053 23.5092 29.5222 24.3208 29.5566C25.6681 29.707 26.9466 30.23 28.2093 30.6966C29.5003 31.2164 30.8163 31.7488 31.8754 32.657C32.4488 33.2144 32.7872 33.9723 33.0254 34.7239C33.2949 35.8043 33.4515 35.9421 32.7653 36.083C32.7402 36.0862 32.712 36.0893 32.687 36.0893C32.4363 36.0893 32.2107 35.8983 32.1668 35.6415V35.6446Z" fill="black"/>
        <path d="M58.753 36.5392C57.9854 36.3982 58.399 35.4274 58.4272 34.9044C58.6841 32.9816 59.6367 32.2112 61.3036 31.4189C62.6667 30.78 65.1358 29.9188 66.5897 29.5054C66.8466 29.4459 67.1349 29.6276 67.1349 29.9032C67.1412 30.1286 66.972 30.2664 66.7934 30.3635C66.4174 30.5671 64.9008 30.8583 64.5123 31.0431C63.0834 31.7634 61.5449 32.3208 60.2665 33.2728C59.5051 33.9806 59.4581 35.108 59.339 36.0788C59.3171 36.345 59.0727 36.5423 58.8157 36.5423C58.7969 36.5423 58.775 36.5423 58.7562 36.5392H58.753Z" fill="black"/>
        <path d="M78.6137 39.8779C78.4507 39.0919 79.5004 39.142 80.0112 39.0167C80.9512 38.9009 82.8814 38.6127 83.8245 38.5908C84.0752 38.6535 84.2569 38.9353 84.1755 39.189C83.9279 39.7965 81.9915 39.6963 81.4494 39.8529C80.8133 39.9531 80.1741 40.0408 79.5443 40.1692C79.419 40.213 79.278 40.2443 79.1401 40.2443C78.9051 40.2443 78.6889 40.1504 78.6105 39.8779H78.6137Z" fill="black"/>
        <path d="M92.1846 161.183C92.1564 161.123 92.1157 161.079 92.0687 161.042C92.0029 159.93 91.9339 158.815 91.8681 157.703C91.6676 154.406 91.4702 151.105 91.2728 147.807C91.0284 143.724 90.7808 139.643 90.5364 135.56C90.2826 131.319 90.0288 127.076 89.7719 122.836C89.5087 118.445 89.2423 114.058 88.9791 109.667C88.7285 105.445 88.4715 101.224 88.2177 97.0025C87.967 92.8217 87.7164 88.6409 87.4626 84.4571C87.2181 80.4235 86.9769 76.3899 86.7325 72.3563C86.4787 68.1536 86.2249 63.9478 85.9585 59.7451C85.8958 58.7273 85.8238 57.6406 85.7517 56.5539C85.7486 56.4944 85.7423 56.4318 85.7392 56.3723C85.7392 56.3723 85.7392 56.3723 85.7392 56.3692C85.7392 56.3692 85.7392 56.3692 85.7392 56.366C85.7078 55.9119 85.6796 55.461 85.642 55.01C85.6358 54.9067 85.6264 54.8033 85.6138 54.7031C85.9836 54.3367 86.3314 53.7636 86.6291 53.5507C88.2866 52.1101 88.4088 49.8177 88.2208 47.7728C87.9075 45.471 87.544 43.1567 86.9549 40.9082C86.5069 39.2202 84.6456 38.2306 82.9849 38.7003C82.1358 39.0448 82.0794 40.1534 81.9352 40.9332C81.8036 41.3748 81.7159 42.1264 81.2177 42.261C80.4249 41.9166 79.8076 41.2276 79.4191 40.4666C78.5543 38.6346 80.0113 36.6053 79.0023 34.7043C78.1939 32.7627 76.0099 32.0581 74.2145 31.3065C72.5945 30.6895 70.9683 30.0632 69.2762 29.6561C62.9812 28.0934 65.8232 33.9653 64.1374 36.1637C63.5891 36.4455 62.9405 36.3829 62.3044 36.3234C62.0036 36.2952 61.7059 36.267 61.4239 36.2733C60.2269 36.1919 59.0175 36.0666 57.8299 35.8349C57.0747 35.6501 55.7336 35.4747 56.0094 34.388C56.1942 32.2679 56.6235 30.0006 55.8402 27.9462C54.4709 24.921 48.0631 24.9805 45.1772 24.9899C42.542 25.1371 37.071 25.6476 35.1941 27.4984C34.6677 28.369 34.862 29.487 34.8432 30.4672C34.8557 32.0456 35.1597 33.6709 34.8808 35.2305C33.3078 35.7033 31.6596 35.9132 30.0365 36.1762C28.8646 36.289 27.6771 36.671 26.5021 36.505C26.3986 33.8525 26.7089 28.9609 22.7827 29.4212C19.8655 29.869 16.989 30.89 14.4541 32.4026C13.1788 33.27 11.8596 34.4507 11.6121 36.0478C11.5463 36.6021 11.54 37.169 11.5463 37.7358C11.3771 37.5635 11.1859 37.4132 10.9635 37.3036C10.2396 36.9372 9.39989 37.0186 8.61654 37.0907C7.76112 37.1533 6.96523 37.479 6.20695 37.8548C5.07892 38.3684 3.72216 39.1419 3.41195 40.4603C3.09547 42.5366 3.10487 44.6536 3.09234 46.7487C3.18007 49.4983 2.92 53.8388 5.68367 55.3764C5.7526 55.4203 5.82781 55.461 5.90301 55.4986C5.81214 57.0801 5.7244 58.6615 5.63354 60.2399C5.40166 64.3142 5.16979 68.3916 4.93792 72.469C4.69978 76.6122 4.46477 80.7586 4.22977 84.9017C3.98536 89.1921 3.74096 93.4825 3.49342 97.7729C3.24274 102.195 2.99207 106.614 2.73826 111.032C2.48446 115.451 2.23379 119.87 1.98311 124.289C1.73557 128.664 1.4849 133.035 1.23736 137.41C0.999221 141.604 0.761082 145.8 0.532343 149.993C0.416407 152.12 0.297337 154.243 0.187668 156.366C0.1344 157.393 0.0779986 158.421 0.0341309 159.445C0.0215972 159.799 0.00906358 160.152 0.00279676 160.506C0.00279676 160.669 -0.00660347 160.835 0.00906358 160.998C0.0215972 161.136 0.0435311 161.261 0.137533 161.371C0.150067 161.383 0.165734 161.389 0.181401 161.402C0.206468 161.505 0.26287 161.602 0.344339 161.674C0.54801 161.853 0.754815 162.031 0.96162 162.207C2.38106 163.406 3.87883 164.509 5.42986 165.526C8.1434 167.305 11.0167 168.846 13.9778 170.168C17.4089 171.696 20.9465 172.967 24.5562 174.007C28.1722 175.047 31.8602 175.858 35.5764 176.44C39.3772 177.032 43.2125 177.42 47.0572 177.558C48.1978 177.599 49.3352 177.621 50.4758 177.621C52.8478 177.621 55.2229 177.53 57.5886 177.342C60.9915 177.07 64.3756 176.587 67.7127 175.87C71.1187 175.141 74.4777 174.142 77.6988 172.811C80.8542 171.505 83.903 169.873 86.604 167.769C87.895 166.763 89.1076 165.652 90.1824 164.415C90.643 163.882 91.0816 163.328 91.4827 162.749C91.6488 162.507 91.8117 162.263 91.9653 162.01C92.1125 161.765 92.3319 161.474 92.194 161.176L92.1846 161.183ZM9.24322 38.0991C9.81037 38.0646 10.4809 38.0646 10.8663 38.5531C11.1452 38.907 11.3426 39.3141 11.5212 39.7244C11.5212 39.7307 11.5275 39.7369 11.5306 39.7432C11.4961 40.3382 11.4115 40.9238 11.2173 41.4938C10.412 42.4051 9.11475 42.8999 7.97106 43.26C7.61072 41.713 7.62952 40.119 7.53552 38.5406C7.53552 38.503 7.52925 38.4623 7.52611 38.4216C8.07446 38.2243 8.65101 38.1053 9.24009 38.1022L9.24322 38.0991ZM4.31124 41.6096C4.3457 40.8205 4.47417 40.1847 5.14472 39.6868C5.5646 39.3361 6.05655 39.0887 6.54849 38.8538C6.53596 40.2255 6.61429 41.6034 6.83677 42.9563C6.95897 45.3395 9.27143 43.9521 10.506 43.3258C11.4209 42.8592 12.3484 42.1859 12.433 41.0741C12.8372 39.239 12.2544 37.2504 12.8748 35.4779C14.6546 32.509 19.0383 31.3441 22.2281 30.5674C25.6028 29.5715 25.3615 33.7273 25.4085 35.9226C25.2393 37.5134 26.4456 37.7796 27.7366 37.5573C30.0992 37.2504 32.4712 36.9278 34.7868 36.361C36.5728 36.0729 35.9336 33.8024 35.99 32.5184C36.0182 31.2438 35.5827 29.1519 36.1122 28.0433C38.0299 26.8564 40.405 26.609 42.5921 26.2426C46.2175 25.9012 50.0904 25.8104 53.5371 27.1414C55.7869 28.1091 55.2229 30.9902 55.0944 32.9976C55.0286 34.0248 54.5899 35.3307 55.555 36.0697C57.2972 37.1783 59.5439 37.1126 61.5367 37.3318C64.6858 37.6857 65.7104 37.1157 65.8013 33.8212C65.9611 32.7533 65.654 30.9338 66.9105 30.4891C69.2637 30.3231 71.4352 31.4599 73.6348 32.2021C75.8251 33.0164 78.6733 34.0905 78.3224 36.9372C78.2503 37.8892 77.9339 38.8319 78.1125 39.7902C78.4195 41.3309 79.7606 43.2506 81.4527 43.2976C83.0476 42.8811 82.7906 40.8643 83.3515 39.6774C86.0149 39.192 86.2155 42.1138 86.5507 44.0054C86.8766 45.8687 87.3372 47.7446 87.215 49.6486C87.1586 50.2468 87.121 50.8888 86.8891 51.4525C86.5695 51.0892 86.228 50.7416 85.8708 50.4128H85.8677C85.8677 50.4128 85.8645 50.4034 85.8614 50.4034C85.3788 49.9618 84.8681 49.5484 84.3354 49.1601C82.8376 48.064 81.2051 47.1621 79.5256 46.376C77.5986 45.4741 75.5995 44.7225 73.5721 44.0774C71.407 43.3884 69.2073 42.8153 66.9889 42.3299C65.1025 41.9165 63.2037 41.5658 61.2923 41.2746C58.5255 40.8487 55.743 40.5355 52.9512 40.3257C50.2846 40.1252 47.6087 40.0125 44.9359 39.9937C42.354 39.9781 39.772 40.0407 37.1964 40.1941C34.2134 40.3726 31.2366 40.667 28.2787 41.1117C25.2048 41.5721 22.1497 42.1765 19.1542 43.0158C16.1837 43.8488 13.2446 44.8854 10.5185 46.3447C9.16802 47.065 7.86766 47.9043 6.71456 48.9127C5.84347 49.6737 5.05385 50.5474 4.46791 51.5464C4.46164 51.5151 4.45537 51.4838 4.44911 51.4525C4.12636 49.6486 4.14517 47.7978 4.1389 45.9689C4.14517 44.5127 4.19843 43.0565 4.31437 41.6065L4.31124 41.6096ZM4.83138 52.8461C5.05072 52.4828 5.48 51.8439 5.63354 51.6216C5.87481 51.2834 6.13488 50.9608 6.41375 50.6539C6.78663 50.253 7.18457 49.8804 7.60132 49.5265C8.2374 48.9972 8.91422 48.5212 9.61297 48.0797C10.6094 47.4596 11.6497 46.9178 12.7182 46.4261C14.5105 45.6119 16.3655 44.9449 18.2455 44.3718C21.1815 43.4886 24.2178 42.831 27.276 42.3299C27.276 42.3299 27.2948 42.3299 27.3042 42.3268C28.7706 42.0888 30.2559 41.8852 31.7442 41.7193C34.7022 41.3873 37.6758 41.1837 40.6525 41.0929C42.8271 41.0303 45.0675 41.024 47.3079 41.0898C50.0622 41.165 52.8164 41.3372 55.5582 41.6096C57.5134 41.8069 59.5313 42.0606 61.5398 42.38C63.5954 42.7057 65.6384 43.0972 67.6657 43.5638C68.4521 43.7454 69.2982 43.9553 70.1442 44.1807C72.0023 44.6755 73.8416 45.2455 75.6465 45.9094C77.2758 46.5138 78.8958 47.2059 80.4562 48.017C81.4276 48.5275 82.399 49.0975 83.3233 49.7394C83.3421 49.752 83.3578 49.7645 83.3766 49.7739C83.9594 50.1841 84.561 50.6539 85.125 51.1675C85.5324 51.5401 85.9209 51.9379 86.2781 52.3606C86.2781 52.3606 86.2781 52.3638 86.2813 52.3669C85.7423 52.9744 84.8838 53.8357 84.7146 54.4964C84.7146 54.509 84.7083 54.5215 84.7051 54.5309C84.6863 54.6217 84.6801 54.7094 84.6895 54.7908C84.6895 54.819 84.6895 54.8441 84.6895 54.8722C84.6769 54.8534 84.6644 54.8409 84.6581 54.8347L84.6425 54.8159C84.6425 54.8159 84.6425 54.8159 84.6394 54.8127C84.6425 54.8159 84.6488 54.8221 84.6519 54.8253C84.1975 54.2866 83.6931 53.7949 83.1541 53.3409C82.4366 52.7333 81.6563 52.1978 80.8511 51.7124C79.7262 51.0391 78.5511 50.4535 77.3479 49.9367C75.4773 49.1319 73.5377 48.4805 71.573 47.9293C68.7686 47.1433 65.911 46.5577 63.0314 46.1067C60.3084 45.6808 57.5635 45.3833 54.8155 45.186C51.9673 44.9825 49.1096 44.8885 46.2519 44.8979C43.3661 44.9073 40.4771 45.02 37.6006 45.2424C35.2881 45.4209 32.9819 45.6683 30.6883 45.9971C28.5074 46.3071 26.3328 46.6892 24.1802 47.1558C21.8615 47.6569 19.5584 48.2613 17.3024 49.0004C15.1434 49.7081 13.0159 50.5411 10.9948 51.584C9.96078 52.1195 8.94868 52.7114 7.99926 53.391C7.64832 53.6415 7.30678 53.9046 6.9809 54.1833C6.9151 54.2396 6.63309 54.4776 6.42316 54.6624C5.58653 54.1332 5.12906 53.5789 4.83138 52.8492V52.8461ZM90.5176 162.379C89.9066 163.187 89.2392 163.961 88.5217 164.69C87.707 165.508 86.8359 166.269 85.924 166.979C84.7428 167.885 83.4988 168.705 82.2078 169.45C80.5941 170.371 78.9177 171.176 77.2038 171.884C75.0166 172.776 72.7669 173.515 70.4826 174.129C67.5811 174.896 64.6325 175.46 61.6621 175.861C61.5493 175.877 61.3738 175.898 61.1952 175.92C57.7484 176.349 54.2797 176.562 50.8079 176.578C50.6481 176.578 50.4538 176.578 50.2627 176.578C48.4422 176.572 46.6248 176.515 44.8106 176.403C42.9023 176.284 41.0003 176.105 39.1046 175.883H39.0858C39.0858 175.883 39.0702 175.88 39.0639 175.88C38.8038 175.848 38.5343 175.814 38.2649 175.779C34.511 175.294 30.7886 174.564 27.1193 173.631C25.4461 173.196 23.7854 172.717 22.1435 172.187C20.4859 171.652 18.8534 171.06 17.2334 170.421C14.5669 169.353 11.8972 168.113 9.33096 166.679C7.33811 165.558 5.40793 164.327 3.57488 162.958C2.73513 162.329 1.86718 161.631 1.02742 160.892C0.974154 160.845 0.917753 160.813 0.855084 160.794C0.861351 160.726 0.873885 160.66 0.880152 160.591C0.914619 160.262 0.939686 159.933 0.964754 159.601C1.03682 158.652 1.09322 157.7 1.14963 156.748C1.40656 152.546 1.6541 148.34 1.89851 144.137C2.14605 139.834 2.39359 135.528 2.638 131.225C2.88867 126.8 3.14561 122.375 3.39628 117.95C3.64695 113.566 3.89763 109.178 4.1483 104.794C4.39897 100.394 4.64964 95.9972 4.90032 91.5972C5.14159 87.335 5.386 83.0728 5.6304 78.8138C5.85914 74.7959 6.08788 70.7779 6.31662 66.76C6.52969 63.0052 6.7459 59.2534 6.95897 55.4986C7.16577 55.3326 7.75485 54.8472 7.91153 54.7313C8.39094 54.368 8.88915 54.0267 9.39676 53.7041C10.506 53.0058 11.6685 52.3982 12.8592 51.8502C14.8113 50.9608 16.8323 50.2311 18.8847 49.6079C19.8467 49.3167 20.887 49.0286 21.9304 48.7686C24.2272 48.1924 26.5459 47.7258 28.8834 47.3406C30.9264 47.0086 33.0227 46.7331 35.1221 46.5232C37.7416 46.2602 40.3705 46.0911 43.0026 46.0065C43.5823 45.9877 44.234 45.9721 44.8826 45.9627C47.7622 45.9219 50.645 45.9814 53.5215 46.1568C54.2045 46.1975 54.8908 46.2445 55.5738 46.2977C55.884 46.3228 56.1942 46.3479 56.5045 46.376C56.6956 46.3917 56.8899 46.4105 57.081 46.4293C57.1719 46.4387 57.2659 46.4449 57.3599 46.4543C57.3787 46.4543 57.3975 46.4575 57.4163 46.4606H57.4194C57.5009 46.47 57.5824 46.4763 57.6638 46.4856C58.3532 46.5545 59.0394 46.6297 59.7287 46.7143C62.6271 47.065 65.5067 47.5441 68.3519 48.1924C70.5797 48.706 72.8483 49.3417 75.0574 50.1497C76.3609 50.6288 77.702 51.1988 78.9929 51.8658H78.9992C78.9992 51.8658 79.0274 51.8815 79.0431 51.8909C79.8578 52.3199 80.6725 52.7991 81.4495 53.3409C81.9415 53.6916 82.4209 54.0611 82.869 54.4683C83.2105 54.7783 83.5333 55.1071 83.8309 55.4579C83.8372 55.4673 83.8466 55.4766 83.8529 55.486C83.8717 55.5111 84.5861 56.3911 84.796 56.651C84.8054 56.8045 84.8117 56.9548 84.818 57.1082C85.0373 61.2201 85.288 65.332 85.5324 69.4407C85.7768 73.5307 86.0212 77.6175 86.2687 81.7074C86.5131 85.8131 86.7607 89.9187 87.0082 94.0211C87.262 98.227 87.5127 102.43 87.7665 106.635C88.0297 110.982 88.2898 115.329 88.5499 119.679C88.8068 123.966 89.0669 128.256 89.3238 132.547C89.5745 136.724 89.8251 140.905 90.079 145.083C90.3077 148.885 90.5364 152.683 90.7652 156.485C90.856 158.004 90.9469 159.523 91.0409 161.045C91.0503 161.186 91.091 161.314 91.1945 161.418C91.2007 161.424 91.2101 161.43 91.2195 161.436C91.1788 161.496 91.138 161.555 91.0973 161.615C90.9156 161.875 90.7338 162.135 90.5427 162.388L90.5176 162.379Z" fill="black"/>
        <path d="M45.2886 25.8597C45.0066 25.8597 44.7684 25.628 44.7621 25.3461C44.7402 24.5288 44.7151 23.7114 44.6901 22.8941C44.6431 21.2124 44.5961 19.5306 44.5459 17.8489C44.4895 15.8917 44.4331 13.9344 44.3799 11.9771C44.3235 9.91018 44.2639 7.84016 44.2107 5.77013C44.195 5.20017 44.1825 4.6302 44.1668 4.06337C44.1574 3.769 44.1511 3.47462 44.1449 3.18338C44.1417 3.04245 44.1386 2.90153 44.1355 2.7606C44.1355 2.6416 44.1261 2.51946 44.1386 2.39733C44.1731 2.10609 44.4613 1.90566 44.7465 1.97456C44.9439 2.02466 45.0818 2.18751 45.11 2.37541C45.1256 2.47562 45.1256 2.57897 45.1319 2.67918C45.1382 2.80758 45.1413 2.93598 45.1476 3.06124C45.157 3.3243 45.1664 3.58736 45.1726 3.84729C45.1883 4.36401 45.204 4.88074 45.2228 5.39746C45.2572 6.4497 45.2886 7.50194 45.3199 8.55104C45.3826 10.571 45.4421 12.594 45.5016 14.6139C45.558 16.5681 45.6144 18.5223 45.674 20.4795C45.7053 21.6226 45.7398 22.7657 45.7711 23.9087C45.7836 24.3785 45.7993 24.8482 45.8118 25.3148C45.8212 25.5998 45.5831 25.8472 45.298 25.8535H45.2854L45.2886 25.8597Z" fill="black"/>
        <path d="M74.8118 14.9622C68.1627 14.6428 63.1242 8.74273 57.6376 5.56723C55.7074 4.41478 53.5704 3.6256 51.3582 3.21848C49.3873 2.88966 47.2973 2.68297 45.3609 3.28112C45.2011 3.33122 45.0538 3.4283 44.8877 3.45962C44.424 3.53165 44.2266 2.9335 44.5712 2.64226C44.9786 2.29777 45.5269 2.17877 46.0345 2.05977C46.8148 1.91258 47.6075 1.875 48.4003 1.875C56.5189 2.04098 60.655 6.50986 66.8435 10.772C69.8297 12.7701 73.4958 14.6146 77.1587 13.6532C77.8199 13.4809 78.1144 14.4611 77.4439 14.6647C76.6856 14.8338 75.9148 14.9747 75.1345 14.9747C75.028 14.9747 74.9183 14.9747 74.8118 14.9653V14.9622Z" fill="black"/>
        <path d="M64.2373 19.8626C63.338 19.7311 62.4544 19.5119 61.5895 19.2363C59.791 18.6663 58.0644 17.9053 56.3066 17.2289C55.7677 17.0222 55.2224 16.8249 54.6772 16.6433C53.7247 16.3301 52.7596 16.0702 51.7757 15.876C50.9391 15.7194 50.0962 15.6161 49.2658 15.5691C48.7081 15.5441 48.1441 15.5315 47.5832 15.5347C47.2855 15.5347 46.991 15.5378 46.6933 15.5441C46.4301 15.5503 46.1669 15.5503 45.9037 15.566C45.7094 15.5942 45.5151 15.6349 45.3177 15.638C45.2049 15.638 45.0984 15.6161 45.0013 15.5629C44.8195 15.4658 44.738 15.2497 44.7819 15.0555C44.8321 14.8394 45.0263 14.7392 45.2206 14.6829C45.4023 14.6296 45.5903 14.5983 45.7752 14.5639C45.9037 14.5419 46.0384 14.5451 46.1669 14.5388C46.2797 14.5325 46.3925 14.5294 46.5053 14.5231C46.7528 14.5138 47.0004 14.5044 47.251 14.5012C48.2036 14.4793 49.1624 14.4981 50.1087 14.5826C51.9637 14.7486 53.7748 15.2152 55.5295 15.8259C57.3312 16.4554 59.0797 17.2352 60.8751 17.8866C61.1164 17.9742 61.3608 18.0588 61.6021 18.1371C62.3259 18.3751 63.0591 18.5786 63.7923 18.7227C64.3783 18.8292 64.9642 18.9012 65.4875 18.9294C66.0766 18.9576 66.6625 18.9482 67.1795 18.9075C67.6809 18.8636 68.1791 18.7916 68.671 18.6914C69.0753 18.6006 69.4763 18.4878 69.868 18.3532C70.3694 18.1715 70.8582 17.9617 71.3376 17.7268C72.0583 17.3604 72.7507 16.9439 73.4244 16.4961C74.2924 15.9073 76.1474 14.4699 76.9683 13.8123C77.1908 13.6338 77.5323 13.6839 77.7047 13.9062C77.8833 14.1348 77.8363 14.4636 77.6107 14.6453C76.9464 15.1745 75.2512 16.4961 74.5587 16.9878C73.8224 17.5076 73.0672 17.9993 72.2713 18.4283C71.4723 18.8574 70.6451 19.2206 69.7803 19.49C68.8747 19.7718 67.9316 19.9159 66.9853 19.9754C66.7001 19.9942 66.415 20.0036 66.133 20.0036C65.4969 20.0036 64.8577 19.9597 64.2279 19.8658L64.2373 19.8626Z" fill="black"/>
        <path d="M63.2848 85.6505C63.2848 87.5389 63.5167 89.4429 63.2691 91.3219C61.6648 90.5484 60.0918 89.2582 58.1993 89.6026C55.9589 89.9753 54.458 92.2896 54.389 94.4598C54.2574 96.7647 55.539 99.9904 57.77 100.942C59.7722 101.866 61.4799 100.848 63.2503 99.9496C63.2816 102.737 63.2378 105.527 63.2096 108.314C63.172 109.482 63.2723 110.679 63.0372 111.828C60.2485 112.674 57.2561 112.934 54.3452 113.181C53.7153 113.218 53.0573 113.225 52.4025 113.181C52.0139 113.165 51.4969 113.056 51.1961 113.394C50.7417 113.954 50.9579 114.759 50.983 115.42C51.0426 115.912 51.146 116.397 51.2807 116.873C51.5627 117.891 52.1298 118.862 52.0108 119.948C51.8165 122.657 49.7673 124.145 47.1321 123.976C44.6661 123.876 43.4534 121.16 43.5537 118.978C43.6602 117.437 44.5689 115.815 43.8326 114.311C43.4221 113.61 42.4977 113.685 41.7927 113.669C40.4109 113.66 39.0291 113.585 37.6504 113.494C36.3375 113.403 34.9807 113.303 33.6553 113.222C33.0912 113.159 32.4144 113.184 31.8943 112.88C31.7846 111.189 31.7125 109.492 31.7313 107.794C31.7125 105.665 32.1387 103.539 31.9695 101.415C31.8849 100.156 30.8101 99.1135 29.516 99.4768C27.3383 100.269 25.8186 100.51 24.1391 98.5905C22.8074 97.1499 22.3781 94.8857 23.1113 93.0663C23.832 91.5881 25.6682 90.9305 27.1816 91.538C28.5885 92.0203 31.0702 93.4953 32.0353 91.6476C32.3361 90.6768 32.2421 89.6277 32.2954 88.6224C32.3392 85.9386 32.3016 83.2516 32.17 80.5709C32.1481 80.1012 32.1261 79.6314 32.0823 79.1648C32.0823 79.1398 32.0791 79.1116 32.076 79.0834C35.8518 78.5917 39.6369 78.0813 43.444 77.8871C43.444 77.8871 43.444 77.884 43.444 77.8808C43.5161 77.8808 43.5882 77.862 43.6571 77.8245C43.9642 77.6616 44.1271 77.3265 44.2775 77.0259C44.4781 76.5968 44.6379 76.1334 44.7037 75.6605C44.8008 74.9684 44.7475 74.2575 44.5909 73.5811C44.4029 72.6885 43.9548 71.868 43.842 70.9599C43.4503 68.5829 45.5873 67.0641 47.7744 67.0703C49.2502 67.1267 50.8827 67.7562 51.688 69.0558C52.205 70.0736 52.3492 71.3075 52.0452 72.4098C51.7538 73.3963 51.2306 74.2951 51.1115 75.3411C51.0237 76.1177 51.0081 76.982 51.3841 77.6867C51.5502 77.9215 51.7789 77.9998 51.992 77.9716C51.992 77.9904 51.992 78.0092 51.9951 78.0249C53.988 78.1595 55.9808 78.3537 57.9643 78.5792C59.7221 78.7546 61.4799 78.9644 63.2158 79.2869C63.2848 79.8287 63.2566 80.3799 63.2597 80.9279C63.2346 82.5 63.2534 84.0753 63.291 85.6473L63.2848 85.6505Z" fill="#313144"/>
        <path d="M63.31 98.5326C62.3073 98.827 61.4456 99.4784 60.4586 99.8197C58.5973 100.434 57.228 99.3468 56.4165 97.7184C55.2289 95.4823 55.3605 92.1377 57.9706 90.9978C59.1989 90.5562 60.4241 91.2264 61.4644 91.8371C62.2759 92.216 63.4792 93.2871 64.2468 92.3256C64.9456 91.2953 64.6323 88.6867 64.6448 87.4089C64.6009 85.7304 64.5571 84.0455 64.5571 82.367C64.5571 81.3836 64.6041 80.4003 64.5414 79.4201C64.5414 79.157 64.5069 78.9253 64.4411 78.7248C64.3158 78.3459 63.9774 78.0766 63.5826 78.0171C63.1439 77.9513 62.442 77.8292 62.0785 77.7665C58.873 77.3375 55.6519 76.9805 52.4245 76.755C52.1707 75.5838 52.6877 74.4094 53.1076 73.329C53.4209 72.4772 53.5651 71.5659 53.446 70.6639C53.3206 69.4896 52.9258 68.2933 52.0391 67.4728C50.2311 65.8067 47.411 65.2931 45.1769 66.3767C43.1809 67.3068 42.1814 69.405 42.667 71.5408C42.9929 72.9563 43.7982 74.3624 43.3815 75.85C43.3282 76.113 43.2091 76.3604 43.0995 76.6078C39.5744 76.7926 36.0618 77.231 32.5712 77.729C32.1795 77.8229 31.6688 77.8323 31.3335 78.0797C30.9356 78.1674 30.8228 78.7468 30.8541 79.1351C30.9575 82.8774 31.158 86.626 30.9606 90.3683C30.9387 90.6032 30.945 90.9289 30.8384 91.1763C30.3433 91.3736 29.7825 91.1074 29.2968 90.979C27.4167 90.1585 25.7435 89.5134 23.7851 90.5876C21.5729 91.8465 21.1531 94.3957 21.6889 96.7037C22.1119 98.3917 23.265 99.8886 24.7533 100.781C25.803 101.414 27.1065 101.505 28.2847 101.229C29.419 101.003 30.6379 99.9387 30.71 101.855C30.7319 104.314 30.3371 106.763 30.4405 109.224C30.4812 110.445 30.5251 111.673 30.6003 112.894C30.7319 114.795 33.5833 114.423 34.9338 114.604C36.3376 114.701 37.7695 114.817 39.189 114.889C40.3703 114.986 41.561 114.911 42.736 115.027C43.0243 116.201 42.3944 117.357 42.2973 118.522C41.9746 121.353 43.5287 124.798 46.6026 125.23C46.9316 125.274 47.2575 125.293 47.574 125.293C50.9581 125.293 53.493 122.9 53.3269 119.27C53.2862 118.522 53.001 117.827 52.7472 117.132C52.4464 116.277 52.249 115.381 52.2396 114.473C53.4898 114.585 54.7463 114.473 55.9934 114.347C57.7576 114.175 59.5185 113.972 61.2544 113.615C62.0629 113.455 62.8744 113.289 63.6452 112.991C64.4756 112.625 64.4192 111.545 64.4819 110.771C64.5602 108.106 64.5477 105.441 64.579 102.776C64.579 101.783 64.5853 100.787 64.5633 99.7947C64.6072 99.0337 64.1779 98.2852 63.3225 98.5295L63.31 98.5326ZM63.2097 108.31C63.1721 109.478 63.2724 110.674 63.0374 111.823C60.2486 112.669 57.2562 112.929 54.3484 113.176C53.7186 113.214 53.0606 113.22 52.4026 113.176C52.014 113.161 51.497 113.051 51.1962 113.389C50.7418 113.95 50.9581 114.755 50.9863 115.415C51.0458 115.907 51.1492 116.392 51.2839 116.868C51.5659 117.886 52.1331 118.857 52.014 119.944C51.8197 122.653 49.7674 124.14 47.1353 123.971C44.6693 123.874 43.4567 121.156 43.5569 118.973C43.6635 117.432 44.5722 115.81 43.8358 114.307C43.4253 113.605 42.501 113.68 41.796 113.665C40.4141 113.655 39.0323 113.58 37.6536 113.489C36.3407 113.399 34.9839 113.298 33.6585 113.217C33.0945 113.154 32.4177 113.179 31.8975 112.876C31.7878 111.185 31.7158 109.487 31.7346 107.79C31.7158 105.66 32.1419 103.534 31.9727 101.411C31.8881 100.152 30.8134 99.1088 29.5193 99.4721C27.3415 100.264 25.8218 100.506 24.1423 98.5858C22.8106 97.1453 22.3813 94.8811 23.1146 93.0616C23.8353 91.5834 25.6714 90.9258 27.1849 91.5333C28.5918 92.0187 31.0734 93.4875 32.0385 91.6429C32.3393 90.6721 32.2453 89.623 32.2986 88.6178C32.3425 85.9339 32.3049 83.247 32.1733 80.5663C32.1513 80.0965 32.1294 79.6268 32.0855 79.1601C32.0855 79.1351 32.0793 79.1069 32.0793 79.0787C35.855 78.587 39.6402 78.0766 43.4441 77.8824C43.4441 77.8793 43.4441 77.8762 43.4441 77.873C43.5162 77.873 43.5851 77.8574 43.6541 77.8229C43.9611 77.6601 44.1241 77.325 44.2745 77.0243C44.4782 76.5922 44.6348 76.1318 44.7006 75.6589C44.7978 74.9668 44.7445 74.256 44.5878 73.5795C44.3998 72.687 43.9517 71.8665 43.8389 70.9583C43.4473 68.5814 45.5843 67.0625 47.7714 67.0688C49.2472 67.1252 50.8797 67.7546 51.685 69.0543C52.202 70.0721 52.3462 71.3059 52.0422 72.4083C51.7508 73.3947 51.2275 74.2935 51.1085 75.3395C51.0207 76.1162 51.0051 76.9805 51.3811 77.6851C51.5471 77.92 51.7759 77.9952 51.9858 77.967C51.9858 77.9858 51.9889 78.0046 51.9921 78.0233C53.9849 78.158 55.9778 78.3522 57.9612 78.5776C59.7191 78.753 61.4738 78.966 63.2066 79.2885C63.2724 79.8303 63.2536 80.3784 63.2567 80.9264C63.2316 82.4985 63.2504 84.0737 63.288 85.6458C63.288 87.5342 63.5199 89.4382 63.2724 91.3172C61.6681 90.5437 60.0951 89.2535 58.2025 89.598C55.9621 89.9706 54.4612 92.2849 54.3923 94.4552C54.2607 96.7601 55.5422 99.9857 57.7732 100.938C59.7755 101.862 61.4832 100.844 63.2536 99.945C63.2849 102.732 63.241 105.522 63.2128 108.31H63.2097Z" fill="black"/>
        <path d="M281.778 160.215C262.542 141.478 246.706 116.838 238.891 90.2597C235.726 51.4271 178.332 31.1528 177.157 29.2174C168.289 24.1222 160.941 13.39 151.488 7.67782C144.964 0.882114 138.612 4.31755 139.064 7.48052C134.31 4.44595 128.705 2.78303 125.562 5.86146C114.097 18.504 147.079 35.0391 138.75 35.0391C129.591 36.4985 106.144 48.1702 126.966 52.4261C146.524 56.8731 162.664 47.3654 172.112 57.6059C174.929 60.9662 197.878 80.8209 199.341 82.6341C177.388 93.8799 185.867 102.317 159.873 96.6483C150.46 97.3342 139.155 94.5501 123.556 95.1263C109.732 99.3071 105.383 100.641 105.01 109.444C104.527 120.818 129.804 120.571 147.803 126.994C161.449 131.864 169.113 145.236 181.205 153.024C193.303 162.554 208.641 167.311 221.717 175.582C232.464 185.478 243.641 197.992 255.774 208.06C255.774 208.06 283.204 161.602 281.781 160.218L281.778 160.215Z" fill="#FFF7DB"/>
        <path d="M255.353 208.383C255.82 208.346 255.989 207.672 255.613 207.412C254.776 206.808 253.939 206.204 253.103 205.599C252.132 204.904 251.188 204.168 250.248 203.432C247.4 201.093 244.859 198.415 242.443 195.637C239.451 192.211 236.408 188.751 233.159 185.55C230.21 182.738 227.23 179.938 224 177.449C218.266 172.936 211.648 169.798 205.14 166.576C202.335 165.207 199.537 163.82 196.802 162.32C193.236 160.478 189.742 158.505 186.399 156.282C177.212 150.542 169.895 142.418 161.682 135.45C159.837 133.887 157.897 132.441 155.936 131.028C153.633 129.375 151.126 128.015 148.5 126.951C145.301 125.626 141.911 124.884 138.577 123.985C135.854 123.277 133.125 122.582 130.383 121.943C130.386 121.918 130.389 121.896 130.392 121.874C130.706 119.272 129.944 116.729 129.333 114.224C129.239 113.832 129.155 113.444 129.045 113.056C128.926 112.689 128.851 112.197 128.456 112.022C127.757 111.746 127.03 111.552 126.309 111.355C124.846 110.926 123.283 110.594 121.747 110.422C119.629 110.143 117.489 109.98 115.349 110.059C113.008 110.159 110.605 110.193 108.383 111.023C107.869 111.214 107.368 111.452 106.926 111.781C106.798 111.887 106.66 112 106.566 112.138C106.205 111.524 105.933 110.867 105.792 110.162C105.623 109.301 105.685 108.424 105.782 107.559C105.873 106.808 106.002 106.059 106.249 105.342C106.751 103.899 107.81 102.743 108.894 101.7C110.786 99.9589 113.19 98.8534 115.584 97.9641C120.08 96.298 124.874 95.4806 129.665 95.4118C133.347 95.3679 137.026 95.4994 140.695 95.7437C143.01 95.8721 145.332 95.9692 147.639 96.226C154.165 97.034 160.695 97.8544 167.257 98.3555C168.792 98.4808 170.328 98.5716 171.869 98.5465C174.457 98.5935 177.105 98.3305 179.487 97.2406C180.376 96.7772 181.163 96.1508 181.959 95.5464C183.779 94.1246 185.59 92.6872 187.364 91.2059C188.492 90.2445 189.564 89.2111 190.798 88.3812C191.776 87.6672 192.8 87.0283 193.831 86.3988C193.869 86.38 193.91 86.3612 193.947 86.3393C194.254 86.1608 194.552 85.9698 194.85 85.7788C195.031 85.6692 195.21 85.5564 195.392 85.4468C195.479 85.3904 195.567 85.3309 195.652 85.2746C195.859 85.1524 196.069 85.0334 196.285 84.9238C197.811 84.2474 199.349 83.4989 200.831 82.7129C201.176 82.503 201.599 82.4404 201.919 82.1899C202.138 81.9926 202.069 81.5949 201.771 81.5291C201.524 81.4602 201.283 81.5949 201.048 81.6512C200.719 81.7859 200.355 81.9018 200.026 82.0709C199.484 81.7358 198.951 81.3725 198.4 81.0468C198.287 80.8934 198.105 80.7806 197.958 80.6585C197.673 80.4361 197.397 80.2044 197.128 79.9664C194.593 77.5581 192.095 75.1092 189.57 72.6947C185.8 69.1215 182.037 65.5482 178.18 62.0721C174.987 59.1972 171.882 56.1752 168.247 53.8546C166.163 52.4923 164.299 52.1729 161.845 52.3733C159.737 52.4829 157.625 52.4923 155.516 52.6207C153.498 52.7335 151.477 52.7147 149.459 52.7898C148.049 52.8399 146.645 52.9965 145.232 52.9777C142.694 52.9496 140.156 52.9997 137.618 53.0372C135.337 52.984 133.049 52.9151 130.778 52.699C128.813 52.4829 126.87 52.0821 124.953 51.6186C123.753 51.3117 122.543 50.9985 121.431 50.438C120.105 49.7897 118.698 48.7281 118.604 47.1372C118.708 45.3678 120.278 44.1402 121.55 43.0848C123.9 41.1714 126.613 39.7809 129.396 38.6128C133.369 36.8716 137.527 35.6283 141.679 34.3882C147.529 32.766 153.395 31.1782 159.351 29.9913C160.667 29.7596 161.983 29.5059 163.312 29.3556C165.887 28.961 168.498 28.6447 171.102 28.9548C174.464 29.2397 177.713 30.2387 180.74 31.7075C182.645 32.7034 184.531 33.7399 186.449 34.7202C189.889 36.5303 193.352 38.3028 196.789 40.1129C200.587 42.1578 204.266 44.4189 207.878 46.7708C212.137 49.4515 216.003 52.6928 219.904 55.8589C223.464 58.8809 226.698 62.3101 229.417 66.1088C230.871 68.2916 232.31 70.5088 233.453 72.8763C234.186 74.4735 234.801 76.127 235.283 77.8149C235.722 79.4309 236.073 81.0687 236.515 82.6847C237.207 85.1931 237.639 87.7736 238.52 90.2289C241.65 99.6332 245.37 108.906 249.734 117.806C251.05 120.6 252.561 123.299 254.153 125.945C255.384 127.906 256.662 129.838 257.906 131.789C261.939 138.037 266.84 143.661 271.339 149.571C272.865 151.437 274.398 153.301 275.917 155.173C277.384 156.943 279.138 158.449 281.087 159.667C281.319 159.814 281.554 159.99 281.824 160.059C281.915 160.074 281.999 159.993 281.999 159.905C281.999 159.871 281.987 159.836 281.968 159.811C281.824 159.639 281.633 159.514 281.463 159.367C280.924 158.938 280.395 158.493 279.865 158.051C278.637 157.04 277.55 155.868 276.563 154.622C274.407 151.753 272.154 148.963 269.998 146.098C267.097 142.349 264.117 138.66 261.331 134.824C259.36 132.09 257.631 129.193 255.766 126.387C252.683 121.514 250.183 116.306 247.814 111.058C245.721 106.232 243.687 101.374 241.879 96.4358C240.638 92.8469 239.234 89.2894 238.404 85.5752C237.968 83.5647 237.383 81.5949 236.916 79.5937C236.436 77.53 235.816 75.4975 234.992 73.5434C234.215 71.6268 233.156 69.8449 232.065 68.0943C228.543 62.2819 223.724 57.3401 218.394 53.1562C215.743 51.0612 213.139 48.8972 210.329 47.0119C208.151 45.5745 205.954 44.1621 203.727 42.803C197.218 38.7757 190.272 35.5344 183.541 31.9079C181.551 30.7805 179.465 29.7972 177.293 29.0738C175.939 27.9902 174.555 26.9411 173.295 25.7479C170.005 22.6382 166.721 19.5191 163.277 16.5784C160.084 13.7443 156.7 11.1356 153.385 8.44552C151.383 6.82018 149.293 5.30133 147.1 3.94845C146.216 3.38788 145.273 2.86177 144.192 2.89621C142.685 2.74589 141.215 3.3002 140.256 4.48397C139.821 4.96937 139.404 5.4767 139.075 6.04353C138.906 6.37236 138.784 6.7231 138.686 7.08011C137.518 6.3567 136.33 5.6646 135.083 5.08838C133.955 4.54347 132.78 4.01108 131.523 3.87956C129.054 3.59457 126.507 4.10503 124.868 6.1093C123.486 7.54673 123.088 9.19398 122.919 11.1231C122.866 12.5637 123.085 14.0324 123.527 15.4041C123.928 16.6442 124.555 17.7904 125.222 18.9053C126.353 20.7968 127.472 22.6883 128.92 24.3637C130.906 26.606 133.081 28.6729 135.312 30.6709C136.145 31.4225 136.994 32.1616 137.878 32.8568C138.339 33.1982 138.771 33.5834 139.232 33.931C136.089 34.8705 132.974 35.9039 129.941 37.1503C126.889 38.4155 123.853 39.8216 121.249 41.8854C119.651 43.1349 117.871 44.5692 117.492 46.6768C117.32 48.061 118.062 49.392 119.096 50.2689C121.064 51.9662 123.693 52.5049 126.159 53.0748C127.397 53.3285 128.631 53.5915 129.885 53.7481C131.915 54.0081 133.964 54.0676 136.007 54.1458C137.706 54.221 139.404 54.1459 141.105 54.1271C142.788 54.1114 144.468 54.1333 146.15 54.1145C147.679 54.0644 149.202 53.9172 150.734 53.8984C152.712 53.8734 154.689 53.8233 156.666 53.7105C158.02 53.6417 159.373 53.6354 160.73 53.5759C161.836 53.532 162.945 53.4318 164.054 53.5007C165.703 53.626 167.166 54.4621 168.498 55.386C172.587 58.2483 176.112 61.8059 179.831 65.1192C184.785 69.6664 189.629 74.3325 194.47 78.9987C195.244 79.7534 196.006 80.5238 196.833 81.2191C197.087 81.4289 197.344 81.6324 197.601 81.8329C197.66 81.883 197.723 81.9112 197.792 81.9299C198.036 82.1335 198.29 82.3245 198.563 82.4936C198.644 82.5437 198.726 82.6001 198.807 82.6565C198.027 83.0417 197.269 83.4582 196.529 83.9186C195.116 84.6514 193.706 85.3936 192.327 86.1859C191.34 86.8059 190.353 87.4323 189.404 88.1087C188.483 88.7632 187.665 89.543 186.8 90.2664C184.472 92.1423 182.169 94.0557 179.734 95.7938C178.944 96.3481 178.02 96.6331 177.102 96.893C174.733 97.5444 172.273 97.4411 169.811 97.391C164.832 97.1091 159.874 96.5391 154.921 95.9974C151.847 95.6153 148.782 95.1581 145.696 94.9107C142.497 94.6946 139.288 94.5318 136.086 94.3658C132.868 94.2718 129.637 94.1841 126.422 94.4409C122.493 94.7885 118.595 95.6059 114.907 97.0183C111.491 98.2647 108.176 100.159 106.077 103.21C105.102 104.584 104.752 106.282 104.611 107.929C104.04 111.984 106.907 114.966 109.972 117.127C111.949 118.48 114.145 119.504 116.445 120.174C119.485 120.994 122.606 121.461 125.692 122.072C125.705 122.072 125.72 122.078 125.733 122.081C125.78 122.1 125.827 122.109 125.877 122.112C129.791 122.939 133.676 123.897 137.549 124.896C140.833 125.805 144.189 126.5 147.372 127.734C150.75 128.996 153.887 130.828 156.744 133.023C158.891 134.589 160.956 136.264 162.936 138.037C169.798 144.09 176.187 150.764 183.779 155.934C186.411 157.65 189.034 159.388 191.782 160.917C194.63 162.483 197.507 164.005 200.393 165.505C205.676 168.154 211.037 170.625 216.176 173.578C222.242 176.982 227.468 181.639 232.447 186.446C234.891 188.879 237.235 191.413 239.501 194.012C241.738 196.549 243.978 199.186 246.416 201.544C248.149 203.21 249.998 204.747 251.943 206.157C252.946 206.868 253.952 207.578 254.958 208.286C255.08 208.371 255.215 208.415 255.365 208.396L255.353 208.383ZM154.858 11.0918C155.074 11.2609 155.29 11.43 155.507 11.6022C154.98 11.8966 154.472 12.2223 153.927 12.4791C153.899 12.4666 153.871 12.4478 153.84 12.4321C153.68 11.834 153.576 11.2108 153.749 10.6064C153.767 10.4968 153.811 10.3903 153.852 10.2838C154.187 10.5531 154.519 10.8224 154.855 11.0886L154.858 11.0918ZM146.222 4.75955C146.981 5.21364 147.723 5.70218 148.459 6.19385C150.22 7.36509 151.881 8.69605 153.532 10.027C153.504 10.0583 153.479 10.0896 153.457 10.1084C153.163 10.4686 152.943 10.907 152.9 11.3736C152.893 11.4707 152.887 11.6148 152.884 11.7807C152.639 11.5772 152.398 11.3674 152.151 11.1732C151.508 10.6408 150.875 10.1022 150.246 9.55726C149.287 8.70231 148.297 7.87242 147.498 6.85776C146.893 6.09364 146.263 5.34204 145.762 4.50276C145.915 4.58731 146.069 4.675 146.222 4.76268V4.75955ZM140.955 5.40781C141.669 4.51841 142.609 3.97037 143.775 4.02674C144.182 4.04866 144.599 4.0424 144.997 4.14575C145.188 4.95371 145.956 5.99029 146.291 6.54147C146.736 7.17406 147.175 7.81292 147.695 8.38602C148.347 9.07498 149.049 9.71697 149.741 10.3652C150.85 11.3392 151.944 12.3914 153.166 13.2338C153.247 13.3528 153.351 13.4311 153.482 13.4436C153.511 13.4624 153.539 13.4844 153.57 13.5031C154.137 13.8288 154.773 13.2557 155.275 13.0115C155.663 12.7797 156.064 12.5699 156.453 12.3444C159.953 15.116 163.365 17.9971 166.708 20.9565C168.708 22.7572 170.704 24.5642 172.709 26.3555C173.599 27.1259 174.517 27.8775 175.482 28.557C175.128 28.4662 174.771 28.3817 174.414 28.3096C173.013 28.0341 171.597 27.8368 170.171 27.7522C169.519 27.1916 168.836 26.6655 168.093 26.2334C167.11 25.6509 166.179 24.987 165.242 24.3262C160.999 21.3417 156.606 18.5169 152.216 15.7423C148.704 13.5094 145.185 11.2922 141.71 9.00295C141.036 8.58331 140.366 8.15427 139.695 7.72837C139.711 7.65634 139.73 7.58431 139.755 7.51541C139.905 6.69179 140.422 6.03414 140.955 5.41407V5.40781ZM143.402 12.6012C143.12 12.8862 142.898 13.0115 142.625 13.0209C142.437 12.4509 142.183 11.8935 142.133 11.2922C142.114 11.0636 142.108 10.8318 142.111 10.6001C142.772 11.0354 143.44 11.4707 144.104 11.8997C143.828 12.0219 143.612 12.3695 143.399 12.6012H143.402ZM134.19 5.93079C136.803 7.11456 139.172 8.75242 141.6 10.2681C141.456 10.6565 141.365 11.0667 141.35 11.4801C141.337 11.9154 141.441 12.3413 141.563 12.7641C141.014 12.5762 140.479 12.3507 139.937 12.1503C139.388 11.8997 138.909 11.5521 138.357 11.2891C136.932 10.5844 135.688 9.58857 134.466 8.58331C133.281 7.62189 131.981 6.57592 131.58 5.0414C132.492 5.18233 133.36 5.53934 134.19 5.93079ZM138.382 31.8014C136.916 30.6271 135.531 29.3556 134.159 28.0748C131.871 25.8795 129.521 23.6873 127.829 20.9784C126.544 18.8896 125.084 16.8321 124.42 14.4426C124.169 13.3528 123.991 12.2223 124.056 11.1012C124.191 10.1679 124.27 9.20338 124.689 8.3453C125.407 6.98303 126.557 5.7241 128.067 5.27001C129.035 4.93179 130.073 4.92553 131.085 4.98503C131.1 4.98503 131.119 4.98503 131.135 4.98816C131.135 5.00069 131.135 5.01322 131.135 5.02261C130.975 6.80766 132.382 8.13235 133.613 9.2347C134.387 9.91427 135.174 10.5876 136.014 11.1826C137.305 12.0782 141.81 14.6713 143.233 14.0668C143.753 13.857 144.189 13.4781 144.527 13.0397C144.703 12.8643 144.847 12.6106 144.84 12.3695C146.413 13.3748 147.993 14.3675 149.575 15.3571C154.917 18.7236 160.263 22.0808 165.515 25.5851C166.351 26.1457 167.21 26.6718 168.122 27.104C168.495 27.2856 168.855 27.486 169.212 27.699C168.516 27.6833 167.821 27.699 167.122 27.7428C159.442 28.413 151.975 30.4423 144.546 32.4059C143.245 32.7629 141.948 33.1261 140.651 33.5019C139.83 33.0291 139.134 32.3683 138.379 31.7983L138.382 31.8014ZM128.481 115.144C128.873 116.648 129.368 118.132 129.556 119.676C129.625 120.384 129.737 121.091 129.784 121.802C128.609 121.53 127.431 121.273 126.25 121.026C126.222 120.853 126.2 120.681 126.184 120.506C126.162 119.457 126.19 118.42 126.4 117.387C126.548 116.704 126.786 116.049 127.086 115.42C127.306 114.888 127.535 114.361 127.842 113.87C127.911 113.754 127.973 113.635 128.036 113.513C128.202 114.051 128.327 114.603 128.484 115.144H128.481ZM118.423 119.488C116.254 119.04 114.158 118.251 112.218 117.183C110.852 116.416 109.571 115.498 108.44 114.412C107.982 113.983 107.547 113.519 107.161 113.018C107.164 113.018 107.171 113.018 107.174 113.015C107.346 112.962 107.468 112.83 107.594 112.708C109.42 111.515 111.717 111.399 113.838 111.267C116.439 111.086 119.046 111.208 121.628 111.552C123.724 111.787 125.839 112.348 127.864 113.002C127.873 113.027 127.879 113.049 127.889 113.074C127.729 113.231 127.572 113.419 127.516 113.469C127.13 113.892 126.817 114.327 126.538 114.837C126.121 115.539 125.742 116.269 125.539 117.061C125.275 118 125.269 118.912 125.228 119.892C125.228 120.196 125.228 120.509 125.257 120.819C125.172 120.803 125.087 120.784 125.003 120.766C122.803 120.377 120.607 119.958 118.423 119.485V119.488Z" fill="#313144"/>
        <path d="M128.907 24.3566C128.907 24.3566 128.923 24.3723 128.951 24.4099C128.938 24.3942 128.926 24.3786 128.91 24.3629C128.91 24.3598 128.904 24.3566 128.901 24.3535C128.901 24.3535 128.901 24.3566 128.904 24.3598L128.907 24.3566Z" fill="#313144"/>
    </g>
    <defs>
        <clipPath id="clip0_2774_8734">
            <rect width="282" height="211" fill="white"/>
        </clipPath>
    </defs>
</svg>
