<svg width="48" height="48" viewBox="0 0 48 48" fill="none" xmlns="http://www.w3.org/2000/svg">
    <path fill-rule="evenodd" clip-rule="evenodd" d="M10.2001 4.79961C9.86926 4.79961 9.6001 4.53045 9.6001 4.19961C9.6001 3.86874 9.86926 3.59961 10.2001 3.59961C10.5309 3.59961 10.8001 3.86874 10.8001 4.19961C10.8001 4.53045 10.5309 4.79961 10.2001 4.79961Z" fill="#FFF7DB"/>
    <path fill-rule="evenodd" clip-rule="evenodd" d="M12.6 45.5994C12.2692 45.5994 12 45.3303 12 44.9994C12 44.6685 12.2692 44.3994 12.6 44.3994C12.9308 44.3994 13.2 44.6685 13.2 44.9994C13.2 45.3303 12.9308 45.5994 12.6 45.5994Z" fill="#FFF7DB"/>
    <path fill-rule="evenodd" clip-rule="evenodd" d="M37.8002 44.3992C37.4694 44.3992 37.2002 44.1301 37.2002 43.7992C37.2002 43.4684 37.4694 43.1992 37.8002 43.1992C38.131 43.1992 38.4002 43.4684 38.4002 43.7992C38.4002 44.1301 38.131 44.3992 37.8002 44.3992Z" fill="#FFF7DB"/>
    <path fill-rule="evenodd" clip-rule="evenodd" d="M39.0001 5.9998C38.6693 5.9998 38.4001 5.73064 38.4001 5.3998C38.4001 5.06894 38.6693 4.7998 39.0001 4.7998C39.331 4.7998 39.6001 5.06894 39.6001 5.3998C39.6001 5.73064 39.331 5.9998 39.0001 5.9998Z" fill="#FFF7DB"/>
    <path fill-rule="evenodd" clip-rule="evenodd" d="M24.6 47.9998C24.2692 47.9998 24 47.7306 24 47.3998C24 47.0689 24.2692 46.7998 24.6 46.7998C24.9308 46.7998 25.2 47.0689 25.2 47.3998C25.2 47.7306 24.9308 47.9998 24.6 47.9998Z" fill="#FFF7DB"/>
    <path fill-rule="evenodd" clip-rule="evenodd" d="M18 12.0002C18 11.0061 18.8059 10.2002 19.8 10.2002C20.7942 10.2002 21.6 11.0061 21.6 12.0002C21.6 12.9943 20.7942 13.8002 19.8 13.8002C18.8059 13.8002 18 12.9943 18 12.0002ZM20.4 12.0002C20.4 11.6688 20.1314 11.4002 19.8 11.4002C19.4687 11.4002 19.2 11.6688 19.2 12.0002C19.2 12.3316 19.4687 12.6002 19.8 12.6002C20.1314 12.6002 20.4 12.3316 20.4 12.0002Z" fill="#FED980"/>
    <path d="M19.8 12.6002C20.1078 12.6002 20.3614 12.8318 20.396 13.1302L20.4 13.2002V15.6002C20.4 15.9316 20.1314 16.2002 19.8 16.2002C19.4923 16.2002 19.2387 15.9686 19.2041 15.6702L19.2 15.6002V13.2002C19.2 12.8688 19.4687 12.6002 19.8 12.6002Z" fill="#FED980"/>
    <path fill-rule="evenodd" clip-rule="evenodd" d="M31.2001 26.4002C31.2001 25.4061 32.0059 24.6002 33 24.6002C33.9942 24.6002 34.8 25.4061 34.8 26.4002C34.8 27.3943 33.9942 28.2002 33 28.2002C32.0059 28.2002 31.2001 27.3943 31.2001 26.4002ZM33.6 26.4002C33.6 26.0688 33.3314 25.8002 33 25.8002C32.6687 25.8002 32.4 26.0688 32.4 26.4002C32.4 26.7316 32.6687 27.0002 33 27.0002C33.3314 27.0002 33.6 26.7316 33.6 26.4002Z" fill="#FED980"/>
    <path d="M33 27.0002C33.3078 27.0002 33.5614 27.2318 33.596 27.5302L33.6 27.6002V30.0002C33.6 30.3316 33.3314 30.6002 33 30.6002C32.6923 30.6002 32.4387 30.3686 32.4041 30.0702L32.4 30.0002V27.6002C32.4 27.2688 32.6687 27.0002 33 27.0002Z" fill="#FED980"/>
    <path fill-rule="evenodd" clip-rule="evenodd" d="M13.8 30.0002C13.8 29.0061 14.6059 28.2002 15.6 28.2002C16.5942 28.2002 17.4 29.0061 17.4 30.0002C17.4 30.9943 16.5942 31.8002 15.6 31.8002C14.6059 31.8002 13.8 30.9943 13.8 30.0002ZM16.2 30.0002C16.2 29.6688 15.9314 29.4002 15.6 29.4002C15.2687 29.4002 15 29.6688 15 30.0002C15 30.3316 15.2687 30.6002 15.6 30.6002C15.9314 30.6002 16.2 30.3316 16.2 30.0002Z" fill="#FED980"/>
    <path d="M15.6 30.6002C15.9078 30.6002 16.1614 30.8318 16.196 31.1302L16.2 31.2002V33.6002C16.2 33.9316 15.9314 34.2002 15.6 34.2002C15.2923 34.2002 15.0387 33.9686 15.0041 33.6702L15 33.6002V31.2002C15 30.8688 15.2687 30.6002 15.6 30.6002Z" fill="#FED980"/>
    <path d="M15 11.3999C15.3314 11.3999 15.6 11.6685 15.6 11.9999C15.6 12.3076 15.3684 12.5612 15.07 12.5959L15 12.5999H11.4C11.0687 12.5999 10.8 12.3313 10.8 11.9999C10.8 11.6922 11.0317 11.4386 11.3301 11.404L11.4 11.3999H15Z" fill="#0D0C21"/>
    <path d="M42.6001 11.3999C42.9078 11.3999 43.1614 11.6315 43.196 11.9299L43.2001 11.9999V37.1999C43.2001 37.5076 42.9684 37.7612 42.67 37.7959L42.6001 37.7999H18.6C18.2687 37.7999 18 37.5313 18 37.1999C18 36.8922 18.2317 36.6386 18.5301 36.604L18.6 36.5999H42V12.5999H24.6C24.2923 12.5999 24.0387 12.3683 24.0041 12.0699L24 11.9999C24 11.6922 24.2317 11.4386 24.5301 11.404L24.6 11.3999H42.6001Z" fill="#0D0C21"/>
    <path fill-rule="evenodd" clip-rule="evenodd" d="M10.23 10.2803L8.41005 10.25L8.27691 10.2502C6.37661 10.2886 4.83248 11.8249 4.80054 13.7412L4.80005 33.5999L4.80409 33.6699C4.80675 33.6928 4.81071 33.7154 4.8159 33.7375L4.81865 33.7481L4.80853 33.898C4.80288 33.9966 4.80005 34.0972 4.80005 34.1999C4.80005 36.3466 5.97314 37.6035 8.14669 37.7975L13.8 37.7999L13.87 37.7959C14.1684 37.7612 14.4 37.5076 14.4 37.1999C14.4 36.8685 14.1314 36.5999 13.8 36.5999H8.20005L8.0568 36.5848C6.6496 36.4143 6.00005 35.6709 6.00005 34.1999C6.00005 32.69 6.75059 31.9395 8.44988 31.7978L10.2 31.7999L10.3058 31.7969C11.2507 31.7421 12 30.9585 12 29.9999V12.0801L11.9971 11.9755C11.9435 11.0415 11.1772 10.2961 10.23 10.2803ZM6.00545 13.6403C6.0891 12.3994 7.13247 11.4289 8.39005 11.4498L10.21 11.4802L10.2791 11.4853C10.5736 11.5241 10.8 11.776 10.8 12.0801V29.9999L10.796 30.0699C10.7614 30.3683 10.5078 30.5999 10.2 30.5999H8.40005L8.23403 30.6156C7.35859 30.7085 6.64346 30.9541 6.09684 31.3443L6.00005 31.4159L6.00038 13.7612L6.00545 13.6403Z" fill="#0D0C21"/>
    <path fill-rule="evenodd" clip-rule="evenodd" d="M11.4 24.5999H11.6479C11.9793 24.5999 12.2479 24.8685 12.2479 25.1999C12.2479 25.5313 11.9793 25.7999 11.6479 25.7999H11.4C11.0687 25.7999 10.8 25.5313 10.8 25.1999C10.8 24.8685 11.0687 24.5999 11.4 24.5999ZM15.2479 24.5999H13.4479C13.1165 24.5999 12.8479 24.8685 12.8479 25.1999C12.8479 25.5313 13.1165 25.7999 13.4479 25.7999H15.2479C15.5793 25.7999 15.8479 25.5313 15.8479 25.1999C15.8479 24.8685 15.5793 24.5999 15.2479 24.5999ZM19.0916 24.8558L19.2337 25.0589C19.4238 25.3304 19.3577 25.7045 19.0863 25.8945C18.8148 26.0845 18.4407 26.0185 18.2507 25.7471L17.0479 25.7999C16.7165 25.7999 16.4479 25.5313 16.4479 25.1999C16.4479 24.8685 16.7165 24.5999 17.0479 24.5999H18.6C18.7958 24.5999 18.9793 24.6954 19.0916 24.8558ZM21.2982 28.0081L20.266 26.5335C20.0759 26.262 19.7018 26.196 19.4303 26.3861C19.1589 26.5761 19.0929 26.9502 19.2829 27.2217L20.3151 28.6963C20.5051 28.9678 20.8793 29.0338 21.1507 28.8438C21.4222 28.6537 21.4882 28.2796 21.2982 28.0081ZM22.3304 29.4828L23.3627 30.9574C23.5527 31.2288 23.4867 31.603 23.2152 31.793C22.9437 31.983 22.5696 31.917 22.3796 31.6455L21.3474 30.1709C21.1573 29.8994 21.2233 29.5253 21.4948 29.3353C21.7663 29.1453 22.1404 29.2113 22.3304 29.4828ZM25.4271 33.9066L24.3949 32.432C24.2049 32.1605 23.8307 32.0945 23.5593 32.2845C23.2878 32.4746 23.2218 32.8487 23.4118 33.1201L24.444 34.5948C24.6341 34.8662 25.0082 34.9323 25.2797 34.7422C25.5511 34.5522 25.6172 34.1781 25.4271 33.9066ZM27.4916 36.8558L26.4594 35.3812C26.2693 35.1098 25.8952 35.0437 25.6237 35.2338C25.3523 35.4238 25.2862 35.7979 25.4763 36.0694L26.5085 37.544C26.6985 37.8155 27.0727 37.8815 27.3441 37.6915C27.6156 37.5014 27.6816 37.1273 27.4916 36.8558Z" fill="#0D0C21"/>
    <path fill-rule="evenodd" clip-rule="evenodd" d="M24.9522 25.7999C25.2836 25.7999 25.5522 25.5313 25.5522 25.1999C25.5522 24.8685 25.2836 24.5999 24.9522 24.5999H23.4C22.9146 24.5999 22.6301 25.1463 22.9085 25.544L23.0507 25.7471C23.2407 26.0185 23.6148 26.0845 23.8863 25.8945C24.1577 25.7045 24.9522 25.7999 24.9522 25.7999ZM25.066 26.5335L26.0982 28.0081C26.2882 28.2796 26.2222 28.6537 25.9507 28.8438C25.6793 29.0338 25.3051 28.9678 25.1151 28.6963L24.0829 27.2217C23.8929 26.9502 23.9589 26.5761 24.2303 26.3861C24.5018 26.196 24.8759 26.262 25.066 26.5335ZM28.1627 30.9574L27.1304 29.4828C26.9404 29.2113 26.5663 29.1453 26.2948 29.3353C26.0233 29.5253 25.9573 29.8994 26.1474 30.1709L27.1796 31.6455C27.3696 31.917 27.7437 31.983 28.0152 31.793C28.2867 31.603 28.3527 31.2288 28.1627 30.9574ZM29.1949 32.432L30.2271 33.9066C30.4172 34.1781 30.3511 34.5522 30.0797 34.7422C29.8082 34.9323 29.4341 34.8662 29.244 34.5948L28.2118 33.1201C28.0218 32.8487 28.0878 32.4746 28.3593 32.2845C28.6307 32.0945 29.0049 32.1605 29.1949 32.432ZM31.2594 35.3812L32.2916 36.8558C32.4816 37.1273 32.4156 37.5014 32.1441 37.6915C31.8727 37.8815 31.4985 37.8155 31.3085 37.544L30.2763 36.0694C30.0863 35.7979 30.1523 35.4238 30.4237 35.2338C30.6952 35.0437 31.0693 35.1098 31.2594 35.3812ZM28.5522 25.7999H26.7522C26.4208 25.7999 26.1522 25.5313 26.1522 25.1999C26.1522 24.8685 26.4208 24.5999 26.7522 24.5999H28.5522C28.8836 24.5999 29.1522 24.8685 29.1522 25.1999C29.1522 25.5313 28.8836 25.7999 28.5522 25.7999Z" fill="#0D0C21"/>
    <path fill-rule="evenodd" clip-rule="evenodd" d="M39.6001 25.7999H37.8C37.4687 25.7999 37.2001 25.5313 37.2001 25.1999C37.2001 24.8685 37.4687 24.5999 37.8 24.5999H39.6001C39.9314 24.5999 40.2001 24.8685 40.2001 25.1999C40.2001 25.5313 39.9314 25.7999 39.6001 25.7999ZM42.6001 25.7999H41.4001C41.0687 25.7999 40.8 25.5313 40.8 25.1999C40.8 24.8685 41.0687 24.5999 41.4001 24.5999H42.6001C42.9314 24.5999 43.2001 24.8685 43.2001 25.1999C43.2001 25.5313 42.9314 25.7999 42.6001 25.7999Z" fill="#0D0C21"/>
    <path fill-rule="evenodd" clip-rule="evenodd" d="M30 11.9999V13.1999C30 13.5313 29.7314 13.7999 29.4 13.7999C29.0687 13.7999 28.8 13.5313 28.8 13.1999V11.9999C28.8 11.6685 29.0687 11.3999 29.4 11.3999C29.7314 11.3999 30 11.6685 30 11.9999ZM30 16.7999V14.9999C30 14.6685 29.7314 14.3999 29.4 14.3999C29.0687 14.3999 28.8 14.6685 28.8 14.9999V16.7999C28.8 17.1313 29.0687 17.3999 29.4 17.3999C29.7314 17.3999 30 17.1313 30 16.7999ZM30 18.5999V20.3999C30 20.7313 29.7314 20.9999 29.4 20.9999C29.0687 20.9999 28.8 20.7313 28.8 20.3999V18.5999C28.8 18.2685 29.0687 17.9999 29.4 17.9999C29.7314 17.9999 30 18.2685 30 18.5999ZM13.2 20.9999H11.4C11.0687 20.9999 10.8 20.7313 10.8 20.3999C10.8 20.0685 11.0687 19.7999 11.4 19.7999H13.2C13.5314 19.7999 13.8 20.0685 13.8 20.3999C13.8 20.7313 13.5314 20.9999 13.2 20.9999ZM16.8 20.9999H15C14.6687 20.9999 14.4 20.7313 14.4 20.3999C14.4 20.0685 14.6687 19.7999 15 19.7999H16.8C17.1314 19.7999 17.4 20.0685 17.4 20.3999C17.4 20.7313 17.1314 20.9999 16.8 20.9999ZM18.6 20.9999H20.4C20.7314 20.9999 21 20.7313 21 20.3999C21 20.0685 20.7314 19.7999 20.4 19.7999H18.6C18.2687 19.7999 18 20.0685 18 20.3999C18 20.7313 18.2687 20.9999 18.6 20.9999ZM24 20.9999H22.2001C21.8687 20.9999 21.6 20.7313 21.6 20.3999C21.6 20.0685 21.8687 19.7999 22.2001 19.7999H24C24.3314 19.7999 24.6 20.0685 24.6 20.3999C24.6 20.7313 24.3314 20.9999 24 20.9999ZM25.8 20.9999H27.6C27.9314 20.9999 28.2001 20.7313 28.2001 20.3999C28.2001 20.0685 27.9314 19.7999 27.6 19.7999H25.8C25.4687 19.7999 25.2001 20.0685 25.2001 20.3999C25.2001 20.7313 25.4687 20.9999 25.8 20.9999Z" fill="#0D0C21"/>
    <path fill-rule="evenodd" clip-rule="evenodd" d="M27.6 16.1999H25.8C25.4687 16.1999 25.2001 15.9313 25.2001 15.5999C25.2001 15.2685 25.4687 14.9999 25.8 14.9999H27.6C27.9314 14.9999 28.2001 15.2685 28.2001 15.5999C28.2001 15.9313 27.9314 16.1999 27.6 16.1999ZM25.2001 16.1999V17.9999C25.2001 18.3313 24.9314 18.5999 24.6 18.5999C24.2687 18.5999 24 18.3313 24 17.9999V16.1999C24 15.8685 24.2687 15.5999 24.6 15.5999C24.9314 15.5999 25.2001 15.8685 25.2001 16.1999Z" fill="#0D0C21"/>
    <path fill-rule="evenodd" clip-rule="evenodd" d="M43.2001 13.7999C43.2001 14.1313 42.9314 14.3999 42.6001 14.3999C42.2687 14.3999 42 14.1313 42 13.7999V12.5999C42.3314 12.5999 42.6001 12.3313 42.6001 11.9999C42.6001 11.7778 42.4794 11.5839 42.3 11.4802C42.3883 11.4291 42.4908 11.3999 42.6001 11.3999C42.9314 11.3999 43.2001 11.6685 43.2001 11.9999V13.7999ZM42.3 11.4802C42.2118 11.4291 42.1093 11.3999 42 11.3999H40.2001C39.8687 11.3999 39.6001 11.6685 39.6001 11.9999C39.6001 12.3313 39.8687 12.5999 40.2001 12.5999H42V11.9999C42 11.7778 42.1207 11.5839 42.3 11.4802ZM43.2001 17.3999C43.2001 17.7313 42.9314 17.9999 42.6001 17.9999C42.2687 17.9999 42 17.7313 42 17.3999V15.5999C42 15.2685 42.2687 14.9999 42.6001 14.9999C42.9314 14.9999 43.2001 15.2685 43.2001 15.5999V17.3999ZM41.4001 20.3999C41.4001 20.7313 41.6687 20.9999 42 20.9999H42.6001C42.9314 20.9999 43.2001 20.7313 43.2001 20.3999V19.1999C43.2001 18.8685 42.9314 18.5999 42.6001 18.5999C42.2687 18.5999 42 18.8685 42 19.1999V19.7999C41.6687 19.7999 41.4001 20.0685 41.4001 20.3999ZM38.4001 20.9999C38.0687 20.9999 37.8 20.7313 37.8 20.3999C37.8 20.0685 38.0687 19.7999 38.4001 19.7999H40.2001C40.5314 19.7999 40.8 20.0685 40.8 20.3999C40.8 20.7313 40.5314 20.9999 40.2001 20.9999H38.4001ZM35.4 19.1999C35.0687 19.1999 34.8001 19.4685 34.8001 19.7999V20.3999C34.8001 20.7313 35.0687 20.9999 35.4 20.9999H36.6C36.9314 20.9999 37.2001 20.7313 37.2001 20.3999C37.2001 20.0685 36.9314 19.7999 36.6 19.7999H36C36 19.4685 35.7314 19.1999 35.4 19.1999ZM34.8001 16.1999C34.8001 15.8685 35.0687 15.5999 35.4 15.5999C35.7314 15.5999 36 15.8685 36 16.1999V17.9999C36 18.3313 35.7314 18.5999 35.4 18.5999C35.0687 18.5999 34.8001 18.3313 34.8001 17.9999V16.1999ZM35.4 11.9999C35.0687 11.9999 34.8001 12.2685 34.8001 12.5999V14.3999C34.8001 14.7313 35.0687 14.9999 35.4 14.9999C35.7314 14.9999 36 14.7313 36 14.3999V12.5999C36 12.2685 35.7314 11.9999 35.4 11.9999ZM38.4001 11.3999C38.7314 11.3999 39 11.6685 39 11.9999C39 12.3313 38.7314 12.5999 38.4001 12.5999H36.6C36.2687 12.5999 36 12.3313 36 11.9999C36 11.6685 36.2687 11.3999 36.6 11.3999H38.4001Z" fill="#0D0C21"/>
</svg>
