<svg width="282" height="173" viewBox="0 0 282 173" fill="none" xmlns="http://www.w3.org/2000/svg">
    <path d="M122.863 104.756C121.375 105.276 125.934 115.79 126.267 116.962C128.445 124.423 135.46 140.723 136.52 137.615C138.425 133.711 167.965 126.451 167.965 126.451C167.965 126.451 151.162 106.077 144.391 96.9592C137.488 99.6941 128.129 99.2115 122.863 104.756Z" fill="#646370"/>
    <path d="M72.1039 0.96601C75.9103 0.899937 80.57 2.00882 85.4824 3.4768C98.2834 6.34095 109.243 24.1665 96.2754 33.434C91.1963 38.2717 85.4651 37.3036 79.0273 36.393C78.6567 35.2582 80.6475 44.023 78.9152 45.3244C76.6256 47.0739 70.2079 41.7507 66.4848 41.9374C64.606 44.3189 71.1731 47.2951 67.3782 50.0127C65.0139 51.7077 60.4577 51.3888 59.8056 52.785C59.4523 56.2265 59.0041 59.6307 59.0041 59.6307C59.0041 59.6307 54.0744 58.3466 47.1884 57.8439C42.4254 51.8513 39.4664 42.9199 39.1303 34.902C38.2369 14.4536 55.597 1.22456 72.101 0.963135L72.1039 0.96601Z" fill="#313144"/>
    <path d="M102.955 130.657C101.392 130.416 101.932 132.053 103.233 131.846C107.494 135.101 110.191 139.494 110.191 145.245C110.228 150.528 130.714 128.928 134.937 126.899C140.295 120.441 151.068 129.04 145.655 121.95C143.719 121.002 143.199 118.267 142.214 116.181C140.539 115.213 139.034 112.254 136.316 112.757C124.575 117.503 114.604 125.65 102.955 130.657Z" fill="#FFF7DB"/>
    <path d="M59.7683 58.1999C59.9722 61.5668 64.8301 63.9512 66.5968 66.9647C68.0849 68.585 69.0703 71.4319 71.3972 71.0412C73.8333 67.1888 77.9471 63.9512 80.478 60.3603C83.1583 61.4778 83.8076 62.3137 89.3348 63.1526C91.8657 63.7099 84.2184 65.9248 86.1144 71.3199C88.7372 83.4515 87.9558 97.0713 92.6097 108.7C94.1725 114.598 104.313 119.511 105.71 110.504C107.588 101.202 104.853 89.5361 104.239 79.1711C104.015 75.448 108.016 72.8252 109.114 70.277C109.841 62.6671 103.793 62.647 102.044 57.048C101.636 55.5972 97.8008 56.64 99.8117 54.8158C101.803 52.5636 99.2918 47.9672 102.679 47.8379C103.144 47.5765 103.46 46.6859 103.256 46.2004C102.196 43.6695 100.837 41.3081 99.2918 39.0731C98.045 37.3982 100.389 32.6352 98.2691 32.3738C93.8393 37.6769 85.6346 37.0449 79.4381 35.9848C78.9181 36.0021 77.9299 38.4411 79.0273 41.3253C81.1129 46.8152 76.3671 46.255 75.9592 41.8281C75.7351 39.3546 71.7534 36.953 68.7399 38.2371C67.7172 38.6651 67.2145 40.8226 66.4331 41.3081C64.8875 42.2389 69.1507 49.1048 67.9039 49.5127C60.0153 52.0982 59.774 49.9206 59.774 58.2028L59.7683 58.1999Z" fill="#FFF7DB"/>
    <path d="M161.697 133.038C161.547 133.076 161.418 133.113 161.269 133.15C161.958 133.038 162.645 132.946 163.317 132.797C164.081 132.648 164.863 132.593 165.644 132.464C165.943 132.426 166.259 132.352 166.5 132.165C166.667 132.036 166.779 131.832 166.779 131.625C166.779 131.533 166.799 131.421 166.799 131.326C166.537 131.809 166.055 132.108 165.141 132.125C163.952 132.312 162.834 132.74 161.7 133.038H161.697Z" fill="#6F479F"/>
    <path d="M154.923 134.564L154.977 134.547C155.816 134.323 156.839 134.509 157.508 133.932C156.802 134.081 156.075 134.248 155.368 134.435C155.239 134.472 155.09 134.509 154.923 134.564Z" fill="#6F479F"/>
    <path d="M143.722 117.985C144.075 118.617 144.411 119.249 144.727 119.901C144.914 120.309 145.118 120.703 145.268 121.111C145.288 121.165 145.325 121.223 145.359 121.26C145.135 120.757 145.061 120.18 144.782 119.714C144.483 119.12 144.113 118.542 143.722 117.982V117.985Z" fill="#6F479F"/>
    <path d="M145.043 137.316C145.247 137.353 145.509 137.279 145.696 137.261C146.328 137.132 146.98 136.963 147.612 136.816C148.858 136.517 150.085 136.221 151.335 135.96C151.484 135.923 151.596 135.811 151.651 135.681C150.869 135.96 150.068 136.221 149.249 136.408C147.873 136.724 146.44 136.986 145.043 137.319V137.316Z" fill="#6F479F"/>
    <path d="M233.875 119.892C236.386 119.91 240.663 119.456 240.663 119.456L281.523 8.16778L276.294 4.93018C276.294 4.93018 247.831 82.3426 233.875 119.892Z" fill="#646370"/>
    <path d="M166.701 76.6948C179.241 85.0115 222.056 112.55 222.614 113.389C221.812 121.539 217.701 122.619 208.138 123.828C209.571 128.982 219.04 126.655 223.487 124.739C226.745 123.343 227.34 118.356 227.098 115.92C230.373 118.06 233.312 119.456 233.312 119.456L236.326 111.455L168.169 72.2334C168.169 72.2334 166.922 76.2323 166.698 76.7006L166.701 76.6948Z" fill="#313144"/>
    <path d="M168.729 111.174C176.822 120.961 190.554 131.455 199.876 141.355C205.998 140.091 218.017 136.963 220.046 137.02C218.017 134.564 208.787 124.888 208.155 123.808C211.077 122.283 222.091 124.963 222.78 113.259C216.547 108.218 214.22 107.137 213.234 107.453C211.373 108.048 215.133 114.581 198.256 115.583C191.556 110.487 190.163 107.545 187.391 107.712C181.289 108.514 175.055 110.056 168.729 111.174Z" fill="#646370"/>
    <path d="M137.023 136.667C137.04 139.439 136.781 139.738 136.781 139.738L166.477 132.145C166.477 132.145 167.649 128.778 167.35 126.655C160.372 129.054 141.674 132.981 137.023 136.667Z" fill="#646370"/>
    <path d="M168.468 72.1013C184.245 81.7595 236.679 111.323 236.679 111.323L276.108 5.30087L190.367 4.98486L190.18 5.61688C190.18 5.61688 175.426 51.2967 168.468 72.0984V72.1013Z" fill="#FFF7DB"/>
    <path d="M143.573 99.4701C148.93 105.276 159.519 119.918 163.854 124.739C164.765 126.991 160.654 127.12 159.353 127.12C153.567 121.593 141.993 105.127 139.686 101.834C139.462 101.501 139.536 101.053 139.872 100.812C140.691 100.217 142.274 99.2662 143.575 99.473L143.573 99.4701Z" fill="#646370"/>
    <path d="M126.715 104.661C130.102 104.977 136.373 99.2834 137.804 104.158C143.943 110.858 148.689 118.634 153.9 126.04C154.96 126.896 155.202 127.752 154.776 128.255C153.958 129.223 151.128 129.445 150.088 129.763C146.942 131.513 142.851 132.182 139.984 133.857C138.496 134.265 134.495 127.436 134.943 126.879C140.562 119.959 152.395 130.565 144.805 119.714C143.038 116.98 141.306 113.705 138.18 112.366C135.259 112.142 131.872 113.986 129.694 115.138C128.913 113.538 123.443 104.569 126.718 104.664L126.715 104.661Z" fill="#646370"/>
    <path d="M1.138 126.207C-1.28087 155.828 10.8681 167.253 41.9801 165.524C49.274 167.701 56.6226 172.705 65.0139 172.091C73.9626 170.901 82.3568 166.9 89.8346 162.007C97.2033 163.627 103.994 153.783 109.203 149.485C111.214 145.299 108.812 139.419 106.339 135.492C100.013 126.802 88.2144 131.381 80.4752 131.938C76.4734 129.872 86.4275 129.835 86.4476 127.287C88.5878 127.956 91.1561 129.855 93.9082 129.482C113.575 129.074 114.747 109.424 106.692 96.4364C104.609 98.0911 107.195 105.405 106.227 108.904C106.097 118.022 96.3271 117.557 93.2963 110.43C85.2037 99.0046 92.5149 82.7793 82.4688 72.5838C80.2539 68.1914 78.1511 63.7817 78.1511 63.7817C78.1511 63.7817 74.7641 66.5366 70.4118 71.857C66.5968 66.9992 63.1552 62.6469 59.7884 59.3892C57.8722 59.6506 52.029 58.6997 47.1741 57.8638C45.7779 59.1278 44.3271 60.3746 43.4165 63.7616C21.7013 77.0107 3.33854 99.4298 1.14087 126.204L1.138 126.207Z" fill="#FED980"/>
    <path d="M88.8493 37.1197C87.4904 42.7963 93.5204 52.5637 97.5394 43.8937C103.121 32.9168 91.2509 18.4209 88.8493 37.1197Z" fill="#FED980"/>
    <path d="M98.5994 32.1325C99.2688 34.7554 98.8982 43.6495 103.121 43.7615C106.023 39.5012 104.721 27.8521 101.67 28.0216C100.777 28.059 99.7169 29.7884 98.5994 32.1325Z" fill="#FED980"/>
    <path d="M227.954 116.236C227.954 116.253 227.974 116.273 227.992 116.29C227.974 116.273 227.974 116.253 227.954 116.236Z" fill="#0D0C21"/>
    <path d="M167.52 131.901C167.52 131.639 167.296 131.418 167.037 131.418C166.779 131.418 166.555 131.642 166.555 131.901C166.555 132.159 166.779 132.383 167.037 132.383C167.296 132.383 167.52 132.179 167.52 131.901Z" fill="#0D0C21"/>
    <path d="M133.024 128.201L132.986 128.238C132.986 128.221 133.004 128.221 133.024 128.201Z" fill="#0D0C21"/>
    <path d="M122.343 104.42C122.92 102.633 124.167 102.337 125.747 101.76C127.497 101.108 129.246 100.476 131.05 99.9729C132.8 99.4903 134.549 99.0249 136.279 98.4848C137.879 98.0022 139.459 97.3875 141.079 96.9594C144.116 95.9396 145.084 97.2323 145.265 97.4047C145.627 97.7494 145.971 98.1315 146.325 98.4848C147.126 99.3409 159.72 114.839 162.754 118.841C163.63 119.959 164.429 121.131 165.302 122.245C165.88 122.99 167.666 125.52 167.888 126.078C168.278 127.046 167.776 132.338 167.256 132.461C167.218 132.478 163.498 133.446 161.691 133.912C159.663 134.432 157.655 134.972 155.627 135.495C153.507 136.052 151.404 136.592 149.281 137.152C147.066 137.73 144.871 138.304 142.656 138.864C141.177 139.249 137.643 140.298 136.537 140.562C136.319 140.614 136.092 140.525 135.968 140.335C135.512 139.637 131.179 130.732 131.122 130.565C131.085 130.49 131.593 129.821 131.685 129.95C131.777 130.08 135.868 137.635 136.055 137.971C136.092 137.506 136.184 137.06 136.353 136.632C136.408 136.466 136.52 136.316 136.632 136.187C136.408 135.796 132.955 129.396 132.731 128.838C132.992 128.672 133.624 128.244 133.679 128.206C133.771 128.431 137.339 135.164 137.6 135.592C137.692 135.555 137.787 135.5 137.879 135.443C141.246 133.693 144.931 132.539 148.56 131.424C151.815 130.439 166.552 126.4 166.684 126.382C166.741 126.365 166.239 125.322 165.885 124.782C163.225 121.154 160.49 117.546 157.698 114.009C155.874 111.757 154.052 109.508 152.208 107.273C150.849 105.598 149.565 103.868 148.172 102.211C147.408 101.243 146.626 100.275 145.828 99.3266C145.704 99.1628 144.756 98.1918 144.271 97.6977C144.09 97.5139 143.831 97.4305 143.578 97.4736C143.147 97.5454 142.481 97.669 142.087 97.8011C140.283 98.3412 129.49 101.559 126.589 102.676C125.733 103.009 124.839 103.254 124.078 103.774C123.929 103.903 123.837 104.072 123.745 104.239C124.992 108.166 126.853 111.849 128.396 115.644C128.508 115.923 128.637 116.221 128.766 116.5C128.637 116.555 128.525 116.629 128.413 116.704C128.246 116.816 128.097 116.908 127.948 117.037L127.873 117.095C127.445 116.089 127.017 115.066 126.609 114.044C125.42 111.272 124.245 108.479 123.483 105.54C123.446 105.391 123.409 105.224 123.371 105.075C123.13 105.67 122.889 106.284 122.926 106.937C123.075 108.425 123.653 109.821 124.227 111.18C125.026 113.078 125.81 114.975 126.609 116.873C126.738 117.152 125.902 118.137 125.81 117.842C125.511 117.172 125.233 116.503 124.954 115.833C124.173 113.897 123.317 112.001 122.553 110.048C122.162 109.025 121.863 107.965 121.788 106.885C121.676 106.009 122.03 105.21 122.346 104.429L122.343 104.42ZM166.905 126.971C166.627 127.083 156.04 130.154 152.039 131.456C147.255 132.964 142.363 134.228 137.916 136.572C137.729 136.664 137.546 136.759 137.376 136.888C136.985 137.483 137.097 138.321 137.023 139.028V139.14H137.04C138.939 138.637 140.835 138.155 142.754 137.652C144.949 137.075 147.146 136.517 149.358 135.94L155.667 134.302C157.712 133.783 165.937 131.66 166.494 131.51C166.514 131.435 167.072 127.899 166.902 126.971H166.905Z" fill="#0D0C21"/>
    <path d="M42.7443 65.5515C42.7443 65.5142 42.727 65.4768 42.6897 65.4768C42.6523 65.4768 42.6351 65.4969 42.6351 65.5343C42.6351 65.5716 42.6523 65.609 42.6897 65.609C42.727 65.609 42.7443 65.5917 42.7443 65.5544V65.5515Z" fill="#0D0C21"/>
    <path d="M41.8508 66.7983C41.8508 66.761 41.8336 66.7236 41.7963 66.7236C41.7589 66.7236 41.7417 66.7409 41.7417 66.7782C41.7417 66.8156 41.7589 66.8529 41.7963 66.8529C41.8336 66.8529 41.8508 66.8357 41.8508 66.7983Z" fill="#0D0C21"/>
    <path d="M89.148 162.789C89.148 162.751 89.1279 162.734 89.0906 162.734C89.0532 162.734 89.036 162.751 89.036 162.789C89.036 162.826 89.0532 162.843 89.0906 162.843C89.1279 162.843 89.148 162.826 89.148 162.789Z" fill="#0D0C21"/>
    <path d="M235.248 54.5344C235.248 54.5545 235.228 54.5545 235.211 54.5718C235.228 54.5545 235.248 54.5344 235.248 54.5344Z" fill="#0D0C21"/>
    <path d="M125.06 105.109C125.081 104.923 125.58 104.681 125.675 104.664C125.954 104.552 136.224 101.26 136.224 101.26C136.261 101.26 136.316 101.243 136.353 101.222C136.373 101.243 136.373 101.26 136.391 101.26C136.445 101.334 139.367 104.908 139.499 105.037C140.114 105.819 140.746 106.583 141.378 107.364C141.378 107.364 141.768 107.81 141.898 107.959C141.952 108.014 142.01 108.088 142.064 108.146C142.044 108.146 142.027 108.146 142.027 108.163C142.326 108.534 147.181 115.046 147.293 115.196C147.367 115.308 147.459 115.42 147.534 115.529C147.514 115.529 154.699 126.043 154.92 126.824C155.759 128.723 154.621 128.723 154.288 128.87C153.17 129.373 139.588 134.061 139.513 134.081C138.341 134.489 137.543 132.22 137.132 131.608C136.333 130.361 135.42 128.706 134.621 127.459C134.397 127.218 135.552 126.379 135.868 126.491C136.167 126.566 136.276 126.882 136.408 127.143C136.744 127.738 137.097 128.333 137.413 128.93C137.525 128.873 137.617 128.818 137.729 128.764C137.971 128.634 141.432 126.902 141.487 126.865C141.504 126.865 141.504 126.845 141.524 126.845C141.32 126.417 141.116 125.971 140.93 125.543C140.706 125.078 140.335 124.521 140.148 124.018C140.111 123.906 140.576 123.926 140.668 124.018C141.358 124.724 141.915 125.543 142.36 126.419C142.36 126.437 142.38 126.437 142.38 126.457C142.492 126.402 151.033 122.716 151.217 122.662C150.66 121.88 150.12 121.116 149.58 120.335C149.376 120.036 149.172 119.757 148.948 119.462C148.502 119.574 148.054 119.703 147.626 119.832C146.678 120.036 145.727 120.24 144.779 120.464C144.65 120.502 144.48 120.539 144.334 120.539C144.093 120.539 143.868 120.447 143.814 120.148C143.759 119.757 144.15 119.608 144.466 119.554C145.75 119.238 147.014 118.864 148.298 118.531C147.683 117.658 147.069 116.801 146.457 115.925C145.451 116.333 144.466 116.761 143.386 116.948C143.257 116.968 143.107 116.985 142.978 116.985C142.829 116.985 142.662 116.948 142.55 116.836C142.288 116.595 142.421 116.129 142.754 116.054C142.941 116.017 143.124 115.98 143.311 115.942C144.187 115.738 145.006 115.385 145.842 115.049C145.135 114.044 144.409 113.041 143.702 112.035C142.306 112.464 140.203 113.187 138.789 113.486C138.287 112.946 137.003 109.95 136.873 109.763C136.557 109.858 134.4 110.639 133.636 110.918C133.765 111.105 134.882 112.685 134.38 113.096C134.268 113.15 134.176 113.187 134.101 113.187C133.598 113.187 133.32 112.314 133.041 111.961C132.912 111.737 132.762 111.533 132.633 111.309C131.628 111.679 130.622 112.073 129.637 112.481C130.007 113.208 130.343 113.969 130.568 114.75C130.622 114.842 130.197 114.992 130.177 114.9C129.824 114.434 129.525 113.932 129.209 113.429C129.059 113.187 128.893 112.926 128.743 112.665C129.077 113.354 129.395 114.061 129.654 114.767C129.803 115.009 129.671 115.345 129.375 115.382C129.355 115.382 128.947 115.158 128.893 114.954C128.801 114.693 125.003 105.615 125.06 105.112V105.109ZM154.423 128.201C154.423 128.18 154.368 127.681 154.368 127.66C153.363 127.902 151.002 128.907 150.628 129.037C150.645 129.074 150.683 129.465 150.683 129.465C150.683 129.465 153.9 128.405 154.423 128.201ZM144.618 131.717C144.917 131.662 148.545 130.154 150.033 129.709C150.033 129.709 149.921 129.355 149.921 129.263C148.973 129.597 148.022 129.953 147.074 130.249C146.238 130.565 145.42 130.901 144.601 131.254C144.601 131.292 144.601 131.737 144.618 131.72V131.717ZM139.651 133.412C140.823 133.17 143.932 131.978 143.932 131.978L143.877 131.513C143.877 131.513 140.677 132.74 139.766 133.058C139.691 133.15 139.617 133.412 139.654 133.412H139.651ZM137.27 129.95L137.028 130.677C137.028 130.677 138.479 132.966 138.703 133.208C138.758 133.058 138.795 132.837 138.87 132.668C137.939 131.272 137.27 129.95 137.27 129.95ZM141.883 127.586C141.771 127.603 141.679 127.64 141.605 127.698C141.251 127.885 137.864 129.597 137.772 129.634C138.051 130.154 139.223 132.277 139.243 132.314C140.731 131.832 142.165 131.366 143.636 130.789C143.506 130.602 142.128 128.054 141.886 127.589L141.883 127.586ZM147.672 125C147.56 125.018 143.765 126.655 143.205 126.916C143.055 126.991 142.906 127.066 142.76 127.14C143.225 127.942 144.268 130.191 144.397 130.47C146.147 129.763 147.913 129.074 149.7 128.442C148.973 127.232 148.341 126.227 147.672 125ZM148.399 124.684C149.235 125.764 150.39 128.163 150.407 128.201C151.616 127.79 152.843 127.399 154.093 127.046C153.403 125.819 152.622 124.644 151.823 123.492C151.636 123.55 148.586 124.627 148.399 124.684ZM131.765 103.604C131.599 103.659 131.412 103.716 131.246 103.753C130.576 103.977 129.907 104.181 129.235 104.385C129.105 104.423 128.973 104.46 128.844 104.497C128.898 104.572 128.973 104.627 129.031 104.701C129.513 105.167 129.941 105.707 130.332 106.247C130.407 106.21 130.481 106.189 130.573 106.155C131.467 105.839 132.377 105.598 133.271 105.353C132.788 104.759 132.303 104.164 131.763 103.604H131.765ZM136.658 103.213C136.434 102.897 136.155 102.636 135.914 102.337C135.04 102.616 134.164 102.894 133.291 103.156C133.124 103.213 132.958 103.248 132.788 103.305C133.104 103.713 133.458 104.087 133.811 104.477C133.978 104.664 134.144 104.848 134.314 105.035C135.336 104.698 136.359 104.365 137.402 104.066C137.161 103.788 136.919 103.489 136.658 103.21V103.213ZM139.059 112.087C139.114 112.216 139.189 112.329 139.263 112.458C139.467 112.403 139.671 112.346 139.841 112.271C140.921 111.9 141.998 111.527 143.078 111.191C142.389 110.26 141.665 109.367 140.938 108.473C139.841 108.827 138.723 109.18 137.626 109.533C138.129 110.389 138.594 111.225 139.059 112.081V112.087ZM137.049 108.72C138.129 108.387 139.206 108.068 140.269 107.735C139.786 107.12 139.321 106.543 138.855 105.948C138.557 105.557 138.261 105.167 137.962 104.796C136.939 105.075 135.934 105.391 134.928 105.781C135.19 106.097 135.468 106.413 135.727 106.75C136.192 107.382 136.62 108.051 137.049 108.72ZM133.067 110.154C133.662 109.913 134.276 109.671 134.871 109.427C135.316 109.26 135.764 109.111 136.21 108.962C135.503 108.068 134.796 107.175 134.052 106.319C133.998 106.264 133.94 106.189 133.903 106.132C132.917 106.448 131.892 106.709 130.907 107.063C131.093 107.341 131.277 107.64 131.447 107.919C132.004 108.646 132.544 109.39 133.067 110.151V110.154ZM127.522 108.74C128.08 109.709 128.674 110.657 129.16 111.679C129.197 111.734 129.235 111.809 129.252 111.883C130.183 111.326 131.131 110.898 132.099 110.507C132.061 110.453 132.044 110.415 132.007 110.358C131.708 109.78 131.355 109.26 130.964 108.738C130.648 108.292 130.349 107.827 130.071 107.362C129.214 107.735 128.396 108.163 127.522 108.516C127.485 108.516 127.465 108.534 127.43 108.534C127.468 108.608 127.485 108.663 127.522 108.738V108.74ZM127.04 107.698C127.051 107.698 127.064 107.691 127.077 107.678C127.933 107.344 128.752 106.913 129.588 106.543C129.533 106.451 129.459 106.356 129.401 106.264C129.123 105.819 128.786 105.353 128.47 104.868C128.433 104.793 128.378 104.719 128.341 104.644C128.042 104.719 127.764 104.793 127.465 104.885C127.166 104.977 126.87 105.072 126.572 105.164C126.347 105.239 126.126 105.313 125.902 105.368H125.882C126.218 106.169 126.626 106.931 127.037 107.695L127.04 107.698Z" fill="#0D0C21"/>
    <path d="M139.238 101.76L139.645 100.214L139.7 100.234V100.214C141.059 99.9155 142.418 99.2088 143.811 99.1916C144.518 98.9503 145.673 101.274 146.247 101.76C148.275 104.403 150.321 107.026 152.386 109.631C156.313 114.84 160.686 119.752 164.202 125.259C164.389 127.029 161.206 127.399 159.884 127.454C158.339 127.399 157.336 125.816 156.497 124.699C150.617 117.181 144.515 109.646 139.229 101.757L139.238 101.76ZM145.265 107.974C145.247 107.956 145.247 107.936 145.227 107.936L145.098 108.606C145.825 109.536 146.532 110.484 147.255 111.415L147.405 110.708C146.698 109.798 145.971 108.884 145.265 107.974ZM147.945 111.415L147.796 112.142C148.522 113.09 149.246 114.021 149.973 114.972L150.122 114.208C149.416 113.277 148.689 112.346 147.945 111.415ZM150.53 115.696C151.366 116.793 152.205 117.911 153.061 119.008L153.211 118.244C152.375 117.129 151.536 116.029 150.68 114.931L150.53 115.696ZM153.601 119.732C154.42 120.812 155.259 121.852 156.058 122.932L156.207 122.205C155.388 121.125 154.57 120.048 153.751 118.968L153.601 119.732ZM157.138 123.36C157.008 123.211 156.896 123.061 156.767 122.915L156.618 123.659C157.399 124.719 158.218 125.575 158.999 126.635C159.074 126.468 159.186 126.302 159.315 126.152C158.813 125 157.865 124.348 157.138 123.36ZM144.561 107.879L144.71 107.172C144.003 106.373 143.371 105.497 142.702 104.641L142.59 105.236C143.055 105.888 144.377 107.655 144.564 107.879H144.561ZM140.131 101.18L140.019 101.794C140.746 102.633 141.358 103.598 142.03 104.492L142.142 103.914C141.602 103.225 140.28 101.383 140.134 101.18H140.131ZM144.67 101.142C144.337 100.66 143.889 100.211 143.59 99.7087C142.734 100.117 141.786 100.341 140.91 100.677C141.504 101.496 142.194 102.314 142.808 103.133C143.868 103.078 144.911 102.834 145.971 102.797C145.526 102.24 145.098 101.7 144.67 101.142ZM147.758 105.086C147.313 104.529 146.865 103.969 146.437 103.394C145.394 103.449 144.371 103.748 143.331 103.822C144.001 104.696 144.69 105.572 145.359 106.465C146.382 106.279 147.408 105.945 148.448 105.963C148.224 105.664 148.002 105.385 147.758 105.089V105.086ZM149.824 107.747C149.47 107.281 149.097 106.816 148.744 106.371C147.758 106.557 146.845 106.891 145.879 107.169C146.623 108.137 147.35 109.105 148.074 110.071C149.08 109.829 150.082 109.588 151.125 109.439C150.697 108.861 150.269 108.304 149.824 107.747ZM151.852 110.352C151.723 110.203 151.611 110.036 151.481 109.887C150.513 110.148 149.582 110.482 148.617 110.78C149.361 111.748 150.088 112.717 150.832 113.682C151.855 113.458 152.84 113.05 153.9 113.03C153.211 112.119 152.541 111.226 151.855 110.349L151.852 110.352ZM155.908 115.581C155.368 114.891 154.828 114.222 154.308 113.535C153.323 113.777 152.392 114.15 151.424 114.429C152.222 115.472 153.044 116.511 153.843 117.554C154.94 117.293 156.058 117.034 157.172 117.221C156.764 116.681 156.333 116.124 155.908 115.584V115.581ZM157.954 118.224C157.842 118.074 157.73 117.925 157.62 117.778C156.466 117.928 155.592 118.057 154.512 118.373C155.314 119.378 156.112 120.384 156.894 121.407C158.008 121.165 159.163 121.295 160.298 121.183C159.496 120.214 158.715 119.212 157.954 118.224ZM163.033 124.458C162.251 123.601 161.487 122.725 160.78 121.815C159.7 122.076 158.623 122.113 157.543 122.28C158.287 123.377 159.163 124.42 159.738 125.61C160.91 125.385 162.343 124.995 163.495 124.94C163.329 124.791 163.179 124.624 163.03 124.458H163.033ZM160.464 126.69C161.487 126.652 162.567 126.54 163.478 126.075C163.627 125.851 163.794 125.63 163.943 125.385C162.938 125.684 160.818 126.055 159.795 126.242C159.778 126.408 159.74 126.54 159.74 126.744C159.965 126.764 160.223 126.707 160.467 126.69H160.464Z" fill="#0D0C21"/>
    <path d="M190.295 4.91023C190.258 4.98493 190.333 4.83554 190.295 4.91023V4.91023Z" fill="#0D0C21"/>
    <path d="M166.049 76.7696C166.086 76.6777 166.107 76.5829 166.141 76.491C166.308 75.9882 166.477 75.4683 166.661 74.9655C167.517 72.4346 168.353 69.9037 169.209 67.3556C170.123 64.6379 171.033 61.9232 171.944 59.1883C172.855 56.4534 173.768 53.7358 174.699 51.0009C175.592 48.358 176.466 45.7179 177.359 43.075C178.232 40.4895 179.089 37.9011 179.965 35.3156C180.896 32.5434 181.826 29.7884 182.737 27.0162C183.593 24.4853 184.429 21.9544 185.285 19.4235C186.158 16.8007 187.052 14.1749 187.928 11.5521C188.356 10.2881 188.784 9.04131 189.229 7.77442C189.471 7.08496 189.712 6.39837 189.973 5.72902C190.086 5.45036 190.198 5.1717 190.307 4.91028V4.89304C190.344 4.80111 190.399 4.72642 190.473 4.66896H190.491L190.511 4.65173C190.548 4.63449 190.603 4.61438 190.64 4.61438C190.677 4.59714 190.695 4.59714 190.732 4.57703C190.786 4.5598 190.861 4.53969 190.919 4.53969C191.123 4.50234 191.327 4.50234 191.533 4.50234C192.128 4.465 192.726 4.44776 193.32 4.44776C196.483 4.39318 199.629 4.41041 202.792 4.43052C206.159 4.44776 209.508 4.44776 212.875 4.46787C216.317 4.48511 219.758 4.48511 223.203 4.50521C226.458 4.52245 229.698 4.52245 232.953 4.54256C236.32 4.5598 239.69 4.5598 243.036 4.57991C246.349 4.59715 249.641 4.59714 252.936 4.61725C256.211 4.63449 259.469 4.63449 262.741 4.6546C265.7 4.67184 268.659 4.67184 271.617 4.69195C273.106 4.69195 274.614 4.70918 276.119 4.70918C276.211 4.70918 276.286 4.72642 276.36 4.76377C276.527 4.74653 276.714 4.80111 276.843 4.83846C278.219 5.32108 279.428 6.17717 280.638 6.95856C281.029 7.25733 281.755 7.47853 281.755 8.07606C281.755 8.11341 281.738 8.16799 281.718 8.20534V8.24268C281.738 8.40931 281.701 8.5788 281.664 8.72531C281.589 8.96662 281.514 9.20793 281.439 9.45212C281.235 10.1042 280.994 10.7535 280.77 11.4056C280.305 12.7817 279.785 14.1979 279.282 15.6286C278.018 19.1448 276.734 22.6439 275.45 26.14C273.999 30.1217 272.528 34.1033 271.077 38.1051C269.627 42.104 268.156 46.0684 266.705 50.0701C265.18 54.2558 263.634 58.4443 262.109 62.6471C260.563 66.8902 259.003 71.1131 257.458 75.3562C255.97 79.4126 254.481 83.4861 252.993 87.5425C251.522 91.5787 250.034 95.5977 248.564 99.6368C247.113 103.601 245.659 107.546 244.208 111.507C243.203 114.242 242.218 116.96 241.212 119.694C241.212 119.732 241.014 120.14 240.431 120.177C239.807 120.258 235.087 120.459 233.76 120.516C233.533 120.525 233.315 120.464 233.122 120.344C232.192 119.743 229.293 117.873 228.408 117.313C228.204 117.184 228 117.052 227.814 116.922C227.647 117.425 227.535 117.928 227.385 118.41C227.069 119.807 226.228 123.145 226.084 123.555C225.969 123.889 225.725 124.162 225.412 124.314C224.717 124.653 223.467 125.242 222.867 125.385C219.293 126.595 215.498 127.08 211.758 127.359C213.246 128.793 214.696 130.243 216.187 131.694C217.061 132.53 217.882 133.386 218.718 134.262C219.276 134.84 219.89 135.377 220.393 136.012C220.692 136.29 220.801 136.776 220.413 137.034C220.318 137.089 220.227 137.126 220.135 137.126C219.985 137.201 219.781 137.256 219.669 137.293C218.48 137.572 202.048 141.22 199.853 141.74C199.816 141.74 199.778 141.76 199.724 141.76C199.52 141.76 199.333 141.631 199.241 141.461C199.129 141.369 199.037 141.257 198.925 141.163C197.957 140.232 196.989 139.321 196.024 138.39C195.018 137.442 194.033 136.492 193.027 135.526C192.022 134.558 190.999 133.59 189.994 132.625C188.951 131.639 187.928 130.634 186.888 129.649C185.865 128.68 184.84 127.695 183.837 126.727C182.815 125.742 181.792 124.774 180.766 123.788C179.723 122.783 178.684 121.797 177.641 120.792C176.618 119.807 175.595 118.838 174.59 117.853C173.584 116.885 172.582 115.9 171.594 114.931C170.588 113.946 169.585 112.958 168.635 111.935C168.523 111.823 168.41 111.694 168.281 111.544C168.169 111.415 167.382 110.484 168.577 110.355C169.267 110.226 169.936 110.114 170.625 109.982C171.815 109.758 173.007 109.554 174.216 109.33C175.426 109.105 176.652 108.884 177.865 108.66C179.074 108.436 180.266 108.232 181.476 108.008C182.702 107.784 183.932 107.563 185.179 107.339C185.811 107.227 186.443 107.115 187.095 107.005C187.374 106.948 187.672 106.911 187.951 106.856C188.1 106.839 188.23 106.819 188.379 106.781C188.454 106.781 188.528 106.761 188.603 106.761C188.678 106.761 188.753 106.761 188.807 106.799C188.919 106.836 191.318 109.255 192.381 110.148C193.237 110.818 194.073 111.599 194.966 112.343C195.756 113.012 196.995 114.041 197.779 114.84C197.917 114.98 198.112 115.049 198.307 115.029C199.376 114.917 202.68 114.348 204.214 114.222C206.047 113.906 206.259 113.777 207.265 113.553C208.141 113.311 208.997 112.863 209.701 112.306C210.428 111.728 210.979 110.956 211.433 110.166C212.26 108.721 212.361 106.977 212.361 106.977C212.361 106.977 207.618 103.952 205.366 102.501C203.059 101.013 200.752 99.5248 198.445 98.0338C196.156 96.563 193.849 95.095 191.562 93.604C189.293 92.1332 187.023 90.6824 184.751 89.2116C182.519 87.7781 180.284 86.3446 178.051 84.8938C175.819 83.4603 173.584 82.0297 171.352 80.576C170.384 79.944 166.917 77.8354 166.311 77.4677C166.112 77.347 165.957 77.0397 166.049 76.761V76.7696ZM274.936 5.80371L268.498 5.78647C265.335 5.76923 262.152 5.76923 258.989 5.74912C255.676 5.73189 252.384 5.73188 249.072 5.71178C245.76 5.69454 242.447 5.69454 239.155 5.67443C235.826 5.6572 232.493 5.65719 229.146 5.63708C225.872 5.61985 222.597 5.61985 219.304 5.59974C215.863 5.5825 212.401 5.56239 208.96 5.56239C205.685 5.54516 202.41 5.54516 199.135 5.50781C197.552 5.49057 195.992 5.49057 194.409 5.45323C193.682 5.43599 192.958 5.43599 192.252 5.39864C191.918 5.38141 191.562 5.3613 191.229 5.34406C191.174 5.34406 191.1 5.32683 191.025 5.32683C190.97 5.51356 190.933 5.70029 190.876 5.88414C190.709 6.49891 190.522 7.09358 190.335 7.68824C189.534 10.2565 188.661 12.8046 187.805 15.3556C186.911 17.9785 186.055 20.6214 185.162 23.2443C184.288 25.8671 183.412 28.4727 182.539 31.0955C181.628 33.8132 180.715 36.5279 179.804 39.2456C178.948 41.8138 178.092 44.3821 177.218 46.9474C176.325 49.6277 175.432 52.3052 174.521 54.9682L171.691 63.417C170.798 66.06 169.924 68.7201 169.031 71.3631C168.956 71.567 168.902 71.7538 168.827 71.9577C168.902 71.9577 168.956 71.975 169.014 71.9951H169.031C169.051 71.9951 169.068 72.0123 169.086 72.0324C169.106 72.0525 169.123 72.0525 169.143 72.0698C169.255 72.1244 169.367 72.1818 169.459 72.2565L169.962 72.5352C170.352 72.7592 170.743 72.9804 171.134 73.2045C173.645 74.6553 176.158 76.1089 178.689 77.5596C181.2 79.0104 183.694 80.4439 186.207 81.8946C188.718 83.3454 191.232 84.7789 193.743 86.2296C196.291 87.7005 198.822 89.1685 201.373 90.6221C203.866 92.0556 206.377 93.5063 208.871 94.9399C211.327 96.3533 213.783 97.7695 216.239 99.1829C218.675 100.579 221.114 101.993 223.55 103.406C225.932 104.782 228.296 106.161 230.678 107.537C231.85 108.226 233.022 108.913 234.194 109.602C234.771 109.936 235.329 110.292 235.889 110.625C236.076 110.737 236.242 110.849 236.429 110.979C237.564 107.908 238.698 104.857 239.833 101.786C241.229 97.9907 242.643 94.1929 244.039 90.398C245.51 86.4164 246.978 82.4347 248.469 78.433C249.902 74.5806 251.316 70.711 252.749 66.8586C254.332 62.5782 255.912 58.3179 257.495 54.0374C259.04 49.8518 260.603 45.6633 262.146 41.4605C262.945 39.303 263.746 37.1427 264.545 34.9853C265.363 32.7531 266.182 30.5382 267.018 28.3061C268.581 24.0831 270.144 19.8774 271.727 15.6544C272.416 13.8302 273.103 11.9888 273.829 10.1646C274.203 9.19644 274.594 8.22832 274.984 7.28031C275.188 6.77757 275.392 6.27484 275.616 5.79222C275.392 5.82956 275.171 5.82956 274.947 5.80945L274.936 5.80371ZM239.928 119.22C240.115 119.212 240.278 119.091 240.345 118.916C240.902 117.399 241.445 115.894 242.002 114.374C243.398 110.559 244.794 106.764 246.188 102.969C247.638 99.0249 249.072 95.0806 250.523 91.1363C252.011 87.0426 253.519 82.9489 255.024 78.8553C256.607 74.5576 258.17 70.2398 259.75 65.9422C261.258 61.8111 262.784 57.6801 264.289 53.5318C265.777 49.4956 267.248 45.4565 268.736 41.4001C270.207 37.361 271.695 33.342 273.166 29.3058C274.487 25.6775 275.826 22.0492 277.165 18.4381C277.797 16.7087 278.449 14.9764 279.101 13.247C279.472 12.2617 279.845 11.2936 280.219 10.3082C280.405 9.80547 280.609 9.32284 280.813 8.82011C280.868 8.67073 280.925 8.54145 281 8.40931C280.776 8.29727 280.592 8.0933 280.385 7.98126C279.641 7.49864 278.877 7.05049 278.133 6.5851C277.854 6.36102 277.09 5.97033 276.587 5.57963C276.513 5.67156 276.401 5.74625 276.289 5.78359C276.251 5.87552 276.234 5.98756 276.197 6.08236C276.047 6.56499 275.881 7.06772 275.731 7.55322C275.415 8.50123 275.079 9.45212 274.763 10.4001C274.186 12.0548 273.574 13.767 272.959 15.4792C272.29 17.3407 271.6 19.2195 270.914 21.0811C270.132 23.1839 269.351 25.304 268.587 27.4069C267.768 29.639 266.929 31.8712 266.113 34.1234C264.513 38.4584 262.913 42.7934 261.313 47.1284C259.767 51.3342 258.205 55.5198 256.662 59.7255C255.154 63.7819 253.666 67.8382 252.16 71.8945C250.689 75.8388 249.239 79.8033 247.768 83.7648C246.334 87.6545 244.901 91.5241 243.47 95.4139C242.037 99.3036 240.586 103.19 239.152 107.08C238.167 109.74 237.182 112.401 236.193 115.081C235.691 116.42 234.952 118.229 234.45 119.568C234.682 119.568 238.716 119.272 239.922 119.22H239.928ZM221.292 124.794C222.074 124.515 224.145 123.82 224.926 123.487C225.297 123.374 225.515 121.984 225.59 121.763C225.757 121.131 225.889 120.499 226.035 119.884C226.297 118.695 226.575 117.503 226.966 116.33C226.501 116.032 226.055 115.753 225.59 115.454C224.789 114.952 224.007 114.432 223.226 113.909C223.151 114.486 223.076 115.064 222.964 115.621C222.703 116.96 222.163 118.226 221.514 119.436C220.807 120.757 219.839 122.096 218.331 122.487C216.934 122.952 215.484 123.102 214.05 123.397C213.085 123.584 210.028 123.949 208.899 124.067C208.787 124.078 208.741 124.21 208.819 124.291C209.365 124.854 210.244 125.813 210.557 126.158C210.626 126.233 210.723 126.27 210.824 126.262C211.907 126.155 218.187 125.575 221.289 124.791L221.292 124.794ZM213.162 108.29C212.976 109.108 212.795 109.944 212.456 110.708C211.858 112.047 210.801 113.165 209.497 113.871C208.827 114.207 208.158 114.578 207.414 114.69C206.633 114.894 205.851 115.156 205.05 115.268C203.113 115.434 199.488 115.902 198.198 116.069C197.902 116.106 197.609 116.003 197.402 115.79C196.966 115.334 192.527 111.659 190.907 110.301C190.284 109.737 189.02 108.479 188.491 108.051C188.37 107.953 188.215 107.913 188.063 107.945C187.589 108.043 186.868 108.189 186.497 108.252C185.251 108.476 184.004 108.718 182.757 108.942C181.548 109.166 180.321 109.387 179.109 109.611C177.899 109.835 176.71 110.039 175.5 110.263C174.291 110.487 173.082 110.708 171.872 110.915C171.025 111.073 170.177 111.234 169.33 111.375C169.275 111.384 169.258 111.453 169.301 111.487C169.471 111.625 169.634 111.766 169.789 111.921C170.832 112.852 171.855 113.782 172.878 114.73C173.9 115.678 174.926 116.646 175.949 117.615C176.991 118.6 178.051 119.605 179.094 120.591C180.1 121.559 181.122 122.507 182.128 123.475C183.151 124.46 184.193 125.449 185.236 126.434C186.279 127.419 187.302 128.408 188.345 129.393C189.367 130.378 190.39 131.346 191.416 132.332C192.438 133.3 193.444 134.268 194.466 135.233C195.452 136.181 196.457 137.132 197.443 138.08C198.316 138.919 199.209 139.755 200.086 140.591H200.097C200.709 140.465 201.301 140.263 201.91 140.108C204.286 139.442 217.161 136.914 219.227 136.509C219.342 136.486 219.382 136.342 219.296 136.265C219.009 136.006 218.5 135.544 218.193 135.233C216.406 133.354 214.527 131.55 212.686 129.706C211.347 128.255 209.821 126.988 208.517 125.5C208.293 125.164 206.736 123.929 207.296 123.42C207.627 123.119 212.964 122.504 214.38 122.188C215.645 121.947 216.929 121.797 218.158 121.369C220 120.829 221.172 117.89 221.844 116.198C222.011 115.696 222.143 115.193 222.252 114.673C222.327 114.411 222.418 113.817 222.605 113.446C222.531 113.392 222.456 113.334 222.364 113.297C221.229 112.553 220.094 111.809 218.96 111.082C217.862 110.375 216.765 109.669 215.667 108.962C214.886 108.459 214.085 107.956 213.303 107.454V107.491C213.266 107.752 213.211 108.031 213.174 108.292L213.162 108.29ZM233.332 119.341C233.461 118.988 235.343 113.926 236.162 111.731C236.087 111.694 236.033 111.677 235.958 111.639C235.625 111.473 168.566 72.9747 168.546 72.9546C168.525 72.9546 168.525 72.9374 168.508 72.9374C168.1 74.1468 167.62 75.4568 167.213 76.6834C167.417 76.7754 233.186 119.229 233.335 119.341H233.332Z" fill="#0D0C21"/>
    <path d="M174.145 68.8808C187.802 77.2549 233.203 102.837 233.203 102.837L267.346 11.0492L193.105 10.7705L192.955 11.3106C192.955 11.3278 180.172 50.8686 174.145 68.8808Z" fill="white"/>
    <path d="M233.2 103.397C233.257 103.397 233.329 103.377 233.387 103.36C233.536 103.305 233.665 103.193 233.72 103.024L267.863 11.236C267.917 11.0694 267.9 10.8826 267.805 10.716C267.713 10.5494 267.527 10.4747 267.34 10.4747L193.099 10.196C192.858 10.196 192.634 10.3627 192.559 10.6069L192.41 11.1469C192.243 11.687 179.571 50.8916 173.599 68.697C173.524 68.9383 173.616 69.217 173.84 69.3492C187.348 77.6486 232.47 103.064 232.916 103.325C233.007 103.38 233.102 103.4 233.194 103.4L233.2 103.397ZM266.544 11.6094L232.904 102.038C227.658 99.0794 187.894 76.6201 174.814 68.6396C177.96 59.2428 182.797 44.3963 186.351 33.5286C192.323 15.2004 193.329 12.0576 193.495 11.4601H193.513L193.55 11.3308L266.544 11.6094Z" fill="#0D0C21"/>
    <path d="M240.385 28.0029C238.006 27.8276 236.236 25.5667 236.429 22.9525C236.621 20.3383 238.707 18.3618 241.083 18.54C243.461 18.7152 245.231 20.9761 245.039 23.5903C244.846 26.2045 242.76 28.181 240.385 28.0029Z" fill="#FED980"/>
    <path d="M223.111 26.3278C220.927 26.167 219.302 24.0928 219.48 21.6941C219.658 19.2953 221.571 17.4826 223.754 17.6435C225.938 17.8044 227.564 19.8785 227.385 22.2772C227.207 24.676 225.294 26.4887 223.111 26.3278Z" fill="#0D0C21"/>
    <path d="M205.854 24.3944C203.998 24.2566 202.617 22.4927 202.769 20.453C202.918 18.4133 204.544 16.8707 206.4 17.0086C208.256 17.1465 209.638 18.9103 209.485 20.95C209.336 22.9897 207.71 24.5323 205.854 24.3944Z" fill="#0D0C21"/>
    <path d="M228.164 22.6753L228.132 23.0918L235.556 23.6607L235.584 23.2441L228.164 22.6753Z" fill="#272771"/>
    <path d="M210.278 21.8165L218.842 22.4916L218.876 22.0751L210.31 21.4028L210.278 21.8165Z" fill="#272771"/>
    <path d="M198.778 38.1251C200.175 33.9768 201.215 30.9231 201.215 30.9231L238.799 35.1834L235.673 43.5949L198.776 38.1251H198.778Z" fill="#A7A6B5"/>
    <path d="M195.3 48.8606C196.696 44.7123 197.644 42.0693 197.644 42.0693L234.783 47.5017L231.1 57.2146L195.3 48.8606Z" fill="#A7A6B5"/>
    <path d="M192.079 58.7976C193.475 54.6494 194.145 52.7131 194.145 52.7131L230.037 61.1045L226.725 70.688L192.079 58.7976Z" fill="#A7A6B5"/>
    <path d="M188.304 67.6844C189.701 63.5361 190.37 61.5999 190.37 61.5999L224.811 73.9355L221.686 83.8896L188.307 67.6844H188.304Z" fill="#FED980"/>
    <path d="M91.9576 39.5758C92.0323 39.5758 92.0869 39.5586 92.1616 39.5385C92.9631 39.0357 93.8191 38.6278 94.7298 38.3491C94.7298 38.3865 94.7298 38.4411 94.7471 38.4784C94.8763 38.9237 95.3417 39.2426 95.8071 39.2426C95.9191 39.2426 96.0484 39.2052 96.1605 39.1679C96.5512 38.9812 97.0165 38.6479 96.9792 38.1624C96.9792 38.1251 96.9792 38.0705 96.9591 38.013C97.2004 38.013 97.4417 38.013 97.6485 38.0303C98.1312 38.1222 98.4845 37.789 98.0565 37.3782C97.5739 36.9702 96.9217 36.9702 96.307 36.9702H96.0829C94.5 37.0823 92.9746 37.697 91.6359 38.5531C91.1705 38.8864 91.4692 39.5758 91.9519 39.5758H91.9576Z" fill="#0D0C21"/>
    <path d="M147.554 124.236C147.442 123.883 147.33 123.53 147.164 123.193C146.939 122.711 146.623 122.3 146.27 121.947C146.029 121.165 145.302 120.309 144.707 119.62C144.745 119.545 144.745 119.453 144.707 119.358C144.615 119.172 144.521 119.005 144.446 118.818C144.354 118.614 144.279 118.427 144.184 118.224C144.093 118.02 143.98 117.833 143.868 117.646C143.756 117.459 143.664 117.293 143.552 117.126C143.05 116.382 142.492 115.675 141.898 115.023C141.32 114.408 140.726 113.814 140.094 113.257C139.778 112.978 139.442 112.699 139.088 112.438C138.959 112.346 138.827 112.251 138.68 112.176C138.623 112.139 138.568 112.102 138.514 112.084C138.347 112.01 138.198 111.993 138.031 111.972C137.827 111.955 134.664 112.679 133.808 112.978C129.918 114.262 126.643 116.793 123.147 118.821C119.723 120.941 116.169 122.84 112.67 124.831C109.915 126.356 107.051 127.695 104.204 129.054C103.107 129.631 101.952 130.134 100.837 130.691C100.335 130.579 99.8318 130.487 99.3492 130.318C98.7344 130.114 98.1225 129.985 97.5078 129.89C98.6799 129.686 99.8146 129.295 100.949 128.942C103.314 128.048 105.379 126.506 107.313 124.923C108.151 124.196 108.95 123.377 109.565 122.449C110.309 121.185 110.866 119.806 111.26 118.393C112.486 113.909 111.705 109.183 110.794 104.716C110.441 102.892 109.864 101.105 109.082 99.4328C108.246 97.9073 107.315 96.3991 106.181 95.0777C106.051 93.0294 105.919 90.984 105.698 88.9558C105.345 85.6636 104.842 82.3886 104.618 79.0936C104.581 78.0508 104.618 76.8413 105.287 75.968C106.517 74.4598 107.947 73.1383 108.99 71.5009C109.792 70.1248 110.125 69.2314 109.473 67.6686C109.007 66.0685 108.467 64.4511 107.482 63.1095C107.017 62.6068 106.31 61.676 105.583 61.676C105.529 61.6961 105.454 61.7134 105.396 61.7335C105.342 61.4548 105.155 61.1187 105.06 60.9693C104.744 60.524 104.391 60.0931 104 59.6852C104.038 59.4439 103.908 59.1652 103.834 58.9411C103.368 57.8064 102.662 56.821 101.751 56.0023C101.268 55.4249 100.653 55.3875 100.076 55.6317C100.001 55.557 99.9266 55.4823 99.8519 55.3904C99.8893 55.3732 99.9065 55.3531 99.9266 55.3358C100.708 54.2011 101.303 52.9916 101.489 51.6328C101.639 50.7767 101.788 49.8833 101.584 49.01C101.564 48.9554 101.564 48.9181 101.547 48.8606C102.662 48.5618 103.63 48.0045 103.834 46.7779C103.891 45.9218 103.351 45.195 102.998 44.471C102.96 44.3963 102.906 44.3044 102.868 44.2297C103.334 43.9137 103.704 43.4483 104.003 42.9657C104.431 42.2762 104.73 41.5149 104.951 40.7336C105.192 39.9694 105.342 39.1708 105.454 38.3693C105.546 37.5879 105.603 36.8065 105.62 36.0251C105.638 34.425 105.508 32.8047 105.1 31.262C104.897 30.4979 104.618 29.7366 104.227 29.0471C103.819 28.3577 103.259 27.651 102.44 27.447C102.236 27.3924 101.995 27.3723 101.808 27.447C101.995 26.9443 102.144 26.4243 102.254 25.9015C102.57 24.5053 102.662 23.0546 102.552 21.6412C102.44 20.1904 102.124 18.7569 101.659 17.3607C101.194 16.022 100.562 14.7379 99.8347 13.5285C99.0907 12.2817 98.1972 11.1096 97.2119 10.0294C96.2639 9.00673 95.221 8.05585 94.1236 7.18252C93.009 6.3092 91.8168 5.52781 90.57 4.83835C89.3434 4.14888 88.0391 3.57433 86.7004 3.10894C81.36 1.23015 78.6825 0.523454 72.0206 0.224686C70.5124 0.149994 69.438 0.184466 67.519 0.523452C62.6439 1.34219 57.9728 3.22098 53.8791 5.9932C51.1816 7.78006 48.6133 9.78812 46.4731 12.207C42.2674 17.2113 39.6445 23.7986 38.7339 30.2566C38.4925 32.3767 38.5299 34.5169 38.7166 36.6571C38.8287 38.4985 39.0326 40.34 39.4434 42.1268C39.8341 43.9137 40.2248 45.7006 40.8942 47.3926C41.825 49.6822 42.9224 51.9144 44.0571 54.1293C44.5771 55.152 45.1373 56.1775 45.7319 57.1801C45.9359 57.4961 46.1427 57.8121 46.476 57.9989C46.4013 58.0736 46.3266 58.1483 46.2519 58.2229C45.8238 58.6136 45.4331 58.8923 45.1545 59.395C44.6144 60.231 44.1318 61.0699 43.6836 61.9633C43.1809 63.0233 42.8477 63.5807 42.9022 64.1581C42.2875 64.1408 41.71 64.3822 41.2102 64.7154C40.5581 65.1061 39.9634 65.4767 39.3486 65.8875C37.6738 67.0222 35.887 68.0277 34.2868 69.2917C31.0866 71.6732 28.1276 74.3334 25.0394 76.8471C23.6059 78.1858 22.1551 79.49 20.8337 80.9408C19.9029 82.0209 18.9549 83.081 18.0069 84.141C16.0706 86.5427 14.4533 89.0736 12.7037 91.5643C11.3277 93.6298 9.91141 95.6752 8.75943 97.8901C7.17654 100.866 5.70856 103.9 4.53647 107.046C3.6258 109.78 2.84441 112.553 2.20953 115.382C1.89353 116.87 1.68956 118.359 1.39079 119.847C0.646745 124.368 0.0693189 128.945 0.293395 133.484C0.405432 135.457 0.497361 137.428 0.701328 139.381C0.888057 140.907 1.24141 142.415 1.59476 143.903C2.45084 147.158 3.19489 150.49 4.92429 153.412C6.98981 156.911 10.0407 159.87 13.6144 161.803C15.3812 162.697 17.2801 163.329 19.1416 163.981C21.2071 164.558 23.2899 165.136 25.3927 165.544C28.3689 166.084 31.3853 166.38 34.3989 166.4C35.6255 166.38 36.8551 166.25 38.0817 166.233C38.9005 166.216 39.702 166.233 40.5178 166.179C41.1125 166.161 41.71 166.029 42.2846 166.104C42.4139 166.141 42.5633 166.104 42.6753 166.029C43.2154 166.383 43.7555 166.736 44.3128 167.035C45.2608 167.592 46.2117 168.169 47.2516 168.58C48.1996 168.896 49.1505 169.232 50.0813 169.64C52.4628 170.571 54.8817 171.482 57.3752 172.096C59.57 172.504 61.8223 172.99 64.0745 172.99C66.7175 172.932 69.3231 172.433 71.8166 171.594C74.6635 170.7 77.3812 169.454 79.9667 167.983C81.9403 166.977 84.0029 166.121 85.8846 164.969C86.574 164.541 87.2606 164.133 87.8926 163.63C88.3752 163.277 88.8406 162.829 89.3807 162.533C89.6421 162.886 90.1621 163.073 91.001 163.073C91.1503 163.073 91.2997 163.056 91.4462 163.056C92.6011 162.907 93.7157 162.441 94.8332 162.088C96.3041 161.53 97.6255 160.674 98.9068 159.818C101.234 158.459 103.262 156.638 105.083 154.665C106.497 153.064 108.301 151.835 109.622 150.143C110.162 149.269 110.498 148.301 110.665 147.296C112.078 146.311 112.992 145.584 114.46 144.69C117.494 142.662 120.378 140.393 123.167 138.066C125.457 136.092 127.652 133.992 129.904 131.964C131.803 130.289 133.515 128.316 135.69 127.014C138.37 125.247 140.51 124.483 143.728 125.078C144.268 125.135 144.788 125.227 145.311 125.377C145.98 125.618 146.893 125.805 147.451 125.247C147.729 124.969 147.712 124.578 147.563 124.242L147.554 124.236ZM106.974 106.095C106.936 105.629 106.508 100.01 106.416 98.3928C106.379 97.7982 106.342 97.2207 106.304 96.6261C106.919 97.6315 107.531 98.6169 108.071 99.6597C108.778 101.148 109.243 102.748 109.634 104.331C110.435 108.35 111.254 112.535 110.582 116.612C109.539 121.766 107.901 123.495 103.641 126.342C102.768 126.845 101.929 127.422 100.998 127.793C100.271 128.091 99.49 128.275 98.7287 128.52C96.7551 129.077 94.6723 129.226 92.6614 128.89C91.1906 128.666 89.7599 128.313 88.4011 127.735C87.6571 127.436 86.9302 127.103 86.3356 126.563C85.5542 126.006 84.8475 125.354 84.1207 124.722C83.7846 124.498 83.6007 124.032 83.1727 123.995C82.6326 123.492 82.1299 122.952 81.7219 122.357C81.2766 121.668 80.8658 120.961 80.6245 120.18C80.2166 118.991 79.823 117.798 79.5645 116.589C79.4151 116.032 79.5271 115.454 79.5645 114.894C79.8058 111.564 80.1419 108.195 80.8285 104.92C81.1273 103.245 81.6673 101.628 82.5407 100.174C83.4887 98.7979 84.8303 97.7723 86.169 96.8243C86.9504 96.3216 87.8064 96.0257 88.5505 95.5229C88.5706 95.747 88.5821 95.951 88.6079 96.1549C89.1021 100.119 89.8174 103.561 90.1535 104.621C90.3201 105.178 90.5241 105.718 90.7309 106.258C91.2509 107.58 91.8657 108.844 92.5925 110.036C93.2446 111.096 93.9886 112.119 94.8246 113.032C95.7726 114.055 96.8528 114.969 98.0996 115.601C98.1915 115.655 98.3035 115.713 98.3954 115.75C98.9901 116.011 99.5848 116.195 100.22 116.29C100.461 116.327 100.722 116.345 100.964 116.345C101.429 116.345 101.894 116.29 102.34 116.158C103.641 115.787 104.684 114.819 105.391 113.702L105.408 113.682C106.115 112.53 106.543 111.225 106.767 109.887C106.859 109.255 106.933 108.623 106.971 107.971C107.008 107.356 107.008 106.724 106.971 106.092L106.974 106.095ZM90.5068 129.594C90.0415 129.669 89.5761 129.761 89.1308 129.855C87.6226 130.097 86.1173 130.413 84.6091 130.694C83.7156 130.844 82.7475 130.806 81.9115 131.177C81.6329 131.343 81.4662 131.605 81.4088 131.904C81.2594 131.849 81.1301 131.792 81.0009 131.7C80.7969 131.57 80.5929 131.438 80.3861 131.292C81.7076 130.809 83.1583 130.622 84.3304 129.784C85.0371 129.41 85.7064 128.982 86.3212 128.499C86.4505 128.407 86.6372 128.295 86.8038 128.183C86.8785 128.238 86.9705 128.295 87.0452 128.333C88.1425 128.873 89.3146 129.281 90.5068 129.597V129.594ZM77.927 81.794C77.815 80.5644 77.1628 79.5245 76.4763 78.5391C75.6029 77.1803 74.5228 75.9709 73.5748 74.6695C72.756 73.6267 71.9545 72.604 71.1559 71.5813C71.8252 70.9292 72.4027 70.1851 73.0174 69.4957C73.6696 68.7689 74.3562 68.0823 75.0284 67.3555C76.0137 66.3874 77.002 65.402 77.95 64.3793C77.95 64.4166 77.9672 64.4339 77.9672 64.4712C77.9845 64.5459 78.0419 64.5832 78.1166 64.5832C81.1675 69.421 82.5636 75.1522 82.7676 80.8259C82.805 82.2594 82.7504 83.6728 82.6383 85.1063C82.601 86.5197 82.3223 87.9158 81.969 89.2747C81.2623 88.3439 80.4436 87.5252 79.7368 86.5944C79.0847 85.8676 78.5102 85.0488 77.7633 84.4168C78.0247 83.5607 78.0793 82.6673 77.9299 81.794H77.927ZM85.3502 70.889C85.5168 72.6931 85.8156 74.5 86.1316 76.284C85.7036 75.6147 85.2554 74.9453 84.8303 74.2731C84.1781 73.1585 83.3795 72.153 82.6355 71.1102C82.3941 70.7769 82.1528 70.4207 81.8914 70.0674C81.7621 69.6968 81.63 69.3406 81.4835 68.97C81.0181 67.8151 80.4234 66.6057 79.7886 65.5657C79.3806 64.9711 79.0445 64.2644 78.5418 63.7243C79.0617 63.167 79.5846 62.5896 80.0873 61.992C80.3861 61.6588 80.7021 61.36 80.998 61.0239C81.426 61.2853 81.8914 61.5266 82.374 61.7134C83.7874 62.5321 85.3876 62.9601 86.9705 63.2963C87.6025 63.4083 88.2172 63.5577 88.832 63.6324C87.6226 64.8045 86.2092 66.6086 86.1144 66.9073C85.2956 68.0794 85.2411 69.5503 85.3502 70.889ZM82.8567 95.0604C82.9141 93.5723 82.7647 92.0842 82.6527 90.6134C82.9515 90.1681 83.0434 89.5907 83.1928 89.0879C83.2675 88.6053 83.4169 88.1572 83.5088 87.6918C83.7127 86.445 83.7501 85.1982 83.8449 83.9514C84.0489 80.2312 83.6955 76.4707 82.7475 72.8626C82.7647 72.8798 82.7647 72.8999 82.7848 72.9171C83.6955 74.3305 84.5344 75.7842 85.4077 77.2148C85.8903 77.9962 86.3011 78.8149 86.7464 79.6136C86.7464 79.6509 86.7665 79.7055 86.7837 79.7428C87.3238 82.9057 87.8064 86.0687 88.0478 89.2689C88.177 91.0931 88.3264 92.8972 88.493 94.7013C87.6915 95.184 86.7636 95.4281 85.9248 95.8734C84.5487 96.6921 83.2646 97.6775 82.2218 98.8697C82.5378 97.6229 82.7791 96.3388 82.8538 95.0547L82.8567 95.0604ZM105.574 62.5551C106.376 63.0952 106.913 63.9685 107.304 64.8246C107.824 65.7726 108.217 66.778 108.551 67.7835C109.091 68.9728 108.979 69.533 108.309 70.6103C107.471 72.1357 106.057 73.3653 104.98 74.704C102.877 76.6402 103.604 79.7084 103.808 82.222C104.032 84.6409 104.423 87.0425 104.644 89.4585C104.885 91.524 104.98 93.6441 105.126 95.7097C105.276 98.1659 105.87 105.365 105.87 105.572C105.87 105.813 105.888 106.075 105.888 106.316C105.888 106.669 105.902 109.43 105.256 111.191C105.121 111.556 105.014 111.935 104.848 112.308C104.736 112.587 104.586 112.849 104.44 113.11C104.423 113.127 104.423 113.147 104.402 113.165C104.273 113.369 104.124 113.573 103.974 113.759C103.845 113.926 103.696 114.075 103.546 114.225C103.417 114.354 103.285 114.466 103.138 114.578C103.009 114.67 102.86 114.765 102.71 114.857C102.561 114.931 102.412 115.006 102.265 115.061C102.116 115.115 101.966 115.173 101.817 115.21C101.65 115.247 101.481 115.285 101.314 115.302C101.148 115.322 100.961 115.322 100.794 115.322C100.59 115.322 100.404 115.302 100.2 115.265C99.9956 115.227 99.7715 115.173 99.5675 115.115C99.3262 115.023 99.0648 114.928 98.8407 114.837C98.5247 114.707 98.226 114.538 97.9473 114.371C97.6112 114.147 97.2779 113.926 96.9619 113.664C96.5339 113.311 96.1432 112.958 95.7726 112.567C95.29 112.064 94.8418 111.524 94.4339 110.967C93.9312 110.26 93.4658 109.533 93.0377 108.772C92.535 107.859 92.107 106.931 91.7536 106.037L91.7364 106C91.3083 104.94 90.955 103.842 90.6936 102.762C90.4896 101.981 90.3402 101.179 90.2282 100.398C90.1736 100.119 89.9294 98.4072 89.8921 98.0337C89.7254 96.5255 89.5387 95.0202 89.4094 93.4948C89.0934 89.6251 88.8521 85.7527 88.1828 81.9405C87.6053 78.2921 86.824 74.6092 86.4333 70.9637C86.3787 69.9582 86.304 68.8981 86.7694 67.9875C87.252 67.0768 87.884 66.2581 88.5562 65.4939C89.0963 64.8791 89.6536 64.3218 90.1391 63.6898C91.1072 63.6151 92.0926 63.3365 92.8941 62.7791C92.7821 63.506 92.7648 64.2672 92.9487 65.086C93.078 65.7381 93.4687 67.4503 94.2874 67.4503C94.3994 67.4503 94.5115 67.4129 94.6235 67.3583C94.7355 67.2836 94.9194 67.117 95.1061 66.9131C95.1263 67.321 95.1607 67.7146 95.2354 68.1053C95.3101 68.6827 95.5888 69.2572 96.2208 69.2572H96.3328C96.7063 69.24 97.0223 68.9786 97.3383 68.812C97.3383 68.812 97.3555 68.7947 97.3756 68.7947C97.3584 68.8321 97.3584 68.8867 97.3584 68.924C97.3411 69.5014 97.2463 70.0961 97.321 70.6735C97.3957 71.1935 97.8611 71.6589 98.3811 71.6589C98.5305 71.6589 98.677 71.6215 98.8264 71.5296C99.3463 71.2682 99.7198 70.8401 100.073 70.3776C100.165 70.955 100.389 71.4003 100.967 71.159C101.375 70.8976 101.693 70.5069 102.047 70.1535C102.679 69.4267 103.46 68.8694 104.075 68.1254C104.411 67.7548 104.578 67.2147 105.023 66.9705C105.098 67.1572 105.172 67.3612 105.414 67.3986C105.618 67.4359 105.822 67.2693 105.842 67.0624C105.896 66.373 105.21 66.0024 104.632 66.373C103.294 67.4905 101.915 68.6425 100.8 70.0013C100.855 69.0332 101.099 68.0478 101.452 67.1544C101.656 66.577 101.748 65.9622 102.084 65.4422C102.624 64.6982 103.368 64.1408 104.075 63.5807C104.54 63.19 105.006 62.782 105.583 62.5579L105.574 62.5551ZM93.8335 63.3738C93.8881 62.5005 94.3161 61.7162 94.6723 60.9377C95.2297 59.7484 95.7324 58.5935 96.2725 57.4013C96.7005 56.6199 97.0539 55.7438 97.7979 55.2065C98.0019 55.1146 98.226 55.2812 98.4127 55.3559C98.7287 55.4852 98.97 55.7466 99.2487 55.9707C99.3234 56.0253 99.3779 56.0827 99.4526 56.1201C99.286 56.2695 99.1366 56.4361 99.0246 56.6228C98.0766 58.0736 97.163 59.5645 96.2897 61.0699C95.899 61.8139 95.3762 62.5034 95.2469 63.3393C95.1894 63.8967 95.1894 64.4741 95.1521 65.0343C95.1521 65.221 95.1349 65.4049 95.1349 65.5916C95.0056 65.7209 94.8936 65.8703 94.8189 65.9823C94.6695 66.1317 94.5201 66.2811 94.3736 66.4276C93.9455 65.4422 93.7962 64.4195 93.8335 63.3767V63.3738ZM104.402 61.5123C104.552 61.6617 104.664 61.8656 104.83 62.015C104.385 62.2764 103.992 62.6298 103.621 62.963C102.82 63.6324 101.984 64.2644 101.352 65.0831C101.015 65.6031 100.886 66.2178 100.682 66.7953C100.383 67.4474 100.142 68.134 100.067 68.8608C100.067 68.9355 100.05 69.0102 100.05 69.1021C100.05 69.1021 100.03 69.1193 100.013 69.1193C99.4182 69.5273 98.97 70.1421 98.3926 70.5529C98.2432 69.4181 98.4472 68.2834 98.5965 67.1659C98.6885 66.4218 98.7632 65.6778 98.9872 64.9711C99.1912 64.3936 99.5273 63.8909 99.8261 63.3709C100.234 62.6269 100.682 61.9001 101.239 61.2508C101.668 60.7309 101.966 60.0615 102.504 59.6507C103.248 60.1333 103.768 60.8975 104.402 61.5123ZM101.518 56.9359C102.021 57.476 102.394 58.1281 102.82 58.7602C102.001 58.5562 101.294 59.4123 100.811 60.1362C100.159 60.9751 99.4727 61.7938 98.97 62.7217C98.4874 63.4657 97.9846 64.3391 97.8525 65.2325C97.7031 66.034 97.5911 66.8527 97.5193 67.6514H97.4647C97.0366 67.818 96.6632 68.0421 96.2926 68.2834C96.0886 67.0739 96.2725 65.8272 96.2725 64.6177C96.3098 64.1523 96.2552 63.6869 96.3644 63.2417C96.5138 62.8136 96.7551 62.4229 96.9792 62.0322C97.7433 60.7108 98.5247 59.4094 99.286 58.0879C99.8634 57.2318 100.421 55.5024 101.518 56.9331V56.9359ZM102.3 47.4099C101.352 47.9873 100.214 48.062 99.1539 48.174C98.6138 48.2487 98.0364 48.2114 97.5537 47.9327C97.4245 47.7833 97.3297 47.6167 97.1803 47.4673C96.9562 47.226 96.5109 47.2432 96.3443 47.5592C96.1777 47.8379 96.3242 48.1913 96.5109 48.3952C96.9562 49.122 97.9444 49.3088 98.7258 49.3088C99.3032 49.2341 100.01 49.1967 100.697 49.0847C100.734 49.8287 100.584 50.5728 100.435 51.2795C100.286 52.4717 99.783 53.5863 99.1136 54.4998C99.0964 54.5372 99.0763 54.5544 99.0591 54.5745C98.6684 54.2413 98.2202 53.9971 97.683 54.0345C96.0455 54.4424 95.1349 57.2175 94.4827 58.6108C93.9427 59.7829 93.3652 60.9004 93.0492 62.0725C92.7332 62.0725 92.4546 62.2391 92.1558 62.2764C91.6157 62.3511 91.0757 62.4804 90.5356 62.5177C89.3836 62.647 88.1914 62.3683 87.0566 62.127C85.8673 61.8656 84.7297 61.5496 83.6323 61.067C83.1123 60.7883 82.5723 60.5097 82.0322 60.2856C80.8055 59.6536 79.7799 58.7602 78.7773 57.8294C78.3694 57.476 78.0132 57.0652 77.6598 56.6573C77.3611 56.324 77.0278 55.8386 76.5452 56.1919C76.2464 56.3959 76.2838 56.8814 76.5452 57.0853C76.7865 57.3841 77.0479 57.6628 77.2892 57.9414C78.1654 58.8348 79.1134 59.7082 80.1362 60.435C80.0816 60.4896 80.0241 60.547 79.9695 60.5844C79.1709 61.3112 78.4814 62.1299 77.7546 62.9285C76.4533 64.3046 75.0945 65.6261 73.773 67.0021C72.621 68.157 71.5954 69.4382 70.4607 70.6304C69.9579 70.0156 69.4552 69.3836 68.9352 68.7689C67.3897 67.0021 65.7924 65.2899 64.1176 63.6525C62.7961 62.219 61.4948 60.7309 60.3026 59.1853C60.1532 58.9986 60.0038 58.8147 59.8573 58.628C59.886 58.3752 59.9148 58.131 59.9521 57.884C59.9751 57.838 59.9952 57.7892 60.0067 57.7346C60.0986 57.1571 60.1187 56.5251 60.136 55.9305C60.1733 54.9825 60.2107 54.0143 60.5065 53.4197C61.0093 52.4343 61.9401 51.6874 63.0173 51.4461C63.5 51.3341 64.0228 51.3168 64.5801 51.2967C64.8042 51.2967 65.0082 51.2766 65.2322 51.2594C65.9217 51.222 66.9272 51.0927 67.7057 50.4952C69.7712 48.987 68.5445 46.9588 67.7258 45.6201C67.5592 45.3415 67.4098 45.1002 67.2805 44.856C66.5365 43.4426 66.9444 41.153 68.2285 39.6476C68.7859 38.9955 69.9579 37.9527 71.5408 38.4928C73.5317 39.1449 75.1146 40.7996 75.6891 42.8106C75.7265 42.9772 75.781 43.1266 75.8184 43.2932C75.9304 43.7385 76.0425 44.1866 76.2637 44.6319C76.6716 45.4334 77.3783 45.9534 78.1051 45.9907C79.1652 46.0482 80.004 45.1174 80.1879 44.1866C80.3746 43.2386 80.0385 42.3078 79.7799 41.6931C79.688 41.4891 79.5932 41.3024 79.5013 41.1156C79.2772 40.6502 79.056 40.205 78.944 39.7568C78.6395 38.5215 78.9756 37.5103 79.981 36.7375C80.5412 36.8754 81.11 37.0018 81.6788 37.0966C82.963 37.3207 84.2844 37.45 85.6059 37.45H85.7352C86.4246 37.45 87.1112 37.4126 87.8007 37.3581C87.7806 37.6568 87.7633 37.9527 87.7633 38.2515C87.7633 39.5155 87.8754 40.7824 88.154 42.0091C88.3034 42.6612 88.5074 43.3104 88.7487 43.9453C89.0475 44.6721 89.4008 45.3587 89.8662 45.9907C90.2368 46.5107 90.685 46.9761 91.225 47.3294C91.745 47.6828 92.3397 47.9068 92.9544 47.9815C93.0837 48.0016 93.1957 48.0017 93.325 48.0017C93.7904 48.0017 94.2357 47.927 94.6637 47.7603C95.2412 47.5564 95.7611 47.2203 96.2093 46.8123C97.1027 46.0309 97.7721 44.9881 98.2748 43.9108C98.5736 43.2788 98.8149 42.6095 99.0016 41.9947C99.2056 41.288 99.3722 40.5612 99.4842 39.8545C99.783 41.716 101.122 43.2214 101.92 44.8962C102.182 45.4363 102.535 45.9189 102.722 46.4791C102.851 46.8698 102.555 47.1685 102.294 47.4099H102.3ZM89.7398 37.0823C90.4092 36.953 91.0785 36.7835 91.6559 36.6169C92.9774 36.2262 94.2788 35.7062 95.471 34.9966C96.4391 34.4393 97.3325 33.7872 98.1139 32.9685C98.2633 33.6206 98.3753 34.2899 98.45 34.8846C98.5247 35.5166 98.5621 36.1314 98.5621 36.7461V37.1914C98.542 37.9901 98.4874 38.7743 98.3581 39.5557C98.2461 40.2452 98.1168 40.9145 97.9128 41.5839C97.7462 42.124 97.5595 42.6439 97.3354 43.1668C97.1688 43.5747 96.9447 43.9654 96.7206 44.3561C96.5339 44.6549 96.3299 44.9508 96.1633 45.1748C95.9766 45.3989 95.7899 45.6029 95.5859 45.8069C95.4566 45.9562 95.2871 46.0683 95.1406 46.1975C95.0113 46.2895 94.8619 46.3843 94.7126 46.4762C94.5833 46.5509 94.4511 46.6055 94.3219 46.6629C94.1926 46.7204 94.0604 46.7549 93.9312 46.7922C93.8191 46.8094 93.7071 46.8296 93.5951 46.8468C93.4658 46.8669 93.3537 46.8669 93.2417 46.8669C93.1498 46.8468 93.0377 46.8468 92.9257 46.8296C92.8137 46.8094 92.7016 46.7922 92.5896 46.7549C92.4776 46.7376 92.3856 46.6802 92.2736 46.6428C92.1616 46.5882 92.0323 46.5308 91.9202 46.4561C91.791 46.3814 91.6789 46.2895 91.5497 46.1947C91.4204 46.1028 91.2882 45.9706 91.1762 45.8586C91.0268 45.6919 90.8774 45.5052 90.7309 45.3185C90.5643 45.0772 90.4149 44.8359 90.2655 44.5917C90.0788 44.2584 89.9294 43.9022 89.7829 43.5489C89.6163 43.0835 89.4669 42.6181 89.3376 42.1355C89.1882 41.5035 89.0762 40.8714 89.0015 40.2366C88.9096 39.5098 88.8722 38.7858 88.8895 38.0418C88.8895 37.7631 88.9067 37.4845 88.9268 37.2029C89.2055 37.1656 89.4669 37.1282 89.7456 37.0737L89.7398 37.0823ZM89.013 36.0969C89.0302 35.9676 89.0503 35.8556 89.0676 35.7263C89.1796 35.057 89.329 34.3675 89.5129 33.7183C89.6996 33.1408 89.8834 32.6007 90.1276 32.0635C90.2943 31.6556 90.5183 31.2448 90.7424 30.8713C90.9291 30.5927 91.113 30.314 91.3198 30.0526C91.4692 29.8659 91.6559 29.6791 91.8226 29.4953C91.9892 29.3459 92.1587 29.1965 92.3253 29.0673C92.4747 28.9753 92.6241 28.8805 92.7706 28.7886C92.8999 28.7139 93.0119 28.6593 93.1412 28.6019C93.2704 28.5473 93.4026 28.5099 93.5319 28.4726C93.6439 28.4554 93.7559 28.4352 93.868 28.418C93.9599 28.4008 94.0719 28.4008 94.184 28.4008C94.296 28.418 94.4081 28.418 94.5201 28.4381C94.6321 28.4582 94.7442 28.4755 94.8562 28.5128C94.9682 28.5501 95.0803 28.5875 95.1722 28.6248C95.3015 28.6794 95.4336 28.7369 95.5428 28.8116C95.6721 28.8863 95.8042 28.9782 95.9134 29.073C96.0628 29.185 96.192 29.3143 96.3213 29.4465C96.5253 29.6705 96.712 29.8917 96.8987 30.1359C97.0108 30.3025 97.1228 30.4893 97.2348 30.676C97.4216 31.0293 97.5882 31.4028 97.7376 31.7562L97.7548 31.8107C97.7548 31.8107 97.7749 31.828 97.7749 31.8481C97.4388 32.2014 97.0855 32.5174 96.6775 32.8334C96.2121 33.2069 95.7295 33.5401 95.2268 33.8561C94.6494 34.2296 94.0375 34.5456 93.4026 34.8243C92.7131 35.123 92.0265 35.3816 91.3371 35.5884H91.3198C91.3064 35.5999 91.294 35.6057 91.2825 35.6057C90.5183 35.8297 89.7369 35.9964 89.013 36.1084V36.0969ZM101.665 28.0216C101.777 28.1336 101.923 28.1709 102.073 28.2255C102.147 28.2428 102.202 28.2629 102.259 28.3002C102.314 28.3376 102.371 28.3749 102.426 28.4123C102.501 28.4668 102.575 28.5243 102.65 28.599C102.725 28.6737 102.817 28.7656 102.891 28.8604C102.983 28.9725 103.078 29.1017 103.153 29.2339C103.265 29.4579 103.374 29.6619 103.486 29.886C103.635 30.2594 103.765 30.6128 103.877 30.946C103.877 30.9633 103.894 30.9834 103.894 31.0006C104.061 31.578 104.193 32.1555 104.285 32.7501V32.7674C104.414 33.5861 104.489 34.4048 104.509 35.169C104.526 36.0624 104.489 36.9358 104.397 37.7545C104.322 38.4813 104.193 39.2052 104.026 39.9119C103.897 40.3946 103.747 40.86 103.581 41.3253C103.452 41.6413 103.319 41.9401 103.173 42.2188C103.081 42.4055 102.969 42.5721 102.82 42.7589C102.728 42.8881 102.633 42.9829 102.541 43.0921C102.486 43.1668 102.412 43.2415 102.337 43.2961C102.337 43.3133 102.32 43.3133 102.3 43.3334C101.759 42.44 101.145 41.5839 100.625 40.6732C100.458 40.3946 99.918 39.2972 99.6193 38.7944C99.6394 38.5531 99.6566 38.3118 99.6767 38.0676C100.085 38.3664 100.923 38.5129 101.277 38.3664C101.946 38.2716 102.078 37.3609 101.352 37.269C100.811 37.381 100.254 37.269 99.7141 37.3437V36.3957C99.6968 35.801 99.6394 35.1862 99.5647 34.5916C99.4727 33.9596 99.3406 33.3448 99.174 32.73C99.1194 32.5433 99.0619 32.3767 99.0073 32.1899C99.7141 31.4086 100.346 30.5525 100.869 29.6217C101.148 29.1017 101.409 28.5616 101.633 28.0043C101.65 28.0043 101.65 28.0216 101.67 28.0216H101.665ZM45.0252 53.5691C43.9077 51.4289 42.8477 49.2341 41.937 47.0192C41.0436 44.7296 40.5782 42.2935 40.1329 39.8918C39.8341 37.3063 39.5756 34.7007 39.7049 32.0951C39.7594 29.9176 40.2248 27.7601 40.8224 25.6573C41.5492 22.8305 42.7385 20.1674 44.0772 17.5992C45.1373 15.7577 46.3093 13.9536 47.7601 12.388C49.4148 10.6212 51.2965 9.11302 53.2672 7.69962C55.9274 5.83807 58.7743 4.20059 61.8251 3.1032C64.1147 2.28446 66.4762 1.76449 68.8577 1.35368C69.731 1.22441 70.5871 1.24164 71.4633 1.24164C76.3757 1.24164 81.0641 2.26435 84.1149 3.30716C84.7469 3.53124 85.4163 3.7151 86.0512 3.95928C86.2925 4.05121 86.5338 4.1259 86.7579 4.2207C86.7694 4.23219 86.7818 4.23794 86.7952 4.23794H86.8125C87.93 4.68322 89.0073 5.20606 90.03 5.76338C90.9981 6.30346 91.9461 6.91823 92.8395 7.56747C93.6956 8.19948 94.5144 8.88894 95.2756 9.61288C95.9823 10.2822 96.6517 11.009 97.2665 11.7703C97.8238 12.477 98.3639 13.2038 98.8292 13.9651V13.9824L98.8465 13.9996C99.2918 14.7436 99.6853 15.4877 100.039 16.2691C100.355 16.9758 100.616 17.6825 100.837 18.4265C101.041 19.116 101.211 19.8227 101.32 20.5294C101.412 21.1815 101.469 21.8308 101.487 22.503C101.487 23.1178 101.466 23.7498 101.395 24.3645C101.32 24.9218 101.228 25.4993 101.096 25.9819C100.946 26.5019 100.78 27.0247 100.593 27.5274C100.576 27.5447 100.576 27.5648 100.576 27.5648V27.582C100.372 28.0848 100.148 28.5674 99.8864 29.0328C99.6279 29.4781 99.3463 29.9262 99.0303 30.3542C98.8809 30.5582 98.7143 30.7449 98.5477 30.9489C98.473 30.7622 98.3811 30.5754 98.2863 30.3916C98.157 30.1302 98.0076 29.8716 97.8582 29.6274C97.6916 29.3488 97.5049 29.0874 97.3009 28.846C97.097 28.6047 96.8729 28.3807 96.6316 28.1939C96.3529 27.9699 96.0541 27.7659 95.7381 27.6165C95.4221 27.4671 95.086 27.3551 94.7528 27.3005C94.3822 27.2258 93.9886 27.2258 93.618 27.2833C93.0234 27.358 92.446 27.5993 91.9432 27.9354C90.8631 28.6421 90.0644 29.7222 89.4698 30.8369C88.8923 31.9544 88.4844 33.1437 88.2057 34.3732C88.0564 34.988 87.9644 35.5827 87.8897 36.1974C87.3123 36.252 86.7349 36.2894 86.1603 36.3095C85.1376 36.3296 84.1121 36.2721 83.1095 36.1601C82.1787 36.0481 81.2479 35.8987 80.3372 35.6775C80.2453 35.6602 80.1333 35.6401 80.0212 35.6028H80.0011C79.8719 35.5654 79.7225 35.5654 79.5932 35.6401C79.5674 35.6545 79.5415 35.6717 79.5156 35.6918C79.4927 35.7033 79.4668 35.7177 79.4438 35.7321C77.973 36.7749 77.4156 38.2802 77.8437 40.0297C77.9931 40.6072 78.2344 41.107 78.4757 41.6126C78.5676 41.7993 78.6624 41.9832 78.7371 42.1699C79.0732 42.914 79.1824 43.4914 79.0732 43.974C78.9813 44.4394 78.5705 44.9048 78.1252 44.8847C77.7173 44.8675 77.3812 44.4768 77.2146 44.1407C77.0479 43.8045 76.9531 43.4339 76.8411 43.0231C76.8037 42.8565 76.7492 42.6698 76.7118 42.5032C76.0224 40.1389 74.1637 38.2055 71.8367 37.4414C70.2165 36.9013 68.5618 37.4615 67.315 38.9496C65.7522 40.8111 65.2868 43.5833 66.2348 45.3874C66.3842 45.6489 66.5307 45.9275 66.7175 46.2062C67.6482 47.7517 68.151 48.7543 66.9961 49.5932C66.5681 49.9092 65.9734 50.0758 65.0972 50.1332C64.8933 50.1533 64.6864 50.1534 64.4825 50.1706C63.905 50.1878 63.3104 50.2079 62.7157 50.3573C61.3195 50.6934 60.1101 51.6414 59.4781 52.9256C59.0702 53.7443 59.0328 54.8417 58.9955 55.9018C58.9782 56.4792 58.9581 57.0738 58.8662 57.5766C58.8662 57.5852 58.8662 57.5909 58.8662 57.5996C58.7886 58.1684 58.7168 58.7372 58.645 59.306C56.7289 58.6912 54.6633 58.7487 52.6898 58.358C51.6843 58.1913 50.7162 57.8926 49.7308 57.6312C48.8201 57.3525 47.8319 57.3324 46.9586 56.9618C46.1772 55.919 45.6371 54.6923 45.0223 53.5576L45.0252 53.5691ZM44.6345 62.5005C45.1373 61.5151 45.6773 60.5269 46.3266 59.6162C46.8092 59.2083 47.2372 58.7774 47.7026 58.4441C48.2054 58.5361 48.7454 58.6108 49.2482 58.7602C50.5697 59.1508 51.7963 59.4669 53.1379 59.6708C54.514 59.8576 55.9274 59.9696 57.2689 60.2109C57.6769 60.2655 58.0704 60.3775 58.441 60.5269C58.6077 60.5815 58.7771 60.6389 58.9438 60.6389C59.0357 60.6389 59.1104 60.6217 59.1851 60.6016C59.5011 60.4723 59.6131 60.1736 59.6878 59.8576C60.768 61.495 62.032 63.0032 63.3333 64.4712C65.3443 66.5195 67.3351 68.6396 69.1564 70.8717C71.1674 73.4026 73.1956 75.9335 75.1289 78.5391C76.2637 80.1393 77.1198 81.3487 76.8411 83.4142C76.8239 83.6383 76.7664 83.8423 76.6917 84.0462C76.5682 84.4599 76.5596 84.3996 76.4303 84.6984C76.1689 85.2557 75.8529 85.8159 75.6115 86.3732C74.8101 88.1227 73.8074 89.7602 72.7847 91.3775C72.1901 92.3457 71.6874 93.3856 70.9807 94.2991C70.6445 94.6898 70.2739 95.658 69.6592 95.1006C68.8232 94.4485 68.3578 93.4632 67.6511 92.6818C67.1484 92.067 66.7404 91.3804 66.2923 90.7111C65.5856 89.6883 64.8416 88.6829 64.1349 87.6602C61.9946 84.6466 59.5011 81.9118 57.0449 79.1568C54.3272 76.1059 51.6297 73.055 48.9523 69.984C47.6682 68.5505 46.3467 67.0452 45.0999 65.5744C44.7466 65.0917 44.3185 64.6436 44.0025 64.1236C44.0399 63.5462 44.4104 63.0262 44.6345 62.5062V62.5005ZM89.1595 162.01C88.7142 162.139 88.2287 162.401 88.0995 162.493C85.7725 164.093 83.2071 165.228 80.6762 166.437C78.9267 167.236 77.2892 168.261 75.5053 168.985C73.9798 169.749 72.3423 170.269 70.7221 170.772C68.7859 171.404 66.7778 171.758 64.7496 171.852C63.2242 171.982 61.6786 171.723 60.1905 171.499C58.2371 171.183 56.2836 170.735 54.4048 170.086C52.7673 169.491 51.0753 168.859 49.4751 168.187C48.4898 167.779 47.4297 167.535 46.4989 166.997C44.7494 166.067 43.0947 164.969 41.4572 163.852C40.3225 163.125 39.1676 162.418 38.0904 161.599C37.1596 160.947 36.3409 160.166 35.4474 159.479C34.4621 158.661 33.4193 157.896 32.4138 157.098C30.1443 155.478 27.892 153.86 25.7892 152.019C25.1371 151.349 24.4878 150.717 23.8903 150.008C23.445 149.505 23.0716 148.91 22.6636 148.388C21.6036 147.049 20.5234 145.707 19.5926 144.257C18.7739 142.786 18.0471 141.26 17.5472 139.643C17.1019 138.471 16.7285 137.279 16.4297 136.052C16.1309 135.046 16.039 134.007 15.8896 132.981C15.8149 132.478 15.723 131.975 15.611 131.473C15.5363 131.174 15.2375 130.97 14.9416 131.045C14.6429 131.119 14.4389 131.415 14.5136 131.714C14.6429 132.234 14.7377 132.774 14.8123 133.297C15.091 136.219 16.0965 138.974 17.1019 141.708C17.5673 142.714 18.0327 143.757 18.5728 144.722C19.5409 146.247 20.6929 147.661 21.8104 149.094C23.2439 151.14 24.9733 152.964 26.9843 154.452C29.6645 156.592 32.5287 158.488 35.1716 160.686C36.9384 162.269 38.8919 163.57 40.8827 164.817C40.9947 164.892 41.1068 164.966 41.2188 165.041C39.8428 165.17 38.4466 165.133 37.0705 165.19C35.7117 165.282 34.373 165.357 33.0343 165.302C30.7821 165.19 28.5126 165.004 26.2977 164.613C24.3815 164.314 22.5401 163.777 20.6613 163.291C19.3599 162.958 18.093 162.49 16.8463 162.007C15.7862 161.617 14.7262 161.189 13.7379 160.631C9.94301 158.416 6.75999 155.049 4.93578 151.031C4.19174 149.298 3.67177 147.457 3.18627 145.635C2.53415 143.105 1.84756 140.556 1.69818 137.934C1.53156 135.049 1.27013 132.165 1.32472 129.226C1.4741 125.115 2.21815 121.039 2.92485 116.982C3.61431 113.392 4.61691 109.838 5.84645 106.396C7.27996 102.972 8.85998 99.6224 10.7215 96.4422C11.9137 94.4887 13.195 92.5898 14.4992 90.7111C15.8753 88.7001 17.2341 86.6719 18.7595 84.7932C19.8943 83.5665 20.9744 82.2996 22.0891 81.0528C23.3157 79.8261 24.5826 78.6167 25.884 77.4417C26.8148 76.623 27.8375 75.8962 28.7682 75.0602C31.9139 72.3627 35.0941 69.6824 38.6304 67.5049C39.8399 66.7235 40.9947 65.8674 42.2587 65.1607C42.4254 65.086 42.4828 65.086 42.6322 65.0486C42.8189 65.0113 43.0057 65.0113 43.1895 64.9941C43.3389 65.2181 43.5429 65.4594 43.7842 65.7381C45.4964 67.8783 47.3751 69.9065 49.1792 71.972C51.8768 75.0602 54.6116 78.1312 57.3465 81.2022C58.5933 82.6156 59.8027 84.0491 61.0294 85.4826C62.5749 87.3614 63.951 89.3723 65.3472 91.3632C65.8671 92.202 66.4273 93.0006 67.0593 93.7447C67.858 94.7128 68.6422 96.3129 70.0355 96.3129C70.1274 96.3129 70.2222 96.3129 70.3142 96.2928C71.5983 96.0142 73.3478 92.1618 74.2412 90.9725C74.7239 90.0963 75.2841 89.2775 75.7495 88.4042C76.2694 87.4361 76.7176 86.4306 77.2002 85.4453C77.6282 85.8733 78.0017 86.3559 78.4096 86.8041C78.8549 87.2867 79.2284 87.8268 79.6564 88.3295C80.1046 88.7949 80.5125 89.2775 80.9032 89.7803C81.1273 90.0589 81.3686 90.3204 81.5725 90.6191C81.6846 90.7484 81.8512 90.8231 82.0178 90.8432C82.0178 90.9552 82.0178 91.0673 81.9977 91.1592C81.9431 92.518 81.9431 93.8941 81.7736 95.2529C81.6817 96.0544 81.4749 96.8157 81.3284 97.5798C81.0669 98.8438 80.2482 102.343 80.2683 102.38C79.9896 103.274 79.7857 104.184 79.6162 105.098C79.0388 107.87 78.74 110.68 78.5188 113.489C77.8868 111.553 76.9014 109.732 76.1746 107.833C75.8586 107.181 74.9106 107.646 75.2438 108.298C75.5397 109.005 75.896 109.657 76.2292 110.326C76.844 111.536 77.4185 112.745 77.9959 113.975C78.108 114.141 78.2373 114.569 78.424 114.848C78.4068 114.977 78.4068 115.127 78.3866 115.256C78.1999 116.689 78.7975 118.103 79.1881 119.462C79.7081 121.34 80.6389 123.11 82.0724 124.466C82.3137 124.727 82.6125 124.931 82.8911 125.156C83.0951 125.305 83.2991 125.546 83.5433 125.638C84.3045 126.328 85.0687 126.997 85.9075 127.592C84.8101 128.244 83.7127 128.893 82.5407 129.396C81.5352 129.766 80.4579 129.916 79.4898 130.381C78.7256 129.47 78.1884 128.353 77.6656 127.293C74.6319 119.72 73.2185 111.645 70.725 103.906C69.2915 100.501 67.6166 97.2064 65.3299 94.3221C62.9484 91.6045 60.2135 88.9816 57.1253 87.1029C56.5479 86.8041 55.2264 86.3215 55.1718 87.3269C55.2092 87.6975 55.5424 87.8842 55.8785 87.8469C56.6226 87.9762 57.2373 88.4617 57.8521 88.8696C60.2882 90.8231 62.7444 92.8714 64.6979 95.3276C66.7634 98.0625 68.3837 101.188 69.7023 104.351C71.4144 109.579 72.5693 115.012 74.0947 120.278C75.5656 124.259 77.0336 132.317 81.946 133.136C82.8021 134.029 83.8449 134.736 84.5142 135.779C85.853 137.842 87.0394 139.996 88.0995 142.205C88.0995 142.202 88.0937 142.197 88.088 142.197C88.088 142.197 88.088 142.217 88.1052 142.217C88.832 143.854 89.3893 145.584 89.668 147.35C90.3373 150.309 90.5614 153.343 90.2626 156.357C90.1334 157.546 89.8346 158.721 89.4985 159.873C89.2198 160.749 89.0532 161.473 89.1624 162.013L89.1595 162.01ZM108.714 149.563C107.933 150.548 106.965 151.387 106.017 152.205C104.77 153.357 103.673 154.662 102.426 155.796C101.125 157.135 99.5417 158.141 97.9789 159.146C96.6948 159.985 95.3733 160.804 93.9053 161.249C93.0119 161.528 92.1185 161.918 91.1704 161.976C90.165 161.956 90.0903 162.013 90.3718 160.953C90.6332 160.06 90.8918 159.166 91.0986 158.255C91.5267 156.451 91.5439 154.59 91.5066 152.748C91.4692 150.384 90.9866 148.06 90.5011 145.753C89.961 143.389 88.9383 141.177 87.7461 139.091C86.9073 137.529 86.0512 135.966 84.9739 134.552C84.2672 133.642 83.2445 133.027 82.5177 132.133C83.6151 131.892 84.7498 131.872 85.8472 131.613C87.6714 131.26 89.5129 130.849 91.3543 130.628C91.5784 130.611 91.8197 130.591 92.061 130.591C92.9171 130.591 93.7904 130.757 94.612 130.778C95.2268 130.869 95.8588 130.89 96.4736 130.927C97.2923 131.002 98.111 131.188 98.9097 131.41C99.4296 131.596 99.9898 131.708 100.527 131.817C100.622 131.892 100.731 131.929 100.843 131.929C100.88 131.929 100.938 131.929 100.972 131.909C101.679 132.059 102.386 132.225 103.021 132.579C105.664 134.162 107.244 136.971 108.304 139.761C109.605 142.794 110.481 146.572 108.712 149.565L108.714 149.563ZM144.644 124.09C142.82 123.848 140.921 123.55 139.137 124.127C136.885 124.817 134.839 126.175 133.015 127.626C131.323 129.039 129.815 130.66 128.16 132.11C126.652 133.449 125.184 134.828 123.696 136.184C122.598 137.227 121.444 138.063 120.309 139.051C118.131 140.743 115.937 142.438 113.63 143.943C112.515 144.613 111.751 145.17 110.82 145.86C110.84 144.389 110.579 142.901 110.205 141.487C109.981 140.648 109.628 139.867 109.292 139.068C108.847 137.988 108.398 136.891 107.766 135.905C106.502 133.915 104.79 131.832 102.463 131.18C103.951 130.473 105.422 129.766 106.893 129.039C108.327 128.37 109.76 127.738 111.136 126.974C114.914 124.929 118.671 122.826 122.374 120.648C125.239 118.973 127.994 117.057 130.878 115.494C132.831 114.434 136.942 113.113 137.856 112.872C137.968 112.854 138.08 112.872 138.172 112.946C138.508 113.245 139.605 114.193 140.013 114.566C140.553 115.069 141.073 115.572 141.559 116.075C141.763 116.279 141.967 116.52 142.174 116.744C141.429 116.017 140.611 115.124 139.476 115.423C137.54 116 135.848 117.135 134.061 118.028C133.707 118.215 133.334 118.382 132.963 118.568C132.872 118.623 132.777 118.68 132.668 118.718C132.389 118.83 132.257 119.2 132.389 119.462C132.63 119.964 133.133 119.778 133.506 119.554C134.288 119.183 135.032 118.772 135.796 118.382C136.801 117.841 137.787 117.247 138.867 116.819C139.22 116.652 139.556 116.445 139.947 116.428C140.504 116.299 140.895 116.968 141.231 117.264C141.51 117.543 141.771 117.841 142.033 118.14C142.648 118.867 143.297 119.574 143.949 120.28C143.147 119.872 142.274 119.628 141.381 119.611C140.841 119.556 140.358 119.74 139.872 119.927C139.427 120.056 138.979 120.151 138.571 120.335C137.623 120.743 136.692 121.004 135.799 121.507C135.483 121.656 135.184 121.786 134.888 121.99C134.181 122.455 134.664 122.921 135.466 122.584C136.23 122.268 137.011 122.027 137.81 121.803C138.554 121.562 139.261 121.208 140.042 121.039C140.637 120.835 141.139 120.648 141.791 120.76C142.705 120.927 143.578 121.28 144.34 121.84C145.362 122.435 146.201 123.328 146.497 124.501C145.865 124.48 145.288 124.164 144.656 124.093L144.644 124.09Z" fill="#0D0C21"/>
    <path d="M74.4682 45.1749C74.1895 44.9508 73.5374 44.3562 73.276 44.0402C73.4053 44.0028 73.592 44.0229 73.7787 44.0402L74.3935 44.1149V43.4828C74.3935 42.5348 74.1149 41.6586 73.6121 40.9893C73.0175 40.2079 72.0666 39.7597 71.176 39.7971C69.8545 39.8517 68.4038 41.0985 68.3463 43.0146C68.3291 43.9827 68.625 45.9563 69.9091 47.2376C70.6905 48.0017 71.6759 48.3723 72.848 48.3723H73.1094C73.4254 48.3551 73.6495 48.0936 73.6495 47.7949C73.6495 47.4961 73.388 47.2548 73.072 47.2548C72.1039 47.2921 71.3053 47.0307 70.7078 46.436C69.685 45.4306 69.461 43.7759 69.4782 43.0491C69.4983 42.0809 70.2424 40.9663 71.2478 40.9089C71.8052 40.8916 72.3826 41.1703 72.756 41.673C73.0175 42.0062 73.1841 42.4372 73.2588 42.8997C73.1668 42.9169 73.072 42.9169 72.9801 42.9543C72.4975 43.0835 72.1413 43.4943 72.1039 43.9396C72.0292 44.6664 73.6121 45.9132 73.7989 46.0597C74.0402 46.2464 74.3935 46.2091 74.5802 45.9477C74.767 45.7064 74.7296 45.353 74.4682 45.1663V45.1749Z" fill="#0D0C21"/>
</svg>
