<svg xmlns="http://www.w3.org/2000/svg" width="48" height="48" fill="none"><path fill="#FED980" fill-rule="evenodd" d="M40.8 7.8a.6.6 0 1 1 .001-1.202A.6.6 0 0 1 40.8 7.8M24.6 45.6a.6.6 0 1 1 .001-1.202.6.6 0 0 1-.001 1.201M9 6a.6.6 0 1 1 0-1.202A.6.6 0 0 1 9 6m13.403 21.947-3.829-4.526-.073-.08a1.156 1.156 0 0 0-1.609-.023 1.26 1.26 0 0 0-.098 1.725l4.918 5.812a.898.898 0 0 0 1.371.003l10.519-12.314.066-.085a1.266 1.266 0 0 0-.156-1.64 1.155 1.155 0 0 0-1.682.095z" clip-rule="evenodd"/><path fill="#0D0C21" d="M6.864 27.021C5.196 17.557 11.514 8.533 20.98 6.864a17.39 17.39 0 0 1 16.025 5.571.6.6 0 0 1-.896.798 16.19 16.19 0 0 0-14.921-5.187c-8.811 1.553-14.694 9.956-13.14 18.767 1.553 8.81 9.955 14.694 18.766 13.14 8.811-1.553 14.695-9.956 13.141-18.767a.6.6 0 1 1 1.182-.208c1.668 9.464-4.65 18.489-14.114 20.157-9.464 1.669-18.489-4.65-20.158-14.114"/><path fill="#0D0C21" d="M42.135 28.154a.6.6 0 0 1 1.17.267 19.76 19.76 0 0 1-5.09 9.36.6.6 0 1 1-.86-.834 18.56 18.56 0 0 0 4.78-8.793M43.2 25.2a.6.6 0 1 0 0 1.2.6.6 0 0 0 0-1.2"/></svg>
