<svg width="188" height="171" viewBox="0 0 188 171" fill="none" xmlns="http://www.w3.org/2000/svg">
<g clip-path="url(#clip0_11879_23636)">
<path d="M124.581 130.504C124.496 130.41 123.03 130.184 122.353 129.423C121.076 127.995 121.474 124.355 121.39 122.488C121.079 115.746 120.812 108.094 121.621 101.388C121.7 100.734 121.995 98.0213 122.585 97.8527C123.133 97.6931 123.515 98.2713 123.527 98.7892C123.551 99.8431 122.967 101.837 122.88 103.071C122.356 110.313 122.398 117.591 122.744 124.809C122.768 125.324 122.988 125.884 122.88 126.444C125.363 125.029 128.127 124.367 130.945 123.945C135.912 123.201 142.521 123.132 147.437 124.192C148.954 124.52 150.363 125.357 151.907 125.376C150.556 116.354 149.099 107.257 146.416 98.5272C144.953 93.7634 142.843 87.7379 139.832 83.7631C134.549 76.789 123.38 75.1028 115.42 72.8594C111.903 80.9235 101.123 84.3142 92.9309 82.7001C92.2746 83.5373 91.7598 84.284 90.977 85.0338C90.676 85.3199 89.4657 86.0577 89.4176 86.142C89.2068 86.5093 89.4567 88.298 89.3574 88.9665C88.8365 92.5258 86.7021 94.3476 85.3714 97.1481C83.9173 100.205 82.8997 105.022 81.6925 108.413C79.3082 115.098 76.5716 121.705 73.4135 128.052C73.4587 128.598 81.6353 133.494 82.68 133.888C85.531 134.969 92.3799 134.235 95.6705 134.135C104.847 133.861 114.011 133.494 123.211 133.696C123.512 133.702 124.59 134.087 124.59 133.599C124.59 133.111 124.692 130.618 124.59 130.504H124.581Z" fill="#FED980"/>
<path d="M44.3287 115.559C44.9067 115.372 45.2679 114.827 45.8189 114.598C47.4295 113.933 50.5514 114.122 52.3247 114.282C53.3663 114.375 54.4652 114.722 55.5068 114.869C56.0909 114.755 57.8641 112.192 58.415 111.611C59.1797 110.801 62.5545 107.829 62.8014 107.031C63.1415 105.932 62.9699 103.176 63.1385 101.815C63.2891 100.602 64.2585 94.2902 65.0292 93.8777C66.7903 92.9291 65.4145 96.9521 65.3091 97.5815C64.8907 100.054 64.4361 102.601 64.3939 105.098C64.8997 104.748 65.3694 104.272 65.7818 103.821C68.0879 101.297 74.7472 92.6461 75.2259 89.5686C75.4938 87.8461 75.1145 86.1508 75.0543 84.5036C74.9218 80.9052 74.7803 77.3098 74.6328 73.7144C69.4215 75.2651 64.0176 76.9093 59.9052 80.6493C56.0517 84.1574 52.4722 91.5168 50.416 96.3499C49.4767 98.5632 43.579 114.559 44.3287 115.559Z" fill="#FED980"/>
<path d="M66.5254 142.461C66.4049 144.379 66.7241 146.854 67.9253 148.426C69.1536 150.037 75.0512 151.148 77.1165 151.401C84.7693 152.332 92.7532 151.627 100.46 151.853L87.8219 148.164C83.8059 145.834 79.9313 147.228 75.6985 146.198C72.4832 145.415 69.56 143.696 66.5223 142.461H66.5254Z" fill="#FED980"/>
<path d="M148.701 126.02V128.369C149.243 128.646 151.576 127.869 151.688 127.405C151.829 126.821 148.903 125.821 148.701 126.02Z" fill="#FED980"/>
<path d="M124.581 128.796C124.475 128.456 124.876 126.911 124.265 127.092C124.051 127.155 123.094 127.92 123.094 128.049C123.094 128.326 124.168 129.031 124.578 128.796H124.581Z" fill="#FED980"/>
<path d="M135.786 154.199C123.374 155.202 105.328 151.582 93.1597 148.375C90.9349 147.788 83.5079 144.976 82.0116 145.015C81.1867 145.036 80.0759 145.463 79.2359 145.454C78.0799 145.445 75.9755 144.867 74.8044 144.533C71.2008 143.506 67.8922 141.624 64.6077 139.893C64.5354 139.601 64.6649 139.54 64.8094 139.354C65.3031 138.724 66.6849 137.788 67.3864 137.02C69.4607 134.749 70.9659 132.009 72.6217 129.438C75.1657 130.699 77.3543 132.593 79.829 133.954C84.7813 136.683 88.3669 135.776 93.7317 135.62C105.087 135.282 116.079 134.638 127.462 135.415C128.654 135.496 131.394 136.141 132.327 136.014C133.426 135.864 133.206 135.002 132.327 134.605L125.863 133.921L125.89 126.475C127.272 126.095 128.669 125.686 130.087 125.442C134.269 124.725 138.818 124.547 143.044 124.954C143.656 125.014 147.214 125.427 147.392 125.945C147.38 135.216 148.644 153.157 135.786 154.199ZM92.7352 77.9212C92.69 77.7345 91.8772 76.2891 91.7839 76.2681C89.812 75.7682 85.4256 78.2464 83.9294 77.9905C83.1767 77.864 83.2941 76.9606 83.7608 76.7047C84.3689 76.3704 87.822 75.452 88.68 75.2713C89.6283 75.0756 90.5164 74.904 91.4979 74.9943C91.6062 74.8919 90.8747 72.3655 90.5074 72.242C90.0408 72.0824 88.4512 72.6004 87.8702 72.7539C86.5184 73.1093 83.0473 74.5787 81.9936 74.5818C81.2108 74.5818 80.9579 73.8771 81.4637 73.3893C82.2314 72.6455 88.5806 71.1851 90.0046 70.9381C90.2425 70.7063 89.3694 68.5653 89.1105 68.4117C88.409 67.9992 81.4005 70.5949 80.2414 71.1218C79.5249 71.2543 78.989 70.2907 79.543 69.7577C80.0367 69.282 81.536 69.294 82.117 68.7068C83.0051 67.8095 83.83 64.5423 84.9981 64.3224C86.2053 64.0966 88.4723 65.8973 89.4657 66.6742C89.839 66.9693 90.4562 67.8245 90.7994 67.9179C91.7929 68.1919 92.5034 67.3066 91.9374 66.337C91.3654 65.3583 87.4999 62.1483 86.3829 61.8592C83.3272 61.0733 80.6117 63.9189 78.7964 66.0268C75.265 70.1221 75.9845 73.7717 76.123 78.9541C76.2495 83.7058 77.6433 88.8822 75.2409 93.2123C68.5334 105.302 56.7231 114.496 48.1069 125.101C47.2097 125.631 46.5233 125.156 47.002 124.102L54.3598 115.989C52.2976 115.727 50.151 115.378 48.0617 115.556C46.8425 115.661 46.3066 115.842 45.8159 116.941C43.4195 122.319 42.1912 134.235 44.44 139.679C48.2123 148.815 59.6102 142.293 64.6077 137.872C71.3152 131.94 76.9268 117.308 79.9765 108.838C81.3042 105.152 82.4632 100.009 84.0227 96.6602C84.6248 95.3624 85.8772 94.1338 86.5515 92.7847C87.7256 90.4299 88.0749 87.9758 87.8671 85.353C87.7618 84.0371 86.7502 82.1821 87.8822 81.3059L91.0704 79.2673C90.6278 80.3091 89.0684 81.086 90.4321 81.8238C90.1311 81.7786 88.8245 81.8991 88.7221 82.0436C88.6469 82.149 89.1165 84.2569 89.258 84.6002C90.8897 83.1126 93.2891 80.3061 92.7352 77.9212ZM111.241 71.155C107.493 68.4238 107.385 63.2203 107.189 58.9865C103.715 62.9764 98.6509 65.3884 93.4186 66.0298C93.7588 67.0446 93.5721 68.0233 92.6991 68.7189C92.395 68.9628 92.0277 69.0471 91.7086 69.2579C91.0011 69.7276 91.1878 70.8147 91.6123 71.3597C92.5786 72.6034 92.8165 73.9675 93.0573 75.6778C93.1717 76.5059 94.0659 77.1805 94.2224 78.141C94.4331 79.4449 93.9394 80.2068 93.6323 81.3992C101.267 82.6097 110.187 79.6918 114.119 72.7509C113.201 72.1396 112.144 71.8114 111.241 71.155ZM116.202 43.7737C115.965 41.9609 114.477 40.4493 112.548 40.633C110.618 40.8167 110.365 43.316 108.212 42.1597C106.295 41.1268 106.286 37.0285 105.738 35.026C103.284 26.0555 95.2038 22.7522 86.6298 22.3216C85.3985 22.2583 85.2239 22.5655 84.2605 23.243C82.2374 24.6583 79.6634 27.3413 78.6549 29.5907C75.6263 36.3419 74.5184 50.1425 78.0136 56.7823C79.4467 59.5075 81.4727 61.2359 81.4727 61.2359C81.4727 61.2359 82.7221 60.6126 83.1556 60.456C84.119 60.1037 85.54 60.2181 86.5214 60.5162C87.8882 60.9348 89.1286 61.7267 90.1943 62.6663C90.6368 63.0577 91.0704 63.4582 91.5099 63.8527C91.7176 64.0364 92.0127 64.4068 92.2896 64.4911C95.6584 65.4878 102.926 61.4527 105.244 58.9624C107.345 56.701 107.671 54.9575 107.517 52.0125C107.442 50.537 109.04 51.8197 109.766 51.9191C114.149 52.5214 116.696 47.5347 116.202 43.7737Z" fill="white"/>
<path d="M153.371 125.3C153.036 121.175 151.808 115.417 150.983 111.25C149.09 101.698 145.263 84.9523 137.029 79.0924C129.909 74.0215 121.645 73.9823 114.128 71.0404C108.14 68.7006 108.784 61.9554 108.565 56.5623C124.361 50.9855 125.993 27.1816 112.846 17.9882V17.6781C120.562 9.33691 111.003 0.381465 102.074 0.0502278C94.68 -0.226807 87.9846 5.46144 91.7116 13.0799C86.2565 14.1037 80.398 17.1541 77.5109 22.0414C75.8491 24.8569 75.4968 27.4435 75.7016 30.6957C75.7407 31.313 76.0146 32.0507 76.0146 32.0507C76.0146 32.0507 74.8676 38.3533 74.6388 40.7322C73.9163 48.2001 74.6449 56.8574 80.395 62.2927C77.7608 65.2708 74.398 68.0201 74.6178 72.4135C69.3463 73.636 63.6413 75.6054 59.4807 79.1557C53.5801 84.1905 48.7271 96.112 46.1922 103.438C45.1114 106.558 42.8776 112.686 42.4621 115.721C42.3658 116.423 42.3026 117.733 42.4531 118.395C42.6247 119.16 43.4947 119.368 43.4857 120.139C39.581 133.656 41.27 153.25 60.2665 142.708C61.1155 142.238 62.9158 140.6 63.7527 140.838C65.3483 141.287 64.9027 142.241 65.0593 143.395C65.3995 145.903 65.7668 148.484 67.7567 150.248C64.0778 155.735 62.2414 160.845 59.9233 167.918C59.7457 168.457 60.2243 169.09 61.6242 169.038C61.6242 169.038 75.8461 169.632 99.515 169.632C118.981 169.632 132.146 169.21 136.207 169.059C136.888 169.035 137.351 168.37 137.153 167.722C136.436 165.395 135.611 163.115 134.651 160.893C133.859 159.056 132.965 157.55 132.158 155.723C132.483 155.726 132.658 155.705 132.989 155.68C137.099 155.4 141.097 155.027 143.999 151.742C148.701 146.418 148.764 136.601 148.915 129.868C151.627 129.669 153.608 128.218 153.371 125.303V125.3ZM111.241 71.1548C112.144 71.8112 113.201 72.1395 114.119 72.7507C110.187 79.6917 101.267 82.6096 93.6324 81.399C93.9394 80.2066 94.4332 79.4447 94.2224 78.1409C94.0659 77.1803 93.1717 76.5058 93.0573 75.6777C92.8165 73.9673 92.5787 72.6032 91.6123 71.3595C91.1878 70.8145 91.0011 69.7274 91.7086 69.2577C92.0277 69.0469 92.395 68.9626 92.6991 68.7187C93.5721 68.0231 93.7588 67.0444 93.4186 66.0296C98.6509 65.3882 103.715 62.9762 107.189 58.9863C107.385 63.2201 107.493 68.4236 111.241 71.1548ZM78.0137 56.7821C74.5184 50.1423 75.6263 36.3418 78.6549 29.5905C79.6634 27.3411 82.2374 24.6581 84.2605 23.2428C85.2239 22.5653 85.3985 22.2582 86.6298 22.3214C95.2039 22.752 103.284 26.0553 105.738 35.0258C106.286 37.0283 106.295 41.1266 108.212 42.1595C110.365 43.3158 110.618 40.8165 112.548 40.6328C114.477 40.4491 115.965 41.9607 116.202 43.7735C116.696 47.5346 114.149 52.5212 109.766 51.9189C109.04 51.8196 107.442 50.5368 107.517 52.0123C107.671 54.9573 107.345 56.7008 105.244 58.9622C102.926 61.4525 95.6585 65.4876 92.2896 64.4909C92.0127 64.4066 91.7176 64.0362 91.5099 63.8525C91.0704 63.458 90.6369 63.0575 90.1943 62.6661C89.1286 61.7266 87.8882 60.9346 86.5214 60.516C85.54 60.2179 84.119 60.1035 83.1557 60.4558C82.7221 60.6124 81.4728 61.2357 81.4728 61.2357C81.4728 61.2357 79.4467 59.5073 78.0137 56.7821ZM50.419 96.3499C52.4722 91.5198 56.0517 84.1573 59.9052 80.6492C64.0176 76.9093 69.4216 75.2651 74.6358 73.7143C74.7833 77.3098 74.9218 80.9052 75.0543 84.5036C75.1145 86.1508 75.4938 87.8461 75.2259 89.5686C74.7472 92.646 68.0879 101.297 65.7818 103.821C65.3664 104.272 64.8997 104.748 64.3939 105.098C64.4361 102.601 64.8907 100.054 65.3092 97.5815C65.4145 96.9521 66.7903 92.9291 65.0292 93.8776C64.2585 94.2902 63.2861 100.602 63.1385 101.815C62.97 103.176 63.1416 105.932 62.8014 107.031C62.5575 107.826 59.1827 110.801 58.415 111.611C57.8671 112.192 56.0939 114.752 55.5098 114.866C54.4712 114.721 53.3693 114.375 52.3277 114.282C50.5545 114.122 47.4325 113.933 45.8219 114.598C45.268 114.827 44.9097 115.372 44.3287 115.559C43.5821 114.562 49.4767 98.5631 50.419 96.3499ZM44.4401 139.679C42.1912 134.234 43.4195 122.319 45.8159 116.941C46.3066 115.842 46.8425 115.661 48.0617 115.556C50.1511 115.378 52.2976 115.727 54.3598 115.989L47.002 124.102C46.5234 125.155 47.2098 125.631 48.1069 125.101C56.7231 114.496 68.5334 105.302 75.2409 93.2122C77.6434 88.882 76.2495 83.7057 76.123 78.9539C75.9845 73.7716 75.265 70.1219 78.7964 66.0266C80.6117 63.9188 83.3273 61.0731 86.383 61.8591C87.4999 62.1481 91.3654 65.3581 91.9374 66.3368C92.5034 67.3064 91.7929 68.1917 90.7994 67.9177C90.4562 67.8243 89.8391 66.9691 89.4658 66.674C88.4723 65.8971 86.2053 64.0964 84.9981 64.3223C83.83 64.5421 83.0051 67.8093 82.117 68.7066C81.536 69.2938 80.0367 69.2818 79.543 69.7576C78.9891 70.2906 79.5249 71.2542 80.2415 71.1217C81.4005 70.5947 88.4091 67.999 89.1105 68.4115C89.3694 68.5651 90.2425 70.7061 90.0047 70.938C88.5807 71.1849 82.2314 72.6453 81.4637 73.3891C80.958 73.8769 81.2109 74.5816 81.9936 74.5816C83.0473 74.5816 86.5184 73.1091 87.8702 72.7538C88.4512 72.6002 90.0408 72.0822 90.5074 72.2418C90.8747 72.3653 91.6063 74.8917 91.4979 74.9941C90.5164 74.9038 89.6283 75.0754 88.68 75.2712C87.822 75.4518 84.3689 76.3703 83.7608 76.7045C83.2941 76.9605 83.1767 77.8638 83.9294 77.9903C85.4256 78.2463 89.812 75.768 91.7839 76.2679C91.8772 76.289 92.6901 77.7344 92.7352 77.9211C93.2892 80.306 90.8897 83.1124 89.258 84.6C89.1165 84.2567 88.6469 82.1488 88.7222 82.0434C88.8245 81.8989 90.1311 81.7785 90.4322 81.8236C89.0684 81.0859 90.6278 80.309 91.0704 79.2671L87.8822 81.3057C86.7503 82.182 87.7618 84.0369 87.8672 85.3528C88.0749 87.9756 87.7257 90.4298 86.5516 92.7846C85.8772 94.1336 84.6248 95.3622 84.0227 96.66C82.4632 100.009 81.3042 105.152 79.9765 108.838C76.9268 117.308 71.3152 131.94 64.6077 137.872C59.6102 142.292 48.2123 148.815 44.4401 139.679ZM86.6268 67.475C86.1421 67.5714 85.6544 67.6527 85.1637 67.722C84.977 67.7491 84.3508 67.7521 84.2455 67.9418C84.3117 67.8123 85.3112 65.8158 85.3112 65.8158C85.4196 65.602 87.1717 66.7975 87.3253 66.8939C87.9545 67.2974 86.8436 67.4329 86.6268 67.475ZM77.1165 151.398C75.0513 151.149 69.1536 150.034 67.9253 148.423C66.7271 146.855 66.408 144.379 66.5284 142.461C69.5661 143.693 72.4863 145.415 75.7016 146.198C79.9344 147.228 83.809 145.831 87.825 148.161L100.463 151.85C92.7563 151.624 84.7693 152.332 77.1165 151.398ZM135.786 154.199C123.374 155.202 105.328 151.582 93.1597 148.375C90.9349 147.788 83.5079 144.975 82.0117 145.015C81.1868 145.036 80.0759 145.463 79.2359 145.454C78.0799 145.445 75.9755 144.867 74.8044 144.533C71.2008 143.506 67.8922 141.624 64.6077 139.893C64.5354 139.6 64.6649 139.54 64.8094 139.353C65.3031 138.724 66.685 137.788 67.3864 137.02C69.4607 134.749 70.966 132.009 72.6218 129.437C75.1657 130.699 77.3543 132.593 79.829 133.954C84.7814 136.683 88.3669 135.776 93.7317 135.62C105.087 135.282 116.079 134.638 127.462 135.415C128.654 135.496 131.394 136.14 132.327 136.014C133.426 135.863 133.206 135.002 132.327 134.605L125.863 133.921L125.89 126.474C127.272 126.095 128.669 125.685 130.087 125.442C134.269 124.725 138.818 124.547 143.044 124.954C143.656 125.014 147.214 125.426 147.392 125.944C147.38 135.216 148.644 153.157 135.786 154.199ZM151.688 127.405C151.576 127.869 149.243 128.645 148.701 128.368V126.02C148.906 125.821 151.832 126.821 151.688 127.405ZM147.431 124.195C142.518 123.132 135.909 123.204 130.942 123.948C128.127 124.367 125.36 125.032 122.877 126.447C122.985 125.884 122.765 125.324 122.741 124.809C122.395 117.591 122.353 110.316 122.877 103.071C122.967 101.836 123.548 99.8429 123.524 98.789C123.515 98.271 123.13 97.6959 122.582 97.8525C121.995 98.0241 121.7 100.734 121.621 101.388C120.812 108.094 121.079 115.748 121.39 122.487C121.477 124.354 121.079 127.995 122.353 129.422C123.033 130.184 124.499 130.41 124.584 130.503C124.686 130.618 124.584 133.132 124.584 133.599C124.584 134.066 123.506 133.701 123.205 133.695C114.002 133.494 104.841 133.861 95.6645 134.135C92.3739 134.231 85.522 134.969 82.671 133.888C81.6263 133.491 73.4527 128.597 73.4075 128.052C76.5656 121.702 79.3022 115.098 81.6865 108.413C82.8937 105.022 83.9113 100.204 85.3654 97.1479C86.6961 94.3474 88.8305 92.5256 89.3514 88.9663C89.4507 88.2978 89.2008 86.5091 89.4116 86.1418C89.4597 86.0574 90.67 85.3227 90.971 85.0336C91.7538 84.2868 92.2686 83.54 92.9249 82.7029C101.117 84.3139 111.897 80.9263 115.414 72.8622C123.374 75.1055 134.543 76.7918 139.826 83.7659C142.837 87.7407 144.947 93.7662 146.41 98.53C149.093 107.257 150.553 116.354 151.904 125.378C150.357 125.36 148.951 124.523 147.431 124.195ZM124.581 128.796C124.171 129.031 123.097 128.323 123.097 128.049C123.097 127.917 124.054 127.155 124.268 127.092C124.876 126.911 124.475 128.456 124.581 128.796Z" fill="black"/>
<path d="M86.6539 40.657C85.5821 40.3439 85.4075 42.4096 84.8475 43.2557C84.0076 44.5174 82.6799 44.8065 82.6468 46.7036C82.6077 48.9289 85.0282 50.7899 87.1386 50.031C87.5661 48.1279 85.269 49.212 84.3689 47.6491C83.4476 46.0502 85.0733 45.463 85.9133 44.3217C86.41 43.6472 88.0176 41.0545 86.6539 40.657Z" fill="black"/>
<path d="M83.0081 54.2435C83.1526 54.4965 85.4497 55.7913 85.8892 55.9479C86.678 56.2249 87.7828 56.4598 88.6167 56.4357C89.8601 56.3996 93.3282 55.4691 93.2259 53.9665C93.1356 52.6686 90.7964 54.4122 90.2093 54.6019C88.7853 55.0656 87.84 55.0415 86.4401 54.5416C85.6995 54.2767 83.9685 52.9577 83.4958 52.9908C82.9208 53.03 82.7793 53.8521 83.0051 54.2435H83.0081Z" fill="black"/>
<path d="M95.806 34.1193C95.6163 34.0801 95.4236 34.044 95.231 34.0139C94.5295 33.9085 93.0995 33.6495 92.8044 34.568C92.4974 35.5225 93.807 35.5436 94.4181 35.5587C95.6223 35.5888 96.5947 35.64 97.6394 36.3295C98.4071 36.8354 99.0664 37.4919 99.7829 38.07C100.15 38.3682 100.918 38.5789 101.095 37.9436C101.385 36.9107 99.2711 35.5858 98.5576 35.1672C97.7086 34.6673 96.7723 34.318 95.809 34.1163L95.806 34.1193Z" fill="black"/>
<path d="M82.1531 32.3854C81.9333 32.3523 81.7376 32.3312 81.5871 32.3282C80.699 32.2951 77.3182 32.4697 77.854 34.0898C78.1732 35.0564 79.7597 33.9362 80.3408 33.8248C81.2499 33.6501 82.2254 33.8248 83.0141 34.3156C83.5801 34.6679 84.3508 35.3154 84.6398 34.2855C84.968 33.1232 83.258 32.5631 82.1561 32.3914L82.1531 32.3854Z" fill="black"/>
<path d="M114.288 44.1864C114.667 43.81 113.454 43.4878 113.24 43.4577C112.523 43.3583 111.735 43.7679 111.398 44.4092C111.19 44.8007 111.042 45.2343 110.88 45.6469C110.726 46.0323 110.151 47.029 110.335 47.4325C110.401 47.5801 110.567 47.6644 110.729 47.6795C110.982 47.7036 111.268 47.6283 111.458 47.4566C112.087 46.8875 112.108 45.9329 112.388 45.1861C112.56 44.7284 113.026 44.611 113.451 44.4966C113.637 44.4454 114.116 44.3581 114.288 44.1864Z" fill="black"/>
<path d="M95.5019 43.132C96.107 42.5237 95.7729 40.2713 94.6409 40.4369C92.5696 40.744 94.0388 44.6015 95.5019 43.132Z" fill="black"/>
<path d="M81.6293 42.0662C82.1742 41.5212 81.9936 39.856 81.0994 39.594C78.6428 38.8803 80.0277 43.6742 81.6293 42.0662Z" fill="black"/>
<path d="M180.361 53.2475C181.099 52.6573 185.419 52.4254 185.726 51.9979L185.831 44C185.729 43.6266 180.807 43.1659 180.165 42.5847C180.123 41.32 178.458 38.7875 178.561 37.8058C178.666 36.779 181.644 33.5479 181.517 32.9066L176.207 27.5315C175.168 27.0587 171.811 30.344 170.396 29.9525C169.662 29.2148 166.356 28.6788 165.95 28.197C165.387 27.5224 164.896 22.5268 164.667 22.3311H156.385C156.078 23.4633 155.726 27.8085 154.862 28.3837C153.525 28.4499 151.195 30.0549 150.072 30.0067C148.901 29.9585 145.637 27.2876 144.987 27.4532L139.598 32.9788C139.4 33.4155 142.582 37.306 142.654 38.1792C141.928 39.0344 141.432 42.136 140.778 42.6901C140.053 43.3104 135.45 43.6627 135.257 43.8916C135.51 46.1681 134.833 49.5256 135.233 51.6636C135.278 51.9075 135.302 52.0972 135.588 52.1605C136.443 52.3261 140.682 52.9223 141.013 53.4071C141.116 54.7321 142.874 57.397 142.702 58.4781C142.561 59.3483 139.656 62.6908 139.737 63.1605L145.27 68.5386C146.119 68.903 149.431 65.6027 150.653 65.684C151.412 66.3404 154.943 67.1444 155.31 67.6593C155.867 68.4362 156.192 72.9712 156.563 73.2392L164.547 73.3416C165.107 73.2121 165.182 67.8942 166.317 67.3823C167.392 67.31 169.972 65.5997 170.754 65.6478C171.877 65.7201 174.966 68.6199 175.469 68.5808L181.237 63.293C181.352 63.1395 181.349 62.9949 181.306 62.8173C181.017 61.6639 178.422 59.0291 178.597 57.9119C179.28 57.114 179.813 53.6902 180.361 53.2475ZM160.317 58.0625C154.621 58.0625 150.003 53.4432 150.003 47.746C150.003 42.0487 154.621 37.4264 160.317 37.4264C166.013 37.4264 170.634 42.0457 170.634 47.746C170.634 53.4463 166.016 58.0625 160.317 58.0625Z" fill="#A5A4B3"/>
<path d="M187.306 43.5542C186.933 41.7234 182.074 42.1691 181.382 41.4735C181.21 41.3018 180.524 38.5345 180.099 38.0316C180.843 36.0081 184.136 33.8761 182.514 31.696C181.969 30.9642 177.721 26.6822 177.058 26.2667C174.879 24.8966 172.052 28.6877 170.607 28.4619C170.375 28.4257 167.256 27.152 167.151 26.9954C166.392 25.8752 166.741 21.5601 165.323 20.9217L156.048 20.8193C154.088 21.1867 154.823 26.4353 153.679 27.2002C153.498 27.3206 150.286 28.4619 150.099 28.4438C148.618 28.2902 146.312 25.5922 144.566 25.9776C143.741 26.1583 140.592 29.6935 139.839 30.5427C139.177 31.2925 137.891 32.2079 138.009 33.2829C138.135 34.4693 141.113 37.3541 140.959 38.3719C140.926 38.5947 139.836 41.3048 139.713 41.4102C139.047 41.9643 135.931 42.0938 134.848 42.5244C133.863 42.9189 133.824 43.3916 133.731 44.3944C133.58 46.0355 133.502 50.7692 133.752 52.2899C134.095 54.4038 139.026 53.6118 139.824 54.5423C139.953 54.6898 141.197 58.0504 141.164 58.2431C141.043 58.9688 138.668 61.5043 138.337 62.4528C138.186 62.8895 138.129 63.3381 138.265 63.7868C138.623 64.9642 143.515 68.4603 144.421 69.8003C145.957 71.4113 149.744 67.0932 150.611 67.2347C151.363 67.3581 153.17 68.6199 154.193 68.671C154.567 70.0351 154.509 73.745 155.741 74.4888C156.81 75.1362 157.538 74.6092 158.595 74.6032C160.669 74.5881 162.719 74.6424 164.781 74.814C166.946 74.4707 166.302 70.0893 167.247 68.5265C167.912 68.668 170.541 67.1443 170.733 67.1714C171.82 67.3401 174.346 70.4025 175.842 70.0924C177.14 69.8244 181.228 65.0124 182.628 64.0578C183.919 62.4709 179.979 58.9778 180.159 57.948C180.328 56.9754 181.394 55.5571 181.376 54.3676C182.529 53.9581 186.656 53.8647 187.156 52.7867C187.884 51.2028 186.939 45.5959 187.306 43.5542ZM185.726 51.9978C185.419 52.4254 181.099 52.6572 180.361 53.2474C179.813 53.6901 179.28 57.1139 178.597 57.9119C178.422 59.029 181.017 61.6639 181.306 62.8172C181.348 62.9948 181.351 63.1394 181.237 63.293L175.469 68.5807C174.966 68.6199 171.877 65.72 170.754 65.6478C169.972 65.5996 167.392 67.31 166.317 67.3822C165.182 67.8941 165.107 73.212 164.547 73.3415L156.563 73.2391C156.192 72.9711 155.867 68.4362 155.31 67.6593C154.943 67.1443 151.412 66.3403 150.653 65.6839C149.431 65.6026 146.119 68.9029 145.27 68.5386L139.737 63.1605C139.655 62.6907 142.561 59.3482 142.702 58.478C142.874 57.3969 141.116 54.732 141.013 53.407C140.682 52.9222 136.443 52.326 135.588 52.1604C135.302 52.0971 135.278 51.9074 135.233 51.6635C134.833 49.5255 135.51 46.168 135.257 43.8915C135.45 43.6627 140.053 43.3103 140.778 42.69C141.432 42.1359 141.928 39.0344 142.654 38.1792C142.582 37.3059 139.4 33.4154 139.598 32.9787L144.987 27.4531C145.637 27.2875 148.901 29.9585 150.072 30.0066C151.195 30.0548 153.525 28.4498 154.862 28.3836C155.726 27.8084 156.078 23.4632 156.385 22.331H164.667C164.896 22.5267 165.387 27.5224 165.95 28.1969C166.356 28.6787 169.662 29.2147 170.396 29.9524C171.811 30.3439 175.168 27.0586 176.206 27.5314L181.517 32.9065C181.644 33.5479 178.666 36.7789 178.561 37.8058C178.458 38.7874 180.123 41.3199 180.165 42.5846C180.807 43.1658 185.729 43.6265 185.831 43.9999L185.726 51.9978ZM160.317 37.4264C154.621 37.4264 150.003 42.0456 150.003 47.7459C150.003 53.4462 154.621 58.0624 160.317 58.0624C166.013 58.0624 170.634 53.4432 170.634 47.7459C170.634 42.0486 166.016 37.4264 160.317 37.4264ZM160.314 56.6351C155.407 56.6351 151.43 52.6572 151.43 47.7489C151.43 42.8406 155.407 38.8597 160.314 38.8597C165.221 38.8597 169.201 42.8376 169.201 47.7489C169.201 52.6603 165.224 56.6351 160.314 56.6351Z" fill="black"/>
<path d="M29.3208 20.2352C16.3707 20.9869 7.77751 33.2424 11.6796 45.6426C13.7521 52.223 21.1845 60.2417 25.9411 65.2719C28.9703 68.4767 32.1434 71.6075 35.4505 74.5223C35.7122 74.5396 36.9237 72.2763 37.1615 71.8646C41.8431 63.6933 50.344 46.997 49.4893 37.683C48.579 27.756 39.2607 19.6583 29.3208 20.2352ZM31.5269 48.3821C26.5558 49.1537 21.9024 45.75 21.131 40.7808C20.3597 35.8115 23.7618 31.1543 28.7329 30.3826C33.704 29.611 38.3545 33.0152 39.1263 37.9874C39.8981 42.9596 36.495 47.6109 31.5269 48.3821Z" fill="#FED980"/>
<path d="M29.0917 18.7591C16.9078 19.4619 8.0015 30.0534 9.34582 42.1681C10.3805 51.5029 21.171 62.6083 27.6164 69.1164C28.5445 70.051 34.3205 75.8585 34.9137 76.0102C36.7819 76.4851 38.0939 73.2006 38.881 71.8138C43.6769 63.378 52.0131 46.8962 50.935 37.242C49.7338 26.5009 39.874 18.1337 29.0917 18.7591ZM49.4892 37.6828C50.344 46.9968 41.843 63.6931 37.1614 71.8644C36.9237 72.2761 35.7121 74.5394 35.4505 74.5221C32.1434 71.6072 28.9703 68.4765 25.9411 65.2717C21.1845 60.2415 13.7521 52.2228 11.6796 45.6423C7.77748 33.2421 16.3706 20.9867 29.3208 20.235C39.2607 19.6581 48.5789 27.7558 49.4892 37.6828ZM28.7329 30.3824C23.7618 31.1541 20.3592 35.8083 21.131 40.7805C21.9028 45.7528 26.5558 49.1535 31.5269 48.3819C36.498 47.6102 39.8976 42.9565 39.1263 37.9872C38.3549 33.0179 33.701 29.6112 28.7329 30.3824ZM31.3212 46.9389C27.1533 47.5859 23.2491 44.7302 22.602 40.5613C21.9549 36.3925 24.8097 32.4876 28.9775 31.8407C33.1454 31.1937 37.0496 34.0494 37.6967 38.2182C38.3438 42.3871 35.489 46.2919 31.3212 46.9389Z" fill="black"/>
</g>
<defs>
<clipPath id="clip0_11879_23636">
<rect width="187.374" height="170.024" fill="white"/>
</clipPath>
</defs>
</svg>
