<svg xmlns="http://www.w3.org/2000/svg" width="188" height="171" fill="none"><g clip-path="url(#a)"><path fill="#FED980" d="M124.581 130.504c-.085-.094-1.551-.32-2.228-1.081-1.277-1.428-.879-5.068-.963-6.935-.311-6.742-.578-14.394.231-21.1.079-.654.374-3.367.964-3.535.548-.16.93.418.942.936.024 1.054-.56 3.048-.647 4.282-.524 7.242-.482 14.52-.136 21.738.024.515.244 1.075.136 1.635 2.483-1.415 5.247-2.077 8.065-2.499 4.967-.744 11.576-.813 16.492.247 1.517.328 2.926 1.165 4.47 1.184-1.351-9.022-2.808-18.119-5.491-26.849-1.463-4.764-3.573-10.79-6.584-14.764-5.283-6.974-16.452-8.66-24.412-10.904-3.517 8.065-14.297 11.455-22.49 9.841-.655.837-1.17 1.584-1.953 2.334-.301.286-1.511 1.024-1.56 1.108-.21.367.04 2.156-.06 2.825-.52 3.559-2.655 5.38-3.986 8.181-1.454 3.057-2.471 7.874-3.678 11.265-2.385 6.685-5.121 13.292-8.28 19.639.046.546 8.222 5.442 9.267 5.836 2.851 1.081 9.7.347 12.99.247 9.177-.274 18.341-.641 27.541-.439.301.006 1.379.391 1.379-.097s.102-2.981 0-3.095zm-80.252-14.945c.578-.187.939-.732 1.49-.961 1.61-.665 4.732-.476 6.506-.316 1.041.093 2.14.44 3.182.587.584-.114 2.357-2.677 2.908-3.258.765-.81 4.14-3.782 4.386-4.58.34-1.099.169-3.855.337-5.216.151-1.213 1.12-7.525 1.891-7.937 1.761-.949.386 3.074.28 3.704-.418 2.472-.873 5.019-.915 7.516.506-.35.975-.826 1.388-1.277 2.306-2.524 8.965-11.175 9.444-14.252.268-1.723-.111-3.418-.172-5.065q-.2-5.397-.421-10.79c-5.212 1.551-10.615 3.195-14.728 6.935-3.853 3.508-7.433 10.868-9.489 15.7-.94 2.214-6.837 18.21-6.087 19.21m22.196 26.902c-.12 1.918.2 4.393 1.4 5.965 1.229 1.611 7.126 2.722 9.192 2.975 7.652.931 15.636.226 23.343.452l-12.638-3.689c-4.016-2.33-7.89-.936-12.124-1.966-3.215-.783-6.138-2.502-9.176-3.737z"/><path fill="#FED980" d="M148.701 126.02v2.349c.542.277 2.875-.5 2.987-.964.141-.584-2.785-1.584-2.987-1.385m-24.12 2.776c-.106-.34.295-1.885-.316-1.704-.214.063-1.171.828-1.171.957 0 .277 1.074.982 1.484.747z"/><path fill="#fff" d="M135.786 154.199c-12.412 1.003-30.458-2.617-42.626-5.824-2.225-.587-9.652-3.399-11.148-3.36-.825.021-1.936.448-2.776.439-1.156-.009-3.26-.587-4.432-.921-3.603-1.027-6.912-2.909-10.196-4.64-.073-.292.057-.353.201-.539.494-.63 1.876-1.566 2.577-2.334 2.075-2.271 3.58-5.011 5.236-7.582 2.544 1.261 4.732 3.155 7.207 4.516 4.952 2.729 8.538 1.822 13.903 1.666 11.355-.338 22.347-.982 33.73-.205 1.192.081 3.932.726 4.865.599 1.099-.15.879-1.012 0-1.409l-6.464-.684.027-7.446c1.382-.38 2.779-.789 4.197-1.033 4.182-.717 8.731-.895 12.957-.488.612.06 4.17.473 4.348.991-.012 9.271 1.252 27.212-11.606 28.254m-43.05-76.278c-.046-.187-.859-1.632-.952-1.653-1.972-.5-6.358 1.978-7.855 1.722-.752-.126-.635-1.03-.168-1.285.608-.335 4.061-1.253 4.919-1.434.948-.195 1.836-.367 2.818-.277.108-.102-.623-2.629-.99-2.752-.467-.16-2.057.358-2.638.512-1.352.355-4.823 1.825-5.876 1.828-.783 0-1.036-.705-.53-1.193.767-.743 7.117-2.204 8.54-2.45.239-.233-.635-2.374-.894-2.527-.701-.413-7.71 2.183-8.869 2.71-.716.132-1.252-.831-.698-1.364.494-.476 1.993-.464 2.574-1.051.888-.897 1.713-4.165 2.881-4.385 1.207-.225 3.474 1.575 4.468 2.352.373.295.99 1.15 1.333 1.244.994.274 1.704-.611 1.138-1.581-.572-.979-4.437-4.189-5.554-4.478-3.056-.786-5.771 2.06-7.587 4.168-3.531 4.095-2.812 7.745-2.673 12.927.126 4.752 1.52 9.928-.882 14.258-6.708 12.09-18.518 21.284-27.134 31.889-.897.53-1.584.055-1.105-.999l7.358-8.113c-2.062-.262-4.209-.611-6.298-.433-1.22.105-1.755.286-2.246 1.385-2.397 5.378-3.625 17.294-1.376 22.738 3.772 9.136 15.17 2.614 20.168-1.807 6.707-5.932 12.319-20.564 15.368-29.034 1.328-3.686 2.487-8.829 4.047-12.178.602-1.298 1.854-2.526 2.529-3.875 1.174-2.355 1.523-4.81 1.315-7.432-.105-1.316-1.117-3.17.015-4.047l3.188-2.039c-.442 1.042-2.002 1.819-.638 2.557-.3-.045-1.608.075-1.71.22-.075.105.395 2.213.536 2.556 1.632-1.487 4.031-4.294 3.477-6.679m18.505-6.766c-3.748-2.731-3.856-7.935-4.052-12.169-3.474 3.99-8.538 6.402-13.77 7.044.34 1.015.153 1.993-.72 2.689-.304.244-.671.328-.99.539-.708.47-.521 1.557-.097 2.102.967 1.243 1.205 2.608 1.445 4.318.115.828 1.009 1.502 1.165 2.463.211 1.304-.283 2.066-.59 3.258 7.635 1.21 16.555-1.707 20.487-8.648-.918-.611-1.975-.94-2.878-1.596m4.961-27.381c-.237-1.813-1.725-3.325-3.654-3.141-1.93.184-2.183 2.683-4.336 1.527-1.917-1.033-1.926-5.131-2.474-7.134-2.454-8.97-10.534-12.274-19.108-12.704-1.231-.064-1.406.244-2.37.921-2.023 1.415-4.597 4.098-5.605 6.348-3.029 6.75-4.137 20.551-.641 27.191 1.433 2.726 3.459 4.454 3.459 4.454s1.25-.623 1.683-.78c.963-.352 2.384-.238 3.365.06 1.367.419 2.608 1.21 3.673 2.15.443.392.876.792 1.316 1.187.208.183.503.554.78.638 3.368.997 10.636-3.038 12.954-5.529 2.101-2.261 2.427-4.004 2.273-6.95-.075-1.475 1.523-.192 2.249-.093 4.383.602 6.93-4.384 6.436-8.145"/><path fill="#000" d="M153.371 125.3c-.335-4.125-1.563-9.883-2.388-14.05-1.893-9.552-5.72-26.298-13.954-32.158-7.12-5.07-15.384-5.11-22.901-8.052-5.988-2.34-5.344-9.085-5.563-14.478 15.796-5.576 17.428-29.38 4.281-38.574v-.31C120.562 9.337 111.003.381 102.074.05c-7.394-.277-14.09 5.411-10.362 13.03-5.456 1.024-11.314 4.074-14.201 8.961-1.662 2.816-2.014 5.403-1.81 8.655.04.617.314 1.355.314 1.355s-1.147 6.302-1.376 8.681c-.723 7.468.006 16.125 5.756 21.56-2.634 2.979-5.997 5.728-5.777 10.121-5.272 1.223-10.977 3.192-15.137 6.743-5.9 5.034-10.754 16.956-13.289 24.282-1.08 3.12-3.314 9.248-3.73 12.283-.096.702-.16 2.012-.009 2.674.172.765 1.042.973 1.033 1.744-3.905 13.517-2.216 33.111 16.78 22.569.85-.47 2.65-2.108 3.487-1.87 1.595.449 1.15 1.403 1.306 2.557.34 2.508.708 5.089 2.698 6.853-3.68 5.487-5.516 10.597-7.834 17.67-.177.539.301 1.172 1.701 1.12 0 0 14.222.594 37.891.594 19.466 0 32.631-.422 36.692-.573a1.032 1.032 0 0 0 .946-1.337 67 67 0 0 0-2.502-6.829c-.792-1.837-1.686-3.343-2.493-5.17.325.003.5-.018.831-.043 4.11-.28 8.108-.653 11.01-3.938 4.702-5.324 4.765-15.141 4.916-21.874 2.712-.199 4.693-1.65 4.456-4.565zm-42.13-54.145c.903.656 1.96.984 2.878 1.596-3.932 6.94-12.852 9.859-20.487 8.648.307-1.192.801-1.954.59-3.258-.156-.96-1.05-1.635-1.165-2.463-.24-1.71-.478-3.075-1.445-4.318-.424-.546-.61-1.633.097-2.102.319-.211.686-.295.99-.54.873-.695 1.06-1.674.72-2.688 5.232-.642 10.296-3.054 13.77-7.044.196 4.234.304 9.438 4.052 12.169M78.014 56.782c-3.496-6.64-2.388-20.44.64-27.191 1.01-2.25 3.583-4.933 5.606-6.348.964-.678 1.138-.985 2.37-.922 8.574.431 16.654 3.734 19.108 12.705.548 2.002.557 6.1 2.474 7.133 2.153 1.157 2.406-1.343 4.336-1.526 1.929-.184 3.417 1.328 3.654 3.14.494 3.762-2.053 8.748-6.436 8.146-.726-.1-2.324-1.382-2.249.093.154 2.945-.172 4.689-2.273 6.95-2.318 2.49-9.585 6.526-12.954 5.529-.277-.084-.572-.455-.78-.639-.44-.394-.873-.794-1.316-1.186-1.065-.94-2.306-1.731-3.673-2.15-.981-.298-2.402-.413-3.365-.06-.434.156-1.683.78-1.683.78s-2.026-1.729-3.46-4.454M50.419 96.35c2.053-4.83 5.633-12.193 9.486-15.7 4.113-3.74 9.517-5.385 14.73-6.936q.221 5.393.42 10.79c.06 1.647.439 3.342.17 5.065-.478 3.077-7.137 11.728-9.443 14.252-.416.451-.882.927-1.388 1.277.042-2.497.497-5.044.915-7.516.106-.63 1.481-4.653-.28-3.704-.77.412-1.743 6.724-1.89 7.937-.169 1.361.003 4.117-.338 5.216-.244.795-3.618 3.77-4.386 4.58-.548.581-2.321 3.141-2.905 3.255-1.039-.145-2.14-.491-3.182-.584-1.774-.16-4.896-.349-6.506.316-.554.229-.912.774-1.493.961-.747-.997 5.148-16.996 6.09-19.21m-5.979 43.329c-2.249-5.445-1.02-17.36 1.376-22.738.49-1.099 1.026-1.28 2.246-1.385 2.09-.178 4.236.171 6.298.433l-7.358 8.113c-.479 1.053.208 1.529 1.105.999 8.616-10.605 20.426-19.799 27.134-31.889 2.402-4.33 1.008-9.506.882-14.258-.139-5.182-.858-8.832 2.673-12.927 1.816-2.108 4.531-4.954 7.587-4.168 1.117.29 4.982 3.5 5.554 4.478.566.97-.144 1.855-1.138 1.58-.343-.093-.96-.948-1.333-1.243-.994-.777-3.26-2.578-4.468-2.352-1.168.22-1.993 3.487-2.881 4.385-.581.587-2.08.575-2.574 1.05-.554.534-.018 1.497.698 1.365 1.16-.527 8.168-3.123 8.87-2.71.258.153 1.132 2.294.894 2.526-1.424.247-7.774 1.707-8.541 2.451-.506.488-.253 1.193.53 1.193 1.053 0 4.524-1.473 5.876-1.828.581-.154 2.17-.672 2.637-.512.368.123 1.1 2.65.99 2.752-.98-.09-1.869.081-2.817.277-.858.18-4.311 1.1-4.92 1.433-.466.257-.583 1.16.17 1.286 1.496.256 5.882-2.222 7.854-1.722.093.021.906 1.466.951 1.653.554 2.385-1.845 5.191-3.477 6.679-.141-.343-.611-2.451-.536-2.557.103-.144 1.41-.265 1.71-.22-1.364-.737.196-1.514.638-2.556l-3.188 2.039c-1.132.876-.12 2.73-.015 4.047.208 2.623-.141 5.077-1.315 7.432-.675 1.349-1.927 2.577-2.53 3.875-1.559 3.349-2.718 8.492-4.046 12.178-3.05 8.47-8.66 23.102-15.368 29.034-4.998 4.42-16.396 10.943-20.168 1.807m42.187-72.204a27 27 0 0 1-1.463.247c-.187.027-.813.03-.918.22l1.065-2.126c.109-.214 1.86.981 2.014 1.078.63.403-.481.539-.698.581m-9.51 83.923c-2.066-.249-7.963-1.364-9.192-2.975-1.198-1.568-1.517-4.044-1.397-5.962 3.038 1.232 5.958 2.954 9.174 3.737 4.232 1.03 8.107-.367 12.123 1.963l12.638 3.689c-7.707-.226-15.694.482-23.346-.452m58.669 2.801c-12.412 1.003-30.458-2.617-42.626-5.824-2.225-.587-9.652-3.4-11.148-3.36-.825.021-1.936.448-2.776.439-1.156-.009-3.26-.587-4.432-.921-3.603-1.027-6.912-2.909-10.196-4.64-.073-.293.057-.353.201-.54.494-.629 1.876-1.565 2.577-2.333 2.075-2.271 3.58-5.011 5.236-7.583 2.544 1.262 4.732 3.156 7.207 4.517 4.952 2.729 8.538 1.822 13.903 1.666 11.355-.338 22.347-.982 33.73-.205 1.192.081 3.932.725 4.865.599 1.099-.151.879-1.012 0-1.409l-6.464-.684.027-7.447c1.382-.379 2.779-.789 4.197-1.032 4.182-.717 8.731-.895 12.957-.488.612.06 4.17.472 4.348.99-.012 9.272 1.252 27.213-11.606 28.255m15.902-26.794c-.112.464-2.445 1.24-2.987.963v-2.348c.205-.199 3.131.801 2.987 1.385m-4.257-3.21c-4.913-1.063-11.522-.991-16.489-.247-2.815.419-5.582 1.084-8.065 2.499.108-.563-.112-1.123-.136-1.638-.346-7.218-.388-14.493.136-21.738.09-1.235.671-3.228.647-4.282-.009-.518-.394-1.093-.942-.936-.587.171-.882 2.881-.961 3.535-.809 6.706-.542 14.36-.231 21.099.087 1.867-.311 5.508.963 6.935.68.762 2.146.988 2.231 1.081.102.115 0 2.629 0 3.096s-1.078.102-1.379.096c-9.203-.201-18.364.166-27.54.44-3.291.096-10.143.834-12.994-.247-1.045-.397-9.218-5.291-9.264-5.836 3.159-6.35 5.895-12.954 8.28-19.639 1.207-3.391 2.224-8.209 3.678-11.265 1.331-2.8 3.466-4.622 3.986-8.182.1-.668-.15-2.457.06-2.824.049-.085 1.259-.82 1.56-1.108.783-.747 1.298-1.494 1.954-2.331 8.192 1.61 18.972-1.777 22.489-9.84 7.96 2.243 19.129 3.929 24.412 10.903 3.011 3.975 5.121 10 6.584 14.764 2.683 8.727 4.143 17.824 5.494 26.848-1.547-.018-2.953-.855-4.473-1.183m-22.85 4.601c-.41.235-1.484-.473-1.484-.747 0-.132.957-.894 1.171-.957.608-.181.207 1.364.313 1.704"/><path fill="#000" d="M86.654 40.657c-1.072-.313-1.246 1.753-1.806 2.599-.84 1.261-2.168 1.55-2.201 3.448-.04 2.225 2.381 4.086 4.492 3.327.427-1.903-1.87-.819-2.77-2.382-.921-1.599.704-2.186 1.544-3.327.497-.675 2.105-3.268.74-3.665m-3.645 13.587c.145.252 2.442 1.547 2.881 1.704.789.277 1.894.512 2.728.488 1.243-.036 4.711-.967 4.609-2.47-.09-1.297-2.43.446-3.017.636-1.424.464-2.369.44-3.769-.06-.74-.265-2.471-1.584-2.944-1.551-.575.039-.717.861-.49 1.252zM95.806 34.12q-.285-.06-.575-.106c-.701-.106-2.131-.364-2.427.554-.307.955 1.003.976 1.614.99 1.204.03 2.177.082 3.221.772.768.505 1.427 1.162 2.144 1.74.367.298 1.135.509 1.312-.126.29-1.033-1.824-2.358-2.537-2.777a9.1 9.1 0 0 0-2.749-1.05zm-13.653-1.735a5 5 0 0 0-.566-.057c-.888-.033-4.269.142-3.733 1.762.32.966 1.906-.154 2.487-.265a3.77 3.77 0 0 1 2.673.49c.566.353 1.337 1 1.626-.03.328-1.162-1.382-1.722-2.484-1.894zm32.135 11.801c.379-.376-.834-.698-1.048-.728-.717-.1-1.505.31-1.842.951-.208.392-.356.825-.518 1.238-.154.385-.729 1.382-.545 1.785.066.148.232.232.394.247a.98.98 0 0 0 .729-.222c.629-.57.65-1.524.93-2.27.172-.459.638-.576 1.063-.69.186-.052.665-.139.837-.31m-18.786-1.055c.605-.608.27-2.86-.861-2.695-2.071.307-.602 4.165.86 2.695M81.63 42.066c.544-.545.364-2.21-.53-2.472-2.457-.714-1.072 4.08.53 2.472"/><path fill="#A5A4B3" d="M180.361 53.248c.738-.59 5.058-.823 5.365-1.25l.105-7.998c-.102-.373-5.024-.834-5.666-1.415-.042-1.265-1.707-3.797-1.604-4.78.105-1.026 3.083-4.257 2.956-4.898l-5.31-5.375c-1.039-.473-4.396 2.812-5.811 2.42-.734-.737-4.04-1.273-4.446-1.755-.563-.675-1.054-5.67-1.283-5.866h-8.282c-.307 1.132-.659 5.477-1.523 6.053-1.337.066-3.667 1.67-4.79 1.623-1.171-.049-4.435-2.72-5.085-2.554l-5.389 5.526c-.198.437 2.984 4.327 3.056 5.2-.726.855-1.222 3.957-1.876 4.511-.725.62-5.328.973-5.521 1.202.253 2.276-.424 5.634-.024 7.772.045.243.069.433.355.496.855.166 5.094.762 5.425 1.247.103 1.325 1.861 3.99 1.689 5.071-.141.87-3.046 4.213-2.965 4.682l5.533 5.379c.849.364 4.161-2.936 5.383-2.855.759.656 4.29 1.46 4.657 1.975.557.777.882 5.312 1.253 5.58l7.984.103c.56-.13.635-5.448 1.77-5.96 1.075-.072 3.655-1.782 4.437-1.734 1.123.072 4.212 2.972 4.715 2.933l5.768-5.288c.115-.154.112-.298.069-.476-.289-1.153-2.884-3.788-2.709-4.905.683-.798 1.216-4.222 1.764-4.664m-20.044 4.815c-5.696 0-10.314-4.62-10.314-10.317s4.618-10.32 10.314-10.32 10.317 4.62 10.317 10.32-4.618 10.316-10.317 10.316"/><path fill="#000" d="M187.306 43.554c-.373-1.83-5.232-1.385-5.924-2.08-.172-.172-.858-2.94-1.283-3.442.744-2.024 4.037-4.156 2.415-6.336-.545-.732-4.793-5.014-5.456-5.43-2.179-1.37-5.006 2.422-6.451 2.196-.232-.036-3.351-1.31-3.456-1.467-.759-1.12-.41-5.435-1.828-6.073l-9.275-.103c-1.96.368-1.225 5.616-2.369 6.381-.181.12-3.393 1.262-3.58 1.244-1.481-.154-3.787-2.852-5.533-2.466-.825.18-3.974 3.715-4.727 4.565-.662.75-1.948 1.665-1.83 2.74.126 1.186 3.104 4.071 2.95 5.089-.033.223-1.123 2.933-1.246 3.038-.666.554-3.782.684-4.865 1.114-.985.395-1.024.868-1.117 1.87-.151 1.642-.229 6.375.021 7.896.343 2.114 5.274 1.322 6.072 2.252.129.148 1.373 3.508 1.34 3.701-.121.726-2.496 3.261-2.827 4.21-.151.436-.208.885-.072 1.334.358 1.177 5.25 4.673 6.156 6.013 1.536 1.611 5.323-2.707 6.19-2.565.752.123 2.559 1.385 3.582 1.436.374 1.364.316 5.074 1.548 5.818 1.069.647 1.797.12 2.854.114 2.074-.015 4.124.04 6.186.211 2.165-.343 1.521-4.725 2.466-6.287.665.141 3.294-1.383 3.486-1.356 1.087.17 3.613 3.231 5.109 2.921 1.298-.268 5.386-5.08 6.786-6.034 1.291-1.587-2.649-5.08-2.469-6.11.169-.973 1.235-2.39 1.217-3.58 1.153-.41 5.28-.503 5.78-1.581.728-1.584-.217-7.191.15-9.233m-1.58 8.444c-.307.427-4.627.66-5.365 1.25-.548.442-1.081 3.866-1.764 4.664-.175 1.117 2.42 3.752 2.709 4.905.042.178.045.322-.069.476l-5.768 5.288c-.503.039-3.592-2.861-4.715-2.933-.782-.048-3.362 1.662-4.437 1.734-1.135.512-1.21 5.83-1.77 5.96l-7.984-.103c-.371-.268-.696-4.803-1.253-5.58-.367-.515-3.898-1.319-4.657-1.975-1.222-.081-4.534 3.219-5.383 2.855l-5.533-5.379c-.082-.47 2.824-3.812 2.965-4.682.172-1.081-1.586-3.746-1.689-5.071-.331-.485-4.57-1.081-5.425-1.247-.286-.063-.31-.253-.355-.496-.4-2.139.277-5.496.024-7.773.193-.228 4.796-.58 5.521-1.201.654-.554 1.15-3.656 1.876-4.51-.072-.874-3.254-4.765-3.056-5.201l5.389-5.526c.65-.165 3.914 2.506 5.085 2.554 1.123.048 3.453-1.557 4.79-1.623.864-.576 1.216-4.92 1.523-6.053h8.282c.229.196.72 5.191 1.283 5.866.406.482 3.712 1.018 4.446 1.755 1.415.392 4.772-2.893 5.81-2.42l5.311 5.375c.127.64-2.851 3.872-2.956 4.899-.103.981 1.562 3.514 1.604 4.779.642.58 5.564 1.041 5.666 1.415zm-25.409-14.572c-5.696 0-10.314 4.62-10.314 10.32s4.618 10.316 10.314 10.316 10.317-4.619 10.317-10.316-4.618-10.32-10.317-10.32m-.003 19.21a8.884 8.884 0 0 1-8.884-8.887c0-4.908 3.977-8.89 8.884-8.89a8.89 8.89 0 0 1 8.887 8.89 8.883 8.883 0 0 1-8.887 8.886"/><path fill="#FED980" d="M29.32 20.235c-12.95.752-21.542 13.007-17.64 25.408 2.072 6.58 9.505 14.599 14.261 19.629 3.03 3.205 6.202 6.335 9.51 9.25.261.018 1.473-2.246 1.71-2.657 4.682-8.172 13.183-24.868 12.328-34.182-.91-9.927-10.228-18.025-20.168-17.448m2.207 28.147a9.106 9.106 0 0 1-10.396-7.601c-.771-4.97 2.63-9.627 7.602-10.398 4.971-.772 9.622 2.632 10.393 7.604a9.104 9.104 0 0 1-7.6 10.395"/><path fill="#000" d="M29.092 18.76c-12.184.702-21.09 11.293-19.746 23.408 1.034 9.335 11.825 20.44 18.27 26.948.928.935 6.705 6.743 7.298 6.894 1.868.475 3.18-2.81 3.967-4.196 4.796-8.436 13.132-24.918 12.054-34.572-1.201-10.741-11.061-19.108-21.843-18.483m20.397 18.923c.855 9.314-7.646 26.01-12.328 34.181-.237.412-1.449 2.675-1.71 2.658-3.308-2.915-6.48-6.046-9.51-9.25-4.756-5.03-12.189-13.05-14.261-19.63-3.903-12.4 4.69-24.655 17.64-25.407 9.94-.577 19.259 7.52 20.17 17.448m-20.756-7.3A9.107 9.107 0 0 0 21.13 40.78a9.104 9.104 0 0 0 10.396 7.6 9.104 9.104 0 0 0 7.6-10.394c-.772-4.97-5.426-8.376-10.394-7.605m2.588 16.556a7.64 7.64 0 0 1-8.719-6.378 7.64 7.64 0 0 1 6.375-8.72 7.64 7.64 0 0 1 8.72 6.377 7.64 7.64 0 0 1-6.376 8.72"/></g><defs><clipPath id="a"><path fill="#fff" d="M0 0h187.374v170.024H0z"/></clipPath></defs></svg>
