<svg width="235" height="132" viewBox="0 0 235 132" fill="none" xmlns="http://www.w3.org/2000/svg">
    <rect width="234.667" height="132" fill="#FEF6E3"/>
    <path fill-rule="evenodd" clip-rule="evenodd" d="M122.763 103.48C145.466 101.634 173.317 105.013 186.343 92.7313C199.29 80.525 184.705 65.9225 176.201 53.0986C169.385 42.8193 160.248 33.4446 144.073 28.9821C126.446 24.1194 106.327 23.4778 87.9132 28.7417C66.0253 34.9988 44.7563 44.6929 38.4292 59.1822C31.4957 75.0605 36.2133 93.3501 55.3186 103.386C72.9273 112.635 99.1001 105.404 122.763 103.48Z" fill="#FEECC2"/>
    <path d="M74.2768 74.8635L59.4194 50.7692H50.7811V84.1014H57.521V60.007L72.3784 84.1014H81.0167V50.7692H74.2768V74.8635Z" fill="#161616"/>
    <path d="M96.3459 50.7692H89.6059V84.1014H96.3459V50.7692Z" fill="#161616"/>
    <path d="M114.145 55.7213C116.66 55.7213 118.844 57.3885 120.79 59.9119L125.726 55.4364C122.878 52.0564 119.081 49.8177 114.097 49.8177C107.738 49.8177 103.371 54.1984 103.371 59.4846C103.371 70.7695 118.465 69.104 118.465 75.2467C118.465 77.6279 116.851 79.0558 114.194 79.0558C111.536 79.0558 108.83 77.533 106.837 74.9601L101.948 79.4832C104.891 83.0074 108.641 85.0544 114.241 85.0544C120.364 85.0544 125.205 81.2928 125.3 75.0077C125.3 63.5803 110.206 65.2933 110.206 59.2455C110.206 57.246 111.771 55.7213 114.145 55.7213Z" fill="#161616"/>
    <path d="M159.006 42.5243C159.823 42.5243 160.631 42.7397 161.341 43.1451L179.032 53.275C180.495 54.1128 181.407 55.6849 181.407 57.3775V77.4948C181.407 79.1873 180.497 80.7579 179.032 81.5973L161.341 91.7271C160.631 92.1341 159.825 92.3479 159.006 92.3479C158.188 92.3479 157.382 92.1324 156.672 91.7271L138.981 81.5973C137.517 80.7596 136.606 79.1873 136.606 77.4948V57.3775C136.606 55.6849 137.515 54.1144 138.981 53.275L156.672 43.1451C157.382 42.738 158.188 42.5243 159.006 42.5243ZM159.006 40.15C157.796 40.15 156.586 40.4604 155.5 41.0828L137.81 51.2127C135.603 52.4762 134.241 54.8284 134.241 57.3775V77.4948C134.241 80.0437 135.603 82.396 137.81 83.6596L155.5 93.7894C156.587 94.4119 157.798 94.7222 159.006 94.7222C160.215 94.7222 161.427 94.4119 162.512 93.7894L180.203 83.6596C182.409 82.396 183.772 80.0437 183.772 77.4948V57.3775C183.772 54.8284 182.409 52.4762 180.203 51.2127L162.512 41.0828C161.425 40.4604 160.215 40.15 159.006 40.15Z" fill="#FDC82E"/>
    <path d="M162.091 68.996C164.305 66.8354 166.353 64.3967 166.353 61.1897C166.353 57.2483 163.221 54.3889 158.906 54.3889C155.143 54.3889 152.176 56.1188 150.089 59.5293L149.722 60.1279L154.297 62.9263L154.657 62.3191C155.852 60.3078 156.967 59.487 158.507 59.487C159.896 59.487 160.725 60.284 160.725 61.6221C160.725 63.0416 159.924 64.0152 158.234 65.745L150.661 73.2223V77.9745H166.906V72.8153H158.149L162.091 68.9977V68.996Z" fill="#161616"/>
    <path d="M50.8654 45.2054V37.8455H51.909V44.3012H55.0398V45.2054H50.8654Z" fill="#161616"/>
    <path d="M58.1055 45.3526C57.0063 45.3526 56.2625 44.7743 56.2625 43.8701C56.2625 43.071 56.9064 42.5032 58.0944 42.314L59.9817 42.0196V41.6516C59.9817 40.9156 59.4266 40.495 58.6273 40.495C57.9833 40.495 57.4615 40.7789 57.1174 41.231L56.4068 40.7158C56.8953 40.085 57.6836 39.696 58.6606 39.696C60.0817 39.696 60.9254 40.4845 60.9254 41.6516V45.2054H59.9817V44.5325C59.5598 45.0477 58.8271 45.3526 58.1055 45.3526ZM57.2173 43.8385C57.2173 44.2907 57.6059 44.6166 58.2609 44.6166C59.0047 44.6166 59.6154 44.2801 59.9817 43.7124V42.6715L58.3275 42.9343C57.5615 43.0605 57.2173 43.3864 57.2173 43.8385Z" fill="#161616"/>
    <path d="M65.3336 42.5558C65.3336 41.0102 66.4549 39.696 68.2091 39.696C69.0417 39.696 69.6968 40.0009 70.1964 40.5371V37.3198H71.14V45.2054H70.1964V44.5745C69.6968 45.1108 69.0417 45.4157 68.2091 45.4157C66.4549 45.4157 65.3336 44.1014 65.3336 42.5558ZM66.3328 42.5558C66.3328 43.6808 67.1322 44.5745 68.3201 44.5745C69.0972 44.5745 69.7856 44.2171 70.1964 43.5967V41.5149C69.7634 40.8841 69.0861 40.5371 68.3201 40.5371C67.1322 40.5371 66.3328 41.4308 66.3328 42.5558Z" fill="#161616"/>
    <path d="M73.6067 38.5289C73.2404 38.5289 72.9406 38.245 72.9406 37.898C72.9406 37.5616 73.2404 37.2777 73.6067 37.2777C73.9731 37.2777 74.2618 37.5616 74.2618 37.898C74.2618 38.245 73.9731 38.5289 73.6067 38.5289ZM73.1293 45.2054V39.9063H74.073V45.2054H73.1293Z" fill="#161616"/>
    <path d="M76.0675 45.2054V39.9063H77.0112V40.5686C77.422 40.106 77.9327 39.8011 78.6432 39.8011C78.8209 39.8011 78.9874 39.8221 79.1206 39.8642V40.7369C78.9541 40.6948 78.7875 40.6738 78.5655 40.6738C77.8328 40.6738 77.3554 41.0313 77.0112 41.5675V45.2054H76.0675Z" fill="#161616"/>
    <path d="M85.1179 44.3327C84.5961 44.9951 83.7634 45.4157 82.7198 45.4157C80.8324 45.4157 79.6667 44.1014 79.6667 42.5558C79.6667 40.9472 80.7547 39.696 82.4867 39.696C84.0077 39.696 84.9958 40.7053 84.9958 42.0091C84.9958 42.2194 84.9625 42.4191 84.9291 42.5663H80.6326C80.6659 43.8385 81.5208 44.6061 82.7198 44.6061C83.4415 44.6061 84.0521 44.2907 84.4184 43.8175L85.1179 44.3327ZM82.4645 40.453C81.543 40.453 80.899 40.9682 80.6992 41.8829H84.0521C84.0188 41.1049 83.4526 40.453 82.4645 40.453Z" fill="#161616"/>
    <path d="M89.1491 44.5745C89.8374 44.5745 90.4037 44.2591 90.7478 43.7965L91.4917 44.3327C90.9699 44.9951 90.1594 45.4157 89.138 45.4157C87.2839 45.4157 86.096 44.1014 86.096 42.5558C86.096 41.0102 87.2839 39.696 89.138 39.696C90.1483 39.696 90.9699 40.127 91.4917 40.7789L90.7478 41.3151C90.4037 40.8525 89.8374 40.5371 89.138 40.5371C87.939 40.5371 87.0841 41.4308 87.0841 42.5558C87.0841 43.6913 87.939 44.5745 89.1491 44.5745Z" fill="#161616"/>
    <path d="M93.0861 43.4285V40.7158H92.0314V39.9063H93.0861V38.5815H94.0409V39.9063H95.9838V40.7158H94.0409V43.4285C94.0409 44.2591 94.485 44.4904 95.1622 44.4904C95.5286 44.4904 95.784 44.4484 95.9949 44.3643V45.1633C95.7285 45.2685 95.4287 45.3105 95.029 45.3105C93.7856 45.3105 93.0861 44.7217 93.0861 43.4285Z" fill="#161616"/>
    <path d="M97.9036 38.5289C97.5372 38.5289 97.2375 38.245 97.2375 37.898C97.2375 37.5616 97.5372 37.2777 97.9036 37.2777C98.27 37.2777 98.5586 37.5616 98.5586 37.898C98.5586 38.245 98.27 38.5289 97.9036 38.5289ZM97.4262 45.2054V39.9063H98.3699V45.2054H97.4262Z" fill="#161616"/>
    <path d="M99.5206 39.9063H100.542L102.329 44.2696L104.117 39.9063H105.138L102.951 45.2054H101.708L99.5206 39.9063Z" fill="#161616"/>
    <path d="M111.182 44.3327C110.66 44.9951 109.828 45.4157 108.784 45.4157C106.897 45.4157 105.731 44.1014 105.731 42.5558C105.731 40.9472 106.819 39.696 108.551 39.696C110.072 39.696 111.06 40.7053 111.06 42.0091C111.06 42.2194 111.027 42.4191 110.993 42.5663H106.697C106.73 43.8385 107.585 44.6061 108.784 44.6061C109.506 44.6061 110.116 44.2907 110.483 43.8175L111.182 44.3327ZM108.529 40.453C107.607 40.453 106.963 40.9682 106.763 41.8829H110.116C110.083 41.1049 109.517 40.453 108.529 40.453Z" fill="#161616"/>
</svg>
