<svg xmlns="http://www.w3.org/2000/svg" width="240" height="186" fill="none"><g clip-path="url(#a)"><g clip-path="url(#b)"><path fill="#BFC9E7" d="M237.947 98.595q-.045-.571-.068-1.15c-.021-.321-.041-.555-.407-.582-.328-.081-.693-.01-1.001-.146-3.156-.174-6.322-.114-9.478-.185-2.29.016-4.591.076-6.88.027-.939-.06-1.847-.125-2.781-.098-2.785.174-5.576.207-8.367.196-5.492.147-10.99.277-16.483.25-1.315-.006-2.624.13-3.933.217-.647.032-1.294.016-1.93.146-.167.06-.402.06-.491.24-.193 1.15-.099 2.285.042 3.425.016.657.047 1.314.104 1.971.016.842-.078 1.684.006 2.525.151 1.352-.068 1.254 1.272 1.591 1.169.201 2.363.19 3.547.163 2.228 0 4.455-.022 6.683.005 2.801.066 5.597 0 8.398-.135 2.801-.033 5.602-.055 8.403-.245 3.907-.163 7.819-.298 11.721-.516 2.165-.054 4.33-.114 6.495-.114 1.862-.086 3.75.06 5.591-.304.199-.7.131-1.449.115-2.166.021-1.727-.417-3.404-.547-5.126zm-44.025 23.889c.047-1.602-.234-3.177-.213-4.778-.647-.326-1.508-.141-2.144-.114-.825.032-1.649.125-2.473.195-.568.049-1.137.022-1.711-.022-1.575-.081-3.151 0-4.726-.038-4.434.049-8.868-.135-13.296-.021-3.302-.017-6.594.315-9.89.184-5.629.071-11.268-.744-16.87.011.224.69.042 1.461.042 2.177-.005 1.857-.193 3.709-.23 5.566-.015.429-.021.863-.036 1.292-.016.684-.125 1.423.229 2.036.673.169 1.388.114 2.076.114 2.739-.184 5.483-.141 8.227-.097 2.201-.125 4.407-.104 6.614-.201 2.785-.049 5.576-.082 8.362-.06q4.25.245 8.507.228c2.212-.043 4.424-.13 6.641-.141 2.634.049 5.263.087 7.892-.022 1.132.005 2.269-.049 3.385-.266-.198-2.009-.558-4.012-.386-6.038z"/><path fill="#0D0C21" d="M239.606 102.201c-.152-1.107-.501-2.177-.658-3.284-.214-1.982-.052-3.123-2.415-2.927-2.024-.375-4.074-.407-6.134-.434-1.852-.017-3.699-.055-5.55-.022-1.633 0-3.261.081-4.893.038-1.477-.114-2.968-.07-4.439.049-2.739.239-5.493.043-8.237.146-5.493.147-10.986.06-16.473.277-.876.065-1.753.18-2.629.223-.861.087-2.165-.044-2.77.695-.428.64-.344 1.493-.428 2.237-.031 1.292.11 2.59.063 3.887-.104 1.195-.172 2.4.125 3.573.057.331.167.663.402.907 1.888 1.498 5.602.88 7.929 1.032 3.359 0 6.713-.136 10.072-.207 2.217-.038 4.439.033 6.656-.043 2.833-.049 5.66-.31 8.487-.473 2.228-.162 4.46-.162 6.688-.347 2.712-.152 5.424-.326 8.147-.266 1.826-.065 3.756.228 5.498-.445.819-.657.626-1.998.632-2.96-.027-.543-.016-1.096-.073-1.639zm-1.226 3.682c-1.842.364-3.725.217-5.592.304-2.165 0-4.33.06-6.494.114-3.908.212-7.815.353-11.722.516-2.795.19-5.602.211-8.403.244-2.796.136-5.597.201-8.398.136-2.228-.027-4.455-.011-6.682-.006-1.184.027-2.374.038-3.547-.163-1.336-.342-1.122-.239-1.273-1.591-.084-.841.01-1.683-.005-2.524a31 31 0 0 1-.105-1.971c-.141-1.14-.24-2.28-.042-3.426.089-.18.324-.18.491-.24.636-.13 1.288-.113 1.93-.146 1.309-.087 2.618-.222 3.933-.217 5.493.027 10.991-.103 16.483-.25 2.791.011 5.582-.022 8.367-.195.934-.033 1.842.038 2.781.097 2.284.05 4.59-.01 6.88-.027 3.161.07 6.322.017 9.478.185.308.136.673.065 1.002.147.365.032.386.26.407.58.015.386.036.766.067 1.152.136 1.715.569 3.393.548 5.125.016.722.083 1.472-.115 2.167z"/><path fill="#fff" d="M237.947 98.595q-.045-.571-.068-1.15c-.021-.321-.041-.555-.407-.582-.328-.081-.693-.01-1.001-.146-3.156-.174-6.322-.114-9.478-.185-2.29.016-4.591.076-6.88.027-.939-.06-1.847-.125-2.781-.098-2.785.174-5.576.207-8.367.196-5.492.147-10.99.277-16.483.25-1.315-.006-2.624.13-3.933.217-.647.032-1.294.016-1.93.146-.167.06-.402.06-.491.24-.193 1.15-.099 2.285.042 3.425.016.657.047 1.314.104 1.971.016.842-.078 1.684.006 2.525.151 1.352-.068 1.254 1.272 1.591 1.169.201 2.363.19 3.547.163 2.228 0 4.455-.022 6.683.005 2.801.066 5.597 0 8.398-.135 2.801-.033 5.602-.055 8.403-.245 3.907-.163 7.819-.298 11.721-.516 2.165-.054 4.33-.114 6.495-.114 1.862-.086 3.75.06 5.591-.304.199-.7.131-1.449.115-2.166.021-1.727-.417-3.404-.547-5.126zm-43.118 30.489-.892-12.048-51.443.473-.725 11.999z"/><path fill="#0D0C21" d="M239.606 102.201c-.152-1.107-.501-2.177-.658-3.284-.214-1.982-.052-3.123-2.415-2.927-2.024-.375-4.074-.407-6.134-.434-1.852-.017-3.699-.055-5.55-.022-1.633 0-3.261.081-4.893.038-1.477-.114-2.968-.07-4.439.049-2.739.239-5.493.043-8.237.146-5.493.147-10.986.06-16.473.277-.876.065-1.753.18-2.629.223-.861.087-2.165-.044-2.77.695-.428.64-.344 1.493-.428 2.237-.031 1.292.11 2.59.063 3.887-.104 1.195-.172 2.4.125 3.573.057.331.167.663.402.907 1.888 1.498 5.602.88 7.929 1.032 3.359 0 6.713-.136 10.072-.207 2.217-.038 4.439.033 6.656-.043 2.833-.049 5.66-.31 8.487-.473 2.228-.162 4.46-.162 6.688-.347 2.712-.152 5.424-.326 8.147-.266 1.826-.065 3.756.228 5.498-.445.819-.657.626-1.998.632-2.96-.027-.543-.016-1.096-.073-1.639zm-1.226 3.682c-1.842.364-3.725.217-5.592.304-2.165 0-4.33.06-6.494.114-3.908.212-7.815.353-11.722.516-2.795.19-5.602.211-8.403.244-2.796.136-5.597.201-8.398.136-2.228-.027-4.455-.011-6.682-.006-1.184.027-2.374.038-3.547-.163-1.336-.342-1.122-.239-1.273-1.591-.084-.841.01-1.683-.005-2.524a31 31 0 0 1-.105-1.971c-.141-1.14-.24-2.28-.042-3.426.089-.18.324-.18.491-.24.636-.13 1.288-.113 1.93-.146 1.309-.087 2.618-.222 3.933-.217 5.493.027 10.991-.103 16.483-.25 2.791.011 5.582-.022 8.367-.195.934-.033 1.842.038 2.781.097 2.284.05 4.59-.01 6.88-.027 3.161.07 6.322.017 9.478.185.308.136.673.065 1.002.147.365.032.386.26.407.58.015.386.036.766.067 1.152.136 1.715.569 3.393.548 5.125.016.722.083 1.472-.115 2.167zm-43.144 22.436a15 15 0 0 0-.177-2.286c-.297-1.981.016-3.99-.089-5.983-.12-.901.162-2.004-.161-2.889-.751-1.2-2.348-.874-3.521-.809-.819.028-1.633.136-2.452.207-1.695.016-3.396-.109-5.096-.049-6.646.043-13.286-.185-19.921.244a83 83 0 0 1-8.143-.043c-1.309 0-2.603-.006-3.912-.087-3.109-.016-6.265-.31-9.332.364-.407.114-.72.45-.72.901 0 .06-.115 1.156-.24 2.59-.266 1.895-.35 3.839-.391 5.75-.006 1.249-.24 2.612.584 3.659.678.674 1.727.516 2.592.565 1.56-.016 3.12-.168 4.685-.136 1.685-.032 3.369.082 5.054-.027 1.268-.108 2.561-.114 3.839-.19a53 53 0 0 1 3.516-.206c4.742.016 9.489-.103 14.23.016 3.297.033 6.594-.06 9.89-.038 1.644.016 3.282-.005 4.925-.06.793 0 1.58.055 2.373 0a6.1 6.1 0 0 0 1.998-.32c.553-.168.532-.695.464-1.184zm-4.313.462c-2.629.108-5.259.065-7.893.022-2.211.005-4.428.097-6.64.141q-4.258.016-8.508-.228c-2.785-.022-5.576.011-8.362.059-2.201.098-4.407.076-6.614.201-2.744-.038-5.482-.087-8.226.098-.689 0-1.403.054-2.076-.114-.36-.614-.251-1.352-.23-2.036.016-.429.021-.863.037-1.292.036-1.857.224-3.709.229-5.566 0-.537.105-1.102.058-1.645a.564.564 0 0 1 .495-.603c5.404-.624 10.85.131 16.275.066 3.302.13 6.594-.207 9.89-.185 4.434-.114 8.863.071 13.297.022 1.575.043 3.15-.049 4.726.038.876.07 1.758.087 2.639-.125.417-.098.845-.082 1.273-.055.647.044 1.674-.26 2.415.115-.026 1.601.256 3.176.214 4.778-.172 2.03.188 4.028.386 6.037-1.116.212-2.254.272-3.385.266zm-56.232 14.753s.003.014.007.022c0 0-.003-.015-.007-.022"/><path fill="#fff" d="M116.491 130.832c-13.943-.874-25.565 7.976-37.63 13.623 8.001-15.013 15.471-30.097 19.08-46.397-.067-5.055-5.597-3.589-8.82-2.758-13.88 4.263-19.353 19.818-25.847 31.878-.167-6.57 3.646-14.362 1.575-20.736-14.115-4.849-19.28 15.154-20.26 26.187-16.384-.087-15.325 23.185-21.867 33.952-15.445 5.049-34.166 6.727-49.967 2.611.199-.108.407-.201.616-.298 18.147-2.889 41.261-9.22 46.634-30.32.668-7.129-2.217-16.468-10.49-16.044-19.39 2.302-36.713 13.59-55.371 19.08-15.096 3.415-31.131 3.985-45.163 11.603-19.973 10.62-31.329 33.137-53.613 39.033-14.992 5.463-67.52 3.921-80.446 5.218-.345.625-21.632 98.668-14.116 99.705 61.589-4.789 119.689-33.713 181.032-41.054 74.865-2.405 78.746-32.621 99.439-52.168 1.982-1.873 4.413-5.136 6.823-6.971 1.163-.885 5.284-1.586 6.541-2.476 2.77-1.966 3.291-1.417 6.573-3.421 13.719-8.362 21.115-15.833 31.757-22.69 12.597-7.504 69.032-33.485 23.52-37.552z"/><path fill="#fff" d="M12.63 129.816c4.36 6.831-9.208 20.427-15.3 20.856-.512-5.941-1.456-13.862-6.234-18.157 7.261-4.094 16.661-7.412 21.538-2.699zm52.783-20.908c.522 2.536-.016 9.361-1.998 11.164-1.507.135-3.109 1.742-4.533 1.037-.71-4.198 2.817-10.675 6.531-12.195zm21.945 1.97c.209-11.082 11.132-13.715 10.37-13.563-.266 4.74-1.351 8.405-3.625 13.368-6.855-1.146-6.813 4.002-6.745.19zm36.885 30.677c-9.035 2.856-12.963 6.417-5.618 11.679 4.757-.402 22.419-16.919 5.618-11.679"/><path fill="#0D0C21" d="M34.44 162.616h-.018l.022-.007zm25.542-46.03.01.011-.03.461q.006-.236.02-.472m5.486-8.035-.014.003q.005 0 .014-.003m-52.412 22.823s.005.016.01.022c-.073.01-.151.016-.224.027h-.01z"/><path fill="#0D0C21" d="M13.698 129.808c-.412-1.19-2.749-2.96-7.824-2.721-4.074.158-8.075 1.222-11.763 2.916-1.716.825-3.568 1.52-5.024 2.769-2.66 2.704-2.91 6.863-2.342 10.409a20 20 0 0 0 1.56 5.033c.762 1.786 2.165 3.47 4.183 3.839.621.108 1.247.157 1.868.157 6.849 0 13.442-6.222 17.104-11.359 2.16-3.143 3.6-7.319 2.243-11.038zm-23.453 19.356c-1.074-1.672-1.726-3.589-2.154-5.516-.636-3.34-.647-7.488 1.946-10.078a7 7 0 0 1 .547-.396c.1.081.21.152.298.239 3.594 3.301 7.052 11.858 5.394 17.016q-.048.172-.094.37c-.454.081-.908.152-1.372.19-1.816.108-3.49-.277-4.57-1.83zm22.478-14.133c-.653 3.138-2.593 5.788-4.706 8.15-2.822 3.084-6.337 6.086-10.443 7.297 1.706-7.042-1.971-14.546-5.925-17.928.438-.229.886-.446 1.33-.668 4.199-2.085 8.899-3.578 13.65-3.578.225 0 3.49-.087 5.353 1.227 1.293.912 1.08 4.094.735 5.505z"/><path fill="#0D0C21" d="M134.706 137.028c-.224-.635-.939-1.352-1.195-1.499-4.501-3.274-9.984-4.913-15.383-5.619-13.818-1.336-25.747 6.656-37.734 12.857a58 58 0 0 0 3.87-6.532c3.745-7.666 6.88-15.659 10.015-23.613 1.482-4.387 6.26-14.047 3.51-18.151-.526-.657-2.195-.63-3.442-.592-4.423.13-7.48 1.031-11.173 3.442-2.28 1.385-4.418 3.035-6.28 4.99-5.29 5.804-8.352 13.275-12.06 20.176-.162.299-.34.592-.507.885.506-2.475.997-4.951 1.367-7.454.282-2.026.668-4.056.574-6.109-.068-2.231-.652-4.458-3.14-4.669a10.6 10.6 0 0 0-4.22.38c-3.756 1.129-7.1 3.692-9.265 7.08-1.611 2.699-2.655 5.717-3.599 8.725-.772 2.449-1.445 5.099-1.763 7.683-.1.733-.266 2.558-.292 2.737-2.326-.923-7.428 2.829-8.758 4.224-2.984 2.807-5.211 6.467-6.38 10.469a50 50 0 0 0-.516 1.998c-.225.863-.438 1.726-.689 2.579a59 59 0 0 1-.897 2.769c-1.325 3.703-2.754 7.368-3.818 11.163-.13.478-.261.961-.365 1.444q-1.642.483-3.292.94c-8.983 2.481-18.335 2.552-27.558 3.241-5.29.636-10.688.277-15.82-1.211 5.586-1.265 11.256-2.188 16.686-4.11 5.16-1.748 10.083-4.24 14.637-7.308 1.508-1.048 2.906-2.259 4.215-3.562 2.107-2.09 4.048-4.392 5.545-7.004 1.83-3.111 3.307-6.537 3.52-10.224.32-4.404-.13-9.459-3.5-12.564-4.449-4.349-11.037-2.894-16.363-1.423-10.933 3.024-21.23 7.993-31.861 11.929-.746.266-1.492.532-2.238.809-1.127.462-2.79 1.319-3.922 1.77-5.582 2.226-11.555 3.681-17.465 4.691-35.909 5.017-43.41 11.946-68.589 37.416-4.809 4.316-10.427 7.596-16.348 9.958-8.132 3.084-16.75 4.49-25.367 5.147-3.046.185-6.098.255-9.149.293-.658.011-4.705.093-5.822.125-1.711.049-3.422.103-5.133.152q-2.91.091-5.821.174-2.863.083-5.727.174-2.762.08-5.525.168c-1.883.054-3.76.114-5.644.168q-2.855.083-5.711.174c-1.925.06-3.855.114-5.78.174-1.664.049-3.323.098-4.987.152a.606.606 0 0 0-.579.608c0 .32.261.603.569.603h.015c.772-.027 1.544-.044 2.311-.071l5.936-.179c1.868-.054 3.73-.114 5.597-.168 1.91-.055 3.824-.114 5.733-.174l5.509-.163q2.793-.089 5.586-.168l6.004-.179 5.383-.163c1.524-.044 7.434-.109 8.331-.18.255-.01.516-.043.741-.027 2.775-.043 5.55-.114 8.325-.287 8.429-.636 16.89-2.031 24.887-4.936 12.159-4.403 19.405-12.005 28.225-21.203 10.715-11.136 23.421-19.709 38.429-22.94 12.446-3.041 25.513-3.448 37.443-8.6 1.064-.44 2.097-1.027 3.16-1.45.872-.321 1.748-.641 2.62-.95 12.132-4.469 23.859-10.485 36.602-12.907 2.248-.282 4.716-.353 6.886.484 2.237.885 4.11 2.714 5.096 4.984 1.299 3.404 1.299 7.542.6 11.12-.751 3.241-2.327 6.141-4.158 8.926-2.16 3.03-4.762 5.739-7.71 7.944-7.766 5.511-16.79 8.704-25.992 10.446-2.483.533-4.987 1.037-7.46 1.646-.161-.022-.302.005-.401.097-2.707.679-5.373 1.493-7.94 2.639-3.974 1.797-7.746 4.029-11.726 5.821-5.649 2.557-11.674 4.43-17.48 6.624-2.274.841-4.538 1.705-6.765 2.671a1 1 0 0 1-.177.185 2 2 0 0 1-.105.098c-.02.038-.047.076-.067.114a.6.6 0 0 0-.042.103c0 .005 0 .016-.006.022 0 .048.006.103.016.152a1 1 0 0 0 .026.119c.01.011.021.027.026.038l.094.098q.07.063.146.119l.157.098h.01c.079.016.151.022.23.032 7.819-3.404 16.05-5.69 23.864-9.127 5.571-2.411 10.689-5.858 16.5-7.661a68 68 0 0 1 3.724-1.015c.882.521 2.285.695 3.318 1.031 3.03.695 6.129 1.2 9.238 1.2.266 0 .532 0 .803-.011 2.796-.097 5.581-.429 8.372-.608 4.716-.336 9.468-.331 14.157-1.053 7.402-1.021 14.658-2.986 21.695-5.56.015 0 .026-.005.042-.011 1.006-.26 1.987-.624 2.952-1.021 12.676-4.322 25.023-9.556 37.109-15.42 9.525-4.159 18.382-9.741 27.876-13.965 9.029-3.746 18.45-4.892 27.667-1.102a23.2 23.2 0 0 1 5.686 3.013c1.341.934.788 2.21.626 2.634-.219.548-.532 1.048-.871 1.531-.428-.141-1.221-.223-2.588-.483-5.555-.777-13.15 2.535-15.81 7.813-.976 1.944-1.549 4.083-1.753 6.26-.01.256-.068.565-.052.842-.099.744-.11 1.569.026 2.15a709 709 0 0 1-4.408 2.487 843 843 0 0 0-9.864 5.685c-3.896 2.264-7.803 4.528-11.465 7.183-3.057 2.183-5.989 4.539-8.962 6.841-7.6 5.821-15.503 11.462-24.355 15.019-8.628 3.589-17.866 5.522-26.66 8.611a138 138 0 0 0-16.583 7.026c-.908.462-1.81.929-2.702 1.417a.625.625 0 0 0-.277.809.6.6 0 0 0 .538.348c.224 0 .386-.152.574-.245.949-.51 1.914-1.004 2.874-1.493 3.088-1.563 6.265-2.932 9.452-4.262 8.148-3.459 16.786-5.478 25.19-8.182l-.444.429c-.13.162-.835.879-1.46 1.509-.475.483-.924.934-1.112 1.14-2.827 3.28-5.644 6.673-8.367 9.953-5.19 6.244-10.558 12.705-16.217 18.694-6.145 6.727-12.217 11.467-18.57 14.492-11.174 5.511-23.646 7.357-34.46 8.66q-3.177.381-6.363.755c-16.4 1.933-33.359 3.936-49.748 7.536-13.187 2.867-26.322 6.863-39.023 10.729-8.868 2.698-18.033 5.484-27.146 7.867-22.748 6.076-45.685 11.169-68.172 15.133-.553.098-1.106.201-1.654.298-2.222.408-4.522.826-6.791 1.146-.955.125-1.727.174-2.431.163h-.042c-.318 0-.579.13-.709.348a.53.53 0 0 0-.016.526c.141.266.49.418.96.424 2.488-.076 4.976-.543 7.381-.994.929-.174 1.888-.353 2.832-.51a813 813 0 0 0 71.579-15.991c8.351-2.242 16.765-4.799 24.902-7.27 9.077-2.758 18.466-5.609 27.798-8.036 13.323-3.48 27.808-6.092 46.968-8.47 3.516-.451 7.115-.869 10.594-1.27 6.693-.771 13.61-1.575 20.333-2.672 8.07-1.341 14.919-3.279 20.944-5.924 4.413-1.905 8.033-3.963 11.08-6.298a67.6 67.6 0 0 0 9.211-8.21c4.168-4.365 8.461-9.208 13.917-15.708 1.68-1.992 3.37-4.039 5.008-6.021 2.41-2.921 4.903-5.94 7.418-8.856.25-.293 3.349-3.361 4.272-4.153.057-.049.13-.109.203-.169.1-.076.204-.157.303-.249a96 96 0 0 0 5.487-2.08c11.158-4.566 20.699-12.32 30.24-19.699 7.307-5.625 15.455-9.887 23.358-14.497 7.704-4.344 15.659-8.573 21.83-15.203 1.529-1.607 3.005-3.29 4.225-5.163.402-.647 1.477-2.389 1.018-3.693zm-42.45-22.5c-.042-.022-.079-.049-.126-.066a6 6 0 0 1-1.059-.412c-1.121-.57-2.003-1.39-2.576-2.362 1.669-.299 3.333-.679 5.064-.489-.432 1.108-.87 2.215-1.303 3.323zm1.737-4.48a2 2 0 0 0-.61-.081c-.491-.076-3.908.054-5.374.662-.443-1.346-.35-2.872.433-4.371 1.231-2.476 2.88-4.794 5.16-6.325.97-.684 2.013-1.26 3.119-1.673.182-.097.453-.14.72-.19-.063 3.796-2.327 8.813-3.454 11.984zm-28.878 1.053c-.224 2.748-.657 5.457-1.168 8.156-1.487.152-2.911.798-4.127 1.683-.114.098-.287.228-.469.38q.006-.327.02-.646c.173-2.737.846-5.489 2.312-7.797a15.2 15.2 0 0 1 2.175-2.59 8.6 8.6 0 0 1 1.22-.918c.042.625.027 1.244.027 1.738zm-1.403 9.405c-.214 1.096-.438 2.193-.657 3.295-.12.587-.25 1.168-.376 1.754-1.158-.217-2.373-.706-3.093-1.721-.167-.266-.172-.603-.193-.918.14-.135.276-.287.401-.401a8.3 8.3 0 0 1 2.671-1.656c.407-.142.83-.272 1.252-.348zM32.638 163.21c-.068.027-.14.054-.208.087l-.178.065-.11.032a234 234 0 0 1-7.798 2.487c-.01 0-.015.005-.02.005-.1.033-.194.066-.293.093-.057.016-.12.032-.177.049.005-.027.01-.055.02-.076.46-1.765 1.028-3.497 1.623-5.213 1.278-3.757 2.838-7.422 3.792-11.293.193-.777.412-1.542.595-2.319.057-.217.115-.434.183-.651 1.116-3.573 3.088-6.864 5.743-9.41 2.003-1.971 4.423-3.632 7.167-4.257.355-.049.631 0 .803.239-.657 3.899-2.117 7.58-3.735 11.142-2.602 5.397-4.924 10.951-6.786 16.674-.245.771-.47 1.548-.62 2.34zm2.478-1.016q-.58.244-1.169.478.141-.555.313-1.118a129 129 0 0 1 5.18-13.319c1.795-3.796 3.694-7.759 4.81-11.875.422-1.602.714-3.236.965-4.876.031-.342.344-3.154.511-4.121.553-3.089 1.554-6.211 2.613-9.176.668-1.754 1.351-3.383 2.337-5.011 1.487-2.292 3.615-4.203 5.999-5.463 1.403-.695 2.952-1.308 4.528-1.4.923-.055 1.909-.104 2.775.287.521.337.803.929.96 1.613-.95.239-2.426 1.705-2.843 2.221-2.63 2.866-3.777 6.863-3.897 10.761.005 1.026-.089 2.134.303 3.1.793 1.385 2.316 2.113 3.808 2.422-2.071 3.247-4.314 6.402-6.364 9.665-2.666 4.186-5.28 8.41-8.279 12.358a127 127 0 0 1-8.241 10.159c-.319.456-1.66 1.639-2.05 2.399-.762.272-1.513.576-2.259.902zm42.993-18.276c-.751.369-1.502.733-2.254 1.081-12.002 5.804-24.177 11.277-36.644 15.876 1.502-1.651 2.989-3.307 4.408-5.033 4.45-5.365 8.487-11.088 12.159-17.049 2.67-4.236 5.53-8.335 8.22-12.554 5.008-8.046 7.997-17.641 14.925-24.265 1.685-1.563 3.562-2.872 5.524-4.029 1.716-1.015 3.468-2.068 5.435-2.46 1.487-.33 3.166-.57 4.68-.488 3.358.185 2.69.69 2.821 1.862-1.314.087-3.594 1.5-4.236 1.934-3.04 2.008-6.202 6.227-6.598 10.017-.115 3.214 2.389 6.011 5.268 6.814-2.869 7.309-5.795 14.606-9.4 21.556-1.257 2.324-2.67 4.561-4.266 6.651-.021.027-.032.055-.047.076zm35.46 12.418c.042-.663.042-1.325.068-1.987.131-1.293.376-2.58.783-3.812q.04-.137.088-.266c.167.081.339.163.485.282.011.011.026.016.037.027.302.218.584.467.85.733.511.532.96 1.124 1.33 1.781q.187.327.334.679l.047.136q-1.981 1.253-4.016 2.432zm14.653-10.881c-2.838 2.97-6.025 5.424-9.379 7.634a8 8 0 0 0-.266-.581 5.7 5.7 0 0 0-.772-1.14 8.8 8.8 0 0 0-1.789-1.874c-.277-.179-.605-.445-.95-.608 1.216-2.476 3.339-4.36 5.775-5.543 1.972-.999 4.095-1.781 6.296-1.917.975-.065 1.961-.049 2.926.157.548.093.971.212 1.315.31a46 46 0 0 1-3.146 3.556z"/><path fill="#fff" d="M141.368 21.225c.396 5.256-3.386 5.913-7.481 5.875 1.148 3.203-1.956 2.4-3.886 3.404-.5.461-1.46.673-1.486-.293-.131-7.661-3.375-4.371-4.241-9.942-.329-3.665 3.829-4.17 5.513-1.412-.427-7.335 3.652-10.262 6.776-9.469 2.494 3.214 5.493 5.56 4.81 11.837zm-19.343 45.887c1.46 3.572-1.878 8.155-1.153 12.102-.193 2.036 1.925 11.875-1.278 10.99.172 1.308-.397 4.061-1.795 1.982-1.006.51-1.846-.81-2.206-1.63-.803.023-1.143-.939-1.455-1.557-1.32-.31-.699-3.171-.444-4.138 1.049-6.168 1.21-12.499 2.264-18.656-.224-.614.443-1.173.996-.912 1.544 1.048 3.438 1.048 5.081 1.824zm42.712 2.903c.907 2.09.918 6.532-1.398 2.693-.063.7-.783 2.226-1.622 1.673-.381-.408.292-1.434.041-1.836-1.497.771-1.387-4.213-2.697-1.819 1.362 2.004 1.565 3.372 1.132 3.546-.636-.076-4.115-2.84-7.996-5.017-3.333-2.552-6.171-5.413-6.171-5.413l5.054-5.919c3.819 6.326 10.344 7.792 13.662 12.103zm-43.235 67.023c-2.79 0-4.428-.733-3.651-4.001.063-.272 2.055 0 2.055 0s3.093 3.969 1.596 4.001m25.765-19.998c-1.497-1.168-4.726-.934-4.945-3.323-.088-.614-.704-2.004.339-1.993.992-.076 2.066.435 2.04 1.71.97.647 5.519 3.161 2.566 3.606"/><path fill="#fff" d="M127.377 32.54c1.873-.429 4.711.956 6.547.114.355-.619.694-2.872-.793-2.704-1.847.549-4.616.266-5.748 2.596zm23.218 22.239c-1.007-1.211-2.535-3.714-4.272-2.748-.845-.852-4.11-5.348-4.11-5.348s-1.743-9.55-4.325-12.749c-.777-1.433-1.945 1.135-2.749 1.635-3.135 2.389-12.529-.782-12.529-.782s-1.101 1.34-1.638 2.71c-2.233 5.776-6.604 26.224-4.669 27.55 8.967 4.652 7.475.922 10.198.178 1.471-.401 4.935.435 12.603 3.53 2.018-8.291 0-9.899 5.002-5.864 2.045 2.834 9.285-6.244 6.489-8.112"/><path fill="#FED980" d="M137.226 31.627c-.704-.651-3.557-3.013-2.978-.39 1.075 4.843-10.714-.582-14.705 1.384-5.451-2.438-14.235-7.683-18.184-3.225-1.033 1.167 1.487.63 2.269.412 5.451 1.874 10.344 3.991 16.338 3.28 4.439 3.649 18.001 5.592 17.255-1.466z"/><path fill="#fff" d="M137.116 18.709c-2.493.293-3.552-5.897-1.069-5.94 2.446-.038 3.411 5.663 1.069 5.94m4.721-2.735c-1.758.043-4.335-5.973-1.153-5.045.83.538 3.021 5.007 1.153 5.045"/><path fill="#FED980" d="M158.968 82.607c-.59 4.827-6.432 22.544-12.587 29.515-1.591 0-4.277-.619-6.035-2.345-1.033-8.194 6.718-16.485 5.769-24.982-6.541-.739-13.542-1.65-13.542-1.65s-1.486 3.952-2.331 8.328c-2.087 10.865-2.04 23.527-6.223 34.5-6.443 14.807-10.224 3.302-7.397-6.933 1.335-8.769-1.07-19.015-.381-27.23 1.466.885 4.074 2.454 3.542-1.499 1.69-.076 1.711-4.126 1.252-7.14-1.002-5.06-.047-10.783 1.518-15.393.396-1.162 1.283.315 1.497-2.807 4.173-1.45 10.161 2.748 14.778 3.595 5.618-.19 19.738 10.142 20.135 14.04z"/><path fill="#0D0C21" d="m123.078 67.148-.052.021q-.024.002-.047.01h-.015a.4.4 0 0 0 .119-.036z"/><path fill="#0D0C21" d="M123.057 67.16s-.021.005-.031.01c-.016 0-.031.01-.047.01h-.015c.031 0 .062-.016.093-.026z"/><path fill="#0D0C21" d="M158.79 65.101q.002-.001.011.006a20 20 0 0 1-.668-.505l.011.01c-.047-.037-.094-.07-.141-.108-2.363-1.993-4.585-4.159-6.573-6.548a.21.21 0 0 1-.015-.234c.709-1.254.13-2.454-.866-3.344q-.001.001-.011-.006c-.918-.939-2.446-3.317-3.813-2.975a.2.2 0 0 1-.13-.01c-1.93-1.022-2.979-3.248-4.366-4.92a.17.17 0 0 1-.042-.109c-.167-2.128-.506-4.246-1.106-6.287v-.017c-.881-2.416-1.94-4.81-3.422-6.9a.2.2 0 0 1-.031-.153c.37-1.905-1.967-2.416-2.963-3.393-.026-.022-.083-.114-.125-.163a.2.2 0 0 1-.037-.087c-.026-.163-.041-.331-.073-.494-.057-.445-.099-.874-.146-1.314-.015-.13.099-.239.219-.212 5.952 1.108 8.503-1.998 7.027-8.27-.24-.895.772-1.623.37-2.448-.047-.103 0-.228.104-.266 2.53-.847-1.705-9.534-3.463-4.925-.026-.043-.047-.087-.078-.13q-.001.002.005.01c-.12-.227-.391-.368-.485-.607a.2.2 0 0 0-.026-.05q-.454-.57-.955-1.101a.2.2 0 0 1-.021-.245c1.628-2.47.511-5.18-1.372-6.27-.714-.278-.913-1.092-1.356-1.657-1.69-2.574-4.496-.966-6.526.168l-.036.017c-.923.32-1.763-.364-2.598-.679-3.323-1.526-5.988 1.656-7.835 4.127-.245.287-.542.52-.902.635-.011 0-.021.005-.031.005-4.575.657-4.095 4.41-3.542 8.123v.076c-1.816 7.292 6.019 13.417 12.503 13.085.021 0 .047 0 .068.006.37.125.835.353 1.132.385 3.756.076.694-2.188.688-2.193 1.258 1.493.595 3.942 1.305 5.647a.21.21 0 0 1-.047.228c-.757.662-1.998.988-2.937.928a19.2 19.2 0 0 0-5.962.516.2.2 0 0 1-.136-.022c-1.607-.972-3.198-1.976-4.883-2.801q.008.001.021.01h.011c-3.793-1.895-7.517-2.763-11.695-1.884-.344-.108-1.372.988-1.93 1.841-.011.01-.016.022-.026.032-.621.799-.506 1.255-.501 1.293.136.96.814 5.419 1.69 5.24 1.268-.337 1.993-1.83 2.859-2.77.521-.608.37-1.553.344-2.345 0-.136.125-.24.25-.196 4.507 1.602 9.061 3.915 13.902 2.444a.18.18 0 0 1 .146.016c.756.445 1.507.901 2.29 1.287a.193.193 0 0 1 .073.282c-4.356 6.477-4.883 16.604-5.994 24.477-.391 2.432-.662 4.295-.401 5.11.078.33.224.537.312.64.042.043.053.103.042.168-.933 4.702-1.507 14.128-1.502 14.123.104 2.074-2.327 9.05-.329 9.81a.19.19 0 0 1 .12.158c.068.75.459 1.428 1.289 1.635a.205.205 0 0 1 .151.179c.621 8.644.485 17.206.271 25.845v.016c.266 3.394-2.138 14.85 1.523 16.137.094.033.141.141.115.239-.214.706-.49 1.824-.261 2.476q.015.032.037.065c.819 1.048 2.305 1.477 3.531 1.743.908.119 2.097-.641 1.716-1.683a.2.2 0 0 0-.031-.06c-.615-.814-1.612-1.276-1.998-2.307-.125-.223-.422-.277-.631-.158a.2.2 0 0 0-.057.054c-.584.777.673 2.004 1.398 2.65.12.103.073.309-.079.342-.907.196-1.976-.478-2.78-.863l-.047-.033c-.521-.478-.115-1.379-.323-2.036-.042-.136.062-.271.203-.25 4.669.636 5.853-5.516 6.599-9.219 1.335-6.885 3.839-13.645 3.829-20.736v-.011c.344-6.716 3.359-12.988 3.928-19.66.01-.12.12-.201.234-.169 4.095 1.14 8.357 1.124 12.525 1.819a.19.19 0 0 1 .156.212c-.626 6.857-4.001 13.14-5.352 19.878v.016c-.621 2.08-1.22 5.001 1.075 6.108a.18.18 0 0 1 .109.158c.178 1.965-.281 3.963 2.108 4.55h.015c1.404.505 5.707 2.595 5.29-.456a.23.23 0 0 0-.052-.114c-.95-1.005-2.463-1.385-3.548-2.27a.2.2 0 0 1-.073-.119 4 4 0 0 1-.047-.543c0-.12.1-.212.209-.196.887.131 1.826-.304 2.128-1.211q.01-.024.026-.048c5.384-7.276 13.156-20.46 12.029-29.842 0-.021-.01-.043-.015-.06-2.139-4.93-14.497-11.934-19.749-13.595a.193.193 0 0 1-.12-.26c.553-1.358 1.257-4.985 1.492-6.169.031-.152.208-.206.313-.098 1.21 1.244 2.462 3.361 4.371 2.666a.17.17 0 0 1 .193.044c2.545 2.59 5.232 5.071 8.341 6.9 0 0 .01 0 .015.006 1.164.597 2.525.923 3.37 2.047.595.766 2.859 2.829 3.057.847v-.049c-.12-1.221-1.393-2.063-1.242-3.344a.195.195 0 0 1 .193-.169c.047 0 .089.011.136.017a.2.2 0 0 1 .089.043c.719.64.375 2.753 1.465 2.547a.187.187 0 0 1 .22.228c-.475 2.204 1.058 2.02 1.757.336a.185.185 0 0 1 .345 0c.167.435.334.907.673 1.195a.1.1 0 0 0 .057.032c.631.272 1.054-.613 1.017-1.2.475-5.413-3.067-5.853-6.578-8.377zm-41.187-32.29c-2.301.32-4.627.082-6.813-.738-1.419-.5-2.843-1.026-4.272-1.526-1.414-.51-2.926-.956-4.434-.69l-.423.066c.355-.57.788-1.124 1.299-1.559 4.126-.754 7.527-.005 11.288 1.868l-.036-.021c1.476.722 2.879 1.59 4.288 2.454a10 10 0 0 1-.908.14zm16.65-2.579c.083-.016 1.622.798 1.68.82q.039.015.078.038c.057.027.12.054.177.087.178.098.35.223.48.386.146.184.261.418.318.646q-.001.015.006.032c.005.033.015.065.02.098l.016.092v.022c0 .027 0 .049.005.076v.147c0 .016 0 .038-.005.054q-.001.024-.01.049c0 .016-.115.57-.324.88a.8.8 0 0 1-.198.211.2.2 0 0 1-.063.027c-.401-.624-1.006-1.102-1.622-1.487-.042-.028-.12-.082-.203-.136 0-.033-.256-1.282-.287-1.39-.031-.109-.078-.657-.063-.663zm5.143-18.846c.251-.445.871-.83 1.419-.065 1.565 2.177 1.988 4.436.809 4.436-1.07 0-2.092-2.775-2.092-2.775-.209-.543-.292-1.314-.136-1.596m-7.793 3.432c.245-.326.475-.674.725-1q.033-.26.073-.532c.063-.407.183-.803.35-1.178a4 4 0 0 1 .787-1.2 3.5 3.5 0 0 1 .845-.613c.235-.125.491-.207.746-.277.188-.055.96-.256 1.033-.283.068-.021.188-.07.24.011.005.011 1.09 1.238 1.768 2.172.032.049.068.092.1.141.057.087.12.168.172.255l.088.142c.026.049.058.097.084.152q.063.099.125.19s.005.01.01.016c-.161.076-.302.239-.401.5-.058.19-.089.396-.094.597a9 9 0 0 0-.459-.663 1.4 1.4 0 0 0-.131-.179 1.75 1.75 0 0 0-.699-.651c-1.664-.717-2.717.548-2.795 2.22v.217c-.965.223-1.931.467-2.859.837l-.308.146c.172-.358.402-.695.6-1.026zm5.952 3.697c-1.768.983-3.923-3.687-1.941-5.348 1.409-1.184 4.069 4.159 1.941 5.348m-9.144 7.32c.005-.06 0-.12-.026-.19-.251-.842-1.033-1.282-1.81-1.51a.35.35 0 0 1-.162-.114c-.751-1.016-1.492-2.064-1.706-3.35-.115-.815-.068-1.754.558-2.34.324-.261.663-.581 1.064-.68.094-.021.188-.037.287-.032a.15.15 0 0 1 .068.011c.553.13 1.137.31 1.555.722.641.5 1.053 1.325 1.825 1.634.433.142.95.055 1.273-.298.37-.402.35-1.01.13-1.482-.161-.402-.459-.75-.625-1.146.104-.195.135-.25.239-.45.016 0 .027 0 .042-.006.527-.092 1.059-.19 1.576-.326.01 0 .015 0 .026-.005q.579-.202 1.173-.397c.183-.06.376.06.407.26.251 1.662 1.21 3.22 2.754 3.22q.19 0 .386-.032c.099 0 .188-.01.277-.033.37-.092.678-.374.887-.705.61-.907.667-2.123.339-3.226a.3.3 0 0 1-.016-.146c.021-.158-.031-.38-.036-.483-.011-.114-.027-.24-.032-.37-.01-.33.402-.472.574-.195.188.304.36.635.376.662.02.038.302.647.391.837a.3.3 0 0 0 .068.092c.104.103.631.657.876 1.102a.33.33 0 0 1-.031.342c-.485.668-.715 1.151-.652 1.879a.6.6 0 0 0-.089.07c-.657.777-1.424.842-2.353.668h-.036c-.204-.01-.428-.07-.61.044-.486.564 1.591 1.091 1.94.966.496-.049.944-.282 1.315-.608a.3.3 0 0 1 .292-.07.5.5 0 0 0 .151.021h.031c.193 1.629.172 3.345-.438 4.751q-.01.024-.026.049c-.725 1.243-2.321 1.384-3.594 1.515h-.026c-.944.021-1.904 0-2.827-.24-.475-.108-.939-.238-1.414-.336-.334-.076-.678-.065-1.012-.125-.172-.01-.558-.179-.569.12a.16.16 0 0 0 .089.125c.496.26.996.51 1.523.695q.267.105.532.228a.33.33 0 0 1 .188.244c.021.114.042.223.068.337q.006.04.005.081c-.026.581.031 1.07.183 1.629h-.079c-1.069-.13-2.112.228-3.103.608-.412.168-.83.331-1.221.543-.229-.136-.224-.136-.454-.271-.031-.592-.052-1.206-.13-1.792-.094-1.01-.188-1.803-.386-2.487zm5.675 6.108c-.861-.163-1.732-.033-2.587-.272-.543-.114-1.049-.364-1.565-.554.96-.222 2.843-.96 3.891-.863 0 .032.005.07.016.098.078.532.172 1.058.25 1.59zm-5.43-.549c.146.022.297-.005.443-.049.569.142 1.106.391 1.654.603a7.3 7.3 0 0 0 1.831.418c.412.054.829.049 1.236.152-2.045.37-4.1-.027-6.15-.326.386-.211.777-.467.991-.798zm-8.216 1.667a18 18 0 0 1 2.718-.38c.391-.022.777-.027 1.168-.022h.026c.006 0 .016-.005.021-.005h.11c.036 0 .078.01.115.016h.255q.025-.001.042.006c.073.01.146.027.224.038h.047-.01q.149.015.297.016h.386c.172 0 .344-.006.516 0 .047 0 .089.005.136.01h.037c.047.006.099.017.146.022.099.017.203.033.302.055.11.021.219.054.329.087q.017.001.042.01.233.035.474.076c1.956.315 4.032.647 5.968.022.12-.043.391-.141.537-.266a.4.4 0 0 0 .11.087c.354.684.824 1.336 1.518 1.645a.5.5 0 0 0 .125.05c-2.165 1.704-4.711 1.753-7.407 1.346-1.644-.277-3.271-.62-4.841-1.184l-.089-.016h.016a1 1 0 0 1-.178-.05c-.109-.032-.213-.08-.323-.124a1 1 0 0 1-.183-.081c-.062-.028-.12-.066-.177-.098-.052-.027-.104-.05-.156-.082a.2.2 0 0 0-.053-.021c-.047-.017-.093-.028-.14-.05a.2.2 0 0 1-.047-.021c-.126-.054-.246-.114-.371-.174a40 40 0 0 1-1.685-.934zm-4.376 30.574c.203-1.113.386-2.231.563-3.35 1.414.234 2.791.69 4.225.869.642.125 3.198.233 3.245.592.182 1.303-.339 4.767-.715 5.218-.542.651-4.262-.646-5.722-1.504-.475-.255-.996-.489-1.367-.902a1.5 1.5 0 0 1-.214-.456 1 1 0 0 1-.015-.467m-.423 26.644a1 1 0 0 0-.094-.022c-.281-.141-.542-.37-.61-.7-.063-1.505.073-3.003.198-4.502a.8.8 0 0 1 .037-.255c0-.065-.052-.103-.11-.098-.078.006-.094.098-.104.163-.084.912-.59 2.291-.741 3.535q-.033-.023-.057-.054c-.976-1.282.897-7.01.652-8.91-.005-.038.104-1.06.156-1.52.209-2.145.381-4.296.668-6.435.198-1.596.402-3.192.553-4.794.031-.397.068-.793.078-1.19.329.245.704.43 1.064.62 1.539.912 3.234 1.281 4.951 1.645-.053.266-.068.537-.131.803-.73 3.296-1.387 6.652-1.779 10.013-.083.885-.052 1.775.089 2.655.297 1.373.647 2.758.522 4.18-.052.473-.084.95-.157 1.423l.011.19c.015.114.026.223.021.337v.081c0 .093.005.18.01.272.016.01.031.016.047.027a.3.3 0 0 1 .057.06c-.078 1.102-.255 2.22-.855 2.248a.134.134 0 0 0-.099-.158v-.049c.036-.135.094-.26.151-.38 0-.032 0-.07-.005-.103v-.103c-.016-.054-.026-.114-.042-.168a5 5 0 0 1-.078-.402 3 3 0 0 1-.026-.24c0-.091.015-.184.036-.276 0-.016.011-.033.016-.049v-.147c-.292-.895-.741-1.753-.835-2.698.063-.065.021-.185-.068-.19-.328-.038-.135 1.238-.14 1.488.052.71.25 1.379.495 2.047.063.13.099.293.157.44-.621.955-.392 2.285-.548 3.393-.021.13-.115.228-.193.32 0 0 0 .006-.005.006-.131-.076-.329-.011-.428-.136-.078-.532.016-.977-.016-1.558-.026-1.048-.135-2.085-.219-3.128-.01-.195-.031-.39-.026-.586a.146.146 0 0 0-.141-.169.147.147 0 0 0-.141.169c.011.559-.026 1.113-.099 1.667-.073.716-.469 2.047-.396 3.04a2.7 2.7 0 0 1-.543-.39c-.365-.316-.297-.81-.292-1.25q-.023-1.58.047-3.16c.021-.358 0-.716.026-1.075.021-.081-.021-.173-.104-.2-.276-.033-.193.369-.235.553-.036.435-.146.847-.25 1.265-.167.7-.407 1.613-.454 2.47zm29.425 24.08c.512.299.96.608 1.497.939.413.304 1.012.424 1.331.836-.574.511-2.196-.363-2.89-.548a31 31 0 0 1-1.701-.673c-.302-.13-.652-.293-.662-.69-.078-.695-.037-1.401-.141-2.096.579.169 1.189.283 1.774.364-.006.038-.162.978-.016 1.168.203.309.501.521.814.695zm-4.444-55.572c-.156.988-.308 1.976-.475 2.964-.02.109-.02.114-.036.212a47 47 0 0 1-.793 3.8 28 28 0 0 1-.459 1.564.4.4 0 0 0 .01.283c-.886-.299-1.778-.576-2.696-.75-1.398-.266-2.723-.781-4.085-1.194-.694-.212-1.393-.418-2.097-.554-.182-.07-.365-.135-.547-.206-1.158-.413-2.384-.386-3.584-.299-.209-.01-.902-.152-.783.25.12.239.36.358.574.483.183.13.365.245.579.304.527.174 1.075.022 1.607-.01a5.9 5.9 0 0 1 2.488.385c1.101.38 2.207.76 3.318 1.124.474.184.954.364 1.439.505q.557.137 1.122.299.077.025.146.043c.021 0 .036.01.057.01 1.195.343 2.4.75 3.553 1.174 1.867.619 3.667 1.417 5.352 2.465 1.418.809 2.869 1.558 4.193 2.535a66 66 0 0 1 2.494 1.716c.824.565 1.7 1.048 2.493 1.667.871.69 1.497 1.656 2.342 2.373 1.983 1.569 1.706 3.567 1.289 5.847-1.414 6.532-4.335 12.586-7.418 18.418-.814 1.395-1.732 2.725-2.634 4.056-.553.841-1.163 1.645-1.643 2.535a.56.56 0 0 0 .016.532c-.1.093-.194.185-.293.239-.641.212-1.345-.076-1.992-.173-.955-.201-1.941-.451-2.728-1.081-.465-.369-.752-.999-.658-1.602.183-1.395.532-2.72.887-4.077.908-3.367 1.873-6.717 3.031-9.996.787-2.319 1.565-4.659 1.867-7.108.084-.89.287-1.862-.052-2.715-.156-.363-.522-.526-.881-.58-.486-.087-.976-.147-1.456-.228-1.027-.142-2.065-.256-3.093-.397-1.132-.152-2.254-.385-3.375-.58h-.026q-.462-.133-.923-.256c-1.378-.326-2.765-.581-4.132-.945-2.519-.673-5.117-1.59-7.626-2.378a11 11 0 0 0-1.106-.282c-.109-.022-.266-.038-.349.06-.084.097-.026.26.088.287.543.31 1.059.69 1.576 1.048.667.418 1.382.75 2.086 1.102a45 45 0 0 0 4.851 1.727 19 19 0 0 0-.485 1.607c-.584 2.2-1.267 4.366-1.893 6.554-.976 3.09-1.722 6.244-2.29 9.442-.449 2.117-.235 4.306-.517 6.445-.506 3.399-1.184 6.765-1.888 10.126-.469 2.107-.897 4.224-1.361 6.331-.559 2.253-.877 4.621-2.181 6.575-.521.961-1.393 1.662-2.451 1.841-.642.065-1.263-.147-1.889-.266-.104-.098-.214-.212-.261-.353-.24-.652-.333-1.347-.433-2.031-.391-3.469.115-6.939.339-10.403.397-7.688.486-15.409-.078-23.098a78 78 0 0 1-.266-3.632c.214.136.475.233.798.282a.35.35 0 0 0 .303-.162c.156.396.464.656 1.022.678.11 0 .214 0 .313-.049a.2.2 0 0 0 .063-.043.3.3 0 0 0 .115.049c.521-.038.798-.635.792-1.13.042-.553.047-1.107.074-1.661.041.038.093.07.14.087.266.087.522-.065.736-.217.349-.256.428-.728.459-1.146.068-.624.094-1.254.115-1.879q.06-.32.099-.646c.24-1.7.193-3.442-.204-5.115-.245-1.455-.229-2.953-.005-4.43.256-3.133 1.205-6.18 1.257-9.334q.383.08.767.169h.021c.506 0 .662-.609.741-1.032.208-1.048.396-2.107.573-3.16.1-.766.293-1.542.287-2.318-.109-.315-.334-.522-.615-.668.37-1.874.798-3.73 1.252-5.582.866-3.307 2.034-6.494 3.197-9.703.324-.88.553-1.792.772-2.71l.079-.325a4.3 4.3 0 0 0 1.152-1.895.28.28 0 0 0-.12-.326c-.323-.179-.526.293-.751.462a1.4 1.4 0 0 0-.177.179q.001-.039.01-.087c-.026-.602.073-1.189.099-1.792 0-.293-.412-.363-.485-.081-.276.7-.219 1.488-.422 2.22-.037.174-.078.359-.115.544-.005 0-.016.01-.021.016-.01.01-.021.016-.031.027q-.196.765-.407 1.531c-.151.527-.334 1.043-.511 1.564-.209.63-.376 1.281-.558 1.922-.042.147-.089.293-.131.44-.021.06-.036.12-.057.179a10 10 0 0 1-.172.5l-.016.048c-.193.516-1.492 4.545-1.653 5.191-.157.624-.319 1.249-.475 1.879-.172.695-.344 1.395-.522 2.09-.099.397-.198.798-.308 1.195-.114.429-.401 2.003-.448 2.253-.105-.022-2.754-.315-3.886-.565-.924-.173-1.899-.44-2.859-.52l-.01-.012c.97-6.33 1.732-12.727 3.855-18.77.641-1.9 1.189-3.996 2.483-5.522 1.914.755 3.938 1.205 5.972 1.434h.011q.14 0 .281.016l.292.032h-.015l.172.017c.136.01.271.01.402.021.057 0 .109.011.166.017.068.01.131.01.199.016h.208c.042 0 .089 0 .131.01h.005c2.107 0 4.084-.586 5.639-2.155h.042c.25 0 .464-.298.626-.57 1.011 1.51 1.643 3.263 2.279 4.974.814 2.112 1.205 4.37 1.414 6.63.167 1.601.255 3.143.187 4.772 0 2.818.042 5.647-.5 8.421zm1.523-2.916c.162-1.309.183-5.625.188-6.13a50 50 0 0 0-.073-2.34l.021.038q.405.569.803 1.145l-.031.017c.021.021.036.049.057.076.079.103.157.2.235.304.177.233.36.461.537.69.334.434.694.84 1.059 1.243q.116.123.224.255l-.015-.016c.094.108.188.222.271.342.042.06.616.657.376.863a5 5 0 0 1-.313.326q-.01.006-.026.022c-.11.113-.219.233-.329.347-.923 1.032-1.497 2.34-2.227 3.513a64 64 0 0 0-1.393 2.52c.25-1.065.495-2.13.631-3.215zm2.52 7.243c-.073-.022-2.16-1.46-2.874-2.08a1.08 1.08 0 0 1-.22-1.357c.757-1.314 2.395-3.334 3.141-4.528.401-.663 2.483-3.111 2.498-3.139a.5.5 0 0 1 .339.022c.214.076.366.326.532.483.428.484 2.301 2.536 2.713 3.09.182.244.256.554.198.858-.073.374-.214.727-.214.727-.005.022-.015.044-.021.06a1 1 0 0 1-.078.174.04.04 0 0 1-.01.022l-.021.038v.005a3.6 3.6 0 0 1-.334.516c-.026.027-2.332 2.47-2.744 2.845-.381.342-2.165 2.579-2.89 2.253zm16.937 8.975c-.193.05-.224.337-.454.332a.1.1 0 0 1-.062-.017c-.157-.2-.157-.494-.23-.733-.078-.472-.334-.863-.626-1.216.313.125.621.277.918.445.225.37.412.744.517 1.184q-.031-.001-.063.005m.511 2.01c-.094-.658.272-1.288.193-1.94a3.3 3.3 0 0 0-.354-.792c.161.098.318.19.48.277.224.18.417.396.579.63-.167.657-.428 1.346-.898 1.819zm2.494-.039c-.449-.847-.6-1.873-1.278-2.584-.397-.483-.944-.755-1.477-1.043-.745-.412-1.585-.885-2.456-.7-.767.233-.538 1.238-.324 1.824.287.815 1.012 1.499 1.017 2.4v.038c-1.408-.548-2.076-2.145-3.411-2.829-3.933-.917-9.426-6.618-10.464-7.547.73-.608 1.794-1.64 2.342-2.145.584-.553 2.29-2.758 2.332-2.769h.01c.026 0 .052 0 .078.022.094.049.178.13.256.2.084.071.157.153.235.229.177.184.355.358.537.537l.11.109.01.01q.022.026.052.05l.011.01q.001-.002.01.006l.157.147c-.006-.006-.016-.011-.021-.022.401.375.787.76 1.179 1.146.177.179.36.358.547.52.199.175.402.354.595.528.052.048.11.097.162.146-.011-.01-.021-.022-.032-.027.032.027.063.06.099.087.011.01.021.016.027.027l-.016-.016.016.016c.005.005.015.01.02.022.261.228.522.445.783.673.271.244.553.472.834.711l-.031-.032.084.07c.005.006.015.011.021.017.01.005.015.016.026.021s.015.017.026.022c.005 0 .01.01.021.016 0 0-.011-.01-.016-.01l.109.092c.006 0 .011.01.016.016l.005.005s.011.006.011.011q.602.504 1.189 1.032c.068.065.141.125.214.19.323.282.647.565.981.841.125.104.255.212.386.31.041.033.088.065.13.098q-.007-.002-.016-.011.312.22.632.423.327.211.662.397c.104.06.214.125.318.19.537.25 1.075.494 1.586.814.824.592 1.711 1.352 1.763 2.476.084.679.089 1.363.115 2.053-.021.358.068.868-.162 1.194zm-35.831-51.983a.5.5 0 0 0-.579-.288c-.084.022-.172.006-.256 0-.793-.293-1.726-1.531-1.137-2.346.037-.032.11-.097.167-.092.287.033.323-.396.037-.407-.574-.098-1.033.445-1.158.961-.282.983.229 2.096 1.053 2.66.209.153.605.267.981.277h.052c.13 0 .256-.01.365-.037.292-.071.506-.24.496-.554 0-.05-.011-.109-.021-.169z"/></g></g><defs><clipPath id="a"><path fill="#fff" d="M0 0h240v186H0z"/></clipPath><clipPath id="b"><path fill="#fff" d="M0 0h240v186H0z"/></clipPath></defs></svg>
