<svg xmlns="http://www.w3.org/2000/svg" width="316" height="178" fill="none"><g clip-path="url(#a)"><path fill="#F6F6F6" d="M0 0h316v177.75H0z"/><path fill="#fff" fill-rule="evenodd" d="M165.311 139.346c30.572-2.486 68.076 2.063 85.617-14.475 17.434-16.437-2.206-36.1-13.657-53.369-9.178-13.842-21.483-26.466-43.264-32.475-23.736-6.548-50.828-7.412-75.624-.324-29.474 8.426-58.115 21.48-66.635 40.991-9.336 21.382-2.984 46.01 22.744 59.524 23.711 12.455 58.955 2.719 90.819.128" clip-rule="evenodd"/><path fill="#161616" d="M100.02 100.811 80.014 68.365H68.38v44.885h9.076V80.805l20.007 32.445h11.632V68.365h-9.076zm29.718-32.446h-9.076v44.885h9.076zm23.968 6.669c3.387 0 6.328 2.245 8.948 5.643l6.647-6.027c-3.835-4.551-8.948-7.566-15.659-7.566-8.563 0-14.443 5.9-14.443 13.017 0 15.197 20.325 12.954 20.325 21.226 0 3.206-2.174 5.129-5.752 5.129s-7.223-2.051-9.907-5.515l-6.583 6.09c3.963 4.746 9.012 7.503 16.554 7.503 8.245 0 14.764-5.066 14.892-13.529 0-15.388-20.326-13.082-20.326-21.225 0-2.693 2.108-4.746 5.304-4.746"/><path fill="#FDC82E" d="M214.116 57.263c1.1 0 2.188.29 3.144.836l23.822 13.64a6.38 6.38 0 0 1 3.198 5.525v27.09a6.37 6.37 0 0 1-3.198 5.524l-23.822 13.641a6.33 6.33 0 0 1-6.287 0l-23.822-13.641a6.38 6.38 0 0 1-3.198-5.524v-27.09a6.38 6.38 0 0 1 3.198-5.524l23.822-13.641a6.3 6.3 0 0 1 3.143-.836m0-3.197a9.5 9.5 0 0 0-4.721 1.256l-23.822 13.64a9.56 9.56 0 0 0-4.805 8.302v27.09c0 3.432 1.834 6.6 4.805 8.301l23.822 13.641a9.5 9.5 0 0 0 9.443 0l23.822-13.641a9.57 9.57 0 0 0 4.805-8.301v-27.09c0-3.433-1.835-6.6-4.805-8.301l-23.822-13.641a9.5 9.5 0 0 0-4.722-1.256"/><path fill="#161616" d="M218.27 92.91c2.981-2.91 5.74-6.194 5.74-10.513 0-5.307-4.218-9.157-10.029-9.157-5.067 0-9.062 2.329-11.873 6.922l-.493.806 6.16 3.768.484-.818c1.61-2.708 3.111-3.813 5.185-3.813 1.87 0 2.986 1.073 2.986 2.875 0 1.911-1.078 3.222-3.354 5.552L202.879 98.6v6.4h21.875v-6.948h-11.792l5.308-5.14zM68.495 60.873v-9.91H69.9v8.693h4.216v1.217zm9.749.199c-1.48 0-2.481-.78-2.481-1.997 0-1.076.867-1.84 2.466-2.095l2.542-.397v-.495c0-.991-.748-1.558-1.824-1.558-.867 0-1.57.383-2.033.991l-.957-.693c.658-.85 1.72-1.374 3.035-1.374 1.913 0 3.05 1.062 3.05 2.634v4.785H80.77v-.906c-.568.694-1.555 1.105-2.527 1.105m-1.196-2.04c0 .61.524 1.048 1.406 1.048 1.001 0 1.824-.453 2.317-1.217V57.46l-2.228.354c-1.031.17-1.495.609-1.495 1.218m10.931-1.727c0-2.08 1.51-3.85 3.872-3.85 1.121 0 2.003.41 2.676 1.132v-4.332h1.27v10.618h-1.27v-.85c-.673.723-1.555 1.133-2.676 1.133-2.362 0-3.872-1.77-3.872-3.85m1.345 0c0 1.515 1.077 2.719 2.676 2.719 1.047 0 1.974-.482 2.527-1.317v-2.803c-.583-.85-1.495-1.317-2.527-1.317-1.6 0-2.676 1.203-2.676 2.718m9.795-5.423c-.493 0-.897-.383-.897-.85 0-.453.404-.835.897-.835.494 0 .882.382.882.835 0 .468-.388.85-.882.85m-.643 8.99v-7.135h1.271v7.135zm3.957 0v-7.135h1.271v.892c.553-.623 1.24-1.034 2.197-1.034.239 0 .464.028.643.085v1.175a3 3 0 0 0-.747-.085c-.987 0-1.63.481-2.093 1.203v4.9zm12.187-1.175c-.703.892-1.824 1.458-3.229 1.458-2.542 0-4.111-1.77-4.111-3.85 0-2.167 1.465-3.852 3.797-3.852 2.048 0 3.379 1.36 3.379 3.115 0 .283-.045.552-.09.75h-5.786c.045 1.714 1.196 2.747 2.811 2.747.972 0 1.794-.425 2.287-1.062zm-3.573-5.224c-1.241 0-2.108.694-2.377 1.925h4.515c-.045-1.047-.808-1.925-2.138-1.925m9.001 5.55c.927 0 1.69-.425 2.153-1.048l1.002.722c-.703.892-1.794 1.458-3.17 1.458-2.496 0-4.096-1.77-4.096-3.85 0-2.082 1.6-3.852 4.096-3.852 1.361 0 2.467.58 3.17 1.459l-1.002.722c-.463-.623-1.226-1.048-2.168-1.048-1.614 0-2.765 1.203-2.765 2.718 0 1.53 1.151 2.719 2.78 2.719m5.302-1.544v-3.652h-1.42v-1.09h1.42v-1.784h1.286v1.783h2.616v1.09h-2.616v3.654c0 1.118.598 1.43 1.51 1.43.493 0 .837-.057 1.121-.17v1.076c-.359.141-.763.198-1.301.198-1.674 0-2.616-.793-2.616-2.535m6.487-6.597c-.493 0-.897-.383-.897-.85 0-.453.404-.835.897-.835.494 0 .882.382.882.835 0 .468-.388.85-.882.85m-.643 8.99v-7.135h1.271v7.135zm2.821-7.135h1.375l2.407 5.875 2.407-5.876h1.375l-2.945 7.136h-1.674zm15.703 5.96c-.703.892-1.824 1.458-3.229 1.458-2.542 0-4.112-1.77-4.112-3.85 0-2.167 1.465-3.852 3.798-3.852 2.048 0 3.378 1.36 3.378 3.115 0 .283-.045.552-.089.75h-5.786c.045 1.714 1.196 2.747 2.811 2.747.971 0 1.794-.425 2.287-1.062zm-3.573-5.224c-1.241 0-2.108.694-2.377 1.925h4.515c-.045-1.047-.808-1.925-2.138-1.925"/></g><defs><clipPath id="a"><path fill="#fff" d="M0 0h316v177.75H0z"/></clipPath></defs></svg>
