<svg width="102" height="118" viewBox="0 0 102 118" fill="none" xmlns="http://www.w3.org/2000/svg">
<path d="M98.3942 110.234C91.3342 88.3539 76.8742 72.6139 75.0242 69.9339C64.3642 54.4739 62.6042 48.4739 60.9842 44.8039C59.3442 41.1039 56.0442 34.6339 51.6842 30.0339C49.8142 28.0539 47.7442 26.4239 45.5342 25.5139C44.2542 24.9739 42.9342 24.6739 41.5642 24.6839C40.3642 24.6839 39.2342 24.7339 38.1242 24.8339C36.5042 24.9839 34.9342 25.2539 33.2142 25.7439C30.5742 26.4839 27.6142 27.7339 23.6642 29.7939C23.4742 29.8939 23.2842 30.0139 23.0842 30.1239C23.0342 29.5839 22.9842 29.0539 22.7442 28.5639C22.4642 28.1339 21.9742 28.3839 21.6242 28.5639C20.9742 28.8439 20.3242 29.0939 19.6642 29.3539C18.6842 29.7439 17.7442 30.0839 16.7642 30.5039C16.5042 30.6339 15.9842 30.8139 15.5942 31.0539C14.7642 31.0139 14.1142 31.9539 14.0942 32.7339C14.0542 33.6739 15.0042 34.0739 15.6142 34.5939C15.7942 34.7539 15.9142 34.8739 15.9642 34.9939C16.0142 35.1339 15.9842 35.2539 15.8742 35.4239C15.8542 35.4639 15.8142 35.5239 15.7742 35.5739C15.7642 35.5939 15.7442 35.6039 15.7342 35.6239C15.7142 35.6539 15.6942 35.6839 15.6742 35.7139C15.3942 36.1039 15.1142 36.4739 14.8142 36.8339C12.2042 40.0939 9.42418 43.2239 7.00418 46.6339C4.08418 51.5039 0.00418332 58.0039 0.294183 63.8339C0.514183 68.4639 5.32418 72.1639 9.94418 72.2639C15.9542 72.6139 21.0542 70.4039 25.9342 67.0739C27.1442 66.2539 29.3542 64.5639 29.3542 64.5639C29.3542 64.5639 29.8742 66.0839 29.9542 67.7439C30.0242 69.2539 29.6542 70.9139 29.6542 70.9239C29.3442 71.2139 29.0342 71.5039 28.7242 71.7939C27.5942 72.8439 26.4642 73.8939 25.3542 74.9739C23.8242 76.4539 16.0442 83.7139 13.9642 85.7439C13.2742 86.4139 6.46418 93.2139 5.85418 95.9439C5.49418 98.6139 7.08418 100.564 9.91418 101.064C12.0542 101.414 17.6742 100.814 17.6742 100.814C17.6742 100.814 17.6642 100.844 17.6342 100.894H17.6242C17.5142 101.114 17.1442 101.784 16.8542 102.374C16.8542 102.394 16.8442 102.404 16.8342 102.414C16.7142 102.654 16.5942 102.874 16.5242 103.054C16.4842 103.134 16.4042 103.374 16.2942 103.724C16.2942 103.734 16.2842 103.754 16.2842 103.764C15.7342 105.524 14.4342 110.034 13.4542 113.914C13.4442 113.944 13.4442 113.964 13.4342 113.994C13.1042 115.304 12.8142 116.544 12.6042 117.574H100.124C100.024 116.474 99.6342 114.074 98.3942 110.234Z" fill="#FED980"/>
<path d="M46.9641 23.8639L51.7241 23.1539L51.2241 20.8839C51.1441 20.5139 50.6941 20.3639 50.4141 20.6139L46.9641 23.8539V23.8639ZM34.9641 1.82391C34.7741 2.78391 34.5941 4.07391 34.6641 5.04391C34.9141 8.45391 35.7741 11.9839 34.8341 15.3539C33.8641 18.3239 31.1641 20.2639 29.7441 22.9739C29.3141 23.8839 28.9741 24.8439 28.9041 25.8539C28.9641 27.0639 29.3641 27.1039 28.3541 27.4939C27.4241 27.8839 24.9141 28.9739 24.0641 29.5139C23.8841 29.6739 23.3041 29.6839 23.2041 29.4239C23.0141 28.8039 22.7041 27.6139 22.5841 27.0139C22.2241 25.1239 22.0841 22.9939 22.7341 21.1439C23.7341 18.7939 26.8941 17.8339 28.5141 15.9339C30.7341 13.6539 29.3941 10.0739 29.9341 7.26391C30.3441 5.35391 31.6841 2.90391 33.0241 1.44391C33.6041 0.85391 35.8841 -0.57609 34.9741 1.83391L34.9641 1.82391ZM70.9941 11.0239C71.8041 11.2539 71.8041 11.9639 71.1841 12.4439C69.9841 13.5639 69.0941 14.9639 68.3141 16.4039C65.7541 21.0539 64.1041 26.3539 58.4941 28.0739C57.3641 28.4739 56.2041 28.7639 55.0241 29.0139C53.8341 29.2039 52.6941 29.5739 51.8141 30.4439C50.6341 31.4639 49.6041 32.9139 48.5641 34.3139C47.3941 35.3239 46.0141 36.0839 44.4441 36.0939C42.6541 36.0139 40.2441 34.7839 40.3841 32.8639C40.6741 29.1439 43.3441 26.6139 45.2341 25.1039C47.1241 23.5939 50.1641 23.6239 54.2241 22.9639C56.2241 22.6439 57.8341 20.7839 58.6841 19.5839C63.3941 12.9039 65.6841 11.8139 68.3841 11.0939C69.2341 10.8739 70.1541 10.7839 71.0041 11.0239H70.9941ZM35.1841 40.3839C35.8741 41.0439 37.3841 42.1739 36.9341 43.2239C36.8141 43.4939 36.5041 43.6139 36.2241 43.5439C35.6841 43.3539 35.3341 42.8239 34.8941 42.4739C34.5741 42.1939 34.2241 41.9439 33.8741 41.7039C33.0041 41.0839 32.0841 40.5439 31.2541 39.8839C30.7441 39.5139 30.2341 38.8339 30.7541 38.2439C30.9941 38.0139 31.3041 37.5939 31.6841 37.7539C32.1841 38.0239 32.6441 38.3439 33.0941 38.6739C33.8141 39.2039 34.5141 39.7939 35.1841 40.3839ZM17.5841 35.4339C17.9541 35.7139 18.0141 36.2339 17.7941 36.6239C17.6041 37.0139 17.1441 37.0739 16.7541 37.1439C16.2541 37.2139 15.7341 37.3539 15.2241 37.2539C14.4441 36.9039 15.4141 36.1839 15.7341 35.8539C15.9441 35.6639 16.1641 35.4939 16.3841 35.3139C16.4641 35.1939 16.6441 35.1639 16.7641 35.2239C17.0041 34.9739 17.3641 35.2739 17.5841 35.4339ZM38.5941 24.4039C38.9041 25.7639 39.3041 27.2139 38.9241 28.6039C38.4641 30.1039 37.2941 31.2539 35.7841 31.1039C34.8541 31.0939 31.4441 29.7539 32.0141 28.3839C32.7641 26.0739 33.4341 23.7339 34.2341 21.4339C34.6841 20.1839 35.1041 18.9339 35.4141 17.6439C35.6741 17.1439 36.3241 17.5039 36.1441 18.0139C36.2641 18.0439 36.3741 18.1339 36.4341 18.2539C36.6941 18.8139 36.9541 19.3739 37.1941 19.9439C37.7641 21.3939 38.2141 22.8939 38.6041 24.4039H38.5941ZM64.1841 34.7339C64.1841 34.8939 64.1041 35.0339 63.9841 35.1139C64.2241 36.2039 63.6641 37.7439 63.1741 38.7239C62.6941 39.7739 62.1841 40.8139 61.6541 41.8339C61.3441 42.3139 60.9641 43.5839 60.2141 43.2439C60.0041 43.1339 59.9441 42.8839 59.8841 42.6739C59.7841 42.3439 59.6641 41.9839 59.5641 41.6739C59.2141 40.6839 58.7441 39.6339 58.2941 38.7139C58.0241 38.1839 57.7441 37.6639 57.4241 37.1839C57.1541 36.7939 56.8741 36.4139 56.5741 36.0439C56.3141 35.7739 56.4841 35.3039 56.8741 35.3339C57.0641 35.1439 57.3741 35.1139 57.6141 35.0139C58.3041 34.7739 59.0041 34.5439 59.7141 34.3239C60.5041 34.0939 61.3041 33.8339 62.1341 33.8239C62.2941 33.8239 62.4341 33.8339 62.5641 33.8539C62.8541 33.8039 63.1741 33.9239 63.4141 34.0639C63.8341 33.8239 64.1741 34.3639 64.1841 34.7239V34.7339ZM72.7941 50.2739C72.8941 50.8439 72.5841 51.4239 72.4341 51.9539C71.6941 54.0039 71.0041 56.0939 69.9241 57.9939C69.6241 58.4739 69.2641 59.5939 68.6041 59.5239C68.3041 59.4839 68.1841 59.1839 68.0741 58.9439C67.8241 58.4539 67.5641 57.9639 67.2941 57.4739C66.6941 56.3439 66.0641 55.2339 65.4941 54.0939C64.8041 52.7339 64.1841 51.3339 63.5241 49.9539C63.4741 49.8339 63.3641 49.7339 63.3541 49.6039C63.2841 49.2039 63.8441 48.9739 64.0841 49.3039C65.7341 49.1239 67.4341 49.3539 69.1041 49.4439C69.8541 49.4939 70.6041 49.5239 71.3541 49.6039C71.8741 49.6739 72.5941 49.6939 72.7941 50.2839V50.2739ZM81.4341 70.1439C80.8241 71.4239 80.2241 72.7039 79.6241 73.9939C79.5041 74.2439 78.9141 75.2539 78.4841 74.6939C76.3741 71.8739 73.9941 68.5739 71.9241 65.5139C71.7741 65.2939 71.6441 64.7639 72.4841 64.7639C73.8041 64.7639 78.2541 64.6339 79.1941 64.6939C79.9741 64.7439 84.2341 64.3139 81.4341 70.1539V70.1439ZM91.5941 81.1539C90.9841 83.2139 89.4541 86.6339 89.1741 87.3139C88.8941 87.9939 88.5841 88.8239 88.1841 88.1639C87.5041 87.0439 82.6341 80.1339 82.1841 79.5039C81.9441 79.1739 81.9341 78.7639 82.7741 78.7739C83.7741 78.7939 89.1941 79.2439 89.6941 79.2639C91.7741 79.3539 91.9041 80.1139 91.6041 81.1439L91.5941 81.1539ZM99.2641 94.5039C100.374 94.7139 101.124 95.2139 100.534 96.9939C99.9441 98.7739 97.6641 102.264 97.3341 102.754C97.0041 103.244 96.1841 104.784 95.6841 103.014C95.4741 102.454 92.0441 94.8939 91.4741 93.9539C91.2741 93.5539 91.7541 93.4639 92.6241 93.5339C93.4941 93.6039 98.1541 94.2839 99.2641 94.4939V94.5039ZM16.8141 65.5039C18.4841 64.4739 19.3841 62.8939 18.8141 61.9639C18.2441 61.0339 16.4241 61.1139 14.7541 62.1439C13.0841 63.1739 12.1841 64.7539 12.7541 65.6839C13.3241 66.6139 15.1441 66.5339 16.8141 65.5039Z" fill="#EAB339"/>
<path d="M50.2741 90.6839C42.6241 85.2639 41.4341 83.7739 38.9141 83.7439C37.4941 83.7239 35.3141 84.9539 34.8441 87.1139C34.3741 89.2739 35.8541 89.2539 35.8541 89.2539L40.6541 89.3039C40.6541 89.3039 43.2741 92.4139 40.8841 94.5239C39.5741 95.6739 37.6441 94.3139 35.4341 97.4139C34.3541 94.7539 32.0441 95.3039 30.7741 93.8339C29.0541 91.8539 29.9141 90.2539 29.9141 90.2539C29.9141 90.2539 30.7541 90.0139 31.5841 89.6539C32.4141 89.2939 32.8541 88.8639 32.8541 88.8639C32.8541 88.8639 33.6541 89.6239 34.1141 89.6339C34.5741 89.6439 34.6141 89.2139 34.6441 87.7239C34.6741 86.2339 33.0141 83.9439 31.2441 83.8539C29.4741 83.7639 27.5941 85.6739 27.5941 85.6739C27.5941 85.6739 23.4341 88.9239 23.2941 89.1139C24.5441 86.6139 26.8441 81.7239 28.2541 77.5539C29.4941 73.9039 29.9341 70.7439 29.9341 70.7439C29.9341 70.7439 30.0741 68.9139 29.9241 67.2839C29.7741 65.6539 29.4541 64.3639 29.4541 64.3639L40.0441 55.4839C40.0441 55.4839 41.0241 58.1139 42.8641 62.0239C44.8541 66.2539 48.1841 71.7039 50.8641 77.4639C53.5741 83.2739 57.4241 94.0039 57.4241 94.0039C57.4241 94.0039 54.1941 93.4339 50.2641 90.6539L50.2741 90.6839ZM60.6541 109.494C60.5741 108.724 60.5041 107.974 60.4241 107.224C60.5741 107.154 59.9641 104.664 59.6841 103.394C59.6841 103.334 53.0241 100.264 50.6241 99.2039C49.9241 98.8939 49.0441 98.8539 48.2241 98.7339C46.3541 98.4539 43.9441 97.7739 42.0641 97.5739C41.0141 97.4739 36.5541 98.6639 36.0841 98.8039C35.9141 98.8539 34.0641 98.5739 33.6841 98.4439C29.4141 97.0039 28.3641 97.0039 26.9841 97.2939C25.5941 97.5839 23.3041 98.9339 21.6141 99.5639C20.8841 99.8339 18.2941 100.684 17.6341 100.894H17.6241C17.5341 100.924 17.4841 100.944 17.4841 100.944C17.4841 100.944 17.2241 101.524 16.8541 102.374C16.8541 102.394 16.8441 102.404 16.8341 102.414C16.6741 102.804 16.4841 103.254 16.2941 103.724C16.2941 103.734 16.2841 103.754 16.2841 103.764C15.7741 105.004 15.2341 106.424 14.9541 107.504C14.4341 109.564 13.9141 111.744 13.4541 113.914C13.4441 113.944 13.4441 113.964 13.4341 113.994C13.1841 115.204 12.9441 116.404 12.7241 117.574H60.5941C60.7041 116.474 60.7541 115.364 60.7841 114.264C60.8241 112.674 60.7941 111.074 60.6541 109.494Z" fill="#FFF7DB"/>
<path d="M54.2342 43.0039C54.5242 41.4639 54.2542 39.8039 53.9642 38.3139C53.7742 37.3839 53.5242 36.5239 53.2142 35.6839C53.0042 35.1939 53.7742 34.8539 53.9842 35.3539C55.0342 38.2539 56.7942 45.6839 52.1742 46.1239C49.4742 45.8939 46.7642 39.8339 45.8842 37.5039C45.8742 37.2039 46.2342 36.9939 46.4842 37.1539C46.8142 37.4639 46.8842 37.9939 47.1142 38.3839C47.8142 39.9539 48.6042 41.4839 49.5642 42.9139C51.0742 45.3639 53.3042 46.6639 54.2442 43.0139L54.2342 43.0039ZM19.1442 61.7839C19.8342 62.9139 18.9042 64.6939 17.0142 65.8539C16.0542 66.4439 15.0642 66.7339 14.2342 66.7339C13.4242 66.7339 12.7642 66.4539 12.4242 65.9039C12.0742 65.3339 12.1242 64.5739 12.5742 63.7839C12.9842 63.0639 13.6842 62.3739 14.5442 61.8439C15.4042 61.3139 16.3442 61.0039 17.1742 60.9639C18.0842 60.9139 18.7842 61.2139 19.1342 61.7939L19.1442 61.7839ZM18.4842 62.1739C18.3042 61.8739 17.8842 61.7139 17.3342 61.7139C17.3342 61.7139 17.2542 61.7139 17.2042 61.7139C16.5042 61.7439 15.7042 62.0139 14.9442 62.4839C14.1842 62.9439 13.5842 63.5439 13.2342 64.1539C12.9342 64.6839 12.8742 65.1739 13.0642 65.4939C13.4542 66.1339 15.0042 66.1639 16.5942 65.1939C18.1842 64.2139 18.8642 62.8239 18.4642 62.1839L18.4842 62.1739ZM32.7742 45.3139C32.2342 44.8739 31.6742 44.4639 31.0942 44.0839C29.9342 43.3039 28.6742 42.6839 27.3642 42.2139C27.0842 42.0939 26.7242 42.3039 26.8142 42.6339C26.9442 42.9739 27.3642 43.0439 27.6542 43.2039C29.4542 43.9339 31.0942 44.9839 32.5842 46.2339C32.6542 46.2939 32.7342 46.3139 32.8242 46.3139C33.0642 46.3139 33.2942 46.1039 33.2542 45.8439C33.2142 45.5839 32.9542 45.4739 32.7942 45.3139H32.7742ZM97.1742 103.774C97.0242 103.944 96.8942 104.224 96.7242 104.414C96.8242 104.674 98.6242 109.004 99.2742 112.354C99.6142 114.094 100.064 115.824 100.394 117.574H99.5542C99.2942 116.164 98.9842 114.754 98.6642 113.354C98.4142 112.304 98.1642 111.244 97.8842 110.184C97.8842 110.164 97.8842 110.134 97.8742 110.114C97.8342 109.914 97.7742 109.734 97.7042 109.544C97.6842 109.464 97.6642 109.394 97.6442 109.324H97.6342C97.5542 109.104 97.4742 108.884 97.4142 108.654C97.3242 108.404 97.2442 108.144 97.1642 107.894C97.0842 107.624 96.9942 107.344 96.9042 107.074C96.8642 106.944 96.8142 106.814 96.7542 106.694C96.7542 106.654 96.7242 106.624 96.7142 106.594C96.7142 106.584 96.7042 106.584 96.7042 106.574C96.6542 106.424 96.6042 106.284 96.5442 106.134C96.5242 106.094 96.5042 106.044 96.4942 105.994C96.4842 105.914 96.4342 105.844 96.3742 105.804C92.8442 96.0439 87.3442 87.1139 81.1542 78.8239C78.3242 75.0739 75.4142 71.3639 72.7742 67.4739C70.0942 63.5539 67.5842 59.5139 65.4542 55.2639C62.9642 50.3939 60.9042 45.3239 58.4742 40.4239C57.7742 39.0339 56.9842 37.6539 56.1042 36.3739C54.7842 34.4639 53.3842 32.6039 51.7542 30.9639C50.9542 31.4939 50.2742 32.1939 49.8142 33.0839C49.5442 33.5339 49.2542 34.0839 48.9542 34.4739C47.6542 35.9939 45.4242 36.7339 43.4442 36.4239C43.2742 36.3939 43.1142 36.3539 42.9442 36.3139C42.0742 36.0839 41.3342 35.4939 40.8242 34.7739C40.4442 34.2539 40.0142 33.7139 39.9242 33.0539C39.8342 30.7639 41.9242 27.4539 43.5342 25.8839C43.7442 25.6839 43.9742 25.5039 44.2042 25.3239C42.5042 25.0739 40.7742 25.0639 39.0642 25.2639C39.4042 26.8639 39.5342 28.5139 38.9542 30.0339C38.5242 30.9039 37.2742 31.5739 36.3242 31.5739H36.2942C34.8442 31.5739 32.4842 30.7239 31.7242 29.4339C31.4542 29.0239 31.4542 28.5439 31.6142 28.0939C31.7542 27.5839 31.9242 27.0739 32.0942 26.5639C30.1742 27.2139 28.3142 28.0039 26.4942 28.8739C25.4542 29.3539 24.4042 29.8239 23.3942 30.3839C21.8842 31.2139 20.6042 32.3239 19.2842 33.4039C18.7542 33.8339 18.2242 34.2739 17.7042 34.7139C17.5142 34.9139 17.3242 35.1039 17.1342 35.3039C17.5042 35.3339 17.8542 35.4539 18.0942 35.7439C18.4142 36.1739 18.4142 36.8839 17.9942 37.2439C17.3742 37.7239 16.5142 37.6539 15.7642 37.7839C15.3842 37.8239 14.9942 37.8539 14.6142 37.9139C13.9442 38.6239 13.2742 39.3239 12.6242 40.0439C13.4242 40.0039 14.2342 40.0439 15.0342 40.1739C15.2542 40.2139 15.4242 40.4139 15.3842 40.6439C15.3642 40.8439 15.1842 41.0039 14.9842 41.0039H14.9242C13.8842 40.8239 12.8942 40.8039 11.8742 40.9039C10.5942 42.3539 9.35422 43.8339 8.24422 45.4439C6.27422 48.4139 4.62422 51.5939 3.09422 54.8139C0.854222 59.3139 -0.575778 64.9939 3.30422 69.0539C8.86422 75.2139 20.3242 70.3639 26.0242 66.4739C28.9042 64.5339 31.5642 62.2839 34.2542 60.0939C36.8542 57.8739 39.6342 55.7439 41.8042 53.1039C41.8042 53.0639 41.8342 53.0139 41.8442 52.9739C42.0242 52.4639 42.1342 51.9439 42.1742 51.4239C42.1942 51.0739 42.1742 50.7339 42.1442 50.3939C42.1242 50.2339 42.1042 50.0639 42.2142 49.9239C42.5242 49.5839 42.9542 49.8639 42.9542 50.2739C43.1042 52.4139 43.0342 53.5039 40.9142 55.3339C41.0942 55.6739 41.2042 56.2039 41.2742 56.4439C42.6242 60.6539 45.1442 64.3439 47.1442 68.2539C50.3042 74.1239 53.0542 80.1639 55.5042 86.3539C56.4042 88.6639 57.2842 90.9939 58.0642 93.3539C58.0942 93.4139 58.1142 93.4839 58.1342 93.5439C58.8542 93.7139 59.5742 93.8539 60.3142 93.9339C61.0542 94.0439 61.7942 94.1439 62.5442 94.2439C62.9642 94.2939 63.3842 94.3639 63.8042 94.4139C64.4042 94.4739 64.9942 94.5039 65.5842 94.5139C64.4042 92.8739 63.1642 91.2639 61.8942 89.6839C61.4442 89.1339 60.9842 88.5739 60.5142 88.0339C60.1742 87.6339 59.8142 87.2539 59.4642 86.8539C59.2042 86.6139 59.0742 86.1539 59.5142 86.0339C59.9242 85.9639 60.2442 86.5739 60.5242 86.8139C61.4442 87.8239 62.3142 88.8739 63.1542 89.9339C64.3342 91.4239 65.4942 92.9339 66.5942 94.4939C67.2742 94.4439 67.9542 94.3439 68.6142 94.1439C68.7942 94.0939 69.0042 94.2139 69.0642 94.3939C69.2242 94.9539 68.4742 94.9939 68.1042 95.0939C67.5842 95.2039 67.0642 95.2639 66.5442 95.2939C66.4542 95.3439 66.3442 95.3439 66.2442 95.3039C65.9442 95.3239 65.6342 95.3439 65.3342 95.3339C64.3542 95.2839 63.3842 95.1739 62.4142 95.0139H62.4042C60.8742 94.7739 59.3242 94.6639 57.8142 94.3139C55.9342 93.8039 54.0242 93.3239 52.3042 92.3839C51.2242 91.7639 50.1742 91.0739 49.1142 90.4139C47.7642 89.5339 46.5642 88.4539 45.2142 87.5939C43.9142 86.7639 42.6042 85.8539 41.1142 85.4239C39.8242 85.0639 38.4742 85.5139 37.3442 86.1439C36.5142 86.6439 35.9742 87.5739 35.5242 88.3639C35.5042 88.3939 35.4842 88.4239 35.4642 88.4639C35.2742 88.7939 35.0642 89.5039 34.7442 89.6539C34.6542 89.7639 34.5242 89.8539 34.3442 89.9039C33.9542 90.0039 33.1642 89.9639 33.2442 89.3839C33.2442 89.3539 33.2442 89.3339 33.2742 89.3039C33.3442 89.1339 33.5442 89.0139 33.7342 89.0639C33.8642 89.0939 34.0142 89.1439 34.1442 89.0939C34.0142 88.2939 33.2042 87.1539 32.5942 86.6239C31.0142 85.5339 28.8342 85.5639 27.1842 86.4739C25.9742 87.1539 25.0342 88.1739 24.1142 89.1739C23.8442 89.4639 23.5742 89.7439 23.2942 90.0239C23.1842 90.1239 23.0742 90.2539 22.9442 90.3339C22.1942 91.1439 20.2142 92.0539 19.7242 92.3239C19.0642 92.6539 18.3842 92.9739 17.7542 93.2439C17.4342 93.3939 16.9342 93.6639 16.7442 93.1939C16.5942 92.7439 17.1042 92.6139 17.4142 92.4839C19.1642 91.6539 21.0542 90.9239 22.5042 89.6139C25.2242 84.2039 27.8142 78.7339 29.1342 72.8039C29.2042 72.4639 29.2742 72.1139 29.3342 71.7639C27.8642 73.1639 26.4342 74.5939 24.9742 75.9939C20.0542 80.5239 14.9742 84.9339 10.5842 90.0039C8.94422 92.2139 4.42422 96.0039 6.85422 98.8639C9.34422 101.604 13.6242 101.324 17.3842 100.424C17.4242 100.414 17.4642 100.404 17.5042 100.394C18.9042 100.054 20.2342 99.6339 21.3642 99.2539C22.5742 98.8439 23.7442 98.3339 24.9042 97.8139C24.9742 97.7739 25.0342 97.7339 25.0942 97.7139C25.5442 97.4539 26.0242 97.2239 26.5042 97.0439C26.5542 97.0239 26.6142 97.0039 26.6642 97.0039C27.5242 96.7139 28.4442 96.6239 29.3442 96.6439C29.7642 96.6539 30.1742 96.6839 30.5842 96.7639C31.0542 96.8239 31.5242 96.9539 31.9742 97.1339C32.8942 97.4539 34.0042 98.2639 34.9642 98.1839C34.9642 97.9439 34.9942 97.7139 35.0542 97.4839C34.4642 96.1239 33.4142 95.6739 32.0842 95.1939C30.1742 94.3439 29.3442 93.1439 29.4142 91.0439C29.4142 90.9639 29.4242 90.8639 29.4242 90.7439C29.2142 90.8239 28.9942 90.8939 28.7742 90.9739C28.4342 91.1139 28.0942 91.2739 27.7942 91.4439C27.5842 91.5839 27.2642 91.6339 27.1142 91.3939C26.8042 90.8239 27.7242 90.5939 28.0842 90.3839C28.8942 90.0339 29.7242 89.7539 30.5642 89.4739C30.9542 89.3439 31.3542 89.2239 31.7442 89.0739C32.0042 88.9739 32.2742 88.8839 32.4642 88.6739C31.3242 87.7639 29.3042 88.1339 27.9742 88.4239C27.2942 88.5739 26.6742 88.9039 26.0242 89.0939C25.8642 89.0939 25.7242 89.0039 25.6942 88.8439C25.5742 88.1439 28.0942 87.5339 28.6542 87.4539C28.8342 87.4239 29.0142 87.4039 29.1942 87.3739C29.1642 87.2239 29.1642 87.0639 29.1842 86.9039C29.2442 86.5739 29.6642 86.4539 29.8542 86.7539C29.9242 86.8539 29.9342 86.9839 29.9442 87.1139C29.9542 87.1739 29.9542 87.2439 29.9542 87.3139C30.7542 87.2839 31.5542 87.3439 32.2942 87.6339C33.0242 87.8939 33.7342 88.6039 33.0142 89.2939C32.9942 89.3139 32.9642 89.3339 32.9442 89.3439H32.9342C32.3442 89.8339 31.5642 89.9939 30.8542 90.2439C30.6342 90.3139 30.4242 90.3939 30.2042 90.4739C30.2142 90.6239 30.1942 90.7839 30.2042 90.9239C30.2042 92.4839 30.4742 93.3639 31.8642 94.1839C32.7642 94.6739 33.7942 94.8639 34.5742 95.5139C34.9442 95.8039 35.2342 96.1839 35.4742 96.5939C35.9142 95.9339 36.6042 95.5039 37.3342 95.2239C38.3942 94.7939 39.5942 94.8039 40.6242 94.2939C41.3742 93.8139 41.5542 92.8139 41.5442 91.9939C41.5342 91.5939 41.4542 91.1839 41.2542 90.8339C40.9942 90.4439 40.6342 90.1239 40.3442 89.7639C40.3142 89.7439 40.3042 89.7139 40.2842 89.6939C39.8242 89.6439 39.3542 89.6339 38.8942 89.6339C38.2842 89.6539 37.5842 89.7039 37.0042 89.6339C36.6542 89.6039 36.0342 89.4639 35.8642 89.1139C35.7542 89.0439 35.6842 88.9039 35.7142 88.7839C35.7142 88.7639 35.7242 88.7439 35.7342 88.7239C35.8042 88.5939 35.9142 88.5039 36.0142 88.4039C36.7642 87.7639 37.6142 87.2039 38.5642 86.9239C39.3342 86.6739 40.1342 86.4739 40.9442 86.5239C42.5842 86.6039 43.8542 87.7739 45.1542 88.6439C45.5942 88.8939 45.3342 89.5439 44.8442 89.3539C43.8642 88.7039 42.9342 87.9339 41.8442 87.4739C41.1842 87.2239 40.4642 87.2339 39.7742 87.3239C39.0142 87.4839 38.3342 87.6639 37.6742 88.0439C37.3342 88.2639 37.0042 88.5039 36.6842 88.7539C36.6442 88.7639 36.6242 88.7939 36.5942 88.8139C36.6042 88.8239 36.6242 88.8339 36.6442 88.8339C37.0342 88.9239 37.4142 88.9439 37.8042 88.9439C38.1742 88.9439 38.5642 88.9139 38.9342 88.9039C39.2242 88.9039 39.5142 88.9039 39.8042 88.9139C40.4942 88.9439 41.1942 89.0239 41.8342 89.2839C43.3242 89.8439 44.2942 91.2039 45.0942 92.4939C45.3442 92.9139 45.5942 93.3339 45.8242 93.7639C46.0342 94.1739 45.4542 94.5339 45.1842 94.1539C44.2242 92.6039 43.3642 90.7439 41.5942 90.0039C42.0442 90.5439 42.3342 91.2139 42.3242 91.9139C42.3542 93.1139 41.9942 94.4739 40.8642 95.0439C39.2442 95.8139 36.8042 95.4739 35.9242 97.3439C35.9242 97.3539 35.9242 97.3739 35.9042 97.3939C35.8242 97.7039 35.7142 98.0539 35.8042 98.3739V98.3939C35.8042 98.3939 35.8242 98.4039 35.8442 98.3939C36.0342 98.4239 36.2142 98.3339 36.3942 98.2839C36.8442 98.1339 37.2842 97.9739 37.7242 97.8339H37.7342C38.8142 97.5039 39.9242 97.2239 41.0542 97.1639C41.2542 97.1639 41.4442 97.1639 41.6442 97.1739C41.6542 97.1839 41.6742 97.1839 41.6842 97.1839C42.0142 97.2039 42.3542 97.2439 42.6842 97.3039H42.7142C43.8142 97.4939 44.9042 97.8239 45.9842 98.0439C46.7042 98.1839 47.4342 98.3339 48.1742 98.4039C48.5842 98.4339 48.9942 98.4339 49.4042 98.4539H49.4242C49.6942 98.4739 49.9542 98.5039 50.2142 98.5539C50.9342 98.7239 51.6042 99.0639 52.2642 99.4039L52.6242 99.5839C53.5142 100.044 54.3942 100.524 55.2942 100.974C56.6242 101.624 57.9642 102.244 59.3642 102.734C59.5542 102.804 59.7542 102.874 59.9542 102.934C64.6342 104.544 70.7942 106.104 74.5142 106.644C79.2742 107.244 78.9242 102.264 77.9542 99.0939C77.0742 96.1839 75.7642 93.4339 74.4142 90.7139C73.1142 88.0139 71.7142 85.3539 70.2042 82.7739C70.1042 82.6039 70.0042 82.4339 69.9042 82.2639C69.8542 82.2039 69.8242 82.1339 69.7842 82.0739C68.3542 79.6839 66.9342 77.2839 65.3442 75.0039C65.1842 74.4739 65.8142 74.3139 66.0942 74.7339C67.6342 76.6339 68.7342 78.8539 70.0642 80.9039C70.3642 81.4039 70.6742 81.9039 70.9542 82.4139C71.0142 82.4839 71.0442 82.5639 71.0642 82.6539C71.8642 83.9939 72.6142 85.3639 73.3442 86.7539C75.5642 91.3139 80.2142 99.2539 79.2542 104.264C78.5542 107.284 76.2342 107.894 73.4542 107.334C71.6842 107.014 69.9142 106.674 68.1642 106.244C66.2342 105.764 61.9842 104.644 60.1942 103.924C60.5142 105.004 60.6942 106.134 60.9042 107.244C61.4942 110.644 61.5942 114.144 61.2442 117.574H60.4142C60.5442 116.284 60.6042 114.974 60.6142 113.674C60.6142 112.274 60.5142 110.854 60.3642 109.454C59.2542 110.184 58.0842 110.794 56.8642 111.304C55.9742 111.674 55.0642 112.004 54.1742 112.284C52.3042 112.874 50.3942 113.324 48.4742 113.664C46.6242 113.984 44.7542 114.214 42.8742 114.354C41.1342 114.494 39.3842 114.564 37.6442 114.564C37.4242 114.564 37.2042 114.564 36.9842 114.564C35.0142 114.544 33.0442 114.454 31.0842 114.274C30.8842 114.254 30.6842 114.244 30.5342 114.224C30.4542 114.214 30.3642 114.204 30.3042 114.204C28.2542 114.004 26.2242 113.704 24.2042 113.314C22.2742 112.944 20.3642 112.484 18.4842 111.914C17.1342 111.514 15.7942 111.034 14.4742 110.504C13.8242 112.834 13.2942 115.194 12.8942 117.584H12.0242C12.9742 112.024 14.6242 106.614 16.8242 101.414C15.1942 101.734 13.5242 101.904 11.8442 101.824C9.14422 101.804 5.75422 100.354 5.28422 97.4039C5.25422 94.5239 7.51422 92.4339 9.18422 90.3439C13.5042 85.2139 18.4942 80.7339 23.4642 76.2539C25.3442 74.5539 27.0642 72.6939 28.9642 71.0139C29.1342 70.8839 29.4642 70.7439 29.5042 70.4039C29.7442 68.6739 29.6542 66.9239 29.1542 65.2539C23.7342 69.3439 17.3342 72.7839 10.5042 72.7839C9.80422 72.7839 9.08422 72.7439 8.36422 72.6639C4.23422 72.1239 0.824222 68.6339 0.124222 64.5639C-0.515778 60.2739 1.43422 56.1839 3.29422 52.4439C4.59422 49.8839 5.95422 47.3439 7.55422 44.9539C8.66422 43.3439 9.91422 41.8539 11.2242 40.4039C11.2542 40.3239 11.3142 40.2639 11.3842 40.2239C12.5342 38.9539 13.7142 37.7139 14.9042 36.4839C15.1142 36.2639 15.3842 35.9539 15.7142 35.6239C15.7242 35.6039 15.7442 35.5939 15.7542 35.5739C15.8242 35.5039 15.8942 35.4339 15.9742 35.3539C16.0542 35.2539 16.1442 35.1639 16.2442 35.0639H16.1742C16.1742 35.0639 16.0842 35.0439 16.0342 35.0239C16.0042 35.0139 15.9742 35.0039 15.9442 34.9939C13.8042 34.2239 12.9242 31.5939 15.2942 30.4439C16.7642 29.7439 18.3042 29.1839 19.8442 28.6539C20.6242 28.4439 21.4142 28.0539 22.2042 27.8939C21.6342 25.6339 21.5842 23.1239 22.7842 21.0639C23.4042 19.9439 24.2542 18.8939 25.2442 18.1039L25.2642 18.0839C25.8342 17.6239 26.4342 17.2039 27.0042 16.7439C29.6742 14.7239 29.1242 13.1939 29.1542 10.2339C29.1742 7.28388 29.9642 4.23388 31.9642 2.00388C32.6442 1.27388 34.1642 -0.156117 35.1942 0.0138826C35.5342 0.123883 35.7242 0.493883 35.6742 0.843883C35.4842 1.78388 35.0442 2.73388 34.9742 3.69388C34.6742 6.20388 35.6142 8.66388 35.6442 11.1639C35.6642 13.3239 35.3942 15.5439 34.3842 17.4639C33.6142 18.8939 32.2742 19.9839 31.3742 21.3039C30.4342 22.6239 29.6742 24.0339 29.4642 25.6339C29.4242 25.9839 29.4142 26.3239 29.4242 26.6639C30.1242 26.3839 30.8242 26.1139 31.5342 25.8639C31.8242 25.7639 32.1042 25.6739 32.3942 25.5839C32.8542 24.2339 33.3042 22.9039 33.8042 21.5639C34.1442 20.6739 34.4742 19.7739 34.8642 18.9039C35.0342 18.6039 35.3542 17.7139 35.4242 17.5939C35.6842 16.9839 36.4242 16.9639 36.6442 17.6239C37.3642 19.5439 38.0442 21.4239 38.5842 23.4039C38.6742 23.7439 38.7742 24.0939 38.8542 24.4439C40.2842 24.2739 41.7342 24.2539 43.1642 24.3739H43.1742C43.4642 24.3939 43.7642 24.4239 44.0542 24.4639C44.2742 24.4939 44.4842 24.5339 44.6942 24.5739C44.8342 24.5939 44.9642 24.6139 45.0942 24.6439C45.2142 24.5639 45.3442 24.4939 45.4742 24.4139C46.7942 23.1539 48.1942 21.9539 49.6142 20.8039C50.2542 20.2839 51.0042 19.8339 51.6142 20.6639C51.9642 21.2239 52.1342 22.0139 52.1942 22.8739C52.5042 22.8639 52.8242 22.8339 53.1342 22.7939C57.1442 22.0939 57.5842 20.2839 59.6542 17.3139C61.7042 14.4239 64.3442 11.6239 67.9442 10.8739C69.0942 10.6439 70.3242 10.4739 71.4642 10.8339C72.8642 11.3639 72.6142 12.1339 71.4842 12.8239C69.8142 14.1939 68.9742 16.2739 68.0042 18.1339C67.3942 19.3739 66.6642 20.6139 65.9742 21.7939C64.7942 23.8339 63.4942 25.8739 61.5142 27.2339C59.4042 28.8239 56.7342 29.2839 54.2342 29.9239C53.6242 30.0639 53.0442 30.2939 52.4842 30.5739C52.9142 31.0139 53.3342 31.4739 53.7442 31.9339C54.7242 33.0639 55.6042 34.2639 56.4542 35.4939C56.5642 35.4339 56.6842 35.3839 56.7842 35.3339C57.4642 35.0339 58.1742 34.7839 58.8842 34.5239C59.8642 34.1839 60.8442 33.8539 61.8542 33.5939C62.2042 33.5039 62.5742 33.4239 62.9342 33.4439C64.6242 33.6539 64.8942 35.1339 64.6142 36.5639C64.3542 38.0639 63.7742 39.4739 63.0742 40.7939C62.5942 41.6939 62.0542 42.5539 61.5342 43.4239C61.3942 43.6539 61.2542 43.8839 61.1342 44.1239C61.8842 45.7739 62.6342 47.4339 63.3942 49.0839H63.6842C63.9942 49.0839 64.3042 49.0839 64.6142 49.0939C65.8342 49.1039 67.0442 49.1439 68.2542 49.1639C69.4442 49.1939 70.6442 49.2539 71.8342 49.4239C73.0142 49.5539 73.5942 49.9539 73.3842 51.2239C73.2042 52.1639 72.8442 53.0539 72.4842 53.9439C71.9342 55.2639 71.3342 56.5839 70.6742 57.8539C70.2042 58.7439 69.7042 59.6039 69.2342 60.4739C69.2642 60.5139 69.2942 60.5639 69.3142 60.6039C70.1042 61.9239 70.9342 63.2139 71.7742 64.4939H72.0242C74.2942 64.3939 76.5542 64.2939 78.8142 64.3239C79.7642 64.3639 80.7542 64.3639 81.6542 64.6739C83.8942 65.8839 82.2442 69.6339 81.4342 71.3439C80.9442 72.3639 80.4242 73.3339 79.9142 74.3139C79.8742 74.3739 79.8442 74.4439 79.8042 74.5139C79.6942 74.7139 79.5742 75.0139 79.3942 75.1639C80.0842 76.0739 80.7742 76.9939 81.4742 77.8939C81.6342 78.1139 81.7842 78.3239 81.9442 78.5439C81.9942 78.5339 82.0442 78.5239 82.0942 78.5139H82.1142C82.2042 78.5139 82.3142 78.4939 82.4042 78.4939C82.4742 78.4839 82.5442 78.4839 82.6042 78.4739C85.0242 78.4639 87.4542 78.6739 89.8742 78.8539C90.6142 78.9639 91.7242 78.9039 92.0042 79.7739C92.2942 80.7639 91.3242 83.1339 90.9742 84.1639C90.4942 85.5139 89.8942 86.8139 89.3242 88.1239C89.2042 88.3939 89.0942 88.6739 88.9842 88.9439C89.8142 90.3139 90.6242 91.6939 91.3942 93.0939C92.0542 93.0939 92.8642 93.2139 93.2542 93.2239C95.4842 93.4739 97.7342 93.7839 99.9242 94.3039C101.384 94.6039 101.314 95.4439 100.974 96.6539C100.484 98.4639 99.6242 100.104 98.6242 101.654C98.1542 102.384 97.6342 103.084 97.1442 103.784L97.1742 103.774ZM25.6242 98.3539C25.6242 98.3539 25.5342 98.4539 25.4642 98.4839L25.1042 98.6339C25.1042 98.6339 25.0642 98.6539 25.0542 98.6639H25.0342C24.4242 98.9339 23.8042 99.1939 23.1842 99.4439C24.5642 99.7139 25.9542 99.9339 27.3542 100.084C28.1142 100.174 28.8742 100.244 29.6342 100.304C31.3742 100.434 33.1342 100.504 34.8842 100.504C36.3842 100.504 37.8842 100.464 39.3742 100.384C39.4442 100.384 39.5242 100.384 39.5342 100.384C41.2642 100.274 42.9842 100.114 44.6942 99.8839C45.7842 99.7339 46.8642 99.5539 47.9342 99.3539C48.0742 99.3239 48.2242 99.2839 48.3742 99.2539C46.0842 99.1239 43.9142 98.2339 41.6342 98.0139C40.4042 97.9339 39.1842 98.2839 38.0142 98.6339C37.5542 98.7839 37.0942 98.9439 36.6442 99.0839C36.1942 99.2539 35.6142 99.3339 35.2542 98.9839C35.0642 99.0539 34.8642 99.0839 34.6942 99.0539C32.9842 98.8139 31.5742 97.5239 29.7942 97.5039C29.0742 97.4539 28.3342 97.4739 27.6242 97.6039C26.9142 97.7239 26.2642 98.0339 25.6242 98.3639V98.3539ZM17.1042 102.924C16.1942 105.144 15.4142 107.414 14.7442 109.704C15.0742 109.834 15.4042 109.974 15.7442 110.104C17.5042 110.764 19.3142 111.324 21.1542 111.774C21.4142 111.844 21.6742 111.904 21.9442 111.964C23.9242 112.434 25.9242 112.794 27.9342 113.074C28.7642 113.184 29.5942 113.284 30.3642 113.364C30.4342 113.364 30.4942 113.374 30.5242 113.384C30.5742 113.384 30.6242 113.394 30.6642 113.394C32.6242 113.584 34.5942 113.694 36.5642 113.724C37.7542 113.734 38.9342 113.724 40.0742 113.684C41.9642 113.614 43.8442 113.474 45.7242 113.234C46.5342 113.134 47.3442 113.014 48.1442 112.874C50.0542 112.544 51.9542 112.114 53.8042 111.534C53.8442 111.524 53.8842 111.514 53.9242 111.504C55.1642 111.104 56.3742 110.644 57.4942 110.124C58.2842 109.754 59.0442 109.344 59.7742 108.884C59.9542 108.774 60.1142 108.654 60.2842 108.534C60.0642 106.854 59.7142 105.194 59.2442 103.574C57.8542 103.054 56.4742 102.484 55.1342 101.814C54.0042 101.264 52.8142 100.604 51.7142 100.044C51.3542 99.8739 51.0042 99.7139 50.6342 99.5639C49.8842 99.7539 49.1242 99.9439 48.3642 100.104C48.2542 100.124 48.1542 100.144 48.1142 100.144C46.4042 100.484 44.6642 100.734 42.9342 100.924C41.7542 101.054 40.5742 101.144 39.4142 101.214C37.9842 101.294 36.5442 101.334 35.1142 101.334H34.1442C32.3842 101.314 30.6342 101.234 28.8842 101.074C27.2442 100.934 25.6142 100.734 23.9942 100.454C23.2542 100.324 22.5142 100.144 21.7842 99.9839C20.4942 100.464 19.1742 100.874 17.8442 101.184C17.5942 101.764 17.3442 102.344 17.1042 102.924ZM25.1242 86.9639C24.9942 86.9539 24.8642 86.9439 24.7342 86.9339C24.6042 87.2039 24.4742 87.4739 24.3342 87.7539C24.5942 87.4839 24.8542 87.2139 25.1242 86.9639ZM34.3142 87.4439C34.1842 86.5539 33.6642 85.7939 33.0142 85.1939C32.5142 84.7639 31.9742 84.3439 31.3342 84.1739C30.6542 84.0639 29.7742 84.5439 29.0542 85.0439C30.4442 84.8639 31.9142 85.1439 33.0542 85.9439C33.5642 86.3339 33.9742 86.8939 34.3142 87.4439ZM41.0242 84.5939C40.7442 84.4439 40.4542 84.3139 40.1342 84.2239C38.8242 83.9239 37.2142 84.0339 36.3142 85.1639C35.9742 85.6539 35.7442 86.2139 35.5942 86.7939C36.3642 85.7639 37.2942 85.1439 38.7442 84.7239C39.5042 84.4539 40.2742 84.4539 41.0242 84.5939ZM53.5442 83.7639C50.6342 84.9339 47.7042 85.7739 44.7242 86.3439C44.7142 86.3439 44.6942 86.3539 44.6842 86.3539C44.9242 86.5039 45.1642 86.6439 45.4042 86.8039C45.4342 86.8239 45.4742 86.8439 45.5042 86.8739C45.9642 87.1439 46.4142 87.4339 46.8542 87.7539C47.3642 88.1339 47.8642 88.5339 48.3742 88.9139C48.4442 88.9639 48.5142 89.0139 48.5742 89.0539C48.6242 89.0939 48.6642 89.1239 48.7142 89.1439C48.8642 89.2639 49.0142 89.3639 49.1642 89.4739C49.6942 89.8239 50.2342 90.1639 50.7642 90.5039H50.7742C50.8842 90.5739 50.9842 90.6439 51.0942 90.7139C51.1242 90.7339 51.1542 90.7439 51.1842 90.7639C51.7042 91.0839 52.2242 91.4039 52.7542 91.7139C53.4342 92.1039 54.1742 92.3939 54.9142 92.6439C54.9142 92.6439 54.9209 92.6472 54.9342 92.6539C54.9842 92.6739 55.0442 92.6939 55.0942 92.7139C55.3542 92.7939 55.6242 92.8739 55.8842 92.9539C56.2042 93.0439 56.5442 93.1439 56.8742 93.2339C56.9042 93.2439 56.9242 93.2439 56.9542 93.2539C57.0142 93.2739 57.0842 93.2839 57.1542 93.3039C56.0542 90.0739 54.8442 86.9039 53.5442 83.7639ZM48.6342 72.9639C44.2442 75.5139 38.9342 76.5139 33.9142 76.3939C32.5942 76.3439 31.3742 76.1639 30.1142 75.8839C29.8642 75.7939 29.5342 75.7939 29.2742 75.6739C28.6842 77.7439 27.9142 79.7739 27.0942 81.7539C26.4742 83.2339 25.8142 84.6839 25.1242 86.1339C25.4442 86.1639 25.7642 86.1839 26.0842 86.2039C26.2942 86.0539 26.5142 85.9139 26.7442 85.7839C26.7442 85.7839 26.7442 85.7839 26.7442 85.7739C26.7442 85.7739 26.7542 85.7739 26.7542 85.7639C26.9742 85.6539 27.1942 85.5339 27.4342 85.4439C28.0442 84.8439 28.7542 84.3639 29.4842 83.9339C30.3642 83.3939 31.3342 83.1739 32.2742 83.7139C32.3742 83.7639 32.4642 83.8139 32.5542 83.8839C32.5642 83.8839 32.5642 83.8939 32.5742 83.8939C33.5242 84.4639 34.3442 85.3239 34.7742 86.3439C34.8142 86.4139 34.8442 86.4839 34.8642 86.5639C34.8942 86.6239 34.9142 86.6739 34.9342 86.7339C34.9542 86.6239 34.9842 86.5239 34.9942 86.4539C35.2542 85.4739 35.7442 84.4439 36.6442 83.9439C37.8742 83.2139 39.6742 83.1939 40.9742 83.7239C41.9042 84.1539 42.6942 84.8039 43.4242 85.5039H43.4342L43.5742 85.6439C43.5742 85.6439 43.6242 85.6739 43.6542 85.6939C43.6642 85.6939 43.6742 85.7039 43.6842 85.7039C43.7042 85.7039 43.7142 85.6939 43.7242 85.6939H43.7342C44.2842 85.6039 44.8342 85.5139 45.3942 85.3939C48.0742 84.8439 50.6742 83.9639 53.2142 82.9839C51.7842 79.5939 50.2542 76.2539 48.6242 72.9639H48.6342ZM42.8742 62.1939C42.4442 62.4439 41.9942 62.6639 41.5442 62.8539C40.8642 63.1439 40.1642 63.4039 39.4642 63.6439C38.1442 64.0939 36.7942 64.4739 35.4342 64.8039C34.7642 64.9639 34.0942 65.1139 33.4242 65.2339C32.6442 65.3739 31.8542 65.4939 31.0642 65.5339C30.9542 65.5439 30.8342 65.5439 30.7242 65.5439C30.6142 65.5439 30.5042 65.5439 30.3942 65.5339C30.2942 65.5239 30.1942 65.5039 30.0942 65.4839C30.1842 65.8239 30.2442 66.1739 30.3042 66.5139C30.4642 67.5839 30.5242 68.6739 30.4242 69.7439C30.2742 71.4839 29.9342 73.1939 29.4942 74.8739C29.6142 74.8939 29.7342 74.9339 29.8542 74.9639C31.1542 75.2839 32.5742 75.5039 33.8842 75.5539C38.5342 75.7039 43.2642 74.7639 47.4342 72.7039C47.7242 72.5639 47.9942 72.3939 48.2642 72.2139C46.6142 68.8039 44.6042 65.5639 42.8742 62.1939ZM30.0042 64.6039C30.0042 64.6039 30.0542 64.6139 30.0742 64.6339C30.0842 64.6439 30.0942 64.6439 30.1042 64.6539C30.1542 64.6639 30.1942 64.6739 30.2342 64.6839C30.3542 64.6839 30.4742 64.7039 30.5942 64.7139C30.9842 64.7139 31.3642 64.6839 31.7342 64.6439C32.9842 64.5039 34.2042 64.2439 35.3642 63.9639C36.7142 63.6339 38.0442 63.2439 39.3542 62.7939C39.7142 62.6739 40.0642 62.5439 40.4142 62.4139C41.0742 62.1539 41.7242 61.8839 42.3442 61.5539C42.3942 61.5239 42.4442 61.4839 42.5042 61.4539C41.7642 59.9739 41.0842 58.4539 40.5342 56.8839C40.4742 56.5839 40.3542 56.2939 40.2642 55.9939C37.4342 58.6439 34.3942 61.0639 31.3742 63.5039C30.9242 63.8739 30.4642 64.2439 30.0042 64.6039ZM31.8742 3.51388C32.2542 3.90388 32.8142 4.10388 33.3542 3.97388C33.5442 3.94388 33.8542 3.81388 34.1542 3.73388C34.1642 3.69388 34.1642 3.65388 34.1642 3.62388C34.2442 2.66388 34.5842 1.77388 34.8442 0.863883C33.6042 1.42388 32.6142 2.39388 31.8742 3.51388ZM30.1042 8.71388C30.1642 8.76388 30.2242 8.81388 30.2642 8.83388C30.9442 9.27388 31.7342 9.55388 32.5442 9.49388C33.0942 9.46388 33.6142 9.27388 34.1042 9.03388C34.2142 8.96388 34.3942 8.87388 34.5942 8.80388C34.5642 8.61388 34.5342 8.42388 34.5042 8.24388C34.5042 8.16388 34.4842 8.08388 34.4642 8.00388C34.2642 6.89388 34.0942 5.77388 34.1042 4.65388C33.4442 4.83388 32.6042 4.85388 32.3142 4.74388C32.0442 4.64388 31.6842 4.48388 31.4242 4.26388C31.2042 4.66388 31.0042 5.07388 30.8442 5.48388C30.4342 6.52388 30.2142 7.61388 30.1042 8.71388ZM30.0242 11.7339C30.0542 12.5439 30.0242 13.3839 29.8442 14.1839C29.8642 14.2039 29.8842 14.2139 29.9042 14.2339C30.9542 14.8539 32.2142 15.1239 33.4042 14.8839C33.8042 14.8039 34.0942 14.6939 34.4442 14.5439C34.4742 14.5239 34.5042 14.5139 34.5342 14.4939C34.6142 14.0839 34.6842 13.6639 34.7342 13.2439C34.8942 12.0439 34.8442 10.8439 34.7042 9.65388C34.6842 9.66388 34.6442 9.68388 34.6242 9.69388C34.3642 9.83388 34.0942 9.96388 33.8142 10.0639C32.9942 10.3639 32.0742 10.4239 31.2242 10.1739C30.8242 10.0539 30.4342 9.88388 30.0942 9.64388C30.0742 9.63388 30.0542 9.62388 30.0442 9.61388C30.0042 10.3139 29.9942 11.0339 30.0242 11.7339ZM26.0542 18.5439C26.0942 18.6039 26.1242 18.6839 26.1742 18.7339C26.9242 19.8039 28.0442 20.6139 29.2542 21.0739C29.5642 21.1839 29.8742 21.2539 30.2042 21.2739C30.2742 21.2839 30.3242 21.3039 30.3742 21.3339C30.4742 21.1839 30.5742 21.0239 30.6742 20.8739C31.5842 19.5339 32.8842 18.4939 33.6642 17.0639C33.9342 16.5639 34.1342 16.0339 34.2942 15.4939C34.2442 15.5139 34.1942 15.5339 34.1642 15.5439C33.6442 15.7139 33.0942 15.8039 32.5442 15.8039C32.3042 15.8039 32.0642 15.7939 31.8242 15.7539C31.0542 15.6339 30.2642 15.4039 29.6142 14.9439C29.4942 15.2539 29.3442 15.5439 29.1442 15.8139C28.2742 16.9539 27.1442 17.6839 26.0542 18.5439ZM16.7242 35.9039C16.7242 35.9039 16.6242 35.8939 16.5742 35.8939C16.2642 36.2139 15.9442 36.5339 15.6442 36.8539C15.5442 36.9639 15.4142 37.0939 15.2842 37.2339C15.4342 37.2239 15.5842 37.2139 15.7342 37.1939C16.1742 37.1439 16.6142 37.0939 17.0442 37.0139C17.2642 36.9639 17.5442 36.9239 17.6742 36.7139C17.7542 36.4839 17.7442 36.1639 17.5242 36.0239C17.2742 35.8839 16.9942 35.8939 16.7242 35.9039ZM22.6842 29.8639C22.5242 29.5239 22.4342 29.1239 22.3842 28.6939C22.1742 28.7439 21.9542 28.7839 21.7842 28.8739C21.2342 29.0539 20.6542 29.2439 20.1042 29.4339C18.4542 30.0739 16.6942 30.5439 15.2042 31.4939C14.0242 32.4939 15.2542 33.9139 16.3842 34.2539C16.4342 34.2739 16.7142 34.3139 16.9542 34.3539C17.3442 33.9739 17.7142 33.6239 17.9942 33.3839C19.5142 32.1539 20.9942 30.8539 22.6842 29.8639ZM28.7642 25.0739C27.2142 25.5439 25.5842 25.7839 23.9942 25.5139C23.5842 25.4139 23.0842 25.2839 22.6642 25.0539C22.6842 26.1239 22.8842 27.2039 23.1742 28.2139C23.2942 28.5939 23.4342 28.9839 23.6142 29.3439C25.2542 28.5239 26.9242 27.7339 28.6142 27.0139C28.5942 26.6139 28.5842 26.2139 28.6342 25.8239C28.6442 25.5639 28.7142 25.3239 28.7642 25.0739ZM28.9842 24.1239C29.2142 23.4139 29.5242 22.7239 29.9042 22.0639C28.3042 21.8539 26.6442 20.6939 25.6942 19.4339C25.6242 19.3239 25.5442 19.1939 25.4642 19.0539C24.4442 19.9639 23.6142 21.1039 23.0942 22.3739C22.8642 22.9739 22.7442 23.5939 22.6842 24.2239C22.8842 24.3339 23.0742 24.4339 23.2842 24.5039C24.9942 25.0539 27.2742 24.6339 28.9842 24.1239ZM38.1242 24.8339C38.1242 24.8339 38.1242 24.8039 38.1242 24.7839C38.0442 24.4739 37.9542 24.1639 37.8742 23.8539C37.5542 22.6839 37.1842 21.5139 36.7942 20.3839C36.5242 19.6339 36.2442 18.9039 35.9942 18.1739C35.9742 18.1839 35.4442 19.4839 35.3442 19.7439C34.9542 20.7739 34.5742 21.8439 34.2142 22.8739C33.9042 23.8039 33.5742 24.7239 33.2542 25.6539C33.2442 25.6839 33.2342 25.7139 33.2242 25.7439C32.8942 26.7139 32.5842 27.6839 32.3342 28.6839C32.4342 29.3639 33.2142 29.7639 33.7442 30.0639C34.5842 30.4839 35.5242 30.7839 36.4842 30.7439C37.1042 30.6539 37.7042 30.3139 38.1142 29.8439C38.2742 29.6139 38.3542 29.2739 38.4042 29.0239C38.6742 27.6139 38.4642 26.1939 38.1342 24.8339H38.1242ZM64.1342 13.6339C64.1542 13.6939 64.1742 13.7539 64.1842 13.8039C64.6542 15.2739 65.9742 16.3839 67.3642 16.9739C67.4542 16.9939 67.5442 17.0139 67.6342 17.0439C68.6242 15.0539 69.6542 13.0139 71.5242 11.7639C70.3142 11.1739 68.8742 11.5339 67.6442 11.8039C66.3442 12.1539 65.1842 12.8139 64.1342 13.6339ZM59.7342 18.7139C59.7342 18.7139 59.7542 18.7639 59.7642 18.7939C60.4242 20.5739 61.9442 22.1239 63.8442 22.5139C64.0842 22.5539 64.3042 22.5739 64.5342 22.5839C64.7742 22.2039 65.0042 21.8139 65.2342 21.4239C65.8142 20.4439 66.3942 19.4739 66.9242 18.4539C67.0442 18.2339 67.1542 18.0139 67.2642 17.7839C65.6042 17.2339 64.0342 15.8639 63.4842 14.1839C62.6142 14.9639 61.8242 15.8539 61.1242 16.7539C60.6242 17.3739 60.1742 18.0439 59.7342 18.7139ZM54.2442 23.4139C54.8242 24.8539 55.8042 26.1639 57.0842 27.0539C57.5342 27.3639 58.0342 27.5939 58.5442 27.7739C58.5842 27.7839 58.6142 27.8039 58.6542 27.8139C60.0542 27.2539 61.3642 26.4839 62.4242 25.3939C63.0342 24.7839 63.5542 24.0939 64.0342 23.3739C62.2842 23.1339 60.7042 22.0439 59.7542 20.5639C59.5842 20.2739 59.3542 19.9139 59.1842 19.5539C58.8442 20.0639 58.5142 20.5639 58.1542 21.0539C57.4542 21.9439 56.4842 22.5739 55.4542 23.0039C55.0642 23.1839 54.6542 23.3139 54.2442 23.4139ZM47.8942 23.3439C48.3742 23.2139 48.8542 23.0939 49.3442 23.0339C50.0142 22.9439 50.6942 22.9239 51.3742 22.9039C51.3142 22.1539 51.1242 20.7939 50.6642 21.0939C49.6942 21.7839 48.7842 22.5539 47.8942 23.3439ZM49.7442 31.7139C48.9242 31.3539 48.1942 30.8139 47.5442 30.2039C46.7942 29.5039 46.0842 28.7439 45.5342 27.9139C45.3242 27.5939 44.8442 26.6939 44.6142 26.0939C42.9842 27.7739 41.8742 29.2539 41.3142 30.6939C41.0242 31.4539 40.6442 32.2739 40.7842 33.0939C41.3042 34.3039 42.2942 35.5039 43.6842 35.6239C45.1242 35.8339 46.5942 35.3439 47.7642 34.5039C48.3542 34.0739 48.6942 33.3439 49.0542 32.7439C49.2542 32.3839 49.4942 32.0439 49.7442 31.7139ZM56.7442 28.4439C56.9942 28.3839 57.2442 28.2939 57.4942 28.2139C56.1642 27.5639 55.0642 26.5039 54.2642 25.2639C54.0442 24.8839 53.6042 24.1639 53.4642 23.5539C53.0342 23.6239 50.8442 23.7539 50.5742 23.7639C49.3242 23.8039 48.0842 24.0639 46.9342 24.5639C46.6442 24.6839 46.3542 24.8339 46.0742 24.9939C45.9942 25.0639 45.9242 25.1439 45.8442 25.2139C45.7442 25.3139 45.6342 25.4139 45.5342 25.5139C45.4542 25.5839 45.3742 25.6639 45.2942 25.7439C45.3042 25.7439 45.3042 25.7639 45.3142 25.7639C46.0942 27.6839 47.5742 29.2739 49.2242 30.5039C49.5642 30.7239 49.9342 30.9039 50.3142 31.0639C50.5842 30.7939 50.8742 30.5339 51.2042 30.3139C51.3542 30.2139 51.4942 30.1239 51.6542 30.0439C51.6642 30.0339 51.6742 30.0339 51.6842 30.0339C53.2142 29.1639 55.0642 28.9039 56.7442 28.4439ZM60.9642 42.7739C61.4442 41.9839 61.9642 41.1539 62.3842 40.3539C62.9442 39.2639 63.4442 38.1139 63.7042 36.9239C63.9142 36.0139 64.2142 34.4639 62.9342 34.2739C62.2242 34.2739 61.5442 34.5639 60.8742 34.7439C59.9342 35.0339 58.9942 35.3539 58.0742 35.7039C57.7642 35.8139 57.4542 35.9239 57.1442 36.0439C57.0742 36.0839 56.9942 36.1139 56.9142 36.1439C58.1942 38.0839 59.3342 40.1339 60.2842 42.2639C60.4342 42.5739 60.5742 42.8839 60.7142 43.1939C60.8042 43.0539 60.8742 42.9139 60.9642 42.7739ZM68.7642 59.6239C70.0042 57.3839 71.1842 55.1139 72.0842 52.7139C72.2942 52.1339 72.5242 51.5439 72.6042 50.9239C72.6242 50.6339 72.6242 50.3739 72.2642 50.3439C71.1842 50.1239 70.1842 50.0739 69.1042 50.0139C67.8942 49.9739 66.6742 49.9539 65.4542 49.9239C64.8942 49.9139 64.3342 49.9039 63.7842 49.8739C65.3142 53.1939 66.9242 56.4739 68.7642 59.6239ZM79.1842 73.9439C79.6942 72.9639 80.2042 72.0039 80.6842 71.0139C81.3342 69.6539 81.9442 68.2039 81.9742 66.6839C81.9642 66.2139 81.7742 65.7139 81.3642 65.4439C81.0442 65.3139 80.6042 65.2739 80.2842 65.2339C78.9842 65.1039 77.6742 65.1339 76.3642 65.1639C75.4442 65.1839 74.5342 65.2039 73.6342 65.2339C73.1842 65.2439 72.7342 65.2539 72.2842 65.2539C74.3842 68.4039 76.6142 71.4639 78.8942 74.4839C78.9942 74.3039 79.0842 74.1239 79.1842 73.9439ZM88.5742 87.8639C88.7542 87.4239 88.9342 86.9939 89.1242 86.5639C89.9242 84.7339 90.6642 82.8939 91.1442 80.9639C91.1842 80.6839 91.4142 80.0939 91.1342 79.9039C90.7042 79.7439 90.2242 79.7239 89.7842 79.6739C87.8442 79.5039 85.9042 79.4139 83.9742 79.2739C83.4642 79.2439 82.9542 79.2239 82.4442 79.1939C83.2942 80.3439 84.1242 81.5039 84.9342 82.6739C84.9642 82.7239 84.9942 82.7639 85.0342 82.8139C85.6342 83.6939 86.2442 84.5839 86.8342 85.4839C86.8742 85.5439 86.9042 85.5939 86.9442 85.6539C87.4242 86.3939 87.9042 87.1339 88.3642 87.8839C88.4042 87.9439 88.4442 88.0139 88.4842 88.0739C88.5142 88.0039 88.5442 87.9339 88.5742 87.8639ZM97.4242 101.974C98.0242 101.124 98.5642 100.244 99.0242 99.3739C99.6442 98.1739 100.174 96.8939 100.364 95.5639C100.474 95.1239 99.6042 95.1239 99.3142 95.0039C97.3042 94.5739 95.2442 94.2639 93.1942 94.0439C92.7642 94.0039 92.3342 93.9839 91.9042 93.9539C92.1742 94.4439 92.4542 94.9239 92.7142 95.4139C94.0442 98.0239 95.2742 100.724 96.3642 103.484C96.3942 103.434 96.4342 103.384 96.4642 103.334C96.7842 102.864 97.1342 102.404 97.4242 101.974ZM34.3542 42.4139C33.8342 41.9739 33.2942 41.5639 32.7242 41.1839C32.0442 40.7339 31.3242 40.3339 30.6742 39.8439C30.0742 39.4639 29.7942 39.0739 30.3142 38.1939C31.1142 36.8439 32.7642 37.8939 33.6542 38.4839C34.8742 39.2439 35.8842 40.1839 36.7542 41.2939C37.1142 41.7939 37.5242 42.3539 37.5442 43.0039C37.5442 43.5839 37.0242 43.9439 36.5042 43.9439C36.3142 43.9439 36.1242 43.8939 35.9542 43.7939C35.3342 43.4439 34.8842 42.8639 34.3442 42.4139H34.3542ZM32.9142 40.5739C33.7242 41.1039 34.4942 41.6939 35.1942 42.3539C35.6242 42.6939 35.9842 43.2839 36.5642 43.3339C37.9342 43.0639 35.0742 40.3039 34.6142 39.9339C33.7542 39.2739 31.7242 38.0039 31.3342 38.1039C30.9342 38.2039 30.5742 38.5239 30.6442 38.9539C30.8242 39.2639 31.2242 39.4839 31.4842 39.6739C31.9642 39.9839 32.4442 40.2739 32.9142 40.5839V40.5739Z" fill="#050504"/>
</svg>
