<svg xmlns="http://www.w3.org/2000/svg" width="352" height="264" fill="none"><path fill="#646370" d="M140.413 204.36c21.52 35.308-21.897 34.039 46.548 26.435 6.027.706-8.878-21.538 13.414-34.847 6.706-4.87 12.568-1.337 22.208-1.348.084-12.765-11.756-13.714-16.805-14.1-35.213-2.691-22.509 24.745-65.365 23.86M20.782 220.891c-1.712 20.273 52.608 11.157 66.184 14.514 4.098.226 10.549 2.653 7.82-4.233-3.28-20.54 9.978-36.382 31.457-31.248.018-.357-6.481-7.828-6.481-7.828s-5.623-.178-12.44 1.036c-8.597 1.089-17.055 3.069-25.299 5.737-8.764 3.095-21.995 10.205-29.096 1.312-3.808-1.845-3.715-13.513-6.549-12.975-10.25 10.193-24.914 17.538-25.596 33.687z"/><path fill="#313144" d="M183.459 221.059c-.156 2.423-.11 4.899.359 7.281.19 1.005.493 2.38 1.827 2.106.836-.103 1.673-.203 2.511-.286.856-.144.748-.912.553-1.553-.246-.958-.453-1.928-.67-2.893-.271-1.237-.608-2.465-.694-3.732-.113-1.659.059-3.318.301-4.957.192-1.386.438-2.764.803-4.118.405-1.492.929-2.789 1.466-4.206 1.332-3.524 3.028-7.031 5.855-9.602a27 27 0 0 1 4.318-3.525c1.009-.744 2.192-1.182 3.412-1.433 1.797-.35 3.504-.391 5.281-.289 2.462.197 4.942.664 7.414.346.23.304.714.214.879-.105.48-.937-.933-2.343-1.505-3.009-.91-.892-1.817-1.851-2.991-2.391-2.39-.955-5.074-.971-7.595-.63-3.89.608-7.675 2.375-10.497 5.119-2.193 2.264-3.711 5.066-5.316 7.754a43 43 0 0 0-1.314 2.344c-1.635 3.202-2.611 6.669-3.313 10.173-.447 2.495-.901 5.089-1.084 7.606"/><path fill="#DDE3E6" d="M47.525 186.995c-.273 3.619 1.791 7.99 3.97 11.372q.054.016.108.043c.142.066.244.203.344.319l.201.234.524.617c.334.393.674.783 1.01 1.174.315.365.63.734.916 1.12l.008.009c2.42 1.623 5.53 2.196 8.401 2.221 8.22-.46 15.644-4.536 23.27-7.227 4.385-1.625 9.003-2.363 13.623-2.944 3.949-.593 7.863-1.469 11.853-1.754 1.854-.102 3.662.038 4.81-.244q.43.113.86.197c.456.081.946.284 1.402.12.781-.425.262-1.05-.176-1.497.083-.402-.253-.86-.625-.992a.55.55 0 0 0-.373.009c-.163-.521-.465-1.156-.928-1.934l-.082-.294c-.288-1.048-.587-2.093-1.054-3.079-1.104-2.409-2.069-4.83-3.364-7.126-1.042-1.826-1.83-3.79-2.923-5.585-1.343-2.098-3.211-3.798-5.024-5.482-1.438-1.302-3.046-2.627-4.61-3.731-4.154-2.796-9.31-3.288-14.134-3.969-4.28-.335-9.496-.308-13.434 1.53-3.477 1.623-6.648 3.901-9.234 6.739q-.026.026-.047.052c-.481-.305-.939.187-1.136.608-1.077 1.575-2.414 2.921-3.66 4.354-3.164 3.784-6.244 7.697-8.779 11.933-.644 1.074-1.545 1.954-1.712 3.21z"/><path fill="#FBB326" d="M163.969 73.018c-1.355.213-1.659 1.053-.646 2.015.488.57.976 1.138 1.441 1.666 1.111 1.24 2.26 2.592 3.32 3.8.731.728 2.045 2.604 3.184 2.236.585-.299.803-1.006 1.185-1.505 1.409-2.325 2.76-5.278 1.691-7.984-.241-.647-1.011-1.702-1.741-1.049-2.831-.1-5.649.352-8.431.822z"/><path fill="#FED980" d="M76.253 151.044c.556-2.29 2.5-23.327 18.652-28.433.959-.248 3.9-.438 5.465.225.851-.142 1.436-1.083 1.939-1.726 1.45-1.892 4.708-17.742-.921-15.592-3.552.907-8.755 1.506-12.316.467-12.42-3.366-11.448-12.094-11.153-15.28-.505-18.104 21.563-35.477 22.992-37.112 1.776-1.963 5.612-7.913 6.305-7.852.598.158 3.04 2.669 4.157 2.52 30.214-6.164 31.151 11.534 31.041 12.47 1.785-.626 6.991-2.9 7.914-3.103 1.884-.337 5.201-.53 4.465 2.35-.213.82-.712 1.53-1.315 2.114-.53.553-1.03.699-.524 1.517.664 1.117 14.486 16.165 16.324 18.504 21.114 23.261 31.422 65.77 31.576 66.456.148-.026 17.829 1.472 31.021-1.752 7.972-1.866 15.075-6.027 22.344-9.638 8.811-4.418 17.218-10.152 26.384-14.141 5.341-2.068 24.946-5.6 25.74-.99.459 4.17-8.512 5.92-10.263 6.545-6.105 2.155-11.387 6.015-16.685 9.639-3.073 2.09-18.338 15.076-22.861 19.481-5.602 5.383-16.452 16.79-39.363 25.304-2.389-.077-9.482-6.062-31.862.007-3.697 1.551-17.072 24.055-46.118 20.633 0-.07-12.962-3.676-12.95-3.732-.958-.517-7.696-8.959-9.656-12.695-2.604-4.942-3.653-10.654-7.048-15.176-10.213-17.378-35.318-12.336-35.113-12.914.472-2.474 1.238-5.649 1.827-8.096z"/><path fill="#FFF7DB" d="M98.994 141.401c-.302.956-1.831 3.96-1.135 4.636.239.298 10.497 3.198 11.267 3.609.999.576 2.171 1.069 3.304.558.682-.271 12.688-3.685 15.035-6.52 2.748-3.007 10.918-10.358 11.069-10.974.066-.267-2.506-12.463-3.913-16.174-2.38-6.304-4.702-12.653-7.694-18.7-.625-1.238-2.441-4.225-2.63-4.238-.26-.02-5.479 5.78-18.88 10.987-1.376.298-1.498 1.086-1.367 2.34q.129 2.107.089 4.215c-.236 6.382-.439 12.828-1.785 19.09-.769 3.839-1.946 7.544-3.362 11.172zm-7.011 16.548c-.158.552.275 1.015.786 1.144.492.169.987.332 1.48.508 1.342.474 2.68.986 3.896 1.734 1.746 1.104 3.459 2.273 5.083 3.549 2.028 1.668 3.875 3.75 5.424 5.805 1.416 1.799 2.326 3.862 3.25 5.926.377.713.916 2.499 1.951 1.589.32-.445.375-1.02.62-1.506a10 10 0 0 1 .545-1.007c0-.002.004-.004.004-.008l.016-.025.021-.037a31 31 0 0 1 1.912-2.702c.896-1.142 2.814-3.181 2.292-4.727-.336-.788-1.59-1.897-2.482-1.5-.923-.487-1.752-1.176-2.547-1.806-1.242-.995-2.463-2.02-3.595-3.138a17 17 0 0 1-1.775-1.978c-.374-.505-.713-1.034-1.167-1.472-1.913-1.729-4.458-2.397-6.844-3.206-2.123-.627-5.296-1.521-7.188.016-.363.318-.59.743-.819 1.159-.294.553-.681 1.072-.86 1.677z"/><path fill="#FBB326" d="M105.588 51.564c-.626-.406 1.407-1.011 2.046-1.399.767-.53 3.409 1.1 3.73 1.435.551.518.26 1.495-.452 1.95-.871.523-5.046-1.643-5.324-1.988zm2.053-9.371c-.15 1.747-1.566 7.235 1.056 7.16 1.436-.35 3.747-1.024 5.192-1.35.883-.227 1.788-.471 2.553-.986 1.347-.87 1.297-2.666 2.037-3.933.606-1.28 1.532-2.36 2.615-3.26 1.664-1.519 3.568-2.758 5.144-4.371.65-.693 1.172-1.483 1.653-2.298 1.26-2.097 2.362-4.352 2.636-6.81.41-2.947-.211-6.07.77-8.917.498-1.612 1.619-2.96 2.086-4.55.027-.512-.669-.82-1.027-.435-.262-.113-.54.025-.761.168-1.217.537-2.381 1.183-3.428 2.007-1.813 1.255-3.031 3.153-3.808 5.187-.295.998-.966 1.793-1.429 2.712-.294.589-.485 1.24-.618 1.885-.256 1.253-.333 2.531-.536 3.791a.6.6 0 0 0 .091.418c-.867 3.013-4.078 4.16-6.603 5.38-1.985 1.01-4.054 2.045-5.467 3.826-1.097 1.298-1.955 2.682-2.156 4.376m18.194 3.815c-.179.523.232 1.022.756 1.074.813.17 1.759.43 2.507.693a17 17 0 0 1 2.081.903c1.577.694 4.589 2.91 6.233 2.174.968-.47.842-2.029.959-2.921.046-.66.061-1.321.061-1.986-.036-2.234-.099-4.635-.839-6.742-.254-.625-.455-1.495-1.089-1.833-.21-.231-.603-.29-.851-.079-1.606 1.34-3.171 2.749-4.726 4.138a72 72 0 0 1-3.087 2.531c-.737.627-1.64 1.126-2.003 2.047zm50.716 44.009c-.661.549-.298 1.335.201 1.847.54.686 1.08 1.371 1.599 2.075a25 25 0 0 1 1.669 2.652c.494.908.95 1.836 1.413 2.669.21.517.784 1.106 1.335.646.46-.467.702-1.097.998-1.67.625-1.235 1.219-2.486 1.608-3.818.329-1.097.54-2.254.393-3.398-.14-.849-.242-1.938-1.032-2.438l.034.015a.56.56 0 0 0-.544.014c-2.01-.384-6 .214-7.672 1.406zm9.326 16.681 5.79 12.739c1.821-2.032 3.846-4.257 4.633-6.948.743-2.482.579-4.633-1.737-5.212-2.317-.579-8.686-.579-8.686-.579m8.685 19.109 4.633 15.056c1.737-1.158 3.845-4.258 4.632-6.949.744-2.482.579-5.211-2.895-6.369-3.474-1.159-6.37-1.738-6.37-1.738m-59.648-71.752c-1.219 1.542-2.904 3.26-2.669 5.375.248 1.64 1.662 3.314 3.354 3.468.873-.04 1.652-.474 2.447-.775q1.27-.531 2.529-1.092c2.554-1.077 4.991-2.486 7.583-3.455 2.457-1.092 5.069-.392 7.639-.372l.425.009c-.594.074-1.118.251-1.258.713-.066.558.244 1.102-.029 1.657-.483 1.315-1.407 2.423-1.656 3.8.001.495.429.788.739 1.11.53.54 1.043 1.093 1.571 1.633.746.639 2.186 2.596 3.157 2.425.913-.106 1.297-2.698 1.523-3.497.293-1.447.368-2.933.232-4.401-.165-1.262-.354-2.718-1.391-3.578 5.582-.643 9.306-3.49 13.318-8.123l.007-.007c2.796-3.074 5.187-6.592 8.604-9.019.612-.404 1.228-.82 1.923-1.068.653.034.962-.907.321-1.183.307-.768-.675-.98-1.19-1.057-1.517-.334-3.08-.327-4.615-.137-3.882.438-7.61 2.154-10.614 4.624-1.933 1.71-3.581 3.752-5.692 5.26-2.349 1.481-5.192 2.3-7.974 2.2-3.475-.394-6.806-1.207-10.233.046-3.133 1.002-5.894 3.012-8.053 5.446zm-13.469 3.673c-1.179-.136-3.078-.09-3.171 1.463.117 1.742 2.288 2.831 3.555 3.756 1 .703 1.978 1.537 2.671 2.511.822 1.285 1.345 2.732 1.883 4.152.318.715.666 2.058 1.7 1.724 1.19-.376.752-5.18.495-6.237-.364-2.03-1.517-3.854-3.078-5.184-.858-.707-2.455-2.04-3.566-1.808a.6.6 0 0 0-.49-.377zM96.122 97.503c2.23 2.267 11.465-3.887 9.568-7.308-1.897-3.422-11.797 5.04-9.568 7.308M81.44 89.066c2.172 1.272 5.857-8.587 3.466-10.337-2.389-1.75-5.64 9.064-3.466 10.337"/><path fill="#313144" d="M187.37 220.583c1.122 14.287 7.201 17.583 10.308 19.974 9.69 4.82 17.991 4.217 22.735 4.012 17.358-1.565 24.688-24.126 17.609-38.316.524.021-1.543-6.675-11.112-10.66-4.334-1.238-8.891-1.131-13.361-1.421-3.333-.083-6.789-.508-10.022.405-16.155 5.915-16.101 23.728-16.155 26.006zm-91.8 12.377c2.385 11.186 9.795 15.412 22.212 16.914 10.543 1.275 18.34-.264 22.427-6.378 9.699-12.175 8.888-23.078 5.659-30.549-1.825-4.188-5.458-12.661-20.63-13.264-3.292-.322-13.836.163-15.734.669-2.24.641-18.65 9.105-13.935 32.61zM2.62 206.438a23.68 23.68 0 0 0-1.47 15.165c.91 4.895 2.367 9.97 5.853 13.67 1.355 1.457 2.895 2.762 4.672 3.646-.013.07 6.836 2.802 9.952 3.369 1.25.241 12.209.33 12.104.212 3.454-.533 6.816-1.813 9.68-3.818.926-.686 4.188-2.855 3.407-4.142-.334-.499-1-.447-1.528-.468-.902-.034-12.483-1.224-13.893-1.537-3.748-.714-6.868-3.13-9.321-5.951-.153-.186-.316-.418-.52-.562-1.105-4.186-.778-8.776.893-12.759.874-2.109 1.992-4.102 3.053-6.12.761-1.411 1.38-2.748 2.287-4.012.371-.519.903-.955 1.157-1.54a.5.5 0 0 0 .013-.131c1.935-1.587 4.078-2.905 6.043-4.457 1.092-.828 2.04-1.629 3.143-2.404.425-.321 1.258-.607 1.041-1.275-.115-.337-.546-.466-.836-.269l-.087.054c-.76-.251-1.925-.309-2.288-.354a82 82 0 0 1-2.541-.301c-3.402-.503-6.77-1.047-10.211-1.018-2.644-.156-5.313.074-7.788 1.073-2.628 1.011-4.878 3.025-6.799 4.98-2.586 2.565-4.577 5.64-6.016 8.947zm75.839-47.977c1.082-.097 2.15-.383 3.243-.429.435-.083 1 .152 1.3-.278a1 1 0 0 0 .255-.018c.267.141.592.077.832-.09.447-.18.6-.869.325-1.248-.181-.224-.515-.285-.748-.104-.054 0-.113.115-.155.192l-.05-.009c-.012-.447-.402-.756-.657-1.086-.377-.438-.766-.874-1.095-1.35-.168-.258-.342-.526-.407-.831-.027-.33-.246-.65-.592-.696-.648-.074-.939.675-1.188 1.139-.485.97-.88 1.979-1.357 2.936-.151.335-.395.653-.503.989-.138.495.318.917.8.881zm14.72-6.322c-.232.818-.058 1.779 1.015 1.44 1.607-.137 3.186.511 4.739.856 2.145.592 4.271 1.274 6.298 2.197.685.303 1.369.618 2.066.898l.018.007c.262.373.542.788 1.008.476.358-.351.246-.763-.007-1.151q0-.002-.003-.004a.3.3 0 0 0-.033-.048l-.01-.015q-.072-.1-.151-.199a.49.49 0 0 0 .362-.423q.002-.107-.007-.223c.248-1.668 1.104-3.163 2.014-4.552.235-.322.081-.824-.336-.878a.75.75 0 0 0-.412.131l-.078-.038-.497-.174a.59.59 0 0 0-.371-.619c-3.61-1.603-7.392-2.908-11.308-3.49-.95-.084-2.035-.417-2.93.012a7 7 0 0 0-.5.72c-.079.277-.118.573-.18.801-.303 1.414-.477 2.849-.7 4.276zm26.407 13.293c-1.743.736.271 1.872.716 2.786a42 42 0 0 1 3.342 6.247c1.497 3.588 2.499 7.419 2.328 11.305-.194 2.354-.705 4.727-1.714 6.869-.386.863-1.061 1.588-1.377 2.479-.217.669.401 1.324.695 1.825.723.892 1.694 2.709 2.99 2.454.426-.118.702-.495.995-.802a22 22 0 0 0 1.527-1.869c2.12-2.797 3.356-6.258 3.478-9.738l-.001.023c.603-8.967-.909-13.37-5.728-20.84-.868-1.306-1.698-2.701-2.861-3.764-.418-.291-1.019.129-.904.614-1.065.928-2.161 1.852-3.484 2.411z"/><path fill="#DDE3E6" d="M109.515 154.564c-.436 1.44-.876 2.903-.682 4.391.497 1.86 1.895 3.335 3.222 4.671 1.217 1.061 3.286 3.366 5.018 2.885 1.188-.499 2.276-1.221 3.392-1.858.756-.46 1.515-.959 2.145-1.587.501-.499.862-1.095 1.21-1.704.655-1.165 1.357-2.305 2.177-3.358.89-1.144 1.892-2.192 2.859-3.268.497-.579 1.136-1.113 1.332-1.879.287-1.117-.565-2.073-1.086-2.978a59 59 0 0 1-1.199-1.982c-.314-.535-.599-1.088-.935-1.61-.176-.323-.573-.591-.919-.334-.362-.077-.599.233-.838.456-.445.377-.948.682-1.465.95-1.109.549-2.195.806-3.378 1.053-1.518.295-2.886.573-4.356.962-3.65.914-5.131 1.392-6.493 5.188zm-26.368-9.063c-1.807 2.768-3.243 7.48.172 9.564 1.181.738 2.57 1.212 3.974 1.158 1.352-.115 2.673-.483 3.784-1.23 1.03-.696 1.446-1.93 1.568-3.116.203-1.668.548-3.375 1.415-4.813a7 7 0 0 1 .683-.944c1.192-1.438 5.234-4.856 5.089-6.258-.189-.393-5.356-3.497-6.806-3.07-.657.117-.984.717-1.375 1.185a10 10 0 0 1-.508.524.56.56 0 0 0-.603.009c-1.585 1.165-3.56 2.002-4.692 3.653a.73.73 0 0 0-.167.568c-.956.831-1.838 1.748-2.534 2.77"/><path fill="#fff" d="M214.759 215.856c-1.64 3.136-1.387 7.095-.086 10.432.456 1.199 1.174 2.098 1.926 3.069 1.253 1.713 3.358 2.916 5.521 2.614 3.254-.648 5.497-4.057 6.599-6.972 1.452-3.569 2.068-7.507.345-10.918-3.85-7.525-11.491-4.36-14.307 1.775zm-93.825 10.908a.63.63 0 0 0 .287.702c.054 1.911.347 3.882 1.244 5.582 1.375 2.695 4.116 4.345 7.136 3.565 2.536-.569 4.577-2.446 5.934-4.597.829-1.167 1.212-2.565 1.321-3.98.149-1.491.081-2.997-.131-4.48-.284-2.492-1.073-4.904-2.866-6.726-.264-.309-.62-.503-.885-.808-.619-.591-1.429-.971-2.262-1.117-1.996-.454-4.09.305-5.609 1.614-.789.698-1.373 1.596-1.888 2.508-1.008 1.843-1.678 3.872-1.899 5.967q-.197.882-.384 1.768z"/><path fill="#FBB326" d="M222.389 225.159c2.179-.813 2.13-4.501 2.17-6.45-.065-.973-.169-2.827-1.506-2.73-1.621.592-2.403 3.114-2.62 4.683-.216 1.468-.228 4.786 1.956 4.495zm-93.166 5.211c1.936-.67 2.489-4.257 2.322-6.052-.079-.804-.463-3.489-1.664-3.066a.53.53 0 0 0-.276.392c-1.321-.205-2.095 2.879-2.317 3.879-.374 1.445-.196 5.084 1.933 4.849z"/><path fill="#DDE3E6" d="M104.396 105.148c3.12-1.486 9.149-4.12 12.169-5.8 4.924-3.303 9.509-7.333 15.127-9.509 11.118-4.344 19.18-13.449 28.718-20.128.691-1.494 3.607 1.648 4.336 2.247 12.286-14.063 30.487-22.638 49.215-22.739 6.5.133 12.827 2.404 19.362 1.309 2.26-.314 8.278-1.449 8.93-1.434.746.51 4.751 7.613-2.562 12.287-1.559.282-7.43-.64-10.182-1.075-24.494-10.317-43.462-3.989-59.816 16.528 15.41 1.274 34.807-14.738 51.468-11.136.173-.008 4.182-.215 4.678-.127 1.409.352 2.68 1.135 3.767 2.082 1.641 1.372 2.714 3.375 2.771 5.533.081 1.289-.461 3.312-1.906 3.615-.398.024-6.052-3.048-7.14-3.549-30.042-7.047-28.137 18.061-59.378 9.681-2.68 1.758-13.828 11.967-20.427 13.88-18.896 4.939-23.55 7.227-36.541 9.882h.016c-1.113.034-3.814-.915-2.605-1.547"/><path fill="#FBB326" d="M253.232 136.823c.362-1.092.719-2.183 1.129-3.257.472-1.22 1.053-2.61 1.785-3.748.245-.402.88-.384 1.086.041 1.395-.662 5.265.731 6.815 1.182q.94.306 1.88.615c.301.101.647.192.872.431 1.488 2.135-3.333 3.642-4.697 4.384-2.883 1.326-5.694 2.719-8.429 4.323-2.089.156-.763-2.909-.441-3.971m-52.06 8.299c1.4-1.25 3.651-2.487 5.564-1.871 2.549.901 3.823 3.339 4.913 5.674 1.051 1.815-.103 2.541-1.865 2.575-2.141-.006-5.634-.368-7.463-1.463-.524-.392-1.757-2.185-1.319-2.799-.838-.375-.332-1.641.17-2.116m21.036 5.922c.746-1.208 1.795-2.207 2.437-3.488.924-1.815 1.456-3.953 3.161-5.233.371-.314.861-.727 1.299-.273.971-.666 2.728-.278 3.82-.043 2.39.566 4.487 2.02 6.562 3.285 1.138.584 1.8 1.409.685 2.459-.845.711-1.942 1.031-2.988 1.322-1.569.416-3.164.718-4.742 1.095-2.4.542-4.722 1.29-7.061 2.066-.705.219-1.411.479-2.15.555-1.187.19-1.583-.821-1.023-1.745m56.726-25.843c1.382-2.387 3.044-4.816 5.09-6.706-.122-.39.314-.765.682-.591.37.149.725.328 1.079.513a18 18 0 0 1 3.805 2.72c.813.851 2.326 1.953 1.312 3.22-2.17 2.418-8.124 3.041-11.283 3.591-1.988.274-1.33-1.706-.684-2.749z"/><path fill="#000" d="m325.691 142.607-.023.054-.056.099-.057.034q-.374.131-.747.271-.411.151-.825.298c-8.704 1.894-17.202 4.636-25.76 7.089-10.006 3.005-20.109 5.805-29.785 9.79a.7.7 0 0 1-.241.045c-.574 0-.784-.845-.206-1.106 2.378-1.018 4.808-1.912 7.251-2.761 13.079-4.469 26.411-8.187 39.727-11.883 2.536-.677 5.074-1.343 7.639-1.9.49-.059 2.109-.52 3.042-.475l.013.028.019.067q.012.071.018.144v.168zm-49.186 7.418a.5.5 0 0 1-.138.021.54.54 0 0 1-.513-.391.54.54 0 0 1 .369-.652q1.367-.419 2.734-.833 4.159-1.26 8.328-2.486c2.375-.7 4.76-1.364 7.152-2.002.481-.114.959-.276 1.452-.315.221-.009.406.19.406.405a.41.41 0 0 1-.298.39c-6.492 1.969-13.003 3.879-19.49 5.863zm-42.112 31.812a.62.62 0 0 1-.607-.608c.02-.736.867-.623 1.393-.724 8.544-1.331 16.967-3.355 25.483-4.941 12.553-2.39 25.112-4.74 37.696-6.951.499.018 2.184-.352 4.033-.722 2.85-.571 6.088-1.141 5.96-.287.298 1.154-4.464 1.106-5.49 1.508-6.246 1.055-12.481 2.183-18.713 3.33-16.644 2.818-33.09 6.672-49.744 9.394zm7.517 8.719c-.589.158-.873-.219-.856-.596.016-.339.274-.678.773-.628 6.011.02 12.008.512 18.015.709 13.325.42 26.634.83 39.942 1.704h-.012c7.439.454 14.89.872 22.308 1.592a.63.63 0 0 1 .544.698c.089.341-.546.462-1.547.462-1.23 0-3.014-.183-4.681-.367-1.948-.213-3.739-.427-4.315-.35a1431 1431 0 0 0-14.605-.919c-18.497-1.093-37.054-1.545-55.568-2.306zm66.761-10.16.171-.156-.099.151zm-8.617-.671c.411-.049.87-.081 1.319-.092q.024 0 .047-.004l.001.002q.292-.008.571-.005a.634.634 0 0 1 .659.594c.023.406-.357.722-.756.659l-.292.003c-19.096 1.305-38.194 2.576-57.207 4.765-6.375-1.695 23.128-3.294 24.185-3.574 10.473-.864 20.971-1.614 31.473-2.348m46.522 8.717q-.015.016-.026.031-.032.019-.062.041s.004-.001.004-.003a.5.5 0 0 0 .084-.069m-6.149-23.687c-.61-9.318-6.672-14.675-16.007-14.104h.004l.07-.005c-4.351.123-8.262 2.197-12.081 4.082a56 56 0 0 0-2.82 1.508.63.63 0 0 1-.85-.223c-.605-.984 2.317-1.829 2.984-2.33 3.949-1.959 8.127-4.174 12.672-4.283 8.276-.546 13.93 3.5 16.186 9.781a.58.58 0 0 1 .484 0c2.278 1.158 4.645 2.307 6.498 4.104 6.228 6.958 5.996 19.245-1.346 25.338l-.083.07a.58.58 0 0 1-.838-.266c-.251-.703 1.037-1.312 1.376-1.913 1.181-1.356 2.185-2.872 2.861-4.544 1.679-3.965 1.548-8.485.149-12.533-.999-3.42-3.367-6.244-6.597-7.782a44 44 0 0 0-1.903-1.021l-.17-.081c.703 2.617.861 5.559.425 8.681-.045.321-.284.461-.53.461-.33 0-.671-.253-.579-.666.12-1.418.194-2.843.1-4.27z"/><path fill="#000" d="M302.251 196.792c9.315 4.407 23.918 9.028 28.502-3.85.875-2.59.703-5.525 1.64-8.118 2.563-6.399-.003-11.905-5.659-15.418-5.761-3.529-1.903-5.152-4.703-8.977-3.487-3.671-9.3-3.54-13.561-1.352-1.086.557-2.172 1.174-3.028 2.055-.248.404-.749.798-1.145.318-.53-2.612 7.766-5.329 9.977-5.202 3.864-.068 8.581 1.578 9.927 5.549.35 1.007.237 2.071.239 3.114.305 2.232 2.884 3.129 4.394 4.488 6.413 4.563 6.833 10.534 4.291 17.492-.499 7.981-4.266 14.974-12.957 15.741q-.793.083-1.581.081c-3.295 0-6.531-1.002-9.669-1.939-.768-.271-10.48-3.283-6.664-3.982z"/><path fill="#000" d="M316.796 204.662c2.565.368 5.193.919 7.781.458 3.277-.533 6-2.635 7.47-5.593 1.484-2.551 2.543-5.368 2.741-8.332.166-.657-.288-1.556.19-2.066 1.143-.558 1.057 1.232 1.028 1.926-.203 4.307-2.078 8.436-4.718 11.794-2.002 2.332-5.105 3.508-8.12 3.693h-.203c-2.127 0-4.229-.316-6.338-.654-.8-.102-.619-1.349.169-1.227zm20.294-7.8c.524-1.235.591-2.617.968-3.868 2.771-1.452-.88 7.164-1.251 8.02a.57.57 0 0 1-.537.37c-.4 0-.815-.377-.607-.854a61 61 0 0 0 1.427-3.669zM220.013 27.493c-11.141 2.257-22.17 5.298-33.424 6.906a.7.7 0 0 1-.152.018c-.652 0-.813-1.068-.095-1.205 1.041-.007 1.999-.188 3.06-.362 10.153-2.038 20.253-4.35 30.372-6.543.775-.167.993 1.037.239 1.184zm25.732-1.407q-.964.277-1.927.55c-8.842 2.534-17.667 5.128-26.503 7.69-3.152.91-6.296 1.838-9.446 2.76-1.914.524-3.85 1.16-5.828 1.51h-.034a.402.402 0 0 1-.382-.481c.062-.287.38-.35.622-.43q.501-.15 1.007-.29c1.547-.442 3.05-.88 4.602-1.354 8.262-2.516 16.536-4.92 24.832-7.332a4494 4494 0 0 1 6.964-2.02c1.911-.553 3.826-1.1 5.738-1.65a.58.58 0 0 1 .427.029c.429.194.375.883-.07 1.012zm-2.868 88.458c.099.917-1.098.716-1.698.883-2.437.372-4.875.731-7.314 1.09-3.853.459-7.66 1.391-11.56 1.391h-.205c-.616-.086-.63-1.02-.016-1.117 1.757.024 3.514-.287 5.259-.524 4.948-.72 9.9-1.411 14.84-2.181.317-.048.628.136.692.461zm-15.489 8.656c-1.693.343-3.387.684-5.085 1.009-.761.145-1.524.289-2.289.415-.233.025-.472.084-.707.084a1 1 0 0 1-.292-.038c-.262-.072-.397-.396-.309-.644a.53.53 0 0 1 .416-.336c.318-.057.634-.111.95-.179 2.36-.49 4.728-.948 7.09-1.428.737-.129.949.952.226 1.115zm-150.623-1.341a94 94 0 0 1-6.916 2.239.7.7 0 0 1-.149.019c-.55 0-.728-.842-.127-1.025 2.134-.601 4.234-1.314 6.375-1.897q.337-.092.675-.171c.244-.055.585-.158.784.049.368.495-.278.666-.64.788zm-4.697-2.851c-5.117 1.266-10.188 2.738-15.248 4.215a.6.6 0 0 1-.174.026c-.592 0-.793-.966-.134-1.144a366 366 0 0 1 8.448-2.409c2.4-.619 4.747-1.364 7.197-1.781.6-.106.847.223.815.551-.032.336-.36.674-.906.541zm228.09-15.807c-.951.488-1.705-.955-.53-1.086 1.253-.462 2.226-1.512 2.98-2.585 3.259-4.799 1.78-11.75-3.1-14.868a14 14 0 0 0-1.269-.746c-.709-.404-.066-1.487.632-1.083a11 11 0 0 1 2.525 1.641c-.072-.637-.265-1.264-.457-1.872-2.836-7.79-11.845-12.069-19.81-10.735-.702.063-1.393.565-2.086.445-.497-.187-.502-.973 0-1.154 7.702-2.445 16.861.935 21.348 7.63.912 1.398 2.755 4.84 2.046 6.713 4.608 5.159 4.455 14.253-2.281 17.702z"/><path fill="#000" d="M288.247 80.404c.503.598.984 1.237 1.285 1.964.099.262.219.61-.012.84-.372.325-.668-.082-.815-.405-1.831-2.876-4.873-4.98-8.238-5.615-1.901-.358-3.956-.428-5.713.504-.968.5-1.81 1.197-2.626 1.908-1.275 1.128-2.464 2.36-3.45 3.752-.519.644-1.47-.1-.992-.767q.463-.648.978-1.26c1.918-2.147 4.544-4.832 7.438-5.434 1.561-.362 3.185-.183 4.743.115 2.881.58 5.498 2.163 7.402 4.395zm4.225 17.589c.241-.558 1.068-.325 1.047.251-.246 1.007-1.352 1.587-2.059 2.282-8.705 6.66-17.902 12.666-26.544 19.416a.615.615 0 0 1-.854-.11c-.698-.983 2.733-2.574 3.405-3.351 5.966-4.486 12.066-8.789 18.167-13.087 2.299-1.743 4.92-3.249 6.84-5.4zm-18.924-12.765-.042.063-.084.02c.034-.038.083-.061.128-.085z"/><path fill="#000" d="M272.65 88.845c-3.376 6.26-6.754 12.519-10.182 18.752-.379.664-1.396.056-1.012-.592 1.656-3.013 3.299-6.034 4.941-9.055 2.403-4.18 4.44-8.68 7.109-12.66 1.994-.48-.622 2.844-.856 3.555m-.099 14.291c.557-1.19 1.768-2.05 2.567-3.124 1.64-1.863 3.268-3.73 4.923-5.611.311-.336.58-.724.928-1.016.528-.327 1.14.377.752.854-1.974 2.251-3.916 4.508-5.905 6.75l.007-.009c-.746.847-1.497 1.7-2.272 2.569-.337.377-1.021.084-1-.415zm-47.319 118.069c.07-.437.183-1.361.133-2.72a6.3 6.3 0 0 0-.316-1.495c-.176-.498-.425-.973-.802-1.347a2 2 0 0 0-.689-.447 1.8 1.8 0 0 0-.885-.088c-.61.085-1.14.501-1.533.952-.467.537-.802 1.181-1.061 1.84a10.2 10.2 0 0 0-.605 2.445 9.3 9.3 0 0 0 .034 2.678c.115.7.336 1.418.758 1.996.364.499.905.889 1.542.898h.028c1.259 0 2.136-1.194 2.628-2.221a9.2 9.2 0 0 0 .765-2.495zm-1.061-1.463s-.014.508-.041.71c-.066.456-.156.909-.274 1.347a9 9 0 0 1-.372 1.064q-.152.35-.343.679a5 5 0 0 1-.317.465 4 4 0 0 1-.252.282 3 3 0 0 1-.192.167q-.076.053-.154.102-.06.032-.12.059a1 1 0 0 1-.101.034l-.081.016-.073.006-.061-.004q-.035-.005-.068-.014l-.067-.023-.068-.035-.086-.059-.092-.082-.115-.133a3 3 0 0 1-.132-.203 3 3 0 0 1-.155-.32 6 6 0 0 1-.169-.504 6 6 0 0 1-.138-.718 9 9 0 0 1-.059-1.036c.005-.404.038-.806.09-1.206q.091-.626.258-1.241.144-.5.345-.98.148-.334.33-.653.148-.246.321-.472a4 4 0 0 1 .234-.262q.097-.093.203-.176.069-.05.141-.095a2 2 0 0 1 .13-.065q.05-.019.1-.034l.081-.016q.034-.004.072-.004.029 0 .059.004.035.005.068.014l.065.023.07.036q.04.026.079.056.05.042.097.088.062.067.12.138.072.1.134.205.086.153.155.317.093.237.161.485.094.37.144.749c.041.335.068 1.292.068 1.292zm-97.768 6.006a9.3 9.3 0 0 0 .034 2.678c.115.7.336 1.418.757 1.996.365.499.905.889 1.542.898h.029c1.258 0 2.138-1.194 2.627-2.221a9.2 9.2 0 0 0 .765-2.495c.07-.436.178-1.612.178-1.651 0-.144.002-.286-.002-.429a10 10 0 0 0-.043-.64 6.3 6.3 0 0 0-.316-1.495c-.176-.497-.425-.973-.802-1.346a2 2 0 0 0-.689-.447 1.8 1.8 0 0 0-.885-.088c-.611.084-1.14.501-1.533.951-.467.537-.802 1.181-1.061 1.84-.309.785-.499 1.61-.605 2.445zm1.168 1.192q.01-.606.09-1.207.092-.627.258-1.24.144-.501.345-.98.148-.335.33-.654.148-.245.322-.472.11-.136.233-.262.098-.092.203-.176.069-.05.142-.095a2 2 0 0 1 .129-.064q.05-.019.1-.035l.081-.016a1 1 0 0 1 .131 0 .7.7 0 0 1 .133.038l.07.036q.041.026.079.056.05.042.097.087.062.068.12.139.073.099.135.204.084.155.154.318.093.237.162.485.093.37.143.748.06.504.058 1.011c0 .077-.004.792-.033.994-.066.456-.156.909-.274 1.347a9 9 0 0 1-.372 1.064q-.152.35-.343.679a5 5 0 0 1-.316.465 4 4 0 0 1-.251.282 2 2 0 0 1-.192.167q-.076.053-.154.102-.059.032-.121.059-.05.019-.1.034l-.081.016-.073.006-.061-.004q-.035-.005-.069-.014l-.066-.023-.068-.035-.086-.059-.092-.082q-.058-.065-.115-.133a3 3 0 0 1-.133-.203 3 3 0 0 1-.154-.32 6 6 0 0 1-.169-.504 6 6 0 0 1-.138-.718 9 9 0 0 1-.059-1.036z"/><path fill="#000" d="M120.703 221.971a16.5 16.5 0 0 0-.724 5.979c.126 2.04.677 4.084 1.668 5.811.937 1.632 2.284 2.994 3.916 3.707a6.8 6.8 0 0 0 3.215.558h-.018.025a7.5 7.5 0 0 0 3.053-.931 10 10 0 0 0 1.071-.691 11 11 0 0 0 1.966-1.925c.35-.44.669-.905.917-1.314a15 15 0 0 0 .806-1.526 16 16 0 0 0 1.378-5.642c.054-.926.034-1.854-.072-2.775a15 15 0 0 0-.597-2.757 11.3 11.3 0 0 0-1.237-2.648c-.521-.817-1.249-1.691-1.982-2.273-.416-.346-1.69-1.1-2.037-1.233a6.8 6.8 0 0 0-2.617-.438 7.3 7.3 0 0 0-2.753.659 8 8 0 0 0-.594.3c-.364.203-.712.43-1.052.682-1.536 1.159-2.775 2.786-3.618 4.62a16 16 0 0 0-.716 1.84zm15.403-.97q-.001-.007-.006-.016c0 .006.004.009.004.011V221zm-14.831 5.016c.04-.594.11-1.187.212-1.756a16 16 0 0 1 .422-1.726l.007-.024q.254-.8.592-1.562.315-.687.697-1.332.382-.627.829-1.2.396-.496.842-.938a10 10 0 0 1 .895-.771q.412-.304.853-.557l.014-.007q.44-.24.903-.424.415-.155.843-.256.432-.095.871-.132a7 7 0 0 1 .811 0q.409.036.811.123.397.093.779.237c.262.104 1.07.481 1.183.461q.438.338.842.723.374.375.709.794c.223.283.427.581.621.89q.35.576.628 1.196a12 12 0 0 1 .476 1.271v-.006l.002.006q.217.718.357 1.459a15 15 0 0 1 .201 1.664v.013a16 16 0 0 1 0 1.746 17 17 0 0 1-.225 1.812 16 16 0 0 1-.411 1.66q-.254.804-.592 1.567v.004l-.005.007-.007.014c-.212.467-.451.918-.72 1.366q-.37.603-.799 1.151a10 10 0 0 1-.824.921 10 10 0 0 1-.892.772 9 9 0 0 1-.886.58 8 8 0 0 1-.858.405 7 7 0 0 1-.887.273 7 7 0 0 1-.87.131 6 6 0 0 1-.86-.003 6 6 0 0 1-.777-.121 7 7 0 0 1-.751-.228 7 7 0 0 1-.757-.355 7 7 0 0 1-.718-.468 8 8 0 0 1-.693-.598 9 9 0 0 1-.669-.749 10 10 0 0 1-.603-.872 12 12 0 0 1-.551-1.05q-.28-.63-.489-1.291-.214-.708-.353-1.438a15 15 0 0 1-.199-1.616q0-.024-.004-.048v-.007a16 16 0 0 1 0-1.716zM96.562 98.589c.326.124.67.16 1.016.165h.052c.56 0 1.129-.144 1.656-.318a10 10 0 0 0 1.623-.72l.063-.034q.005-.001.003-.003c.49-.271.959-.576 1.4-.896q.029-.022.058-.041l.003-.004a15 15 0 0 0 1.343-1.116 13 13 0 0 0 1.673-1.91c.236-.336.454-.69.635-1.058l.032-.064a.6.6 0 0 0 .122-.203l.016-.038-.01.023-.007.015.023-.052.009-.02c.152-.354.267-.724.312-1.02a2.8 2.8 0 0 0-.021-1.086 1.9 1.9 0 0 0-.399-.775 2 2 0 0 0-.712-.5 2.6 2.6 0 0 0-.937-.186 4.7 4.7 0 0 0-1.165.12c-1.025.228-1.994.695-2.886 1.243a14.8 14.8 0 0 0-2.639 2.085 11.7 11.7 0 0 0-1.504 1.817c-.441.659-.815 1.398-.953 2.187-.045.28-.06.554-.027.838.041.364.19.695.411.985.198.26.506.453.81.566m.01-1.92q.008-.12.026-.241.032-.17.079-.334.084-.256.19-.501.192-.401.425-.777c.198-.31.418-.604.648-.889q.471-.56 1.002-1.072.644-.603 1.353-1.127.646-.466 1.341-.853a11 11 0 0 1 1.082-.508q.384-.147.781-.251.28-.067.565-.104c.126-.01.251-.02.379-.018q.136.006.271.025.086.015.17.04.064.021.126.048.043.021.083.045.032.021.062.045l.049.045.047.055.037.06.033.068q.014.042.026.086.014.068.024.135.005.085.005.172a2 2 0 0 1-.027.253q-.033.176-.082.346a6 6 0 0 1-.176.465l-.004.007-.02.045v.006a1 1 0 0 0-.025.1 8 8 0 0 1-.33.59q-.294.454-.633.877A13 13 0 0 1 103 94.66a15 15 0 0 1-1.298 1.079q-.642.464-1.33.853-.556.302-1.143.54a7 7 0 0 1-.78.25 6 6 0 0 1-.548.102 4 4 0 0 1-.406.02 4 4 0 0 1-.239-.022 2 2 0 0 1-.194-.045q-.057-.02-.114-.043l-.083-.043q-.035-.023-.066-.047l-.054-.05-.049-.06q-.019-.028-.036-.058l-.034-.074-.025-.088a2 2 0 0 1-.021-.135 3 3 0 0 1-.006-.17zM86.556 81.595c.02-.514-.02-1.03-.113-1.537a5 5 0 0 0-.17-.625l-.037-.104a.7.7 0 0 0-.06-.253c-.29-.603-.826-1.098-1.526-1.129-.923-.04-1.706.628-2.27 1.285a8.7 8.7 0 0 0-1.042 1.546 13.7 13.7 0 0 0-1.23 3.202c-.28 1.135-.45 2.318-.35 3.486.078.9.349 1.997 1.2 2.476a1.64 1.64 0 0 0 1.062.188c.352-.06.671-.202.968-.398.362-.237.673-.546.954-.873.363-.42.668-.888.94-1.37a13.3 13.3 0 0 0 1.23-3.046c.255-.93.408-1.886.444-2.848m-1.194-.621a10 10 0 0 1-.029 1.01 12 12 0 0 1-.242 1.508 14 14 0 0 1-.531 1.761c-.189.485-.4.959-.643 1.418a10 10 0 0 1-.619.996q-.209.283-.445.544a5 5 0 0 1-.336.32 3 3 0 0 1-.262.19 3 3 0 0 1-.17.094 2 2 0 0 1-.131.05l-.1.025q-.036.006-.076.009h-.058l-.046-.007-.045-.013-.036-.016-.045-.029q-.03-.023-.057-.048-.031-.03-.061-.063l-.074-.102q-.044-.074-.083-.153a3 3 0 0 1-.104-.267 5 5 0 0 1-.1-.413 6 6 0 0 1-.072-.666c-.013-.365 0-.727.029-1.09.05-.504.134-1.003.244-1.499q.202-.857.51-1.685.275-.722.631-1.406l.038-.072c.169-.303.348-.6.547-.883a7 7 0 0 1 .473-.583q.167-.176.353-.336.12-.095.246-.18.09-.054.181-.1.064-.028.131-.05l.095-.024.083-.009h.048l.049.008.05.016.041.02q.025.014.045.028l.049.038q.037.037.07.075a1.2 1.2 0 0 1 .143.232l.013.027q.043.089.111.154l.02.06q.054.184.091.375.056.344.076.678v.067zm26.255-15.568c4.936-.773 9.367 3.894 9.909 8.567.043.93.386 3.317-.504 3.834-.205.102-.472.032-.626-.122-.359-.407 0-.99-.045-1.474.055-.92-.006-1.847-.171-2.755-.755-3.558-4.013-7.088-7.863-6.872-.477.082-1.141.167-1.237-.472a.635.635 0 0 1 .537-.706m8.545-2.723c1.115.666 2.217 1.363 3.204 2.208.992.91 1.811 2.041 2.247 3.323.533 1.42.323 4.012 2.396 3.978.754-.047 1.368-.83 1.233-1.57.176-.739.23-1.494.259-2.25.134-2.802-.657-5.775-2.533-7.875-1.845-2.05-5.067-4.29-7.944-3.511-1.061.301-2.067 1.25-1.761 2.434.316 1.547 1.603 2.538 2.897 3.265zm1.021-.806c-1.024-.624-2.218-1.236-2.645-2.441-.442-.917.743-1.377 1.473-1.429 1.976-.041 3.789 1.066 5.243 2.314 1.919 1.612 2.987 4.023 3.105 6.495.047.633.103 4.035-.459 4.19-.679-.133-.718-2.018-.941-2.607-.384-1.5-1.238-2.84-2.304-3.951-1.004-1.04-2.258-1.808-3.473-2.574z"/><path fill="#000" d="M.249 221.867a27.3 27.3 0 0 0 1.267 5.451c.653 1.9 1.52 3.731 2.622 5.413.05.079.103.156.15.226l.024.038c.008.009.013.019.015.021a21.3 21.3 0 0 0 3.471 3.975l.022.019.032.029c.824.723 1.949 1.355 3.006 1.914.322.184.655.355.991.517l.032.016c.523.249 1.047.475 1.531.696 3.83 1.641 8.057 2.343 12.15 2.898.683.093 2.834.236 4.4.342a18 18 0 0 0 1.469.101l.066.005c.318.025.97.099 1.427-.027l.036-.001h.02c.021 0 .043-.004.057-.004a18 18 0 0 0 2.367-.314 20 20 0 0 0 2.488-.673 21.5 21.5 0 0 0 4.898-2.454l.038-.025c.009-.008.02-.013.021-.015a23 23 0 0 0 2.244-1.719 26.4 26.4 0 0 0 3.295-3.435c2.32.079 4.64.121 6.954.157 12.328.091 24.632 1.095 36.955 1.233.81-.025 2.414-.208 3.305-.332a23.8 23.8 0 0 0 2.405 4.646l.025.037c.007.009.012.02.014.022a21.3 21.3 0 0 0 3.471 3.974l.022.02.032.029c.654.574 1.659 1.165 2.637 1.692.578.365 1.21.674 1.829.957l.014.007c.37.169.734.329 1.079.487 3.83 1.641 8.057 2.343 12.149 2.897.783.108 3.247.273 4.701.374q.396.038.791.057l.063.005h.015q.381.017.764.018.17 0 .339-.003h.008c.125.003.179.003.186-.006q.269-.008.53-.025h.019l.058-.003a18.6 18.6 0 0 0 4.855-.986 21.5 21.5 0 0 0 4.898-2.454l.038-.025c.009-.007.019-.012.019-.014a23 23 0 0 0 2.246-1.72 26.4 26.4 0 0 0 4.164-4.577 29.8 29.8 0 0 0 3.383-6.161c.551.039 1.093.071 1.578.097a58 58 0 0 0 5.643.064c11.097-.409 21.97-2.371 32.887-4.227.736-.131 1.475-.257 2.205-.415a24 24 0 0 0 2.183 4.231q.077.12.149.226l.025.038a21.3 21.3 0 0 0 3.486 3.996l.021.02.033.028c1.026.902 2.229 1.519 3.44 2.151q.11.058.219.113l.031.016c.632.316 1.281.594 1.87.864 3.83 1.64 8.057 2.342 12.149 2.897.978.135 1.933.244 2.913.321.327.025.776.108 1.072-.03q1.17.16 2.349.161.17 0 .339-.003.369-.007.726-.031h.019l.058-.003a18.6 18.6 0 0 0 4.855-.986 21.5 21.5 0 0 0 4.898-2.454l.038-.025c.009-.007.019-.012.019-.014a23 23 0 0 0 2.246-1.72 26.4 26.4 0 0 0 4.164-4.578 30 30 0 0 0 2.365-3.915 30 30 0 0 0 1.553-3.651l.023-.066.02-.058.004-.007a31 31 0 0 0 1.425-5.899q.213-1.52.281-3.053c.045-1.02.033-2.04-.019-3.059-.004-.083-.011-.167-.015-.235a29 29 0 0 0-.628-4.445 4422 4422 0 0 0 41.393-4.527.64.64 0 0 0 .197-.239.595.595 0 0 0-.167-.702c-13.16.756-26.454 2.939-39.671 4.048l-2.05.212q-.063-.237-.129-.472a25.6 25.6 0 0 0-2.075-5.068c4.527-.616 9.026-1.402 13.555-2.021q6.689-.995 13.375-1.998c.33-.05.542-.408.479-.724.029-.746-2.68-.305-5.072.139-1.527.283-2.926.565-3.398.54-5.214.781-10.43 1.555-15.644 2.334-1.319.188-2.638.398-3.957.594a24 24 0 0 0-.384-.594c-1.136-1.693-2.501-3.232-4.1-4.502-2.446-2.284-6.506-3.542-7.509-3.759a15 15 0 0 0-.808-.151c-.339-.11-.774-.122-1.061-.194l-.152-.023c-.052-.212-.11-.415-.126-.575-.838-3.425-1.583-7.265-4.424-9.636a19 19 0 0 0-1.359-.952c11.929-3.796 22.624-10.763 32.273-18.658 10.313-8.345 19.16-18.457 29.961-26.2 5.834-4.428 12.988-7.428 19.647-10.162.592-.181.865-.278 1.795-.662 1.929-.86 4.438-2.061 5.327-4.088.368-.836.229-1.825-.401-2.488-2.392-2.509-9.318-1.974-12.126-1.644a85 85 0 0 0-4.672.867c-3.377-2.822-5.949-3.978-9.15 1.118a19 19 0 0 0-1.042 1.779 74 74 0 0 0-7.363 3.086c-2.649 1.282-5.264 2.673-7.867 4.114-1.893-.77-3.855-1.371-5.885-1.515-2.868-.053-4.083 2.575-4.891 4.906a32 32 0 0 0-1.03 3.275c-4.604 2.551-9.265 4.963-14.093 6.897-2.161-1.338-4.324-2.917-6.93-3.129-3.758-.304-5.968 2.683-7.264 5.798q-.363.672-.743 1.337-.725.09-1.459.162c-3.466.379-6.905.287-10.329-.052-.724-1.47-1.653-2.933-2.371-3.881-.76-.955-1.732-2.022-3.07-1.876-1.952.219-3.848 1.019-5.452 2.158a161 161 0 0 0-.759-3.083c.762-.825 1.443-1.73 2.103-2.646 1.666-2.245 3.498-4.898 2.99-7.828-.637-3.296-5.201-3.806-7.823-4.998-.844-.307-1.691-.605-2.537-.906q-.519-1.345-1.066-2.68-.512-1.217-1.041-2.427.583-.774 1.144-1.571c1.154-1.659 2.297-3.355 3.026-5.251.813-2.023.789-4.288-.93-5.832-1.165-.907-2.764-.84-4.168-.926a199 199 0 0 0-5.626-.072 195 195 0 0 0-1.655-3.054c5.838-1.813 11.682-3.606 17.555-5.292.833-.167 1.829-.763 1.247-1.124a.85.85 0 0 0-.583-.1c-4.483.747-8.804 2.535-13.197 3.732q-2.807.863-5.613 1.729-.328-.583-.659-1.162c1.628-3.132 3.859-6.848 3.49-9.824s-3.409-3.47-6.329-2.822c-1.509.287-3.03.576-4.518.973a153 153 0 0 0-2.611-3.65 34 34 0 0 0 2.588.052c14.63-.21 20.122-12.104 36.997-12.7 5.193-.212 10.233 1.048 14.967 3.048.672.275 1.339.553 2.029.78.4.182.969.435 1.215-.094a.574.574 0 0 0-.284-.75c-1.222-.593-2.479-1.108-3.746-1.598-9.853-4.16-20.938-3.239-30.279 1.823-6.59 3.524-12.571 8.165-20.405 8.226-1.37.066-2.728.016-4.076-.117a35 35 0 0 1-1.725-.215c-1.892-.286-3.764-.718-5.618-1.218a97 97 0 0 0 2.54-2.613q.426-.456.847-.917c.583-.638 1.163-1.277 1.734-1.927.886.078 1.71.112 2.403.112q.199.001.384-.004a39 39 0 0 0 2.33-.077c3.5-.228 6.962-.966 10.257-2.178 7.499-2.814 14.456-7.035 22.441-8.47 4.977-1.08 10.084-1.193 15.15-.91a85 85 0 0 1 4.753.311.623.623 0 0 0 .688-.53c.041-.324-.2-.656-.534-.688a100 100 0 0 0-4.162-.295c-2.805-.142-5.621-.275-8.43-.122a53.8 53.8 0 0 0-12.58 2.231c-5.446 1.625-10.464 4.334-15.694 6.504-3.701 1.558-7.659 2.567-11.66 2.88a6.1 6.1 0 0 0-.107-2.03c-.173-.765-.487-1.313-.899-1.706 2.41-2.696 4.925-5.292 7.809-7.493 11.394-8.941 25.041-10.796 38.819-6.958a59 59 0 0 1 6.725 2.357c.632.255 3.425.831 3.898.932 3.159.61 6.381 1.09 9.603 1.063.484.026.985-.33.642-.83-.183-.22-.502-.224-.764-.248-.268-.023-.533-.04-.801-.06a97 97 0 0 1-4.446-.48c-2.555-.353-4.659-.576-8.715-1.834-14.919-6.339-32.017-5.499-45.11 4.595-3.272 2.397-6.074 5.294-8.759 8.308q-.453.51-.905 1.023c-1.626 1.853-3.227 3.73-4.88 5.55l-.395.437q-.221.244-.445.486c-6.519 7.075-14.378 12.975-23.275 16.707-3.888 1.645-7.96 2.783-12 3.978-.3.085-9.982 2.354-13.155 3.361-3.123.923-6.232 1.942-9.414 2.635-.84.154-3.654.851-3.787.011-.081-.395 1.072-.716 1.646-1.007q1.365-.574 2.696-1.237.21-.1.42-.205c2.434-1.127 4.84-2.31 7.287-3.41 2.812-1.264 24.44-9.138 31.14-13.182 5.412-3.332 9.98-7.776 14.445-12.26.627-.629 2.077-2.087 2.177-2.185 16.491-16.325 35.219-25.789 58.866-21.32 2.843.378 5.722.667 8.592.47 1.434-.112 2.834-.47 4.241-.75 3.164-.667 6.341-1.358 9.389-2.455.307-.111.441-.497.319-.786a.6.6 0 0 0-.319-.32c-.309-.133-.602.067-.892.153-2.754.926-5.625 1.581-8.456 2.167-2.184.445-4.412.897-6.637.799-3.486-.056-6.921-.66-10.365-1.139-14.63-2.14-29.685 2.284-41.705 10.676-4.793 3.281-9.226 7.042-13.388 11.085a.7.7 0 0 0-.099-.216c-.328-.53-.791-.962-1.247-1.382-.887-1.005-2.28-.822-3.362-.255l-.257.139-.152-.157c1.567-2.743 2.588-6.814 2.033-9.568-.14-.818-.402-1.483-.775-1.99 1.359-.221 2.683-.568 3.942-1.137 3.237-1.3 5.678-3.727 7.933-6.186 1.321-1.416 2.715-2.904 3.925-4.432 1.913-2.276 3.688-4.875 6.472-6.283 1.829-.635 2.396-1.606.505-2.73-1.569-.819-3.416-.93-5.157-.934-5.438.018-10.031 3.099-13.777 6.48-3.267 2.99-4.552 5.153-8.698 5.587-4.241.47-10.146-2.614-16.473 1.153.153-3.424.079-11.405-2.588-12.658-1.533-.589-3.873 2.296-5.126 3.174-1.09 1.091-6.239 5.017-6.668 6.611-2.233-.16-4.482-.04-6.7.254q-.142.02-.286.043c.183-.76.417-1.636.483-1.733l.007-.01c.776-1.916 2.165-3.494 3.752-4.91 1.667-1.546 3.907-2.666 5.397-4.409 1.979-2.343 2.959-5.3 3.505-8.252.612-3.429-.109-7.053.989-10.412.363-1.289 1.247-2.465 1.766-3.7.174-.459-.003-1.023-.483-1.261-1.448-.528-4.045 1.005-5.224 1.816-3.504 2.478-5.462 6.436-6.268 10.451-.826 4.045-.427 6.283-4.841 8.3l-.005.001c-.951.47-1.944.867-2.892 1.345.004-.004-.016.007-.037.017-1.632.8-3.141 1.975-4.335 3.316l.011-.013c-1.63 1.74-2.414 3.953-2.656 6.25q-.036.249-.065.496l.005-.034v-.007.006q-.074.566-.113 1.134c-2.315 2.67-4.534 5.416-6.346 8.453q-.002.007-.008.013C92.118 59.56 85.441 68.522 80.814 77.74c-2.484 4.85-3.974 10.378-3.556 15.85.151 2.495.647 5.078 2.197 7.106 3.455 4.666 10.206 7.017 15.868 6.773 2.847-.034 5.6-.567 8.258-1.427l.018.013c.063.836.14 1.671.196 2.507.178 2.851.129 5.7-.084 8.538-.401.837-.747 1.538-.925 1.817a126 126 0 0 1-1.864 3.497c-.695-.261-1.424-.438-2.142-.609a9 9 0 0 0-2.584-.162c-5.173.467-9.782 4.668-12.848 8.599-1.285 1.687-2.462 3.463-3.415 5.36-1.38 2.946-2.25 6.109-3.093 9.243-.98 3.81-1.755 7.665-2.42 11.536-.159.922-.33 1.847-.455 2.775v.023a32.4 32.4 0 0 0-5.82 2.646c-2.675 1.591-5.032 3.679-7.182 5.917-4.754 5.035-8.53 10.843-12.85 16.232-2.088 2.574-4.065 5.284-6.498 7.546a34 34 0 0 1-1.59 1.303q-.457-.124-.92-.226a19 19 0 0 0-.807-.152c-.34-.11-.772-.121-1.061-.194-2.008-.329-3.94-.494-5.954-.659-4.181-.311-8.407-.655-12.569-.291-.222.031-.644.063-1.073.133l-.004-.034-.123.023q-.313.052-.627.094-.341.077-.68.161.007-.001.016-.005l-.038.009q-.005 0-.009.002h.004q-.027.005-.054.014-.443.124-.885.251-.347.16-.687.329c-.847.425-1.659.908-2.429 1.423q-.018.011-.034.024l-.023.016a24.6 24.6 0 0 0-4.597 4.062 28 28 0 0 0-2.198 2.831 29 29 0 0 0-1.937 3.301 30 30 0 0 0-1.565 3.695q-.004.014-.01.025c-.004.018-.012.034-.015.046a31.4 31.4 0 0 0-1.662 8.023 31 31 0 0 0 .161 6.155zM171.01 76.162l.059-.066c.803-.923 1.603-1.85 2.411-2.77.307.338.509.788.585 1.273.077.522.07 1.05 0 1.58a33 33 0 0 1-3.057-.017zM51.773 199.86c2.793 3.528 5.333 5.179 9.637 5.179.332 0 2.035-.054 2.583-.09 6.316-.454 12.092-3.358 17.99-5.482 10.045-3.71 20.671-5.776 31.337-6.403 2.032-.174 4.048-.09 6.038-.084a.8.8 0 0 0 .239-.228c.693.962 1.421 1.902 2.279 2.721.406.352.785.804 1.321.942a.49.49 0 0 0 .548-.342c.073-.248-.081-.449-.253-.62q.237-.309.457-.632a14 14 0 0 0 1.422-2.708c.375-.896.666-1.83.869-2.776.405-1.877.499-3.813.342-5.726-.15-1.871-.533-3.716-1.084-5.508a31.5 31.5 0 0 0-1.836-4.584 31 31 0 0 0-1.317-2.427 38 38 0 0 0-1.535-2.368l-.07-.097.016-.027-.03-.029q-.055-.056-.108-.113a39 39 0 0 0-1.569-2.043c1.82-.865 3.364-2.258 4.866-3.586a47 47 0 0 1 2.42 3.314 44 44 0 0 1 2.617 4.545l.07.143a39 39 0 0 1 1.864 4.53q.333 1.002.609 2.021c.183.684.339 1.373.479 2.066.237 1.23.402 2.472.477 3.721.029.562.047 1.122.042 1.686a26 26 0 0 1-.063 1.535 23 23 0 0 1-.409 2.868 20 20 0 0 1-.663 2.347l-.01.032-.011.029q-.39 1.065-.901 2.078a18 18 0 0 1-1.081 1.813 18 18 0 0 1-1.358 1.727l-.038.042q-.638.698-1.325 1.35c-.19.179-.38.36-.558.552l-.034.038-1.034-.086c-4.009-.298-8.059-.625-12.054-.33q.474-.138.962-.264c1.226-.395 2.459-.772 3.681-1.176.329-.093.481-.517.309-.811-.283-.453-.815-.198-1.226-.124-3.022.885-6.082 1.712-8.967 2.992-6.488 2.914-11.15 8.581-15.213 14.232-1.766 2.47-3.222 4.829-6.757 5.118-4.283.061-8.958-.072-13.23.043-6.765.181-13.65.344-20.395.33-4.83-.152-16.91.759-19.273-4.163-.393-1.03.705-2.524 1.149-3.452a80 80 0 0 1 1.31-2.265c3.37-5.716 7.129-11.189 11.146-16.467.296-.397.594-.793.881-1.197.08-.137.192-.278.3-.422.655 3.17 1.98 6.184 4.14 8.638zm32.442-54.963c2.037-3.374 3.514-4.013 6.844-5.701.24-.172.468-.359.693-.549q.044.06.104.111c1.283.896 2.642 1.686 4.022 2.422.585.229 1.235.729 1.883.96-.47.571-.92 1.215-1.257 1.433-2.816 2.443-3.591 3.48-3.724 7.297-.226 2.983-1.838 4.552-4.84 4.628-1.666.174-3.894.554-4.942-1.099-2.292-3.159-.877-6.698 1.219-9.502zm-1.344 11.193c.497.364 1.059.58 1.644.696q-.484.37-.933.783a28.2 28.2 0 0 0-5.618.53l.063-.192.026-.078.027-.073c.245-.664.525-1.314.828-1.917l.025-.051.009-.018.005-.009.006-.009q.475-.915 1.059-1.77l.01-.016c.266-.38.551-.743.846-1.098.373 1.231 1.055 2.362 2.003 3.222m17.589-8.507.04.009h.007c1.47.323 2.913.745 4.252 1.221a40 40 0 0 1 4.535 1.971q.504.26.998.533-.23.278-.43.587a10.7 10.7 0 0 0-1.758 5.319 35 35 0 0 0-3.21-1.576 31 31 0 0 0-2.653-.991 26 26 0 0 0-5.544-1.162 21 21 0 0 0-3.235-.066c.334-.801.54-1.763.62-2.914.12-1.195.113-2.525.793-3.552a27 27 0 0 1 1.911.079l.38.037a31 31 0 0 1 3.298.503zm-3.126-2.212-.17.447a24 24 0 0 0-1.151-.08c.525-.487 1.199-1.088 1.816-1.697q-.244.667-.495 1.332zm-2.626 9.34q.735.007 1.468.061a26 26 0 0 1 3.053.453h.005c1.208.264 2.393.61 3.493 1.001a34 34 0 0 1 3.728 1.62q.74.384 1.459.802c-4.575-.738-9.07-1.91-13.368-3.626zm13.802 5.291c.688 1.439 1.976 2.556 3.064 3.696.863.908 5.322 5.408 6.219 3.36a1 1 0 0 0 0-.133 37 37 0 0 1 1.45 1.824 709 709 0 0 1-3.647 6.025c-.736 1.2-1.473 2.391-2.222 3.55-.939-1.978-1.908-3.938-2.994-5.839-2.735-4.729-6.737-8.897-11.634-11.365a34 34 0 0 0-6.485-2.348 34 34 0 0 0 1.675-2.652c4.663 1.902 9.575 3.138 14.574 3.88zm11.519 9.839q.218.308.429.622a36 36 0 0 1 2.151 3.736l.057.117a32 32 0 0 1 1.533 3.721 27 27 0 0 1 .892 3.359c.194 1.009.33 2.03.391 3.057q.039.689.034 1.384c-.003.42-.023.842-.05 1.26a19 19 0 0 1-.337 2.357 17 17 0 0 1-.553 1.953l-.009.023q-.057.155-.117.306-.233.57-.511 1.123a15 15 0 0 1-.889 1.489 14 14 0 0 1-.28.385c-2.38-2.488-4.076-5.473-5.63-8.51-1.101-2.16-2.111-4.368-3.138-6.567 2.07-3.116 4.048-6.462 6.026-9.819zm-1.118 21.916q-.07-.005-.145-.003c-4.792-.228-9.714.346-14.447.928-3.55.466-7.075 1.116-10.559 1.94 4.56-7.311 9.97-14.233 16.482-19.888 3.006 5.61 5.13 11.708 8.667 17.023zm-26.919 3.298a107 107 0 0 0-9.502 2.897c-5.673 1.919-11.112 4.833-17.112 5.578-1.021.127-3.535.29-3.598.249q-.297-.001-.593-.011c.688-1.35 1.379-2.7 2.086-4.039a244 244 0 0 1 1.662-3.111c.56-1.03 1.14-2.05 1.714-3.071a251 251 0 0 1 3.58-6.148 181 181 0 0 1 3.777-6.03c.377-.578.761-1.151 1.127-1.702l.074-.108c.021-.032.041-.063.056-.08l.025-.038.132-.196a183 183 0 0 1 4.23-5.956 174 174 0 0 1 4.54-5.845c1.561-1.923 3.163-3.815 4.758-5.708q.865-1.027 1.723-2.061c1.842.391 4.776 1.142 7.528 2.54 4.097 2.082 7.513 5.36 10.071 9.155.482.745.937 1.506 1.373 2.276-4.053 3.197-7.348 7.292-10.63 11.252-2.234 2.809-5.08 6.997-7.02 10.159zm-6.897-37.416q.35-.27.718-.517l.053-.036c.096-.063.194-.118.291-.177q.454-.014.9-.058c2.564-.082 4.418-.671 5.581-2.052q.315-.031.63-.054a36 36 0 0 1-1.852 3.065c-.144.224-.31.434-.452.657a41 41 0 0 0-5.866-.828zm7.552-19.845c.257-.271.503-.555.74-.844 1.454.891 2.981 1.652 4.48 2.462.44.193.861.543 1.342.615q-.184.577-.375 1.151c-1.685-.84-4.202-2.075-5.654-3.027-.16-.106-.342-.249-.533-.355zm8.343.663c2.347 1.143 4.763 2.138 7.253 2.911 5.878 1.842 12.251 2.77 18.42 2.865q-.006 0 0 0a38 38 0 0 1-2.091 1.63c-1.875 1.411-4.275 1.494-6.501 1.871-2.373.413-4.995 1.088-6.86 2.655a43 43 0 0 0-3.95-1.944 37 37 0 0 0-3.231-1.205 32 32 0 0 0-5.582-1.275q.088-.23.174-.461a84 84 0 0 0 2.37-7.047zm28.574 12.427c.204.282.423.898.743 1.171q-.162.188-.325.382c-.223-.359-.523-.713-.65-.944-1.093-1.515-2.111-3.079-3.101-4.66a.6.6 0 0 0-.39-.289q.275-.215.542-.462l.156-.129a.6.6 0 0 0 .079.201c1.009 1.56 2.023 3.118 2.946 4.732zm-.345 2.477c-1.946 2.413-3.825 5.176-5.67 8.242l-.145.239.007.01c-.469.198-.957.69-1.28.912-1.053.909-2.19 1.824-3.435 2.436a8.5 8.5 0 0 1-1.477.578c-.253.081-.392.255-.436.447a1.5 1.5 0 0 1-.465-.195c-1.262-.607-2.24-1.621-3.218-2.598-1.248-1.253-2.632-2.434-3.491-4.001-.941-3.267.691-7.502 3.819-9.006 3.651-1.916 8.186-1.221 11.654-3.354a.62.62 0 0 0 .084.383c.557.879 1.111 1.764 1.691 2.622.619.921 1.274 1.815 1.92 2.715.117.165.266.391.437.57zm-77.291 27.715a83 83 0 0 0-2.569 6.491q-.372 1.054-.725 2.113l-.02-.169a30 30 0 0 1-.23-3.52.54.54 0 0 0-.07-.253 181 181 0 0 0 3.614-4.664zm33.075-22.22a48 48 0 0 1 4.279.548c-1.508 1.797-3.035 3.576-4.532 5.382a173 173 0 0 0-4.562 5.706 186 186 0 0 0-4.351 5.938 144 144 0 0 0-1.594 2.32c-.054.077-.106.156-.133.195a167 167 0 0 0-3.895 6.064 253 253 0 0 0-3.632 6.122 226 226 0 0 0-3.414 6.117 311 311 0 0 0-3.333 6.414c-1.391-.177-2.718-.576-3.868-1.342-.393-.295-1.27-1.072-1.51-1.359-2.505-2.408-4.413-5.432-5.33-8.76 1.208-3.842 2.583-7.63 4.236-11.304q1.053-2.303 2.152-4.59c1.608-2.119 3.248-4.21 4.99-6.22 2.135-2.419 4.49-4.652 7.15-6.486 5.11-3.31 11.273-5.111 17.349-4.743zm15.342-35.407c-1.432 2.544-2.938 5.048-4.462 7.538-1.51 2.319-2.792 4.675-4.767 6.592-1.367 1.228-3.252 1.621-4.699 2.735-2.577 2.424-4.79 5.59-5.745 8.996a7.2 7.2 0 0 0-.102 2.001 17 17 0 0 0-1.59 1.962l-.011.017c-.418.605-.79 1.235-1.122 1.874l-.027.054v.003a18 18 0 0 0-.935 2.16l-.013.034q-.176.494-.323.996-.623.154-1.244.334c.686-4.269 1.488-8.502 2.526-12.681.883-3.373 1.8-6.898 3.292-10.04 2.83-5.261 7.025-10.413 12.721-12.623 1.5-.53 3.14-.72 4.707-.406.603.126 1.2.284 1.793.454zm3.062-3.152c-.628 5.351-1.778 10.654-3.069 15.858a69 69 0 0 1-.811 2.858 2 2 0 0 0-.156-.115c-.54-.359-1.115-.664-1.682-.98-1.18-.653-2.38-1.269-3.534-1.971 1.027-1.431 1.91-2.987 2.873-4.43 2.206-3.671 4.507-7.371 6.379-11.222zm.625 4.418c.93.282 1.868.529 2.821.725a62.4 62.4 0 0 0 12.887 1.355q1.15 0 2.298-.044c4.966-.221 9.99-1.013 14.649-2.781a113 113 0 0 1 1.757 8.482c-1.215 1.219-2.419 2.447-3.555 3.732-2.201 2.285-4.421 4.664-6.801 6.811h.002c-9.132.03-18.553-1.765-26.759-5.743.779-2.836 1.43-5.707 1.992-8.606q.385-1.957.709-3.931m3.087-75.144a38 38 0 0 0-4.028 2.072c1.072-1.506 2.278-2.919 3.439-4.355l.34-.408c.023.469.055.938.088 1.406.046.325.01.917.163 1.285zm.768 1.083c.853.147 1.714.35 2.452.816.984.668 1.075 1.871-.409 1.56-1.282-.342-2.351-1.202-3.554-1.698a42 42 0 0 1 1.511-.678m.496-8.093c.545.428 1.269.736 1.825.971.664.243 1.348.428 2.041.56 1.633.315 3.324.347 4.977.205a9 9 0 0 0-.332.968 9.6 9.6 0 0 0-.309 1.457 41.6 41.6 0 0 0-7.876 2.189c-.222-.62-.323-1.27-.405-1.912-.151-1.456-.171-2.976.079-4.438m21.164-25.846a2.47 2.47 0 0 1-2.069-1.025c1.393-1.337 3.089-2.387 5.056-2.813-.616 1.174-1.344 2.305-1.718 3.583l-.055.178c-.356-.083-.847.095-1.214.075zm.53 6.976c-.248-.018-.531.072-.777.15-.774.197-1.585.306-2.391.197-1.195-.153-2.285-.75-3.152-1.539-.072-.06-.145-.13-.222-.194.454-1.479 1.069-2.906 1.944-4.227.35-.52.739-1.027 1.161-1.51.328.38.809.7 1.183.908.188.115.533.227.933.304.555.107 1.213.145 1.703.037-.314 1.544-.362 3.137-.359 4.72l-.007.35q-.003.401-.016.802zm-1.727 7.782a7.8 7.8 0 0 1-1.613.18c-1.799-.006-3.567-.74-4.929-1.88-.018-.023-.036-.041-.054-.063.476-1.04.713-2.197.88-3.314.15-.976.335-1.953.576-2.915l.075.072c.442.422.959.77 1.519 1.036.499.25 1.033.427 1.581.533a6.7 6.7 0 0 0 2.229.048c.433-.06.858-.158 1.278-.273q.067-.01.131-.026c-.109 1.669-.366 3.32-.905 4.915a23 23 0 0 1-.612 1.647l-.154.038zm-7.962 8.006a5.6 5.6 0 0 1-1.326-.53c-1.646-.974-3.062-2.396-3.879-4.062a2 2 0 0 1-.134-.309c1.814-.86 3.672-1.54 5.232-2.86.36-.306.662-.653.919-1.024.822.795 1.924 1.326 3.013 1.705q.502.167 1.023.268a8 8 0 0 0 2.43.097q.102-.025.23-.043c-.375.7-.815 1.367-1.35 1.987-1.527 1.734-3.709 2.791-5.388 4.385l.038-.032a35 35 0 0 0-.585.542.7.7 0 0 0-.224-.124zm-2.536 3.537c-2.62.206-6.072.174-8.401-1.054a6 6 0 0 1-.81-.54 8.6 8.6 0 0 1 1.095-2.42c1.082-1.598 2.579-2.937 4.308-3.908.084.222.186.434.256.605 1.043 1.996 3.157 4.051 5.44 4.79-.719.78-1.367 1.62-1.888 2.527m23.143 9.855c.583 1.289 1.423 2.533 2.335 3.694a13 13 0 0 0 1.737 1.896c-3.178 1.283-6.253 2.798-9.367 4.22l-.011.007c-1.642-.73-2.597-2.443-2.986-4.059.011-1.168.786-2.172 1.402-3.132 1.538-2.136 3.571-4.113 5.996-5.423.088.928.653 2.24.894 2.8zm13.434-1.167c.768 1.773 1.933 3.421 3.491 4.655a5.7 5.7 0 0 0-1.261.18q-.673.14-1.343.286-.647.018-1.294.04a3 3 0 0 0-.479-.124c-2.043-.425-4.136.187-6.076.806q-.575.204-1.145.422a8 8 0 0 1-.635-.526c-2.082-2.133-3.811-4.723-4.455-7.568l-.059-.262.172-.063c1.095-.417 2.279-.806 3.419-.993q.184-.034.37-.057a16 16 0 0 1 4.297.113c1.412.244 2.845.49 4.275.553.05.865.501 1.967.723 2.538m21.292-7.66c-1.877-1.185-3.501-3.071-3.803-5.222a3 3 0 0 0-.023-.26c1.741-.83 3.613-1.395 5.591-1.504 1.132-.017 2.376-.054 3.539.17.767.147 1.497.41 2.136.865-3.065 1.189-5.101 3.686-7.066 6.13-.124-.068-.255-.125-.374-.179m-5.614 6.899a9 9 0 0 1-.983-.31c-2.673-1.06-4.471-3.613-4.976-6.233l-.018-.12c.819-.792 1.648-1.571 2.547-2.284 1.246-1.034 2.615-2.027 4.091-2.849.353 2.445 2.303 4.782 4.586 6q-.334.41-.67.807c-1.034 1.239-2.139 2.407-3.243 3.592-.442.465-.883.935-1.332 1.399zm-9.907 5.504-.191-.103a9.5 9.5 0 0 1-1.951-1.396 11.7 11.7 0 0 1-3.194-5.775 11 11 0 0 0 1.895-.226c1.619-.298 3.198-.89 4.446-1.912.655-.566 1.28-1.16 1.899-1.76.152.55.395 1.094.569 1.539.996 2.29 3.013 4.236 5.499 5.06-.883.848-1.82 1.641-2.873 2.3-1.831 1.181-3.919 1.9-6.096 2.27zm-1.783 11.725a233 233 0 0 0-4.846-4.947c.787-.855 1.485-1.774 2.021-2.806.402-.849.309-1.714-.111-2.398l.205-.045a53 53 0 0 0 3.311-.201c.684.382.984 1.257 1.115 1.984.404 2.098-.146 4.243-.767 6.236a13 13 0 0 1-.929 2.175zM119.618 97.57a82 82 0 0 0 4.737-3.35c.034.067 1.326-1.037 1.524-1.197 2.633-1.029 5.135-2.362 7.649-3.65 3.913-2.024 7.804-4.116 11.347-6.726 3.748-2.728 7.115-5.897 10.628-8.907.676-.55 2.24-1.953 3.715-2.89a9 9 0 0 1 1.116-.614c.643-.285 1.21-.391 1.6-.176.477.375.908.81 1.337 1.239.143.138.285.3.479.366q-.56.551-1.111 1.107-.439.444-.872.889-.127.127-.253.258c-5.256 5.33-10.829 10.558-17.61 13.88-5.711 2.91-22.498 9.042-24.284 9.77zm-23.067 8.57c-1.967.145-3.95.122-5.882-.314-3.977-.86-8.02-2.738-10.39-6.16-1.269-1.812-1.626-4.058-1.77-6.221-.403-5.364 1.144-10.794 3.604-15.508l-.005.01-.005.011c3.329-6.59 7.577-12.73 12.765-17.983a65 65 0 0 1 1.615-1.603c.375.11.908-.029 1.278.032 1.95.074 3.302 1.736 4.076 3.377.301.441.447 1.5 1.143 1.368.935-.332-.212-2.153-.475-2.725a7.4 7.4 0 0 0-1.587-1.995c-.827-.741-1.955-1.218-3.05-1.272l-.07-.004c1.9-1.698 3.924-3.254 6.116-4.552q.428-.24.863-.469c2.125.253 3.69 2.357 5.914 2.154 1.357-.152 2.075-1.655 1.274-2.786-.486-.836-1.353-1.303-2.26-1.572 4.762-1.763 9.852-2.64 14.919-2.481a30 30 0 0 1 3.762.53c.632.129 1.253.29 1.874.46.461.08.957.396 1.413.182.321-.185.33-.678.019-.887-.285-.195-.624-.289-.947-.404-1.515-.499-3.091-.793-4.674-.992l.009-.015c.572-.68 1.219-1.3 1.87-1.903 2.111-1.935 4.288-3.793 6.47-5.643 1.072-.797 1.862-2.056 2.529-.083.786 2.235.964 4.631 1.059 6.983.049 1.33.058 2.662-.057 3.989a1 1 0 0 0 .003.144c-1.301.829-2.299 1.86-3.291 3.012-.282.323-.593.635-.831.99-1.217 1.482-2.154 3.085-2.369 4.526-.038.926.445 1.784.852 2.612.551 1.125 1.472 2.142 2.692 2.7q.298.136.609.25c.018-.013.037-.02.055-.031a.62.62 0 0 0 .659.021 434 434 0 0 1 6.413-2.95c2.586-1.135 5.189-2.322 7.982-2.84 8.967-1.058-.749 6.738-3.114 8.654a257 257 0 0 1-4.97 3.891c-.553.291-.304 1.095.21 1.178a.57.57 0 0 0 .312-.04c1.944-1.222 3.714-2.79 5.53-4.18 1.319-1.147 2.735-2.26 4.008-3.49a154 154 0 0 1 5.666 5.814c-2.204 1.406-4.106 3.27-6.092 4.958-2.112 1.853-4.221 3.718-6.429 5.456-4.783 3.816-10.266 6.592-15.697 9.35q-.446.226-.885.44a90 90 0 0 0 3.187-3.008c.548-.58-.267-1.463-.886-.887a77 77 0 0 1-5.778 5.218c-3.638 3.122-7.71 5.668-11.797 8.154-1.73 1.055-3.507 2.071-5.335 2.978-.875.406-1.778.774-2.64 1.21-3.015 1.26-6.165 2.145-9.466 2.344zm8.594 6.651c2.033.415 4.11.61 6.185.61q.26 0 .52-.003h-.012c5.038-.104 10.08-1.165 14.825-2.727 1.413-.488 2.804-1.045 4.114-1.766.224-.128.438-.248.639-.372 1.954 4.545 3.64 9.2 4.902 13.986l.064.256a41 41 0 0 1-3.275 1.065c-9.393 2.425-19.546 2.283-28.874-.409.537-3.528.888-7.082.91-10.642zm25.784-5.339.015-.009-.015.007zm-2.532-5.462a150 150 0 0 1 2.547 5.451c-4.568 2.521-9.714 3.6-14.8 4.386-3.698.492-7.397.454-11.005-.32a53 53 0 0 0-.053-1.744 43 43 0 0 0-.201-2.445c.705.244 1.572.247 2.317.136 5.955-1.003 11.697-3.342 17.546-4.728q.673-.165 1.352-.32.197-.03.393-.064c.434-.085.868-.173 1.303-.25.159-.029.321-.047.482-.072l.123-.028zm54.043-2.38a162 162 0 0 0-5.871-9.314l.375-.095c1.717-.242 6.637-1.912 7.734-.508 1.418 1.447.463 3.526-.115 5.145-.623 1.651-1.348 3.22-2.123 4.771m9.613 18.868a199 199 0 0 0-5.358-11.153l.172.005c1.664.056 3.328.072 4.99.135 1.081.075 2.071.05 3.024.504 2.298 1.783.751 4.946-.43 6.949a49 49 0 0 1-2.4 3.558zm7.567 21.338a148 148 0 0 0-4.301-13.389c1.714.619 3.429 1.238 5.13 1.89.949.411 1.992.682 2.735 1.431 2.445 3.109-1.638 7.476-3.562 10.07zm2.015 27.74c-.285 3.846-.915 7.755-2.141 11.403-.116.337-.244.671-.371 1.005-4.001.363-7.937 1.115-11.446 1.865-3.597 1.036-6.379 3.399-8.691 6.208-2.398 2.736-4.835 5.47-7.805 7.559-9.579 6.583-18.214 8.295-29.628 7.816-.635.004-1.272.016-1.906 0a17 17 0 0 0-.477-.334c-.632-.429-1.962-1.608-6.336-2.897a15 15 0 0 0-.808-.151c-.339-.109-.773-.122-1.061-.194a56 56 0 0 0-3.776-.47c.411-.291.801-.618 1.172-.957.847-.775 1.583-1.671 2.231-2.621 1.296-1.901 2.168-4.089 2.653-6.333.493-2.285.606-4.64.418-6.97-.185-2.277-.648-4.522-1.319-6.705a38 38 0 0 0-2.235-5.581 38 38 0 0 0-1.603-2.955 45 45 0 0 0-3.71-5.321c9.095-14.425 19.658-25.445 39.929-12.969 4.465 2.43 8.595 5.376 12.296 8.824.346.356 1.059.128.975-.418-1.35-1.966-3.543-3.36-5.374-4.892-2.181-1.633-4.53-3.021-6.887-4.381-4.683-2.889-8.931-4.639-12.837-5.386 3.127-2.766 5.548-6.162 7.585-9.783 1.144-1.982 2.177-4.014 2.917-6.175.689-1.979 1.05-4.048 1.38-6.111.041-.336.131-.695.011-1.021-.092-.223-.352-.368-.587-.295-.321.101-.395.413-.465.702-.185.801-.312 1.501-.475 2.274-.776 4.689-3.068 8.917-5.606 12.871-1.619 2.514-3.503 4.765-5.736 6.732-.206.14-.39.35-.442.58-8.012-1.048-14.558 2.264-20.445 8.76-.106-.283-.278-.56-.357-.763-.587-1.165-1.274-2.276-1.971-3.378q-.502-.787-1.01-1.571a.66.66 0 0 0-.316-.264c5.203-4.398 9.577-9.661 14.414-14.445 4.502-4.31 8.74-9.757 8.655-16.284-.163-.57-1-.511-1.104.081-.172 1.032-.271 2.12-.486 3.131-.481 2.373-1.624 4.552-2.983 6.536-1.867 2.576-4.098 4.841-6.347 7.091v.014c-.154-.901-.351-2.023-.513-2.842-1.816-9.343-5.149-18.308-9.353-26.83a164 164 0 0 1 5.255-1.563c4.256-1.239 8.461-2.693 12.422-4.693a66.5 66.5 0 0 0 14.429-9.75 74 74 0 0 0 2.097-1.934 67 67 0 0 0 4.094 1.07q1.79.381 3.614.576.748.99 1.476 1.996a167 167 0 0 1 9.563 15.004q-3.803 1.17-7.601 2.343-3.753 1.158-7.505 2.328c-.671.181-.477 1.181.137 1.181a.7.7 0 0 0 .181-.027c5.133-1.565 10.256-3.172 15.382-4.768a182 182 0 0 1 3.782 7.17 164 164 0 0 1 6.368 14.18l-.026.027q.14.302.275.604c2.445 6.312 4.471 12.784 5.998 19.384 1.799 7.452 2.58 15.067 2.043 22.714zm9.829-16.775a5 5 0 0 1-.827-.031c-2.813-.231-5.493-.621-8.151-1.409-.239-.088-.49-.217-.721-.26a95 95 0 0 0-.693-3.386q.013-.006.027-.016c1.394-1.114 3.132-1.856 4.855-2.183 1.048-.305 1.807.701 2.373 1.379 1.006 1.289 1.775 2.754 2.482 4.224.292.508.432 1.127.655 1.682m29.024-4.292q.056.054.101.111c-.356.375-.987.603-1.397.795a55 55 0 0 1-5.404 1.964c-2.837.833-8.322 2.783-11.327 2.239 1.834-2.224 2.933-4.949 4.361-7.382 2.571-3.448 6.282-2.378 9.352-.292.701.326 3.062 2.041 4.313 2.563zm25.925-13.968c.095.034.188.079.284.124-.433 1.072-3.066 2.152-4.023 2.757q-1.288.707-2.582 1.404c-1.634.865-3.24 1.781-4.899 2.598-.709.308-1.405.655-2.162.78.574-2.922 1.326-5.713 2.629-8.343 1.526-3.246 5.523-1.251 8.016-.471.924.359 1.831.756 2.739 1.153zm22.683-7.837c-2.13 1.199-4.51 1.732-6.87 2.134-.736.05-2.276.436-2.845-.056q-.017-.028-.036-.054c.108-.278.163-.594.292-.849q.448-1.169 1.027-2.276c.942-1.585 1.838-3.432 3.53-4.33 2.221-.929 3.917 1.508 5.564 2.61.196.124.39.331.6.469.459.594.529 1.323-1.262 2.352m-72.666 57.698c-4.691-2.416-10.334-2.899-15.936-2.525 1.892-5.271 2.491-10.944 2.543-16.517.09-4.31-.307-8.606-1.023-12.852.668.241 1.368.395 2.055.553 2.581.537 5.227.997 7.871.927.429-.018 1.007-.228.949-.753a.57.57 0 0 0-.163-.324 9 9 0 0 0-.478-1.596 55 55 0 0 0 4.94.237c1.425 0 2.854-.065 4.289-.212q.575-.047 1.147-.106a17 17 0 0 1-1.41 1.919.6.6 0 0 0-.067.099c-.59.369-.571 1.793 2.486 1.718 4.322-.234 8.441-1.76 12.535-3.052.88-.296 1.75-.627 2.612-.977.937-.411 1.985-.72 2.717-1.466.871-.943.032-1.93-.958-2.262l-.858-.541c4.221-1.75 8.333-3.846 12.402-6.065a66 66 0 0 0-.316 1.515.6.6 0 0 0 .032.321.58.58 0 0 0 .056.598c.329.452.937.499 1.441.398 2.303-.567 4.27-1.89 6.352-2.954 2.177-1.196 4.394-2.325 6.526-3.598.713-.472 1.468-1.048 1.739-1.894.221-.649-.15-1.504-.901-1.52q-.05.001-.095.007a83 83 0 0 0-1.121-.522c4.252-2.309 8.545-4.472 12.957-6.235q-.373.882-.674 1.774a.58.58 0 0 0 .115.571q-.001.136.072.285c.426.821 1.42.944 2.256.905l-.081.002c3.161-.176 9.585-1.413 11.252-4.325.55-.98-.037-2.089-.797-2.784 3.123-.56 6.329-.84 9.644-.765q.35.009.697.063c1.651.259 5.38.619 4.526 2.574-1.391 2.076-4.548 3.456-6.919 4.271-.547.19-1.226.477-2.016.781a72 72 0 0 0-16.049 8.338c-10.315 7.064-18.763 16.384-28.199 24.509-10.632 9.212-22.663 17.325-36.15 21.477zm-5.102 60.334c-.652-.33-1.28-.705-1.885-1.113a19 19 0 0 1-1.725-1.341l-.027-.023a21 21 0 0 1-1.685-1.691l-.025-.029a21 21 0 0 1-1.549-2.014l-.006-.009a22 22 0 0 1-1.421-2.438 26 26 0 0 1-1.204-2.854l-.033-.095a27 27 0 0 1-.894-3.303 31 31 0 0 1-.486-3.659l-.002-.041v-.005a30 30 0 0 1 .016-4.036c.097-1.33.289-2.649.55-3.958a32 32 0 0 1 1.028-3.753l.004-.013q.015-.048.034-.095a30 30 0 0 1 1.488-3.522l.027-.054a30 30 0 0 1 1.818-3.104 28 28 0 0 1 2.049-2.657l.044-.048a26 26 0 0 1 2.239-2.23c.7-.608 1.435-1.174 2.169-1.674l.052-.035a22 22 0 0 1 2.319-1.355l.061-.03c.714-.352 1.45-.661 2.2-.927l.077-.027a19 19 0 0 1 2.265-.619 18 18 0 0 1 2.278-.305c.74-.045 1.479-.045 2.132 0q1.094.077 2.168.293c.688.143 4.069 1.057 7.498 3.638.626.56 1.213 1.156 1.773 1.781l.081.092a23 23 0 0 1 1.588 2.077l.167.262c-.833.114-1.666.219-2.5.301-.885-.178-1.135 1.189-.185 1.207q1.685-.172 3.365-.39.292.505.557 1.027l.052.104c.448.914.838 1.851 1.179 2.811q.263.773.479 1.556c-3.66.383-7.319.769-10.981 1.146-1.122-1.431-2.329-2.142-2.426-2.201a6.8 6.8 0 0 0-3.626-.914 7.3 7.3 0 0 0-2.753.659 8 8 0 0 0-.594.3 10 10 0 0 0-1.052.682c-1.536 1.16-2.775 2.786-3.618 4.621a16 16 0 0 0-.717 1.84 16.5 16.5 0 0 0-.723 5.979c.126 2.039.677 4.084 1.667 5.811.937 1.632 2.285 2.994 3.917 3.707a6.8 6.8 0 0 0 3.214.558h-.018.026a7.5 7.5 0 0 0 3.053-.932 9.5 9.5 0 0 0 1.071-.691 11 11 0 0 0 1.965-1.924c.35-.44.67-.905.918-1.314.314-.515.592-1.054.805-1.526a16 16 0 0 0 1.379-5.642c.054-.926.034-1.854-.072-2.775a14.6 14.6 0 0 0-.598-2.758 11.4 11.4 0 0 0-1.035-2.321q5.25-.54 10.501-1.093.076.323.146.648.355 1.8.483 3.63l.007.12a31 31 0 0 1-.009 3.793v.034a32 32 0 0 1-.56 4.082l-.011.054c0 .009-.004.016-.009.043l.009-.043v-.007a33 33 0 0 1-1.041 3.775l-.056.158-.009.025-.014.038a29 29 0 0 1-1.412 3.323l-.092.179a29 29 0 0 1-1.831 3.1 29 29 0 0 1-2.012 2.598 26 26 0 0 1-2.233 2.233l-.096.085a23 23 0 0 1-2.165 1.66l-.025.016q-1.114.745-2.31 1.347-1.114.55-2.287.962c-.755.256-1.525.472-2.308.632a18 18 0 0 1-2.274.303c-.723.041-1.447.043-2.172-.004a18 18 0 0 1-2.159-.294 17 17 0 0 1-1.96-.537l-.117-.041a17 17 0 0 1-1.924-.822zm17.781-27.115q.218.719.357 1.459a15 15 0 0 1 .201 1.664v.013q.05.873 0 1.747-.063.914-.224 1.811a16 16 0 0 1-.411 1.66 15 15 0 0 1-.592 1.567v.004l-.006.007-.007.015c-.212.466-.451.917-.72 1.366q-.37.602-.798 1.15c-.279.347-.573.675-.824.921q-.425.414-.892.772a9 9 0 0 1-.887.58 8 8 0 0 1-.858.406 7 7 0 0 1-.887.273 7 7 0 0 1-.87.131 6 6 0 0 1-.86-.004 6 6 0 0 1-.777-.12 7 7 0 0 1-.75-.228 7 7 0 0 1-.758-.356 7 7 0 0 1-.718-.468 8 8 0 0 1-.692-.598 9 9 0 0 1-.67-.749q-.322-.418-.603-.872a11 11 0 0 1-.551-1.05 13 13 0 0 1-.488-1.291q-.213-.708-.354-1.438c-.098-.545-.165-1.1-.199-1.615l-.003-.049v-.007a16 16 0 0 1 0-1.716c.039-.594.109-1.187.211-1.756.108-.585.252-1.161.422-1.727l.007-.023q.255-.8.593-1.562.314-.687.696-1.332.382-.627.829-1.201.397-.495.842-.937.42-.408.879-.759l.017-.013q.411-.303.852-.556l.014-.007q.442-.24.903-.424.415-.155.844-.257.433-.094.87-.131a7 7 0 0 1 .812 0q.409.036.811.122.396.094.779.237a7 7 0 0 1 .815.388l.012.007.022.011a.5.5 0 0 0 .335.056q.438.337.842.723.128.131.253.268-2.764.287-5.531.569c-.749.063-.697 1.226.034 1.226q.037.001.077-.004l6.318-.648q.093.134.179.273a11 11 0 0 1 1.088 2.414l.016.053zm-.007-.029-.006-.016.004.011v.003zm-40.583 10.211a30 30 0 0 1-.487-3.657q0-.02-.003-.039v-.006a30 30 0 0 1 .016-4.037c.097-1.332.289-2.65.549-3.958a33 33 0 0 1 1.029-3.754l.003-.012.032-.095c.424-1.209.923-2.39 1.488-3.522l.027-.054a30 30 0 0 1 1.818-3.104 27 27 0 0 1 2.05-2.657l.043-.048a26 26 0 0 1 2.199-2.196q.022-.017.041-.036a24 24 0 0 1 2.168-1.676l.052-.034a22 22 0 0 1 2.38-1.388c.664-.327 2.066-.684 2.264-.732 1.511-.228 3.046-.277 4.573-.279 2.994.027 5.986.18 8.971.428a19.8 19.8 0 0 0-4.105 1.534 23 23 0 0 0-2.463 1.447l-.023.016a24.7 24.7 0 0 0-4.597 4.063 27.5 27.5 0 0 0-2.198 2.831 29 29 0 0 0-1.937 3.301 30 30 0 0 0-1.565 3.694l-.009.025q-.01.026-.016.047a31.4 31.4 0 0 0-1.662 8.022 31 31 0 0 0 .161 6.156 27.4 27.4 0 0 0 1.267 5.452c.654 1.899 1.521 3.73 2.623 5.412l.149.226.025.038c.007.009.012.02.014.021a21.3 21.3 0 0 0 3.471 3.975q.012.008.022.018l.032.028a18.5 18.5 0 0 0 3.787 2.573c-4.636-.713-9.245-1.795-13.339-4.134-.165-.09-.343-.203-.529-.257a18 18 0 0 1-1.481-1.169l-.027-.023a21 21 0 0 1-1.685-1.691l-.026-.029a21 21 0 0 1-1.548-2.014l-.006-.009a22 22 0 0 1-1.421-2.438 26 26 0 0 1-1.205-2.854l-.034-.095a28 28 0 0 1-.883-3.247l-.011-.058zm-2.165-16.707c.779-2.537 1.833-4.971 3.057-7.294a28.2 28.2 0 0 1 5.828-7.834c2.344-2.237 5.095-4.166 8.267-4.836 2.579-.499 5.354-.878 7.918-.152 1.217.38 2.249 1.075 3.24 1.818.928.779 1.608 1.783 2.1 2.878-3.776-.28-7.578-.528-11.329-.2-.248.034-.738.069-1.211.156h-.006l-.16.033c-.879.178-2.042.414-2.787.788-.847.425-1.658.908-2.428 1.423l-.034.024-.024.016a24.6 24.6 0 0 0-4.596 4.062 28 28 0 0 0-2.199 2.831 30 30 0 0 0-3.502 6.996l-.009.025-.016.047a31.5 31.5 0 0 0-1.662 8.022 30.7 30.7 0 0 0 .162 6.155 27.3 27.3 0 0 0 1.288 5.513c-.565.086-1.129.187-1.694.277q-.76.124-1.52.251c-.313-1.856-.591-3.718-.756-5.592-.556-5.251.571-10.415 2.071-15.409zm-2.496 4.593q-.325 1.353-.544 2.722l-.469.046c-5.587.616-11.155 1.399-16.742 2.034-5.092.609-10.218 1.034-15.346.774a47 47 0 0 1-2.378-.162 28 28 0 0 0-.82-3.841 25.5 25.5 0 0 0-2.438-5.714c-.228-.391-.47-.772-.68-1.082a20.4 20.4 0 0 0-3.25-3.779c2.279.012 4.56.066 6.84-.004 10.013-.215 20.043-4.202 27.419-10.989 6.859-6.851 7.573-10.628 18.306-11.728 8.229-1.233 18.851-2.228 25.419 3.89 2.042 2.289 2.588 5.452 3.311 8.36-1.482-.194-2.945-.318-4.453-.442-.05-.21-.129-.418-.183-.587-.582-1.574-1.707-2.944-3.101-3.868-1.334-.957-2.847-1.675-4.488-1.871-2.259-.282-4.698-.014-6.895.435-5.616 1.149-10.635 6.137-13.636 10.814-2.85 4.62-4.76 9.704-5.872 14.992m-37.032 20.256.067-.181.023-.066.02-.058.003-.007a31 31 0 0 0 1.426-5.899q.212-1.52.281-3.053c.045-1.02.033-2.039-.019-3.059-.004-.083-.011-.167-.015-.235a27 27 0 0 0-.086-1.02q2.766.229 5.525.228a75 75 0 0 0 4.729-.152c8.156-.595 16.236-1.853 24.356-2.797a31.3 31.3 0 0 0-.097 7.035c.135 1.563.359 3.116.601 4.665q.077.477.158.954c-10.439 1.739-20.897 3.561-31.499 3.809a61 61 0 0 1-4.32-.095q-.578-.032-1.156-.072zm-28.493 14.22a18 18 0 0 1-1.884-1.113 19 19 0 0 1-1.725-1.341l-.027-.024a21 21 0 0 1-1.685-1.691l-.026-.028a21 21 0 0 1-1.549-2.015l-.005-.008a22 22 0 0 1-1.421-2.438 26 26 0 0 1-1.205-2.854l-.032-.096a27 27 0 0 1-.883-3.245l-.011-.058c-.237-1.22-.4-2.452-.486-3.658l-.002-.041v-.006a30 30 0 0 1 .007-3.915l.009-.12c.097-1.33.289-2.65.549-3.958a32 32 0 0 1 1.029-3.754l.003-.013.034-.095a31 31 0 0 1 1.488-3.522l.027-.054a30 30 0 0 1 1.818-3.103 27 27 0 0 1 2.093-2.706 26 26 0 0 1 2.199-2.193l.041-.036c.7-.609 1.434-1.174 2.168-1.675l.052-.034a22 22 0 0 1 2.319-1.355l.061-.031a20 20 0 0 1 2.201-.926l.077-.027c.741-.255 1.499-.46 2.265-.619a18 18 0 0 1 2.278-.306 17 17 0 0 1 2.132 0q1.094.077 2.168.293 1.034.216 2.027.556.423.148.841.32c.173.072 2.186.93 2.702 1.273l.021.016.011.007q.99.678 1.893 1.467c.627.56 1.214 1.156 1.774 1.78l.081.092a23 23 0 0 1 1.588 2.077q.772 1.164 1.405 2.407l.052.104c.449.914.839 1.851 1.18 2.811q.571 1.677.929 3.413a29 29 0 0 1 .489 3.75 31 31 0 0 1-.009 3.793v.034a32 32 0 0 1-.56 4.082l-.011.054c0 .009-.004.016-.009.043l.009-.043v-.007a33 33 0 0 1-1.041 3.775l-.056.158-.009.025-.014.038a29 29 0 0 1-1.413 3.323l-.091.179a29 29 0 0 1-1.831 3.1 29 29 0 0 1-2.012 2.598 26 26 0 0 1-2.233 2.233l-.097.084a23 23 0 0 1-2.164 1.661l-.025.016q-1.115.744-2.31 1.346-1.113.55-2.287.962c-.756.257-1.526.473-2.308.632a18 18 0 0 1-2.274.304c-.724.041-1.447.043-2.172-.004a18 18 0 0 1-2.159-.294 17 17 0 0 1-1.96-.537l-.117-.041a17 17 0 0 1-1.924-.822zM95.524 231.21a30 30 0 0 1-.486-3.656q.001-.02-.004-.04v-.005a30 30 0 0 1 .017-4.038c.096-1.331.289-2.649.549-3.958a33 33 0 0 1 1.028-3.753l.004-.013.032-.095a31 31 0 0 1 1.488-3.522l.027-.054a30 30 0 0 1 1.818-3.104 27 27 0 0 1 2.05-2.656l.043-.049a26 26 0 0 1 2.199-2.195l.041-.036a24 24 0 0 1 2.168-1.677l.052-.034a22 22 0 0 1 2.38-1.388 20 20 0 0 1 1.477-.653c.156.029.329-.007.485-.034 1.608-.271 3.247-.321 4.875-.325 2.993.027 5.985.179 8.97.427q-.83.21-1.629.487c-.853.296-1.684.649-2.476 1.048-.847.425-1.658.907-2.428 1.424l-.034.023c-.011.007-.022.014-.023.016a24.6 24.6 0 0 0-4.597 4.062 28 28 0 0 0-2.199 2.831 29 29 0 0 0-1.936 3.301 30 30 0 0 0-1.565 3.695l-.009.025-.017.047a31.4 31.4 0 0 0-1.662 8.022 31 31 0 0 0 .162 6.155 27.3 27.3 0 0 0 1.267 5.452c.653 1.899 1.52 3.731 2.622 5.413l.149.226.026.037c.007.009.012.02.014.022a21.2 21.2 0 0 0 3.471 3.974l.02.018.032.029a18.4 18.4 0 0 0 3.787 2.572c-4.636-.712-9.245-1.795-13.339-4.134-.165-.089-.343-.203-.529-.256a19 19 0 0 1-1.481-1.169l-.027-.023a21 21 0 0 1-1.686-1.691l-.025-.029a21 21 0 0 1-1.549-2.014l-.005-.009a22 22 0 0 1-1.421-2.438 26 26 0 0 1-1.239-2.949 28 28 0 0 1-.883-3.248l-.01-.057zM37.8 232.815a68 68 0 0 1-5.503-.903c-1.784-.391-3.615-.734-5.293-1.479-5.92-3.057-5.54-8.595-4.425-14.295 1.273-6.293 3.91-11.02 8.664-15.303 2.987-2.606 6.419-4.63 9.563-7.033 2.5-1.84 4.419-4.244 6.349-6.626a25 25 0 0 0 .267 2.856.6.6 0 0 0-.413.224c-1.73 2.022-3.241 4.158-4.835 6.278-2.877 3.935-5.518 8.08-8.016 12.259a71 71 0 0 0-1.588 2.78c-.481.914-1.006 1.86-1.076 2.91-.016 1.196.824 2.212 1.682 2.957 3.357 2.693 8.648 2.773 12.789 2.953 4.57.086 8.97.048 13.502.002 8.283-.124 16.563-.404 24.848-.481l.056.005c.588.039 1.394.014 1.986 0 4.129-.294 6.203-4.373 8.477-7.288 2.07-2.79 4.123-5.213 6.385-7.265l-.024.025a28 28 0 0 0-2.198 2.831 30 30 0 0 0-3.502 6.996q-.004.013-.01.025c-.004.018-.012.034-.015.046a31.4 31.4 0 0 0-1.662 8.023 31 31 0 0 0 .161 6.155c.227 1.785.63 3.549 1.197 5.24-1.58.214-3.77.312-5.235.278-9.026-.256-18.042-.804-27.068-1.066-8.355-.273-16.751-.05-25.061-1.104zm-13.185 7.728c-.652-.33-1.28-.705-1.885-1.113a19 19 0 0 1-1.725-1.339l-.025-.023a21 21 0 0 1-1.685-1.691l-.025-.029a21 21 0 0 1-1.55-2.014l-.005-.009a22 22 0 0 1-1.421-2.438 26 26 0 0 1-1.237-2.949 27 27 0 0 1-.895-3.305 31 31 0 0 1-.49-3.7v-.005a30 30 0 0 1 .016-4.036 32 32 0 0 1 .55-3.958 32 32 0 0 1 1.027-3.754l.004-.012.032-.095c.424-1.208.923-2.39 1.488-3.522l.03-.054a30 30 0 0 1 1.817-3.104 27 27 0 0 1 2.05-2.657l.043-.05a26 26 0 0 1 2.199-2.194q.019-.018.041-.035a24 24 0 0 1 2.168-1.675q.025-.02.05-.034a22 22 0 0 1 2.38-1.386q1.074-.528 2.2-.927l.078-.026c.741-.254 1.499-.46 2.265-.618a18 18 0 0 1 2.278-.305 17 17 0 0 1 2.132 0q1.094.078 2.168.292l.032.008c-1.317.951-2.667 1.858-3.99 2.8-4.424 2.994-8.462 6.809-10.826 11.663-1.725 3.463-2.656 7.292-3.107 11.112-.553 4.644.318 8.735 4.408 11.49 1.533 1.058 3.364 1.505 5.152 1.926 5.404 1.275 10.923 1.785 16.46 2.022l-.178.21a27 27 0 0 1-2.234 2.235q-.05.041-.095.084c-.695.598-1.42 1.16-2.165 1.662l-.025.016q-1.114.745-2.31 1.347-1.114.55-2.287.962c-.755.257-1.527.472-2.308.632a18 18 0 0 1-2.285.305q-1.08.063-2.16-.004a17 17 0 0 1-2.16-.294 17 17 0 0 1-1.96-.537c-.045-.016-.088-.03-.116-.041a17 17 0 0 1-1.925-.822zM1.322 215.989c.004-.052.007-.104.01-.12a32 32 0 0 1 .548-3.958 33 33 0 0 1 1.029-3.754l.003-.012.033-.095a30 30 0 0 1 1.488-3.522l.027-.054a30 30 0 0 1 1.818-3.104 27 27 0 0 1 2.05-2.657l.043-.048a26 26 0 0 1 2.198-2.196q.023-.017.041-.036a24 24 0 0 1 2.169-1.676l.052-.034a22 22 0 0 1 2.38-1.388c.482-.239.976-.454 1.477-.653.156.028.328-.008.485-.034 1.608-.272 3.246-.322 4.874-.325 2.994.027 5.986.179 8.97.427a19.8 19.8 0 0 0-4.104 1.535 23 23 0 0 0-2.428 1.423q-.02.011-.034.024l-.024.016a24.6 24.6 0 0 0-4.596 4.062 28 28 0 0 0-2.2 2.831 30 30 0 0 0-3.502 6.994l-.008.025-.016.047a31.4 31.4 0 0 0-1.662 8.022 31 31 0 0 0 .162 6.155c.235 1.858.66 3.697 1.267 5.452.653 1.899 1.52 3.73 2.622 5.412l.174.264.015.022a21.2 21.2 0 0 0 3.473 3.974l.02.018c.012.013.026.024.032.029a18.4 18.4 0 0 0 3.787 2.572c-4.636-.712-9.246-1.795-13.34-4.134a15 15 0 0 1-1.234-.781 17 17 0 0 1-.776-.642l-.027-.024a21 21 0 0 1-1.685-1.691l-.025-.028a21 21 0 0 1-1.55-2.015l-.005-.009a22 22 0 0 1-1.421-2.437 26 26 0 0 1-1.239-2.95 28 28 0 0 1-.883-3.247l-.01-.057a30 30 0 0 1-.487-3.659q0-.02-.003-.039v-.006a30 30 0 0 1 .007-3.917z"/><path fill="#000" d="M231.88 70.124c-.441-.122-.886-.223-1.331-.327-3.359-.876-6.846-.933-10.271-1.373a.54.54 0 0 1-.432-.61c.133-.638.919-.433 1.396-.435q1.205.071 2.409.162c2.233.163 4.462.423 6.645.93 1.048.233 2.105.468 3.114.841a.613.613 0 0 1 .405.76c-.341.856-1.319.149-1.935.054zm4.114 5.202a.634.634 0 0 1-.861.205 27 27 0 0 0-5.539-2.492c-1.723-.587-3.525-.94-5.227-1.585-.212-.099-.434-.223-.492-.461-.072-.273.149-.532.426-.548.998.068 1.969.427 2.945.643 1.998.506 3.979 1.107 5.857 1.965.922.417 1.818.898 2.688 1.411a.633.633 0 0 1 .207.864zm10.579-24.512c-2.393 1.094-4.936 1.852-7.492 2.468a30.4 30.4 0 0 1-7.294.863c-.829-.007-.851-1.208-.032-1.253 1.725-.01 3.449-.118 5.149-.429 2.822-.502 5.571-1.33 8.274-2.27.496-.124 1.007-.462 1.524-.349.255.099.377.41.244.652-.082.152-.226.237-.375.317zm-16.746 5.966c-1.028-.199-2.041-.484-3.044-.786a.66.66 0 0 1-.384-.275c-.307-.443.154-1.098.675-.944 4.849 1.557 10.036 1.551 15.064 1.119.379-.036.766-.078 1.152-.115.384-.011.923-.201 1.187.174.145.257.007.533-.25.64-1.664.53-3.43.579-5.223.713-3.064.15-6.158.038-9.179-.524zM121.69 158.176c-.049-.319.195-.551.353-.8l-.02.03c.381-.564.749-1.14 1.133-1.705.251-.322.438-.778.808-.988a.503.503 0 0 1 .653.266c.118.267-.027.56-.149.801-.203.405-.485.854-.761 1.303q-.433.706-.901 1.391c-.307.442-1.063.232-1.115-.296zm-1.468-2.763c-.654.494-1.408-.486-.767-.992.98-.709 1.919-1.508 2.924-2.169.388-.116.786.239.727.636-.207.779-2.202 1.901-2.884 2.524zm-.191-3.489c-.939.124-1.883.192-2.814.368-.531.102-.926-.591-.582-1.004a.67.67 0 0 1 .411-.239 17 17 0 0 1 1.108-.167c.931-.095 1.866-.19 2.801-.219.401-.032.801.273.638.702-.275.496-1.068.446-1.564.557zm-28.464-7.362c.45-.422 1.24-.043 1 .592-.408.546-.902 1.038-1.295 1.604-.511.631-1.457-.105-.982-.758.386-.508.77-1.041 1.275-1.438zm-1.957-2.014c.21-.214.625-.304.769.029.13.414-.23.784-.435 1.113-.5.707-1.01 1.409-1.511 2.116-.472.592-1.393-.034-1.016-.686.653-.915 1.366-1.807 2.193-2.572m-2.88.064c.24-.202.502-.468.841-.456.237 0 .437.236.397.467-.018.278-.264.521-.427.729l-.556.695c-.332.443-1.086.19-1.072-.365.038-.47.524-.746.815-1.07z"/></svg>
