<svg xmlns="http://www.w3.org/2000/svg" width="102" height="118" fill="none"><path fill="#FED980" d="M98.394 110.234c-7.06-21.88-21.52-37.62-23.37-40.3-10.66-15.46-12.42-21.46-14.04-25.13-1.64-3.7-4.94-10.17-9.3-14.77-1.87-1.98-3.94-3.61-6.15-4.52-1.28-.54-2.6-.84-3.97-.83-1.2 0-2.33.05-3.44.15-1.62.15-3.19.42-4.91.91-2.64.74-5.6 1.99-9.55 4.05-.19.1-.38.22-.58.33-.05-.54-.1-1.07-.34-1.56-.28-.43-.77-.18-1.12 0-.65.28-1.3.53-1.96.79-.98.39-1.92.73-2.9 1.15-.26.13-.78.31-1.17.55-.83-.04-1.48.9-1.5 1.68-.04.94.91 1.34 1.52 1.86.18.16.3.28.35.4.05.14.02.26-.09.43-.02.04-.06.1-.1.15-.01.02-.03.03-.04.05l-.06.09c-.28.39-.56.76-.86 1.12-2.61 3.26-5.39 6.39-7.81 9.8-2.92 4.87-7 11.37-6.71 17.2.22 4.63 5.03 8.33 9.65 8.43 6.01.35 11.11-1.86 15.99-5.19 1.21-.82 3.42-2.51 3.42-2.51s.52 1.52.6 3.18c.07 1.51-.3 3.17-.3 3.18l-.93.87c-1.13 1.05-2.26 2.1-3.37 3.18-1.53 1.48-9.31 8.74-11.39 10.77-.69.67-7.5 7.47-8.11 10.2-.36 2.67 1.23 4.62 4.06 5.12 2.14.35 7.76-.25 7.76-.25s-.01.03-.04.08h-.01c-.11.22-.48.89-.77 1.48 0 .02-.01.03-.02.04-.12.24-.24.46-.31.64-.04.08-.12.32-.23.67 0 .01-.01.03-.01.04-.55 1.76-1.85 6.27-2.83 10.15-.01.03-.01.05-.02.08a84 84 0 0 0-.83 3.58h87.52c-.1-1.1-.49-3.5-1.73-7.34"/><path fill="#EAB339" d="m46.964 23.864 4.76-.71-.5-2.27a.495.495 0 0 0-.81-.27l-3.45 3.24zm-12-22.04c-.19.96-.37 2.25-.3 3.22.25 3.41 1.11 6.94.17 10.31-.97 2.97-3.67 4.91-5.09 7.62-.43.91-.77 1.87-.84 2.88.06 1.21.46 1.25-.55 1.64-.93.39-3.44 1.48-4.29 2.02-.18.16-.76.17-.86-.09-.19-.62-.5-1.81-.62-2.41-.36-1.89-.5-4.02.15-5.87 1-2.35 4.16-3.31 5.78-5.21 2.22-2.28.88-5.86 1.42-8.67.41-1.91 1.75-4.36 3.09-5.82.58-.59 2.86-2.02 1.95.39zm36.03 9.2c.81.23.81.94.19 1.42-1.2 1.12-2.09 2.52-2.87 3.96-2.56 4.65-4.21 9.95-9.82 11.67-1.13.4-2.29.69-3.47.94-1.19.19-2.33.56-3.21 1.43-1.18 1.02-2.21 2.47-3.25 3.87-1.17 1.01-2.55 1.77-4.12 1.78-1.79-.08-4.2-1.31-4.06-3.23.29-3.72 2.96-6.25 4.85-7.76s4.93-1.48 8.99-2.14c2-.32 3.61-2.18 4.46-3.38 4.71-6.68 7-7.77 9.7-8.49.85-.22 1.77-.31 2.62-.07zm-35.81 29.36c.69.66 2.2 1.79 1.75 2.84-.12.27-.43.39-.71.32-.54-.19-.89-.72-1.33-1.07-.32-.28-.67-.53-1.02-.77-.87-.62-1.79-1.16-2.62-1.82-.51-.37-1.02-1.05-.5-1.64.24-.23.55-.65.93-.49.5.27.96.59 1.41.92.72.53 1.42 1.12 2.09 1.71m-17.6-4.95c.37.28.43.8.21 1.19-.19.39-.65.45-1.04.52-.5.07-1.02.21-1.53.11-.78-.35.19-1.07.51-1.4.21-.19.43-.36.65-.54.08-.12.26-.15.38-.09.24-.25.6.05.82.21m21.01-11.03c.31 1.36.71 2.81.33 4.2-.46 1.5-1.63 2.65-3.14 2.5-.93-.01-4.34-1.35-3.77-2.72.75-2.31 1.42-4.65 2.22-6.95.45-1.25.87-2.5 1.18-3.79.26-.5.91-.14.73.37.12.03.23.12.29.24.26.56.52 1.12.76 1.69.57 1.45 1.02 2.95 1.41 4.46zm25.59 10.33c0 .16-.08.3-.2.38.24 1.09-.32 2.63-.81 3.61-.48 1.05-.99 2.09-1.52 3.11-.31.48-.69 1.75-1.44 1.41-.21-.11-.27-.36-.33-.57-.1-.33-.22-.69-.32-1-.35-.99-.82-2.04-1.27-2.96-.27-.53-.55-1.05-.87-1.53-.27-.39-.55-.77-.85-1.14-.26-.27-.09-.74.3-.71.19-.19.5-.22.74-.32q1.035-.36 2.1-.69c.79-.23 1.59-.49 2.42-.5.16 0 .3.01.43.03.29-.05.61.07.85.21.42-.24.76.3.77.66zm8.61 15.54c.1.57-.21 1.15-.36 1.68-.74 2.05-1.43 4.14-2.51 6.04-.3.48-.66 1.6-1.32 1.53-.3-.04-.42-.34-.53-.58q-.375-.735-.78-1.47c-.6-1.13-1.23-2.24-1.8-3.38-.69-1.36-1.31-2.76-1.97-4.14-.05-.12-.16-.22-.17-.35-.07-.4.49-.63.73-.3 1.65-.18 3.35.05 5.02.14.75.05 1.5.08 2.25.16.52.07 1.24.09 1.44.68zm8.64 19.87c-.61 1.28-1.21 2.56-1.81 3.85-.12.25-.71 1.26-1.14.7a247 247 0 0 1-6.56-9.18c-.15-.22-.28-.75.56-.75 1.32 0 5.77-.13 6.71-.07.78.05 5.04-.38 2.24 5.46zm10.16 11.01c-.61 2.06-2.14 5.48-2.42 6.16s-.59 1.51-.99.85c-.68-1.12-5.55-8.03-6-8.66-.24-.33-.25-.74.59-.73 1 .02 6.42.47 6.92.49 2.08.09 2.21.85 1.91 1.88zm7.67 13.35c1.11.21 1.86.71 1.27 2.49s-2.87 5.27-3.2 5.76-1.15 2.03-1.65.26c-.21-.56-3.64-8.12-4.21-9.06-.2-.4.28-.49 1.15-.42s5.53.75 6.64.96zm-82.45-29c1.67-1.03 2.57-2.61 2-3.54s-2.39-.85-4.06.18-2.57 2.61-2 3.54 2.39.85 4.06-.18"/><path fill="#FFF7DB" d="M50.274 90.684c-7.65-5.42-8.84-6.91-11.36-6.94-1.42-.02-3.6 1.21-4.07 3.37s1.01 2.14 1.01 2.14l4.8.05s2.62 3.11.23 5.22c-1.31 1.15-3.24-.21-5.45 2.89-1.08-2.66-3.39-2.11-4.66-3.58-1.72-1.98-.86-3.58-.86-3.58s.84-.24 1.67-.6 1.27-.79 1.27-.79.8.76 1.26.77.5-.42.53-1.91-1.63-3.78-3.4-3.87-3.65 1.82-3.65 1.82-4.16 3.25-4.3 3.44c1.25-2.5 3.55-7.39 4.96-11.56 1.24-3.65 1.68-6.81 1.68-6.81s.14-1.83-.01-3.46-.47-2.92-.47-2.92l10.59-8.88s.98 2.63 2.82 6.54c1.99 4.23 5.32 9.68 8 15.44 2.71 5.81 6.56 16.54 6.56 16.54s-3.23-.57-7.16-3.35zm10.38 18.81c-.08-.77-.15-1.52-.23-2.27.15-.07-.46-2.56-.74-3.83 0-.06-6.66-3.13-9.06-4.19-.7-.31-1.58-.35-2.4-.47-1.87-.28-4.28-.96-6.16-1.16-1.05-.1-5.51 1.09-5.98 1.23-.17.05-2.02-.23-2.4-.36-4.27-1.44-5.32-1.44-6.7-1.15-1.39.29-3.68 1.64-5.37 2.27-.73.27-3.32 1.12-3.98 1.33h-.01c-.09.03-.14.05-.14.05s-.26.58-.63 1.43c0 .02-.01.03-.02.04-.16.39-.35.84-.54 1.31 0 .01-.01.03-.01.04-.51 1.24-1.05 2.66-1.33 3.74-.52 2.06-1.04 4.24-1.5 6.41-.01.03-.01.05-.02.08-.25 1.21-.49 2.41-.71 3.58h47.87c.11-1.1.16-2.21.19-3.31.04-1.59.01-3.19-.13-4.77"/><path fill="#050504" d="M54.234 43.004c.29-1.54.02-3.2-.27-4.69-.19-.93-.44-1.79-.75-2.63-.21-.49.56-.83.77-.33 1.05 2.9 2.81 10.33-1.81 10.77-2.7-.23-5.41-6.29-6.29-8.62-.01-.3.35-.51.6-.35.33.31.4.84.63 1.23.7 1.57 1.49 3.1 2.45 4.53 1.51 2.45 3.74 3.75 4.68.1zm-35.09 18.78c.69 1.13-.24 2.91-2.13 4.07-.96.59-1.95.88-2.78.88-.81 0-1.47-.28-1.81-.83-.35-.57-.3-1.33.15-2.12.41-.72 1.11-1.41 1.97-1.94s1.8-.84 2.63-.88c.91-.05 1.61.25 1.96.83zm-.66.39c-.18-.3-.6-.46-1.15-.46h-.13c-.7.03-1.5.3-2.26.77-.76.46-1.36 1.06-1.71 1.67-.3.53-.36 1.02-.17 1.34.39.64 1.94.67 3.53-.3 1.59-.98 2.27-2.37 1.87-3.01zm14.29-16.86q-.81-.66-1.68-1.23c-1.16-.78-2.42-1.4-3.73-1.87-.28-.12-.64.09-.55.42.13.34.55.41.84.57 1.8.73 3.44 1.78 4.93 3.03.07.06.15.08.24.08.24 0 .47-.21.43-.47s-.3-.37-.46-.53zm64.4 58.46c-.15.17-.28.45-.45.64.1.26 1.9 4.59 2.55 7.94.34 1.74.79 3.47 1.12 5.22h-.84c-.26-1.41-.57-2.82-.89-4.22-.25-1.05-.5-2.11-.78-3.17 0-.02 0-.05-.01-.07-.04-.2-.1-.38-.17-.57-.02-.08-.04-.15-.06-.22h-.01c-.08-.22-.16-.44-.22-.67-.09-.25-.17-.51-.25-.76-.08-.27-.17-.55-.26-.82-.04-.13-.09-.26-.15-.38 0-.04-.03-.07-.04-.1 0-.01-.01-.01-.01-.02-.05-.15-.1-.29-.16-.44a.6.6 0 0 1-.05-.14.28.28 0 0 0-.12-.19c-3.53-9.76-9.03-18.69-15.22-26.98-2.83-3.75-5.74-7.46-8.38-11.35-2.68-3.92-5.19-7.96-7.32-12.21-2.49-4.87-4.55-9.94-6.98-14.84a35 35 0 0 0-2.37-4.05c-1.32-1.91-2.72-3.77-4.35-5.41-.8.53-1.48 1.23-1.94 2.12-.27.45-.56 1-.86 1.39-1.3 1.52-3.53 2.26-5.51 1.95-.17-.03-.33-.07-.5-.11-.87-.23-1.61-.82-2.12-1.54-.38-.52-.81-1.06-.9-1.72-.09-2.29 2-5.6 3.61-7.17.21-.2.44-.38.67-.56-1.7-.25-3.43-.26-5.14-.06.34 1.6.47 3.25-.11 4.77-.43.87-1.68 1.54-2.63 1.54h-.03c-1.45 0-3.81-.85-4.57-2.14-.27-.41-.27-.89-.11-1.34.14-.51.31-1.02.48-1.53-1.92.65-3.78 1.44-5.6 2.31-1.04.48-2.09.95-3.1 1.51-1.51.83-2.79 1.94-4.11 3.02-.53.43-1.06.87-1.58 1.31-.19.2-.38.39-.57.59.37.03.72.15.96.44.32.43.32 1.14-.1 1.5-.62.48-1.48.41-2.23.54-.38.04-.77.07-1.15.13-.67.71-1.34 1.41-1.99 2.13.8-.04 1.61 0 2.41.13.22.04.39.24.35.47-.02.2-.2.36-.4.36h-.06c-1.04-.18-2.03-.2-3.05-.1-1.28 1.45-2.52 2.93-3.63 4.54-1.97 2.97-3.62 6.15-5.15 9.37-2.24 4.5-3.67 10.18.21 14.24 5.56 6.16 17.02 1.31 22.72-2.58 2.88-1.94 5.54-4.19 8.23-6.38 2.6-2.22 5.38-4.35 7.55-6.99 0-.04.03-.09.04-.13.18-.51.29-1.03.33-1.55.02-.35 0-.69-.03-1.03-.02-.16-.04-.33.07-.47.31-.34.74-.06.74.35.15 2.14.08 3.23-2.04 5.06.18.34.29.87.36 1.11 1.35 4.21 3.87 7.9 5.87 11.81 3.16 5.87 5.91 11.91 8.36 18.1.9 2.31 1.78 4.64 2.56 7 .03.06.05.13.07.19.72.17 1.44.31 2.18.39.74.11 1.48.21 2.23.31.42.05.84.12 1.26.17.6.06 1.19.09 1.78.1-1.18-1.64-2.42-3.25-3.69-4.83-.45-.55-.91-1.11-1.38-1.65-.34-.4-.7-.78-1.05-1.18-.26-.24-.39-.7.05-.82.41-.07.73.54 1.01.78.92 1.01 1.79 2.06 2.63 3.12 1.18 1.49 2.34 3 3.44 4.56.68-.05 1.36-.15 2.02-.35.18-.05.39.07.45.25.16.56-.59.6-.96.7-.52.11-1.04.17-1.56.2a.35.35 0 0 1-.3.01c-.3.02-.61.04-.91.03-.98-.05-1.95-.16-2.92-.32h-.01c-1.53-.24-3.08-.35-4.59-.7-1.88-.51-3.79-.99-5.51-1.93-1.08-.62-2.13-1.31-3.19-1.97-1.35-.88-2.55-1.96-3.9-2.82-1.3-.83-2.61-1.74-4.1-2.17-1.29-.36-2.64.09-3.77.72-.83.5-1.37 1.43-1.82 2.22a1 1 0 0 0-.06.1c-.19.33-.4 1.04-.72 1.19-.09.11-.22.2-.4.25-.39.1-1.18.06-1.1-.52 0-.03 0-.05.03-.08.07-.17.27-.29.46-.24.13.03.28.08.41.03-.13-.8-.94-1.94-1.55-2.47-1.58-1.09-3.76-1.06-5.41-.15-1.21.68-2.15 1.7-3.07 2.7-.27.29-.54.57-.82.85-.11.1-.22.23-.35.31-.75.81-2.73 1.72-3.22 1.99-.66.33-1.34.65-1.97.92-.32.15-.82.42-1.01-.05-.15-.45.36-.58.67-.71 1.75-.83 3.64-1.56 5.09-2.87 2.72-5.41 5.31-10.88 6.63-16.81.07-.34.14-.69.2-1.04-1.47 1.4-2.9 2.83-4.36 4.23-4.92 4.53-10 8.94-14.39 14.01-1.64 2.21-6.16 6-3.73 8.86 2.49 2.74 6.77 2.46 10.53 1.56l.12-.03c1.4-.34 2.73-.76 3.86-1.14 1.21-.41 2.38-.92 3.54-1.44.07-.04.13-.08.19-.1.45-.26.93-.49 1.41-.67a.5.5 0 0 1 .16-.04c.86-.29 1.78-.38 2.68-.36.42.01.83.04 1.24.12.47.06.94.19 1.39.37.92.32 2.03 1.13 2.99 1.05 0-.24.03-.47.09-.7-.59-1.36-1.64-1.81-2.97-2.29-1.91-.85-2.74-2.05-2.67-4.15 0-.08.01-.18.01-.3-.21.08-.43.15-.65.23-.34.14-.68.3-.98.47-.21.14-.53.19-.68-.05-.31-.57.61-.8.97-1.01.81-.35 1.64-.63 2.48-.91.39-.13.79-.25 1.18-.4.26-.1.53-.19.72-.4-1.14-.91-3.16-.54-4.49-.25-.68.15-1.3.48-1.95.67-.16 0-.3-.09-.33-.25-.12-.7 2.4-1.31 2.96-1.39.18-.03.36-.05.54-.08-.03-.15-.03-.31-.01-.47.06-.33.48-.45.67-.15.07.1.08.23.09.36.01.06.01.13.01.2.8-.03 1.6.03 2.34.32.73.26 1.44.97.72 1.66-.02.02-.05.04-.07.05h-.01c-.59.49-1.37.65-2.08.9-.22.07-.43.15-.65.23.01.15-.01.31 0 .45 0 1.56.27 2.44 1.66 3.26.9.49 1.93.68 2.71 1.33.37.29.66.67.9 1.08.44-.66 1.13-1.09 1.86-1.37 1.06-.43 2.26-.42 3.29-.93.75-.48.93-1.48.92-2.3-.01-.4-.09-.81-.29-1.16-.26-.39-.62-.71-.91-1.07-.03-.02-.04-.05-.06-.07-.46-.05-.93-.06-1.39-.06-.61.02-1.31.07-1.89 0-.35-.03-.97-.17-1.14-.52-.11-.07-.18-.21-.15-.33 0-.02.01-.04.02-.06.07-.13.18-.22.28-.32.75-.64 1.6-1.2 2.55-1.48.77-.25 1.57-.45 2.38-.4 1.64.08 2.91 1.25 4.21 2.12.44.25.18.9-.31.71-.98-.65-1.91-1.42-3-1.88-.66-.25-1.38-.24-2.07-.15-.76.16-1.44.34-2.1.72-.34.22-.67.46-.99.71-.04.01-.06.04-.09.06.01.01.03.02.05.02.39.09.77.11 1.16.11.37 0 .76-.03 1.13-.04.29 0 .58 0 .87.01.69.03 1.39.11 2.03.37 1.49.56 2.46 1.92 3.26 3.21.25.42.5.84.73 1.27.21.41-.37.77-.64.39-.96-1.55-1.82-3.41-3.59-4.15.45.54.74 1.21.73 1.91.03 1.2-.33 2.56-1.46 3.13-1.62.77-4.06.43-4.94 2.3 0 .01 0 .03-.02.05-.08.31-.19.66-.1.98v.02s.02.01.04 0c.19.03.37-.06.55-.11.45-.15.89-.31 1.33-.45h.01c1.08-.33 2.19-.61 3.32-.67.2 0 .39 0 .59.01.01.01.03.01.04.01.33.02.67.06 1 .12h.03c1.1.19 2.19.52 3.27.74.72.14 1.45.29 2.19.36.41.03.82.03 1.23.05h.02c.27.02.53.05.79.1.72.17 1.39.51 2.05.85l.36.18c.89.46 1.77.94 2.67 1.39 1.33.65 2.67 1.27 4.07 1.76.19.07.39.14.59.2 4.68 1.61 10.84 3.17 14.56 3.71 4.76.6 4.41-4.38 3.44-7.55-.88-2.91-2.19-5.66-3.54-8.38-1.3-2.7-2.7-5.36-4.21-7.94l-.3-.51c-.05-.06-.08-.13-.12-.19-1.43-2.39-2.85-4.79-4.44-7.07-.16-.53.47-.69.75-.27 1.54 1.9 2.64 4.12 3.97 6.17.3.5.61 1 .89 1.51.06.07.09.15.11.24.8 1.34 1.55 2.71 2.28 4.1 2.22 4.56 6.87 12.5 5.91 17.51-.7 3.02-3.02 3.63-5.8 3.07-1.77-.32-3.54-.66-5.29-1.09-1.93-.48-6.18-1.6-7.97-2.32.32 1.08.5 2.21.71 3.32.59 3.4.69 6.9.34 10.33h-.83c.13-1.29.19-2.6.2-3.9 0-1.4-.1-2.82-.25-4.22a21.3 21.3 0 0 1-3.5 1.85c-.89.37-1.8.7-2.69.98-1.87.59-3.78 1.04-5.7 1.38-1.85.32-3.72.55-5.6.69-1.74.14-3.49.21-5.23.21h-.66a73 73 0 0 1-5.9-.29c-.2-.02-.4-.03-.55-.05a2 2 0 0 0-.23-.02c-2.05-.2-4.08-.5-6.1-.89-1.93-.37-3.84-.83-5.72-1.4-1.35-.4-2.69-.88-4.01-1.41-.65 2.33-1.18 4.69-1.58 7.08h-.87c.95-5.56 2.6-10.97 4.8-16.17-1.63.32-3.3.49-4.98.41-2.7-.02-6.09-1.47-6.56-4.42-.03-2.88 2.23-4.97 3.9-7.06 4.32-5.13 9.31-9.61 14.28-14.09 1.88-1.7 3.6-3.56 5.5-5.24.17-.13.5-.27.54-.61.24-1.73.15-3.48-.35-5.15-5.42 4.09-11.82 7.53-18.65 7.53-.7 0-1.42-.04-2.14-.12-4.13-.54-7.54-4.03-8.24-8.1-.64-4.29 1.31-8.38 3.17-12.12 1.3-2.56 2.66-5.1 4.26-7.49 1.11-1.61 2.36-3.1 3.67-4.55.03-.08.09-.14.16-.18 1.15-1.27 2.33-2.51 3.52-3.74.21-.22.48-.53.81-.86.01-.02.03-.03.04-.05l.22-.22c.08-.1.17-.19.27-.29h-.07s-.09-.02-.14-.04l-.09-.03c-2.14-.77-3.02-3.4-.65-4.55 1.47-.7 3.01-1.26 4.55-1.79.78-.21 1.57-.6 2.36-.76-.57-2.26-.62-4.77.58-6.83.62-1.12 1.47-2.17 2.46-2.96l.02-.02c.57-.46 1.17-.88 1.74-1.34 2.67-2.02 2.12-3.55 2.15-6.51.02-2.95.81-6 2.81-8.23.68-.73 2.2-2.16 3.23-1.99.34.11.53.48.48.83-.19.94-.63 1.89-.7 2.85-.3 2.51.64 4.97.67 7.47.02 2.16-.25 4.38-1.26 6.3-.77 1.43-2.11 2.52-3.01 3.84-.94 1.32-1.7 2.73-1.91 4.33-.04.35-.05.69-.04 1.03.7-.28 1.4-.55 2.11-.8.29-.1.57-.19.86-.28.46-1.35.91-2.68 1.41-4.02.34-.89.67-1.79 1.06-2.66.17-.3.49-1.19.56-1.31.26-.61 1-.63 1.22.03.72 1.92 1.4 3.8 1.94 5.78.09.34.19.69.27 1.04 1.43-.17 2.88-.19 4.31-.07h.01c.29.02.59.05.88.09.22.03.43.07.64.11.14.02.27.04.4.07.12-.08.25-.15.38-.23 1.32-1.26 2.72-2.46 4.14-3.61.64-.52 1.39-.97 2-.14.35.56.52 1.35.58 2.21.31-.01.63-.04.94-.08 4.01-.7 4.45-2.51 6.52-5.48 2.05-2.89 4.69-5.69 8.29-6.44 1.15-.23 2.38-.4 3.52-.04 1.4.53 1.15 1.3.02 1.99-1.67 1.37-2.51 3.45-3.48 5.31-.61 1.24-1.34 2.48-2.03 3.66-1.18 2.04-2.48 4.08-4.46 5.44-2.11 1.59-4.78 2.05-7.28 2.69-.61.14-1.19.37-1.75.65.43.44.85.9 1.26 1.36.98 1.13 1.86 2.33 2.71 3.56.11-.06.23-.11.33-.16.68-.3 1.39-.55 2.1-.81.98-.34 1.96-.67 2.97-.93.35-.09.72-.17 1.08-.15 1.69.21 1.96 1.69 1.68 3.12-.26 1.5-.84 2.91-1.54 4.23-.48.9-1.02 1.76-1.54 2.63-.14.23-.28.46-.4.7.75 1.65 1.5 3.31 2.26 4.96h.29c.31 0 .62 0 .93.01 1.22.01 2.43.05 3.64.07 1.19.03 2.39.09 3.58.26 1.18.13 1.76.53 1.55 1.8-.18.94-.54 1.83-.9 2.72-.55 1.32-1.15 2.64-1.81 3.91-.47.89-.97 1.75-1.44 2.62.03.04.06.09.08.13.79 1.32 1.62 2.61 2.46 3.89h.25c2.27-.1 4.53-.2 6.79-.17.95.04 1.94.04 2.84.35 2.24 1.21.59 4.96-.22 6.67-.49 1.02-1.01 1.99-1.52 2.97-.04.06-.07.13-.11.2-.11.2-.23.5-.41.65.69.91 1.38 1.83 2.08 2.73l.47.65.15-.03h.02c.09 0 .2-.02.29-.02.07-.01.14-.01.2-.02 2.42-.01 4.85.2 7.27.38.74.11 1.85.05 2.13.92.29.99-.68 3.36-1.03 4.39-.48 1.35-1.08 2.65-1.65 3.96-.12.27-.23.55-.34.82.83 1.37 1.64 2.75 2.41 4.15.66 0 1.47.12 1.86.13 2.23.25 4.48.56 6.67 1.08 1.46.3 1.39 1.14 1.05 2.35-.49 1.81-1.35 3.45-2.35 5-.47.73-.99 1.43-1.48 2.13zm-71.55-5.42s-.09.1-.16.13l-.36.15s-.04.02-.05.03h-.02c-.61.27-1.23.53-1.85.78 1.38.27 2.77.49 4.17.64.76.09 1.52.16 2.28.22 1.74.13 3.5.2 5.25.2 1.5 0 3-.04 4.49-.12h.16c1.73-.11 3.45-.27 5.16-.5 1.09-.15 2.17-.33 3.24-.53.14-.03.29-.07.44-.1-2.29-.13-4.46-1.02-6.74-1.24-1.23-.08-2.45.27-3.62.62-.46.15-.92.31-1.37.45-.45.17-1.03.25-1.39-.1-.19.07-.39.1-.56.07-1.71-.24-3.12-1.53-4.9-1.55a8.8 8.8 0 0 0-2.17.1c-.71.12-1.36.43-2 .76zm-8.52 4.57c-.91 2.22-1.69 4.49-2.36 6.78.33.13.66.27 1 .4 1.76.66 3.57 1.22 5.41 1.67.26.07.52.13.79.19 1.98.47 3.98.83 5.99 1.11.83.11 1.66.21 2.43.29.07 0 .13.01.16.02.05 0 .1.01.14.01 1.96.19 3.93.3 5.9.33 1.19.01 2.37 0 3.51-.04 1.89-.07 3.77-.21 5.65-.45.81-.1 1.62-.22 2.42-.36 1.91-.33 3.81-.76 5.66-1.34l.12-.03c1.24-.4 2.45-.86 3.57-1.38.79-.37 1.55-.78 2.28-1.24.18-.11.34-.23.51-.35a33.4 33.4 0 0 0-1.04-4.96c-1.39-.52-2.77-1.09-4.11-1.76-1.13-.55-2.32-1.21-3.42-1.77-.36-.17-.71-.33-1.08-.48-.75.19-1.51.38-2.27.54-.11.02-.21.04-.25.04-1.71.34-3.45.59-5.18.78a72 72 0 0 1-7.82.41h-.97c-1.76-.02-3.51-.1-5.26-.26-1.64-.14-3.27-.34-4.89-.62-.74-.13-1.48-.31-2.21-.47-1.29.48-2.61.89-3.94 1.2-.25.58-.5 1.16-.74 1.74m8.02-15.96-.39-.03c-.13.27-.26.54-.4.82.26-.27.52-.54.79-.79m9.19.48c-.13-.89-.65-1.65-1.3-2.25-.5-.43-1.04-.85-1.68-1.02-.68-.11-1.56.37-2.28.87 1.39-.18 2.86.1 4 .9.51.39.92.95 1.26 1.5m6.71-2.85a4.4 4.4 0 0 0-.89-.37c-1.31-.3-2.92-.19-3.82.94-.34.49-.57 1.05-.72 1.63.77-1.03 1.7-1.65 3.15-2.07.76-.27 1.53-.27 2.28-.13m12.52-.83a47.4 47.4 0 0 1-8.82 2.58c-.01 0-.03.01-.04.01.24.15.48.29.72.45.03.02.07.04.1.07.46.27.91.56 1.35.88.51.38 1.01.78 1.52 1.16.07.05.14.1.2.14.05.04.09.07.14.09.15.12.3.22.45.33.53.35 1.07.69 1.6 1.03h.01c.11.07.21.14.32.21.03.02.06.03.09.05.52.32 1.04.64 1.57.95.68.39 1.42.68 2.16.93l.02.01c.05.02.11.04.16.06l.79.24c.32.09.66.19.99.28.03.01.05.01.08.02.06.02.13.03.2.05-1.1-3.23-2.31-6.4-3.61-9.54m-4.91-10.8c-4.39 2.55-9.7 3.55-14.72 3.43-1.32-.05-2.54-.23-3.8-.51-.25-.09-.58-.09-.84-.21-.59 2.07-1.36 4.1-2.18 6.08-.62 1.48-1.28 2.93-1.97 4.38.32.03.64.05.96.07q.315-.225.66-.42v-.01s.01 0 .01-.01c.22-.11.44-.23.68-.32.61-.6 1.32-1.08 2.05-1.51.88-.54 1.85-.76 2.79-.22.1.05.19.1.28.17.01 0 .01.01.02.01.95.57 1.77 1.43 2.2 2.45.04.07.07.14.09.22.03.06.05.11.07.17.02-.11.05-.21.06-.28.26-.98.75-2.01 1.65-2.51 1.23-.73 3.03-.75 4.33-.22.93.43 1.72 1.08 2.45 1.78h.01l.14.14s.05.03.08.05c.01 0 .02.01.03.01.02 0 .03-.01.04-.01h.01c.55-.09 1.1-.18 1.66-.3 2.68-.55 5.28-1.43 7.82-2.41q-2.145-5.085-4.59-10.02zm-5.76-10.77c-.43.25-.88.47-1.33.66-.68.29-1.38.55-2.08.79-1.32.45-2.67.83-4.03 1.16-.67.16-1.34.31-2.01.43-.78.14-1.57.26-2.36.3-.11.01-.23.01-.34.01s-.22 0-.33-.01c-.1-.01-.2-.03-.3-.05.09.34.15.69.21 1.03.16 1.07.22 2.16.12 3.23-.15 1.74-.49 3.45-.93 5.13.12.02.24.06.36.09 1.3.32 2.72.54 4.03.59 4.65.15 9.38-.79 13.55-2.85.29-.14.56-.31.83-.49-1.65-3.41-3.66-6.65-5.39-10.02m-12.87 2.41s.05.01.07.03c.01.01.02.01.03.02.05.01.09.02.13.03.12 0 .24.02.36.03.39 0 .77-.03 1.14-.07 1.25-.14 2.47-.4 3.63-.68q2.025-.495 3.99-1.17c.36-.12.71-.25 1.06-.38.66-.26 1.31-.53 1.93-.86.05-.03.1-.07.16-.1-.74-1.48-1.42-3-1.97-4.57-.06-.3-.18-.59-.27-.89-2.83 2.65-5.87 5.07-8.89 7.51-.45.37-.91.74-1.37 1.1m1.87-61.09c.38.39.94.59 1.48.46.19-.03.5-.16.8-.24.01-.04.01-.08.01-.11.08-.96.42-1.85.68-2.76-1.24.56-2.23 1.53-2.97 2.65m-1.77 5.2c.06.05.12.1.16.12.68.44 1.47.72 2.28.66.55-.03 1.07-.22 1.56-.46.11-.07.29-.16.49-.23-.03-.19-.06-.38-.09-.56 0-.08-.02-.16-.04-.24-.2-1.11-.37-2.23-.36-3.35-.66.18-1.5.2-1.79.09-.27-.1-.63-.26-.89-.48-.22.4-.42.81-.58 1.22-.41 1.04-.63 2.13-.74 3.23m-.08 3.02c.03.81 0 1.65-.18 2.45.02.02.04.03.06.05 1.05.62 2.31.89 3.5.65.4-.08.69-.19 1.04-.34.03-.02.06-.03.09-.05.08-.41.15-.83.2-1.25.16-1.2.11-2.4-.03-3.59l-.08.04c-.26.14-.53.27-.81.37-.82.3-1.74.36-2.59.11-.4-.12-.79-.29-1.13-.53a.2.2 0 0 1-.05-.03c-.04.7-.05 1.42-.02 2.12m-3.97 6.81c.04.06.07.14.12.19.75 1.07 1.87 1.88 3.08 2.34.31.11.62.18.95.2.07.01.12.03.17.06.1-.15.2-.31.3-.46.91-1.34 2.21-2.38 2.99-3.81.27-.5.47-1.03.63-1.57-.05.02-.1.04-.13.05a5.2 5.2 0 0 1-2.34.21c-.77-.12-1.56-.35-2.21-.81-.12.31-.27.6-.47.87-.87 1.14-2 1.87-3.09 2.73m-9.33 17.36s-.1-.01-.15-.01c-.31.32-.63.64-.93.96-.1.11-.23.24-.36.38a19 19 0 0 0 1.76-.22c.22-.05.5-.09.63-.3.08-.23.07-.55-.15-.69-.25-.14-.53-.13-.8-.12m5.96-6.04c-.16-.34-.25-.74-.3-1.17-.21.05-.43.09-.6.18-.55.18-1.13.37-1.68.56-1.65.64-3.41 1.11-4.9 2.06-1.18 1 .05 2.42 1.18 2.76.05.02.33.06.57.1.39-.38.76-.73 1.04-.97 1.52-1.23 3-2.53 4.69-3.52m6.08-4.79c-1.55.47-3.18.71-4.77.44-.41-.1-.91-.23-1.33-.46.02 1.07.22 2.15.51 3.16.12.38.26.77.44 1.13 1.64-.82 3.31-1.61 5-2.33-.02-.4-.03-.8.02-1.19.01-.26.08-.5.13-.75m.22-.95c.23-.71.54-1.4.92-2.06-1.6-.21-3.26-1.37-4.21-2.63a9 9 0 0 1-.23-.38 9.1 9.1 0 0 0-2.37 3.32c-.23.6-.35 1.22-.41 1.85.2.11.39.21.6.28 1.71.55 3.99.13 5.7-.38m9.14.71v-.05c-.08-.31-.17-.62-.25-.93-.32-1.17-.69-2.34-1.08-3.47-.27-.75-.55-1.48-.8-2.21-.02.01-.55 1.31-.65 1.57-.39 1.03-.77 2.1-1.13 3.13-.31.93-.64 1.85-.96 2.78l-.03.09c-.33.97-.64 1.94-.89 2.94.1.68.88 1.08 1.41 1.38.84.42 1.78.72 2.74.68.62-.09 1.22-.43 1.63-.9.16-.23.24-.57.29-.82.27-1.41.06-2.83-.27-4.19zm26.01-11.2c.02.06.04.12.05.17.47 1.47 1.79 2.58 3.18 3.17.09.02.18.04.27.07.99-1.99 2.02-4.03 3.89-5.28-1.21-.59-2.65-.23-3.88.04-1.3.35-2.46 1.01-3.51 1.83m-4.4 5.08s.02.05.03.08c.66 1.78 2.18 3.33 4.08 3.72.24.04.46.06.69.07.24-.38.47-.77.7-1.16.58-.98 1.16-1.95 1.69-2.97a14 14 0 0 0 .34-.67c-1.66-.55-3.23-1.92-3.78-3.6-.87.78-1.66 1.67-2.36 2.57-.5.62-.95 1.29-1.39 1.96m-5.49 4.7c.58 1.44 1.56 2.75 2.84 3.64.45.31.95.54 1.46.72.04.01.07.03.11.04 1.4-.56 2.71-1.33 3.77-2.42.61-.61 1.13-1.3 1.61-2.02-1.75-.24-3.33-1.33-4.28-2.81-.17-.29-.4-.65-.57-1.01-.34.51-.67 1.01-1.03 1.5-.7.89-1.67 1.52-2.7 1.95-.39.18-.8.31-1.21.41m-6.35-.07c.48-.13.96-.25 1.45-.31.67-.09 1.35-.11 2.03-.13-.06-.75-.25-2.11-.71-1.81-.97.69-1.88 1.46-2.77 2.25m1.85 8.37c-.82-.36-1.55-.9-2.2-1.51-.75-.7-1.46-1.46-2.01-2.29-.21-.32-.69-1.22-.92-1.82-1.63 1.68-2.74 3.16-3.3 4.6-.29.76-.67 1.58-.53 2.4.52 1.21 1.51 2.41 2.9 2.53 1.44.21 2.91-.28 4.08-1.12.59-.43.93-1.16 1.29-1.76.2-.36.44-.7.69-1.03m7-3.27c.25-.06.5-.15.75-.23-1.33-.65-2.43-1.71-3.23-2.95-.22-.38-.66-1.1-.8-1.71-.43.07-2.62.2-2.89.21-1.25.04-2.49.3-3.64.8-.29.12-.58.27-.86.43-.08.07-.15.15-.23.22-.1.1-.21.2-.31.3-.08.07-.16.15-.24.23.01 0 .01.02.02.02.78 1.92 2.26 3.51 3.91 4.74a7 7 0 0 0 1.09.56c.27-.27.56-.53.89-.75.15-.1.29-.19.45-.27.01-.01.02-.01.03-.01 1.53-.87 3.38-1.13 5.06-1.59m4.22 14.33c.48-.79 1-1.62 1.42-2.42.56-1.09 1.06-2.24 1.32-3.43.21-.91.51-2.46-.77-2.65-.71 0-1.39.29-2.06.47-.94.29-1.88.61-2.8.96-.31.11-.62.22-.93.34-.07.04-.15.07-.23.1 1.28 1.94 2.42 3.99 3.37 6.12.15.31.29.62.43.93.09-.14.16-.28.25-.42m7.8 16.85c1.24-2.24 2.42-4.51 3.32-6.91.21-.58.44-1.17.52-1.79.02-.29.02-.55-.34-.58-1.08-.22-2.08-.27-3.16-.33-1.21-.04-2.43-.06-3.65-.09-.56-.01-1.12-.02-1.67-.05 1.53 3.32 3.14 6.6 4.98 9.75m10.42 14.32c.51-.98 1.02-1.94 1.5-2.93.65-1.36 1.26-2.81 1.29-4.33-.01-.47-.2-.97-.61-1.24-.32-.13-.76-.17-1.08-.21-1.3-.13-2.61-.1-3.92-.07-.92.02-1.83.04-2.73.07-.45.01-.9.02-1.35.02 2.1 3.15 4.33 6.21 6.61 9.23.1-.18.19-.36.29-.54m9.39 13.92c.18-.44.36-.87.55-1.3.8-1.83 1.54-3.67 2.02-5.6.04-.28.27-.87-.01-1.06-.43-.16-.91-.18-1.35-.23-1.94-.17-3.88-.26-5.81-.4-.51-.03-1.02-.05-1.53-.08q1.275 1.725 2.49 3.48c.03.05.06.09.1.14.6.88 1.21 1.77 1.8 2.67l.11.17c.48.74.96 1.48 1.42 2.23.04.06.08.13.12.19zm8.85 14.11c.6-.85 1.14-1.73 1.6-2.6.62-1.2 1.15-2.48 1.34-3.81.11-.44-.76-.44-1.05-.56a60 60 0 0 0-6.12-.96c-.43-.04-.86-.06-1.29-.09.27.49.55.97.81 1.46a93 93 0 0 1 3.65 8.07c.03-.05.07-.1.1-.15.32-.47.67-.93.96-1.36m-63.07-59.56c-.52-.44-1.06-.85-1.63-1.23-.68-.45-1.4-.85-2.05-1.34-.6-.38-.88-.77-.36-1.65.8-1.35 2.45-.3 3.34.29 1.22.76 2.23 1.7 3.1 2.81.36.5.77 1.06.79 1.71 0 .58-.52.94-1.04.94-.19 0-.38-.05-.55-.15-.62-.35-1.07-.93-1.61-1.38zm-1.44-1.84c.81.53 1.58 1.12 2.28 1.78.43.34.79.93 1.37.98 1.37-.27-1.49-3.03-1.95-3.4-.86-.66-2.89-1.93-3.28-1.83-.4.1-.76.42-.69.85.18.31.58.53.84.72.48.31.96.6 1.43.91z"/></svg>
