<svg width="340" height="255" viewBox="0 0 340 255" fill="none" xmlns="http://www.w3.org/2000/svg">
    <path d="M174.772 36.3804L181.588 35.5647L180.957 32.5343C180.839 31.9639 180.144 31.7377 179.714 32.1265L174.772 36.3804Z" fill="#EAB339"/>
    <path d="M274.035 168.461C273.974 167.763 273.914 167.062 273.853 166.361C273.672 163.872 273.276 161.285 272.563 158.911C272.273 158.149 272.066 157.165 271.333 156.709C270.858 156.687 270.425 157.108 270.023 157.311C268.662 158.181 267.251 159.236 266.03 160.233C264.558 161.502 263.054 162.917 261.709 164.303C262.853 164.507 263.994 164.714 265.122 164.997C268.226 165.778 271.202 166.982 274.032 168.461H274.035ZM284.719 175.914C284.675 175.114 284.608 174.318 284.487 173.528C284.225 174.009 283.97 174.474 283.719 174.942C284.063 175.258 284.394 175.583 284.719 175.917V175.914ZM288.76 180.484C291.484 185.767 292.564 191.104 292.064 196.62C292.179 197.847 292.182 199.083 291.975 200.301C291.376 203.328 290.283 206.247 289.11 209.095C287.052 214.503 284.952 216.364 280.934 220.251C278.767 222.399 276.355 224.413 273.879 226.172C273.127 226.729 272.394 227.313 271.651 227.88C271.422 228.052 271.142 228.294 270.839 228.211C270.823 228.208 270.807 228.202 270.791 228.198C269.52 228.947 268.2 229.613 266.846 230.209C264.189 231.385 261.506 232.389 258.73 233.208C256.375 233.823 253.973 234.243 251.567 234.587C244.725 235.607 237.792 235.811 230.893 236.254C227.474 236.467 224.042 236.662 220.613 236.499C218.972 236.372 217.283 236.213 215.731 235.642C215.562 235.894 215.387 236.146 215.209 236.388C211.649 241.228 205.761 243.545 200.178 245.183C198.486 245.664 196.944 246.135 195.277 246.505C193.48 246.84 191.676 247.165 189.886 247.531C189.258 247.655 188.63 247.783 188.002 247.91C187.712 247.971 187.41 247.808 187.292 247.537C185.252 247.834 183.204 248.197 181.266 248.742C177.834 249.688 174.508 250.992 171.318 252.572C170.579 252.846 169.463 253.789 168.711 253.359C168.02 252.872 168.616 252.088 168.953 251.575C169.212 251.173 169.476 250.775 169.744 250.38C170.531 249.188 171.455 248.047 171.981 246.709C170.327 247.235 168.791 248.009 167.255 248.799C166.825 248.994 166.42 249.315 165.949 249.392C165.627 249.417 165.302 249.204 165.241 248.879C165.133 248.213 166.117 247.623 166.462 247.168C167.185 246.416 167.966 245.718 168.651 244.928C167.672 244.947 166.691 245.03 165.729 245.208C165.283 245.351 164.636 245.367 164.524 244.791C164.445 244.431 164.706 244.102 165.047 244.01C165.515 243.809 165.977 243.589 166.439 243.373C167.214 243.013 167.985 242.646 168.724 242.219C169.517 241.751 170.279 241.238 171.002 240.702C169.849 240.916 168.692 241.091 167.548 241.241C162.593 241.891 157.562 242.318 152.568 241.913C142.757 240.925 134.533 237.5 128.036 229.894C127.835 229.648 127.631 229.4 127.446 229.138C127.159 229.585 126.86 230.008 126.522 230.378C124.221 232.774 119.999 234.036 116.832 234.861C112.285 235.945 107.597 236.257 103.12 237.58C100.982 238.309 98.9937 239.351 97.0818 240.514C96.4094 240.922 95.7052 241.493 94.8767 241.438C93.8188 241.26 94.1789 240.132 94.7397 239.59C95.6479 238.478 96.6261 237.427 97.684 236.461C95.8486 236.818 94.1502 237.745 92.2956 237.987C91.8782 238.013 91.3747 237.834 91.2792 237.379C91.0593 236.181 93.4364 235.199 94.2362 234.514C93.019 234.549 91.789 234.846 90.5781 234.712C90.1766 234.632 89.8612 234.208 90.0014 233.803C90.3901 232.985 91.464 232.797 92.2319 232.468C97.4705 230.792 103.101 230.356 108.104 227.953C110.94 226.761 112.661 224.448 111.606 221.507C109.302 221.714 107.011 222.026 104.758 222.424C102.368 222.871 99.9688 223.259 97.5629 223.616C97.2029 223.677 96.9065 223.721 96.5656 223.788C96.2565 223.897 95.8996 223.788 95.7626 223.476C92.1937 224.069 88.5929 224.499 84.989 224.786C80.3016 225.098 75.7099 224.99 71.0353 225.206C66.7399 225.289 62.4795 225.726 58.1905 225.42C55.466 225.203 52.6555 224.99 50.2019 223.715C47.7196 222.59 46.5374 219.614 48.5768 217.476C50.3835 215.64 52.6682 214.662 54.8733 213.458C57.6201 212.132 60.3732 210.778 63.2474 209.742C63.3335 209.621 63.4609 209.529 63.6139 209.494C65.7648 208.86 67.9189 208.222 70.0921 207.658C73.3264 206.737 76.6308 206.075 79.8683 205.179C82.8731 204.23 85.6773 202.853 88.475 201.445C88.7905 201.231 89.2748 201.1 89.5616 201.269C90.3391 201.046 91.1166 200.823 91.8941 200.6C95.1699 199.682 98.3691 198.551 101.466 197.149C104.347 195.935 106.989 194.195 109.939 193.163C110.765 192.949 111.682 193.125 112.415 192.589C113.374 191.907 113.821 190.735 114.49 189.798C115.669 187.956 117.252 186.388 119.142 185.279C119.55 185.047 120.48 184.515 121.271 184.317C121.318 183.979 121.484 183.603 121.541 183.313C121.65 182.89 121.749 182.463 121.841 182.036C121.841 182.042 121.841 182.051 121.838 182.058C121.844 182.029 121.85 182.001 121.857 181.975C121.857 181.962 121.863 181.95 121.866 181.927C121.866 181.934 121.863 181.943 121.86 181.95C123.131 174.984 124.46 168.056 126.927 161.416C126.927 161.409 126.933 161.403 126.933 161.397C127.319 160.329 127.714 159.265 128.147 158.213C128.609 157.123 129.049 156.008 129.629 154.973C129.291 155.027 128.953 155.081 128.615 155.132C125.33 155.6 122.112 156.101 118.826 155.568C115.414 155.173 110.803 153.061 111.367 148.963C112.301 144.763 116.707 139.894 119.496 136.625C119.598 136.478 119.751 136.367 119.913 136.312C120.499 135.656 121.095 135.006 121.704 134.369C122.73 133.298 123.807 132.262 124.868 131.233C128.067 128.113 131.522 125.093 134.692 121.986C137.053 119.707 139.37 117.353 141.722 115.074C143.42 113.414 145.157 111.795 146.896 110.183C147.371 109.74 147.843 109.294 148.314 108.848C148.327 108.819 148.343 108.794 148.362 108.768C148.4 108.408 148.436 108.051 148.461 107.691C148.598 105.034 148.761 102.204 147.556 99.7504C147.483 99.5624 147.371 99.3967 147.26 99.231C145.412 100.541 143.484 101.755 141.626 103.017C134.122 108.131 125.961 111.544 116.73 111.005C109.633 110.843 103.563 105.075 103.219 97.9532C102.77 89.0087 109.041 79.0126 113.527 71.5148C117.24 66.2825 121.522 61.4773 125.525 56.4681C126.012 55.8627 126.5 55.2572 126.936 54.6167C127.487 53.9125 127.484 53.6417 126.758 53.0203C125.811 52.23 124.352 51.6182 124.419 50.1652C124.451 48.9766 125.448 47.5204 126.716 47.5873C127.319 47.2145 128.128 46.9404 128.513 46.7397C130.03 46.1056 131.477 45.5702 132.978 44.9776C133.985 44.5824 134.992 44.1873 135.983 43.7635C136.531 43.4958 137.276 43.123 137.703 43.7794C138.079 44.5378 138.159 45.3536 138.236 46.1725C138.532 46.0068 138.835 45.8379 139.128 45.6754C142.368 43.8591 145.625 42.1001 149.165 40.953C153.403 39.637 157.826 38.9455 162.211 38.3241C164.161 38.0979 166.121 37.9258 168.084 37.8844C168.855 37.8716 169.635 37.8716 170.394 38.031C171.563 38.2413 172.443 39.0156 173.376 39.6784C175.941 41.3545 178.395 43.1836 180.498 45.3982C181.55 46.4529 182.515 47.5809 183.417 48.7599C185.434 51.1466 187.881 54.9832 188.566 56.0188C191.813 61.3052 194.841 66.7541 197.466 72.3751C197.9 73.3152 198.327 74.2679 198.75 75.2239C198.878 75.3609 198.97 75.5489 199.053 75.7178C199.764 77.1708 200.369 78.5697 201.042 80.0164C205.649 90.5733 211.602 100.467 218.66 109.558C221.779 113.475 224.944 117.359 227.834 121.454C228.85 122.859 229.867 124.264 230.896 125.66C231.094 125.934 231.03 126.237 230.851 126.441C236.323 134.467 241.373 142.771 245.949 151.343C247.558 154.342 248.951 157.41 250.299 160.52C250.55 161.097 250.796 161.677 251.022 162.263C251.404 162.244 251.819 162.343 252.188 162.343C254.275 162.556 256.136 163.101 258.121 163.592C258.835 163.767 259.555 163.914 260.279 164.048C263.003 160.912 266.25 158.185 269.762 155.973C274.58 152.525 275.061 166.307 275.351 168.917C275.36 169.009 275.367 169.102 275.376 169.191C275.644 169.341 275.909 169.493 276.17 169.646C278.623 171.09 280.809 172.479 282.737 174.085C282.83 173.907 282.925 173.728 283.021 173.55C283.441 172.906 283.808 171.622 284.757 171.734C286.089 172.017 285.968 175.784 286.042 177.415C286.144 177.539 286.242 177.667 286.344 177.794C287.253 177.998 288.438 179.955 288.757 180.481L288.76 180.484Z" fill="#FED980"/>
    <path d="M155.624 1.12487C155.987 1.26508 156.057 1.65702 155.924 1.95017C156.016 2.511 155.828 3.22478 155.745 3.72506C155.452 5.19404 155.411 6.71719 155.513 8.2021C155.895 13.4407 157.224 18.8578 155.767 24.039C154.273 28.6053 150.127 31.5847 147.948 35.7494C147.288 37.1515 146.772 38.6205 146.651 40.1659C146.746 42.0237 146.017 42.2117 144.468 42.8235C143.047 43.4226 141.54 43.9228 140.24 44.7609C139.956 45.0126 139.504 45.1018 139.23 44.7864C139.453 45.3185 139.201 46.0323 138.541 45.8793C138.044 45.7391 138.082 45.1433 137.923 44.7449C137.633 43.7922 137.34 42.7024 137.155 41.7815C136.604 38.885 136.161 35.7845 137.158 32.9358C138.701 29.3254 143.076 27.5187 145.567 24.5999C148.971 21.1043 147.381 15.9166 148.225 11.6053C148.856 8.66414 149.863 5.68795 151.931 3.43509C152.826 2.52375 153.75 1.20453 155.121 1.12168C155.299 1.06114 155.474 1.05477 155.621 1.13124L155.624 1.12487Z" fill="#EAB339"/>
    <path d="M211.327 17.3888C212.564 17.7488 212.577 18.8354 211.617 19.5747C209.769 21.2986 208.399 23.4431 207.21 25.6546C203.275 32.8051 200.745 40.9434 192.119 43.5755C190.382 44.1873 188.595 44.6398 186.794 45.0158C184.962 45.3057 183.216 45.8793 181.868 47.2113C180.061 48.7758 178.793 50.9204 177.066 52.4913C175.266 54.0495 172.955 55.1839 170.54 55.1998C167.797 55.0724 164.782 53.1127 164.655 50.162C164.498 48.0047 165.7 46.0673 166.799 44.302C166.544 44.0534 166.554 43.6551 166.793 43.4002C167.459 42.6928 168.157 42.0173 168.861 41.3481C169.546 40.5865 170.661 38.7511 171.722 38.7256C172.767 37.9417 173.991 37.5402 175.259 37.2566C175.145 37.2025 184.472 35.367 184.35 35.5678C187.282 34.8763 190 33.6909 191.555 30.8995C193.177 28.532 194.503 26.0943 196.36 23.9657C199.254 20.7665 203.16 18.606 207.3 17.4907C208.609 17.1498 210.011 17.0191 211.327 17.3824V17.3888Z" fill="#EAB339"/>
    <path d="M156.316 62.481C157.374 63.4879 159.703 65.2245 158.999 66.8497C158.808 67.2575 158.342 67.4519 157.912 67.3436C157.08 67.044 156.542 66.2379 155.873 65.693C155.379 65.2628 154.85 64.874 154.308 64.5044C152.976 63.5548 151.561 62.7295 150.28 61.713C149.497 61.1394 148.719 60.0943 149.509 59.1989C149.876 58.842 150.354 58.2047 150.931 58.4437C151.692 58.8515 152.409 59.3486 153.104 59.8617C154.209 60.6774 155.29 61.576 156.319 62.481H156.316Z" fill="#EAB339"/>
    <path d="M129.275 54.8812C129.836 55.3145 129.931 56.1048 129.594 56.707C129.3 57.3061 128.59 57.4049 128 57.51C127.229 57.612 126.426 57.8255 125.652 57.6853C124.447 57.1468 125.942 56.0347 126.436 55.528C126.751 55.2349 127.092 54.9704 127.427 54.7027C127.551 54.5115 127.819 54.4669 128.013 54.5657C128.389 54.1801 128.937 54.6486 129.275 54.8844V54.8812Z" fill="#EAB339"/>
    <path d="M161.557 37.9289C162.039 40.0193 162.644 42.2498 162.064 44.3784C161.35 46.6822 159.575 47.5394 157.268 47.3036C155.838 47.2877 150.58 46.1437 151.459 44.0406C152.607 40.4909 153.639 36.8901 154.866 33.3658C155.564 31.4412 156.201 29.5229 156.679 27.5377C157.071 26.7698 158.081 27.3242 157.794 28.1017C157.982 28.1495 158.145 28.2834 158.234 28.4714C158.639 29.3317 159.04 30.1889 159.394 31.0716C160.267 33.3053 160.962 35.6091 161.564 37.9289H161.557Z" fill="#EAB339"/>
    <path d="M200.869 53.7977C200.876 54.0494 200.745 54.2566 200.56 54.3776C200.93 56.0506 200.076 58.4149 199.317 59.9254C198.578 61.5441 197.801 63.1405 196.975 64.7019C196.501 65.4412 195.921 67.3913 194.77 66.8751C194.448 66.6999 194.353 66.3239 194.267 65.9956C194.114 65.4858 193.935 64.9314 193.776 64.4629C193.234 62.9398 192.514 61.3274 191.826 59.9094C191.415 59.0937 190.978 58.297 190.484 57.561C190.073 56.9619 189.637 56.3756 189.175 55.8148C188.776 55.4069 189.044 54.6772 189.64 54.7313C189.936 54.4414 190.411 54.3936 190.778 54.2343C191.845 53.8614 192.919 53.5173 193.999 53.1795C195.21 52.8194 196.446 52.4211 197.718 52.4084C197.957 52.4084 198.177 52.4275 198.381 52.4594C198.82 52.3861 199.311 52.5613 199.687 52.778C200.328 52.4052 200.847 53.2337 200.869 53.7977Z" fill="#EAB339"/>
    <path d="M214.097 77.6806C214.253 78.5505 213.775 79.4395 213.542 80.2553C212.411 83.4099 211.347 86.6092 209.686 89.5312C209.224 90.2705 208.667 91.9944 207.657 91.8828C207.198 91.8159 207.016 91.3602 206.838 90.9938C206.452 90.2354 206.051 89.4834 205.646 88.7346C204.725 87.0043 203.753 85.2963 202.877 83.5406C201.819 81.447 200.863 79.3025 199.856 77.1867C199.773 76.9987 199.614 76.8553 199.588 76.6418C199.486 76.0268 200.344 75.6667 200.707 76.1765C203.25 75.8929 205.859 76.2562 208.418 76.39C209.572 76.4665 210.728 76.5143 211.879 76.6386C212.679 76.7437 213.784 76.782 214.093 77.6806H214.097Z" fill="#EAB339"/>
    <path d="M228.93 102.586C229.156 104.342 228.308 105.989 227.633 107.557C226.804 109.386 225.867 111.171 225.068 113.012C224.848 113.516 224.641 114.026 224.437 114.539C224.29 115.077 223.538 115.253 223.239 114.736C222.92 113.86 222.299 113.086 221.811 112.302C219.775 109.338 217.512 106.537 215.298 103.705C214.482 102.685 213.657 101.675 212.911 100.604C212.726 100.467 212.631 100.251 212.663 100.024C212.736 99.4985 213.421 99.3551 213.749 99.7438C214.211 99.5622 214.753 99.6546 215.24 99.5941C215.804 99.5654 216.365 99.5304 216.929 99.5017C219.335 99.371 221.754 99.1958 224.159 99.3583C225.329 99.4698 226.61 99.4666 227.633 100.107C228.452 100.662 228.805 101.633 228.926 102.58L228.93 102.586Z" fill="#EAB339"/>
    <path d="M242.291 122.266C242.794 122.582 242.772 123.238 242.638 123.748C242.424 124.796 242.154 125.829 241.892 126.868C241.373 129.264 240.388 131.513 239.401 133.747C239.088 134.298 238.923 135.344 238.218 135.477C237.944 135.509 237.686 135.372 237.549 135.13C235.44 130.908 232.61 127.138 229.653 123.499C229.194 122.951 228.767 122.371 228.184 121.963C227.971 121.699 228.034 121.272 228.324 121.087C228.697 120.826 229.159 121.074 229.446 121.361C232.537 121.457 235.647 121.492 238.728 121.718C239.907 121.858 241.191 121.769 242.291 122.269V122.266Z" fill="#EAB339"/>
    <path d="M253.82 145.199C255.282 145.477 257.895 146.2 257.134 148.182C256.697 149.45 256.085 150.671 255.493 151.862C254.619 153.615 253.654 155.317 252.59 156.958C252 157.713 251.114 159.695 249.999 159.446C249.524 159.325 249.368 158.806 249.218 158.398C248.896 157.534 248.581 156.671 248.237 155.817C247.322 153.551 246.459 151.26 245.426 149.046C244.687 147.51 243.983 146.047 243.1 144.61C242.788 143.989 243.639 143.405 244.11 143.922C247.316 144.142 250.671 144.623 253.82 145.203V145.199Z" fill="#EAB339"/>
    <path d="M275.928 168.196C275.975 168.512 275.762 168.818 275.462 168.901C275.45 170.07 276.316 173.451 274.302 173.136C272.116 172.846 270.02 172.154 267.939 171.443C265.122 170.561 262.232 169.783 259.676 168.257C258.915 167.808 257.478 167.059 258.236 166.014C262.181 162.053 266.524 158.443 271.31 155.543C271.39 155.192 271.776 154.972 272.12 155.071C272.645 155.256 272.795 155.881 273.047 156.323C274.083 158.274 274.733 160.377 275.08 162.544C275.297 163.802 275.472 165.067 275.657 166.329C275.746 166.954 275.838 167.575 275.931 168.196H275.928Z" fill="#EAB339"/>
    <path d="M285.799 174.866C285.93 176.975 285.876 179.113 285.736 181.22C285.548 183.485 285.13 191.611 281.58 190.585C280.548 190.104 280.481 188.775 280.201 187.806C279.815 186.111 279.79 184.358 279.911 182.628C280.134 178.572 281.259 176.309 283.362 172.96C283.559 172.61 283.741 172.25 283.932 171.896C284.088 171.635 284.193 171.303 284.493 171.176C284.875 171.004 285.353 171.303 285.356 171.724C285.701 172.715 285.688 173.824 285.799 174.866Z" fill="#EAB339"/>
    <path d="M276.313 194.868C277.448 196.448 278.677 198.283 278.566 200.31C278.337 201.655 277.135 202.569 276.068 203.286C273.809 204.695 271.345 205.746 268.869 206.705C267.015 207.327 263.809 208.751 262.458 206.658C261.719 204.895 262.557 202.945 263.22 201.285C264.106 199.029 264.95 196.754 266.075 194.6C266.633 193.513 267.247 192.452 267.971 191.464C268.203 191.193 268.379 190.824 268.701 190.652C268.666 190.426 268.745 190.183 268.94 190.043C271.285 188.463 275.01 193.246 276.316 194.868H276.313Z" fill="#EAB339"/>
    <path d="M111.571 195.68C112.422 198.471 110.369 199.239 108.171 200.02C106.562 200.559 104.752 201.269 103.06 200.734C101.833 200.272 102.107 199.061 102.521 198.102C102.919 197.133 103.41 196.206 103.831 195.247C104.459 193.88 105.048 192.497 105.701 191.139C105.921 190.7 106.205 189.922 106.832 190.196C108.171 188.985 111.354 194.546 111.571 195.677V195.68Z" fill="#EAB339"/>
    <path d="M91.1197 201.256C91.5753 201.954 92.0788 202.697 92.1138 203.557C92.0947 205.386 89.5009 206.033 88.1371 206.686C86.2953 207.352 84.0966 208.432 82.1178 208.197C81.028 208.015 80.5373 207.043 80.8846 206.023C81.0885 205.131 81.3944 204.105 81.6844 203.28C82.2644 201.626 82.9303 200.001 83.6792 198.417C84.0265 197.844 84.514 196.231 85.3553 196.477C86.0181 196.129 87.1429 197.165 87.7101 197.512C89.1058 198.497 90.2019 199.829 91.1228 201.253L91.1197 201.256Z" fill="#EAB339"/>
    <path d="M67.2177 207.945C68.1546 208.965 69.8402 210.328 69.614 211.848C69.1201 213.582 63.3652 215.78 61.7656 214.952C60.593 214.445 61.0072 213.043 61.1761 212.062C61.2972 211.319 61.4215 210.58 61.584 209.844C61.858 208.703 62.1352 207.527 62.6961 206.492C62.9797 205.918 63.6966 205.87 64.2606 205.848C65.4811 206.062 66.3351 207.161 67.2177 207.945Z" fill="#EAB339"/>
    <path d="M190.638 143.858C190.526 143.842 190.418 143.823 190.306 143.807C190.233 143.794 190.16 143.781 190.086 143.772C188.637 143.514 187.244 143.023 185.874 142.491C185.762 142.443 185.648 142.398 185.539 142.348C184.918 142.051 184.328 141.701 183.72 141.382C183.411 141.219 183.095 141.063 182.786 140.901C182.483 140.742 182.187 140.576 181.884 140.41C181.511 140.206 181.142 139.996 180.763 139.808C180.616 139.735 180.47 139.664 180.32 139.594C180.259 139.397 180.125 139.225 179.941 139.11C179.711 138.97 179.472 138.839 179.23 138.715C178.825 138.473 178.427 138.224 178.029 137.976C178.029 137.976 178.029 137.976 178.025 137.976C178.025 137.976 178.022 137.976 178.019 137.976C178.019 137.976 178.016 137.976 178.013 137.972C178.013 137.972 178.006 137.972 178.006 137.966C177.904 137.896 177.799 137.829 177.694 137.762C177.694 137.762 177.685 137.756 177.678 137.749C177.659 137.737 177.643 137.727 177.624 137.714H177.618V137.711L177.605 137.702C177.605 137.702 177.592 137.695 177.589 137.689C177.589 137.689 177.589 137.689 177.586 137.689C177.586 137.689 177.586 137.689 177.583 137.689C177.471 137.616 177.359 137.545 177.248 137.472C177.213 137.45 177.181 137.428 177.149 137.405C177.143 137.402 177.136 137.399 177.13 137.392C177.13 137.392 177.13 137.392 177.127 137.392C177.127 137.392 177.127 137.392 177.124 137.392C177.124 137.392 177.12 137.392 177.117 137.389C177.117 137.389 177.117 137.389 177.117 137.386C177.117 137.386 177.117 137.386 177.114 137.386C177.114 137.386 177.114 137.386 177.111 137.386C176.942 137.271 176.773 137.16 176.604 137.042C176.604 137.042 176.604 137.042 176.601 137.042C176.601 137.042 176.598 137.042 176.595 137.039C176.595 137.039 176.588 137.036 176.588 137.032C176.588 137.032 176.592 137.036 176.595 137.039C176.592 137.039 176.588 137.032 176.585 137.032C176.585 137.032 176.585 137.032 176.582 137.032C176.139 136.714 175.696 136.398 175.26 136.07C174.645 135.611 174.026 135.159 173.399 134.719C172.765 134.276 172.121 133.846 171.474 133.419C170.83 132.992 170.187 132.562 169.537 132.141C169.205 131.928 168.871 131.717 168.533 131.51C168.377 131.415 168.214 131.322 168.058 131.227C167.806 131.077 167.558 130.898 167.261 130.867C167.207 130.828 167.15 130.793 167.096 130.755C166.844 130.589 166.573 130.455 166.302 130.325C165.786 130.073 165.251 129.856 164.715 129.646C164.037 129.382 163.342 129.127 162.619 129.037C162.494 129.022 162.373 129.015 162.252 129.015C162.013 128.98 161.777 128.948 161.538 128.923C161.188 128.885 160.837 128.862 160.484 128.881C160.197 128.897 159.894 128.929 159.623 129.012C159.161 129.155 158.718 129.398 158.352 129.713C158.352 129.713 158.333 129.732 158.32 129.742C158.087 129.955 157.887 130.197 157.683 130.443C157.441 130.733 157.211 131.019 157.049 131.36C157.049 131.36 157.049 131.364 157.049 131.367C156.972 131.533 156.899 131.705 156.854 131.88C156.807 132.068 156.771 132.259 156.752 132.45C156.701 132.912 156.701 133.403 156.848 133.846C156.854 133.862 156.861 133.881 156.867 133.897C156.756 134.142 156.657 134.394 156.577 134.655C156.437 135.127 156.453 135.697 156.647 136.153C156.749 136.389 156.883 136.631 157.084 136.793C157.214 136.899 157.345 136.981 157.501 137.048C157.641 137.109 157.788 137.144 157.935 137.179C158.148 137.236 158.358 137.303 158.565 137.377C158.626 137.431 158.693 137.472 158.769 137.504C158.992 137.596 159.222 137.603 159.448 137.523C159.671 137.443 159.878 137.345 160.079 137.224C160.085 137.22 160.092 137.217 160.098 137.211C160.156 137.176 160.213 137.144 160.27 137.115C160.321 137.096 160.372 137.077 160.423 137.061C160.503 137.039 160.583 137.023 160.662 137.007C160.796 136.988 160.93 136.969 161.064 136.943C161.233 136.911 161.401 136.87 161.567 136.832C161.647 136.819 161.726 136.806 161.806 136.797C161.905 136.793 162.001 136.79 162.099 136.797C162.313 136.809 162.529 136.828 162.743 136.86C162.883 136.889 163.023 136.924 163.16 136.962C163.339 137.013 163.52 137.064 163.702 137.106C163.833 137.134 163.963 137.157 164.091 137.189C164.123 137.198 164.155 137.208 164.186 137.217C164.231 137.236 164.272 137.259 164.317 137.281C164.425 137.345 164.527 137.412 164.633 137.482C164.776 137.587 164.91 137.702 165.044 137.819C165.251 138.007 165.448 138.202 165.643 138.406C165.767 138.546 165.882 138.693 165.993 138.842C166.21 139.158 166.401 139.489 166.583 139.827C166.72 140.088 166.85 140.356 166.962 140.63C166.975 140.671 166.987 140.713 167 140.757C167.013 140.821 167.022 140.882 167.032 140.945C167.035 141.006 167.038 141.063 167.038 141.124C167.022 141.42 166.984 141.717 166.94 142.01C166.85 142.555 166.72 143.093 166.567 143.625C166.5 143.832 166.43 144.03 166.347 144.228C166.293 144.333 166.239 144.431 166.181 144.533C166.086 144.677 165.984 144.82 165.882 144.964C165.853 145.005 165.821 145.046 165.792 145.088C165.719 145.142 165.649 145.196 165.576 145.25C165.573 145.254 165.569 145.257 165.563 145.26C165.095 145.591 164.61 145.897 164.107 146.175C164.04 146.181 163.976 146.184 163.909 146.19C163.485 146.222 163.062 146.248 162.638 146.289C162.23 146.327 161.825 146.404 161.421 146.484C161.035 146.56 160.659 146.652 160.293 146.793C159.977 146.917 159.668 147.057 159.362 147.204C159.015 147.369 158.667 147.532 158.342 147.739C157.995 147.956 157.708 148.227 157.412 148.507C157.256 148.657 157.081 148.803 156.956 148.982C156.921 149.036 156.886 149.09 156.851 149.144C156.609 148.912 156.354 148.695 156.093 148.482C155.596 148.083 155.054 147.742 154.506 147.42C154.12 147.194 153.725 146.984 153.327 146.783C152.957 146.598 152.568 146.452 152.205 146.254C152.001 146.13 151.804 145.99 151.597 145.869C151.354 145.725 151.109 145.588 150.867 145.451C150.755 145.381 150.647 145.308 150.539 145.228C150.523 145.215 150.51 145.206 150.494 145.193C150.277 145.021 150.07 144.839 149.847 144.677C149.662 144.543 149.474 144.416 149.293 144.279C149.197 144.199 149.102 144.116 149.012 144.027C148.961 143.973 148.91 143.915 148.866 143.858C148.818 143.791 148.777 143.721 148.735 143.651C148.652 143.498 148.582 143.339 148.515 143.179C148.493 143.119 148.471 143.055 148.451 142.994C148.436 142.924 148.42 142.854 148.41 142.784C148.372 142.456 148.337 142.121 148.33 141.79C148.334 141.615 148.35 141.436 148.35 141.261C148.35 140.968 148.34 140.675 148.33 140.378C148.314 139.865 148.26 139.355 148.254 138.846V138.817C148.254 138.683 148.26 138.549 148.27 138.415C148.518 138.482 148.777 138.511 149.035 138.492C149.541 138.45 150.019 138.307 150.5 138.135C150.835 138.017 151.16 137.874 151.485 137.73C151.877 137.74 152.272 137.743 152.664 137.724C153.046 137.702 153.422 137.651 153.802 137.58C153.888 137.593 153.971 137.603 154.057 137.609C154.219 137.619 154.385 137.6 154.547 137.565C154.7 137.53 154.86 137.488 155.003 137.412C155.318 137.246 155.538 136.95 155.599 136.599C155.675 136.153 155.497 135.669 155.341 135.254C155.264 135.057 155.181 134.869 155.083 134.687C155.322 134.655 155.548 134.547 155.707 134.349C156 133.983 155.946 133.473 155.717 133.094C155.564 132.839 155.341 132.619 155.14 132.399C154.984 132.227 154.818 132.068 154.652 131.909C154.305 131.574 153.98 131.217 153.668 130.854C153.496 130.647 153.33 130.433 153.158 130.229C152.986 130.025 152.795 129.834 152.61 129.637C152.422 129.439 152.243 129.232 152.049 129.041C151.96 128.955 151.871 128.869 151.772 128.795C151.581 128.658 151.367 128.575 151.141 128.518C150.832 128.435 150.478 128.442 150.159 128.48C149.876 128.515 149.595 128.569 149.315 128.639C148.789 128.77 148.267 128.916 147.75 129.082C147.728 129.088 147.706 129.095 147.68 129.104C147.199 129.261 146.744 129.452 146.297 129.684C145.858 129.914 145.459 130.216 145.096 130.554C144.752 130.879 144.398 131.195 144.07 131.533C143.764 131.845 143.471 132.163 143.143 132.453C143.143 132.453 143.143 132.453 143.14 132.457C143.12 132.473 143.105 132.488 143.066 132.517C143.066 132.517 143.066 132.517 143.063 132.52C143.06 132.52 143.057 132.527 143.054 132.527C143.054 132.527 143.05 132.527 143.047 132.53C143.047 132.53 143.044 132.533 143.041 132.536L143.034 132.543C143.034 132.543 143.034 132.543 143.031 132.543C143.025 132.549 143.018 132.552 143.015 132.555H143.012C143.012 132.555 143.012 132.555 143.012 132.559C143.012 132.559 143.006 132.565 143.003 132.565C142.968 132.594 142.932 132.622 142.901 132.648C142.811 132.718 142.722 132.788 142.633 132.861C142.627 132.868 142.62 132.871 142.614 132.874C142.614 132.874 142.614 132.874 142.611 132.877C142.611 132.877 142.611 132.877 142.607 132.88C142.607 132.88 142.607 132.88 142.604 132.88C142.604 132.88 142.604 132.88 142.601 132.884C142.601 132.884 142.592 132.893 142.585 132.896C142.585 132.896 142.582 132.9 142.579 132.903C142.579 132.903 142.576 132.906 142.572 132.909C142.572 132.909 142.572 132.909 142.569 132.909C142.569 132.909 142.569 132.909 142.566 132.909C142.566 132.909 142.566 132.909 142.563 132.912C142.563 132.912 142.563 132.912 142.56 132.912C142.56 132.912 142.56 132.912 142.556 132.912C142.547 132.919 142.537 132.925 142.531 132.931C142.528 132.935 142.521 132.938 142.518 132.941C142.512 132.944 142.509 132.947 142.505 132.951C142.493 132.96 142.483 132.966 142.474 132.976C142.474 132.976 142.474 132.976 142.477 132.973C142.47 132.979 142.464 132.982 142.458 132.989C142.464 132.986 142.467 132.982 142.474 132.976C142.467 132.979 142.461 132.986 142.458 132.989C142.257 133.142 142.053 133.295 141.849 133.448C141.655 133.594 141.46 133.738 141.282 133.9C140.976 134.174 140.676 134.458 140.393 134.754C140.071 135.092 139.749 135.433 139.456 135.793C139.179 136.131 138.943 136.497 138.669 136.835C138.631 136.879 138.592 136.921 138.554 136.965C139.003 136.131 139.443 135.293 139.87 134.451C141.581 131.023 143.124 127.508 144.532 123.942C146.403 119.131 148.206 114.07 148.518 108.899C148.659 106.646 148.687 104.374 148.375 102.134C148.302 101.567 148.219 100.999 148.111 100.435C148.044 100.324 147.993 100.209 147.9 100.085C147.798 99.8937 147.824 99.6929 147.919 99.5304C147.913 99.4253 147.926 99.3169 147.967 99.2118C148.066 98.9855 148.308 98.8389 148.553 98.8772C148.681 98.8995 148.78 98.9537 148.866 99.027C150.379 96.943 152.527 95.5186 154.442 93.833C157.345 91.3443 160.251 88.8588 163.167 86.3861C163.38 86.2013 163.622 86.1981 163.82 86.2937C163.836 86.0005 163.912 85.7615 164.059 85.5926C164.636 85.2804 165.025 85.7966 165.047 86.3479C165.213 87.2146 165.502 88.0526 165.815 88.8652C166.341 90.1812 167.003 91.4399 167.676 92.6858C171.123 99.3201 174.53 105.974 177.93 112.63C180.53 118.028 182.735 123.649 184.927 129.19C186.788 134.107 188.984 138.893 190.781 143.836L190.638 143.858Z" fill="#FFF7DB"/>
    <path d="M195.452 168.646C195.66 171.08 195.717 173.531 195.653 175.975C195.593 178.467 195.43 180.955 195.083 183.425C194.904 184.177 194.987 186.554 193.693 185.786C193.569 185.687 193.518 185.56 193.505 185.419C191.995 186.742 190.618 188.204 189.382 189.791C189.204 190.014 189.032 190.237 188.86 190.467C188.863 190.598 188.821 190.738 188.716 190.878C188.366 191.34 188.012 191.799 187.661 192.264C187.588 192.388 187.508 192.503 187.416 192.592C186.196 194.227 185.026 195.9 184.096 197.716C181.655 202.569 180.176 208.716 180.297 214.155C180.492 217.635 181.582 220.978 182.646 224.273C183.474 226.943 184.602 229.524 185.138 232.271C185.3 233.01 185.415 235.212 184.281 234.947C182.477 236.043 180.53 236.799 178.605 237.624C178.593 237.834 178.475 238.038 178.213 238.147C176.687 238.717 175.129 239.189 173.552 239.58C171.55 240.218 169.505 240.715 167.43 241.053C165.815 241.333 164.19 241.572 162.558 241.735C162.297 241.741 162.004 241.814 161.73 241.814C161.519 241.814 161.322 241.773 161.159 241.623C161.111 241.553 161.076 241.489 161.054 241.429C158.412 241.633 155.764 241.76 153.12 241.61C151.523 241.502 149.933 241.339 148.337 241.237C147.881 241.212 147.416 241.129 146.963 241.196C146.619 241.196 146.377 240.871 146.403 240.559C145.325 240.396 144.252 240.199 143.181 239.956C141.591 239.6 139.998 239.173 138.532 238.452C136.231 237.302 133.943 235.75 132.293 233.813C132.168 233.657 132.012 233.488 131.888 233.306C129.004 231.286 126.471 228.813 124.722 225.697C123.428 223.425 122.743 220.857 122.227 218.307C121.009 210.959 120.372 203.487 120.595 196.04C120.703 191.27 120.93 186.493 121.701 181.78C122.647 176.472 123.549 171.118 124.865 165.912C125.888 162.053 127.328 158.328 128.982 154.702C129.517 154.616 130.049 154.514 130.575 154.377C131.053 154.252 131.528 154.109 132 153.95C132.054 153.93 132.111 153.914 132.165 153.895C132.178 153.892 132.194 153.889 132.207 153.886C132.583 153.79 132.955 153.688 133.328 153.577C134.01 153.373 134.695 153.172 135.38 152.965C135.479 152.936 135.575 152.908 135.674 152.876C135.683 152.876 135.693 152.869 135.702 152.866C135.718 152.86 135.734 152.857 135.75 152.85C135.753 152.85 135.76 152.85 135.763 152.847H135.769C135.881 152.812 135.989 152.777 136.101 152.742C136.808 152.509 137.512 152.254 138.181 151.932C138.51 151.773 138.815 151.592 139.118 151.388C139.274 151.324 139.434 151.26 139.59 151.2C139.931 151.072 140.272 150.951 140.609 150.817C140.982 150.667 141.336 150.479 141.69 150.295C141.98 150.142 142.276 149.998 142.563 149.842C142.83 149.696 143.095 149.539 143.363 149.39C143.618 149.253 143.879 149.128 144.146 149.017C144.449 148.899 144.755 148.784 145.064 148.689C145.147 148.669 145.233 148.65 145.319 148.634C145.485 148.615 145.654 148.599 145.819 148.593C146.011 148.593 146.199 148.606 146.39 148.625C147.161 148.717 147.938 148.8 148.7 148.966C149.022 149.039 149.347 149.103 149.662 149.205C149.86 149.269 150.054 149.339 150.255 149.396C150.459 149.453 150.663 149.511 150.86 149.581C151.201 149.708 151.53 149.877 151.855 150.037C152.39 150.301 152.881 150.639 153.406 150.919C153.732 151.091 154.057 151.231 154.407 151.34C154.761 151.448 155.13 151.477 155.497 151.49C155.8 151.499 156.105 151.521 156.408 151.505C156.545 151.499 156.676 151.483 156.81 151.454C156.886 151.439 156.953 151.413 157.017 151.378C157.058 151.423 157.103 151.464 157.151 151.499C157.453 151.725 157.826 151.719 158.17 151.617C158.572 151.499 158.935 151.324 159.311 151.142C159.279 151.158 159.247 151.174 159.212 151.19C159.378 151.11 159.544 151.043 159.716 150.98C159.923 150.903 160.12 150.811 160.318 150.712C160.582 150.581 160.837 150.425 161.099 150.285C161.385 150.202 161.672 150.11 161.969 150.052C162.157 150.017 162.348 149.989 162.536 149.957C162.864 149.896 163.183 149.794 163.508 149.731C163.734 149.689 163.963 149.664 164.196 149.648C164.69 149.625 165.19 149.641 165.684 149.67C166.079 149.699 166.468 149.762 166.86 149.817C167.21 149.864 167.561 149.896 167.915 149.931C168.536 149.992 169.154 150.091 169.769 150.205C169.807 150.212 169.849 150.221 169.887 150.228C169.919 150.234 169.951 150.24 169.986 150.247C169.986 150.247 169.992 150.247 169.995 150.247C169.995 150.247 169.995 150.247 169.999 150.247C169.999 150.247 169.999 150.247 170.002 150.247C170.359 150.317 170.709 150.406 171.066 150.473C171.108 150.479 171.149 150.489 171.19 150.495C171.327 150.521 171.464 150.546 171.601 150.572C171.592 150.572 171.585 150.569 171.576 150.565C172.009 150.648 172.449 150.725 172.886 150.804C173.475 150.913 174.071 150.992 174.66 151.094C174.66 151.094 174.664 151.094 174.667 151.094H174.676C175.103 151.171 175.53 151.251 175.957 151.317C175.957 151.317 175.957 151.317 175.961 151.317C175.961 151.317 175.961 151.317 175.964 151.317H175.967C176.027 151.327 176.085 151.337 176.142 151.346C176.569 151.416 176.996 151.502 177.426 151.569H177.42C177.477 151.579 177.532 151.585 177.589 151.595C177.649 151.604 177.707 151.614 177.767 151.623C177.904 151.646 178.045 151.668 178.182 151.69C178.637 151.764 179.099 151.827 179.545 151.942C179.673 151.977 179.803 152.009 179.931 152.044C180.132 152.14 180.336 152.232 180.536 152.324C181.333 152.678 182.146 152.987 182.961 153.293C183.442 153.472 183.927 153.64 184.414 153.803C184.494 153.841 184.571 153.883 184.65 153.921C185.437 154.31 186.24 154.666 187.03 155.052C187.403 155.234 187.77 155.428 188.139 155.61C188.547 155.81 188.958 155.998 189.376 156.177C189.417 156.196 189.459 156.212 189.503 156.231C189.503 156.231 189.51 156.231 189.51 156.234C189.513 156.234 189.519 156.237 189.522 156.241C189.522 156.241 189.526 156.241 189.529 156.241C189.529 156.241 189.532 156.241 189.535 156.241C189.541 156.241 189.545 156.244 189.551 156.247C189.551 156.247 189.554 156.247 189.557 156.247C189.557 156.247 189.557 156.247 189.561 156.247H189.567C189.57 156.247 189.573 156.25 189.58 156.253C189.58 156.253 189.583 156.253 189.586 156.253C189.596 156.257 189.605 156.263 189.615 156.266C189.631 156.272 189.647 156.279 189.663 156.285C190.019 156.438 190.373 156.591 190.727 156.75C191.071 156.903 191.412 157.06 191.759 157.209C192.473 157.515 193.18 157.828 193.894 158.13C194.038 158.191 194.181 158.251 194.324 158.312C194.786 160.361 195.204 162.413 195.433 164.506C195.484 164.819 195.322 165.055 195.096 165.169C195.226 166.32 195.322 167.473 195.417 168.623L195.452 168.646Z" fill="#FFF7DB"/>
    <path d="M180.951 141.003C180.951 141.003 180.973 141.012 180.985 141.019C180.973 141.012 180.96 141.006 180.948 141C180.948 141 180.948 141 180.951 141V141.003Z" fill="#050504"/>
    <path d="M152.619 70.0554C151.797 69.3767 150.931 68.7521 150.032 68.1722C148.251 66.9708 146.32 66.0149 144.296 65.2947C143.872 65.1036 143.315 65.4286 143.452 65.9384C143.646 66.461 144.293 66.5725 144.742 66.8083C147.502 67.93 150.032 69.536 152.313 71.4606C152.422 71.553 152.549 71.5913 152.677 71.5913C153.04 71.5913 153.4 71.2631 153.333 70.8679C153.279 70.476 152.877 70.3007 152.619 70.0522V70.0554Z" fill="#050504"/>
    <path d="M153.98 59.5559C152.607 58.6446 150.08 57.0418 148.843 59.113C148.037 60.4609 148.477 61.0568 149.392 61.6463C150.398 62.3983 151.501 63.0101 152.546 63.7047C153.416 64.2847 154.251 64.9156 155.044 65.5975C155.882 66.2858 156.571 67.1717 157.52 67.7166C157.782 67.8759 158.075 67.9492 158.365 67.9492C159.168 67.9492 159.952 67.3883 159.964 66.4993C159.936 65.5083 159.305 64.6511 158.747 63.8768C157.399 62.1657 155.851 60.7254 153.98 59.5559ZM158.448 67.0123C157.552 66.9295 156.998 66.0309 156.341 65.5051C155.261 64.4918 154.079 63.5868 152.836 62.7775C152.106 62.3059 151.364 61.8534 150.634 61.3818C150.233 61.0854 149.618 60.754 149.341 60.2761C149.239 59.6165 149.799 59.1226 150.408 58.9728C151.017 58.823 154.123 60.77 155.449 61.7865C156.156 62.36 160.547 66.5949 158.444 67.0123H158.448Z" fill="#050504"/>
    <path d="M184.01 55.2477C184.497 56.5446 184.87 57.867 185.166 59.2945C185.609 61.5856 186.027 64.1412 185.584 66.5056C184.147 72.117 180.715 70.1223 178.398 66.3558C176.92 64.1699 175.712 61.8087 174.635 59.4029C174.287 58.7974 174.182 57.9944 173.669 57.5133C173.277 57.2679 172.726 57.5897 172.742 58.0454C174.093 61.6334 178.258 70.938 182.407 71.2885C189.503 70.6194 186.804 59.2085 185.192 54.7474C184.879 53.9762 183.688 54.4893 184.013 55.2445L184.01 55.2477Z" fill="#050504"/>
    <path d="M87.3088 207.616C87.3088 207.616 87.3136 207.616 87.316 207.614C87.316 207.614 87.3136 207.614 87.3112 207.614L87.3088 207.616Z" fill="#050504"/>
    <path d="M240.373 121.122C240.373 121.122 240.376 121.122 240.379 121.122C240.391 121.122 240.404 121.122 240.413 121.122C240.401 121.122 240.385 121.122 240.373 121.119V121.122Z" fill="#050504"/>
    <path d="M258.036 165.771C258.034 165.773 258.031 165.778 258.029 165.78C258.031 165.776 258.036 165.771 258.039 165.768L258.036 165.771Z" fill="#050504"/>
    <path d="M257.927 165.918C257.927 165.918 257.927 165.921 257.924 165.924L257.927 165.918Z" fill="#050504"/>
    <path d="M258.048 165.76C258.048 165.76 258.048 165.757 258.051 165.754C258.053 165.748 258.059 165.745 258.062 165.74C258.056 165.745 258.051 165.751 258.045 165.76H258.048Z" fill="#050504"/>
    <path d="M258.042 165.769C258.042 165.769 258.047 165.764 258.049 165.762C258.049 165.762 258.044 165.767 258.044 165.769H258.042Z" fill="#050504"/>
    <path d="M271.534 189.533C268.844 188.823 266.961 191.232 265.865 193.351C264.428 195.938 259.055 206.696 263.029 208.296C266.722 209.405 276.967 204.332 278.681 200.97C279.13 198.634 277.62 196.273 276.657 194.221C275.498 192.178 273.997 190.008 271.534 189.537V189.533ZM276.963 201.244C273.56 204.239 268.749 206.776 264.195 207.209C262.567 207.368 262.847 205.466 262.975 204.395C262.975 204.411 262.971 204.43 262.968 204.446C263.045 203.245 263.43 202.117 263.838 200.983C264.692 198.561 265.683 196.193 266.97 193.963C267.614 192.924 268.204 191.735 269.262 191.063C271.954 189.731 274.233 192.449 275.408 194.61C276.071 195.986 278.557 200.106 276.963 201.244Z" fill="#050504"/>
    <path d="M282.074 173.993C282.074 173.993 282.09 173.964 282.097 173.952C282.1 173.942 282.106 173.932 282.109 173.926C282.097 173.948 282.087 173.971 282.074 173.993Z" fill="#050504"/>
    <path d="M154.414 117.34C154.414 117.34 154.385 117.34 154.369 117.337C154.356 117.337 154.34 117.337 154.327 117.337L154.414 117.34Z" fill="#050504"/>
    <path d="M151.644 133.215C151.644 133.215 151.673 133.221 151.688 133.225C151.685 133.225 151.682 133.225 151.679 133.225C151.666 133.225 151.657 133.221 151.644 133.218V133.215Z" fill="#050504"/>
    <path d="M137.311 32.3433C137.302 32.3593 137.292 32.3753 137.286 32.3946C137.295 32.3785 137.305 32.3625 137.315 32.3465C137.327 32.3273 137.334 32.3049 137.347 32.2825C137.334 32.3017 137.324 32.3241 137.311 32.3433Z" fill="#050504"/>
    <path d="M149.382 32.0908C149.382 32.0908 149.394 32.0751 149.401 32.0656C149.404 32.0593 149.407 32.0531 149.41 32.0499C149.401 32.0625 149.391 32.0782 149.379 32.0939L149.382 32.0908Z" fill="#050504"/>
    <path d="M146.02 46.5262C146.01 46.5262 146.001 46.5325 145.995 46.5325C146.007 46.5293 146.023 46.523 146.035 46.5199C146.032 46.5199 146.026 46.5199 146.023 46.523L146.02 46.5262Z" fill="#050504"/>
    <path d="M145.814 46.5837C145.814 46.5837 145.803 46.5865 145.797 46.5893C145.797 46.5893 145.797 46.5893 145.8 46.5893C145.806 46.5893 145.811 46.5865 145.814 46.5837Z" fill="#050504"/>
    <path d="M155.213 39.6051C155.204 39.6275 155.194 39.6499 155.185 39.6755C155.191 39.6755 155.197 39.6723 155.204 39.6691C155.204 39.6467 155.21 39.6275 155.213 39.6051Z" fill="#050504"/>
    <path d="M293.282 191.203C292.954 188.376 291.944 185.681 290.81 183.087C289.819 180.824 288.506 178.747 286.887 176.867C286.734 173.91 286.199 170.452 284.529 170.828C283.837 171.07 283.226 172.176 282.725 173.174C282.171 172.769 281.62 172.361 281.043 171.988C279.526 170.972 277.952 170.054 276.346 169.203C276.298 168.32 276.228 167.438 276.142 166.555C275.721 163.056 275.498 159.379 273.8 156.209C273.363 155.335 272.309 154.526 271.33 155.132C269.97 155.922 268.733 156.91 267.478 157.856C265.187 159.631 262.908 161.552 260.748 163.563C258.565 163.066 256.363 162.648 254.152 162.336C253.215 162.212 252.275 162.113 251.332 162.043C251.185 161.638 251.016 161.243 250.863 160.842C251.125 160.561 251.326 160.128 251.545 159.87C252.304 158.783 253.104 157.713 253.824 156.597C255.363 154.217 256.682 151.7 257.434 148.918C257.953 147.051 258.062 145.757 255.825 145.311C252.46 144.498 249.009 144.03 245.571 143.641C244.975 143.631 243.729 143.447 242.722 143.437C241.53 141.293 240.297 139.173 239.019 137.077C239.188 136.653 239.357 136.229 239.535 135.812C240.412 133.795 241.329 131.794 242.078 129.725C242.617 128.139 244.095 124.496 243.652 122.986C243.225 121.654 241.521 121.734 240.38 121.571C236.664 121.3 232.936 120.969 229.208 120.991C228.937 121.026 228.517 120.998 228.182 121.087C227.94 120.762 227.71 120.427 227.465 120.102C226.394 118.707 225.333 117.305 224.269 115.902C224.553 115.667 224.725 115.205 224.903 114.896C224.957 114.794 225.011 114.692 225.062 114.59C225.853 113.089 226.652 111.601 227.401 110.039C228.647 107.407 231.184 101.643 227.749 99.7947C226.356 99.3039 224.836 99.3039 223.377 99.2498C219.9 99.1988 216.427 99.3645 212.954 99.5079C212.842 99.5111 212.699 99.5143 212.562 99.5174C211.271 97.545 209.997 95.5598 208.789 93.5332C208.747 93.4663 208.709 93.3962 208.668 93.3292C209.378 91.9941 210.159 90.6717 210.873 89.3079C211.893 87.3545 212.807 85.3343 213.658 83.2981C214.203 81.9439 214.767 80.5705 215.038 79.1334C215.353 77.18 214.467 76.5587 212.651 76.3675C210.831 76.103 208.993 76.0106 207.157 75.9628C205.293 75.9246 203.432 75.8768 201.568 75.8513C201.09 75.8449 200.615 75.8385 200.138 75.8353C200 75.8417 199.848 75.8353 199.695 75.8385C198.528 73.2989 197.378 70.756 196.212 68.2164C196.409 67.8531 196.616 67.4962 196.827 67.1394C197.627 65.8042 198.468 64.4914 199.194 63.1116C200.275 61.0691 201.17 58.9054 201.568 56.6111C201.998 54.4156 201.587 52.1405 198.99 51.8186C198.426 51.7836 197.869 51.9047 197.324 52.0513C195.778 52.4496 194.262 52.9498 192.758 53.4756C191.674 53.8644 190.588 54.2531 189.533 54.712C189.377 54.7885 189.192 54.8681 189.023 54.9605C187.726 53.0741 186.365 51.2323 184.865 49.4957C184.24 48.7819 183.6 48.0809 182.937 47.4021C183.788 46.9815 184.68 46.6246 185.626 46.408C189.463 45.417 193.561 44.7191 196.804 42.2751C199.838 40.1911 201.842 37.0524 203.649 33.9169C204.713 32.1069 205.838 30.2046 206.769 28.2959C208.266 25.4312 209.56 22.2447 212.112 20.1416C213.846 19.0709 214.231 17.9015 212.093 17.0794C210.341 16.5217 208.442 16.7862 206.673 17.1431C201.154 18.2966 197.091 22.5952 193.946 27.0404C190.772 31.5939 190.094 34.3821 183.925 35.4527C183.447 35.5165 182.969 35.5547 182.491 35.5802C182.389 34.2546 182.14 33.0406 181.598 32.1866C180.665 30.9024 179.499 31.5971 178.523 32.4033C176.334 34.1686 174.193 36.004 172.157 37.9478C171.966 38.0625 171.768 38.1676 171.583 38.2887C171.054 38.19 170.525 38.0912 169.98 38.0179C167.336 37.6833 164.649 37.6865 162.001 37.9956C161.864 37.4507 161.724 36.9122 161.578 36.3832C160.749 33.356 159.698 30.4563 158.598 27.5056C158.254 26.505 157.129 26.5305 156.721 27.461C156.616 27.6554 156.125 29.016 155.867 29.4812C155.259 30.8132 154.755 32.1929 154.233 33.56C153.474 35.6184 152.776 37.661 152.069 39.7386C151.629 39.882 151.19 40.0222 150.753 40.172C149.66 40.5575 148.577 40.9686 147.503 41.4051C147.496 40.8762 147.509 40.3504 147.567 39.8183C147.888 37.3551 149.058 35.1851 150.501 33.1648C151.891 31.1446 153.949 29.4621 155.122 27.2634C156.674 24.3127 157.091 20.9063 157.069 17.5924C157.021 13.7495 155.577 9.97345 156.033 6.10822C156.148 4.63605 156.817 3.17982 157.104 1.72996C157.19 1.19463 156.9 0.624245 156.364 0.464919C154.79 0.194066 152.451 2.39913 151.413 3.52396C148.338 6.9399 147.124 11.6336 147.092 16.1553C147.044 20.7088 147.888 23.0509 143.797 26.1577C143.797 26.1577 143.797 26.1577 143.794 26.1609C142.921 26.8683 141.99 27.5056 141.12 28.2194C141.123 28.2162 141.104 28.2321 141.085 28.2481C139.572 29.4653 138.259 31.0745 137.309 32.792C135.461 35.9658 135.537 39.8119 136.423 43.2947C135.197 43.5305 133.986 44.1264 132.791 44.4514C130.433 45.2672 128.059 46.1339 125.8 47.2014C122.113 49.0018 123.563 53.1124 126.947 54.2468C127.039 54.285 127.125 54.3041 127.205 54.3041C127.218 54.3041 127.24 54.3009 127.256 54.2977C126.434 55.1485 125.682 55.9579 125.21 56.4837C123.371 58.3669 121.558 60.2756 119.793 62.2226C119.681 62.2895 119.595 62.3819 119.544 62.5062C117.543 64.7304 115.615 67.0151 113.92 69.491C111.46 73.1618 109.364 77.0653 107.369 81.0038C104.517 86.7523 101.518 93.0297 102.493 99.6162C103.58 105.865 108.809 111.231 115.16 112.063C116.262 112.184 117.362 112.238 118.451 112.238C128.929 112.238 138.762 106.964 147.095 100.671C147.863 103.246 148.006 105.938 147.637 108.583C147.563 109.115 147.069 109.332 146.802 109.529C143.883 112.101 141.238 114.969 138.351 117.575C130.723 124.458 123.05 131.347 116.418 139.221C113.856 142.436 110.374 145.648 110.425 150.068C111.145 154.593 116.348 156.827 120.51 156.849C123.091 156.973 125.643 156.718 128.158 156.224C124.308 165.312 121.536 174.878 120.207 184.658C119.93 184.705 119.659 184.795 119.404 184.9C118.949 185.097 118.499 185.333 118.085 185.601C115.829 187.089 114.191 189.16 113.006 191.502C112.655 191.671 112.295 191.936 112.018 192.063C111.604 192.299 111.202 192.522 110.797 192.748C109.007 189.476 105.807 187.968 104.291 192.882C104.166 193.296 103.545 194.686 102.924 196.193C102.713 196.288 102.506 196.384 102.296 196.48C102.302 196.48 102.305 196.476 102.312 196.473C98.7046 198.082 94.9733 199.437 91.2323 200.74C89.9673 199.029 88.3166 197.442 86.7648 196.575C85.1269 195.763 83.8938 196.932 83.3807 198.446C82.5172 200.351 81.7429 202.292 80.9781 204.236C76.6636 205.548 72.2853 206.702 67.9581 208.002C67.0244 207.123 65.992 206.351 64.8289 205.832C62.0758 204.809 61.2823 207.572 60.9477 209.7C60.8999 209.93 60.8585 210.153 60.8107 210.379C59.0135 211.055 57.2323 211.775 55.4924 212.603C52.3888 214.311 48.5586 215.707 46.8124 218.995C45.7895 221.551 47.7747 224.282 50.2092 225.088C56.1361 226.892 62.5123 226.583 68.6527 226.796C82.9251 226.758 97.1018 224.843 111.228 222.94C111.454 224.193 111.489 225.525 110.412 226.42C109.207 227.293 107.748 227.746 106.362 228.265C103.583 229.221 100.652 230.011 97.7869 230.719C95.0975 231.385 92.2329 231.863 89.9099 233.469C89.2248 233.927 88.4377 234.963 89.2598 235.661C90.0405 236.158 91.1144 235.862 91.9939 235.836C91.4585 236.238 90.9519 236.684 90.4866 237.165C90.0405 237.646 89.3682 238.255 89.6837 238.975C89.8462 239.38 90.2955 239.532 90.7033 239.51C92.4495 239.45 93.9121 238.64 95.6105 238.204C94.7661 239.074 94.0332 240.065 93.4437 241.129C92.9849 241.83 92.7777 242.802 93.7847 243.108C95.0338 243.293 97.0508 241.887 98.2076 241.285C99.7116 240.383 101.241 239.504 102.904 238.933C104.09 238.519 105.317 238.248 106.547 238.003C110.262 237.241 114.029 236.553 117.75 235.804C119.764 235.403 121.788 234.95 123.652 234.064C125.162 233.376 126.469 232.299 127.495 231.002C129.104 232.959 130.927 234.737 132.944 236.279C139.466 241.209 147.841 242.987 155.88 243.156C156.696 243.181 157.518 243.191 158.34 243.191C161.262 243.191 164.203 243.012 167.109 242.62C166.832 242.754 166.545 242.869 166.268 243.009C165.363 243.496 162.737 244.768 163.18 246.081C163.308 246.364 163.566 246.53 163.866 246.575C164.943 246.645 165.975 246.186 167.036 246.068C166.332 246.782 163.531 249.455 164.363 250.424C164.643 250.81 165.162 250.794 165.573 250.657C166.176 250.465 166.692 250.159 167.266 249.879C168.371 249.328 169.588 248.834 170.841 248.426C169.869 249.755 168.836 251.042 167.916 252.406C167.517 253.053 166.714 254.018 167.342 254.761C168.132 255.436 169.248 254.496 170.076 254.206C171.593 253.521 173.125 252.865 174.696 252.32C179.766 250.695 184.995 249.65 190.256 248.703C193.854 248.152 197.451 247.582 200.912 246.422C204.691 245.322 208.454 243.949 211.644 241.575C213.065 240.46 214.346 239.118 215.506 237.633C225.54 237.621 235.591 237.678 245.596 236.827C252.422 236.212 259.314 235.103 265.627 232.328C275.909 227.624 285.434 220.095 290.128 209.57C292.639 203.939 293.961 197.356 293.279 191.2L293.282 191.203ZM284.739 172.132C285.434 173.521 285.443 175.149 285.616 176.672C285.813 179.629 285.609 182.628 285.08 185.544C284.784 187.009 283.885 190.416 282.419 191.021C280.801 190.005 280.39 183.396 280.546 181.484C280.603 180.984 280.594 180.451 280.804 179.989C281.53 178.358 282.241 176.717 283.041 175.117C283.551 174.158 284.041 173.011 284.739 172.132ZM268.249 158.876C269.403 158.003 270.572 157.088 271.815 156.33C271.888 156.279 271.961 156.256 272.035 156.256C272.809 156.256 273.523 158.866 273.708 159.446C274.125 160.571 276.285 173.839 274.399 173.052C270.222 172.479 261.65 170.009 258.489 167.377C261.583 164.411 264.804 161.476 268.246 158.879L268.249 158.876ZM245.443 144.912C248.582 145.26 251.749 145.731 254.843 146.391C255.286 146.582 256.628 146.579 256.456 147.254C256.163 149.303 255.337 151.263 254.397 153.102C253.693 154.44 252.855 155.794 251.944 157.101C251.485 157.754 250.959 158.474 250.459 159.194C250.414 159.268 250.36 159.344 250.303 159.427C248.633 155.186 246.737 151.03 244.698 147.019C244.299 146.263 243.863 145.527 243.455 144.779C244.118 144.82 244.78 144.852 245.443 144.919V144.912ZM231.27 122.237C234.246 122.441 237.225 122.585 240.198 122.843C240.874 122.922 241.616 122.951 242.276 123.203C242.7 123.496 242.349 124.391 242.292 124.825C241.553 127.791 240.418 130.615 239.185 133.425C238.847 134.193 238.522 134.967 238.197 135.742C235.294 131.073 232.197 126.526 228.924 122.11C229.705 122.161 230.489 122.183 231.273 122.237H231.27ZM215.385 100.661C216.771 100.614 218.173 100.582 219.588 100.553C221.595 100.512 223.613 100.467 225.614 100.661C226.095 100.722 226.78 100.786 227.267 100.99C227.895 101.401 228.192 102.162 228.201 102.892C228.15 105.221 227.226 107.449 226.219 109.545C225.486 111.065 224.699 112.534 223.912 114.035C223.769 114.312 223.622 114.593 223.479 114.873C219.974 110.23 216.535 105.537 213.314 100.696C214.005 100.693 214.697 100.677 215.385 100.658V100.661ZM202.821 77.1418C204.694 77.196 206.568 77.2151 208.438 77.2884C210.089 77.3744 211.628 77.4509 213.285 77.7887C213.839 77.8396 213.836 78.2348 213.801 78.6872C213.68 79.6368 213.326 80.5354 213.014 81.434C211.634 85.1208 209.821 88.61 207.913 92.0515C205.077 87.2048 202.613 82.1669 200.255 77.0717C201.109 77.1099 201.963 77.1259 202.817 77.1482L202.821 77.1418ZM190.062 55.8304C190.533 55.6456 191.011 55.4704 191.486 55.2951C192.907 54.7693 194.338 54.2754 195.785 53.8261C196.824 53.5521 197.862 53.106 198.949 53.1092C200.921 53.3896 200.463 55.7763 200.144 57.1752C199.733 59.001 198.974 60.7759 198.101 62.4456C197.461 63.6788 196.658 64.9502 195.925 66.1579C195.794 66.3714 195.676 66.5945 195.549 66.808C195.329 66.33 195.109 65.852 194.886 65.374C193.42 62.0983 191.674 58.9628 189.702 55.9738C189.826 55.9292 189.953 55.8782 190.059 55.8336L190.062 55.8304ZM212.154 18.5228C209.273 20.4507 207.693 23.583 206.176 26.6421C206.036 26.5943 205.892 26.556 205.762 26.521C203.624 25.6287 201.603 23.924 200.877 21.6584C200.858 21.5755 200.826 21.4863 200.797 21.3971C202.403 20.132 204.194 19.1187 206.185 18.5866C208.085 18.166 210.296 17.6147 212.151 18.5228H212.154ZM199.8 22.2447C200.638 24.8194 203.053 26.932 205.612 27.7733C205.437 28.1206 205.265 28.4679 205.083 28.8057C204.277 30.3639 203.381 31.8584 202.492 33.372C202.139 33.9646 201.782 34.5573 201.418 35.15C201.065 35.1309 200.724 35.1022 200.351 35.0321C197.429 34.4426 195.103 32.0527 194.08 29.3187C194.064 29.2773 194.054 29.2359 194.042 29.1944C194.717 28.1652 195.406 27.1487 196.18 26.1896C197.247 24.8034 198.455 23.446 199.803 22.2447H199.8ZM191.604 32.7952C192.158 32.0464 192.678 31.2689 193.188 30.4882C193.449 31.0522 193.803 31.5939 194.067 32.04C195.527 34.312 197.955 35.9944 200.641 36.3673C199.908 37.4698 199.115 38.5277 198.175 39.4614C196.537 41.1311 194.532 42.3228 192.382 43.1832C192.324 43.1641 192.27 43.1418 192.216 43.1227C191.422 42.8486 190.658 42.4885 189.96 42.0169C188.006 40.6404 186.496 38.6361 185.597 36.4246C186.232 36.2685 186.859 36.0646 187.465 35.7905C189.052 35.1277 190.54 34.159 191.604 32.792V32.7952ZM184.412 36.6381C184.626 37.5718 185.298 38.6839 185.639 39.2606C186.866 41.1757 188.555 42.804 190.597 43.7982C190.208 43.9161 189.829 44.0531 189.437 44.1519C186.588 44.9358 183.443 45.3245 180.929 47.0198C180.429 47.3575 179.986 47.7558 179.569 48.1765C178.989 47.9279 178.415 47.6571 177.886 47.3065C175.353 45.4297 173.09 42.9856 171.88 40.0381C171.873 40.0254 171.867 40.0126 171.86 39.9967C172.256 39.6111 172.657 39.2288 173.062 38.8496C173.486 38.6074 173.922 38.378 174.378 38.1804C176.143 37.4252 178.045 37.0205 179.961 36.9568C180.381 36.9472 183.797 36.7369 184.415 36.6381H184.412ZM170.815 40.5352C171.159 41.4561 171.908 42.8423 172.221 43.3298C173.065 44.6044 174.161 45.777 175.315 46.8445C176.309 47.7941 177.43 48.6194 178.689 49.1738C178.304 49.6741 177.947 50.1967 177.634 50.748C177.077 51.6689 176.551 52.7905 175.646 53.4629C173.855 54.747 171.599 55.4991 169.388 55.1772C167.243 54.9988 165.72 53.1538 164.927 51.2961C164.707 50.0278 165.299 48.7787 165.736 47.6093C166.6 45.3978 168.307 43.1195 170.815 40.532V40.5352ZM174.397 38.174C174.397 38.174 174.397 38.174 174.394 38.174H174.397ZM180.101 32.8589C180.818 32.4001 181.108 34.484 181.203 35.6376C180.158 35.6662 179.113 35.6917 178.077 35.8415C177.325 35.9371 176.583 36.1124 175.856 36.3195C177.223 35.1054 178.609 33.9105 180.101 32.8589ZM154.819 35.5898C155.37 34.0029 155.957 32.365 156.562 30.7781C156.712 30.383 157.518 28.3883 157.553 28.3691C157.942 29.4972 158.372 30.6156 158.78 31.7628C159.382 33.4994 159.946 35.3062 160.437 37.0906C161.151 39.6557 161.759 42.3579 161.259 45.0378C161.179 45.4201 161.052 45.9395 160.813 46.306C160.179 47.0261 159.258 47.5455 158.305 47.6857C156.836 47.7367 155.396 47.2842 154.092 46.631C153.286 46.1753 152.079 45.5667 151.932 44.5152C152.703 41.4752 153.822 38.5755 154.813 35.5898H154.819ZM138.549 45.5253C138.271 44.9708 138.055 44.3845 137.873 43.7918C137.433 42.2368 137.121 40.5862 137.092 38.942C137.733 39.2957 138.514 39.4996 139.129 39.6398C141.576 40.0604 144.09 39.694 146.458 38.9706C146.384 39.353 146.286 39.729 146.257 40.121C146.193 40.7296 146.209 41.3446 146.238 41.9564C143.634 43.0558 141.076 44.2634 138.549 45.5253ZM155.192 22.7896C154.65 23.0286 154.21 23.1879 153.589 23.3217C151.76 23.6914 149.823 23.2644 148.217 22.3148C148.185 22.2829 148.153 22.2702 148.118 22.2447C148.395 21.0211 148.443 19.7273 148.395 18.4846C148.357 17.398 148.376 16.305 148.43 15.2184C148.452 15.2344 148.475 15.2535 148.5 15.2694C149.032 15.6359 149.625 15.9035 150.243 16.0756C151.543 16.4675 152.958 16.3815 154.226 15.9099C154.653 15.7538 155.068 15.5594 155.469 15.3491C155.501 15.3363 155.552 15.3045 155.59 15.2854C155.807 17.1176 155.874 18.9626 155.641 20.8044C155.561 21.4481 155.453 22.0885 155.329 22.7258C155.284 22.7481 155.233 22.7705 155.192 22.7896ZM155.804 1.77457C155.409 3.17664 154.889 4.55321 154.758 6.01581C154.752 6.07317 154.755 6.13053 154.749 6.19107C154.28 6.30897 153.799 6.51609 153.522 6.55752C152.681 6.76145 151.824 6.45874 151.234 5.85967C152.385 4.1294 153.895 2.64449 155.804 1.77457ZM150.546 7.00681C150.954 7.34777 151.502 7.59313 151.919 7.7429C152.356 7.91497 153.659 7.8831 154.669 7.60269C154.657 9.32659 154.911 11.0473 155.224 12.7489C155.243 12.8764 155.265 13.007 155.284 13.1345C155.284 13.1281 155.284 13.1217 155.284 13.1153C155.332 13.3989 155.37 13.6857 155.412 13.9725C155.115 14.0904 154.832 14.2306 154.666 14.3262C153.92 14.7022 153.117 14.989 152.276 15.04C151.033 15.1228 149.81 14.7022 148.774 14.0299C148.707 13.9916 148.618 13.9215 148.519 13.8387C148.691 12.1498 149.029 10.4833 149.657 8.88048C149.912 8.24318 150.211 7.61862 150.546 7.00681ZM147.044 24.7429C147.353 24.3287 147.586 23.8794 147.774 23.4173C148.765 24.1152 149.985 24.4752 151.17 24.6601C151.531 24.711 151.897 24.7365 152.263 24.7365C153.108 24.7365 153.952 24.5995 154.752 24.335C154.803 24.3095 154.889 24.284 154.953 24.2586C154.711 25.087 154.411 25.8996 153.994 26.6739C152.786 28.8599 150.791 30.4595 149.399 32.5212C149.236 32.7474 149.093 32.9928 148.94 33.2254C148.867 33.1776 148.777 33.1425 148.672 33.1266C148.175 33.0979 147.691 32.9896 147.219 32.8302C145.358 32.1165 143.641 30.8737 142.484 29.2391C142.411 29.1498 142.357 29.0383 142.299 28.9332C143.972 27.6267 145.718 26.4955 147.041 24.7429H147.044ZM141.388 29.717C141.515 29.9337 141.646 30.1377 141.748 30.3034C143.201 32.2503 145.753 34.0284 148.22 34.3502C147.637 35.354 147.162 36.4151 146.808 37.5144C144.182 38.2887 140.668 38.9483 138.045 38.0975C137.723 37.986 137.427 37.8299 137.131 37.6706C137.21 36.7019 137.398 35.7459 137.758 34.8314C138.546 32.8749 139.82 31.1287 141.388 29.717ZM127.444 53.0773C125.717 52.5452 123.817 50.372 125.634 48.8361C127.928 47.3703 130.633 46.6533 133.167 45.6751C133.998 45.3819 134.891 45.0792 135.745 44.8051C135.996 44.6681 136.334 44.6076 136.662 44.5279C136.732 45.1939 136.879 45.8025 137.121 46.3283C134.534 47.8578 132.255 49.8526 129.926 51.7422C129.489 52.099 128.919 52.6408 128.317 53.2334C127.954 53.1665 127.52 53.1028 127.447 53.0741L127.444 53.0773ZM127.966 55.601C128.39 55.5883 128.817 55.5723 129.19 55.7954C129.537 56.0121 129.556 56.506 129.426 56.8565C129.228 57.1783 128.804 57.2357 128.467 57.3154C127.801 57.4396 127.125 57.5129 126.453 57.5894C126.22 57.6149 125.991 57.634 125.758 57.6531C125.959 57.4428 126.15 57.2389 126.303 57.0668C126.778 56.5761 127.256 56.0854 127.734 55.5946C127.813 55.5946 127.89 55.601 127.97 55.601H127.966ZM164.136 86.4623C164.27 86.9244 164.449 87.38 164.551 87.8389C165.392 90.2543 166.434 92.5804 167.568 94.8619C167.485 94.9097 167.406 94.9671 167.32 95.0117C166.367 95.5184 165.366 95.939 164.359 96.3277C163.821 96.5317 163.279 96.7292 162.737 96.9172C160.724 97.6087 158.678 98.2046 156.607 98.7113C154.825 99.1446 152.939 99.5429 151.033 99.7596C150.45 99.8233 149.867 99.868 149.281 99.8584C149.096 99.852 148.908 99.8393 148.723 99.8138C148.656 99.801 148.593 99.7883 148.529 99.7692C148.51 99.7628 148.491 99.7564 148.471 99.7469C148.446 99.7182 148.401 99.715 148.37 99.6927C149.08 99.135 149.784 98.5774 150.473 98.0102C155.106 94.2565 159.777 90.541 164.133 86.4623H164.136ZM149.02 107.595C149.166 105.941 149.074 104.269 148.825 102.627C148.73 102.114 148.65 101.57 148.503 101.053C148.656 101.079 148.809 101.114 148.962 101.123C149.131 101.133 149.303 101.139 149.472 101.139C149.641 101.139 149.826 101.133 150.001 101.127C151.212 101.066 152.42 100.881 153.615 100.665C154.65 100.473 155.683 100.25 156.705 100.005C158.799 99.4983 160.867 98.9056 162.906 98.2142C163.98 97.8509 165.048 97.4526 166.09 97.0097C166.788 96.7101 167.476 96.3724 168.135 95.99C170.793 101.168 173.884 106.149 176.417 111.387C176.006 111.661 175.582 111.916 175.143 112.146C168.734 115.3 161.472 116.74 154.328 116.517C152.314 116.444 150.132 116.103 148.131 115.606C147.952 115.571 147.764 115.504 147.579 115.475C148.268 112.894 148.781 110.269 149.016 107.598L149.02 107.595ZM177.806 137.905C176.583 137.077 175.436 136.143 174.25 135.26C173.176 134.486 172.045 133.804 170.92 133.103C175.519 132.224 180.043 130.933 184.527 129.126C186.528 133.954 188.382 138.842 190.071 143.784C189.421 143.609 188.774 143.431 188.128 143.243C186.471 142.755 184.826 142.185 183.313 141.347C181.449 140.251 179.623 139.084 177.806 137.908V137.905ZM156.954 133.779C157.19 132.89 157.547 132.033 158.066 131.274C159.443 129.541 161.922 129.375 163.936 129.837C164.414 129.974 164.863 130.178 165.303 130.407C164.149 130.181 162.964 130.188 161.788 130.608C159.57 131.242 158.139 132.205 156.957 133.776L156.954 133.779ZM146.91 131.089C148.016 130.331 149.364 129.588 150.409 129.764C151.397 130.012 152.232 130.662 152.987 131.325C153.984 132.249 154.784 133.419 154.988 134.786C154.468 133.938 153.841 133.081 153.06 132.469C151.298 131.249 149.045 130.825 146.913 131.089H146.91ZM172.026 131.634C172.026 131.634 172.033 131.634 172.036 131.634C171.156 131.819 170.277 131.962 169.394 132.115C169.378 132.106 169.365 132.096 169.349 132.087C169.308 132.064 169.267 132.042 169.228 132.017C168.043 130.866 166.749 129.767 165.239 129.063C163.235 128.25 160.478 128.282 158.585 129.41C157.196 130.178 156.447 131.755 156.043 133.263C156.03 133.361 155.995 133.517 155.953 133.693C155.307 131.682 153.71 130.038 151.865 129.05C150.428 128.218 148.94 128.559 147.582 129.385C146.458 130.044 145.371 130.793 144.431 131.701C143.692 132.007 143 132.418 142.344 132.883C141.853 132.845 141.366 132.807 140.875 132.765C141.926 130.544 142.949 128.308 143.896 126.039C145.164 122.992 146.337 119.882 147.254 116.702C147.646 116.878 148.146 116.878 148.545 117.018C150.469 117.457 152.343 117.722 154.373 117.802C162.091 117.983 170.245 116.447 176.991 112.544C179.489 117.594 181.847 122.722 184.036 127.922C180.129 129.442 176.149 130.79 172.029 131.641L172.026 131.634ZM140.273 133.995C140.473 134.011 140.677 134.03 140.878 134.046C140.454 134.429 140.062 134.84 139.664 135.251C139.868 134.833 140.072 134.416 140.273 133.999V133.995ZM135.741 154.039C136.869 154.297 137.997 154.561 139.138 154.762C141.627 155.198 144.135 155.501 146.652 155.724C149.338 155.96 152.031 156.081 154.727 156.113C155.224 156.119 155.724 156.123 156.221 156.123C158.42 156.123 160.622 156.059 162.817 155.928C164.611 155.823 166.424 155.68 168.231 155.485C170.895 155.198 173.556 154.819 176.185 154.297C176.255 154.284 176.411 154.252 176.567 154.22C177.74 153.984 178.903 153.698 180.066 153.401C180.623 153.624 181.168 153.879 181.713 154.134C183.405 154.991 185.234 156.011 186.977 156.862C189.036 157.885 191.145 158.758 193.287 159.554C194.007 162.043 194.539 164.592 194.886 167.173C194.628 167.355 194.373 167.54 194.105 167.712C192.981 168.422 191.808 169.05 190.603 169.617C188.873 170.42 187.012 171.125 185.113 171.733C185.053 171.752 184.989 171.771 184.928 171.791C182.083 172.68 179.17 173.336 176.236 173.846C175.009 174.053 173.763 174.238 172.514 174.397C169.633 174.76 166.733 174.98 163.834 175.089C162.094 175.146 160.268 175.168 158.439 175.143C155.412 175.098 152.388 174.932 149.376 174.639C149.325 174.636 149.246 174.627 149.163 174.62C149.125 174.617 149.026 174.604 148.924 174.598C147.735 174.474 146.464 174.324 145.193 174.152C142.098 173.728 139.027 173.164 135.987 172.453C135.579 172.358 135.174 172.259 134.766 172.157C131.953 171.456 129.174 170.599 126.459 169.582C125.943 169.388 125.436 169.174 124.926 168.967C125.962 165.449 127.151 161.97 128.549 158.567C128.916 157.668 129.301 156.779 129.687 155.893C131.736 155.406 133.753 154.775 135.738 154.045L135.741 154.039ZM140.738 152.015C140.738 152.015 140.751 152.015 140.76 152.015C140.786 152.002 140.814 151.986 140.84 151.974C141.021 151.894 141.209 151.818 141.391 151.738C141.506 151.693 141.582 151.623 141.643 151.547C142.618 151.034 143.615 150.562 144.708 150.377C145.801 150.18 146.932 150.138 148.045 150.224C150.775 150.247 152.939 152.238 155.577 152.598C155.836 152.64 156.145 152.595 156.428 152.487C156.989 153.035 157.884 152.907 158.573 152.652C159.261 152.433 159.965 152.178 160.673 151.948C162.473 151.422 164.343 150.878 166.236 151.002C169.735 151.34 173.068 152.703 176.589 152.904C176.36 152.952 176.134 153.009 175.904 153.054C174.266 153.373 172.603 153.647 170.93 153.87C168.301 154.22 165.663 154.475 163.015 154.638C162.989 154.638 162.875 154.644 162.763 154.654C160.465 154.778 158.168 154.848 155.871 154.842C153.175 154.835 150.479 154.733 147.793 154.536C146.627 154.443 145.463 154.338 144.3 154.204C142.149 153.962 140.011 153.627 137.889 153.21C138.848 152.824 139.801 152.426 140.741 152.015H140.738ZM193.608 185.76C190.591 187.876 188.277 190.833 186.2 193.841C185.26 195.208 184.425 196.645 183.686 198.133C183.657 198.143 183.628 198.153 183.6 198.162H183.593C183.577 198.168 183.558 198.175 183.539 198.181C182.137 198.618 180.678 198.949 179.199 199.207C179.196 199.207 179.177 199.21 179.158 199.214C179.151 199.214 179.142 199.214 179.135 199.217C178.963 199.245 178.775 199.277 178.587 199.306C175.942 199.72 173.269 199.937 170.592 200.036C168.307 200.119 165.934 200.115 163.56 200.036C160.714 199.943 157.875 199.755 155.042 199.481C155.026 199.481 154.978 199.475 154.931 199.469C154.883 199.462 154.838 199.459 154.79 199.456C154.233 199.402 153.592 199.335 152.949 199.261C150.189 198.943 147.433 198.564 144.695 198.095C142.073 197.643 139.463 197.12 136.866 196.521C136.777 196.499 136.758 196.496 136.739 196.492C135.381 196.171 134.027 195.83 132.682 195.46C130.194 194.775 127.731 194 125.312 193.096H125.302C125.283 193.086 125.267 193.08 125.248 193.073C125.248 193.073 125.223 193.064 125.2 193.054C125.197 193.054 125.194 193.054 125.188 193.051C125.178 193.048 125.159 193.041 125.143 193.035L125.118 193.025C125.118 193.025 125.105 193.019 125.095 193.019C123.655 192.468 122.234 191.843 120.841 191.161C121.405 184.068 122.616 177.036 124.547 170.181C126.564 171.003 128.623 171.736 130.707 172.361C133.594 173.228 136.528 173.938 139.489 174.505C142.592 175.101 145.718 175.56 148.863 175.869C148.953 175.879 149.083 175.892 149.211 175.904C149.44 175.927 149.752 175.955 150.065 175.984C153.073 176.258 156.094 176.398 159.114 176.43C159.452 176.43 159.79 176.436 160.128 176.436C162.814 176.436 165.5 176.331 168.177 176.124C171.054 175.898 173.922 175.551 176.764 175.054C179.728 174.531 182.663 173.846 185.534 172.941C186.894 172.514 188.293 172.004 189.663 171.434C191.528 170.656 193.334 169.707 195.03 168.591C195.265 170.749 195.415 172.915 195.421 175.079C195.412 177.95 195.202 180.821 194.791 183.663C194.727 184.157 194.644 184.651 194.561 185.142C194.211 185.362 193.879 185.575 193.608 185.763V185.76ZM181.159 221.35C180.881 221.417 180.601 221.481 180.324 221.545C179.696 221.685 179.068 221.806 178.434 221.917C178.383 221.927 178.329 221.933 178.278 221.943C178.182 221.959 178.084 221.975 177.988 221.988C175.394 222.405 172.762 222.58 170.137 222.669C169.987 222.673 169.821 222.679 169.652 222.682C167.001 222.756 164.347 222.708 161.702 222.583C158.977 222.456 156.259 222.249 153.548 221.968C153.471 221.962 153.35 221.949 153.226 221.933C152.611 221.866 151.935 221.793 151.263 221.714C148.567 221.385 145.874 221.003 143.201 220.535C140.534 220.066 137.876 219.531 135.241 218.903C135.197 218.893 135.117 218.874 135.04 218.855L135.009 218.849C134.282 218.674 133.559 218.492 132.835 218.301C130.245 217.616 127.673 216.838 125.165 215.889C125.105 215.866 124.965 215.812 124.828 215.758C123.716 215.331 122.575 214.818 121.45 214.257C121.09 211.976 120.87 209.665 120.692 207.371C120.363 202.426 120.405 197.467 120.733 192.535C122.036 193.156 123.381 193.736 124.761 194.255C124.77 194.259 124.812 194.275 124.853 194.29C126.153 194.784 127.469 195.234 128.795 195.651C131.331 196.448 133.9 197.146 136.487 197.748C136.525 197.757 136.564 197.767 136.602 197.777C137.22 197.923 137.88 198.07 138.536 198.213C141.168 198.79 143.822 199.281 146.486 199.692C149.246 200.119 152.015 200.475 154.794 200.746C154.797 200.746 154.886 200.756 154.975 200.762C157.355 200.998 159.784 201.164 162.212 201.269C163.805 201.336 165.405 201.377 167.001 201.377C168.167 201.377 169.337 201.355 170.5 201.307C170.474 201.307 170.538 201.307 170.599 201.304C172.055 201.253 173.527 201.161 174.993 201.02C177.673 200.762 180.368 200.361 182.94 199.545C182.972 199.535 183 199.523 183.032 199.51C181.359 203.26 180.317 207.301 180.034 211.408C179.779 214.754 180.19 218.135 181.149 221.347L181.159 221.35ZM112.136 193.472C111.976 193.892 111.817 194.313 111.68 194.74C111.565 194.453 111.454 194.166 111.333 193.883C111.588 193.752 111.859 193.615 112.136 193.468V193.472ZM106.569 191.215C108.436 190.17 110.033 194.01 110.6 195.457C110.619 195.53 110.613 195.603 110.641 195.68C110.785 196.046 110.957 196.432 111.126 196.805C111.024 197.241 110.922 197.681 110.842 198.121C110.823 198.219 110.817 198.318 110.801 198.417C110.641 198.529 110.479 198.634 110.313 198.742C109.424 199.376 108.357 199.934 107.299 200.294C107.299 200.294 107.295 200.294 107.283 200.3C107.283 200.3 107.283 200.3 107.286 200.3C106.005 200.765 104.612 201.024 103.258 200.772C103.038 200.73 102.831 200.641 102.624 200.552C102.955 199.978 103.108 199 103.357 198.605C104.396 196.148 105.161 193.484 106.572 191.222L106.569 191.215ZM83.3776 201.075C84.4896 198.92 84.6904 195.753 87.5997 198.404C89.2503 199.883 90.6747 201.524 91.7358 203.496C92.1468 204.032 91.6784 204.567 91.3024 204.968C90.031 205.864 88.5939 206.492 87.1376 207.021C86.1626 207.393 85.1461 207.715 84.1296 207.967C83.1163 208.18 81.5103 208.569 80.8857 207.492C80.908 207.24 80.9909 206.992 81.0737 206.743C81.2362 206.396 81.335 205.975 81.5039 205.698C82.1157 204.15 82.7052 202.594 83.3744 201.068L83.3776 201.075ZM63.5224 206.935C65.5554 206.915 67.9421 209.688 69.0988 211.22C69.5832 211.702 69.3697 212.116 68.965 212.466C68.828 212.536 68.6973 212.622 68.5858 212.724C68.4392 212.833 68.2831 212.928 68.1333 213.033C68.0027 213.113 67.8752 213.186 67.7732 213.253C67.5374 213.355 67.2443 213.48 67.0499 213.658C66.1162 214.146 65.1284 214.506 64.1088 214.78C63.3567 214.968 62.5601 215.188 61.789 215C61.3652 214.92 61.2568 214.617 61.3301 214.225C61.3365 214.104 61.3684 213.929 61.4034 213.735C61.6551 212.941 61.6774 212.03 61.9164 211.243C62.3498 210.003 62.216 207.511 63.5224 206.931V206.935ZM62.576 225.378C58.5897 224.836 47.1247 225.929 47.9181 219.725C49.4986 216.593 55.2248 213.836 60.5207 211.851C60.4347 212.297 60.3391 212.737 60.2531 213.199C60.1734 213.425 60.1384 213.693 60.1575 213.935C59.9663 215.219 60.5144 216.137 62.012 216.296C62.1395 216.309 62.2638 216.312 62.3912 216.312C63.1273 216.312 63.857 216.128 64.5644 215.94C65.8645 215.605 67.1136 215.159 68.248 214.461C68.5826 214.276 68.9044 214.04 69.1498 213.91C70.7399 212.9 71.2784 211.67 69.9114 210.156C69.6278 209.79 69.3219 209.433 69.0096 209.082C72.8047 207.964 76.603 206.858 80.3918 205.72C80.2612 206.055 80.1273 206.39 79.9935 206.724C79.9807 206.775 79.9999 206.826 80.003 206.877C79.9552 207.036 79.8979 207.193 79.8692 207.355C79.7864 208.008 80.3153 208.55 80.8347 208.856C81.3286 209.13 81.9086 209.238 82.5268 209.238C84.1391 209.238 86.016 208.502 87.3256 208.066C89.0336 207.428 90.783 206.747 92.2201 205.593C92.2297 205.58 92.2265 205.568 92.236 205.555C92.7076 205.08 93.0613 204.169 92.9498 203.748C92.7108 203.133 92.3731 202.486 91.9716 201.839C95.4417 200.638 98.8863 199.351 102.251 197.882C101.761 199.185 101.416 200.326 101.55 200.73C101.515 200.855 101.522 200.992 101.579 201.122C101.904 201.747 102.691 201.935 103.331 202.053C103.688 202.101 104.045 202.123 104.402 202.123C106.591 202.123 108.698 201.259 110.558 200.08C109.66 205.963 109.66 212.068 110.463 217.96C110.622 219.203 110.82 220.442 111.017 221.678C94.9605 223.82 78.8145 226.082 62.5729 225.375L62.576 225.378ZM126.555 230.132C126.172 230.633 125.739 231.088 125.271 231.506C123.129 233.386 120.229 233.991 117.515 234.552C113.729 235.307 109.928 236.005 106.145 236.783C104.479 237.104 102.716 237.55 101.126 238.258C98.848 239.243 96.866 240.778 94.5718 241.728C95.3397 240.31 96.4327 239.115 97.6212 238.038C98.1598 237.611 98.198 236.696 97.3982 236.575C97.0062 236.531 96.6143 236.642 96.2351 236.722C94.524 237.079 93.0327 237.815 91.296 238.172C91.8792 237.554 92.5324 237.006 93.2334 236.521C93.7401 236.126 94.4252 235.922 94.8235 235.409C95.0465 235.059 94.8808 234.546 94.4857 234.405C94.1894 234.3 93.8675 234.345 93.5616 234.37C92.5388 234.485 91.5159 234.635 90.4835 234.654C92.5897 233.083 95.3046 232.662 97.806 232.031C100.856 231.286 103.892 230.476 106.859 229.447C110.597 228.109 113.487 227.099 112.426 222.408C111.451 216.66 110.807 210.816 111.275 204.984C111.747 199.351 112.432 193.115 116.415 188.749C117.384 187.634 118.63 186.636 120.035 186.028C119.975 186.535 119.895 187.038 119.841 187.545C119.194 194.125 118.987 200.775 119.426 207.381C119.771 211.819 120.22 216.319 121.619 220.563C122.807 223.957 124.544 227.14 126.72 229.995C126.666 230.033 126.612 230.069 126.561 230.129L126.555 230.132ZM158.245 241.894C152.761 241.951 147.181 241.39 141.961 239.574C132.947 236.604 126.102 229.237 122.906 220.398C122.403 218.906 122.052 217.374 121.756 215.831C122.75 216.293 123.76 216.72 124.783 217.112C125.49 217.383 126.284 217.66 127.077 217.928C129.591 218.776 132.153 219.483 134.734 220.098L134.821 220.12C135.557 220.299 136.309 220.471 137.061 220.636C139.737 221.226 142.433 221.726 145.142 222.16C147.818 222.587 150.508 222.944 153.2 223.221C153.414 223.243 153.71 223.275 154.01 223.304C156.702 223.571 159.401 223.772 162.103 223.88C163.703 223.947 165.303 223.982 166.902 223.982C167.995 223.982 169.091 223.966 170.184 223.928C171.768 223.88 173.361 223.775 174.951 223.619C176.251 223.488 177.555 223.316 178.839 223.065C179.454 222.944 180.066 222.816 180.668 222.647C180.945 222.571 181.216 222.488 181.487 222.395C182.443 225.394 183.638 228.329 184.307 231.41C184.367 231.678 184.597 232.924 184.549 233.529C184.555 233.803 184.485 234.131 184.489 234.421C183.153 235.696 181.582 236.69 179.929 237.503C173.269 240.858 165.679 241.964 158.245 241.9V241.894ZM286.38 213.84C282.419 219.942 276.798 224.728 270.518 228.357C267.873 229.887 265.149 231.289 262.258 232.296C252.39 235.664 241.83 235.954 231.49 236.241C226.627 236.356 221.761 236.365 216.895 236.356C216.736 236.356 216.58 236.356 216.421 236.356C219.569 231.85 221.675 226.286 222.752 221.28C223.119 219.505 223.377 217.526 223.415 215.685C223.44 214.726 223.425 213.766 223.396 212.807C223.383 212.46 223.112 212.167 222.755 212.167C222.398 212.167 222.105 212.457 222.115 212.807C222.156 214.187 222.166 215.567 222.077 216.947C221.984 218.294 221.764 219.69 221.487 221.076C219.938 228.182 216.226 236.837 210.105 241.113C208.212 242.311 206.182 243.318 204.073 244.07C202.467 244.625 200.842 245.115 199.213 245.596C195.903 246.642 192.439 247.011 189.023 247.623C182.134 248.933 175.136 250.268 168.798 253.387C169.856 251.75 171.185 250.22 172.268 248.589C172.966 247.677 172.558 246.581 171.322 246.944C169.499 247.46 167.734 248.181 166.055 249.057C166.909 247.856 168.069 246.932 169.063 245.861C169.518 245.22 169.075 244.548 168.311 244.628C167.243 244.701 166.188 244.905 165.146 245.141C166.574 244.15 170.583 242.426 172.147 241.687C172.166 241.674 172.147 241.667 172.157 241.658C175.802 240.766 179.326 239.446 182.586 237.493C183.612 236.853 184.584 236.113 185.451 235.266C185.496 235.218 185.515 235.167 185.543 235.119C185.562 235.097 185.585 235.087 185.607 235.049C185.668 234.944 185.715 234.686 185.766 234.354C186.002 232.414 185.438 230.489 184.906 228.641C183.51 224.091 181.49 219.652 181.283 214.827C181.022 209.171 182.417 203.464 184.97 198.395C186.964 194.612 189.514 191.075 192.656 188.128C194.893 186.225 197.518 184.578 200.453 184.106C200.931 183.906 200.848 183.214 200.389 183.048C199.191 182.841 197.48 183.511 195.973 184.314C196.119 183.335 196.256 182.357 196.358 181.372C196.929 176.016 196.785 170.522 195.861 165.194C195.546 163.496 195.269 161.753 194.771 160.09C197.531 161.208 204.06 162.919 207.027 163.668C207.02 163.668 207.014 163.668 207.011 163.665C207.011 163.665 207.008 163.665 207.004 163.665C209.691 164.328 212.409 164.847 215.133 165.331C219.394 166.198 222.959 165.265 224.039 160.615C225.515 152.923 218.377 140.732 214.968 133.721C213.836 131.59 212.689 129.487 211.459 127.418C211.424 127.288 211.373 127.157 211.293 127.049C210.86 126.265 210.389 125.5 209.92 124.735C207.878 121.584 206.192 118.181 203.824 115.256C203.394 114.615 202.432 114.851 202.677 115.663C205.118 119.172 207.298 122.862 209.493 126.529C209.55 126.628 209.605 126.73 209.672 126.826C209.828 127.084 209.981 127.342 210.137 127.6C212.46 131.577 214.601 135.656 216.605 139.801C218.67 143.979 220.697 148.201 222.042 152.675C223.539 157.55 224.062 165.201 216.755 164.267C210.803 163.41 200.784 160.848 193.481 158.273C191.336 157.518 189.272 156.556 187.226 155.562C185.849 154.873 184.498 154.141 183.134 153.43C181.933 152.834 180.741 152.152 179.428 151.84C178.396 151.63 177.335 151.687 176.29 151.623C175.158 151.508 174.04 151.282 172.925 151.062C170.462 150.562 167.944 149.667 165.363 149.705C163.627 149.804 161.919 150.227 160.262 150.741C159.586 150.957 158.898 151.209 158.2 151.435C157.91 151.512 157.598 151.665 157.292 151.604C157.158 151.097 157.317 150.556 157.454 150.062C157.461 150.039 157.47 150.011 157.477 149.985C158.824 147.117 162.585 147.643 165.06 146.458C166.803 145.575 167.352 143.485 167.313 141.646C167.32 140.579 166.883 139.537 166.182 138.715C168.907 139.846 170.235 142.711 171.698 145.084C172.122 145.668 173.008 145.12 172.689 144.482C172.335 143.823 171.943 143.185 171.561 142.542C170.34 140.56 168.849 138.463 166.552 137.612C165.143 137.061 163.598 137.007 162.1 137.026C160.918 137.058 159.736 137.185 158.563 136.917C158.541 136.917 158.512 136.898 158.49 136.892C158.534 136.857 158.576 136.815 158.624 136.787C159.118 136.404 159.624 136.038 160.15 135.7C161.16 135.117 162.215 134.843 163.378 134.604C164.43 134.457 165.548 134.438 166.555 134.83C168.237 135.535 169.662 136.723 171.172 137.714C171.921 138.007 172.319 137.003 171.634 136.627C169.639 135.289 167.689 133.489 165.172 133.368C163.923 133.288 162.696 133.6 161.517 133.979C160.054 134.413 158.758 135.28 157.607 136.261C157.448 136.408 157.273 136.554 157.174 136.752C157.062 136.965 157.167 137.227 157.368 137.351C157.633 137.88 158.582 138.096 159.114 138.141C160.013 138.259 161.087 138.182 162.024 138.141C162.731 138.141 163.451 138.157 164.159 138.237C164.187 138.272 164.21 138.313 164.245 138.345C164.7 138.903 165.252 139.384 165.644 139.989C165.959 140.525 166.074 141.152 166.096 141.764C166.109 143.036 165.838 144.568 164.688 145.301C163.104 146.088 161.256 146.075 159.621 146.726C158.512 147.162 157.448 147.825 156.779 148.832C156.403 148.21 155.963 147.627 155.383 147.184C154.185 146.184 152.614 145.881 151.228 145.139C149.096 143.877 148.672 142.516 148.682 140.133C148.663 139.916 148.688 139.667 148.672 139.435C149.01 139.32 149.338 139.193 149.676 139.081C150.804 138.68 152.072 138.441 152.99 137.628C154.102 136.561 153.006 135.477 151.894 135.069C150.747 134.626 149.513 134.528 148.287 134.585C148.287 134.48 148.287 134.371 148.271 134.269C148.255 134.078 148.252 133.878 148.14 133.715C147.853 133.263 147.194 133.451 147.108 133.954C147.082 134.19 147.085 134.442 147.127 134.681C146.846 134.716 146.566 134.744 146.292 134.792C145.432 134.919 141.57 135.86 141.745 136.937C141.793 137.182 142.012 137.322 142.248 137.316C143.249 137.029 144.205 136.519 145.244 136.293C147.286 135.837 150.393 135.276 152.152 136.675C151.849 136.988 151.441 137.128 151.046 137.29C150.447 137.517 149.832 137.705 149.224 137.905C147.943 138.335 146.662 138.766 145.422 139.301C144.864 139.623 143.456 139.967 143.924 140.843C144.163 141.216 144.651 141.143 144.966 140.926C145.428 140.671 145.951 140.423 146.486 140.206C146.811 140.075 147.149 139.976 147.48 139.855C147.471 140.027 147.468 140.193 147.461 140.317C147.35 143.539 148.637 145.378 151.562 146.684C153.608 147.42 155.217 148.118 156.129 150.205C156.027 150.556 155.982 150.913 155.992 151.273C154.507 151.406 152.805 150.161 151.4 149.67C150.106 149.147 148.774 148.95 147.35 148.908C145.874 148.876 144.396 149.029 142.997 149.533C142.248 149.81 141.525 150.154 140.83 150.549C140.741 150.594 140.639 150.651 140.54 150.709C138.753 151.508 136.955 152.286 135.101 152.92C128.655 155.087 118.085 158.146 112.811 152.318C109.08 147.933 116.011 142.105 118.541 138.708C125.28 130.93 133.081 124.149 140.639 117.193C142.892 115.048 145.084 112.843 147.337 110.699C147.245 111.234 147.146 111.766 147.034 112.295C145.008 121.399 141.021 129.802 136.844 138.119C134.626 140.123 131.72 141.254 129.034 142.526C128.556 142.726 127.772 142.924 128.005 143.609C128.288 144.332 129.062 143.918 129.556 143.689C130.525 143.268 131.558 142.781 132.58 142.277C133.323 141.863 136.379 140.467 137.526 139.228C137.723 139.094 137.899 138.896 138.061 138.746C138.491 138.32 138.912 137.883 139.326 137.44C140.741 135.907 142.172 134.343 144.039 133.285C146.572 131.886 149.925 131.854 152.34 133.527C153.28 134.34 154.535 136.083 154.73 137.313C154.526 137.395 154.3 137.313 154.092 137.265C153.755 137.179 153.404 137.44 153.34 137.768C153.216 138.651 154.43 138.708 155.039 138.558C155.319 138.476 155.504 138.339 155.654 138.182C156.199 137.918 156.537 136.599 156.849 136.2C157.543 134.983 158.366 133.549 159.64 132.791C161.377 131.819 163.454 131.121 165.436 131.672C167.728 132.342 169.735 133.731 171.73 135.006C173.801 136.328 175.649 137.998 177.727 139.336C179.352 140.359 180.961 141.417 182.628 142.366C185.263 143.819 188.204 144.552 191.088 145.33C193.404 145.875 195.791 146.037 198.136 146.41C198.143 146.41 198.149 146.407 198.156 146.407C199.637 146.659 201.135 146.824 202.636 146.894C203.107 146.91 203.576 146.882 204.041 146.859C204.194 146.92 204.353 146.91 204.5 146.847C205.3 146.792 206.099 146.697 206.893 146.534C207.466 146.378 208.61 146.314 208.371 145.457C208.276 145.186 207.964 144.989 207.674 145.069C206.657 145.384 205.618 145.534 204.57 145.604C202.887 143.217 201.109 140.901 199.296 138.613C197.999 136.981 196.658 135.372 195.259 133.82C194.829 133.444 194.328 132.504 193.698 132.609C193.032 132.804 193.226 133.508 193.631 133.868C194.16 134.483 194.711 135.079 195.243 135.694C195.96 136.522 196.664 137.37 197.356 138.218C199.312 140.642 201.211 143.115 203.031 145.645C202.12 145.633 201.205 145.585 200.29 145.486C199.644 145.413 199.003 145.304 198.356 145.237C198.353 145.237 198.353 145.234 198.35 145.231C197.209 145.078 196.072 144.919 194.931 144.753C193.8 144.626 192.687 144.412 191.582 144.154C191.55 144.052 191.515 143.95 191.48 143.861C190.282 140.235 188.927 136.663 187.535 133.11C183.781 123.604 179.549 114.316 174.696 105.295C171.618 99.2912 167.75 93.6224 165.682 87.1538C165.567 86.7937 165.398 85.9844 165.131 85.449C168.387 82.6449 168.499 80.9624 168.263 77.6899C168.257 77.0494 167.597 76.6224 167.122 77.1514C166.953 77.3553 166.985 77.6198 167.011 77.8619C167.074 78.3845 167.093 78.9135 167.058 79.4425C166.998 80.2518 166.832 81.0516 166.561 81.8355C166.542 81.8961 166.517 81.963 166.488 82.0267C163.164 86.0895 158.888 89.362 154.899 92.7684C150.763 96.1334 146.681 99.5907 142.255 102.573C133.498 108.538 115.896 116.001 107.346 106.537C101.388 100.298 103.586 91.5767 107.031 84.6492C109.379 79.7037 111.919 74.8252 114.946 70.2558C116.651 67.7926 118.553 65.511 120.519 63.2869C122.09 63.1403 123.607 63.1626 125.204 63.4398C125.235 63.4462 125.267 63.4462 125.296 63.4462C125.602 63.4462 125.882 63.1913 125.917 62.8854C125.965 62.5285 125.71 62.229 125.366 62.1684C124.146 61.9677 122.906 61.9135 121.667 61.9645C122.67 60.8619 123.7 59.7785 124.732 58.6983C125.318 58.6027 125.911 58.5581 126.501 58.5007C127.641 58.3032 128.961 58.402 129.926 57.6691C130.557 57.1082 130.57 56.0153 130.079 55.3588C129.709 54.9159 129.168 54.7343 128.604 54.6833C128.897 54.3838 129.187 54.0842 129.48 53.7815C130.27 53.0964 131.086 52.4336 131.895 51.774C133.922 50.1011 135.898 48.4091 138.214 47.1217C139.76 46.2709 141.375 45.5508 142.972 44.8051C145.773 43.47 148.631 42.2655 151.572 41.2649C151.317 42.0424 151.056 42.8199 150.836 43.6102C150.594 44.2953 150.597 45.0409 151.008 45.6623C152.174 47.6539 155.797 48.9572 158.028 48.9572H158.069C159.538 48.9572 161.453 47.9279 162.11 46.5928C163.015 44.2539 162.811 41.7174 162.288 39.2574C164.911 38.9579 167.568 38.9738 170.178 39.3498C169.834 39.6366 169.471 39.9011 169.152 40.2166C166.686 42.6288 163.47 47.7144 163.611 51.2259C163.751 52.2361 164.41 53.0677 164.987 53.8771C165.768 54.9828 166.902 55.891 168.25 56.2415C168.502 56.3052 168.76 56.3594 169.018 56.4008C172.061 56.8852 175.474 55.7476 177.475 53.4119C177.94 52.8065 178.38 51.9716 178.797 51.2769C179.511 49.9035 180.55 48.8361 181.774 48.0235C184.278 50.5408 186.432 53.3896 188.465 56.3275C189.81 58.3032 191.027 60.4095 192.108 62.5508C195.839 70.0741 199 77.8715 202.817 85.3534C206.093 91.873 209.946 98.0835 214.066 104.1C218.125 110.084 222.596 115.772 226.946 121.546C236.457 134.269 244.908 147.994 250.315 162.986C250.417 163.05 250.494 163.158 250.503 163.279C250.526 163.353 250.558 163.426 250.586 163.496C250.672 163.716 250.758 163.939 250.832 164.165C250.832 164.175 250.838 164.184 250.841 164.194C250.863 164.245 250.886 164.296 250.908 164.347C250.991 164.541 251.071 164.739 251.141 164.94C251.281 165.354 251.415 165.774 251.542 166.192C251.663 166.584 251.784 166.976 251.912 167.365C252.02 167.709 252.141 168.05 252.256 168.391C252.259 168.391 252.262 168.387 252.266 168.384C252.297 168.499 252.339 168.614 252.371 168.732C252.466 169.018 252.562 169.305 252.629 169.601C252.638 169.64 252.642 169.678 252.638 169.719C253.065 171.335 253.448 172.963 253.837 174.585C254.502 177.418 255.095 180.267 255.595 183.131C254.818 183.23 254.12 183.313 253.569 183.402C251.619 183.619 249.662 183.788 247.699 183.925C247.556 184.122 247.17 185.167 247.189 185.244C249.363 185.094 251.529 184.903 253.693 184.674C257.3 184.113 264.875 183.82 265.815 179.457C265.936 178.584 264.811 176.854 263.915 177.746C263.422 178.434 264.438 178.683 264.534 179.26C263.884 181.688 260.06 182.513 256.854 182.962C256.274 179.636 255.57 176.319 254.783 173.043C253.951 169.745 253.19 166.402 251.864 163.257C254.474 163.553 257.064 163.993 259.63 164.56C259.588 164.599 259.544 164.634 259.505 164.675C259.48 164.758 259.419 164.828 259.327 164.857C259.327 164.857 259.32 164.857 259.317 164.857C259.078 165.093 258.839 165.331 258.607 165.57C258.607 165.57 258.604 165.57 258.6 165.57C258.6 165.57 258.597 165.574 258.594 165.577C258.409 165.784 258.218 165.985 258.043 166.201C258.03 166.217 258.017 166.233 258.004 166.249C258.004 166.249 258.004 166.249 258.004 166.246C257.979 166.278 257.953 166.31 257.928 166.345C257.922 166.351 257.918 166.358 257.912 166.364C257.912 166.364 257.909 166.364 257.909 166.37V166.377C257.899 166.389 257.89 166.402 257.88 166.412C257.883 166.405 257.89 166.399 257.896 166.393C257.737 166.593 257.565 166.781 257.412 166.982C257.361 167.052 257.316 167.119 257.272 167.196C257.259 167.218 257.249 167.24 257.237 167.263C257.227 167.336 257.221 167.409 257.217 167.482C257.217 167.562 257.217 167.642 257.227 167.718C257.227 167.725 257.227 167.728 257.227 167.734C257.233 167.776 257.237 167.817 257.246 167.858C257.345 168.062 257.491 168.247 257.695 168.391C261.49 171.354 268.354 173.084 273.086 174.177C273.542 174.286 273.947 174.343 274.303 174.343C275.846 174.343 276.508 173.333 276.4 171.364C276.4 171.118 276.381 170.873 276.378 170.627C277.675 171.341 278.962 172.074 280.202 172.896C280.868 173.33 281.511 173.801 282.152 174.279C282.129 174.321 282.104 174.368 282.085 174.407C281.288 176.025 280.479 177.74 279.845 179.445C279.182 179.668 279.281 182.551 279.274 183.3C279.373 185.384 279.771 191.499 282.047 192.21C283.248 192.49 284.102 191.333 284.65 190.428C286.358 187.452 286.645 183.934 286.9 180.579C286.912 180.26 286.928 179.677 286.928 178.951C287.085 179.161 287.257 179.359 287.403 179.578C288.452 181.102 289.414 182.876 290.099 184.645C291.106 187.057 291.925 189.578 292.113 192.2C292.635 199.743 290.446 207.492 286.368 213.84H286.38Z" fill="#050504"/>
    <path d="M236.3 222.228C236.361 222.154 236.422 222.078 236.479 222.004C236.412 222.055 236.345 222.103 236.278 222.154C236.284 222.18 236.291 222.206 236.3 222.231V222.228Z" fill="#050504"/>
    <path d="M128.097 101.078C130.668 99.5007 132.045 97.0682 131.172 95.6445C130.299 94.2208 127.506 94.345 124.935 95.922C122.364 97.499 120.987 99.9315 121.86 101.355C122.733 102.779 125.526 102.655 128.097 101.078Z" fill="#D8A43C"/>
    <path d="M124.129 102.946C122.889 102.946 121.876 102.522 121.353 101.675C120.811 100.795 120.894 99.6355 121.589 98.415C122.217 97.3029 123.294 96.245 124.623 95.4293C125.951 94.6167 127.385 94.1356 128.66 94.0782C130.059 93.9985 131.129 94.467 131.671 95.3496C132.732 97.0799 131.295 99.8235 128.405 101.595C126.933 102.494 125.41 102.946 124.132 102.946H124.129ZM128.905 95.254C128.841 95.254 128.778 95.254 128.711 95.2572C127.631 95.305 126.401 95.7224 125.241 96.433C124.081 97.1436 123.147 98.055 122.615 98.995C122.153 99.8139 122.061 100.563 122.36 101.053C122.966 102.038 125.343 102.08 127.784 100.585C130.228 99.0842 131.263 96.9461 130.661 95.9614C130.381 95.5057 129.746 95.2508 128.902 95.2508L128.905 95.254Z" fill="#14141F"/>
</svg>
