<svg xmlns="http://www.w3.org/2000/svg" width="282" height="211" fill="none"><g clip-path="url(#a)"><path fill="#FED980" d="M172.377 16.853c6.404.482 4.827 8.445 4.905 12.915-.119 4.159-.496 8.308-.446 12.473.062 3.288.324 6.57.352 9.858.184 3.72-.252 5.76-4.327 6.544-5.401 1.201-10.966 1.148-16.472 1.117-10.579-.27-21.059-1.537-31.613-1.876-3.461-.333-7.586-.644-9.943-3.524-2.351-3.698-2.497-9.456-3.087-13.76-.143-2.853-3.186-22.188.883-21.507a.6.6 0 0 1 .271-.159c.642-.414 1.534-.56 2.236-.7a153 153 0 0 1 15.34-1.29c11.19-.262 22.389-.044 33.58.28 2.765-.23 5.546-.626 8.321-.37"/><path fill="#000" d="M152.142 60.784c-11.882-.806-23.827-1.434-35.663-2.554-5.849-2.74-4.237-14.492-5.263-20.022-.115-.924 1.304-1.126 1.435-.196.452 3.72.467 7.474.885 11.194.449 2.85.898 7.624 4.558 7.845 5.404.302 10.798.712 16.198 1.092 12.543.597 25.426 2.887 37.808-.08 4.611-1.332 4.533-1.945 4.168-6.52-.149-4.026-.224-8.054-.14-12.079.078-4.174.384-8.336.608-12.504-.044-2.48.882-9.26-2.569-9.497-17.379.61-34.846-.532-52.206.19-2.797.184-5.588.61-8.269 1.431-2.339.69-2.909 1.876-2.585 4.233.103 3.288.153 6.576.352 9.86-.087 1.043.596 2.807.122 3.63.016-.015.028-.033.044-.049v-.006c-.237.348-.811.348-1.045-.003v.012l.053.06c-1.113-3.811-.642-8.038-.935-11.998-.165-3.151-.54-5.798 3.121-6.955 7.081-2.305 14.691-1.826 22.044-1.926 8.839.1 17.675.352 26.511.255 4.187-.018 8.375-.136 12.559-.18 3.448-.183 4.169 3.705 4.281 6.395-.031 9.55-1.147 19.09-.524 28.655.58 6.211-.069 6.995-6.183 8.644-6.332 1.48-12.914 1.353-19.371 1.08z"/><path fill="#000" d="M169.539 32.65a110 110 0 0 1-1.431-6.492c-.134-.498-.224-1.3-.761-1.475a.75.75 0 0 0-.798-.162c-.673.252-1.353.498-2.03.744-.966.351-1.93.706-2.899 1.042-.484.168-1.06.358-1.637.541-.281.087-.565.171-.845.261-.278.09-.658.184-.767.495a.57.57 0 0 0 .037.495.56.56 0 0 0 .293.245c.109.04.219.053.331.053q.075.002.149-.006a6 6 0 0 0 .911-.159 22 22 0 0 0 1.718-.491c1.051-.342 2.092-.719 3.13-1.092.25-.09.502-.184.752-.274-.53.88-1.06 1.76-1.606 2.632a215 215 0 0 1-4.502 6.933c-1.207 1.599-13.922 20.343-14.835 15.51-.742-5.167-.895-10.405-1.69-15.566-.558-3.017-1.453-12.694-5.906-7.123-2.354 2.293-4.486 4.97-7.32 6.682-.764.052-1.257-3.366-1.921-4.137-2.557-5.08-5.272-.806-6.975 2.23-1.375 2.314-2.903 4.619-3.891 7.12.786 2.012 1.961-1.322 2.451-1.997a126 126 0 0 1 4.137-6.781c1.84-3.31 3.046-.006 3.785 1.969.415 1.26.839 3.4 2.616 3.039 1.531-.451 2.629-1.758 3.807-2.769 2.018-1.77 3.704-3.931 5.743-5.648.939 1.24 1.101 2.914 1.481 4.386.82 4.046 1.185 8.255 1.553 12.38.471 2.037-.131 8.127 2.314 8.56 4.789.622 17.809-19.811 21.925-26.561.047.224.09.45.118.678a98 98 0 0 0 1.166 5.13c.278.91 1.619.534 1.397-.383zm-11.368 14.302a.58.58 0 0 1-.041-.65c.269-.414.817-.376 1.251-.448 1.577-.168 3.158-.274 4.739-.395 1.659-.124 3.317-.218 4.945-.327l.605-.04c.371-.025.68.327.68.678.006.37-.312.675-.68.678-3.131.2-6.208.486-9.332.71-.627-.016-1.718.317-2.164-.203zm.409 3.212a.6.6 0 0 1-.309-.128.63.63 0 0 1 .007-.992c.187-.143.433-.174.661-.214q.375-.066.754-.122.772-.118 1.544-.214a76 76 0 0 1 2.921-.32c1.285-.116 2.572-.212 3.86-.197q.12 0 .24.007c.075 0 .159 0 .234.009q.046-.001.087.006a.2.2 0 0 1 .047.003c.365.025.733.053 1.085.14.377.093.596.513.493.877a.72.72 0 0 1-.88.492l-.077-.019a5 5 0 0 0-.534-.068h-.053c-.068 0-.137-.007-.202-.01-.091.006-.181-.003-.272-.006l-.33-.003c-.215 0-.43 0-.645.01-.49.015-.983.037-1.453.065-1.996.124-3.979.354-5.965.59q-.356.044-.711.081a3 3 0 0 1-.33.025q-.09 0-.175-.012zm-.199 3.151c-.168-.04-.293-.205-.315-.37a.44.44 0 0 1 .222-.435c.121-.069.265-.11.396-.147.23-.062.471-.1.704-.136.509-.081 1.02-.14 1.531-.2a184 184 0 0 1 2.94-.31 462 462 0 0 1 5.12-.47c.125-.01.259-.031.387-.031l.131-.013c.389-.04.751.23.801.622.047.374-.234.769-.627.8a1 1 0 0 1-.153.006c-.084.016-.174.022-.261.031l-.334.031-.783.069-2.104.18c-2.005.168-4.016.34-6.027.432-.253.013-.508.025-.761.025-.293 0-.583-.018-.867-.084"/><path fill="#FFF7DB" d="M52.168 154.713a1.6 1.6 0 0 1-.187-.517c-2.472.663-5.104.619-7.654.532-7.193-.065-14.074-2.224-20.934-4.156-6.657-1.99-13.382-4.326-19.097-8.364-1.066-.765-2.17-1.592-2.872-2.718-.327-.464-.651-1.319-.396-1.749-.046-1.409-.021-2.821-.015-4.233.028-5.279-.103-10.557-.193-15.836C.66 104.543.598 91.416.798 78.287c.05-9.033-.056-18.063.075-27.096a73 73 0 0 1 .146-3.87c-.355-.569-.592-1.15-.327-1.483.13-.2.418-.287.642-.224.443.14.577.643.836.983.857 1.281 1.873 2.242 3.002 3.244 4.674 3.913 10.408 6.314 16.257 7.863 6.245 1.674 12.512 3.279 18.81 4.756 3.944.912 7.935 1.583 11.91 2.32.057.07.125.134.19.197.07.065.135.13.21.192.146.122.3.237.452.349.284.208.577.41.86.619q.458.359.892.74a.63.63 0 0 1-.47-.087l-.079-.037c.178.51.06 1.15.116 1.667-.187 7.733.617 15.44.61 23.17-.065 6.402-.772 12.735-1.087 19.087.025 7.014.078 14.028.218 21.039a362 362 0 0 0 .259 6.592c.162 4.199.396 8.407.271 12.61a.69.69 0 0 1-.483.659c-.137.233-.35.398-.67.398a2 2 0 0 0-.026.234c.683-.007 1.057 1.06.278 1.393q-.166.07-.334.137c-.062.625-.218 1.154-.658 1.154-.143 0-.318-.056-.53-.187z"/><path fill="#fff" d="M77.312 40.619c.13 11.157-.356 22.315-.169 33.472.103 5.372-.146 10.74-.18 16.113 0 1.353.03 2.709.108 4.062.016.314-.196.56-.467.666a.72.72 0 0 1-.608.335c-3.427-.077-6.86-.018-10.283.106-2.937.296-5.89.843-8.727 1.5-.515.127-1.032.258-1.534.426-.368.217-.895.115-1.06-.305-.166-.448.068-.744.411-.94a.7.7 0 0 1-.04-.252c.184-4.152-.028-8.302-.081-12.454.075-5.851.804-11.817-.088-17.612-7.062-1.9-14.236-3.34-21.286-5.282a88.4 88.4 0 0 1-15.86-5.126c-1.877-.488-3.745-1.005-5.588-1.605a26 26 0 0 1-5.076-2.348c-.57-.336-1.833-.859-1.163-1.664a.6.6 0 0 1 .3-.168c-1.244-.784-2.364-1.742-3.05-2.993a.5.5 0 0 1-.265.035c-.449-.044-.604-.623-.686-.983-.152-.716-.059-1.437.15-2.131-.103-1.176-.022-2.582.839-2.871.209-.006.355.034.455.112 1.247-2.035 3.003-3.786 5.191-4.762 2.255-.962 4.659-1.509 6.978-2.29 3.595-1.185 7.159-2.51 10.872-3.297a88 88 0 0 1 3.477-.662.5.5 0 0 1 .109-.066c2.154-1.07 4.618-1.312 6.94-1.835 5.207-1.023 10.517-1.275 15.802-1.617q2.091-.144 4.187-.25c2.672-.251 5.35-.447 8.035-.513a.5.5 0 0 1 .16-.174c1.137-.417 2.466-.277 3.669-.448 2.232-.161 4.465-.448 6.703-.46a.8.8 0 0 1 .403.127c.34-.298.954-.267 1.119.296q.037.438.037.88a.66.66 0 0 1 .106.598q-.046.112-.118.22c-.022.654-.066 1.31-.072 1.963-.03 4.072.443 8.134.35 12.209zm-47.94 67.379c.206 1.095-.015 2.237-.034 3.341-.178 2.834-.458 5.658-.511 8.498-.062 3.185-.047 6.373-.156 9.559-.013 4.046-.739 5.611-5.12 4.709-4.963-.933-9.955-2.202-14.283-4.887-1.088-.622-2.176-1.247-3.264-1.866-1.537-.958-3.383-1.639-4.527-3.089-.674-1.297-.269-2.868-.387-4.277-.013-2.55-.003-5.098.01-7.648 0-4.1-.082-8.2.083-12.3 0-.314-.037-.68.206-.926.396-.399 1.032-.05 1.051.479 1.992.979 4.1 1.601 6.217 2.22 3.68 1.108 7.39 2.119 11.156 2.887 2.803.591 5.615 1.198 8.284 2.255.524.196 1.095.473 1.272 1.045z"/><path fill="#313144" d="M12.91 108.696c.618 1.368-.604 2.398-1.938 1.931-.989-.345-2.158-1.147-2.052-2.323.034-.479.524-.89 1-.706.874-.514 2.604.186 2.99 1.098m11 17.161c.355 1.01 1.275 3.353-.567 3.297-1.32-.33-2.582-.871-3.889-1.251-3.251-1.026-6.588-1.754-9.865-2.693-2.35-.722-8.119-2.352-8.131-5.32-.01-.684.415-1.262.801-1.788.4-.541.801-1.079 1.179-1.636.686-1.048 1.375-2.1 1.964-3.204.119-.224.2-.485.405-.647.34-.28.908-.093 1.007.333a.72.72 0 0 1 .48.27c.266.38.487.79.743 1.179.72 1.164 1.515 2.277 2.307 3.394.873 1.257 2.684 3.813 4.437 3.449.361-.251.43-.746.595-1.129.206-.606.365-1.228.496-1.857.405-1.583.736-6.921 2.248-7.487 1.132-.389 1.45 1.005 1.69 1.804q.5 1.557.991 3.114c.749 2.271 1.329 4.591 1.993 6.89.358 1.182.717 2.159 1.12 3.275z"/><path fill="#FED980" d="M64.262 40.55c.096 4.878.395 9.752.302 14.632-.218 8.657-.514 17.31-.365 25.97.006.877.04 1.751.013 2.628.021.613-.284 1.27-.976 1.291-1.965.268-3.885.778-5.83 1.136-.515.096-1.06.19-1.588.112-1.543-.193-1.075-1.845-1.138-2.943.01-3.49.06-6.983.04-10.473-.052-1.941.007-3.932-.536-5.814-.118-.507-.536-.796-.854-1.166a1.97 1.97 0 0 1-.436-1.07c-.053-3.453.146-6.915.258-10.368.131-3.686.212-7.378.069-11.064-.044-1.931-.253-3.872-.118-5.807-.219-.417.074-.986.551-1.036 2.273-.264 4.55-.563 6.838-.644 1.24-.012 3.155-.233 3.66 1.213.153 1.12.044 2.27.103 3.403zm-19.3 4.467c.636.37.412 1.207.412 1.816q-.038.822-.072 1.643a98 98 0 0 0-.072 3.437 497 497 0 0 0 .013 8.803c-.028 1.073.243 3.422-1.5 2.93a62 62 0 0 0-2.494-.656c-1.095-.346-3.15-.433-3.49-1.733-.286-2.358-.24-4.753-.164-7.123.05-1.67.08-3.347.134-5.017.043-.532-.019-1.098.171-1.602-.168-.373.053-.893.474-.98a33 33 0 0 0 2.944-.771c.548-.169 1.09-.352 1.636-.523.64-.165 1.36-.544 2.002-.22zM29.834 58.24c.015 1.051-1.023 1.282-1.862.999-1.456-.374-2.847-.98-4.228-1.571-.212.535-1.016.507-1.225-.016-.165-.59-.203-1.24-.184-1.854a1.7 1.7 0 0 1 .209-.566c-.287-.594.274-1.493 1.02-1.092a.5.5 0 0 1 .093.063c1.135-.67 2.722-1.027 3.676-1.335 3.258-1.16 2.423 3.515 2.504 5.378z"/><path fill="#000" d="M1.053 139.574a.66.66 0 0 1-.636-.662l-.034-8.928-.044-11.244-.044-10.962q-.023-5.706-.043-11.412l-.04-10.797Q.188 80.184.17 74.803C.158 71.199.142 67.59.133 63.986.123 60.442.114 56.9.121 53.353q0-1.989.018-3.978c.007-.656.016-1.313.035-1.97q.013-.5.04-.994c.016-.274.013-.6.28-.756a.45.45 0 0 1 .447.009c.162.093.215.264.24.435.025.18.03.364.04.548q.036.684.053 1.369.035 1.368.053 2.737.033 2.514.05 5.03c.031 3.639.047 7.281.063 10.92q.023 5.326.043 10.645c.016 3.642.028 7.282.044 10.924l.044 10.831.043 11.329q.02 5.555.044 11.11.02 5.434.043 10.869l.025 6.526c0 .348-.308.634-.648.634h-.016z"/><path fill="#000" d="M46.163 155.461c-2.148-.059-4.293-.262-6.426-.538a100 100 0 0 1-6.276-1.036 120 120 0 0 1-6.448-1.453 117 117 0 0 1-6.305-1.782l-.23-.072c-.097-.025-.19-.059-.287-.09l-.362-.115a56 56 0 0 1-.76-.249c-1.06-.348-2.111-.709-3.159-1.092a77 77 0 0 1-6.018-2.454c-1.939-.899-3.863-1.882-5.618-3.107a14 14 0 0 1-1.82-1.487 7.4 7.4 0 0 1-.805-.936 3.1 3.1 0 0 1-.505-1.039 1.2 1.2 0 0 1-.016-.486c.028-.199.072-.407.271-.5a.33.33 0 0 1 .253-.01c.168.066.227.221.3.367v.007c.09.136.158.286.236.432q.117.204.25.395.206.274.436.526.403.414.848.787c.605.491 1.25.936 1.84 1.309 1.453.912 2.98 1.698 4.536 2.426a79 79 0 0 0 5.965 2.451q1.56.574 3.14 1.095c.502.165 1 .33 1.505.489q.066.018.131.04c.04.013.085.025.125.041.078.021.156.049.237.074l.424.131q.406.125.81.246 1.577.47 3.162.895a124 124 0 0 0 6.392 1.54c1.384.296 2.775.56 4.088.79 2.039.352 4.09.647 6.151.849 1.176.116 2.354.206 3.445.246 1.397.05 2.8.047 4.194-.081a15 15 0 0 0 1.833-.286c.318-.078.633-.168.942-.283q.24-.096.465-.211.144-.08.283-.175.099-.073.187-.152.052-.052.103-.109l.075-.103q.032-.052.06-.105l.027-.075.02-.081c.002-.034.008-.068.008-.103q.002-.059-.006-.124-.008-.06-.022-.121c0-.01-.006-.019-.006-.028a.67.67 0 0 1 .05-.501.66.66 0 0 1 .38-.311c.33-.103.72.087.814.429.075.274.106.557.081.84a2 2 0 0 1-.34.918c-.296.444-.738.749-1.21.995a6.4 6.4 0 0 1-1.296.476c-1.032.28-2.105.395-3.168.46-.617.038-1.235.053-1.852.053q-.567 0-1.132-.015z"/><path fill="#000" d="M53.883 153.161c-.11-.102-.144-.261-.16-.404a5 5 0 0 1-.024-.464c-.013-.391-.019-.787-.025-1.178q-.015-1.132-.025-2.265c-.013-1.589-.01-3.182-.006-4.771.006-3.276.021-6.551.034-9.827q.023-5.206.05-10.407l.053-10.956.053-10.821q.023-5.275.053-10.551l.053-10.862.05-10.302.018-3.938c0-.352.328-.638.674-.626.361.013.63.318.627.672q-.02 4.53-.044 9.064c-.019 3.506-.034 7.008-.053 10.514q-.03 5.366-.053 10.731-.024 5.35-.053 10.701-.029 5.416-.053 10.834-.024 5.342-.053 10.684-.024 5.031-.053 10.063c-.019 3.26-.031 6.516-.087 9.776a282 282 0 0 1-.047 2.293q-.013.569-.034 1.138a6 6 0 0 1-.035.51c-.019.147-.056.283-.156.392l-.006.007-.006.006-.01.009a.46.46 0 0 1-.317.124.53.53 0 0 1-.362-.149z"/><path fill="#000" d="M54.066 66.452c-8.019-1.53-15.876-3.736-23.708-6.01-6.95-2.013-14.012-3.876-20.52-7.101-14.18-6.769-10.379-15.195 2.67-19.755 14.51-5.553 30.022-7.892 45.459-9.015 4.418-.295 8.84-.61 13.267-.712 1.166.165 6.435-.526 6.27.753.065 1.197-3.608.33-4.484.532-4.306-.007-8.468.304-12.74.569-16.197 1.06-32.495 3.353-47.7 9.232-7.35 2.669-15.771 8.37-6.174 14.946 8.362 5.369 18.209 7.431 27.606 10.255 4.287 1.18 8.587 2.46 12.908 3.478 2.591.684 5.413.855 7.86 1.929.452.482-.14 1.116-.714.902zm-.141 31.866c-2.045-1.651 5.843-2.087 6.725-2.454.886-.326 21.074-3.039 16.37-.012-7.78-.576-15.51 1.347-23.095 2.463z"/><path fill="#000" d="m76.628 95.557-.016-7.885-.018-8.722-.019-8.535q-.007-4.429-.019-8.853l-.015-8.877q-.01-4.319-.013-8.638c0-2.815-.006-5.63-.006-8.442s-.003-5.786.012-8.676c0-.354.007-.712.01-1.067q.002-.23.01-.46c.005-.159.052-.33.17-.442a.57.57 0 0 1 .74-.062l.056.047c.234.218.193.588.2.877l.015 1.067.019 2.111q.013 2.151.021 4.302.018 4.304.032 8.607.008 4.293.022 8.588c.009 2.908.012 5.817.021 8.725l.019 8.905.019 8.67.018 8.634.02 8.585v1.503a.66.66 0 0 1-.628.669h-.021c-.337 0-.649-.28-.652-.629zM.264 70.793c.006-.379.268-.581.574-.612-.01.488-.022.976-.022 1.462-.259-.237-.465-.51-.549-.85zm18.364 15.489s.01 0 .015.003c-.003.006-.01.016-.012.022v-.029zM.854 85.7v.202q.002.41.012.82v.125c-.427-.292-.337-.864-.016-1.15zm8.737 3.915-.009-.068.01.071z"/><path fill="#000" d="M9.593 89.612v.016-.01l.009.069c-.003-.025-.01-.05-.012-.075zm14.888 6q.004-.151.012-.301c0-.028 0-.06.004-.087l.037.398c-.019 0-.034-.006-.053-.01m2.563 11.979c-6.23-.974-12.406-2.458-18.308-4.688a85 85 0 0 1-6.79-2.831c-.587-.335-1.766-.538-1.448-1.446.144-.345.587-.56.939-.392 1.06.504 2.12 1.005 3.196 1.471 5.02 2.168 10.217 3.929 15.564 5.095 2.96.784 6.099 1.108 9.033 1.755.602.989-.365 1.169-1.257 1.135a7 7 0 0 1-.929-.103z"/><path fill="#000" d="M27.696 133.704v-.012q0-.031.003-.062c.013-.224.013-.451.02-.675q.019-.686.043-1.372l.112-3.552q.118-3.73.24-7.453.12-3.698.256-7.397c.04-1.11.08-2.221.13-3.331q.033-.77.079-1.54c.015-.24.028-.482.053-.722.021-.211.046-.454.221-.6a.6.6 0 0 1 .483-.149.6.6 0 0 1 .334.174c.19.183.178.491.184.734.006.271.003.544 0 .815a123 123 0 0 1-.028 1.863 765 765 0 0 1-.097 3.832q-.099 3.64-.212 7.279l-.237 7.621-.093 2.961-.032.974c-.006.186-.018.376-.018.563v.071h-.003a.724.724 0 0 1-.636.7q-.056.006-.106.003a.73.73 0 0 1-.693-.731z"/><path fill="#000" d="M24.405 134.97q-.466-.019-.929-.062c-1.262-.115-2.51-.358-3.744-.647-2.485-.582-4.911-1.415-7.277-2.358a68 68 0 0 1-6.308-2.902 59 59 0 0 1-4.889-2.843l-.527-.345q.015-.57.019-1.139v-.594q.602.42 1.219.821a58 58 0 0 0 4.783 2.787 66 66 0 0 0 8.627 3.783q.724.257 1.453.491c1.712.548 3.452 1.017 5.22 1.338.87.149 1.749.264 2.597.308h.049q.702.029 1.404-.025.38-.036.754-.115.276-.067.543-.156c.146-.05.287-.096.442-.084.303.022.524.317.493.613a.5.5 0 0 1-.069.211c-.112.212-.361.336-.567.439a4 4 0 0 1-.907.299 8.8 8.8 0 0 1-1.912.193q-.237 0-.474-.01zm6.146-58.705c-10.03-1.76-22.396-7.098-29.48-14.526-.411-.514-1.755-1.677-.636-2.081.633-.056 1.163.867 1.619 1.24a34 34 0 0 0 1.58 1.51c6.024 5.11 13.255 8.662 20.775 10.97 2.31.672 4.646 1.307 7.034 1.615.764.168.698 1.306-.103 1.353-.265.01-.53-.044-.792-.081zm.206 9.248c-7.508-.193-16.46-3.643-22.764-7.655-2.753-1.83-5.702-3.618-7.75-6.259-.437-.578.183-1.371.838-.958.321.24.558.576.848.85 5.974 5.555 13.516 9.287 21.348 11.44 2.024.55 4.088.999 6.19 1.101.676.112 1.858-.23 1.967.734.018.373-.287.75-.677.75zm-1.166 10.371c-.68-.097-1.356-.209-2.033-.308-.96-.143-1.92-.274-2.878-.423a66 66 0 0 1-3.027-.542 46 46 0 0 1-3.302-.768 38 38 0 0 1-3.274-1.051 51 51 0 0 1-2.884-1.207 58 58 0 0 1-5.908-3.083 60 60 0 0 1-2.728-1.745 45 45 0 0 1-1.344-.945c-.434-.32-.864-.647-1.263-1.011a2.5 2.5 0 0 1-.393-.43c-.171-.258-.13-.665.181-.799a.55.55 0 0 1 .477.013c.081.043.156.096.23.146.203.143.403.292.606.438q.656.476 1.322.937c.9.625 1.83 1.213 2.765 1.791.421.258.842.517 1.27.765a62 62 0 0 0 5.864 2.946q.449.196.901.389a38 38 0 0 0 2.105.802c.817.283 1.643.53 2.444.747l.062.016h.01a52 52 0 0 0 3.192.724q1.498.299 3.003.526c.468.072.939.137 1.319.193l.38.053.113.015c.021 0 .04.007.062.01.982.136 1.961.289 2.918.423.187.025.35.096.477.24a.7.7 0 0 1-.075.982.7.7 0 0 1-.458.165q-.066 0-.137-.01zm-6.525 34.088c-4.447-.709-8.802-1.981-12.968-3.676-2.862-1.188-6.937-2.19-8.873-4.71a2.47 2.47 0 0 1 .009-2.905 27 27 0 0 1 1.593-2.37c.748-.992 1.456-2.065 1.964-3.191.25-.507.415-1.098.873-1.462 1.656-1.145 3.128 1.751 3.988 2.818 1.145 1.508 3.33 5.456 4.933 6.112.3-.324.327-.971.411-1.316.48-2.588.315-5.397 1.581-7.773.574-1.095 1.79-1.67 2.803-.737 1.038 1.135 1.385 2.728 1.908 4.137 1.182 3.608 2.354 7.226 3.28 10.908a.75.75 0 0 1 .25.349c.221.622.393 1.269.467 1.928.184 1.469-.87 2.088-2.216 1.892zm.685-1.39.088-.012c.01 0 .018-.007.028-.01.112-.693-.243-1.331-.43-1.978q-.228-.738-.446-1.481a312 312 0 0 0-2.632-8.681c-.315-.992-.627-1.991-.998-2.965-.277-.597-.464-1.353-1.025-1.745-1.628.697-1.522 7.192-2.205 9.002-.564 1.739-2.22 1.571-3.314.411-1.858-1.841-3.124-4.174-4.643-6.277-.514-.694-.988-1.45-1.677-1.985-.617 1.357-1.278 2.697-2.195 3.882-.78 1.12-1.59 2.05-2.102 3.26.022 1.991 4.84 3.534 6.455 4.203 1.77.653 3.517 1.368 5.294 2.006 2.382.849 4.833 1.424 7.296 1.981.826.168 1.658.411 2.51.389z"/><path fill="#000" d="M10.556 111.312a4.6 4.6 0 0 1-1.335-.61 3.1 3.1 0 0 1-.92-.949 2.2 2.2 0 0 1-.311-1.004c-.019-.38.103-.756.315-1.074.396-.597 1.122-.892 1.811-.979a3.8 3.8 0 0 1 1.204.049q.173.032.343.078a.63.63 0 0 1 .383 0c1.01.324 2.033.989 2.357 2.053.1.327.11.694.016 1.023-.112.383-.34.71-.646.962-.495.413-1.15.578-1.783.619q-.12.008-.24.006c-.402 0-.808-.062-1.194-.168zm1.418-1.285q.15-.013.3-.04a3 3 0 0 0 .243-.069q.084-.034.168-.071a1 1 0 0 0 .125-.075q.038-.027.072-.059l.056-.059.037-.05.025-.044.019-.046.01-.038q0-.023.005-.046v-.059c0-.022-.006-.041-.009-.063q-.008-.035-.022-.077-.02-.052-.043-.103a2 2 0 0 0-.078-.127q-.057-.075-.119-.15a2 2 0 0 0-.156-.149 4 4 0 0 0-.24-.177 3 3 0 0 0-.32-.178 4 4 0 0 0-.388-.152.8.8 0 0 1-.299-.177 6 6 0 0 0-.324-.038 5 5 0 0 0-.418.003 5 5 0 0 0-.368.05 4 4 0 0 0-.256.072 3 3 0 0 0-.18.077 2 2 0 0 0-.14.084q-.047.034-.088.072l-.062.065a1 1 0 0 0-.06.097l-.018.043c-.003.016-.01.031-.013.05a.3.3 0 0 1-.006.05v.053c0 .018.006.037.01.056.009.031.015.062.027.093l.047.106.066.106q.059.079.124.155.08.083.169.162.117.094.243.18.15.092.309.171.181.083.368.146.2.063.405.106.209.038.424.053.181.007.362-.003zm40.169-72.724q0 .024-.003.049 0-.025.003-.05m.1-1.128c0 .03-.006.062-.006.096.003-.056.01-.112.012-.168v.028q0-.024.003-.044a94 94 0 0 1 7.247-.581c1.484-.053 2.97-.103 4.458-.062.384 0 .727.326.717.715a.72.72 0 0 1-.717.715c-.524 0-1.044-.009-1.568-.006a86 86 0 0 0-4.817.171c-1.815.118-3.626.29-5.432.507.028-.457.069-.911.103-1.368z"/><path fill="#000" d="M64.387 84.925a.73.73 0 0 1-.645-.408 38 38 0 0 0-.07-.588c0 .019.007.04.007.06-.003-.032-.01-.063-.012-.094 0-1.922.003-3.848.006-5.77.003-2.616.003-5.232.01-7.848.005-2.812.005-5.624.009-8.436a7539 7539 0 0 1 .012-8.507q.007-4.108.019-8.215.006-2.028.015-4.056c.007-1.31.013-2.622.044-3.932q.001-.19.013-.383c.009-.155.015-.323.105-.457a.61.61 0 0 1 .536-.305c.228 0 .412.122.534.308.09.134.094.305.103.46.01.156.012.312.015.47q.01.462.013.924c.01.666.012 1.331.016 2q.013 2.038.012 4.075c.006 2.728.006 5.46.006 8.187q0 4.232-.003 8.464 0 4.176-.006 8.352 0 4.063-.006 8.13-.001 3.23-.007 6.455v.398c0 .392-.33.719-.723.719h-.003z"/><path fill="#000" d="M63.835 85.529v-.013a29 29 0 0 0-.134-1.365q.688-.135 1.384-.206.024 0 .047-.003v.038c.003.252 0 .504.006.759q0 .204.01.41l-.132.255c-.355.04-.707.1-1.056.168q-.056.012-.113.022l-.006-.068zM54.11 88.72c-.175-.302-.078-.728.24-.896.118-.062.234-.14.349-.205q.099-.057.197-.11-.031.586-.072 1.17l-.028.349a1 1 0 0 1-.122.009.64.64 0 0 1-.564-.32zm-1.664-23.072a11 11 0 0 0-.524-.124v-.143q0-.037.003-.069c.022-1.928.028-3.857.044-5.788q.029-3.843.062-7.687a2325 2325 0 0 1 .116-11.387c.01-.585.015-1.167.028-1.751.01-.492.044-.986.034-1.468a.667.667 0 0 1 .658-.672c.384 0 .692.336.661.712-.006.227 0 .457.003.684q.005.494.006.986v1.963q-.005 1.955-.015 3.91-.024 4.059-.056 8.118c-.02 2.52-.038 5.036-.056 7.556-.016 1.813-.02 3.63-.044 5.443a14 14 0 0 0-.923-.283zm-6.692-21.054q.011.006.018.014-.011-.007-.018-.014m.446.582s.01.03.016.043z"/><path fill="#000" d="M45.255 64.016a.73.73 0 0 1-.717-.728v-.022q.044-2.79.09-5.577l.14-8.38q.042-2.334.082-4.669l.13-.021.141-.025.34-.016h.031q.133.001.265.013.09.065.169.14.02.016.034.034l-.025-.025.006.006.116.112.015.022c.022.037.04.071.06.112l.065.162q.029.097.053.199l.028.146v.1c-.04 2.783-.087 5.57-.131 8.354l-.125 7.78q-.015.785-.025 1.57a.73.73 0 0 1-.723.716h-.006zm-8.102-17.547s-.008 0-.008.004c0 0 .008 0 .008-.004m.361 15.668a.73.73 0 0 1-.718-.731c.01-1.487.013-2.97.02-4.454q.013-3.451.037-6.9.013-1.687.03-3.374c.178-.075.353-.147.53-.224.244-.106.484-.212.73-.305q.06-.023.125-.04v.45c.01 2.256.006 4.508 0 6.763l-.019 6.594c0 .47-.006.943-.006 1.412v.094a.73.73 0 0 1-.723.715zm-8.322-2.597-.047-2.64q-.046-2.596-.087-5.186.089-.014.178-.031.463-.08.932-.137l.09-.01-.065.01.302-.034.047 2.529c.025 1.39.053 2.784.075 4.174q.01.664.025 1.328c.006.392-.337.722-.724.722a.73.73 0 0 1-.723-.722zm-7.002-1.586h.004a.7.7 0 0 1-.312-.171l-.01-.01a.8.8 0 0 1-.19-.317c-.028-.084-.028-.174-.028-.261q0-.159-.003-.32 0-.334-.006-.67-.009-.88-.013-1.763 0-.296-.003-.59l.05-.032.05-.034.14-.04q.067.013.134.012.078-.002.156-.013c.315-.059.618-.14.914-.255q.009.931.012 1.863l.01 1.086q0 .245.003.488v.268c0 .211-.053.414-.21.566a.74.74 0 0 1-.704.187z"/><path fill="#000" d="M22.36 54.42c-.17-.115-.208-.342-.124-.523a.5.5 0 0 1 .187-.205 4.5 4.5 0 0 0 .889-.302c.277-.127.551-.258.835-.373l.334-.109q.71-.229 1.425-.435.308-.073.61-.156c.278-.074.562-.133.84-.211q.383-.109.763-.221c-.028.01-.059.015-.087.025q.172-.047.346-.084c.259-.047.515-.084.773-.128a.668.668 0 0 1 .396.952.68.68 0 0 1-.44.336l-.015.003a.04.04 0 0 0-.018.006c-.315.081-.624.184-.936.271q-.514.145-1.029.286c-.558.153-1.116.292-1.671.43a47 47 0 0 1-1.493.342 15 15 0 0 1-.817.152c-.122.019-.256.04-.387.04a.7.7 0 0 1-.383-.1zm15.001-7.014a.59.59 0 0 1-.48-.42.6.6 0 0 1 0-.308q.266-.109.533-.224c.243-.105.483-.211.73-.304q.38-.13.77-.224c.3-.075.596-.165.892-.246q-.041.01-.078.022.114-.034.227-.063c.64-.14 1.276-.277 1.918-.407l.203-.04h.006l.028-.007s.025-.006.034-.006h.006l.119-.025c.695-.143 1.397-.267 2.002-.392.102-.019.205-.05.311-.071l.122-.022h.022c.343-.034.673.162.767.5a.705.705 0 0 1-.487.856c-.096.028-.202.04-.302.06-.078.015-.16.03-.23.046l-.228.047c-.624.127-1.248.258-1.871.382l-.053.01q-.599.121-1.198.23c-.589.108-1.181.217-1.77.317-.375.062-.752.127-1.13.187q-.194.028-.395.052c-.062.01-.125.013-.187.02a.6.6 0 0 1-.206.036q-.037.002-.075-.006m17.545 39.712c-.537-.324-.371-1.207.25-1.313.673-.127 1.352-.224 2.029-.33 2.295-.326 4.59-.811 6.915-.88 1.067-.065 1.32 1.167.19 1.322-2.494.299-4.882.66-7.348 1.055-.502.078-1.001.168-1.503.246a.76.76 0 0 1-.536-.103z"/><path fill="#fff" d="M278.345 41.872c2.001 2.221 1.421 5.27-.615 7.25-2.004 2.284-4.321 4.337-6.99 5.814-7.714 3.889-15.851 7.223-24.407 8.679-.904.056-2.987.66-4.452.821-.181 2.227-.368 4.454-.546 6.681a494 494 0 0 0-.249 12.9c-.041 2.73.124 5.468.009 8.2-.028.42-.399.615-.736.578q.006.48.016.96c.009 2.685.178 5.364.333 8.042-.025 1.172.568 3.608-1.219 3.583-2.75-.89-5.403-2.716-8.324-2.771-.365-.15-.502-.585-.356-.921-2.136-.246-4.287-.349-6.283-.532-4.651-.311-9.297-.887-13.843-1.935-2.304-.597-4.901-1.216-6.445-3.17-.932-1.228-.92-2.843-.963-4.314.125-15.425-1.961-30.716-2.975-46.076-.212-4.769-.137-9.546-.489-14.312-.1-1.592-.184-3.188-.15-4.78.019-.514.025-1.03.084-1.537l-.567-.028a.72.72 0 0 1-.617-.71c0-.4.327-.696.717-.715 2.75.09 5.506.227 8.253.414 4.212.245 8.412.672 12.596 1.238 2.133-.265 4.35-.044 6.479.202 8.443 1.272 16.824 3.036 25.168 4.803 5.347 1.15 10.863 2.466 15.758 4.958 4.109 1.378 7.994 3.316 10.81 6.681z"/><path fill="#313144" d="M266.139 58.856c.359 1.788.692 3.605.639 5.434-.165 3.06-1.135 6.056-2.382 8.837-1.733 3.664-5.381 7.002-8.686 9.29-3.863 2.803-8.793 3.671-13.482 3.236-2.348-.187-4.708-.576-6.878-1.527a20 20 0 0 1-1.859-.918.74.74 0 0 1-.364-.15 42 42 0 0 1-.505-.366 3 3 0 0 1-.275-.202q-.004-.001-.009-.007c-.745-.553-1.478-1.126-2.211-1.695-1.877-1.667-3.442-3.67-4.804-5.789a.76.76 0 0 1-.284-.273c-1.201-2.056-2.429-4.113-3.205-6.374-1.921-5.151-1.042-9.823 1.699-14.473 2.472-4.296 5.562-8.616 10.208-10.728 4.427-2.253 8.306-2.287 13.129-1.914 5.494.215 8.222 1.53 12.291 5.148 2.039 1.979 4.013 4.144 5.285 6.704.848 1.81 1.291 3.832 1.696 5.767z"/><path fill="#FED980" d="M280.714 107.668c.274 4.377 1.403 8.75.764 13.145-1.023 7.618-9.351 15.326-16.117 18.359-4.256 1.984-8.833 3.079-13.322 4.386-2.835.783-5.572 2.193-8.519 2.429-.745.006-1.368-.582-1.187-1.35.028-.775-.013-1.552-.016-2.327-.106-5.039-.072-10.084-.24-15.12-.212-9.823-1.166-19.624-1.02-29.454.191-5.848.615-11.686.611-17.537.044-4.27.025-8.548.294-12.81q.028-.168.037-.35a1.9 1.9 0 0 1-.658-.1c-.493-.261-.405-1.06.15-1.195.764-.109 1.503-.33 2.238-.547 1.918-.579 3.835-1.17 5.759-1.733 4.044-1.126 7.839-2.697 11.811-3.987 2.893-.94 5.762-1.979 8.512-3.238.115-.433.689-.632.997-.921a71 71 0 0 0 3.312-2.69c.919-.816 1.955-1.749 2.734-2.645.365-.36.677-.927 1.141-1.166.193-.389.44-.541.755-.395.489.13.614.675.458 1.107l-.028.153a2 2 0 0 1-.066.385l-.04.268a.73.73 0 0 1 .624 1.005 4.3 4.3 0 0 1-.802 1.11c-.056 1.465-.012 2.93.028 4.395.334 9.948 1.531 19.858 1.3 29.824-.015 3.829.172 7.658.265 11.484.057 3.173 0 6.355.219 9.521z"/><path fill="#000" d="M241.134 147.153c.047-16.125-1.05-32.225-1.116-48.347.206-10.753 1.014-21.49.964-32.25.078-.625-.212-1.47.386-1.89 1.123-.464 1.113.957 1.051 1.694.05 15.712-1.581 31.395-.667 47.103.405 9.556.673 19.115.773 28.676.022 1.671.044 3.344.056 5.014a.73.73 0 0 1-.723.722.735.735 0 0 1-.724-.722"/><path fill="#000" d="M242.479 147.53c-.34-.044-.611-.358-.561-.709.097-.75 1.4-.75 1.98-.94 4.786-.933 9.578-2.115 14.074-3.95 8.475-3.391 16.089-6.626 20.469-15.195 1.148-2.293 1.884-4.759 2.099-7.307.065-1.49-.05-2.983-.1-4.47-.165-3.937-.29-7.882-.443-11.82-.262-6.143-.365-12.29-.415-18.439-.062-5.981-.377-11.96-.604-17.938-.284-6.884-.181-13.78.171-20.657 0-.386.331-.731.723-.722.378 0 .746.33.724.722-.758 11.646-.016 23.298.365 34.94.096 10.234.371 20.465.795 30.692.04 2.933.449 5.888.112 8.812-.985 7.428-6.027 13.789-12.341 17.606-3.099 1.882-6.491 3.225-9.821 4.638-5.506 2.276-11.353 3.897-17.233 4.74z"/><path fill="#000" d="M241.27 65.561c-.567-.973.792-1.141 1.456-1.266 1.818-.423 3.636-.837 5.441-1.31 11.19-3.247 23.821-6.603 30.852-16.625.34-.507.686-1.403 1.447-.99a.725.725 0 0 1 .258.987c-5.125 8.302-14.507 12.445-23.446 15.397-3.773 1.263-7.589 2.395-11.465 3.297-1.253.109-3.523 1.244-4.543.51m-.742 40.988c-6.719-4.144-15.041-3.889-22.627-5.008-4.911-.744-10.367-.458-14.798-2.924-1.2-1.02-.832-2.828-.985-4.234-.19-4.706-.427-9.409-.661-14.112-.717-18.9-3.389-37.949-3.09-56.77 1.856-1.167 1.207 3.303 1.41 4.208.146 5.717.302 11.437.707 17.142 1.357 17.052 2.513 34.113 3.159 51.209-.68 3.468 11.508 3.437 14.062 4.003 4.892.557 9.809 1.024 14.654 1.926 3.118.606 6.236 1.539 8.898 3.312.795.442.081 1.752-.729 1.248"/><path fill="#000" d="M279.404 46.478c-2.609-9.91-14.055-12.119-22.592-14.67-15.275-4.009-31.092-6.718-46.868-7.365-3.421-.075-6.85.04-10.255-.345-.699.071-1.675-.625-.911-1.306.836-.365 1.905.087 2.785.04 17.179-.016 34.29 2.383 50.99 6.367 8.693 2.622 19.833 4.056 25.663 11.64.78 1.085 3.86 5.624 2.002 6.258a.736.736 0 0 1-.817-.616zm-44.265 19.923-.043.01c.019-.004.037-.01.043-.01m.03-.005a.1.1 0 0 0-.028.006.1.1 0 0 0 .028-.007"/><path fill="#0D0C21" d="M222.228 84.533c-4.415-.47-8.895-.71-13.235-1.668-.415-.155-.558-.759-.206-1.051.399-.324.945-.103 1.403-.075 3.969.6 7.926.999 11.913 1.35 1.042-.1 1.198 1.434.125 1.444m-.517 3.602-.729-.096-2.46-.327c-2.195-.295-4.393-.59-6.582-.924-.614-.093-1.229-.183-1.843-.289q-.445-.076-.885-.155c-.209-.038-.415-.084-.624-.116-.287-.043-.474-.345-.424-.619a.53.53 0 0 1 .558-.429c.209.025.418.031.627.05l.857.075c.599.052 1.195.12 1.79.186q1.593.178 3.187.37a982 982 0 0 1 7.14.912h.006q.019 0 .037.006.029 0 .056.006h.022q.071.007.137.019a.724.724 0 0 1 .571.84.73.73 0 0 1-.751.581c-.231-.015-.462-.059-.69-.09m.25 3.545a.4.4 0 0 1-.088-.018q-.127-.018-.255-.03l-.727-.091-1.799-.224a487 487 0 0 1-6.747-.877q-.956-.136-1.911-.28c-.265-.04-.53-.078-.789-.146a1.4 1.4 0 0 1-.359-.14.5.5 0 0 1-.14-.115.536.536 0 0 1-.053-.65c.15-.224.39-.271.636-.277.206-.006.412.006.614.025q.879.083 1.756.18c1.125.121 2.251.258 3.376.392 1.815.215 3.627.445 5.438.675q.583.076 1.166.146.017 0 .035.003a1 1 0 0 1 .106.01q.018 0 .037.006.02 0 .04.006a.73.73 0 0 1 .596.653.73.73 0 0 1-.664.775h-.05c-.072 0-.147-.013-.218-.022m-.206 3.729-.324-.038q-.018 0-.041-.006c-1.353-.159-2.706-.314-4.059-.476-2.382-.28-4.764-.55-7.14-.886q-.25-.038-.499-.072a.653.653 0 1 1 .118-1.297h.016c.486.05.973.087 1.459.137q.96.099 1.921.202c1.2.13 2.397.268 3.595.404l4.842.56h.031l.324.038c.39.05.655.457.593.833a.72.72 0 0 1-.721.597q-.057.001-.115-.006z"/><path fill="#FFF7DB" d="M257.068 78.673c3.813-.078 6.959 3.969 5.381 7.564-.963 2.038-3.245 3.282-5.484 2.912a6.42 6.42 0 0 1-4.402-2.554c-1.628-2.075-.125-4.961 1.362-6.69.611-.607 2.469-2.505 3.143-1.236zm3.848 16.999c2.32 1.312 3.121 4.494 1.992 6.846-.938 1.661-2.84 2.858-4.761 2.914-2.142-.102-4.424-1.275-5.316-3.294-1.079-2.497.097-5.71 2.413-7.08.297-.677 1.809-.385 2.445-.391 1.125.118 2.254.426 3.233 1.004zm-.341 15.782c2.161 1.142 3.786 3.814 3.093 6.268-.729 2.501-3.417 4.355-6.03 3.981-3.174-.373-5.662-3.698-4.767-6.83.427-1.58 1.653-3.593 3.511-3.481-.044-.398.302-.818.72-.79 1.197.062 2.401.305 3.473.855z"/><path fill="#000" d="M257.14 90.088c-1.753-.081-3.43-.949-4.531-2.308a6.25 6.25 0 0 1-1.303-2.955 6.2 6.2 0 0 1 .424-3.366c.471-1.129 1.3-2.075 2.31-2.753a5.8 5.8 0 0 1 2.884-.955.74.74 0 0 1 .306-.096c.237-.019.48-.003.72.016a6.2 6.2 0 0 1 2.364.669 6.24 6.24 0 0 1 2.484 2.307c.365.6.621 1.26.771 1.944.18.83.171 1.696.009 2.526-.318 1.63-1.334 3.08-2.722 3.985a6.27 6.27 0 0 1-3.66.992h-.056zm.187-1.325q.325.003.651-.025a6 6 0 0 0 .639-.11q.315-.078.621-.195.289-.117.564-.261a6 6 0 0 0 .533-.336c.172-.125.334-.262.49-.402q.219-.21.415-.441.206-.253.383-.529.172-.284.312-.585.127-.286.221-.585c.063-.211.109-.423.15-.637q.048-.327.062-.653.002-.332-.025-.663a6 6 0 0 0-.109-.625 7 7 0 0 0-.196-.625 7 7 0 0 0-.243-.532l-.029-.053a4.9 4.9 0 0 0-1.172-1.406 5.1 5.1 0 0 0-1.708-.911 5 5 0 0 0-.621-.144 5 5 0 0 0-.67-.062h-.296a.7.7 0 0 1-.281-.05 6 6 0 0 0-.614.115 8 8 0 0 0-.636.2q-.295.119-.58.267a7 7 0 0 0-.53.33q-.287.21-.549.45a9 9 0 0 0-.415.442 7 7 0 0 0-.393.545 6 6 0 0 0-.28.522 7 7 0 0 0-.228.591c-.068.23-.121.458-.165.694q-.048.322-.062.647-.002.327.024.653.043.327.113.647a6 6 0 0 0 .19.607q.117.295.268.575.151.27.331.523.195.261.417.504c.144.146.29.286.449.416q.244.195.505.364.276.169.571.305.29.13.596.227.323.095.651.153.321.047.649.062zm9.634-7.388c-.119-.006-.234-.025-.353-.043h-.028a.547.547 0 0 1-.458-.576c.019-.286.284-.531.577-.5h.047c.19 0 .383-.022.57-.044.524-.075 1.042-.19 1.515-.311a27 27 0 0 0 3.084-1.064 34 34 0 0 0 3.848-1.882 21 21 0 0 0 2.113-1.38c.278-.215.549-.44.802-.685q.17-.168.321-.355.067-.088.125-.18a.674.674 0 0 1 .91-.32c.318.161.465.575.29.892-.218.401-.533.737-.864 1.048-.464.44-.985.822-1.512 1.18a27 27 0 0 1-2.778 1.626 32 32 0 0 1-3.121 1.403 23 23 0 0 1-3.009.955c-.48.112-.966.2-1.459.236a5 5 0 0 1-.514.01q-.055 0-.109-.007zm-9.279 24.828c-1.752-.081-3.429-.949-4.53-2.308a6.25 6.25 0 0 1-1.303-2.955 6.2 6.2 0 0 1 .424-3.366c.471-1.129 1.3-2.074 2.31-2.752a5.8 5.8 0 0 1 2.884-.955.74.74 0 0 1 .306-.097c.237-.019.48-.003.72.016a6.1 6.1 0 0 1 2.363.669 6.24 6.24 0 0 1 2.485 2.308c.365.6.621 1.26.771 1.944.18.83.171 1.695.009 2.525-.318 1.63-1.335 3.08-2.722 3.985a6.27 6.27 0 0 1-3.66.992h-.057zm.184-1.322q.327.004.652-.025.322-.038.639-.109.315-.08.621-.196.289-.117.564-.261.276-.154.533-.336a6 6 0 0 0 .49-.401 6 6 0 0 0 .414-.442q.206-.252.384-.529.172-.282.312-.584a6 6 0 0 0 .221-.585 7 7 0 0 0 .15-.638q.048-.327.062-.653.002-.332-.025-.663a6 6 0 0 0-.109-.625 8 8 0 0 0-.196-.625 7 7 0 0 0-.244-.532l-.028-.053a5 5 0 0 0-.732-.995 7 7 0 0 0-.44-.41 5 5 0 0 0-2.329-1.054 5 5 0 0 0-.67-.064h-.297a.7.7 0 0 1-.28-.05 6 6 0 0 0-.615.116 8 8 0 0 0-.636.199q-.294.12-.579.267a7 7 0 0 0-.531.33q-.286.21-.548.451-.215.214-.415.442a7 7 0 0 0-.393.544 6 6 0 0 0-.28.523 6 6 0 0 0-.228.59c-.069.23-.122.458-.165.694q-.047.322-.063.647-.001.327.025.654.042.325.113.647.079.307.19.606.118.295.268.576.151.27.33.522.196.261.418.504c.144.146.29.286.449.417q.243.193.505.364.276.168.571.305.29.13.595.227.324.095.652.152.322.048.649.062zm9.637-7.391a3 3 0 0 1-.352-.043h-.028a.547.547 0 0 1-.458-.575c.018-.287.283-.532.577-.501h.046c.19 0 .384-.022.571-.044.524-.074 1.041-.19 1.515-.31a27 27 0 0 0 3.084-1.065 34 34 0 0 0 3.847-1.882c.73-.422 1.444-.873 2.114-1.38.278-.215.549-.44.802-.685q.17-.168.321-.355.067-.088.124-.18a.673.673 0 0 1 .911-.32c.318.162.464.575.29.893-.218.4-.533.737-.864 1.048-.464.438-.985.82-1.512 1.179a27 27 0 0 1-2.778 1.626 32 32 0 0 1-3.121 1.403c-.982.38-1.983.713-3.009.955-.48.112-.966.2-1.459.237a5 5 0 0 1-.515.009q-.054 0-.109-.006zm-9.662 24.69c-1.752-.081-3.43-.949-4.53-2.308a6.27 6.27 0 0 1-1.304-2.956 6.23 6.23 0 0 1 .424-3.365c.471-1.129 1.301-2.075 2.311-2.753a5.8 5.8 0 0 1 2.884-.955.7.7 0 0 1 .305-.096c.237-.019.481-.003.721.015.246.019.495.056.739.103a6.23 6.23 0 0 1 4.109 2.874c.365.6.621 1.257.77 1.944.181.831.172 1.695.01 2.526-.318 1.63-1.335 3.079-2.722 3.984a6.27 6.27 0 0 1-3.661.993h-.056zm.187-1.326q.326.005.652-.024a7 7 0 0 0 .639-.109q.315-.08.62-.196.29-.117.565-.262a6 6 0 0 0 .533-.336c.171-.124.334-.261.489-.401q.22-.21.415-.441.205-.253.384-.529.172-.283.311-.585.127-.286.222-.585c.062-.211.109-.423.149-.637q.048-.327.063-.654.002-.331-.025-.662a6 6 0 0 0-.109-.625 7 7 0 0 0-.197-.626 7 7 0 0 0-.243-.532l-.028-.052a5 5 0 0 0-.733-.996 7 7 0 0 0-.439-.41 4.8 4.8 0 0 0-1.073-.669 6 6 0 0 0-.636-.243 5 5 0 0 0-.62-.143 5 5 0 0 0-.671-.062H258a.7.7 0 0 1-.281-.05 6 6 0 0 0-.614.115 8 8 0 0 0-.636.199q-.295.12-.58.268a7 7 0 0 0-.53.33 6 6 0 0 0-.549.451 8 8 0 0 0-.414.441 7 7 0 0 0-.393.545 6 6 0 0 0-.281.522 6 6 0 0 0-.227.591c-.069.23-.122.457-.166.694a6 6 0 0 0-.062.647q-.002.327.025.653.043.326.112.647.08.307.19.607.118.294.269.575c.099.18.212.355.33.523q.195.261.418.503.212.221.449.417c.162.131.33.249.505.364q.276.169.571.305.29.13.595.227.323.094.652.153.322.047.648.062zm9.634-7.388c-.118-.006-.234-.025-.352-.043h-.028a.547.547 0 0 1-.458-.576c.018-.286.283-.532.576-.501h.047c.19 0 .384-.021.571-.043.524-.075 1.041-.19 1.515-.311a27 27 0 0 0 3.084-1.064 34 34 0 0 0 3.847-1.882c.73-.423 1.444-.874 2.114-1.381.278-.215.549-.439.801-.684q.17-.168.322-.355.067-.088.124-.18l.016-.031a.673.673 0 0 1 .895-.29c.318.162.464.576.29.893-.219.401-.534.737-.864 1.048-.465.439-.985.821-1.512 1.179a27 27 0 0 1-2.778 1.627 32 32 0 0 1-3.121 1.403c-.982.379-1.983.712-3.009.955a9.6 9.6 0 0 1-1.459.236 5 5 0 0 1-.515.01q-.054-.001-.109-.007z"/><path fill="#0D0C21" d="M241.31 85.519a24 24 0 0 1-1.699-.293 25 25 0 0 1-2.722-.777 25 25 0 0 1-2.781-1.21 25 25 0 0 1-2.585-1.577 25 25 0 0 1-2.335-1.904 24 24 0 0 1-1.915-2.037 24 24 0 0 1-1.693-2.343 25 25 0 0 1-1.39-2.581 24 24 0 0 1-1.004-2.641 25 25 0 0 1-.649-2.7 24 24 0 0 1-.302-2.725 24 24 0 0 1 .046-2.834c.075-.899.219-1.878.421-2.852q.317-1.436.808-2.821.504-1.378 1.172-2.685s.016-.028.022-.043c.44-.837.954-1.686 1.521-2.501q.89-1.245 1.927-2.37.98-1.035 2.074-1.95a25 25 0 0 1 2.413-1.733 25 25 0 0 1 2.463-1.322q1.325-.595 2.71-1.033a25 25 0 0 1 2.684-.644q1.346-.224 2.706-.305a25 25 0 0 1 3 .05q1.389.127 2.753.408 1.449.32 2.847.808c.91.33 1.849.74 2.765 1.207q1.286.68 2.482 1.506c.78.55 1.597 1.207 2.373 1.913a26 26 0 0 1 2.051 2.168q.944 1.156 1.743 2.42a26 26 0 0 1 1.466 2.728 24 24 0 0 1 1.004 2.631c-.047.13 1.25-.224 1.128-.32a23 23 0 0 0-1.225-3.419c-1.016-2.245-2.416-4.301-4.088-6.112a22 22 0 0 0-2.653-2.438 23 23 0 0 0-3.037-2.022 24 24 0 0 0-3.227-1.496 24 24 0 0 0-3.629-1.036 23.3 23.3 0 0 0-7.455-.293 24 24 0 0 0-3.704.75 25 25 0 0 0-3.61 1.365 23 23 0 0 0-3.143 1.801 23 23 0 0 0-2.878 2.309 23.8 23.8 0 0 0-4.384 5.595 23.44 23.44 0 0 0-2.853 14.303c.29 2.41.954 4.787 1.974 6.992a24 24 0 0 0 4.075 6.122 23.2 23.2 0 0 0 6.654 5.032c1.858.94 3.835 1.64 5.88 2.066q.898.186 1.805.299v-1.46z"/><path fill="#FED980" d="M244.239 62.06c1.079 1.776-1.01 1.966-2.248 2.295-2.859.737-5.708 1.524-8.592 2.156-4.652 1.01-9.351 1.804-14.015 2.756-1.665.292-3.19.818-4.871.706a.9.9 0 0 1-.455.118c-1.072.05-4.016-3.288-2.513-4.028-1.637-4.401-1.288-8.563.225-12.94 1.166-3.43 2.821-6.743 5.325-9.403 1.677-1.76 3.738-3.87 6.373-3.667a.73.73 0 0 1 .854.22c.895 1.27 1.99 2.38 3.099 3.462 3.96 3.727 7.555 7.814 11.069 11.954.761.859 1.525 1.711 2.304 2.551 1.148 1.272 2.476 2.401 3.445 3.823z"/><path fill="#000" d="M245.085 63.682a1.6 1.6 0 0 1-.284-.252 1 1 0 0 1-.106-.14c-1.366-1.52-2.747-3.03-4.119-4.544-1.537-1.699-3.077-3.4-4.611-5.102-1.587-1.76-3.177-3.52-4.761-5.284a482 482 0 0 1-4.742-5.338q-.613-.706-1.216-1.422-.3-.352-.599-.709a14 14 0 0 1-.268-.323c-.081-.097-.181-.2-.228-.317a.42.42 0 0 1 .025-.377c.122-.205.374-.255.58-.15.097.054.181.153.259.231q.144.144.287.29.314.316.626.64c.412.423.827.846 1.235 1.272.808.843 1.603 1.699 2.398 2.55a1400 1400 0 0 1 4.82 5.227q2.371 2.58 4.736 5.166l4.583 5.014q.6.66 1.198 1.313l.589.647.228.249q.057.042.106.093c.081.094.174.184.234.293.096.164.121.36.071.547a.74.74 0 0 1-.698.523.6.6 0 0 1-.346-.103zm-31.151 7.768a.71.71 0 0 1-.249-.974c.09-.15.249-.29.427-.323q2.515-.516 5.026-1.036l5.382-1.114q2.708-.559 5.415-1.113c1.251-.255 2.501-.51 3.676-.744q.192-.037.384-.078h-.003a619 619 0 0 1 8.069-1.567c.888-.165 1.774-.34 2.666-.467q.221-.035.449-.047c.14-.006.308-.006.414.103a.25.25 0 0 1 .05.258c-.031.094-.115.147-.193.193-.1.06-.221.097-.334.13q-.303.094-.611.172c-.449.118-.901.227-1.353.336-.889.215-1.774.423-2.663.631-1.771.414-3.545.812-5.319 1.21q-2.69.606-5.384 1.192-2.69.587-5.385 1.17l-5.354 1.156q-2.278.49-4.552.986a1 1 0 0 1-.19.022.66.66 0 0 1-.355-.096z"/><path fill="#000" d="M213.772 71.44a4.2 4.2 0 0 1-1.425-.774c-.78-.634-1.319-1.537-1.699-2.457-.393-.952-.618-1.963-.755-2.98a20 20 0 0 1-.156-2.949c.038-2.115.346-4.227.833-6.283a36 36 0 0 1 1.783-5.521c.808-1.954 1.796-3.848 3-5.59a20 20 0 0 1 1.989-2.457c.732-.762 1.543-1.456 2.457-1.994.823-.485 1.764-.862 2.728-.909.477-.024.957.013 1.409.178.203.075.396.165.58.28.084.053.156.115.234.177l.037.019c.147.084.175.292.088.426-.097.146-.281.171-.428.087-.109-.037-.224-.062-.286-.08a5 5 0 0 0-.583-.116 5 5 0 0 0-.471-.022 6 6 0 0 0-.515.044c-.19.034-.374.075-.561.127q-.285.09-.561.206-.36.166-.705.364c-.299.183-.583.385-.86.597q-.622.501-1.182 1.064a19 19 0 0 0-1.428 1.651 27 27 0 0 0-1.796 2.71 34 34 0 0 0-1.83 3.748 38 38 0 0 0-1.469 4.358 34 34 0 0 0-.838 4.283 26 26 0 0 0-.194 3.316c.016.765.066 1.524.172 2.283q.12.784.324 1.546.149.506.349.995.178.401.396.778c.106.17.218.339.343.497q.15.182.312.349c.103.096.209.19.318.273q.15.112.315.209.139.073.284.137.12.046.24.084c.368.115.567.538.446.896a.71.71 0 0 1-.68.476.7.7 0 0 1-.218-.035z"/><path fill="#FED980" d="M188.694 83.54c2.379 3.41-1.54 11.773-2.669 15.518-1.019 2.943-2.06 5.883-3.08 8.822-2.108 6.05-3.654 12.277-5.802 18.312q-.888 2.594-1.765 5.188c.433.05.829.457.608.986-1.035 2.526-4.047 2.93-6.445 3.216a558 558 0 0 1-12.284 1.453c-3.452.292-6.897.709-10.355.871-.811.012-1.621-.016-2.429-.006-.387.218-.913.018-1.035-.426-.128-.467.281-.98.779-.89.365-.009.736-.053 1.107-.075.091-.137.215-.261.343-.37.873-1.054 1.715-2.174 2.32-3.406-.789-.849.596-1.431 1.079-1.922 1.032-1.042 2.329-1.966 2.719-3.391-.487-.112-1.26-.006-1.693-.273l-.057.025c-.433.143-.913.525-1.378.292-.492-.296-.258-.911.166-1.139.639-.388 1.325-.699 1.995-1.038.041-.032.078-.06.115-.094.939-.79 2.152-1.49 2.66-2.647-2.862-1.02-5.89.174-8.658.977a.68.68 0 0 1-.456-.016c-1.138.722-2.322 1.36-2.846 1.195a.63.63 0 0 1-.39-.576c0-.466.455-.637.801-.83 1.141-.657 2.245-1.378 3.343-2.103a24 24 0 0 0 3.644-3.272c-3.445-.314-6.924.171-11.314 1.428-.524.124-1.045.335-1.578.435-.134.327-.299.678-.633.803-.265.099-.592.065-.792-.156-.505-.563 0-1.356.131-1.978.48-1.54.982-3.077 1.444-4.623.629-2.046 1.106-4.133 1.661-6.199.552-2.009 1.266-3.969 1.977-5.929q.36-.985.714-1.972c.194-1.185.374-2.373.574-3.558.358-2.134.77-4.274 1.525-6.308.23-.6.91-2.417 1.636-3.521a.51.51 0 0 1-.13-.43c.205-1.1 1.53-1.546 2.456-1.913 6.006-2.074 12.463-.75 18.667-.818 5.316.15 10.604-.45 15.899-.777a62 62 0 0 1 3.488-.094c1.407-.028 2.994 0 3.929 1.226z"/><path fill="#fff" d="M171.425 146.995c.043 3.285.059 6.573-.166 9.851-.405 5.083-.604 10.187-1.103 15.26-.409 4.091-1.375 8.085-2.273 12.088.399.143.611.7.293 1.048q-.304.243-.618.476c-.096.448-.29.877-.86.809a.6.6 0 0 1-.203-.062q-.031.022-.062.04a.65.65 0 0 1-.321.305q-.239.108-.484.205c-2.553 1.552-5.387 2.682-8.253 3.456-2.341.591-4.736.899-7.137 1.114-.018.32-.236.625-.667.665-5.391.315-10.785.706-16.185.806-.249-.012-.521-.028-.745-.131a91 91 0 0 1-8.674.013c-5.715-.227-11.543-.961-16.812-3.263-.352.146-.77.205-1.11.333-1.824.476-3.666.871-5.494 1.337-2.584.666-5.238 1.238-7.925 1.114-2.09-.084-4.013-.747-5.762-1.77a.7.7 0 0 1-.34-.037c-.945-.271-1.69-.974-2.423-1.596-1.016-.392-1.83-1.562-2.503-2.912a33 33 0 0 1-1.996-2.56c-4.221-6.414-4.642-16.171-5.1-23.724-.2-5.487.872-10.887 2.026-16.237.698-5.692 1.122-11.412 1.846-17.101.857-5.506 1.861-11.528 5.818-15.743 2.466-2.414 5.56-4.084 8.593-5.683 1.166-.541 5.55-2.759 6.379-1.536q.028.064.047.124c1.4.392 2.85.61 4.287.803.393-.725 1.649-.448 2.357-.582 1.515-.093 3.028-.218 4.54-.361 1.381-.249 2.722-.675 4.056-1.098.15-.04.306-.093.458-.137q-.002-.183.094-.358a.605.605 0 0 1 .664-.27c.421.093.564.628.708.977a16 16 0 0 0 1.578 3.023c2.285 3.443 6.217 5.061 9.771 6.806 1.743.849 3.498 1.683 5.294 2.411.833.379.368 1.58-.471 1.359a.67.67 0 0 1-.38.33c-.639.329-1.247.731-1.836 1.126-4.057 2.74-7.486 6.127-10.221 10.149-2.267 3.369-3.854 7.12-5.556 10.788-2.338 5.001-4.449 10.127-7.28 14.877-.783 1.316-1.581 2.626-2.351 3.951a57 57 0 0 0 5.671 6.986c.945 0 2.694 1.82 3.315 2.177 1.637 1.279 3.267 2.573 4.954 3.789.184-.597.399-1.213.577-1.726.658-1.92 1.44-3.792 2.257-5.649a63 63 0 0 0 2.139-5.5c1.02-2.883 2.186-5.711 3.202-8.597.162-.464.321-.933.483-1.397a.7.7 0 0 1 .212-.286c.041-.199.125-.389.247-.544.524-.579 1.362-.675 2.048-.989a44 44 0 0 0 3.679-1.599c2.376-1.229 4.808-2.563 6.822-4.308.49-.346.839-1.017 1.469-1.089a.68.68 0 0 1 .527.233c.595-.112 1.216-.161 1.805-.292 4.007-.635 8.05-.986 12.091-1.307 3.801-.304 7.62-.553 11.368-1.275.49-.155 1.176-.211 1.338.408a.7.7 0 0 1 .022.239.65.65 0 0 1 .567.115c.184.134.262.361.343.563.318.821.555 1.674.73 2.538.464 2.308.633 4.666.642 7.018z"/><path fill="#FFF7DB" d="M139.125 96.123c1.799 1.058.961 2.395.668 4.016-.437 1.938-.839 3.882-1.347 5.798-.368.949-.596 3.509-2.099 2.914-.711-.342-1.228-4.015-1.537-4.973a55 55 0 0 1-1.057-6.766c-.065-.693-.124-1.387-.19-2.08-.15-.548.221-1.26.864-1.046.583-.423 1.209.23 1.749.451.988.55 2.023 1.036 2.956 1.683z"/><path fill="#fff" d="M214.601 110.869c1.11 7.602 1.178 9.453-2.201 16.492a95 95 0 0 0-1.497 3.608c-.411 1.055-.779 2.125-1.222 3.167a.73.73 0 0 1-.586.432c-1.728 3.073-3.751 6.212-6.959 7.86-3.106 1.468-6.595 2.346-10.043 2.171-1.048-.105-2.22-.279-3.04-.986-.406.069-.839-.217-1.235-.298-.43-.184-1.038-.153-1.303-.588-.346-.171-.699-.333-1.013-.557a.56.56 0 0 1-.184-.196 27 27 0 0 1-1.993-.721c-1.786-.75-3.473-1.721-5.11-2.75q-1.18-.741-2.354-1.487c-.702-.513-1.734-.915-1.992-1.807a.57.57 0 0 1 .396-.644.46.46 0 0 1 .24-.016c.012-.51.305-1.051 1.007-1.617q.074-.057.162-.143c.068-.532.337-1.139.424-1.546.365-1.17.767-2.327 1.163-3.487.96-2.846 1.964-5.677 2.881-8.535.801-3.173 1.478-6.393 2.575-9.481.078-.212.15-.461.315-.622.29-.287.808-.196.964.186q.008.025.012.05a.71.71 0 0 1 .58.426c.876.417 1.821.653 2.766.859 1.658.376 3.273-.576 4.704-1.263a.7.7 0 0 1 .396-.094q.146-.486.315-.967c.493-1.409 1.157-2.75 1.781-4.106.159-.326.277-.759.667-.874.436-.022.642.131.711.383.277.053.524.27.558.575.196 2.174.374 4.461.913 6.613.858.078 1.001 1.21 1.335 1.845 1.088 3.132 2.126 4.065 5.385 4.799 1.805.333 3.647.429 5.481.433 1.846-1.805 2.703-5.267 3.286-7.407.025-.699.552-1.437 1.285-.945.361.302.355.809.433 1.238z"/><path fill="#FFF7DB" d="M152.306 123.241c.006-.554-.543-.906-1.061-.822-5.406 1.129-10.719 2.688-16.063 4.078 4.349-2.581 8.948-4.743 13.307-7.319.861-.317.939-1.39-.072-1.403q-.19.075-.383.159a.63.63 0 0 0-.418-.068c-1.833.413-3.67.833-5.509 1.219-2.928.644-5.89 1.201-8.752 2.093l.103-.261c.489-1.222.976-2.451 1.565-3.627.162-.386.486-.722.521-1.148a.684.684 0 0 0-.767-.668.7.7 0 0 0-.259.136q-.067.023-.137.05a.68.68 0 0 0-.649-.05 30 30 0 0 0-5.151 3.938c-7.504 4.812-11.67 13.559-15.299 21.466-.842 1.838-1.671 3.689-2.401 5.574-.087.33-.315.803-.477 1.272a170 170 0 0 0-1.662 3.089q-.945 1.816-1.824 3.664c-.362.884-.913 1.752-1.191 2.675-.246.165-.387.47-.24.806l.081.081c.053.336.29.519.555.566 3.508 3.605 6.95 7.332 10.838 10.542a.67.67 0 0 0 .836.021q.06.02.121.028c.393.066.767-.242.817-.628.181-.837.421-1.661.664-2.482.524-1.77 1.082-3.527 1.687-5.272.957-2.722 2.061-5.388 3.146-8.063 1.172-2.818 2.575-5.764 5.172-7.54q.16-.104.328-.199c.443.706 1.313-.068 1.955-.149 2.382-.769 4.633-1.929 6.719-3.307.346-.221.411-.563.312-.849a43 43 0 0 0 4.474-3.294c.536-.137.935-.582 1.384-.886.658-.548 1.422-1.033 1.893-1.764.514-.74-.047-2.075-1.02-1.471-.249.239-.467.522-.723.762a1.03 1.03 0 0 0-.664-.097 561 561 0 0 0 2.952-1.969c1.403-1.039 3.118-1.857 4.178-3.272.322-.523 0-1.257-.633-1.294-.545-.031-1.063.199-1.58.333-2.089.631-4.119 1.375-6.177 2.106 2.445-1.459 4.88-2.934 7.227-4.539.699-.575 2.18-1.278 2.286-2.23zm-7.463-60.634c1.026 2.314-.031 3.944-1.873 4.553a16 16 0 0 1 .567 3.105c.094 1.104.112 2.218.038 3.322a.6.6 0 0 1 .037.345q-.079.36-.143.725-.09.69-.234 1.372c-.209 1.231-.456 2.454-1.032 3.561-1.007 1.68-2.554 3.07-4.312 3.929-1.138.532-2.439.569-3.664.392q-.046-.001-.094-.007c-.071.436-.143.874-.205 1.31-.371 2.734-.546 5.496-.668 8.252-.199 3.668.858 7.229 1.865 10.716.689 2.535 2.061 5.123 1.512 7.811-.38 1.636-1.63 3.281-3.498 2.927-.998-.153-1.927-.582-2.859-.946-3.028-1.222-5.881-2.874-8.387-4.971-2.086-1.785-4.188-3.717-5.522-6.146a.75.75 0 0 1-.025-.725c-.078-.613.645-.914 1.088-1.188 1.587-.915 3.071-1.994 4.53-3.098 2.816-2.187 5.628-4.454 7.602-7.453.333-.463.838-1.06.037-1.356a10 10 0 0 0-.704-.277c-.147.224-.412.37-.767.292-2.685-.79-5.616-1.107-7.951-2.759-1.456-.973-2.644-2.286-3.751-3.633a16.5 16.5 0 0 1-1.88-2.765c-1.107-2.01-1.447-4.327-1.581-6.588.003-.168-.019-.507-.028-.896a37 37 0 0 1-.898-6.784c0-.019-.006-.04-.006-.062-.43-.218-.555-.887-.112-1.204 1.078-.55 2.176-1.08 3.205-1.726a135 135 0 0 0 3.408-2.122c.879-.485 2.192-2.018 2.949-.569 3.773-3.07 8.353-5.036 12.749-7.049-.184-.852-.885-1.586-1.605-2.043-1.65-.967-2.975 1.182-3.973.327-.53-.573.057-1.251.347-1.786.455-.768.795-1.596 1.265-2.355.169-.267.368-.52.677-.631 1.041-.324 1.559.961 2.176 1.546.615.715 1.235 1.424 1.905 2.087.867.846 2.401 2.24 1.65 3.185q.247.28.48.57c.645-.05 1.088.91 1.531 1.321.792.93 1.618 1.83 2.435 2.738 1.319 1.508 2.753 2.98 3.719 4.75zm66.349 37.88c1.132 3.499 2.529 7.17 1.512 10.871-.742 3.279-2.31 7.139-6.363 6.669-2.834-.062-5.238-.899-6.361-3.683-2.404-4.432-2.772-9.502-2.949-14.442-.175-3.773-.303-7.55-.468-11.325-.119-3.328-.209-6.666-1.369-9.82-1.275-3.31-2.896-6.486-3.816-9.926-.982-2.958-1.042-6.19.05-9.126.181-.557.954-2.566 1.805-3.86.097-.227.215-.417.384-.523.52-.622 1.041-.865 1.452-.258.989.155.615 1.732.786 2.47.038.743.175 1.468.362 2.18.337-.373.754-.964 1.231-1.617.34-1.64.708-3.267 1.204-4.875 1.309-4.205 3.255-8.165 5.045-12.18.196-.685.723-1.428 1.468-.812.521.631.153 2.24.175 3.054-.256 2.968-.412 5.957-.998 8.88a37 37 0 0 1-.907 3.444q.093.212.168.43c.187 1.387 1.671 1.723 2.532 2.606.876.719 1.11 1.969 2.101 2.554 1.126.79 2.498 1.344 3.38 2.401 1.961 2.7.337 5.574-.807 8.221-.992 2.476-2.314 4.918-2.576 7.609.066 4.106.833 8.15 1.294 12.22.321 2.99.789 5.967 1.668 8.835z"/><path fill="#313144" d="M122.445 58.497c-.166-.672 5.97-6.395 8.352-7.665 1.796-.877 4.624.52 2.392 2.343-.873.703-9.765 5.558-10.214 5.67a.48.48 0 0 1-.53-.348"/><path fill="#313144" d="M138.871 51.34c.05.662.162 1.689-.808 1.617-.365-.05-.564-.364-.77-.628-.754-.943-1.553-1.85-2.341-2.762-1.288-1.506-2.722-2.88-4.057-4.34q-.014-.021-.028-.05c-4.377 8.26-7.458 11.373-15.284 16.484-.701.376-2.566 1.91-3.785 2.413q.071 2.629.24 5.25c.225 2.77.371 5.594 1.247 8.25 1.428 4.006 4.103 7.378 7.58 9.577a.64.64 0 0 1 .365-.174c.648 0 1.241.358 1.845.566q1.598.689 3.265 1.192a.695.695 0 0 1 .508.811l.234.047c.711.205 1.584.066 2.173.56.39.417.072 1.008-.408 1.107-1.35 1.518-2.828 2.927-4.35 4.274-5.238 4.669-14.411 8.819-21.51 8.436-3.645-.246-6.725-2.762-8.562-5.789-4.144-6.662-4.28-14.753-4.805-22.343-.405-5.748-.873-11.543.153-17.257.649-4.884 1.986-9.985 5.631-13.525.614-.538 1.197-1.384 2.027-1.536a14.1 14.1 0 0 1 4.175-3.62c3.445-1.883 7.373-2.66 11.18-3.481 4.914-.787 10.224-1.481 14.892.68 1.752.788 3.32 1.917 4.907 2.987 1.066.73 2.117 1.502 3.003 2.45 1.705 1.889 2.74 4.374 3.155 6.866.084.644.097 1.294.122 1.94z"/><path fill="#000" d="M78.813 122.531a1 1 0 0 0-.097-.137.77.77 0 0 0-.533-.274c.028-.948.113-1.897.265-2.843.652-4.065 2.732-8.056 6.355-10.183 3.423-2.063 7.002-3.892 10.663-5.512q.112-.037.218-.078.36-.14.717-.308.079-.015.162-.034c.39-.106.742-.296 1.08-.513q.466-.196.938-.386c.982-.202 1.275 1.216.287 1.409-4.712 2.04-9.37 4.196-13.707 6.915-3.57 2.305-5.194 6.591-5.487 10.669a31 31 0 0 0-.028 1.316 9 9 0 0 0-.83-.038zm21.805 68.566c2.251-.324 4.486-1.179 6.438-2.106 5.778-2.961 10.411-7.658 14.698-12.433 2.323-2.495 4.265-4.824 4.306-8.417.112-1.562-.06-3.145-.593-4.622q-.262-.742-.614-1.447c-.387-.796.892-1.415 1.291-.647 1.843 3.618 1.886 8.197.059 11.83-1.783 2.84-4.265 5.194-6.523 7.658-5.185 5.278-11.807 10.94-19.393 11.624.212-.448.334-.949.331-1.44m30.463-62.562c-.165-.34-.034-.812.331-.968a107 107 0 0 0 5.194-2.333c2.248-1.045 4.365-2.277 6.473-3.536 1.665-1.036 3.439-1.966 4.883-3.31-4.521.588-8.917 1.928-13.236 3.328-1.459.492-2.912.992-4.368 1.49-.595.137-1.562.809-1.927.016-.19-.797.898-.961 1.422-1.232 1.434-.566 2.887-1.076 4.343-1.586 3.857-1.326 7.798-2.439 11.811-3.192 1.019-.146 2.154-.529 3.118.01 1.45 1.076-.399 2.519-1.332 3.191-1.58 1.141-3.28 2.112-4.957 3.107-3.389 2.053-6.984 3.752-10.635 5.285a.9.9 0 0 1-.462.131.7.7 0 0 1-.658-.398z"/><path fill="#000" d="M134.443 134.233a.73.73 0 0 1 .202-1.002c3.948-2.566 8.197-4.606 12.379-6.756 1.777-1.001 3.853-1.826 5.085-3.508-5.946 1.116-11.689 3.029-17.535 4.472-.624.162-1.244.33-1.868.476-.371.112-.876.103-.979-.364a.515.515 0 0 1 .278-.566c1.004-.547 2.154-.774 3.236-1.123 2.407-.693 4.826-1.353 7.243-2.018 2.21-.604 4.409-1.251 6.647-1.742.577-.128 1.157-.258 1.734-.38.748-.137 1.596-.41 2.298.007.72.438.58 1.418.165 2.021-1.487 2.184-4.73 3.466-7.022 4.716-2.5 1.266-5.15 2.591-7.536 3.96a77 77 0 0 0-3.323 2.009.75.75 0 0 1-.399.118.72.72 0 0 1-.605-.32"/><path fill="#000" d="M136.871 139.231c-.624-.012-.929-.87-.433-1.266 3.305-2.675 7.062-4.69 10.663-6.92 1.263-.837 2.666-1.627 3.536-2.903-1.862.153-3.505.803-5.239 1.369-.801.271-1.599.547-2.416.765-.43.156-1.291.224-1.147-.473.04-.161.19-.283.321-.37.402-.252.901-.448 1.312-.622 1.98-.79 3.979-1.602 6.083-1.984 2.607-.647 3.493 1.104 1.628 2.955-2.002 1.944-4.543 3.2-6.9 4.65-2.111 1.257-4.2 2.566-6.155 4.053-.405.252-.735.746-1.25.746z"/><path fill="#000" d="M126.246 146.305q-.405-.028-.81-.065c-.948-.09-.876-1.468.081-1.443 2.061.13 4.165.376 6.098-.445 1.553-.625 3.118-1.232 4.581-2.047 1.022-.588 1.976-1.288 2.915-2a84 84 0 0 0 4.1-3.338c1.241-1.129 2.394-2.124 3.314-3.483-.383.093-.81.32-1.2.149a.49.49 0 0 1-.262-.513c.093-.455.595-.657.957-.868 1.082-.666 2.494-.165 2.074 1.26-.443 1.21-1.428 2.124-2.311 3.029-1.942 1.907-4.078 3.605-6.245 5.251-1.855 1.465-3.957 2.56-6.158 3.406-.764.305-1.518.647-2.31.871-.926.236-1.88.308-2.834.308-.665 0-1.332-.035-1.993-.069zm19.54-9.764.034-.034-.006.006-.053.053.022-.022zm.047-.047-.01.01zm-39.792 19.219c-.364-.174-.495-.603-.336-.964.38-.865.788-1.714 1.191-2.566q.644-1.361 1.312-2.709.493-.966.979-1.932.08-.083.141-.18c.09-.14.165-.287.187-.455v-.018c1.484-2.924 2.962-5.848 4.374-8.806 1.955-3.91 3.888-7.867 6.426-11.441 2.548-3.499 5.799-6.432 9.298-8.958 1.668-1.135 3.202-2.544 5.013-3.437 1.475-.529 1.918.637 1.619 1.897-.194 1.185-.568 2.342-1.001 3.459-.284.597-.636 1.898-1.522 1.577-.698-.37-.181-1.204.034-1.72.478-1.216.886-2.436 1.082-3.717-3.457 2.336-6.887 4.787-9.874 7.711-5.459 5.331-8.319 12.498-11.689 19.173-1.877 3.789-3.876 7.518-5.647 11.36-.212.46-.43.918-.636 1.381-.115.258-.386.404-.658.404a.7.7 0 0 1-.308-.068z"/><path fill="#000" d="M118.532 170.872a.73.73 0 0 1-.462-.912c1.441-4.19 2.906-8.373 4.465-12.523a374 374 0 0 1 2.604-6.591c.695-1.667 1.337-3.381 2.313-4.911.15-.215.318-.467.577-.554.595-.159.845.488.561.942-2.441 5.382-4.455 10.953-6.482 16.502-.717 2.019-1.437 4.037-2.136 6.062q-.262.762-.52 1.524a.74.74 0 0 1-.914.464z"/><path fill="#000" d="M117.75 170.48c-5.058-3.612-13.233-10.598-15.197-16.502-1.029-3.732.976-6.196 4.237-6.037.109.062.225.112.337.152.162.059.349.094.533.094.131 0 .262-.019.38-.06q.006 0 .01-.003.274.065.558.153c.982.14 1.16 1.48.034 1.409-1.066-.283-2.201-.414-3.286-.159-1.462.358-1.771 2.081-1.553 3.366.303 2.09 1.684 3.798 2.912 5.443 2.152 2.703 4.509 4.99 7.087 7.195 1.921 1.552 3.698 3.512 6.077 4.333 3.657.638 5.547-4.262 4.945-7.238a.73.73 0 0 1 .571-.85c1.487-.08.926 2.66.838 3.584-.392 3.067-2.849 6.04-5.749 6.04-.889 0-1.815-.276-2.737-.917z"/><path fill="#000" d="M117.678 180.991c-3.81-.031-7.545-1.434-10.395-3.957-1.83-1.533-3.502-3.25-5.073-5.042-2.656-2.983-5.07-6.47-5.54-10.526-.344-2.461.018-5.16 1.795-7.024a53 53 0 0 1 3.34-3.757c.399-.408.804-.812 1.241-1.179.324-.274.782-.684 1.225-.404.779.619-.468 1.368-.833 1.863a81 81 0 0 0-3.33 3.751c-.47.585-.976 1.148-1.375 1.785-.798 1.497-.813 3.267-.614 4.912.73 5.188 4.618 9.179 8.147 12.759 2.195 2.144 4.699 4.153 7.748 4.872 1.266.326 2.566.5 3.873.507.137.009.277 0 .421-.013.324-.025.651-.047.916.162.487.395.209 1.232-.421 1.266a6 6 0 0 1-.682.031q-.222 0-.443-.003z"/><path fill="#000" d="m94.858 163.63-.003-.006a4 4 0 0 1-.087-.159c-.019-.046-.034-.09-.053-.137q-.02-.072-.034-.146a5 5 0 0 1-.025-.286c0-.162.01-.327.015-.488q0-.054.006-.106.767-.916 1.619-1.751c.68-.56 1.587.364.997 1.029a27 27 0 0 0-1.908 2.14.74.74 0 0 0-.53-.09zm12.54-15.86h.018q-.009 0-.018.003zm.529 1.542a.76.76 0 0 1-.296-.46c-.053-.228-.106-.451-.156-.679q.094.012.187.013c.131 0 .262-.019.381-.059q.17-.058.34-.153a1.4 1.4 0 0 0 .492-.18q.092.398.178.796c.106.461-.312.853-.733.853a.65.65 0 0 1-.393-.131m-5.072-44.676c-2.507-.146-4.677-.622-6.557-1.396l.1-.047q.079-.015.162-.034c.57-.153 1.057-.489 1.537-.828 4.502 1.428 9.706.965 14.211-.174 6.61-2.09 12.042-6.716 16.466-11.885-3.876-1.6-8.063-2.271-11.119-5.431-6.376-5.736-7.012-17.015-7.049-25.105-.006-3.366.558-6.523 1.818-9.615.289-.871 1.652-.473 1.368.432a38 38 0 0 0-1.191 3.752c-1.259 6.64-.592 19.839 3.605 26.607a.68.68 0 0 0 .13.622c.219.237.449.457.674.688.193.193.38.395.571.59.33.346.67.679 1.035.987.29.283.586.54.885.78l.059.069c.116.134.237.252.406.314q.032.015.065.019c2.853 2.056 6.061 2.575 9.447 4.022 2.099 1.384-.695 3.331-1.674 4.488-6.538 6.912-13.899 11.176-23.397 11.176q-.765 0-1.549-.037z"/><path fill="#000" d="M111.027 64.286a.727.727 0 0 1 .318-.97 50 50 0 0 0 3.046-1.65c1.019-.6 2.02-1.225 3.021-1.856 4.655-2.803 8.721-6.641 11.409-11.388.502-.902.969-1.835 1.353-2.796.109-.27.196-.585.477-.725a.63.63 0 0 1 .689.08c.464.43.097 1.102-.066 1.593-1.368 3.335-3.448 6.296-5.958 8.856q-.182.112-.358.227c-.234.15-.484.29-.577.566a1 1 0 0 0-.038.159c-1.995 1.873-4.221 3.512-6.56 4.905-1.886 1.18-3.788 2.333-5.784 3.32a.7.7 0 0 1-.324.074.72.72 0 0 1-.651-.392z"/><path fill="#000" d="M138.082 54.283q-.181-.23-.365-.46.013.02.028.034l-.197-.24a1.2 1.2 0 0 0-.383-.314 1 1 0 0 0-.162-.059 21 21 0 0 0-.496-.541l-.234-.252-.022-.025-.003-.003c-.075-.087-.146-.177-.224-.264q-.29-.366-.59-.722c-1.58-1.953-3.242-3.77-5.178-5.344-.702-.631.205-1.695.947-1.092q.867.709 1.678 1.478c2.048 1.894 3.704 4.14 5.475 6.283a1.77 1.77 0 0 0 .143 1.303q.066.118.141.23v.225l-.053.118q-.253-.173-.505-.352z"/><path fill="#000" d="M138.081 54.28q-.178-.229-.361-.458.013.02.028.035l-.197-.24a1.2 1.2 0 0 0-.383-.314 1 1 0 0 0-.162-.06 28 28 0 0 0-.496-.544l-.006-.006c.174-.631 1.247-.715 1.397.05.046.249.068.482.102.71.047.295.097.59.159.883l-.081-.06zm-20.349 30.33c-.877-.202-.64-1.499.215-1.424.299.295.611.578.944.836q.154.12.328.215l.025.031q.155.192.315.38c.115.133.237.252.405.314a.8.8 0 0 0 .299.046q.02-.001.041.004.141.028.284.062-1.431-.22-2.856-.464m18.641 26.213c-1.163-2.899-2.017-5.922-2.797-8.943-.742-2.933-1.113-6.043-.77-9.042q.145-.058.262-.187.093.056.19.097c.153.068.325.121.493.155q.249.051.499.066c-.44 3.963.455 8.115 1.652 11.932.537 1.788 1.076 3.608 1.79 5.328.246.56-.228 1.014-.695 1.014-.244 0-.487-.124-.624-.42m-18.792 2.118c-2.84.874-13.272 6.423-15.149 3.4-.446-1.117.006-2.389-.01-3.562.15-2.043.3-4.09.459-6.137.109-.7-.013-1.53.417-2.13.278-.284.78-.203.97.14.181.348.044.762.05 1.135-.087 1.574-.19 3.173-.299 4.74l-.294 4.262c.032.28-.196.799.113.936 2.797.299 5.824-1.266 8.421-2.193 1.787-.675 3.514-1.536 5.341-2.09 1.921-.205 1.643 3.577 2.027 4.843.096.718 2.126.656 3.589.594.567-.025 1.05-.05 1.3-.025 2.148-.056 4.259-.115 6.37-.463a.73.73 0 0 1 .81.625c.047 1.085-1.393.834-2.117 1.011-2.656.258-5.331.305-7.997.302-.097 0-.187.003-.278.003-3.994 0-2.868-2.442-3.723-5.394zm15.598 3.421c-6.021-2.488-15.839-8.127-17.937-14.569-.103-.601.633-1.055 1.082-.598.168.184.227.442.346.66 2.775 5.412 8.44 8.79 13.597 11.599 1.135.575 2.288 1.123 3.48 1.58.76.327.42 1.391-.275 1.391a.7.7 0 0 1-.293-.063"/><path fill="#000" d="M139.048 97.466a14 14 0 0 0-1.312-1.008 26 26 0 0 0-2.906-1.717c-.534-.351-1.319-.42-1.662-.995-.169-.426.112-.771.48-.871.034.01.072.016.106.025q.284.055.574.068c1.3.473 8.402 4.125 5.397 4.862h-.016c-.274 0-.474-.187-.661-.367z"/><path fill="#000" d="M141.396 138.66c-.05-.383.234-.769.627-.809 2.772-.277 5.54-.585 8.318-.809 7.212-.65 14.564-.818 21.617-2.551.72-.311 1.709-.516 2.279-1.085q.01 0 .019-.003a.68.68 0 0 0 .443-.367c.059-.128.09-.274.131-.408l.137-.451c.087-.295.174-.588.249-.886a38 38 0 0 0 .334-1.468l.009-.05c.29-.977.568-1.957.848-2.933 1.428-5.027 3.084-9.982 4.64-14.968 1.699-5.335 3.485-10.645 5.21-15.97.605-2.215 5.094-14.268.296-13.229-8.774.526-17.551 1.092-26.35.924-4.044-.006-8.225-.532-12.166.597-4.829 1.4-5.378 7.033-6.304 11.201-.748 3.655-1.565 7.297-2.647 10.871-1.073 3.183-1.958 6.501-2.922 9.696-.18.613-1.203.544-1.256-.134.57-3.589 1.949-7.017 2.949-10.504 1.067-3.596 1.856-7.266 2.61-10.94.58-2.983 1.207-5.978 2.703-8.243.06-.065.106-.14.159-.211q.102-.14.2-.28l.112-.159q.285-.358.608-.684a.9.9 0 0 0 .259-.112c.097-.062.174-.143.252-.224l-.018.022q.248-.257.486-.523c1.026-.74 2.295-1.275 3.888-1.53 3.558-.635 7.196-.336 10.788-.286 4.013.05 8.029 0 12.041-.128 4.026-.118 8.032-.373 12.045-.675 4.633-.423 6.548-.224 6.108 5.11-.839 6.449-3.477 12.499-5.347 18.692-3.156 9.397-5.949 18.912-8.871 28.377a2.7 2.7 0 0 1-.477.731c-.252.066-.446.299-.63.47q-.19.177-.392.336c-2.454 1.44-6.932 1.726-9.074 2.087-4.053.473-8.119.843-12.191 1.132-2.513.178-5.023.402-7.529.66-1.126.115-2.251.236-3.38.345l-.075.003a.73.73 0 0 1-.736-.628z"/><path fill="#000" d="M173.27 134.998c.028-.299.293-.563.605-.52.196.016.364.175.442.346.022.077.038.158.056.236-.024.022-.053.04-.081.062a9 9 0 0 1-.333.218q-.266.148-.546.277-.095.041-.19.087zm-43.516 59.242c-5.625-.14-11.209-.945-16.725-2.021-1.896-.392-3.835-.738-5.615-1.521-.833-.405-.362-1.671.564-1.332 1.512.675 3.258 1.002 4.792 1.328 2.722.551 5.466 1.005 8.216 1.378 5.721.794 11.524.937 17.283.507 8.979-.709 18.252-1.558 26.48-5.434.957-.516 1.983-1.026 2.694-1.863.262-.504.24-1.113.368-1.661q.136-.779.28-1.558c.465-2.392.845-4.8 1.092-7.22.785-6.663 1.509-13.335 2.054-20.019.244-2.725.565-5.45.883-8.172l.012.271q.029.565.084 1.126c-.009.305-.018.61-.015.914v-.074q.001.466.022.927v-.078c.021.647.031 1.294.056 1.941.028.628.04 1.26.046 1.888v-.019.059-.04.059c.007.874.016 1.751.01 2.625q-.009 1.303-.013 2.601v-.09.112c-.626 6.55-1.256 13.101-2.135 19.624-.34 2.171-.771 4.327-1.138 6.492-.184 2.202-4.313 3.785-6.136 4.526-5.192 2.018-10.682 3.116-16.207 3.717-4.955.569-9.937 1.032-14.926 1.032a72 72 0 0 1-2.02-.028z"/><path fill="#000" d="M150.473 193.274a.73.73 0 0 1-.617-.812c.071-1.014.162-2.025.237-3.039.196-2.6.371-5.226.551-7.82.901-13.699 2.492-27.699-.969-41.18-.113-.43-.237-.853-.359-1.279-.084-.301-.203-.625-.087-.936a.51.51 0 0 1 .536-.308c.736.118 1.091 2.009 1.322 2.644 3.274 12.392 2.089 25.37 1.216 37.989-.237 3.434-.452 6.725-.705 10.134-.102 1.328-.187 2.663-.308 3.988-.035.361-.374.625-.72.625q-.048.002-.094-.006zm-5.151-.454c.617-15.743 2.061-37.911-4.602-52.257-.823-1.098.474-2.069 1.113-.722 4.876 9.571 5.076 20.757 5.459 31.277.094 6.423-.09 12.849-.377 19.266-.196.868.296 3.111-.876 3.151-.374 0-.739-.326-.717-.715m.988-49.361c-1.287-.504-1.73-2.23-1.029-3.372.2-.401.824-.858 1.191-.401.836-.473 1.831.473 2.077 1.247.493 1.235-.296 2.682-1.525 2.682a1.8 1.8 0 0 1-.714-.156m.702-1.272c.418-.156.231-.849-.016-1.095-.19-.149-.477-.128-.63-.333-.143.535.016 1.316.649 1.428z"/><path fill="#000" d="M149.141 160.822c-1.357-.405-1.46-2.293-.571-3.207.418-.588 1.528-.408 1.347.426.246-.426.889-.454 1.185-.062.739 1.088-.303 2.895-1.59 2.895q-.183.002-.374-.052zm.389-1.394c.225-.124.34-.404.378-.65a.7.7 0 0 1-.069-.56c-.29.292-.592.821-.309 1.207zm-.322 18.305c-1.294-.532-1.122-2.796.187-3.185.752-1.11 1.799.395 1.862 1.223.237 1.023-.474 2.09-1.456 2.09q-.285.001-.593-.128m.546-1.253s.022.006.031.006c.184-.168.078-.495.019-.703-.097.215-.162.479-.053.7zm25.314-43.791a.7.7 0 0 1-.212-.146q.055-.187.112-.37c.078-.261.156-.526.224-.79.437-.038.814.295 1.188.488q.077.043.153.09c-.04.097-.081.19-.118.29a10 10 0 0 0-.234.678l-.125.385q-.498-.303-.985-.622zm35.567-3.865c-.119.068-.237.14-.356.205l-.037-.009a.3.3 0 0 0-.237.062.5.5 0 0 0-.156.059h-.003q-.005 0-.009.003h-.004.004l-.025.01a.73.73 0 0 1 .823-.336zm-.899.467.004-.004q.001.001-.004.008z"/><path fill="#000" d="M206.363 129.75c-4.487-.609-11.312-2.56-13.806-6.588-1.846-3.518-3.414-7.792-1.734-11.658.677-1.975 1.354-3.972 2.392-5.792.443-.747 2.734-4.644 3.395-2.569-.022.5-.517.805-.785 1.194-.852 1.07-1.603 2.398-2.136 3.599-.883 2.479-2.311 5.017-2.136 7.695a18.1 18.1 0 0 0 2.603 7.36c1.11 1.397 2.722 2.277 4.316 3.023 3.058 1.301 6.158 2.364 9.478 2.358 2.373-.541 4.237-2.513 5.69-4.361 2.373-3.844.493-11.356-.361-15.671-.075-.74-.923-1.897.081-2.305a.734.734 0 0 1 .91.467c1.216 4.252 1.849 8.682 1.983 13.102 0 2.768-1.082 5.502-3.246 7.288-.807.799-1.724 1.58-2.734 2.137-.009 0-.019-.007-.031-.007a.32.32 0 0 0-.237.063.5.5 0 0 0-.159.059h-.019.013a2 2 0 0 0-.284.127c-.131.072-.262.143-.39.224a.3.3 0 0 0-.059.053 5.5 5.5 0 0 1-1.752.302c-.328 0-.658-.031-.998-.1z"/><path fill="#000" d="M204.388 118.733c-2.766-.118-4.814-1.561-5.609-4.218-1.288-3.533-2.866-7.185-2.7-11.014.025-.709.227-1.17.495-1.443.181.336.337.681.49 1.032q0-.007-.006-.015l.271.647q.091.22.187.441c-.062 2.259.776 4.495 1.44 6.629.911 2.041 1.138 4.893 3.327 5.991 2.18.781 4.637.737 6.91.448 1.234-.501 1.546-2.1 1.97-3.22.449-2.196 2.058-6.196.68-8.099-.518-.778.717-1.577 1.216-.784.848 1.182.938 2.656.658 4.043-.64 2.893-.989 7.338-3.514 9.195-.936.398-1.949.507-2.978.507-.954 0-1.917-.096-2.834-.14zm-9.349-38.577a.6.6 0 0 1 .231-.364q-.048.131-.097.258-.054.151-.109.296l-.025-.193z"/><path fill="#000" d="M211.211 104.617c-2.155-8.352-3.065-16.98-3.82-25.55-.028-.367.3-.697.661-.712.833.003.739.964.805 1.548.567 5.478 1.141 10.894 2.042 16.318a97 97 0 0 0 1.715 8.05c.109.504-.331.831-.752.831-.283 0-.555-.146-.651-.488zm-16.814-24.878c-.427-1.434-1.107-2.778-1.684-4.156-1.135-2.718-2.584-5.421-2.694-8.426-.184-2.986.587-5.932 1.45-8.769.58-1.58.939-3.487 2.379-4.532 1.512-.964 2.632.554 3.025 1.894.258.921-1.051 1.332-1.379.439-.383-.914-.611-1.798-1.409-.5-.602 1.041-.979 2.366-1.344 3.47-.817 2.785-1.555 5.68-1.219 8.601.443 3.428 2.308 6.445 3.53 9.63.193.495.421.993.57 1.509l-.012.031q-.079.182-.153.364-.147.377-.284.759-.135.375-.283.743c-.331-.214-.396-.693-.493-1.054z"/><path fill="#000" d="M195.491 66.314c-.414-2.314.512-4.917 1.048-7.179.514-2.143 1.93-4.031 3.685-5.306.387-1.478 4.789.059 4.69 1.53-.097 1.739-1.456 3.319-2.186 4.877-.689 1.35-3.91 6.75-6.108 6.75-.424 0-.811-.199-1.132-.669zm3.327-8.977c-1.256 2.498-1.755 5.366-2.017 8.119 2.5-1.667 3.819-4.483 5.257-6.993.483-.958 1.097-1.888 1.424-2.905-.523-.715-1.652-.84-2.491-.861-.608.964-1.556 1.68-2.176 2.64z"/><path fill="#000" d="M200.382 70.315c-2.401-.52-1.852-3.543-1.332-5.295.144-.522.3-1.048.477-1.561.197-.585 1.085-.622 1.332-.056.199.482-.156.973-.253 1.443a17 17 0 0 0-.483 1.97c-.066.665-.303 1.713.439 2.068.799-.414 1.385-1.226 1.983-1.888a48 48 0 0 0 2.785-3.985c.433-.71.851-1.428 1.2-2.18.343-.772.477-1.117-.299-1.662a6.6 6.6 0 0 0-1.322-.818c-.384-.13-.805-.26-.817-.746-.025-.445.411-.793.839-.728.979.208 1.845.846 2.584 1.496 1.746 1.524-.068 3.773-.901 5.304-.982 1.49-4.109 6.656-6.058 6.656a1 1 0 0 1-.174-.015z"/><path fill="#000" d="M203.134 70.887c-1.313-.028-1.609-2.128-.677-2.79.967-.305.945.68.901 1.34 2.145-.463 4.044-3.96 6.286-2.616.408.206.611.719.33 1.11-.221.318-.689.411-1.007.175-.411-.482-1.509.423-2.731 1.328-.988.731-2.061 1.462-2.924 1.462q-.09 0-.175-.01z"/><path fill="#000" d="M207.731 79.97c-.342-.181-.492-.63-.302-.974a59 59 0 0 0 1.787-3.503c1.156-2.871 1.948-5.717 2.572-8.71.075-.758.29-1.639-.128-2.33-1.001-1.194-2.31-2.167-3.763-2.68-1.381-.43-.58-1.845.639-1.279 1.456.482 2.725 1.44 3.785 2.529 2.017 1.95.592 5.054.084 7.381-.636 2.193-1.222 4.427-2.251 6.476-.477.66-1.182 3.173-2.126 3.173a.6.6 0 0 1-.3-.084zm-10.254-22.384c-.985-.553 1.11-6.722 1.447-7.844 1.007-3.011 2.151-6.007 3.66-8.803.424-.728.864-1.512 1.594-1.975 1.022-.548 1.733.323 1.849 1.293.23 1.512.034 3.052-.122 4.564-.387 3.113-.867 6.215-1.584 9.266-.243.902-1.571.606-1.394-.32.35-1.543.646-3.096.895-4.635.393-2.85 1.057-5.748.773-8.635-.823 1.051-1.409 2.386-1.936 3.527-1.191 2.65-2.223 5.518-3.052 8.277a53 53 0 0 0-1.035 3.991c-.097.476-.216 1.4-.755 1.4a.7.7 0 0 1-.346-.106z"/><path fill="#000" d="M195.681 59.33a24 24 0 0 1-.128-2.43c.004-.332.007-.68.131-.998.128-.317.468-.51.802-.38.424.169.445.7.464.99.047.943.088 1.801.162 2.715 0 .464-.361.707-.723.707-.324 0-.649-.196-.711-.61zM98.97 103.924c-9.34-5.752-9.943-20.713-10.45-30.586a187 187 0 0 1 0-12.81c.118-3.474.66-6.992 2.157-10.158 4.212-8.312 13.263-13.749 22.393-14.875 7.978-.995 17.229.187 22.826 6.495 2.628 3.163 3.844 7.44 3.239 11.5q-.138.276-.271.553-.141.295-.278.594-.252-.173-.505-.351-.18-.23-.364-.46.013.019.028.034l-.147-.18c.087-.511.262-1.052.212-1.416.109-1.723-.1-3.472-.673-5.105-3.673-10.246-16.828-11.686-26.169-9.85-7.654 1.53-15.084 6.389-18.813 13.325-2.005 3.981-2.227 8.514-2.267 12.89-.078 4.834-.01 9.686.318 14.51.561 7.118 1.369 14.63 5.385 20.739 1.053 1.549 2.238 2.812 3.76 3.857.991.333.901 1.39.084 1.39a1.3 1.3 0 0 1-.465-.096"/><path fill="#000" d="M138.082 54.279a29 29 0 0 0-.337-.426l-.197-.24a1.2 1.2 0 0 0-.383-.314.8.8 0 0 0-.209-.068c.065-.227.24-.408.567-.454.758-.069.902.98 1.188 1.574l-.127.276q-.253-.173-.506-.351z"/><path fill="#000" d="m137.716 53.823.028.034-.197-.24a1.15 1.15 0 0 0-.358-.301 1 1 0 0 1 .181-.187c.495-.29.973.187.997.684.053.302.11.604.181.9l-.05.111c-.258-.336-.517-.675-.782-1.005zm-14.084 9.023c-.617-.855.801-1.213 1.369-1.496 1.671-.694 3.38-1.29 5.06-1.96 1.319-.522 2.485-.998 3.679-1.642.839-.432 1.519.793.692 1.27-2.516 1.324-5.231 2.223-7.9 3.19-.639.224-1.276.458-1.921.672-.187.056-.396.137-.592.137a.49.49 0 0 1-.39-.17z"/><path fill="#000" d="M132.037 60.598c-.537-.196-.689-.977-.159-1.273.127-.093.268-.08.405-.071a.8.8 0 0 0 .302-.016c.449-.678 1.531-.177 1.294.604-.193.538-.77.849-1.331.849-.175 0-.349-.031-.511-.093m49.224 50.545c0-.386.324-.709.711-.709s.711.323.711.709a.717.717 0 0 1-.711.709.717.717 0 0 1-.711-.709m.568 5.435a.6.6 0 0 1-.234-.492c.003-.143.038-.27.091-.404.093-.24.262-.457.414-.66.293-.385.63-.74.976-1.079.346-.342.736-.647 1.123-.942.38-.287.764-.563 1.153-.837a50 50 0 0 1 2.333-1.555c.614-.386 1.24-.756 1.88-1.095.732-.389 1.496-.713 2.263-1.039a.734.734 0 0 1 .948.385.727.727 0 0 1-.387.946c-.608.258-1.219.513-1.795.799l-.019.01-.013.006c-1.247.631-2.429 1.387-3.588 2.165l-.035.025c-.483.326-.966.659-1.44 1.001-.465.333-.926.669-1.36 1.042-.449.405-.866.843-1.269 1.291a8 8 0 0 0-.183.221 1.1 1.1 0 0 1-.259.252.5.5 0 0 1-.259.072.6.6 0 0 1-.34-.112"/><path fill="#000" d="M187.457 111.525c-1.761-.532-3.548-1.297-4.991-2.454-.559-.772.427-1.406 1.088-.843 1.409.833 2.856 1.44 4.362 1.981.661.373.293 1.428-.456 1.316zm-82.562 46.404c-.442-.355-.165-.977-.006-1.403.558-1.533 1.313-2.973 2.105-4.395.284-.607.63-1.176.966-1.748.113-.314.375-.641.746-.482.236.099.367.395.258.634-.561 1.5-1.197 2.968-1.852 4.43-.358.784-.692 1.58-1.079 2.351-.168.445-.642.989-1.134.616zm20.637 6.411c-.178-.122-.268-.302-.315-.504a16 16 0 0 0-.627-1.994c-.402-1.048-1.082-1.954-1.768-2.831-.455-.482-.676-1.328.191-1.474.424-.041.735.386.982.672 1.206 1.359 2.039 2.995 2.485 4.753q.092.325.171.656c.147.603-.626 1.092-1.119.725zm11.28-110.558c-.181-.121-.358-.268-.39-.495a.63.63 0 0 1 .396-.7c.64-.19 1.475.566 2.161 1.21q-.059.12-.118.246-.248.508-.468 1.03l-.034.065a33 33 0 0 0-1.547-1.353zm9.897 23.515.156-.074q-.084.092-.168.19l.012-.113zm-24.61 6.903.031.005.047.01.221.155q-.15-.084-.299-.17"/><path fill="#000" d="M123.954 84.76c-2.591-.544-6.753-1.331-8.721-3.086-.321-.339-.09-.954.406-.902 1.063.311 2.045.896 3.114 1.223 1.528.516 3.103.88 4.618 1.188 2.569.523 5.204.93 7.829.74 2.685-.267 7.065-.78 9.12-2.547 1.905-1.823 2.694-5.148 3.258-8.128.278.14.561.258.864.336q.26.07.527.121c-.661 3.428-1.64 7.18-4.066 9.061-1.26.961-2.819 1.406-4.34 1.78-1.84.422-3.713.721-5.597.833q-.568.034-1.138.034c-1.973 0-3.938-.283-5.877-.653z"/><path fill="#000" d="M132.572 95.703c.265-3.618.249-7.248.443-10.869-.081-.774.807-1.34 1.309-.612.206.482.038 1.039.066 1.549-.088 3.31-.137 6.631-.384 9.929-.003.933-1.437.933-1.434 0zm3.955-19.519c-2.223-.454-4.44-1.322-6.154-2.837-.562-.413-.555-1.334.286-1.312.216.018.396.174.562.298.598.464 1.25.856 1.92 1.204 2.601 1.26 5.622 1.844 8.487 1.325a7 7 0 0 0 1.759-.582c.424-.295 1.05-.497 1.368.05.428.8-.576 1.195-1.163 1.443-2.226.921-4.736.856-7.065.411m3.69-6.756c-.577.04-1.353-.183-1.222-.905a.73.73 0 0 1 .848-.572c2.351.373 5.924-2.25 4.892-4.803-.474-1.014-1.435-1.67-2.186-2.467-1.285-1.297-2.529-2.64-3.657-4.075-.54-.78-2.644-3.269-1.812-4.084.736-.553 1.126.495 1.425 1.002a20 20 0 0 0 1.4 2.053c1.169 1.471 2.445 2.858 3.767 4.19.922.914 2.011 1.76 2.472 3.02 1.2 3.434-2.691 6.71-5.93 6.641z"/><path fill="#000" d="M143.95 75.114c-.489-.09-.664-.594-.549-1.033.066-.563.091-1.132.088-1.698-.016-1.484-.134-2.986-.577-4.41-.078-.44.234-.838.692-.828.614.012.77.802.898 1.263.38 1.486.446 3.045.424 4.572-.09.74.162 2.249-.979 2.13zm-33.777 72.271c-.237-.162-.283-.507-.33-.753a315 315 0 0 0-3.689-15.229c-.096-.812-1.11-2.707-.174-3.167 1.075-.323.963 1.363 1.278 2 .555 1.895 1.07 3.801 1.556 5.714a340 340 0 0 1 1.88 7.808c.228.983.437 1.969.639 2.958.119.613-.686 1.07-1.16.669m60.793 18.989c-.895-.171-.474-1.241-.489-1.87.043-.653.068-1.303.103-1.956.09-1.792.183-3.584.24-5.375.193-7.021.006-14.231-2.27-20.944-.265-.895.969-1.256 1.319-.401 1.44 4.038 2.095 8.256 2.341 12.523q-.007.308-.006.616v-.075q.001.466.022.927v-.077c.022.647.031 1.294.056 1.941q.037.943.047 1.888v.258c-.022 2.656-.144 5.313-.272 7.932-.065 1.35-.24 2.693-.333 4.04-.028.336-.353.579-.674.579q-.042.001-.084-.006M91.849 193.76c-7.134-.868-11.156-5.434-14.096-11.596-6.395-12.999-3.645-27.852-2.36-41.675.748-7.136 1.79-14.237 3.261-21.261.203-.787.243-2.731 1.425-1.956.53.805-.134 2.112-.187 3.026-.271 1.459-.561 2.915-.83 4.37-1.643 9.077-2.525 18.272-3.364 27.451-.854 8.557-1.091 17.394 1.756 25.612 1.534 4.081 3.504 8.134 6.694 11.164 2.734 2.373 6.454 3.695 10.08 3.471 2.7-.174 5.285-1.029 7.879-1.723.898-.249 1.3 1.132.383 1.393-3.464.952-7.009 2.106-10.647 1.727zm118.583-65.633c0-.868 1.375-.93 1.443-.056-.477.293-.951.588-1.434.868.006-.274 0-.544-.009-.812m-1.333 8.626v-.007l-.011.018s0-.007.004-.011z"/><path fill="#000" d="M193.526 145.658c-6.491-.713-12.611-3.574-17.759-7.518a58 58 0 0 1-2.089-1.612c-.496-.451-1.69-1.051-1.001-1.801.695-.522 1.363.374 1.911.725a97 97 0 0 0 2.011 1.521c4.122 3.16 8.833 5.543 13.909 6.716 4.521 1.197 9.628.612 13.283-2.47a21 21 0 0 0 3.732-3.997l.754-.495q.621-.405 1.241-.802l-.018.034c-.097.187-.197.364-.281.554v-.01.007a3 3 0 0 1-.112.22l-.01.019v.003a.2.2 0 0 1-.022.034l-.043.072.028-.044c-.144.234-.246.486-.38.722q-.116.192-.228.389-.024.038-.047.081a.4.4 0 0 1 .031-.056c-.174.305-.358.603-.527.911-.149.274-.296.548-.458.815-3.105 3.764-7.523 6.063-12.362 6.063q-.776.001-1.566-.081zm15.697-9.145.003-.006-.003.01zm-.119.233-.01.018z"/><path fill="#000" d="M207.153 139.222c-1.06-.572.359-1.963.577-2.746.636-1.456 1.291-2.903 1.93-4.358 1.088-2.402 1.886-5.018 3.417-7.179.346-.259.901-.084 1.035.332.162.535-.28 1.021-.489 1.481-1.484 2.887-2.588 5.951-3.935 8.902-.066.1-.131.199-.184.305-.094.181-.193.358-.278.545 0 0 0 .006-.003.006a3 3 0 0 1-.112.218q-.017.026-.034.059l-.044.071.028-.043c-.143.233-.246.485-.38.721q-.116.192-.228.389v-.003l-.047.081q.014-.028.032-.056c-.175.305-.359.603-.527.911l-.215.392a.8.8 0 0 1-.237.041.7.7 0 0 1-.309-.072zm-10.838-34.62c-.296-5.783-.368-11.621-.898-17.37-.227-2.584-.358-5.197-.919-7.735-.456-1.089.994-1.593 1.328-.47.605 2.196.701 4.504.926 6.762.315 3.792.614 7.59.686 11.397.068 2.476.259 4.946.321 7.419-.016.933-1.412.955-1.444 0zM121.426 59.82c-.44-.047-.717-.551-.53-.95.09-.226.259-.431.405-.63.727-.993 1.568-1.901 2.417-2.79 1.986-2.104 4.143-4.231 6.943-5.183.951-.323 2.102-.476 2.953.168 1.022.715 1.877 2.401.549 3.257-2.732 1.614-5.622 2.955-8.466 4.364-1.069.538-2.107 1.058-3.192 1.53a6 6 0 0 1-.795.277.28.28 0 0 1-.287-.047zm1.503-1.437c3.404-2.134 7.096-3.795 10.51-5.907-.131-.486-.586-1.002-1.11-1.07-1.241-.01-2.372.665-3.408 1.281-1.864 1.191-3.545 3.042-4.963 4.532-.356.38-.702.765-1.029 1.167z"/></g><defs><clipPath id="a"><path fill="#fff" d="M0 0h282v211H0z"/></clipPath></defs></svg>
