<svg xmlns="http://www.w3.org/2000/svg" width="399" height="253" fill="none"><path fill="#fff" fill-rule="evenodd" d="M298.135 45.86c43.284 19.216 96.56 40.546 100.062 76.778 3.565 36.891-40.405 68.424-84.074 88.646-36.368 16.842-81.632 11.9-124.601 7.988-35.672-3.247-66.661-13.225-95.893-28.063C55.87 172.043-2.66 156.101.094 123.121 2.86 89.984 65.877 81.079 104.399 62.228c27.609-13.51 52.331-29.217 85.577-32.025 38.022-3.213 75.746 1.268 108.159 15.658" clip-rule="evenodd"/><path fill="#fff" d="M251.493 6.009c-.119 63.223 1.311 136.947-.119 192.779-1.43 0-100.923 28.629-134.444 36.265-.356-48.552 0-192.537 0-192.537S237.773 8.995 251.493 6.012z"/><path fill="#FED980" d="M251.246 27.004C240.987 32.253 135.89 57.543 117.281 63.39c-1.192-8.35.836-15.15-.356-20.997C125.634 39.41 239.082 9.826 251.606 5.89c.357 5.608 0 17.06-.357 21.115z"/><path fill="#FED980" d="M127.071 53.369c-5.965-.955-1.553-10.497 2.745-5.486 1.192 1.909-.238 5.608-2.745 5.486m11.212-2.745c-4.175-1.79-1.43-8.35 2.864-6.44 4.294 1.43.717 7.635-2.864 6.44m13.356-3.7c-4.773-.237-2.503-7.636 1.553-6.44 4.055 1.073 2.384 6.92-1.553 6.44"/><path fill="#FFF7DB" d="M160.587 101.679c-17.416-43.66 44.735-59.646 55.591-19.087-.475 45.808-47.36 39.843-55.591 19.087"/><path fill="#FED980" d="M168.344 110.865c12.524 10.021 34.832 7.395 42.706-6.92-8.35-18.132-39.01-11.81-42.706 6.92"/><path fill="#FED980" d="M196.856 81.161c-2.504-14.433-24.815-8.828-18.608 5.965 4.412 10.26 20.877 4.892 18.608-5.965"/><path fill="#000" d="M183.008 118.025c-22.426-2.744-33.999-28.153-21.353-46.88 11.93-17.417 37.577-17.535 49.626-.238 6.801 9.542 7.157 23.143.836 33.045-5.846 9.902-17.776 15.626-29.109 14.077zm.357-1.552c13.241 1.671 26.245-6.682 30.301-19.444 4.891-14.913-3.339-31.136-18.252-36.028-12.168-4.056-25.888.836-32.804 11.57v-.119c-11.451 17.895-.357 41.633 20.759 44.021z"/><path fill="#000" d="M185.88 93.809c-8.588-1.073-12.644-11.094-7.395-17.895 6.083-7.636 18.251-4.413 19.804 5.248 1.073 7.157-5.249 13.598-12.406 12.643zm.716-1.552c6.682.475 11.812-6.203 9.665-12.525-2.626-7.755-13.004-8.947-17.297-1.909-3.581 6.084.475 13.958 7.636 14.434z"/><path fill="#000" d="M168.585 110.27c-.238-.119-.475-.237-.836-.237-.118 0-.237 0-.356.118l-.119-.118c0-.238.119-.476.238-.717.237-.955.716-1.909 1.073-2.864.955-2.028 2.147-3.818 3.458-5.486l.717-.717a5.7 5.7 0 0 1 1.192-1.192c.238-.238.476-.475.717-.598l.357-.356h.119c.118-.12.237-.238.356-.238l1.43-1.074c.955-.716 2.028-1.31 3.102-1.909.119 0 .237-.119.356-.238h.119c.119 0 .238-.118.357-.237q.355-.18.717-.357a28.6 28.6 0 0 1 6.44-1.79c2.266-.357 4.654-.238 6.92 0 2.265.356 4.412.954 6.44 1.909a26.4 26.4 0 0 1 5.846 3.58 29.2 29.2 0 0 1 4.532 4.892c.119.119.238.238.238.475.118.238.237.357.118.598-.118.242-.118.357-.356.476-.357.238-.836.238-1.074-.119-.475-.717-1.073-1.43-1.671-2.147-.717-.717-1.43-1.552-2.147-2.147-.717-.598-1.552-1.31-2.384-1.909-.833-.598-1.791-1.073-2.504-1.552-.954-.476-1.909-.955-2.864-1.193-.954-.237-2.027-.598-2.982-.835-.955-.238-2.028-.357-2.983-.476h-.118a13.5 13.5 0 0 0-3.102 0c-1.073.12-2.147.238-3.101.357q-1.432.355-2.864.717a67 67 0 0 0-2.745 1.073l-2.503 1.43c-.717.476-1.311.955-2.028 1.43a1.6 1.6 0 0 1-.476.357h-.118c-.717.717-1.43 1.311-2.147 2.147-.598.717-1.193 1.552-1.79 2.265-.598.955-1.193 1.791-1.672 2.745-.598 1.074-.954 2.147-1.43 3.339-.119.238-.119.357-.238.598q-.237.12-.237 0z"/><path fill="#FFF7DB" d="M228.821 133.413c-8.588 3.581-62.15 16.822-84.339 22.546-.119-4.892-1.43-11.692.238-16.224 11.451-3.699 67.758-18.371 83.982-22.308.119 7.277-.119 14.434.119 15.986m-.113 8.35c-.238 2.147.238 16.224.238 16.224l-84.22 23.5-.238-17.178s59.646-16.105 84.22-22.546"/><path fill="#FED980" d="m228.943 184.707-84.818 22.906v-16.941l84.818-22.308z"/><path fill="#000" d="M143.173 140.69v-1.43s.119-.119.119-.238c0 0 0-.119.119-.119 2.028-.475 4.056-1.073 6.084-1.671 6.919-1.909 13.958-3.699 20.877-5.609 19.444-5.248 38.769-10.377 58.217-15.625.954-.238 1.43 1.192.475 1.552-2.982.836-5.965 1.553-8.947 2.385q-10.021 2.686-20.042 5.367c-12.644 3.339-25.29 6.8-37.934 10.14-6.321 1.909-12.643 3.58-18.968 5.248m-.001 16.105c-.237-1.192 1.43-1.074 2.147-1.43.955-.238 2.028-.476 2.983-.836 12.168-3.22 24.454-6.559 36.622-9.783 13.72-3.699 27.437-7.395 41.276-11.094 1.074-.238 2.266-.598 3.339-.955v1.43s0 .119-.119.119v.119c-.237.119-.597.119-.835.238-13.241 3.58-26.483 7.157-39.724 10.615-14.077 3.818-28.154 7.514-42.231 11.332-.716.238-1.552.357-2.265.598h-.238c-.476.238-.836 0-.955-.357z"/><path fill="#000" d="M227.987 133.533V116.83c.119-.598.717-.836 1.193-.475.475.237.356.835.356 1.192v16.342c-.119.357-.475.476-.716.476-.357 0-.836-.357-.836-.836zm-84.817 23.142c-.119-.954 0-1.79 0-2.744v-13.958c0-.238.118-.357.237-.476.476-.475 1.311 0 1.311.598v16.58c-.118.357-.475.476-.716.476-.357 0-.717-.119-.836-.476zm.003 8.826v-1.431s.119-.118.119-.237c0 0 0-.119.119-.119 2.028-.476 4.056-1.074 6.084-1.671 6.919-1.91 13.958-3.7 20.877-5.609 19.444-5.248 38.769-10.377 58.217-15.626.954-.237 1.43 1.193.475 1.553-2.982.835-5.965 1.552-8.947 2.384q-10.021 2.687-20.042 5.367c-12.644 3.34-25.29 6.801-37.934 10.14-6.321 1.909-12.643 3.581-18.968 5.249m-.001 16.105c-.237-1.193 1.43-1.074 2.147-1.43.955-.238 2.028-.476 2.983-.836 12.168-3.22 24.454-6.559 36.622-9.783 13.72-3.699 27.437-7.395 41.276-11.095 1.074-.237 2.266-.597 3.339-.954v1.43s0 .119-.119.119v.119c-.237.119-.597.119-.835.238-13.241 3.58-26.483 7.157-39.724 10.615-14.077 3.818-28.154 7.514-42.231 11.332-.716.238-1.552.357-2.265.598h-.238c-.476.238-.836 0-.955-.357z"/><path fill="#000" d="M227.987 158.343v-16.702c.119-.598.717-.836 1.193-.476.475.238.356.836.356 1.192V158.7c-.119.357-.475.476-.716.476-.357 0-.836-.357-.836-.836zm-84.817 23.144c-.119-.955 0-1.79 0-2.745v-13.958c0-.238.118-.356.237-.475.476-.476 1.311 0 1.311.598v16.58c-.118.357-.475.475-.716.475-.357 0-.717-.118-.836-.475zm.003 10.381v-1.431s.119-.118.119-.237c0 0 0-.119.119-.119 2.028-.476 4.056-1.074 6.084-1.672 6.919-1.909 13.958-3.699 20.877-5.608 19.444-5.248 38.769-10.377 58.217-15.626.954-.237 1.43 1.193.475 1.553-2.982.835-5.965 1.552-8.947 2.384q-10.021 2.687-20.042 5.367c-12.644 3.34-25.29 6.801-37.934 10.14-6.321 1.909-12.643 3.581-18.968 5.249m-.001 16.102c-.237-1.193 1.43-1.074 2.147-1.431.955-.237 2.028-.475 2.983-.835 12.168-3.22 24.454-6.56 36.622-9.783 13.72-3.7 27.437-7.395 41.276-11.095 1.074-.238 2.266-.598 3.339-.954v1.43s0 .119-.119.119v.119c-.237.118-.597.118-.835.237-13.241 3.581-26.483 7.158-39.724 10.616-14.077 3.818-28.154 7.514-42.231 11.332-.716.238-1.552.356-2.265.598h-.238c-.476.237-.836 0-.955-.357z"/><path fill="#000" d="M227.987 184.829v-16.702c.119-.598.717-.836 1.193-.476.475.238.356.836.356 1.192v16.343c-.119.357-.475.476-.716.476-.357-.119-.836-.357-.836-.836zM143.17 207.85c-.119-.954 0-1.79 0-2.744v-13.958c0-.238.118-.357.237-.476.476-.475 1.311 0 1.311.598v16.58c-.118.357-.475.476-.716.476-.357 0-.717-.119-.836-.476zm12.41-60.241-1.43-1.073h.238c.238 0 .717 0 1.073-.119.238 0 .357-.119.598-.238a.9.9 0 0 0 .238-.598c0-.241-.119-.356-.238-.598a.9.9 0 0 0-.598-.237h-.119c-.356 0-.716 0-1.073.119h-.238c.238-.357.598-.717.836-1.074.238-.238.238-.475.238-.717-.238-.716-1.193-.716-1.553-.119-.238.238-.356.476-.598.717v-1.192c0-.476-.356-.717-.835-.717s-.836.357-.717.836c0 .598 0 1.192.119 1.909-.476-.238-.836-.598-1.193-.955-.356-.237-.716-.716-1.192-.475-.357.119-.717.598-.598.954.119.238.238.476.476.598.475.476.954.836 1.552 1.193-.119 0-.356.118-.475.118-.238 0-.598.119-.836.238-.119 0-.238 0-.238.119-.119 0-.237 0-.237.119a.256.256 0 0 0-.238.238c0 .119-.119.119-.119.238 0 .237 0 .475.238.716h.119c.118 0 .237.119.356.119h.598c.238 0 .476-.119.598-.119-.119.238-.238.357-.357.476-.356.475-.716 1.073-.356 1.552.237.598 1.311.238 1.43-.356.237-.357.475-.717.835-1.074v1.553c0 .475.357.716.836.716.476 0 .836-.356.717-.835 0-.598 0-1.193-.119-1.672.717.476 1.43.955 2.266 1.312.475 0 .835-1.312 0-1.672zm13.121-3.461-1.43-1.074h.237c.238 0 .717 0 1.074-.118.238 0 .357-.119.598-.238a.9.9 0 0 0 .238-.598c0-.241-.119-.357-.238-.598a.9.9 0 0 0-.598-.238h-.119c-.357 0-.717 0-1.073.119h-.238c.238-.357.598-.717.835-1.073.238-.238.238-.476.238-.717-.237-.717-1.192-.717-1.552-.119-.238.238-.357.476-.598.717v-1.193c0-.475-.357-.716-.836-.716s-.835.356-.717.835c0 .598 0 1.193.119 1.909-.475-.237-.835-.597-1.192-.954-.357-.238-.717-.717-1.192-.476-.357.119-.717.598-.598.955.119.238.238.475.475.598a7.6 7.6 0 0 0 1.553 1.192c-.119 0-.357.119-.476.119-.237 0-.598.119-.835.238-.119 0-.238 0-.238.119-.119 0-.238 0-.238.119-.119 0-.238.118-.238.237s-.119.119-.119.238c0 .238 0 .476.238.717h.119c.119 0 .238.119.357.119h.598c.237 0 .475-.119.598-.119-.119.119-.238.356-.357.475-.357.476-.717 1.074-.357 1.553.238.598 1.311.238 1.43-.357.238-.356.476-.717.836-1.073v1.552c0 .476.357.717.836.717.475 0 .835-.357.716-.836 0-.598 0-1.192-.118-1.671.716.475 1.43.955 2.265 1.311.598 0 .955-1.311 0-1.671zm13.247-3.458-1.43-1.074h.238c.238 0 .717 0 1.073-.118.238 0 .357-.119.598-.238a.9.9 0 0 0 .238-.598c0-.241-.119-.357-.238-.598a.9.9 0 0 0-.598-.238h-.118c-.357 0-.717 0-1.074.119h-.238c.238-.357.598-.717.836-1.073.238-.238.238-.476.238-.717-.238-.717-1.192-.717-1.553-.119-.237.238-.356.476-.598.717v-1.193c0-.475-.356-.716-.835-.716s-.836.356-.717.835c0 .598 0 1.193.119 1.909-.476-.237-.836-.597-1.192-.954-.357-.238-.717-.717-1.193-.476-.356.119-.716.598-.598.955.119.238.238.475.476.598.475.475.954.835 1.552 1.192-.119 0-.356.119-.475.119-.238 0-.598.119-.836.238-.119 0-.238 0-.238.119-.118 0-.237 0-.237.119-.119 0-.238.118-.238.237s-.119.119-.119.238c0 .238 0 .476.238.717h.119c.119 0 .237.119.356.119h.598c.238 0 .476-.119.598-.119-.119.119-.238.356-.357.475-.356.476-.716 1.074-.356 1.553.238.598 1.311.238 1.43-.357.238-.357.475-.717.836-1.073v1.552c0 .476.356.717.835.717.476 0 .836-.357.717-.836 0-.598 0-1.192-.119-1.671.717.475 1.43.954 2.266 1.311.598 0 .836-1.311 0-1.671zm-26.368 31.493-1.43-1.074h.238c.238 0 .717 0 1.073-.119.238 0 .357-.119.598-.238a.9.9 0 0 0 .238-.597c0-.242-.119-.357-.238-.598a.9.9 0 0 0-.598-.238h-.119c-.356 0-.716 0-1.073.119h-.238c.238-.357.598-.717.836-1.074.238-.237.238-.475.238-.716-.238-.717-1.193-.717-1.553-.119-.238.238-.356.475-.598.717v-1.193c0-.475-.356-.717-.835-.717s-.836.357-.717.836c0 .598 0 1.192.119 1.909-.476-.238-.836-.598-1.193-.954-.356-.238-.716-.717-1.192-.476-.357.119-.717.598-.598.955.119.237.238.475.476.598.475.475.954.835 1.552 1.192-.119 0-.356.119-.475.119-.238 0-.598.119-.836.237-.119 0-.238.001-.238.119-.119 0-.237 0-.237.119a.256.256 0 0 0-.238.238c0 .119-.119.119-.119.238 0 .238 0 .475.238.717h.119c.118 0 .237.118.356.118h.598c.238 0 .476-.118.598-.118a1.7 1.7 0 0 1-.357.475c-.356.476-.716 1.074-.356 1.553.237.597 1.311.237 1.43-.357.237-.357.475-.717.835-1.074v1.553c0 .475.357.717.836.717.476 0 .836-.357.717-.836 0-.598 0-1.192-.119-1.671.717.475 1.43.954 2.266 1.311.475 0 .835-1.43 0-1.671zm13.121-3.458-1.43-1.074h.237c.238 0 .717 0 1.074-.119.238 0 .357-.119.598-.238a.9.9 0 0 0 .238-.597c0-.242-.119-.357-.238-.598a.9.9 0 0 0-.598-.238h-.119c-.357 0-.717 0-1.073.119h-.238c.238-.357.598-.717.835-1.074.238-.237.238-.475.238-.716-.237-.717-1.192-.717-1.552-.119-.238.237-.357.475-.598.716v-1.192c0-.475-.357-.717-.836-.717s-.835.357-.717.836c0 .598 0 1.192.119 1.909-.475-.238-.835-.598-1.192-.954-.357-.238-.717-.717-1.192-.476-.357.119-.717.598-.598.955.119.237.238.475.475.598a7.6 7.6 0 0 0 1.553 1.192c-.119 0-.357.119-.476.119-.237 0-.598.119-.835.237-.119 0-.238 0-.238.119-.119 0-.238 0-.238.119a.256.256 0 0 0-.238.238c0 .119-.119.119-.119.238 0 .238 0 .475.238.717h.119c.119 0 .238.118.357.118h.598c.237 0 .475-.118.598-.118a1.7 1.7 0 0 1-.357.475c-.357.476-.717 1.073-.357 1.553.238.597 1.311.237 1.43-.357.238-.357.476-.717.836-1.074v1.553c0 .475.357.717.836.717.475 0 .835-.357.716-.836 0-.598 0-1.192-.118-1.671.716.475 1.43.954 2.265 1.311.598 0 .955-1.311 0-1.671zm13.247-3.462-1.43-1.073h.238c.238 0 .717 0 1.073-.119.238 0 .357-.119.598-.238a.9.9 0 0 0 .238-.598c0-.241-.119-.357-.238-.598a.9.9 0 0 0-.598-.238h-.118c-.357 0-.717 0-1.074.119h-.238c.238-.356.598-.716.836-1.073.238-.238.238-.476.238-.717-.238-.717-1.192-.717-1.553-.119-.237.238-.356.476-.598.717v-1.192c0-.476-.356-.717-.835-.717s-.836.357-.717.836c0 .597 0 1.192.119 1.909-.476-.238-.836-.598-1.192-.955-.357-.238-.717-.717-1.193-.475-.356.118-.716.597-.598.954.119.238.238.476.476.598.475.476.954.836 1.552 1.192-.119 0-.356.119-.475.119-.238 0-.598.119-.836.238-.119 0-.238 0-.238.119-.118 0-.237 0-.237.119-.119 0-.238.119-.238.237 0 .119-.119.119-.119.238 0 .238 0 .476.238.717h.119c.119 0 .237.119.356.119h.598c.238 0 .476-.119.598-.119-.119.238-.238.357-.357.476-.356.475-.716 1.073-.356 1.552.238.598 1.311.238 1.43-.357.238-.356.475-.716.836-1.073v1.552c0 .476.356.717.835.717.476 0 .836-.356.717-.836 0-.597 0-1.192-.119-1.671.717.476 1.43.955 2.266 1.311.598 0 .836-1.311 0-1.671zm13.71-3.458-1.43-1.073h.238c.237 0 .716 0 1.073-.119.238 0 .357-.119.598-.238a.9.9 0 0 0 .238-.598c0-.241-.119-.357-.238-.598a.9.9 0 0 0-.598-.238h-.119c-.357 0-.717 0-1.073.119h-.238c.238-.356.598-.716.836-1.073.237-.238.237-.476.237-.717-.237-.717-1.192-.717-1.552-.119-.238.238-.357.476-.598.717v-1.192c0-.476-.357-.717-.836-.717s-.835.357-.717.836c0 .597 0 1.192.119 1.909-.475-.238-.835-.598-1.192-.955-.357-.238-.717-.717-1.192-.475-.357.118-.717.598-.598.954.119.238.238.476.475.598a7.6 7.6 0 0 0 1.553 1.192c-.119 0-.357.119-.476.119-.237 0-.598.119-.835.238-.119 0-.238 0-.238.119-.119 0-.238 0-.238.119a.256.256 0 0 0-.238.238c0 .118-.119.118-.119.237 0 .238 0 .476.238.717h.119c.119 0 .238.119.357.119h.598c.237 0 .475-.119.598-.119-.119.238-.238.357-.357.476-.357.475-.717 1.073-.357 1.552.238.598 1.311.238 1.43-.357.238-.356.476-.716.836-1.073v1.43c0 .476.357.717.836.717.475 0 .835-.357.716-.836 0-.598 0-1.192-.118-1.671.716.475 1.43.954 2.265 1.311.598.119.955-1.192 0-1.552zm15.867-4.175-1.43-1.073h.238c.238 0 .717 0 1.074-.119.237 0 .356-.119.597-.238a.9.9 0 0 0 .238-.598c0-.241-.119-.356-.238-.598a.9.9 0 0 0-.597-.237h-.119c-.357 0-.717 0-1.074.118h-.237c.237-.356.597-.716.835-1.073.238-.238.238-.476.238-.717-.238-.717-1.192-.717-1.552-.119-.238.238-.357.476-.598.717v-1.192c0-.476-.357-.717-.836-.717s-.836.357-.717.836c0 .598 0 1.192.119 1.909-.475-.238-.836-.598-1.192-.955-.357-.238-.717-.717-1.193-.475-.356.119-.716.598-.597.954.118.238.237.476.475.598a7.6 7.6 0 0 0 1.553 1.192c-.119 0-.357.119-.476.119-.238 0-.598.119-.836.238-.119 0-.237 0-.237.119-.119 0-.238 0-.238.119a.256.256 0 0 0-.238.238c0 .118-.119.118-.119.237 0 .238 0 .476.238.717h.119c.119 0 .238.119.356.119h.598c.238 0 .476-.119.598-.119-.119.238-.238.357-.356.476-.357.475-.717 1.073-.357 1.552.238.598 1.311.238 1.43-.357.238-.356.476-.716.836-1.073v1.43c0 .476.356.717.835.717.476 0 .836-.357.717-.836 0-.598 0-1.192-.119-1.671.717.475 1.43.954 2.266 1.311.598.119.836-1.192 0-1.552zM107.746 43.348c0-.12-.12-.12 0 0q-.12 0 0 0c0 .12-.12 0 0 0"/><path fill="#000" d="M252.206 27.837V15.07c0-2.503 0-5.13-.238-7.636 0-.357 0-.598-.119-.955.119-.237.119-.356.119-.598-.356-.954-1.311-.475-2.028-.237-1.552.475-3.101.835-4.772 1.192-38.888 10.378-77.78 20.878-116.668 31.255-3.126.878-9.57 2.623-11.759 3.203a1.03 1.03 0 0 0-.765.996c0 10.955.115 132.605 0 192.157 0 .238.118.598.356.717v.238c.119.598.717.717 1.193.475 5.846-1.552 11.569-3.101 17.416-4.654 37.695-10.139 75.272-20.16 112.971-30.3 1.074-.238 2.028-.598 3.102-.836.475 0 .954-.475.835-1.073v-.119a.66.66 0 0 0 .357-.598V187.8c0-53.325.238-106.646 0-159.971zm-1.43 170.59v.238c-.238.119-.598.119-.836.238-1.552.238-3.101.717-4.654 1.073-38.888 10.378-77.779 20.878-116.667 31.255-3.699.955-7.276 1.91-10.976 2.983v-10.259c-.118-53.206.119-106.29 0-159.377 1.672-.475 3.34-.955 5.13-1.311 2.147-.598 4.175-1.074 6.321-1.672 40.56-10.856 81.238-21.71 121.797-32.685-.237 56.427 0 112.972-.119 169.517zm.357-190.39c0 1.073-.119 2.146-.119 3.22 0 5.248 0 10.496-.119 15.748q-1.432.356-2.864.716C208.189 38.46 168.343 49.076 128.5 59.813c-2.028.476-3.937 1.074-5.846 1.553-1.671.475-3.22.835-4.892 1.31V51.107c0-2.504 0-5.13-.237-7.636v-.64q.074.009.237-.077c5.846-1.553 11.57-3.102 17.416-4.654 37.696-10.14 75.273-20.16 112.972-30.3.955-.238 2.028-.476 2.983-.836z"/><path fill="#000" d="M123.489 47.879c-1.553 2.744.475 6.321 3.58 6.44 3.221.238 5.609-3.22 4.294-6.084-1.43-3.339-6.203-3.458-7.874-.356m3.818 4.891c-2.147 0-3.58-2.503-2.266-4.293 1.074-1.79 3.818-1.672 4.773.237.955 1.79-.475 4.056-2.503 4.056zm8.468-7.874c-1.552 2.745.476 6.322 3.581 6.44 3.22.238 5.608-3.22 4.294-6.083-1.43-3.34-6.203-3.458-7.875-.357m3.819 4.892c-2.147 0-3.581-2.504-2.266-4.294 1.073-1.79 3.818-1.671 4.773.238.954 1.79-.476 4.056-2.504 4.056zm8.948-7.993c-1.552 2.744.476 6.322 3.581 6.44 3.101.238 5.486-3.339 4.293-6.084-1.43-3.339-6.203-3.458-7.874-.356m3.818 4.773c-2.265.118-3.58-2.504-2.265-4.294 1.073-1.79 3.818-1.672 4.772.238.955 1.79-.475 4.056-2.503 4.056z"/><path fill="#fff" d="M282.744 44.39c-.85 3.866-13.826 7.716-13.826 7.716a2.157 2.157 0 0 1-3.059-1.304s-4.056-9.325-2.748-12.451c1.514-3.608 11.321-6.584 15.307-5.192 3.221 1.122 4.623 9.88 4.326 11.23"/><path fill="#000" d="m258.528 190.914-.357-8.231c-.118-3.458-.356-6.92-.475-10.378-.119-3.58-.357-7.276-.476-10.856 0-.717 0-1.553-.118-2.266.237.119.356.119.597.238.119 0 .238.119.476.119h.598c0 .954.119 1.79.119 2.744.119 3.581.356 7.158.475 10.738.119 3.458.357 6.92.476 10.378l.356 7.514c0 .237 0 .475-.237.598a.92.92 0 0 1-.598.237c-.357-.119-.836-.356-.836-.835M348.47 61.837c2.745 5.965-.717 12.643-3.458 18.133-3.102 5.01-9.542 7.874-11.213 13.72-.836 2.147-3.937-.717-5.13-1.43-3.458-2.266-1.79-7.395-4.412-10.021-3.7-2.385-3.7 2.983-4.773 5.248-2.385 1.43-.717-7.157-1.553-8.587-.835-2.983-4.891-4.413-7.636-2.983-2.384 1.193-7.755.836-3.699-2.265 2.028-7.039-3.339-3.102-7.276-3.458-3.7-.836-4.532 1.192-5.486 4.531.119.598-.476 1.074-1.074.955-5.846-.238-10.259-5.965-10.738-11.451.955-12.525 12.525-21.235 24.574-23.5 9.304-.357 15.269-.238 21.591 7.157 3.22 4.531 9.542 3.101 13.72 5.486 3.101 2.385 6.203 4.175 6.559 8.468z"/><path fill="#FED980" d="M350.861 228.609c-15.867-1.311-43.78-4.412-70.86-14.196-1.79-1.79-1.43-5.965-1.79-8.349 1.311-15.15 7.874-2.147 8.23-14.553v.119c.238-1.192.598-2.503.717-3.699v.119c.598-2.745.955-5.486 1.43-8.231v-.119c7.993-17.776-1.43-2.626-18.37 2.385-8.112 2.384-15.626-8.71-21.472-14.434-13.361-1.192-2.745 4.532 3.339 9.902 15.867 25.172-35.193-10.496-44.497-16.702-7.755-5.249 6.084-12.406 6.084-12.406 8.112 4.294 24.098 12.885 38.056 12.168 9.066-.476 19.206-7.157 31.255-16.343 6.682-4.531 13.241-10.856 21.591-11.811 3.58-2.503 8.231-26.126 12.168-15.867 7.636-6.559 19.682-14.794 21.115-12.766 2.266 1.43 3.937 6.682 5.727 12.644 5.728 3.22 11.693 7.276 15.986 12.405 15.749 15.388 8.469 39.367 8.588 58.811-3.102 15.507 6.559 43.304-17.297 40.916z"/><path fill="#000" d="M285.604 193.298s-26.363-18.608-35.905-24.573c-2.626-1.672-9.304-.955-9.304-.955.597 1.074 3.818 3.101 7.038 6.084 1.43 1.192 3.699 4.773 4.056.955-.238 2.625 2.745 2.982 3.818 4.891 2.983-1.79 4.773 1.074 7.636 2.626 7.039 4.294 13.479 16.105 22.427 15.15l.238-4.175z"/><path fill="#fff" d="M295.745 220.379c.717 4.772.238 9.185.119 11.692-3.58 3.458-11.332 8.231-16.105 13.122 0 0-.598-23.024 2.745-29.702 4.056 2.503 13.241 4.891 13.241 4.891zm20.989-96.269c4.174 1.311.237 5.248-1.074 7.276-5.129 13.122-9.783 25.647-12.286 39.605-2.504 8.23-3.458 17.534-4.892 25.29-3.58.716-12.524 1.192-12.524 1.192 3.458-18.133 8.23-36.741 14.671-54.038 4.175-6.682 4.531-23.86 16.105-19.325m17.407-21.724c3.22 3.339-8.454 4.545-10.842 8.241-2.147.955-5.965 6.203-6.92 4.892-4.531-14.434-11.213 9.664-21.832-15.151-10.259 1.91-.717-8.947-.717-13.478-.475-5.011-.836-9.903 1.553-14.434.597-.717 1.311-3.937 2.503-2.147 4.056 2.266 13.004-5.248 6.801 4.532-.955 3.699 8.349-.836 11.213 2.028 3.58 2.744.119 8.35 3.699 11.094 2.626-11.93 5.011-6.084 7.158 2.385 7.087.507 7.381 12.038 7.381 12.038zM256.62 184.35c.119.238.238.357.238.476 0-.119-.119-.357-.238-.476m24.574 13.123c-3.339 6.44-2.983 10.496-3.221 14.912-6.681-6.682-9.304-6.559-19.923-20.877-1.43-1.909-9.664-17.535-5.727-16.822 1.311 1.79 2.745 5.01 3.102 5.367 3.699-5.129 21.115 16.343 25.765 17.416zm-99.491-47s0-.119-.119-.119h-.119q.12 0 .238.119m29.822-3.101c.475.237 1.073.597 1.073 1.192-.238.954-.954 1.552-1.43 2.384-.836 1.312-1.43 2.745-2.028 4.175-.475.955-.717 2.147-.954 3.221-.119.716-.476 1.552-1.431 1.192-.356-.119-.716-.476-1.192-.598-1.073-.119-2.147.357-3.22.238-1.192 0-2.266-.476-3.339-.836-1.43-.475-2.626-1.311-3.818-2.147-1.91-1.311-4.056-2.384-6.322-2.626-.836-.119-1.553-.237-2.385-.237-1.552 0-3.22-.119-4.654-.955-.954-.598-2.265-1.552-1.79-2.745.357-.717 1.311-.717 1.909-.356.717-.238 1.553-.238 2.385-.119.717 0 1.311.119 2.028.356.119 0 .238.119.357.238q2.147.179 4.293 0c-1.43-1.192-3.101-1.79-4.654-2.626-1.192-.475-2.384-.835-3.58-1.311-.955-.357-1.552-1.192-2.147-1.909-.356-.476-.954-1.43-.238-1.909.717-.476 1.553.357 2.266.598.955.475 2.028 1.073 2.983 1.552.716.357 1.43.598 2.146.836 1.312.238 2.752-.175 4.067-.175-2.745-1.79-5.853-2.451-8.717-4.003-.717-.476-1.43-1.074-1.552-1.909-.119-1.312.954-1.91 2.147-1.553 1.909.598 3.818 1.074 5.608 2.028a33 33 0 0 1 4.301 2.769c-1.43-1.552-3.228-2.409-4.78-3.842-.717-.717-1.43-1.553-2.147-2.266-.598-.598-1.909-1.553-.717-2.266.598-.238 1.074.357 1.553.357.598.119 1.192.238 1.909.356.717.238 1.43.476 2.266.476-.357-.717-.598-1.909.475-2.028.238 0 .476.119.717.238.598.475 1.311.835 1.909 1.311a67 67 0 0 1 7.276 5.367c.717.476 1.43 1.192 2.147 1.79 1.909 1.553 3.818 3.102 5.727 4.532.598.475.955.835 1.553 1.192z"/><path fill="#000" d="M296.816 208.092h.238c-.119.119-.119 0-.238 0m-31.85-24.336c-.237-.238-.237-.357 0-.476l.119.119.238.238.119.119s.119.119.238.119h-.238c-.238-.119-.357-.119-.476-.119m2.503-1.552s.121 0 .121.121c-.121 0-.121-.121-.121-.121m10.864-157.468s0 .12.121.12zm-3.109 16.104c-.238-1.073-.955-1.67-2.385-1.67-2.625 0-2.863 4.055-.475 4.653-.357 2.983 3.937 1.671 2.385-.717.475-.598.716-1.43.475-2.265"/><path fill="#000" d="M281.546 36.666c-.598-2.147-1.672-5.728-4.413-5.249-3.58.238-7.157 1.91-10.615 3.102-1.074-4.294-3.102-8.469-3.221-13.004.357-3.339 4.175-6.084 7.514-5.248 2.147.717 3.102 2.983 3.937 5.01.476.717.238 2.626 1.553 2.385.475-.119.717-.598.598-.954-1.311-9.067-11.332-11.214-14.794-2.504-.475 1.552 0 3.22.476 4.654.716 3.458 1.552 6.92 2.626 10.259-3.581 1.67-3.458 3.58-2.385 7.993 1.073 2.626.954 8.71 4.175 9.423 3.101.475 5.965-1.553 8.71-2.626 7.993-3.34 9.066-4.773 5.846-13.241zm-4.413 10.737c-2.266 1.074-9.902 6.322-11.213 1.91-.836-3.102-3.818-9.543-1.79-11.452 2.384-2.384 7.157-3.458 10.496-4.293 2.385-.598 3.818-.955 4.773 2.028.835 2.384 1.552 4.293 2.028 6.44.954 3.458-1.672 4.294-4.294 5.367"/><path fill="#000" d="M260.905 29.508a1.6 1.6 0 0 1-.357-.475c-.238-.836-.476-1.672-.476-2.504-.237-1.43-.716-2.863-.118-4.293.119-.357.598-.476.716-.12.119.357 0 .836.119 1.193.119.836.357 1.671.598 2.385.238.954.357 1.909.717 2.863 0 .717-.717 1.312-1.192.955zm5.607 28.154c-2.863-.238-5.01-2.266-5.608-5.01-.238-1.193-.476-2.504-.119-3.7.119-.238.357-.238.475 0 .238.476.238 1.074.357 1.553.238.716.357 1.43.598 2.028.475 1.31 1.311 2.503 2.626 3.101.598.357 1.311.357 2.028.598.835.119.598 1.43-.357 1.43m-4.767 1.311c-.476-.119-.955-.475-1.43-.836a4.66 4.66 0 0 1-1.672-2.028c-.237-.716-.598-1.43-.475-2.147.119-.356.598-.475.835-.118.357.716.598 1.43.955 2.028.475.716 1.311 1.192 2.028 1.552 1.073.476.598 1.79-.238 1.553zm25.166 71.577c-6.706-1.647-13.499-7.874-10.975-15.269-10.185-3.713-15.972-16.276-14.906-26.612.025-.224.35-.22.371 0 .164 1.843.458 4.766.818 6.332 1.825 7.93 6.018 16.15 14.077 18.969 6.311-11.672 15.374 6.559 1.192 1.79-1.804 4.066.756 8.731 4.371 10.905.878 1.123 8.381 2.263 5.29 3.885zm-3.895-18.612c-1.465-1.769-4.244.227-5.178 2.378 4.895 2.161 7.336.231 5.178-2.378"/><path fill="#000" d="M288.106 128.88q0-.121 0 0c.121-.121.121 0 .121 0s0 .121-.121 0m17.414-50.7c-.954-.357-1.909-.598-2.982-.598-1.909 0-3.937 0-5.486 1.073-.238.12-.476.238-.598.476-.238.356-.119.954.356 1.192.598.238.955-.357 1.553-.598 2.147-.717 4.654-.835 6.801 0 .475.119.835-.238.954-.717.119-.356-.119-.716-.598-.835zm-6.198 6.8c-.955.238-2.028.717-2.745 1.552-.238.238-.476.836 0 .955.475.119.954-.238 1.311-.357.836-.356 1.671-.716 2.507-.835a4.5 4.5 0 0 1 1.79 0c.357.119.717.119.955 0 .356-.238.475-.836.119-1.193-.955-.835-2.745-.475-3.937-.118z"/><path fill="#000" d="M370.419 152.141c-.954-21.591-12.765-25.171-27.199-37.22-1.192-3.819-1.552-8.71-4.654-11.57-.475-.955-2.503-.476-3.339-.119-.598-1.79-.954-3.58-1.552-5.367-.476-9.304 14.552-14.913 16.58-27.318 1.79-9.423-3.458-18.609-13.241-20.042-12.885-1.91-7.874-12.644-27.08-11.214-10.14.598-20.161 6.322-25.766 14.913-4.056 6.203-4.531 14.913 2.266 19.206 1.909 1.311 4.293 2.983 6.682 2.385-.476 2.982-.357 5.965.237 8.829 0 4.412-3.339 7.993-4.175 12.286-.835 3.458 1.193 5.486 4.654 4.175 2.626 4.654 4.892 12.049 11.451 11.93a25.5 25.5 0 0 0 7.637-2.266s0 .119.119.119c.118.357.356.717.475 1.074.357.716.717 1.311 1.192 1.909-.598 0-1.073.954-1.552 1.311-2.385 2.503-4.654 5.965-4.892 9.542-1.671 1.79-3.101 3.937-3.699 6.321-7.993 3.102-15.388 7.514-22.308 12.525-7.514 5.248-15.15 10.975-23.618 14.675-2.626 1.311-3.458 1.43-5.486 1.79-8.112 1.43-15.986-2.504-23.619-5.129-13.479-3.819-23.381-13.721-34.595-21.591-.954-.598-3.458-2.626-4.412-1.553-.654.745-.357 1.71.087 2.553-1.042-.416-2.58-.78-2.951-1.004-.598-.238-1.192-.475-1.909-.475-.475 0-1.073.237-1.192.835-.119 1.074.717 1.909 1.43 2.626.203.287.423.542.65.783-.909-.454-1.863-.835-2.916-1.021-.954-.237-2.028-.118-2.626.717-.835 1.909 1.193 3.581 2.504 4.532 1.671 1.073 3.58 1.671 5.367 2.384.549.158 1.15.416 1.734.644a.1.1 0 0 0 .053.021c.052.024.136.056.227.087q.167.063.329.115c.188.077.269.154-.077.207-1.193 0-2.504-.598-3.7-.955-1.909-.598-3.699-1.311-5.486-1.909-2.863-.836-3.699 1.43-1.552 3.22 1.79 1.43 3.937 2.385 5.965 3.221q.169.085.395.213c-1.203-.318-2.437-.514-3.734-.451-3.818-.119-4.892 2.384-1.672 4.654 2.745 1.79 6.322 1.311 9.424 2.384 4.653 1.672 7.874 5.846 13.122 4.892.475-.119 1.192-.238 1.79.119 11.93 6.559 35.668 29.227 49.269 26.72 1.192 2.503 2.504 4.892 3.937 7.276l.955 1.553c5.846 6.202 11.332 13.479 18.73 17.895.445.643 1.273 1.248 2.336 1.818-.133.657-.22 1.29-.308 1.982-.118 1.074-.356 2.147-.475 3.221-.357 2.265-.717 4.531-.955 6.8-.237 2.385-.475 4.773-.598 7.158 0 1.192-.118 2.384-.118 3.58v7.514c0 .238 0 .476.237.717.119.119.357.238.476.238.129 0 .224-.039.283-.126 1.392.143 3.657-1.979 4.846-2.738 2.147-1.671 4.294-3.458 6.322-5.367.954-.717 1.909-1.553 2.864-2.385.597-.598 1.311-1.073 1.909-1.671.272-.206.584-.49.688-.808.266-.133.504-.409.504-.745-.119-2.503 0-5.129.238-7.636 0-1.524.08-3.045.23-4.57 14.095 3.014 28.409 6.203 42.833 8.164 7.755.598 18.251 2.147 24.814-2.863 4.175-5.846 3.339-13.72 3.699-20.636-.118-17.654 2.626-35.43 1.91-53.084zm-31.017-44.734c.955 2.384 1.43 5.01 2.266 7.514-2.504 1.909-5.367 3.22-7.755 5.367-2.864 2.147-5.486 5.486-9.423 5.846-4.175 0-7.514-3.339-11.57-4.175.835-1.192 1.79-2.266 2.744-3.22 5.13-6.084 11.693-11.332 19.444-13.839 2.983-1.312 3.34 0 4.294 2.503zm-41.157-.717c2.028-.119 3.818-.955 5.486-2.266.717-.475 3.101-3.22.954-2.864-1.909 1.91-4.293 3.221-7.038 3.7-.955-1.553-1.552-3.581-2.745-5.011.955-.598 1.672-1.671 2.864-1.43.717.357 1.909.12 1.552-.835-2.028-2.028-4.531.356-5.965 1.909-1.79.835-3.458.356-3.101-1.91.357-4.53 4.056-8.35 4.056-12.884-.476-3.34-.717-6.8.238-10.021.475-1.79 1.192-3.458 2.265-5.01 2.385 2.028 5.367.475 7.993 0 5.13 1.073-7.395 6.8 4.175 7.636.955 0 1.671-.476 2.626-.836 3.22-1.192 6.203 2.147 5.486 5.367-.119 1.91-.238 3.937.717 5.609.835 1.43 2.503 1.192 2.982-.357.955-3.34.476-8.112 4.056-2.503.476 1.192.717 5.965.955 7.038-.119 7.874-3.818 11.094-9.783 15.507-6.084 3.699-13.479 7.395-17.777-.836zm15.626 3.699c4.772-2.503 8.947-6.322 11.811-10.738 1.671-3.22 2.266-7.395 1.192-10.856-.238-1.671.238-3.458-.717-5.01-.954-1.91-3.818-4.654-5.608-2.029-.836 1.553-.598 3.58-1.192 5.249-1.791-3.459 1.192-6.92-2.266-10.14-2.266-2.385-4.773-2.028-7.636-.836-1.312.238-2.983.119-4.056-.717.954-1.671 3.339-3.339 2.028-5.367-1.791-2.745-4.773-.475-7.158-.238-1.311-.356-3.101-1.79-4.056-.118-1.43 1.43-2.265 3.339-2.625 5.367-4.892.475-10.738-5.847-10.857-10.616 1.192-15.388 18.608-24.335 32.804-23.262 7.395.357 9.664 4.532 14.434 8.829 2.982 2.028 6.681 2.028 10.021 3.22 8.587 2.745 10.975 13.479 7.636 20.997-3.102 8.111-11.93 12.286-15.032 20.28-.237-.358-.716-3.221-1.073-2.267 0 3.938 1.43 7.875 2.385 11.693-6.084 2.982-12.049 6.682-16.822 11.57l-.238-.238a65 65 0 0 0-2.982-4.773zm.835 3.699c.119.238.238.357.357.476.238.475.598.954.955 1.311.118.119-3.221 4.532-4.654 7.039-.717.237-1.553.597-2.266 1.073 1.192-3.58 3.699-6.801 5.608-9.902zm-8.947 17.654c.954-3.339 3.22-6.682 6.44-8.231 2.147.476 4.056 1.553 6.084 2.385-1.552 3.937-5.965 10.14-10.737 7.993-.836-.598-2.147-1.073-1.791-2.147zm8.71 1.672c-7.875 20.041-13.361 41.276-16.224 62.629q-5.906 0-11.811.717c.119-1.074.237-1.791.475-2.864 4.056-20.636 10.497-40.678 18.371-60.122 2.745 2.028 6.559 2.028 9.185-.357zm-45.927 48.79c.119.119.238.237.476.356 0 .119.119.119.119.119.118 0 .237.119.237.119.081-.021.151-.038.224-.059 5.08 3.454 10.147 6.923 15.164 10.437.238.119.357.237.598.356-.237 1.074-.356 2.028-.598 3.102-.835 0-3.339 0-3.458.237-6.44-2.384-20.16-20.996-25.646-17.895-.955-1.43-2.028-5.608-4.413-4.531-.476.238-.476.836-.476 1.552-3.22-2.626-6.202-5.608-9.664-7.993 2.504.238 6.92-.119 8.829 1.193 3.101 2.384 6.321 4.531 9.542 6.681q4.448 3.01 8.891 6.025-.093.032-.185.059c.119.119.238.119.357.238zm2.78.077c3.975-1.34 7.748-3.444 11.416-5.444 2.633-1.476 5.451-2.672 7.717-4.574-1.798 6.5-3.287 13.091-4.616 19.724-4.895-3.182-9.709-6.444-14.521-9.703zm-63.902-22.944c-1.252-.605-2.346-.944-3.175-.875-5.608 1.193-9.664-4.531-15.031-5.248-2.864-.475-8.231.357-8.71-3.458.986-1.234 7.245.878 9.514.745.717.238 1.601-1.021 1.126-1.497-.476-.237-1.811-.797-2.29-1.035-2.147-.954-7.277-2.503-8.112-4.772.835-.119 1.552.237 2.265.475.955.357 1.791.598 2.745.955.836.238 1.79.598 2.626.835.955.357 2.147.717 3.22.357 1.018-.507.983-1.664.36-2.143v-.004h-.007a1 1 0 0 0-.363-.178h-.011c-1.091-.514-2.258-.944-3.437-1.374-1.671-.717-5.846-2.385-5.846-4.654.238-.119.598-.119.836-.119.835.238 1.671.357 2.503.717 1.553.836 3.102 1.552 4.773 2.266q.167.075.339.143c.874.696 1.776 1.36 2.762 1.885.717.237 1.193-.598.598-1.074-.835-.954-1.909-1.43-2.863-2.266-1.791-1.43-3.819-2.863-5.249-4.772.955 0 1.791.356 2.745.475.818.116 1.521.234 2.332.35 1.805 3.15 5.095 4.926 7.808 7.164.357.238.717.119.955-.119.597-1.073-1.91-2.147-2.504-2.982-2.028-1.79-4.294-3.22-5.367-5.846 7.294 4.335 13.465 10.258 20.419 15.122l-.021.028c-2.027 2.745-3.818 5.608-4.531 8.948 0 .433-.259 1.223-.406 1.947zm16.867 11.891c-3.346-1.989-10.671-8.503-15.888-11.381.168-.5.332-1 .5-1.5.717-2.745 2.028-5.129 3.699-7.395.343-.573.689-1.14 1.137-1.608.451.3.909.601 1.367.891 9.423 4.654 28.748 13.479 38.888 10.976 18.968-5.486 32.447-21.472 50.699-28.871v.238c-3.937 8.468-7.157 17.178-9.902 26.007a181 181 0 0 0-3.769 11.682.72.72 0 0 0-.763.129c-.716.717-1.552 1.192-2.265 1.671-2.028 1.553-4.413 2.504-6.682 3.818-3.581 1.91-7.039 3.938-10.738 5.249-.22.063-.43.133-.64.209-6.444-4.37-12.891-8.72-19.521-12.853-2.265-2.146-6.681-1.909-9.664-1.79-4.056.717 3.699 5.011 4.531 6.322 1.91 1.552 3.819 3.22 5.965 4.412.955 3.221 2.385 6.322 3.102 7.993-8.829 1.312-22.664-9.423-30.063-14.195zm53.682 40.559c-2.983-2.146-5.486-4.891-8.112-7.514-3.458-3.818-7.158-7.513-10.259-11.569-3.22-5.486-6.44-11.214-7.755-17.416.598-.238 2.266 3.101 3.22 4.174-1.311 3.102 2.266 5.249 4.175 7.158 1.43 1.192 10.496 10.737 5.129 3.818-2.507-3.102-5.965-5.248-8.349-8.469-.717-1.43-.238-2.744 1.43-2.146 8.587 4.531 14.196 13.597 22.905 17.895-2.626 4.056-3.699 9.423-2.384 14.076zm17.297 13.465a87 87 0 0 0-.353 7.553c-.165.122-.322.283-.483.44-.356.357-.717.717-1.192 1.074-2.028 1.671-3.818 3.339-5.846 5.129s-4.294 3.581-6.441 5.248a5.7 5.7 0 0 1-.961.553q.009-.157.007-.315v-7.993c.119-1.073.119-2.265.237-3.458.119-2.147.357-4.293.598-6.44.119-.955.238-2.028.357-2.983.238-1.073.357-2.147.475-3.101.119-1.193.238-2.504.476-3.7q.1-.608.203-1.216c4.129 1.825 10.335 3.223 13.22 4.161-.126 1.646-.301 3.304-.301 5.048zm65.493 1.21c-17.654 4.773-46.287-4.654-64.776-7.755h-.238c-4.413-1.073-8.829-2.503-13.122-4.056-.476 0-.955-.357-1.431-.475-.118 0-.237 0-.237-.119-3.7-3.102-2.147-13.36.716-15.626.238-.119 8.231-.476 9.784-.598 2.503 0 5.01-.238 7.514-.238.954 0 1.79 0 2.744-.119 11.57.357 23.381 1.791 34.832 0 2.385-.475.955-5.965.836-7.276-1.909-9.066-2.864-18.252-3.458-27.437-.475-6.322-1.192-12.643-.717-18.849 0-.717.476-4.654-.356-3.459-1.909 7.514-.955 15.27-.357 22.906.357 10.615 2.504 20.996 3.937 31.493.119.598-.357 1.073-.954 1.192-11.812 1.672-23.861-.119-35.787-.119 2.626-21.832 9.066-43.066 16.105-63.94 1.671-1.552 2.982-3.458 3.339-5.727 5.965 4.175 11.811-1.193 16.105-5.13 2.147-1.909 4.891-3.22 7.157-5.01 4.056 4.175 8.948 7.157 13.479 10.615 10.976 7.637 13.72 20.161 13.122 32.685-.237 15.507-2.028 30.899-2.028 46.406-.475 6.084.955 18.371-6.202 20.636z"/><path fill="#FFF7DB" d="M133.268 133.651c.119.475-.356.954-.835.836-1.672-.598-8.112-2.266-8.71-2.504-2.503 5.486-11.332 12.885-12.885 13.839-10.975 7.993-24.335 10.378-37.576 7.993-5.368-.954-18.133-4.654-27.08-16.461-5.728-7.514-9.305-16.822-10.022-26.364-1.31-14.077 3.34-30.3 19.325-41.514 5.728-4.293 15.15-8.112 19.207-8.587 37.695-4.532 51.653 22.189 54.874 38.531 2.744 7.637.119 18.371-2.504 25.888 0 0 5.248 6.203 6.203 8.35z"/><path fill="#fff" d="M103.683 129.595c-2.027-11.213-10.02-43.422-10.02-43.422l-4.959.492.305 8.245-2.025-.028s-1.447-5.496-1.447-7.405c0 0 .126-1.542-7.032.842l.605 7.514-3.238.12c-.716-1.193-1.67-4.176-2.028-6.085l-5.965.843c.476 11.094.853 36.377 1.805 47.472 0 0 3.458 2.982 10.377 3.458 8.829.238 20.636-3.699 23.619-12.049z"/><path fill="#FED980" d="M92.808 75.145c-1.074 1.43-2.633-.193-3.588 1.356C86 84.731 77.4 80.655 78.545 72.6c3.934 1.017 5.399-2.654 7.665-2.773 2.503.12 4.472 3.374 7.573 3.612 0 0-.377 1.584-.972 1.703z"/><path fill="#000" d="M132.91 132.697c-1.671-2.745-3.699-5.129-5.01-7.993 1.311-2.982 2.503-8.112 2.147-6.801 7.514-32.21-20.637-62.748-53.325-58.094-37.34 4.892-54.755 49.745-30.42 78.497 20.636 25.052 61.196 22.069 77.899-5.728 1.909-.238 12.524 5.609 8.709.119m-2.982.357c-1.672-.357-5.609-2.745-6.682-1.074-16.343 27.081-55.71 30.182-75.99 5.728-22.786-26.843-8.349-68.951 26.126-76.109 31.018-6.92 60.245 19.682 56.427 51.179-1.79 16.702-7.157 7.038 2.385 20.996-.717-.238-1.553-.475-2.266-.717z"/><path fill="#000" d="M94.594 85.896a.583.583 0 0 0-.633-.458c-1.263.133-4.462.48-5.542.65a.455.455 0 0 0-.385.448c-.014 1.556.262 7.535.262 7.745h-.835c-.238-.955-1.297-6.158-1.591-7.22a.613.613 0 0 0-.703-.441c-1.14.2-3.689.65-4.147.741 0 0-.238-2.384-.356-3.101-.238-1.553-.476-3.22-.717-4.773.716.955 1.552 1.91 2.745 2.266.237.119.597.119.954.119h.598c2.147 0 3.58-1.672 4.531-3.458.476-.836.836-2.028 2.028-2.147 1.312 0 2.626.356 3.22-1.192.238-.476.238-1.074.599-1.43.118-.12 1.007-.434.716-1.193-.185-.486-1.073-.119-1.192 0-2.06.636-4.017-1.147-4.612-1.745-.954-.835-2.266-1.31-3.58-.954-1.193.238-1.948.671-2.902 1.388-.598.475-1.074.954-1.91 1.073-.716.12-2.22-.3-2.22-.42 0-.118-.237-1.097-.269-1.335-.042-.356-.367-.713-.734-.63-.591.137-.476.718-.476.718 0 .237.357 2.503.476 3.22.119.836.237 1.671.356 2.384.238 1.672.476 3.34.836 5.01.238 1.553 1.192 6.204 1.192 6.323-.08 0-1.087.181-1.622.356a.604.604 0 0 0-.416.609c.084 1.444.49 6.43.49 6.667h-2.626c0-.097-1.26-4.28-1.731-5.853a.72.72 0 0 0-.787-.503l-5.696.793a.73.73 0 0 0-.63.742c.064 2.304 1.756 46.542 1.756 48.451 0 .237 6.06 4.353 16.154 3.248 1.552-.238 2.983-.598 4.413-.955 1.43-.475 2.863-.954 4.174-1.552s2.626-1.311 3.819-2.147c.237-.119.356-.238.597-.357 1.193-.835 2.385-1.79 3.34-2.744 1.073-.955 3.101-3.7 3.22-3.819 0 0-9.878-43.22-10.164-44.53zm-14.738-7.528c-.28-.395-.78-5.252-.78-5.252.238.238 2.322.64 3.448-.363 3.937-2.983 4.58-2.207 6.132-.776.836.716 2.889 1.528 4.56 1.646-.119.476-.78 1.48-1.154 1.542-1.412.231-2.252-.17-3.325 1.144-.955 1.192-1.668 2.58-2.787 3.622-2.266 2.112-5.692-.996-6.094-1.563m22.262 53.273c-.598.717-1.43 1.43-2.147 2.147-.836.716-4.891 3.22-6.084 3.818s-2.384 1.073-3.699 1.552c-1.192.357-2.504.717-3.7.955-1.192.238-2.384.356-3.58.475H79.45c-.835-.119-1.79-.237-2.745-.356-.716-.238-1.552-.357-2.265-.598-.598-.238-1.192-.476-1.672-.717a11 11 0 0 1-1.552-.955c-.119-.118-.357-.237-.475-.356-.12-1.79-.238-3.7-.238-5.486-.12-2.028-.238-4.056-.238-6.084-.119-2.028-.238-3.937-.238-5.965-.119-2.028-.238-3.937-.238-5.965-.118-2.028-.237-3.937-.237-5.965l-.357-6.084c-.119-2.028-.717-10.976-.836-11.213.12 0 5.01-.836 5.249-.836 0 .101 1.174 4.395 1.552 5.776a.57.57 0 0 0 .56.42l3.884-.042a.48.48 0 0 0 .48-.525c-.134-1.608-.532-6.426-.634-6.821.717-.12 4.773-.836 4.773-.836.238 0 .475-.119.717-.119.119.357.119.717.237 1.192.098.595.941 4.626 1.224 5.98.056.258.284.44.546.44.58-.007 1.577-.028 2.174-.087a.443.443 0 0 0 .4-.476c-.127-1.66-.406-7.78-.406-7.885.237 0 4.412-.356 4.531-.356.238 1.073.475 2.266.717 3.458.356 1.79.835 3.458 1.192 5.248s.836 3.458 1.192 5.248c.357 1.791.836 3.581 1.193 5.367.475 1.791.835 3.581 1.192 5.368.357 1.79.836 3.458 1.192 5.248.357 1.79.836 3.58 1.193 5.367.356 1.787 1.832 7.818 1.832 7.818s-.64 1.248-1.238 1.843zm-68.935-10.039c-.357-.238-.476-.835-.598-1.192-.357-1.311-.717-2.626-.955-3.937-1.073-4.654-.954-9.664.238-14.315.238-.835 1.552-.475 1.311.357-1.192 3.937-1.43 8.112-.836 12.168.238 1.671.598 3.22.836 4.891 0 .238.717 2.266 0 2.028zm-5.13-9.066c-.238-.238-.12-.717-.12-.954-.118-1.791 0-3.459.239-5.249.237-2.503.475-5.01 1.073-7.514.119-.475.717-1.073 1.192-.716.357.237.238.716 0 .954-.716 1.553-.835 3.22-1.192 4.773-.357 2.503-.717 5.01-.717 7.514v.954c-.119.357-.356.357-.475.238M133.15 95.239c-.357-.476-.238-.955-.357-1.553-.238-1.192-.476-2.384-.836-3.58-.835-2.503-2.384-4.531-3.699-6.8-.119-.238-.357-.476-.357-.717 0-.242.119-.476.476-.476.238 0 .475.238.717.476 1.79 2.028 3.458 4.412 4.531 6.92.476 1.31.717 2.625.955 3.936 0 .476.237 1.074.119 1.553-.476.597-1.312.716-1.553.237zm1.426-5.367c-.357-1.074-.598-2.266-1.192-3.34-.717-1.552-1.672-2.982-2.626-4.531-.238-.476-.717-.955-.717-1.43 0-.476.598-.476.836-.238.716.598 1.192 1.43 1.79 2.266 1.073 1.311 2.028 2.864 2.503 4.412.238.717.476 1.553.717 2.266.119.357-.119.717-.475.955-.119.119-.598 0-.836-.357z"/><path fill="#000" d="M95.45 128.879c-1.31-2.028-2.626-4.175-4.056-6.203-.356-.475-.237-1.073.12-1.43 3.457-3.339.356-9.902-4.892-8.948-4.654.836-5.728 7.158-2.147 9.542.356.238.598.717.475 1.193-.716 2.982-1.192 6.084-1.909 9.066-.119 1.79-.119 2.626 1.91 2.504 3.1.237 8.349-2.864 10.258-4.413.357-.238.475-.836.238-1.311z"/></svg>
