<svg width="399" height="253" viewBox="0 0 399 253" fill="none" xmlns="http://www.w3.org/2000/svg">
<path fill-rule="evenodd" clip-rule="evenodd" d="M298.135 45.8606C341.419 65.0756 394.695 86.4058 398.197 122.638C401.762 159.529 357.792 191.062 314.123 211.284C277.755 228.126 232.491 223.184 189.522 219.272C153.85 216.025 122.861 206.047 93.6293 191.209C55.8699 172.043 -2.66009 156.101 0.0937628 123.121C2.86072 89.9844 65.8767 81.0786 104.399 62.2275C132.008 48.7172 156.73 33.0112 189.976 30.2026C227.998 26.9904 265.722 31.4715 298.135 45.8606Z" fill="white"/>
<path d="M251.493 6.00861C251.374 69.2322 252.804 142.956 251.374 198.788C249.944 198.788 150.451 227.417 116.93 235.053C116.574 186.501 116.93 42.5155 116.93 42.5155C116.93 42.5155 237.773 8.99461 251.493 6.0121V6.00861Z" fill="white"/>
<path d="M251.246 27.0044C240.987 32.2526 135.89 57.5427 117.281 63.3889C116.089 55.0393 118.117 48.2386 116.925 42.3924C125.634 39.4099 239.082 9.82609 251.606 5.88904C251.963 11.4974 251.606 22.9484 251.249 27.0044H251.246Z" fill="#FED980"/>
<path d="M127.071 53.3686C121.106 52.414 125.518 42.8721 129.816 47.8826C131.008 49.7917 129.578 53.491 127.071 53.3686Z" fill="#FED980"/>
<path d="M138.283 50.6236C134.108 48.8334 136.853 42.274 141.147 44.1831C145.441 45.6131 141.864 51.8194 138.283 50.6236Z" fill="#FED980"/>
<path d="M151.639 46.9244C146.866 46.6866 149.136 39.288 153.192 40.4838C157.247 41.5572 155.576 47.4034 151.639 46.9244Z" fill="#FED980"/>
<path d="M160.587 101.679C143.171 58.0186 205.322 42.0327 216.178 82.592C215.703 128.4 168.818 122.435 160.587 101.679Z" fill="#FFF7DB"/>
<path d="M168.344 110.865C180.868 120.886 203.176 118.26 211.05 103.945C202.7 85.8125 172.04 92.1342 168.344 110.865Z" fill="#FED980"/>
<path d="M196.856 81.1614C194.352 66.7278 172.041 72.3327 178.248 87.1264C182.66 97.3851 199.125 92.018 196.856 81.1614Z" fill="#FED980"/>
<path d="M183.008 118.025C160.582 115.281 149.009 89.8716 161.655 71.1444C173.585 53.7284 199.232 53.6095 211.281 70.9067C218.082 80.4486 218.438 94.05 212.117 103.952C206.271 113.854 194.341 119.578 183.008 118.029V118.025ZM183.365 116.473C196.606 118.144 209.61 109.791 213.666 97.029C218.557 82.1164 210.327 65.8927 195.414 61.0011C183.246 56.9452 169.526 61.8368 162.61 72.571V72.4521C151.159 90.3472 162.253 114.085 183.369 116.473H183.365Z" fill="black"/>
<path d="M185.88 93.809C177.292 92.7356 173.236 82.7146 178.485 75.9139C184.568 68.2776 196.736 71.5013 198.289 81.1622C199.362 88.3195 193.04 94.76 185.883 93.8055L185.88 93.809ZM186.596 92.2565C193.278 92.7321 198.408 86.0538 196.261 79.7321C193.635 71.9769 183.257 70.7846 178.964 77.823C175.383 83.9069 179.439 91.781 186.6 92.2565H186.596Z" fill="black"/>
<path d="M168.585 110.27C168.347 110.151 168.11 110.033 167.749 110.033C167.631 110.033 167.512 110.033 167.393 110.151L167.274 110.033C167.274 109.795 167.393 109.557 167.512 109.316C167.749 108.361 168.228 107.407 168.585 106.452C169.54 104.424 170.732 102.634 172.043 100.966C172.281 100.728 172.519 100.491 172.76 100.249C173.117 99.7738 173.477 99.4136 173.952 99.057C174.19 98.8192 174.428 98.5815 174.669 98.4591C174.788 98.3402 174.907 98.2213 175.026 98.1025H175.145C175.263 97.9836 175.382 97.8647 175.501 97.8647C175.977 97.5081 176.456 97.1479 176.931 96.7913C177.886 96.0745 178.959 95.4801 180.033 94.8822C180.152 94.8822 180.27 94.7633 180.389 94.6444H180.508C180.627 94.6444 180.746 94.5256 180.865 94.4067C181.103 94.2878 181.34 94.1689 181.582 94.05C183.61 93.2144 185.756 92.62 188.022 92.2598C190.288 91.9032 192.676 92.0221 194.942 92.2598C197.207 92.6165 199.354 93.2144 201.382 94.1689C203.529 95.1234 205.438 96.3158 207.228 97.7493C208.9 99.1794 210.449 100.851 211.76 102.641C211.879 102.76 211.998 102.879 211.998 103.116C212.116 103.354 212.235 103.473 212.116 103.714C211.998 103.956 211.998 104.071 211.76 104.19C211.403 104.428 210.924 104.428 210.686 104.071C210.211 103.354 209.613 102.641 209.015 101.924C208.298 101.207 207.585 100.372 206.868 99.7773C206.151 99.1794 205.316 98.4661 204.484 97.8682C203.651 97.2703 202.693 96.7948 201.98 96.3158C201.026 95.8402 200.071 95.3612 199.116 95.1234C198.162 94.8857 197.089 94.5255 196.134 94.2878C195.179 94.05 194.106 93.9311 193.151 93.8123H193.033C191.959 93.6934 190.886 93.6934 189.931 93.8123C188.858 93.9311 187.784 94.05 186.83 94.1689C185.875 94.4067 184.921 94.6444 183.966 94.8857C183.012 95.2423 182.057 95.6025 181.221 95.9591C180.386 96.4346 179.55 96.9137 178.718 97.3892C178.001 97.8647 177.407 98.3437 176.69 98.8192C176.571 98.9381 176.452 99.057 176.214 99.1759H176.096C175.379 99.8927 174.666 100.487 173.949 101.323C173.351 102.04 172.756 102.875 172.159 103.588C171.561 104.543 170.966 105.379 170.487 106.333C169.889 107.407 169.533 108.48 169.057 109.672C168.938 109.91 168.938 110.029 168.819 110.27C168.661 110.35 168.582 110.35 168.582 110.27H168.585Z" fill="black"/>
<path d="M228.821 133.413C220.233 136.994 166.671 150.235 144.482 155.959C144.363 151.067 143.052 144.267 144.72 139.735C156.171 136.036 212.478 121.364 228.702 117.427C228.821 124.704 228.583 131.861 228.821 133.413Z" fill="#FFF7DB"/>
<path d="M228.708 141.763C228.47 143.91 228.946 157.987 228.946 157.987L144.726 181.487L144.488 164.309C144.488 164.309 204.134 148.204 228.708 141.763Z" fill="#FFF7DB"/>
<path d="M228.943 184.707L144.125 207.613V190.672L228.943 168.364V184.707Z" fill="#FED980"/>
<path d="M143.173 140.69V139.26C143.173 139.26 143.292 139.141 143.292 139.022C143.292 139.022 143.292 138.903 143.411 138.903C145.439 138.428 147.467 137.83 149.495 137.232C156.414 135.323 163.453 133.533 170.372 131.623C189.816 126.375 209.141 121.246 228.589 115.998C229.543 115.76 230.019 117.19 229.064 117.55C226.082 118.386 223.099 119.103 220.117 119.935C213.435 121.725 206.757 123.515 200.075 125.302C187.431 128.641 174.785 132.102 162.141 135.442C155.82 137.351 149.498 139.022 143.173 140.69Z" fill="black"/>
<path d="M143.172 156.795C142.935 155.603 144.602 155.721 145.319 155.365C146.274 155.127 147.347 154.889 148.302 154.529C160.47 151.309 172.756 147.97 184.924 144.746C198.644 141.047 212.361 137.351 226.2 133.652C227.274 133.414 228.466 133.054 229.539 132.697V133.414V133.77V134.008V134.127C229.539 134.127 229.539 134.246 229.42 134.246V134.365C229.183 134.484 228.823 134.484 228.585 134.603C215.344 138.183 202.102 141.76 188.861 145.218C174.784 149.036 160.707 152.732 146.63 156.55C145.914 156.788 145.078 156.907 144.365 157.148H144.127C143.651 157.386 143.291 157.148 143.172 156.791V156.795Z" fill="black"/>
<path d="M227.987 133.533V116.83C228.106 116.232 228.704 115.994 229.18 116.355C229.655 116.592 229.536 117.19 229.536 117.547V132.816V133.533V133.889C229.417 134.246 229.061 134.365 228.82 134.365C228.463 134.365 227.984 134.008 227.984 133.529L227.987 133.533Z" fill="black"/>
<path d="M143.17 156.675C143.051 155.721 143.17 154.885 143.17 153.931V140.689V139.973C143.17 139.735 143.288 139.616 143.407 139.497C143.883 139.022 144.718 139.497 144.718 140.095V156.675C144.6 157.032 144.243 157.151 144.002 157.151C143.645 157.151 143.285 157.032 143.166 156.675H143.17Z" fill="black"/>
<path d="M143.173 165.501V164.07C143.173 164.07 143.292 163.952 143.292 163.833C143.292 163.833 143.292 163.714 143.411 163.714C145.439 163.238 147.467 162.64 149.495 162.043C156.414 160.133 163.453 158.343 170.372 156.434C189.816 151.186 209.141 146.057 228.589 140.808C229.543 140.571 230.019 142.001 229.064 142.361C226.082 143.196 223.099 143.913 220.117 144.745C213.435 146.536 206.757 148.326 200.075 150.112C187.431 153.452 174.785 156.913 162.141 160.252C155.82 162.161 149.498 163.833 143.173 165.501Z" fill="black"/>
<path d="M143.172 181.606C142.935 180.413 144.602 180.532 145.319 180.176C146.274 179.938 147.347 179.7 148.302 179.34C160.47 176.12 172.756 172.781 184.924 169.557C198.644 165.858 212.361 162.162 226.2 158.462C227.274 158.225 228.466 157.865 229.539 157.508V158.225V158.581V158.819V158.938C229.539 158.938 229.539 159.057 229.42 159.057V159.176C229.183 159.295 228.823 159.295 228.585 159.414C215.344 162.994 202.102 166.571 188.861 170.029C174.784 173.847 160.707 177.543 146.63 181.361C145.914 181.599 145.078 181.718 144.365 181.959H144.127C143.651 182.197 143.291 181.959 143.172 181.602V181.606Z" fill="black"/>
<path d="M227.987 158.343V141.641C228.106 141.043 228.704 140.805 229.18 141.165C229.655 141.403 229.536 142.001 229.536 142.357V157.627V158.343V158.7C229.417 159.057 229.061 159.176 228.82 159.176C228.463 159.176 227.984 158.819 227.984 158.34L227.987 158.343Z" fill="black"/>
<path d="M143.17 181.487C143.051 180.532 143.17 179.697 143.17 178.742V165.501V164.784C143.17 164.546 143.288 164.428 143.407 164.309C143.883 163.833 144.718 164.309 144.718 164.907V181.487C144.6 181.844 144.243 181.962 144.002 181.962C143.645 181.962 143.285 181.844 143.166 181.487H143.17Z" fill="black"/>
<path d="M143.173 191.868V190.437C143.173 190.437 143.292 190.319 143.292 190.2C143.292 190.2 143.292 190.081 143.411 190.081C145.439 189.605 147.467 189.007 149.495 188.409C156.414 186.5 163.453 184.71 170.372 182.801C189.816 177.553 209.141 172.424 228.589 167.175C229.543 166.938 230.019 168.368 229.064 168.728C226.082 169.563 223.099 170.28 220.117 171.112C213.435 172.903 206.757 174.693 200.075 176.479C187.431 179.819 174.785 183.28 162.141 186.619C155.82 188.528 149.498 190.2 143.173 191.868Z" fill="black"/>
<path d="M143.172 207.97C142.935 206.777 144.602 206.896 145.319 206.539C146.274 206.302 147.347 206.064 148.302 205.704C160.47 202.484 172.756 199.144 184.924 195.921C198.644 192.221 212.361 188.526 226.2 184.826C227.274 184.588 228.466 184.228 229.539 183.872V184.588V184.945V185.183V185.302C229.539 185.302 229.539 185.421 229.42 185.421V185.54C229.183 185.658 228.823 185.658 228.585 185.777C215.344 189.358 202.102 192.935 188.861 196.393C174.784 200.211 160.707 203.907 146.63 207.725C145.914 207.963 145.078 208.081 144.365 208.323H144.127C143.651 208.56 143.291 208.323 143.172 207.966V207.97Z" fill="black"/>
<path d="M227.987 184.829V168.127C228.106 167.529 228.704 167.291 229.18 167.651C229.655 167.889 229.536 168.487 229.536 168.843V184.113V184.829V185.186C229.417 185.543 229.061 185.662 228.82 185.662C228.463 185.543 227.984 185.305 227.984 184.826L227.987 184.829Z" fill="black"/>
<path d="M143.17 207.85C143.051 206.896 143.17 206.06 143.17 205.106V191.864V191.148C143.17 190.91 143.288 190.791 143.407 190.672C143.883 190.197 144.718 190.672 144.718 191.27V207.85C144.6 208.207 144.243 208.326 144.002 208.326C143.645 208.326 143.285 208.207 143.166 207.85H143.17Z" fill="black"/>
<path d="M155.58 147.609C155.105 147.253 154.626 146.893 154.15 146.536H154.388C154.626 146.536 155.105 146.536 155.461 146.417C155.699 146.417 155.818 146.298 156.059 146.179C156.178 146.06 156.297 145.823 156.297 145.581C156.297 145.34 156.178 145.225 156.059 144.983C155.94 144.865 155.703 144.746 155.461 144.746H155.342C154.986 144.746 154.626 144.746 154.269 144.865H154.031C154.269 144.508 154.629 144.148 154.867 143.791C155.105 143.553 155.105 143.316 155.105 143.074C154.867 142.358 153.912 142.358 153.552 142.955C153.314 143.193 153.196 143.431 152.954 143.672V142.48C152.954 142.004 152.598 141.763 152.119 141.763C151.64 141.763 151.283 142.12 151.402 142.599C151.402 143.197 151.402 143.791 151.521 144.508C151.045 144.27 150.685 143.91 150.328 143.553C149.972 143.316 149.612 142.837 149.136 143.078C148.779 143.197 148.419 143.676 148.538 144.032C148.657 144.27 148.776 144.508 149.014 144.63C149.489 145.106 149.968 145.466 150.566 145.823C150.447 145.823 150.21 145.941 150.091 145.941C149.853 145.941 149.493 146.06 149.255 146.179C149.136 146.179 149.017 146.179 149.017 146.298C148.898 146.298 148.78 146.298 148.78 146.417C148.661 146.417 148.542 146.536 148.542 146.655C148.542 146.774 148.423 146.774 148.423 146.893C148.423 147.13 148.423 147.368 148.661 147.609H148.78C148.898 147.609 149.017 147.728 149.136 147.728H149.734C149.972 147.728 150.21 147.609 150.332 147.609C150.213 147.847 150.094 147.966 149.975 148.085C149.619 148.56 149.259 149.158 149.619 149.637C149.856 150.235 150.93 149.875 151.049 149.281C151.286 148.924 151.524 148.564 151.884 148.207V149.76C151.884 150.235 152.241 150.476 152.72 150.476C153.196 150.476 153.556 150.12 153.437 149.641C153.437 149.043 153.437 148.448 153.318 147.969C154.035 148.445 154.748 148.924 155.584 149.281C156.059 149.281 156.419 147.969 155.584 147.609H155.58Z" fill="black"/>
<path d="M168.701 144.148C168.225 143.791 167.746 143.431 167.271 143.074H167.508C167.746 143.074 168.225 143.074 168.582 142.956C168.82 142.956 168.939 142.837 169.18 142.718C169.299 142.599 169.418 142.361 169.418 142.12C169.418 141.879 169.299 141.763 169.18 141.522C169.061 141.403 168.823 141.284 168.582 141.284H168.463C168.106 141.284 167.746 141.284 167.39 141.403H167.152C167.39 141.046 167.75 140.686 167.987 140.33C168.225 140.092 168.225 139.854 168.225 139.613C167.988 138.896 167.033 138.896 166.673 139.494C166.435 139.732 166.316 139.97 166.075 140.211V139.018C166.075 138.543 165.718 138.302 165.239 138.302C164.76 138.302 164.404 138.658 164.522 139.137C164.522 139.735 164.522 140.33 164.641 141.046C164.166 140.809 163.806 140.449 163.449 140.092C163.092 139.854 162.732 139.375 162.257 139.616C161.9 139.735 161.54 140.214 161.659 140.571C161.778 140.809 161.897 141.046 162.134 141.169C162.61 141.644 163.089 142.004 163.687 142.361C163.568 142.361 163.33 142.48 163.211 142.48C162.974 142.48 162.613 142.599 162.376 142.718C162.257 142.718 162.138 142.718 162.138 142.837C162.019 142.837 161.9 142.837 161.9 142.956C161.781 142.956 161.662 143.074 161.662 143.193C161.662 143.312 161.543 143.312 161.543 143.431C161.543 143.669 161.543 143.907 161.781 144.148H161.9C162.019 144.148 162.138 144.267 162.257 144.267H162.855C163.092 144.267 163.33 144.148 163.453 144.148C163.334 144.267 163.215 144.504 163.096 144.623C162.739 145.099 162.379 145.697 162.739 146.176C162.977 146.774 164.05 146.414 164.169 145.819C164.407 145.463 164.645 145.102 165.005 144.746V146.298C165.005 146.774 165.362 147.015 165.841 147.015C166.316 147.015 166.676 146.658 166.557 146.179C166.557 145.581 166.557 144.987 166.439 144.508C167.155 144.983 167.869 145.463 168.704 145.819C169.302 145.819 169.659 144.508 168.704 144.148H168.701Z" fill="black"/>
<path d="M181.948 140.69C181.473 140.333 180.994 139.973 180.518 139.616H180.756C180.994 139.616 181.473 139.616 181.829 139.498C182.067 139.498 182.186 139.379 182.427 139.26C182.546 139.141 182.665 138.903 182.665 138.662C182.665 138.421 182.546 138.305 182.427 138.064C182.308 137.945 182.071 137.826 181.829 137.826H181.711C181.354 137.826 180.994 137.826 180.637 137.945H180.399C180.637 137.588 180.997 137.228 181.235 136.872C181.473 136.634 181.473 136.396 181.473 136.155C181.235 135.438 180.281 135.438 179.92 136.036C179.683 136.274 179.564 136.512 179.322 136.753V135.56C179.322 135.085 178.966 134.844 178.487 134.844C178.008 134.844 177.651 135.2 177.77 135.679C177.77 136.277 177.77 136.872 177.889 137.588C177.413 137.351 177.053 136.991 176.697 136.634C176.34 136.396 175.98 135.917 175.504 136.158C175.148 136.277 174.788 136.756 174.906 137.113C175.025 137.351 175.144 137.588 175.382 137.711C175.857 138.186 176.336 138.546 176.934 138.903C176.815 138.903 176.578 139.022 176.459 139.022C176.221 139.022 175.861 139.141 175.623 139.26C175.504 139.26 175.385 139.26 175.385 139.379C175.267 139.379 175.148 139.379 175.148 139.498C175.029 139.498 174.91 139.616 174.91 139.735C174.91 139.854 174.791 139.854 174.791 139.973C174.791 140.211 174.791 140.449 175.029 140.69H175.148C175.267 140.69 175.385 140.809 175.504 140.809H176.102C176.34 140.809 176.578 140.69 176.7 140.69C176.581 140.809 176.462 141.046 176.343 141.165C175.987 141.641 175.627 142.239 175.987 142.718C176.225 143.316 177.298 142.956 177.417 142.361C177.655 142.004 177.892 141.644 178.253 141.288V142.84C178.253 143.316 178.609 143.557 179.088 143.557C179.564 143.557 179.924 143.2 179.805 142.721C179.805 142.123 179.805 141.529 179.686 141.05C180.403 141.525 181.116 142.004 181.952 142.361C182.55 142.361 182.788 141.05 181.952 140.69H181.948Z" fill="black"/>
<path d="M155.58 172.183C155.105 171.826 154.626 171.466 154.15 171.109H154.388C154.626 171.109 155.105 171.109 155.461 170.99C155.699 170.99 155.818 170.871 156.059 170.752C156.178 170.634 156.297 170.396 156.297 170.155C156.297 169.913 156.178 169.798 156.059 169.557C155.94 169.438 155.703 169.319 155.461 169.319H155.342C154.986 169.319 154.626 169.319 154.269 169.438H154.031C154.269 169.081 154.629 168.721 154.867 168.364C155.105 168.127 155.105 167.889 155.105 167.648C154.867 166.931 153.912 166.931 153.552 167.529C153.314 167.767 153.196 168.004 152.954 168.246V167.053C152.954 166.578 152.598 166.336 152.119 166.336C151.64 166.336 151.283 166.693 151.402 167.172C151.402 167.77 151.402 168.364 151.521 169.081C151.045 168.843 150.685 168.483 150.328 168.127C149.972 167.889 149.612 167.41 149.136 167.651C148.779 167.77 148.419 168.249 148.538 168.606C148.657 168.843 148.776 169.081 149.014 169.204C149.489 169.679 149.968 170.039 150.566 170.396C150.447 170.396 150.21 170.515 150.091 170.515C149.853 170.515 149.493 170.634 149.255 170.752C149.136 170.752 149.017 170.753 149.017 170.871C148.898 170.871 148.78 170.871 148.78 170.99C148.661 170.99 148.542 171.109 148.542 171.228C148.542 171.347 148.423 171.347 148.423 171.466C148.423 171.704 148.423 171.941 148.661 172.183H148.78C148.898 172.183 149.017 172.301 149.136 172.301H149.734C149.972 172.301 150.21 172.183 150.332 172.183C150.213 172.42 150.094 172.539 149.975 172.658C149.619 173.134 149.259 173.732 149.619 174.211C149.856 174.808 150.93 174.448 151.049 173.854C151.286 173.497 151.524 173.137 151.884 172.78V174.333C151.884 174.808 152.241 175.05 152.72 175.05C153.196 175.05 153.556 174.693 153.437 174.214C153.437 173.616 153.437 173.022 153.318 172.543C154.035 173.018 154.748 173.497 155.584 173.854C156.059 173.854 156.419 172.424 155.584 172.183H155.58Z" fill="black"/>
<path d="M168.701 168.725C168.225 168.368 167.746 168.008 167.271 167.651H167.508C167.746 167.651 168.225 167.651 168.582 167.532C168.82 167.532 168.939 167.413 169.18 167.294C169.299 167.176 169.418 166.938 169.418 166.697C169.418 166.455 169.299 166.34 169.18 166.099C169.061 165.98 168.823 165.861 168.582 165.861H168.463C168.106 165.861 167.746 165.861 167.39 165.98H167.152C167.39 165.623 167.75 165.263 167.987 164.906C168.225 164.669 168.225 164.431 168.225 164.19C167.988 163.473 167.033 163.473 166.673 164.071C166.435 164.308 166.316 164.546 166.075 164.787V163.595C166.075 163.12 165.718 162.878 165.239 162.878C164.76 162.878 164.404 163.235 164.522 163.714C164.522 164.312 164.522 164.906 164.641 165.623C164.166 165.385 163.806 165.025 163.449 164.669C163.092 164.431 162.732 163.952 162.257 164.193C161.9 164.312 161.54 164.791 161.659 165.148C161.778 165.385 161.897 165.623 162.134 165.746C162.61 166.221 163.089 166.581 163.687 166.938C163.568 166.938 163.33 167.057 163.211 167.057C162.974 167.057 162.613 167.176 162.376 167.294C162.257 167.294 162.138 167.294 162.138 167.413C162.019 167.413 161.9 167.413 161.9 167.532C161.781 167.532 161.662 167.651 161.662 167.77C161.662 167.889 161.543 167.889 161.543 168.008C161.543 168.246 161.543 168.483 161.781 168.725H161.9C162.019 168.725 162.138 168.843 162.257 168.843H162.855C163.092 168.843 163.33 168.725 163.453 168.725C163.334 168.962 163.215 169.081 163.096 169.2C162.739 169.676 162.379 170.273 162.739 170.753C162.977 171.35 164.05 170.99 164.169 170.396C164.407 170.039 164.645 169.679 165.005 169.322V170.875C165.005 171.35 165.362 171.592 165.841 171.592C166.316 171.592 166.676 171.235 166.557 170.756C166.557 170.158 166.557 169.564 166.439 169.085C167.155 169.56 167.869 170.039 168.704 170.396C169.302 170.396 169.659 169.085 168.704 168.725H168.701Z" fill="black"/>
<path d="M181.948 165.263C181.473 164.906 180.994 164.546 180.518 164.19H180.756C180.994 164.19 181.473 164.19 181.829 164.071C182.067 164.071 182.186 163.952 182.427 163.833C182.546 163.714 182.665 163.476 182.665 163.235C182.665 162.994 182.546 162.878 182.427 162.637C182.308 162.518 182.071 162.399 181.829 162.399H181.711C181.354 162.399 180.994 162.399 180.637 162.518H180.399C180.637 162.162 180.997 161.802 181.235 161.445C181.473 161.207 181.473 160.969 181.473 160.728C181.235 160.011 180.281 160.011 179.92 160.609C179.683 160.847 179.564 161.085 179.322 161.326V160.134C179.322 159.658 178.966 159.417 178.487 159.417C178.008 159.417 177.651 159.774 177.77 160.253C177.77 160.85 177.77 161.445 177.889 162.162C177.413 161.924 177.053 161.564 176.697 161.207C176.34 160.969 175.98 160.49 175.504 160.732C175.148 160.85 174.788 161.329 174.906 161.686C175.025 161.924 175.144 162.162 175.382 162.284C175.857 162.76 176.336 163.12 176.934 163.476C176.815 163.476 176.578 163.595 176.459 163.595C176.221 163.595 175.861 163.714 175.623 163.833C175.504 163.833 175.385 163.833 175.385 163.952C175.267 163.952 175.148 163.952 175.148 164.071C175.029 164.071 174.91 164.19 174.91 164.308C174.91 164.427 174.791 164.427 174.791 164.546C174.791 164.784 174.791 165.022 175.029 165.263H175.148C175.267 165.263 175.385 165.382 175.504 165.382H176.102C176.34 165.382 176.578 165.263 176.7 165.263C176.581 165.501 176.462 165.62 176.343 165.739C175.987 166.214 175.627 166.812 175.987 167.291C176.225 167.889 177.298 167.529 177.417 166.934C177.655 166.578 177.892 166.218 178.253 165.861V167.413C178.253 167.889 178.609 168.13 179.088 168.13C179.564 168.13 179.924 167.774 179.805 167.294C179.805 166.697 179.805 166.102 179.686 165.623C180.403 166.099 181.116 166.578 181.952 166.934C182.55 166.934 182.788 165.623 181.952 165.263H181.948Z" fill="black"/>
<path d="M195.658 161.805C195.182 161.448 194.703 161.088 194.228 160.732H194.466C194.703 160.732 195.182 160.732 195.539 160.613C195.777 160.613 195.896 160.494 196.137 160.375C196.256 160.256 196.375 160.018 196.375 159.777C196.375 159.536 196.256 159.42 196.137 159.179C196.018 159.06 195.78 158.941 195.539 158.941H195.42C195.063 158.941 194.703 158.941 194.347 159.06H194.109C194.347 158.704 194.707 158.344 194.945 157.987C195.182 157.749 195.182 157.511 195.182 157.27C194.945 156.553 193.99 156.553 193.63 157.151C193.392 157.389 193.273 157.627 193.032 157.868V156.676C193.032 156.2 192.675 155.959 192.196 155.959C191.717 155.959 191.361 156.316 191.479 156.795C191.479 157.392 191.479 157.987 191.598 158.704C191.123 158.466 190.763 158.106 190.406 157.749C190.049 157.511 189.689 157.032 189.214 157.274C188.857 157.392 188.497 157.872 188.616 158.228C188.735 158.466 188.854 158.704 189.091 158.826C189.567 159.302 190.046 159.662 190.644 160.018C190.525 160.018 190.287 160.137 190.168 160.137C189.931 160.137 189.57 160.256 189.333 160.375C189.214 160.375 189.095 160.375 189.095 160.494C188.976 160.494 188.857 160.494 188.857 160.613C188.738 160.613 188.619 160.732 188.619 160.851C188.619 160.969 188.5 160.969 188.5 161.088C188.5 161.326 188.5 161.564 188.738 161.805H188.857C188.976 161.805 189.095 161.924 189.214 161.924H189.812C190.049 161.924 190.287 161.805 190.41 161.805C190.291 162.043 190.172 162.162 190.053 162.281C189.696 162.756 189.336 163.354 189.696 163.833C189.934 164.431 191.007 164.071 191.126 163.476C191.364 163.12 191.602 162.76 191.962 162.403V163.833C191.962 164.309 192.319 164.55 192.798 164.55C193.273 164.55 193.633 164.193 193.514 163.714C193.514 163.116 193.514 162.522 193.396 162.043C194.112 162.518 194.826 162.997 195.661 163.354C196.259 163.473 196.616 162.162 195.661 161.802L195.658 161.805Z" fill="black"/>
<path d="M211.525 157.63C211.05 157.274 210.571 156.913 210.095 156.557H210.333C210.571 156.557 211.05 156.557 211.407 156.438C211.644 156.438 211.763 156.319 212.004 156.2C212.123 156.081 212.242 155.843 212.242 155.602C212.242 155.361 212.123 155.246 212.004 155.004C211.886 154.885 211.648 154.767 211.407 154.767H211.288C210.931 154.767 210.571 154.767 210.214 154.885H209.977C210.214 154.529 210.574 154.169 210.812 153.812C211.05 153.574 211.05 153.336 211.05 153.095C210.812 152.378 209.858 152.378 209.498 152.976C209.26 153.214 209.141 153.452 208.9 153.693V152.501C208.9 152.025 208.543 151.784 208.064 151.784C207.585 151.784 207.228 152.141 207.347 152.62C207.347 153.218 207.347 153.812 207.466 154.529C206.991 154.291 206.63 153.931 206.274 153.574C205.917 153.336 205.557 152.857 205.081 153.099C204.725 153.218 204.365 153.697 204.484 154.053C204.602 154.291 204.721 154.529 204.959 154.651C205.435 155.127 205.914 155.487 206.512 155.843C206.393 155.843 206.155 155.962 206.036 155.962C205.798 155.962 205.438 156.081 205.2 156.2C205.081 156.2 204.963 156.2 204.963 156.319C204.844 156.319 204.725 156.319 204.725 156.438C204.606 156.438 204.487 156.557 204.487 156.676C204.487 156.794 204.368 156.794 204.368 156.913C204.368 157.151 204.368 157.389 204.606 157.63H204.725C204.844 157.63 204.963 157.749 205.081 157.749H205.679C205.917 157.749 206.155 157.63 206.277 157.63C206.158 157.868 206.039 157.987 205.921 158.106C205.564 158.581 205.204 159.179 205.564 159.658C205.802 160.256 206.875 159.896 206.994 159.301C207.232 158.945 207.47 158.585 207.83 158.228V159.658C207.83 160.134 208.186 160.375 208.665 160.375C209.141 160.375 209.501 160.018 209.382 159.539C209.382 158.941 209.382 158.347 209.263 157.868C209.98 158.343 210.693 158.822 211.529 159.179C212.127 159.298 212.365 157.987 211.529 157.627L211.525 157.63Z" fill="black"/>
<path d="M107.746 43.3478C107.746 43.228 107.626 43.228 107.746 43.3478C107.666 43.3478 107.666 43.3478 107.746 43.3478C107.746 43.4676 107.626 43.3478 107.746 43.3478Z" fill="black"/>
<path d="M252.206 27.8369V15.0712C252.206 12.5677 252.206 9.94182 251.968 7.43483C251.968 7.07819 251.968 6.83693 251.849 6.48029C251.968 6.24252 251.968 6.12365 251.968 5.88239C251.612 4.92785 250.657 5.40686 249.94 5.64462C248.388 6.12015 246.839 6.48029 245.168 6.83693C206.28 17.2145 167.388 27.7145 128.5 38.0921C125.374 38.9697 118.93 40.7145 116.741 41.2949C116.29 41.4138 115.976 41.8228 115.976 42.2914C115.976 53.2459 116.091 174.896 115.976 234.448C115.976 234.686 116.094 235.046 116.332 235.165V235.403C116.451 236.001 117.049 236.12 117.525 235.878C123.371 234.326 129.094 232.777 134.941 231.224C172.636 221.085 210.213 211.064 247.912 200.924C248.986 200.686 249.94 200.326 251.014 200.088C251.489 200.088 251.968 199.613 251.849 199.015V198.896C252.087 198.777 252.206 198.539 252.206 198.298V187.801C252.206 134.476 252.444 81.1549 252.206 27.8299V27.8369ZM250.776 198.427V198.665C250.538 198.784 250.178 198.784 249.94 198.903C248.388 199.141 246.839 199.62 245.286 199.976C206.398 210.354 167.507 220.854 128.619 231.231C124.92 232.186 121.343 233.141 117.643 234.214V223.955C117.525 170.749 117.762 117.665 117.643 64.578C119.315 64.1025 120.983 63.6235 122.773 63.2669C124.92 62.669 126.948 62.1934 129.094 61.5955C169.654 50.7389 210.332 39.8858 250.891 28.9103C250.654 85.3367 250.891 141.882 250.772 198.427H250.776ZM251.133 8.03622C251.133 9.10965 251.014 10.1831 251.014 11.2565C251.014 16.5047 251.014 21.753 250.895 27.0047C249.94 27.2425 248.986 27.4802 248.031 27.7215C208.189 38.4592 168.343 49.0746 128.5 59.8123C126.472 60.2878 124.563 60.8857 122.654 61.3648C120.983 61.8403 119.434 62.2004 117.762 62.6759V51.106C117.762 48.6025 117.762 45.9767 117.525 43.4697V42.8298C117.573 42.8368 117.654 42.8089 117.762 42.7529C123.608 41.2005 129.332 39.6515 135.178 38.0991C172.874 27.9593 210.451 17.9383 248.15 7.79847C249.105 7.5607 250.178 7.32294 251.133 6.9628V8.03622Z" fill="black"/>
<path d="M123.489 47.8787C121.936 50.6234 123.964 54.2003 127.069 54.3192C130.29 54.557 132.678 51.0989 131.363 48.2353C129.933 44.8962 125.16 44.7773 123.489 47.8787ZM127.307 52.7703C125.16 52.7703 123.727 50.2668 125.041 48.4766C126.115 46.6864 128.859 46.8052 129.814 48.7143C130.769 50.5045 129.339 52.7703 127.311 52.7703H127.307Z" fill="black"/>
<path d="M135.775 44.8961C134.223 47.6409 136.251 51.2178 139.356 51.3367C142.576 51.5744 144.964 48.1164 143.65 45.2528C142.22 41.9136 137.447 41.7947 135.775 44.8961ZM139.594 49.7877C137.447 49.7877 136.013 47.2842 137.328 45.494C138.401 43.7038 141.146 43.8227 142.101 45.7318C143.055 47.522 141.625 49.7877 139.597 49.7877H139.594Z" fill="black"/>
<path d="M148.542 41.7948C146.99 44.5395 149.018 48.1165 152.123 48.2353C155.224 48.4731 157.609 44.8962 156.416 42.1514C154.986 38.8123 150.213 38.6934 148.542 41.7948ZM152.36 46.5675C150.095 46.6864 148.78 44.064 150.095 42.2738C151.168 40.4836 153.913 40.6025 154.867 42.5116C155.822 44.3018 154.392 46.5675 152.364 46.5675H152.36Z" fill="black"/>
<path d="M282.744 44.3893C281.894 48.2564 268.918 52.1061 268.918 52.1061C267.716 52.7284 266.24 52.0991 265.859 50.8019C265.859 50.8019 261.803 41.4767 263.111 38.3509C264.625 34.7425 274.432 31.767 278.418 33.1586C281.639 34.2809 283.041 43.0397 282.744 44.3893Z" fill="white"/>
<path d="M258.528 190.914C258.409 188.169 258.29 185.428 258.171 182.683C258.053 179.225 257.815 175.763 257.696 172.305C257.577 168.725 257.339 165.029 257.22 161.449C257.22 160.732 257.22 159.896 257.102 159.183C257.339 159.302 257.458 159.302 257.699 159.421C257.818 159.421 257.937 159.54 258.175 159.54H258.773C258.773 160.494 258.892 161.33 258.892 162.284C259.011 165.865 259.248 169.442 259.367 173.022C259.486 176.48 259.724 179.942 259.843 183.4C259.962 185.903 260.081 188.41 260.199 190.914C260.199 191.151 260.199 191.389 259.962 191.512C259.843 191.63 259.605 191.749 259.364 191.749C259.007 191.63 258.528 191.393 258.528 190.914Z" fill="black"/>
<path d="M348.47 61.837C351.215 67.802 347.753 74.4803 345.012 79.9698C341.91 84.9803 335.47 87.8439 333.799 93.6901C332.963 95.8369 329.862 92.9733 328.669 92.26C325.211 89.9943 326.879 84.8649 324.257 82.239C320.557 79.8544 320.557 85.2215 319.484 87.4873C317.099 88.9173 318.767 80.33 317.931 78.8999C317.096 75.9174 313.04 74.4873 310.295 75.9174C307.911 77.1097 302.54 76.753 306.596 73.6516C308.624 66.6132 303.257 70.5503 299.32 70.1936C295.62 69.358 294.788 71.3859 293.834 74.7251C293.953 75.323 293.358 75.7985 292.76 75.6796C286.914 75.4419 282.501 69.7146 282.022 64.2286C282.977 51.7042 294.547 42.9944 306.596 40.7286C315.9 40.372 321.865 40.4909 328.187 47.886C331.407 52.4174 337.729 50.9874 341.907 53.372C345.008 55.7566 348.11 57.5468 348.466 61.8405L348.47 61.837Z" fill="black"/>
<path d="M350.861 228.609C334.994 227.298 307.081 224.197 280.001 214.413C278.211 212.623 278.571 208.448 278.211 206.064C279.522 190.914 286.085 203.917 286.441 191.511V191.63C286.679 190.438 287.039 189.127 287.158 187.931V188.05C287.756 185.305 288.113 182.564 288.588 179.819V179.7C296.581 161.924 287.158 177.074 270.218 182.085C262.106 184.469 254.592 173.375 248.746 167.651C235.385 166.459 246.001 172.183 252.085 177.553C267.952 202.725 216.892 167.057 207.588 160.851C199.833 155.602 213.672 148.445 213.672 148.445C221.784 152.739 237.77 161.33 251.728 160.613C260.794 160.137 270.934 153.456 282.983 144.27C289.665 139.739 296.224 133.414 304.574 132.459C308.154 129.956 312.805 106.333 316.742 116.592C324.378 110.033 336.424 101.798 337.857 103.826C340.123 105.256 341.794 110.508 343.584 116.47C349.312 119.69 355.277 123.746 359.57 128.875C375.319 144.263 368.039 168.242 368.158 187.686C365.056 203.193 374.717 230.99 350.861 228.602V228.609Z" fill="#FED980"/>
<path d="M285.604 193.298C285.604 193.298 259.241 174.69 249.699 168.725C247.073 167.053 240.395 167.77 240.395 167.77C240.992 168.844 244.213 170.871 247.433 173.854C248.863 175.046 251.132 178.627 251.489 174.809C251.251 177.434 254.234 177.791 255.307 179.7C258.29 177.91 260.08 180.774 262.943 182.326C269.982 186.62 276.422 198.431 285.37 197.476L285.608 193.301L285.604 193.298Z" fill="black"/>
<path d="M295.745 220.379C296.462 225.151 295.983 229.564 295.864 232.071C292.284 235.529 284.532 240.302 279.759 245.193C279.759 245.193 279.161 222.169 282.504 215.491C286.56 217.994 295.745 220.382 295.745 220.382V220.379Z" fill="white"/>
<path d="M316.734 124.11C320.908 125.421 316.971 129.358 315.66 131.386C310.531 144.508 305.877 157.033 303.374 170.991C300.87 179.221 299.916 188.525 298.482 196.281C294.902 196.997 285.958 197.473 285.958 197.473C289.416 179.34 294.188 160.732 300.629 143.435C304.804 136.753 305.16 119.575 316.734 124.11Z" fill="white"/>
<path d="M334.141 102.386C337.361 105.725 325.687 106.931 323.299 110.627C321.152 111.582 317.334 116.83 316.379 115.519C311.848 101.085 305.166 125.183 294.547 100.368C284.288 102.278 293.83 91.421 293.83 86.8895C293.355 81.879 292.994 76.9874 295.383 72.456C295.98 71.7392 296.694 68.5189 297.886 70.3091C301.942 72.5749 310.89 65.0609 304.687 74.8406C303.732 78.5399 313.036 74.0049 315.9 76.8686C319.48 79.6133 316.019 85.2182 319.599 87.9629C322.225 76.0329 324.61 81.879 326.757 90.3475C333.844 90.8545 334.138 102.386 334.138 102.386H334.141Z" fill="white"/>
<path d="M256.62 184.35C256.739 184.588 256.858 184.707 256.858 184.826C256.858 184.707 256.739 184.469 256.62 184.35ZM281.194 197.473C277.855 203.913 278.211 207.969 277.973 212.385C271.292 205.703 268.669 205.826 258.05 191.508C256.62 189.599 248.386 173.973 252.323 174.686C253.634 176.476 255.068 179.696 255.425 180.053C259.124 174.924 276.54 196.396 281.19 197.469L281.194 197.473Z" fill="white"/>
<path d="M181.703 150.473C181.703 150.473 181.703 150.354 181.584 150.354H181.465C181.545 150.354 181.624 150.394 181.703 150.473ZM211.525 147.372C212 147.609 212.598 147.969 212.598 148.564C212.36 149.518 211.644 150.116 211.168 150.948C210.332 152.26 209.738 153.693 209.14 155.123C208.665 156.078 208.423 157.27 208.186 158.344C208.067 159.06 207.71 159.896 206.755 159.536C206.399 159.417 206.039 159.06 205.563 158.938C204.49 158.819 203.416 159.295 202.343 159.176C201.151 159.176 200.077 158.7 199.004 158.34C197.574 157.865 196.378 157.029 195.186 156.193C193.276 154.882 191.13 153.809 188.864 153.567C188.028 153.448 187.311 153.33 186.479 153.33C184.927 153.33 183.259 153.211 181.825 152.375C180.871 151.777 179.56 150.823 180.035 149.63C180.392 148.913 181.346 148.913 181.944 149.274C182.661 149.036 183.497 149.036 184.329 149.155C185.046 149.155 185.64 149.274 186.357 149.511C186.476 149.511 186.595 149.63 186.714 149.749C188.144 149.868 189.577 149.868 191.007 149.749C189.577 148.557 187.906 147.959 186.353 147.123C185.161 146.648 183.969 146.288 182.773 145.812C181.818 145.455 181.221 144.62 180.626 143.903C180.27 143.427 179.672 142.473 180.388 141.994C181.105 141.518 181.941 142.351 182.654 142.592C183.609 143.067 184.682 143.665 185.637 144.144C186.353 144.501 187.067 144.742 187.783 144.98C189.095 145.218 190.535 144.805 191.85 144.805C189.105 143.015 185.997 142.354 183.133 140.802C182.416 140.326 181.703 139.728 181.581 138.893C181.462 137.581 182.535 136.983 183.728 137.34C185.637 137.938 187.546 138.414 189.336 139.368C190.888 140.204 192.207 141.064 193.637 142.137C192.207 140.585 190.409 139.728 188.857 138.295C188.14 137.578 187.427 136.742 186.71 136.029C186.112 135.431 184.801 134.476 185.993 133.763C186.591 133.525 187.067 134.12 187.546 134.12C188.144 134.239 188.738 134.358 189.455 134.476C190.172 134.714 190.885 134.952 191.721 134.952C191.364 134.235 191.123 133.043 192.196 132.924C192.434 132.924 192.672 133.043 192.913 133.162C193.511 133.637 194.224 133.997 194.822 134.473C197.448 136.144 199.832 137.931 202.098 139.84C202.815 140.316 203.528 141.032 204.245 141.63C206.154 143.183 208.063 144.732 209.972 146.162C210.57 146.637 210.927 146.997 211.525 147.354V147.372Z" fill="white"/>
<path d="M296.816 208.092H297.054C296.935 208.211 296.935 208.092 296.816 208.092Z" fill="black"/>
<path d="M264.966 183.756C264.729 183.518 264.729 183.399 264.966 183.28L265.085 183.399L265.323 183.637L265.442 183.756C265.442 183.756 265.561 183.875 265.68 183.875H265.442C265.204 183.756 265.085 183.756 264.966 183.756Z" fill="black"/>
<path d="M267.469 182.204C267.469 182.204 267.59 182.204 267.59 182.325C267.469 182.325 267.469 182.204 267.469 182.204Z" fill="black"/>
<path d="M278.333 24.7355C278.333 24.7355 278.333 24.8566 278.454 24.8566L278.333 24.7355Z" fill="black"/>
<path d="M275.224 40.8406C274.986 39.7672 274.269 39.1693 272.839 39.1693C270.214 39.1693 269.976 43.2252 272.364 43.8231C272.007 46.8056 276.301 45.4944 274.749 43.1063C275.224 42.5084 275.465 41.6762 275.224 40.8406Z" fill="black"/>
<path d="M281.546 36.6655C280.948 34.5187 279.874 30.9383 277.133 31.4173C273.553 31.6551 269.976 33.3264 266.518 34.5187C265.444 30.225 263.416 26.0502 263.297 21.5152C263.654 18.1761 267.472 15.4313 270.811 16.267C272.958 16.9838 273.913 19.2495 274.748 21.2775C275.224 21.9943 274.986 23.9033 276.301 23.6621C276.776 23.5432 277.018 23.0642 276.899 22.7075C275.588 13.6411 265.567 11.4943 262.105 20.2041C261.63 21.7565 262.105 23.4243 262.581 24.8579C263.297 28.3159 264.133 31.7775 265.207 35.1166C261.626 36.7879 261.749 38.697 262.822 43.1096C263.895 45.7355 263.776 51.8194 266.997 52.5326C270.098 53.0082 272.962 50.9802 275.707 49.9068C283.7 46.5676 284.773 45.1341 281.553 36.6655H281.546ZM277.133 47.4033C274.867 48.4767 267.231 53.7249 265.92 49.3124C265.084 46.211 262.102 39.7704 264.13 37.8613C266.514 35.4767 271.287 34.4033 274.626 33.5677C277.011 32.9698 278.444 32.6131 279.399 35.5956C280.234 37.9802 280.951 39.8893 281.427 42.0362C282.381 45.4942 279.755 46.3299 277.133 47.4033Z" fill="black"/>
<path d="M260.905 29.5084C260.786 29.3895 260.667 29.2706 260.548 29.0328C260.31 28.1972 260.072 27.3615 260.072 26.5293C259.835 25.0993 259.356 23.6657 259.954 22.2356C260.073 21.879 260.552 21.7601 260.67 22.1168C260.789 22.4734 260.67 22.9524 260.789 23.3091C260.908 24.1447 261.146 24.9804 261.387 25.6937C261.625 26.6482 261.744 27.6028 262.104 28.5573C262.104 29.2741 261.387 29.8685 260.912 29.5119L260.905 29.5084Z" fill="black"/>
<path d="M266.512 57.6619C263.649 57.4242 261.502 55.3962 260.904 52.6515C260.666 51.4592 260.428 50.148 260.785 48.9522C260.904 48.7144 261.142 48.7144 261.26 48.9522C261.498 49.4277 261.498 50.0256 261.617 50.5046C261.855 51.2214 261.974 51.9347 262.215 52.5326C262.69 53.8438 263.526 55.0361 264.841 55.634C265.439 55.9906 266.152 55.9906 266.869 56.2319C267.704 56.3508 267.467 57.6619 266.512 57.6619Z" fill="black"/>
<path d="M261.745 58.973C261.269 58.8541 260.79 58.4975 260.315 58.1373C259.598 57.6618 259.003 56.945 258.643 56.1094C258.406 55.3926 258.045 54.6793 258.168 53.9625C258.287 53.6059 258.766 53.487 259.003 53.8436C259.36 54.5604 259.601 55.2737 259.958 55.8716C260.433 56.5884 261.269 57.0639 261.986 57.424C263.059 57.8996 262.584 59.2142 261.748 58.9765L261.745 58.973Z" fill="black"/>
<path d="M286.911 130.55C280.205 128.903 273.412 122.676 275.936 115.281C265.751 111.568 259.964 99.0046 261.03 88.669C261.055 88.4452 261.38 88.4487 261.401 88.669C261.565 90.5116 261.859 93.4347 262.219 95.0011C264.044 102.931 268.237 111.151 276.296 113.97C282.607 102.298 291.67 120.529 277.488 115.76C275.684 119.826 278.244 124.491 281.859 126.665C282.737 127.788 290.24 128.928 287.149 130.55C287.149 130.55 287.03 130.55 286.911 130.55ZM283.016 111.938C281.551 110.169 278.772 112.165 277.838 114.316C282.733 116.477 285.174 114.547 283.016 111.938Z" fill="black"/>
<path d="M288.106 128.88C288.106 128.799 288.106 128.799 288.106 128.88C288.227 128.759 288.227 128.88 288.227 128.88C288.227 128.88 288.227 129.001 288.106 128.88Z" fill="black"/>
<path d="M305.52 78.1797C304.566 77.8231 303.611 77.5818 302.538 77.5818C300.629 77.5818 298.601 77.5818 297.052 78.6552C296.814 78.7741 296.576 78.893 296.454 79.1307C296.216 79.4874 296.335 80.0853 296.81 80.323C297.408 80.5608 297.765 79.9664 298.363 79.7251C300.51 79.0084 303.017 78.8895 305.164 79.7251C305.639 79.844 305.999 79.4874 306.118 79.0084C306.237 78.6517 305.999 78.2916 305.52 78.1727V78.1797Z" fill="black"/>
<path d="M299.322 84.98C298.367 85.2178 297.294 85.6968 296.577 86.5325C296.339 86.7702 296.101 87.3681 296.577 87.487C297.052 87.6059 297.531 87.2493 297.888 87.1304C298.724 86.7737 299.559 86.4136 300.395 86.2947C300.993 86.1758 301.587 86.1758 302.185 86.2947C302.542 86.4136 302.902 86.4136 303.14 86.2947C303.496 86.057 303.615 85.4591 303.259 85.1024C302.304 84.2668 300.514 84.6269 299.322 84.9835V84.98Z" fill="black"/>
<path d="M370.419 152.141C369.465 130.55 357.654 126.97 343.22 114.921C342.028 111.102 341.668 106.211 338.566 103.351C338.091 102.396 336.063 102.875 335.227 103.232C334.629 101.442 334.273 99.6514 333.675 97.8647C333.199 88.5605 348.227 82.9521 350.255 70.5466C352.045 61.1235 346.797 51.9382 337.014 50.5047C324.129 48.5956 329.14 37.8614 309.934 39.2914C299.794 39.8893 289.773 45.6131 284.168 54.204C280.112 60.4067 279.637 69.1165 286.434 73.4102C288.343 74.7214 290.727 76.3927 293.116 75.7948C292.64 78.7773 292.759 81.7598 293.353 84.6235C293.353 89.036 290.014 92.6165 289.178 96.9101C288.343 100.368 290.371 102.396 293.832 101.085C296.458 105.739 298.724 113.134 305.283 113.015C307.909 112.658 310.413 111.942 312.92 110.749C312.92 110.749 312.92 110.868 313.039 110.868C313.157 111.225 313.395 111.585 313.514 111.942C313.871 112.658 314.231 113.253 314.706 113.851C314.108 113.851 313.633 114.805 313.154 115.162C310.769 117.665 308.5 121.127 308.262 124.704C306.591 126.494 305.161 128.641 304.563 131.025C296.57 134.127 289.175 138.539 282.255 143.55C274.741 148.798 267.105 154.525 258.637 158.225C256.011 159.536 255.179 159.655 253.151 160.015C245.039 161.445 237.165 157.511 229.532 154.886C216.053 151.067 206.151 141.165 194.937 133.295C193.983 132.697 191.479 130.669 190.525 131.742C189.871 132.487 190.168 133.452 190.612 134.295C189.57 133.879 188.032 133.515 187.661 133.291C187.063 133.053 186.469 132.816 185.752 132.816C185.277 132.816 184.679 133.053 184.56 133.651C184.441 134.725 185.277 135.56 185.99 136.277C186.193 136.564 186.413 136.819 186.64 137.06C185.731 136.606 184.777 136.225 183.724 136.039C182.77 135.802 181.696 135.921 181.098 136.756C180.263 138.665 182.291 140.337 183.602 141.288C185.273 142.361 187.182 142.959 188.969 143.672C189.518 143.83 190.119 144.088 190.703 144.316C190.721 144.33 190.738 144.337 190.756 144.337C190.808 144.361 190.892 144.393 190.983 144.424C191.095 144.466 191.203 144.504 191.312 144.539C191.5 144.616 191.581 144.693 191.235 144.746C190.042 144.746 188.731 144.148 187.535 143.791C185.626 143.193 183.836 142.48 182.049 141.882C179.186 141.046 178.35 143.312 180.497 145.102C182.287 146.532 184.434 147.487 186.462 148.323C186.574 148.379 186.707 148.452 186.857 148.536C185.654 148.218 184.42 148.022 183.123 148.085C179.305 147.966 178.231 150.469 181.451 152.739C184.196 154.529 187.773 154.05 190.875 155.123C195.528 156.795 198.749 160.969 203.997 160.015C204.472 159.896 205.189 159.777 205.787 160.134C217.717 166.693 241.455 189.361 255.056 186.854C256.248 189.357 257.56 191.746 258.993 194.13L259.948 195.683C265.794 201.885 271.28 209.162 278.678 213.578C279.123 214.221 279.951 214.826 281.014 215.396C280.881 216.053 280.794 216.686 280.706 217.378C280.588 218.452 280.35 219.525 280.231 220.599C279.874 222.864 279.514 225.13 279.276 227.399C279.039 229.784 278.801 232.172 278.678 234.557C278.678 235.749 278.56 236.941 278.56 238.137V245.651C278.56 245.889 278.56 246.127 278.797 246.368C278.916 246.487 279.154 246.606 279.273 246.606C279.402 246.606 279.497 246.567 279.556 246.48C280.948 246.623 283.213 244.501 284.402 243.742C286.549 242.071 288.696 240.284 290.724 238.375C291.678 237.658 292.633 236.822 293.588 235.99C294.185 235.392 294.899 234.917 295.497 234.319C295.769 234.113 296.081 233.829 296.185 233.511C296.451 233.378 296.689 233.102 296.689 232.766C296.57 230.263 296.689 227.637 296.927 225.13C296.927 223.606 297.007 222.085 297.157 220.56C311.252 223.574 325.566 226.763 339.99 228.724C347.745 229.322 358.241 230.871 364.804 225.861C368.979 220.015 368.143 212.141 368.503 205.225C368.385 187.571 371.129 169.795 370.413 152.141H370.419ZM339.402 107.407C340.357 109.791 340.832 112.417 341.668 114.921C339.164 116.83 336.301 118.141 333.913 120.288C331.049 122.435 328.427 125.774 324.49 126.134C320.315 126.134 316.976 122.795 312.92 121.959C313.755 120.767 314.71 119.693 315.664 118.739C320.794 112.655 327.357 107.407 335.108 104.9C338.091 103.588 338.448 104.9 339.402 107.403V107.407ZM298.245 106.69C300.273 106.571 302.063 105.735 303.731 104.424C304.448 103.949 306.832 101.204 304.685 101.56C302.776 103.47 300.392 104.781 297.647 105.26C296.692 103.707 296.095 101.679 294.902 100.249C295.857 99.6514 296.574 98.578 297.766 98.8192C298.483 99.1759 299.675 98.9381 299.318 97.9836C297.29 95.9556 294.787 98.3402 293.353 99.8927C291.563 100.728 289.895 100.249 290.252 97.9836C290.609 93.4521 294.308 89.6339 294.308 85.099C293.832 81.7598 293.591 78.2983 294.546 75.078C295.021 73.2878 295.738 71.62 296.811 70.0676C299.196 72.0955 302.178 70.5431 304.804 70.0676C309.934 71.141 297.409 76.8682 308.979 77.7039C309.934 77.7039 310.65 77.2284 311.605 76.8682C314.825 75.6759 317.808 79.0151 317.091 82.2354C316.972 84.1445 316.853 86.1724 317.808 87.8437C318.643 89.2738 320.311 89.036 320.79 87.4871C321.745 84.1479 321.266 79.3752 324.846 84.9836C325.322 86.1759 325.563 90.9486 325.801 92.0221C325.682 99.8962 321.983 103.116 316.018 107.529C309.934 111.228 302.539 114.924 298.241 106.693L298.245 106.69ZM313.871 110.389C318.643 107.886 322.818 104.067 325.682 99.6514C327.353 96.4311 327.948 92.2563 326.874 88.7948C326.636 87.1235 327.112 85.3368 326.157 83.7843C325.203 81.8752 322.339 79.1305 320.549 81.7563C319.713 83.3088 319.951 85.3368 319.357 87.0046C317.566 83.5465 320.549 80.085 317.091 76.8647C314.825 74.4801 312.318 74.8368 309.455 76.0291C308.143 76.2669 306.472 76.148 305.399 75.3123C306.353 73.641 308.738 71.9731 307.427 69.9452C305.636 67.2004 302.654 69.4697 300.269 69.7074C298.958 69.3508 297.168 67.9172 296.213 69.5885C294.783 71.0186 293.948 72.9277 293.588 74.9557C288.696 75.4312 282.85 69.1095 282.731 64.3403C283.923 48.9522 301.339 40.0047 315.535 41.0781C322.93 41.4348 325.199 45.6096 329.969 49.9068C332.951 51.9347 336.65 51.9347 339.99 53.1271C348.577 55.8718 350.965 66.606 347.626 74.1235C344.524 82.2354 335.696 86.4102 332.594 94.4032C332.357 94.0465 331.878 91.1829 331.521 92.1374C331.521 96.0745 332.951 100.012 333.906 103.83C327.822 106.812 321.857 110.512 317.084 115.4C317.005 115.32 316.925 115.241 316.846 115.162C315.892 113.491 314.937 111.942 313.864 110.389H313.871ZM314.706 114.088C314.825 114.326 314.944 114.445 315.063 114.564C315.301 115.039 315.661 115.518 316.018 115.875C316.136 115.994 312.797 120.407 311.364 122.914C310.647 123.151 309.811 123.511 309.098 123.987C310.29 120.407 312.797 117.186 314.706 114.085V114.088ZM305.759 131.742C306.713 128.403 308.979 125.06 312.199 123.511C314.346 123.987 316.255 125.064 318.283 125.896C316.731 129.833 312.318 136.036 307.546 133.889C306.71 133.291 305.399 132.816 305.755 131.742H305.759ZM314.469 133.414C306.594 153.455 301.108 174.69 298.245 196.043C294.308 196.043 290.371 196.281 286.434 196.76C286.553 195.686 286.671 194.969 286.909 193.896C290.965 173.26 297.406 153.218 305.28 133.774C308.025 135.802 311.839 135.802 314.465 133.417L314.469 133.414ZM268.542 182.204C268.661 182.323 268.78 182.441 269.018 182.56C269.018 182.679 269.137 182.679 269.137 182.679C269.255 182.679 269.374 182.798 269.374 182.798C269.455 182.777 269.525 182.76 269.598 182.739C274.678 186.193 279.745 189.662 284.762 193.176C285 193.295 285.119 193.413 285.36 193.532C285.123 194.606 285.004 195.56 284.762 196.634C283.927 196.634 281.423 196.634 281.304 196.871C274.864 194.487 261.144 175.875 255.658 178.976C254.703 177.546 253.63 173.368 251.245 174.445C250.769 174.683 250.769 175.281 250.769 175.997C247.549 173.371 244.567 170.389 241.105 168.004C243.609 168.242 248.025 167.885 249.934 169.197C253.035 171.581 256.255 173.728 259.476 175.878C262.441 177.885 265.406 179.892 268.367 181.903C268.304 181.924 268.245 181.945 268.182 181.962C268.301 182.081 268.42 182.081 268.539 182.2L268.542 182.204ZM271.322 182.281C275.297 180.941 279.07 178.837 282.738 176.837C285.371 175.361 288.189 174.165 290.455 172.263C288.657 178.763 287.168 185.354 285.839 191.987C280.944 188.805 276.13 185.543 271.318 182.284L271.322 182.281ZM207.42 159.337C206.168 158.732 205.074 158.393 204.245 158.462C198.637 159.655 194.581 153.931 189.214 153.214C186.35 152.739 180.983 153.571 180.504 149.756C181.49 148.522 187.749 150.634 190.018 150.501C190.735 150.739 191.619 149.48 191.144 149.004C190.668 148.767 189.333 148.207 188.854 147.969C186.707 147.015 181.577 145.466 180.742 143.197C181.577 143.078 182.294 143.434 183.007 143.672C183.962 144.029 184.798 144.27 185.752 144.627C186.588 144.865 187.542 145.225 188.378 145.462C189.333 145.819 190.525 146.179 191.598 145.819C192.616 145.312 192.581 144.155 191.958 143.676C191.958 143.676 191.958 143.676 191.958 143.672C191.958 143.672 191.955 143.672 191.951 143.672C191.847 143.592 191.724 143.529 191.588 143.494C191.588 143.494 191.581 143.494 191.577 143.494C190.486 142.98 189.319 142.55 188.14 142.12C186.469 141.403 182.294 139.735 182.294 137.466C182.532 137.347 182.892 137.347 183.13 137.347C183.965 137.585 184.801 137.704 185.633 138.064C187.186 138.9 188.735 139.616 190.406 140.33C190.518 140.379 190.63 140.428 190.745 140.473C191.619 141.169 192.521 141.833 193.507 142.358C194.224 142.595 194.7 141.76 194.105 141.284C193.27 140.33 192.196 139.854 191.242 139.018C189.451 137.588 187.423 136.155 185.993 134.246C186.948 134.246 187.784 134.602 188.738 134.721C189.556 134.837 190.259 134.955 191.07 135.071C192.875 138.221 196.165 139.997 198.878 142.235C199.235 142.473 199.595 142.354 199.833 142.116C200.43 141.043 197.923 139.969 197.329 139.134C195.301 137.344 193.035 135.914 191.962 133.288C199.256 137.623 205.427 143.546 212.381 148.41C212.374 148.421 212.367 148.431 212.36 148.438C210.333 151.183 208.542 154.046 207.829 157.386C207.829 157.819 207.57 158.609 207.423 159.333L207.42 159.337ZM224.287 171.228C220.941 169.239 213.616 162.725 208.399 159.847C208.567 159.347 208.731 158.847 208.899 158.347C209.616 155.602 210.927 153.218 212.598 150.952C212.941 150.379 213.287 149.812 213.735 149.344C214.186 149.644 214.644 149.945 215.102 150.235C224.525 154.889 243.85 163.714 253.99 161.211C272.958 155.725 286.437 139.739 304.689 132.34V132.578C300.752 141.046 297.532 149.756 294.787 158.585C293.392 162.438 292.147 166.333 291.018 170.267C290.783 170.172 290.504 170.186 290.255 170.396C289.539 171.113 288.703 171.588 287.99 172.067C285.962 173.62 283.577 174.571 281.308 175.885C277.727 177.795 274.269 179.823 270.57 181.134C270.35 181.197 270.14 181.267 269.93 181.343C263.486 176.973 257.039 172.623 250.409 168.49C248.144 166.344 243.728 166.581 240.745 166.7C236.689 167.417 244.444 171.711 245.276 173.022C247.186 174.574 249.095 176.242 251.241 177.434C252.196 180.655 253.626 183.756 254.343 185.427C245.514 186.739 231.679 176.004 224.28 171.232L224.287 171.228ZM277.969 211.787C274.986 209.641 272.483 206.896 269.857 204.273C266.399 200.455 262.699 196.76 259.598 192.704C256.378 187.218 253.158 181.49 251.843 175.288C252.441 175.05 254.109 178.389 255.063 179.462C253.752 182.564 257.329 184.711 259.238 186.62C260.668 187.812 269.734 197.357 264.367 190.438C261.86 187.336 258.402 185.19 256.018 181.969C255.301 180.539 255.78 179.225 257.448 179.823C266.035 184.354 271.644 193.42 280.353 197.718C277.727 201.774 276.654 207.141 277.969 211.794V211.787ZM295.266 225.252C295.039 227.77 294.92 230.287 294.913 232.805C294.748 232.927 294.591 233.088 294.43 233.245C294.074 233.602 293.713 233.962 293.238 234.319C291.21 235.99 289.42 237.658 287.392 239.448C285.364 241.238 283.098 243.029 280.951 244.696C280.657 244.917 280.318 245.092 279.99 245.249C279.997 245.144 279.997 245.039 279.997 244.934V236.941C280.116 235.868 280.116 234.676 280.234 233.483C280.353 231.336 280.591 229.19 280.832 227.043C280.951 226.088 281.07 225.015 281.189 224.06C281.427 222.987 281.546 221.913 281.664 220.959C281.783 219.766 281.902 218.455 282.14 217.259C282.206 216.854 282.276 216.448 282.343 216.043C286.472 217.868 292.678 219.266 295.563 220.204C295.437 221.85 295.262 223.508 295.262 225.252H295.266ZM360.759 226.462C343.105 231.235 314.472 221.808 295.983 218.707H295.745C291.332 217.634 286.916 216.204 282.623 214.651C282.147 214.651 281.668 214.294 281.192 214.176C281.074 214.176 280.955 214.176 280.955 214.057C277.255 210.955 278.808 200.697 281.671 198.431C281.909 198.312 289.902 197.955 291.455 197.833C293.958 197.833 296.465 197.595 298.969 197.595C299.923 197.595 300.759 197.595 301.713 197.476C313.283 197.833 325.094 199.267 336.545 197.476C338.93 197.001 337.5 191.511 337.381 190.2C335.472 181.134 334.517 171.948 333.923 162.763C333.448 156.441 332.731 150.12 333.206 143.914C333.206 143.197 333.682 139.26 332.85 140.455C330.941 147.969 331.895 155.725 332.493 163.361C332.85 173.976 334.997 184.357 336.43 194.854C336.549 195.452 336.073 195.927 335.476 196.046C323.664 197.718 311.615 195.927 299.689 195.927C302.315 174.095 308.755 152.861 315.794 131.987C317.465 130.435 318.776 128.529 319.133 126.26C325.098 130.435 330.944 125.067 335.238 121.13C337.385 119.221 340.129 117.91 342.395 116.12C346.451 120.295 351.343 123.277 355.874 126.735C366.85 134.372 369.594 146.896 368.996 159.42C368.759 174.927 366.968 190.319 366.968 205.826C366.493 211.91 367.923 224.197 360.766 226.462H360.759Z" fill="black"/>
<path d="M133.268 133.651C133.387 134.126 132.912 134.605 132.433 134.487C130.761 133.889 124.321 132.221 123.723 131.983C121.22 137.469 112.391 144.868 110.838 145.822C99.8629 153.815 86.5028 156.2 73.2616 153.815C67.8945 152.861 55.1288 149.161 46.1813 137.354C40.454 129.84 36.8771 120.532 36.1603 110.99C34.8491 96.9133 39.4995 80.6895 55.4854 69.4763C61.2127 65.1826 70.6357 61.3644 74.6917 60.8889C112.387 56.3574 126.345 83.0777 129.566 99.4203C132.31 107.057 129.685 117.791 127.062 125.308C127.062 125.308 132.31 131.511 133.265 133.658L133.268 133.651Z" fill="#FFF7DB"/>
<path d="M103.683 129.595C101.656 118.382 93.6625 86.1725 93.6625 86.1725L88.7045 86.6655L89.0087 94.9102L86.9842 94.8823C86.9842 94.8823 85.5367 89.3858 85.5367 87.4767C85.5367 87.4767 85.6626 85.9347 78.5052 88.3193L79.1101 95.8333L75.8724 95.9522C75.1556 94.7599 74.2011 91.7774 73.8444 89.8683L67.8794 90.7109C68.3549 101.805 68.7325 127.088 69.6836 138.183C69.6836 138.183 73.1416 141.165 80.0612 141.641C88.8898 141.879 100.697 137.942 103.68 129.592L103.683 129.595Z" fill="white"/>
<path d="M92.8076 75.1445C91.7342 76.5745 90.1748 74.9522 89.2202 76.5011C85.9999 84.7318 77.3986 80.6549 78.5454 72.599C82.479 73.6165 83.944 69.9452 86.2097 69.8263C88.7132 69.9452 90.6818 73.2004 93.7831 73.4382C93.7831 73.4382 93.4055 75.0221 92.8111 75.141L92.8076 75.1445Z" fill="#FED980"/>
<path d="M132.91 132.697C131.239 129.952 129.211 127.568 127.9 124.704C129.211 121.722 130.403 116.592 130.047 117.903C137.561 85.6938 109.41 55.1554 76.7216 59.8092C39.3826 64.7008 21.9665 109.554 46.3021 138.306C66.9384 163.358 107.498 160.375 124.201 132.578C126.11 132.34 136.725 138.187 132.91 132.697ZM129.928 133.054C128.256 132.697 124.319 130.309 123.246 131.98C106.903 159.061 67.5363 162.162 47.2567 137.708C24.47 110.865 38.907 68.7567 73.3825 61.5994C104.4 54.6799 133.627 81.2812 129.809 112.778C128.019 129.48 122.652 119.816 132.194 133.774C131.477 133.536 130.641 133.299 129.928 133.057V133.054Z" fill="black"/>
<path d="M94.5936 85.8961C94.5306 85.6024 94.2579 85.4066 93.9607 85.4381C92.6985 85.571 89.4992 85.9171 88.4187 86.0884C88.1985 86.1234 88.0341 86.3122 88.0341 86.536C88.0201 88.0919 88.2964 94.0709 88.2964 94.2807H87.4607C87.2229 93.3262 86.1635 88.1234 85.8698 87.0605C85.7859 86.7528 85.4817 86.564 85.167 86.6199C84.0272 86.8192 81.4782 87.2702 81.0202 87.3612C81.0202 87.3612 80.7824 84.9766 80.6635 84.2598C80.4258 82.7073 80.188 81.0395 79.9467 79.4871C80.6635 80.4416 81.4992 81.3961 82.6915 81.7528C82.9293 81.8717 83.2894 81.8717 83.646 81.8717H84.2439C86.3908 81.8717 87.8243 80.2003 88.7754 78.4136C89.2509 77.578 89.6111 76.3857 90.8034 76.2668C92.1145 76.2668 93.4292 76.6234 94.0236 75.0745C94.2614 74.599 94.2614 74.0011 94.6215 73.6444C94.7404 73.5255 95.6285 73.2109 95.3383 72.4521C95.153 71.9661 94.2649 72.3332 94.146 72.4521C92.0866 73.0885 90.1285 71.3053 89.5341 70.7074C88.5796 69.8717 87.2684 69.3962 85.9537 69.7528C84.7614 69.9906 84.0062 70.4241 83.0516 71.1409C82.4537 71.6165 81.9782 72.0955 81.1425 72.2144C80.4258 72.3332 78.9223 71.9137 78.9223 71.7948C78.9223 71.6759 78.6845 70.6969 78.653 70.4591C78.6111 70.1025 78.2859 69.7458 77.9188 69.8297C77.3279 69.9661 77.4433 70.5465 77.4433 70.5465C77.4433 70.7843 77.7999 73.05 77.9188 73.7668C78.0377 74.6025 78.1565 75.4381 78.2754 76.1514C78.5132 77.8227 78.7509 79.4906 79.1111 81.1619C79.3488 82.7143 80.3034 87.3647 80.3034 87.4835C80.223 87.4835 79.216 87.6654 78.681 87.8402C78.4188 87.9241 78.2509 88.1758 78.2649 88.4486C78.3488 89.8926 78.7544 94.8786 78.7544 95.1164H76.1286C76.1286 95.0185 74.8698 90.8367 74.3978 89.2633C74.2964 88.9241 73.9607 88.7108 73.6111 88.7598L67.9153 89.5535C67.5482 89.6059 67.2754 89.9241 67.2859 90.2947C67.3489 92.5989 69.0412 136.837 69.0412 138.746C69.0412 138.983 75.1006 143.099 85.195 141.994C86.7474 141.756 88.1775 141.396 89.6076 141.039C91.0376 140.564 92.4712 140.085 93.7824 139.487C95.0936 138.889 96.4082 138.176 97.6005 137.34C97.8383 137.221 97.9572 137.102 98.1984 136.983C99.3907 136.148 100.583 135.193 101.538 134.239C102.611 133.284 104.639 130.539 104.758 130.42C104.758 130.42 94.8803 87.2003 94.5936 85.8891V85.8961ZM79.8558 78.3682C79.5761 77.9731 79.0761 73.1164 79.0761 73.1164C79.3139 73.3542 81.3978 73.7563 82.5237 72.7528C86.4607 69.7703 87.1041 70.5465 88.6565 71.9766C89.4922 72.6934 91.5446 73.5046 93.2159 73.6234C93.0971 74.099 92.4362 75.1025 92.0621 75.1654C90.6495 75.3962 89.8103 74.9941 88.7369 76.3087C87.7824 77.501 87.0691 78.8892 85.9502 79.9311C83.6845 82.043 80.2579 78.9346 79.8558 78.3682ZM102.118 131.641C101.52 132.358 100.688 133.071 99.9712 133.788C99.1355 134.504 95.0796 137.008 93.8873 137.606C92.695 138.204 91.5027 138.679 90.188 139.158C88.9957 139.515 87.6845 139.875 86.4887 140.113C85.2964 140.351 84.1041 140.469 82.9083 140.588H79.4502C78.6146 140.469 77.66 140.351 76.7055 140.232C75.9887 139.994 75.153 139.875 74.4398 139.634C73.8419 139.396 73.2475 139.158 72.7684 138.917C72.2894 138.676 71.695 138.319 71.216 137.962C71.0971 137.844 70.8594 137.725 70.7405 137.606C70.6216 135.816 70.5027 133.906 70.5027 132.12C70.3838 130.092 70.265 128.064 70.265 126.036C70.1461 124.008 70.0272 122.099 70.0272 120.071C69.9083 118.043 69.7894 116.134 69.7894 114.106C69.6705 112.078 69.5517 110.169 69.5517 108.141C69.4328 106.113 69.3139 104.085 69.195 102.057C69.0761 100.029 68.4782 91.0814 68.3594 90.8437C68.4782 90.8437 73.3698 90.008 73.6076 90.008C73.6076 90.1094 74.7824 94.4031 75.16 95.7842C75.23 96.036 75.4572 96.2073 75.7195 96.2038L79.6041 96.1618C79.8873 96.1618 80.1076 95.9171 80.0831 95.6374C79.9502 94.029 79.5516 89.2108 79.4502 88.8157C80.167 88.6968 84.223 87.98 84.223 87.98C84.4607 87.98 84.6985 87.8612 84.9397 87.8612C85.0586 88.2178 85.0586 88.5779 85.1775 89.0535C85.2754 89.6479 86.1181 93.6793 86.4013 95.0325C86.4572 95.2912 86.6845 95.473 86.9467 95.473C87.5271 95.466 88.5236 95.4451 89.1215 95.3856C89.3628 95.3611 89.5376 95.1514 89.5201 94.9101C89.3943 93.2493 89.1145 87.1304 89.1145 87.0255C89.3523 87.0255 93.5271 86.6689 93.646 86.6689C93.8838 87.7423 94.1215 88.9346 94.3628 90.1269C94.7194 91.9171 95.1984 93.5849 95.5551 95.3751C95.9117 97.1653 96.3908 98.8332 96.7474 100.623C97.104 102.414 97.5831 104.204 97.9397 105.99C98.4152 107.781 98.7754 109.571 99.132 111.358C99.4887 113.148 99.9677 114.816 100.324 116.606C100.681 118.396 101.16 120.186 101.517 121.973C101.873 123.76 103.349 129.791 103.349 129.791C103.349 129.791 102.709 131.039 102.111 131.634L102.118 131.641Z" fill="black"/>
<path d="M33.1825 121.602C32.8259 121.364 32.707 120.767 32.5846 120.41C32.228 119.099 31.8678 117.784 31.6301 116.473C30.5566 111.819 30.6755 106.809 31.8678 102.158C32.1056 101.323 33.4203 101.683 33.179 102.515C31.9867 106.452 31.7489 110.627 32.3434 114.683C32.5811 116.354 32.9413 117.903 33.179 119.574C33.179 119.812 33.8958 121.84 33.179 121.602H33.1825Z" fill="black"/>
<path d="M28.0527 112.536C27.815 112.298 27.9338 111.819 27.9338 111.582C27.815 109.791 27.9338 108.123 28.1716 106.333C28.4094 103.83 28.6471 101.323 29.245 98.8193C29.3639 98.3438 29.9618 97.7459 30.4373 98.1025C30.794 98.3403 30.6751 98.8193 30.4373 99.0571C29.7206 100.61 29.6017 102.277 29.245 103.83C28.8884 106.333 28.5282 108.84 28.5282 111.344V112.298C28.4094 112.655 28.1716 112.655 28.0527 112.536Z" fill="black"/>
<path d="M133.15 95.2389C132.793 94.7633 132.912 94.2843 132.793 93.6864C132.555 92.4941 132.317 91.3018 131.957 90.106C131.122 87.6025 129.573 85.5746 128.258 83.3053C128.139 83.0676 127.901 82.8298 127.901 82.5886C127.901 82.3473 128.02 82.113 128.377 82.113C128.615 82.113 128.852 82.3508 129.094 82.5886C130.884 84.6165 132.552 87.0011 133.625 89.5081C134.101 90.8193 134.342 92.134 134.58 93.4452C134.58 93.9207 134.817 94.5186 134.699 94.9976C134.223 95.5955 133.387 95.7144 133.146 95.2354L133.15 95.2389Z" fill="black"/>
<path d="M134.576 89.8716C134.219 88.7981 133.978 87.6058 133.384 86.5324C132.667 84.98 131.712 83.5499 130.758 82.0009C130.52 81.5254 130.041 81.0464 130.041 80.5709C130.041 80.0954 130.639 80.0954 130.877 80.3331C131.593 80.931 132.069 81.7632 132.667 82.5988C133.74 83.91 134.695 85.4625 135.17 87.0114C135.408 87.7282 135.646 88.5639 135.887 89.2771C136.006 89.6338 135.768 89.9939 135.412 90.2317C135.293 90.3506 134.814 90.2317 134.576 89.875V89.8716Z" fill="black"/>
<path d="M95.4503 128.879C94.1391 126.851 92.8244 124.704 91.3943 122.676C91.0377 122.201 91.1566 121.603 91.5132 121.246C94.9712 117.907 91.8698 111.344 86.6216 112.298C81.9678 113.134 80.8944 119.456 84.4748 121.84C84.8314 122.078 85.0727 122.557 84.9503 123.033C84.2335 126.015 83.758 129.117 83.0412 132.099C82.9223 133.889 82.9223 134.725 84.9503 134.603C88.0517 134.84 93.2999 131.739 95.209 130.19C95.5656 129.952 95.6845 129.354 95.4468 128.879H95.4503Z" fill="black"/>
</svg>
