<svg xmlns="http://www.w3.org/2000/svg" width="175" height="317" fill="none"><g clip-path="url(#a)"><path fill="#fff" d="M3.256 137.667c-6.339 14.265 8.907 151.941 8.907 151.941 3.682 7.265 19.623 6.107 20.78.937-4.597 20.571 20.096 15.511 28.177 4.311.672-16.779-.276-34.406-.022-57.732.33-30.216 5.06-64.721 5.06-64.721s-47.91-39.377-62.902-34.747z"/><path fill="#FED980" d="M5.526 127.855c-2.734 2.007-6.603 9.117-1.014 9.723 11.85.949 21.221 7.276 30.58 12.479 18.487 10.264 32.146 22.357 32.146 22.357s7.64-13.493 11.586-35.662c9.965-9.823 13.063-17.131 19.567-21.772 3.406 15.51 8.643 16.26 28.43 26.104 5.898-5.269 8.643-20.967 4.675-21.364-25.333-2.569-5.182-37.79-10.142-56.078-2.922-4.09-9.139-10.142-9.139-10.142s-3.054-12.501-12.027-15.434c-6.284 6.416-25.542 6.923-37.128 13.405-9.646 8.445-21.607 19.358-29.875 28.298-3.891 4.212-12.479 6.99-12.071 13.064 5.776-4.917 14.298 2.326 12.27 9.359-2.547 4.046-7.64 9.26-11.366 7.882-6.162 4.619-11.685 10.373-16.525 17.804h.022z"/><path fill="#2C2C2C" d="M94.864 19.382c-2.271 20.758 15.94 28.883 28.43 14.904 5.369-.529 7.882 13.593 9.988 4.62.606-2.57 1.521-5.876 3.792-7.331 8.003-5.127 15.841-9.238 3.197-26.656-8.037-6.317-18.19-5.688-25.19 1.157-7.65 2.635-19.842 2.536-20.217 13.328z"/><path fill="#fff" d="M105.701 41.9c4.277 7.188 9.921 16.349 15.918 20.88 5.292 3.99 11.057 2.976 16.304-9.779 7.86 5.656 4.134-23.712 4.134-23.712s-7.154 0-9.723 12.413c-2.05 2.8-3.053-2.932-4.475-4.674-6.074-6.603-9.172 5.005-15.07 5.512-2.326.44-5.346-1.962-7.11-.629h.022zm-87.42 59.649c-1.764.099-.75 2.569-.43 3.583.65 1.742 2.183 2.877 3.627 3.925.794.65 1.742 1.4 2.811 1.069h.066c.188-.066.32-.166.463-.265.166-.099.32-.198.485-.319.364-.309.386-.651.585-.971.286-.341.87-.066 1.256-.121 1.334-.022 1.478-1.179 1.257-2.249.562-.386 1.213-.672 1.599-1.278.44-.651.507-1.456.893-2.128 1.18-.309 1.697-1.356 1.885-2.447.386-1.356-.022-2.68-.684-3.87.143-.308 0-.628-.165-.915-.143-.804-.562-1.543-1.058-2.227-.122-.187-.265-.363-.386-.529 0 0-.022-.044-.044-.066-.243-.32-.441-.826-.937-.826-.486-.464-1.037-1.015-1.665-1.434a4 4 0 0 0-.992-.529c-.386-.121-.794-.187-1.19-.099-.486.121-.938.628-.772 1.136a1.5 1.5 0 0 0-.199.529c-.364 0-.683 0-1.014.077-.893.187-1.62.65-2.227 1.3-.849.916-1.433 2.172-1.786 3.385-.363 1.84-.562 3.649-1.433 5.302l.044-.044zm117.183 26.614c14.563-1.62 8.731-4.31 14.034-12.027-.585-4.112-7.166-3.825-10.209-3.913-.264-1.885 1.434-5.909-.914-6.504-.408 1.234-3.319 5.897-5.391 8.687-2.591 3.505-4.134 5.126-1.191 5.037 2.933-.077 1.114 7.938 3.671 8.709z"/><path fill="#fff" d="m142.575 111.94 3.924.827 4.289-14.728-4.675-1.422-3.549 15.312zm-10.892 29.96 2.568-13.868 7.111-.54-5.27 15.301z"/><path fill="#fff" d="M141.748 111.642c2.37.651 6.339-21.463 1.092-15.698-1.114 1.94-5.545 16.69-2.183 16.227z"/><path fill="#fff" d="M143.755 80.386c-2.955-8.323 3.649-27.935 15.631-32.907 24.815-3.406-7.408 56.145-15.631 32.906m-3.043-14.221c-1.863 13.184 1.598 18.917 5.655 21.165 1.885 1.059-4.641 9.194-.22 9.272.65-.408 2.249.87 2.855.32 1.819-1.676 2.591-5.69 5.038-7.596 10.891-4.277 17.131-13.471 18.454-23.051 4.376-31.958-26.149-26.027-31.782-.121z"/><path fill="#FFF7DB" d="M142.96 74.896c3.925 30.481 33.524-12.214 22.721-26.678-12.678-6.217-20.582 16.668-22.721 26.678"/><path fill="#2C2C2C" d="M36.636 304.053c.32 3.163-1.51 11.156.849 11.597 12.7 2.381 40.898 0 43.82-5.556 2.05-5.733-20.869.628-24.297-9.172-14.64 3.968-16.503 3.009-20.383 3.131zm-23.491-12.769c.308 14.199.606 13.383 9.48 13.747 14.22.595 11.818-4.123 10.032-12.975-5.446.805-11.421 4.112-19.512-.783zM142.498 71.273a34 34 0 0 1 .43-2.062c.143-.672.308-1.311.485-1.984.341-1.234.793-2.447 1.256-3.649a37 37 0 0 1 1.676-3.704c1.158-2.249 2.491-4.398 4.068-6.36A29 29 0 0 1 152.684 51c.937-.893 1.885-1.764 2.954-2.513a14.3 14.3 0 0 1 2.69-1.522c.893-.363 1.841-.628 2.8-.705.32-.022.672-.044.992 0h.606c.849.066 1.698.287 2.448.683.363.188.683.43.992.673.044.022.066.044.099.077a1 1 0 0 0 .198.1c.144.076.265.187.386.286.221.198.43.43.607.672.319.43.606.871.848 1.356.265.551.463 1.114.629 1.698.165.628.308 1.257.386 1.885.077.65.121 1.3.165 1.93q.066.842 0 1.719c0 .628-.066 1.257-.121 1.907-.099 1.135-.287 2.227-.485 3.34-.265 1.422-.673 2.877-1.136 4.31a39.4 39.4 0 0 1-2.69 6.34 35 35 0 0 1-1.94 3.295c-.727 1.092-1.543 2.128-2.392 3.142a31 31 0 0 1-1.841 1.962 26 26 0 0 1-2.568 2.183c-1.015.728-2.084 1.422-3.263 1.863-1.037.386-2.106.672-3.197.672h-1.158a6.3 6.3 0 0 1-1.786-.407 6.1 6.1 0 0 1-1.719-1.059 7 7 0 0 1-1.158-1.278 7.5 7.5 0 0 1-.849-1.544 11 11 0 0 1-.529-1.598 18 18 0 0 1-.463-2.955 21 21 0 0 1-.066-2.226c.044-1.356.187-2.69.408-4.035h-.044zm19.358-23.635a6 6 0 0 0-.893.143h-.044c-.364.077-.75.199-1.114.32a19 19 0 0 0-1.521.672c-.507.265-1.058.607-1.555.948-.628.441-1.3.97-1.929 1.544a26 26 0 0 0-2.204 2.326c-.993 1.157-1.93 2.447-2.801 3.77v.044c-.892 1.312-1.664 2.734-2.37 4.189l-.066.121a40 40 0 0 0-1.885 4.62c-.463 1.421-.937 2.92-1.212 4.42v.066a30 30 0 0 0-.486 3.891 21 21 0 0 0 .045 2.855c.044.563.121 1.18.242 1.764.121.53.265 1.059.441 1.555.143.364.32.804.551 1.212.121.22.287.485.463.772v.022c.144.198.32.408.485.606.122.122.309.309.485.463.144.122.309.243.485.342.144.077.287.165.441.243.199.077.408.187.629.264.121.044.319.077.529.144.187.044.386.066.584.066h.265a7 7 0 0 0 .948-.144 5.7 5.7 0 0 0 1.19-.364 9 9 0 0 0 1.356-.606 11 11 0 0 0 1.555-.948s.044-.022.077-.066c.562-.408 1.19-.915 1.786-1.433a28 28 0 0 0 2.271-2.392 32 32 0 0 0 2.59-3.528c.948-1.477 1.885-3.076 2.69-4.74a41 41 0 0 0 1.94-4.818c.485-1.52.948-3.141 1.257-4.795.187-.97.32-2.05.386-3.12.044-.893.066-1.885 0-2.855a21 21 0 0 0-.287-1.863c-.121-.551-.287-1.07-.441-1.576-.143-.408-.32-.794-.507-1.18a12 12 0 0 0-.606-1.036c-.1-.143-.265-.32-.408-.507a4 4 0 0 1-.32-.441s-.022-.044-.044-.066c-.099-.077-.22-.188-.342-.265-.165-.099-.319-.187-.485-.286h-.044c-.187-.078-.408-.188-.606-.243-.121-.044-.309-.077-.507-.121-.166-.022-.408-.066-.673-.077h-.308l-.078.099zm-30.14 94.427a1.03 1.03 0 0 1-.396-.815c.066-4.531 2.006-8.853 2.612-13.339.122-.651 1.863-.32 1.433.441-.683 3.02-1.422 6.03-2.149 9.028-.199 1.312-.585 2.712-.673 4.068.044.044.099.077.144.121.385-1.4.848-2.778 1.157-4.189.849-3.164 1.356-6.559 2.635-9.624.099-.198 1.014-.286 1.135-.077-.463 2.635-1.301 5.292-1.863 7.937-.562 2.205-1.058 4.476-1.841 6.648.199.077.43.165.651.165h1.069c0-.066 0-.143.044-.198.628-1.158 1.058-2.392 1.576-3.605 1.422-3.803 2.47-7.761 4.09-11.487.144-.32 1.312-.485 1.422-.077-1.4 5.324-5.622 15.378-5.787 15.555s-1.334.65-1.621.628c-1.984-.143-3.097-.761-3.638-1.169z"/><path fill="#2C2C2C" d="M141.484 111.697c.529-2.183 2.613-12.48 3.439-15.268-.198.044-1.554.143-1.741.165h-.077c-.75 3.407-2.547 10.208-2.591 10.308 0 0-.077.143-.187.198-.188.099-.563-.022-.607 0 0 0-.65-.121-.551-.43v-.099s.044-.077.066-.121c.937-3.418 1.841-6.846 2.855-10.253.078-.308.32-.485.607-.606v-.044c.308-.364.683-.628.992-1.058a9.77 9.77 0 0 0 2.205-6.659 2 2 0 0 1-.045-.385 8.6 8.6 0 0 1-2.028-1.257c-.43-.342-.805-.728-1.179-1.136-.386-.44-.75-.915-1.07-1.422-.672-1.091-1.179-2.304-1.543-3.55a20 20 0 0 1-.628-2.92 33 33 0 0 1-.243-2.779c-.044-1.19 0-2.447.143-3.682a32.4 32.4 0 0 1 1.478-6.923 53 53 0 0 1 1.433-3.704c.485-1.113 1.058-2.205 1.664-3.285a34 34 0 0 1 4.674-6.316c.386-.408.772-.805 1.191-1.191.441-.43.937-.827 1.422-1.235.551-.44 1.091-.87 1.676-1.256.529-.364 1.091-.684 1.664-1.015 1.036-.562 2.128-1.058 3.285-1.355a9 9 0 0 1 1.092-.221 8 8 0 0 1 1.036-.143h1.4c.121 0 .242.022.364.044.022 0 .044 0 .077.022a.26.26 0 0 1 .22-.044c.651.077 1.279.198 1.907.364a14 14 0 0 1 1.908.683c.915.43 1.785.937 2.568 1.554a14.4 14.4 0 0 1 2.536 2.635s.066.077.099.143a16 16 0 0 1 1.863 3.44 18.4 18.4 0 0 1 1.113 3.913c.221 1.312.342 2.635.342 3.969a28.5 28.5 0 0 1-.298 4.156 30 30 0 0 1-.848 3.968 29 29 0 0 1-1.356 3.848c-1.059 2.447-2.393 4.795-4.013 6.923a33 33 0 0 1-2.635 3.075 33 33 0 0 1-2.998 2.68 25 25 0 0 1-3.285 2.149c-.188.099-.386.165-.563.264-.066.044-.121.078-.165.144-1.455.97-3.043 1.642-4.432 2.712-1.863 1.675-2.998 4.166-3.263 6.658.265.1.508.198.706.286.606.243.187.893.077 1.136-1.422 4.784-2.05 9.866-3.847 14.485-.287.188-.43-.22-.342-.441-2.128 2.878 3.043-14.496 3.054-14.64-1.301-.385-2.547-.87-3.826-1.311-.319 1.907-2.491 11.994-3.163 15.125-.022.363-1.841.242-1.676-.243l.022-.066zm4.939-15.852s1.312.44 2.612.948v-.078c.243-3.042 1.941-5.974 4.476-7.672 1.014-.562 2.084-1.014 3.164-1.433.485-.287.97-.551 1.433-.849a28 28 0 0 0 1.863-1.257 33 33 0 0 0 1.543-1.212 22 22 0 0 0 1.4-1.28 36 36 0 0 0 2.856-3.163 36 36 0 0 0 2.392-3.528c.044-.077.099-.187.165-.264a39 39 0 0 0 1.885-3.77v-.066c.044-.078.077-.199.121-.31a44 44 0 0 0 .728-1.906c.22-.673.43-1.334.628-2.029a27 27 0 0 0 .706-3.417v-.32c.143-1.014.198-2.083.22-3.164 0-.992-.066-1.984-.165-2.954a23 23 0 0 0-.463-2.59 19 19 0 0 0-.706-2.25 13.6 13.6 0 0 0-.87-1.818 17 17 0 0 0-.993-1.544c-.319-.43-.705-.893-1.135-1.333a14 14 0 0 0-1.378-1.235c-.408-.32-.893-.65-1.378-.948-.43-.265-.937-.53-1.455-.75h-.044a13.5 13.5 0 0 0-1.665-.562 8 8 0 0 0-1.113-.243c-.077 0-.144-.066-.188-.099a1 1 0 0 0-.242.044c-.243.044-.485.078-.728.121a8.5 8.5 0 0 0-1.477.364c-.672.199-1.356.463-2.05.772-.563.265-1.18.562-1.742.915-.022 0-.066.044-.099.066-.794.485-1.577 1.07-2.326 1.665-.893.727-1.698 1.521-2.492 2.348 0 0 0 .044-.044.044a29 29 0 0 0-2.535 3.12 40 40 0 0 0-2.635 4.31 45 45 0 0 0-.992 2.05 49 49 0 0 0-.915 2.227v.044a46 46 0 0 0-1.422 4.785v.099a.4.4 0 0 1-.044.165v.044c-.243 1.213-.463 2.448-.563 3.682v.066c-.099 1.136-.143 2.293-.099 3.462 0 .485.044.948.099 1.455.045.43.1.827.166 1.257.121.705.286 1.422.485 2.127.187.585.386 1.19.65 1.786.221.485.507 1.014.805 1.522.243.407.551.826.871 1.256 0 .022.044.044.066.066.243.309.507.585.794.85.286.264.628.55.992.793.309.22.65.43 1.014.606 0 0 .066.077.077.1l.066.066c.1.12.188.264.287.385.066.122.121.265.187.386 0 0 0 .022.022.044 0 0 .023.067.045.078.43 1.311.066 2.81-.53 4.034a12 12 0 0 1-.727 1.577c-.066.099-.121.198-.188.308v.044c-.044.066-.077.122-.121.188-.066.077-.121.187-.187.286 0 0-.121.166-.188.243-.044.066-.099.121-.165.198v.022s-.099.122-.165.188c-.044.066-.1.121-.144.187 0 0-.066.044-.077.077-.044.067-.099.1-.165.166a.5.5 0 0 1-.077.066c.849.1 1.664.32 1.907.44l-.044-.021zm-8.114-61.051c.772-.121 1.742-.198 2.293.43.243.309.066.727-.309.827-1.179.341-2.304.628-3.483 1.036h-.077c-.607 0-1.059-.673-.684-1.18.562-.606 1.422-.992 2.271-1.113z"/><path fill="#000" d="M58.342 297.234v.024h-.023z"/><path fill="#2C2C2C" d="M121.332 42.476c.077.242.187.44.309.672l.077.166s.044.077.077.121c.143.22.309.507.243.794-.022.121-.078.198-.188.286l-.099.078a.5.5 0 0 1-.309.077c-.286 0-.529-.199-.727-.563l.022.023c-.937-1.456-1.092-3.264-.408-4.697.727-1.477 2.568-2.568 3.803-2.293.529.122 1.4.563 1.433 2.326-.066.993-.551 1.886-1.301 2.393-.319.264-.606.198-.771.044-.188-.188-.243-.53 0-.827l.187-.287a3.3 3.3 0 0 0 .463-.849c.143-.32.165-.727.022-1.058a.77.77 0 0 0-.408-.44c-.672.065-1.301.484-1.808 1.19-.628.893-.871 2.006-.65 2.855z"/><path fill="#2C2C2C" d="m1.106 143.234-.166-.022c.243-1.191.563-3.925 1.213-6.097-.342-.22-.672-.507-.893-.87-.485-.364-.705-1.213-.683-1.808 0-3.142 2.392-5.534 4.233-7.838 4.96-5.655 10.594-10.715 15.841-16.106.198-.198.408-.43.628-.628-.22-.166-.44-.32-.65-.508-1.356-1.256-2.976-2.491-3.506-4.354-.187-.408-.022-.727.188-.871a.5.5 0 0 0-.044-.198c-.199-.893.386-2.293 1.157-2.492 0-.628 0-1.278.044-1.907-.32-.121-.44-.507-.408-.826-.066-.97.045-1.908.43-2.8.937-1.93 1.092-4.068 2.128-5.976.948-1.697 2.635-2.81 4.068-4.067 2.028-1.698 4.012-3.418 5.909-5.226 2.083-1.984 4.067-4.067 6.162-6.03 1.3-1.135 2.712-2.083 4.134-3.053a89 89 0 0 0 6.195-5.49c.287-.287.584-.562.849-.849 1.257-1.477 2.392-3.076 3.77-4.476C61.12 49.344 74.006 45.596 87.974 42.84c1.554-.199 3.163-.43 4.762-.551a.6.6 0 0 1 .22-.144c1.72-.893 3.418-1.72 5.005-2.855.022 0 .066-.044.1-.066.22-.43.804-.937 1.013-1.18a.33.33 0 0 0 .1-.143c-1.158-1.036-2.183-2.304-2.734-3.87-.044-.12-.077-.286-.121-.43-.122-.43-.287-.892-.265-1.311-.243-.849-.441-1.764-.65-2.8-.144-.871-.32-1.742-.486-2.59-.308-1.456-.606-2.977-.75-4.498-.506-4.432 1.743-8.996 5.899-11.906 2.546-1.841 5.633-2.712 8.631-3.56l.684-.2c.672-.165 1.378-.286 2.061-.407 1.301-.22 2.657-.463 3.848-1.014 1.521-.871 2.634-1.764 3.604-2.547 2.326-1.885 4.013-3.263 9.073-2.612 5.909.75 10.263 2.49 13.262 5.324 5.148 5.082 9.679 13.35 5.589 19.887l-.1.143s-.077.1-.099.144c-.044.044-.066.099-.099.143-.044.066-.077.1-.121.165-.044.044-.077.1-.122.144-.066.077-.121.165-.187.264-.066.077-.099.165-.165.243l-.122-.1.1.122s-.066.077-.1.121l-.044.022c-.121.143-.22.287-.341.408l-.067.077s-.121.143-.187.198c-.066.078-.121.166-.187.221v.044l-.077.066c-.067.066-.1.121-.166.188l.099-.044-.606.606-.287.286-.308.287.121.121-.187.144s-.044 0-.044.044c1.234 4.619.308 9.315.077 14.055-.166 3.175.286 6.36.165 9.536.099 1.356-.242 2.348-1.764 2.304-.286 0-.562.022-.849.022h-.606c-.672 0-1.312-.077-1.929-.287-1.599 5.49-5.126 11.156-11.52 10.98-.242 0-.463.022-.705.022h-.607c-.198 0-.43-.044-.628-.044-.441 0-.893 0-1.334-.044 0 .077.044.165.044.264v.078s0 .077.044.099c.309 2.27 0 4.784-.165 6.845-.243 4.156-.97 8.158-1.929 12.237-.585 2.833-1.015 5.909-1.478 8.83-.463 2.37-.793 4.74-.485 7.154.441 4.498 1.114 8.996 2.304 13.35.166.342.32.706.463 1.07 1.665.363 3.175 1.234 4.796 1.675.43.099 1.334-.198 1.631-.341 1.477-.728 2.437-1.764 3.462-2.999 1.157-1.62 2.513-3.373 3.307-5.214.32-1.312 1.168-4.09 3.373-3.693 2.018.353 2.018 3.086 1.709 4.52-.077.22-.243 1.113-.463 1.841 1.642-.078 3.296.286 4.916.529 1.213.143 2.415.441 3.407 1.212.827.629 1.863 1.455 2.172 2.492.22.948.077 2.171-.871 2.656a2 2 0 0 1-.915.221c-.1 0-.199-.022-.287-.044h-.077c.077 3.483-.386 8.102-4.454 8.775-1.664.562-3.417.705-5.148 1.091-1.312.188-2.657.044-3.968.165h-.508a17.8 17.8 0 0 1-1.741 5.347c-1.257 2.392-2.547 4.917-4.553 6.78-.121.066-.485.374-1.499.341-1.621 0-3.12-.87-4.542-1.576-1.698-.937-3.44-1.808-5.181-2.657-4.189-2.348-9.018-3.946-12.799-7.011-1.576-1.455-2.425-3.528-3.318-5.446-1.356-2.678-2.304-5.512-3.076-8.4-2.59 3.076-5.06 6.284-7.76 9.271-3.021 3.605-6.681 6.648-9.624 10.33-2.47 4.376-3.363 9.48-4.498 14.342-1.213 5.489-2.348 11.056-4.332 16.326a41 41 0 0 1-2.05 4.398c-.365.772-.993 1.478-1.765 1.863 0 0-.121.022-.165.022-.022.1-.066.199-.077.287 0 0-.1.121-.166.187h.022c-.187 5.788-1.09 11.542-1.52 17.319-1.07 13.306-2.294 26.435-3.021 39.796-.066 1.543-.1 3.076-.166 4.619 0 .551 0 1.113-.066 1.698-.044.826 0 1.664 0 2.491h.044a518 518 0 0 0-.143 21.088c0 8.39-.265 16.812.242 25.19.144 2.183.287 4.376.563 6.537.044.992.44 2.028.099 2.976a2.7 2.7 0 0 1-.32.607c-.143.165-3.142 3.483-4.255 4.52 1.477 3.483 2.414 4.982 6.284 5.655a15.7 15.7 0 0 0 3.02.341c.871 0 1.742-.044 2.635-.077a62 62 0 0 1 2.855-.077c.948 0 1.885 0 2.833.143.551.122 5.291.629 5.59 2.657 1.432 4.476-3.97 5.711-6.924 6.339-6.24 1.841-12.865 2.414-19.325 2.734h-3.296c-3.56 0-7.154-.044-10.693-.364-1.675-.187-3.44-.187-5.038-.893-3.582-2.348-2.326-6.989-1.84-10.914-.993.199-2.15.166-3.021.287-2.414.165-4.818.364-7.232.529-.794.044-1.554.066-2.348.066h-.606c-2.15 0-4.288-.198-6.361-.826-1.984-.508-2.756-1.93-2.877-4.068v-.044c-.364-1.577-.309-4.035-.551-4.796-.144-1.819-.552-5.545-.552-5.567-.143-.165-.727-.948-.771-1.256 0-.122-.22-3.914-.32-5.545-.463-6.945-.97-13.912-1.521-20.857s-1.07-13.89-1.62-20.824c-.563-7.012-1.114-14.012-1.698-21.023a7118 7118 0 0 0-1.643-19.832c-.53-6.074-1.036-12.148-1.543-18.222s-1.014-12.148-1.5-18.222c-.143-1.863-.308-3.727-.44-5.59v-.198a7 7 0 0 0-.045-.683c-.165-1.764-.264-3.528-.198-5.303-.077-3.439 0-6.868.75-10.285zm17.362-41.439a2 2 0 0 0-.165.364c-.044.165-.077.32-.121.485 0 .077-.188.937-.188 1.036v.243c0 .121.044.242.078.364.12-.078.242-.199.363-.287 0 0 .85-.606.948-.628-.187-.243-.87-1.378-.893-1.434a.4.4 0 0 0-.044-.132zm30.26-35.783c-2.832 3.076-5.952 5.898-9.26 8.466-2.777 2.833-5.688 5.777-8.686 8.444-1.455 1.356-2.921 2.712-4.498 3.947-2.105 1.554-4.233 3.219-4.938 5.81.727-.607 1.554-1.092 2.414-1.522.165-1.433 1.113-2.006 2.293-1.885.705-.077 1.543.121 2.348.584.386.122 3.605 2.657 2.37 2.547-.077 0-.75-.066-.772-.143-.672-.629-2.546-2.029-3.847-2.25-.485.122-.794.563-.672 1.577 1.036.871 2.425 1.235 3.417 2.183.408.408 1.786.937 1.334 1.62a.48.48 0 0 1-.32.144h-.606s-.188-.022-.243-.078c-.529-.385-1.091-.705-1.675-1.058-1.191-.672-3.175-1.135-3.65-2.546-.165.12-.308.242-.462.364-1.599 1.058-2.492 2.711-3.285 4.431-.199.672-.386 1.356-.43 2.061-.044.188-.166.31-.32.408 0 .122-.022.243-.044.364.386-.264.87-.408 1.334-.342a2.4 2.4 0 0 1-.309-.948c.066-.87.794-1.642 1.643-1.885-.022-.044-.067-.066-.078-.099-.44-1.257.508-2.491 1.764-2.69.166-.022.32 0 .463.044.044 0 .077-.022.144-.044.606-.121 1.355.441.628.948-.408.287-1.136.65-1.091 1.18.683 1.18 1.786 2.083 2.877 2.9.364.43 2.491 1.763 1.84 2.27 0 0-.143.077-.22.077h-.606s-.198-.044-.287-.099c-.584-.529-1.19-1.058-1.863-1.521-1.036-.65-2.127-1.28-2.954-2.172-.97.849-.772 1.742.309 2.635 1.234.893 2.227 2.061 3.163 3.285.243.43 1.334.948.772 1.521 0 0-.165.099-.264.099-.122 0-.915-.077-1.015-.198-.87-.871-1.52-1.863-2.414-2.69-.529-.606-1.235-1.113-1.819-1.698-.044 0-.077 0-.121-.022a1.72 1.72 0 0 0-1.157.97c-.287.463.264.871.463 1.257.077.099.165.265.242.386.364.551.893 1.113 1.356 1.598.43.485.794.948.937 1.07.242.43 1.3.827.827 1.356-.463.529-.893.308-.937.308-.066 0-.1 0-.166-.044-.077-.077-.143-.165-.22-.242a2.4 2.4 0 0 1-.287-.287c-.143-.187-.308-.342-.463-.507-.066-.066-.099-.121-.165-.187-.143-.144-.265-.32-.408-.463l-.309-.364c-.242-.121-.529-.364-.793-.651-.43.144-.827.342-1.158.673a.37.37 0 0 1-.43.099c.1.221.22.463.386.684a25.3 25.3 0 0 0 3.043 2.8c.65.507 1.311 1.036 2.028 1.455.43-.188.87-.265 1.3-.562.409-.342.508-.915.993-1.213.53-.43 1.257-.221 1.786-.606.364-.386.099-1.037.44-1.433.43-.508 1.07-.75 1.478-1.279.683-.706.342-1.819 1.091-2.392.75-.309 1.257-.794 1.544-1.422v-.1c.22-.672.308-1.311.22-2.028-.286-1.477-.827-2.855-1.521-4.211-.143-.342-1.036-1.213-.243-1.301.122.066.386-.044.607 0 .992.187 1.455 1.433 1.907 2.37.32-.75.794-1.455 1.157-2.205 1.94-3.483 3.561-7.154 5.545-10.594 2.084-3.604 4.333-7.165 6.174-10.935.463-.673 1.664-3.649 2.954-6.537-.199.22-.43.408-.65.606l.044-.1zm49.41-25.278h.021c-.771.441-1.554.827-2.392 1.18 1.235.077 2.448.308 3.627.771 4.399 2.304 8.003 5.81 11.641 9.172-.848-1.675-1.62-3.417-2.513-5.082-1.433-2.105-3.164-4.035-4.718-6.052a13 13 0 0 1-1.72-.915 35 35 0 0 1-1.521-.948c-.1.121-.199.22-.287.309a.49.49 0 0 1-.342.242c-.507.551-1.135.992-1.808 1.334zm43.83-13.063.243-.243c.099-.12.22-.22.319-.32l.199-.165c.165-.12.308-.264.441-.385.165-.166.319-.342.529-.563l.044-.044s.099-.099.143-.165c.066-.066.122-.121.188-.199.077-.077.143-.187.198-.264.066-.077.121-.166.188-.243.077-.099.165-.22.264-.341l.066-.1c2.999-5.589.166-11.464-2.756-15.41-3.417-5.347-10.428-8.39-17.88-7.762-2.029.188-3.583 1.577-5.104 2.922l-.342.308c-2.15 2.084-4.983 2.613-7.717 3.12-1.234.22-2.491.463-3.704.849-7.981 2.05-11.178 7.232-11.487 11.035-.198 1.84.199 3.792.585 5.27.165.605.286 1.256.43 1.862l.044.243c.044.363.121.705.187 1.069v.1s.044.076.044.12v.122s.044.121.066.187c.066.32.122.65.166.97.099.629.198 1.279.385 1.885.023.078.067.166.078.243.022.077.066.143.077.22v.077c.121.265.198.53.309.794.165.408.385.805.672 1.19l.1.166s.076.1.098.143c.078.1.144.22.22.32.078.1.144.22.221.32l.122.165c.12.166.242.309.363.463.53.584.993 1.036 1.456 1.422a16 16 0 0 0 1.94 1.4l.198.1c.243.143.463.264.706.385.22.1.441.188.683.287l.287.1c.264.098.551.187.849.264h.066c.198.066.408.121.606.187.077.022.187.044.265.077.121.044.242.066.341.1h.067s.099.044.143.066l.309.077s.143.022.22.044h.066c.309.077.606.165.915.242h.077v.023c.077 0 .166.044.265.044 2.59.97 5.468.22 7.287-1.907.143-.199.308-.408.441-.629 1.157-1.598 2.348-3.285 4.332-3.968 2.05-.794 4.167-.552 5.997.65 2.105 1.4 3.461 3.913 3.55 6.537v.121s.022.022.066.022l.044.199v-.22s.187-.1.264-.188l.044-.044c.078-.077.188-.166.265-.243s.165-.187.265-.308l.187-.22c.099-.144.22-.288.32-.43l.044-.067s.121-.165.165-.264c.044-.078.066-.144.099-.199.078-.165.166-.32.243-.485.165-.364.287-.772.386-1.257v-.066c.022-.099.044-.22.077-.32l.066-.242c.022-.143.066-.287.099-.43.022-.121.066-.242.077-.364l.122-.562v-.044c.066-.265.143-.53.22-.794.044-.121.077-.264.121-.386.1-.363.188-.672.309-.948.022-.077.066-.143.077-.22l.077-.187c.067-.122.144-.265.221-.386l.077-.122s.121-.187.187-.286c.144-.22.287-.463.463-.706l.067-.077.264-.265.265-.264c.077-.1.187-.199.286-.287l.441-.363.077-.045s.144-.066.199-.099l.441-.187q.297-.116.628-.265c.166-.066.32-.121.485-.187.221-.077.441-.188.673-.265.341-.165.683-.32 1.014-.507.264-.143.529-.308.827-.529.044-.022.077-.066.099-.077.044-.121.066-.243.143-.342a.43.43 0 0 1 .309-.066l.165-.022zm-19.457 35.475c.342.22.706.43 1.091.55 0 0 .364.078.607.166.43.077.849.143 1.279.166 1.543 0 3.053-.287 4.453-.97 1.841-.916 3.098-2.514 4.134-4.256-.121 0-.22.022-.386.022-2.998 0-4.597-3.505-5.027-4.619 0-.121-.066-.242-.099-.386-.165-.562-.408-1.433.408-1.72a.74.74 0 0 1 .827.508c.165 1.279.915 2.425 2.172 3.263.705.75 1.741 1.135 3.053 1.157.463-1.157 1.18-3.24 1.885-4.045-.705-.53-1.334-1.18-1.543-1.555-.187-.364-.099-.771.099-1.069h.022l.364-.066h.364c.077 0 .165.022.22.066.099.044.199.077.309.121.066.044.143.077.198.121.077.045.144.1.221.166.121.1.242.22.342.342q.297.363.562.727c.066.077.143.188.198.265l.022.022c.077.077.166.143.243.22.121.122.286.22.441.287.099.044.22.1.319.143.287.077.585.144.893.188.077 0 .166.022.221.022.143.022.308.066.463.077.143-3.44.099-6.901.242-10.351-1.212-.265-2.678-.463-4.167-.287-.408.022-.771-.22-.849-.629-.044-.242 0-.562.408-.826.937-.607 3.263-.43 4.719.099.099-1.698.242-3.417.529-5.126.022-2.007.044-3.99-.188-5.975-.628.32-1.256.606-1.885.87-.628.265-1.256.552-1.863.85-1.642.804-1.94 2.778-2.205 4.541-.066.364-.121.706-.187 1.059-.507 2.8-1.786 5.027-3.55 6.096h-.066v.022c-.264.143-.584.22-.915.22a1.91 1.91 0 0 1-1.554-.793c-.529-.706-.529-1.555-.507-2.392v-.684c-.099-1.036-.463-2.028-.992-2.734a4.8 4.8 0 0 0-.871-.771c.165.308.286.628.341.992.045.363.122 1.554-.363 2.061-.166.166-.364.243-.563.22a.46.46 0 0 1-.429-.286c-.067-.165-.045-.32.066-.441.077-1.036-.199-1.885-.827-2.392-.65-.53-1.599-.65-2.613-.32-1.841.805-3.042 2.778-3.263 5.39-.198 1.522.066 2.834.772 3.925.077.122.242.243.408.364.319.22.805.562.485 1.19l-.044.045c-.221.198-.441.32-.706.32-1.113 0-2.061-2.106-2.227-2.69a10.2 10.2 0 0 1-.463-3.793 5.7 5.7 0 0 1-1.014.827c-2.932 2.172-5.633 1.301-8.488.386-.463-.143-.937-.309-1.422-.43 2.634 2.69 4.663 5.953 6.074 9.48.099.684 1.157 2.084.871 2.812 2.028 1.785 3.946 3.682 5.611 5.81.165.242.309.484.441.727.286.143.562.286.827.44.242.144.463.343.683.53.099.1.199.22.309.32l.121.12c.143.188.309.343.463.552.187.243.364.485.529.75h-.077zm11.807 64.445.044-.044c.264-.044.529-.099.771-.144 3.054-.363 6.141-.749 9.073-1.763h.099c.144 0 .309-.022.43-.1a.9.9 0 0 0 .485-.606c1.378-1.521 1.477-4.498 1.477-6.361 0-.319-.099-.672-.077-.992.044-.441 1.235-.937 1.643-.165.441-.165.771-.441.683-1.136-.044-1.422-1.543-2.425-2.8-2.8a34 34 0 0 0-5.875-.826c-.486.044-1.092.121-1.643.099-.871.066-1.72-.044-1.786-.871.099-.794.794-.805 1.477-.75.122 0 .243-.022.386 0 .143-1.113.408-2.226.364-3.384-.044-.65 0-1.543-.364-1.576-.198-.022-.364.308-.584.628-.441.606-.408 1.4-.673 2.106-.672 1.929-2.006 3.483-3.263 5.082-1.113 1.455-2.248 3.174-3.847 4.089.772.287 1.621.518 2.172 1.092 2.061 2.16 2.127 5.49 1.808 8.4zm-68.745 42.596.066.066c.199.243.408.463.585.684l.044.22s.044.044.044.066a.54.54 0 0 0 .187.199s.044 0 .044.022a1 1 0 0 0 .121.143c.022 0 .045-.044.067-.066.044-.044.077-.099.12-.143.067-.078.144-.144.2-.221a1.3 1.3 0 0 0 .198-.287c.077-.121.165-.22.22-.363.044-.067.066-.122.1-.188.043-.066.077-.143.12-.198.1-.166.2-.32.31-.485.099-.188.165-.364.242-.551.044-.078.077-.188.121-.265 0 0 0-.044.022-.066 0-.022.022-.066.044-.077 2.007-3.826 3.175-8.125 4.211-12.314 1.94-7.276 2.68-15.114 6.659-21.629 1.984-2.568 4.376-4.839 6.482-7.308 1.664-1.886 3.285-3.804 4.96-5.689l.342-.341c.463-.463.915-.938 1.378-1.378l.122-.122c.143-.143.286-.264.407-.408.563-.584 1.07-1.19 1.62-1.808.365-.385.728-.771 1.114-1.157.199-.198 1.841-1.786 1.863-1.786-.55-2.227-1.036-4.476-1.521-6.702-.794-4.09-1.676-8.246-2.205-12.38-.264-3.506-.75-6.967-1.135-10.473 0-.55-.188-1.091-.1-1.62.122-.463.651-.629 1.037-.441.32-.121.705-.066.893.264.44 3.241.705 6.604.948 9.889.551 6.261 1.808 12.413 3.12 18.575.936 4.013 1.94 8.036 3.726 11.784.915 1.941.892 3.925 4.596 6.526 2.635 1.819 5.689 2.922 8.566 4.377a528 528 0 0 1 6.195 3.164c1.621.849 4.432 2.524 5.104 1.929.342-.309.563-.728.849-1.091 3.076-4.476 6.074-10.131 4.476-15.72-.386-.75-.562-1.764-1.279-2.271-1.4-.805-3.142-1.257-4.74-1.643-1.113-.309-2.062-.992-3.054-1.543.651 2.657.364 5.512-1.278 7.838a.58.58 0 0 1-.508.319.7.7 0 0 1-.319-.077c-.077.066-.188.077-.287.077-.43 0-.849-.407-.628-.893.827-1.598 1.697-3.263 1.422-5.104-.077-1.3-.364-2.568-1.058-3.67-.485-1.279-.706-2.657-1.037-3.991-.915-4.696-2.083-9.459-1.94-14.254.243-2.061.706-4.112 1.114-6.162.749-3.847 1.422-7.761 2.304-11.586.672-3.362 1.4-6.923.992-10.407 0-2.083-.044-3.704-.728-5.247 0-.044-.044-.1-.066-.143a2.7 2.7 0 0 0-.287-.563c-.066-.099-.121-.198-.187-.286-.022-.022-.044-.066-.077-.077-.022-.044-.066-.078-.099-.122-.022-.044-.067-.066-.078-.099-.121-.121-.22-.242-.341-.364-.122-.12-.243-.242-.386-.341-.099-.078-.188-.144-.287-.22h.022c-.077-.067-.143-.122-.198-.188-.077-.077-.199-.144-.287-.199a1.4 1.4 0 0 0-.286-.22c-.122-.077-.287-.1-.43-.143h.044a4 4 0 0 1-.364-.078c-3.991.078-7.838 1.808-10.792 4.498-4.035 2.998-7.574 6.658-9.988 11.123-.077.143-.22.199-.364.199-.077 0-.143 0-.198-.067-.044-.022-.022-.099-.044-.143a.4.4 0 0 1-.342.198c-.077 0-.143 0-.198-.066-.794-.606 2.171-4.475 2.711-5.269 2.9-3.77 6.659-6.846 10.594-9.458 1.356-.607 2.955-1.301 4.575-1.698h.066c.1 0 .221-.044.32-.066a1 1 0 0 0 .243-.044c.143-.022.308-.044.441-.067.198-.044.407-.077.628-.077h.948l-.077-.077c.22 0 .43.022.65.044 0 0-.044-.022-.044-.044.265 0 .551.044.805.066h.044c.165.022.342.066.507.078-1.819-1.698-3.704-3.34-5.589-4.983v.099a165 165 0 0 1-2.062-1.93c-3.825-3.262-7.408-7.043-11.95-9.336-1.3-.342-2.634-.53-3.946-.563-3.847-.044-7.76.893-11.487 1.764-9.171 1.94-18.365 5.226-25.354 11.708-1.334 1.333-2.68 2.656-3.947 4.045q-.398.43-.794.893c-.099.243-.187.485-.308.706-1.015 2.227-1.94 4.541-2.955 6.78-2.204 5.39-5.225 10.406-8.025 15.51-2.293 3.913-4.068 8.202-6.537 11.928-.441.65-.794.066-.871.066h-.022c.584 1.422.893 3.097.077 4.453-.044.166-.077.32-.1.43-.319.728-.87 1.477-1.598 1.885-.099 1.478-.992 2.878-2.425 3.363-.066 1.929-1.091 1.929-2.613 2.204-.363.386-.529.971-1.036 1.279-.485.364-1.091.507-1.62.794-.122.022-.243.044-.386.044-.1 0-.187-.044-.265-.066a.8.8 0 0 1-.32.066c-.385 0-.749-.165-1.069-.364-.066-.044-.121-.077-.187-.143-.187-.121-.364-.243-.551-.364-.243.32-.463.673-.728.992-3.649 4.068-7.573 7.86-11.2 11.928-2.392 2.613-4.917 5.148-6.56 8.323-.407.849-1.807 2.811-.462 3.947a5.1 5.1 0 0 0 1.598.804c.1.066.32.122.32.099.143.045 9.602 2.029 10.065 2.183.463.166 1.543.562 2.028.772.507.22 1.036.408 1.543.628-.022 0-.044 0-.066-.022.607.265 1.19.562 1.808.827 0 0 .1.044.165.077 0 0 .045 0 .067.022h-.044s.066.022.077.044h-.044c.066.022.099.044.165.077 0 0 .044 0 .066.022h.044s.077.045.122.067l.793.363s.044 0 .044.022h-.022c.166.078.309.144.485.221h.044s.122.066.166.077c.308.143.584.309.893.441-.022 0-.044-.022-.067-.044.166.077.32.165.486.242 0 0 .099.045.143.078h.044c.683.363 1.356.705 2.028 1.113.706.408 1.422.849 2.128 1.257 0 0 .044 0 .044.022h.022s.066.044.077.066c.342.198.706.408 1.059.606.341.188.683.364 1.014.562a1 1 0 0 1 .121.078h.044s.022 0 .044.022c.584.363 1.158.727 1.742 1.091.584.386 1.213.75 1.819 1.113.584.342 1.18.684 1.764 1.059.308.187.584.386.87.562l.916.551c.793.463 1.554.937 2.348 1.378.771.43 1.52.915 2.293 1.356 1.157.673 2.326 1.279 3.483 1.94.562.342 1.136.673 1.698 1.014.584.342 1.18.673 1.764 1.015.308.187.584.363.892.551-.021 0-.044-.022-.077-.044.078.044.144.099.22.143h.045c.187.121.364.221.53.342.021 0 .043.022.076.044h-.022s.077.066.143.077c0 0 .023 0 .045.022h.022c.066.044.099.077.165.121h.044c.485.32.992.673 1.477 1.015.441.308.893.628 1.334.937.386.264.794.529 1.18.793.408.287.827.563 1.234.849.43.287.871.606 1.301.915.441.342.915.673 1.356 1.036-.022 0-.044-.022-.066-.044.066.044.121.077.165.144-.022 0-.044-.045-.066-.067.066.067.144.1.199.166-.022 0-.044-.022-.066-.044.628.485 1.212.992 1.818 1.499-.022 0-.044-.044-.066-.066.265.22.552.441.805.672.408.342.805.684 1.18 1.059.044.044.066.077.099.099.099.099.198.198.286.319l.144.144c.143.165.308.319.44.507v.044h.023c.242.309.485.606.75.893.12.143.264.286.385.441l.022.022zM40.538 314.875v.022c3.44.584 6.923.584 10.429.683a62 62 0 0 0 2.855.066c6.78.022 13.592-.562 20.195-2.447 1.82-.584 7.453-.992 5.91-4.354-1.302-.441-2.636-.673-3.97-.893a21 21 0 0 0-2.05-.078c-.794 0-1.576.045-2.348.078-1.3.066-2.59.121-3.913.077-.31.022-.607.044-.937.044h-.607c-3.583 0-7.518-1.091-9.05-4.939-.188-.463-.463-.937-.706-1.433-4.542 2.348-9.844 2.591-14.76 3.164v-.044c-1.114.044-2.294.242-3.44.264a11 11 0 0 0-.121 1.478c0 1.598-.552 3.119-.65 4.696-.188 2.634.97 3.362 3.163 3.627zm-26.082-15.798c.12.915.672 3.506.727 3.649.22.485 1.885 1.5 2.205 1.577.463.121.937.22 1.4.286.43.066 2.8.287 3.428.309 0 0 2.613-.022 2.922-.066.562-.066 2.37-.265 2.712-.309 0 0 1.642-.22 1.863-.264.187-.044 1.3-.265 1.642-.364.287-.077.562-.143.849-.243.1-.044.187-.077.265-.143.066-.044.12-.044.187-.099.022 0 .044-.044.044-.077.066-.044.1-.078.1-.166v-.386c0-.077 0-.165-.067-.242v-.287a4 4 0 0 0-.044-.529 112 112 0 0 1-.485-4.255 66 66 0 0 1-.386-4.641c-.044 0-.066.044-.099.044-8.554 3.417-14.199 1.543-17.032.022-.308-.143-.628-.309-.948-.463 0 .386.441 4.84.728 6.647zM2.02 156.98c0 1.257.077 2.514.165 3.771l.143-.122c.045.673.067 1.356.122 2.029.066.727.121 1.455.187 2.182.121 1.356.243 2.712.386 4.068q.212 2.001.44 3.969c.188 1.4.343 2.778.508 4.167.143 1.312.32 2.612.463 3.924.309 2.734 4.84 55.417 5.071 58.03.1 1.256 3.748 50.125 3.781 50.268.044.166.077.32.188.441 8.532 6.581 18.024.551 18.046.562v-.407c.044-.342.044-.673.044-1.015v-1.4a35 35 0 0 0-.078-1.036c-.099-1.301-3.417-58.228-3.67-63.354-.067-1.014-1.985-51.977-2.029-52.991l1.984.628c.265 4.399 2.37 58.768 2.657 63.178.32 5.203.629 10.406 1.014 15.609.386 5.104 3.34 48.836 3.484 50.026.077.585.165 1.158.242 1.72.045.287.078.551.144.827 0 .066.044.121.044.187 0 .044.044.077.077.122 0 0 .022.044.044.044 0 0 .044.022.066.044 0 .044.044.099.077.143.078.121.188.198.309.309-.044-.022-.066-.066-.1-.077a1 1 0 0 0 .144.121c.188.121.364.165.562.198.122.022.265.044.386.044h.507c.243 0 .485 0 .728.022.364 0 .727.022 1.091.044.144 0 .309.023.441.045.22 0 .441.022.684.022.705.044 1.422.077 2.127.099.265 0 .53 0 .805-.022a121 121 0 0 0 2.172-.221 17 17 0 0 0 1.797-.308c.705-.166 1.41-.32 2.127-.496a29 29 0 0 0 2.47-.805c.165-.066.308-.121.44-.188h-.022c.563-.22 1.136-.441 1.676-.749.265-.166.551-.32.805-.507.22-.166.43-.32.65-.485-.044.022-.066.066-.1.077a61 61 0 0 1 1.18-.915c.199-.166.408-.309.607-.485.187-.166.342-.32.507-.507l.551-.551.044-.045c.21-.231 2.139-2.27 2.514-2.8a.45.45 0 0 0 .099-.286c.055-.86-.617-28.409-.64-29.809v-6.173c0-.915 0-1.808-.044-2.712v.188c-.044-1.841-.044-3.682-.099-5.512-.066-1.555-.121-3.12-.187-4.697-.044-1.091-.044-2.182-.066-3.285-.044-1.113-.078-2.226-.044-3.318 0-.408.044-.827.066-1.234.099-1.841.264-3.682.386-5.512v-.122c.077-1.135.143-2.271.187-3.417.044-1.18.143-2.348.187-3.528.044-1.157.066-2.293.1-3.439 0-.551.044-1.091.066-1.643 0-.606.044-1.19.066-1.807v-.045l.364-4.255c1.256-12.027 2.171-24.076 3.704-36.07.308-1.521.463-3.053.606-4.575 0 0-.044-.022-.044-.044-1.643-2.105-3.77-3.803-5.733-5.611-3.527-2.734-7.044-5.512-10.77-7.959-4.046-2.547-8.202-4.939-12.335-7.375-3.418-1.984-6.77-4.068-10.142-6.096v-.044c0-.066-.067-.077-.1-.122-.066-.066-.143-.077-.198-.121-.044-.022-.1-.044-.143-.066 0 0-.144-.077-.22-.099 0 0-.1-.044-.144-.066-.1-.044-.199-.099-.287-.144-.044 0-.077-.044-.143-.066-.066-.044-.121-.077-.187-.121-.078-.066-.166-.099-.265-.165-.143-.1-.309-.188-.441-.265-.309-.198-.584-.386-.893-.551-.077-.044-.165-.077-.242-.121-.045-.022-.078-.067-.122-.078-.066-.044-.143-.066-.198-.099a2 2 0 0 0-.32-.165c-.077-.033-.132-.088-.22-.121q-.031-.033-.11-.033a66 66 0 0 0-5.226-2.349 6 6 0 0 0-.584-.264c-.309-.121-.607-.221-.893-.32a9 9 0 0 1-.827-.319 33 33 0 0 1-.915-.309c-.143-.044-.264-.077-.408-.121h-.044c-.187-.078-.364-.166-.551-.221-.187-.066-.386-.099-.562-.143-.342-.121-.684-.243-1.037-.32a12 12 0 0 0-.87-.198q-.398-.116-.794-.199c-.309-.077-.606-.099-.915-.165a6 6 0 0 0-.628-.099 5 5 0 0 0-.563-.044c-.165 0-.32-.022-.463-.044H6.87c-.198-.023-.408-.045-.606-.067h-.022c-.187 0-.364-.066-.551-.077-.22-.066-.441-.099-.607-.143-.12 0-.264-.044-.407-.066-.067 0-.122-.044-.188-.066-.077.044-.165.066-.198.121-.22.264-.32.584-.43.893a24 24 0 0 0-.673 2.205 20 20 0 0 0-.44 2.392v.022a20 20 0 0 0-.144 1.62c-.044.684-.044 1.356-.11 2.007-.088.815-.177 1.631-.155 2.447.011.65-.033 1.301-.033 1.951-.044.463-.077.937-.12 1.4 0 .077 0 .165-.023.243-.066.584-.1 1.179-.121 1.786-.022.529-.022 1.069-.044 1.598v.165z"/><path fill="#000" d="M51.376 158.967s-.023 0-.045-.022c0 0 .022 0 .044.022"/></g><defs><clipPath id="a"><path fill="#fff" d="M174.667 0h-174v317h174z"/></clipPath></defs></svg>
