<svg width="17" height="16" viewBox="0 0 17 16" fill="none" xmlns="http://www.w3.org/2000/svg">
    <path d="M9.24672 11.3482L6.44739 9.8215C6.08192 10.2122 5.60738 10.484 5.08544 10.6014C4.5635 10.7189 4.01829 10.6767 3.52067 10.4802C3.02305 10.2837 2.59603 9.94214 2.2951 9.4998C1.99417 9.05746 1.83325 8.53483 1.83325 7.99984C1.83325 7.46484 1.99417 6.94221 2.2951 6.49987C2.59603 6.05754 3.02305 5.71594 3.52067 5.51948C4.01829 5.32302 4.5635 5.28078 5.08544 5.39825C5.60738 5.51572 6.08192 5.78746 6.44739 6.17817L9.24739 4.6515C9.08843 4.02222 9.16443 3.35656 9.46114 2.77931C9.75786 2.20205 10.2549 1.75283 10.8592 1.51584C11.4634 1.27885 12.1333 1.27037 12.7434 1.49199C13.3534 1.71361 13.8617 2.15012 14.1729 2.71968C14.4842 3.28924 14.577 3.95276 14.434 4.58587C14.291 5.21897 13.922 5.7782 13.3962 6.15871C12.8704 6.53923 12.2239 6.71491 11.5778 6.65283C10.9317 6.59076 10.3305 6.29518 9.88672 5.8215L7.08672 7.34817C7.19419 7.77574 7.19419 8.22327 7.08672 8.65084L9.88606 10.1775C10.3298 9.70383 10.931 9.40825 11.5771 9.34618C12.2232 9.2841 12.8697 9.45978 13.3955 9.8403C13.9214 10.2208 14.2903 10.78 14.4333 11.4131C14.5763 12.0462 14.4835 12.7098 14.1723 13.2793C13.861 13.8489 13.3528 14.2854 12.7427 14.507C12.1327 14.7286 11.4627 14.7202 10.8585 14.4832C10.2543 14.2462 9.7572 13.797 9.46048 13.2197C9.16376 12.6424 9.08776 11.9768 9.24672 11.3475V11.3482ZM4.50006 9.33284C4.85368 9.33284 5.19282 9.19236 5.44287 8.94231C5.69291 8.69226 5.83339 8.35313 5.83339 7.9995C5.83339 7.64588 5.69291 7.30674 5.44287 7.0567C5.19282 6.80665 4.85368 6.66617 4.50006 6.66617C4.14643 6.66617 3.8073 6.80665 3.55725 7.0567C3.3072 7.30674 3.16672 7.64588 3.16672 7.9995C3.16672 8.35313 3.3072 8.69226 3.55725 8.94231C3.8073 9.19236 4.14643 9.33284 4.50006 9.33284ZM11.8334 5.33284C12.187 5.33284 12.5261 5.19236 12.7762 4.94231C13.0262 4.69227 13.1667 4.35313 13.1667 3.9995C13.1667 3.64588 13.0262 3.30674 12.7762 3.0567C12.5261 2.80665 12.187 2.66617 11.8334 2.66617C11.4798 2.66617 11.1406 2.80665 10.8906 3.0567C10.6405 3.30674 10.5001 3.64588 10.5001 3.9995C10.5001 4.35313 10.6405 4.69227 10.8906 4.94231C11.1406 5.19236 11.4798 5.33284 11.8334 5.33284ZM11.8334 13.3328C12.187 13.3328 12.5261 13.1924 12.7762 12.9423C13.0262 12.6923 13.1667 12.3531 13.1667 11.9995C13.1667 11.6459 13.0262 11.3067 12.7762 11.0567C12.5261 10.8066 12.187 10.6662 11.8334 10.6662C11.4798 10.6662 11.1406 10.8066 10.8906 11.0567C10.6405 11.3067 10.5001 11.6459 10.5001 11.9995C10.5001 12.3531 10.6405 12.6923 10.8906 12.9423C11.1406 13.1924 11.4798 13.3328 11.8334 13.3328Z" fill="#0D0C21"/>
</svg>
