<svg width="16" height="16" viewBox="0 0 16 16" fill="none" xmlns="http://www.w3.org/2000/svg">
<path d="M8 15.8187L3.75734 11.576C2.91823 10.7369 2.34679 9.66778 2.11529 8.5039C1.88378 7.34001 2.0026 6.13362 2.45673 5.03726C2.91086 3.94091 3.6799 3.00384 4.66659 2.34456C5.65328 1.68527 6.81332 1.33338 8 1.33338C9.18669 1.33338 10.3467 1.68527 11.3334 2.34456C12.3201 3.00384 13.0891 3.94091 13.5433 5.03726C13.9974 6.13362 14.1162 7.34001 13.8847 8.5039C13.6532 9.66778 13.0818 10.7369 12.2427 11.576L8 15.8187ZM11.3 10.6333C11.9526 9.98067 12.397 9.14914 12.577 8.24391C12.7571 7.33868 12.6646 6.40039 12.3114 5.5477C11.9582 4.69501 11.36 3.9662 10.5926 3.45344C9.82519 2.94068 8.92296 2.667 8 2.667C7.07704 2.667 6.17481 2.94068 5.40739 3.45344C4.63997 3.9662 4.04183 4.69501 3.68861 5.5477C3.33539 6.40039 3.24294 7.33868 3.42297 8.24391C3.603 9.14914 4.04741 9.98067 4.7 10.6333L8 13.9333L11.3 10.6333ZM8 8.66666C7.64638 8.66666 7.30724 8.52619 7.05719 8.27614C6.80715 8.02609 6.66667 7.68695 6.66667 7.33333C6.66667 6.97971 6.80715 6.64057 7.05719 6.39052C7.30724 6.14047 7.64638 6 8 6C8.35362 6 8.69276 6.14047 8.94281 6.39052C9.19286 6.64057 9.33334 6.97971 9.33334 7.33333C9.33334 7.68695 9.19286 8.02609 8.94281 8.27614C8.69276 8.52619 8.35362 8.66666 8 8.66666Z" fill="#0D0C21"/>
</svg>
