<svg xmlns="http://www.w3.org/2000/svg" width="16" height="16" fill="none"><path fill="#0D0C21" fill-rule="evenodd" d="M8 1.333a6.667 6.667 0 1 1 0 13.333A6.667 6.667 0 0 1 8 1.333m1.313 7.334H6.687A10.6 10.6 0 0 0 8 13.168a10.6 10.6 0 0 0 1.313-4.501m-3.962 0H2.708a5.34 5.34 0 0 0 3.765 4.444 11.9 11.9 0 0 1-1.122-4.444m7.94 0H10.65a11.9 11.9 0 0 1-1.122 4.444 5.34 5.34 0 0 0 3.765-4.444M8 2.832a10.6 10.6 0 0 0-1.313 4.501h2.626A10.6 10.6 0 0 0 8 2.832m-1.527.057a5.34 5.34 0 0 0-3.765 4.444H5.35c.083-1.54.465-3.05 1.122-4.444m3.054 0a11.9 11.9 0 0 1 1.122 4.444h2.643A5.34 5.34 0 0 0 9.527 2.89" clip-rule="evenodd"/></svg>
