<svg xmlns="http://www.w3.org/2000/svg" width="16" height="16" fill="none"><path fill="#000091" fill-rule="evenodd" d="M8 14.666A6.666 6.666 0 1 1 8 1.333a6.666 6.666 0 0 1 0 13.333M4.675 12.17A5.3 5.3 0 0 0 8 13.333a5.3 5.3 0 0 0 3.445-1.261 4.65 4.65 0 0 0-3.338-1.406 4.65 4.65 0 0 0-3.432 1.504m-.931-.957a5.98 5.98 0 0 1 4.363-1.88 5.98 5.98 0 0 1 4.241 1.756 5.333 5.333 0 1 0-8.604.125zM8 8.666a2.667 2.667 0 1 1 0-5.333 2.667 2.667 0 0 1 0 5.333m0-1.333a1.333 1.333 0 1 0 0-2.667 1.333 1.333 0 0 0 0 2.667" clip-rule="evenodd"/></svg>
