<svg width="12" height="12" viewBox="0 0 12 12" fill="none" xmlns="http://www.w3.org/2000/svg">
    <path d="M7.06041 5.23911C6.86516 5.04381 6.54856 5.04381 6.35331 5.23911L5.99976 5.59266C5.60921 5.98316 4.97605 5.98316 4.58553 5.59266C4.195 5.20211 4.195 4.56895 4.58553 4.17843L7.40086 1.36235C8.45281 1.12438 9.60016 1.41489 10.4192 2.23389C11.6289 3.44357 11.6856 5.36961 10.5894 6.64646L9.53526 7.71396L7.06041 5.23911ZM1.58032 2.23389C2.66702 1.14719 4.33181 0.990927 5.58476 1.76509L3.87842 3.47132C3.09737 4.25237 3.09737 5.51871 3.87842 6.29976C4.6358 7.05711 5.84951 7.08006 6.63451 6.36861L6.70686 6.29976L8.82816 8.42106L6.70686 10.5424C6.31631 10.9329 5.68316 10.9329 5.29266 10.5424L1.58032 6.83006C0.311117 5.56086 0.311117 3.50309 1.58032 2.23389Z" fill="#161616"/>
</svg>
