<svg width="16" height="16" viewBox="0 0 16 16" fill="none" xmlns="http://www.w3.org/2000/svg">
    <path fill-rule="evenodd" clip-rule="evenodd" d="M8.00004 14.6663C4.31804 14.6663 1.33337 11.6817 1.33337 7.99967C1.33337 4.31767 4.31804 1.33301 8.00004 1.33301C11.682 1.33301 14.6667 4.31767 14.6667 7.99967C14.6667 11.6817 11.682 14.6663 8.00004 14.6663ZM4.67537 12.1703C5.61907 12.9248 6.79183 13.3349 8.00004 13.333C9.31337 13.333 10.5154 12.8583 11.4447 12.0717C10.5675 11.1716 9.36351 10.6647 8.10671 10.6663C6.80274 10.6648 5.55795 11.2104 4.67537 12.1703ZM3.74404 11.213C4.87652 10.0112 6.45536 9.3308 8.10671 9.33301C9.69777 9.33094 11.2241 9.96287 12.348 11.089C13.9322 8.85945 13.573 5.79294 11.5165 3.98981C9.46005 2.18667 6.3729 2.2314 4.36953 4.09336C2.36617 5.95532 2.09599 9.03095 3.74404 11.2137V11.213ZM8.00004 8.66634C6.52728 8.66634 5.33337 7.47243 5.33337 5.99967C5.33337 4.52692 6.52728 3.33301 8.00004 3.33301C9.4728 3.33301 10.6667 4.52692 10.6667 5.99967C10.6667 7.47243 9.4728 8.66634 8.00004 8.66634ZM8.00004 7.33301C8.73642 7.33301 9.33337 6.73605 9.33337 5.99967C9.33337 5.26329 8.73642 4.66634 8.00004 4.66634C7.26366 4.66634 6.66671 5.26329 6.66671 5.99967C6.66671 6.73605 7.26366 7.33301 8.00004 7.33301Z" fill="#000091"/>
</svg>
