<svg xmlns="http://www.w3.org/2000/svg" width="16" height="16" fill="none"><path fill="#0D0C21" d="M6.244 7.121a7.04 7.04 0 0 0 2.635 2.635l.589-.825a.667.667 0 0 1 .863-.198 7.6 7.6 0 0 0 3.055.91.667.667 0 0 1 .614.664v2.975a.667.667 0 0 1-.599.663q-.53.055-1.068.055C6.627 14 2 9.373 2 3.667q0-.538.055-1.068A.667.667 0 0 1 2.718 2h2.975a.667.667 0 0 1 .664.614 7.6 7.6 0 0 0 .91 3.055.667.667 0 0 1-.198.863zm-1.681-.438 1.266-.904a9 9 0 0 1-.731-2.446H3.34q-.006.166-.006.334a9 9 0 0 0 9.333 8.993v-1.758a9 9 0 0 1-2.446-.731l-.904 1.266a8 8 0 0 1-1.059-.5l-.039-.022a8.37 8.37 0 0 1-3.134-3.134l-.022-.039a8 8 0 0 1-.5-1.059"/></svg>
