<svg width="16" height="16" viewBox="0 0 16 16" fill="none" xmlns="http://www.w3.org/2000/svg">
<path d="M5.33333 2.66665H14V3.99998H5.33333V2.66665ZM3 4.33331C2.73478 4.33331 2.48043 4.22796 2.29289 4.04042C2.10536 3.85288 2 3.59853 2 3.33331C2 3.0681 2.10536 2.81374 2.29289 2.62621C2.48043 2.43867 2.73478 2.33331 3 2.33331C3.26522 2.33331 3.51957 2.43867 3.70711 2.62621C3.89464 2.81374 4 3.0681 4 3.33331C4 3.59853 3.89464 3.85288 3.70711 4.04042C3.51957 4.22796 3.26522 4.33331 3 4.33331ZM3 8.99998C2.73478 8.99998 2.48043 8.89462 2.29289 8.70709C2.10536 8.51955 2 8.2652 2 7.99998C2 7.73476 2.10536 7.48041 2.29289 7.29287C2.48043 7.10534 2.73478 6.99998 3 6.99998C3.26522 6.99998 3.51957 7.10534 3.70711 7.29287C3.89464 7.48041 4 7.73476 4 7.99998C4 8.2652 3.89464 8.51955 3.70711 8.70709C3.51957 8.89462 3.26522 8.99998 3 8.99998ZM3 13.6C2.73478 13.6 2.48043 13.4946 2.29289 13.3071C2.10536 13.1196 2 12.8652 2 12.6C2 12.3348 2.10536 12.0804 2.29289 11.8929C2.48043 11.7053 2.73478 11.6 3 11.6C3.26522 11.6 3.51957 11.7053 3.70711 11.8929C3.89464 12.0804 4 12.3348 4 12.6C4 12.8652 3.89464 13.1196 3.70711 13.3071C3.51957 13.4946 3.26522 13.6 3 13.6ZM5.33333 7.33331H14V8.66665H5.33333V7.33331ZM5.33333 12H14V13.3333H5.33333V12Z" fill="#161616"/>
</svg>
