<svg width="16" height="16" viewBox="0 0 16 16" fill="none" xmlns="http://www.w3.org/2000/svg">
<path d="M12.8609 4.00004H13.3334C13.7016 4.00004 14.0001 4.29852 14.0001 4.66671V9.33335C14.0001 9.70155 13.7016 10 13.3334 10H12.0001L9.22119 6.10959C8.88959 5.64539 8.29945 5.44356 7.75305 5.60747L6.09621 6.10453C5.62639 6.24548 5.11712 6.11709 4.77027 5.77024L4.5751 5.57506C4.27762 5.27759 4.32666 4.78232 4.6767 4.54896L8.27739 2.14849C8.71672 1.85563 9.28739 1.84956 9.73285 2.13301L12.503 3.89581C12.6099 3.96389 12.7341 4.00004 12.8609 4.00004ZM3.35131 9.52988L2.27413 10.4724C1.95986 10.7473 1.97289 11.2403 2.30126 11.4983L5.72843 14.1911C6.04848 14.4425 6.5172 14.351 6.71912 13.9976L7.18839 13.1764C7.47505 12.6747 7.40599 12.0455 7.01732 11.618L5.2159 9.63641C4.72719 9.09881 3.89807 9.05148 3.35131 9.52988ZM4.69697 3.33341H1.99992C1.63173 3.33341 1.33325 3.63189 1.33325 4.00008V9.01061C1.33325 9.28288 1.41642 9.54495 1.56671 9.76435C1.58265 9.74928 1.59896 9.73441 1.61563 9.71981L2.69281 8.77728C3.64963 7.94008 5.10061 8.02295 5.95584 8.96375L7.75732 10.9453C8.43745 11.6935 8.55832 12.7946 8.05665 13.6725L7.62045 14.4359C7.99572 14.5781 8.42325 14.5461 8.77925 14.3325L11.7187 12.5688C12.0523 12.3686 12.1443 11.9265 11.9183 11.6098L8.40719 6.69081C8.32425 6.57478 8.17672 6.52432 8.04012 6.5653L6.38329 7.06235C5.56109 7.30901 4.66987 7.08435 4.06289 6.47735L3.86771 6.28217C3.12402 5.53847 3.24662 4.30031 4.12173 3.71691L4.69697 3.33341Z" fill="#0D0C21"/>
</svg>
