<svg width="16" height="16" viewBox="0 0 16 16" fill="none" xmlns="http://www.w3.org/2000/svg">
<path fill-rule="evenodd" clip-rule="evenodd" d="M8.00008 8.66666C5.79008 8.66666 4.00008 6.87666 4.00008 4.66666C4.00008 2.45666 5.79008 0.666664 8.00008 0.666664C10.2101 0.666664 12.0001 2.45666 12.0001 4.66666C12.0001 6.87666 10.2101 8.66666 8.00008 8.66666ZM10.6667 4.66666C10.6667 6.14 9.47341 7.33333 8.00008 7.33333C6.52675 7.33333 5.33341 6.14 5.33341 4.66666C5.33341 3.19333 6.52675 2 8.00008 2C9.47341 2 10.6667 3.19333 10.6667 4.66666Z" fill="#0D0C21"/>
<path d="M2.66675 14.6667C2.66675 11.7211 5.05456 9.33333 8.00008 9.33333C10.9456 9.33333 13.3334 11.7211 13.3334 14.6667H12.0001C12.0001 12.4575 10.2092 10.6667 8.00008 10.6667C5.79094 10.6667 4.00008 12.4575 4.00008 14.6667H2.66675Z" fill="#0D0C21"/>
</svg>
