<svg xmlns="http://www.w3.org/2000/svg" width="560" height="420" fill="none"><g clip-path="url(#a)"><path fill="#FFF7DB" d="M556.959 212.066c13.467 42.091-20.21 71.687-53.121 78.473-39.005 8.051-80.475-1.011-119.011 12.149-41.419 12.919-73.515 45.048-119.921 49.235-66.617 6.015-105.493-14.641-162.986-35.706C57.152 304.505-5.943 309.497.453 243.071c5.658-58.734 88.883-61.624 133.495-91.187 44.618-29.585 89.398-73.733 149.188-75.058 58.136-1.286 95.05 45.976 140.708 72.665 43.79 22.429 107.935 11.517 133.115 62.575"/><path fill="#FED980" d="M350.58 133.939c.542 23.871-.531 90.253-.531 90.253-68.154.838-221.412.262-221.412.262 1.392-31.116.185-67.857.313-101.249 0-1.99 3.131-5.099 5.11-5.099 4.003 0 165.333-.782 210.918-.676 6.189.011 5.462 10.974 5.591 16.509z"/><path fill="#FFF7DB" d="M212.635 259.059c-.196-.022-.118.079-.034.196.011-.056.022-.128.034-.196m37.372-2.247c8.867-.14-15.424-.358-29.255-.347-.783 0-.827 1.186-.034 1.23 9.091.47 20.283-1.587 29.228-.883zm100.254-32.101a.61.61 0 0 1 .532.532c1.241 9.213.162 28.746-2.287 29.299-22.502 5.099-65.213 2.264-83.064 2.578-.369 0-.643.346-.598.715.565 3.589 2.091 19.271 5.949 22.821 1.129 1.034 4.947 1.023 8.419.967 1.129-.023 2.303 3.024.782 3.002-18.51-.324-42.437 0-61.987 0-5.473 0-28.517 1.783-19.477-3.058a1 1 0 0 1 .151-.056c3.84-.978 10.571 1.806 11.309-3.981q0-.051.034-.128c2.773-7.514 2.644-16.956 2.091-19.83a.626.626 0 0 0-.632-.508c-8.089.391-63.911.933-75.483.564-.173 0-7.05-4.841-7.05-5.026-.357-30.608-1.369-27.93-.296-28.125.023 0 211.841-.872 221.607.251l.012-.011z"/><path fill="#000" d="M165.233 117.318a1 1 0 0 1-.252-.045c-.011 0-.033 0-.044-.011.598 0 1.196.011 1.794.022-.391 0-.771 0-1.152.023-.078 0-.162.011-.229.011zm-3.097-.106c.553 0 1.118.022 1.666.033h-.241c-.162 0-.335 0-.492.023-.14 0-.274.022-.413.022-.185 0-.358-.022-.52-.078m75.924 128.615c-.447-.056-.883-.207-1.302-.38-.861-.358-1.577-.967-2.119-1.717a4.4 4.4 0 0 1-.654-1.218 5.3 5.3 0 0 1-.297-1.543 4.5 4.5 0 0 1 .252-1.644c.196-.587.481-1.14.883-1.621.761-.883 1.784-1.532 2.935-1.761a5.5 5.5 0 0 1 3.315.38c.956.436 1.728 1.208 2.22 2.141.285.554.481 1.152.576 1.772.089.61.044 1.253-.09 1.851a4.8 4.8 0 0 1-.676 1.588 4.6 4.6 0 0 1-1.034 1.09 3.8 3.8 0 0 1-.884.492c-.117.044-.229.089-.346.128a5.4 5.4 0 0 1-2.119.459 4 4 0 0 1-.632-.045l-.022.022zm1.197-1.09c.139-.011.273-.034.413-.056a6 6 0 0 0 .52-.151c.056-.022.129-.045.185-.067a4 4 0 0 0 .598-.442c.14-.128.263-.251.391-.391a7 7 0 0 0 .403-.52c.089-.151.184-.296.274-.447.067-.151.139-.297.195-.448.045-.151.09-.313.129-.458.033-.162.045-.335.067-.492v-.447a5 5 0 0 0-.067-.531l-.106-.38a3 3 0 0 0-.174-.414c-.067-.14-.151-.263-.229-.391-.078-.118-.173-.23-.263-.347-.089-.106-.195-.207-.296-.313a4 4 0 0 0-.436-.347c-.151-.106-.313-.184-.47-.274-.151-.067-.296-.139-.458-.195-.14-.045-.263-.079-.391-.118-.151-.022-.285-.044-.436-.056h-.392c-.139.012-.274.034-.413.056a4 4 0 0 0-.448.129 5 5 0 0 0-.425.184c-.139.067-.262.151-.391.229-.117.079-.229.174-.335.263s-.207.196-.313.297a2.3 2.3 0 0 0-.274.357 3 3 0 0 0-.274.459 5 5 0 0 0-.207.481 3 3 0 0 0-.09.335c-.044.24-.078.492-.089.738v.425q.017.244.067.481c.034.184.09.369.151.553.045.129.106.252.162.38.056.118.129.229.196.347q.117.176.251.335c.107.118.23.229.347.347.129.117.274.218.414.324.128.078.251.162.391.229.117.056.229.107.358.151.151.045.285.079.436.118.196.033.38.067.576.078.173 0 .335.011.508 0l-.033-.011z"/><path fill="#fff" d="M240.934 140.105c-2.958-25.778 5.635-1.381 15.312-9.258-2.264 4.288-2.588 7.279-3.98 8.319-3.556 2.655-7.464-3.209-11.332.944zm19.477 62.356c4.07 11.237-41.94 9.42-40.984-.274.492-4.969 5.11-45.07 6.569-55.927l5.602.151c.285 1.459-.414 5.21-.241 6.731 0 0 4.786.542 5.071-.347.738-2.241.945-6.809.945-6.809 3.471-.989 6.155.045 6.155.045l.324 6.569c.922 1.241 3.785.956 5.853-.045l.263-6.625 5.546-.576c1.056 5.233 4.981 44.618 4.903 57.102v.011z"/><path fill="#000" d="M259.064 129.6a.286.286 0 0 0-.369-.151 5 5 0 0 0-.52.241.6.6 0 0 0-.285-.034c-4.428.761-5.071 4.624-9.789.945-1.84-1.207-3.545-3.108-5.915-3.024-.587.011-1.196.229-1.599.676-.346-.117-.771.14-.76.554-.106 2.84.078 5.68.251 8.525.118 2.069.196 4.143.252 6.211.056.688-.045 1.437.196 2.091.553.458.458-.945.508-1.252.034-.705.045-1.404.056-2.119.045-3.142-.139-6.278-.184-9.431 0-1.012 0-2.024.022-3.036-.033-.358.118-.794.023-1.14.704-.336 1.492-.274 2.219-.012 1.219.403 2.163 1.314 3.164 2.091 1.252.967 2.521 2.013 4.036 2.51 1.817.599 3.472-.38 5.026-1.263a9.5 9.5 0 0 0-1.425 3.153c-.436 2.035-.425 2.706-2.382 3.774-3.175 1.632-4.623-1.521-7.43-1.046-.922.151-1.9.542-2.471 1.325-.117.173-.229.358-.251.565-.034.195.218.335.369.207.492-.565 1.163-.873 1.884-1.012.576-.106 1.185-.162 1.738.067.873.296 1.599.894 2.449 1.23.621.24 1.275.346 1.946.38 1.565.011 2.979-.967 3.969-2.108.727-.911.76-2.141.978-3.231a8.9 8.9 0 0 1 1.208-2.935 6 6 0 0 1 1.056-1.196c.358-.14.727-.263 1.118-.381.325-.089.436-.38.403-.631a6 6 0 0 1 .38-.185.29.29 0 0 0 .151-.369zm-3.338 17.001c-.324-.078-.402-.447-.576-.688-.447-.542.52-.978.643-.173.078-.033.162.056.078.118 0 .184.09.357.118.531 0 .139-.14.251-.274.218h.011z"/><path fill="#000" d="M261.216 201.589c-.458-18.141-2.382-36.232-4.512-54.261-.335-2.046-.704-3.069-3.002-2.566-6.915.358-3.6 2.739-4.74 7.776a.34.34 0 0 0-.218.09c-1.325.056-3.276.727-4.35-.252-.229-2.068.241-3.969-.033-6.037-.129-1.37-1.141-1.359-1.728-1.286-8.961-.358-5.143 1.347-6.938 7.648-1.218.033-2.426-.107-3.633-.185.106-2.068.413-4.383.022-6.463-.458-1.079-2.337-.413-3.276-.447-.816.263-3.438-.402-3.522.705-2.404 17.162-4.853 34.336-6.295 51.628-4.623 16.195 28.495 12.858 37.428 10.778 2.471-.576 2.326-.933 3.522-1.666 1.923-1.185 1.068-3.667 1.253-5.462l.011.012zm-1.599 4.255c-6.938 4.567-34.599 5.132-39.536-2.253a.95.95 0 0 1-.151-.587c1.185-18.656 3.992-37.188 6.004-55.754a.564.564 0 0 1 .61-.509c1.325.089 2.622.022 3.947-.045a.57.57 0 0 1 .598.531c.117 1.968-.761 4.165-.045 6.005.056.162.207.274.369.324 1.359.38 3.718.643 4.948.14a.5.5 0 0 0 .206-.151c.85-1.068 1.264-4.948 1.024-6.636a.565.565 0 0 1 .447-.632c1.61-.335 3.393-.207 5.026-.184q.134 0 .251.067c.034.022.078.033.118.044-.09 5.96-1.644 8.766 5.842 7.397a.62.62 0 0 0 .357-.207c1.359-1.84.14-4.707.632-6.821.274-.978 2.818-.643 4.154-.654.274 0 .531.196.576.47 3.589 19.315 4.45 39.351 4.864 58.985 0 .196-.079.38-.241.481z"/><path fill="#FDC82E" d="M519.966 175.672s.045-.09.09-.09.089.045.089.09c0 .044-.044.089-.089.089s-.09-.045-.09-.089m.632.883s.034-.078.079-.078c.044 0 .078.033.078.078a.076.076 0 0 1-.078.078.076.076 0 0 1-.079-.078m-.302-.883s.045-.09.09-.09c.044 0 .089.045.089.09 0 .044-.045.089-.089.089-.045 0-.09-.045-.09-.089m.621.883s.033-.078.078-.078.078.033.078.078a.076.076 0 0 1-.078.078.076.076 0 0 1-.078-.078"/><path fill="#000" d="M186.902 254.962c.022-.369.033-.749.044-1.107v-.358l1.13.067c.033.492.056.99.089 1.482-.425-.023-.861-.045-1.286-.079l.023-.011zm-5.474-.33.034-1.482q2.123.134 4.07.252-.084.738-.185 1.459c-1.302-.078-2.61-.162-3.913-.241l-.011.012zm-6.697-.453v-.045c0-.48-.022-.978-.045-1.459q2.642.194 5.099.369c-.034.492-.067.99-.106 1.471-1.644-.118-3.304-.218-4.948-.336m-6.312-.47c-.056-.508-.117-1.012-.162-1.532 1.666.129 3.304.252 4.886.381-.011.48-.022.956-.044 1.436v.067c-1.566-.117-3.12-.229-4.668-.357h-.012zm-5.294-.424c.045-.358.078-.716.09-1.068 0-.151 0-.297.011-.447 1.163.106 2.303.195 3.427.285 0 .508.022 1.012.033 1.52-1.196-.089-2.381-.195-3.578-.285h.012zm-52.394-6.273c-14.664-2.471-29.4-5.328-43.019-10.309a20 20 0 0 1-.252-1.716c22.491 8.844 63.604 13.987 94.703 16.693a13 13 0 0 1-.229 1.509c-17.174-1.459-34.27-3.438-51.198-6.166v-.011zM66.745 236.34a68 68 0 0 1-1.761-.705c-.056-.402-.106-.805-.162-1.207-.023-.196-.056-.392-.079-.587a71 71 0 0 0 2.024.85c.045.531.09 1.067.162 1.61 0 .033 0 .067.012.106zm-4.042-1.666c-.067-.509-.14-1.023-.196-1.532l-.033-.336c.553.263 1.118.543 1.716.805v.034c.022.391.034.783.056 1.174 0 .173 0 .347.011.52-.509-.218-1.023-.436-1.543-.677zm-2.611-1.247c-.09-.492-.184-.989-.285-1.481-.044-.207-.09-.403-.14-.61.554.324 1.14.632 1.75.945.011.436.023.872.023 1.314v.492c-.448-.207-.895-.436-1.348-.654zm-2.23-1.219a116 116 0 0 1-.09-2.012v-.034c.358.241.738.47 1.118.705.023.206.045.424.067.642.034.436.056.873.079 1.314v.056a41 41 0 0 1-1.186-.665h.012zm33.442-30.216c.347-.068.677-.14 1.023-.207 0 .391-.022.782-.045 1.174-.285.067-.587.139-.91.207l-.068-1.186zm2.057.369a12 12 0 0 0-.117-.761c.414-.078.838-.162 1.241-.24 0 .369-.022.738-.034 1.107-.346.078-.704.151-1.045.229a3 3 0 0 0-.045-.335m1.896-.163h-.012a28 28 0 0 1-.15-.944c.62-.118 1.24-.23 1.839-.336v.99c-.554.128-1.107.251-1.655.38v-.078h-.011zm2.236-.861-.034-.508c16.839-2.533 14.737-2.393.078.945a6 6 0 0 0-.044-.437m100.316 52.948v-.011s.011.033.022.045c0 0-.011-.023-.022-.034m-.079-.139s.023.044.034.055c-.011-.022-.022-.033-.034-.055m179.791-3.495a1.48 1.48 0 0 0-.839-1.174c1.761-.207 3.522-.402 5.278-.62.022.207.033.413.044.62.011.274 0 .554 0 .839v.078c-1.492.185-2.991.358-4.483.531zm6.429-.553a12 12 0 0 0-.107-1.001c-.022-.151-.044-.313-.078-.458 1.873-.229 3.751-.47 5.624-.738-.022.24-.044.469-.056.704-.022.285-.044.565-.056.85q-2.658.36-5.316.688v-.045zm6.697-1.694c0-.229 0-.458-.011-.676 1.862-.252 3.718-.52 5.568-.794 0 .128 0 .251-.011.38l-.067 1.174c-1.806.263-3.612.52-5.429.771a22 22 0 0 1-.044-.849zm7.145-1.711a482 482 0 0 0 7.061-1.118l.033.492v-.045c.011.358.034.716.045 1.068-2.337.392-4.668.761-7.016 1.118-.056-.508-.09-1.012-.129-1.52zm8.313-1.313a469 469 0 0 0 12.573-2.276c10.409-2.107 20.673-4.533 30.311-8.223 3.567-1.392 7.134-3.036 10.114-5.048 17.034-11.69-11.69-20.73-23.581-23.905-14.759-3.83-29.887-6.524-45.183-8.582v-.151c0-.106-.011-.207-.022-.313a5.3 5.3 0 0 0-.134-.922l-.034-.14c9.823 1.325 19.59 2.885 29.255 4.797 10.505 2.141 20.97 4.612 30.715 8.385 9.811 3.74 22.429 11.126 12.746 19.992-2.829 2.521-6.429 4.417-10.169 6.038-6.927 2.968-14.39 5.098-21.926 6.938a410 410 0 0 1-24.47 4.886 69 69 0 0 0-.184-1.493v.011zm-20.417-48.632c-.022-.492-.033-1.012-.089-1.51 1.347.162 2.739.369 4.047.531.079.163.107.347.14.531v-.033c.023.184.045.358.056.542v-.033.313-.034.229c-1.369-.184-2.75-.357-4.131-.531h-.023zm-3.555-.442c-.034-.509-.078-1.012-.117-1.509.883.106 1.772.218 2.655.324.011.492-.022.989-.078 1.481-.817-.106-1.644-.206-2.46-.296m-4.842-.548c-.022-.509-.044-1.012-.055-1.509 1.218.14 2.437.274 3.656.425 0 .492-.023 1-.045 1.492-1.185-.139-2.37-.274-3.544-.402l-.012-.011zm-5.048-.553a13 13 0 0 0-.436-1.565c1.47.162 2.957.324 4.428.48-.045.492-.078 1.001-.129 1.493-1.286-.14-2.577-.274-3.863-.414zm-5.003-.509a17 17 0 0 1 0-1.521c1.045.107 2.091.207 3.13.325.129.508.218 1.023.286 1.543-1.141-.118-2.276-.23-3.416-.347m-6.949-.665c0-.492.14-1.023.033-1.521 1.923.185 3.83.358 5.742.554-.106.492-.162 1-.196 1.492-1.862-.184-3.718-.357-5.579-.531zm-124.819-21.143c.106-.336.207-.655.296-.99 0-.022.011-.056.022-.078a893 893 0 0 0 52.216-1.107c23.698-1.286 47.519-3.326 70.568-7.81 7.503-1.521 14.899-3.265 21.842-5.926 2.578-1.001 5.144-2.186 7.279-3.634 12.271-8.419-8.419-14.932-16.989-17.219a228 228 0 0 0-9.94-2.336 7.5 7.5 0 0 0-.09-1.152c7.028 1.459 14.01 3.187 20.534 5.719 7.072 2.689 16.162 8.017 9.18 14.401-2.035 1.817-4.635 3.187-7.329 4.35-4.993 2.141-10.376 3.667-15.793 5.003-25.471 5.926-52.098 8.145-78.53 9.649a878 878 0 0 1-45.725 1.174c-2.521 0-5.026 0-7.547-.033v-.011zm-3.466-.034a18 18 0 0 0-.565-1.079h.861c-.056.229-.129.458-.196.688a6 6 0 0 1-.106.369v.022zm-47.274-2.913c-1.09-.078-2.208-.162-3.371-.24.034.358.056.727.079 1.09 1.045.078 2.107.151 3.153.218 0-.056.011-.128.022-.184 0 .044-.011.089-.011.139.045-.335.089-.676.14-1.012zm-6.384-.481c0 .369.011.727.023 1.091.676.055 1.347.106 2.023.151v-1.079c-.676-.056-1.358-.107-2.046-.163m-4.154.761q1.567.133 3.142.252c.011-.263.034-.532.045-.794 0-.09 0-.196.011-.285a210 210 0 0 1-3.287-.274c.033.369.067.738.089 1.107zm-1.314-1.219c-1.09-.089-2.197-.195-3.315-.296v1.118c1.107.106 2.209.196 3.315.296zm-7.452.414c.794.078 1.588.162 2.382.229 0-.173 0-.346.011-.52 0-.195 0-.391.011-.587-.816-.078-1.632-.162-2.459-.24.022.369.033.749.055 1.118m-2.655-.28q.638.066 1.274.14v-.162c.012-.313.023-.632.045-.945-.38-.045-.76-.078-1.14-.117-.056.369-.129.727-.185 1.09v-.011zm-67.79-18.677c-5.44-8.789 20.936-14.737 28.942-16.621 1.587-.335 3.153-.704 4.729-1.068.011-.195.034-.391.056-.587-11.063 1.761-31.022 6.474-35.12 13.401-3.287 5.948 5.485 10.191 11.366 12.455 10.007 3.752 20.881 5.865 31.704 7.682a472 472 0 0 0 24.223 3.231c.079-.358.151-.727.218-1.09-27.387-2.935-59.242-8.296-66.107-17.403zm37.903-18.835s.09.09.14.151c-.034 0-.067.011-.117.023 0-.056-.023-.118-.034-.174zm83.444 206.619c-23.754-.816-47.542-2.141-71.167-4.394a.88.88 0 0 1-.783-.783 4 4 0 0 0-.078-.531.375.375 0 0 1 .391-.458c19.394 1.873 36.489 2.957 46.564 3.438 30.205 1.543 90.633 1.677 90.784 1.677s.436.632.173 1.012c-.263.369-12.495.794-19.533.794q-23.187-.002-46.357-.749l.012-.012zm-128.654-12.12c.369-.492.738-.978 1.118-1.47.447.078.894.162 1.347.24 0 .034-.022.056-.022.09-.151.492-.296 1-.447 1.492-.666-.117-1.325-.24-1.98-.357h-.01zm-5.104-.956c.15-.531.296-1.057.436-1.588 1.129.218 2.264.436 3.404.643-.358.492-.715.99-1.068 1.47-.933-.173-1.85-.358-2.772-.531zm-5.015-1.023c.151-.285.296-.576.459-.85.14-.218.273-.436.413-.654l3.556.727a37 37 0 0 1-.509 1.576 457 457 0 0 1-3.936-.805l.011.012zm-29.758-8.319c-51.628-20.282 18.381-37.165 41.19-40.86 4.166-.677 6.502-1.23 7.073-.895-49.392 8.593-107.014 28.987-18.12 48.475-.295.492-.597.99-.838 1.51-10.051-2.13-19.924-4.719-29.322-8.235l.011.011zm252.55 21.468c.023-.163.045-.313.079-.47 1.196-.034 2.392-.067 3.6-.106-.218.576-.459 1.14-.727 1.705-1.045.033-2.091.056-3.131.089.056-.402.129-.805.185-1.207l-.011-.011zm9.247.805c-.045-.252-.106-.509-.151-.76a.275.275 0 0 1 .252-.325c2.107-.067 4.198-.151 6.306-.229a.27.27 0 0 1 .251.38c-.173.392-.357.783-.542 1.163a.27.27 0 0 1-.229.151c-1.521.056-4.405.056-5.44 0a.454.454 0 0 1-.436-.391zm13.769-1.185c-.089-.23-.162-.47-.24-.705-.022-.056-.045-.128-.067-.195 3.209-.14 6.407-.286 9.616-.448.564-.033 1.118-.056 1.666-.089a33 33 0 0 1-.945 1.727c-3.231.162-6.474.325-9.711.459-.106-.252-.207-.492-.313-.749h-.011zm16.358-1.739c31.195-1.828 92.786-10.102 96.8-10.65.117-.011.195.067.195.185a22 22 0 0 1-.117 1.336.23.23 0 0 1-.207.207c-31.402 5.831-63.704 8.592-95.877 10.538a73 73 0 0 1-.805-1.61h.011zm103.24-11.214c-.067-.207-.129-.414-.196-.61 2.058-.413 4.132-.85 6.178-1.302-.129.274-.274.542-.414.816a9 9 0 0 1-.565.894c-.056.079-.128.162-.184.23-1.493.313-2.98.62-4.473.922l-.346-.956zm9.42-1.325c-.011-.414 0-.816 0-1.23 0-.045 0-.09.022-.129 1.923-.436 3.83-.894 5.73-1.38a23 23 0 0 1-.631 1.067 12 12 0 0 1-.772 1.012s-.011.023-.022.023c-.218.055-.447.117-.665.162-1.208.274-2.416.553-3.634.827l-.034-.347.011-.011zm9.593-3.394v.022-.38a197 197 0 0 0 6.441-1.884c-.554.654-1.107 1.303-1.655 1.957-.14.162-.285.324-.425.47q-2.157.637-4.338 1.207c-.023-.458-.023-.934-.023-1.392m12.355-2.884c-.056-.163-.106-.325-.173-.481a3 3 0 0 0-.24-.436 2 2 0 0 0-.185-.229c.934-.336 1.851-.677 2.784-1.024 4.003-1.565 7.995-3.404 11.343-5.657 19.109-13.115-13.115-23.245-26.443-26.812-11.885-3.092-23.994-5.524-36.221-7.503v-.011a6.4 6.4 0 0 1-.078-1.129v-.045s0-.022.011-.045c.023-.044.045-.106.079-.15 0 0 0-.012.011-.023l.056-.056c.067-.056.139-.117.207-.184a482 482 0 0 1 17.85 3.186c11.779 2.393 23.525 5.177 34.454 9.409 11.008 4.199 25.157 12.484 14.29 22.418-3.176 2.818-7.212 4.948-11.4 6.776a106 106 0 0 1-6.188 2.426 4 4 0 0 0-.118-.447l-.033.022zM120.76 342.464c2.84-3.707 3.981-10.617-.128-13.747-2.287.184.324 2.784.369 3.98 1.839 6.636-4.635 14.055-11.444 12.724-1.263-.24-1.621 1.75-.347 1.968 4.395.861 8.962-1.37 11.562-4.925z"/><path fill="#000" d="M122.902 348.781c.531-.531.894-1.218 1.369-1.805 2.231-4.037 4.361-8.604 3.958-13.334-.056-6.211-5.752-12.271-11.868-8.43-4.026 2.851-1.459 8.05-1.884 12.019-3.209 7.671-10.919-3.885-9.638-8.374.38-9.571 9.733-15.804 18.739-13.758 6.267 1.761 11.226 7.016 13.249 13.148.738 1.314-.044 5.026 1.566 5.166a1.007 1.007 0 0 0 1.034-.967c-.274-13.412-15.391-24.431-27.746-17.666-6.132 3.002-9.408 10.074-8.81 16.738.894 4.383 3.84 9.895 8.777 10.225 8.95-1.275 2.046-10.18 5.395-14.485 6.546-4.696 10.443 4.763 9.017 10.236-.665 2.762-1.873 5.339-3.058 7.905-.665.85-2.644 4.473-.078 3.394l-.011-.012z"/><path fill="#000" d="M138.51 332.468s-.106-.056-.162-.022a.114.114 0 0 0-.022.162c.033.045.106.056.162.022a.114.114 0 0 0 .022-.162m-6.038 9.437c6.659-10.896-5.73-30.736-18.476-22.82-5.177 3.656-7.016 11.824-4.5 17.436 2.174.772 1.313-1.883 1.106-3.035a17.2 17.2 0 0 1-.055-4.35c1.654-13.148 15.748-12.466 20.22-1.38 1.46 3.393 1.901 7.267 1.023 10.884-.357 1.079-1.61 4.886.677 3.243v.022z"/><path fill="#000" d="M133.289 312.661c-2.264-4.003-8.112-5.003-12.411-5.221-11.354-.218-22.972 8.71-23.536 20.522-.022.543.414 1.023.956 1.035 1.727-.207.86-2.74 1.448-3.925 3.069-12.869 19.477-19.623 30.781-13.115-.033-.023 0 0-.089-.045.805.252 2.264 1.873 2.862.749z"/><path fill="#000" d="M121.772 303.152c-2.415-2.287-6.697-1.471-9.733-1.001-6.591 1.493-12.824 6.189-14.899 12.825-.39 1.23 1.532 1.839 1.901.598 2.057-6.524 8.503-10.801 15.011-11.779 1.52-.727 7.961.805 7.709-.632zm-6.244-4.674c.587-2.164-5.568-1.012-6.754-.643-4.142 1.185-8.212 3.338-11.018 6.681-.61.883-2.13 2.577-.727 3.393.771.336 1.325-.324 1.532-1.012 3.611-5.668 10.778-7.558 16.967-8.419M321.04 89.662s-.067-.034-.106-.012c-.04.023-.034.068-.012.107s.068.033.107.01c.039-.021.044-.066.011-.105m-9.756.855c.023-.872-1.358-4.567-2.253-2.762 1.51 2.622 1.348 5.982-.883 8.19-1.403 1.482-3.533 2.393-5.579 1.98-.805-.151-1.034 1.118-.218 1.252 4.841.956 9.537-3.83 8.939-8.66z"/><path fill="#000" d="M321.604 88.974c-.553-6.2-6.233-12.042-12.55-11.941-6.876.117-12.618 6.938-10.27 13.702.895 3.21 5.451 7.134 7.877 3.131 1.336-2.644-1.99-8.04 2.667-8.308 4.254.207 4.522 6.11 3.198 9.169-.565 1.783-1.75 3.337-2.276 5.099.47 1.14 1.359-.437 1.705-.923 7.279-11.433-2.979-19.175-6.395-11.885-.783 2.253 1.369 5.305-.738 7.004-2.656 1.119-4.428-2.437-5.132-4.511-.436-2.001.089-4.154.805-6.015 3.46-6.57 12.735-6.698 17.023-.923 1.621 1.968 2.806 4.417 2.817 7.005.241 1.325 1.644.447 1.253-.62l.011.01z"/><path fill="#000" d="M317.188 85.972c-5.244-11.399-18.577-4.796-14.641 6.278 1.861.448.346-2.359.598-3.315-.459-4.83 4.316-9.744 8.984-6.876 3.874 2.23 5.657 7.267 4.634 11.55-.056.749-.989 1.968-.067 2.337 2.622-2.091 1.666-7.179.492-9.974"/><path fill="#000" d="M300.702 78.185c4.209-3.46 10.465-4.305 15.239-1.6-.022-.01 0 0-.056-.033 4.797 2.555-.531-3.304-6.099-2.85-7.234-.14-14.652 5.556-15.01 13.092a.65.65 0 0 0 .609.665c1.107-.128.554-1.75.934-2.51.631-2.689 2.264-5.037 4.383-6.764"/><path fill="#000" d="M295.078 79.286c1.045.184.933-1.381 1.436-1.98.705-1.302 1.61-2.325 2.729-3.242 2.784-2.275 6.473-3.198 10.006-2.728.369.034 1.141.184 1.119-.391-3.981-2.533-9.929.056-13.043 3.153-.816.922-3.645 4.22-2.242 5.188zm.346-5.613c2.091-3.885 6.96-5.11 10.963-5.696.403-.576-.598-.705-.978-.76-3.198-.219-6.373 1.24-8.878 3.152-.805.805-3.091 2.482-1.945 3.623.313.14.715 0 .838-.324z"/><path fill="#fff" d="M493.417 215.14c.783 11.506-24.47 2.209-27.734-3.656-2.024-2.359 1.481-8.822 4.696-6.351 4.886-5.294 16.24-9.073 14.988 2.108-.218.978-.665 2.275.805 2.359 3.555-.76 6.625 1.784 7.245 5.546z"/><path fill="#FED980" d="M433.185 170.864c-1.129 5.775-19.175 12.606-21.221 11.287-2.46-1.599-3.902-8.145-5.635-17.437-.912-4.864 14.77-8.822 20.405-9.28 3.276-.263 7.144 11.846 6.451 15.446z"/><path fill="#FFF7DB" d="M222.737 167.135c2.644.391 5.165 5.003 3.264 8.721-1.576 3.069-25.386 1.426-26.493-.827-3.382-3.036-2.817-8.895 4.109-8.375 1.666-2.348 3.12-9.571 8.878-8.503 8.408 1.068 4.774 9.582 10.236 8.984z"/><path fill="#FED980" d="M81.291 209.695c1.862 3.047-.262 9.789-1.805 13.334-3.752 7.005-14.955-2.348-18.046-4.719-3.545-2.286 1.677-11.365 3.002-14.887-.325-2.057 16.15 4.232 16.85 6.256v.016"/><path fill="#000" d="M422.429 170.277c2.08-2.198.553-5.798-2.588-5.451-3.612.391-4.037 5.741-.688 6.451-.38 4.165 5.473 2.382 3.287-1z"/><path fill="#000" d="M432 161.349c-.827-2.924-2.264-8.062-6.189-7.257-5.003.403-9.906 2.645-14.663 4.288-1.325-5.121-3.461-10.113-4.221-15.346-.598-4.081 1.576-8.167 5.383-9.733 1.437-.598 3.002-.508 4.501-.162.151.034.285.079.425.129 2.817 1.09 4.153 3.885 5.188 6.546.62 1.09.391 3.645 2.174 3.36.587-.162.934-.782.772-1.369-1.901-12.736-16.587-16.107-20.523-3.427-1.045 3.371 2.751 16.15 4.266 20.83-4.68 2.197-4.914 4.958-3.232 11.114 1.325 4.807 1.325 12.125 5.786 13.137 4.361.587 8.269-2.079 12.149-3.667 11.125-4.718 12.595-6.614 8.167-18.426l.023-.012zm-6.133 14.921c-3.404 1.152-13.573 8.66-15.497 2.706-.978-3.036-2.784-8.168-3.153-12.137a5.82 5.82 0 0 1 3.254-5.764c3.774-1.817 8.235-2.315 12.02-4.131 5.959-2.578 6.602 2.873 8.111 7.189 2.393 6.569 2.471 9.834-4.74 12.137z"/><path fill="#000" d="M403.31 151.275c-1.079-.459-3.014-12.355-.403-10.259.285 3.081 1.208 6.1 1.901 9.113.263.861-.772 1.621-1.493 1.151zm7.765 39.212c-3.958-.358-6.96-3.176-7.732-7.072-.313-1.705-.665-3.534-.151-5.222.106-.263.492-.263.598 0 .241.705.241 1.459.492 2.164.313.956.543 1.934.861 2.884.688 1.784 1.828 3.545 3.612 4.361.861.436 1.817.553 2.728.816 1.196.358.894 2.08-.274 2.08h-.151l.011-.011zm-6.636 1.911c-.738-.229-1.37-.665-1.946-1.162-.956-.75-1.839-1.633-2.275-2.796-.347-.922-.805-1.967-.587-2.957.196-.492.895-.576 1.208-.151.492.934.782 2.001 1.38 2.885.761.945 1.784 1.738 2.885 2.208 1.079.447.643 2.024-.38 2.024a1 1 0 0 1-.296-.045l.011-.011zM70.826 210.976c-1.448-.09-2.381.469-2.851 1.945-.285.923.034 1.957.654 2.667a.9.9 0 0 0-.196.447c-.206.414-.296.883-.117 1.325.263.643.894 1.163 1.599 1.163.078 0 .162 0 .251-.022 1.001-.207 1.381-1.197 1.253-2.069 2.817-.598 2.555-5.255-.587-5.462l-.011.011z"/><path fill="#000" d="M79.877 206.235c1.303-3.969 2.242-8.05 3.047-12.171.565-1.749 1.152-3.656.565-5.473-2.37-7.614-13.15-9.515-15.945-1.034-.631 1.252-1.011 2.6-1.414 3.947a.956.956 0 0 0 .654 1.163c1.493.24 1.325-1.912 1.84-2.84.894-2.304 2.057-4.981 4.567-5.842 3.84-1.023 8.307 2.337 8.766 6.211-.207 5.294-2.471 10.258-3.796 15.346-4.025-1.404-8.168-3.276-12.4-3.634-3.315-.677-4.534 3.656-5.233 6.144-1.09 3.349-3.427 8.514-.62 11.505 2.08 2.046 5.082 2.588 7.525 4.081 3.276 1.347 6.59 3.612 10.27 3.108 3.807-.911 3.61-7.96 4.902-11.113 1.359-5.211 1.493-7.397-2.74-9.387h.012zm.14 12.031c-.934 2.219-.48 7.2-3.913 6.636-3.718-.576-6.994-2.751-10.388-4.244-3.058-1.285-6.082-2.208-5.11-6.255.772-3.198 1.633-6.502 3.187-9.376 2.153-3.069 6.2.38 8.962.783 1.9.609 3.863 1.057 5.68 1.884 5.294 1.174 2.264 6.893 1.565 10.583l.011-.011z"/><path fill="#000" d="M84.802 199.504c.911-.447 2.566-10.365.347-8.682-.24 2.611-1.023 5.155-1.61 7.709-.218.738.643 1.381 1.263.979zm-6.568 33.18c3.348-.297 5.886-2.678 6.535-5.982.09-.425.38-2.046.358-3.22 0-.598-.861-.677-1.001-.106-.62 2.655-1.347 5.612-3.947 6.865-.727.369-1.543.458-2.303.687-1.08.325-.688 1.901.358 1.75zm5.612 1.609c1.761-.324 2.51-2.336 2.818-3.935.078-.447-.509-.688-.76-.313-.666 1.023-1.622 2.208-2.633 2.577-1.035.436-.392 1.99.575 1.666zm162.197 17.348s-.011 0-.022.011c0 0 .011 0 .022-.011m.917-1.845s.023-.033.034-.045a.08.08 0 0 1-.023.056zm-24.111-7.178s0 .011.011.022c0 0 0-.011-.011-.022m7.86 15.474s.011 0 .022.011c0 0-.011 0-.022-.011m-114.896-64.05c-.436.285-.872.576-1.325.85-.067-.688-.347-3.427-1.286-2.013-.117.923-.022 1.84.078 2.751-3.253 1.314-1.414 2.862-.117 1.85.089-.067.207-.117.313-.162.218.839-.106 1.957.52 2.622.609.509 1.565-.14 1.336-.894-.173-.839-.336-1.633-.509-2.46.621-.347 1.23-.705 1.851-1.046.978-.587.106-2.068-.872-1.492h.011zm77.59-24.464c-.117-.402-.542-.654-.944-.542-.09.022-.314.089-.599.184-.173-.883-.262-1.806-.48-2.678-.207-.62-1.001-.469-.934.185-.034.989.033 1.968.106 2.957-1.347.52-2.728 1.23-1.817 1.739.207.056.414-.034.61-.078.128 0 .262 0 .335-.107a9 9 0 0 1 .967-.251c.034.469.045.945.056 1.414.129.828 1.303.911 1.521.106.151-.587.056-1.185-.056-1.783.665-.117 1.437-.335 1.252-1.14h-.011zm39.48 4.047c-.262-.631.023-4.142-1.207-3.382-.162.174-.173.436-.196.665l-.067.923c-.676.184-1.381.391-1.912.861-.553.346-.553 1.358.173 1.459.336.045.655-.229.643-.565.252-.162.621-.207.99-.229-.034.391-.034.794.151 1.141.576.956 1.99.089 1.425-.861zm125.831-39.904c-.128-.817-.24-1.633-.414-2.438-.055-.414-.285-1.185-.827-.838-.196.162-.184.413-.196.631 0 .459 0 .923.023 1.381-.598.129-1.264.023-1.828.285-.817.448-.38 1.448.425 1.532.117.011.816 0 1.425-.196.252.727 1.493.554 1.392-.369zm10.617 32.704c.022-.99 13.288-6.636 16.475-8.168.436-.207 1.012-.346 1.37-.033 1.313 1.151-17.879 9.559-17.84 8.201zM92.165 248.661c-5.786-.933-11.226-3.186-16.76-5.037-1.935-.654-3.874-1.274-5.72-2.197-.508-.335-2.577-.967-1.861-1.75.117-.117.313-.162.447-.106.85.324 1.689.704 2.533 1.012 2.622.978 5.35 1.644 7.994 2.544 2.706.849 5.373 1.772 8.1 2.566 1.829.52 3.69.861 5.547 1.263 1.106.229.827 1.873-.297 1.705h.023zm-29.093 29.781c.196-1.046 3.807-1.912 4.82-2.348 3.208-1.057 6.512-1.979 9.743-2.902 2.253-.458 4.5-1.599 6.754-1.727.542.251.48 1.118-.09 1.286-6.776 2.426-13.931 3.566-20.774 5.601-.24.045-.436.369-.459.079h.012zm104.889 60.668c-7.525-.761-15.083-1.739-22.502-3.142a.53.53 0 0 1-.285-.285c-.078-.185.078-.392.285-.392 5.624 0 11.421 1.359 17.107 1.784 1.862.184 3.74.38 5.59.575.945.14.772 1.588-.195 1.471zm103.167 2.286h-.067c-.067 0-.151-.011-.185-.078-.139-.402.565-.335.805-.414 3.925-.676 7.928-.369 11.858-.816 1.347-.184 2.689-.425 4.025-.643.347-.056.676.207.727.554a.68.68 0 0 1-.554.738c-1.012.151-2.023.285-3.035.425-2.578.38-5.188.139-7.777.117-1.945-.056-3.885.056-5.819.129h.022zm157.49-95.725a.8.8 0 0 1 .492-1.001c1.274-.47 2.555-.923 3.818-1.381 5.44-1.934 11.125-3.058 16.542-5.071a55 55 0 0 0 8.604-3.991c.598-.336 1.197-.677 1.795-1.012.324-.151.771-.576 1.045-.185.313 1.13-2.471 2.863-3.287 3.45-5.523 3.544-12.076 4.903-18.315 6.68-2.057.565-4.109 1.141-6.132 1.817-1.197.392-2.382.783-3.567 1.174a.796.796 0 0 1-1.001-.492v.012zm50.554 37.741c-6.255-3.014-12.779-5.429-19.393-7.525-.414-.056-.425-.705 0-.772.414-.078.839.045 1.241.129 4.808 1.174 9.526 2.795 14.105 4.679-.022 0-.056-.022-.078-.033 1.61.665 3.197 1.414 4.785 2.141.883.447.252 1.783-.654 1.381zm-167.379 56.19c-.011-1.13-.044-4.232.09-4.635.391-.771 1.286-.335 1.392.392.218 1.403.24 2.828.263 4.243 0 .48-.392.883-.873.883a.884.884 0 0 1-.872-.883m8.017-1.543c-1.241-.207-1.75-1.795-.207-1.968.565 0 1.241.251 1.381.861.173.665-.531 1.252-1.163 1.107zm-23.514.889c-.402-.067-.816-.313-.989-.688-.078-.263-.14-.587-.056-.861.24-.447.816-.727 1.314-.576.531.129 1.274.565 1.056 1.208-.151.598-.687 1.045-1.325.922zm40.414-1.817c-1.023-.436-.369-2.197.665-1.677 1.118.587.565 2.163-.665 1.677"/><path fill="#000" d="M220.444 165.57c-1.196-10.835-15.619-10.074-17.011.274-7.592-1.426-9.365 6.501-3.472 10.465.436.621 1.403.565 2.091.688 7.016.676 14.043.576 21.048 1.23 8.878-.207 4.383-13.457-2.644-12.652l-.012-.011zm5.664 7.815c-.274 4.394-5.485 2.728-8.442 2.874-4.73-.023-9.442-.543-14.161-.52-1.979 0-3.829-1.079-4.696-2.874-.564-1.174-.872-2.426-.542-3.449.62-2.046 3.829-2.957 5.534-1.739.677.274 1.242-.402 1.141-1.056-.14-7.039 9.101-11.377 12.847-4.461 1.509 2.09.391 4.886 1.414 5.417.448.251.912-.034 1.314-.23 2.969-.357 5.753 3.243 5.591 6.049zm266.879 37.73c-1.588-2.185-4.394-2.566-6.905-2.554 2.611-12.149-10.331-12.149-15.334-4.121-.151.285-.598 1.381.056 1.23.078.034.162-.033.128-.117 2.348-3.371 6.211-5.166 10.298-4.875 2.404 0 3.131 2.84 3.254 4.808.206 1.381-.621 2.728-.369 4.058 1.151 2.209 6.121-.989 8.363 4.473 1.521 6.474-6.082 6.742-10.342 5.11-5.96-1.555-14.312-3.461-16.325-10.125-.229-2.163 1.817-4.472 4.048-3.807-.09.347-.447 1.303.128.481 1.163-1.079-.771-1.784-1.677-1.716-2.873.139-4.841 3.315-4.176 6.026 2.74 7.307 12.104 9.018 18.751 11.388 7.189 2.566 15.631-3.304 10.113-10.287l-.011.012zm-11.399 13.423c-.325-.045-2.51-.654-3.153-1.218-.196-.174-.023-.492.229-.437 1.023.263 2.057.532 3.119.621.727.129.509 1.208-.207 1.034z"/><path fill="#000" d="M351.626 210.651c-.174-22.406-.297-44.813-.297-67.214 0-6.983 4.187-27.114-6.753-27.114-58.343 0-116.696 0-175.033 1.012h.045l-2.795-.034c-6.72-.056-13.434-.369-20.154-.274-26.801-1.47-17.644 5.2-19.164 27.629-.688 32.805-.884 65.626-.884 98.454 0 20.892 15.956 15.458 28.517 15.664 8.224-.044 29.921-.044 56.056-.128-1.162 7.072-1.241 14.401-3.796 21.177-1.828.704-10.504-.045-11.063 1.09-.565 1.14-.884 2.795-.151 4.025.738 1.23 5.752.978 7.972.945a632 632 0 0 1 20.087-.056c18.968-.14 38.177-1.001 57.034-.665 1.437.022-.285-4.288-2.678-4.473a79 79 0 0 0-6.384-.251 1.65 1.65 0 0 1-1.471-.884c-3.438-6.602-3.913-13.92-5.361-21.177 198.569-3.924-83.259-2.521-127.43-2.163-7.307 0-8.905-9.605-8.905-9.582.033-1.37.139-9.661.251-21.49 73.286.643 146.639-.151 219.941.369-.48 8.201-.206 16.196.196 23.637-.414 6.602-2.46 5.266-7.525 6.44-.849.794.872 1.196 1.404 1.492 3.22.403 8.1-.335 7.916-4.567.838-13.887.262-27.908.425-41.839l.011-.034zm-87.251 53.574c.838 5.887 1.554 12.691 5.568 17.325 1 .716 7.765.196 9.028.632.437.391.643.978.873 1.52-27.411-.346-54.86.263-82.27.392.218-.738.218-1.163.296-2.108 1.437.531 10.343.727 11.343-1.414 3.187-6.765 3.819-14.552 3.981-21.949 16.218-.055 33.649-.128 50.588-.273-.184 1.828.403 4.578.565 5.875zm84.662-47.994c.185 2.253.218 4.612.207 7.016-73.308.436-146.655-.425-219.952.162.273-28.07.642-74.186.598-96.844-2.091-9.907 7.111-6.099 13.367-6.513 12.768 0 25.537-.296 38.306-.274h-.023c49.258-.542 98.499-.677 147.746-1.314 25.068-1.47 19.706.542 19.729 22.787-.403 24.995.056 49.979.011 74.98z"/><path fill="#000" d="M253.439 183.319c2.706-3.108-.598-8.19-4.511-6.949-3.762.912-4.305 6.636-.587 7.995-.196 1.034-5.915 9.073-.285 9.28 8.799.99 5.244-4.484 4.405-9.465a4.5 4.5 0 0 0 .967-.872z"/><path fill="#fff" d="M293.445 279.845c-.151-10.477-.911-22.155-.676-33.197.285-14.032-5.222-42.068 3.416-43.253 38.306-1.75 83.454-.509 119.653-.934a3.1 3.1 0 0 1 3.108 2.577c2.276 13.054-.089 62.334-.044 75.243-36.294.229-121.057 1.045-125.451-.436z"/><path fill="#FFF7DB" d="M439.558 313.488c-5.853-9.146-19.852-32.139-19.924-32.749-39.067.151-87.38.945-125.926.313-33.269 49.51-24.47 36.763 27.444 37.076 30.183.185 60.321.403 90.784.369 22.468-.86 26.896 5.004 27.628-4.992l-.011-.011z"/><path fill="#FED980" d="M355.757 219.451c-.738-2.153-.38-6.536 0-8.845 4.154-1.302 5.534 5.602 11.041 2.656-2.231 12.573-7.005 2.108-11.041 6.2z"/><path fill="#FFF7DB" d="M370.723 268.653c.922 5.294-29.596 6.267-31.044-1.717-.207-1.162 1.263-18.61 3.264-30.703 1.337-8.027.945-11.661 1.773-11.745 1.09-.106 3.024-.61 3.851.045l.392 5.048 3.326.184c-.078-1.794.749-5.277.749-5.277l4.97-.565c-.413 2.51.643 5.591.643 5.591s2.751 1.174 3.668-.336c.553-.894.38-4.243.469-4.886 0 0 3.874-1.621 4.305-.078 2.035 7.2 3.729 43.332 3.656 44.428z"/><path fill="#000" d="M371.494 266.567c-.173-10.789-1.392-21.545-2.37-32.29-.576-3.511-.403-7.268-1.577-10.65-.48-.565-1.425-.196-2.079-.229-5.071.089-2.796 2.286-3.601 5.914-4.427 1.37-2.957-1.967-3.555-4.886.335-.861-.911-.956-2.242-.861.089-.933-.173-3.382.47-3.902 1.817-2.091 3.796.554 5.842.52 4.774.118 3.287-4.808 5.741-7.167.09-.078.185-.162.285-.229.436-.296 1.197-.956.425-1.046-2.242-.262-3.46 1.862-4.925 1.912-2.6-.151-5.669-5.221-8.559-3.058a.66.66 0 0 0-.229.336c-.654 2.163-.274 11.125.346 12.69-.883.079-1.727.207-2.057.196-2.326.553-.554 4.014-1.644 5.646-.805 0-1.621-.089-2.426-.139-.045-2.667 1.47-6.351-2.795-5.244-.727.207-2.426-.347-2.678.531-1.23 9.006-2.644 17.979-3.511 27.041-.078 2.851-1.677 10.298-1.493 14.703a5.12 5.12 0 0 0 2.438 4.176c5.613 3.416 13.043 2.6 19.393 2.555 4.266-.621 11.148.117 10.779-6.474l.022-.022zm-15.608-53.545c.078-1.689.715-2.175 1.218-2.046 3.198.805 5.294 5.657 9.409 2.817-1.314 1.739-.52 4.048-2.75 5.037-2.511 1.336-5.256-2.633-7.866.151-.034-1.599-.107-4.07-.011-5.959m11.41 57.805c-6.776 2.058-19.036 2.315-24.895-1.079-1.437-.827-2.253-2.426-2.141-4.097.967-13.63 3.002-27.17 4.472-40.744 1.174.056 2.326.022 3.483-.033.481 1.565-1.448 5.372 1.107 5.372 3.025.542 4.199.089 4.154-3.209-.056-.738.358-1.727-.034-2.37 1.275-.358 2.885-.358 4.199-.174.207 1.912-1.303 5.887 1.772 5.787 2.555.24 4.059.206 3.729-2.863-.369-3.326.106-3.231 3.209-3.164 2.633 13.954 3.371 28.433 3.718 42.667.044 1.783-1.079 3.393-2.784 3.902l.011.011z"/><path fill="#000" d="M365.591 252.602a3.38 3.38 0 0 0 .737-2.359c0-.033 0-.078-.011-.128v-.151a2.5 2.5 0 0 0-.128-.436 5 5 0 0 0-.196-.52 2.4 2.4 0 0 0-.335-.531 4 4 0 0 0-.448-.481 3.35 3.35 0 0 0-1.772-.794 3 3 0 0 0-.564-.011c-.358-.011-.705.011-1.046.117-.38.118-.738.274-1.056.52a3.4 3.4 0 0 0-.839.894 3.6 3.6 0 0 0-.436 1.068c-.022.118-.045.218-.056.336-.034.38-.011.771.078 1.151.106.392.274.772.52 1.107.218.285.492.543.805.727.174.106.358.173.554.218a40 40 0 0 1-1.079 2.656c-.241.62-.459 1.263-.727 1.872-.151.448-.403.979-.335 1.448a.22.22 0 0 0 .139.151c.218.665.923 1.034 1.761.99h1.37c1.107 0 2.219-.034 3.08-.783.61-.643.313-1.621.151-2.381-.229-1.012-.447-2.024-.749-3.014a16 16 0 0 0-.173-1.012c.274-.184.531-.402.738-.665l.022.011zm5.294 57.275c-.324-1.727-.61-3.382-1.141-5.07-.274-2.382-1.794-1.448-3.589-1.644-4.383.089-8.766.117-13.16.14-3.326.056-6.669 0-9.996.151-.598.218-.48 1.012-.665 1.509-.402 1.795-1.023 3.544-1.347 5.35.089.794 1.079.492 1.632.509 5.719-.034 11.422-.078 17.141-.078 10.387 0 11.494.643 11.125-.861v.011zm-28.355-.045c.481-1.749.85-3.544 1.358-5.277 7.788-.369 15.933-.117 23.732-.184.458 0 .872.313.978.771.297 1.336.392 2.655.761 3.958a.47.47 0 0 1-.459.609c-.62-.011-18.197.14-26.376.118l.011.011z"/><path fill="#000" d="M438.071 310.291c-.989-1.51-1.9-3.131-2.968-4.59-2.946-4.461-5.211-9.342-8.073-13.848-1.392-2.118-2.817-4.22-4.059-6.44-.911-1.414-1.52-3.013-2.689-4.254-.022-.023-.056-.056-.078-.09.022-.033.045-.067.056-.106.034-.067.034-.14.045-.218.022-.151.022-.296.022-.447v-1.923c0-1.286.011-2.566.022-3.852.012-1.459.023-2.924.023-4.383s-.023-2.784-.034-4.187c-.011-1.532-.022-3.07-.022-4.601s-.034-3.12-.045-4.668c-.011-3.131-.022-6.256-.022-9.376V234.02c0-1.482 0-2.829-.011-4.255 0-1.392-.012-2.772-.034-4.165a452 452 0 0 1-.022-3.874v-4.338c0-1.437 0-2.913-.034-4.361 0-.704-.011-1.392-.056-2.09-.033-.654-.067-1.314-.106-1.968a85 85 0 0 0-.117-2.091 13 13 0 0 0-.067-.923c0-.402.011-.793.022-1.207.045-.923-.688-1.633-1.448-2.024-1.068-.436-2.393-.52-3.589-.509-.369 0-.738 0-1.079.023a41 41 0 0 0-4.003-.185c-.553 0-1.09 0-1.643.045-1.359.106-2.706.173-4.059.285h-.056c-2.46-.022-4.925.045-7.385.078-3.863-.151-7.721-.128-11.595-.173-2.012 0-4.047-.067-6.071-.067-1.241 0-2.482.011-3.718.078a30 30 0 0 1-1.761.045c-1.481 0-2.957-.056-4.427-.045h-1.13c-1 .023-2.012.034-3.013.034-2.057 0-4.12-.023-6.177-.034-1.035 0-2.069 0-3.109.011-4.014 0-8.017.185-12.031.174a67 67 0 0 1-4.097-.129 151 151 0 0 0-7.279-.117c-4.037 0-8.073.089-12.115.078-2.426 0-4.841.117-7.267.117-.805 0-1.599-.011-2.404-.044-2.483-.056-4.959-.129-7.441-.129a27 27 0 0 0-2.141-.056c-3.081-.011-6.34.554-8.33 3.092-1.806 2.37-1.761 5.512-1.739 8.352 0 2.091-.263 4.176-.24 6.278-.067 2.862.044 5.708 0 8.57.117 4.512.542 9.007.76 13.507.207 4.545-.117 9.09-.011 13.63.151 6.982.413 13.976.704 20.958.045 1.13.263 2.265.174 3.383-.705 1.643-1.622 3.197-2.438 4.796-1.957 3.394-4.098 6.731-6.2 10.041-2.739 4.209-4.774 8.822-7.2 13.205-.979 1.816-1.828 3.689-2.885 5.45-.911 1.543.229 3.254 1.118 4.523 1.482 1.392 3.511 1.493 4.73 1.554 3.807.173 7.502-.033 11.309-.207 5.602-.229 11.237.207 16.839.011 7.407-.206 14.803-.553 22.222-.38 3.874-.128 7.754-.106 11.639.056 4.07.079 8.135.336 12.204.403 4.764.089 9.527-.067 14.29-.056 2.957-.056 5.903.151 8.855.184 3.634-.022 7.279-.078 10.929-.056 3.959-.106 7.905.079 11.858-.067 2.231-.044 4.461-.151 6.709-.139 1.481.033 2.957.117 4.438.033 4.143-.089 8.297.229 12.434.358 3.74.022 7.463.335 11.203.458 1.001.023 2.057.14 3.013-.162.129-.078.241-.162.347-.251.346-.218.676-.632.894-.85.783-.895 1.851-1.644 2.253-2.795.565-2.337-1.414-4.048-2.599-5.798h.022zm-145.604-92.758c.162-1.738.251-3.482.285-5.232-.106-3.438.632-7.156 4.405-8.123.99-.263 2.002-.347 3.025-.358.911 0 1.817.033 2.728.056 1.37 0 2.728.022 4.081.045 1.968.078 3.936.106 5.915.089 3.142 0 6.267-.056 9.409-.045h1.151c2.6 0 5.222-.151 7.832-.173h.934c3.679.022 7.385.106 11.092.252h.335c9.308-.09 18.6-.336 27.908-.347.458.011.911.022 1.369.022 2.773.011 5.546-.207 8.33-.184 3.83.022 7.67-.185 11.517-.207h2.46c2.275 0 4.556-.185 6.831-.263.576 0 1.163-.011 1.739-.045 1.632.023 3.276.045 4.914.034 1.861 0 3.74.117 5.613.129h.654c.402 0 .794.022 1.219.106.687.067 1.492-.034 1.967.598.47.458.313 1.152.336 1.739.067 1.448.106 2.901.285 4.349.056.425.106.861.128 1.286v.184c-.022.727-.022 1.437-.033 2.164-.034 2.913 0 5.82 0 8.732v1.935c0 .598 0 1.185-.011 1.772 0 1.448 0 2.884-.011 4.338 0 2.901.011 5.808.033 8.71.022 2.935.034 5.876.045 8.811 0 1.554.011 3.119.011 4.668v4.696c0 1.565-.011 3.119-.022 4.679v4.578c0 1.37-.023 2.74-.012 4.11 0 .76 0 1.52.012 2.275 0 .687.022 1.381.033 2.068.011 1.264.023 2.533.045 3.796 0 .425 0 .861.011 1.286v.078c-.184 0-.358 0-.531-.011h-.771c-.873-.011-1.75-.011-2.634-.011h-3.656c-1.196 0-2.381-.011-3.567-.011-2.275 0-4.545-.023-6.809-.023-2.543 0-5.082.012-7.625 0-4.696-.011-9.398 0-14.105-.011-2.286 0-4.567.023-6.854.034-2.521.011-5.037.045-7.558.078-4.875.056-9.745 0-14.619-.022-2.578-.011-5.144-.023-7.721-.023h-7.614c-2.471 0-4.937-.033-7.408-.044-2.532-.012-5.07-.034-7.603-.045-4.774-.034-9.537-.056-14.311-.056-2.371 0-4.741 0-7.111.045a81 81 0 0 0-3.511.117c-.347.022-.688.045-1.034.078.173-1.023-.012-2.079-.034-3.119-.089-2.739-.151-5.473-.358-8.213-.263-5.361-.481-10.733-.509-16.106-.033-4.221.23-8.464-.089-12.701-.196-3.958-.576-7.917-.621-11.869.068-3.556-.106-7.145.129-10.7h-.034zm-15.698 92.886c2.37-4.315 4.668-8.67 7.167-12.919 3.326-5.317 6.993-10.477 9.593-16.196q.293.05.587.067c.576.056 1.141.09 1.716.118a96 96 0 0 0 3.601.089 769 769 0 0 0 7.133.034c2.382 0 4.914 0 7.363-.012 2.359 0 4.718-.033 7.072-.033 4.981-.022 9.973-.078 14.954-.078s10.181 0 15.279-.023c4.903-.022 9.789-.056 14.692.011 2.51.034 5.015.056 7.525.079 2.242.011 4.472.033 6.72.033h14.216c2.544 0 5.082.011 7.626.011 2.23 0 4.45-.011 6.68-.022 2.427-.011 4.864 0 7.307 0 .716 0 1.426 0 2.141-.022.241 0 .481 0 .727-.011h.229c.285.978.839 1.816 1.264 2.739 0-.011-.012-.022-.023-.045 1.873 3.589 4.406 6.787 6.485 10.259 1.107 1.839 2.13 3.729 3.287 5.534 1.46 2.622 2.924 5.244 4.657 7.682 1.09 1.772 2.186 3.555 3.472 5.188.229.324.414.62.565.911-.336-.034-.654-.078-.99-.106a48 48 0 0 0-2.577-.162 197 197 0 0 0-5.797-.14c-3.232-.045-6.452-.056-9.689-.045h-10.063c-6.719.011-13.445.045-20.165.056-6.775.011-13.551.011-20.327.011h-20.22c-6.916 0-13.815.023-20.719.067-3.393.023-6.787.056-10.191.09-3.394.022-6.798.033-10.192.033-3.393 0-6.58.023-9.867.045-3.276.022-6.558.011-9.834.011h-4.304c-1.437 0-2.946.011-4.417.034-.654 0-1.302 0-1.956.022-.52 0-1.046.011-1.566.022h-.85c.045-.117.107-.218.163-.357.458-1.023 1-1.991 1.509-2.98l.022-.011zm161.179 7.072c-.436.448-.794.968-1.263 1.392 0 0-.022.023-.034.023-.218.033-.469-.011-.715 0-3.45-.056-6.904-.447-10.354-.643-5.59-.106-11.181-.52-16.771-.252-6.167-.195-12.322.162-18.488-.117-7.363.056-14.714.162-22.066.045-4.774-.011-9.537.139-14.311.067-4.819-.067-9.627-.313-14.446-.425a148 148 0 0 0-9.454.045c-3.337-.034-6.658-.079-9.996-.023-5.512.09-11.018.414-16.542.447-4.416-.055-8.844.174-13.261.163-3.751 0-11.32.274-13.467-.425-.934-.313-1.577-1.689-1.806-2.382a1.7 1.7 0 0 1-.173-.632c.447 0 .894 0 1.336.012.654 0 1.325.022 1.979.033.872 0 1.75.011 2.622.023 2.957.033 5.915 0 8.867 0h5.07c1.554 0 3.108.011 4.657.022l9.973.033c3.36 0 6.731.012 10.091.034 6.916.056 13.837.106 20.752.117 6.731 0 13.457-.011 20.187-.011s13.63-.011 20.439-.011c6.81 0 13.445.011 20.165.022 3.014 0 6.027.012 9.051.012h11.137c3.276 0 6.546-.023 9.822-.09 1.632-.033 3.276-.067 4.914-.151a33 33 0 0 0 2.242-.162c.324-.033.643-.067.967-.117h.022c.297 1.023-.044 1.912-1.162 2.991l.011-.045z"/><path fill="#000" d="M419.276 299.546c-1.716-3.438-3.287-7.005-4.808-10.561-.967-2.163-1.632-3.98-4.338-3.555h.022c-30.345.229-60.69.184-91.035.251-6.2 0-12.411-.044-18.6.151-1.012.056-2.219-.139-2.666.956-2.069 2.829-3.316 6.144-4.797 9.308-1.107 2.13-2.303 4.982 1.336 4.915 30.977.542 62.004.033 92.992.139 7.671 0 15.357.045 23.028.034 2.13-.447 9.028 1.286 8.866-1.633zm-3.919.509c-30.641.033-61.277-.09-91.908-.107-9.341.079-18.705-.285-28.03.23-3.014.162-2.6-1.325-1.415-3.461 1.459-3.449 3.589-6.558 5.132-9.973 28.389.391 56.789-.185 85.183-.129 8.788.045 17.643-.24 26.409.034 2.404-.61 5.731 10.549 7.257 12.858-.749.575-1.705.575-2.622.531v.011z"/><path fill="#fff" d="M242.499 241.863c1.263-3.337-3.338-6.485-5.68-3.36-1.414 1.51-1.783 5.362 1.163 5.06 1.23 1.358 3.902-.118 4.511-1.705h.012zm6.765 1.806c.805 5.328-4.657 18.085-17.476 16.045-2.231-.358-1.359-1.566-4.277-.129-1.873 1.208-.643 7.732-5.004 3.522-2.068-1.208-4.142 1.448-5.243-1.459-2.393 1.493-3.886 11.019-6.843 8.268-1.521 1.208-2.415 3.69-5.177 2.566-.945 6.295-4.232 4.875-9.638 4.981-3.047.968-3.254-1.162-2.348-3.577 1.14-4.635 5.915-6.189 8.984-9.365 4.718-3.902 7.463-6.546 12.495-10.029 8.145-5.635 2.079-12.595 8.089-19.108 3.382-3.679 9.051-6.396 14.261-5.266 7.257 1.565 11.226 7.06 12.204 13.551z"/><path fill="#000" d="M238.921 244.815c-5.266-.347-3.544-8.71 1.392-7.559 4.903.85 3.472 8.464-1.392 7.559m.609-.951c3.372-.128 3.383-5.417.023-5.579-3.729-.151-3.472 5.429-.023 5.579"/><path fill="#000" d="M248.928 240.247c-7.167-19.074-33.196-11.041-30.194 8.66-2.449 4.948-8.101 7.296-12.031 10.907-4.21 3.522-9.375 6.082-12.858 10.354-1.403 1.716-1.079 4.416-1.415 6.35-.285 1.655.805 1.851 2.13 1.644 6.144-1.034 9.309 3.024 11.092-4.886 3.718 1.023 3.024-.587 5.188-2.751 1.599 1.404 2.337-.044 2.873-1.52.979-2.002 1.437-4.176 2.863-5.96.738-1.034 1.286.492 1.85.884 1.079.654 2.08-.565 3.131-.738 1.705 1.067 2.862 3.46 4.612 1.23 1.728-1.275.358-4.579 2.924-5.071.274.117.531.229.839.358 11.259 4.657 23.122-8.19 19.002-19.477v.011zm-.553 6.597c-.956 8.123-9.733 14.228-17.61 11.997h.011c-.313-.078-.621-.195-.923-.296-1.023-.509-2.219-.162-3.002.716-1.425 1.313-.218 3.706-2.001 4.679-2.164-1.448-3.131-2.6-5.708-1.079-1.381-1.873-2.51-1.716-3.623-.403l.023-.022-.045.045.022-.023c-1.565 2.209-2.13 5.026-3.544 7.318-2.002-1.448-2.969 1.286-4.098 2.471-.749.045-1.543-.262-2.314-.195-.75-.118-1.068.413-1.253 1.045-1.716 5.523-3.689 3.6-7.245 3.852-1.37.089-3.142.151-3.556.229.012-.458.09-.894.185-1.347 10.398-7.754 20.634-16.174 30.334-24.649.117-.687-.749-1.218-1.286-.76-2.337 1.912-4.657 3.818-6.994 5.719-7.234 6.027-14.691 11.768-21.73 18.024.274-1.336.347-2.958 1.459-3.874 3.567-3.109 7.397-5.876 11.103-8.8 2.773-2.141 5.501-4.327 8.28-6.429 2.51-1.772 5.612-3.947 5.316-7.43-2.795-22.144 29.898-22.708 28.204-.805l-.011.023z"/><path fill="#000" d="M222.725 242.311c-.357-.045-.643-.392-.587-.761.174-1.068.448-2.13.968-3.091 2.079-3.886 5.439-6.306 10.353-6.681 1.946-.151 2.253.565 2.069.772-.347.162-.805.106-1.174.184-2.522.492-4.853 1.034-6.916 2.622-1.207.861-2.499 2.264-3.08 3.667-.425.884-.665 1.84-.911 2.784-.09.325-.414.554-.738.492l.011.012zm24.202 3.208c-.531-.609-.934.023-1.046.61-.089.128-.173.24-.229.391-.207.598-.358 1.208-.598 1.783-.509 1.415-1.219 2.74-2.242 3.841-.716.839-1.403 1.716-2.275 2.382-.425.369-1.415.587-1.107 1.336.358.676 1.151.173 1.666 0 2.348-1.057 3.818-3.287 4.886-5.557.436-.816.883-1.761 1.012-2.706.251-.688.447-1.481-.067-2.08"/></g><defs><clipPath id="a"><path fill="#fff" d="M0 0h560v420H0z"/></clipPath></defs></svg>
