<svg xmlns="http://www.w3.org/2000/svg" width="56" height="56" fill="none"><path fill="#FFF7DB" fill-rule="evenodd" d="M7 37.1c.385 0 .7-.316.7-.7 0-.386-.315-.7-.7-.7s-.7.314-.7.7c0 .384.315.7.7.7m9.1-32.2c.385 0 .7-.315.7-.7s-.315-.7-.7-.7-.7.315-.7.7.315.7.7.7m30.1 28c.385 0 .7-.315.7-.7s-.315-.7-.7-.7-.7.315-.7.7.315.7.7.7m4.9-24.5c.385 0 .7-.315.7-.7s-.315-.7-.7-.7-.7.315-.7.7.315.7.7.7M25.2 51.1c.385 0 .7-.316.7-.7 0-.386-.315-.7-.7-.7s-.7.314-.7.7c0 .384.315.7.7.7" clip-rule="evenodd"/><path fill="#FEC34B" d="M14.23 25.326a.69.69 0 0 1-.65-.448 14.6 14.6 0 0 1-.98-5.278c0-1.82.329-3.598.98-5.278a.69.69 0 0 1 .903-.399.7.7 0 0 1 .399.903A13.2 13.2 0 0 0 14 19.6c0 1.645.294 3.255.882 4.774a.698.698 0 0 1-.651.952m-3.361 2.478a.69.69 0 0 1-.622-.385A17.3 17.3 0 0 1 8.4 19.6c0-2.744.623-5.376 1.848-7.819a.71.71 0 0 1 .938-.315.71.71 0 0 1 .315.938 15.9 15.9 0 0 0-1.694 7.19c0 2.526.574 4.941 1.694 7.188a.695.695 0 0 1-.315.938.7.7 0 0 1-.315.077zm29.744-.147a.702.702 0 0 1-.595-1.071 13.26 13.26 0 0 0 1.98-6.986c0-2.478-.685-4.9-1.98-6.986a.702.702 0 0 1 1.19-.742 14.63 14.63 0 0 1 2.19 7.728c0 2.744-.755 5.411-2.19 7.728a.7.7 0 0 1-.595.33m3.724 1.553a.694.694 0 0 1-.588-1.071 16.06 16.06 0 0 0 2.457-8.54c0-3.03-.847-5.985-2.457-8.54a.71.71 0 0 1 .217-.966.71.71 0 0 1 .966.217 17.4 17.4 0 0 1 2.667 9.282 17.44 17.44 0 0 1-2.667 9.282.71.71 0 0 1-.595.33zM28.7 26.6h-1.4c-1.155 0-2.1-.945-2.1-2.1v-1.876h1.4V24.5c0 .385.315.7.7.7h1.4c.385 0 .7-.315.7-.7v-1.876h1.4V24.5c0 1.155-.945 2.1-2.1 2.1"/><path fill="#FEC34B" d="M28 23.8a.7.7 0 0 1-.7-.7c0-.385.315-.7.7-.7a4.1 4.1 0 0 0 1.792-.406A4.16 4.16 0 0 0 32.2 18.2c0-2.317-1.883-4.2-4.2-4.2a4.203 4.203 0 0 0-4.2 4.2c0 1.638.917 3.094 2.4 3.794.35.168.498.581.337.931a.704.704 0 0 1-.931.336 5.54 5.54 0 0 1-3.2-5.054c0-3.087 2.514-5.6 5.6-5.6 3.088 0 5.6 2.513 5.6 5.6a5.54 5.54 0 0 1-3.198 5.054 5.5 5.5 0 0 1-2.401.546z"/><path fill="#FEC34B" d="M28 21a.7.7 0 0 1-.7-.7v-2.1c0-.385.315-.7.7-.7s.7.315.7.7v2.1c0 .385-.315.7-.7.7"/><path fill="#FEC34B" d="M29.4 18.9h-2.8a.7.7 0 0 1-.7-.7c0-.385.315-.7.7-.7h2.8c.385 0 .7.315.7.7s-.315.7-.7.7"/><path fill="#0D0C21" d="M28 30.798c-6.174 0-11.2-5.026-11.2-11.2s5.026-11.2 11.2-11.2 11.2 5.026 11.2 11.2c0 2.597-.91 5.124-2.555 7.126a.7.7 0 0 1-.987.091.693.693 0 0 1-.09-.987 9.82 9.82 0 0 0 2.24-6.23c0-5.404-4.397-9.8-9.8-9.8-5.405 0-9.8 4.396-9.8 9.8s4.395 9.8 9.8 9.8a9.72 9.72 0 0 0 5.718-1.84.705.705 0 0 1 .98.16.705.705 0 0 1-.16.98 11.1 11.1 0 0 1-6.539 2.107z"/><path fill="#0D0C21" d="M44.1 46.898a.7.7 0 0 1-.7-.7c0-8.49-6.909-15.4-15.4-15.4a15.36 15.36 0 0 0-12.866 6.937.7.7 0 0 1-.973.196.7.7 0 0 1-.196-.973A16.78 16.78 0 0 1 28 29.398c9.261 0 16.8 7.54 16.8 16.8 0 .385-.315.7-.7.7m-32.2 0a.7.7 0 0 1-.7-.7c0-2.275.448-4.48 1.33-6.559a.7.7 0 0 1 .917-.37c.357.153.525.56.371.916a15.4 15.4 0 0 0-1.218 6.006c0 .385-.315.7-.7.7z"/></svg>
