<svg xmlns="http://www.w3.org/2000/svg" width="282" height="211" fill="none"><g clip-path="url(#a)"><path fill="#000" d="M93.032 91.222c-1.341-2.8.67-6 3.205-7.297 1.025-.56 2.335-.68 3.156-1.569-.555-1.043-1.279-1.992-1.849-3.028-.724-1.222-1.422-2.477-2.118-3.699-.596-1.227-2.485-3.391-.975-4.553.975-.74 1.974-1.453 2.97-2.164 1.994-1.45 4.256-2.477 6.29-3.855 1.557-1.121-.007-1.547-.821-2.365-.884-.826-1.529-1.96-1.583-3.188-.078-1.731.53-3.52 1.702-4.807 1.626-1.722 3.982-2.787 6.257-1.64 1.98 1.036 2.369 2.783 2.726 4.803.16.476.251 1.09.69 1.39.266-.05.532-.234.739-.347 3.227-1.91 6.242-4.15 9.3-6.31.367-.285 1.069-.558 1.285.034.134.454-.317.764-.624 1.009-.363.297-.742.573-1.122.851a123 123 0 0 1-6.636 4.563c-.868.514-1.689 1.175-2.667 1.46-2.071.219-2.221-2.66-2.597-4.1-.332-1.597-1.896-2.759-3.529-2.543-1.923.398-3.572 2.008-4.035 3.915-.668 2.462.373 3.592 2.24 4.967 1.022.874.746 2.348-.257 3.116-1.676 1.315-3.685 2.139-5.446 3.335a68 68 0 0 0-4.145 2.95c.037.601.429 1.15.692 1.653.668 1.147 1.335 2.33 1.984 3.474a68 68 0 0 0 2.146 3.545c.376.595.953 1.321.595 2.054-.843 1.447-2.7 1.588-4.042 2.352-1.874 1.124-3.468 3.639-2.184 5.746 1.316 2.287 3.691 3.17 6.054 1.832.971-.504 1.467-1.512 2.159-2.31.32-.376.667-.733 1.047-1.053.535-.388 1.087-1.015 1.804-.946.448.063.643.555.846.887.326.57.699 1.114 1.078 1.619 1.818 2.283 3.691 4.631 5.941 6.482 1.088-.441 2.028-1.187 3.024-1.8 2.338-1.523 4.684-3.029 6.991-4.598-1.73-.974-3.522-1.832-3.861-4.011-.442-2.38 1.536-5.233 3.528-6.402 1.846-1.143 4.607-1.174 6.158.483 1.334 1.387 1.131 3.41 1.375 5.173 1.702-.836 3.162-2.08 4.735-3.128a117 117 0 0 1 3.913-2.64c.508-.342 1.038-.652 1.483-1.068l-.029-.075.141-.01q.343-.024.68-.053l.508.21c-.025.473-.292.88-.815 1.227-.783.595-1.626 1.103-2.447 1.644-1.401.93-2.779 1.898-4.152 2.866-1.071.698-3.074 2.405-4.318 2.393-1.225-.107-.999-1.7-1.134-2.587-.069-1.203-.185-2.593-1.234-3.373-2.398-1.54-5.252.204-6.462 2.43-.905 1.579-1.052 3.32.489 4.529.831.632 1.852.99 2.651 1.66.68.579.295 1.35-.366 1.731-.815.57-1.649 1.112-2.476 1.663-2.237 1.453-4.452 2.938-6.715 4.347-.677.376-1.548 1.02-2.312.532-.674-.479-1.26-1.061-1.843-1.647-1.256-1.246-2.406-2.6-3.525-3.974-.789-.968-1.582-1.951-2.181-3.057-.752.51-1.388 1.172-1.933 1.895-.439.598-.862 1.218-1.46 1.666-2.933 2.145-6.33 1.362-8.203-1.453a8 8 0 0 1-.486-.842z"/><path fill="#000" d="M123.539 52.36c.573-.043.933.54 1.306.884 2.463 2.756 4.885 5.568 7.072 8.552l-.448.213q-.36.181-.717.37-.009 0-.016.006c-2.294-3.09-4.847-5.99-7.373-8.894a1 1 0 0 1-.132-.153c-.238-.357-.213-.868.308-.977m17.089 27.529c-.721-1.718-1.561-3.388-2.435-5.035a132 132 0 0 0-2.845-5.274l.141-.112c.144-.116.292-.232.436-.351q.118-.094.232-.188l.012-.01q.11-.07.223-.147c1.698 2.957 3.261 5.991 4.756 9.054.226.507.47 1.012.655 1.538.204.704-.755 1.165-1.163.554l-.015-.025z"/><path fill="#000" d="M135.295 68.884c.379-.704 1.106-1.171 1.802-1.528.94-.48 1.977-.542 2.961-.846 1.087-.357 2.036-1.161 2.597-2.154.636-1.387.257-3.097-.514-4.356-1.206-1.823-3.653-2.762-5.417-1.118-.696.598-1.132 1.425-1.771 2.076a5.9 5.9 0 0 1-1.67 1.246 4.9 4.9 0 0 1-1.372.401c-.332.041-.702.094-1.006-.075-.357-.2-.348-.739.003-.94.457-.231 1.009-.194 1.488-.385 1.473-.476 2.197-1.925 3.196-2.98 1.514-1.589 3.814-1.918 5.694-.771 2.14 1.259 3.274 3.886 2.886 6.316-.191 1.193-.968 2.186-1.88 2.938-.687.598-1.526.983-2.407 1.193-1.219.27-2.594.504-3.418 1.538-.408.701-1.467.219-1.169-.555z"/><path fill="#000" d="M141.282 57.45c-1.88-1.147-4.18-.818-5.693.77-1 1.055-1.724 2.505-3.196 2.981-.251.1-.52.138-.787.185-2.105-2.831-4.415-5.512-6.765-8.142-.294-.276-.586-.692-.977-.833-.295-.285-.84-.057-1.147.184-3.062 2.158-6.073 4.4-9.3 6.31-.207.114-.476.295-.74.348-.438-.303-.529-.917-.689-1.39-.36-2.02-.746-3.767-2.726-4.804-2.275-1.143-4.628-.081-6.258 1.64-1.171 1.288-1.779 3.076-1.701 4.808.053 1.224.702 2.358 1.582 3.188.815.817 2.379 1.243.821 2.364-2.036 1.378-4.296 2.406-6.288 3.856-.997.71-1.993 1.424-2.97 2.163-1.511 1.162.378 3.326.974 4.554.695 1.221 1.394 2.477 2.118 3.698.573 1.037 1.294 1.989 1.848 3.029-.817.89-2.13 1.005-3.155 1.569-2.538 1.3-4.55 4.5-3.205 7.297q.222.446.485.842c1.874 2.815 5.27 3.601 8.204 1.453.598-.448 1.024-1.071 1.46-1.666.545-.724 1.181-1.384 1.933-1.895.599 1.103 1.391 2.086 2.181 3.057 1.119 1.371 2.265 2.727 3.525 3.974.583.582 1.169 1.168 1.843 1.647.764.489 1.635-.156 2.312-.532 2.262-1.41 4.478-2.897 6.715-4.347.827-.551 1.661-1.096 2.475-1.663.658-.385 1.044-1.156.367-1.732-.799-.673-1.821-1.027-2.651-1.66-1.542-1.208-1.394-2.95-.489-4.528 1.207-2.227 4.064-3.968 6.461-2.43 1.05.777 1.166 2.167 1.235 3.373.135.886-.094 2.48 1.134 2.587 1.244.012 3.243-1.695 4.318-2.393a195 195 0 0 1 4.152-2.866c.818-.541 1.664-1.049 2.447-1.644.523-.347.79-.754.815-1.227l-.119-.05q-.001-.074-.025-.154c-.185-.523-.43-1.027-.655-1.537-1.42-2.907-2.902-5.785-4.503-8.597.837-.858 2.102-1.08 3.234-1.33.883-.21 1.72-.596 2.406-1.194.912-.755 1.689-1.744 1.88-2.937.389-2.43-.746-5.058-2.886-6.317zm1.373 6.905c-.561.996-1.511 1.797-2.598 2.154-.984.304-2.021.367-2.961.846-.696.357-1.423.824-1.802 1.528-.103.27-.04.501.101.661l-.044.034a136 136 0 0 1 2.845 5.274c.827 1.56 1.62 3.138 2.312 4.76-.413.354-.883.642-1.338.946a115 115 0 0 0-3.913 2.64c-1.573 1.046-3.03 2.292-4.735 3.129-.241-1.764-.041-3.787-1.375-5.174-1.552-1.66-4.312-1.625-6.158-.482-1.992 1.168-3.973 4.02-3.528 6.4.339 2.18 2.134 3.039 3.861 4.013-2.307 1.569-4.654 3.075-6.991 4.597-.993.614-1.937 1.362-3.024 1.8-2.247-1.85-4.12-4.199-5.941-6.482a16 16 0 0 1-1.078-1.62c-.2-.331-.398-.823-.846-.885-.717-.066-1.269.557-1.805.945a9.5 9.5 0 0 0-1.046 1.053c-.693.798-1.188 1.807-2.159 2.31-2.363 1.338-4.74.455-6.054-1.831-1.281-2.108.31-4.62 2.184-5.747 1.344-.764 3.2-.905 4.042-2.352.358-.73-.219-1.456-.595-2.054a69 69 0 0 1-2.146-3.545c-.652-1.143-1.32-2.327-1.984-3.473-.263-.504-.655-1.052-.692-1.654 1.35-1.027 2.723-2.026 4.145-2.95 1.764-1.193 3.773-2.016 5.446-3.335 1.003-.767 1.275-2.239.257-3.116-1.868-1.375-2.908-2.505-2.24-4.967.463-1.907 2.111-3.517 4.035-3.914 1.63-.22 3.196.946 3.529 2.543.376 1.44.523 4.318 2.597 4.099.978-.288 1.799-.946 2.667-1.46a123 123 0 0 0 6.636-4.562c.379-.279.759-.555 1.122-.852l.063-.05c2.5 2.872 5.019 5.74 7.288 8.797q.004 0 .009-.003c.041.056.091.11.16.147.307.166.674.112 1.006.075a4.8 4.8 0 0 0 1.373-.4 5.8 5.8 0 0 0 1.67-1.247c.639-.652 1.074-1.478 1.77-2.077 1.764-1.64 4.211-.704 5.418 1.118.77 1.26 1.15 2.97.514 4.357z"/><path fill="#FED980" d="M135.253 83.2c-1.573 1.047-3.03 2.293-4.735 3.126-.241-1.763-.041-3.786-1.376-5.173-1.551-1.657-4.311-1.626-6.157-.483-1.993 1.169-3.97 4.018-3.528 6.402.338 2.18 2.134 3.037 3.86 4.011-2.306 1.572-4.653 3.076-6.99 4.598-.994.613-1.937 1.362-3.024 1.803-2.247-1.854-4.12-4.2-5.941-6.482a16 16 0 0 1-1.078-1.62c-.2-.334-.398-.823-.846-.886-.717-.065-1.269.558-1.805.946a10 10 0 0 0-1.046 1.053c-.693.795-1.188 1.806-2.159 2.31-2.363 1.341-4.741.455-6.054-1.828-1.281-2.108.31-4.62 2.184-5.747 1.341-.764 3.2-.905 4.042-2.352.357-.73-.219-1.456-.595-2.054a68 68 0 0 1-2.147-3.545c-.651-1.143-1.316-2.327-1.986-3.473-.263-.504-.655-1.052-.69-1.654 1.351-1.027 2.723-2.026 4.146-2.95 1.764-1.193 3.773-2.016 5.446-3.335 1.003-.767 1.275-2.239.257-3.116-1.865-1.375-2.908-2.505-2.237-4.967.463-1.907 2.111-3.513 4.035-3.914 1.63-.22 3.196.946 3.529 2.543.376 1.437.523 4.321 2.597 4.099.978-.288 1.799-.946 2.667-1.46a123 123 0 0 0 6.636-4.562c.379-.279.759-.555 1.122-.852l.063-.05c2.5 2.872 5.019 5.74 7.288 8.797h.006q.063.089.163.144c.307.166.674.112 1.006.075.47-.069.943-.194 1.372-.4a5.8 5.8 0 0 0 1.671-1.247c.639-.652 1.074-1.479 1.77-2.077 1.764-1.64 4.211-.704 5.418 1.118.77 1.263 1.15 2.97.514 4.357-.561.995-1.511 1.797-2.598 2.154-.984.304-2.021.367-2.961.846-.696.357-1.423.823-1.802 1.528-.103.27-.044.501.097.664q-.022.017-.04.034a136 136 0 0 1 2.845 5.274c.827 1.56 1.626 3.138 2.318 4.76-.413.357-.886.639-1.341.946a115 115 0 0 0-3.913 2.64zm-43.662 78.28c-9.964 16.147-40.812 15.627-45.287 15.452-28.46-.715-45.986-15.659-45.973-15.947 1.043-11.368 6.057-104.867 6.047-105.86-3.199-2.871-2.848-7.64-2.54-11.562.109-2.702.52-4.74 3.342-5.759 1.896-.692 3.648.166 4.939 1.526.028-.996.069-3.023.316-3.99.404-1.591 6.593-5.81 11.268-5.183 10.07 1.35 8.905 5.994 9.065 5.928.495-.185 2.55-.222 2.61-.955.16-1.556.207-5.18.592-6.708.564-2.264 4.938-2.534 6.903-2.847 2.034-.238 4.086-.156 6.126-.066 2.316.029 4.948.72 6.192 2.84.883 1.99.347 4.345.225 6.443.326.917 1.61 1.434 2.491 1.656 1.163.351 1.053-1.61 1.445-2.289.291-.67 5.076-5.32 10.926-3.758 9.607 2.565 8.448 7.16 8.357 8.052-.383 2.658 4.405.087 6.436 1.193 2.347 1.697 2.293 6.113 2.284 8.8.182 3.83-1.479 4.732-2.526 7.3-.015.047 6.725 103.539 6.766 105.734z"/><path fill="#fff" d="M58.789 17.383c-3.873-1.434-7.828-2.774-12.001-2.511a.5.5 0 0 1-.304-.094.46.46 0 0 1-.326.063 1 1 0 0 1-.138-.038.53.53 0 0 1-.254.11c-.272.034-.57-.166-.592-.451-.179-2.493-.244-4.99-.288-7.488-.013-.79-.01-1.582-.016-2.37.028-.593-.084-1.232.104-1.802.256-.363.66-.272.84.02 3.781-.893 8.93.597 12.254 2.373 4.186 2.151 7.43 5.74 11.512 8.03 1.52.77 3.2 1.12 4.885 1.284.31-.63 1.457-.267 1.019.532-.223.36-.586.61-.906.877-2.544 2-5.756 3.263-9.012 3.294h-.025c-2.381 0-4.559-1.043-6.755-1.829z"/><path fill="#A7A6B5" d="M7.003 41.775c-.097-.849-.104-1.707-.229-2.55-.263-.244-.172-.785.179-.898-.041-.78 1.034-.69 1.566-.774.593-.044 1.185-.044 1.755.144 1.45.37 1.946 2.055 1.57 3.37-.548 1.365-2.35 2.44-3.785 2.508-.947-.022-.987-1.086-1.06-1.797zm19.674-4.801c-.83-.372-.608-1.631-.718-2.386-.05-.736-.084-1.472-.197-2.199a9 9 0 0 0-.172-.81c-.063-.242-.17-.505-.028-.736a.46.46 0 0 1 .58-.176c.347-.078.67.2.999.288 1.313.51 2.732.89 3.829 1.817.805.695 2.225 2.452 1.2 3.435-.332.22-.749.276-1.128.376q-1.11.253-2.237.407c-.427.04-.868.125-1.304.125-.279 0-.555-.034-.82-.138zm35.106-.134c-1.17-.002-3.297.023-2.84-1.725.183-.664.364-1.82.969-2.208 1.316-1.146 2.87-2.157 4.61-2.483 1.146-.178 1.115.733.99 1.569-.142 2.317-.637 4.866-3.325 4.866q-.193 0-.404-.018m19.012 5.621c-.843-.486-1.695-1.256-1.918-2.24-.072-.45.486-.791.834-.478.326-.38.887-.336 1.335-.455.463-.075 1.134-.263 1.42.242.2.429-.057.886-.148 1.312-.172.62-.457 1.685-1.188 1.685a.9.9 0 0 1-.335-.07z"/><path fill="#000" d="M32.167 35.645c-.17-.824-.458-1.695-1.084-2.287-.984-.77-2.162-1.24-3.312-1.706-1.2-.473-2.288-.849-3.5-1.159-.777-.088-.762-.97.05-.936 1.347.15 2.626.673 3.888 1.14 1.291.52 2.607 1.052 3.666 1.96.574.557.912 1.315 1.15 2.067.27 1.08.427 1.218-.26 1.359a.54.54 0 0 1-.599-.441zm26.586.895c-.768-.142-.354-1.113-.326-1.636.257-1.922 1.21-2.693 2.877-3.485 1.363-.639 3.832-1.5 5.286-1.914.257-.06.545.123.545.398.006.226-.163.363-.342.46-.376.204-1.892.495-2.28.68-1.43.72-2.968 1.278-4.247 2.23-.76.708-.808 1.835-.927 2.806-.022.266-.266.463-.523.463q-.03 0-.06-.003zm19.861 3.338c-.163-.786.886-.736 1.397-.861.94-.116 2.87-.404 3.814-.426.25.063.432.344.35.598-.247.608-2.183.507-2.726.664-.636.1-1.275.188-1.905.316a1.3 1.3 0 0 1-.404.075c-.235 0-.451-.094-.53-.366z"/><path fill="#000" d="M92.185 161.183a.4.4 0 0 0-.116-.141l-.2-3.339q-.301-4.947-.596-9.896l-.737-12.247q-.379-6.363-.764-12.724c-.263-4.391-.53-8.778-.793-13.169-.25-4.222-.507-8.443-.761-12.665q-.376-6.27-.755-12.545l-.73-12.1c-.254-4.203-.508-8.41-.775-12.612a692 692 0 0 0-.206-3.191l-.013-.182v-.006c-.031-.454-.06-.905-.097-1.356a5 5 0 0 0-.028-.307c.37-.366.717-.94 1.015-1.152 1.658-1.44 1.78-3.733 1.592-5.778-.314-2.302-.677-4.616-1.266-6.865-.448-1.688-2.31-2.677-3.97-2.208-.85.345-.906 1.453-1.05 2.233-.131.442-.22 1.193-.717 1.328-.793-.344-1.41-1.033-1.799-1.794-.865-1.832.592-3.862-.417-5.763-.808-1.941-2.992-2.646-4.787-3.398-1.62-.617-3.247-1.243-4.939-1.65-6.295-1.563-3.453 4.31-5.139 6.508-.548.282-1.197.219-1.833.16a7 7 0 0 0-.88-.05c-1.197-.082-2.407-.207-3.594-.44-.755-.184-2.096-.36-1.82-1.446.184-2.12.614-4.387-.17-6.442-1.37-3.025-7.777-2.966-10.663-2.956-2.635.147-8.106.658-9.983 2.508-.526.871-.332 1.989-.35 2.97.012 1.578.316 3.203.037 4.762-1.573.473-3.221.683-4.844.946-1.172.113-2.36.495-3.535.329-.103-2.653.207-7.544-3.72-7.084a23.3 23.3 0 0 0-8.328 2.982c-1.275.867-2.594 2.048-2.842 3.645a13 13 0 0 0-.066 1.688 2.2 2.2 0 0 0-.582-.432c-.724-.367-1.564-.285-2.347-.213-.856.062-1.652.388-2.41.764-1.128.513-2.485 1.287-2.795 2.605-.317 2.077-.307 4.194-.32 6.289.088 2.75-.172 7.09 2.592 8.627q.105.066.219.123-.134 2.372-.27 4.74l-.695 12.23q-.356 6.216-.708 12.433-.366 6.435-.737 12.87-.374 6.634-.755 13.26-.38 6.628-.755 13.257l-.746 13.121C1 141.604.761 145.8.532 149.993c-.116 2.127-.235 4.25-.344 6.373-.054 1.027-.11 2.055-.154 3.079-.012.354-.025.707-.031 1.061 0 .163-.01.329.006.492.013.138.035.263.129.373.012.012.028.018.043.031.025.103.082.2.163.272q.306.269.618.533a46 46 0 0 0 4.468 3.319 61 61 0 0 0 8.548 4.642 81 81 0 0 0 10.578 3.839 91 91 0 0 0 11.02 2.433c3.801.592 7.636.98 11.481 1.118a95 95 0 0 0 3.419.063c2.372 0 4.747-.091 7.113-.279a78 78 0 0 0 10.124-1.472c3.406-.729 6.765-1.728 9.986-3.059 3.155-1.306 6.204-2.938 8.905-5.042 1.291-1.006 2.504-2.117 3.578-3.354a20 20 0 0 0 1.3-1.666q.252-.361.483-.739c.147-.245.367-.536.229-.834zM9.243 38.099c.567-.034 1.238-.034 1.623.454.28.354.477.761.655 1.171 0 .007.006.013.01.02-.035.594-.12 1.18-.314 1.75-.805.911-2.102 1.406-3.246 1.766-.36-1.547-.341-3.141-.435-4.72 0-.037-.007-.078-.01-.118a5.2 5.2 0 0 1 1.714-.32zm-4.932 3.51c.035-.788.163-1.424.834-1.922.42-.35.912-.598 1.403-.833-.012 1.371.066 2.75.289 4.102.122 2.383 2.434.996 3.669.37.915-.467 1.842-1.14 1.927-2.252.404-1.835-.179-3.824.442-5.596 1.78-2.969 6.163-4.134 9.353-4.91 3.375-.997 3.133 3.16 3.18 5.355-.169 1.59 1.038 1.857 2.329 1.634 2.362-.307 4.734-.63 7.05-1.196 1.786-.288 1.147-2.559 1.203-3.843.028-1.274-.407-3.366.122-4.475 1.918-1.187 4.293-1.434 6.48-1.8 3.626-.342 7.498-.433 10.945.898 2.25.968 1.686 3.85 1.557 5.857-.065 1.027-.504 2.333.461 3.072 1.742 1.108 3.989 1.043 5.982 1.262 3.149.354 4.173-.216 4.264-3.51.16-1.069-.147-2.888 1.11-3.333 2.353-.166 4.524.97 6.724 1.713 2.19.814 5.038 1.889 4.687 4.735-.072.952-.388 1.895-.21 2.853.308 1.54 1.649 3.46 3.34 3.508 1.596-.417 1.339-2.434 1.9-3.62 2.663-.486 2.864 2.436 3.199 4.327.326 1.864.786 3.74.664 5.644-.056.598-.094 1.24-.326 1.803q-.481-.545-1.018-1.04h-.003s-.003-.009-.007-.009a18 18 0 0 0-1.526-1.243c-1.497-1.096-3.13-1.998-4.81-2.784-1.926-.902-3.925-1.654-5.953-2.299a74 74 0 0 0-6.583-1.747 90 90 0 0 0-5.697-1.055q-4.152-.637-8.34-.95a118 118 0 0 0-8.016-.331c-2.582-.016-5.164.047-7.74.2-2.983.179-5.96.473-8.917.918-3.074.46-6.13 1.064-9.125 1.904-2.97.833-5.91 1.87-8.635 3.329-1.351.72-2.651 1.56-3.804 2.568-.872.76-1.661 1.634-2.247 2.633l-.019-.093c-.323-1.804-.304-3.655-.31-5.484.006-1.456.06-2.913.175-4.363zm.52 11.237c.22-.363.649-1.002.803-1.224q.36-.508.78-.968c.373-.401.77-.774 1.187-1.128a19 19 0 0 1 2.012-1.446 28 28 0 0 1 3.105-1.654c1.793-.814 3.648-1.481 5.528-2.054 2.936-.883 5.972-1.541 9.03-2.042 0 0 .019 0 .028-.003a90 90 0 0 1 4.44-.608 110 110 0 0 1 8.909-.626 115 115 0 0 1 6.655-.003c2.754.075 5.508.247 8.25.52 1.955.197 3.973.45 5.982.77a90 90 0 0 1 6.126 1.184c.786.181 1.632.391 2.478.617a63 63 0 0 1 5.502 1.728 43 43 0 0 1 4.81 2.108c.972.51 1.943 1.08 2.867 1.722.02.013.035.026.054.035.582.41 1.184.88 1.748 1.393a13 13 0 0 1 1.156 1.2c-.539.607-1.397 1.469-1.566 2.13 0 .012-.007.025-.01.034a.8.8 0 0 0-.016.26v.081a.2.2 0 0 0-.03-.037l-.017-.02-.003-.002.013.012a12.4 12.4 0 0 0-1.498-1.484 18 18 0 0 0-2.303-1.629 29 29 0 0 0-3.503-1.775c-1.87-.805-3.81-1.456-5.775-2.008-2.804-.786-5.662-1.371-8.542-1.822a99 99 0 0 0-8.215-.921 117 117 0 0 0-17.215.056c-2.313.179-4.62.426-6.913.755-2.18.31-4.355.692-6.508 1.159A69 69 0 0 0 17.302 49c-2.159.708-4.286 1.541-6.307 2.584a24.5 24.5 0 0 0-2.996 1.807q-.527.375-1.018.792c-.066.057-.348.295-.558.48-.836-.53-1.294-1.084-1.592-1.814zM90.518 162.38a24 24 0 0 1-1.996 2.311 28 28 0 0 1-2.598 2.289 34 34 0 0 1-3.716 2.471 44 44 0 0 1-5.004 2.434 57 57 0 0 1-6.721 2.245 72 72 0 0 1-8.82 1.732c-.114.016-.29.037-.468.059a87 87 0 0 1-10.387.658h-.545a94 94 0 0 1-5.452-.175c-1.909-.119-3.81-.298-5.706-.52h-.02l-.021-.003-.8-.101a94 94 0 0 1-11.145-2.148 90 90 0 0 1-4.975-1.444 82 82 0 0 1-4.91-1.766c-2.667-1.068-5.337-2.308-7.903-3.742a53 53 0 0 1-5.756-3.721 42 42 0 0 1-2.548-2.066.5.5 0 0 0-.172-.098c.006-.068.019-.134.025-.203.035-.329.06-.658.085-.99.072-.949.128-1.901.185-2.853q.383-6.305.749-12.611.372-6.456.739-12.912c.25-4.425.508-8.85.758-13.275l.752-13.156.752-13.197q.364-6.394.73-12.783l.687-12.054.642-11.261c.207-.166.796-.652.953-.768.479-.363.977-.704 1.485-1.027a30 30 0 0 1 3.462-1.854c1.952-.89 3.973-1.619 6.026-2.242.962-.291 2.002-.58 3.045-.84a86 86 0 0 1 6.953-1.427c2.043-.332 4.14-.608 6.24-.818a116 116 0 0 1 9.76-.56 115 115 0 0 1 11.621.413q.29.025.577.053l.279.025q.029.001.056.007h.003l.245.025c.69.069 1.375.144 2.065.228 2.898.351 5.778.83 8.623 1.478 2.228.514 4.496 1.15 6.705 1.958a35 35 0 0 1 3.936 1.716h.006l.044.025c.815.429 1.63.908 2.406 1.45.493.35.972.72 1.42 1.127q.513.465.962.99c.006.01.016.019.022.028l.943 1.165q.014.228.022.457c.22 4.112.47 8.224.714 12.333q.367 6.134.737 12.266.367 6.16.74 12.314l.757 12.614q.395 6.52.784 13.044l.774 12.868q.375 6.267.755 12.536l.686 11.402q.136 2.278.276 4.56c.01.141.05.269.154.373l.025.018-.123.179q-.27.392-.554.773z"/><path fill="#000" d="M45.289 25.86a.53.53 0 0 1-.527-.514q-.034-1.226-.072-2.452-.07-2.523-.144-5.045-.085-2.936-.166-5.872c-.056-2.067-.116-4.137-.17-6.207l-.043-1.707a83 83 0 0 1-.032-1.302c0-.12-.009-.242.004-.364a.5.5 0 0 1 .607-.422c.198.05.336.213.364.4.016.1.016.204.022.304l.016.382q.014.395.025.786.022.776.05 1.55.05 1.58.097 3.154.093 3.031.182 6.063.083 2.93.172 5.866l.097 3.429.04 1.406a.53.53 0 0 1-.513.538h-.013z"/><path fill="#000" d="M74.812 14.962c-6.65-.32-11.688-6.22-17.174-9.395a19 19 0 0 0-6.28-2.349c-1.97-.328-4.06-.535-5.997.063-.16.05-.307.147-.473.179-.464.072-.661-.526-.317-.818.408-.344.956-.463 1.464-.582.78-.147 1.573-.185 2.365-.185 8.119.166 12.255 4.635 18.444 8.897 2.986 1.998 6.652 3.843 10.315 2.881.66-.172.955.808.285 1.012-.758.169-1.53.31-2.31.31-.106 0-.216 0-.322-.01z"/><path fill="#000" d="M64.237 19.863a17 17 0 0 1-2.647-.627c-1.799-.57-3.526-1.33-5.283-2.007a39 39 0 0 0-1.63-.586 24 24 0 0 0-2.901-.767c-.837-.157-1.68-.26-2.51-.307a42 42 0 0 0-2.572-.025c-.264.006-.527.006-.79.022-.195.028-.389.069-.586.072a.65.65 0 0 1-.317-.075.46.46 0 0 1-.22-.508c.051-.216.245-.316.44-.372.181-.053.37-.085.554-.12.129-.021.263-.018.392-.024l.338-.016q.37-.016.746-.022a26 26 0 0 1 2.858.082c1.855.166 3.666.632 5.42 1.243 1.802.63 3.55 1.41 5.346 2.06q.364.133.727.251c.724.238 1.457.442 2.19.586a14 14 0 0 0 1.695.206c.59.029 1.175.02 1.693-.021.5-.044 1-.116 1.491-.217q.608-.135 1.197-.338.75-.273 1.47-.626c.72-.367 1.413-.783 2.086-1.23.868-.59 2.723-2.027 3.544-2.685a.53.53 0 0 1 .737.094.53.53 0 0 1-.094.74c-.665.528-2.36 1.85-3.052 2.342a23 23 0 0 1-2.288 1.44c-.799.43-1.626.793-2.49 1.062-.906.282-1.85.426-2.796.485a13 13 0 0 1-2.757-.11z"/><path fill="#313144" d="M63.285 85.65c0 1.889.232 3.793-.016 5.672-1.604-.774-3.177-2.064-5.07-1.72-2.24.373-3.741 2.688-3.81 4.858-.132 2.305 1.15 5.53 3.381 6.482 2.002.924 3.71-.094 5.48-.992.032 2.787-.012 5.577-.04 8.364-.038 1.168.062 2.365-.173 3.514-2.788.846-5.78 1.106-8.692 1.353-.63.037-1.288.044-1.942 0-.39-.016-.906-.125-1.207.213-.454.56-.238 1.365-.213 2.026.06.492.163.977.298 1.453.282 1.018.849 1.989.73 3.075-.195 2.709-2.244 4.197-4.879 4.028-2.466-.1-3.679-2.816-3.578-4.998.106-1.541 1.015-3.163.279-4.667-.41-.701-1.335-.626-2.04-.642a70 70 0 0 1-4.143-.175c-1.312-.091-2.67-.191-3.995-.272-.564-.063-1.24-.038-1.76-.342a67 67 0 0 1-.164-5.086c-.019-2.129.408-4.255.238-6.379-.084-1.259-1.159-2.302-2.453-1.938-2.178.792-3.697 1.033-5.377-.886-1.332-1.441-1.76-3.705-1.028-5.525.721-1.478 2.557-2.136 4.07-1.528 1.407.482 3.89 1.957 4.854.11.301-.971.207-2.02.26-3.026.044-2.683.007-5.37-.125-8.051-.022-.47-.044-.94-.088-1.406q0-.038-.006-.082c3.776-.491 7.56-1.002 11.368-1.196v-.006a.44.44 0 0 0 .213-.056c.307-.163.47-.499.62-.8.201-.428.36-.892.427-1.365a5.7 5.7 0 0 0-.113-2.079c-.188-.892-.636-1.713-.749-2.621-.392-2.377 1.745-3.896 3.932-3.89 1.476.057 3.109.686 3.914 1.986.517 1.018.661 2.252.357 3.354-.291.986-.814 1.885-.934 2.931-.087.777-.103 1.641.273 2.346.166.234.395.313.608.285q0 .028.003.053c1.993.134 3.986.329 5.97.554 1.757.176 3.515.385 5.25.708.07.542.042 1.093.045 1.64-.025 1.573-.007 3.148.031 4.72z"/><path fill="#000" d="M63.31 98.533c-1.003.294-1.864.945-2.851 1.287-1.862.614-3.231-.473-4.043-2.102-1.187-2.236-1.055-5.58 1.555-6.72 1.228-.442 2.453.228 3.493.84.812.378 2.015 1.45 2.783.488.699-1.03.385-3.64.398-4.917a193 193 0 0 1-.088-5.042c0-.983.047-1.967-.016-2.947q0-.395-.1-.695a1.07 1.07 0 0 0-.858-.708c-.44-.066-1.141-.188-1.505-.25-3.205-.43-6.426-.786-9.654-1.012-.253-1.171.264-2.346.684-3.426.313-.852.457-1.763.338-2.665-.125-1.174-.52-2.37-1.407-3.191-1.808-1.666-4.628-2.18-6.862-1.096-1.996.93-2.996 3.028-2.51 5.164.326 1.415 1.131 2.821.715 4.309-.054.263-.173.51-.282.758-3.526.185-7.038.623-10.529 1.121-.392.094-.902.103-1.237.35-.398.088-.511.668-.48 1.056.104 3.742.304 7.491.107 11.233-.022.235-.016.56-.123.808-.495.198-1.056-.069-1.541-.197-1.88-.82-3.553-1.466-5.512-.391-2.212 1.259-2.632 3.808-2.096 6.116.423 1.688 1.576 3.185 3.064 4.077 1.05.633 2.354.724 3.532.448 1.134-.226 2.353-1.29 2.425.626.022 2.459-.373 4.908-.27 7.369.041 1.221.085 2.449.16 3.67.132 1.901 2.983 1.529 4.334 1.71 1.404.097 2.836.213 4.255.285 1.181.097 2.372.022 3.547.138.288 1.174-.342 2.33-.439 3.495-.322 2.831 1.232 6.276 4.306 6.708q.495.064.971.063c3.384 0 5.919-2.393 5.753-6.023-.04-.748-.326-1.443-.58-2.138-.3-.855-.498-1.751-.507-2.659 1.25.112 2.506 0 3.753-.126 1.765-.172 3.526-.375 5.261-.732.809-.16 1.62-.326 2.391-.624.83-.366.774-1.446.837-2.22.078-2.665.066-5.33.097-7.995 0-.993.006-1.989-.016-2.981.044-.761-.385-1.51-1.24-1.266zm-.1 9.777c-.038 1.168.062 2.364-.173 3.513-2.788.846-5.78 1.106-8.689 1.353-.63.038-1.287.044-1.945 0-.389-.015-.906-.125-1.207.213-.454.561-.238 1.366-.21 2.026.06.492.163.977.298 1.453.282 1.018.85 1.989.73 3.076-.194 2.709-2.247 4.196-4.879 4.027-2.466-.097-3.678-2.815-3.578-4.998.106-1.541 1.015-3.163.279-4.666-.41-.702-1.335-.627-2.04-.642a71 71 0 0 1-4.142-.176c-1.313-.09-2.67-.191-3.996-.272-.564-.063-1.24-.038-1.76-.341a67 67 0 0 1-.163-5.086c-.02-2.13.407-4.256.238-6.379-.085-1.259-1.16-2.302-2.454-1.939-2.177.792-3.697 1.034-5.377-.886-1.331-1.44-1.76-3.705-1.027-5.524.72-1.479 2.556-2.136 4.07-1.529 1.407.486 3.888 1.954 4.854.11.3-.97.206-2.02.26-3.025.044-2.684.006-5.371-.126-8.052-.022-.47-.044-.94-.087-1.406 0-.025-.007-.053-.007-.081 3.776-.492 7.561-1.002 11.365-1.197v-.009a.46.46 0 0 0 .21-.05c.307-.163.47-.498.62-.799a4.8 4.8 0 0 0 .427-1.365 5.7 5.7 0 0 0-.113-2.08c-.188-.892-.636-1.712-.75-2.62-.39-2.378 1.746-3.897 3.933-3.89 1.476.056 3.109.686 3.914 1.985.517 1.018.661 2.252.357 3.354-.291.987-.815 1.885-.934 2.932-.087.776-.103 1.64.273 2.345.166.235.395.31.605.282q0 .029.006.056c1.993.135 3.986.33 5.97.555 1.757.175 3.512.388 5.245.71.065.542.047 1.09.05 1.638-.025 1.573-.007 3.148.031 4.72 0 1.888.232 3.792-.016 5.671-1.604-.773-3.177-2.063-5.07-1.719-2.24.373-3.74 2.687-3.81 4.857-.131 2.305 1.15 5.53 3.381 6.483 2.002.924 3.71-.094 5.48-.993.032 2.787-.012 5.577-.04 8.365z"/><path fill="#FFF7DB" d="M281.778 160.215c-19.236-18.737-35.072-43.377-42.887-69.955-3.165-38.833-60.559-59.107-61.734-61.043-8.868-5.095-16.216-15.827-25.669-21.54-6.524-6.795-12.876-3.36-12.424-.196-4.754-3.035-10.359-4.698-13.502-1.62-11.465 12.643 21.517 29.178 13.188 29.178-9.159 1.46-32.606 13.131-11.784 17.387 19.558 4.447 35.698-5.06 45.146 5.18 2.817 3.36 25.766 23.215 27.229 25.028-21.953 11.246-13.474 19.683-39.468 14.014-9.413.686-20.718-2.098-36.317-1.522-13.824 4.181-18.173 5.515-18.546 14.318-.483 11.374 24.794 11.127 42.793 17.55 13.646 4.87 21.31 18.242 33.402 26.03 12.098 9.53 27.436 14.287 40.512 22.558 10.747 9.896 21.924 22.41 34.057 32.478 0 0 27.43-46.458 26.007-47.842z"/><path fill="#313144" d="M255.353 208.383c.467-.037.636-.711.26-.971l-2.51-1.813a83 83 0 0 1-2.855-2.167c-2.848-2.339-5.389-5.017-7.805-7.795-2.992-3.426-6.035-6.886-9.284-10.087-2.949-2.812-5.929-5.612-9.159-8.101-5.734-4.513-12.352-7.651-18.86-10.873-2.805-1.369-5.603-2.756-8.338-4.256-3.566-1.842-7.06-3.815-10.403-6.038-9.187-5.74-16.504-13.864-24.717-20.832-1.845-1.563-3.785-3.009-5.746-4.422a35.8 35.8 0 0 0-7.436-4.077c-3.199-1.325-6.589-2.067-9.923-2.966a332 332 0 0 0-8.194-2.042l.009-.069c.314-2.602-.448-5.145-1.059-7.65-.094-.392-.178-.78-.288-1.168-.119-.367-.194-.859-.589-1.034-.699-.276-1.426-.47-2.147-.667a27 27 0 0 0-4.562-.933c-2.118-.279-4.258-.442-6.398-.363-2.341.1-4.744.134-6.966.964-.514.191-1.015.429-1.457.758-.128.106-.266.219-.36.357a6.4 6.4 0 0 1-.774-1.976c-.169-.861-.107-1.738-.01-2.603.091-.751.22-1.5.467-2.217.502-1.443 1.561-2.599 2.645-3.642 1.892-1.741 4.296-2.847 6.69-3.736 4.496-1.666 9.29-2.483 14.081-2.552 3.682-.044 7.361.087 11.03.332 2.315.128 4.637.225 6.944.482 6.526.808 13.056 1.628 19.618 2.13 1.535.125 3.071.216 4.612.19 2.588.047 5.236-.216 7.618-1.305.889-.464 1.676-1.09 2.472-1.695a212 212 0 0 0 5.405-4.34c1.128-.962 2.2-1.995 3.434-2.825.978-.714 2.002-1.353 3.033-1.982q.059-.028.116-.06c.307-.178.605-.37.903-.56q.27-.167.542-.332l.26-.172q.31-.186.633-.351a72 72 0 0 0 4.546-2.211c.345-.21.768-.273 1.088-.523.219-.197.15-.595-.148-.66-.247-.07-.488.065-.723.121-.329.135-.693.25-1.022.42-.542-.335-1.075-.698-1.626-1.024-.113-.154-.295-.266-.442-.388a18 18 0 0 1-.83-.693c-2.535-2.408-5.033-4.857-7.558-7.271-3.77-3.573-7.533-7.147-11.39-10.623-3.193-2.875-6.298-5.897-9.933-8.217-2.084-1.363-3.948-1.682-6.402-1.482-2.108.11-4.22.12-6.329.248-2.018.112-4.039.094-6.057.169-1.41.05-2.814.206-4.227.188-2.538-.028-5.076.022-7.614.06-2.281-.054-4.569-.123-6.84-.339-1.965-.216-3.908-.617-5.825-1.08-1.2-.307-2.41-.62-3.522-1.181-1.326-.648-2.733-1.71-2.827-3.3.104-1.77 1.674-2.998 2.946-4.053 2.35-1.914 5.063-3.304 7.846-4.472 3.973-1.741 8.131-2.985 12.283-4.225 5.85-1.622 11.716-3.21 17.672-4.397 1.316-.231 2.632-.485 3.961-.635 2.575-.395 5.186-.711 7.79-.401 3.362.285 6.611 1.284 9.638 2.753 1.905.995 3.791 2.032 5.709 3.012 3.44 1.81 6.903 3.583 10.34 5.393 3.798 2.045 7.477 4.306 11.089 6.658 4.259 2.68 8.125 5.922 12.026 9.088 3.56 3.022 6.794 6.451 9.513 10.25 1.454 2.183 2.893 4.4 4.036 6.767a35 35 0 0 1 1.83 4.939c.439 1.616.79 3.254 1.232 4.87.692 2.508 1.124 5.089 2.005 7.544 3.13 9.404 6.85 18.677 11.214 27.577 1.316 2.794 2.827 5.493 4.419 8.139 1.231 1.961 2.509 3.893 3.753 5.844 4.033 6.248 8.934 11.872 13.433 17.782 1.526 1.866 3.059 3.73 4.578 5.602a21.5 21.5 0 0 0 5.17 4.494c.232.147.467.323.737.392.091.015.175-.066.175-.154a.16.16 0 0 0-.031-.094c-.144-.172-.335-.297-.505-.444-.539-.429-1.068-.874-1.598-1.316-1.228-1.011-2.315-2.183-3.302-3.429-2.156-2.869-4.409-5.659-6.565-8.524-2.901-3.749-5.881-7.438-8.667-11.274-1.971-2.734-3.7-5.631-5.565-8.437-3.083-4.873-5.583-10.081-7.952-15.329-2.093-4.826-4.127-9.684-5.935-14.622-1.241-3.59-2.645-7.147-3.475-10.86-.436-2.011-1.021-3.981-1.488-5.982-.48-2.064-1.1-4.096-1.924-6.05-.777-1.917-1.836-3.7-2.927-5.45-3.522-5.812-8.341-10.754-13.671-14.938-2.651-2.095-5.255-4.259-8.065-6.144a221 221 0 0 0-6.602-4.209c-6.509-4.027-13.455-7.269-20.186-10.895-1.99-1.128-4.076-2.11-6.248-2.834-1.354-1.084-2.738-2.133-3.998-3.326-3.29-3.11-6.574-6.229-10.018-9.17-3.193-2.834-6.577-5.442-9.892-8.132-2.002-1.626-4.092-3.145-6.285-4.498-.884-.56-1.827-1.086-2.908-1.052-1.507-.15-2.977.404-3.936 1.588-.435.485-.852.993-1.181 1.56-.169.328-.291.68-.389 1.036-1.168-.723-2.356-1.415-3.603-1.992-1.128-.545-2.303-1.077-3.56-1.208-2.469-.285-5.016.225-6.655 2.23-1.382 1.437-1.78 3.084-1.949 5.013-.053 1.44.166 2.91.608 4.281.401 1.24 1.028 2.386 1.695 3.501 1.131 1.892 2.25 3.783 3.698 5.459 1.986 2.242 4.161 4.309 6.392 6.307.833.752 1.682 1.49 2.566 2.186.461.341.893.726 1.354 1.074-3.143.94-6.258 1.973-9.291 3.22-3.052 1.264-6.088 2.67-8.692 4.734-1.598 1.25-3.378 2.684-3.757 4.792-.172 1.384.57 2.715 1.604 3.592 1.968 1.697 4.597 2.236 7.063 2.806 1.238.253 2.472.517 3.726.673 2.03.26 4.079.32 6.122.398 1.699.075 3.397 0 5.098-.019 1.683-.016 3.363.006 5.045-.013 1.529-.05 3.052-.197 4.584-.216a135 135 0 0 0 5.932-.187c1.354-.07 2.707-.076 4.064-.135 1.106-.044 2.215-.144 3.324-.075 1.649.125 3.112.961 4.444 1.885 4.089 2.862 7.614 6.42 11.333 9.733 4.954 4.547 9.798 9.213 14.639 13.88.774.754 1.536 1.525 2.363 2.22q.382.314.768.614c.059.05.122.078.191.097.244.203.498.394.771.564q.122.076.244.162c-.78.386-1.538.802-2.278 1.263a111 111 0 0 0-4.202 2.267c-.987.62-1.974 1.246-2.923 1.923-.921.654-1.739 1.434-2.604 2.157-2.328 1.876-4.631 3.79-7.066 5.528-.79.554-1.714.84-2.632 1.099-2.369.651-4.829.548-7.291.498-4.979-.282-9.937-.852-14.89-1.394-3.074-.382-6.139-.839-9.225-1.086-3.199-.216-6.408-.38-9.61-.545-3.218-.094-6.449-.182-9.664.075-3.929.347-7.827 1.165-11.515 2.577-3.416 1.247-6.731 3.141-8.83 6.192-.975 1.374-1.325 3.072-1.466 4.719-.571 4.055 2.296 7.037 5.361 9.198a22.7 22.7 0 0 0 6.473 3.047c3.04.82 6.161 1.287 9.247 1.898.013 0 .028.006.041.009a.5.5 0 0 0 .144.031c3.914.827 7.799 1.785 11.672 2.784 3.284.909 6.64 1.604 9.823 2.838 3.378 1.262 6.515 3.094 9.372 5.289a80 80 0 0 1 6.192 5.014c6.862 6.053 13.251 12.727 20.843 17.897 2.632 1.716 5.255 3.454 8.003 4.983a417 417 0 0 0 8.611 4.588c5.283 2.649 10.644 5.12 15.783 8.073 6.066 3.404 11.292 8.061 16.271 12.868a147 147 0 0 1 7.054 7.566c2.237 2.537 4.477 5.174 6.915 7.532a52 52 0 0 0 5.527 4.613q1.505 1.067 3.015 2.129a.57.57 0 0 0 .407.11zM154.858 11.092q.324.253.649.51c-.527.295-1.035.62-1.58.877-.028-.012-.056-.031-.087-.047-.16-.598-.264-1.221-.091-1.826.018-.11.062-.216.103-.322q.5.405 1.003.805zm-8.636-6.332a53 53 0 0 1 2.237 1.434c1.761 1.171 3.422 2.502 5.073 3.833-.028.031-.053.063-.075.081-.294.36-.514.799-.557 1.266a8 8 0 0 0-.016.407c-.245-.204-.486-.414-.733-.608a112 112 0 0 1-1.905-1.616c-.959-.855-1.949-1.685-2.748-2.7-.605-.763-1.235-1.515-1.736-2.354q.23.127.46.26zm-5.267.648c.714-.89 1.654-1.438 2.82-1.381.407.022.824.015 1.222.119.191.808.959 1.844 1.294 2.395.445.633.884 1.272 1.404 1.845.652.689 1.354 1.331 2.046 1.98 1.109.973 2.203 2.025 3.425 2.868.081.119.185.197.316.21l.088.06c.567.325 1.203-.248 1.705-.492.388-.232.789-.442 1.178-.668 3.5 2.772 6.912 5.653 10.255 8.612 2 1.801 3.996 3.608 6.001 5.4.89.77 1.808 1.521 2.773 2.201-.354-.09-.711-.175-1.068-.247a32 32 0 0 0-4.243-.558c-.652-.56-1.335-1.086-2.078-1.519-.983-.582-1.914-1.246-2.851-1.907-4.243-2.984-8.636-5.81-13.026-8.584-3.512-2.233-7.031-4.45-10.506-6.74-.674-.419-1.344-.848-2.015-1.274q.023-.109.06-.213c.15-.823.667-1.48 1.2-2.1zm2.447 7.193c-.282.285-.504.41-.777.42-.188-.57-.442-1.128-.492-1.729a7 7 0 0 1-.022-.692c.661.435 1.329.87 1.993 1.3-.276.122-.492.47-.705.701zm-9.212-6.67c2.613 1.184 4.982 2.821 7.41 4.337a3.9 3.9 0 0 0-.25 1.212c-.013.435.091.861.213 1.284-.549-.188-1.084-.413-1.626-.614-.549-.25-1.028-.598-1.58-.86-1.425-.706-2.669-1.701-3.891-2.707-1.185-.961-2.485-2.007-2.886-3.542.912.141 1.78.498 2.61.89m4.192 25.87c-1.466-1.174-2.851-2.445-4.223-3.726-2.288-2.195-4.638-4.388-6.33-7.097-1.285-2.088-2.745-4.146-3.409-6.535-.251-1.09-.429-2.22-.364-3.342.135-.933.214-1.898.633-2.756.718-1.362 1.868-2.62 3.378-3.075.968-.338 2.006-.344 3.018-.285q.024 0 .05.003v.035c-.16 1.785 1.247 3.11 2.478 4.212.774.68 1.561 1.353 2.401 1.948 1.291.895 5.796 3.488 7.219 2.884.52-.21.956-.589 1.294-1.027.176-.176.32-.43.313-.67a578 578 0 0 0 4.735 2.987c5.342 3.367 10.688 6.724 15.94 10.228.836.56 1.695 1.087 2.607 1.519.373.182.733.382 1.09.595q-1.043-.023-2.09.044c-7.68.67-15.147 2.7-22.576 4.663q-1.95.534-3.895 1.096c-.821-.473-1.517-1.134-2.272-1.704zm-9.901 83.343c.392 1.504.887 2.988 1.075 4.532.069.708.181 1.415.228 2.126a170 170 0 0 0-3.534-.776 8 8 0 0 1-.066-.52c-.022-1.049.006-2.086.216-3.119a9 9 0 0 1 .686-1.967c.22-.532.449-1.059.756-1.55.069-.116.131-.235.194-.357.166.538.291 1.09.448 1.631zm-10.058 4.344a22.2 22.2 0 0 1-6.205-2.305 18.5 18.5 0 0 1-3.778-2.771 12 12 0 0 1-1.279-1.394c.003 0 .01 0 .013-.003.172-.053.294-.185.42-.307 1.826-1.193 4.123-1.309 6.244-1.441 2.601-.181 5.208-.059 7.79.285 2.096.235 4.211.796 6.236 1.45l.025.072c-.16.157-.317.345-.373.395a7 7 0 0 0-.978 1.368c-.417.702-.796 1.432-.999 2.224-.264.939-.27 1.851-.311 2.831 0 .304 0 .617.029.927q-.128-.025-.254-.053a175 175 0 0 1-6.58-1.281z"/><path fill="#313144" d="M128.907 24.357q.001-.002.044.053-.018-.023-.041-.047c0-.003-.006-.006-.009-.01l.003.007z"/></g><defs><clipPath id="a"><path fill="#fff" d="M0 0h282v211H0z"/></clipPath></defs></svg>
