<svg width="588" height="331" viewBox="0 0 588 331" fill="none" xmlns="http://www.w3.org/2000/svg">
    <g clip-path="url(#clip0_12906_14407)">
        <path fill-rule="evenodd" clip-rule="evenodd" d="M8.12373 133.835C30.0071 90.4034 125.723 81.8339 193.587 59.2757C235.367 45.3881 274.44 29.2027 322.641 29.2892C370.69 29.3753 411.278 44.0298 450.896 59.7371C504.188 80.8664 576.162 96.9577 586.327 133.835C597.065 172.786 554.701 212.807 499.487 236.005C449.75 256.903 383.535 239.654 322.641 244.625C240.639 251.319 158.309 294.535 87.5995 269.627C14.1912 243.769 -15.9067 181.527 8.12373 133.835Z" fill="#F6F6F6"/>
        <path d="M361.642 39.8331V143.503L274.242 195.955C229.211 124.531 282.474 39.8459 361.642 39.8459V39.8331Z" fill="#CCCCCC"/>
        <path d="M361.553 39.8331C423.091 39.8331 465.223 86.2531 465.223 143.503C465.223 184.804 445.621 213.731 413.568 233.32L361.553 143.503V39.8331Z" fill="#FED980"/>
        <path d="M361.642 143.503L420.307 229.487C381.81 257.81 307.26 254.247 273.42 196.38L361.642 143.516V143.503Z" fill="#FFF7DB"/>
        <path d="M361.642 39.8331C422.043 38.7141 465.312 86.2531 465.312 143.503C466.624 201.332 418.892 247.173 361.642 247.173C328.483 246.491 301.601 232.973 282.603 210.58C269.239 191.505 257.972 169.086 257.972 143.503C257.226 135.13 259.297 124.493 261.766 115.631C271.465 70.844 314.052 39.8331 361.629 39.8331H361.642Z" stroke="black" stroke-width="2" stroke-linecap="round" stroke-linejoin="round"/>
        <path d="M361.655 39.8331V143.503L420.513 229.23" stroke="black" stroke-width="2" stroke-linecap="round" stroke-linejoin="round"/>
        <path d="M361.655 143.503L273.574 196.431" stroke="black" stroke-width="2" stroke-linecap="round" stroke-linejoin="round"/>
        <path d="M370.044 186.058H332.304V208.702H370.044V186.058Z" fill="#CCCCCC" stroke="black" stroke-width="2" stroke-linecap="round" stroke-linejoin="round"/>
        <path d="M373.818 208.702H328.53V214.363H373.818V208.702Z" fill="#CCCCCC" stroke="black" stroke-width="2" stroke-linecap="round" stroke-linejoin="round"/>
        <path d="M373.818 180.397H328.53V186.058H373.818V180.397Z" fill="#CCCCCC" stroke="black" stroke-width="2" stroke-linecap="round" stroke-linejoin="round"/>
        <path d="M353.061 197.38C353.061 194.253 355.596 191.719 358.722 191.719C361.849 191.719 364.383 194.253 364.383 197.38V208.702H353.061V197.38Z" fill="#646370" stroke="black" stroke-width="2" stroke-linecap="round" stroke-linejoin="round"/>
        <path d="M351.174 171.905L370.044 180.397H332.304L351.174 171.905Z" fill="#CCCCCC" stroke="black" stroke-width="2" stroke-linecap="round" stroke-linejoin="round"/>
        <path d="M351.174 171.905L351.174 162.47" stroke="black" stroke-width="2" stroke-linecap="round" stroke-linejoin="round"/>
        <path d="M361.553 167.481C358.089 165.231 354.638 169.732 351.174 167.481C351.174 165.402 351.174 163.312 351.174 161.232C354.638 163.483 358.089 158.982 361.553 161.232V167.481Z" fill="white" stroke="black" stroke-width="2" stroke-linecap="round" stroke-linejoin="round"/>
        <path d="M351.174 179.453C352.737 179.453 354.005 178.186 354.005 176.622C354.005 175.059 352.737 173.792 351.174 173.792C349.611 173.792 348.344 175.059 348.344 176.622C348.344 178.186 349.611 179.453 351.174 179.453Z" fill="white" stroke="black" stroke-width="2" stroke-linecap="round" stroke-linejoin="round"/>
        <path d="M347.4 203.041H337.965V191.719H342.689H347.4V203.041Z" fill="white" stroke="black" stroke-width="2" stroke-linecap="round" stroke-linejoin="round"/>
        <path d="M342.682 203.041V192.662" stroke="black" stroke-width="2" stroke-linecap="round" stroke-linejoin="round"/>
        <path d="M337.965 195.493H347.4" stroke="black" stroke-width="2"/>
        <path d="M337.965 199.267H347.4" stroke="black" stroke-width="2"/>
        <path d="M431.372 109.633H393.632V137.939H431.372V109.633Z" fill="#CCCCCC" stroke="black" stroke-width="2" stroke-linecap="round" stroke-linejoin="round"/>
        <path d="M425.711 122.843H418.163V137.939H425.711V122.843Z" fill="#646370" stroke="black" stroke-width="2" stroke-linecap="round" stroke-linejoin="round"/>
        <path d="M412.502 122.843H399.293V132.278H412.502V122.843Z" fill="white" stroke="black" stroke-width="2" stroke-linecap="round" stroke-linejoin="round"/>
        <path d="M396.18 117.182C392.745 117.182 390.184 114.397 390.932 111.462L393.312 102.085H402.907L401.515 113.005C401.208 115.387 398.915 117.182 396.171 117.182H396.18Z" fill="#CCCCCC" stroke="black" stroke-width="2" stroke-linecap="round" stroke-linejoin="round"/>
        <path d="M407.128 117.182H406.994C403.789 117.182 401.294 114.749 401.649 111.965L402.906 102.086H412.501V112.485C412.501 115.077 410.093 117.182 407.128 117.182Z" fill="#CCCCCC" stroke="black" stroke-width="2" stroke-linecap="round" stroke-linejoin="round"/>
        <path d="M418.01 117.182H417.875C414.91 117.182 412.502 115.077 412.502 112.485V102.086H422.097L423.354 111.965C423.709 114.749 421.214 117.182 418.01 117.182Z" fill="#CCCCCC" stroke="black" stroke-width="2" stroke-linecap="round" stroke-linejoin="round"/>
        <path d="M428.833 117.182C426.089 117.182 423.796 115.379 423.489 113.005L422.097 102.086H431.693L434.072 111.462C434.821 114.397 432.259 117.182 428.824 117.182H428.833Z" fill="#CCCCCC" stroke="black" stroke-width="2" stroke-linecap="round" stroke-linejoin="round"/>
        <path d="M390.801 112.464H434.203" stroke="black" stroke-width="2"/>
        <rect x="395.519" y="92.6503" width="33.9663" height="5.66105" fill="#CCCCCC" stroke="black" stroke-width="2" stroke-linecap="round" stroke-linejoin="round"/>
        <path d="M405.897 98.3114V102.085" stroke="black" stroke-width="2"/>
        <path d="M419.106 98.3114V102.085" stroke="black" stroke-width="2"/>
        <path d="M488.719 151.28V149.723C488.719 147.289 490.69 145.308 493.125 145.298C494.342 145.298 495.446 145.789 496.257 146.591C497.069 147.393 497.55 148.487 497.55 149.704V151.261" stroke="black" stroke-width="2" stroke-linecap="round" stroke-linejoin="round"/>
        <path d="M488.447 151.282L497.826 151.267C498.684 151.266 499.393 151.963 499.394 152.831L499.404 159.133C499.41 162.587 496.612 165.393 493.159 165.399C489.706 165.404 486.899 162.606 486.893 159.153L486.884 152.85C486.882 151.992 487.579 151.283 488.447 151.282Z" stroke="black" stroke-width="2" stroke-linecap="round" stroke-linejoin="round"/>
        <path d="M493.144 155.686L493.162 165.395" stroke="black" stroke-width="2" stroke-linecap="round" stroke-linejoin="round"/>
        <path d="M493.125 145.308C493.125 143.326 494.729 141.722 496.701 141.713" stroke="black" stroke-width="2" stroke-linecap="round" stroke-linejoin="round"/>
        <path d="M493.125 145.308C493.125 143.326 491.511 141.722 489.53 141.732" stroke="black" stroke-width="2" stroke-linecap="round" stroke-linejoin="round"/>
        <path d="M503.182 150.959C503.182 152.941 501.578 154.545 499.606 154.554" stroke="black" stroke-width="2" stroke-linecap="round" stroke-linejoin="round"/>
        <path d="M499.05 161.234C501.409 161.659 503.201 163.725 503.211 166.216" stroke="black" stroke-width="2" stroke-linecap="round" stroke-linejoin="round"/>
        <path d="M499.606 157.63H501.399L503.975 160.196" stroke="black" stroke-width="2" stroke-linecap="round" stroke-linejoin="round"/>
        <path d="M483.086 150.997C483.086 152.978 484.699 154.582 486.68 154.573" stroke="black" stroke-width="2" stroke-linecap="round" stroke-linejoin="round"/>
        <path d="M487.256 161.253C484.897 161.687 483.114 163.753 483.114 166.244" stroke="black" stroke-width="2" stroke-linecap="round" stroke-linejoin="round"/>
        <path d="M486.681 157.649H484.888L482.322 160.234" stroke="black" stroke-width="2" stroke-linecap="round" stroke-linejoin="round"/>
        <path d="M322.535 227.248C322.924 227.248 323.301 227.514 323.301 227.985C323.301 228.384 323.021 228.65 322.572 228.94C322.061 229.254 321.393 229.459 320.566 229.459C318.415 229.459 316.264 227.695 316.264 225.146C316.264 222.597 318.427 220.833 320.542 220.833C321.393 220.833 322.061 221.051 322.572 221.353C323.021 221.643 323.301 221.909 323.301 222.307C323.301 222.778 322.924 223.044 322.535 223.044C322.231 223.044 322.013 222.887 321.879 222.79C321.697 222.67 321.247 222.38 320.566 222.38C319.193 222.38 317.978 223.588 317.978 225.146C317.978 226.705 319.181 227.913 320.579 227.913C321.235 227.913 321.697 227.623 321.879 227.502C322.013 227.405 322.219 227.248 322.535 227.248Z" fill="black"/>
        <path d="M327.161 223.02C328.547 223.02 330.406 224.095 330.406 226.246C330.406 228.408 328.547 229.459 327.161 229.459C325.764 229.459 323.916 228.408 323.916 226.246C323.916 224.095 325.764 223.02 327.161 223.02ZM327.161 224.397C326.298 224.397 325.496 225.074 325.496 226.246C325.496 227.405 326.298 228.082 327.161 228.082C328.012 228.082 328.826 227.405 328.826 226.246C328.826 225.074 328.012 224.397 327.161 224.397Z" fill="black"/>
        <path d="M333.217 228.65C333.217 229.085 332.852 229.435 332.427 229.435C331.989 229.435 331.625 229.085 331.625 228.65V221.534C331.625 221.111 331.989 220.749 332.427 220.749C332.852 220.749 333.217 221.111 333.217 221.534V228.65Z" fill="black"/>
        <path d="M336.267 228.65C336.267 229.085 335.902 229.435 335.477 229.435C335.039 229.435 334.675 229.085 334.675 228.65V221.534C334.675 221.111 335.039 220.749 335.477 220.749C335.902 220.749 336.267 221.111 336.267 221.534V228.65Z" fill="black"/>
        <path d="M340.678 223.02C342.064 223.02 343.741 224.107 343.741 225.98C343.741 226.608 343.388 226.825 342.744 226.825L339.135 226.801C339.281 227.683 339.985 228.154 340.873 228.154C341.31 228.154 341.517 228.058 341.881 227.901C342.1 227.804 342.27 227.707 342.477 227.707C342.817 227.707 343.024 227.949 343.024 228.251C343.024 228.444 342.939 228.662 342.635 228.915C342.185 229.229 341.577 229.435 340.812 229.435C339.195 229.435 337.482 228.444 337.482 226.246C337.482 224.071 339.293 223.02 340.678 223.02ZM340.678 224.397C339.985 224.397 339.244 224.784 339.135 225.714H342.173C342.051 224.784 341.371 224.397 340.678 224.397Z" fill="black"/>
        <path d="M349.537 227.429C349.865 227.429 350.181 227.659 350.181 228.033C350.181 228.42 349.89 228.613 349.732 228.758C349.221 229.205 348.626 229.435 347.836 229.435C346.365 229.435 344.591 228.384 344.591 226.233C344.591 224.071 346.365 223.02 347.836 223.02C348.626 223.02 349.221 223.237 349.732 223.684C349.89 223.841 350.181 224.035 350.181 224.421C350.181 224.796 349.865 225.025 349.537 225.025C349.246 225.025 349.015 224.856 348.918 224.772C348.638 224.506 348.225 224.397 347.897 224.397C346.937 224.397 346.171 225.062 346.171 226.233C346.171 227.393 346.937 228.058 347.897 228.058C348.225 228.058 348.638 227.949 348.918 227.683C349.015 227.599 349.246 227.429 349.537 227.429Z" fill="black"/>
        <path d="M354.35 228.021C354.715 227.997 354.946 228.215 354.946 228.589C354.946 229.145 354.399 229.435 353.573 229.435C352.746 229.435 351.908 229.169 351.908 227.49V224.337H351.555C351.166 224.337 350.911 224.083 350.911 223.721C350.911 223.346 351.166 223.092 351.555 223.092H351.908V222.271C351.908 221.836 352.272 221.474 352.71 221.474C353.147 221.474 353.5 221.836 353.5 222.271V223.092H354.302C354.703 223.092 354.946 223.346 354.946 223.721C354.946 224.083 354.703 224.337 354.302 224.337H353.5V227.538C353.5 227.889 353.621 228.07 353.889 228.07C354.022 228.07 354.217 228.021 354.35 228.021Z" fill="black"/>
        <path d="M356.852 222.198C356.415 222.198 356.038 221.836 356.038 221.413C356.038 220.99 356.415 220.628 356.852 220.628C357.277 220.628 357.654 220.99 357.654 221.413C357.654 221.836 357.277 222.198 356.852 222.198ZM356.852 223.056C357.277 223.056 357.642 223.419 357.642 223.854V228.638C357.642 229.085 357.277 229.447 356.852 229.447C356.415 229.447 356.05 229.085 356.05 228.638V223.854C356.05 223.419 356.415 223.056 356.852 223.056Z" fill="black"/>
        <path d="M363.987 223.056C364.412 223.056 364.728 223.382 364.728 223.769C364.728 223.914 364.68 224.035 364.631 224.131L362.492 228.795C362.31 229.169 362.067 229.399 361.69 229.399C361.313 229.399 361.07 229.169 360.9 228.795L358.749 224.131C358.713 224.035 358.664 223.914 358.664 223.769C358.664 223.382 358.98 223.056 359.393 223.056C359.697 223.056 359.989 223.225 360.159 223.612L361.69 227.188L363.234 223.612C363.392 223.225 363.683 223.056 363.987 223.056Z" fill="black"/>
        <path d="M366.632 222.198C366.194 222.198 365.817 221.836 365.817 221.413C365.817 220.99 366.194 220.628 366.632 220.628C367.057 220.628 367.434 220.99 367.434 221.413C367.434 221.836 367.057 222.198 366.632 222.198ZM366.632 223.056C367.057 223.056 367.421 223.419 367.421 223.854V228.638C367.421 229.085 367.057 229.447 366.632 229.447C366.194 229.447 365.829 229.085 365.829 228.638V223.854C365.829 223.419 366.194 223.056 366.632 223.056Z" fill="black"/>
        <path d="M371.844 228.021C372.209 227.997 372.44 228.215 372.44 228.589C372.44 229.145 371.893 229.435 371.067 229.435C370.24 229.435 369.402 229.169 369.402 227.49V224.337H369.049C368.66 224.337 368.405 224.083 368.405 223.721C368.405 223.346 368.66 223.092 369.049 223.092H369.402V222.271C369.402 221.836 369.766 221.474 370.204 221.474C370.641 221.474 370.994 221.836 370.994 222.271V223.092H371.796C372.197 223.092 372.44 223.346 372.44 223.721C372.44 224.083 372.197 224.337 371.796 224.337H370.994V227.538C370.994 227.889 371.115 228.07 371.383 228.07C371.516 228.07 371.711 228.021 371.844 228.021Z" fill="black"/>
        <path d="M376.828 220.024C377.29 220.024 377.654 220.386 377.654 220.845C377.654 221.039 377.606 221.208 377.472 221.365L376.561 222.368C376.463 222.5 376.305 222.585 376.123 222.585C375.746 222.585 375.43 222.259 375.601 221.836L376.05 220.58C376.172 220.253 376.463 220.024 376.828 220.024ZM376.366 223.02C377.752 223.02 379.429 224.107 379.429 225.98C379.429 226.608 379.076 226.825 378.432 226.825L374.823 226.801C374.969 227.683 375.673 228.154 376.561 228.154C376.998 228.154 377.205 228.058 377.569 227.901C377.788 227.804 377.958 227.707 378.165 227.707C378.505 227.707 378.712 227.949 378.712 228.251C378.712 228.444 378.627 228.662 378.323 228.915C377.873 229.229 377.266 229.435 376.5 229.435C374.884 229.435 373.17 228.444 373.17 226.246C373.17 224.071 374.981 223.02 376.366 223.02ZM376.366 224.397C375.673 224.397 374.932 224.784 374.823 225.714H377.861C377.74 224.784 377.059 224.397 376.366 224.397Z" fill="black"/>
        <path d="M382.685 223.02C383.512 223.02 384.302 223.346 384.703 223.902C384.776 224.011 384.897 224.18 384.897 224.433C384.897 224.82 384.63 225.025 384.277 225.025C384.047 225.025 383.816 224.941 383.609 224.687C383.366 224.409 383.086 224.276 382.734 224.276C382.26 224.276 381.98 224.506 381.98 224.844C381.98 225.037 382.053 225.291 382.612 225.448L383.354 225.666C384.326 225.931 385.14 226.39 385.14 227.466C385.14 228.795 383.901 229.435 382.637 229.435C381.543 229.435 380.887 228.976 380.546 228.565C380.486 228.48 380.218 228.178 380.218 227.804C380.218 227.538 380.388 227.2 380.826 227.2C381.154 227.2 381.336 227.405 381.482 227.586C381.835 228.021 382.224 228.142 382.637 228.142C383.232 228.142 383.56 227.889 383.56 227.55C383.56 227.345 383.427 227.079 382.843 226.91L382.151 226.705C380.923 226.366 380.413 225.714 380.413 224.856C380.413 223.648 381.531 223.02 382.685 223.02Z" fill="black"/>
        <path d="M129.553 250.443C129.553 250.443 136.082 258.434 136.082 273.889C136.082 277.88 132.535 277.899 131.289 274.021C129.949 269.888 129.025 265.227 129.025 265.227C127.959 276.153 129.836 280.022 130.883 282.947C131.997 286.07 129.279 288.164 126.647 285.466L126.487 285.871C125.024 286.438 123.741 286.334 122.609 285.768C121.543 285.239 120.618 284.296 119.816 283.126C119.807 283.126 119.807 283.107 119.797 283.097L119.609 283.22C118.778 283.277 112.145 283.333 110.768 271.219C109.862 263.227 111.976 252.839 111.57 248.707C111.174 244.583 107.041 230.997 106.645 215.146C106.239 199.295 107.975 180.642 107.975 180.642V180.604C114.485 182.265 125.836 183.821 134.884 183.255V183.312L131.421 204.616L130.148 235.856L129.553 250.443Z" fill="white"/>
        <path d="M312.377 158.29C313.217 159.007 313.387 159.724 313.056 160.545C313.179 159.762 312.905 158.96 312.377 158.29Z" fill="#FFF7DB"/>
        <path d="M310.48 153.214C310.094 152.431 309.112 151.893 307.508 152.006C305.102 152.167 301.451 152.157 296.828 152.837C301.923 152.006 305.914 152.025 308.49 151.855C309.999 151.752 310.471 152.374 310.48 153.214Z" fill="#FFF7DB"/>
        <path fill-rule="evenodd" clip-rule="evenodd" d="M309.952 167.905C309.913 167.923 309.872 167.943 309.828 167.964C309.825 167.965 309.831 167.963 309.828 167.964C309.798 167.979 309.758 167.998 309.726 168.013L309.503 168.122" fill="#FFF7DB"/>
        <path d="M306.244 173.849C307.046 173.528 307.565 173.132 307.886 172.726C307.461 173.283 306.735 173.735 305.659 174.075C305.848 174 306.046 173.924 306.244 173.849Z" fill="#FFF7DB"/>
        <path d="M283.402 178.783C283.402 178.783 283.656 178.812 284.109 178.84C281.741 180.585 264.031 193.37 244.954 199.937C243.935 200.286 242.916 200.512 241.916 200.635C242.595 200.503 243.284 200.324 243.972 200.088C264.484 193.03 283.402 178.783 283.402 178.783Z" fill="#FFF7DB"/>
        <path fill-rule="evenodd" clip-rule="evenodd" d="M296.828 152.837C296.795 152.841 296.759 152.846 296.724 152.851L296.774 152.844C296.793 152.842 296.811 152.839 296.828 152.837Z" fill="white"/>
        <path d="M206.893 57.344C209.148 58.7498 210.704 61.7219 210.704 65.1563C210.704 67.515 209.968 69.6662 208.78 71.2325C207.544 72.8553 205.826 73.8554 203.93 73.8554C200.25 73.8554 197.269 70.1003 197.165 65.4205C197.156 65.3355 197.156 65.2412 197.156 65.1563C197.156 60.3538 200.184 56.4666 203.93 56.4666C204.996 56.4666 205.996 56.7779 206.893 57.344Z" fill="#FFF7DB"/>
        <path d="M186.73 78.2146C182.031 78.2146 178.229 73.9217 178.229 68.6191C178.229 68.2889 178.248 67.9587 178.276 67.6379V67.6001C178.729 62.7882 182.333 59.0331 186.73 59.0331C190.532 59.0331 193.74 61.8447 194.825 65.732C195.08 66.6378 195.221 67.6096 195.221 68.6191C195.221 73.9217 191.419 78.2146 186.73 78.2146Z" fill="#FFF7DB"/>
        <path d="M201.486 114.974C210.27 118.172 217.866 121.107 225.461 135.089C233.047 149.072 240.642 161.998 240.642 161.998C240.642 161.998 239.698 162.913 237.877 164.338C236.019 165.81 233.226 167.829 229.584 169.99C224.008 173.301 219.63 174.839 217.951 175.368C217.46 175.519 217.196 175.585 217.196 175.585L216.979 175.547C216.79 176.575 216.601 177.481 216.403 178.245C216.063 179.557 215.771 180.991 215.516 182.491C214.544 188.162 214.082 194.729 213.865 198.625C213.695 201.861 213.478 204.126 211.752 205.824C210.855 206.721 209.544 207.447 207.61 208.079C201.081 210.212 151.933 210.212 144.338 209.145C142.668 208.909 141.366 208.447 140.328 207.824C137.677 206.249 136.79 203.739 136.214 201.824C135.412 199.163 135.28 183.312 135.28 183.312V183.227C135.139 183.246 135.016 183.255 134.884 183.255C125.836 183.822 114.485 182.265 107.985 180.604C106.258 180.17 104.88 179.727 103.975 179.312C108.107 147.081 109.843 121.899 148.338 111.775C149.706 111.417 150.858 111.039 151.848 110.643L151.933 110.851C151.933 110.851 159.387 122.833 177.238 122.833C192.155 122.833 192.023 111.917 192.023 111.917V111.681C194.646 112.558 197.91 113.672 201.486 114.974Z" fill="#FED980"/>
        <path d="M206.147 54.1079C206.147 54.1079 204.147 45.3144 194.825 41.5781C188.164 51.702 174.04 59.4293 174.04 59.4293C174.04 59.4293 171.558 64.8262 168.511 69.0248C166.784 71.4213 164.869 73.431 163.123 73.8178C160.453 67.9586 149.537 68.7512 149.263 76.8842C148.999 84.9984 155.528 87.2723 158.057 87.2723C158.481 87.2723 158.877 87.2534 159.236 87.2156L159.255 87.4043C159.255 87.4043 159 90.4991 158.679 94.1033L158.321 94.0655C158.321 94.0655 123.43 86.6024 135.148 49.8433C135.148 49.8433 123.156 46.9089 123.156 34.6528C123.156 22.3966 133.554 20.0001 138.875 20.0001C144.197 20.0001 151.263 22.6702 151.263 32.3883C164.671 23.5665 186.258 25.0856 195.891 35.4547C209.61 43.1821 206.147 54.1079 206.147 54.1079Z" fill="black"/>
        <path d="M211.874 205.956C211.874 205.956 231.32 235.79 221.064 305.317C221.064 305.317 217.196 316.507 176.172 307.449C135.148 298.392 120.958 306.355 120.958 306.355C120.958 306.355 121.25 298.363 122.609 285.768C123.741 286.334 125.024 286.438 126.487 285.871L126.647 285.466C129.28 288.164 131.997 286.07 130.884 282.947C129.836 280.022 127.959 276.153 129.025 265.227C129.025 265.227 129.95 269.888 131.289 274.021C132.535 277.899 136.082 277.88 136.082 273.889C136.082 258.434 129.553 250.443 129.553 250.443L130.148 235.856C135.082 213.306 140.073 208.221 140.073 208.221L140.328 207.824C141.366 208.447 142.668 208.909 144.338 209.145C151.933 210.211 201.081 210.211 207.61 208.079C209.544 207.447 210.855 206.72 211.752 205.824L211.874 205.956Z" fill="black"/>
        <path d="M186.73 59.0331C190.532 59.0331 193.74 61.8448 194.825 65.732C195.08 66.6378 195.221 67.6096 195.221 68.6192C195.221 73.9217 191.429 78.2146 186.73 78.2146C182.031 78.2146 178.229 73.9217 178.229 68.6192C178.229 68.2889 178.248 67.9587 178.276 67.6379V67.6002C178.729 62.7883 182.333 59.0331 186.73 59.0331ZM194.901 65.7131L197.014 65.4207H197.165C197.156 65.3357 197.156 65.2414 197.156 65.1565C197.156 60.354 200.184 56.4668 203.93 56.4668C204.996 56.4668 205.996 56.7781 206.893 57.3442C206.468 55.3157 206.147 54.108 206.147 54.108C206.147 54.108 204.147 45.3145 194.825 41.5782C188.164 51.702 174.04 59.4294 174.04 59.4294C174.04 59.4294 171.558 64.8262 168.511 69.0249C166.784 71.4214 164.869 73.431 163.123 73.8179C160.453 67.9587 149.537 68.7512 149.263 76.8843C148.999 84.9985 155.528 87.2723 158.057 87.2723C158.481 87.2723 158.878 87.2535 159.236 87.2157L159.255 87.4044C159.255 87.4044 159 90.4991 158.679 94.1033C158.302 98.3869 157.811 103.406 157.528 104.85C157.094 107.011 156.019 108.982 151.848 110.643L151.933 110.851C151.933 110.851 159.387 122.833 177.238 122.833C192.155 122.833 192.032 111.917 192.032 111.917V111.681C188.211 110.398 185.768 109.652 185.768 109.652H185.645C185.664 106.897 186.022 103.821 186.135 102.953C186.824 103.057 187.504 103.123 188.164 103.123C206.921 103.123 209.61 85.3664 208.78 71.2327C207.544 72.8555 205.827 73.8556 203.93 73.8556C200.25 73.8556 197.269 70.1005 197.165 65.4301H197.014L194.901 65.7131Z" fill="white"/>
        <path d="M238.026 164.37C237.777 164.57 237.508 164.779 237.221 164.988C235.361 166.403 232.802 168.179 229.6 170.06C222.296 174.354 217.015 175.693 217.015 175.693L216.795 175.655C216.603 176.691 216.411 177.603 216.21 178.372C215.865 179.693 215.568 181.136 215.309 182.647L215.395 182.666C215.395 182.666 227.06 202.633 241.131 201.066C241.822 200.933 242.521 200.753 243.221 200.515C264.059 193.41 283.278 179.066 283.278 179.066C283.278 179.066 283.537 179.094 283.997 179.123C284.179 178.98 284.275 178.914 284.275 178.914C284.275 178.914 292.959 179.807 299.41 176.225C300.052 175.874 300.675 175.475 301.26 175.019C301.289 175.019 301.317 175.016 301.346 175.014C301.375 175.012 301.404 175.009 301.432 175.009C303.215 174.924 304.634 174.705 305.717 174.382L305.889 174.325C305.993 174.284 306.099 174.243 306.207 174.202C306.298 174.168 306.39 174.133 306.482 174.098C307.297 173.775 307.826 173.375 308.152 172.967C308.947 171.97 308.755 170.678 307.835 169.205C308.296 169.056 309.155 168.641 309.794 168.332C309.874 168.294 309.95 168.257 310.021 168.223C310.104 168.182 310.182 168.145 310.251 168.113C313.222 166.346 311.19 163.297 311.19 163.297C311.439 163.078 311.679 162.86 311.89 162.641C312.618 161.948 313.136 161.321 313.395 160.732C313.395 160.722 313.395 160.713 313.404 160.703C313.529 159.915 313.251 159.107 312.714 158.433C312.072 157.892 311.046 157.35 309.57 156.79C309.556 156.785 309.539 156.778 309.522 156.771C309.505 156.763 309.489 156.756 309.474 156.752C309.484 156.733 309.493 156.714 309.513 156.685C309.513 156.676 309.522 156.676 309.522 156.676C309.551 156.623 309.587 156.558 309.629 156.483C309.994 155.831 310.787 154.413 310.787 153.322C310.395 152.534 309.398 151.992 307.768 152.106C307.141 152.148 306.431 152.178 305.642 152.212C303.356 152.309 300.41 152.434 296.918 152.942C296.884 152.947 296.849 152.952 296.813 152.957L296.803 152.958C296.77 152.962 296.737 152.967 296.707 152.971C296.362 153.028 296.007 153.094 295.643 153.161C291.094 153.994 287.595 156.642 284.167 159.236C282.084 160.813 280.026 162.37 277.776 163.487C272.849 165.937 249.614 171.685 241.793 173.584L241.774 173.499L241.515 172.473L238.026 164.37Z" fill="white"/>
        <path d="M161.925 86.6024C161.925 86.6024 161 87.0647 159.236 87.2156C158.877 87.2534 158.481 87.2723 158.057 87.2723C155.528 87.2723 148.999 84.9984 149.263 76.8842C149.537 68.7512 160.453 67.9586 163.123 73.8178C164.869 73.431 166.784 71.4213 168.511 69.0248C171.558 64.8262 174.04 59.4293 174.04 59.4293C174.04 59.4293 188.164 51.702 194.825 41.5781C204.147 45.3144 206.147 54.1079 206.147 54.1079C206.147 54.1079 209.61 43.1821 195.891 35.4547C186.258 25.0856 164.671 23.5665 151.263 32.3883C151.263 22.6702 144.206 20.0001 138.875 20.0001C133.544 20.0001 123.156 22.406 123.156 34.6528C123.156 46.8995 135.148 49.8432 135.148 49.8432C123.43 86.6024 158.321 94.0655 158.321 94.0655" stroke="black" stroke-width="2" stroke-linecap="round" stroke-linejoin="round"/>
        <path d="M155.66 76.0822C158.594 76.0822 159.255 78.3466 159.255 80.4789" stroke="black" stroke-width="2" stroke-linecap="round" stroke-linejoin="round"/>
        <path d="M159.255 87.4042C159.255 87.4042 159 90.4989 158.679 94.1031C158.302 98.3867 157.811 103.406 157.528 104.85C157.094 107.01 156.019 108.982 151.848 110.643C150.858 111.039 149.706 111.417 148.338 111.775C109.843 121.899 108.107 147.081 103.975 179.311C104.88 179.727 106.258 180.17 107.985 180.604C114.485 182.265 125.836 183.821 134.884 183.255C135.016 183.255 135.139 183.246 135.271 183.227C136.007 183.18 136.714 183.123 137.413 183.038C139.819 172.641 140.743 161.894 141.007 151.072" stroke="black" stroke-width="2" stroke-linecap="round" stroke-linejoin="round"/>
        <path d="M107.975 180.642C107.975 180.642 106.239 199.295 106.645 215.146C107.041 230.997 111.174 244.583 111.57 248.707C111.976 252.839 109.862 263.227 110.768 271.219C112.145 283.333 118.778 283.277 119.609 283.22C119.665 283.22 119.693 283.211 119.693 283.211" stroke="black" stroke-width="2" stroke-linecap="round" stroke-linejoin="round"/>
        <path d="M115.297 269.492C115.297 269.492 116.486 278.238 119.797 283.097C119.797 283.107 119.797 283.116 119.816 283.126C120.618 284.296 121.543 285.239 122.609 285.768C123.741 286.334 125.024 286.437 126.487 285.871" stroke="black" stroke-width="2" stroke-linecap="round" stroke-linejoin="round"/>
        <path d="M121.43 269.086C121.43 269.086 122.534 278.323 125.157 283.343C125.628 284.249 126.138 284.947 126.647 285.466C129.28 288.164 131.997 286.07 130.884 282.946C129.836 280.022 127.959 276.153 129.025 265.227C129.025 265.227 129.95 269.888 131.289 274.021C132.535 277.899 136.082 277.88 136.082 273.889C136.082 258.434 129.553 250.443 129.553 250.443L130.148 235.856L131.421 204.616L134.884 183.312" stroke="black" stroke-width="2" stroke-linecap="round" stroke-linejoin="round"/>
        <path d="M135.28 183.312C135.28 183.312 135.412 199.163 136.214 201.824C136.79 203.739 137.677 206.249 140.328 207.824C141.366 208.447 142.668 208.909 144.338 209.145C151.933 210.211 201.081 210.211 207.61 208.079C209.544 207.447 210.855 206.72 211.752 205.824C213.478 204.126 213.695 201.861 213.865 198.625C214.082 194.728 214.544 188.162 215.516 182.491C215.771 180.991 216.064 179.557 216.403 178.245C216.601 177.481 216.79 176.575 216.979 175.547C218.271 168.15 218.856 154.365 213.469 141.618" stroke="black" stroke-width="2" stroke-linecap="round" stroke-linejoin="round"/>
        <path d="M208.78 71.2326C209.61 85.3664 206.921 103.123 188.164 103.123C187.503 103.123 186.824 103.057 186.135 102.953C181.673 102.227 176.974 99.5284 176.974 99.5284" stroke="black" stroke-width="2" stroke-linecap="round" stroke-linejoin="round"/>
        <path d="M206.893 57.344C206.468 55.3155 206.147 54.1078 206.147 54.1078" stroke="black" stroke-width="1.88702" stroke-linecap="round" stroke-linejoin="round"/>
        <path d="M197.684 73.28C197.684 73.28 198.382 74.5443 199.288 75.9501C200.184 77.3465 201.42 79.0071 201.42 80.3374C201.42 83.5359 197.156 83.2717 197.156 83.2717" stroke="black" stroke-width="2" stroke-linecap="round" stroke-linejoin="round"/>
        <path d="M194.825 65.732C195.08 66.6378 195.221 67.6096 195.221 68.6191C195.221 73.9217 191.419 78.2146 186.73 78.2146C182.041 78.2146 178.229 73.9217 178.229 68.6191C178.229 68.2889 178.248 67.9587 178.276 67.6379V67.6001C178.729 62.7882 182.333 59.0331 186.73 59.0331C190.532 59.0331 193.74 61.8447 194.825 65.732Z" stroke="black" stroke-width="2" stroke-linecap="round" stroke-linejoin="round"/>
        <path d="M206.893 57.344C209.148 58.7498 210.704 61.7219 210.704 65.1563C210.704 67.515 209.968 69.6662 208.78 71.2325C207.544 72.8553 205.826 73.8554 203.93 73.8554C200.25 73.8554 197.269 70.1003 197.165 65.4205C197.156 65.3355 197.156 65.2412 197.156 65.1563C197.156 60.3538 200.184 56.4666 203.93 56.4666C204.996 56.4666 205.996 56.7779 206.893 57.344Z" stroke="black" stroke-width="2" stroke-linecap="round" stroke-linejoin="round"/>
        <path d="M160.057 70.355L168.511 69.0247L177.908 67.5528" stroke="black" stroke-width="2" stroke-linecap="round" stroke-linejoin="round"/>
        <path d="M185.758 112.181C185.673 111.435 185.645 110.567 185.645 109.652C185.664 106.897 186.022 103.821 186.135 102.953" stroke="black" stroke-width="2" stroke-linecap="round" stroke-linejoin="round"/>
        <path d="M151.933 110.851C151.933 110.851 159.387 122.833 177.238 122.833C192.155 122.833 192.023 111.917 192.023 111.917" stroke="black" stroke-width="2" stroke-linecap="round" stroke-linejoin="round"/>
        <path d="M185.767 109.652C185.767 109.652 188.211 110.398 192.032 111.681C194.646 112.558 197.91 113.672 201.486 114.974C210.27 118.172 217.866 121.106 225.461 135.089C233.047 149.072 240.642 161.998 240.642 161.998C240.642 161.998 239.698 162.913 237.877 164.338C236.019 165.81 233.226 167.829 229.584 169.99C224.008 173.301 219.63 174.839 217.95 175.368C217.46 175.519 217.196 175.585 217.196 175.585" stroke="black" stroke-width="2" stroke-linecap="round" stroke-linejoin="round"/>
        <path d="M120.892 305.591C120.892 305.591 121.25 298.363 122.609 285.768" stroke="black" stroke-width="1.88702" stroke-linecap="round" stroke-linejoin="round"/>
        <path d="M211.874 205.956C211.874 205.956 231.32 235.79 221.064 305.317" stroke="black" stroke-width="2" stroke-linecap="round" stroke-linejoin="round"/>
        <path d="M130.148 235.856C135.082 213.306 140.073 208.221 140.073 208.221" stroke="black" stroke-width="2" stroke-linecap="round" stroke-linejoin="round"/>
        <path d="M184.701 247.782L180.437 257.368L175.644 310.648" stroke="white" stroke-width="2" stroke-linecap="round" stroke-linejoin="round"/>
        <path d="M237.981 164.593L238.066 164.8L241.312 172.782" stroke="black" stroke-width="2" stroke-linecap="round" stroke-linejoin="round"/>
        <path d="M239.047 174.113C239.047 174.113 239.991 173.886 241.585 173.49C241.887 173.415 242.208 173.339 242.548 173.254C251.03 171.169 272.344 165.8 277.005 163.461C282.864 160.526 287.393 154.535 294.592 153.205C295.29 153.073 295.96 152.959 296.62 152.865C296.686 152.856 296.762 152.846 296.828 152.837C301.451 152.157 305.102 152.167 307.508 152.006C309.112 151.893 310.094 152.431 310.48 153.214C310.952 154.195 310.518 155.545 309.235 156.545C309.235 156.545 309.226 156.545 309.226 156.554C309.093 156.658 308.952 156.752 308.801 156.847C305.168 159.12 297.922 159.8 297.922 159.8C297.922 159.8 299.121 165.819 289.657 168.216" stroke="black" stroke-width="2" stroke-linecap="round" stroke-linejoin="round"/>
        <path d="M215.601 182.51C215.601 182.51 227.631 203.286 241.916 200.635C242.595 200.503 243.284 200.323 243.973 200.088C264.485 193.03 283.402 178.783 283.402 178.783C283.402 178.783 293.17 179.811 299.281 175.962C299.791 175.651 300.272 175.302 300.715 174.915" stroke="black" stroke-width="2" stroke-linecap="round" stroke-linejoin="round"/>
        <path d="M307.31 169.122C307.31 169.122 309.131 171.112 307.886 172.726C307.565 173.132 307.046 173.528 306.244 173.849C306.046 173.924 305.848 174 305.659 174.075L305.489 174.132C304.055 174.613 302.621 174.802 301.272 174.754C301.092 174.754 300.913 174.745 300.734 174.736C298.8 174.603 297.054 174.018 295.724 173.188C293.195 171.584 294.601 167.999 298.186 168.858C300.8 169.48 303.847 169.867 307.206 168.763C307.782 168.574 308.376 168.339 308.971 168.056C313.537 165.885 309.971 163.461 309.971 163.461" stroke="black" stroke-width="2" stroke-linecap="round" stroke-linejoin="round"/>
        <path d="M300.913 163.593C300.913 163.593 305.527 164.904 309.896 163.272C310.396 163.093 310.896 162.866 311.377 162.592C311.443 162.555 311.509 162.517 311.566 162.47C312.462 161.941 312.915 161.272 313.047 160.573C313.047 160.564 313.047 160.555 313.056 160.545C313.179 159.762 312.905 158.96 312.377 158.29C311.669 157.384 310.509 156.724 309.282 156.658C309.245 156.648 309.197 156.648 309.16 156.648" stroke="black" stroke-width="2" stroke-linecap="round" stroke-linejoin="round"/>
        <path d="M194.901 65.7129L197.014 65.4299" stroke="black" stroke-width="2" stroke-linecap="round" stroke-linejoin="round"/>
        <path d="M283.09 172.122L376.149 121.503" stroke="black" stroke-width="3" stroke-linecap="round" stroke-linejoin="round"/>
        <path d="M191.089 67.0905C189.004 66.7792 184.711 67.4774 182.229 68.619" stroke="black" stroke-width="2" stroke-linecap="round" stroke-linejoin="round"/>
        <path d="M187.003 70.9495C188.046 70.9495 188.89 70.1047 188.89 69.0625C188.89 68.0203 188.046 67.1755 187.003 67.1755C185.961 67.1755 185.116 68.0203 185.116 69.0625C185.116 70.1047 185.961 70.9495 187.003 70.9495Z" fill="black"/>
        <path d="M206.817 64.5791C204.717 63.9901 202.02 64.6192 200.213 65.2885" stroke="black" stroke-width="2" stroke-linecap="round" stroke-linejoin="round"/>
        <path d="M203.987 68.119C205.029 68.119 205.874 67.2742 205.874 66.232C205.874 65.1898 205.029 64.345 203.987 64.345C202.944 64.345 202.1 65.1898 202.1 66.232C202.1 67.2742 202.944 68.119 203.987 68.119Z" fill="black"/>
        <path d="M194.648 90.9001C196.354 91.4067 197.175 91.331 198.435 90.9977" stroke="black" stroke-width="2" stroke-linecap="round" stroke-linejoin="round"/>
        <path d="M198.127 53.6267C196.627 53.7871 196.637 56.3251 198.382 56.0138C200.128 55.7024 202.449 55.2967 206.355 55.259C206.959 55.259 206.978 54.0985 206.374 53.9758C203.675 53.4097 200.798 53.3436 198.127 53.6267Z" fill="black"/>
        <path d="M190.041 54.7023C192.042 54.3815 192.778 56.8251 190.419 57.0705C188.06 57.3158 184.928 57.6554 179.833 58.8537C179.05 59.0424 178.682 57.9385 179.427 57.6271C182.767 56.2402 186.475 55.2684 190.041 54.7023Z" fill="black"/>
        <path d="M391.412 144.589C391.774 144.589 392.08 144.883 392.08 145.268C392.08 145.642 391.774 145.936 391.412 145.936H389.804V151.79C389.804 152.231 389.453 152.593 389.046 152.593C388.627 152.593 388.276 152.231 388.276 151.79V145.936H386.679C386.317 145.936 386 145.642 386 145.268C386 144.883 386.317 144.589 386.679 144.589H391.412Z" fill="black"/>
        <path d="M396.005 144.589C397.771 144.589 398.904 145.732 398.904 147.159C398.904 148.608 397.771 149.706 396.005 149.706H394.624V151.824C394.624 152.242 394.284 152.593 393.865 152.593C393.435 152.593 393.095 152.242 393.095 151.824V145.427C393.095 144.94 393.446 144.589 393.933 144.589H396.005ZM395.937 148.404C396.786 148.404 397.42 148.099 397.42 147.159C397.42 146.23 396.786 145.891 395.937 145.891H394.624V148.404H395.937Z" fill="black"/>
        <path d="M401.512 151.178H404.694C405.056 151.178 405.373 151.484 405.373 151.846C405.373 152.22 405.056 152.514 404.694 152.514H400.822C400.335 152.514 399.984 152.163 399.984 151.676V145.427C399.984 144.94 400.335 144.589 400.822 144.589H404.58C404.943 144.589 405.26 144.883 405.26 145.245C405.26 145.619 404.943 145.925 404.58 145.925H401.512V147.895H403.528C403.901 147.895 404.196 148.189 404.196 148.529C404.196 148.88 403.901 149.174 403.528 149.174H401.512V151.178Z" fill="black"/>
        <path d="M413.23 144C413.774 144 414.057 144.555 413.898 144.962L410.535 153.601C410.445 153.862 410.173 154.065 409.879 154.065C409.335 154.065 409.052 153.511 409.211 153.103L412.573 144.464C412.664 144.204 412.936 144 413.23 144Z" fill="black"/>
        <path d="M420.927 144.589C422.693 144.589 423.825 145.732 423.825 147.159C423.825 148.608 422.693 149.706 420.927 149.706H419.546V151.824C419.546 152.242 419.206 152.593 418.787 152.593C418.357 152.593 418.017 152.242 418.017 151.824V145.427C418.017 144.94 418.368 144.589 418.855 144.589H420.927ZM420.859 148.404C421.708 148.404 422.342 148.099 422.342 147.159C422.342 146.23 421.708 145.891 420.859 145.891H419.546V148.404H420.859Z" fill="black"/>
        <path d="M432.707 144.555C433.046 144.555 433.408 144.793 433.408 145.268V151.767C433.408 152.186 433.058 152.548 432.616 152.548C432.197 152.548 431.846 152.186 431.846 151.767V147.963L429.819 151.778C429.672 152.05 429.423 152.209 429.151 152.209C428.891 152.209 428.642 152.05 428.495 151.778L426.457 147.963V151.767C426.457 152.186 426.117 152.548 425.698 152.548C425.257 152.548 424.906 152.186 424.906 151.767V145.268C424.906 144.793 425.268 144.555 425.608 144.555C425.925 144.555 426.219 144.793 426.377 145.064L429.151 150.057L431.937 145.064C432.095 144.793 432.39 144.555 432.707 144.555Z" fill="black"/>
        <path d="M436.297 151.178H439.478C439.841 151.178 440.158 151.484 440.158 151.846C440.158 152.22 439.841 152.514 439.478 152.514H435.606C435.119 152.514 434.768 152.163 434.768 151.676V145.427C434.768 144.94 435.119 144.589 435.606 144.589H439.365C439.727 144.589 440.044 144.883 440.044 145.245C440.044 145.619 439.727 145.925 439.365 145.925H436.297V147.895H438.312C438.686 147.895 438.98 148.189 438.98 148.529C438.98 148.88 438.686 149.174 438.312 149.174H436.297V151.178Z" fill="black"/>
        <path d="M407.251 164.387H410.432C410.794 164.387 411.111 164.693 411.111 165.055C411.111 165.429 410.794 165.723 410.432 165.723H406.56C406.073 165.723 405.722 165.372 405.722 164.886V158.636C405.722 158.149 406.073 157.798 406.56 157.798H410.319C410.681 157.798 410.998 158.092 410.998 158.455C410.998 158.828 410.681 159.134 410.319 159.134H407.251V161.104H409.266C409.64 161.104 409.934 161.398 409.934 161.738C409.934 162.089 409.64 162.383 409.266 162.383H407.251V164.387Z" fill="black"/>
        <path d="M417.263 157.798C417.625 157.798 417.931 158.092 417.931 158.477C417.931 158.851 417.625 159.145 417.263 159.145H415.655V164.999C415.655 165.44 415.304 165.803 414.896 165.803C414.477 165.803 414.126 165.44 414.126 164.999V159.145H412.53C412.168 159.145 411.851 158.851 411.851 158.477C411.851 158.092 412.168 157.798 412.53 157.798H417.263Z" fill="black"/>
        <path d="M419.727 157.741C420.146 157.741 420.497 158.104 420.497 158.522V164.999C420.497 165.418 420.146 165.78 419.727 165.78C419.297 165.78 418.946 165.418 418.946 164.999V158.522C418.946 158.104 419.297 157.741 419.727 157.741Z" fill="black"/>
    </g>
    <defs>
        <clipPath id="clip0_12906_14407">
            <rect width="588" height="331" fill="white"/>
        </clipPath>
    </defs>
</svg>
