<svg width="560" height="420" viewBox="0 0 560 420" fill="none" xmlns="http://www.w3.org/2000/svg">
    <g clip-path="url(#clip0_4758_20774)">
        <path d="M556.959 212.066C570.426 254.157 536.749 283.753 503.838 290.539C464.833 298.59 423.363 289.528 384.827 302.688C343.408 315.607 311.312 347.736 264.906 351.923C198.289 357.938 159.413 337.282 101.92 316.217C57.1518 304.505 -5.94255 309.497 0.452979 243.071C6.11056 184.337 89.3363 181.447 133.948 151.884C178.566 122.299 223.346 78.1509 283.136 76.826C341.272 75.5402 378.186 122.802 423.844 149.491C467.634 171.92 531.779 161.008 556.959 212.066Z" fill="#FFF7DB"/>
        <path d="M350.58 133.939C351.122 157.81 350.049 224.192 350.049 224.192C281.895 225.03 128.637 224.454 128.637 224.454C130.029 193.338 128.822 156.597 128.95 123.205C128.95 121.215 132.081 118.106 134.06 118.106C138.063 118.106 299.393 117.324 344.978 117.43C351.167 117.441 350.44 128.404 350.569 133.939H350.58Z" fill="#FED980"/>
        <path d="M212.635 259.059C212.439 259.037 212.517 259.138 212.601 259.255C212.612 259.199 212.623 259.127 212.635 259.059ZM250.007 256.812C258.874 256.672 234.583 256.454 220.752 256.465C219.969 256.465 219.925 257.651 220.718 257.695C229.809 258.165 241.001 256.108 249.946 256.812H250.001H250.007ZM350.261 224.711C350.535 224.745 350.753 224.952 350.793 225.243C352.034 234.456 350.955 253.989 348.506 254.542C326.004 259.641 283.293 256.806 265.442 257.12C265.073 257.12 264.799 257.466 264.844 257.835C265.409 261.424 266.935 277.106 270.793 280.656C271.922 281.69 275.74 281.679 279.212 281.623C280.341 281.6 281.515 284.647 279.994 284.625C261.484 284.301 237.557 284.625 218.007 284.625C212.534 284.625 189.49 286.408 198.53 281.567C198.574 281.544 198.636 281.522 198.681 281.511C202.521 280.533 209.252 283.317 209.99 277.53C209.99 277.497 210.001 277.452 210.024 277.402C212.797 269.888 212.668 260.446 212.115 257.572C212.059 257.276 211.79 257.052 211.483 257.064C203.394 257.455 147.572 257.997 136 257.628C135.827 257.628 128.95 252.787 128.95 252.602C128.593 221.994 127.581 224.672 128.654 224.477C128.677 224.477 340.495 223.605 350.261 224.728L350.273 224.717L350.261 224.711Z" fill="#FFF7DB"/>
        <path d="M165.233 117.318C165.155 117.318 165.06 117.296 164.981 117.273C164.97 117.273 164.948 117.273 164.937 117.262C165.535 117.262 166.133 117.273 166.731 117.284C166.34 117.284 165.96 117.284 165.579 117.307C165.501 117.307 165.417 117.318 165.35 117.318H165.233Z" fill="black"/>
        <path d="M162.136 117.212C162.689 117.212 163.254 117.234 163.802 117.245H163.561C163.399 117.245 163.226 117.245 163.069 117.268C162.929 117.268 162.795 117.29 162.656 117.29C162.471 117.29 162.298 117.268 162.136 117.212Z" fill="black"/>
        <path d="M238.06 245.827C237.613 245.771 237.177 245.62 236.758 245.447C235.897 245.089 235.181 244.48 234.639 243.73C234.365 243.361 234.13 242.948 233.985 242.512C233.811 242.02 233.711 241.5 233.688 240.969C233.666 240.415 233.756 239.851 233.94 239.325C234.136 238.738 234.421 238.185 234.823 237.704C235.584 236.821 236.607 236.172 237.758 235.943C238.865 235.725 240.045 235.853 241.073 236.323C242.029 236.759 242.801 237.531 243.293 238.464C243.578 239.018 243.774 239.616 243.869 240.236C243.958 240.846 243.913 241.489 243.779 242.087C243.651 242.651 243.421 243.194 243.103 243.675C242.818 244.099 242.471 244.457 242.069 244.765C241.795 244.972 241.493 245.134 241.185 245.257C241.068 245.301 240.956 245.346 240.839 245.385C240.459 245.559 240.067 245.67 239.653 245.754C239.34 245.81 239.033 245.844 238.72 245.844C238.513 245.844 238.306 245.832 238.088 245.799L238.066 245.821L238.06 245.827ZM239.257 244.737C239.396 244.726 239.53 244.703 239.67 244.681C239.844 244.636 240.017 244.591 240.19 244.53C240.246 244.508 240.319 244.485 240.375 244.463C240.431 244.429 240.503 244.385 240.559 244.345C240.71 244.239 240.844 244.139 240.973 244.021C241.113 243.893 241.236 243.77 241.364 243.63C241.504 243.468 241.638 243.294 241.767 243.11C241.856 242.959 241.951 242.814 242.041 242.663C242.108 242.512 242.18 242.366 242.236 242.215C242.281 242.064 242.326 241.902 242.365 241.757C242.398 241.595 242.41 241.422 242.432 241.265V240.818C242.421 240.644 242.398 240.471 242.365 240.287L242.259 239.907C242.214 239.767 242.152 239.633 242.085 239.493C242.018 239.353 241.934 239.23 241.856 239.102C241.778 238.984 241.683 238.872 241.593 238.755C241.504 238.649 241.398 238.548 241.297 238.442C241.157 238.313 241.012 238.201 240.861 238.095C240.71 237.989 240.548 237.911 240.391 237.821C240.24 237.754 240.095 237.682 239.933 237.626C239.793 237.581 239.67 237.547 239.542 237.508C239.391 237.486 239.257 237.464 239.106 237.452H238.714C238.575 237.464 238.44 237.486 238.301 237.508C238.15 237.542 238.004 237.586 237.853 237.637C237.702 237.693 237.568 237.754 237.428 237.821C237.289 237.888 237.166 237.972 237.037 238.05C236.92 238.129 236.808 238.224 236.702 238.313C236.595 238.403 236.495 238.509 236.389 238.61C236.282 238.727 236.193 238.839 236.115 238.967C236.008 239.118 235.919 239.264 235.841 239.426C235.762 239.588 235.69 239.75 235.634 239.907C235.6 240.013 235.567 240.125 235.544 240.242C235.5 240.482 235.466 240.734 235.455 240.98V241.405C235.466 241.567 235.489 241.729 235.522 241.886C235.556 242.07 235.612 242.255 235.673 242.439C235.718 242.568 235.779 242.691 235.835 242.819C235.891 242.937 235.964 243.048 236.031 243.166C236.109 243.283 236.193 243.395 236.282 243.501C236.389 243.619 236.512 243.73 236.629 243.848C236.758 243.965 236.903 244.066 237.043 244.172C237.171 244.25 237.294 244.334 237.434 244.401C237.551 244.457 237.663 244.508 237.792 244.552C237.943 244.597 238.077 244.631 238.228 244.67C238.424 244.703 238.608 244.737 238.804 244.748C238.977 244.748 239.139 244.759 239.312 244.748L239.279 244.737H239.257Z" fill="black"/>
        <path d="M240.934 140.105C237.976 114.327 246.569 138.724 256.246 130.847C253.982 135.135 253.658 138.126 252.266 139.166C248.71 141.821 244.802 135.957 240.934 140.11V140.105Z" fill="white"/>
        <path d="M260.411 202.461C264.481 213.698 218.471 211.881 219.427 202.187C219.919 197.218 224.537 157.117 225.996 146.26L231.598 146.411C231.883 147.87 231.184 151.621 231.357 153.142C231.357 153.142 236.143 153.684 236.428 152.795C237.166 150.554 237.373 145.986 237.373 145.986C240.844 144.997 243.528 146.031 243.528 146.031L243.852 152.6C244.774 153.841 247.637 153.556 249.705 152.555L249.968 145.93L255.514 145.354C256.57 150.587 260.495 189.972 260.417 202.456V202.467L260.411 202.461Z" fill="white"/>
        <path d="M259.064 129.6C259.008 129.461 258.846 129.394 258.695 129.449C258.521 129.517 258.348 129.6 258.175 129.69C258.097 129.656 258.001 129.645 257.89 129.656C253.462 130.417 252.819 134.28 248.101 130.601C246.261 129.394 244.556 127.493 242.186 127.577C241.599 127.588 240.99 127.806 240.587 128.253C240.241 128.136 239.816 128.393 239.827 128.807C239.721 131.647 239.905 134.487 240.078 137.332C240.196 139.401 240.274 141.475 240.33 143.543C240.386 144.231 240.285 144.98 240.526 145.634C241.079 146.092 240.984 144.689 241.034 144.382C241.068 143.677 241.079 142.978 241.09 142.263C241.135 139.121 240.951 135.985 240.906 132.832C240.906 131.82 240.906 130.808 240.928 129.796C240.895 129.438 241.046 129.002 240.951 128.656C241.655 128.32 242.443 128.382 243.17 128.644C244.389 129.047 245.333 129.958 246.334 130.735C247.586 131.702 248.855 132.748 250.37 133.245C252.187 133.844 253.842 132.865 255.396 131.982C254.731 132.927 254.245 134.028 253.971 135.135C253.535 137.17 253.546 137.841 251.589 138.909C248.414 140.541 246.966 137.388 244.159 137.863C243.237 138.014 242.259 138.405 241.688 139.188C241.571 139.361 241.459 139.546 241.437 139.753C241.403 139.948 241.655 140.088 241.806 139.96C242.298 139.395 242.969 139.087 243.69 138.948C244.266 138.842 244.875 138.786 245.428 139.015C246.301 139.311 247.027 139.909 247.877 140.245C248.498 140.485 249.152 140.591 249.823 140.625C251.388 140.636 252.802 139.658 253.792 138.517C254.519 137.606 254.552 136.376 254.77 135.286C254.988 134.252 255.402 133.251 255.978 132.351C256.274 131.904 256.632 131.512 257.034 131.155C257.392 131.015 257.761 130.892 258.152 130.774C258.477 130.685 258.588 130.394 258.555 130.143C258.684 130.076 258.807 130.014 258.935 129.958C259.075 129.891 259.142 129.74 259.086 129.589L259.064 129.6Z" fill="black"/>
        <path d="M255.726 146.601C255.402 146.523 255.324 146.154 255.15 145.913C254.703 145.371 255.67 144.935 255.793 145.74C255.871 145.707 255.955 145.796 255.871 145.858C255.871 146.042 255.961 146.215 255.989 146.389C255.989 146.528 255.849 146.64 255.715 146.607H255.726V146.601Z" fill="black"/>
        <path d="M261.216 201.589C260.758 183.448 258.834 165.357 256.704 147.328C256.369 145.282 256 144.259 253.702 144.762C246.787 145.12 250.102 147.501 248.962 152.538C248.883 152.538 248.811 152.572 248.744 152.628C247.419 152.684 245.468 153.355 244.394 152.376C244.165 150.308 244.635 148.407 244.361 146.339C244.232 144.969 243.22 144.98 242.633 145.053C233.672 144.695 237.49 146.4 235.695 152.701C234.477 152.734 233.269 152.594 232.062 152.516C232.168 150.448 232.475 148.133 232.084 146.053C231.626 144.974 229.747 145.64 228.808 145.606C227.992 145.869 225.37 145.204 225.286 146.311C222.882 163.473 220.433 180.647 218.991 197.939C214.368 214.134 247.486 210.797 256.419 208.717C258.89 208.141 258.745 207.784 259.941 207.051C261.864 205.866 261.009 203.384 261.194 201.589L261.205 201.601L261.216 201.589ZM259.617 205.844C252.679 210.411 225.018 210.976 220.081 203.591C219.964 203.417 219.919 203.211 219.93 203.004C221.115 184.348 223.922 165.816 225.934 147.25C225.968 146.937 226.231 146.719 226.544 146.741C227.869 146.83 229.166 146.763 230.491 146.696C230.804 146.685 231.066 146.914 231.089 147.227C231.206 149.195 230.328 151.392 231.044 153.232C231.1 153.394 231.251 153.506 231.413 153.556C232.772 153.936 235.131 154.199 236.361 153.696C236.439 153.662 236.512 153.617 236.567 153.545C237.417 152.477 237.831 148.597 237.591 146.909C237.546 146.612 237.753 146.333 238.038 146.277C239.648 145.942 241.431 146.07 243.064 146.093C243.153 146.093 243.237 146.115 243.315 146.16C243.349 146.182 243.393 146.193 243.433 146.204C243.343 152.164 241.789 154.97 249.275 153.601C249.414 153.578 249.549 153.494 249.632 153.394C250.991 151.554 249.772 148.687 250.264 146.573C250.538 145.595 253.082 145.93 254.418 145.919C254.692 145.919 254.949 146.115 254.994 146.389C258.583 165.704 259.444 185.74 259.858 205.374C259.858 205.57 259.779 205.754 259.617 205.855V205.844Z" fill="black"/>
        <path d="M519.966 175.672C519.966 175.672 520.011 175.582 520.056 175.582C520.101 175.582 520.145 175.627 520.145 175.672C520.145 175.716 520.101 175.761 520.056 175.761C520.011 175.761 519.966 175.716 519.966 175.672Z" fill="#FDC82E"/>
        <path d="M520.598 176.555C520.598 176.555 520.632 176.477 520.677 176.477C520.721 176.477 520.755 176.51 520.755 176.555C520.755 176.6 520.721 176.633 520.677 176.633C520.632 176.633 520.598 176.6 520.598 176.555Z" fill="#FDC82E"/>
        <path d="M520.296 175.672C520.296 175.672 520.341 175.582 520.386 175.582C520.43 175.582 520.475 175.627 520.475 175.672C520.475 175.716 520.43 175.761 520.386 175.761C520.341 175.761 520.296 175.716 520.296 175.672Z" fill="#FDC82E"/>
        <path d="M520.917 176.555C520.917 176.555 520.95 176.477 520.995 176.477C521.04 176.477 521.073 176.51 521.073 176.555C521.073 176.6 521.04 176.633 520.995 176.633C520.95 176.633 520.917 176.6 520.917 176.555Z" fill="#FDC82E"/>
        <path d="M186.902 254.962C186.924 254.593 186.935 254.213 186.946 253.855V253.497C187.327 253.519 187.707 253.542 188.076 253.564C188.109 254.056 188.132 254.554 188.165 255.046C187.74 255.023 187.304 255.001 186.879 254.967L186.902 254.956V254.962Z" fill="black"/>
        <path d="M181.428 254.632C181.44 254.14 181.451 253.642 181.462 253.15C182.876 253.24 184.235 253.323 185.532 253.402C185.476 253.894 185.414 254.38 185.347 254.861C184.045 254.783 182.737 254.699 181.434 254.62L181.423 254.632H181.428Z" fill="black"/>
        <path d="M174.731 254.179V254.134C174.731 253.654 174.709 253.156 174.686 252.675C176.447 252.804 178.147 252.927 179.785 253.044C179.751 253.536 179.718 254.034 179.679 254.515C178.035 254.397 176.375 254.297 174.731 254.179Z" fill="black"/>
        <path d="M168.419 253.709C168.363 253.201 168.302 252.697 168.257 252.177C169.923 252.306 171.561 252.429 173.143 252.558C173.132 253.038 173.121 253.514 173.099 253.994V254.061C171.533 253.944 169.979 253.832 168.431 253.704H168.419V253.709Z" fill="black"/>
        <path d="M163.125 253.285C163.17 252.927 163.203 252.569 163.215 252.217C163.215 252.066 163.215 251.92 163.226 251.77C164.389 251.876 165.529 251.965 166.653 252.055C166.653 252.563 166.675 253.067 166.686 253.575C165.49 253.486 164.305 253.38 163.108 253.29H163.12L163.125 253.285Z" fill="black"/>
        <path d="M110.731 247.012C96.067 244.541 81.3305 241.684 67.712 236.703C67.5946 236.138 67.5275 235.563 67.4604 234.987C89.951 243.831 131.064 248.974 162.163 251.68C162.119 252.189 162.035 252.692 161.934 253.189C144.76 251.73 127.664 249.751 110.736 247.023V247.012H110.731Z" fill="black"/>
        <path d="M66.7449 236.34C66.1691 236.122 65.5821 235.881 64.9839 235.635C64.928 235.233 64.8777 234.83 64.8218 234.428C64.7994 234.232 64.7659 234.036 64.7435 233.841C65.3976 234.126 66.0797 234.417 66.7673 234.691C66.812 235.222 66.8567 235.758 66.9294 236.301C66.9294 236.334 66.9294 236.368 66.9406 236.407C66.8735 236.385 66.812 236.362 66.7449 236.34Z" fill="black"/>
        <path d="M62.703 234.674C62.6359 234.165 62.5632 233.651 62.5073 233.142C62.4961 233.024 62.4849 232.913 62.4738 232.806C63.0272 233.069 63.5919 233.349 64.19 233.611V233.645C64.2124 234.036 64.2236 234.428 64.2459 234.819C64.2459 234.992 64.2459 235.166 64.2571 235.339C63.7484 235.121 63.2341 234.903 62.7141 234.662L62.703 234.674Z" fill="black"/>
        <path d="M60.0924 233.427C60.0029 232.935 59.9079 232.438 59.8072 231.946C59.7625 231.739 59.7178 231.543 59.6675 231.336C60.2209 231.66 60.8079 231.968 61.4173 232.281C61.4285 232.717 61.4397 233.153 61.4397 233.595V234.087C60.9924 233.88 60.5452 233.651 60.0924 233.433V233.427Z" fill="black"/>
        <path d="M57.8617 232.208C57.8281 231.543 57.7946 230.872 57.7722 230.196V230.162C58.13 230.403 58.5102 230.632 58.8903 230.867C58.9127 231.073 58.935 231.291 58.9574 231.509C58.9909 231.945 59.0133 232.382 59.0357 232.823V232.879C58.6332 232.661 58.2418 232.443 57.8505 232.214H57.8617V232.208Z" fill="black"/>
        <path d="M91.3041 201.992C91.6507 201.924 91.9805 201.852 92.3271 201.785C92.3271 202.176 92.3048 202.567 92.2824 202.959C91.9973 203.026 91.6954 203.098 91.3712 203.166C91.3488 202.774 91.3264 202.372 91.3041 201.98V201.992Z" fill="black"/>
        <path d="M93.3613 202.361C93.3278 202.109 93.2942 201.852 93.2439 201.6C93.6576 201.522 94.0825 201.438 94.485 201.36C94.485 201.729 94.4626 202.098 94.4514 202.467C94.1048 202.545 93.747 202.618 93.406 202.696C93.3948 202.579 93.3837 202.467 93.3613 202.361Z" fill="black"/>
        <path d="M95.2565 202.198H95.2453C95.1894 201.885 95.1391 201.567 95.0944 201.254C95.7149 201.136 96.3354 201.024 96.9336 200.918V201.908C96.3802 202.036 95.8267 202.159 95.2788 202.288V202.21H95.2677L95.2565 202.198Z" fill="black"/>
        <path d="M97.4928 201.337C97.4816 201.164 97.4704 201.002 97.4592 200.829C114.298 198.296 112.196 198.436 97.5375 201.774C97.5263 201.634 97.5151 201.488 97.4928 201.337Z" fill="black"/>
        <path d="M197.809 254.285V254.274C197.809 254.274 197.82 254.307 197.831 254.319C197.831 254.319 197.82 254.296 197.809 254.285Z" fill="black"/>
        <path d="M197.73 254.146C197.73 254.146 197.753 254.19 197.764 254.201C197.753 254.179 197.742 254.168 197.73 254.146Z" fill="black"/>
        <path d="M377.521 250.651C377.476 250.159 377.129 249.673 376.682 249.477C378.443 249.27 380.204 249.075 381.96 248.857C381.982 249.064 381.993 249.27 382.004 249.477C382.015 249.751 382.004 250.031 382.004 250.316V250.394C380.512 250.579 379.013 250.752 377.521 250.925V250.674V250.651Z" fill="black"/>
        <path d="M383.95 250.098C383.927 249.763 383.894 249.433 383.843 249.097C383.821 248.946 383.799 248.784 383.765 248.639C385.638 248.41 387.516 248.169 389.389 247.901C389.367 248.141 389.345 248.37 389.333 248.605C389.311 248.89 389.289 249.17 389.277 249.455C387.505 249.695 385.733 249.925 383.961 250.143V250.098H383.95Z" fill="black"/>
        <path d="M390.647 248.404C390.647 248.175 390.647 247.946 390.636 247.728C392.498 247.476 394.354 247.208 396.204 246.934C396.204 247.062 396.204 247.185 396.193 247.314C396.171 247.705 396.148 248.097 396.126 248.488C394.32 248.751 392.514 249.008 390.697 249.259C390.675 248.974 390.664 248.695 390.653 248.41L390.647 248.404Z" fill="black"/>
        <path d="M397.792 246.693C400.151 246.336 402.499 245.967 404.853 245.575C404.864 245.737 404.875 245.911 404.886 246.067V246.022C404.897 246.38 404.92 246.738 404.931 247.09C402.594 247.482 400.263 247.851 397.915 248.208C397.859 247.7 397.825 247.196 397.786 246.688L397.792 246.693Z" fill="black"/>
        <path d="M406.105 245.38C410.314 244.675 414.502 243.921 418.678 243.104C429.087 240.997 439.351 238.571 448.989 234.881C452.556 233.489 456.123 231.845 459.103 229.833C476.137 218.143 447.413 209.103 435.522 205.928C420.763 202.098 405.635 199.404 390.339 197.346V197.195C390.339 197.089 390.328 196.988 390.317 196.882C390.306 196.709 390.284 196.536 390.261 196.362C390.239 196.223 390.216 196.1 390.183 195.96C390.172 195.915 390.161 195.87 390.149 195.82C399.972 197.145 409.739 198.705 419.404 200.617C429.909 202.758 440.374 205.229 450.119 209.002C459.93 212.742 472.548 220.128 462.865 228.994C460.036 231.515 456.436 233.411 452.696 235.032C445.769 238 438.306 240.13 430.77 241.97C422.697 243.842 414.53 245.469 406.3 246.856C406.244 246.364 406.183 245.855 406.116 245.363V245.374L406.105 245.38Z" fill="black"/>
        <path d="M385.688 196.748C385.666 196.256 385.655 195.736 385.599 195.238C386.946 195.4 388.338 195.607 389.646 195.769C389.725 195.932 389.753 196.116 389.786 196.3V196.267C389.809 196.451 389.831 196.625 389.842 196.809V196.776V197.089V197.055V197.284C388.473 197.1 387.092 196.927 385.711 196.753H385.688V196.748Z" fill="black"/>
        <path d="M382.133 196.306C382.099 195.797 382.055 195.294 382.016 194.797C382.899 194.903 383.788 195.015 384.671 195.121C384.682 195.613 384.649 196.11 384.593 196.602C383.776 196.496 382.949 196.396 382.133 196.306Z" fill="black"/>
        <path d="M377.291 195.758C377.269 195.249 377.247 194.746 377.236 194.249C378.454 194.389 379.673 194.523 380.892 194.674C380.892 195.166 380.869 195.674 380.847 196.166C379.662 196.027 378.477 195.892 377.303 195.764L377.291 195.753V195.758Z" fill="black"/>
        <path d="M372.243 195.205C372.137 194.674 371.98 194.16 371.807 193.64C373.277 193.802 374.764 193.964 376.235 194.12C376.19 194.612 376.157 195.121 376.106 195.613C374.82 195.473 373.529 195.339 372.243 195.199V195.205Z" fill="black"/>
        <path d="M367.24 194.696C367.217 194.187 367.217 193.684 367.24 193.175C368.285 193.282 369.331 193.382 370.37 193.5C370.499 194.008 370.588 194.523 370.656 195.043C369.515 194.925 368.38 194.813 367.24 194.696Z" fill="black"/>
        <path d="M360.291 194.031C360.291 193.539 360.431 193.008 360.324 192.51C362.247 192.695 364.154 192.868 366.066 193.064C365.96 193.556 365.904 194.064 365.87 194.556C364.008 194.372 362.152 194.199 360.291 194.025V194.031Z" fill="black"/>
        <path d="M235.472 172.888C235.578 172.552 235.679 172.233 235.768 171.898C235.768 171.876 235.779 171.842 235.79 171.82C253.205 171.96 270.619 171.591 288.006 170.713C311.704 169.427 335.525 167.387 358.574 162.903C366.077 161.382 373.473 159.638 380.416 156.977C382.994 155.976 385.56 154.791 387.695 153.343C399.966 144.924 379.276 138.411 370.706 136.124C367.419 135.275 364.103 134.492 360.766 133.788C360.766 133.547 360.755 133.318 360.732 133.072C360.721 132.932 360.699 132.787 360.676 132.636C367.704 134.095 374.686 135.823 381.21 138.355C388.282 141.044 397.372 146.372 390.39 152.756C388.355 154.573 385.755 155.943 383.061 157.106C378.068 159.247 372.685 160.773 367.268 162.109C341.797 168.035 315.17 170.254 288.738 171.758C273.521 172.552 258.264 172.932 243.013 172.932C240.492 172.932 237.987 172.932 235.466 172.899V172.888H235.472Z" fill="black"/>
        <path d="M232.006 172.854C231.832 172.485 231.637 172.127 231.441 171.775H232.302C232.246 172.004 232.173 172.233 232.106 172.463C232.073 172.591 232.039 172.714 232 172.832V172.854H232.006Z" fill="black"/>
        <path d="M184.732 169.941C183.642 169.863 182.524 169.779 181.361 169.701C181.395 170.059 181.417 170.428 181.44 170.791C182.485 170.869 183.547 170.942 184.593 171.009C184.593 170.953 184.604 170.881 184.615 170.825C184.615 170.869 184.604 170.914 184.604 170.964C184.649 170.629 184.693 170.288 184.744 169.952L184.732 169.941Z" fill="black"/>
        <path d="M178.348 169.46C178.348 169.829 178.359 170.187 178.371 170.551C179.047 170.606 179.718 170.657 180.394 170.702V169.623C179.718 169.567 179.036 169.516 178.348 169.46Z" fill="black"/>
        <path d="M174.194 170.221C175.24 170.31 176.285 170.394 177.336 170.473C177.347 170.21 177.37 169.941 177.381 169.679C177.381 169.589 177.381 169.483 177.392 169.394C176.324 169.315 175.217 169.22 174.105 169.12C174.138 169.489 174.172 169.858 174.194 170.227V170.221Z" fill="black"/>
        <path d="M172.88 169.002C171.79 168.913 170.683 168.807 169.565 168.706V169.824C170.672 169.93 171.774 170.02 172.88 170.12V169.014V169.002Z" fill="black"/>
        <path d="M165.428 169.416C166.222 169.494 167.016 169.578 167.81 169.645C167.81 169.472 167.81 169.299 167.821 169.125C167.821 168.93 167.821 168.734 167.832 168.538C167.016 168.46 166.2 168.376 165.373 168.298C165.395 168.667 165.406 169.047 165.428 169.416Z" fill="black"/>
        <path d="M162.773 169.136C163.198 169.181 163.623 169.226 164.047 169.276V169.114C164.059 168.801 164.07 168.482 164.092 168.169C163.712 168.124 163.332 168.091 162.952 168.052C162.896 168.421 162.823 168.779 162.767 169.142V169.131L162.773 169.136Z" fill="black"/>
        <path d="M94.9826 150.459C89.5431 141.67 115.919 135.722 123.925 133.838C125.512 133.503 127.078 133.134 128.654 132.77C128.665 132.575 128.688 132.379 128.71 132.183C117.647 133.944 97.6884 138.657 93.5906 145.584C90.3034 151.532 99.0749 155.775 104.956 158.039C114.963 161.791 125.837 163.904 136.66 165.721C144.688 167.007 152.766 168.08 160.883 168.952C160.962 168.594 161.034 168.225 161.101 167.862C133.714 164.927 101.859 159.566 94.9938 150.459H94.9826Z" fill="black"/>
        <path d="M132.886 131.624C132.886 131.624 132.976 131.714 133.026 131.775C132.992 131.775 132.959 131.786 132.909 131.798C132.909 131.742 132.886 131.68 132.875 131.624H132.886Z" fill="black"/>
        <path d="M216.33 338.243C192.576 337.427 168.788 336.102 145.163 333.849C144.749 333.804 144.425 333.48 144.38 333.066C144.369 332.893 144.335 332.708 144.302 332.535C144.246 332.284 144.453 332.054 144.693 332.077C164.087 333.95 181.182 335.034 191.257 335.515C221.462 337.058 281.89 337.192 282.041 337.192C282.192 337.192 282.477 337.824 282.214 338.204C281.951 338.573 269.719 338.998 262.681 338.998C247.223 338.998 231.771 338.746 216.324 338.249L216.336 338.237L216.33 338.243Z" fill="black"/>
        <path d="M87.6758 326.123C88.0448 325.631 88.4137 325.145 88.7939 324.653C89.2411 324.731 89.6884 324.815 90.1412 324.893C90.1412 324.927 90.1188 324.949 90.1188 324.983C89.9679 325.475 89.8225 325.983 89.6716 326.475C89.0063 326.358 88.3466 326.235 87.6926 326.118H87.6814L87.6758 326.123Z" fill="black"/>
        <path d="M82.5717 325.167C82.7226 324.636 82.868 324.11 83.0077 323.579C84.137 323.797 85.2719 324.015 86.4123 324.222C86.0545 324.714 85.6967 325.212 85.3445 325.692C84.4109 325.519 83.4941 325.334 82.5717 325.161V325.167Z" fill="black"/>
        <path d="M77.5571 324.144C77.708 323.859 77.8534 323.568 78.0155 323.294C78.1552 323.076 78.2894 322.858 78.4292 322.64C79.6032 322.881 80.7884 323.121 81.9847 323.367C81.8226 323.898 81.6605 324.424 81.476 324.943C80.1622 324.681 78.854 324.412 77.5403 324.138L77.5515 324.15L77.5571 324.144Z" fill="black"/>
        <path d="M47.7989 315.825C-3.82934 295.543 66.1804 278.66 88.9897 274.965C93.1546 274.288 95.4914 273.735 96.0616 274.07C46.6696 282.663 -10.9516 303.057 77.9428 322.545C77.6465 323.037 77.3447 323.535 77.1043 324.055C67.0526 321.925 57.1797 319.336 47.7821 315.82L47.7933 315.831L47.7989 315.825Z" fill="black"/>
        <path d="M300.349 337.293C300.372 337.13 300.394 336.98 300.428 336.823C301.624 336.789 302.82 336.756 304.028 336.717C303.81 337.293 303.569 337.857 303.301 338.422C302.256 338.455 301.21 338.478 300.17 338.511C300.226 338.109 300.299 337.706 300.355 337.304L300.344 337.293H300.349Z" fill="black"/>
        <path d="M309.596 338.098C309.551 337.846 309.49 337.589 309.445 337.338C309.412 337.176 309.535 337.025 309.697 337.013C311.804 336.946 313.895 336.862 316.003 336.784C316.199 336.784 316.338 336.98 316.254 337.164C316.081 337.556 315.897 337.947 315.712 338.327C315.667 338.417 315.572 338.478 315.483 338.478C313.962 338.534 311.078 338.534 310.043 338.478C309.825 338.478 309.641 338.305 309.607 338.087L309.596 338.098Z" fill="black"/>
        <path d="M323.365 336.913C323.276 336.683 323.203 336.443 323.125 336.208C323.103 336.152 323.08 336.08 323.058 336.013C326.267 335.873 329.465 335.727 332.674 335.565C333.238 335.532 333.792 335.509 334.34 335.476C334.043 336.052 333.73 336.639 333.395 337.203C330.164 337.365 326.921 337.528 323.684 337.662C323.578 337.41 323.477 337.17 323.371 336.913H323.36H323.365Z" fill="black"/>
        <path d="M339.723 335.174C370.918 333.346 432.509 325.072 436.523 324.524C436.64 324.513 436.718 324.591 436.718 324.709C436.696 325.156 436.651 325.592 436.601 326.045C436.59 326.151 436.512 326.241 436.394 326.252C404.992 332.083 372.69 334.844 340.517 336.79C340.243 336.259 339.975 335.722 339.712 335.18H339.723V335.174Z" fill="black"/>
        <path d="M442.963 323.96C442.896 323.753 442.834 323.546 442.767 323.35C444.825 322.937 446.899 322.5 448.945 322.048C448.816 322.322 448.671 322.59 448.531 322.864C448.358 323.177 448.173 323.473 447.966 323.758C447.91 323.837 447.838 323.92 447.782 323.988C446.289 324.301 444.802 324.608 443.309 324.91C443.192 324.586 443.08 324.278 442.963 323.954V323.96Z" fill="black"/>
        <path d="M452.383 322.635C452.372 322.221 452.383 321.819 452.383 321.405C452.383 321.36 452.383 321.315 452.405 321.276C454.328 320.84 456.235 320.382 458.135 319.896C457.94 320.253 457.722 320.611 457.504 320.963C457.263 321.31 457.012 321.651 456.732 321.975C456.732 321.975 456.721 321.998 456.71 321.998C456.492 322.053 456.263 322.115 456.045 322.16C454.837 322.434 453.629 322.713 452.411 322.987C452.4 322.87 452.388 322.758 452.377 322.64L452.388 322.629L452.383 322.635Z" fill="black"/>
        <path d="M461.976 319.241V319.263V318.883C464.14 318.285 466.292 317.665 468.417 316.999C467.863 317.653 467.31 318.302 466.762 318.956C466.622 319.118 466.477 319.28 466.337 319.426C464.9 319.85 463.452 320.253 461.999 320.633C461.976 320.175 461.976 319.699 461.976 319.241Z" fill="black"/>
        <path d="M474.331 316.357C474.275 316.194 474.225 316.032 474.158 315.876C474.091 315.725 474.007 315.579 473.918 315.44C473.862 315.361 473.8 315.278 473.733 315.211C474.667 314.875 475.584 314.534 476.517 314.187C480.52 312.622 484.512 310.783 487.86 308.53C506.969 295.415 474.745 285.285 461.417 281.718C449.532 278.626 437.423 276.194 425.196 274.215V274.204C425.14 273.824 425.107 273.455 425.118 273.075V273.03C425.118 273.03 425.118 273.008 425.129 272.985C425.152 272.941 425.174 272.879 425.208 272.835C425.208 272.835 425.208 272.823 425.219 272.812C425.241 272.79 425.252 272.779 425.275 272.756C425.342 272.7 425.414 272.639 425.482 272.572C431.463 273.528 437.423 274.584 443.332 275.758C455.111 278.151 466.857 280.935 477.786 285.167C488.794 289.366 502.943 297.651 492.076 307.585C488.9 310.403 484.864 312.533 480.676 314.361C478.653 315.233 476.579 316.038 474.488 316.787C474.454 316.636 474.421 316.491 474.37 316.34L474.337 316.362L474.331 316.357Z" fill="black"/>
        <path d="M120.76 342.464C123.6 338.757 124.741 331.847 120.632 328.717C118.345 328.901 120.956 331.501 121.001 332.697C122.84 339.333 116.366 346.752 109.557 345.421C108.294 345.181 107.936 347.171 109.21 347.389C113.605 348.25 118.172 346.019 120.772 342.464H120.76Z" fill="black"/>
        <path d="M122.902 348.781C123.433 348.25 123.796 347.563 124.271 346.976C126.502 342.939 128.632 338.372 128.229 333.642C128.173 327.431 122.477 321.371 116.361 325.212C112.335 328.063 114.902 333.262 114.477 337.231C111.268 344.902 103.558 333.346 104.839 328.857C105.219 319.286 114.572 313.053 123.578 315.099C129.845 316.86 134.804 322.115 136.827 328.247C137.565 329.561 136.783 333.273 138.393 333.413C138.935 333.435 139.405 332.999 139.427 332.446C139.153 319.034 124.036 308.015 111.681 314.78C105.549 317.782 102.273 324.854 102.871 331.518C103.765 335.901 106.711 341.413 111.648 341.743C120.598 340.468 113.694 331.563 117.043 327.258C123.589 322.562 127.486 332.021 126.06 337.494C125.395 340.256 124.187 342.833 123.002 345.399C122.337 346.249 120.358 349.872 122.924 348.793L122.913 348.781H122.902Z" fill="black"/>
        <path d="M138.51 332.468C138.51 332.468 138.404 332.412 138.348 332.446C138.303 332.479 138.281 332.552 138.326 332.608C138.359 332.653 138.432 332.664 138.488 332.63C138.533 332.597 138.555 332.524 138.51 332.468Z" fill="black"/>
        <path d="M132.472 341.905C139.131 331.009 126.742 311.169 113.996 319.085C108.819 322.741 106.98 330.909 109.496 336.521C111.67 337.293 110.809 334.638 110.602 333.486C110.407 332.049 110.373 330.584 110.547 329.136C112.201 315.988 126.295 316.67 130.767 327.756C132.227 331.149 132.668 335.023 131.79 338.64C131.433 339.719 130.18 343.526 132.467 341.883V341.905H132.472Z" fill="black"/>
        <path d="M133.289 312.661C131.025 308.658 125.177 307.658 120.878 307.44C109.524 307.222 97.9065 316.15 97.3419 327.962C97.3195 328.505 97.7556 328.985 98.2979 328.997C100.025 328.79 99.1588 326.257 99.7458 325.072C102.815 312.203 119.223 305.449 130.527 311.957C130.494 311.934 130.527 311.957 130.438 311.912C131.243 312.164 132.702 313.785 133.3 312.661H133.289Z" fill="black"/>
        <path d="M121.772 303.152C119.357 300.865 115.075 301.681 112.039 302.151C105.448 303.644 99.2145 308.34 97.1404 314.976C96.7491 316.206 98.6722 316.815 99.0412 315.574C101.098 309.05 107.544 304.773 114.052 303.795C115.572 303.068 122.013 304.6 121.761 303.163L121.772 303.152Z" fill="black"/>
        <path d="M115.528 298.478C116.115 296.314 109.96 297.466 108.774 297.835C104.632 299.02 100.562 301.173 97.7556 304.516C97.1462 305.399 95.6256 307.093 97.0288 307.909C97.8003 308.245 98.3538 307.585 98.5606 306.897C102.172 301.229 109.339 299.339 115.528 298.478Z" fill="black"/>
        <path d="M321.04 89.6617C321.04 89.6617 320.973 89.6281 320.934 89.6505C320.894 89.6729 320.9 89.7176 320.922 89.7567C320.945 89.7959 320.99 89.7903 321.029 89.7679C321.068 89.7455 321.073 89.7008 321.04 89.6617Z" fill="black"/>
        <path d="M311.284 90.517C311.307 89.6449 309.926 85.9496 309.031 87.7553C310.541 90.3772 310.379 93.7371 308.148 95.9454C306.745 97.4268 304.615 98.3381 302.569 97.9244C301.764 97.7735 301.535 99.0425 302.351 99.1767C307.192 100.133 311.888 95.3472 311.29 90.517H311.284Z" fill="black"/>
        <path d="M321.604 88.9743C321.051 82.7745 315.371 76.9324 309.054 77.033C302.178 77.1504 296.436 83.9708 298.784 90.7353C299.679 93.9443 304.235 97.8688 306.661 93.866C307.997 91.2217 304.671 85.8269 309.328 85.5585C313.582 85.7654 313.85 91.6689 312.526 94.7269C311.961 96.5103 310.776 98.0645 310.25 99.8255C310.72 100.966 311.609 99.3894 311.955 98.903C319.234 87.4705 308.976 79.7276 305.56 87.0176C304.777 89.2706 306.929 92.323 304.822 94.0225C302.166 95.1406 300.394 91.5851 299.69 89.511C299.254 87.5096 299.779 85.3573 300.495 83.4956C303.955 76.9268 313.23 76.7982 317.518 82.5732C319.139 84.5411 320.324 86.9897 320.335 89.5781C320.576 90.903 321.979 90.0253 321.588 88.9575L321.599 88.9687L321.604 88.9743Z" fill="black"/>
        <path d="M317.188 85.9722C311.944 74.5731 298.611 81.1755 302.547 92.2503C304.408 92.6975 302.893 89.8911 303.145 88.9351C302.686 84.1049 307.461 79.1909 312.129 82.0588C316.003 84.2894 317.786 89.3265 316.763 93.6088C316.707 94.3579 315.774 95.5766 316.696 95.9456C319.318 93.8548 318.362 88.7674 317.188 85.9722Z" fill="black"/>
        <path d="M300.702 78.1847C304.911 74.7242 311.167 73.88 315.941 76.5858C315.919 76.5746 315.941 76.5858 315.885 76.5523C320.682 79.1071 315.354 73.2483 309.786 73.7011C302.552 73.5614 295.134 79.2581 294.776 86.7941C294.765 87.1407 295.038 87.437 295.385 87.4593C296.492 87.3307 295.939 85.7095 296.319 84.9492C296.95 82.2602 298.583 79.9122 300.702 78.1847Z" fill="black"/>
        <path d="M295.078 79.2857C296.123 79.4702 296.011 77.9048 296.514 77.3066C297.219 76.0041 298.124 74.981 299.243 74.0642C302.027 71.7888 305.716 70.8664 309.249 71.336C309.618 71.3695 310.39 71.5205 310.368 70.9447C306.387 68.4122 300.439 71.0006 297.325 74.0977C296.509 75.0201 293.68 78.3185 295.083 79.2857H295.078Z" fill="black"/>
        <path d="M295.424 73.6732C297.515 69.7878 302.384 68.5635 306.387 67.9765C306.79 67.4007 305.789 67.2721 305.409 67.2162C302.211 66.9982 299.036 68.4573 296.531 70.3692C295.726 71.1743 293.44 72.8514 294.586 73.9919C294.899 74.1316 295.301 73.9919 295.424 73.6676V73.6732Z" fill="black"/>
        <path d="M493.417 215.14C494.2 226.646 468.947 217.349 465.683 211.484C463.659 209.125 467.164 202.662 470.379 205.133C475.265 199.839 486.619 196.06 485.367 207.241C485.149 208.219 484.702 209.516 486.172 209.6C489.727 208.84 492.797 211.384 493.417 215.146V215.14Z" fill="white"/>
        <path d="M433.185 170.864C432.056 176.639 414.01 183.47 411.964 182.151C409.504 180.552 408.062 174.006 406.329 164.714C405.417 159.85 421.099 155.892 426.734 155.434C430.01 155.171 433.878 167.28 433.185 170.88V170.869V170.864Z" fill="#FED980"/>
        <path d="M222.737 167.135C225.381 167.526 227.902 172.138 226.001 175.856C224.425 178.925 200.615 177.282 199.508 175.029C196.126 171.993 196.691 166.134 203.617 166.654C205.283 164.306 206.737 157.083 212.495 158.151C220.903 159.219 217.269 167.733 222.731 167.135H222.737Z" fill="#FFF7DB"/>
        <path d="M81.2914 209.695C83.153 212.742 81.0286 219.484 79.4856 223.029C75.7344 230.034 64.5311 220.681 61.4395 218.31C57.8951 216.024 63.1167 206.945 64.4416 203.423C64.1174 201.366 80.5925 207.655 81.2914 209.679V209.69V209.695Z" fill="#FED980"/>
        <path d="M422.429 170.277C424.509 168.079 422.982 164.479 419.841 164.826C416.229 165.217 415.804 170.567 419.153 171.277C418.773 175.442 424.626 173.659 422.44 170.277H422.429Z" fill="black"/>
        <path d="M432 161.349C431.173 158.425 429.736 153.287 425.811 154.092C420.808 154.495 415.905 156.737 411.148 158.38C409.823 153.259 407.687 148.267 406.927 143.034C406.329 138.953 408.503 134.867 412.31 133.301C413.747 132.703 415.312 132.793 416.811 133.139C416.962 133.173 417.096 133.218 417.236 133.268C420.053 134.358 421.389 137.153 422.424 139.814C423.044 140.904 422.815 143.459 424.598 143.174C425.185 143.012 425.532 142.392 425.37 141.805C423.469 129.069 408.783 125.698 404.847 138.378C403.802 141.749 407.598 154.528 409.113 159.208C404.433 161.405 404.199 164.166 405.881 170.322C407.206 175.129 407.206 182.447 411.667 183.459C416.028 184.046 419.936 181.38 423.816 179.792C434.941 175.074 436.411 173.178 431.983 161.366L432.006 161.354L432 161.349ZM425.867 176.27C422.463 177.422 412.294 184.93 410.37 178.976C409.392 175.94 407.586 170.808 407.217 166.839C406.988 164.435 408.308 162.12 410.471 161.075C414.245 159.258 418.706 158.76 422.491 156.944C428.45 154.366 429.093 159.817 430.602 164.133C432.995 170.702 433.073 173.967 425.862 176.27H425.867Z" fill="black"/>
        <path d="M403.31 151.275C402.231 150.816 400.296 138.92 402.907 141.016C403.192 144.097 404.115 147.116 404.808 150.129C405.071 150.99 404.036 151.75 403.315 151.28L403.31 151.275Z" fill="black"/>
        <path d="M411.075 190.487C407.117 190.129 404.115 187.311 403.343 183.415C403.03 181.71 402.678 179.881 403.192 178.193C403.298 177.93 403.684 177.93 403.79 178.193C404.031 178.898 404.031 179.652 404.282 180.357C404.595 181.313 404.825 182.291 405.143 183.241C405.831 185.025 406.971 186.786 408.755 187.602C409.616 188.038 410.572 188.155 411.483 188.418C412.679 188.776 412.377 190.498 411.209 190.498H411.058L411.069 190.487H411.075Z" fill="black"/>
        <path d="M404.439 192.398C403.701 192.169 403.069 191.733 402.493 191.236C401.537 190.486 400.654 189.603 400.218 188.44C399.871 187.518 399.413 186.473 399.631 185.483C399.827 184.991 400.526 184.907 400.839 185.332C401.331 186.266 401.621 187.333 402.219 188.217C402.98 189.162 404.003 189.955 405.104 190.425C406.183 190.872 405.747 192.449 404.724 192.449C404.635 192.449 404.528 192.438 404.428 192.404L404.439 192.393V192.398Z" fill="black"/>
        <path d="M70.8261 210.976C69.3782 210.886 68.4446 211.445 67.975 212.921C67.6899 213.844 68.0085 214.878 68.6291 215.588C68.5229 215.728 68.4558 215.862 68.4334 216.035C68.2266 216.449 68.1371 216.918 68.316 217.36C68.5788 218.003 69.2105 218.523 69.9149 218.523C69.9931 218.523 70.077 218.523 70.1665 218.501C71.1672 218.294 71.5473 217.304 71.4187 216.432C74.2363 215.834 73.9736 211.177 70.8317 210.97L70.8205 210.981L70.8261 210.976Z" fill="black"/>
        <path d="M79.8771 206.235C81.1797 202.266 82.1189 198.185 82.9239 194.064C83.4886 192.315 84.0756 190.408 83.4886 188.591C81.1182 180.977 70.3397 179.076 67.5445 187.557C66.9128 188.809 66.5326 190.157 66.1301 191.504C65.9903 191.996 66.2922 192.527 66.7842 192.667C68.2768 192.907 68.1091 190.755 68.6235 189.827C69.5179 187.523 70.6808 184.846 73.1909 183.985C77.0316 182.962 81.4984 186.322 81.9568 190.196C81.7499 195.49 79.4858 200.454 78.1608 205.542C74.1357 204.138 69.9931 202.266 65.7611 201.908C62.446 201.231 61.2272 205.564 60.5284 208.052C59.4383 211.401 57.1014 216.566 59.9079 219.557C61.9875 221.603 64.9896 222.145 67.4327 223.638C70.7087 224.985 74.0239 227.25 77.7024 226.746C81.5096 225.835 81.3139 218.786 82.6053 215.633C83.9638 210.422 84.0979 208.236 79.8659 206.246H79.8771V206.235ZM80.0169 218.266C79.0833 220.485 79.5361 225.466 76.1035 224.902C72.3859 224.326 69.1098 222.151 65.7164 220.658C62.6584 219.373 59.6339 218.45 60.6067 214.403C61.3782 211.205 62.2391 207.901 63.7933 205.027C65.9456 201.958 69.9931 205.407 72.7548 205.81C74.6556 206.419 76.6179 206.867 78.4348 207.694C83.729 208.868 80.6989 214.587 80.0001 218.277L80.0113 218.266H80.0169Z" fill="black"/>
        <path d="M84.8023 199.504C85.7135 199.057 87.3683 189.139 85.1489 190.822C84.9085 193.433 84.1258 195.977 83.5388 198.531C83.3208 199.269 84.1817 199.912 84.8023 199.51V199.504Z" fill="black"/>
        <path d="M78.2335 232.684C81.5822 232.387 84.1203 230.006 84.7688 226.702C84.8583 226.277 85.149 224.656 85.1266 223.482C85.1266 222.884 84.2657 222.805 84.1259 223.376C83.5054 226.031 82.7786 228.988 80.179 230.241C79.4523 230.61 78.6361 230.699 77.8757 230.928C76.7968 231.253 77.1881 232.829 78.2335 232.678V232.684Z" fill="black"/>
        <path d="M83.8463 234.293C85.6073 233.969 86.3564 231.957 86.6639 230.358C86.7422 229.911 86.1552 229.67 85.9036 230.045C85.2383 231.068 84.2823 232.253 83.2705 232.622C82.2362 233.058 82.8791 234.612 83.8463 234.288V234.293Z" fill="black"/>
        <path d="M246.043 251.641C246.043 251.641 246.032 251.641 246.021 251.652C246.021 251.652 246.032 251.652 246.043 251.641Z" fill="black"/>
        <path d="M246.96 249.796C246.96 249.796 246.983 249.763 246.994 249.751C246.994 249.774 246.983 249.796 246.971 249.807L246.96 249.796Z" fill="black"/>
        <path d="M222.849 242.618C222.849 242.618 222.849 242.629 222.86 242.64C222.86 242.64 222.86 242.629 222.849 242.618Z" fill="black"/>
        <path d="M230.709 258.092C230.709 258.092 230.72 258.092 230.731 258.103C230.731 258.103 230.72 258.103 230.709 258.092Z" fill="black"/>
        <path d="M115.813 194.042C115.377 194.327 114.941 194.618 114.488 194.892C114.421 194.204 114.141 191.465 113.202 192.879C113.085 193.802 113.18 194.719 113.28 195.63C110.027 196.944 111.866 198.492 113.163 197.48C113.252 197.413 113.37 197.363 113.476 197.318C113.694 198.157 113.37 199.275 113.996 199.94C114.605 200.449 115.561 199.8 115.332 199.046C115.159 198.207 114.996 197.413 114.823 196.586C115.444 196.239 116.053 195.881 116.674 195.54C117.652 194.953 116.78 193.472 115.802 194.048H115.813V194.042Z" fill="black"/>
        <path d="M193.403 169.578C193.286 169.176 192.861 168.924 192.459 169.036C192.369 169.058 192.145 169.125 191.86 169.22C191.687 168.337 191.598 167.414 191.38 166.542C191.173 165.922 190.379 166.073 190.446 166.727C190.412 167.716 190.479 168.695 190.552 169.684C189.205 170.204 187.824 170.914 188.735 171.423C188.942 171.479 189.149 171.389 189.345 171.345C189.473 171.345 189.607 171.345 189.68 171.238C190.004 171.132 190.323 171.054 190.647 170.987C190.681 171.456 190.692 171.932 190.703 172.401C190.832 173.229 192.006 173.312 192.224 172.507C192.375 171.92 192.28 171.322 192.168 170.724C192.833 170.607 193.605 170.389 193.42 169.584H193.409L193.403 169.578Z" fill="black"/>
        <path d="M232.883 173.625C232.621 172.994 232.906 169.483 231.676 170.243C231.514 170.417 231.503 170.679 231.48 170.908C231.458 171.222 231.435 171.529 231.413 171.831C230.737 172.015 230.032 172.222 229.501 172.692C228.948 173.038 228.948 174.05 229.674 174.151C230.01 174.196 230.329 173.922 230.317 173.586C230.569 173.424 230.938 173.379 231.307 173.357C231.273 173.748 231.273 174.151 231.458 174.498C232.034 175.454 233.448 174.587 232.883 173.637V173.625Z" fill="black"/>
        <path d="M358.714 133.721C358.586 132.904 358.474 132.088 358.3 131.283C358.245 130.869 358.015 130.098 357.473 130.445C357.277 130.607 357.289 130.858 357.277 131.076C357.277 131.535 357.277 131.999 357.3 132.457C356.702 132.586 356.036 132.48 355.472 132.742C354.655 133.19 355.092 134.19 355.897 134.274C356.014 134.285 356.713 134.274 357.322 134.078C357.574 134.805 358.815 134.632 358.714 133.709V133.721Z" fill="black"/>
        <path d="M369.331 166.425C369.353 165.435 382.619 159.789 385.806 158.257C386.242 158.05 386.818 157.911 387.176 158.224C388.489 159.375 369.297 167.783 369.336 166.425H369.331Z" fill="black"/>
        <path d="M92.165 248.661C86.3788 247.728 80.9393 245.475 75.4047 243.624C73.4704 242.97 71.5305 242.35 69.6856 241.427C69.1769 241.092 67.1084 240.46 67.824 239.677C67.9414 239.56 68.137 239.515 68.2712 239.571C69.121 239.895 69.9595 240.275 70.8037 240.583C73.4256 241.561 76.1538 242.227 78.7981 243.127C81.5039 243.976 84.1706 244.899 86.8987 245.693C88.7268 246.213 90.5885 246.554 92.4445 246.956C93.5514 247.185 93.2719 248.829 92.1482 248.661H92.1706H92.165Z" fill="black"/>
        <path d="M63.0721 278.442C63.2678 277.396 66.8792 276.53 67.8911 276.094C71.1001 275.037 74.4041 274.115 77.6354 273.192C79.8883 272.734 82.1357 271.593 84.3887 271.465C84.931 271.716 84.8695 272.583 84.2992 272.751C77.5235 275.177 70.3677 276.317 63.5249 278.352C63.2846 278.397 63.0889 278.721 63.0665 278.431H63.0777L63.0721 278.442Z" fill="black"/>
        <path d="M167.961 339.11C160.436 338.349 152.878 337.371 145.459 335.968C145.33 335.912 145.219 335.806 145.174 335.683C145.096 335.498 145.252 335.291 145.459 335.291C151.083 335.291 156.88 336.65 162.566 337.075C164.428 337.259 166.306 337.455 168.156 337.65C169.101 337.79 168.928 339.238 167.961 339.121V339.11Z" fill="black"/>
        <path d="M271.128 341.396H271.061C270.994 341.396 270.91 341.385 270.876 341.318C270.737 340.916 271.441 340.983 271.681 340.904C275.606 340.228 279.609 340.535 283.539 340.088C284.886 339.904 286.228 339.663 287.564 339.445C287.911 339.389 288.24 339.652 288.291 339.999C288.335 340.345 288.084 340.675 287.737 340.737C286.725 340.888 285.714 341.022 284.702 341.162C282.124 341.542 279.514 341.301 276.925 341.279C274.98 341.223 273.04 341.335 271.106 341.408H271.128V341.396Z" fill="black"/>
        <path d="M428.618 245.671C428.478 245.257 428.707 244.821 429.11 244.67C430.384 244.2 431.665 243.747 432.928 243.289C438.368 241.355 444.053 240.231 449.47 238.218C452.45 237.139 455.324 235.803 458.074 234.227C458.672 233.891 459.271 233.55 459.869 233.215C460.193 233.064 460.64 232.639 460.914 233.03C461.227 234.16 458.443 235.893 457.627 236.48C452.104 240.024 445.551 241.383 439.312 243.16C437.255 243.725 435.203 244.301 433.18 244.977C431.983 245.369 430.798 245.76 429.613 246.151C429.21 246.291 428.763 246.073 428.612 245.659V245.671H428.618Z" fill="black"/>
        <path d="M479.172 283.412C472.917 280.398 466.393 277.983 459.779 275.887C459.365 275.831 459.354 275.182 459.779 275.115C460.193 275.037 460.618 275.16 461.02 275.244C465.828 276.418 470.546 278.039 475.125 279.923C475.103 279.923 475.069 279.901 475.047 279.89C476.657 280.555 478.244 281.304 479.832 282.031C480.715 282.478 480.084 283.814 479.178 283.412H479.172Z" fill="black"/>
        <path d="M311.793 339.602C311.782 338.472 311.749 335.37 311.883 334.967C312.274 334.196 313.169 334.632 313.275 335.359C313.493 336.762 313.515 338.187 313.538 339.602C313.538 340.082 313.146 340.485 312.665 340.485C312.185 340.485 311.793 340.082 311.793 339.602Z" fill="black"/>
        <path d="M319.81 338.059C318.569 337.852 318.06 336.264 319.603 336.091C320.168 336.091 320.844 336.342 320.984 336.952C321.157 337.617 320.453 338.204 319.821 338.059H319.81Z" fill="black"/>
        <path d="M296.296 338.948C295.894 338.881 295.48 338.635 295.307 338.26C295.229 337.997 295.167 337.673 295.251 337.399C295.491 336.952 296.067 336.672 296.565 336.823C297.096 336.952 297.839 337.388 297.621 338.031C297.47 338.629 296.934 339.076 296.296 338.953V338.948Z" fill="black"/>
        <path d="M336.71 337.131C335.687 336.695 336.341 334.934 337.375 335.454C338.493 336.041 337.94 337.617 336.71 337.131Z" fill="black"/>
        <path d="M220.444 165.57C219.248 154.735 204.825 155.496 203.433 165.844C195.841 164.418 194.068 172.345 199.961 176.309C200.397 176.93 201.364 176.874 202.052 176.997C209.068 177.673 216.095 177.573 223.1 178.227C231.978 178.02 227.483 164.77 220.456 165.575L220.444 165.564V165.57ZM226.108 173.385C225.834 177.779 220.623 176.113 217.666 176.259C212.936 176.236 208.224 175.716 203.505 175.739C201.526 175.739 199.676 174.66 198.809 172.865C198.245 171.691 197.937 170.439 198.267 169.416C198.887 167.37 202.096 166.459 203.801 167.677C204.478 167.951 205.043 167.275 204.942 166.621C204.802 159.582 214.043 155.244 217.789 162.16C219.298 164.25 218.18 167.046 219.203 167.577C219.651 167.828 220.115 167.543 220.517 167.347C223.486 166.99 226.27 170.59 226.108 173.396V173.385Z" fill="black"/>
        <path d="M492.987 211.115C491.399 208.93 488.593 208.549 486.082 208.561C488.693 196.412 475.751 196.412 470.748 204.44C470.597 204.725 470.15 205.821 470.804 205.67C470.882 205.704 470.966 205.637 470.932 205.553C473.28 202.182 477.143 200.387 481.23 200.678C483.634 200.678 484.361 203.518 484.484 205.486C484.69 206.867 483.863 208.214 484.115 209.544C485.266 211.753 490.236 208.555 492.478 214.017C493.999 220.491 486.396 220.759 482.136 219.127C476.176 217.572 467.824 215.666 465.811 209.002C465.582 206.839 467.628 204.53 469.859 205.195C469.769 205.542 469.412 206.498 469.987 205.676C471.15 204.597 469.216 203.892 468.31 203.96C465.437 204.099 463.469 207.275 464.134 209.986C466.874 217.293 476.238 219.004 482.885 221.374C490.074 223.94 498.516 218.07 492.998 211.087L492.987 211.099V211.115Z" fill="black"/>
        <path d="M481.588 224.538C481.263 224.493 479.078 223.884 478.435 223.32C478.239 223.146 478.412 222.828 478.664 222.883C479.687 223.146 480.721 223.415 481.783 223.504C482.51 223.633 482.292 224.712 481.576 224.538H481.588Z" fill="black"/>
        <path d="M351.626 210.651C351.452 188.245 351.329 165.838 351.329 143.437C351.329 136.454 355.516 116.323 344.576 116.323C286.233 116.323 227.88 116.323 169.543 117.335H169.588C168.654 117.324 167.726 117.313 166.793 117.301C160.073 117.245 153.359 116.932 146.639 117.027C119.838 115.557 128.995 122.227 127.475 144.656C126.787 177.461 126.591 210.282 126.591 243.11C126.591 264.002 142.547 258.568 155.108 258.774C163.332 258.73 185.029 258.73 211.164 258.646C210.002 265.718 209.923 273.047 207.368 279.823C205.54 280.527 196.864 279.778 196.305 280.913C195.74 282.053 195.421 283.708 196.154 284.938C196.892 286.168 201.906 285.916 204.126 285.883C210.823 285.765 217.515 285.732 224.213 285.827C243.181 285.687 262.39 284.826 281.247 285.162C282.684 285.184 280.962 280.874 278.569 280.689C276.45 280.516 274.315 280.438 272.185 280.438C271.564 280.438 270.999 280.102 270.714 279.554C267.276 272.952 266.801 265.634 265.353 258.377C463.922 254.453 182.094 255.856 137.923 256.214C130.616 256.214 129.018 246.609 129.018 246.632C129.051 245.262 129.157 236.971 129.269 225.142C202.555 225.785 275.908 224.991 349.21 225.511C348.73 233.712 349.004 241.707 349.406 249.148C348.992 255.75 346.946 254.414 341.881 255.588C341.032 256.382 342.753 256.784 343.285 257.08C346.505 257.483 351.385 256.745 351.201 252.513C352.039 238.626 351.463 224.605 351.626 210.674L351.637 210.64L351.626 210.651ZM264.375 264.225C265.213 270.112 265.929 276.916 269.943 281.55C270.943 282.266 277.708 281.746 278.971 282.182C279.408 282.573 279.614 283.16 279.844 283.702C252.433 283.356 224.984 283.965 197.574 284.094C197.792 283.356 197.792 282.931 197.87 281.986C199.307 282.517 208.213 282.713 209.213 280.572C212.4 273.807 213.032 266.02 213.194 258.623C229.412 258.568 246.843 258.495 263.782 258.35C263.598 260.178 264.185 262.928 264.347 264.225H264.369H264.375ZM349.037 216.231C349.222 218.484 349.255 220.843 349.244 223.247C275.936 223.683 202.589 222.822 129.292 223.409C129.565 195.339 129.934 149.223 129.89 126.565C127.799 116.658 137.001 120.466 143.257 120.052C156.025 120.052 168.794 119.756 181.563 119.778H181.54C230.798 119.236 280.039 119.101 329.286 118.464C354.354 116.994 348.992 119.006 349.015 141.251C348.612 166.246 349.071 191.23 349.026 216.231H349.037Z" fill="black"/>
        <path d="M253.439 183.319C256.145 180.211 252.841 175.129 248.928 176.37C245.166 177.282 244.623 183.006 248.341 184.365C248.145 185.399 242.426 193.438 248.056 193.645C256.855 194.635 253.3 189.161 252.461 184.18C252.83 183.94 253.149 183.638 253.428 183.308L253.439 183.319Z" fill="black"/>
        <path d="M293.445 279.845C293.294 269.368 292.534 257.69 292.769 246.648C293.054 232.616 287.547 204.58 296.185 203.395C334.491 201.645 379.639 202.886 415.838 202.461C417.37 202.439 418.678 203.518 418.946 205.038C421.222 218.092 418.857 267.372 418.902 280.281C382.608 280.51 297.845 281.326 293.451 279.845H293.445Z" fill="white"/>
        <path d="M439.558 313.488C433.705 304.342 419.706 281.349 419.634 280.739C380.567 280.89 332.254 281.684 293.708 281.052C260.439 330.562 269.238 317.815 321.152 318.128C351.335 318.313 381.473 318.531 411.936 318.497C434.404 317.637 438.832 323.501 439.564 313.505L439.553 313.494L439.558 313.488Z" fill="#FFF7DB"/>
        <path d="M355.757 219.451C355.019 217.298 355.377 212.915 355.757 210.606C359.911 209.304 361.291 216.208 366.798 213.262C364.567 225.835 359.793 215.37 355.757 219.462V219.451Z" fill="#FED980"/>
        <path d="M370.723 268.653C371.645 273.947 341.127 274.92 339.679 266.936C339.472 265.774 340.942 248.326 342.943 236.233C344.28 228.206 343.888 224.572 344.716 224.488C345.806 224.382 347.74 223.878 348.567 224.533L348.959 229.581L352.285 229.765C352.207 227.971 353.034 224.488 353.034 224.488L358.004 223.923C357.591 226.433 358.647 229.514 358.647 229.514C358.647 229.514 361.398 230.688 362.315 229.178C362.868 228.284 362.695 224.935 362.784 224.292C362.784 224.292 366.658 222.671 367.089 224.214C369.124 231.414 370.818 267.546 370.745 268.642L370.723 268.653Z" fill="#FFF7DB"/>
        <path d="M371.494 266.567C371.321 255.778 370.102 245.022 369.124 234.277C368.548 230.766 368.721 227.009 367.547 223.627C367.067 223.062 366.122 223.431 365.468 223.398C360.397 223.487 362.672 225.684 361.867 229.312C357.44 230.682 358.91 227.345 358.312 224.426C358.647 223.565 357.401 223.47 356.07 223.565C356.159 222.632 355.897 220.183 356.54 219.663C358.357 217.572 360.336 220.217 362.382 220.183C367.156 220.301 365.669 215.375 368.123 213.016C368.213 212.938 368.308 212.854 368.408 212.787C368.844 212.491 369.605 211.831 368.833 211.741C366.591 211.479 365.373 213.603 363.908 213.653C361.308 213.502 358.239 208.432 355.349 210.595C355.243 210.674 355.164 210.791 355.12 210.931C354.466 213.094 354.846 222.056 355.466 223.621C354.583 223.7 353.739 223.828 353.409 223.817C351.083 224.37 352.855 227.831 351.765 229.463C350.96 229.463 350.144 229.374 349.339 229.324C349.294 226.657 350.809 222.973 346.544 224.08C345.817 224.287 344.118 223.733 343.866 224.611C342.636 233.617 341.222 242.59 340.355 251.652C340.277 254.503 338.678 261.95 338.862 266.355C338.93 268.071 339.841 269.642 341.3 270.531C346.913 273.947 354.343 273.131 360.693 273.086C364.959 272.465 371.841 273.203 371.472 266.612L371.494 266.59V266.567ZM355.886 213.022C355.964 211.333 356.601 210.847 357.104 210.976C360.302 211.781 362.398 216.633 366.513 213.793C365.199 215.532 365.993 217.841 363.763 218.83C361.252 220.166 358.507 216.197 355.897 218.981C355.863 217.382 355.79 214.911 355.886 213.022ZM367.296 270.827C360.52 272.885 348.26 273.142 342.401 269.748C340.964 268.921 340.148 267.322 340.26 265.651C341.227 252.021 343.262 238.481 344.732 224.907C345.906 224.963 347.058 224.929 348.215 224.874C348.696 226.439 346.767 230.246 349.322 230.246C352.347 230.788 353.521 230.335 353.476 227.037C353.42 226.299 353.834 225.31 353.442 224.667C354.717 224.309 356.327 224.309 357.641 224.493C357.848 226.405 356.338 230.38 359.413 230.28C361.968 230.52 363.472 230.486 363.142 227.417C362.773 224.091 363.248 224.186 366.351 224.253C368.984 238.207 369.722 252.686 370.069 266.92C370.113 268.703 368.99 270.313 367.285 270.822L367.296 270.833V270.827Z" fill="black"/>
        <path d="M365.591 252.602C365.864 252.267 366.06 251.887 366.189 251.473C366.317 251.082 366.351 250.657 366.328 250.243C366.328 250.21 366.328 250.165 366.317 250.115V249.964C366.284 249.813 366.25 249.678 366.189 249.528C366.133 249.354 366.071 249.181 365.993 249.008C365.904 248.823 365.797 248.639 365.658 248.477C365.518 248.303 365.373 248.141 365.21 247.996C364.718 247.571 364.092 247.28 363.438 247.202C363.254 247.18 363.069 247.18 362.874 247.191C362.516 247.18 362.169 247.202 361.828 247.308C361.448 247.426 361.09 247.582 360.772 247.828C360.436 248.08 360.151 248.381 359.933 248.722C359.726 249.058 359.586 249.41 359.497 249.79C359.475 249.908 359.452 250.008 359.441 250.126C359.407 250.506 359.43 250.897 359.519 251.277C359.625 251.669 359.793 252.049 360.039 252.384C360.257 252.669 360.531 252.927 360.844 253.111C361.018 253.217 361.202 253.284 361.398 253.329C361.073 254.224 360.71 255.112 360.319 255.985C360.078 256.605 359.86 257.248 359.592 257.857C359.441 258.305 359.189 258.836 359.257 259.305C359.279 259.384 359.335 259.434 359.396 259.456C359.614 260.121 360.319 260.49 361.157 260.446H362.527C363.634 260.446 364.746 260.412 365.607 259.663C366.217 259.02 365.92 258.042 365.758 257.282C365.529 256.27 365.311 255.258 365.009 254.268C364.964 253.933 364.903 253.592 364.836 253.256C365.11 253.072 365.367 252.854 365.574 252.591L365.596 252.602H365.591Z" fill="black"/>
        <path d="M370.885 309.877C370.561 308.15 370.275 306.495 369.744 304.807C369.47 302.425 367.95 303.359 366.155 303.163C361.772 303.252 357.389 303.28 352.995 303.303C349.669 303.359 346.326 303.303 342.999 303.454C342.401 303.672 342.519 304.466 342.334 304.963C341.932 306.758 341.311 308.507 340.987 310.313C341.076 311.107 342.066 310.805 342.619 310.822C348.338 310.788 354.041 310.744 359.76 310.744C370.147 310.744 371.254 311.387 370.885 309.883V309.894V309.877ZM342.53 309.832C343.011 308.083 343.38 306.288 343.888 304.555C351.676 304.186 359.821 304.438 367.62 304.371C368.078 304.371 368.492 304.684 368.598 305.142C368.895 306.478 368.99 307.797 369.359 309.1C369.448 309.413 369.219 309.721 368.9 309.709C368.28 309.698 350.703 309.849 342.524 309.827L342.535 309.838L342.53 309.832Z" fill="black"/>
        <path d="M438.071 310.291C437.082 308.781 436.171 307.16 435.103 305.701C432.157 301.24 429.892 296.359 427.03 291.853C425.638 289.735 424.213 287.633 422.971 285.413C422.06 283.999 421.451 282.4 420.282 281.159C420.26 281.136 420.226 281.103 420.204 281.069C420.226 281.036 420.249 281.002 420.26 280.963C420.294 280.896 420.294 280.823 420.305 280.745C420.327 280.594 420.327 280.449 420.327 280.298V278.375C420.327 277.089 420.338 275.809 420.349 274.523C420.361 273.064 420.372 271.599 420.372 270.14C420.372 268.681 420.349 267.356 420.338 265.953C420.327 264.421 420.316 262.883 420.316 261.352C420.316 259.82 420.282 258.232 420.271 256.684C420.26 253.553 420.249 250.428 420.249 247.308V234.02C420.249 232.538 420.249 231.191 420.238 229.765C420.238 228.373 420.226 226.993 420.204 225.6C420.193 224.315 420.182 223.023 420.182 221.726V217.388C420.182 215.951 420.182 214.475 420.148 213.027C420.148 212.323 420.137 211.635 420.092 210.937C420.059 210.283 420.025 209.623 419.986 208.969C419.953 208.264 419.919 207.577 419.869 206.878C419.857 206.565 419.835 206.257 419.802 205.955C419.802 205.553 419.813 205.162 419.824 204.748C419.869 203.825 419.136 203.115 418.376 202.724C417.308 202.288 415.983 202.204 414.787 202.215C414.418 202.215 414.049 202.215 413.708 202.238C412.383 202.12 411.041 202.042 409.705 202.053C409.152 202.053 408.615 202.053 408.062 202.098C406.703 202.204 405.356 202.271 404.003 202.383H403.947C401.487 202.361 399.022 202.428 396.562 202.461C392.699 202.31 388.841 202.333 384.967 202.288C382.955 202.288 380.92 202.221 378.896 202.221C377.655 202.221 376.414 202.232 375.178 202.299C374.591 202.333 374.004 202.344 373.417 202.344C371.936 202.344 370.46 202.288 368.99 202.299H367.86C366.86 202.322 365.848 202.333 364.847 202.333C362.79 202.333 360.727 202.31 358.67 202.299C357.635 202.299 356.601 202.299 355.561 202.31C351.547 202.31 347.544 202.495 343.53 202.484C342.161 202.484 340.791 202.439 339.433 202.355C337.006 202.249 334.58 202.227 332.154 202.238C328.117 202.238 324.081 202.327 320.039 202.316C317.613 202.316 315.198 202.433 312.772 202.433C311.967 202.433 311.173 202.422 310.368 202.389C307.885 202.333 305.409 202.26 302.927 202.26C302.239 202.215 301.512 202.193 300.786 202.204C297.705 202.193 294.446 202.758 292.456 205.296C290.65 207.666 290.695 210.808 290.717 213.648C290.717 215.739 290.454 217.824 290.477 219.926C290.41 222.788 290.521 225.634 290.477 228.496C290.594 233.008 291.019 237.503 291.237 242.003C291.444 246.548 291.12 251.093 291.226 255.633C291.377 262.615 291.639 269.609 291.93 276.591C291.975 277.721 292.193 278.856 292.104 279.974C291.399 281.617 290.482 283.171 289.666 284.77C287.709 288.164 285.568 291.501 283.466 294.811C280.727 299.02 278.692 303.633 276.266 308.016C275.287 309.832 274.438 311.705 273.381 313.466C272.47 315.009 273.61 316.72 274.499 317.989C275.981 319.381 278.01 319.482 279.229 319.543C283.036 319.716 286.731 319.51 290.538 319.336C296.14 319.107 301.775 319.543 307.377 319.347C314.784 319.141 322.18 318.794 329.599 318.967C333.473 318.839 337.353 318.861 341.238 319.023C345.308 319.102 349.373 319.359 353.442 319.426C358.206 319.515 362.969 319.359 367.732 319.37C370.689 319.314 373.635 319.521 376.587 319.554C380.221 319.532 383.866 319.476 387.516 319.498C391.475 319.392 395.421 319.577 399.374 319.431C401.605 319.387 403.835 319.28 406.083 319.292C407.564 319.325 409.04 319.409 410.521 319.325C414.664 319.236 418.818 319.554 422.955 319.683C426.695 319.705 430.418 320.018 434.158 320.141C435.159 320.164 436.215 320.281 437.171 319.979C437.3 319.901 437.412 319.817 437.518 319.728C437.864 319.51 438.194 319.096 438.412 318.878C439.195 317.983 440.263 317.234 440.665 316.083C441.23 313.746 439.251 312.035 438.066 310.285H438.088L438.071 310.291ZM292.467 217.533C292.629 215.795 292.718 214.051 292.752 212.301C292.646 208.863 293.384 205.145 297.157 204.178C298.147 203.915 299.159 203.831 300.182 203.82C301.093 203.82 301.999 203.853 302.91 203.876C304.28 203.876 305.638 203.898 306.991 203.921C308.959 203.999 310.927 204.027 312.906 204.01C316.048 204.01 319.173 203.954 322.315 203.965H323.466C326.066 203.965 328.688 203.814 331.298 203.792H332.232C335.911 203.814 339.617 203.898 343.324 204.044H343.659C352.967 203.954 362.259 203.708 371.567 203.697C372.025 203.708 372.478 203.719 372.936 203.719C375.709 203.73 378.482 203.512 381.266 203.535C385.096 203.557 388.936 203.35 392.783 203.328H395.243C397.518 203.328 399.799 203.143 402.074 203.065C402.65 203.065 403.237 203.054 403.813 203.02C405.445 203.043 407.089 203.065 408.727 203.054C410.588 203.054 412.467 203.171 414.34 203.183H414.994C415.396 203.183 415.788 203.205 416.213 203.289C416.9 203.356 417.705 203.255 418.18 203.887C418.65 204.345 418.493 205.039 418.516 205.626C418.583 207.074 418.622 208.527 418.801 209.975C418.857 210.4 418.907 210.836 418.929 211.261V211.445C418.907 212.172 418.907 212.882 418.896 213.609C418.862 216.522 418.896 219.429 418.896 222.341V224.276C418.896 224.874 418.896 225.461 418.885 226.048C418.885 227.496 418.885 228.932 418.874 230.386C418.874 233.287 418.885 236.194 418.907 239.096C418.929 242.031 418.941 244.972 418.952 247.907C418.952 249.461 418.963 251.026 418.963 252.575V257.271C418.963 258.836 418.952 260.39 418.941 261.95V266.528C418.941 267.898 418.918 269.268 418.929 270.638C418.929 271.398 418.929 272.158 418.941 272.913C418.941 273.6 418.963 274.294 418.974 274.981C418.985 276.245 418.997 277.514 419.019 278.777C419.019 279.202 419.019 279.638 419.03 280.063V280.141C418.846 280.141 418.672 280.141 418.499 280.13H417.728C416.855 280.119 415.978 280.119 415.094 280.119H411.438C410.242 280.119 409.057 280.108 407.871 280.108C405.596 280.108 403.326 280.085 401.062 280.085C398.519 280.085 395.98 280.097 393.437 280.085C388.741 280.074 384.039 280.085 379.332 280.074C377.046 280.074 374.765 280.097 372.478 280.108C369.957 280.119 367.441 280.153 364.92 280.186C360.045 280.242 355.175 280.186 350.301 280.164C347.723 280.153 345.157 280.141 342.58 280.141H334.966C332.495 280.141 330.029 280.108 327.558 280.097C325.026 280.085 322.488 280.063 319.955 280.052C315.181 280.018 310.418 279.996 305.644 279.996C303.273 279.996 300.903 279.996 298.533 280.041C297.359 280.063 296.196 280.085 295.022 280.158C294.675 280.18 294.334 280.203 293.988 280.236C294.161 279.213 293.976 278.157 293.954 277.117C293.865 274.378 293.803 271.644 293.596 268.904C293.333 263.543 293.115 258.171 293.087 252.798C293.054 248.577 293.317 244.334 292.998 240.097C292.802 236.139 292.422 232.18 292.377 228.228C292.445 224.672 292.271 221.083 292.506 217.528H292.472L292.467 217.533ZM276.769 310.419C279.139 306.104 281.437 301.749 283.936 297.5C287.262 292.183 290.929 287.023 293.529 281.304C293.725 281.338 293.92 281.36 294.116 281.371C294.692 281.427 295.257 281.461 295.832 281.489C297.029 281.545 298.236 281.567 299.433 281.578C301.803 281.6 304.185 281.612 306.566 281.612C308.948 281.612 311.48 281.612 313.929 281.6C316.288 281.6 318.647 281.567 321.001 281.567C325.982 281.545 330.974 281.489 335.955 281.489C340.936 281.489 346.136 281.489 351.234 281.466C356.137 281.444 361.023 281.41 365.926 281.477C368.436 281.511 370.941 281.533 373.451 281.556C375.693 281.567 377.923 281.589 380.171 281.589H394.387C396.931 281.589 399.469 281.6 402.013 281.6C404.243 281.6 406.463 281.589 408.693 281.578C411.12 281.567 413.557 281.578 416 281.578C416.716 281.578 417.426 281.578 418.141 281.556C418.382 281.556 418.622 281.556 418.868 281.545H419.097C419.382 282.523 419.936 283.361 420.361 284.284C420.361 284.273 420.349 284.262 420.338 284.239C422.211 287.828 424.744 291.026 426.823 294.498C427.93 296.337 428.953 298.227 430.11 300.032C431.57 302.654 433.034 305.276 434.767 307.714C435.857 309.486 436.953 311.269 438.239 312.902C438.468 313.226 438.653 313.522 438.804 313.813C438.468 313.779 438.15 313.735 437.814 313.707C436.953 313.628 436.098 313.578 435.237 313.545C433.303 313.466 431.374 313.427 429.44 313.405C426.208 313.36 422.988 313.349 419.751 313.36H409.688C402.969 313.371 396.243 313.405 389.523 313.416C382.748 313.427 375.972 313.427 369.196 313.427H348.976C342.06 313.427 335.161 313.45 328.257 313.494C324.864 313.517 321.47 313.55 318.066 313.584C314.672 313.606 311.268 313.617 307.874 313.617C304.481 313.617 301.294 313.64 298.007 313.662C294.731 313.684 291.449 313.673 288.173 313.673H283.869C282.432 313.673 280.923 313.684 279.452 313.707C278.798 313.707 278.15 313.707 277.496 313.729C276.976 313.729 276.45 313.74 275.93 313.751H275.08C275.125 313.634 275.187 313.533 275.243 313.394C275.701 312.371 276.243 311.403 276.752 310.414L276.774 310.403L276.769 310.419ZM437.948 317.491C437.512 317.939 437.154 318.459 436.685 318.883C436.685 318.883 436.663 318.906 436.651 318.906C436.433 318.939 436.182 318.895 435.936 318.906C432.486 318.85 429.032 318.459 425.582 318.263C419.992 318.157 414.401 317.743 408.811 318.011C402.644 317.816 396.489 318.173 390.323 317.894C382.96 317.95 375.609 318.056 368.257 317.939C363.483 317.928 358.72 318.078 353.946 318.006C349.127 317.939 344.319 317.693 339.5 317.581C336.347 317.503 333.194 317.503 330.046 317.626C326.709 317.592 323.388 317.547 320.05 317.603C314.538 317.693 309.032 318.017 303.508 318.05C299.092 317.995 294.664 318.224 290.247 318.213C286.496 318.213 278.927 318.487 276.78 317.788C275.846 317.475 275.203 316.099 274.974 315.406C274.857 315.155 274.812 314.959 274.801 314.774C275.248 314.774 275.695 314.774 276.137 314.786C276.791 314.786 277.462 314.808 278.116 314.819C278.988 314.819 279.866 314.83 280.738 314.842C283.695 314.875 286.653 314.842 289.605 314.842H294.675C296.229 314.842 297.783 314.853 299.332 314.864C302.658 314.875 305.979 314.886 309.305 314.897C312.665 314.897 316.036 314.909 319.396 314.931C326.312 314.987 333.233 315.037 340.148 315.048C346.879 315.048 353.605 315.037 360.335 315.037C367.066 315.037 373.965 315.026 380.774 315.026C387.584 315.026 394.219 315.037 400.939 315.048C403.953 315.048 406.966 315.06 409.99 315.06H421.127C424.403 315.06 427.673 315.037 430.949 314.97C432.581 314.937 434.225 314.903 435.863 314.819C436.612 314.786 437.356 314.741 438.105 314.657C438.429 314.624 438.748 314.59 439.072 314.54H439.094C439.391 315.563 439.05 316.452 437.932 317.531L437.943 317.486L437.948 317.491Z" fill="black"/>
        <path d="M419.276 299.546C417.56 296.108 415.989 292.541 414.468 288.985C413.501 286.822 412.836 285.005 410.13 285.43H410.152C379.807 285.659 349.462 285.614 319.117 285.681C312.917 285.681 306.706 285.637 300.517 285.832C299.505 285.888 298.298 285.693 297.851 286.788C295.782 289.617 294.535 292.932 293.054 296.096C291.947 298.226 290.751 301.078 294.39 301.011C325.367 301.553 356.394 301.044 387.382 301.15C395.053 301.15 402.739 301.195 410.41 301.184C412.54 300.737 419.438 302.47 419.276 299.551V299.546ZM415.357 300.055C384.716 300.088 354.08 299.965 323.449 299.948C314.108 300.027 304.744 299.663 295.419 300.178C292.405 300.34 292.819 298.853 294.004 296.717C295.463 293.268 297.593 290.159 299.136 286.744C327.525 287.135 355.925 286.559 384.319 286.615C393.107 286.66 401.962 286.375 410.728 286.649C413.132 286.039 416.459 297.198 417.985 299.507C417.236 300.082 416.28 300.082 415.363 300.038V300.049L415.357 300.055Z" fill="black"/>
        <path d="M242.499 241.863C243.762 238.526 239.161 235.378 236.819 238.503C235.405 240.013 235.036 243.865 237.982 243.563C239.212 244.921 241.884 243.445 242.493 241.858H242.505L242.499 241.863ZM249.264 243.669C250.069 248.997 244.607 261.754 231.788 259.714C229.557 259.356 230.429 258.148 227.511 259.585C225.638 260.793 226.868 267.317 222.507 263.107C220.439 261.899 218.365 264.555 217.264 261.648C214.871 263.141 213.378 272.667 210.421 269.916C208.9 271.124 208.006 273.606 205.244 272.482C204.299 278.777 201.012 277.357 195.606 277.463C192.559 278.431 192.352 276.301 193.258 273.886C194.398 269.251 199.173 267.697 202.242 264.521C206.96 260.619 209.705 257.975 214.737 254.492C222.882 248.857 216.816 241.897 222.826 235.384C226.208 231.705 231.877 228.988 237.087 230.118C244.344 231.683 248.313 237.178 249.291 243.669H249.269H249.264Z" fill="white"/>
        <path d="M238.921 244.815C233.655 244.468 235.377 236.105 240.313 237.256C245.216 238.106 243.785 245.72 238.921 244.815ZM239.53 243.864C242.902 243.736 242.913 238.447 239.553 238.285C235.824 238.134 236.081 243.714 239.53 243.864Z" fill="black"/>
        <path d="M248.928 240.247C241.761 221.173 215.732 229.206 218.734 248.907C216.285 253.855 210.633 256.203 206.703 259.814C202.493 263.336 197.328 265.896 193.845 270.168C192.442 271.884 192.766 274.584 192.43 276.518C192.145 278.173 193.235 278.369 194.56 278.162C200.704 277.128 203.869 281.186 205.652 273.276C209.37 274.299 208.676 272.689 210.84 270.525C212.439 271.929 213.177 270.481 213.713 269.005C214.692 267.003 215.15 264.829 216.576 263.045C217.314 262.011 217.862 263.537 218.426 263.929C219.505 264.583 220.506 263.364 221.557 263.191C223.262 264.258 224.419 266.651 226.169 264.421C227.897 263.146 226.527 259.842 229.093 259.35C229.367 259.467 229.624 259.579 229.932 259.708C241.191 264.365 253.054 251.518 248.934 240.231V240.242L248.928 240.247ZM248.375 246.844C247.419 254.967 238.642 261.072 230.765 258.841H230.776C230.463 258.763 230.155 258.646 229.853 258.545C228.83 258.036 227.634 258.383 226.851 259.261C225.426 260.574 226.633 262.967 224.85 263.94C222.686 262.492 221.719 261.34 219.142 262.861C217.761 260.988 216.632 261.145 215.519 262.458L215.542 262.436L215.497 262.481L215.519 262.458C213.954 264.667 213.389 267.484 211.975 269.776C209.973 268.328 209.006 271.062 207.877 272.247C207.128 272.292 206.334 271.985 205.563 272.052C204.813 271.934 204.495 272.465 204.31 273.097C202.594 278.62 200.621 276.697 197.065 276.949C195.695 277.038 193.923 277.1 193.509 277.178C193.521 276.72 193.599 276.284 193.694 275.831C204.092 268.077 214.328 259.657 224.028 251.182C224.145 250.495 223.279 249.964 222.742 250.422C220.405 252.334 218.085 254.24 215.748 256.141C208.514 262.168 201.057 267.909 194.018 274.165C194.292 272.829 194.365 271.207 195.477 270.291C199.044 267.182 202.874 264.415 206.58 261.491C209.353 259.35 212.081 257.164 214.86 255.062C217.37 253.29 220.472 251.115 220.176 247.632C217.381 225.488 250.074 224.924 248.38 246.827L248.369 246.85L248.375 246.844Z" fill="black"/>
        <path d="M222.725 242.311C222.368 242.266 222.082 241.919 222.138 241.55C222.312 240.482 222.586 239.42 223.106 238.459C225.185 234.573 228.545 232.153 233.459 231.778C235.405 231.627 235.712 232.343 235.528 232.55C235.181 232.712 234.723 232.656 234.354 232.734C231.832 233.226 229.501 233.768 227.438 235.356C226.231 236.217 224.939 237.62 224.358 239.023C223.933 239.907 223.693 240.863 223.447 241.807C223.357 242.132 223.033 242.361 222.709 242.299L222.72 242.311H222.725Z" fill="black"/>
        <path d="M246.927 245.519C246.396 244.91 245.993 245.542 245.881 246.129C245.792 246.257 245.708 246.369 245.652 246.52C245.445 247.118 245.294 247.728 245.054 248.303C244.545 249.718 243.835 251.043 242.812 252.144C242.096 252.983 241.409 253.86 240.537 254.526C240.112 254.895 239.122 255.113 239.43 255.862C239.788 256.538 240.581 256.035 241.096 255.862C243.444 254.805 244.914 252.575 245.982 250.305C246.418 249.489 246.865 248.544 246.994 247.599C247.245 246.911 247.441 246.118 246.927 245.519Z" fill="black"/>
    </g>
    <defs>
        <clipPath id="clip0_4758_20774">
            <rect width="560" height="420" fill="white" transform="translate(0 -0.000488281)"/>
        </clipPath>
    </defs>
</svg>
