<svg xmlns="http://www.w3.org/2000/svg" width="282" height="211" fill="none"><g clip-path="url(#a)"><path fill="#fff" d="M54.83 149.481c.33.31.149.892-.315.977-.494.057-.994.072-1.488.142-1.653.367-3.32.693-4.964 1.101-4.864 1.257-9.714 2.57-14.597 3.762-1.586.486-3.141 1.052-4.73 1.53-1.265.287-2.574.783-3.89.548-1.195-.152-2.434-.519-3.579-.752-2.985-.383-5.989-.752-8.932-1.37-2.046-.365-4.062-.84-6.014-1.518-.933-.312-1.93-.343-2.907-.408-.471-.057-1.052 0-1.407-.339a.57.57 0 0 1 .028-.835c.29-.245.732-.253 1.097-.351 1.198-.293 2.382-.647 3.594-.892 1.418-.29 2.845-.468 4.247-.742 2.194-.365 4.325-.975 6.483-1.474 2.144-.408 4.272-.874 6.408-1.31 2.37-.427 4.758-.869 6.991-1.743-.047-.346.265-.664.642-.656.394.007.78.131 1.17.095a.4.4 0 0 1 .098.031.4.4 0 0 1 .064.047c5.205.879 10.384 2.068 15.449 3.454 1.427.328 2.809.506 4.26.511.562.006 1.123.024 1.684.011.224-.024.45.02.606.181z"/><path fill="#fff" d="M81.801 154.012c.355.199.424.701.112.959a2 2 0 0 1-.226.137 43 43 0 0 0-.746.241c-.24.054-.48.103-.706.173-1.43.377-2.898.594-4.345.907-1.488.316-2.99.584-4.487.866-1.884.458-3.738 1.011-5.617 1.487-2.971.705-5.981 1.269-8.935 2.034-1.653.437-3.275.902-4.897 1.414-1.047.282-2.108.719-3.211.703-1.983-.113-3.946-.444-5.86-.93-1.313-.354-2.773-.486-3.893-1.27-2.918-.09-5.707-.881-8.544-1.432-.55-.082-1.106-.103-1.658-.15-.573-.095-1.335.024-1.665-.491-.178-.308-.016-.706.333-.83 1.505-.457 2.878-1.142 4.386-1.574 2.558-.783 5.244-1.143 7.793-1.962 3.314-1.138 6.79-1.735 10.227-2.456 2.206-.414 4.345-1.081 6.556-1.461.257-.09.534-.088.799-.137.134-.031.312-.005.346.135.986.201 1.952.431 2.915.659 1.094-.15 2.144.457 3.216.618q1.733.265 3.465.535c1.64.189 3.284.377 4.895.698q.594.076 1.19.145c1.85.181 3.707.276 5.547.543a39 39 0 0 1 2.2.286c.271.034.562.016.807.148z"/><path fill="#fff" d="M98.054 165.17c.273.251.2.714-.106.918-.263.15-.575.214-.86.32-1.084.367-2.192.675-3.261 1.083-2.851 1.187-5.8 2.141-8.815 2.904-2.198 1.088-4.507 1.98-6.844 2.779-3.345 1.168-6.835 1.9-10.227 2.936a10 10 0 0 0-1.603.603c-.471.168-.938.525-1.457.457-1.335.523-2.636 1.109-3.96 1.65-1.044.424-2.23.68-3.358.406a931 931 0 0 1-9.725-2.433c-2.164-.546-4.28-1.244-6.45-1.781-2.175-.471-4.33-1.011-6.494-1.526-1.55-.302-3.122-.511-4.657-.881-.894-.197-1.818-.22-2.717-.393-.67-.127-1.34-.248-2.008-.393-.36-.103-.793-.155-1.03-.452-.268-.323-.058-.83.369-.918 2.691-.695 5.492-1.347 8.122-2.172 4.221-1.471 8.574-2.598 12.944-3.632 2.415-.522 4.721-1.383 7.114-1.97 2.656-.571 5.252-1.341 7.89-1.967 1.34-.284 2.703-.476 4.024-.835-.2-.473.35-.938.846-.755a35 35 0 0 0 1.558.259c.173-.016.402-.055.528.082 3.356.52 6.656 1.28 9.965 2.012 4.635.416 9.175 1.458 13.706 2.357 1.215.246 2.407.6 3.63.794.64.059 1.276.119 1.91.209.34.055.72.08.96.334zm32.542-10.607c1.301-.186 1.516 1.022.277 1.371-2.055.579-4.149 1.057-6.218 1.6-3.326 1.153-6.693 2.22-10.138 3.022a.94.94 0 0 0-.453.103q-.426.097-.857.189c-1.452.284-2.781.933-4.188 1.362-1.248.422-2.505.822-3.755 1.236-.919.3-1.835.605-2.74.944-.692.214-1.368.628-2.116.586-1.87-.336-3.73-.661-5.612-.935-1.695-.339-3.384-.724-5.056-1.011-2.536-.401-5.088-.716-7.553-1.406-1.988-.311-3.998-.518-5.95-1.004-1.472-.276-2.904-.723-4.38-.969-.45.018-.892-.023-1.344.018-.296-.026-.648-.005-.863-.225-.416-.463-.061-1.044.548-1.109 2.585-.556 5.098-1.352 7.68-1.934q1.52-.546 3.06-1.047c.25-.082.495-.16.746-.24 5.33-1.704 10.803-3.037 16.334-4.064-.087-.359.243-.716.64-.703.421.018.823.186 1.228.3.276-.083.603-.003.771.22 1.142.292 2.325.356 3.498.465 2.264.204 4.529.414 6.788.672 2.172.292 4.288.882 6.486 1.034 2.85.29 5.735.44 8.504 1.164l1.106.261c.313.054.679.165.762.486q.352.028.704.031c.69-.168 1.382-.326 2.086-.409z"/><path fill="#fff" d="M149.626 165.197c.525-.047 1.234.139 1.204.737-.062.519-.701.847-1.162 1.054-2.147.515-4.244 1.28-6.173 2.293-2.259 1.283-4.604 2.446-7.067 3.356-.547.152-1.173.773-1.734.411-2.091 1.049-4.347 1.828-6.324 3.066.101.473-.357.721-.801.755-.383.09-.835.294-1.145-.036a.6.6 0 0 1-.142-.231c-3.211-.341-6.431-.656-9.594-1.29-2.435-.579-4.867-1.178-7.363-1.507-2.362-.343-4.738-.592-7.103-.907-.854-.111-1.711-.202-2.56-.362-.648-.15-2.002-.199-1.723-1.104-1.332-.039-2.619-.372-3.923-.592-.983-.178-1.949-.442-2.943-.476-.458.109-.944.424-1.415.241a.555.555 0 0 1-.084-.993c.41-.201.885-.274 1.315-.437 1.025-.364 2.033-.762 3.057-1.132 3.047-1.264 6.023-2.438 9.167-3.443 1.198-.409 2.421-.724 3.649-1.024.48-.078 1.064-.427 1.488-.067 1.798-.779 3.649-1.489 5.582-1.926l.075-.016a.55.55 0 0 1-.106-.625.65.65 0 0 1 .265-.285.9.9 0 0 1 .452-.103c.305-.003.643.08.922.114q.913.129 1.826.24c4.638.602 9.253 1.349 13.851 2.164 4.387.514 8.843.7 13.16 1.621 1.75.395 3.551.517 5.346.501zm42.214 5.561c1.159.902-.941 1.747-1.628 2.169-1.259.605-2.479 1.272-3.75 1.859-2.339 1.096-4.467 2.51-6.659 3.833-.047.316-.34.556-.578.766-.413.336-.857.641-1.318.92-1.083.62-2.032 1.414-3.079 2.086-.905.605-1.826 1.187-2.711 1.815-.486.274-.975.874-1.595.755a.67.67 0 0 1-.854-.06.6.6 0 0 1-.142-.212c-.693-.026-1.391.013-2.083-.08-1.112-.165-2.192-.46-3.32-.545-.762-.109-1.525-.217-2.284-.344-.559-.127-1.561-.042-1.53-.794-4.858-.282-9.613-1.31-14.343-2.301-3.155-.276-6.243-.943-9.365-1.414-.53-.077-1.086-.108-1.566-.346-.684-.129-1.371-.248-2.05-.396-.552-.111-1.075-.302-1.613-.452-.612-.165-1.26-.217-1.857-.429a.17.17 0 0 1-.134.049.14.14 0 0 1-.087-.047c-.142.016-.24.143-.391.114a.42.42 0 0 1-.248-.155c-.394-.538.394-1.109.969-.949l.036.008a.53.53 0 0 1 .17-.238c.224-.194.486-.336.754-.468 1.014-.514 2.055-.979 3.097-1.447 2.423-1.089 4.841-2.187 7.265-3.281a198 198 0 0 1 6.687-2.81q1.921-.95 3.839-1.905c.329-.171.681-.303 1.008-.473.223-.135.483-.199.748-.187 2.195.352 4.431.414 6.64.675 3.188.466 6.341 1.138 9.521 1.655 1.937.356 3.909.527 5.869.734 2.585.271 5.165.582 7.745.912 2.142.223 4.261.587 6.411.75.589.042 1.178.07 1.767.104.226.012.458.015.659.129"/><path fill="#fff" d="M247.962 169.959a.61.61 0 0 1 .201.61c-.832.556-1.636 1.566-2.303 2.419a.62.62 0 0 0-.525.665 7 7 0 0 1-.274.323q-.155.223-.318.442c-.48.471-.963.941-1.463 1.399a409 409 0 0 0-6.589 6.021 46 46 0 0 0-1.215 1.109c.221.39-.078.979-.709.855q-.071-.007-.142-.018c-.19.186-.397.347-.629.365a.6.6 0 0 0-.463-.166.57.57 0 0 1-.201-.349c-2.714-.31-5.436-.561-8.161-.77-2.209-.181-4.42-.365-6.632-.54h-.005q-.835-.094-1.67-.192c-2.745-.183-5.478-.475-8.214-.755-2.932-.173-5.785-.871-8.7-1.186a139 139 0 0 0-3.46-.409 37 37 0 0 0-3.208-.473c-1.315-.168-2.605-.496-3.931-.592-1.371-.088-2.75-.165-4.091-.468-.131-.033-.268-.059-.407-.088l-.266.143c-.159.072-.315.173-.474.258q-.28-.023-.561-.044a.613.613 0 0 0-.542-.607.72.72 0 0 1 .341-.349c-.182-.579.432-.851.924-1.011a42 42 0 0 0 5.729-2.901c.561-.294 1.067-.726 1.675-.928 1.438-.933 2.89-1.853 4.314-2.805 1.218-.817 2.334-1.75 3.538-2.585.695-.507 1.424-.977 2.147-1.45.357-.21.642-.605 1.097-.615 1.438.279 3.077.237 4.512.354 1.279.059 2.566.054 3.837.204 1.2.134 2.482.393 3.646.587 2.158.326 4.308.687 6.464 1.021 5.436.768 10.931.972 16.398 1.458 1.977.246 3.962.458 5.952.587q1.48.077 2.954.183c.472.078 1.02.024 1.416.298z"/><path fill="#fff" d="M233.999 184.148c.24.23.285.646-.07.954-1.189 1.489-2.773 2.639-4.171 3.955-1.533 1.316-2.848 2.82-4.25 4.253-1.53 1.551-2.909 3.231-4.532 4.702a.69.69 0 0 1-.664.14c-.212.23-.427.462-.589.633-.547.592-1.097 1.187-1.639 1.784.089.168.045.362-.089.499q-.522.465-1.034.938a.58.58 0 0 1-.46.424q-.317.291-.634.587c-.179.24-.528.38-.818.225a.52.52 0 0 1-.226-.711c-.296.021-.615-.031-.897-.031-1.362-.135-2.741-.176-4.087-.411-1.033-.166-2.002-.556-2.926-.972-2.541-.507-5.071-1.047-7.631-1.44-.564.527-1.513.088-2.195.01a24 24 0 0 0-1.89-.341c-2.262-.261-4.579-.295-6.743-1.029-2.074-.243-4.235-.282-6.168-1.13-.491-.219-1.1-.434-1.334-.923a151 151 0 0 1-5.615-.948c-1.036-.174-2.041-.476-3.071-.667-1.123-.171-2.242-.347-3.373-.468-1.195-.088-2.332-.44-3.502-.647-1.186-.188-2.348-.498-3.54-.641-.413.28-.938.683-1.362.202-.57-.788.86-1.207 1.343-1.642 1.767-1.209 3.719-2.15 5.466-3.386 3.44-2.123 6.749-4.395 10.097-6.636 1.052-.874 2.191-1.647 3.37-2.368q.45-.276.904-.543a.55.55 0 0 1 .408-.238c.29-.155.567-.406.921-.377h.02a.61.61 0 0 1 .542.607q.28.02.561.044c.918.072 1.837.158 2.753.209 1.1.019 2.178.223 3.269.344 2.117.241 4.239.44 6.358.665 1.156.124 2.309.256 3.459.408 2.915.313 5.769 1.013 8.701 1.187 2.736.279 5.469.571 8.214.755q.833.097 1.67.191h.005c1.675.186 3.351.362 5.026.548 2.532.243 5.054.61 7.558 1.044.659.104 1.321.168 1.983.238q.029-.026.058-.049a.8.8 0 0 1 .371-.124.63.63 0 0 1 .464.165z"/><path fill="#fff" d="M281.171 182.719c.918 2.215.544 5.87-.344 8.073-1.083 2.58-2.834 5.057-4.738 7.135a14.2 14.2 0 0 1-6.324 4.085c-9.879 3.391-20.461 5.586-31.034 5.222-6.595-.261-13.335-.649-19.62-2.637-.997-.334-3.677-.962-2.245-2.273 1.041-.899 2.06-1.835 3.205-2.623.081-.241.316-.471.528-.655.421-.429.818-.881 1.231-1.321 2.463-2.574 5.157-4.95 7.614-7.533 1.156-1.137 2.371-2.223 3.482-3.399.815-.923 1.725-1.763 2.594-2.642q.992-1.134 2.016-2.244c2.359-2.539 5.154-4.723 7.209-7.492q.163-.217.318-.442.129-.144.274-.323a.623.623 0 0 1 .525-.665c.667-.853 1.471-1.864 2.303-2.419.341-.228.684-.378 1.025-.409.991.091 1.971.321 2.962.437 2.896.429 5.83.587 8.72 1.052 3.099.564 6.176 1.283 9.203 2.115 1.365.346 2.582 1.029 3.786 1.701 1.008.556 2.027 1.122 2.923 1.828.95.739 1.712 1.654 2.452 2.572.734.894 1.513 1.789 1.937 2.851z"/><path fill="#0D0C21" d="M.012 152.561c-.114-.68.603-.734 1.14-.825q.694-.144 1.393-.279c2.138-.452 4.283-.882 6.41-1.375 5.255-1.254 10.607-2.115 15.882-3.299 1.767-.463 3.56-.861 5.31-1.37.735-.21 1.447-.328 2.172-.551.188-.044.391-.147.573-.039v.003c.907.659-2.404 1.411-2.834 1.626-2.775.915-5.632 1.605-8.502 2.216-3.836.796-7.698 1.483-11.512 2.373-2.493.589-5.003 1.101-7.513 1.623-.587.114-1.173.233-1.762.344-.332.065-.684-.129-.76-.45z"/><path fill="#0D0C21" d="M49.025 163.907c-1.06.013-2.083-.276-3.116-.457-2.965-.61-5.858-1.487-8.817-2.12-4.141-.946-8.256-1.675-12.358-2.725-3.384-.848-6.813-1.538-10.239-2.231-2.817-.504-5.634-1.005-8.393-1.74-1.161-.284-2.323-.561-3.479-.868a49 49 0 0 1-1.714-.473c-.249-.073-.508-.158-.656-.37-.408-.538.7-1.008.991-.486 3.133.68 6.215 1.476 9.36 2.097 1.753.323 3.514.597 5.26.948 4.327.82 8.6 1.862 12.88 2.875 3.64.745 7.287 1.502 10.9 2.35 2.348.569 4.67 1.246 7.053 1.688.79.145 1.566.349 2.378.331.821.059.799 1.176-.053 1.176zm25.31-10.186-4.188-.799q-2.43-.463-4.859-.928l-4.961-.948-5.149-.988q-2.6-.5-5.196-1.003l-5.23-1.013a669 669 0 0 1-6.698-1.332l-.092-.018c-.01 0-.022-.005-.033-.005l-.067-.013h-.011c-.081-.015-.162-.034-.174-.036-.209-.044-.418-.085-.608-.124-.084-.018-.168-.034-.187-.039-.182-.039-.363-.075-.497-.103-.765-.158-1.533-.316-2.295-.481a25 25 0 0 1-1.067-.251 10 10 0 0 1-.525-.153c-.156-.054-.33-.126-.394-.279a.25.25 0 0 1 .065-.279c.142-.132.371-.116.555-.103q.307.02.609.064.63.087 1.254.194 1.29.22 2.574.447l1.03.184h.006c1.37.246 2.744.491 4.115.745 1.745.32 3.488.651 5.233.977 1.742.325 3.481.656 5.22.985s3.471.656 5.208.987a8978 8978 0 0 1 9.98 1.9l4.93.941 1.656.316c.164.031.31.103.413.23.1.126.145.287.117.442-.044.274-.318.504-.62.504a1 1 0 0 1-.108-.01z"/><path fill="#0D0C21" d="M21.032 171.232c-.207-.731.533-.798 1.105-.925a78 78 0 0 1 2.77-.639c4.462-1.042 8.845-2.29 13.21-3.634 3.445-1.135 6.944-2.306 10.45-3.175 6.352-1.784 12.822-3.169 19.26-4.661 5.19-1.287 10.39-2.583 15.527-4.03 4.16-1.102 8.351-2.105 12.534-3.131.715-.191 1.421-.408 2.138-.587.263-.033.545-.147.794-.033.12.056.181.186.122.305-.058.106-.173.144-.284.188a29.6 29.6 0 0 1-4.702 1.593c-8.056 2.112-16.055 4.405-24.144 6.414-6.645 1.636-13.44 2.996-20.016 4.834-2.058.571-4.057 1.062-6.073 1.696-2.323.755-4.632 1.551-6.975 2.259q-4.665 1.377-9.381 2.596c-1.452.38-2.926.667-4.386 1.018-.66.096-1.578.659-1.947-.085z"/><path fill="#0D0C21" d="M57.744 180.28h-.006l.07.031.064.023c-.17-.054-.349-.096-.522-.139l-.597-.156q-.601-.154-1.2-.312-1.202-.315-2.408-.626c-1.658-.429-3.314-.861-4.972-1.287l-5.015-1.298-4.998-1.293-5.048-1.308q-2.495-.65-4.987-1.303a538 538 0 0 1-5.045-1.344 27 27 0 0 1-.79-.225q-.233-.072-.464-.152a.8.8 0 0 1-.22-.114c-.034-.029-.07-.057-.098-.093a.4.4 0 0 1-.064-.137c-.034-.111.014-.223.1-.298.188-.16.464-.111.69-.069q.318.063.631.134.619.145 1.237.292 1.23.299 2.46.605c1.672.416 3.348.835 5.017 1.256l5.104 1.29 4.984 1.265c1.703.434 3.41.866 5.112 1.3l4.962 1.259 4.861 1.23c.517.132 1.033.267 1.552.393q.008 0 .017.003c.374.052.631.411.517.752a.62.62 0 0 1-.595.411.8.8 0 0 1-.346-.088zm75.305-24.675c-1.396-.189-2.789-.37-4.185-.556-1.435-.192-2.871-.38-4.306-.574l-4.336-.579q-2.17-.29-4.342-.584-2.185-.294-4.366-.593l-4.359-.599a513 513 0 0 1-4.283-.61c-.709-.104-1.421-.207-2.128-.321a23 23 0 0 1-1.044-.181 7 7 0 0 1-.525-.119c-.17-.046-.363-.098-.474-.23a.273.273 0 0 1 .061-.398c.15-.101.352-.101.53-.098q.248.001.495.018.565.043 1.125.103c.737.078 1.471.166 2.206.254q2.145.255 4.291.527 2.183.276 4.364.556c1.452.186 2.904.377 4.356.563q2.176.282 4.353.569l4.342.571 4.319.569c1.365.181 2.731.365 4.096.543.343.044.586.354.536.67-.047.289-.324.501-.634.501q-.047.001-.089-.005z"/><path fill="#0D0C21" d="M58.067 180.017c-.12-.302.056-.643.38-.757.717-.251 1.444-.486 2.161-.732 2.22-.775 4.47-1.455 6.707-2.189 6.128-1.973 12.162-4.191 18.21-6.363 8.139-2.745 16.247-5.563 24.366-8.357 5.062-1.515 10.116-3.046 15.192-4.517 2.63-.716 5.305-1.272 7.938-1.97-.008-.041.014-.085.073-.093.148-.01.296-.041.444-.059a.15.15 0 0 1 .156.106c.07.214-.168.395-.355.478-2.822 1.125-5.857 1.699-8.747 2.647-4.638 1.523-9.315 2.947-13.986 4.377-3.839 1.275-7.617 2.696-11.45 3.986-3.89 1.296-7.746 2.679-11.64 3.963-6.06 2.107-12.037 4.406-18.15 6.375-2.99 1.001-6.013 1.919-8.992 2.953-.495.168-.992.331-1.486.501-.318.114-.7-.049-.818-.351z"/><path fill="#0D0C21" d="m100.652 166.134-3.365-.652c-1.457-.281-2.912-.561-4.367-.848q-2.242-.44-4.49-.871-2.257-.434-4.514-.881-2.28-.446-4.557-.895-2.292-.453-4.584-.91-2.239-.45-4.47-.918-1.14-.235-2.282-.475c-.377-.08-.75-.158-1.128-.241-.39-.085-.784-.16-1.167-.271-.234-.067-.586-.15-.584-.432q.001-.049.023-.095c.09-.202.36-.194.555-.181s.389.041.581.069q.55.084 1.097.179c.771.132 1.536.266 2.304.403 1.519.269 3.038.53 4.551.814 1.536.287 3.074.569 4.61.856q2.292.43 4.585.864 2.244.423 4.49.85l4.47.853 4.38.838a1323 1323 0 0 1 4.074.778c.165.031.31.108.41.238.101.129.14.289.112.444-.05.274-.324.492-.623.492a.6.6 0 0 1-.114-.011zm91.825 5.065c-.365-.018-.728-.054-1.091-.088a99 99 0 0 1-2.309-.258c-1.542-.187-3.086-.373-4.627-.572-3.066-.393-6.128-.793-9.194-1.199q-4.661-.618-9.317-1.252-4.841-.654-9.686-1.313l-9.468-1.285c-3.219-.436-6.442-.873-9.661-1.313l-9.713-1.318-9.379-1.275c-.704-.095-1.405-.196-2.108-.287l-.048-.005-.184-.026c-.343-.046-.581-.364-.525-.68.059-.32.388-.532.732-.486l.184.026q.016.001.028.005c1.086.153 2.178.295 3.264.442q2.29.31 4.579.623 4.879.666 9.758 1.327l9.549 1.297q4.831.657 9.661 1.316 4.759.646 9.513 1.295c3.135.43 6.271.856 9.403 1.288q4.65.638 9.298 1.298c3.074.436 6.151.871 9.217 1.357.575.09 1.153.181 1.725.292.254.049.511.096.76.168.15.044.315.109.399.238.056.09.028.201-.048.269a.5.5 0 0 1-.27.103q-.114.014-.227.013-.107-.001-.215-.005zm-22.141 14.621q-.027-.001-.056-.01a.1.1 0 0 1-.041-.01c-.654-.127-1.313-.238-1.969-.36l-2.51-.457q-2.565-.47-5.129-.936l-10.398-1.9-11.023-2.011-10.638-1.945q-5.186-.946-10.375-1.9c-3.443-.633-6.886-1.264-10.328-1.902-3.446-.636-6.891-1.272-10.334-1.921-1.734-.326-3.468-.659-5.201-.99q-1.282-.245-2.56-.502-.63-.124-1.255-.261c-.41-.088-.82-.173-1.228-.269a20 20 0 0 1-.799-.212c-.173-.049-.407-.093-.497-.258a.22.22 0 0 1 .053-.277q.004-.002.009-.008a.2.2 0 0 1 .039-.025.54.54 0 0 1 .273-.055c.098 0 .193.011.29.021q.165.013.328.028c.421.042.84.104 1.259.168.41.065.824.122 1.237.187q.667.105 1.329.219 2.591.44 5.182.895c3.462.605 6.922 1.225 10.378 1.851q5.135.925 10.267 1.853l10.498 1.908c3.563.649 7.125 1.301 10.691 1.947l10.568 1.926 10.733 1.957 10.191 1.859c.382.069.768.144 1.15.211q.018 0 .037.006.021.002.039.007h.014q.039.008.078.019a.59.59 0 0 1 .433.666c-.053.275-.327.486-.623.486a.6.6 0 0 1-.117-.01z"/><path fill="#0D0C21" d="M158.808 193.048c-.489-.535.156-.972.611-1.262a81 81 0 0 1 2.717-1.817c3.401-2.366 7.011-4.449 10.523-6.667a568 568 0 0 1 16.423-10.364c1.139-.701 2.326-1.329 3.496-1.98 1.203-.711 2.39-1.461 3.61-2.138l-.028.015-.03.018c1.326-.773 2.686-1.497 4.009-2.267.609-.364 1.206-.747 1.823-1.104.291-.142.589-.326.922-.346.265.07 0 .328-.126.413a38 38 0 0 1-4.303 3.028c-2.25 1.352-4.456 2.872-6.754 4.141-2.588 1.502-5.084 3.141-7.622 4.715-4.747 2.883-9.301 6.024-14.039 8.919-2.683 1.577-5.257 3.299-7.84 5.01-.863.579-1.726 1.153-2.563 1.763-.243.179-.623.13-.829-.075z"/><path fill="#0D0C21" d="M158.987 193.093a.41.41 0 0 1 .019-.605c.38-.336.793-.638 1.206-.941 1.126-.832 2.315-1.582 3.507-2.332 3.228-2.039 6.33-4.242 9.569-6.269 1.58-1.047 3.2-2.034 4.822-3.024 2.39-1.559 4.769-3.131 7.223-4.605 2.792-1.804 5.757-3.342 8.563-5.118 2.008-1.262 3.954-2.601 5.987-3.826.963-.553 1.851-1.337 2.968-1.593.466.013.46.471.106.696-.648.519-1.341.995-2.013 1.486-3.555 2.394-7.104 4.837-10.898 6.9-4.152 2.427-8.15 5.062-12.196 7.634-4.11 2.484-8.055 5.194-12.056 7.825a219 219 0 0 1-4.783 2.965q-.704.439-1.421.856a.5.5 0 0 1-.606-.054z"/><path fill="#0D0C21" d="M248.718 170.749c-.466-.046-.93-.101-1.396-.15l-2.753-.295q-2.848-.301-5.696-.607-2.885-.31-5.768-.615-2.887-.308-5.769-.618l-5.802-.621-5.835-.628q-2.855-.311-5.71-.625-1.434-.16-2.868-.324a90 90 0 0 1-2.778-.349c-.407-.059-.821-.106-1.225-.188-.182-.039-.369-.078-.539-.145-.134-.054-.252-.129-.31-.256-.042-.088-.011-.194.047-.269.078-.096.215-.142.338-.163a3.4 3.4 0 0 1 .533-.031c.411 0 .821.042 1.229.073.899.062 1.795.147 2.613.227 1.941.186 3.876.39 5.813.592q2.87.297 5.741.602 2.906.306 5.81.616l5.758.612 5.782.618 5.783.618 5.603.597c.486.052.972.109 1.461.158q.026-.001.053.005l.097.011a.6.6 0 0 1 .522.679.6.6 0 0 1-.254.38.67.67 0 0 1-.382.109q-.047.001-.095-.005z"/><path fill="#0D0C21" d="M215.46 203.737c-.256-.197-.318-.597-.081-.833l.017-.018c1.067-1.06 2.131-2.127 3.197-3.187l3.862-3.85c1.309-1.303 2.613-2.608 3.923-3.908q2.004-1.994 4.003-3.989 2.001-1.994 4.001-3.984l4.018-3.994q1.977-1.967 3.965-3.927c1.326-1.308 2.647-2.616 3.993-3.904.044-.041.089-.082.111-.106a108 108 0 0 1 2.03-1.907 4 4 0 0 1 .333-.269c.108-.083.223-.166.36-.184a.345.345 0 0 1 .399.292c.014.109-.039.199-.092.29-.056.093-.131.181-.201.266q-.215.255-.447.502c-.304.325-.609.654-.916.974q-.3.315-.6.626l-.101.08c-.295.24-.617.53-.818.863q-.172.175-.34.349a1036 1036 0 0 1-3.901 3.945q-1.97 1.981-3.948 3.958-2.022 2.024-4.046 4.046-1.994 1.995-3.992 3.986l-3.948 3.94q-1.968 1.962-3.932 3.924l-2.493 2.487a1.5 1.5 0 0 0-.354.311 6 6 0 0 0-.224.212c-.257.237-.508.48-.723.754l.042-.046q-.03.039-.056.078l-.025.025c-.709.706-1.421 1.407-2.122 2.118a.68.68 0 0 1-.441.209h-.048a.68.68 0 0 1-.41-.137z"/><path fill="#0D0C21" d="M218.852 201.132h.005l-.005.008-.034.031.034-.037zM216 204.016q-.396-.073-.79-.148-.012 0-.023-.002a3 3 0 0 0-.153-.029l-.07-.015c-1.714-.326-3.432-.641-5.146-.964l-6.86-1.29-7.047-1.329-21.795-4.113q-3.637-.69-7.274-1.391c-2.264-.437-4.534-.866-6.723-1.342l-.084-.018c-.31-.067-.62-.134-.927-.209-.142-.036-.287-.07-.424-.124-.134-.055-.254-.135-.307-.267-.051-.129-.009-.256.089-.354.17-.168.48-.124.701-.098.279.034.561.078.837.121q.825.13 1.651.272 1.775.306 3.551.628 3.628.662 7.251 1.334c2.446.452 4.889.91 7.332 1.365q3.618.678 7.234 1.352 3.636.678 7.271 1.36 3.552.662 7.109 1.329 3.471.651 6.944 1.3l6.505 1.22.355.067q.016 0 .033.006l.969.181c.341.062.581.354.522.679-.05.277-.324.494-.625.494a.5.5 0 0 1-.109-.01zm2.65-3.76c.142-.294.525-.429.84-.3q.221.093.447.181a1.6 1.6 0 0 0-.472.38l-.223.212q-.155.143-.302.29c-.293-.145-.424-.478-.29-.763m27.977-27.175a4 4 0 0 1-.441-.147c-.12-.049-.26-.119-.301-.24a.23.23 0 0 1 .061-.249c.07-.067.173-.087.271-.095.142-.011.285 0 .427.018.263.028.525.077.785.124l.069.013q-.13.101-.259.207a5 5 0 0 0-.461.411zm-212.29-19.532c-3.015-1.31-6.26-2.267-9.526-2.849-1.109.006-1.095-1.357-.014-1.199a44 44 0 0 1 9.792 2.857c.298-.675.455-3.17 1.619-2.761a.57.57 0 0 1 .366.535c-.23.703-.517 1.414-.662 2.153-.204.817-.41 1.862-1.578 1.267zm-9.74 4.719a.56.56 0 0 1 .08-.442.67.67 0 0 1 .403-.266l4.126-1.06 4.688-1.205 4.814-1.235c1.519-.391 3.038-.776 4.557-1.166q2.38-.61 4.766-1.208c1.58-.398 3.166-.791 4.755-1.16a66 66 0 0 1 3.375-.706 10 10 0 0 1 .587-.091q.125-.015.25-.023a.7.7 0 0 1 .244.018q.008.001.014.005.006 0 .014.006a.207.207 0 0 1 .083.33.4.4 0 0 1-.103.083l-.014.008c-.33.183-.706.295-1.066.416q-.558.186-1.114.357-1.164.357-2.335.682a319 319 0 0 1-4.757 1.277q-2.38.622-4.764 1.239l-4.596 1.186-4.835 1.244q-2.33.598-4.66 1.199l-3.745.962a.6.6 0 0 1-.145.018c-.285 0-.553-.204-.617-.463zm33.718.644c-2.454-.76-3.501-2.629-3.068-4.948-1.617.783-3.457 1.003-5.152 1.592-.896.285-1.781.595-2.686.856-.645.104-1.762.838-2.133.034a.58.58 0 0 1 .377-.758c.51-.152 1.027-.3 1.538-.449 1.561-.471 3.088-1.027 4.671-1.427.796-.202 1.603-.381 2.36-.693.628-.233 1.158-.691 1.812-.848.82-.016.785.739.603 1.277-.53 1.975-.095 3.632 2.18 4.283 1.377.137 2.994-.294 3.787-1.403a.355.355 0 0 1 .326-.437c.52-.057.654.556.453.899-.81 1.676-3.225 2.415-5.068 2.025zm-.522 12.918c-.44-.938 1.396-1.153 1.988-1.559 1.77-.869 3.563-1.706 5.347-2.554 1.36-.53 2.706-1.104 3.984-1.774.35-.062.743.088 1.053.143q1.546.322 3.063.742a54 54 0 0 1 4.138 1.253c.455.205 1.036.187 1.427.486.376.36.058 1.011-.486.98-1.044-.204-2.036-.6-3.044-.92-1.926-.558-3.867-1.096-5.84-1.489a32 32 0 0 1-3.407 1.499 320 320 0 0 0-5.325 2.526c-.578.292-1.183.525-1.77.794-.357.23-.893.297-1.128-.122z"/><path fill="#0D0C21" d="M69.973 170.871c-1.627-.509-3.336-.817-4.998-1.236-2.105-.478-4.174-1.083-6.251-1.662-.852-.23-1.703-.463-2.566-.662-.575-.171-1.684-.191-1.48-.995.1-.31.458-.484.793-.396.536.142 1.078.269 1.617.401 1.552.393 3.077.876 4.618 1.306 2.083.63 4.194 1.183 6.288 1.786.748.217 1.505.442 2.197.783.15.08.218.264.17.414a.39.39 0 0 1-.39.258zm38.035-11.007c-1.103-.22-2.222-.851-2.502-1.926-3.18 2.44-10.18 2.221-10.584-2.461-.065-1.223.667-2.523 2.046-2.774.47-.14 1.15-.258 1.298.328.151.665-.661.753-1.17.859-1.108.408-1.1 1.887-.533 2.696.701 1.083 1.991 1.644 3.323 1.698 2.169.106 4.635-.509 5.724-2.391.287-.367.999-.313 1.156.14.156.685-.349 1.476.229 2.073 1.51 1.313 4.866.564 5.112-1.476-1.203-.592.413-1.802 1.053-.633.424.749.041 1.623-.436 2.269-1.008 1.37-3.021 1.844-4.719 1.593zm16.552 13.442c-.698-.45 0-1.106.452-1.442 1.251-1.179 2.759-2.112 4.284-2.96-1.832-.719-3.826-.905-5.702-1.492-1.242 2.735-4.657 3.8-7.659 3.759-2.038.054-4.366-.168-5.818-1.644-.804-.825-.606-2.024.067-2.862 1.047-1.549 3.423-2.391 5.293-1.776a.58.58 0 0 1 .322.781c-.285.592-.925.201-1.419.191-1.474 0-2.962.737-3.476 2.066a.78.78 0 0 0 .014.584l-.017-.039q0-.01-.014-.031c1.084 1.644 3.583 1.551 5.423 1.549 2.487-.026 5.251-.952 6.226-3.24.262-.576.96-.656 1.527-.437.748.212 1.497.417 2.262.572 1.407.186 2.697.724 4.051 1.078.399.064.888.207.921.646-.111 1.011-1.881 1.406-2.607 2.047-.86.572-1.784 1.068-2.522 1.782-.499.318-.907 1.243-1.608.873zm1.995 4.091c-.151-.297-.005-.638.305-.786q.006-.002.013-.008h.003l.436-.201.017-.008c1.865-.856 3.727-1.722 5.589-2.58 2.234-1.031 4.471-2.066 6.704-3.094l6.701-3.09c1.916-.881 3.828-1.765 5.749-2.637a.6.6 0 0 1 .129-.077 1.6 1.6 0 0 1 .329-.106.62.62 0 0 1 .692.382.54.54 0 0 1-.189.605c-.087.068-.196.13-.296.176a.6.6 0 0 1-.137.044q-3.05 1.425-6.106 2.839l-6.727 3.11c-2.222 1.031-4.45 2.057-6.673 3.084-1.742.804-3.479 1.613-5.224 2.412h-.005s-.006.002-.009.005l-.388.178-.036.018c-.006 0-.008.005-.014.005h-.006l-.005.006-.053.02a.656.656 0 0 1-.804-.3zm43.495 2.343a.58.58 0 0 1-.343-.486.57.57 0 0 1 .123-.383c-.243-2.096-3.164-4.19-4.934-5.346-.039.869-.558 1.639-1.214 2.228-1.098 1.125-2.625 1.717-4.225 1.921-2.169.254-4.73-.447-6.173-2.008-1.142-1.456-.176-3.149 1.348-3.951.685-.475 1.525-.594 2.351-.674 1.609-.29 3.236-.29 4.839.038 2.736.486 5.043 2.144 6.947 3.953.974.97 1.993 2.079 2.197 3.433.073.647.023 1.562-.913 1.272zm-11.584-3.183c1.357-.049 2.806-.351 3.836-1.22.785-.62 1.659-1.517 1.187-2.533-2.446-1.008-5.386-1.029-7.896-.254-3.8 1.988.363 3.958 2.876 4.005zm76.141 8.284a1 1 0 0 1-.112-.024l-.256-.028q-.449-.05-.897-.103-.905-.102-1.806-.207l-3.778-.437-7.673-.892-7.736-.9-7.902-.92q-3.986-.466-7.977-.928-3.854-.45-7.706-.897-3.24-.376-6.478-.755l-.276-.031c-.347-.041-.612-.308-.584-.636.028-.31.344-.579.687-.54q2.962.346 5.925.69l7.767.905 7.975.928 7.871.918 7.714.899 7.737.903c2.463.286 4.925.571 7.385.868q.063.008.126.013.045-.001.095.005c.067.008.128.021.192.036h.009a.7.7 0 0 1 .167.057q.034.017.067.036a.57.57 0 0 1 .254.368c.056.289-.137.548-.427.646a.6.6 0 0 1-.209.026h-.076q-.043.001-.086-.005zm-24.919 7.628c-3.361-.132-6.72-1.026-9.532-2.761-2.781 1.047-5.749 1.567-8.742 1.698-2.007.034-4.216.223-6.07-.607-1.075-.445-1.672-1.461-1.776-2.515-.081-1.28.796-2.909 2.156-3.34 1.812-.652 3.777-.44 5.651-.181 2.859.385 7.145 1.584 9.161 3.552 1.457-.492 2.906-1.034 4.428-1.324 1.131-.191 2.27-.326 3.409-.465 1.779-.228 3.622-.442 5.369.067 1.335.287 2.966 1.031 2.901 2.502-.022 1.218-1.334 1.838-2.323 2.392-1.398.734-3.043 1.028-4.634.982zm.07-1.166c1.625.041 3.247-.344 4.59-1.207 2.617-1.45-.335-2.348-1.932-2.57-1.837-.222-3.677.181-5.5.375-1.916.178-3.739.744-5.523 1.383v.057c2.602 1.243 5.475 1.83 8.368 1.965zm-20.114-1.031c3.177-.021 6.394-.373 9.37-1.433a.42.42 0 0 1-.003-.256c-2.331-1.45-5.067-2.272-7.829-2.66-1.323-.15-2.663-.38-3.992-.129-.567.111-1.215.209-1.628.618-.698.838-.986 1.815-.38 2.776 1.078 1.166 2.957.996 4.462 1.084m39.502-11.907c-.402-.098-.798-.222-1.195-.333l-1.75-.492q-1.74-.489-3.474-.974a6167 6167 0 0 0-7.36-2.066l-7.307-2.052-3.18-.892c-.332-.093-.516-.44-.413-.742.109-.31.469-.476.801-.383q2.777.779 5.557 1.562l7.413 2.081 7.189 2.019 2.293.643q.569.158 1.139.321l.438.127c.26-.274.506-.559.76-.835l1.013-1.102 1.002-1.091c.263-.284.534-.563.788-.855.218-.251.645-.264.899-.06.271.217.279.582.064.833-.296.341-.614.667-.918 1l-1.095 1.192-1.128 1.228q-.265.286-.525.574c-.126.137-.26.248-.447.31a.8.8 0 0 1-.245.039 1.3 1.3 0 0 1-.307-.042z"/><path fill="#0D0C21" d="M212.202 176.191a.56.56 0 0 1-.145-.424.6.6 0 0 1 .226-.408l4.503-3.883q.5-.432 1.003-.863l.028-.024.005-.005.006-.005c.254-.217.684-.163.899.075.232.256.173.613-.081.832l-.006.006-.005.005q-2.47 2.125-4.939 4.255c-.199.17-.397.344-.595.514a.6.6 0 0 1-.394.137.7.7 0 0 1-.505-.212m25.443 31.531a92 92 0 0 1-22.046-3.438c-.902-.256-.629-1.512.363-1.329 3.082.765 6.142 1.621 9.283 2.159 11.219 1.822 22.856 1.82 33.975-.515 5.533-1.194 11.196-2.892 15.54-6.354 2.929-2.425 4.741-5.84 5.47-9.384 1.343-6.249-1.963-10.92-8.005-13.534-2.197-.987-4.568-1.569-6.949-2.034a155 155 0 0 0-8.028-1.347c-2.309-.331-4.618-.693-6.938-.933-.642-.07-1.287-.104-1.927-.189-.226-.034-.43-.088-.589-.253-.167-.176-.153-.455-.011-.636.48-.595 2.823-.163 3.61-.14a220 220 0 0 1 12.057 1.776c4.721.804 9.549 1.973 13.368 4.801 4.024 2.898 5.822 7.414 4.978 12.047a17.76 17.76 0 0 1-9.236 13.003c-9.574 5.217-23.939 6.727-34.918 6.3z"/><path fill="#0D0C21" d="M243.92 185.342c.246.069.425.24.464.444a.5.5 0 0 1-.101.398c.531 2.069 4.233 3.819 6.464 4.762-.053-.874.469-1.703 1.178-2.37 1.17-1.257 2.907-2.027 4.777-2.42 2.538-.509 5.652-.111 7.545 1.28 1.521 1.321.575 3.128-1.137 4.107-.754.556-1.736.773-2.705.952a17.9 17.9 0 0 1-5.732.535c-3.295-.163-6.221-1.549-8.684-3.133-1.267-.853-2.605-1.841-3.001-3.175-.14-.556-.193-1.324.544-1.396.112-.01.24-.008.388.016m17.959 5.478c4.269-2.438-.893-3.914-3.87-3.666-1.6.209-3.283.682-4.4 1.672-.857.714-1.784 1.714-1.109 2.673 1.623.388 3.382.471 5.107.3a17.2 17.2 0 0 0 4.272-.979m-161.676-80.585c-.422 12.895-5.743 26.085-7.114 38.248-.319 3.844-5.02 4.015-8.312 4.098-17.78 2.249-4.853-17.538-3.736-25.813 2.803-5.977 1.547-19.474-2.393-26.977a507 507 0 0 1-12.897 15.39c-6.815 3.772-16.107 3.068-22.724 2.975-4.68-2.037-5.247-10.702-.684-13.318 7.348-.192 12.382 1.191 12.81-7.808 1.502-4.914 1.736 1.027 3.836-.023.572.55 1.323.543 2.298.173 10.046 10.775 26.991-11.62 31.112-19.87 1.111-.943 2.365-2.137 2.848-1.876 1.204.649.307 8.006 1.047 10.142 1.125 8.239 3.811 16.32 3.909 24.657z"/><path fill="#FED980" d="M102.07 23.736c.354.9-2.2 2.396-2.952 1.602-4.914 2.968-2.934 9.656-1.982 14.315 2.303 14.557-.126 33.268-7.899 42.539-4.663 5.56-13.24 19.143-21.519 18.269-7.036-1.673-7.036-3.62-6.561-6.083 2.474-5.191 3.138-7.618 4.92-8.327 1.466-.32 4.86 2.965 3.239-2.794-2.22-5.411-8.338-5.155-11.253-.192-1.535 1.73-3.202 8.681-3.202 8.681s-2.022-.977-3.125-2.518c-1.373-5.15 3.544-10.408 5.895-14.9-.045-3.863-.358-7.797.823-11.554C61.707 51.47 71.275 41.692 76.74 31.31c1.73-.827 11.213-4.524 16.462-3.898 1.32-2.435 7.424-6.321 8.868-3.674zm39.627 51.054c1.119.652.243 2.035-.511 1.386-9.15-.75.058 5.651-2.656 6.137-.798-.178-2.515 1.24-3.264.954-8.457-4.992-14.488-17.817-22.674-23.988-2.287 3.014-8.541 23.357-10.873 21.514 2.837-13.208 7.117-26.824 8.044-40.197.009-.248-.086-.597.238-.687 2.658-.008 4.755-1.807 6.466-3.545 2.784 1.38 2.374 8.59 4.322 11.796 6.883 9.907 13.288 18.616 20.908 26.63"/><path fill="#fff" d="M109.322 41.85c-.229 11.69-2.197 25.445-13.679 33.108-1.303 1.445-3.565 1.75-1.814-.582 4.48-9.87 4.174-20.997 3.936-31.516.19-5.18-5.564-15.79 2.812-17.051.528 1.592-1.65 3.572-2.256 5.19-.631 5.174 5.026 12.508 11.001 10.85"/><path fill="#fff" d="M123.96 23.831c-.327 6.31-7.282 14.966-14.189 15.736-.104.6-.076 1.898-.883 2.084-3.691.24-7.069-2.022-8.862-4.969-5.14-7.2 3.099-8.942 1.77-14.474-1.41-6.11 4.621-4.382 3.906-2.236.936 7.026 4.792.33 9.161-3.139 3.616-2.872 7.793-3.451 9.1 7zm24.546 65.707a.75.75 0 0 1-.187-.392l-.033-.246-.048-.039c-.008.574-.659 1.047-1.184.6-.396-.383-.43-.96-.608-1.443-.26.365-.874.373-1.112-.018-.226-.323-.335-.7-.525-1.036-.421-.698-.806-1.422-1.008-2.203-.106-.53-.34-1.016-.533-1.523-.586.06-.924-.514-1.429-.68-.201-.119-.349-.294-.497-.465-.539-.225-1.017-.548-1.475-.892-.268-.002-.421-.245-.55-.431a27 27 0 0 1-1.845-1.66c-.36-.403-.835-.752-1.044-1.249-.134-.364.24-.773.645-.734.421-.863 1.426-1.342 2.412-1.42.871-.02 1.684.407 2.37.867q.54.392 1.053.817c.271.168.553.37.623.674l.036.019.056.03c.681.029 1.142.605 1.647.965.327.284.857.488.941.933q.204.205.424.39c.779-.607 1.237.383 1.416.967.288.742.438 1.518.614 2.288.171.592.472 1.138.743 1.693.257.412.464.998-.154 1.231.235.737 1.014 2.805-.058 3.167a.69.69 0 0 1-.684-.212zm-78.649-3.706c.36.757-.974 1.277-1.527.78-4.462-2.3-4.604 4.253-6.824 7.252-.921 1.334-.067 4.431-2.449 3.172-1.273 1.438-3.21-2.76-3.747-3.337-3.191-9.214 11.339-22.385 14.547-7.862z"/><path fill="#FFF7DB" d="M98.83 97.105c-2.514-6.417-2.27-14.126-3.293-21.687 1.731-1.073 7.637-9.302 8.494-7.123-2.298 9.002-4.107 19.537-5.202 28.81"/><path fill="#FED980" d="M89.987 159.684c-3.724.163-7.5-.745-10.903-1.642-3.953.435-3.144-3.759-2.856-6.184 1.88-.827 4.118 1.324 6.176 1.285.78-.155 2.692-.824 2.027.639 1.687 1.851 13.963 5.532 5.556 5.899zM38.028 121.42c-4.518-.861-.299-24.412 5.378-16.822-9.876 2.12.901 14.015-5.378 16.822"/><path fill="#0D0C21" d="M128.062 10.695c1.212 1.561 1.29 3.735-.209 5.147-1.757 2.51.396 5.902-1.112 8.427-3.406 1.82-2.409-3.68-3.272-5.232-7.525-12.83-15.633 11.848-17.358.879-3.552-6.85-4.758 3.014-6.104 1.2-8.594-10.106 4.381-19.032 15.379-16.982 4.294 1.71 8.787 4.11 12.679 6.558zM58.884 82.114l.008-.012q-.002.005-.008.012m45.13-9.921-.006.04-.05.175.056-.212zm2.21-8.583-.054.298-.055.186-.101.333z"/><path fill="#0D0C21" d="M106.173 63.887v.012s0-.008.003-.012zm1.65-1.888h.006l-.022.083.016-.08zm1.95-19.659.02-.008.022-.007.022-.008.025-.008.026-.008.025-.008.025-.007.025-.008.022-.01.023-.008.022-.008.022-.008.011-.005q-.002.135-.008.272-.001.024-.005.049l-.282-.217zm5.295 5.393-.019.065c-.09.295-.174.595-.263.89l-.031.066q.151-.512.31-1.02zm.478-1.423q.14-.457.232-.922v.072-.008q0 .047-.003.09v-.035q-.008.136-.019.274-.054.16-.112.323c-.081.225-.168.444-.257.667l.159-.458zm13.633 12.4-.025-.03c.028.03.036.041.045.051q.002.006.008.01zM94.89 25.42h.03l.014.003h.014l.014.006h.014l.014.005h.014l.014.005h.014l.014.005h.013l.014.005.012.005h.01l.012.006.011.005.011.005.011.005.014.005.012.005.01.006.012.005.014.005.011.008.014.005.011.008.014.008.011.007.011.008.012.008.014.008.01.007.012.008.011.008.011.01.012.01.005.006q-.053.034-.106.072l-.12.093q-.123-.18-.246-.354m5.948-3.087-.014-.02-.017-.021-.005-.01a.4.4 0 0 1 .041.059l-.005-.005zm14.678 15.568s.013-.002.018-.005h-.018zm-13.719-18.604s-.005.007-.005.01c0-.005.005-.008.005-.01m1.061-1.211-.008.005zm.024-.023-.003.002zm.025-.015.003-.003zm.042-.035s-.026.018-.037.028zm-1.724 2.396s0-.009.002-.011c.053-.153.121-.3.19-.445a6 6 0 0 0-.187.499q-.002-.021-.008-.044zm12.268 7.213q.075.023.15.021c.271 0 .531-.202.567-.457.056-.321-.234-.593-.569-.608-.785-.186-1.569-.39-2.388-.406-.044 0-.1 0-.159-.005-.268-.008-.647-.018-.673.24 0 .086.076.14.154.166.033.028.078.06.12.051.542.194 1.125.282 1.656.51.388.15.737.377 1.142.486zm7.054.427c-.343-.131-2.412-.78-2.189-.028.092.23.374.305.598.393.363.14.717.303 1.033.522.12.078.237.112.346.112.514 0 .829-.727.212-.998m-6.508 6.285c-.876-.039-1.577-.61-2.189-1.132v.002c-.231-.145-.547.111-.466.352.103.325.377.581.625.82.509.46 1.075.899 1.801.992a1 1 0 0 0 .165.018c.645 0 .793-.94.064-1.052m4.109-5.806c-.062-.32-.528-.315-.617-.005-.176 1.38.072 2.79 0 4.175-.603-.06-1.145-.414-1.569-.796-.606-.54-1.486.274-.908.84a4.44 4.44 0 0 0 1.832 1.019 2.2 2.2 0 0 0 .575.08c.422 0 .838-.135 1.067-.486.346-.616.027-1.337-.02-1.986-.109-.948-.254-1.895-.355-2.84zm-6.395-4.128a.9.9 0 0 0 .315-.018 5.5 5.5 0 0 1 2.854.072q.076.024.156.024c.274 0 .536-.21.572-.468.034-.657-.678-.654-1.278-.652-.176 0-.344 0-.478-.015-.754-.024-1.508.168-2.178.478-.329.075-.298.54.039.579zm11.634 2.16v.003s0-.006.003-.006v.003l.014-.023c-.257-.6-.958-1.272-1.332-1.445-1.081-.479-1.536 1.13-.335 1.147.248.267.424.582.583.898a.65.65 0 0 0 .587.354h.019l.076-.15q.153-.324.315-.644l.073-.14zM99.49 29.69s.003-.006.006-.008q-.002.008-.008.015zm16.453 9.147-.003-.008.005.01v-.002z"/><path fill="#0D0C21" d="m115.515 37.903.017-.005h-.017z"/><path fill="#0D0C21" d="M149.99 85.259a24.5 24.5 0 0 0-1.183-3.317c-.243-.535-.456-1.132-.975-1.494-1.131-.84-2.186-1.66-3.323-2.523l-.438-.336a.3.3 0 0 0-.056-.259c-.206-.269-.441-.525-.628-.806-.801-1.192-1.661-2.353-2.482-3.534-2.03-2.67-4.174-5.269-6.291-7.88-1.82-2.135-3.646-4.234-5.436-6.4-1.447-1.663-2.826-3.434-4.219-5.163a18 18 0 0 1-1.67-2.237c-.79-1.419-1.198-3.037-1.792-4.537-.612-1.763-1.285-3.513-1.798-5.304-.274-.916-.609-1.818-.936-2.717-.332-.786-.508-1.665-1.03-2.363a.8.8 0 0 0-.207-.15 16 16 0 0 0 1.812-1.92c.701-.973 1.304-2.004 1.913-3.028.402-.678 3.096-5.17 3.381-6.018q.015-.091.025-.181c.16.067.335.116.534.14 2.102-.034 3.23-2.23 3.25-3.953.123-1.306-.559-2.632-.098-3.91.142-.325.659-1.323.751-1.452.642-.982.949-2.133.782-3.278-.145-1.365-1-2.645-2.131-3.51-1.223-.929-2.848-1.068-4.302-1.51-2.013-.701-3.524-2.182-5.347-3.185-2.167-1.254-4.85-1.396-7.324-1.084-1.346.184-2.722.282-4.015.7-3.11 1.175-6.132 2.837-8.237 5.303-.997 1.181-2.06 2.41-2.058 4.214 0 1.983.958 4.46 1.179 4.868.533.987 1.066 1.993 1.862 2.828.408.406.751.881 1.206 1.246-1.005.026-5.581.964-7.781 4.413-1.03.057-12.822 1.874-16.075 3.4-1.198 1.026-1.949 2.442-2.736 3.753-1.136 1.838-2.225 3.702-3.418 5.51-1.923 2.675-3.878 5.348-5.603 8.14-1.732 2.652-3.471 5.317-4.898 8.125-.539 1.073-.988 2.184-1.535 3.255-.341.646-.824 1.235-.997 1.944-.545 2.657-.6 5.385-.76 8.081a109 109 0 0 0-.067 4.382c-.491.571-.636 1.339-1 1.98q-.18.39-.351.786c-1.025 1.92-1.93 3.89-2.912 5.83-.718 1.675-1.754 3.363-1.826 5.193.044 1.153.876 2.048 1.692 2.844.659.662 1.368 1.27 2.016 1.934.033.915.184 1.814.57 2.655-.241.692-.392 1.408-.545 2.122-.193.977-.447 1.944-.578 2.929-.09 1.14-.313 2.288-.947 3.283-3.093.514-6.17.985-9.286 1.324.01-.285-.065-.618-.146-.719-.497-1.063-1.683-1.479-2.859-1.184-2.315.243-2.929 2.639-3.607 4.346-1.12 2.293-1.254 4.793-1.388 7.269-.162 1.474-.237 2.989-.053 4.467.036 1.639.631 3.265 2.639 3.459q.116.012.228.013c1.96 0 2.21-2.942 2.268-4.402.296.475.645.917 1.133 1.217.42.202.913.083 1.363.055.95-.101 1.893.124 2.842.129h.768c4.875 0 9.868-.31 14.575-1.487 1.731-.509 3.929-.868 5.152-2.2 3.861-5.098 8.035-9.978 12.075-14.955.188.897.439 1.784.726 2.658.676 2.213 1.52 4.353 2.022 6.615.561 2.177.746 4.514.631 6.776-.288 5.002-2 9.774-3.295 14.601-1.2 4.131-2.549 8.226-3.183 12.479-.254 1.925-.681 3.854-.706 5.795-.05.331-.14.678.039.983.28.457.634.848 1.036 1.184-.103.289-.176.589-.26.884-.226.804-.416 1.616-.48 2.446-.075.752-.14 1.535.16 2.256.206.468.499.941.962 1.228 1.014.466 2.167.634 3.27.83 2.002.375 4.04.502 6.053.802 1.818.165 2.949.467 4.78.509h.148c.41 0 .227.057.634 0l.017-.003c.757-.039 1.834-.837 2.083-1.282a.9.9 0 0 0 .061-.902c-.282-.706-.762-1.36-1.51-1.699-1.424-.594-2.868-1.147-4.35-1.602-1.416-.38-2.393-.435-2.611-1.738a26 26 0 0 0 2.664-.266h.014c.167 0 .34-.023.502-.023a9.4 9.4 0 0 0 3.259-.859c.888-.486 1.734-1.163 1.943-2.143.483-1.499.807-3.04 1.159-4.57.681-3.203 1.62-6.357 2.214-9.576.969-4.865 2.021-9.715 2.887-14.598.586-3.224 1.094-6.471 1.242-9.744a19 19 0 0 0-.293-4.71c-.245-1.864-.567-3.803-.857-5.672-.156-.928.193-5.757.466-6.928.277-1.122.458-2.26.696-3.386.209-.81.335-1.64.399-2.475.095-.447.204-.891.338-1.33.433-1.448.997-2.863 1.547-4.274.686-1.789 1.331-3.624 2.15-5.385 2.646-5.809 5.539-11.527 7.764-17.491 1.363 1.866 3.077 3.49 4.459 5.346 3.627 4.586 7.193 9.219 11.345 13.422 1.497 1.567 3.049 3.097 4.777 4.447.472.312.885.832 1.502.858.4-.005.802-.044 1.198-.09 1.165-.205 2.161-.859 3.189-1.37a.74.74 0 0 0 .293-.308c.997.682 2.094 1.24 3.295 1.499l.044.008c-.002.194 2.15 5.049 2.67 5.072a.43.43 0 0 0 .315-.12c.252.536.617 1.001 1.209 1.273q.193.072.352.07a.6.6 0 0 0 .584-.411c.212.212.469.382.801.382h.053c.366 0 .667-.266.821-.56.262-.523.017-1.105-.154-1.62a5 5 0 0 0-.178-.418c1.262.362.516-1.556.435-2.011zm-27.885-56.706s-1.974 3.529-2.797 4.607c-2.625 3.443-4.705 4.413-6.858 5.418-1.388.683-2.968.742-4.473.016-2.541-1.171-3.733-3.989-4.679-6.316-.444-1.51-.464-3.076.189-4.542.098-.266.115-.587-.153-.693-.746-.255-.983.642-1.192 1.122-.26.678-.266 1.407-.246 2.118a7.76 7.76 0 0 0 .868 3.596c.994 2.399 2.597 4.839 5.272 5.842.391.137.793.217 1.198.253l-.151 1.37q-.052-.002-.109.008c-1.131.35-2.281.026-3.373-.325-2.608-.952-4.624-3.08-5.662-5.455a10.7 10.7 0 0 1-.838-1.973 9 9 0 0 1-.285-.695 6 6 0 0 1-.15-.502 1.9 1.9 0 0 1-.031-.842c.014-.088.042-.173.072-.259l.087-.225c.05-.129.114-.256.17-.382q.11-.248.24-.486c.092-.176.179-.352.28-.522l.008-.016q.002-.006.008-.013l.084-.13q.209-.361.394-.73.001-.008.005-.014l-.002.008.013-.023-.005.008q.285-.595.575-1.184c.209-.43.438-.851.673-1.267 0 .002-.006.008-.006.01q.082-.147.151-.302l.034-.078.058-.13c.081-.183.179-.361.268-.542l.003-.008c.089-.186.179-.372.254-.563 0 0 .109-.225.215-.463.05.041.098.085.151.124a.62.62 0 0 0 .374.124c.413 0 .779-.419.609-.801-.087-.055-.165-.122-.243-.187a6 6 0 0 1-.402-.374 1.3 1.3 0 0 1-.173-.181c-.065-.083-.12-.168-.179-.256a2.7 2.7 0 0 1-.313-.62q0-.005-.003-.011l-.016-.054c-.131-.424-.224-.864-.198-1.306v.013-.023q0-.042.005-.083v.018q0-.026.003-.057v-.012l.011-.112q.008-.08.02-.16l.019-.103q.014-.08.031-.16a1 1 0 0 1 .031-.107q.02-.078.044-.152.022-.06.045-.114.024-.067.053-.134a2.2 2.2 0 0 1 .38-.556c.097-.109.223-.202.357-.28.137-.077.285-.136.43-.175.344-.096.768-.104 1.081.085.243.148.438.383.583.613.098.15.179.307.251.465q.046.098.087.2l.039.092q.033.083.062.166l.044.121v.005c0 .008.006.016.009.024q.088.267.164.535v-.003.008-.005q0 .012.006.023.055.198.1.398l.026.114q.042.191.078.385l.053.274v-.018l.011.057.025.121q.037.117.084.23c.089.823.427 1.593 1.438 1.67h.025c.888 0 1.522-.659 1.868-1.362a5 5 0 0 0 .354-.158c1.489-.674 2.569-1.858 3.516-3.084.983-1.158 1.667-2.64 3.174-3.303 1.852-.83 4.278-.06 5.585 1.32 1.357 1.283 1.287 2.78 1.401 4.457.112 1.608.483 2.33.531 2.41a10.1 10.1 0 0 1-1.742 4.193zm-7.455 16.964c0 .432-.262.83-.388 1.238a26 26 0 0 1-1.2 2.764c-1.757 3.57-3.27 7.238-5.023 10.811a156 156 0 0 1-2.128 4.129q.266-1.008.522-2.02.096-.53.21-1.057l-.017.08q.14-.636.271-1.272c.081-.392.181-.78.282-1.168.201-.76.413-1.52.653-2.27l.128-.558c.112-.626.252-1.249.405-1.867.528-2.903 1.114-5.806 1.433-8.738.089-.842.176-1.693.226-2.546v-.005a2 2 0 0 1 .017-.318c.041-.913.027-1.823-.081-2.727q.14-.005.279-.019c2.03-.196 3.186-.894 4.344-1.584.003 0 .006-.005.009-.005q.032-.02.064-.044c.039-.029.075-.062.117-.088a.08.08 0 0 1 .053-.016h.011l.051-.033q.006.046.016.093.008.014.012.028c.005.018.005.036.011.054.005.016.005.031.011.047q0 .015.006.03.006.028.013.05c.271.99.609 1.988 1.137 2.885q-.877.608-1.745 1.223c-.31.155-.612.346-.578.713.134.766.653 1.44.885 2.185zm-16.753-3.275c-.209-2.733-5.4-14.751 2.511-16.183q.076-.007.156-.006c-.5.84-.98 1.686-1.485 2.52-.282.513-.536 1.035-.832 1.542a1.1 1.1 0 0 0-.207.475 6 6 0 0 0-.249.58c-.332 1.465.154 3.027.97 4.446l.237.556c.304.71.617 1.427 1.103 2.05 1.764 2.438 4.598 4.381 7.862 4.485h.017c.327 0 .653-.047.969-.119-.182 1.68-.38 3.358-.665 5.026-.569 3.146-1.072 6.305-1.843 9.417-.586 2.573-1.264 5.124-1.932 7.678-.125.243-.231.497-.385.724a33.5 33.5 0 0 1-3.917 4.42c-1.19 1.118-2.337 2.276-3.535 3.385-.952.881-1.899 1.861-3.077 2.482 1.513-2.878 2.806-5.858 3.177-9.067.991-5.335 1.304-10.751 1.29-16.162.011-2.75.028-5.504-.165-8.25m1.237-23.593c-.477-.855-.848-1.758-1.055-2.704-.184-.9-.475-1.908-.28-2.87.244-1.15 1.023-2.104 1.765-3.021 1.969-2.273 4.775-3.795 7.656-4.886 1.006-.32 2.069-.406 3.114-.556 2.144-.313 4.456-.367 6.458.522 1.996.944 3.56 2.52 5.612 3.384 1.379.602 2.999.618 4.297 1.383 1.539 1 2.728 3.113 1.687 4.612-1.014 1.456-1.497 3.149-1.522 3.356-.112 1.184.338 2.344.24 3.528-.075 1.045-.564 2.309-1.765 2.609-.893-.29-.625-2.554-.745-3.32-.039-.984-.235-2.06-.813-2.923-.815-1.23-2.021-2.29-3.518-2.756a6.8 6.8 0 0 0-2.261-.398c-1.416 0-2.773.488-3.839 1.53-1.162 1.171-3.019 5.028-6.062 6.21-.305.119-.631.129-.762-.15-.257-.546-.464-1.215-.634-1.69-.299-.738-.461-1.555-1.019-2.17-.174-.207-.749-1.05-2.136-1.018-1.355.028-2.809 1.362-2.759 3.37a26 26 0 0 1-1.653-2.039zm-6.536 10.023q.079-.125.162-.245l.061-.091c.093-.134.199-.261.302-.388l.008-.008c.126-.157.246-.318.377-.47.126-.15.402-.494.402-.494.059-.075.832-.855.832-.855.09-.078.176-.156.266-.233 4.442-3.26 6.539-2.265 6.659-2.293q.105.175.234.336c-.019.03-.561.874-.639.998-.849-.217-2.532.336-3.018.625-4.406 2.8-3.278 7.035-2.893 9.325.148 1.055.494 2.03.877 3.017.246 1.46.466 2.921.575 4.4.27 3.748.243 7.507.19 11.26-.098 3.545-.26 7.102-.96 10.595-.308 1.274-.406 2.58-.637 3.862-.293-1.654-.818-3.265-1.299-4.878a675 675 0 0 1-1.99-6.628c-.578-1.805-1.176-3.607-1.606-5.45-.609-2.678-1.368-5.325-2.019-7.993-.039-.233-.14-.476-.083-.711.661-.714 1.502-1.262 2.306-1.872.542-.339.637-.775.061-1.145-.505-.37-1.035-.708-1.521-1.099.712-2.399 1.53-4.775 2.373-7.14.288-.995.57-1.763.96-2.402q.005-.01.014-.02zM58.121 72.987a94 94 0 0 1 .27-7.306c.182-1.605.14-3.283.688-4.824 1.041-1.713 1.784-3.557 2.7-5.328 2.95-5.188 6.282-10.19 9.825-15.048 1.064-1.492 1.924-3.1 2.915-4.632.944-1.518 1.748-3.128 2.976-4.475 2.444-1.471 14.48-3.433 14.402-3.317-.706 1.109-3.348 7.65-3.677 9.767-.017.25-.059.524.07.754.09.153.243.267.388.37.46.331.924.662 1.416.954-.771.47-1.553.941-2.203 1.554-.545.382-.673 1.016-.492 1.6q.536 2.2 1.067 4.397c.497 1.813.843 3.656 1.343 5.465.483 1.797 1.12 3.555 1.636 5.344 1.022 3.495 2.34 6.92 3.175 10.46a.4.4 0 0 0 .198.24c.072.204.123.421.187.63-1.042 3.276-2.717 6.337-4.512 9.305-.698 1.32-1.31 2.688-2.128 3.958-1.306 1.949-2.82 3.78-4.358 5.576-2.522 2.903-5.54 5.37-8.57 7.804-1.803 1.44-3.78 2.803-6.016 3.627-1.55.492-3.242-.033-4.574-.806-1.175-.802-2.281-1.709-3.538-2.4h-.002c.19-.695.229-1.475.229-1.917a.33.33 0 0 0-.151-.285c1.396-1.45 2.806-4.617 3.054-5.504.204-.651.442-1.3.88-1.853.246-.308.572-.548.874-.812.257.486.67.887 1.284 1.086.305.1.603.15.883.15 1.465 0 2.454-1.29 1.61-2.733-.161-.38-.033-.773-.05-1.17-.047-.554-.36-1.04-.762-1.44-.229-.257-.469-.497-.706-.735-.1-1.409.153-2.86.346-4.263.603-2.61 1.02-5.32 1.547-7.962.536-2.477.969-4.992 1.831-7.402.24-.855.88-1.53 1.321-2.303 1.983-3.25 4.08-6.44 6.391-9.495.592-.784 1.167-1.59 1.528-2.49.31-.77.525-1.572.74-2.365.108-.411.2-.827.301-1.241a.5.5 0 0 0-.059-.408c-.22-.378-.848-.324-1.022.062a6 6 0 0 0-.376.99c-.33 1.072-.573 2.184-1.106 3.19-.855 1.437-1.997 2.704-2.907 4.11a102 102 0 0 0-4.146 6.298c-.486.765-.941 1.553-1.488 2.285-.182.302-.257.651-.394.975-1.156 3.422-1.767 7.042-2.326 10.588-.167 1.683-.508 3.35-.653 5.036-.123 1.355-.042 2.735.162 4.087a8 8 0 0 1-.71-.827c-.65-1.339-2.462-1.256-3.791-1.065-1.12.158-2.265.362-3.222.954-.614.357-1.276.667-1.79 1.15-.318-2.776-.556-5.558-.517-8.355zm-.34 10.803.019-.067q.025-.065.058-.126.022-.039.04-.078a7 7 0 0 1 .471-.755q.157-.22.34-.419l.012-.015c.059-.078.115-.155.179-.233.011-.013.022-.02.033-.03.07-.1.14-.192.22-.252 1.263-1.044 2.924-1.636 4.569-1.954.918-.098 2.432-.388 3.046.426.45.698 1.044 1.378 1.578 2.032.787.872.888 1.076.823 2.208.025.455.344.843.38 1.29-.433.711-1.57.68-2.223.256-.698-.535-.935-1.367-1.122-2.166-.025-.054 0-.173-.07-.215a.13.13 0 0 0-.14 0c-.156.142-.091.406-.128.592-.036.336-.03.69.022 1.034a.5.5 0 0 0-.226.12c-.351.374-.745.715-1.063 1.116-.623.77-.84 1.714-1.162 2.611-.416 1.104-.991 2.11-1.603 3.138-.377.644-.79 1.275-1.334 1.813.109-1.337.399-2.648.566-3.976.132-.947.151-1.9.207-2.85.087-.105-.07-.26-.19-.178-.106.088-.111.238-.153.357-.238.913-.444 1.836-.682 2.748-.296 1.2-.566 2.438-.684 3.679-.03.416-.21 1.003.294 1.238q.134.05.273.05c.196 0 .402-.073.614-.2-.055.778-.215 1.585-.706 2.22-.441-.185-.656-.583-.812-1.015-.146-1.44-.592-2.862-.447-4.315.114-.773.19-1.662.324-2.456.064-.416-.606-.543-.724-.142-.293 1.363-.5 2.777-.312 4.162.042.794.731 2.93.111 3.451-.745-.302-.862-1.339-1.097-2-.307-1.104-.455-2.244-.366-3.384.09-.947.263-1.885.389-2.829 0-.165.156-.527-.126-.543a.14.14 0 0 0-.117.096c-.76 1.978-1.349 4.15-.846 6.225-.43-.925-.52-1.926-.514-2.931 0-.92.084-1.823.285-2.73.463-1.735 1.259-3.358 2.002-5.003zm-3.198 5.546c-.053.587-.109 1.189-.131 1.791a14 14 0 0 0-.408-.556c-2.546-2.9-2.54-2.97-1.18-6.491a78 78 0 0 1 2.878-6.31l.08-.13c.353-.587.707-1.17 1.06-1.758.083 2.286.281 4.563.66 6.812-.678 1.164-1.328 2.34-1.887 3.555-.452.995-.918 2.006-1.072 3.087m-15.147 29.24c-.056.657-.126 1.327-.444 1.924-.112.16-.182.401-.385.478a1.72 1.72 0 0 1-1.385-.623c-.522-.682-.416-1.585-.534-2.378-.19-1.921.104-3.842.154-5.765.064-.874.137-1.797.316-2.663.237-.967.656-1.82 1.038-2.763.374-.91.698-1.875 1.419-2.609.354-.447.926-.584 1.485-.685.355-.07.729-.093 1.067.057.416.199.756.509.957.9q-.74.076-1.485.142c-.76.163-1.279.814-1.796 1.313-1.708 1.83-1.884 4.485-1.334 6.758.251 1.171.717 2.29 1.31 3.347-.428.618-.31 2.061-.386 2.567zm47.349 37.217c.852.318 1.709.63 2.546.977 1.036.535 2.438.659 2.81 1.858a2.4 2.4 0 0 1-.68.51c-.161.062-.351.119-.519.194-1.516.134-1.94-.065-3.498-.352-1.229-.158-2.454-.354-3.686-.489q-1.852-.149-3.674-.47c-.802-.114-1.6-.251-2.38-.463-.418-.093-.867-.176-1.082-.566-.55-.765-.42-1.737-.403-2.608.037-.755.09-1.508.188-2.255 0-.054.014-.147.03-.258 1.522 1.003 3.574 1.365 5.403 1.404l.76.002c.583 0 1.17-.008 1.753-.031-.078.515.047 1.047.413 1.45.464.634 1.282.851 2.022 1.094zm10.666-30.57c-.573 3.27-1.346 6.507-1.969 9.769-.575 3.224-1.493 6.383-2.203 9.581-.469 1.882-.748 3.836-1.505 5.638-.639.69-1.505 1.06-2.429 1.295-.178-.082-.371-.067-.553-.013q-.515.123-1.038.223c-1.692.305-3.423.364-5.146.38-2.293.01-5.062-.298-6.498-2.143a.6.6 0 0 0 .02-.148c-.014-.385 0-.77.03-1.153q.075-.636.14-1.272l.048-.354c.153-1.148.318-2.293.505-3.438.511-2.647 1.19-5.269 1.868-7.885q.16-.596.33-1.189c.41-1.383.823-2.769 1.206-4.157q.323-1.101.625-2.21c1.592-5.302 3.016-10.778 2.25-16.302-.315-2.081-.898-4.126-1.552-6.138-.486-1.158-.854-2.329-1.331-3.497a43 43 0 0 1-.925-2.345.46.46 0 0 0-.053-.24c2.15-2.707 4.186-5.491 6.403-8.154.963-1.215 1.954-2.422 2.705-3.764.483-.9.989-1.791 1.438-2.707.028-.041.084-.15.134-.199a.193.193 0 0 0-.067-.294c-.142-.078-.29.028-.338.152-.888 1.117-1.736 2.262-2.594 3.397-2.538 3.125-5.173 6.181-7.572 9.405q.002.024-.008.049c-.025.062-.067.119-.106.176q-.048.073-.1.142c-.029.036-.06.07-.085.106q-.012.016-.025.028c-.03.055-.07.106-.106.158-.044.065-.098.127-.148.189l-.165.21a.16.16 0 0 1-.117.061l-.028.029q-.064.07-.128.144c-4.152 5.176-8.525 10.201-12.515 15.488-.505.833-1.507 1.176-2.429 1.489a37 37 0 0 1-5.249 1.28c-1.709.245-3.417.514-5.14.649-1.865.062-3.728.173-5.596.191-1.145.036-2.28-.072-3.417-.165-.528-.021-1.047.072-1.575.085-.695-.719-1.055-1.6-1.552-2.443-1.413-2.621-2.229-6.3.005-8.733.913-1.052 1.092-.863 2.449-.982 1.946-.137 3.945-.463 5.886-.74 1.39-.222 2.786-.423 4.171-.677.846-.287 1.128-1.512 1.421-2.226.305-.92.282-1.895.475-2.838.28-1.34.564-2.676.902-4.002l.017.046c.332.833.53 1.898 1.415 2.387.187.1.363.144.522.144.346 0 .626-.204.813-.49.193.449.525.793 1.13.84.386-.029.67-.267.877-.608 1.427.987 2.642 2.26 4.23 3.025.799.315 1.623.661 2.5.71q.22.02.443.019c1.567 0 3.01-.709 4.328-1.453 2.195-1.233 4.096-2.831 6-4.41 2.773-2.216 5.342-4.656 7.556-7.366 1.273-1.572 2.574-3.133 3.638-4.837.846-1.377 1.45-2.87 2.203-4.291q.546-.969 1.084-1.947c.692.055 1.527-.343 2.387-.943 0 .07.01.145.01.21.046.808.09 1.615.113 2.424.055 1.64.988 9.418 1.326 11.675.541 4.058 1.092 8.15 1.745 12.202.318 1.895.567 3.797.851 5.695.098.649.115 1.303.123 1.957-.075 5.087-1.105 10.105-2.063 15.1zm4.554-48.829.011-.07-.028.171.011-.07c-.237 1.474-.491 2.947-.835 4.405a113 113 0 0 0-.921 4.271c-.067.347-.128.69-.198 1.034v-.01q-.002.03-.011.062v.062q.002.009-.006.02v.021l-.137.678c-.095.514-.167 1.031-.251 1.548q.006-.04.014-.077l-.017.108.014-.077q-.033.217-.07.434l-.08.641a23 23 0 0 0-.16 1.68c-.017.282-.025.564-.036.846a15 15 0 0 1-.062.876c-.053.546-.13 1.088-.187 1.634-.047.46-.095.92-.134 1.383v.003q-.004.109-.014.222v.223c0 .066-.008.136-.014.203q0 .015-.003.034c-.005.036-.036.054-.07.054a.08.08 0 0 1-.06-.03q-.002-.006-.006-.011a.3.3 0 0 1-.025-.062q0-.007-.006-.016v-.005c-.042-.116-.09-.232-.128-.351-.045-.132-.081-.267-.118-.398q-.105-.394-.198-.791c-.059-.27-.128-.536-.181-.805-.053-.27-.084-.547-.118-.822a68 68 0 0 0-.234-1.657c-.042-.281-.087-.563-.123-.848q-.052-.43-.092-.866a39 39 0 0 1-.12-1.714c-.034-.584-.648-5.596-.802-6.568-.2-1.694-.332-3.547-.656-5.261-.056-.142-.061-.629-.226-.789 1.586-1.192 3.194-2.944 4.063-3.712 1.343-1.3 2.741-2.57 3.931-3.994v.01l-.025.085q.001.008-.006.016-.002.014-.008.028-.001-.008.005-.015l-.019.075q.007-.021.011-.041l-.056.206v-.002.002l-.011.042.011-.044a78 78 0 0 0-.539 2.197c-.081.354-.167.709-.243 1.063-.072.349-.131.703-.201 1.052-.058.29-.12.576-.17.866-.056.305-.1.61-.142.915-.09.649-.193 1.295-.299 1.942zm34.639 6.042c-.441.178-.927.183-1.39.282-2.145-1.492-3.957-3.34-5.741-5.2-1.807-1.892-3.585-3.786-5.233-5.805-3.493-4.064-6.519-8.625-10.71-12.14-.134-.106-.26-.218-.391-.326q.25-.683.489-1.37l.089-.28c.092-.188.184-.374.262-.568.539-1.347.832-2.759 1.05-4.175.151-.755.229-1.523.372-2.28.1-.722-1.025-.931-1.246-.236q-.133.726-.254 1.45c-.34 1.368-.664 2.74-1.002 4.111-1.067 3.63-2.577 7.14-4.149 10.617-1.394 3.193-2.974 6.316-4.404 9.493q.017.09-.03.176c-.067.132-.131.264-.201.393a4 4 0 0 1-.123.225q-.289.651-.564 1.308.001.005-.006.01a14 14 0 0 1-.111.326.2.2 0 0 1-.042.067l-.109.29q-.116.285-.235.571c-.044.106-.083.215-.134.318l-.05.1v.003q-.053.101-.101.205c-.047.118-.086.243-.142.359a.08.08 0 0 1-.07.044c-.042 0-.086-.029-.083-.078 0-.03.011-.062.019-.09v.01c.022-.108.05-.217.075-.328v.01c.02-.098.042-.199.056-.3l.039-.318.045-.3a6 6 0 0 1 .05-.292q.055-.27.118-.543l.022-.144q.094-.606.198-1.208c.143-.835.307-1.67.48-2.5q.07-.338.146-.677c.036-.152.069-.307.111-.46l.137-.512.182-.788q.042-.248.092-.497c.078-.39.173-.778.262-1.165.19-.823.383-1.642.598-2.459l.058-.212.009-.016c.533-.95 1.036-1.92 1.544-2.885a166 166 0 0 0 4.906-9.8c1.03-2.311 2.214-4.56 3.278-6.856.871-2.246 1.499-2.422 0-4.66.748-.497 1.622-.872 2.289-1.454a.64.64 0 0 0 .112-.553c-.031-.458-.271-.845-.503-1.238-.103-.194-.215-.385-.324-.577l-.016-.023c-.068-.096-.14-.189-.204-.287a5 5 0 0 1-.218-.357l-.006-.01v-.003q-.094-.16-.184-.323a2 2 0 0 1-.075-.16q-.028-.08-.059-.16c-.045-.101-.103-.194-.148-.295a.04.04 0 0 1-.025-.039q.002-.014.008-.026a.06.06 0 0 1 .048-.026c.427-.286.829-.581 1.195-.863q.024.032.064.075c.385.845.651 1.737.977 2.603.489 1.308.852 2.65 1.282 3.974.966 2.65 1.781 5.359 2.929 7.947 1.209 2.037 2.901 3.787 4.342 5.684 3.297 4.02 6.821 7.91 10.04 12.019 1.46 1.825 2.954 3.621 4.423 5.442.38.457.726.94 1.089 1.411-.662-.344-1.368-.595-2.136-.662-.679-.039-1.349.07-1.938.388l-.02.008c-.494.32-2.49 1.941-2.094 5.897.017.165.218.245.355.245.128 0 .246-.075.276-.248.017-.062.112-2.122.394-2.937.246.825.829 1.523 1.572 2.159q.268.228.545.452c-.712.334-1.411.73-2.153 1.042zm12.512 6.52c-1.223-1.38-2.153-2.966-3.264-4.416-.037-.036-.093-.039-.129-.002-.047.046-.028.095.006.144.016.031.047.104.097.106a17 17 0 0 1 1.383 3.002c.1.367.231.726.432 1.052-.03.093-.036.199-.053.287-.536-.445-.793-1.125-1.105-1.714a27 27 0 0 0-1.081-2.247c-.098-.126-.388-.87-.584-.685-.039.173.107.357.146.533.162.473.298.954.43 1.437.131.481.243 1.024.413 1.54l-.028-.004c-.436-.618-.782-1.288-1.106-1.965q-.046-.132-.089-.266c-.254-.74-.598-1.45-.994-2.136.589-.08 1.078-.488.924-1.13-.176-.576-.561-1.072-.896-1.584.656.52 1.357 1.024 1.806 1.706.45.791.972 1.543 1.5 2.29.483.688 1.008 1.415 1.722 1.919.229.556.824 1.737.472 2.13zm-.64-3.816c-.807-1.044-1.513-2.159-2.351-3.18-.494-.424-1.114-.703-1.686-1.026-.366-.153-.698-.442-1.098-.489a.1.1 0 0 0-.039.01c-.463-.666-.734-1.326-1.133-2.034-.31-.344-.913.013-.704.416.159.274.327.543.492.815.575.998 1.407 1.838 1.867 2.898.079.736-1.066.196-1.415.013-1.164-.65-2.231-1.428-3.25-2.265-.492-.419-.994-.838-1.413-1.319-.271-.354-.69-1.713.31-2.448.511-.375 1.226-.421 1.882-.318 1.259.251 2.292 1.068 3.295 1.774 1.281.949 2.627 1.884 3.931 2.856.382.243.502.678.681 1.052.204.497.43 1.04.634 1.59.304.817.55 1.652.787 2.487l.023.068a8.5 8.5 0 0 1-.813-.898z"/><path fill="#0D0C21" d="m102.705 23.141.025.024q-.012-.014-.028-.026zm-2.723 5.655v.005s-.005.005-.005.007c0-.005.005-.007.005-.012m15.638 9.389.003.01q0-.007-.006-.01z"/></g><defs><clipPath id="a"><path fill="#fff" d="M0 0h282v211H0z"/></clipPath></defs></svg>
