<svg xmlns="http://www.w3.org/2000/svg" width="46" height="48" fill="none"><g clip-path="url(#a)"><path fill="#0D0C21" d="M13.098 10.878c0-.33-.27-.6-.6-.6h-3.63a3 3 0 0 0-2.868 3V33.81a3.003 3.003 0 0 0 3 2.868h3.672a.603.603 0 0 0-.072-1.2H8.892a1.806 1.806 0 0 1-1.692-1.8V13.164c.06-.942.84-1.692 1.8-1.692h3.57a.597.597 0 0 0 .528-.594"/><path fill="#0D0C21" fill-rule="evenodd" d="M39.6 13.14a3 3 0 0 0-3-2.867h-2.472a.603.603 0 0 0 .072 1.2h2.508c.942.06 1.692.84 1.692 1.8V33.78a1.806 1.806 0 0 1-1.8 1.691H17.328a.603.603 0 0 0 .072 1.2h2.988c-.084 2.49-.72 3.6-1.788 3.6h-1.272a.603.603 0 0 0 .072 1.2h10.872a.603.603 0 0 0-.072-1.2H27c-1.074 0-1.704-1.11-1.788-3.6h11.52a3.003 3.003 0 0 0 2.868-3zM21.588 36.668h2.418c.054 1.578.33 2.79.834 3.6h-4.092c.51-.81.78-2.023.834-3.6z" clip-rule="evenodd"/><path fill="#0D0C21" d="M35.4 30.666a.598.598 0 0 1 .072 1.194H10.2a.598.598 0 0 1-.072-1.194zm-11.4 3c0-.33-.27-.6-.6-.6h-1.272a.603.603 0 0 0 .072 1.2h1.272a.603.603 0 0 0 .528-.6"/><path fill="#FED980" d="M23.196 25.224c.768 0 1.392-.624 1.392-1.392v-1.38a2.59 2.59 0 0 0 1.182-2.166 2.573 2.573 0 1 0-3.966 2.166v1.38c0 .768.624 1.392 1.392 1.392m.18-1.392c0 .102-.084.18-.204.18a.186.186 0 0 1-.162-.18v-.972h.366zm-.18-4.908c.75 0 1.362.612 1.362 1.362s-.612 1.362-1.362 1.362-1.362-.612-1.362-1.362.612-1.362 1.362-1.362"/><path fill="#FED980" d="M31.254 24.69a.603.603 0 0 0 .6.534c.33 0 .606-.27.606-.606v-8.166c-.042-.99-.726-1.776-1.59-1.872.006-.066.012-.126.012-.192v-.786c0-.768-.624-1.392-1.392-1.392h-1.44v-.636c0-2.502-2.07-4.254-5.04-4.254-2.778 0-4.434 1.296-4.434 3.468a.576.576 0 0 0 1.152 0c0-1.704 1.692-2.31 3.276-2.31 2.28 0 3.84 1.212 3.882 3.018v.87c-.45.228-.762.696-.762 1.236v.786c0 .06 0 .126.012.186h-5.904q.01-.088.012-.186v-.786c0-.768-.624-1.392-1.392-1.392H17.49v-1.404c.066-2.676 2.352-4.476 5.694-4.476s5.694 1.884 5.694 4.59c0 .33.27.606.606.606s.606-.27.606-.606c0-3.414-2.838-5.796-6.9-5.796s-6.9 2.382-6.9 5.796v1.428a1.39 1.39 0 0 0-.786 1.254v.786c0 .06 0 .126.012.186h-.696c-.942.054-1.674.924-1.674 1.98v9.942c.048 1.056.822 1.884 1.77 1.884h16.746c.33 0 .606-.27.606-.606a.604.604 0 0 0-.606-.606H17.898v-2.544c0-.738-.576-1.344-1.314-1.386h-2.226v-1.944h2.616a.603.603 0 0 0 .534-.6c0-.33-.27-.606-.606-.606h-2.544v-3.594c.024-.39.276-.708.558-.708h15.81c.252.024.528.324.528.768v8.142zM16.5 24.432c.096 0 .174.072.186.186v2.544h-1.812c-.252-.024-.528-.324-.528-.768v-1.956H16.5zm2.55-10.05a.187.187 0 0 1-.186.186h-1.968a.187.187 0 0 1-.186-.186v-.786c0-.102.084-.186.186-.186h1.968c.102 0 .186.084.186.186zm10.626 0a.187.187 0 0 1-.186.186h-1.968a.187.187 0 0 1-.186-.186v-.786c0-.102.084-.186.186-.186h1.968c.102 0 .186.084.186.186z"/></g><defs><clipPath id="a"><path fill="#fff" d="M4.8 4.2h36v39.6h-36z"/></clipPath></defs></svg>
