<svg xmlns="http://www.w3.org/2000/svg" width="56" height="56" fill="none"><path fill="#FFF7DB" fill-rule="evenodd" d="M4.2 23.802c.385 0 .7-.315.7-.7s-.315-.7-.7-.7-.7.315-.7.7.315.7.7.7M32.2 4.2c.385 0 .7-.314.7-.7 0-.384-.315-.7-.7-.7s-.7.316-.7.7c0 .386.315.7.7.7m14 39.2c.385 0 .7-.315.7-.7s-.315-.7-.7-.7-.7.315-.7.7.315.7.7.7m5.6-22.398c.385 0 .7-.315.7-.7s-.315-.7-.7-.7-.7.315-.7.7.315.7.7.7M25.2 51.1c.385 0 .7-.316.7-.7 0-.386-.315-.7-.7-.7s-.7.314-.7.7c0 .384.315.7.7.7" clip-rule="evenodd"/><path fill="#FEC34B" fill-rule="evenodd" d="M28 18.404a7.46 7.46 0 0 0-7.411 8.313A7.463 7.463 0 0 0 28 33.324a7.46 7.46 0 0 0 7.46-7.46 7.46 7.46 0 0 0-7.46-7.46m-8.808 8.408.002.034c.489 4.428 4.243 7.878 8.806 7.878a8.86 8.86 0 0 0 8.86-8.86 8.86 8.86 0 0 0-8.86-8.86 8.86 8.86 0 0 0-8.808 9.808" clip-rule="evenodd"/><path fill="#FEC34B" fill-rule="evenodd" d="M28 34.724c-6.369 0-11.536 5.162-11.536 11.537a.7.7 0 1 1-1.4 0c0-7.148 5.795-12.937 12.936-12.937 7.142 0 12.937 5.795 12.937 12.937a.7.7 0 1 1-1.4 0c0-6.369-5.168-11.537-11.537-11.537" clip-rule="evenodd"/><path fill="#FEC34B" d="M40.176 15.179a1.4 1.4 0 1 0 0-2.8 1.4 1.4 0 0 0 0 2.8"/><path fill="#0D0C21" fill-rule="evenodd" d="M44.831 24a.7.7 0 0 1 .695.706l-.05 6.156a.7.7 0 0 1-1.4-.011l.05-6.156A.7.7 0 0 1 44.83 24M10.204 8.604a.7.7 0 0 1 .5-.206l34.238.2a.7.7 0 0 1 .696.706l-.093 12.318a.7.7 0 0 1-1.4-.011l.088-11.617-32.826-.191.193 21.047a.7.7 0 0 1-1.4.013L10 9.105a.7.7 0 0 1 .204-.5" clip-rule="evenodd"/><path fill="#0D0C21" fill-rule="evenodd" d="M10.398 30.368a.7.7 0 0 1 .502-.212h6.156a.7.7 0 1 1 0 1.4h-5.86l-4.637 4.762h6.813a.7.7 0 1 1 0 1.4H4.9a.7.7 0 0 1-.5-1.188z" clip-rule="evenodd"/><path fill="#0D0C21" d="M13.997 37.018a.624.624 0 1 1-1.25 0 .624.624 0 0 1 1.25 0"/><path fill="#0D0C21" d="M13.997 37.018a.624.624 0 1 1-1.25 0 .624.624 0 0 1 1.25 0"/><path fill="#0D0C21" d="M13.997 37.018a.624.624 0 1 1-1.25 0 .624.624 0 0 1 1.25 0"/><path fill="#0D0C21" d="M13.997 37.018a.624.624 0 1 1-1.25 0 .624.624 0 0 1 1.25 0"/><path fill="#0D0C21" d="M13.997 37.018a.624.624 0 1 1-1.25 0 .624.624 0 0 1 1.25 0"/><path fill="#0D0C21" fill-rule="evenodd" d="M15.75 37.018a.7.7 0 0 1 .7-.7h.768a.7.7 0 1 1 0 1.4h-.768a.7.7 0 0 1-.7-.7m22.17-6.162a.7.7 0 0 1 .7-.7h6.156a.7.7 0 0 1 .488.199l6.325 6.162a.7.7 0 0 1-.489 1.201H38.782a.7.7 0 1 1 0-1.4H49.38l-4.888-4.762H38.62a.7.7 0 0 1-.7-.7m-24.48-18.48a.7.7 0 0 1 .7-.7h18.48a.7.7 0 1 1 0 1.4H14.14a.7.7 0 0 1-.7-.7m0 3.084a.7.7 0 0 1 .7-.7h6.162a.7.7 0 1 1 0 1.4H14.14a.7.7 0 0 1-.7-.7m0 3.078a.7.7 0 0 1 .7-.7h3.078a.7.7 0 0 1 0 1.4H14.14a.7.7 0 0 1-.7-.7" clip-rule="evenodd"/></svg>
