<svg xmlns="http://www.w3.org/2000/svg" width="588" height="331" fill="none"><g clip-path="url(#a)"><path fill="#F6F6F6" fill-rule="evenodd" d="M8.124 133.835c21.883-43.432 117.599-52.001 185.463-74.56 41.78-13.887 80.853-30.072 129.054-29.986 48.049.086 88.637 14.74 128.255 30.448 53.292 21.13 125.266 37.22 135.431 74.098 10.738 38.951-31.626 78.972-86.84 102.17-49.737 20.898-115.952 3.649-176.846 8.62-82.002 6.694-164.332 49.91-235.041 25.002-73.409-25.858-103.507-88.1-79.476-135.792" clip-rule="evenodd"/><path fill="#CCC" d="M361.642 39.833v103.67l-87.4 52.452c-45.031-71.424 8.232-156.11 87.4-156.11z"/><path fill="#FED980" d="M361.553 39.833c61.538 0 103.67 46.42 103.67 103.67 0 41.301-19.602 70.228-51.655 89.817l-52.015-89.817z"/><path fill="#FFF7DB" d="m361.642 143.503 58.665 85.984C381.81 257.81 307.26 254.247 273.42 196.38l88.222-52.864z"/><path stroke="#000" stroke-linecap="round" stroke-linejoin="round" stroke-width="2" d="M361.642 39.833c60.401-1.119 103.67 46.42 103.67 103.67 1.312 57.829-46.42 103.67-103.67 103.67-33.159-.682-60.041-14.2-79.039-36.593-13.364-19.075-24.631-41.494-24.631-67.077-.746-8.373 1.325-19.01 3.794-27.872 9.699-44.787 52.286-75.798 99.863-75.798z"/><path stroke="#000" stroke-linecap="round" stroke-linejoin="round" stroke-width="2" d="M361.655 39.833v103.67l58.858 85.727m-58.858-85.727-88.081 52.928"/><path fill="#CCC" stroke="#000" stroke-linecap="round" stroke-linejoin="round" stroke-width="2" d="M370.044 186.058h-37.74v22.644h37.74zm3.774 22.644H328.53v5.661h45.288zm0-28.305H328.53v5.661h45.288z"/><path fill="#646370" stroke="#000" stroke-linecap="round" stroke-linejoin="round" stroke-width="2" d="M353.061 197.38a5.661 5.661 0 1 1 11.322 0v11.322h-11.322z"/><path fill="#CCC" stroke="#000" stroke-linecap="round" stroke-linejoin="round" stroke-width="2" d="m351.174 171.905 18.87 8.492h-37.74z"/><path stroke="#000" stroke-linecap="round" stroke-linejoin="round" stroke-width="2" d="M351.174 171.905v-9.435"/><path fill="#fff" stroke="#000" stroke-linecap="round" stroke-linejoin="round" stroke-width="2" d="M361.553 167.481c-3.464-2.25-6.915 2.251-10.379 0v-6.249c3.464 2.251 6.915-2.25 10.379 0zm-10.379 11.972a2.831 2.831 0 1 0 0-5.662 2.831 2.831 0 0 0 0 5.662m-3.774 23.588h-9.435v-11.322h9.435z"/><path stroke="#000" stroke-linecap="round" stroke-linejoin="round" stroke-width="2" d="M342.682 203.041v-10.379"/><path stroke="#000" stroke-width="2" d="M337.965 195.493h9.435m-9.435 3.774h9.435"/><path fill="#CCC" stroke="#000" stroke-linecap="round" stroke-linejoin="round" stroke-width="2" d="M431.372 109.633h-37.74v28.306h37.74z"/><path fill="#646370" stroke="#000" stroke-linecap="round" stroke-linejoin="round" stroke-width="2" d="M425.711 122.843h-7.548v15.096h7.548z"/><path fill="#fff" stroke="#000" stroke-linecap="round" stroke-linejoin="round" stroke-width="2" d="M412.502 122.843h-13.209v9.435h13.209z"/><path fill="#CCC" stroke="#000" stroke-linecap="round" stroke-linejoin="round" stroke-width="2" d="M396.18 117.182c-3.435 0-5.996-2.785-5.248-5.72l2.38-9.377h9.595l-1.392 10.92c-.307 2.382-2.6 4.177-5.344 4.177z"/><path fill="#CCC" stroke="#000" stroke-linecap="round" stroke-linejoin="round" stroke-width="2" d="M407.128 117.182h-.134c-3.205 0-5.7-2.433-5.345-5.217l1.257-9.879h9.595v10.399c0 2.592-2.408 4.697-5.373 4.697m10.882 0h-.135c-2.965 0-5.373-2.105-5.373-4.697v-10.399h9.595l1.257 9.879c.355 2.784-2.14 5.217-5.344 5.217m10.823 0c-2.744 0-5.037-1.803-5.344-4.177l-1.392-10.919h9.596l2.379 9.376c.749 2.935-1.813 5.72-5.248 5.72z"/><path stroke="#000" stroke-width="2" d="M390.801 112.464h43.402"/><path fill="#CCC" stroke="#000" stroke-linecap="round" stroke-linejoin="round" stroke-width="2" d="M395.519 92.65h33.966v5.661h-33.966z"/><path stroke="#000" stroke-width="2" d="M405.897 98.311v3.774m13.209-3.774v3.774"/><path stroke="#000" stroke-linecap="round" stroke-linejoin="round" stroke-width="2" d="M488.719 151.28v-1.557a4.427 4.427 0 0 1 4.406-4.425c1.217 0 2.321.491 3.132 1.293a4.34 4.34 0 0 1 1.293 3.113v1.557m-9.103.021 9.379-.015a1.57 1.57 0 0 1 1.568 1.564l.01 6.302a6.257 6.257 0 0 1-6.245 6.266 6.26 6.26 0 0 1-6.266-6.246l-.009-6.303a1.567 1.567 0 0 1 1.563-1.568m4.697 4.404.018 9.709"/><path stroke="#000" stroke-linecap="round" stroke-linejoin="round" stroke-width="2" d="M493.125 145.308a3.595 3.595 0 0 1 3.576-3.595m-3.576 3.595a3.577 3.577 0 0 0-3.595-3.576m13.652 9.227a3.595 3.595 0 0 1-3.576 3.595m-.556 6.68a5.08 5.08 0 0 1 4.161 4.982m-3.605-8.586h1.793l2.576 2.566m-20.889-9.199a3.58 3.58 0 0 0 3.594 3.576m.576 6.68a5.07 5.07 0 0 0-4.142 4.991m3.567-8.595h-1.793l-2.566 2.585"/><path fill="#000" d="M322.535 227.248c.389 0 .766.266.766.737 0 .399-.28.665-.729.955-.511.314-1.179.519-2.006.519-2.151 0-4.302-1.764-4.302-4.313s2.163-4.313 4.278-4.313c.851 0 1.519.218 2.03.52.449.29.729.556.729.954 0 .471-.377.737-.766.737-.304 0-.522-.157-.656-.254a2.3 2.3 0 0 0-1.313-.41c-1.373 0-2.588 1.208-2.588 2.766s1.203 2.767 2.601 2.767c.656 0 1.118-.29 1.3-.411.134-.097.34-.254.656-.254m4.626-4.228c1.386 0 3.245 1.075 3.245 3.226 0 2.162-1.859 3.213-3.245 3.213-1.397 0-3.245-1.051-3.245-3.213 0-2.151 1.848-3.226 3.245-3.226m0 1.377c-.863 0-1.665.677-1.665 1.849 0 1.159.802 1.836 1.665 1.836.851 0 1.665-.677 1.665-1.836 0-1.172-.814-1.849-1.665-1.849m6.056 4.253a.796.796 0 0 1-1.592 0v-7.116c0-.423.364-.785.802-.785.425 0 .79.362.79.785zm3.05 0a.796.796 0 0 1-1.592 0v-7.116c0-.423.364-.785.802-.785.425 0 .79.362.79.785zm4.411-5.63c1.386 0 3.063 1.087 3.063 2.96 0 .628-.353.845-.997.845l-3.609-.024c.146.882.85 1.353 1.738 1.353.437 0 .644-.096 1.008-.253.219-.097.389-.194.596-.194.34 0 .547.242.547.544 0 .193-.085.411-.389.664-.45.314-1.058.52-1.823.52-1.617 0-3.33-.991-3.33-3.189 0-2.175 1.811-3.226 3.196-3.226m0 1.377c-.693 0-1.434.387-1.543 1.317h3.038c-.122-.93-.802-1.317-1.495-1.317m8.859 3.032c.328 0 .644.23.644.604 0 .387-.291.58-.449.725-.511.447-1.106.677-1.896.677-1.471 0-3.245-1.051-3.245-3.202 0-2.162 1.774-3.213 3.245-3.213.79 0 1.385.217 1.896.664.158.157.449.351.449.737 0 .375-.316.604-.644.604-.291 0-.522-.169-.619-.253-.28-.266-.693-.375-1.021-.375-.96 0-1.726.665-1.726 1.836 0 1.16.766 1.825 1.726 1.825.328 0 .741-.109 1.021-.375.097-.084.328-.254.619-.254m4.813.592c.365-.024.596.194.596.568 0 .556-.547.846-1.373.846-.827 0-1.665-.266-1.665-1.945v-3.153h-.353c-.389 0-.644-.254-.644-.616 0-.375.255-.629.644-.629h.353v-.821c0-.435.364-.797.802-.797.437 0 .79.362.79.797v.821h.802c.401 0 .644.254.644.629 0 .362-.243.616-.644.616h-.802v3.201c0 .351.121.532.389.532.133 0 .328-.049.461-.049m2.502-5.823c-.437 0-.814-.362-.814-.785s.377-.785.814-.785c.425 0 .802.362.802.785s-.377.785-.802.785m0 .858c.425 0 .79.363.79.798v4.784a.807.807 0 0 1-.79.809.81.81 0 0 1-.802-.809v-4.784c0-.435.365-.798.802-.798m7.135 0c.425 0 .741.326.741.713a.8.8 0 0 1-.097.362l-2.139 4.664c-.182.374-.425.604-.802.604s-.62-.23-.79-.604l-2.151-4.664c-.036-.096-.085-.217-.085-.362 0-.387.316-.713.729-.713.304 0 .596.169.766.556l1.531 3.576 1.544-3.576c.158-.387.449-.556.753-.556m2.645-.858c-.438 0-.815-.362-.815-.785s.377-.785.815-.785c.425 0 .802.362.802.785s-.377.785-.802.785m0 .858c.425 0 .789.363.789.798v4.784a.806.806 0 0 1-.789.809.81.81 0 0 1-.803-.809v-4.784c0-.435.365-.798.803-.798m5.212 4.965c.365-.024.596.194.596.568 0 .556-.547.846-1.373.846-.827 0-1.665-.266-1.665-1.945v-3.153h-.353c-.389 0-.644-.254-.644-.616 0-.375.255-.629.644-.629h.353v-.821c0-.435.364-.797.802-.797.437 0 .79.362.79.797v.821h.802c.401 0 .644.254.644.629 0 .362-.243.616-.644.616h-.802v3.201c0 .351.121.532.389.532.133 0 .328-.049.461-.049m4.984-7.997c.462 0 .826.362.826.821a.76.76 0 0 1-.182.52l-.911 1.003a.54.54 0 0 1-.438.217c-.377 0-.693-.326-.522-.749l.449-1.256a.825.825 0 0 1 .778-.556m-.462 2.996c1.386 0 3.063 1.087 3.063 2.96 0 .628-.353.845-.997.845l-3.609-.024c.146.882.85 1.353 1.738 1.353.437 0 .644-.096 1.008-.253.219-.097.389-.194.596-.194.34 0 .547.242.547.544 0 .193-.085.411-.389.664-.45.314-1.057.52-1.823.52-1.616 0-3.33-.991-3.33-3.189 0-2.175 1.811-3.226 3.196-3.226m0 1.377c-.693 0-1.434.387-1.543 1.317h3.038c-.121-.93-.802-1.317-1.495-1.317m6.319-1.377c.827 0 1.617.326 2.018.882.073.109.194.278.194.531 0 .387-.267.592-.62.592-.23 0-.461-.084-.668-.338-.243-.278-.523-.411-.875-.411-.474 0-.754.23-.754.568 0 .193.073.447.632.604l.742.218c.972.265 1.786.724 1.786 1.8 0 1.329-1.239 1.969-2.503 1.969-1.094 0-1.75-.459-2.091-.87-.06-.085-.328-.387-.328-.761 0-.266.17-.604.608-.604.328 0 .51.205.656.386.353.435.742.556 1.155.556.595 0 .923-.253.923-.592 0-.205-.133-.471-.717-.64l-.692-.205c-1.228-.339-1.738-.991-1.738-1.849 0-1.208 1.118-1.836 2.272-1.836"/><path fill="#fff" d="M129.553 250.443s6.529 7.991 6.529 23.446c0 3.991-3.547 4.01-4.793.132-1.34-4.133-2.264-8.794-2.264-8.794-1.066 10.926.811 14.795 1.858 17.72 1.114 3.123-1.604 5.217-4.236 2.519l-.16.405c-1.463.567-2.746.463-3.878-.103-1.066-.529-1.991-1.472-2.793-2.642-.009 0-.009-.019-.019-.029l-.188.123c-.831.057-7.464.113-8.841-12.001-.906-7.992 1.208-18.38.802-22.512-.396-4.124-4.529-17.71-4.925-33.561-.406-15.851 1.33-34.504 1.33-34.504v-.038c6.51 1.661 17.861 3.217 26.909 2.651v.057l-3.463 21.304-1.273 31.24z"/><path fill="#FFF7DB" d="M312.377 158.29c.84.717 1.01 1.434.679 2.255.123-.783-.151-1.585-.679-2.255m-1.897-5.076c-.386-.783-1.368-1.321-2.972-1.208-2.406.161-6.057.151-10.68.831 5.095-.831 9.086-.812 11.662-.982 1.509-.103 1.981.519 1.99 1.359"/><path fill="#FFF7DB" fill-rule="evenodd" d="m309.952 167.905-.124.059c-.003.001.003-.001 0 0l-.102.049-.223.109" clip-rule="evenodd"/><path fill="#FFF7DB" d="M306.244 173.849c.802-.321 1.321-.717 1.642-1.123-.425.557-1.151 1.009-2.227 1.349.189-.075.387-.151.585-.226m-22.842 4.934s.254.029.707.057c-2.368 1.745-20.078 14.53-39.155 21.097a15 15 0 0 1-3.038.698 15 15 0 0 0 2.056-.547c20.512-7.058 39.43-21.305 39.43-21.305"/><path fill="#fff" fill-rule="evenodd" d="m296.828 152.837-.104.014.05-.007z" clip-rule="evenodd"/><path fill="#FFF7DB" d="M206.893 57.344c2.255 1.406 3.811 4.378 3.811 7.812 0 2.359-.736 4.51-1.924 6.076-1.236 1.623-2.954 2.623-4.85 2.623-3.68 0-6.661-3.755-6.765-8.434-.009-.086-.009-.18-.009-.265 0-4.802 3.028-8.69 6.774-8.69 1.066 0 2.066.312 2.963.878M186.73 78.215c-4.699 0-8.501-4.293-8.501-9.596 0-.33.019-.66.047-.981V67.6c.453-4.812 4.057-8.567 8.454-8.567 3.802 0 7.01 2.812 8.095 6.699.255.906.396 1.878.396 2.887 0 5.303-3.802 9.596-8.491 9.596"/><path fill="#FED980" d="M201.486 114.974c8.784 3.198 16.38 6.133 23.975 20.115a1027 1027 0 0 0 15.181 26.909s-.944.915-2.765 2.34c-1.858 1.472-4.651 3.491-8.293 5.652-5.576 3.311-9.954 4.849-11.633 5.378a17 17 0 0 1-.755.217l-.217-.038a40 40 0 0 1-.576 2.698 52 52 0 0 0-.887 4.246c-.972 5.671-1.434 12.238-1.651 16.134-.17 3.236-.387 5.501-2.113 7.199-.897.897-2.208 1.623-4.142 2.255-6.529 2.133-55.677 2.133-63.272 1.066-1.67-.236-2.972-.698-4.01-1.321-2.651-1.575-3.538-4.085-4.114-6-.802-2.661-.934-18.512-.934-18.512v-.085a3 3 0 0 1-.396.028c-9.048.567-20.399-.99-26.899-2.651-1.727-.434-3.105-.877-4.01-1.292 4.132-32.231 5.868-57.413 44.363-67.537a30 30 0 0 0 3.51-1.132l.085.208s7.454 11.982 25.305 11.982c14.917 0 14.785-10.916 14.785-10.916v-.236c2.623.877 5.887 1.991 9.463 3.293"/><path fill="#000" d="M206.147 54.108s-2-8.794-11.322-12.53C188.164 51.702 174.04 59.43 174.04 59.43s-2.482 5.397-5.529 9.596c-1.727 2.396-3.642 4.406-5.388 4.793-2.67-5.86-13.586-5.067-13.86 3.066-.264 8.114 6.265 10.388 8.794 10.388.424 0 .82-.019 1.179-.056l.019.188s-.255 3.095-.576 6.7l-.358-.038s-34.891-7.464-23.173-44.223c0 0-11.992-2.934-11.992-15.19S133.554 20 138.875 20c5.322 0 12.388 2.67 12.388 12.388 13.408-8.821 34.995-7.302 44.628 3.067 13.719 7.727 10.256 18.653 10.256 18.653m5.727 151.848s19.446 29.834 9.19 99.361c0 0-3.868 11.19-44.892 2.132s-55.214-1.094-55.214-1.094.292-7.992 1.651-20.587c1.132.566 2.415.67 3.878.103l.16-.405c2.633 2.698 5.35.604 4.237-2.519-1.048-2.925-2.925-6.794-1.859-17.72 0 0 .925 4.661 2.264 8.794 1.246 3.878 4.793 3.859 4.793-.132 0-15.455-6.529-23.446-6.529-23.446l.595-14.587c4.934-22.55 9.925-27.635 9.925-27.635l.255-.397c1.038.623 2.34 1.085 4.01 1.321 7.595 1.066 56.743 1.066 63.272-1.066 1.934-.632 3.245-1.359 4.142-2.255z"/><path fill="#fff" d="M186.73 59.033c3.802 0 7.01 2.812 8.095 6.699.255.906.396 1.878.396 2.887 0 5.303-3.792 9.596-8.491 9.596s-8.501-4.293-8.501-9.596c0-.33.019-.66.047-.981V67.6c.453-4.812 4.057-8.567 8.454-8.567m8.171 6.68 2.113-.292h.151c-.009-.085-.009-.18-.009-.265 0-4.802 3.028-8.69 6.774-8.69 1.066 0 2.066.312 2.963.878-.425-2.028-.746-3.236-.746-3.236s-2-8.793-11.322-12.53C188.164 51.702 174.04 59.43 174.04 59.43s-2.482 5.397-5.529 9.596c-1.727 2.396-3.642 4.406-5.388 4.793-2.67-5.86-13.586-5.067-13.86 3.066-.264 8.115 6.265 10.388 8.794 10.388.424 0 .821-.019 1.179-.056l.019.188s-.255 3.095-.576 6.7c-.377 4.283-.868 9.302-1.151 10.746-.434 2.161-1.509 4.132-5.68 5.793l.085.208s7.454 11.982 25.305 11.982c14.917 0 14.794-10.916 14.794-10.916v-.236c-3.821-1.283-6.264-2.029-6.264-2.029h-.123c.019-2.755.377-5.831.49-6.699.689.104 1.369.17 2.029.17 18.757 0 21.446-17.757 20.616-31.89-1.236 1.623-2.953 2.623-4.85 2.623-3.68 0-6.661-3.755-6.765-8.426h-.151zm43.125 98.657c-.249.2-.518.409-.805.618-1.86 1.415-4.419 3.191-7.621 5.072-7.304 4.294-12.585 5.633-12.585 5.633l-.22-.038a39 39 0 0 1-.585 2.717 52 52 0 0 0-.901 4.275l.086.019s11.665 19.967 25.736 18.4c.691-.133 1.39-.313 2.09-.551 20.838-7.105 40.057-21.449 40.057-21.449s.259.028.719.057c.182-.143.278-.209.278-.209s8.684.893 15.135-2.689c.642-.351 1.265-.75 1.85-1.206q.043-.001.086-.005.044-.004.086-.005c1.783-.085 3.202-.304 4.285-.627l.172-.057.318-.123.275-.104c.815-.323 1.344-.723 1.67-1.131.795-.997.603-2.289-.317-3.762.461-.149 1.32-.564 1.959-.873l.227-.109q.126-.062.23-.11c2.971-1.767.939-4.816.939-4.816.249-.219.489-.437.7-.656.728-.693 1.246-1.32 1.505-1.909 0-.01 0-.019.009-.029.125-.788-.153-1.596-.69-2.27-.642-.541-1.668-1.083-3.144-1.643a1 1 0 0 1-.096-.038c.01-.019.019-.038.039-.067 0-.009.009-.009.009-.009l.107-.193c.365-.652 1.158-2.07 1.158-3.161-.392-.788-1.389-1.33-3.019-1.216-.627.042-1.337.072-2.126.106-2.286.097-5.232.222-8.724.73l-.105.015-.01.001-.096.013c-.345.057-.7.123-1.064.19-4.549.833-8.048 3.481-11.476 6.075-2.083 1.577-4.141 3.134-6.391 4.251-4.927 2.45-28.162 8.198-35.983 10.097l-.019-.085-.259-1.026z"/><path stroke="#000" stroke-linecap="round" stroke-linejoin="round" stroke-width="2" d="M161.925 86.602s-.925.463-2.689.614a11 11 0 0 1-1.179.056c-2.529 0-9.058-2.274-8.794-10.388.274-8.133 11.19-8.925 13.86-3.066 1.746-.387 3.661-2.397 5.388-4.793 3.047-4.199 5.529-9.596 5.529-9.596s14.124-7.727 20.785-17.85c9.322 3.735 11.322 12.529 11.322 12.529s3.463-10.926-10.256-18.653c-9.633-10.37-31.22-11.888-44.628-3.067 0-9.718-7.057-12.388-12.388-12.388s-15.719 2.406-15.719 14.653 11.992 15.19 11.992 15.19c-11.718 36.76 23.173 44.223 23.173 44.223"/><path stroke="#000" stroke-linecap="round" stroke-linejoin="round" stroke-width="2" d="M155.66 76.082c2.934 0 3.595 2.265 3.595 4.397m0 6.925s-.255 3.095-.576 6.7c-.377 4.283-.868 9.302-1.151 10.746-.434 2.16-1.509 4.132-5.68 5.793a30 30 0 0 1-3.51 1.132c-38.495 10.124-40.231 35.306-44.363 67.536.905.416 2.283.859 4.01 1.293 6.5 1.661 17.851 3.217 26.899 2.651.132 0 .255-.009.387-.028a38 38 0 0 0 2.142-.189c2.406-10.397 3.33-21.144 3.594-31.966m-33.032 29.57s-1.736 18.653-1.33 34.504c.396 15.851 4.529 29.437 4.925 33.561.406 4.132-1.708 14.52-.802 22.512 1.377 12.114 8.01 12.058 8.841 12.001.056 0 .084-.009.084-.009"/><path stroke="#000" stroke-linecap="round" stroke-linejoin="round" stroke-width="2" d="M115.297 269.492s1.189 8.746 4.5 13.605c0 .01 0 .019.019.029.802 1.17 1.727 2.113 2.793 2.642 1.132.566 2.415.669 3.878.103m-5.057-16.785s1.104 9.237 3.727 14.257c.471.906.981 1.604 1.49 2.123 2.633 2.698 5.35.604 4.237-2.52-1.048-2.924-2.925-6.793-1.859-17.719 0 0 .925 4.661 2.264 8.794 1.246 3.878 4.793 3.859 4.793-.132 0-15.455-6.529-23.446-6.529-23.446l.595-14.587 1.273-31.24 3.463-21.304m.396 0s.132 15.851.934 18.512c.576 1.915 1.463 4.425 4.114 6 1.038.623 2.34 1.085 4.01 1.321 7.595 1.066 56.743 1.066 63.272-1.066 1.934-.632 3.245-1.359 4.142-2.255 1.726-1.698 1.943-3.963 2.113-7.199.217-3.897.679-10.463 1.651-16.134.255-1.5.548-2.934.887-4.246.198-.764.387-1.67.576-2.698 1.292-7.397 1.877-21.182-3.51-33.929m-4.689-70.385c.83 14.133-1.859 31.89-20.616 31.89-.661 0-1.34-.066-2.029-.17-4.462-.726-9.161-3.425-9.161-3.425"/><path stroke="#000" stroke-linecap="round" stroke-linejoin="round" stroke-width="1.887" d="M206.893 57.344c-.425-2.029-.746-3.236-.746-3.236"/><path stroke="#000" stroke-linecap="round" stroke-linejoin="round" stroke-width="2" d="M197.684 73.28s.698 1.264 1.604 2.67c.896 1.397 2.132 3.057 2.132 4.387 0 3.199-4.264 2.935-4.264 2.935m-2.331-17.54c.255.906.396 1.878.396 2.887 0 5.303-3.802 9.596-8.491 9.596s-8.501-4.293-8.501-9.596c0-.33.019-.66.047-.981V67.6c.453-4.812 4.057-8.567 8.454-8.567 3.802 0 7.01 2.812 8.095 6.699m12.068-8.388c2.255 1.406 3.811 4.378 3.811 7.812 0 2.359-.736 4.51-1.924 6.076-1.236 1.623-2.954 2.623-4.85 2.623-3.68 0-6.661-3.755-6.765-8.434-.009-.086-.009-.18-.009-.265 0-4.802 3.028-8.69 6.774-8.69 1.066 0 2.066.312 2.963.878m-46.836 13.011 8.454-1.33 9.397-1.472m7.85 44.628c-.085-.746-.113-1.614-.113-2.529.019-2.755.377-5.831.49-6.699"/><path stroke="#000" stroke-linecap="round" stroke-linejoin="round" stroke-width="2" d="M151.933 110.851s7.454 11.982 25.305 11.982c14.917 0 14.785-10.916 14.785-10.916"/><path stroke="#000" stroke-linecap="round" stroke-linejoin="round" stroke-width="2" d="M185.767 109.652s2.444.746 6.265 2.029c2.614.877 5.878 1.991 9.454 3.293 8.784 3.198 16.38 6.132 23.975 20.115a1027 1027 0 0 0 15.181 26.909s-.944.915-2.765 2.34c-1.858 1.472-4.651 3.491-8.293 5.652-5.576 3.311-9.954 4.849-11.634 5.378-.49.151-.754.217-.754.217"/><path stroke="#000" stroke-linecap="round" stroke-linejoin="round" stroke-width="1.887" d="M120.892 305.591s.358-7.228 1.717-19.823"/><path stroke="#000" stroke-linecap="round" stroke-linejoin="round" stroke-width="2" d="M211.874 205.956s19.446 29.834 9.19 99.361m-90.916-69.461c4.934-22.55 9.925-27.635 9.925-27.635"/><path stroke="#fff" stroke-linecap="round" stroke-linejoin="round" stroke-width="2" d="m184.701 247.782-4.264 9.586-4.793 53.28"/><path stroke="#000" stroke-linecap="round" stroke-linejoin="round" stroke-width="2" d="m237.981 164.593.085.207 3.246 7.982m-2.265 1.331s.944-.227 2.538-.623l.963-.236c8.482-2.085 29.796-7.454 34.457-9.793 5.859-2.935 10.388-8.926 17.587-10.256a45 45 0 0 1 2.028-.34l.208-.028c4.623-.68 8.274-.67 10.68-.831 1.604-.113 2.586.425 2.972 1.208.472.981.038 2.331-1.245 3.331 0 0-.009 0-.009.009a5 5 0 0 1-.425.293c-3.633 2.273-10.879 2.953-10.879 2.953s1.199 6.019-8.265 8.416m-74.056 14.294s12.03 20.776 26.315 18.125a16 16 0 0 0 2.057-.547c20.512-7.058 39.429-21.305 39.429-21.305s9.768 1.028 15.879-2.821c.51-.311.991-.66 1.434-1.047m6.595-5.793s1.821 1.99.576 3.604c-.321.406-.84.802-1.642 1.123-.198.075-.396.151-.585.226l-.17.057a12 12 0 0 1-4.217.622 11 11 0 0 1-.538-.018c-1.934-.133-3.68-.718-5.01-1.548-2.529-1.604-1.123-5.189 2.462-4.33 2.614.622 5.661 1.009 9.02-.095.576-.189 1.17-.424 1.765-.707 4.566-2.171 1-4.595 1-4.595m-9.058.132s4.614 1.311 8.983-.321c.5-.179 1-.406 1.481-.68.066-.037.132-.075.189-.122.896-.529 1.349-1.198 1.481-1.897 0-.009 0-.018.009-.028.123-.783-.151-1.585-.679-2.255-.708-.906-1.868-1.566-3.095-1.632-.037-.01-.085-.01-.122-.01M194.901 65.713l2.113-.283"/><path stroke="#000" stroke-linecap="round" stroke-linejoin="round" stroke-width="3" d="m283.09 172.122 93.059-50.619"/><path stroke="#000" stroke-linecap="round" stroke-linejoin="round" stroke-width="2" d="M191.089 67.09c-2.085-.31-6.378.387-8.86 1.529"/><path fill="#000" d="M187.003 70.95a1.886 1.886 0 1 0 .001-3.773 1.886 1.886 0 0 0-.001 3.772"/><path stroke="#000" stroke-linecap="round" stroke-linejoin="round" stroke-width="2" d="M206.817 64.58c-2.1-.59-4.797.04-6.604.709"/><path fill="#000" d="M203.987 68.119a1.887 1.887 0 1 0 0-3.774 1.887 1.887 0 0 0 0 3.774"/><path stroke="#000" stroke-linecap="round" stroke-linejoin="round" stroke-width="2" d="M194.648 90.9c1.706.507 2.527.431 3.787.098"/><path fill="#000" d="M198.127 53.627c-1.5.16-1.49 2.698.255 2.387 1.746-.312 4.067-.717 7.973-.755.604 0 .623-1.16.019-1.283-2.699-.566-5.576-.632-8.247-.35m-8.086 1.076c2.001-.32 2.737 2.123.378 2.369-2.359.245-5.491.584-10.586 1.783-.783.188-1.151-.916-.406-1.227 3.34-1.387 7.048-2.359 10.614-2.925m201.371 89.887c.362 0 .668.294.668.679a.67.67 0 0 1-.668.668h-1.608v5.854c0 .441-.351.803-.758.803-.419 0-.77-.362-.77-.803v-5.854h-1.597a.68.68 0 0 1-.679-.668.68.68 0 0 1 .679-.679zm4.593 0c1.766 0 2.899 1.143 2.899 2.57 0 1.449-1.133 2.547-2.899 2.547h-1.381v2.118c0 .418-.34.769-.759.769a.77.77 0 0 1-.77-.769v-6.397c0-.487.351-.838.838-.838zm-.068 3.815c.849 0 1.483-.305 1.483-1.245 0-.929-.634-1.268-1.483-1.268h-1.313v2.513zm5.575 2.774h3.182c.362 0 .679.306.679.668a.68.68 0 0 1-.679.668h-3.872a.81.81 0 0 1-.838-.838v-6.249c0-.487.351-.838.838-.838h3.758c.363 0 .68.294.68.656a.69.69 0 0 1-.68.68h-3.068v1.97h2.016c.373 0 .668.294.668.634a.66.66 0 0 1-.668.645h-2.016zM413.23 144c.544 0 .827.555.668.962l-3.363 8.639a.71.71 0 0 1-.656.464c-.544 0-.827-.554-.668-.962l3.362-8.639a.72.72 0 0 1 .657-.464m7.697.589c1.766 0 2.898 1.143 2.898 2.57 0 1.449-1.132 2.547-2.898 2.547h-1.381v2.118c0 .418-.34.769-.759.769a.77.77 0 0 1-.77-.769v-6.397c0-.487.351-.838.838-.838zm-.068 3.815c.849 0 1.483-.305 1.483-1.245 0-.929-.634-1.268-1.483-1.268h-1.313v2.513zm11.848-3.849c.339 0 .701.238.701.713v6.499c0 .419-.35.781-.792.781a.79.79 0 0 1-.77-.781v-3.804l-2.027 3.815c-.147.272-.396.431-.668.431-.26 0-.509-.159-.656-.431l-2.038-3.815v3.804c0 .419-.34.781-.759.781a.79.79 0 0 1-.792-.781v-6.499c0-.475.362-.713.702-.713.317 0 .611.238.769.509l2.774 4.993 2.786-4.993c.158-.271.453-.509.77-.509m3.59 6.623h3.181c.363 0 .68.306.68.668a.68.68 0 0 1-.68.668h-3.872a.81.81 0 0 1-.838-.838v-6.249c0-.487.351-.838.838-.838h3.759c.362 0 .679.294.679.656 0 .374-.317.68-.679.68h-3.068v1.97h2.015c.374 0 .668.294.668.634a.657.657 0 0 1-.668.645h-2.015zm-29.046 13.209h3.181c.362 0 .679.306.679.668a.68.68 0 0 1-.679.668h-3.872a.81.81 0 0 1-.838-.837v-6.25c0-.487.351-.838.838-.838h3.759c.362 0 .679.294.679.657a.69.69 0 0 1-.679.679h-3.068v1.97h2.015c.374 0 .668.294.668.634a.657.657 0 0 1-.668.645h-2.015zm10.012-6.589c.362 0 .668.294.668.679a.67.67 0 0 1-.668.668h-1.608v5.854c0 .441-.351.804-.759.804-.419 0-.77-.363-.77-.804v-5.854h-1.596a.68.68 0 0 1-.679-.668.68.68 0 0 1 .679-.679zm2.464-.057c.419 0 .77.363.77.781v6.477a.79.79 0 0 1-.77.781.79.79 0 0 1-.781-.781v-6.477a.79.79 0 0 1 .781-.781"/></g><defs><clipPath id="a"><path fill="#fff" d="M0 0h588v331H0z"/></clipPath></defs></svg>
