<svg width="282" height="199" viewBox="0 0 282 199" fill="none" xmlns="http://www.w3.org/2000/svg">
    <path d="M184.025 1.13611C183.927 53.0463 185.104 113.578 183.927 159.419C182.75 159.419 100.867 182.925 73.2797 189.195C72.9862 149.331 73.2797 31.1103 73.2797 31.1103C73.2797 31.1103 172.733 3.58779 184.025 1.13898V1.13611Z" fill="white"/>
    <path d="M183.826 18.3753C175.384 22.6844 88.8879 43.4491 73.5732 48.2491C72.592 41.3936 74.261 35.8098 73.2797 31.0098C80.4479 28.561 173.815 4.271 184.123 1.03845C184.416 5.64325 184.123 15.0452 183.829 18.3753H183.826Z" fill="#FED980"/>
    <path d="M81.6248 40.0214C76.7156 39.2376 80.3471 31.4032 83.8837 35.5171C84.865 37.0845 83.6881 40.1219 81.6248 40.0214Z" fill="#FED980"/>
    <path d="M90.8533 37.7678C87.4175 36.298 89.6764 30.9123 93.2101 32.4798C96.7438 33.6539 93.8 38.7496 90.8533 37.7678Z" fill="#FED980"/>
    <path d="M101.849 34.7304C97.9208 34.5352 99.7884 28.4606 103.126 29.4424C106.464 30.3237 105.089 35.1237 101.849 34.7304Z" fill="#FED980"/>
    <path d="M109.213 79.6875C94.8791 43.8396 146.029 30.7142 154.964 64.0157C154.573 101.626 115.986 96.7287 109.213 79.6875Z" fill="#FFF7DB"/>
    <path d="M115.592 87.2291C125.9 95.4569 144.259 93.3009 150.74 81.5478C143.868 66.6597 118.634 71.8502 115.592 87.2291Z" fill="#FED980"/>
    <path d="M139.059 62.8415C136.999 50.9908 118.637 55.5927 123.745 67.7391C127.376 76.1621 140.927 71.7554 139.059 62.8415Z" fill="#FED980"/>
    <path d="M127.67 93.1086C109.213 90.855 99.6877 69.9928 110.096 54.6166C119.914 40.3171 141.022 40.2195 150.938 54.4214C156.535 62.2559 156.829 73.4234 151.626 81.5536C146.814 89.6837 136.996 94.3833 127.67 93.1115V93.1086ZM127.963 91.834C138.861 93.2062 149.563 86.3478 152.901 75.8693C156.926 63.6253 150.153 50.3047 137.879 46.2884C127.865 42.9582 116.574 46.9745 110.882 55.7879V55.6903C101.457 70.3832 110.588 89.8732 127.966 91.834H127.963Z" fill="#0D0C21"/>
    <path d="M130.026 73.2253C122.959 72.3439 119.621 64.1162 123.94 58.5324C128.947 52.2626 138.961 54.9095 140.239 62.8415C141.123 68.7181 135.92 74.0062 130.029 73.2224L130.026 73.2253ZM130.616 71.9506C136.115 72.3411 140.337 66.8578 138.57 61.6674C136.409 55.2999 127.868 54.3209 124.334 60.0999C121.388 65.0951 124.726 71.5602 130.619 71.9506H130.616Z" fill="#0D0C21"/>
    <path d="M115.791 86.7411C115.595 86.6435 115.399 86.5459 115.103 86.5459C115.005 86.5459 114.907 86.5459 114.81 86.6435L114.712 86.5459C114.712 86.3507 114.81 86.1554 114.907 85.9573C115.103 85.1736 115.497 84.3899 115.791 83.6061C116.576 81.9411 117.558 80.4712 118.637 79.1018C118.832 78.9066 119.028 78.7114 119.227 78.5133C119.52 78.1229 119.817 77.8272 120.208 77.5344C120.404 77.3391 120.599 77.1439 120.798 77.0435C120.896 76.9458 120.994 76.8482 121.091 76.7506H121.189C121.287 76.653 121.385 76.5554 121.483 76.5554C121.874 76.2626 122.268 75.9669 122.66 75.6741C123.445 75.0855 124.329 74.5975 125.212 74.1066C125.31 74.1066 125.408 74.009 125.506 73.9114H125.604C125.701 73.9114 125.799 73.8138 125.897 73.7162C126.093 73.6186 126.288 73.521 126.487 73.4233C128.156 72.7372 129.923 72.2492 131.788 71.9535C133.652 71.6607 135.618 71.7583 137.482 71.9535C139.347 72.2463 141.114 72.7372 142.783 73.521C144.55 74.3047 146.121 75.2836 147.594 76.4607C148.97 77.6348 150.245 79.0071 151.324 80.477C151.422 80.5746 151.519 80.6722 151.519 80.8674C151.617 81.0626 151.715 81.1602 151.617 81.3583C151.519 81.5564 151.519 81.6511 151.324 81.7487C151.03 81.9439 150.636 81.9439 150.44 81.6511C150.049 81.0626 149.557 80.477 149.065 79.8884C148.475 79.2999 147.888 78.6138 147.298 78.1257C146.708 77.6348 146.02 77.0492 145.335 76.5583C144.65 76.0674 143.862 75.6769 143.275 75.2836C142.489 74.8932 141.704 74.4999 140.918 74.3047C140.133 74.1095 139.249 73.8138 138.464 73.6186C137.678 73.4233 136.795 73.3257 136.009 73.2281H135.911C135.028 73.1305 134.144 73.1305 133.359 73.2281C132.475 73.3257 131.592 73.4233 130.806 73.521C130.021 73.7162 129.235 73.9114 128.449 74.1095C127.664 74.4023 126.878 74.698 126.191 74.9908C125.503 75.3813 124.815 75.7746 124.13 76.165C123.54 76.5554 123.051 76.9487 122.461 77.3391C122.363 77.4368 122.265 77.5344 122.07 77.632H121.972C121.382 78.2205 120.795 78.7085 120.205 79.3947C119.713 79.9832 119.224 80.6693 118.732 81.2549C118.24 82.0387 117.75 82.7248 117.356 83.5085C116.864 84.3899 116.571 85.2712 116.179 86.2502C116.081 86.4454 116.081 86.543 115.984 86.7411C115.853 86.8062 115.788 86.8062 115.788 86.7411H115.791Z" fill="#0D0C21"/>
    <path d="M165.369 105.743C158.302 108.683 114.22 119.555 95.9583 124.254C95.8604 120.238 94.7813 114.654 96.1539 110.934C105.578 107.896 151.919 95.8502 165.272 92.6177C165.369 98.5919 165.174 104.468 165.369 105.743Z" fill="#FFF7DB"/>
    <path d="M165.272 112.599C165.076 114.361 165.467 125.919 165.467 125.919L96.1539 145.214L95.9582 131.11C95.9582 131.11 145.048 117.887 165.272 112.599Z" fill="#FFF7DB"/>
    <path d="M165.467 147.858L95.6618 166.665V152.756L165.467 134.44V147.858Z" fill="#FED980"/>
    <path d="M94.8791 111.717V110.543C94.8791 110.543 94.977 110.445 94.977 110.348C94.977 110.348 94.977 110.25 95.0748 110.25C96.7438 109.86 98.4128 109.369 100.082 108.878C105.777 107.311 111.569 105.841 117.264 104.273C133.267 99.9641 149.171 95.7526 165.177 91.4435C165.962 91.2483 166.354 92.4225 165.568 92.7182C163.113 93.4043 160.659 93.9928 158.204 94.6761C152.705 96.1459 147.209 97.6158 141.71 99.0828C131.304 101.824 120.896 104.667 110.49 107.408C105.287 108.976 100.085 110.348 94.8791 111.717Z" fill="#0D0C21"/>
    <path d="M94.8791 124.94C94.6834 123.961 96.0561 124.059 96.646 123.766C97.4316 123.571 98.315 123.376 99.1006 123.08C109.115 120.436 119.227 117.694 129.241 115.047C140.533 112.01 151.822 108.976 163.211 105.938C164.095 105.743 165.076 105.447 165.959 105.155V105.743V106.036V106.231V106.329C165.959 106.329 165.959 106.426 165.861 106.426V106.524C165.666 106.622 165.369 106.622 165.174 106.719C154.276 109.659 143.379 112.596 132.481 115.435C120.896 118.57 109.31 121.604 97.7251 124.739C97.1352 124.934 96.4474 125.032 95.8604 125.23H95.6647C95.2734 125.425 94.977 125.23 94.8791 124.937V124.94Z" fill="#0D0C21"/>
    <path d="M164.682 105.841V92.1268C164.779 91.6359 165.272 91.4407 165.663 91.7364C166.054 91.9316 165.956 92.4225 165.956 92.7153V105.252V105.841V106.134C165.859 106.426 165.565 106.524 165.366 106.524C165.073 106.524 164.679 106.231 164.679 105.838L164.682 105.841Z" fill="#0D0C21"/>
    <path d="M94.8791 124.843C94.7813 124.059 94.8791 123.373 94.8791 122.589V111.717V111.129C94.8791 110.934 94.977 110.836 95.0748 110.738C95.4662 110.348 96.1539 110.738 96.1539 111.229V124.843C96.0561 125.135 95.7625 125.233 95.564 125.233C95.2705 125.233 94.9741 125.135 94.8762 124.843H94.8791Z" fill="#0D0C21"/>
    <path d="M94.8791 132.089V130.914C94.8791 130.914 94.977 130.817 94.977 130.719C94.977 130.719 94.977 130.622 95.0748 130.622C96.7438 130.231 98.4128 129.74 100.082 129.249C105.777 127.682 111.569 126.212 117.264 124.645C133.267 120.335 149.171 116.124 165.177 111.815C165.962 111.62 166.354 112.794 165.568 113.09C163.113 113.776 160.659 114.364 158.204 115.047C152.705 116.517 147.209 117.987 141.71 119.454C131.304 122.196 120.896 125.038 110.49 127.78C105.287 129.347 100.085 130.719 94.8791 132.089Z" fill="#0D0C21"/>
    <path d="M94.8791 145.312C94.6834 144.333 96.0561 144.43 96.646 144.137C97.4316 143.942 98.315 143.747 99.1006 143.451C109.115 140.807 119.227 138.066 129.241 135.419C140.533 132.381 151.822 129.347 163.211 126.31C164.095 126.114 165.076 125.819 165.959 125.526V126.114V126.407V126.602V126.7C165.959 126.7 165.959 126.798 165.861 126.798V126.895C165.666 126.993 165.369 126.993 165.174 127.09C154.276 130.03 143.379 132.967 132.481 135.806C120.896 138.941 109.31 141.976 97.7251 145.111C97.1352 145.306 96.4474 145.403 95.8604 145.602H95.6647C95.2734 145.797 94.977 145.602 94.8791 145.309V145.312Z" fill="#0D0C21"/>
    <path d="M164.682 126.212V112.498C164.779 112.007 165.272 111.812 165.663 112.108C166.054 112.303 165.956 112.794 165.956 113.087V125.624V126.212V126.505C165.859 126.798 165.565 126.895 165.366 126.895C165.073 126.895 164.679 126.602 164.679 126.209L164.682 126.212Z" fill="#0D0C21"/>
    <path d="M94.8791 145.214C94.7813 144.43 94.8791 143.744 94.8791 142.96V132.089V131.5C94.8791 131.305 94.977 131.207 95.0748 131.11C95.4662 130.719 96.1539 131.11 96.1539 131.601V145.214C96.0561 145.507 95.7625 145.604 95.564 145.604C95.2705 145.604 94.9741 145.507 94.8762 145.214H94.8791Z" fill="#0D0C21"/>
    <path d="M94.8791 153.737V152.563C94.8791 152.563 94.977 152.466 94.977 152.368C94.977 152.368 94.977 152.27 95.0748 152.27C96.7438 151.88 98.4128 151.389 100.082 150.898C105.777 149.331 111.569 147.861 117.264 146.293C133.267 141.984 149.171 137.773 165.177 133.464C165.962 133.268 166.354 134.443 165.568 134.738C163.113 135.424 160.659 136.013 158.204 136.696C152.705 138.166 147.209 139.636 141.71 141.103C131.304 143.845 120.896 146.687 110.49 149.428C105.287 150.996 100.085 152.368 94.8791 153.737Z" fill="#0D0C21"/>
    <path d="M94.8791 166.958C94.6834 165.979 96.0561 166.076 96.646 165.783C97.4316 165.588 98.315 165.393 99.1006 165.097C109.115 162.453 119.227 159.712 129.241 157.065C140.533 154.027 151.822 150.993 163.211 147.956C164.095 147.76 165.076 147.465 165.959 147.172V147.76V148.053V148.248V148.346C165.959 148.346 165.959 148.444 165.861 148.444V148.541C165.666 148.639 165.369 148.639 165.174 148.736C154.276 151.676 143.379 154.613 132.481 157.452C120.896 160.587 109.31 163.622 97.7251 166.757C97.1352 166.952 96.4474 167.049 95.8604 167.248H95.6647C95.2734 167.443 94.977 167.248 94.8791 166.955V166.958Z" fill="#0D0C21"/>
    <path d="M164.682 147.959V134.245C164.779 133.754 165.272 133.558 165.663 133.854C166.054 134.049 165.956 134.54 165.956 134.833V147.37V147.959V148.251C165.859 148.544 165.565 148.642 165.366 148.642C165.073 148.544 164.679 148.349 164.679 147.956L164.682 147.959Z" fill="#0D0C21"/>
    <path d="M94.8791 166.86C94.7813 166.076 94.8791 165.39 94.8791 164.606V153.735V153.146C94.8791 152.951 94.977 152.853 95.0748 152.756C95.4662 152.365 96.1539 152.756 96.1539 153.247V166.86C96.0561 167.153 95.7625 167.25 95.564 167.25C95.2705 167.25 94.9741 167.153 94.8762 166.86H94.8791Z" fill="#0D0C21"/>
    <path d="M105.089 117.399C104.698 117.106 104.303 116.81 103.912 116.517H104.108C104.303 116.517 104.698 116.517 104.991 116.42C105.187 116.42 105.285 116.322 105.483 116.224C105.581 116.127 105.679 115.932 105.679 115.734C105.679 115.535 105.581 115.441 105.483 115.243C105.385 115.145 105.19 115.047 104.991 115.047H104.893C104.6 115.047 104.303 115.047 104.01 115.145H103.814C104.01 114.852 104.306 114.557 104.502 114.264C104.698 114.068 104.698 113.873 104.698 113.675C104.502 113.087 103.716 113.087 103.42 113.578C103.224 113.773 103.126 113.968 102.928 114.166V113.187C102.928 112.797 102.634 112.599 102.24 112.599C101.846 112.599 101.552 112.891 101.65 113.285C101.65 113.776 101.65 114.264 101.748 114.852C101.357 114.657 101.06 114.361 100.767 114.068C100.473 113.873 100.177 113.48 99.7855 113.678C99.492 113.776 99.1956 114.169 99.2935 114.462C99.3913 114.657 99.4891 114.852 99.6848 114.953C100.076 115.343 100.47 115.639 100.962 115.932C100.865 115.932 100.669 116.029 100.571 116.029C100.375 116.029 100.079 116.127 99.8834 116.224C99.7855 116.224 99.6877 116.224 99.6877 116.322C99.5898 116.322 99.492 116.322 99.492 116.42C99.3942 116.42 99.2963 116.517 99.2963 116.615C99.2963 116.713 99.1985 116.713 99.1985 116.81C99.1985 117.005 99.1985 117.201 99.3942 117.399H99.492C99.5898 117.399 99.6877 117.496 99.7855 117.496H100.278C100.473 117.496 100.669 117.399 100.77 117.399C100.672 117.594 100.574 117.691 100.476 117.789C100.183 118.179 99.8862 118.67 100.183 119.064C100.378 119.555 101.262 119.259 101.36 118.771C101.555 118.478 101.751 118.182 102.047 117.89V119.164C102.047 119.555 102.341 119.753 102.735 119.753C103.126 119.753 103.423 119.46 103.325 119.067C103.325 118.576 103.325 118.088 103.227 117.694C103.817 118.085 104.404 118.478 105.092 118.771C105.483 118.771 105.78 117.694 105.092 117.399H105.089Z" fill="#0D0C21"/>
    <path d="M115.889 114.556C115.497 114.264 115.103 113.968 114.712 113.675H114.907C115.103 113.675 115.497 113.675 115.791 113.577C115.987 113.577 116.084 113.48 116.283 113.382C116.381 113.285 116.479 113.089 116.479 112.891C116.479 112.693 116.381 112.598 116.283 112.4C116.185 112.303 115.989 112.205 115.791 112.205H115.693C115.399 112.205 115.103 112.205 114.81 112.303H114.614C114.81 112.01 115.106 111.714 115.302 111.421C115.497 111.226 115.497 111.031 115.497 110.833C115.302 110.244 114.516 110.244 114.22 110.735C114.024 110.931 113.926 111.126 113.728 111.324V110.345C113.728 109.954 113.434 109.756 113.04 109.756C112.646 109.756 112.352 110.049 112.45 110.442C112.45 110.933 112.45 111.421 112.548 112.01C112.156 111.815 111.86 111.519 111.566 111.226C111.273 111.031 110.977 110.638 110.585 110.836C110.292 110.933 109.995 111.327 110.093 111.62C110.191 111.815 110.289 112.01 110.484 112.11C110.876 112.501 111.27 112.797 111.762 113.089C111.664 113.089 111.469 113.187 111.371 113.187C111.175 113.187 110.879 113.285 110.683 113.382C110.585 113.382 110.487 113.382 110.487 113.48C110.39 113.48 110.292 113.48 110.292 113.577C110.194 113.577 110.096 113.675 110.096 113.773C110.096 113.87 109.998 113.87 109.998 113.968C109.998 114.163 109.998 114.358 110.194 114.556H110.292C110.39 114.556 110.487 114.654 110.585 114.654H111.077C111.273 114.654 111.469 114.556 111.569 114.556C111.472 114.654 111.374 114.849 111.276 114.947C110.982 115.337 110.686 115.828 110.982 116.221C111.178 116.712 112.061 116.417 112.159 115.929C112.355 115.636 112.551 115.34 112.847 115.047V116.322C112.847 116.712 113.141 116.91 113.535 116.91C113.926 116.91 114.223 116.618 114.125 116.224C114.125 115.733 114.125 115.245 114.027 114.852C114.617 115.242 115.204 115.636 115.892 115.929C116.384 115.929 116.677 114.852 115.892 114.556H115.889Z" fill="#0D0C21"/>
    <path d="M126.786 111.717C126.395 111.424 126.001 111.129 125.609 110.836H125.805C126.001 110.836 126.395 110.836 126.688 110.738C126.884 110.738 126.982 110.641 127.18 110.543C127.278 110.445 127.376 110.25 127.376 110.052C127.376 109.854 127.278 109.759 127.18 109.561C127.083 109.464 126.887 109.366 126.688 109.366H126.591C126.297 109.366 126.001 109.366 125.707 109.464H125.511C125.707 109.171 126.004 108.875 126.199 108.582C126.395 108.387 126.395 108.192 126.395 107.994C126.199 107.405 125.414 107.405 125.117 107.896C124.922 108.091 124.824 108.287 124.625 108.485V107.506C124.625 107.115 124.332 106.917 123.937 106.917C123.543 106.917 123.25 107.21 123.347 107.603C123.347 108.094 123.347 108.582 123.445 109.171C123.054 108.976 122.758 108.68 122.464 108.387C122.171 108.192 121.874 107.799 121.483 107.997C121.189 108.094 120.893 108.488 120.991 108.78C121.089 108.976 121.186 109.171 121.382 109.271C121.773 109.662 122.168 109.957 122.66 110.25C122.562 110.25 122.366 110.348 122.268 110.348C122.073 110.348 121.776 110.445 121.581 110.543C121.483 110.543 121.385 110.543 121.385 110.641C121.287 110.641 121.189 110.641 121.189 110.738C121.091 110.738 120.994 110.836 120.994 110.934C120.994 111.031 120.896 111.031 120.896 111.129C120.896 111.324 120.896 111.519 121.091 111.717H121.189C121.287 111.717 121.385 111.815 121.483 111.815H121.975C122.171 111.815 122.366 111.717 122.467 111.717C122.369 111.815 122.271 112.01 122.173 112.108C121.88 112.498 121.583 112.989 121.88 113.382C122.076 113.873 122.959 113.578 123.057 113.089C123.253 112.797 123.448 112.501 123.745 112.208V113.483C123.745 113.873 124.038 114.071 124.432 114.071C124.824 114.071 125.12 113.778 125.022 113.385C125.022 112.894 125.022 112.406 124.924 112.013C125.514 112.403 126.101 112.797 126.789 113.089C127.281 113.089 127.477 112.013 126.789 111.717H126.786Z" fill="#0D0C21"/>
    <path d="M105.089 137.575C104.698 137.282 104.303 136.986 103.912 136.693H104.108C104.303 136.693 104.698 136.693 104.991 136.596C105.187 136.596 105.285 136.498 105.483 136.401C105.581 136.303 105.679 136.108 105.679 135.91C105.679 135.712 105.581 135.617 105.483 135.419C105.385 135.321 105.19 135.223 104.991 135.223H104.893C104.6 135.223 104.303 135.223 104.01 135.321H103.814C104.01 135.028 104.306 134.733 104.502 134.44C104.698 134.245 104.698 134.049 104.698 133.851C104.502 133.263 103.716 133.263 103.42 133.754C103.224 133.949 103.126 134.144 102.928 134.342V133.363C102.928 132.973 102.634 132.775 102.24 132.775C101.846 132.775 101.552 133.067 101.65 133.461C101.65 133.952 101.65 134.44 101.748 135.028C101.357 134.833 101.06 134.537 100.767 134.245C100.473 134.049 100.177 133.656 99.7855 133.854C99.492 133.952 99.1956 134.345 99.2935 134.638C99.3913 134.833 99.4891 135.028 99.6848 135.129C100.076 135.519 100.47 135.815 100.962 136.108C100.865 136.108 100.669 136.205 100.571 136.205C100.375 136.205 100.079 136.303 99.8834 136.401C99.7855 136.401 99.6877 136.401 99.6877 136.498C99.5898 136.498 99.492 136.498 99.492 136.596C99.3942 136.596 99.2963 136.693 99.2963 136.791C99.2963 136.889 99.1985 136.889 99.1985 136.986C99.1985 137.181 99.1985 137.377 99.3942 137.575H99.492C99.5898 137.575 99.6877 137.672 99.7855 137.672H100.278C100.473 137.672 100.669 137.575 100.77 137.575C100.672 137.77 100.574 137.867 100.476 137.965C100.183 138.356 99.8862 138.846 100.183 139.24C100.378 139.731 101.262 139.435 101.36 138.947C101.555 138.654 101.751 138.358 102.047 138.066V139.34C102.047 139.731 102.341 139.929 102.735 139.929C103.126 139.929 103.423 139.636 103.325 139.243C103.325 138.752 103.325 138.264 103.227 137.87C103.817 138.261 104.404 138.654 105.092 138.947C105.483 138.947 105.78 137.773 105.092 137.575H105.089Z" fill="#0D0C21"/>
    <path d="M115.889 134.735C115.497 134.443 115.103 134.147 114.712 133.854H114.907C115.103 133.854 115.497 133.854 115.791 133.756C115.987 133.756 116.084 133.659 116.283 133.561C116.381 133.464 116.479 133.268 116.479 133.07C116.479 132.872 116.381 132.778 116.283 132.579C116.185 132.482 115.989 132.384 115.791 132.384H115.693C115.399 132.384 115.103 132.384 114.81 132.482H114.614C114.81 132.189 115.106 131.893 115.302 131.6C115.497 131.405 115.497 131.21 115.497 131.012C115.302 130.423 114.516 130.423 114.22 130.914C114.024 131.11 113.926 131.305 113.728 131.503V130.524C113.728 130.134 113.434 129.935 113.04 129.935C112.646 129.935 112.352 130.228 112.45 130.622C112.45 131.112 112.45 131.6 112.548 132.189C112.156 131.994 111.86 131.698 111.566 131.405C111.273 131.21 110.977 130.817 110.585 131.015C110.292 131.112 109.995 131.506 110.093 131.799C110.191 131.994 110.289 132.189 110.484 132.289C110.876 132.68 111.27 132.976 111.762 133.268C111.664 133.268 111.469 133.366 111.371 133.366C111.175 133.366 110.879 133.464 110.683 133.561C110.585 133.561 110.487 133.561 110.487 133.659C110.39 133.659 110.292 133.659 110.292 133.756C110.194 133.756 110.096 133.854 110.096 133.952C110.096 134.049 109.998 134.049 109.998 134.147C109.998 134.342 109.998 134.537 110.194 134.735H110.292C110.39 134.735 110.487 134.833 110.585 134.833H111.077C111.273 134.833 111.469 134.735 111.569 134.735C111.472 134.931 111.374 135.028 111.276 135.126C110.982 135.516 110.686 136.007 110.982 136.401C111.178 136.891 112.061 136.596 112.159 136.108C112.355 135.815 112.551 135.519 112.847 135.226V136.501C112.847 136.891 113.141 137.09 113.535 137.09C113.926 137.09 114.223 136.797 114.125 136.403C114.125 135.912 114.125 135.424 114.027 135.031C114.617 135.422 115.204 135.815 115.892 136.108C116.384 136.108 116.677 135.031 115.892 134.735H115.889Z" fill="#0D0C21"/>
    <path d="M126.786 131.893C126.395 131.601 126.001 131.305 125.609 131.012H125.805C126.001 131.012 126.395 131.012 126.688 130.914C126.884 130.914 126.982 130.817 127.18 130.719C127.278 130.622 127.376 130.426 127.376 130.228C127.376 130.03 127.278 129.936 127.18 129.737C127.083 129.64 126.887 129.542 126.688 129.542H126.591C126.297 129.542 126.001 129.542 125.707 129.64H125.511C125.707 129.347 126.004 129.051 126.199 128.758C126.395 128.563 126.395 128.368 126.395 128.17C126.199 127.581 125.414 127.581 125.117 128.072C124.922 128.268 124.824 128.463 124.625 128.661V127.682C124.625 127.291 124.332 127.093 123.937 127.093C123.543 127.093 123.25 127.386 123.347 127.78C123.347 128.27 123.347 128.758 123.445 129.347C123.054 129.152 122.758 128.856 122.464 128.563C122.171 128.368 121.874 127.975 121.483 128.173C121.189 128.27 120.893 128.664 120.991 128.957C121.089 129.152 121.186 129.347 121.382 129.447C121.773 129.838 122.168 130.134 122.66 130.426C122.562 130.426 122.366 130.524 122.268 130.524C122.073 130.524 121.776 130.622 121.581 130.719C121.483 130.719 121.385 130.719 121.385 130.817C121.287 130.817 121.189 130.817 121.189 130.914C121.091 130.914 120.994 131.012 120.994 131.11C120.994 131.207 120.896 131.207 120.896 131.305C120.896 131.5 120.896 131.695 121.091 131.893H121.189C121.287 131.893 121.385 131.991 121.483 131.991H121.975C122.171 131.991 122.366 131.893 122.467 131.893C122.369 132.089 122.271 132.186 122.173 132.284C121.88 132.674 121.583 133.165 121.88 133.558C122.076 134.049 122.959 133.754 123.057 133.266C123.253 132.973 123.448 132.677 123.745 132.384V133.659C123.745 134.049 124.038 134.247 124.432 134.247C124.824 134.247 125.12 133.955 125.022 133.561C125.022 133.07 125.022 132.582 124.924 132.189C125.514 132.58 126.101 132.973 126.789 133.266C127.281 133.266 127.477 132.189 126.789 131.893H126.786Z" fill="#0D0C21"/>
    <path d="M138.075 129.054C137.684 128.761 137.29 128.466 136.898 128.173H137.094C137.29 128.173 137.684 128.173 137.977 128.075C138.173 128.075 138.271 127.978 138.469 127.88C138.567 127.782 138.665 127.587 138.665 127.389C138.665 127.191 138.567 127.096 138.469 126.898C138.372 126.801 138.176 126.703 137.977 126.703H137.879C137.586 126.703 137.29 126.703 136.996 126.801H136.8C136.996 126.508 137.292 126.212 137.488 125.919C137.684 125.724 137.684 125.529 137.684 125.331C137.488 124.742 136.703 124.742 136.406 125.233C136.21 125.428 136.113 125.624 135.914 125.822V124.843C135.914 124.452 135.621 124.254 135.226 124.254C134.832 124.254 134.539 124.547 134.636 124.94C134.636 125.431 134.636 125.919 134.734 126.508C134.343 126.313 134.046 126.017 133.753 125.724C133.459 125.529 133.163 125.135 132.772 125.334C132.478 125.431 132.182 125.824 132.28 126.117C132.377 126.313 132.475 126.508 132.671 126.608C133.062 126.999 133.457 127.294 133.949 127.587C133.851 127.587 133.655 127.685 133.557 127.685C133.362 127.685 133.065 127.782 132.87 127.88C132.772 127.88 132.674 127.88 132.674 127.978C132.576 127.978 132.478 127.978 132.478 128.075C132.38 128.075 132.282 128.173 132.282 128.27C132.282 128.368 132.185 128.368 132.185 128.466C132.185 128.661 132.185 128.856 132.38 129.054H132.478C132.576 129.054 132.674 129.152 132.772 129.152H133.264C133.459 129.152 133.655 129.054 133.756 129.054C133.658 129.249 133.56 129.347 133.462 129.445C133.169 129.835 132.872 130.326 133.169 130.719C133.364 131.21 134.248 130.914 134.346 130.426C134.541 130.134 134.737 129.838 135.034 129.545V130.719C135.034 131.11 135.327 131.308 135.721 131.308C136.113 131.308 136.409 131.015 136.311 130.622C136.311 130.131 136.311 129.643 136.213 129.249C136.803 129.64 137.39 130.033 138.078 130.326C138.57 130.424 138.864 129.347 138.078 129.051L138.075 129.054Z" fill="#0D0C21"/>
    <path d="M151.134 125.626C150.742 125.333 150.348 125.038 149.957 124.745H150.153C150.348 124.745 150.742 124.745 151.036 124.647C151.232 124.647 151.329 124.55 151.528 124.452C151.626 124.355 151.724 124.159 151.724 123.961C151.724 123.763 151.626 123.668 151.528 123.47C151.43 123.373 151.235 123.275 151.036 123.275H150.938C150.645 123.275 150.348 123.275 150.055 123.373H149.859C150.055 123.08 150.351 122.784 150.547 122.491C150.742 122.296 150.742 122.101 150.742 121.903C150.547 121.314 149.761 121.314 149.465 121.805C149.269 122 149.171 122.196 148.973 122.394V121.415C148.973 121.024 148.679 120.826 148.285 120.826C147.891 120.826 147.597 121.119 147.695 121.512C147.695 122.003 147.695 122.491 147.793 123.08C147.402 122.885 147.105 122.589 146.812 122.296C146.518 122.101 146.222 121.708 145.83 121.906C145.537 122.003 145.24 122.397 145.338 122.689C145.436 122.885 145.534 123.08 145.73 123.18C146.121 123.571 146.515 123.866 147.007 124.159C146.909 124.159 146.714 124.257 146.616 124.257C146.42 124.257 146.124 124.355 145.928 124.452C145.83 124.452 145.733 124.452 145.733 124.55C145.635 124.55 145.537 124.55 145.537 124.647C145.439 124.647 145.341 124.745 145.341 124.843C145.341 124.94 145.243 124.94 145.243 125.038C145.243 125.233 145.243 125.428 145.439 125.626H145.537C145.635 125.626 145.733 125.724 145.83 125.724H146.322C146.518 125.724 146.714 125.626 146.815 125.626C146.717 125.822 146.619 125.919 146.521 126.017C146.227 126.407 145.931 126.898 146.227 127.291C146.423 127.782 147.307 127.487 147.404 126.999C147.6 126.706 147.796 126.41 148.092 126.117V127.291C148.092 127.682 148.386 127.88 148.78 127.88C149.171 127.88 149.468 127.587 149.37 127.194C149.37 126.703 149.37 126.215 149.272 125.822C149.862 126.212 150.449 126.605 151.137 126.898C151.629 126.996 151.824 125.919 151.137 125.623L151.134 125.626Z" fill="#0D0C21"/>
    <path d="M65.7202 31.7935C65.6223 31.6959 65.7202 31.6959 65.7202 31.7935C65.6549 31.7935 65.6549 31.7935 65.7202 31.7935C65.7202 31.8912 65.6223 31.7935 65.7202 31.7935Z" fill="#0D0C21"/>
    <path d="M184.612 19.0586V8.57728C184.612 6.52177 184.612 4.36579 184.416 2.30741C184.416 2.01459 184.416 1.8165 184.319 1.52367C184.416 1.32846 184.416 1.23085 184.416 1.03276C184.123 0.249031 183.337 0.642331 182.747 0.837546C181.47 1.22798 180.195 1.52367 178.819 1.8165C146.814 10.3371 114.807 18.9582 82.8017 27.4788C80.2291 28.1993 74.9257 29.6319 73.1243 30.1084C72.7531 30.206 72.4941 30.5419 72.4941 30.9266C72.4941 39.9209 72.5891 139.802 72.4941 188.698C72.4941 188.894 72.5919 189.189 72.7876 189.287V189.482C72.8854 189.973 73.3775 190.071 73.7689 189.872C78.5803 188.598 83.2909 187.326 88.1023 186.051C119.126 177.726 150.052 169.498 181.078 161.173C181.962 160.978 182.747 160.682 183.631 160.487C184.022 160.487 184.416 160.096 184.319 159.605V159.508C184.514 159.41 184.612 159.215 184.612 159.017V150.399C184.612 106.616 184.808 62.8358 184.612 19.0529V19.0586ZM183.435 159.123V159.318C183.239 159.416 182.943 159.416 182.747 159.514C181.47 159.709 180.195 160.102 178.917 160.395C146.912 168.915 114.905 177.537 82.8996 186.057C79.8551 186.841 76.9112 187.625 73.8667 188.506V180.083C73.7689 136.398 73.9646 92.8129 73.8667 49.2252C75.2422 48.8348 76.6149 48.4415 78.0882 48.1487C79.8551 47.6578 81.5241 47.2673 83.2909 46.7764C116.671 37.8625 150.15 28.9515 183.53 19.94C183.334 66.2693 183.53 112.696 183.432 159.123H183.435ZM183.729 2.80119C183.729 3.68253 183.631 4.56387 183.631 5.44521C183.631 9.75432 183.631 14.0634 183.533 18.3754C182.747 18.5706 181.962 18.7658 181.176 18.9639C148.386 27.7802 115.592 36.496 82.8017 45.3123C81.1327 45.7027 79.5615 46.1936 77.9904 46.587C76.6149 46.9774 75.3401 47.2731 73.9646 47.6635V38.164C73.9646 36.1084 73.9646 33.9525 73.7689 31.8941V31.3687C73.8092 31.3745 73.8753 31.3515 73.9646 31.3056C78.7759 30.0309 83.4866 28.7592 88.298 27.4845C119.322 19.1591 150.247 10.9314 181.274 2.60597C182.06 2.41076 182.943 2.21554 183.729 1.91985V2.80119Z" fill="#0D0C21"/>
    <path d="M78.6781 35.5142C77.4005 37.7678 79.0695 40.7047 81.6248 40.8023C84.2751 40.9975 86.2405 38.1583 85.1585 35.8071C83.9816 33.0654 80.0536 32.9678 78.6781 35.5142ZM81.8205 39.5305C80.0536 39.5305 78.8738 37.475 79.9558 36.0051C80.8392 34.5353 83.0982 34.6329 83.8838 36.2004C84.6693 37.6702 83.4924 39.5305 81.8234 39.5305H81.8205Z" fill="#0D0C21"/>
    <path d="M88.7901 33.0654C87.5124 35.319 89.1815 38.2558 91.7368 38.3534C94.3871 38.5486 96.3525 35.7094 95.2705 33.3582C94.0936 30.6166 90.1656 30.519 88.7901 33.0654ZM91.9325 37.0817C90.1656 37.0817 88.9858 35.0262 90.0678 33.5563C90.9512 32.0864 93.2101 32.184 93.9957 33.7515C94.7813 35.2214 93.6044 37.0817 91.9354 37.0817H91.9325Z" fill="#0D0C21"/>
    <path d="M99.2963 30.519C98.0186 32.7726 99.6877 35.7094 102.243 35.807C104.795 36.0023 106.758 33.0654 105.777 30.8118C104.6 28.0702 100.672 27.9726 99.2963 30.519ZM102.439 34.4377C100.574 34.5353 99.492 32.3822 100.574 30.9123C101.457 29.4424 103.716 29.54 104.502 31.1075C105.288 32.5774 104.111 34.4377 102.442 34.4377H102.439Z" fill="#0D0C21"/>
    <path d="M209.748 32.649C209.049 35.8241 198.37 38.9849 198.37 38.9849C197.38 39.4959 196.166 38.9792 195.852 37.9141C195.852 37.9141 192.514 30.2576 193.59 27.6911C194.836 24.7284 202.908 22.2853 206.189 23.4279C208.839 24.3495 209.993 31.5409 209.748 32.649Z" fill="white"/>
    <path d="M189.818 152.954C189.72 150.7 189.622 148.449 189.524 146.196C189.426 143.357 189.231 140.514 189.133 137.675C189.035 134.735 188.839 131.701 188.742 128.761C188.742 128.173 188.742 127.487 188.644 126.901C188.839 126.999 188.937 126.999 189.136 127.096C189.234 127.096 189.331 127.194 189.527 127.194H190.019C190.019 127.978 190.117 128.664 190.117 129.447C190.215 132.387 190.411 135.324 190.508 138.264C190.606 141.103 190.802 143.945 190.9 146.784C190.998 148.84 191.095 150.898 191.193 152.954C191.193 153.149 191.193 153.344 190.998 153.445C190.9 153.542 190.704 153.64 190.505 153.64C190.212 153.542 189.818 153.347 189.818 152.954Z" fill="#0D0C21"/>
    <path d="M263.842 46.9745C266.101 51.8721 263.252 57.3554 260.996 61.8626C258.443 65.9765 253.143 68.3277 251.767 73.1277C251.079 74.8904 248.527 72.5392 247.546 71.9535C244.7 70.0932 246.072 65.8817 243.914 63.7257C240.87 61.7678 240.87 66.1746 239.986 68.0348C238.024 69.209 239.396 62.1583 238.709 60.9841C238.021 58.5353 234.683 57.3611 232.424 58.5353C230.461 59.5142 226.041 59.2214 229.379 56.675C231.048 50.896 226.631 54.1286 223.391 53.8358C220.346 53.1496 219.662 54.8147 218.876 57.5563C218.974 58.0473 218.485 58.4377 217.993 58.3401C213.181 58.1449 209.55 53.4425 209.155 48.9381C209.941 38.6549 219.463 31.5036 229.379 29.6434C237.037 29.3505 241.946 29.4481 247.149 35.5199C249.799 39.2405 255.002 38.0663 258.44 40.0242C260.993 41.9821 263.545 43.452 263.839 46.9774L263.842 46.9745Z" fill="#0D0C21"/>
    <path d="M265.807 183.904C252.748 182.827 229.776 180.281 207.489 172.248C206.016 170.778 206.312 167.351 206.016 165.393C207.095 152.954 212.496 163.63 212.79 153.444V153.542C212.985 152.563 213.282 151.487 213.38 150.505V150.602C213.872 148.349 214.165 146.098 214.557 143.844V143.747C221.135 129.152 213.38 141.591 199.438 145.705C192.762 147.663 186.578 138.554 181.766 133.854C170.771 132.875 179.507 137.575 184.514 141.984C197.573 162.651 155.551 133.366 147.894 128.27C141.511 123.961 152.901 118.085 152.901 118.085C159.577 121.61 172.733 128.664 184.221 128.075C191.682 127.685 200.028 122.198 209.944 114.657C215.443 110.936 220.841 105.743 227.713 104.959C230.66 102.904 234.487 83.5084 237.727 91.9314C244.012 86.5457 253.925 79.785 255.105 81.45C256.97 82.6242 258.345 86.9362 259.819 91.8309C264.532 94.4749 269.442 97.8051 272.975 102.017C285.936 114.651 279.945 134.339 280.043 150.304C277.49 163.036 285.441 185.859 265.807 183.898V183.904Z" fill="#FED980"/>
    <path d="M212.102 154.911C212.102 154.911 190.405 139.633 182.552 134.735C180.391 133.363 174.894 133.952 174.894 133.952C175.386 134.833 178.037 136.498 180.687 138.947C181.864 139.926 183.732 142.866 184.025 139.731C183.829 141.887 186.284 142.179 187.167 143.747C189.622 142.277 191.095 144.628 193.452 145.903C199.245 149.428 204.545 159.126 211.909 158.342L212.105 154.914L212.102 154.911Z" fill="#0D0C21"/>
    <path d="M220.447 177.146C221.037 181.065 220.643 184.688 220.545 186.746C217.598 189.585 211.219 193.504 207.291 197.52C207.291 197.52 206.799 178.616 209.55 173.133C212.888 175.188 220.447 177.149 220.447 177.149V177.146Z" fill="white"/>
    <path d="M237.727 98.1037C241.163 99.1803 237.923 102.413 236.844 104.078C232.622 114.852 228.792 125.135 226.732 136.596C224.672 143.354 223.886 150.993 222.706 157.36C219.759 157.949 212.398 158.339 212.398 158.339C215.244 143.451 219.172 128.173 224.473 113.971C227.909 108.485 228.202 94.3803 237.727 98.1037Z" fill="white"/>
    <path d="M252.049 80.2674C254.699 83.0091 245.091 83.9995 243.126 87.034C241.359 87.8177 238.216 92.1268 237.431 91.0502C233.701 79.1995 228.202 98.9852 219.463 78.611C211.02 80.1784 218.873 71.2645 218.873 67.544C218.482 63.4301 218.185 59.4138 220.151 55.6932C220.643 55.1047 221.23 52.4607 222.211 53.9305C225.549 55.7908 232.913 49.6214 227.808 57.6511C227.022 60.6884 234.68 56.965 237.037 59.3162C239.983 61.5698 237.134 66.1717 240.081 68.4253C242.242 58.63 244.205 63.4301 245.972 70.3832C251.805 70.7995 252.046 80.2674 252.046 80.2674H252.049Z" fill="white"/>
    <path d="M188.247 147.565C188.344 147.76 188.442 147.858 188.442 147.956C188.442 147.858 188.344 147.663 188.247 147.565ZM208.47 158.339C205.722 163.627 206.016 166.958 205.82 170.583C200.321 165.097 198.163 165.198 189.423 153.442C188.247 151.874 181.47 139.045 184.71 139.63C185.789 141.1 186.969 143.744 187.262 144.037C190.307 139.825 204.64 157.455 208.468 158.336L208.47 158.339Z" fill="white"/>
    <path d="M126.591 119.75C126.591 119.75 126.591 119.652 126.493 119.652H126.395C126.46 119.652 126.525 119.685 126.591 119.75ZM151.134 117.203C151.525 117.399 152.017 117.694 152.017 118.182C151.822 118.966 151.232 119.457 150.84 120.14C150.153 121.217 149.663 122.394 149.171 123.568C148.78 124.352 148.581 125.331 148.386 126.212C148.288 126.8 147.994 127.487 147.209 127.191C146.915 127.093 146.619 126.8 146.227 126.7C145.344 126.602 144.461 126.993 143.577 126.895C142.596 126.895 141.713 126.505 140.829 126.209C139.652 125.819 138.668 125.133 137.687 124.446C136.116 123.37 134.349 122.488 132.484 122.29C131.796 122.193 131.206 122.095 130.521 122.095C129.244 122.095 127.871 121.998 126.691 121.311C125.906 120.821 124.827 120.037 125.218 119.058C125.511 118.469 126.297 118.469 126.789 118.765C127.379 118.57 128.067 118.57 128.752 118.667C129.342 118.667 129.831 118.765 130.421 118.96C130.519 118.96 130.616 119.058 130.714 119.155C131.891 119.253 133.071 119.253 134.248 119.155C133.071 118.177 131.695 117.686 130.418 116.999C129.437 116.609 128.455 116.313 127.471 115.923C126.686 115.63 126.193 114.944 125.704 114.355C125.411 113.965 124.919 113.181 125.509 112.788C126.099 112.398 126.786 113.081 127.373 113.279C128.159 113.669 129.042 114.16 129.828 114.554C130.418 114.846 131.005 115.044 131.595 115.24C132.674 115.435 133.859 115.096 134.941 115.096C132.683 113.626 130.124 113.084 127.768 111.809C127.178 111.419 126.591 110.928 126.49 110.242C126.392 109.165 127.275 108.674 128.257 108.967C129.828 109.458 131.399 109.848 132.872 110.632C134.15 111.318 135.235 112.024 136.412 112.906C135.235 111.631 133.756 110.928 132.478 109.751C131.888 109.162 131.301 108.476 130.711 107.89C130.219 107.399 129.14 106.616 130.121 106.03C130.614 105.835 131.005 106.323 131.399 106.323C131.891 106.42 132.38 106.518 132.97 106.616C133.56 106.811 134.147 107.006 134.835 107.006C134.541 106.418 134.343 105.439 135.226 105.341C135.422 105.341 135.618 105.439 135.816 105.536C136.308 105.927 136.895 106.222 137.387 106.613C139.549 107.985 141.511 109.452 143.376 111.02C143.966 111.41 144.553 111.999 145.143 112.489C146.714 113.764 148.285 115.036 149.856 116.21C150.348 116.6 150.642 116.896 151.134 117.189V117.203Z" fill="white"/>
    <path d="M221.331 167.058H221.526C221.428 167.156 221.428 167.058 221.331 167.058Z" fill="#0D0C21"/>
    <path d="M195.118 147.077C194.923 146.882 194.923 146.784 195.118 146.687L195.216 146.784L195.412 146.979L195.51 147.077C195.51 147.077 195.608 147.175 195.705 147.175H195.51C195.314 147.077 195.216 147.077 195.118 147.077Z" fill="#0D0C21"/>
    <path d="M197.179 145.802C197.179 145.802 197.277 145.802 197.277 145.9C197.179 145.9 197.179 145.802 197.179 145.802Z" fill="#0D0C21"/>
    <path d="M206.114 16.5122C206.114 16.5122 206.114 16.6098 206.212 16.6098L206.114 16.5122Z" fill="#0D0C21"/>
    <path d="M203.561 29.7352C203.366 28.8538 202.776 28.3629 201.599 28.3629C199.438 28.3629 199.242 31.6931 201.207 32.184C200.914 34.6328 204.448 33.5562 203.17 31.5955C203.561 31.1045 203.76 30.4213 203.561 29.7352Z" fill="#0D0C21"/>
    <path d="M208.764 26.3073C208.272 24.5447 207.388 21.6049 205.132 21.9982C202.186 22.1935 199.242 23.5657 196.396 24.5447C195.513 21.0193 193.844 17.5915 193.746 13.8681C194.039 11.1264 197.182 8.87285 199.93 9.55898C201.697 10.1475 202.482 12.0078 203.17 13.6729C203.561 14.2614 203.366 15.8288 204.448 15.6308C204.839 15.5332 205.037 15.1399 204.94 14.847C203.861 7.40299 195.613 5.6403 192.764 12.7915C192.373 14.0662 192.764 15.4355 193.156 16.6126C193.746 19.4518 194.433 22.2939 195.317 25.0356C192.37 26.4078 192.471 27.9753 193.354 31.5983C194.238 33.7543 194.14 38.7495 196.79 39.3351C199.343 39.7256 201.699 38.0605 203.958 37.1791C210.537 34.4375 211.42 33.2605 208.77 26.3073H208.764ZM205.132 35.1236C203.268 36.005 196.983 40.3141 195.904 36.6911C195.216 34.1447 192.762 28.8566 194.431 27.2892C196.393 25.3313 200.321 24.4499 203.069 23.7638C205.032 23.2729 206.212 22.9801 206.997 25.4289C207.685 27.3868 208.275 28.9542 208.666 30.7169C209.452 33.5562 207.291 34.2423 205.132 35.1236Z" fill="#0D0C21"/>
    <path d="M191.78 20.4308C191.682 20.3332 191.585 20.2356 191.487 20.0403C191.291 19.3542 191.095 18.6681 191.095 17.9848C190.9 16.8107 190.506 15.6336 190.998 14.4595C191.095 14.1666 191.49 14.069 191.587 14.3619C191.685 14.6547 191.587 15.048 191.685 15.3408C191.783 16.0269 191.979 16.7131 192.177 17.2987C192.373 18.0824 192.471 18.8662 192.767 19.6499C192.767 20.2384 192.177 20.7265 191.786 20.4337L191.78 20.4308Z" fill="#0D0C21"/>
    <path d="M196.393 43.5466C194.036 43.3514 192.269 41.6864 191.777 39.4328C191.582 38.4538 191.386 37.3773 191.68 36.3954C191.777 36.2002 191.973 36.2002 192.071 36.3954C192.267 36.7859 192.267 37.2768 192.364 37.6701C192.56 38.2586 192.658 38.8442 192.856 39.3352C193.248 40.4117 193.936 41.3907 195.018 41.8816C195.51 42.1744 196.097 42.1744 196.687 42.3725C197.374 42.4701 197.179 43.5466 196.393 43.5466Z" fill="#0D0C21"/>
    <path d="M192.468 44.6233C192.077 44.5257 191.682 44.2329 191.291 43.9372C190.701 43.5467 190.212 42.9582 189.916 42.2721C189.72 41.6836 189.424 41.0979 189.524 40.5094C189.622 40.2166 190.016 40.119 190.212 40.4118C190.505 41.0003 190.704 41.586 190.998 42.0769C191.389 42.6654 192.077 43.0558 192.667 43.3515C193.55 43.7419 193.159 44.8214 192.471 44.6262L192.468 44.6233Z" fill="#0D0C21"/>
    <path d="M213.184 103.392C207.665 102.04 202.074 96.9267 204.151 90.8549C195.769 87.8061 191.006 77.4913 191.884 69.0051C191.904 68.8214 192.172 68.8243 192.189 69.0051C192.324 70.5181 192.566 72.9181 192.862 74.2042C194.364 80.7152 197.815 87.4645 204.448 89.7784C209.642 80.1956 217.101 95.1641 205.429 91.2483C203.944 94.587 206.05 98.4167 209.026 100.202C209.748 101.124 215.924 102.06 213.38 103.392C213.38 103.392 213.282 103.392 213.184 103.392ZM209.978 88.1104C208.773 86.6578 206.485 88.2971 205.717 90.0626C209.745 91.8368 211.754 90.2521 209.978 88.1104Z" fill="#0D0C21"/>
    <path d="M214.165 102.02C214.165 101.955 214.165 101.955 214.165 102.02C214.263 101.922 214.263 102.02 214.263 102.02C214.263 102.02 214.263 102.117 214.165 102.02Z" fill="#0D0C21"/>
    <path d="M228.499 60.3927C227.713 60.0998 226.928 59.9017 226.044 59.9017C224.473 59.9017 222.804 59.9017 221.529 60.7831C221.333 60.8807 221.138 60.9783 221.037 61.1735C220.841 61.4663 220.939 61.9573 221.331 62.1525C221.823 62.3477 222.116 61.8596 222.608 61.6615C224.375 61.073 226.438 60.9754 228.205 61.6615C228.597 61.7592 228.893 61.4663 228.991 61.073C229.089 60.7802 228.893 60.4845 228.499 60.3869V60.3927Z" fill="#0D0C21"/>
    <path d="M223.394 65.9764C222.608 66.1716 221.725 66.5649 221.135 67.2511C220.939 67.4463 220.744 67.9372 221.135 68.0348C221.526 68.1324 221.92 67.8396 222.214 67.742C222.902 67.4492 223.59 67.1535 224.277 67.0558C224.769 66.9582 225.259 66.9582 225.751 67.0558C226.044 67.1535 226.341 67.1535 226.536 67.0558C226.83 66.8606 226.928 66.3697 226.634 66.0769C225.848 65.3908 224.375 65.6865 223.394 65.9793V65.9764Z" fill="#0D0C21"/>
    <path d="M281.907 121.119C281.122 103.392 271.401 100.452 259.522 90.5593C258.541 87.4243 258.245 83.408 255.692 81.0597C255.301 80.276 253.632 80.6693 252.944 80.9621C252.452 79.4922 252.159 78.0224 251.667 76.5554C251.275 68.9161 263.643 64.3113 265.312 54.1257C266.786 46.3888 262.466 38.8472 254.415 37.6701C243.811 36.1027 247.934 27.2892 232.127 28.4634C223.782 28.9543 215.535 33.6538 210.922 40.7075C207.584 45.8003 207.193 52.9515 212.787 56.4769C214.358 57.5534 216.321 58.9257 218.286 58.4348C217.895 60.8836 217.993 63.3324 218.482 65.6836C218.482 69.3066 215.734 72.2463 215.046 75.7717C214.358 78.6109 216.027 80.276 218.876 79.1994C221.037 83.0205 222.902 89.0923 228.3 88.9947C230.461 88.7018 232.522 88.1133 234.585 87.1344C234.585 87.1344 234.585 87.232 234.683 87.232C234.781 87.5248 234.976 87.8205 235.074 88.1133C235.368 88.7018 235.664 89.1899 236.055 89.6808C235.563 89.6808 235.172 90.4645 234.778 90.7573C232.815 92.8129 230.948 95.655 230.752 98.5918C229.376 100.062 228.2 101.824 227.707 103.782C221.129 106.329 215.043 109.952 209.348 114.066C203.164 118.375 196.879 123.077 189.91 126.114C187.749 127.191 187.064 127.289 185.395 127.584C178.719 128.758 172.238 125.529 165.956 123.373C154.863 120.238 146.714 112.108 137.485 105.645C136.7 105.155 134.639 103.489 133.854 104.371C133.316 104.982 133.56 105.775 133.926 106.466C133.068 106.125 131.802 105.826 131.497 105.643C131.005 105.447 130.516 105.252 129.926 105.252C129.534 105.252 129.042 105.447 128.945 105.938C128.847 106.82 129.534 107.506 130.121 108.094C130.288 108.33 130.47 108.539 130.657 108.737C129.909 108.364 129.123 108.051 128.257 107.899C127.471 107.704 126.588 107.801 126.096 108.488C125.408 110.055 127.077 111.427 128.156 112.208C129.532 113.089 131.103 113.58 132.573 114.166C133.025 114.295 133.52 114.508 134 114.694C134.015 114.706 134.029 114.711 134.044 114.711C134.087 114.732 134.156 114.757 134.231 114.783C134.323 114.818 134.412 114.849 134.501 114.878C134.657 114.941 134.723 115.004 134.438 115.047C133.457 115.047 132.378 114.556 131.393 114.264C129.822 113.773 128.349 113.187 126.878 112.696C124.522 112.01 123.834 113.87 125.601 115.34C127.074 116.514 128.841 117.298 130.51 117.984C130.602 118.03 130.711 118.09 130.835 118.159C129.845 117.898 128.829 117.737 127.762 117.789C124.619 117.691 123.736 119.747 126.386 121.61C128.645 123.08 131.589 122.687 134.141 123.568C137.972 124.94 140.622 128.368 144.941 127.584C145.333 127.487 145.922 127.389 146.415 127.682C156.233 133.067 175.769 151.679 186.963 149.621C187.944 151.676 189.024 153.637 190.203 155.595L190.989 156.869C195.8 161.962 200.315 167.936 206.404 171.562C206.77 172.091 207.452 172.587 208.327 173.055C208.217 173.595 208.145 174.115 208.073 174.683C207.976 175.564 207.78 176.446 207.682 177.327C207.389 179.187 207.092 181.048 206.896 182.911C206.701 184.869 206.505 186.829 206.404 188.787C206.404 189.766 206.307 190.745 206.307 191.727V197.896C206.307 198.092 206.307 198.287 206.502 198.485C206.6 198.582 206.796 198.68 206.894 198.68C207 198.68 207.078 198.649 207.127 198.577C208.272 198.694 210.137 196.952 211.115 196.329C212.882 194.957 214.649 193.49 216.318 191.922C217.103 191.334 217.889 190.648 218.675 189.964C219.167 189.473 219.754 189.083 220.246 188.592C220.47 188.423 220.726 188.19 220.813 187.929C221.031 187.82 221.227 187.593 221.227 187.317C221.129 185.262 221.227 183.106 221.423 181.048C221.423 179.796 221.489 178.547 221.613 177.295C233.212 179.77 244.993 182.388 256.864 183.999C263.246 184.49 271.885 185.761 277.286 181.648C280.722 176.848 280.034 170.382 280.331 164.704C280.233 150.209 282.492 135.614 281.902 121.119H281.907ZM256.38 84.3899C257.166 86.3478 257.557 88.5037 258.245 90.5593C256.184 92.1267 253.828 93.2033 251.862 94.966C249.505 96.7287 247.347 99.4703 244.107 99.766C240.671 99.766 237.923 97.0243 234.585 96.3382C235.273 95.3593 236.058 94.4779 236.844 93.6942C241.065 88.699 246.467 84.3899 252.846 82.3315C255.301 81.2549 255.594 82.3315 256.38 84.387V84.3899ZM222.508 83.8013C224.177 83.7037 225.65 83.0176 227.023 81.9411C227.612 81.5506 229.575 79.297 227.808 79.5899C226.237 81.1573 224.274 82.2339 222.015 82.6272C221.23 81.3525 220.738 79.6875 219.757 78.5133C220.542 78.0224 221.132 77.141 222.113 77.3391C222.703 77.632 223.685 77.4367 223.391 76.653C221.722 74.9879 219.662 76.9458 218.482 78.2205C217.008 78.9066 215.636 78.5133 215.929 76.653C216.223 72.9324 219.267 69.7975 219.267 66.074C218.876 63.3324 218.677 60.4903 219.463 57.8463C219.854 56.3764 220.444 55.007 221.328 53.7324C223.29 55.3974 225.745 54.1228 227.906 53.7324C232.127 54.6137 221.82 59.3161 231.342 60.0022C232.127 60.0022 232.717 59.6118 233.503 59.3161C236.153 58.3372 238.608 61.0788 238.018 63.7228C237.92 65.2903 237.822 66.9554 238.608 68.3276C239.296 69.5018 240.668 69.3066 241.062 68.0348C241.848 65.2932 241.454 61.3745 244.401 65.9793C244.792 66.9582 244.99 70.8769 245.186 71.7583C245.088 78.2233 242.044 80.8674 237.135 84.4903C232.127 87.5277 226.041 90.5621 222.505 83.8042L222.508 83.8013ZM235.368 86.8387C239.296 84.7832 242.731 81.6482 245.088 78.0224C246.464 75.3784 246.953 71.9506 246.07 69.1085C245.874 67.7362 246.265 66.2692 245.48 64.9946C244.694 63.4271 242.337 61.1735 240.864 63.3295C240.176 64.6042 240.372 66.2692 239.883 67.6386C238.409 64.7994 240.864 61.9573 238.018 59.3132C236.153 57.3553 234.09 57.6482 231.733 58.6271C230.654 58.8223 229.279 58.7247 228.395 58.0386C229.181 56.6663 231.143 55.297 230.064 53.6319C228.591 51.3783 226.136 53.2415 224.174 53.4367C223.095 53.1438 221.621 51.9668 220.836 53.3391C219.659 54.5132 218.971 56.0807 218.675 57.7458C214.649 58.1362 209.837 52.9458 209.74 49.03C210.721 36.3955 225.054 29.049 236.737 29.9304C242.824 30.2232 244.691 33.651 248.616 37.1792C251.071 38.8443 254.115 38.8443 256.864 39.8232C263.931 42.0768 265.896 50.8903 263.148 57.0625C260.596 63.7228 253.33 67.1506 250.777 73.7133C250.582 73.4205 250.187 71.0693 249.894 71.853C249.894 75.0855 251.071 78.3181 251.856 81.453C246.849 83.9018 241.94 86.9391 238.012 90.9526C237.947 90.8875 237.882 90.8224 237.817 90.7573C237.031 89.3851 236.245 88.1133 235.362 86.8387H235.368ZM236.055 89.876C236.153 90.0712 236.251 90.1688 236.349 90.2664C236.545 90.6569 236.841 91.0502 237.135 91.343C237.232 91.4406 234.484 95.0636 233.304 97.122C232.714 97.3172 232.027 97.6129 231.44 98.0033C232.421 95.0636 234.484 92.4196 236.055 89.8731V89.876ZM228.692 104.371C229.477 101.629 231.342 98.8846 233.992 97.6129C235.759 98.0033 237.33 98.8875 238.999 99.5708C237.722 102.803 234.09 107.896 230.162 106.133C229.474 105.643 228.395 105.252 228.689 104.371H228.692ZM235.86 105.743C229.379 122.199 224.864 139.633 222.508 157.165C219.267 157.165 216.027 157.36 212.787 157.754C212.885 156.872 212.983 156.284 213.178 155.402C216.516 138.459 221.817 122.003 228.297 106.039C230.556 107.704 233.696 107.704 235.857 105.746L235.86 105.743ZM198.062 145.802C198.16 145.9 198.258 145.998 198.453 146.095C198.453 146.193 198.551 146.193 198.551 146.193C198.649 146.193 198.747 146.29 198.747 146.29C198.813 146.273 198.871 146.259 198.931 146.242C203.112 149.078 207.282 151.926 211.411 154.811C211.607 154.909 211.705 155.006 211.904 155.104C211.708 155.985 211.61 156.769 211.411 157.65C210.724 157.65 208.663 157.65 208.565 157.846C203.265 155.888 191.973 140.606 187.458 143.153C186.673 141.979 185.789 138.548 183.827 139.432C183.435 139.627 183.435 140.118 183.435 140.707C180.785 138.551 178.33 136.102 175.481 134.144C177.542 134.339 181.176 134.046 182.747 135.123C185.3 137.081 187.95 138.844 190.6 140.609C193.041 142.257 195.481 143.905 197.918 145.556C197.866 145.573 197.818 145.59 197.766 145.604C197.864 145.702 197.961 145.702 198.059 145.8L198.062 145.802ZM200.35 145.866C203.622 144.766 206.727 143.038 209.745 141.396C211.912 140.184 214.232 139.202 216.096 137.641C214.617 142.978 213.391 148.389 212.298 153.835C208.269 151.223 204.307 148.544 200.347 145.868L200.35 145.866ZM147.758 127.027C146.728 126.531 145.828 126.252 145.146 126.31C140.53 127.289 137.192 122.589 132.775 122C130.418 121.61 126.001 122.293 125.606 119.161C126.418 118.148 131.569 119.882 133.436 119.773C134.026 119.968 134.754 118.934 134.363 118.544C133.972 118.349 132.872 117.889 132.478 117.694C130.711 116.911 126.49 115.639 125.802 113.776C126.49 113.678 127.08 113.971 127.667 114.166C128.452 114.459 129.14 114.657 129.926 114.95C130.614 115.145 131.399 115.441 132.087 115.636C132.872 115.929 133.854 116.224 134.737 115.929C135.575 115.512 135.546 114.562 135.034 114.169C135.034 114.169 135.034 114.169 135.034 114.166C135.034 114.166 135.031 114.166 135.028 114.166C134.941 114.1 134.841 114.048 134.729 114.02C134.729 114.02 134.723 114.02 134.72 114.02C133.822 113.598 132.861 113.244 131.891 112.891C130.516 112.303 127.08 110.933 127.08 109.07C127.275 108.973 127.572 108.973 127.768 108.973C128.455 109.168 129.143 109.266 129.828 109.561C131.106 110.247 132.38 110.836 133.756 111.422C133.848 111.462 133.94 111.502 134.035 111.539C134.754 112.111 135.497 112.656 136.308 113.087C136.898 113.282 137.29 112.596 136.8 112.205C136.113 111.422 135.229 111.031 134.444 110.345C132.97 109.171 131.301 107.994 130.124 106.426C130.91 106.426 131.598 106.719 132.383 106.817C133.057 106.911 133.635 107.009 134.303 107.104C135.787 109.69 138.495 111.149 140.728 112.986C141.022 113.181 141.318 113.084 141.514 112.889C142.006 112.007 139.943 111.126 139.454 110.44C137.785 108.97 135.92 107.796 135.036 105.64C141.039 109.199 146.118 114.063 151.842 118.056C151.836 118.065 151.83 118.073 151.824 118.079C150.155 120.333 148.682 122.684 148.095 125.425C148.095 125.781 147.882 126.43 147.761 127.024L147.758 127.027ZM161.64 136.791C158.886 135.157 152.858 129.809 148.564 127.446C148.702 127.036 148.838 126.625 148.976 126.215C149.566 123.961 150.645 122.003 152.02 120.143C152.302 119.672 152.587 119.207 152.955 118.822C153.327 119.069 153.704 119.316 154.081 119.555C161.836 123.376 177.74 130.622 186.085 128.566C201.697 124.062 212.79 110.936 227.811 104.862V105.057C224.571 112.01 221.921 119.161 219.662 126.41C218.513 129.574 217.489 132.772 216.56 136.001C216.367 135.924 216.137 135.935 215.932 136.108C215.342 136.696 214.655 137.087 214.067 137.48C212.398 138.755 210.436 139.535 208.568 140.615C205.622 142.182 202.776 143.847 199.731 144.924C199.55 144.976 199.377 145.033 199.205 145.096C193.901 141.508 188.595 137.936 183.139 134.543C181.274 132.78 177.64 132.976 175.185 133.073C171.847 133.662 178.23 137.187 178.914 138.264C180.486 139.538 182.057 140.908 183.824 141.887C184.609 144.531 185.786 147.077 186.376 148.449C179.11 149.526 167.723 140.712 161.634 136.794L161.64 136.791ZM205.82 170.092C203.366 168.33 201.305 166.076 199.144 163.923C196.298 160.788 193.254 157.754 190.701 154.424C188.051 149.919 185.401 145.217 184.319 140.124C184.811 139.929 186.183 142.67 186.969 143.552C185.89 146.098 188.834 147.861 190.405 149.428C191.582 150.407 199.043 158.245 194.626 152.563C192.563 150.017 189.717 148.254 187.754 145.61C187.165 144.436 187.559 143.357 188.931 143.847C195.999 147.568 200.615 155.012 207.783 158.54C205.622 161.87 204.738 166.277 205.82 170.098V170.092ZM220.056 181.148C219.869 183.215 219.771 185.282 219.765 187.349C219.63 187.449 219.5 187.582 219.368 187.711C219.075 188.004 218.778 188.299 218.387 188.592C216.718 189.964 215.244 191.334 213.575 192.804C211.906 194.273 210.042 195.743 208.275 197.113C208.033 197.294 207.754 197.437 207.483 197.566C207.489 197.48 207.489 197.394 207.489 197.308V190.745C207.587 189.864 207.587 188.885 207.685 187.906C207.783 186.143 207.978 184.381 208.177 182.618C208.275 181.834 208.373 180.953 208.471 180.169C208.666 179.288 208.764 178.406 208.862 177.623C208.96 176.644 209.058 175.567 209.253 174.585C209.308 174.252 209.365 173.919 209.42 173.586C212.819 175.085 217.926 176.233 220.3 177.003C220.197 178.355 220.053 179.715 220.053 181.148H220.056ZM273.957 182.141C259.427 186.06 235.863 178.32 220.646 175.774H220.45C216.818 174.892 213.184 173.718 209.65 172.444C209.259 172.444 208.865 172.151 208.473 172.053C208.376 172.053 208.278 172.053 208.278 171.956C205.233 169.409 206.511 160.986 208.868 159.126C209.063 159.028 215.642 158.736 216.919 158.635C218.98 158.635 221.043 158.44 223.103 158.44C223.889 158.44 224.577 158.44 225.362 158.342C234.884 158.635 244.605 159.812 254.029 158.342C255.992 157.952 254.815 153.445 254.717 152.368C253.146 144.924 252.36 137.382 251.871 129.841C251.479 124.65 250.89 119.46 251.281 114.364C251.281 113.776 251.672 110.543 250.987 111.525C249.416 117.694 250.202 124.062 250.694 130.332C250.987 139.047 252.754 147.571 253.934 156.189C254.032 156.68 253.641 157.07 253.148 157.168C243.428 158.54 233.512 157.07 223.696 157.07C225.857 139.145 231.158 121.711 236.95 104.572C238.326 103.297 239.405 101.732 239.698 99.8693C244.608 103.297 249.419 98.8904 252.953 95.6578C254.72 94.0904 256.979 93.0138 258.843 91.5439C262.181 94.9717 266.207 97.4205 269.937 100.26C278.969 106.53 281.228 116.813 280.736 127.096C280.541 139.828 279.067 152.466 279.067 165.198C278.676 170.193 279.853 180.281 273.962 182.141H273.957Z" fill="#0D0C21"/>
    <path d="M86.7298 105.938C86.8276 106.329 86.4362 106.722 86.042 106.624C84.6665 106.134 79.3659 104.764 78.8738 104.569C76.8135 109.073 69.5475 115.148 68.2698 115.932C59.2369 122.494 48.2415 124.452 37.344 122.494C32.9268 121.711 22.4206 118.673 15.0568 108.979C10.3432 102.809 7.39943 95.167 6.80952 87.3325C5.73041 75.7746 9.55765 62.454 22.7141 53.2472C27.4277 49.7219 35.1829 46.5869 38.5209 46.1965C69.5446 42.4759 81.0321 64.4147 83.6824 77.833C85.9413 84.1028 83.7802 92.9163 81.622 99.0885C81.622 99.0885 85.9413 104.181 86.7269 105.944L86.7298 105.938Z" fill="#FFF7DB"/>
    <path d="M62.3821 102.608C60.7131 93.4014 54.1349 66.9554 54.1349 66.9554L50.0544 67.3602L50.3047 74.1296L48.6386 74.1067C48.6386 74.1067 47.4473 69.5937 47.4473 68.0263C47.4473 68.0263 47.5509 66.7602 41.6604 68.7181L42.1582 74.8875L39.4935 74.9851C38.9036 74.0062 38.118 71.5574 37.8245 69.9899L32.9153 70.6818C33.3066 79.7909 33.6174 100.55 34.4001 109.659C34.4001 109.659 37.2461 112.108 42.9409 112.498C50.2069 112.693 59.9246 109.461 62.3793 102.605L62.3821 102.608Z" fill="white"/>
    <path d="M53.4299 57.9008C52.5465 59.075 51.263 57.7429 50.4775 59.0147C47.8272 65.7726 40.7482 62.4252 41.6921 55.8109C44.9294 56.6463 46.1351 53.6319 47.9998 53.5343C50.0602 53.6319 51.6803 56.3046 54.2328 56.4999C54.2328 56.4999 53.922 57.8003 53.4328 57.898L53.4299 57.9008Z" fill="#FED980"/>
    <path d="M86.4333 105.155C85.0578 102.901 83.3888 100.943 82.3097 98.5919C83.3888 96.1431 84.3701 91.9316 84.0766 93.0081C90.2606 66.5621 67.0928 41.4884 40.1899 45.3095C9.45976 49.3257 -4.87368 86.1526 15.1546 109.759C32.1383 130.329 65.5188 127.88 79.2652 105.057C80.8363 104.862 89.5728 109.662 86.4333 105.155ZM83.9787 105.447C82.6032 105.155 79.363 103.194 78.4796 104.566C65.0296 126.801 32.6304 129.347 15.9402 109.268C-2.8133 87.2292 9.0684 52.6559 37.4418 46.7793C62.9692 41.098 87.0232 62.9392 83.8809 88.7995C82.4075 102.513 77.9904 94.5785 85.8434 106.039C85.2535 105.844 84.5658 105.648 83.9787 105.45V105.447Z" fill="#0D0C21"/>
    <path d="M54.9003 66.7286C54.8485 66.4875 54.6241 66.3267 54.3795 66.3526C53.3407 66.4617 50.7076 66.7459 49.8185 66.8865C49.6372 66.9152 49.5019 67.0703 49.5019 67.254C49.4904 68.5315 49.7177 73.4406 49.7177 73.6129H49.03C48.8343 72.8291 47.9624 68.5574 47.7207 67.6846C47.6516 67.432 47.4013 67.277 47.1423 67.3229C46.2042 67.4865 44.1064 67.8569 43.7294 67.9315C43.7294 67.9315 43.5337 65.9736 43.4359 65.3851C43.2402 64.1105 43.0445 62.7411 42.846 61.4664C43.4359 62.2502 44.1236 63.0339 45.1049 63.3267C45.3006 63.4243 45.597 63.4243 45.8905 63.4243H46.3826C48.1494 63.4243 49.3293 62.0521 50.112 60.5851C50.5033 59.899 50.7997 58.92 51.781 58.8224C52.8601 58.8224 53.9421 59.1152 54.4313 57.8435C54.627 57.453 54.627 56.9621 54.9234 56.6693C55.0212 56.5717 55.7521 56.3133 55.5133 55.6903C55.3608 55.2913 54.6298 55.5927 54.532 55.6903C52.8371 56.2128 51.2256 54.7487 50.7364 54.2578C49.9508 53.5717 48.8717 53.1812 47.7897 53.4741C46.8085 53.6693 46.1869 54.0253 45.4013 54.6138C44.9092 55.0042 44.5179 55.3975 43.8301 55.4951C43.2402 55.5927 42.0028 55.2482 42.0028 55.1506C42.0028 55.053 41.8071 54.2492 41.7813 54.054C41.7467 53.7611 41.4791 53.4683 41.177 53.5372C40.6906 53.6492 40.7856 54.1257 40.7856 54.1257C40.7856 54.321 41.0791 56.1813 41.177 56.7698C41.2748 57.4559 41.3726 58.142 41.4705 58.7277C41.6661 60.0999 41.8618 61.4693 42.1582 62.8416C42.3539 64.1162 43.1395 67.9344 43.1395 68.032C43.0733 68.032 42.2445 68.1813 41.8043 68.3248C41.5885 68.3937 41.4503 68.6004 41.4618 68.8243C41.5309 70.01 41.8647 74.1038 41.8647 74.299H39.7036C39.7036 74.2186 38.6677 70.7851 38.2792 69.4932C38.1957 69.2148 37.9195 69.0396 37.6317 69.0798L32.9441 69.7315C32.6419 69.7746 32.4175 70.0358 32.4261 70.3401C32.4779 72.232 33.8707 108.554 33.8707 110.121C33.8707 110.316 38.8576 113.695 47.1653 112.788C48.443 112.593 49.6199 112.297 50.7968 112.004C51.9738 111.614 53.1536 111.221 54.2327 110.73C55.3118 110.239 56.3938 109.653 57.3751 108.967C57.5708 108.869 57.6686 108.772 57.8672 108.674C58.8484 107.988 59.8297 107.204 60.6153 106.421C61.4987 105.637 63.1678 103.383 63.2656 103.286C63.2656 103.286 55.1363 67.7995 54.9003 66.7229V66.7286ZM42.7712 60.5478C42.5409 60.2234 42.1294 56.2358 42.1294 56.2358C42.3251 56.431 44.0402 56.7612 44.9668 55.9372C48.207 53.4884 48.7365 54.1257 50.0141 55.2999C50.7019 55.8884 52.3911 56.5545 53.7666 56.6521C53.6687 57.0425 53.1248 57.8664 52.8169 57.9181C51.6544 58.1076 50.9637 57.7774 50.0803 58.8569C49.2947 59.8358 48.7077 60.9755 47.7869 61.831C45.9222 63.565 43.1021 61.0128 42.7712 60.5478ZM61.093 104.288C60.6009 104.876 59.916 105.462 59.3261 106.05C58.6384 106.639 55.3003 108.694 54.3191 109.185C53.3378 109.676 52.3565 110.067 51.2745 110.46C50.2933 110.753 49.2142 111.048 48.23 111.244C47.2487 111.439 46.2675 111.536 45.2833 111.634H42.4373C41.7496 111.536 40.964 111.439 40.1784 111.341C39.5885 111.146 38.9007 111.048 38.3137 110.85C37.8216 110.655 37.3324 110.46 36.9382 110.262C36.544 110.064 36.0548 109.771 35.6605 109.478C35.5627 109.38 35.367 109.283 35.2692 109.185C35.1714 107.715 35.0735 106.148 35.0735 104.681C34.9757 103.016 34.8778 101.351 34.8778 99.6857C34.78 98.0206 34.6822 96.4531 34.6822 94.788C34.5843 93.123 34.4865 91.5555 34.4865 89.8904C34.3886 88.2253 34.2908 86.6579 34.2908 84.9928C34.193 83.3277 34.0951 81.6626 33.9973 79.9976C33.8994 78.3325 33.4074 70.9861 33.3095 70.7909C33.4074 70.7909 37.4332 70.1047 37.6288 70.1047C37.6288 70.188 38.5957 73.7134 38.9065 74.8473C38.9641 75.054 39.1511 75.1947 39.3669 75.1918L42.564 75.1574C42.7971 75.1574 42.9783 74.9564 42.9582 74.7267C42.8488 73.4062 42.5208 69.4502 42.4373 69.1258C43.0273 69.0282 46.3653 68.4397 46.3653 68.4397C46.561 68.4397 46.7567 68.342 46.9552 68.342C47.0531 68.6349 47.0531 68.9306 47.1509 69.321C47.2315 69.809 47.925 73.1191 48.1581 74.2301C48.2041 74.4425 48.3912 74.5918 48.607 74.5918C49.0847 74.5861 49.9048 74.5689 50.3969 74.5201C50.5954 74.5 50.7393 74.3277 50.7249 74.1296C50.6213 72.766 50.3911 67.742 50.3911 67.6559C50.5868 67.6559 54.0227 67.3631 54.1205 67.3631C54.3162 68.2444 54.5119 69.2234 54.7104 70.2023C55.0039 71.6722 55.3982 73.0416 55.6917 74.5114C55.9852 75.9813 56.3794 77.3507 56.673 78.8205C56.9665 80.2904 57.3607 81.7603 57.6542 83.2272C58.0456 84.6971 58.342 86.167 58.6355 87.634C58.929 89.1038 59.3232 90.4732 59.6168 91.9431C59.9103 93.4129 60.3045 94.8828 60.598 96.3498C60.8916 97.8168 62.1059 102.769 62.1059 102.769C62.1059 102.769 61.5793 103.794 61.0872 104.282L61.093 104.288Z" fill="#0D0C21"/>
    <path d="M4.35773 96.0454C4.06422 95.8502 3.96638 95.3593 3.86566 95.0665C3.57214 93.9899 3.27575 92.9105 3.08007 91.8339C2.19664 88.0129 2.29448 83.899 3.27575 80.0808C3.47143 79.3947 4.55341 79.6904 4.35486 80.3736C3.37359 83.6062 3.17791 87.0339 3.6671 90.3641C3.86278 91.7363 4.15918 93.0081 4.35486 94.3804C4.35486 94.5756 4.94477 96.2407 4.35486 96.0454H4.35773Z" fill="#0D0C21"/>
    <path d="M0.136253 88.6015C-0.0594259 88.4063 0.0384133 88.013 0.0384133 87.8177C-0.0594259 86.3479 0.0384134 84.9785 0.234092 83.5086C0.42977 81.4531 0.625449 79.3948 1.11752 77.3393C1.21536 76.9488 1.70744 76.4579 2.09879 76.7507C2.39231 76.9459 2.29447 77.3393 2.09879 77.5345C1.50888 78.8091 1.41104 80.1785 1.11752 81.4531C0.824005 83.5086 0.52761 85.567 0.52761 87.6225V88.4063C0.42977 88.6991 0.234092 88.6991 0.136253 88.6015Z" fill="#0D0C21"/>
    <path d="M86.6319 74.3995C86.3384 74.0091 86.4362 73.6158 86.3384 73.1249C86.1427 72.1459 85.947 71.167 85.6506 70.1851C84.9629 68.1296 83.6881 66.4646 82.6061 64.6014C82.5083 64.4062 82.3126 64.211 82.3126 64.0129C82.3126 63.8148 82.4104 63.6224 82.7039 63.6224C82.8996 63.6224 83.0953 63.8176 83.2938 64.0129C84.7672 65.6779 86.1398 67.6358 87.0232 69.6942C87.4146 70.7708 87.6132 71.8502 87.8088 72.9268C87.8088 73.3172 88.0045 73.8081 87.9067 74.2014C87.5153 74.6923 86.8276 74.7899 86.629 74.3966L86.6319 74.3995Z" fill="#0D0C21"/>
    <path d="M87.8088 69.9928C87.5153 69.1114 87.3167 68.1325 86.8275 67.2511C86.2376 65.9765 85.452 64.8023 84.6664 63.5306C84.4708 63.1401 84.0765 62.7468 84.0765 62.3564C84.0765 61.966 84.5686 61.966 84.7643 62.1612C85.3542 62.6521 85.7456 63.3353 86.2376 64.0215C87.1211 65.098 87.9067 66.3727 88.298 67.6444C88.4937 68.233 88.6894 68.9191 88.8879 69.5047C88.9858 69.7976 88.7901 70.0933 88.4966 70.2885C88.3987 70.3861 88.0045 70.2885 87.8088 69.9956V69.9928Z" fill="#0D0C21"/>
    <path d="M55.6053 102.02C54.5262 100.355 53.4442 98.5918 52.2673 96.9268C51.9738 96.5363 52.0716 96.0454 52.3651 95.7526C55.2111 93.011 52.6587 87.6224 48.3393 88.4062C44.5092 89.0923 43.6258 94.2827 46.5725 96.2406C46.866 96.4359 47.0646 96.8292 46.9638 97.2196C46.3739 99.6684 45.9826 102.215 45.3927 104.664C45.2948 106.133 45.2948 106.82 46.9638 106.719C49.5163 106.914 53.8356 104.368 55.4068 103.096C55.7003 102.901 55.7981 102.41 55.6025 102.02H55.6053Z" fill="#0D0C21"/>
</svg>
