<svg width="175" height="317" viewBox="0 0 175 317" fill="none" xmlns="http://www.w3.org/2000/svg">
    <g clip-path="url(#clip0_411_24468)">
        <path d="M3.25584 137.667C-3.08286 151.932 12.1631 289.608 12.1631 289.608C15.8451 296.873 31.7855 295.715 32.943 290.545C28.3461 311.116 53.0394 306.056 61.1199 294.856C61.7923 278.077 60.8443 260.45 61.0978 237.124C61.4286 206.908 66.1578 172.403 66.1578 172.403C66.1578 172.403 18.2482 133.026 3.25584 137.656V137.667Z" fill="white"/>
        <path d="M5.52634 127.855C2.79243 129.862 -1.07692 136.972 4.51216 137.578C16.3628 138.527 25.733 144.854 35.0922 150.057C53.5792 160.321 67.2377 172.414 67.2377 172.414C67.2377 172.414 74.8772 158.921 78.8237 136.752C88.7893 126.929 91.887 119.621 98.391 114.98C101.797 130.49 107.034 131.24 126.821 141.084C132.719 135.815 135.464 120.117 131.496 119.72C106.163 117.151 126.314 81.9302 121.354 63.6417C118.432 59.5518 112.215 53.4998 112.215 53.4998C112.215 53.4998 109.161 40.9987 100.188 38.0664C93.9043 44.4823 74.6457 44.9894 63.0597 51.4714C53.4138 59.9156 41.453 70.8292 33.1851 79.7695C29.2937 83.9806 20.7061 86.7586 21.114 92.8328C26.8905 87.9161 35.4119 95.1588 33.3836 102.192C30.8371 106.238 25.744 111.452 22.018 110.074C15.8557 114.693 10.3327 120.447 5.49328 127.878H5.51533L5.52634 127.855Z" fill="#FED980"/>
        <path d="M94.8637 19.3822C92.5928 40.14 110.804 48.2646 123.294 34.2864C128.663 33.7572 131.176 47.8788 133.282 38.9054C133.888 36.3368 134.803 33.0297 137.074 31.5745C145.077 26.4484 152.915 22.3366 140.271 4.91892C132.234 -1.39773 122.081 -0.769376 115.081 6.07642C107.431 8.71111 95.2385 8.6119 94.8637 19.4042V19.3822Z" fill="#2C2C2C"/>
        <path d="M105.701 41.9003C109.978 49.0878 115.622 58.2486 121.619 62.7794C126.911 66.7701 132.676 65.7559 137.923 53.0013C145.783 58.6565 142.057 29.2891 142.057 29.2891C142.057 29.2891 134.903 29.2891 132.334 41.7019C130.284 44.5019 129.281 38.7696 127.859 37.0278C121.785 30.4245 118.687 42.0326 112.789 42.5397C110.463 42.9807 107.443 40.5775 105.679 41.9113H105.701V41.9003Z" fill="white"/>
        <path d="M18.2813 101.549C16.5175 101.648 17.5317 104.118 17.8514 105.132C18.5018 106.874 20.0341 108.009 21.4782 109.057C22.272 109.707 23.22 110.457 24.2893 110.126H24.3555C24.5429 110.06 24.6751 109.96 24.8185 109.861C24.9838 109.762 25.1382 109.663 25.3035 109.542C25.6673 109.233 25.6893 108.891 25.8878 108.571C26.1744 108.23 26.7587 108.505 27.1445 108.45C28.4784 108.428 28.6217 107.271 28.4012 106.201C28.9634 105.815 29.6138 105.529 29.9997 104.923C30.4406 104.272 30.5068 103.467 30.8926 102.795C32.0721 102.486 32.5903 101.439 32.7777 100.348C33.1635 98.9917 32.7556 97.6689 32.0942 96.4783C32.2375 96.1696 32.0942 95.85 31.9288 95.5633C31.7855 94.7586 31.3666 94.02 30.8705 93.3365C30.7493 93.1491 30.606 92.9727 30.4847 92.8074C30.4847 92.8074 30.4627 92.7633 30.4406 92.7412C30.1981 92.4215 29.9997 91.9145 29.5036 91.9145C29.0185 91.4515 28.4674 90.9003 27.839 90.4814C27.5303 90.2609 27.1886 90.0735 26.8469 89.9522C26.461 89.831 26.0531 89.7648 25.6563 89.853C25.1712 89.9743 24.7192 90.4814 24.8846 90.9885C24.7854 91.1538 24.7192 91.3302 24.6862 91.5176C24.3224 91.5176 24.0027 91.5176 23.672 91.5948C22.7791 91.7822 22.0515 92.2452 21.4452 92.8956C20.5963 93.8106 20.0121 95.0673 19.6593 96.2799C19.2955 98.1209 19.0971 99.9288 18.2262 101.582L18.2703 101.538L18.2813 101.549Z" fill="white"/>
        <path d="M135.464 128.163C150.027 126.543 144.195 123.853 149.498 116.136C148.913 112.024 142.332 112.311 139.289 112.223C139.025 110.338 140.723 106.314 138.375 105.719C137.967 106.953 135.056 111.616 132.984 114.406C130.393 117.911 128.85 119.532 131.793 119.443C134.726 119.366 132.907 127.381 135.464 128.152V128.163Z" fill="white"/>
        <path d="M142.575 111.94L146.499 112.767L150.788 98.0393L146.113 96.6172L142.564 111.929L142.575 111.94Z" fill="white"/>
        <path d="M131.683 141.9L134.251 128.032L141.362 127.492L136.092 142.793L131.683 141.9Z" fill="white"/>
        <path d="M141.748 111.642C144.118 112.293 148.087 90.1789 142.84 95.9444C141.726 97.8846 137.295 112.634 140.657 112.171L141.748 111.642Z" fill="white"/>
        <path d="M143.755 80.3855C140.8 72.0625 147.404 52.4511 159.386 47.4794C184.201 44.073 151.978 103.624 143.755 80.3855ZM140.712 66.1648C138.849 79.3492 142.31 85.0816 146.367 87.3305C148.252 88.3888 141.726 96.5244 146.147 96.6015C146.797 96.1936 148.396 97.4724 149.002 96.9212C150.821 95.2456 151.593 91.2329 154.04 89.3258C164.931 85.0486 171.171 75.8547 172.494 66.275C176.87 34.3169 146.345 40.2477 140.712 66.1537V66.1648Z" fill="white"/>
        <path d="M142.96 74.8961C146.885 105.377 176.484 62.6817 165.681 48.2185C153.003 42.001 145.099 64.8865 142.96 74.8961Z" fill="#FFF7DB"/>
        <path d="M36.636 304.053C36.9557 307.216 35.1257 315.209 37.4848 315.65C50.1843 318.031 78.3832 315.65 81.3045 310.094C83.355 304.361 60.4364 310.722 57.008 300.922C42.3684 304.89 40.5054 303.931 36.625 304.053H36.636Z" fill="#2C2C2C"/>
        <path d="M13.1445 291.284C13.4532 305.483 13.7508 304.667 22.625 305.031C36.8457 305.626 34.4425 300.908 32.6567 292.056C27.2109 292.861 21.236 296.168 13.1445 291.273V291.284Z" fill="#2C2C2C"/>
        <path d="M142.498 71.2729C142.619 70.5894 142.762 69.8949 142.928 69.2114C143.071 68.539 143.236 67.8996 143.413 67.2271C143.754 65.9925 144.206 64.7799 144.669 63.5783C145.154 62.3215 145.728 61.0648 146.345 59.8743C147.503 57.6254 148.836 55.4758 150.413 53.5135C151.118 52.6426 151.868 51.7938 152.684 51.0001C153.621 50.1071 154.569 49.2363 155.638 48.4866C156.465 47.9024 157.358 47.3732 158.328 46.9654C159.221 46.6016 160.169 46.337 161.128 46.2598C161.448 46.2378 161.8 46.2157 162.12 46.2598H162.726C163.575 46.326 164.424 46.5465 165.174 46.9433C165.537 47.1307 165.857 47.3732 166.166 47.6158C166.21 47.6378 166.232 47.6599 166.265 47.6929C166.331 47.737 166.408 47.7701 166.463 47.7921C166.607 47.8693 166.728 47.9796 166.849 48.0788C167.07 48.2772 167.279 48.5087 167.456 48.7512C167.775 49.1811 168.062 49.6221 168.304 50.1071C168.569 50.6583 168.767 51.2206 168.933 51.8048C169.098 52.4332 169.241 53.0615 169.319 53.6899C169.396 54.3403 169.44 54.9907 169.484 55.6191C169.528 56.1813 169.528 56.7545 169.484 57.3388C169.484 57.9671 169.418 58.5955 169.363 59.2459C169.264 60.3814 169.076 61.4727 168.878 62.5861C168.613 64.0082 168.205 65.4633 167.742 66.8964C167.059 69.024 166.144 71.1737 165.052 73.2351C164.468 74.3706 163.818 75.4619 163.112 76.5313C162.385 77.6226 161.569 78.6589 160.72 79.673C160.136 80.3455 159.53 81.0069 158.879 81.6353C158.074 82.407 157.215 83.1566 156.311 83.818C155.296 84.5456 154.227 85.2401 153.048 85.681C152.011 86.0669 150.942 86.3535 149.851 86.3535H148.693C148.087 86.3094 147.48 86.1661 146.907 85.9456C146.279 85.681 145.695 85.3393 145.188 84.8873C144.747 84.5015 144.361 84.0826 144.03 83.6085C143.688 83.1235 143.402 82.6164 143.181 82.0652C142.961 81.5581 142.795 81.0069 142.652 80.4668C142.41 79.4967 142.266 78.5045 142.189 77.5124C142.123 76.7848 142.112 76.0352 142.123 75.2856C142.167 73.9296 142.31 72.5957 142.531 71.2508H142.487L142.498 71.2729ZM161.856 47.6378C161.547 47.6599 161.271 47.715 160.963 47.7811H160.919C160.555 47.8583 160.169 47.9796 159.805 48.1008C159.276 48.2992 158.791 48.5307 158.284 48.7733C157.777 49.0378 157.226 49.3796 156.729 49.7213C156.101 50.1623 155.429 50.6914 154.8 51.2647C154.007 51.9922 153.279 52.7859 152.596 53.5907C151.603 54.7482 150.666 56.038 149.795 57.3608V57.4049C148.903 58.7168 148.131 60.1388 147.425 61.594L147.359 61.7152C146.654 63.1924 146.003 64.7358 145.474 66.3342C145.011 67.7563 144.537 69.2555 144.262 70.7548V70.8209C144.019 72.0997 143.854 73.3895 143.776 74.7123C143.732 75.6053 143.732 76.5974 143.821 77.5675C143.865 78.1297 143.942 78.747 144.063 79.3313C144.184 79.8605 144.328 80.3896 144.504 80.8857C144.647 81.2495 144.824 81.6904 145.055 82.0983C145.176 82.3188 145.342 82.5833 145.518 82.87V82.892C145.662 83.0904 145.838 83.2999 146.003 83.4983C146.125 83.6196 146.312 83.807 146.488 83.9613C146.632 84.0826 146.797 84.2038 146.973 84.3031C147.117 84.3802 147.26 84.4684 147.414 84.5456C147.613 84.6227 147.822 84.733 148.043 84.8102C148.164 84.8542 148.362 84.8873 148.572 84.9535C148.759 84.9976 148.958 85.0196 149.156 85.0196H149.421C149.74 84.9976 150.049 84.9424 150.369 84.8763C150.777 84.7991 151.173 84.6779 151.559 84.5125C152.022 84.3472 152.474 84.1487 152.915 83.9062C153.444 83.6416 153.974 83.3219 154.47 82.9581C154.47 82.9581 154.514 82.9361 154.547 82.892C155.109 82.4841 155.737 81.977 156.333 81.4589C157.137 80.7093 157.887 79.9156 158.604 79.0667C159.518 77.9974 160.389 76.7958 161.194 75.5391C162.142 74.0619 163.079 72.4635 163.884 70.7989C164.611 69.2996 165.262 67.6571 165.824 65.9815C166.309 64.4602 166.772 62.8397 167.081 61.1861C167.268 60.216 167.401 59.1357 167.467 58.0663C167.511 57.1734 167.533 56.1813 167.467 55.2112C167.401 54.5828 167.301 53.9545 167.18 53.3482C167.059 52.797 166.893 52.2788 166.739 51.7717C166.596 51.3639 166.419 50.978 166.232 50.5922C166.067 50.2835 165.868 49.9197 165.626 49.556C165.526 49.4126 165.361 49.2363 165.218 49.0489C165.097 48.9056 164.997 48.7622 164.898 48.6079C164.898 48.6079 164.876 48.5638 164.854 48.5418C164.755 48.4646 164.634 48.3544 164.512 48.2772C164.347 48.178 164.193 48.0898 164.027 47.9906H163.983C163.796 47.9134 163.575 47.8032 163.377 47.7481C163.256 47.704 163.068 47.6709 162.87 47.6268C162.704 47.6047 162.462 47.5606 162.197 47.5496H161.889L161.811 47.6488L161.856 47.6378Z" fill="#2C2C2C"/>
        <path d="M131.716 142.065C131.463 141.867 131.32 141.569 131.32 141.25C131.386 136.719 133.326 132.397 133.932 127.911C134.054 127.26 135.795 127.591 135.365 128.352C134.682 131.372 133.943 134.382 133.216 137.38C133.017 138.692 132.631 140.092 132.543 141.448C132.587 141.492 132.642 141.525 132.687 141.569C133.072 140.169 133.535 138.791 133.844 137.38C134.693 134.216 135.2 130.821 136.479 127.756C136.578 127.558 137.493 127.47 137.614 127.679C137.151 130.314 136.313 132.971 135.751 135.616C135.189 137.821 134.693 140.092 133.91 142.264C134.109 142.341 134.34 142.429 134.561 142.429H135.63C135.63 142.363 135.63 142.286 135.674 142.231C136.302 141.073 136.732 139.839 137.25 138.626C138.672 134.823 139.72 130.865 141.34 127.139C141.484 126.819 142.652 126.654 142.762 127.062C141.362 132.386 137.14 142.44 136.975 142.617C136.809 142.793 135.641 143.267 135.354 143.245C133.37 143.102 132.257 142.484 131.716 142.076V142.065Z" fill="#2C2C2C"/>
        <path d="M141.484 111.697C142.013 109.514 144.097 99.2179 144.923 96.4289C144.725 96.473 143.369 96.5722 143.182 96.5942H143.105C142.355 100.001 140.558 106.802 140.514 106.902C140.514 106.902 140.437 107.045 140.327 107.1C140.139 107.199 139.764 107.078 139.72 107.1C139.72 107.1 139.07 106.979 139.169 106.67V106.571C139.169 106.571 139.213 106.494 139.235 106.45C140.172 103.032 141.076 99.6037 142.09 96.1974C142.168 95.8887 142.41 95.7123 142.697 95.5911V95.547C143.005 95.1832 143.38 94.9186 143.689 94.4887C145.21 92.6477 146.015 90.2335 145.894 87.8303C145.872 87.7311 145.849 87.5878 145.849 87.4445C145.122 87.1248 144.427 86.6948 143.821 86.1877C143.391 85.846 143.016 85.4602 142.642 85.0523C142.256 84.6113 141.892 84.1373 141.572 83.6302C140.9 82.5389 140.393 81.3262 140.029 80.0805C139.742 79.1325 139.544 78.1514 139.401 77.1592C139.279 76.2222 139.202 75.3183 139.158 74.3812C139.114 73.1907 139.158 71.9339 139.301 70.6993C139.544 68.3512 140.029 66.0252 140.779 63.7763C141.208 62.5196 141.694 61.2849 142.212 60.0723C142.697 58.9589 143.27 57.8675 143.876 56.7872C145.177 54.5163 146.753 52.3887 148.55 50.4706C148.936 50.0627 149.322 49.6658 149.741 49.28C150.182 48.8501 150.678 48.4532 151.163 48.0453C151.714 47.6044 152.254 47.1744 152.839 46.7886C153.368 46.4248 153.93 46.1051 154.503 45.7744C155.539 45.2122 156.631 44.7161 157.788 44.4185C158.152 44.3193 158.516 44.2531 158.88 44.198C159.221 44.1319 159.563 44.0767 159.916 44.0547H161.316C161.437 44.0547 161.558 44.0767 161.68 44.0988C161.702 44.0988 161.724 44.0988 161.757 44.1208C161.823 44.0767 161.9 44.0547 161.977 44.0767C162.628 44.1539 163.256 44.2752 163.884 44.4405C164.535 44.6279 165.185 44.8484 165.792 45.124C166.707 45.5539 167.577 46.061 168.36 46.6784C169.308 47.428 170.168 48.343 170.896 49.3131C170.896 49.3131 170.962 49.3902 170.995 49.4564C171.766 50.5257 172.373 51.6832 172.858 52.8958C173.365 54.1525 173.751 55.4643 173.971 56.8093C174.192 58.1211 174.313 59.4439 174.313 60.7778C174.313 61.4834 174.291 62.1999 174.236 62.9275C174.192 63.5999 174.115 64.2614 174.015 64.9338C173.828 66.2677 173.53 67.6126 173.167 68.9024C172.803 70.2032 172.362 71.493 171.811 72.7497C170.752 75.197 169.418 77.5451 167.798 79.6727C166.993 80.742 166.1 81.7782 165.163 82.7483C164.226 83.6964 163.223 84.5893 162.165 85.4271C161.128 86.2208 160.037 86.9484 158.88 87.5767C158.692 87.676 158.494 87.7421 158.317 87.8413C158.251 87.8854 158.196 87.9185 158.152 87.9846C156.697 88.9547 155.109 89.6272 153.72 90.6965C151.857 92.3721 150.722 94.8635 150.457 97.3549C150.722 97.4541 150.965 97.5533 151.163 97.6415C151.769 97.884 151.35 98.5344 151.24 98.7769C149.818 103.561 149.19 108.643 147.393 113.262C147.106 113.45 146.963 113.042 147.051 112.821C144.923 115.699 150.094 98.325 150.105 98.1817C148.804 97.7958 147.558 97.3108 146.279 96.8698C145.96 98.777 143.788 108.864 143.116 111.995C143.094 112.358 141.275 112.237 141.44 111.752L141.462 111.686L141.484 111.697ZM146.423 95.8446C146.423 95.8446 147.735 96.2856 149.035 96.7927V96.7155C149.278 93.6729 150.976 90.7406 153.511 89.0429C154.525 88.4807 155.595 88.0287 156.675 87.6098C157.16 87.3232 157.645 87.0586 158.108 86.761C158.758 86.3531 159.365 85.9562 159.971 85.5043C160.5 85.1184 161.007 84.7105 161.514 84.2916C161.999 83.8838 162.462 83.4649 162.914 83.0129C163.907 82.0428 164.877 80.9624 165.77 79.849C166.64 78.7136 167.434 77.5451 168.162 76.3214C168.206 76.2443 168.261 76.134 168.327 76.0568C169 74.8773 169.639 73.6096 170.212 72.2867V72.2206C170.256 72.1434 170.289 72.0221 170.333 71.9119C170.576 71.3276 170.818 70.6772 171.061 70.0048C171.281 69.3323 171.491 68.6709 171.689 67.9764C171.976 66.9071 172.241 65.7275 172.395 64.559V64.4377V64.2393C172.538 63.2251 172.593 62.1558 172.615 61.0755C172.615 60.0833 172.549 59.0912 172.45 58.1211C172.351 57.2502 172.185 56.3793 171.987 55.5305C171.8 54.7588 171.557 54.0092 171.281 53.2816C171.061 52.6974 170.752 52.069 170.411 51.4627C170.124 50.9556 169.782 50.4265 169.418 49.9194C169.099 49.4894 168.713 49.0264 168.283 48.5855C167.875 48.1776 167.412 47.7366 166.905 47.3508C166.497 47.0311 166.012 46.7004 165.527 46.4028C165.097 46.1382 164.59 45.8736 164.072 45.6531H164.028C163.499 45.4327 162.936 45.2453 162.363 45.0909C162.021 44.9917 161.636 44.9035 161.25 44.8484C161.173 44.8484 161.106 44.7823 161.062 44.7492C160.985 44.7492 160.897 44.7712 160.82 44.7933C160.577 44.8374 160.335 44.8705 160.092 44.9145C159.585 44.9917 159.1 45.113 158.615 45.2783C157.943 45.4768 157.259 45.7413 156.565 46.05C156.002 46.3146 155.385 46.6122 154.823 46.965C154.801 46.965 154.757 47.0091 154.724 47.0311C153.93 47.5162 153.147 48.1004 152.398 48.6957C151.505 49.4233 150.7 50.217 149.906 51.0438C149.906 51.0438 149.906 51.0879 149.862 51.0879C148.947 52.058 148.098 53.1163 147.327 54.2076C146.357 55.5856 145.486 57.0187 144.692 58.5179C144.372 59.1463 144.02 59.8518 143.7 60.5684C143.38 61.2959 143.071 62.0456 142.785 62.7952V62.8393C142.223 64.4157 141.749 66.0031 141.363 67.6236V67.7228C141.363 67.789 141.341 67.8441 141.319 67.8882V67.9323C141.076 69.1449 140.856 70.3796 140.756 71.6142V71.6804C140.657 72.8158 140.613 73.9733 140.657 75.1419C140.657 75.6269 140.701 76.0899 140.756 76.597C140.801 77.0269 140.856 77.4238 140.922 77.8537C141.043 78.5593 141.208 79.2758 141.407 79.9813C141.594 80.5656 141.793 81.1719 142.057 81.7672C142.278 82.2522 142.564 82.7814 142.862 83.2885C143.105 83.6964 143.413 84.1153 143.733 84.5452C143.733 84.5672 143.777 84.5893 143.799 84.6113C144.042 84.92 144.306 85.1956 144.593 85.4602C144.879 85.7247 145.221 86.0114 145.585 86.2539C145.894 86.4744 146.235 86.6838 146.599 86.8602C146.599 86.8602 146.665 86.9374 146.676 86.9594C146.676 86.9594 146.72 87.0035 146.742 87.0256C146.842 87.1468 146.93 87.2901 147.029 87.4114C147.095 87.5326 147.15 87.676 147.216 87.7972C147.216 87.7972 147.216 87.8193 147.238 87.8413C147.238 87.8413 147.261 87.9075 147.283 87.9185C147.713 89.2303 147.349 90.7296 146.753 91.9532C146.555 92.4823 146.312 93.0115 146.026 93.5296C145.96 93.6288 145.905 93.728 145.838 93.8383V93.8603V93.8824C145.794 93.9485 145.761 94.0036 145.717 94.0698C145.651 94.1469 145.596 94.2572 145.53 94.3564C145.53 94.3564 145.409 94.5217 145.342 94.5989C145.298 94.6651 145.243 94.7202 145.177 94.7973V94.8194C145.177 94.8194 145.078 94.9407 145.012 95.0068C144.968 95.0729 144.912 95.1281 144.868 95.1942C144.868 95.1942 144.802 95.2383 144.791 95.2714C144.747 95.3375 144.692 95.3706 144.626 95.4367C144.604 95.4588 144.582 95.4808 144.549 95.5029C145.398 95.6021 146.213 95.8226 146.456 95.9438L146.412 95.9218L146.423 95.8446Z" fill="#2C2C2C"/>
        <path d="M138.309 34.7939C139.081 34.6727 140.051 34.5955 140.602 35.2239C140.845 35.5325 140.668 35.9514 140.293 36.0507C139.114 36.3924 137.989 36.679 136.81 37.0869H136.733C136.126 37.0869 135.674 36.4144 136.049 35.9073C136.611 35.301 137.471 34.9152 138.32 34.7939H138.309Z" fill="#2C2C2C"/>
        <path d="M58.3423 297.234V297.258H58.3191L58.3423 297.234Z" fill="black"/>
        <path d="M121.332 42.4759C121.409 42.7184 121.519 42.9169 121.641 43.1484L121.718 43.3137C121.718 43.3137 121.762 43.3909 121.795 43.435C121.938 43.6555 122.104 43.9421 122.038 44.2287C122.016 44.35 121.96 44.4271 121.85 44.5153L121.751 44.5925C121.652 44.6586 121.553 44.6697 121.442 44.6697C121.156 44.6697 120.913 44.4712 120.715 44.1074L120.737 44.1295C119.8 42.6744 119.645 40.8664 120.329 39.4334C121.056 37.9562 122.897 36.8648 124.132 37.1404C124.661 37.2617 125.532 37.7026 125.565 39.4664C125.499 40.4586 125.014 41.3515 124.264 41.8586C123.945 42.1232 123.658 42.057 123.493 41.9027C123.305 41.7153 123.25 41.3735 123.493 41.0759C123.559 40.9767 123.614 40.8885 123.68 40.7893C123.868 40.5247 124.022 40.2822 124.143 39.9404C124.286 39.6208 124.308 39.2129 124.165 38.8822C124.088 38.6837 123.945 38.5184 123.757 38.4412C123.085 38.5073 122.456 38.9263 121.949 39.6318C121.321 40.5247 121.078 41.6381 121.299 42.4869L121.332 42.4759Z" fill="#2C2C2C"/>
        <path d="M1.1058 143.234L0.940445 143.212C1.18297 142.021 1.50266 139.287 2.15306 137.115C1.81133 136.895 1.48061 136.608 1.26013 136.245C0.775085 135.881 0.554611 135.032 0.57666 134.437C0.57666 131.295 2.96883 128.903 4.8098 126.599C9.77052 120.944 15.4037 115.884 20.651 110.493C20.8495 110.295 21.0589 110.063 21.2794 109.865C21.0589 109.699 20.8384 109.545 20.629 109.357C19.2731 108.101 17.6526 106.866 17.1234 105.003C16.936 104.595 17.1014 104.276 17.3108 104.132C17.3108 104.055 17.2888 103.989 17.2667 103.934C17.0683 103.041 17.6526 101.641 18.4242 101.442C18.4242 100.814 18.4242 100.164 18.4683 99.5353C18.1486 99.414 18.0274 99.0282 18.0604 98.7085C17.9943 97.7384 18.1045 96.8014 18.4904 95.9084C19.4274 93.9793 19.5817 91.8406 20.618 89.9335C21.566 88.2359 23.2527 87.1225 24.6858 85.8657C26.7141 84.1681 28.6984 82.4483 30.5945 80.6404C32.678 78.6562 34.6623 76.5727 36.7568 74.6104C38.0576 73.475 39.4687 72.5269 40.8908 71.5568C43.0404 69.8151 45.1019 68.0071 47.0862 66.0669C47.3728 65.7803 47.6704 65.5047 47.935 65.2181C49.1917 63.7409 50.3272 62.1425 51.7051 60.7424C61.1195 49.3438 74.0063 45.5957 87.9735 42.8398C89.5279 42.6413 91.1373 42.4098 92.7358 42.2886C92.8019 42.2224 92.8571 42.1893 92.9563 42.1453C94.676 41.2523 96.3737 40.4255 97.9611 39.2901C97.9831 39.2901 98.0272 39.246 98.0603 39.2239C98.2808 38.794 98.865 38.2869 99.0745 38.0444C99.1186 38.0003 99.1517 37.9672 99.1737 37.9011C98.0162 36.8648 96.991 35.5971 96.4398 34.0317C96.3957 33.9105 96.3626 33.7451 96.3185 33.6018C96.1973 33.1719 96.0319 32.7089 96.054 32.29C95.8114 31.4411 95.613 30.5261 95.4036 29.4899C95.2603 28.619 95.0839 27.7481 94.9185 26.8993C94.6098 25.4442 94.3122 23.9229 94.1689 22.4016C93.6618 17.97 95.9107 13.4062 100.067 10.4959C102.613 8.65488 105.7 7.784 108.698 6.93517L109.382 6.73674C110.054 6.57138 110.76 6.45012 111.443 6.32886C112.744 6.10838 114.1 5.86586 115.291 5.31467C116.812 4.44378 117.925 3.55085 118.895 2.76816C121.221 0.883089 122.908 -0.494888 127.968 0.155517C133.877 0.905137 138.231 2.6469 141.23 5.48002C146.378 10.562 150.909 18.8299 146.819 25.367L146.719 25.5103C146.719 25.5103 146.642 25.6095 146.62 25.6536C146.576 25.6977 146.554 25.7528 146.521 25.7969C146.477 25.8631 146.444 25.8961 146.4 25.9623C146.356 26.0064 146.323 26.0615 146.278 26.1056C146.212 26.1828 146.157 26.271 146.091 26.3702C146.025 26.4473 145.992 26.5355 145.926 26.6127L145.804 26.5135L145.904 26.6347C145.904 26.6347 145.838 26.7119 145.804 26.756L145.76 26.778C145.639 26.9214 145.54 27.0647 145.419 27.1859L145.352 27.2631C145.352 27.2631 145.231 27.4064 145.165 27.4615C145.099 27.5387 145.044 27.6269 144.978 27.682V27.7261L144.901 27.7922C144.834 27.8584 144.801 27.9135 144.735 27.9796L144.834 27.9355L144.228 28.5419C144.228 28.5419 144.041 28.7293 143.941 28.8285L143.633 29.1151L143.754 29.2364L143.567 29.3797C143.567 29.3797 143.523 29.3797 143.523 29.4238C144.757 34.0427 143.831 38.7389 143.6 43.4791C143.434 46.654 143.886 49.8399 143.765 53.0147C143.864 54.3707 143.523 55.3628 142.001 55.3187C141.715 55.3187 141.439 55.3408 141.152 55.3408H140.546C139.874 55.3408 139.234 55.2636 138.617 55.0541C137.018 60.544 133.491 66.2103 127.097 66.0339C126.855 66.0339 126.634 66.0559 126.392 66.0559H125.785C125.587 66.0559 125.355 66.0118 125.157 66.0118C124.716 66.0118 124.264 66.0118 123.823 65.9677C123.823 66.0449 123.867 66.1331 123.867 66.2323V66.3095C123.867 66.3095 123.867 66.3866 123.911 66.4087C124.22 68.6796 123.911 71.193 123.746 73.2545C123.503 77.4105 122.776 81.4121 121.817 85.4909C121.232 88.3241 120.802 91.3997 120.339 94.321C119.876 96.6911 119.546 99.0613 119.854 101.475C120.295 105.973 120.968 110.471 122.158 114.825C122.324 115.167 122.478 115.531 122.621 115.895C124.286 116.258 125.796 117.129 127.417 117.57C127.847 117.669 128.751 117.372 129.048 117.229C130.525 116.501 131.485 115.465 132.51 114.23C133.667 112.61 135.023 110.857 135.817 109.016C136.137 107.704 136.985 104.926 139.19 105.323C141.208 105.676 141.208 108.409 140.899 109.843C140.822 110.063 140.656 110.956 140.436 111.684C142.078 111.606 143.732 111.97 145.352 112.213C146.565 112.356 147.767 112.654 148.759 113.425C149.586 114.054 150.622 114.88 150.931 115.917C151.151 116.865 151.008 118.088 150.06 118.573C149.773 118.717 149.475 118.794 149.145 118.794C149.045 118.794 148.946 118.772 148.858 118.75H148.781C148.858 122.233 148.395 126.852 144.327 127.525C142.663 128.087 140.91 128.23 139.179 128.616C137.867 128.804 136.522 128.66 135.211 128.781H134.703C134.417 130.645 133.811 132.463 132.962 134.128C131.705 136.52 130.415 139.045 128.409 140.908C128.288 140.974 127.924 141.282 126.91 141.249C125.289 141.249 123.79 140.379 122.368 139.673C120.67 138.736 118.928 137.865 117.187 137.016C112.998 134.668 108.169 133.07 104.388 130.005C102.812 128.55 101.963 126.477 101.07 124.559C99.7139 121.881 98.7658 119.047 97.9942 116.159C95.4036 119.235 92.9342 122.443 90.2334 125.43C87.2129 129.035 83.553 132.078 80.6096 135.76C78.1403 140.136 77.2473 145.24 76.1119 150.102C74.8993 155.591 73.7638 161.158 71.7795 166.428C71.1732 167.949 70.5228 169.36 69.7291 170.826C69.3653 171.598 68.7369 172.304 67.9653 172.689C67.9653 172.689 67.844 172.711 67.7999 172.711C67.7779 172.811 67.7338 172.91 67.7227 172.998C67.7227 172.998 67.6235 173.119 67.5574 173.185H67.5794C67.392 178.973 66.4881 184.727 66.0582 190.504C64.9888 203.81 63.7652 216.939 63.0376 230.3C62.9715 231.843 62.9384 233.376 62.8723 234.919C62.8723 235.47 62.8723 236.032 62.8061 236.617C62.762 237.443 62.8061 238.281 62.8061 239.108H62.8502C62.6628 246.152 62.6077 253.185 62.7069 260.196C62.7069 268.586 62.4423 277.008 62.9494 285.386C63.0927 287.569 63.2361 289.762 63.5117 291.923C63.5557 292.915 63.9526 293.951 63.6109 294.899C63.5337 295.12 63.4124 295.329 63.2912 295.506C63.1479 295.671 60.1494 298.989 59.036 300.026C60.5132 303.509 61.4502 305.008 65.3196 305.681C66.3337 305.901 67.3259 306 68.3401 306.022C69.211 306.022 70.0818 305.978 70.9748 305.945C71.9228 305.901 72.8819 305.868 73.8299 305.868C74.778 305.868 75.715 305.868 76.6631 306.011C77.2143 306.133 81.9545 306.64 82.2521 308.668C83.6852 313.144 78.2836 314.379 75.3292 315.007C69.0897 316.848 62.4644 317.421 56.0044 317.741H52.7083C49.1476 317.741 45.5538 317.697 42.0152 317.377C40.3396 317.19 38.5758 317.19 36.9773 316.484C33.3946 314.136 34.6513 309.495 35.1363 305.57C34.1442 305.769 32.9867 305.736 32.1158 305.857C29.7016 306.022 27.2984 306.221 24.8842 306.386C24.0905 306.43 23.3298 306.452 22.5361 306.452H21.9298C19.7802 306.452 17.6415 306.254 15.569 305.626C13.5848 305.118 12.8131 303.696 12.6918 301.558V301.514C12.328 299.937 12.3832 297.479 12.1406 296.718C11.9973 294.899 11.5894 291.173 11.5894 291.151C11.4461 290.986 10.8619 290.203 10.8178 289.895C10.8178 289.773 10.5973 285.981 10.4981 284.35C10.0351 277.405 9.528 270.438 8.97681 263.493C8.42561 256.548 7.9075 249.603 7.35631 242.669C6.79408 235.657 6.2429 228.657 5.65865 221.646C5.41612 218.626 4.32475 205.408 4.01608 201.814C3.48694 195.74 2.97986 189.666 2.47276 183.592C1.96567 177.518 1.45857 171.444 0.973526 165.37C0.830215 163.507 0.664841 161.643 0.532562 159.78V159.582C0.532562 159.362 0.510513 159.119 0.488464 158.899C0.323105 157.135 0.223892 155.371 0.290024 153.596C0.21286 150.157 0.290039 146.728 1.03966 143.311L1.1058 143.234ZM18.4683 101.795C18.4022 101.916 18.3471 102.027 18.303 102.159C18.2589 102.324 18.2258 102.479 18.1817 102.644C18.1817 102.721 17.9943 103.581 17.9943 103.68V103.923C17.9943 104.044 18.0384 104.165 18.0715 104.287C18.1927 104.209 18.314 104.088 18.4352 104C18.4352 104 19.2841 103.394 19.3833 103.372C19.1959 103.129 18.5124 101.994 18.4904 101.938C18.4904 101.905 18.4683 101.85 18.4463 101.806L18.4683 101.795ZM48.7287 66.0118C45.8956 69.0875 42.7758 71.9096 39.4687 74.4781C36.6907 77.3112 33.7804 80.2546 30.7819 82.9224C29.3268 84.2783 27.8606 85.6342 26.2842 86.8689C24.1786 88.4233 22.0511 90.0879 21.3455 92.6785C22.0731 92.0721 22.8999 91.5871 23.7598 91.1572C23.9251 89.7241 24.8732 89.1508 26.0527 89.2721C26.7582 89.1949 27.596 89.3934 28.4008 89.8564C28.7866 89.9776 32.0056 92.5131 30.7709 92.4029C30.6937 92.4029 30.0213 92.3367 29.9992 92.2596C29.3268 91.6312 27.4527 90.2312 26.1519 90.0107C25.6669 90.132 25.3582 90.5729 25.4795 91.5871C26.5157 92.458 27.9047 92.8218 28.8969 93.7698C29.3047 94.1777 30.6827 94.7068 30.2307 95.3903C30.1536 95.4675 30.0323 95.5336 29.911 95.5336H29.3047C29.3047 95.5336 29.1173 95.5116 29.0622 95.4565C28.5331 95.0706 27.9708 94.7509 27.3866 94.3982C26.196 93.7257 24.2117 93.2627 23.7377 91.8517C23.5723 91.9729 23.429 92.0942 23.2747 92.2155C21.6763 93.2737 20.7833 94.9273 19.9896 96.647C19.7912 97.3195 19.6038 98.003 19.5597 98.7085C19.5156 98.8959 19.3943 99.0172 19.24 99.1164C19.24 99.2376 19.2179 99.3589 19.1959 99.4802C19.5817 99.2156 20.0668 99.0723 20.5298 99.1384C20.3644 98.8518 20.2652 98.5542 20.2211 98.1904C20.2872 97.3195 21.0148 96.5478 21.8637 96.3053C21.8416 96.2612 21.7975 96.2392 21.7865 96.2061C21.3455 94.9494 22.2936 93.7147 23.5503 93.5163C23.7157 93.4942 23.87 93.5163 24.0133 93.5604C24.0574 93.5604 24.0905 93.5383 24.1566 93.5163C24.7629 93.395 25.5125 93.9572 24.785 94.4643C24.3771 94.7509 23.6495 95.1147 23.6936 95.6439C24.3771 96.8234 25.4795 97.7274 26.5708 98.5431C26.9346 98.9731 29.0622 100.307 28.4118 100.814C28.4118 100.814 28.2685 100.891 28.1913 100.891H27.585C27.585 100.891 27.3866 100.847 27.2984 100.792C26.7141 100.263 26.1078 99.7337 25.4354 99.2707C24.3991 98.6203 23.3078 97.9919 22.481 97.099C21.5109 97.9478 21.7093 98.8408 22.7897 99.7337C24.0243 100.627 25.0165 101.795 25.9535 103.019C26.196 103.449 27.2874 103.967 26.7252 104.54C26.7252 104.54 26.5598 104.639 26.4606 104.639C26.3393 104.639 25.5456 104.562 25.4464 104.441C24.5755 103.57 23.9251 102.578 23.0322 101.751C22.503 101.145 21.7975 100.638 21.2133 100.053C21.1692 100.053 21.1361 100.053 21.092 100.031C20.6069 100.153 20.155 100.494 19.9345 101.001C19.6479 101.464 20.1991 101.872 20.3975 102.258C20.4747 102.357 20.5629 102.523 20.64 102.644C21.0038 103.195 21.5329 103.757 21.9959 104.242C22.4259 104.727 22.7897 105.19 22.933 105.312C23.1755 105.742 24.2338 106.139 23.7598 106.668C23.2968 107.197 22.8668 106.976 22.8227 106.976C22.7566 106.976 22.7235 106.976 22.6574 106.932C22.5802 106.855 22.5141 106.767 22.4369 106.69C22.3377 106.613 22.2385 106.502 22.1503 106.403C22.007 106.216 21.8416 106.061 21.6873 105.896C21.6211 105.83 21.5881 105.775 21.5219 105.709C21.3786 105.565 21.2573 105.389 21.114 105.246L20.8054 104.882C20.5628 104.761 20.2762 104.518 20.0116 104.231C19.5817 104.375 19.1849 104.573 18.8542 104.904C18.7549 105.025 18.5896 105.069 18.4242 105.003C18.5234 105.224 18.6447 105.466 18.8101 105.687C19.7471 106.701 20.7502 107.627 21.8526 108.487C22.503 108.994 23.1645 109.523 23.881 109.942C24.3109 109.754 24.7519 109.677 25.1818 109.38C25.5897 109.038 25.6889 108.465 26.174 108.167C26.7031 107.737 27.4307 107.946 27.9598 107.561C28.3236 107.175 28.059 106.524 28.4008 106.128C28.8307 105.62 29.4701 105.378 29.878 104.849C30.5615 104.143 30.2197 103.03 30.9693 102.457C31.7189 102.148 32.2261 101.663 32.5127 101.035V100.935C32.7331 100.263 32.8213 99.6235 32.7331 98.9069C32.4465 97.4297 31.9063 96.0518 31.2119 94.6958C31.0685 94.3541 30.1756 93.4832 30.9693 93.395C31.0906 93.4612 31.3552 93.3509 31.5756 93.395C32.5678 93.5824 33.0308 94.8281 33.4828 95.7651C33.8025 95.0155 34.2765 94.31 34.6403 93.5604C36.5805 90.0768 38.201 86.4059 40.1852 82.9665C42.2687 79.3617 44.5176 75.801 46.3586 72.0308C46.8216 71.3584 48.0232 68.382 49.313 65.4937C49.1145 65.7142 48.883 65.9016 48.6626 66.1L48.7067 66.0008L48.7287 66.0118ZM98.1375 40.7342H98.1595C97.3878 41.1752 96.6052 41.561 95.7673 41.9138C97.002 41.9909 98.2146 42.2224 99.3942 42.6854C103.793 44.9894 107.397 48.495 111.035 51.8572C110.187 50.1816 109.415 48.4399 108.522 46.7753C107.089 44.6697 105.358 42.7405 103.804 40.7232C103.197 40.4586 102.613 40.1389 102.084 39.8082C101.621 39.5436 101.092 39.2019 100.563 38.8602C100.463 38.9814 100.364 39.0806 100.276 39.1688C100.21 39.2901 100.078 39.3893 99.9344 39.4113C99.4273 39.9625 98.7989 40.4035 98.1264 40.7452L98.1375 40.7342ZM141.968 27.671C141.968 27.671 142.134 27.5056 142.211 27.4284C142.31 27.3072 142.431 27.208 142.53 27.1088L142.729 26.9434C142.894 26.8221 143.037 26.6788 143.17 26.5576C143.335 26.3922 143.489 26.2158 143.699 25.9954L143.743 25.9513C143.743 25.9513 143.842 25.852 143.886 25.7859C143.952 25.7198 144.008 25.6646 144.074 25.5875C144.151 25.5103 144.217 25.4001 144.272 25.3229C144.338 25.2457 144.393 25.1575 144.46 25.0804C144.537 24.9812 144.625 24.8599 144.724 24.7386L144.79 24.6394C147.789 19.0503 144.956 13.1747 142.034 9.22812C138.617 3.88157 131.606 0.838994 124.154 1.46735C122.125 1.65476 120.571 3.04376 119.05 4.38866L118.708 4.69733C116.558 6.78083 113.725 7.30998 110.991 7.81707C109.757 8.03755 108.5 8.28007 107.287 8.66591C99.306 10.7163 96.1091 15.8975 95.8004 19.7008C95.602 21.5417 95.9988 23.4929 96.3847 24.9701C96.55 25.5764 96.6713 26.2269 96.8146 26.8332L96.8587 27.0757C96.9028 27.4395 96.98 27.7812 97.0461 28.145V28.2442C97.0461 28.2442 97.0902 28.3214 97.0902 28.3655V28.4867C97.0902 28.4867 97.1343 28.608 97.1563 28.6741C97.2225 28.9938 97.2776 29.3245 97.3217 29.6442C97.4209 30.2726 97.5201 30.923 97.7075 31.5293C97.7296 31.6065 97.7737 31.6947 97.7847 31.7718C97.8068 31.849 97.8508 31.9151 97.8619 31.9923V32.0695C97.9831 32.3341 98.0603 32.5986 98.1705 32.8632C98.3359 33.2711 98.5564 33.6679 98.843 34.0538L98.9422 34.2191C98.9422 34.2191 99.0194 34.3183 99.0414 34.3624C99.1186 34.4617 99.1847 34.5829 99.2619 34.6821C99.3391 34.7813 99.4052 34.9026 99.4824 35.0018L99.6036 35.1672C99.7249 35.3325 99.8462 35.4758 99.9674 35.6302C100.497 36.2144 100.96 36.6664 101.423 37.0522C102.128 37.6365 102.756 38.0885 103.363 38.4523L103.561 38.5515C103.804 38.6948 104.024 38.8161 104.267 38.9373C104.487 39.0365 104.708 39.1247 104.95 39.2239L105.237 39.3232C105.501 39.4224 105.788 39.5106 106.086 39.5877H106.152C106.35 39.6539 106.56 39.709 106.758 39.7751C106.835 39.7972 106.945 39.8192 107.023 39.8523C107.144 39.8964 107.265 39.9184 107.364 39.9515H107.431C107.431 39.9515 107.53 39.9956 107.574 40.0177L107.883 40.0948C107.883 40.0948 108.026 40.1169 108.103 40.1389H108.169C108.478 40.2161 108.775 40.3043 109.084 40.3814H109.161V40.4035C109.238 40.4035 109.327 40.4476 109.426 40.4476C112.016 41.4177 114.894 40.6681 116.713 38.5405C116.856 38.342 117.021 38.1326 117.154 37.9121C118.311 36.3137 119.502 34.627 121.486 33.9435C123.536 33.1498 125.653 33.3923 127.483 34.5939C129.588 35.994 130.944 38.5074 131.033 41.1311V41.2523C131.033 41.2523 131.055 41.2744 131.099 41.2744L131.143 41.4728V41.2523C131.143 41.2523 131.33 41.1531 131.407 41.0649L131.451 41.0208C131.529 40.9437 131.639 40.8555 131.716 40.7783C131.793 40.7011 131.881 40.5909 131.981 40.4696L132.168 40.2492C132.267 40.1058 132.388 39.9625 132.488 39.8192L132.532 39.7531C132.532 39.7531 132.653 39.5877 132.697 39.4885C132.741 39.4113 132.763 39.3452 132.796 39.2901C132.874 39.1247 132.962 38.9704 133.039 38.805C133.204 38.4412 133.326 38.0334 133.425 37.5483V37.4822C133.447 37.383 133.469 37.2617 133.502 37.1625L133.568 36.92C133.59 36.7767 133.634 36.6333 133.667 36.49C133.689 36.3688 133.733 36.2475 133.744 36.1262L133.866 35.564V35.5199C133.932 35.2554 134.009 34.9908 134.086 34.7262C134.13 34.605 134.163 34.4617 134.207 34.3404C134.307 33.9766 134.395 33.6679 134.516 33.3923C134.538 33.3152 134.582 33.249 134.593 33.1719L134.67 32.9845C134.737 32.8632 134.814 32.7199 134.891 32.5986L134.968 32.4774C134.968 32.4774 135.089 32.29 135.155 32.1907C135.299 31.9703 135.442 31.7277 135.618 31.4852L135.685 31.4081L135.949 31.1435L136.214 30.8789C136.291 30.7797 136.401 30.6805 136.5 30.5923L136.941 30.2285L137.018 30.1844C137.018 30.1844 137.162 30.1183 137.217 30.0852L137.658 29.8978C137.856 29.8206 138.066 29.7324 138.286 29.6332C138.452 29.5671 138.606 29.512 138.771 29.4458C138.992 29.3686 139.212 29.2584 139.444 29.1812C139.785 29.0159 140.127 28.8615 140.458 28.6741C140.722 28.5308 140.987 28.3655 141.285 28.145C141.329 28.123 141.362 28.0789 141.384 28.0678C141.428 27.9466 141.45 27.8253 141.527 27.7261C141.648 27.6489 141.748 27.6489 141.836 27.66L142.001 27.6379L141.968 27.671ZM122.511 63.1456C122.853 63.3661 123.217 63.5756 123.602 63.6968C123.602 63.6968 123.966 63.774 124.209 63.8622C124.639 63.9394 125.058 64.0055 125.488 64.0275C127.031 64.0275 128.541 63.7409 129.941 63.0574C131.782 62.1425 133.039 60.544 134.075 58.8022C133.954 58.8022 133.855 58.8243 133.689 58.8243C130.691 58.8243 129.092 55.3187 128.662 54.2053C128.662 54.084 128.596 53.9628 128.563 53.8195C128.398 53.2573 128.155 52.3864 128.971 52.0998C129.313 52.0336 129.677 52.2431 129.798 52.6069C129.963 53.8856 130.713 55.0321 131.97 55.8699C132.675 56.6195 133.711 57.0054 135.023 57.0274C135.486 55.8699 136.203 53.7864 136.908 52.9817C136.203 52.4525 135.574 51.8021 135.365 51.4273C135.178 51.0635 135.266 50.6556 135.464 50.358H135.486L135.85 50.2919H136.214C136.291 50.2919 136.379 50.3139 136.434 50.358C136.533 50.4021 136.633 50.4352 136.743 50.4793C136.809 50.5234 136.886 50.5564 136.941 50.6005C137.018 50.6446 137.085 50.6997 137.162 50.7659C137.283 50.8651 137.404 50.9864 137.504 51.1076C137.702 51.3501 137.889 51.5927 138.066 51.8352C138.132 51.9124 138.209 52.0226 138.264 52.0998L138.286 52.1218C138.363 52.199 138.452 52.2651 138.529 52.3423C138.65 52.4636 138.815 52.5628 138.97 52.6289C139.069 52.673 139.19 52.7281 139.289 52.7722C139.576 52.8494 139.874 52.9155 140.182 52.9596C140.259 52.9596 140.348 52.9817 140.403 52.9817C140.546 53.0037 140.711 53.0478 140.866 53.0588C141.009 49.6194 140.965 46.1579 141.108 42.7075C139.896 42.4429 138.43 42.2445 136.941 42.4208C136.533 42.4429 136.17 42.2004 136.092 41.7925C136.048 41.55 136.092 41.2303 136.5 40.9657C137.437 40.3594 139.763 40.5358 141.219 41.0649C141.318 39.3672 141.461 37.6475 141.748 35.9388C141.77 33.9325 141.792 31.9482 141.56 29.9639C140.932 30.2836 140.304 30.5702 139.675 30.8348C139.047 31.0994 138.419 31.386 137.812 31.6836C136.17 32.4884 135.872 34.4617 135.607 36.2255C135.541 36.5892 135.486 36.931 135.42 37.2837C134.913 40.0838 133.634 42.3106 131.87 43.3799H131.804V43.402C131.54 43.5453 131.22 43.6224 130.889 43.6224C130.261 43.6224 129.677 43.3138 129.335 42.8287C128.806 42.1232 128.806 41.2744 128.828 40.4366V39.7531C128.729 38.7168 128.365 37.7247 127.836 37.0192C127.571 36.7105 127.273 36.468 126.965 36.2475C127.13 36.5562 127.251 36.8759 127.306 37.2397C127.351 37.6034 127.428 38.794 126.943 39.3011C126.777 39.4665 126.579 39.5436 126.38 39.5216C126.193 39.5216 126.039 39.4224 125.951 39.235C125.884 39.0696 125.906 38.9153 126.017 38.794C126.094 37.7578 125.818 36.9089 125.19 36.4018C124.54 35.8727 123.591 35.7514 122.577 36.0821C120.736 36.8869 119.535 38.8602 119.314 41.4728C119.116 42.9941 119.38 44.3059 120.086 45.3973C120.163 45.5185 120.328 45.6398 120.494 45.7611C120.813 45.9815 121.299 46.3233 120.979 46.9516L120.935 46.9957C120.714 47.1942 120.494 47.3154 120.229 47.3154C119.116 47.3154 118.168 45.2099 118.002 44.6256C117.617 43.435 117.451 42.1122 117.539 40.8334C117.231 41.1421 116.911 41.4177 116.525 41.6602C113.593 43.8319 110.892 42.961 108.037 42.046C107.574 41.9027 107.1 41.7374 106.615 41.6161C109.249 44.3059 111.278 47.569 112.689 51.0966C112.788 51.7801 113.846 53.1801 113.56 53.9077C115.588 55.6935 117.506 57.5896 119.171 59.7172C119.336 59.9597 119.48 60.2023 119.612 60.4448C119.898 60.5881 120.174 60.7314 120.439 60.8857C120.681 61.0291 120.902 61.2275 121.122 61.4149C121.221 61.5141 121.321 61.6354 121.431 61.7346C121.475 61.7787 121.508 61.8118 121.552 61.8558C121.695 62.0433 121.861 62.1976 122.015 62.407C122.202 62.6496 122.379 62.8921 122.544 63.1567H122.467L122.511 63.1456ZM134.318 127.591L134.362 127.547C134.626 127.503 134.891 127.448 135.133 127.403C138.187 127.04 141.274 126.654 144.206 125.64H144.305C144.449 125.64 144.614 125.618 144.735 125.54C144.978 125.419 145.165 125.199 145.22 124.934C146.598 123.413 146.697 120.436 146.697 118.573C146.697 118.254 146.598 117.901 146.62 117.581C146.664 117.14 147.855 116.644 148.263 117.416C148.704 117.251 149.034 116.975 148.946 116.28C148.902 114.858 147.403 113.855 146.146 113.48C144.239 113.039 142.233 112.753 140.271 112.654C139.785 112.698 139.179 112.775 138.628 112.753C137.757 112.819 136.908 112.709 136.842 111.882C136.941 111.088 137.636 111.077 138.319 111.132C138.441 111.132 138.562 111.11 138.705 111.132C138.848 110.019 139.113 108.906 139.069 107.748C139.025 107.098 139.069 106.205 138.705 106.172C138.507 106.15 138.341 106.48 138.121 106.8C137.68 107.406 137.713 108.2 137.448 108.906C136.776 110.835 135.442 112.389 134.185 113.988C133.072 115.443 131.937 117.162 130.338 118.077C131.11 118.364 131.959 118.595 132.51 119.169C134.571 121.329 134.637 124.659 134.318 127.569V127.591ZM65.5731 170.187L65.6392 170.253C65.8377 170.496 66.0471 170.716 66.2235 170.937L66.2676 171.157C66.2676 171.157 66.3117 171.201 66.3117 171.223C66.3558 171.3 66.4109 171.367 66.4991 171.422C66.4991 171.422 66.5432 171.422 66.5432 171.444C66.5873 171.51 66.6204 171.543 66.6645 171.587C66.6865 171.587 66.7086 171.543 66.7306 171.521C66.7747 171.477 66.8078 171.422 66.8519 171.378C66.918 171.3 66.9952 171.234 67.0503 171.157C67.1275 171.08 67.1936 170.97 67.2487 170.87C67.3259 170.749 67.4141 170.65 67.4692 170.507C67.5133 170.44 67.5353 170.385 67.5684 170.319C67.6125 170.253 67.6456 170.176 67.6897 170.121C67.7889 169.955 67.8881 169.801 67.9983 169.636C68.0976 169.448 68.1637 169.272 68.2409 169.085C68.285 169.007 68.318 168.897 68.3621 168.82C68.3621 168.82 68.3621 168.776 68.3842 168.754C68.3842 168.732 68.4062 168.688 68.4283 168.677C70.4346 164.851 71.6031 160.552 72.6394 156.363C74.5796 149.087 75.3182 141.249 79.2978 134.734C81.282 132.166 83.6742 129.895 85.7798 127.426C87.4444 125.54 89.0649 123.622 90.7405 121.737C90.8617 121.616 90.961 121.517 91.0822 121.396C91.5452 120.933 91.9972 120.458 92.4602 120.018L92.5815 119.896C92.7248 119.753 92.8681 119.632 92.9893 119.488C93.5516 118.904 94.0587 118.298 94.6098 117.68C94.9736 117.295 95.3374 116.909 95.7233 116.523C95.9217 116.325 97.5642 114.737 97.5863 114.737C97.0351 112.51 96.55 110.261 96.065 108.035C95.2713 103.945 94.3894 99.7888 93.8602 95.6549C93.5957 92.1493 93.1106 88.6878 92.7248 85.1823C92.7248 84.6311 92.5374 84.0909 92.6256 83.5618C92.7468 83.0988 93.276 82.9334 93.6618 83.1208C93.9815 82.9995 94.3673 83.0547 94.5547 83.3854C94.9957 86.6264 95.2603 89.9886 95.5028 93.2737C96.054 99.5353 97.3107 105.687 98.6225 111.849C99.5595 115.862 100.563 119.885 102.349 123.633C103.264 125.574 103.241 127.558 106.945 130.159C109.58 131.978 112.634 133.081 115.511 134.536C117.617 135.594 119.579 136.597 121.706 137.7C123.327 138.549 126.138 140.224 126.81 139.629C127.152 139.32 127.373 138.901 127.659 138.538C130.735 134.062 133.733 128.407 132.135 122.818C131.749 122.068 131.573 121.054 130.856 120.547C129.456 119.742 127.714 119.29 126.116 118.904C125.003 118.595 124.054 117.912 123.062 117.361C123.713 120.018 123.426 122.873 121.784 125.199C121.662 125.419 121.464 125.518 121.276 125.518C121.177 125.518 121.056 125.496 120.957 125.441C120.88 125.507 120.769 125.518 120.67 125.518C120.24 125.518 119.821 125.111 120.042 124.625C120.869 123.027 121.739 121.362 121.464 119.521C121.387 118.221 121.1 116.953 120.406 115.851C119.921 114.572 119.7 113.194 119.369 111.86C118.454 107.164 117.286 102.401 117.429 97.6061C117.672 95.5447 118.135 93.4942 118.543 91.4438C119.292 87.5965 119.965 83.683 120.847 79.8578C121.519 76.4955 122.247 72.9348 121.839 69.4513C121.839 67.3678 121.795 65.7473 121.111 64.2039C121.111 64.1598 121.067 64.1047 121.045 64.0606C120.968 63.8622 120.88 63.6748 120.758 63.4984C120.692 63.3992 120.637 63.3 120.571 63.2118C120.549 63.1897 120.527 63.1456 120.494 63.1346C120.472 63.0905 120.428 63.0574 120.395 63.0133C120.373 62.9693 120.328 62.9472 120.317 62.9141C120.196 62.7929 120.097 62.6716 119.976 62.5504C119.854 62.4291 119.733 62.3078 119.59 62.2086C119.491 62.1314 119.402 62.0653 119.303 61.9881H119.325C119.248 61.922 119.182 61.8669 119.127 61.8007C119.05 61.7236 118.928 61.6574 118.84 61.6023C118.763 61.5251 118.653 61.4369 118.554 61.3818C118.432 61.3047 118.267 61.2826 118.124 61.2385H118.168C118.046 61.2165 117.925 61.1944 117.804 61.1613C113.813 61.2385 109.966 62.9693 107.012 65.6591C102.977 68.6575 99.4383 72.3175 97.0241 76.7821C96.9469 76.9254 96.8036 76.9805 96.6603 76.9805C96.5831 76.9805 96.517 76.9805 96.4618 76.9144C96.4178 76.8923 96.4398 76.8152 96.4178 76.7711C96.3406 76.8923 96.2193 76.9695 96.076 76.9695C95.9988 76.9695 95.9327 76.9695 95.8776 76.9034C95.0839 76.2971 98.0493 72.4277 98.5894 71.634C101.489 67.8638 105.248 64.7882 109.183 62.1755C110.539 61.5692 112.138 60.8747 113.758 60.4779H113.824C113.924 60.4779 114.045 60.4338 114.144 60.4117C114.221 60.4117 114.309 60.3897 114.387 60.3676C114.53 60.3456 114.695 60.3235 114.828 60.3015C115.026 60.2574 115.235 60.2243 115.456 60.2243H116.404L116.327 60.1472C116.547 60.1472 116.757 60.1692 116.977 60.1912C116.977 60.1912 116.933 60.1692 116.933 60.1472C117.198 60.1472 117.484 60.1912 117.738 60.2133H117.782C117.947 60.2353 118.124 60.2794 118.289 60.2905C116.47 58.5928 114.585 56.9502 112.7 55.3077V55.4069C112.016 54.7786 111.322 54.1281 110.638 53.4777C106.813 50.2147 103.23 46.4335 98.6887 44.1406C97.3878 43.7988 96.054 43.6114 94.7421 43.5784C90.8948 43.5343 86.9814 44.4713 83.2553 45.3422C74.0835 47.2824 64.8896 50.5675 57.9005 57.0495C56.5666 58.3833 55.2217 59.7062 53.954 61.0952C53.6894 61.3818 53.4249 61.6795 53.1603 61.9881C53.0611 62.2307 52.9729 62.4732 52.8516 62.6937C51.8374 64.9205 50.9114 67.2355 49.8972 69.4733C47.6925 74.864 44.6719 79.8798 41.8719 84.9838C39.5789 88.8973 37.8041 93.1856 35.3348 96.9116C34.8938 97.562 34.541 96.9777 34.4639 96.9777H34.4418C35.0261 98.3998 35.3348 100.075 34.519 101.431C34.4749 101.597 34.4418 101.751 34.4198 101.861C34.1001 102.589 33.5489 103.338 32.8213 103.746C32.7221 105.224 31.8292 106.624 30.3961 107.109C30.3299 109.038 29.3047 109.038 27.7834 109.313C27.4197 109.699 27.2543 110.284 26.7472 110.592C26.2622 110.956 25.6558 111.099 25.1267 111.386C25.0054 111.408 24.8842 111.43 24.7409 111.43C24.6417 111.43 24.5535 111.386 24.4763 111.364C24.3771 111.408 24.2558 111.43 24.1566 111.43C23.7708 111.43 23.407 111.265 23.0873 111.066C23.0212 111.022 22.966 110.989 22.8999 110.923C22.7125 110.802 22.5361 110.68 22.3487 110.559C22.1062 110.879 21.8857 111.232 21.6211 111.551C17.9722 115.619 14.0478 119.411 10.4209 123.479C8.02875 126.092 5.5043 128.627 3.86176 131.802C3.45387 132.651 2.05385 134.613 3.39876 135.749C3.8838 136.112 4.41295 136.377 4.99721 136.553C5.09642 136.619 5.31689 136.675 5.31689 136.652C5.46021 136.697 14.9186 138.681 15.3816 138.835C15.8447 139.001 16.925 139.397 17.41 139.607C17.9171 139.827 18.4463 140.015 18.9534 140.235C18.9313 140.235 18.9093 140.235 18.8872 140.213C19.4935 140.478 20.0778 140.775 20.6951 141.04C20.6951 141.04 20.7943 141.084 20.8605 141.117C20.8605 141.117 20.9046 141.117 20.9266 141.139H20.8825C20.8825 141.139 20.9487 141.161 20.9597 141.183H20.9156C20.9818 141.205 21.0148 141.227 21.081 141.26C21.081 141.26 21.125 141.26 21.1471 141.282H21.1912C21.1912 141.282 21.2684 141.327 21.3125 141.349L22.1062 141.712C22.1062 141.712 22.1503 141.712 22.1503 141.734H22.1282C22.2936 141.812 22.4369 141.878 22.6133 141.955H22.6574C22.6574 141.955 22.7786 142.021 22.8227 142.032C23.1314 142.175 23.407 142.341 23.7157 142.473C23.6936 142.473 23.6716 142.451 23.6495 142.429C23.8149 142.506 23.9692 142.594 24.1346 142.671C24.1346 142.671 24.2338 142.716 24.2779 142.749H24.322C25.0054 143.112 25.6779 143.454 26.3503 143.862C27.0559 144.27 27.7724 144.711 28.478 145.119C28.478 145.119 28.522 145.119 28.522 145.141H28.5441C28.5441 145.141 28.6102 145.185 28.6213 145.207C28.963 145.405 29.3268 145.615 29.6795 145.813C30.0213 146.001 30.363 146.177 30.6937 146.375C30.7378 146.398 30.7709 146.42 30.815 146.453H30.8591C30.8591 146.453 30.8811 146.453 30.9032 146.475C31.4874 146.838 32.0607 147.202 32.645 147.566C33.2292 147.952 33.8576 148.316 34.4639 148.679C35.0481 149.021 35.6434 149.363 36.2277 149.738C36.5364 149.925 36.812 150.124 37.0986 150.3C37.4072 150.487 37.7049 150.664 38.0135 150.851C38.8073 151.314 39.5679 151.788 40.3616 152.229C41.1333 152.659 41.8829 153.144 42.6546 153.585C43.8121 154.258 44.9806 154.864 46.1381 155.525C46.7003 155.867 47.2736 156.198 47.8358 156.539C48.42 156.881 49.0153 157.212 49.5996 157.554C49.9082 157.741 50.1839 157.917 50.4925 158.105C50.4705 158.105 50.4484 158.083 50.4153 158.061C50.4925 158.105 50.5587 158.16 50.6358 158.204H50.6799C50.8673 158.325 51.0437 158.425 51.2091 158.546C51.2311 158.546 51.2532 158.568 51.2862 158.59H51.2642C51.2642 158.59 51.3413 158.656 51.4075 158.667C51.4075 158.667 51.4295 158.667 51.4516 158.689H51.4736C51.5398 158.733 51.5728 158.766 51.639 158.81H51.6831C52.1681 159.13 52.6752 159.483 53.1603 159.825C53.6012 160.133 54.0532 160.453 54.4942 160.762C54.88 161.026 55.2879 161.291 55.6737 161.555C56.0816 161.842 56.5005 162.118 56.9084 162.404C57.3383 162.691 57.7793 163.01 58.2092 163.319C58.6501 163.661 59.1242 163.992 59.5651 164.355C59.5431 164.355 59.521 164.333 59.499 164.311C59.5651 164.355 59.6202 164.388 59.6643 164.455C59.6423 164.455 59.6202 164.41 59.5982 164.388C59.6643 164.455 59.7415 164.488 59.7966 164.554C59.7746 164.554 59.7525 164.532 59.7305 164.51C60.3588 164.995 60.9431 165.502 61.5494 166.009C61.5274 166.009 61.5053 165.965 61.4833 165.943C61.7478 166.163 62.0345 166.384 62.288 166.615C62.6959 166.957 63.0927 167.299 63.4676 167.674C63.5117 167.718 63.5337 167.751 63.5668 167.773C63.666 167.872 63.7652 167.971 63.8534 168.092C63.8975 168.137 63.9306 168.17 63.9967 168.236C64.14 168.401 64.3054 168.555 64.4376 168.743V168.787H64.4597C64.7022 169.096 64.9447 169.393 65.2093 169.68C65.3306 169.823 65.4739 169.966 65.5951 170.121L65.6172 170.143L65.5731 170.187ZM40.538 314.875V314.897C43.9774 315.481 47.461 315.481 50.9665 315.58C51.9146 315.624 52.8737 315.646 53.8217 315.646C60.6014 315.668 67.4141 315.084 74.0173 313.199C75.8363 312.615 81.4695 312.207 79.9261 308.845C78.6253 308.404 77.2914 308.172 75.9575 307.952C75.2741 307.885 74.6016 307.874 73.9071 307.874C73.1134 307.874 72.3307 307.919 71.559 307.952C70.2582 308.018 68.9684 308.073 67.6456 308.029C67.3369 308.051 67.0393 308.073 66.7086 308.073H66.1022C62.5195 308.073 58.584 306.982 57.0517 303.134C56.8643 302.671 56.5887 302.197 56.3462 301.701C51.8044 304.049 46.5019 304.292 41.5853 304.865V304.821C40.4719 304.865 39.2923 305.063 38.1458 305.085C38.0797 305.57 38.0246 306.056 38.0246 306.563C38.0246 308.161 37.4734 309.682 37.3742 311.259C37.1868 313.893 38.3443 314.621 40.538 314.886V314.875ZM14.4556 299.077C14.5769 299.992 15.1281 302.583 15.1832 302.726C15.4037 303.211 17.0683 304.226 17.388 304.303C17.851 304.424 18.325 304.523 18.788 304.589C19.2179 304.655 21.5881 304.876 22.2164 304.898C22.2164 304.898 24.8291 304.876 25.1377 304.832C25.6999 304.766 27.5078 304.567 27.8496 304.523C27.8496 304.523 29.4921 304.303 29.7126 304.259C29.9 304.215 31.0134 303.994 31.3552 303.895C31.6418 303.818 31.9174 303.752 32.204 303.652C32.3032 303.608 32.3914 303.575 32.4686 303.509C32.5347 303.465 32.5898 303.465 32.656 303.41C32.678 303.41 32.7001 303.366 32.7001 303.333C32.7662 303.289 32.7993 303.255 32.7993 303.167V302.781C32.7993 302.704 32.7993 302.616 32.7331 302.539V302.252C32.7331 302.065 32.7111 301.889 32.689 301.723C32.4906 300.301 32.3473 298.89 32.204 297.468C32.0166 295.925 31.8953 294.37 31.8182 292.827C31.7741 292.827 31.752 292.871 31.719 292.871C23.1645 296.288 17.5203 294.414 14.6871 292.893C14.3785 292.75 14.0588 292.584 13.7391 292.43C13.7391 292.816 14.18 297.27 14.4667 299.077H14.4556ZM2.02078 156.98C2.02078 158.237 2.09793 159.494 2.18613 160.751L2.32944 160.629C2.37354 161.302 2.39558 161.985 2.45071 162.658C2.51685 163.385 2.57196 164.113 2.63811 164.84C2.75937 166.196 2.88065 167.552 3.02396 168.908C3.16727 170.242 3.31056 171.565 3.46489 172.877C3.6523 174.277 3.80664 175.655 3.972 177.044C4.11531 178.356 4.29169 179.656 4.435 180.968C4.74367 183.702 9.27444 236.385 9.50595 238.998C9.60516 240.254 13.2541 289.123 13.2871 289.266C13.3312 289.432 13.3643 289.586 13.4745 289.707C22.007 296.288 31.4985 290.258 31.5205 290.269V289.862C31.5646 289.52 31.5646 289.189 31.5646 288.847V287.447C31.5426 287.106 31.5205 286.764 31.4874 286.411C31.3882 285.11 28.0701 228.183 27.8165 223.057C27.7504 222.043 25.8322 171.08 25.7881 170.066L27.7724 170.694C28.037 175.093 30.1425 229.462 30.4292 233.872C30.7489 239.075 31.0575 244.278 31.4434 249.481C31.8292 254.585 34.7836 298.317 34.9269 299.507C35.0041 300.092 35.0922 300.665 35.1694 301.227C35.2135 301.514 35.2466 301.778 35.3127 302.054C35.3127 302.12 35.3568 302.175 35.3568 302.241C35.3568 302.285 35.4009 302.318 35.434 302.363C35.434 302.363 35.456 302.407 35.4781 302.407C35.4781 302.407 35.5222 302.429 35.5442 302.451C35.5442 302.495 35.5883 302.55 35.6214 302.594C35.6985 302.715 35.8088 302.792 35.93 302.903C35.8859 302.881 35.8639 302.837 35.8308 302.826C35.8749 302.87 35.908 302.903 35.9741 302.947C36.1615 303.068 36.3379 303.112 36.5364 303.145C36.6576 303.167 36.8009 303.189 36.9222 303.189H37.4293C37.6718 303.189 37.9143 303.189 38.1569 303.211C38.5206 303.211 38.8844 303.233 39.2482 303.255C39.3915 303.255 39.5569 303.278 39.6892 303.3C39.9096 303.3 40.1301 303.322 40.3727 303.322C41.0782 303.366 41.7947 303.399 42.5003 303.421C42.7648 303.421 43.0294 303.421 43.305 303.399C44.0326 303.333 44.7712 303.255 45.4767 303.178C46.083 303.112 46.6783 303.002 47.2736 302.87C47.9791 302.704 48.6846 302.55 49.4012 302.374C50.2279 302.153 51.0658 301.866 51.8705 301.569C52.0359 301.503 52.1792 301.448 52.3114 301.381H52.2894C52.8516 301.161 53.4249 300.94 53.965 300.632C54.2296 300.466 54.5162 300.312 54.7698 300.125C54.9902 299.959 55.1997 299.805 55.4202 299.64C55.3761 299.662 55.354 299.706 55.3209 299.717C55.7068 299.408 56.0926 299.111 56.5005 298.802C56.6989 298.636 56.9084 298.493 57.1068 298.317C57.2942 298.151 57.4485 297.997 57.6139 297.81C57.8013 297.622 57.9777 297.446 58.1651 297.259L58.2092 297.214C58.4186 296.983 60.3478 294.944 60.7226 294.414C60.7888 294.326 60.8218 294.238 60.8218 294.128C60.877 293.268 60.2045 265.719 60.1824 264.319V258.146C60.1824 257.231 60.1825 256.338 60.1384 255.434V255.622C60.0943 253.781 60.0943 251.94 60.0391 250.11C59.973 248.555 59.9179 246.99 59.8517 245.413C59.8076 244.322 59.8076 243.231 59.7856 242.128C59.7415 241.015 59.7084 239.902 59.7415 238.81C59.7415 238.402 59.7856 237.983 59.8076 237.576C59.9069 235.735 60.0722 233.894 60.1935 232.064V231.942C60.2706 230.807 60.3368 229.671 60.3809 228.525C60.425 227.345 60.5242 226.177 60.5683 224.997C60.6124 223.84 60.6344 222.704 60.6675 221.558C60.6675 221.007 60.7116 220.467 60.7336 219.915C60.7336 219.309 60.7777 218.725 60.7998 218.108V218.063C60.9211 216.641 61.0423 215.23 61.1636 213.808C62.4203 201.781 63.3353 189.732 64.8676 177.738C65.1762 176.217 65.3306 174.685 65.4739 173.163C65.4739 173.163 65.4298 173.141 65.4298 173.119C63.7872 171.014 61.6596 169.316 59.6974 167.508C56.1698 164.774 52.6532 161.996 48.9271 159.549C44.8814 157.002 40.7254 154.61 36.5915 152.174C33.1741 150.19 29.8229 148.106 26.4496 146.078V146.034C26.4496 145.968 26.3834 145.957 26.3503 145.912C26.2842 145.846 26.207 145.835 26.1519 145.791C26.1078 145.769 26.0527 145.747 26.0086 145.725C26.0086 145.725 25.8653 145.648 25.7881 145.626C25.7881 145.626 25.6889 145.582 25.6448 145.56C25.5456 145.516 25.4464 145.461 25.3582 145.416C25.3141 145.416 25.281 145.372 25.2149 145.35C25.1488 145.306 25.0936 145.273 25.0275 145.229C24.9503 145.163 24.8621 145.13 24.7629 145.064C24.6196 144.964 24.4542 144.876 24.322 144.799C24.0133 144.601 23.7377 144.413 23.429 144.248C23.3519 144.204 23.2637 144.171 23.1865 144.127C23.1424 144.105 23.1093 144.06 23.0652 144.049C22.9991 144.005 22.922 143.983 22.8668 143.95C22.7676 143.884 22.6463 143.829 22.5471 143.785C22.47 143.752 22.4148 143.697 22.3267 143.664C22.3046 143.642 22.2715 143.631 22.2164 143.631C20.5187 142.782 18.777 141.988 16.9911 141.282C16.8037 141.183 16.6053 141.095 16.4069 141.018C16.0982 140.897 15.8005 140.797 15.5139 140.698C15.2273 140.599 14.9517 140.5 14.6871 140.379C14.3785 140.279 14.0808 140.18 13.7722 140.07C13.6289 140.026 13.5076 139.993 13.3643 139.949H13.3202C13.1328 139.871 12.9564 139.783 12.769 139.728C12.5816 139.662 12.3832 139.629 12.2068 139.585C11.865 139.464 11.5233 139.342 11.1705 139.265C10.8839 139.188 10.5863 139.122 10.2997 139.067C10.0351 138.99 9.77052 138.923 9.50595 138.868C9.19728 138.791 8.89963 138.769 8.59097 138.703C8.39253 138.659 8.16104 138.626 7.96262 138.604C7.77521 138.582 7.57678 138.56 7.40041 138.56C7.23505 138.56 7.0807 138.538 6.93739 138.516H6.87125C6.67282 138.493 6.46336 138.471 6.26494 138.449H6.2429C6.0555 138.449 5.87912 138.383 5.69171 138.372C5.47124 138.306 5.25076 138.273 5.0854 138.229C4.96414 138.229 4.82083 138.185 4.67752 138.163C4.61137 138.163 4.55624 138.119 4.4901 138.097C4.41293 138.141 4.32475 138.163 4.29169 138.218C4.07121 138.482 3.972 138.802 3.86176 139.111C3.59718 139.838 3.37671 140.588 3.1893 141.316C2.99088 142.109 2.84756 142.914 2.74835 143.708V143.73C2.68221 144.281 2.62709 144.799 2.60504 145.35C2.56094 146.034 2.56094 146.706 2.4948 147.357C2.4066 148.172 2.31842 148.988 2.34045 149.804C2.35149 150.454 2.30739 151.105 2.30739 151.755C2.26329 152.218 2.23022 152.692 2.18613 153.155C2.18613 153.232 2.18614 153.32 2.16409 153.398C2.09795 153.982 2.06488 154.577 2.04283 155.184C2.02078 155.713 2.02077 156.253 1.99873 156.782V156.947L2.02078 156.98Z" fill="#2C2C2C"/>
        <path d="M51.3755 158.967C51.3755 158.967 51.3534 158.967 51.3314 158.945C51.3314 158.945 51.3534 158.945 51.3755 158.967Z" fill="black"/>
    </g>
    <defs>
        <clipPath id="clip0_411_24468">
            <rect width="174" height="317" fill="white" transform="matrix(-1 0 0 1 174.667 0)"/>
        </clipPath>
    </defs>
</svg>
