<svg xmlns="http://www.w3.org/2000/svg" width="48" height="48" fill="none"><g clip-path="url(#a)"><path fill="#0D0C21" d="M35.148 37.29a.47.47 0 0 1 .306-.403l.444-.126a.775.775 0 0 0 .492-.792l-.348-1.332-.024-.066a.78.78 0 0 0-.792-.492l-.504.12a.47.47 0 0 1-.456-.192l-.198-.264a.47.47 0 0 1-.048-.474l.222-.396a.78.78 0 0 0-.222-.924l-1.176-.69-.06-.03a.77.77 0 0 0-.924.222l-.258.426a.46.46 0 0 1-.414.198l-.144-.024c-.066-.006-.132-.018-.198-.024a.566.566 0 0 0-.624.51c-.012.15.03.3.126.42s.234.192.384.204q.108.01.234.03l.174.018a1.61 1.61 0 0 0 1.458-.774l.432.252-.066.138c-.246.57-.15 1.212.246 1.674l.186.252c.39.486 1.032.702 1.638.546l.132.48-.162.054a1.59 1.59 0 0 0-.996 1.344l-.048.408a1.61 1.61 0 0 0 .774 1.458l-.252.432-.132-.066a1.6 1.6 0 0 0-1.674.234l-.252.192a1.6 1.6 0 0 0-.552 1.644l-.48.132-.054-.162a1.6 1.6 0 0 0-1.344-.996l-.402-.048a1.62 1.62 0 0 0-1.458.774l-.432-.252.072-.144a1.6 1.6 0 0 0-.24-1.662l-.18-.234a.57.57 0 0 0-.984.3c-.024.15.012.3.102.426l.198.264a.47.47 0 0 1 .048.474l-.222.396a.78.78 0 0 0 .222.924l1.176.69.06.03a.78.78 0 0 0 .924-.222l.258-.426a.45.45 0 0 1 .414-.192l.144.024q.099.017.198.024a.47.47 0 0 1 .402.306l.102.378.024.066c.114.3.402.498.726.498h.06l1.332-.348.066-.024a.775.775 0 0 0 .492-.792l-.108-.45-.012-.054a.47.47 0 0 1 .186-.456q.088-.063.168-.126l.108-.084a.47.47 0 0 1 .468-.042l.396.222a.77.77 0 0 0 .918-.222l.69-1.176.03-.06a.78.78 0 0 0-.222-.924l-.426-.258a.45.45 0 0 1-.192-.414l.024-.144q.017-.099.024-.198zm-8.412-.852v-.072q.02-.074.03-.156l.018-.174a1.61 1.61 0 0 0-.774-1.458l.252-.432.144.072c.564.24 1.206.144 1.662-.24l.258-.192c.486-.39.702-1.032.546-1.638l.816-.222h.018l.06-.012a.57.57 0 0 0-.264-1.11s-.042.006-.048.012l-1.242.33-.066.024a.775.775 0 0 0-.492.792l.108.45.012.054a.47.47 0 0 1-.186.456l-.27.204a.47.47 0 0 1-.474.048l-.396-.222a.78.78 0 0 0-.924.222l-.69 1.176-.03.06a.78.78 0 0 0 .222.924l.426.258c.138.096.21.258.192.414l-.024.144a2 2 0 0 0-.024.198.47.47 0 0 1-.306.402l-.444.126a.775.775 0 0 0-.492.792L24.702 39l.018.06c.09.216.3.354.528.354a.5.5 0 0 0 .156-.024l.06-.018a.58.58 0 0 0 .336-.678l-.228-.84.162-.054c.564-.228.948-.75.996-1.344zm6.714-23.4c0-2.136-.732-4.23-2.064-5.892a.607.607 0 0 0-.846-.096.606.606 0 0 0-.096.846 8.17 8.17 0 0 1 1.8 5.142 8.29 8.29 0 0 1-4.56 7.368l-.03-.03a.53.53 0 0 0-.21.186.59.59 0 0 0-.144.696q.02.036.048.072v2.082h-2.76s.012-.042.012-.06v-5.646h.39a2.96 2.96 0 0 0 2.952-2.952 2.96 2.96 0 0 0-2.952-2.952h-1.998a2.96 2.96 0 0 0-2.952 2.952 2.96 2.96 0 0 0 2.952 2.952h.408v5.646s.012.042.012.06h-2.778v-2.55a.56.56 0 0 0-.342-.51l-.024.024a8.21 8.21 0 0 1-4.512-7.35c0-4.542 3.696-8.238 8.238-8.238 1.386 0 2.76.354 3.966 1.014a.6.6 0 0 0 .816-.234.6.6 0 0 0-.234-.816 9.46 9.46 0 0 0-4.548-1.164c-5.208 0-9.438 4.236-9.438 9.438a9.4 9.4 0 0 0 4.968 8.31v3.102c0 .696.258 1.242.726 1.74.144.144.312.276.492.384.018.678.306 1.296.756 1.752.468.468 1.11.756 1.818.756h1.332a2.587 2.587 0 0 0 2.58-2.508 2.4 2.4 0 0 0 .492-.384c.444-.444.72-1.062.72-1.74v-3.09c3.042-1.632 4.992-4.854 4.992-8.322zM21.246 14.76c0-.966.786-1.752 1.752-1.752h1.998c.966 0 1.752.786 1.752 1.752s-.786 1.752-1.752 1.752h-1.998a1.754 1.754 0 0 1-1.752-1.752m4.464 12.786a1.5 1.5 0 0 1-1.044.432h-1.332a1.5 1.5 0 0 1-1.044-.432c-.072-.072-.528-.636-.288-.63h4.08c-.072.24-.204.462-.372.63m1.248-2.136a1.36 1.36 0 0 1-.96.396h-3.99c-.372 0-.714-.156-.96-.402l-.024-.024a1.35 1.35 0 0 1-.372-.858h6.702c-.018.348-.168.66-.396.888"/><path fill="#FED980" d="M32.712 29.916a.598.598 0 0 1-.492-.942 10.01 10.01 0 0 0 1.224-8.898.6.6 0 0 1 .372-.762.6.6 0 0 1 .762.372 11.22 11.22 0 0 1-1.374 9.966.6.6 0 0 1-.492.258zm-10.194 9.905h-.054C13.89 39.03 7.422 31.937 7.422 23.315c0-3.93 1.362-7.656 3.858-10.632H9.942c-.33 0-.6-.27-.6-.6s.27-.6.6-.6h2.7c.24 0 .462.144.552.366a.6.6 0 0 1-.126.654 15.28 15.28 0 0 0-4.446 10.812c0 7.998 6 14.58 13.95 15.312.33.03.576.324.54.654a.6.6 0 0 1-.6.546z"/><path fill="#FED980" d="M12.696 15.786a.603.603 0 0 1-.6-.588l-.054-3.109c0-.33.258-.606.588-.612h.012c.324 0 .594.264.6.588l.054 3.109c0 .33-.258.606-.588.612zm9.834 18.606h-.084a11.07 11.07 0 0 1-6.354-3.168A11.22 11.22 0 0 1 13.5 19.47a.599.599 0 1 1 1.128.408 10.02 10.02 0 0 0 2.316 10.494 9.9 9.9 0 0 0 5.67 2.826.6.6 0 0 1-.084 1.194m14.52-1.261h-.084a.6.6 0 0 1-.48-.396l-.894-2.538a.607.607 0 0 1 .366-.768.607.607 0 0 1 .768.366l.492 1.392a15.27 15.27 0 0 0 2.166-7.878c0-4.032-1.548-7.848-4.368-10.734a.59.59 0 0 1 .012-.846.59.59 0 0 1 .846.012 16.48 16.48 0 0 1 4.704 11.568c0 3.45-1.05 6.762-3.042 9.57a.6.6 0 0 1-.492.252z"/><path fill="#FED980" d="M37.05 33.132a.602.602 0 0 1-.126-1.188l2.598-.552a.602.602 0 0 1 .252 1.176l-2.598.552c-.042.012-.084.012-.126.012m-6.372 4.302a.7.7 0 0 1-.528.03.57.57 0 0 0-.726.354.58.58 0 0 0 .024.438.56.56 0 0 0 .33.288q.296.1.6.102.416.002.804-.186a1.833 1.833 0 0 0-.204-3.378 1.85 1.85 0 0 0-1.398.084 1.84 1.84 0 0 0-.93 1.05.57.57 0 0 0 .354.726c.144.048.3.042.438-.024a.55.55 0 0 0 .288-.324l.018-.054a.69.69 0 0 1 1.254-.03c.084.168.09.354.03.528a.7.7 0 0 1-.348.396z"/><path fill="#EAF5FF" fill-rule="evenodd" d="M41.4 5.441c-.33 0-.6-.27-.6-.6s.27-.6.6-.6.6.27.6.6-.27.6-.6.6m-4.8 38.401c-.33 0-.6-.27-.6-.6s.27-.6.6-.6.6.27.6.6-.27.6-.6.6" clip-rule="evenodd"/><path fill="#EAF5FF" fill-rule="evenodd" d="M41.4 5.441c-.33 0-.6-.27-.6-.6s.27-.6.6-.6.6.27.6.6-.27.6-.6.6M6.6 7.842c-.33 0-.6-.27-.6-.6s.27-.6.6-.6.6.27.6.6-.27.6-.6.6" clip-rule="evenodd"/></g><defs><clipPath id="a"><path fill="#fff" d="M6 3.6h36v40.242H6z"/></clipPath></defs></svg>
