<svg xmlns="http://www.w3.org/2000/svg" width="282" height="164" fill="none"><path fill="#FED980" d="M206.284 124.703c.47-.319.99-.719 1.19-1.268-2.44-.988-5.23-1.507-7.06-3.554-.851.07-4.391 2.765-4.991 1.637-.62.22-1.29.29-1.94.17a9 9 0 0 1-.86 1.518c3.88.199 8.891-.719 11.921 2.226.6-.28 1.17-.439 1.74-.739zm75.219-.269c-.28 27.156-14.142 32.567-39.735 31.859-7.331 3.214-16.462 7.727-24.733 5.591-6.73-2.067-13.601-5.452-19.332-9.166-2.88 2.346-10.291-3.245-13.181-6.35-2.621-1.667-4.801-3.384-5.711-5.631-2.11-5.251.62-11.801 5.791-15.964 1.78-1.098 5.85-.669 7.581-2.756-17.152-.399-18.802-20.866-10.302-31.05-3.33 32.199 17.762 16.783 16.862-7.548-.06-5.8 2.961-15.065 6.471-15.734 3.621-10.593 2.98-8.377 8.971-1.638 2.06 3.774 4.311-2.196 6.171-3.604 4.27-3.984 7.791-11.651 15.732-8.566 1.35.529 2.03.38 3.72 4.113 2.06 4.543 7.271 5.302 10.691 8.626 11.191 7.508 19.172 18.77 25.243 30.372 5.211 6.889 5.781 27.436 5.781 27.436z"/><path fill="#6F479F" d="M203.622 126.921c-.51-.13-.42-.639-.26-1.019-.57.06-1.12-.12-1.61-.409-.711-.369-1.441-.689-2.211-.899-.91-.219-1.82-.439-2.75-.529-.87-.11-1.85-.08-2.61-.569-.21.05-.42.08-.63.12-.07.02-.11.04-.14.09-.07.199-.13.439-.11.649.02.06.03.1.07.15.07.109-.09.209-.16.109-.2-.289-.07-.639 0-.958.11-.35.54-.34.82-.459-.03-.36.29-.51.6-.53.3-.079.8-.139.77.31.68.12 1.38.11 2.06.21.95.129 1.89.329 2.82.589.94.239 1.751.828 2.651 1.108.19-.909 1.78-1.208 1.81-.06.03.539-.26 1.048-.45 1.528-.11.319-.28.649-.67.569"/><path fill="#0D0C21" d="M241.079 23.186c0 10.443-11.521 34.375-21.722 25.27-1-.9-1.4-1.858-.74-3.026 2.65-4.682 7.591-10.453.13-13.558-7.171-2.995-12.992 16.314-12.802.918.13-16.303-21.082-1.617-19.642-13.827.01-.08.02-.17.04-.25 5.111-25.649 54.676-22.903 54.746 4.473z"/><path fill="#fff" d="M227.137 54.106c-6.161 6.959-11.301 12.76-11.301 12.76s-5.231-4.553-10.532-10.304c-1.81 2.835-9.931 1.997-7.17 4.563 4.14 2.366 2.29 6.39-.07 27.905-1.761 9.714-2.831 13.069-4.521 15.625-6.351 6.489-9.961 5.012-11.141.14-2.15-8.916 2.17-29.184.96-32.818-2.88-4.852-7.431-6.15-.49-13.478 1.75-1.847 1.9-6.03 4.35-5.462 2.451.57-1.63-4.203-.17-6.01-5.72-5.76 1.89-2.396-.01-13.848-.45-2.695.5-7.647 1.29-8.436 11.582-.2 19.173-2.286 17.632 13.898 3.981 2.436 3.631-5.571 8.441-6.5 4.561-.879 9.011 1.617 8.511 6.21-1.78 4.163-5.37 7.738-3.99 9.715 4.15 2.496 5.21 3.174 8.211 6.03zm-40.915 69.917c0 .24-.22.43-.46.4-.02 0-.04 0-.07-.01-.15-.03-.34-.09-.51-.17-.08.29-.39.389-.62.539-.6.38-1.14.829-1.66 1.318-.6.559-1.16 1.168-1.7 1.787-.831 1.188-1.421 2.516-2.031 3.824-.83 1.657-1 3.445-1.16 5.262-.01.589-.52 1.048-1.06.629-1.68-1.648-3.64-2.936-5.661-4.124a60 60 0 0 1-3.61-2.556c-1.12-.948-2.25-1.887-3.31-2.895-.61-.599-1.19-1.218-1.831-1.787-.46-.469-.97-.879-1.46-1.318-.6-.519-1.1-1.138-1.7-1.667a54 54 0 0 1-2.82-2.626c-.22 0-.37-.19-.54-.3-.19-.12-.38-.239-.58-.339-1.27-.559-2.521-1.148-3.681-1.907l-.81-.509c-.23-.17-.57-.29-.65-.589-1.29-.14-2.68-.25-3.9.269-.69.38-1.35.819-2.101 1.069-.47.219-1.07.169-1.04-.47.41-.838.96-1.627 1.48-2.416.691-1.028 1.321-2.096 1.971-3.155-.19-.349.21-.769.43-1.078.63-.909 1.44-1.667 2.04-2.596.25-.389.51-.769.94-.988.53-.36 1.02-.819 1.64-1.019 1.77-.149 3.521.559 5.021 1.438 2.2 1.238 4.44 2.356 6.721 3.415 1.84 1.018 3.46 2.406 5.38 3.304 1 .519 1.93 1.128 2.851 1.757.24-.179.63-.109.9.08 1.11.599 2.29 1.029 3.44 1.528.69.299 1.31.769 2.03.988.17.04.32.15.41.3.74.469 1.42 1.048 2.151 1.537.92.549 1.78 1.208 2.68 1.787q.21.135.45.27c.25.07.5.14.76.19 0-.02.02-.05.04-.08.06-.08.18-.1.26-.03.1.09.2.18.3.259.14 0 .27.15.22.29.34.05.79-.07.83.419z"/><path fill="#fff" d="M179.02 105.564c.07.189.15.389.22.579.47 1.178.95 2.396 1.75 3.394a12.76 12.76 0 0 0 5.711 3.984c-.03 2.766.23 5.531.8 8.227.19.649 1.15.379.99-.27a32 32 0 0 1-.6-3.404 41 41 0 0 1-.35-4.303c.27.07.55.139.82.189 1.35.23 2.73.23 4.1.26 2.08.09 4.101-.399 6.011-1.198.71-.28 1.41-.559 2.09-.889.44 1.508.82 3.035 1.15 4.563.13.679.26.938.38 1.607.02.13.08.25.19.33.33.279.9-.04.82-.469-.11-.55-.22-.689-.33-1.248-.26-1.368-.65-2.716-1.01-4.064-.11-.389-.22-.779-.35-1.168q.435-.24.84-.509c2.161-1.328 4.011-2.856 5.201-5.112.33-.579-.17-1.558-.5-.998q-.255.447-.54.878c-1.41 1.957-3.261 3.554-5.351 4.743-.07-.18-.13-.35-.21-.53-.6-1.317-1.35-2.555-2.02-3.843-.82-1.448-1.61-2.966-2.8-4.154-.2-.14-.42-.399-.69-.339-.18.04-.22.299-.06.399.16.11.29.25.42.39 1.17 1.477 1.98 3.194 2.83 4.872.6 1.198 1.27 2.366 1.72 3.644-.58.289-1.18.549-1.79.779-1.25.519-2.53.978-3.871 1.188-1.26.159-2.53.1-3.8.07-1.11 0-2.21-.14-3.27-.44 0-1.198 0-2.416.24-3.594.38-.279-.05-.829-.41-.539-.23.2-.29.569-.35.859-.09.449-.15.888-.19 1.347-.04.559-.08 1.119-.1 1.688-.28-.1-.571-.21-.841-.34a11.8 11.8 0 0 1-4.81-3.834c-.63-.968-1.05-1.986-1.54-3.065-.06-.139-.13-.289-.19-.429q.705-1.468 1.56-2.845c.07-.14.65-1.029.62-1.199-.02-.079-.11-.099-.17-.059-.06 0-.12.039-.12.109v.03c-.66.769-1.46 1.937-2.2 3.225-.41-1.018-.75-2.057-.95-3.145-.05-.269-.1-.529-.14-.799-.02-.079-.11-.14-.19-.119-.08.02-.15.09-.15.169.13 1.548.56 3.055 1.08 4.513-1.06 1.957-1.941 4.094-2.011 5.591 0 .579.871.629.931.06.09-1.507.61-2.865 1.17-4.283.07-.18.15-.349.23-.529zm21.075-15.356c.03-.38.03-.4.12-.769.43-1.857.87-3.724 1.35-5.57.36-1.338.84-2.636 1.29-3.944.04-.17 1.03-2.726.38-2.277-.67 1.797-1.6 3.505-2.21 5.322-.53 1.507-.93 3.055-1.36 4.593-.21.968-.42 1.567-.46 2.565 0 .61.81.66.88.07z"/><path fill="#fff" d="M281.253 131.223c-.11-.06-.06-.23.02-.38-.31.32-.64.619-.97.909-1.31 1.118-2.681 2.166-4.071 3.195-.26-2.906-.61-5.801-1.12-8.666-.49-2.716-.94-5.442-1.6-8.117l-.06-.22c1.58-1.098 3.13-2.246 4.61-3.484a14.4 14.4 0 0 0 1.741-1.668c.14-.169.29-.359.35-.579a.53.53 0 0 0-.29-.609c-.31-.14-.02-.379-.73.38-.35.449-.771.828-1.181 1.218a61 61 0 0 1-4.76 3.674 108 108 0 0 0-3.11-9.775c-1.241-3.334-2.641-6.599-4.141-9.824.41-.36.82-.729 1.22-1.108 1.98-1.907 3.541-3.654 5.521-5.551.2-.19-.15-.4-.35-.6s-.34-.249-.54-.05c-.44.43-.44.49-.87.93-1.801 1.826-3.551 3.693-5.441 5.41a275 275 0 0 0-3.38-6.888c-2.191-4.194-4.821-8.127-7.271-12.17l-.07-.11q.42-.675.81-1.378c.59-.959 1.17-1.927 1.57-2.986.19-.429.52-1.078-.11-1.297-.31-.09-.6.14-.66.439-.21.509-.42 1.018-.64 1.517-.51.929-1.07 1.817-1.59 2.736-1.36-2.057-2.841-4.044-4.111-6.16-.8-1.348-1.54-2.746-2.55-3.954-1.15-1.308-2.58-2.336-3.94-3.404-.751-.62-1.611-1.069-2.451-1.548-.18-.17-.51-.1-.55.16-.02.36.39.48.63.679.32.22.65.42.96.639a48 48 0 0 1 3.881 3.255c1.77 1.697 2.68 4.033 4.03 6.03.95 1.497 1.991 2.925 2.981 4.393.18.28.36.559.55.848-1.19 1.758-2.761 3.225-4.291 4.693-1.22 1.188-2.51 2.296-3.83 3.374a58 58 0 0 0-1.12-2.006c-2.951-4.952-6.011-9.835-9.381-14.507-.7-.909-1.341-1.867-2.001-2.805a65 65 0 0 0 3.791-4.503c.63-.869 1.26-1.648 1.77-2.606.26-.51.5-1.029.78-1.528.21-.429.71-1.108.08-1.417-.57-.22-.74.419-.93.808-.27.5-.53 1.009-.77 1.518-1.43 2.506-3.41 4.732-5.311 6.919-.32-.44-.66-.869-1.01-1.278-1.26-1.478-2.75-2.726-4.27-3.924-.74-.629-1.53-1.198-2.271-1.827-.09-.08-.17-.17-.28-.21-.22-.07-.44.14-.41.36.14.38.49.629.77.908.711.65 1.421 1.298 2.141 1.937 1.23 1.039 2.43 2.127 3.48 3.335.42.47.8.978 1.17 1.488-3.58 4.043-7.521 7.777-11.571 11.351-.18-.23-.37-.459-.56-.679-1.17-1.248-2.48-2.356-3.671-3.584-.71-.659-1.3-1.517-2.21-1.917-.26-.12-.74-.04-.65.33.03.12.16.21.29.19.06 0 .12.02.18.04.7.439 1.17 1.147 1.74 1.736.59.63 1.181 1.248 1.781 1.867.85.83 1.68 1.698 2.41 2.636a196 196 0 0 1-6.681 5.531c-.17.17-1.76 1.189-1.35 1.388 2.03-1.138 3.87-2.705 5.741-4.123.92-.719 1.83-1.458 2.73-2.207.08.12.17.24.25.37a24.4 24.4 0 0 1 2.23 3.195c.38.499 1.15-.03.84-.57-.67-1.138-1.15-1.816-2-2.815l-.6-.779a164 164 0 0 0 6.041-5.411c1.98-1.807 3.82-3.764 5.63-5.74.28.409.57.828.86 1.237 3.291 4.453 6.311 9.106 9.161 13.858a87 87 0 0 1 2.371 4.103c-2.751 2.157-5.661 4.144-8.531 6.14-1.06.74-2.141 1.468-3.231 2.177q-.12-.422-.24-.829c-.95-3.304-2.05-6.569-3.38-9.744-.62-1.448-1.22-2.935-2.12-4.233-.27-.38-.62-.69-.94-1.018-.06-.07-.11-.11-.14-.22.07-.14-.14-.28-.25-.17-.1.1-.06.25-.02.37.16.389.49.668.71 1.018.89 1.418 1.43 3.015 2.04 4.573 1.36 3.534 2.48 7.148 3.51 10.792a206 206 0 0 1-6 3.694c-2.741 1.678-5.511 3.325-8.421 4.713-.55.259-1.09.539-1.651.769-.2-.679-.41-1.368-.62-2.047-.12-.36-.08-.05-.27-.38.19.33-.18-.299-.35-.329-.25-.04-.35.329-.14.419.32.559.27.519.45 1.148.12.47.24.929.35 1.388-.34.12-.71.21-1.07.31-.09.03-.18.06-.24.139-.06.09-.01.21.09.22h.01s.04.03.06.03c.03 0 .05 0 .07-.01.41 0 .81-.07 1.2-.16.01.04.02.08.03.13.75 3.175.76 6.42 1.001 9.675.12 1.417.27 2.825.42 4.233-1.001.1-2.001.11-3.001.11-1.29-.01-2.59 0-3.87-.23-.33-.329-.87.18-.54.519.42.31 1.02.28 1.52.39 1.3.159 2.61.169 3.91.189q1.035 0 2.071-.09c.25 2.257.49 4.513.61 6.8v-.03c.22 3.744.3 7.498.44 11.252-.56.069-1.12.139-1.68.199-2.941.35-5.921.579-8.891.499.02-1.218 0-2.426-.06-3.644-.061-1.637-.241-3.255-.481-4.872-.18-1.038-.27-2.117-.71-3.075-.2-.699-.84-1.518-1.06-1.657-.17-.09-.38.1-.32.279.09.24.64 1.188.9 1.707.33 1.079.39 2.227.53 3.335.15 1.378.27 2.766.3 4.143.04 1.248.04 2.496 0 3.754a35 35 0 0 1-3.08-.289c-1.75-.23-3.42-.779-5.101-1.308-.18-.05-.88-.26-.84.09v.02l-.18.18c.67.079 1.561.219 2.201.439.96.399 1.95.709 2.95.958 1.32.31 2.67.47 4.02.559-.09 2.686-.33 5.362-.64 8.028-.23 2.026-.48 4.043-.79 6.06-2.5-.11-5.24-.39-7.551-.539-.11 0-.2-.01-.29.04-.05.03-.07.08-.09.129-.03.09.02.19.11.2.07 0 .13-.03.16-.09a86 86 0 0 0 7.571.879c-.03.22-.07.439-.1.659-.14.818-.21 1.637-.33 2.456-.05.279.17.539.44.579.59.07.62-.579.65-.998.06-.52.12-1.049.2-1.568.06-.349.11-.709.16-1.058.83.05 1.631.08 2.411.09 1.77.059 3.55-.08 5.31-.24 1.56-.14 3.131-.3 4.691-.459 0 2.855-.06 5.711-.17 8.566 0 .28.24.519.52.519s.51-.229.52-.519c.02-1.657.1-3.315.15-4.972.02-1.228.03-2.466.03-3.694.86-.08 1.72-.17 2.58-.24 4.721-.299 9.461-.499 14.142-1.258 1.55-.279 3.09-.589 4.63-.928.05 1.318.08 2.646.03 3.973-.03.759 0 .959-.13 1.708-.11.299 0 .659.34.748.85-.748.67-.439.77-1.158.12-1.817.08-3.634.02-5.451v-.04c4.011-.918 7.981-2.007 11.932-3.155a92 92 0 0 0 6-2.027c-.01.25-.03.49-.04.739a76 76 0 0 1-.76 5.811c-.21.809-.85 2.895-1.03 3.714-.08.27.09.559.36.639.8.11.67-.819.9-1.448.35-1.098.95-3.524 1.08-4.672.29-1.717.451-3.455.521-5.182a72 72 0 0 0 4.7-2.037c2.91-1.417 5.681-3.105 8.401-4.852.46-.299.91-.609 1.36-.918.06 1.038.12 2.086.22 3.125.1 1.887.2 3.774.11 5.66 0 .49-.35 1.278.36 1.418.28.04.54-.16.58-.439.1-.689.12-1.388.13-2.087.02-1.507-.05-3.015-.14-4.522-.08-1.288-.17-2.576-.27-3.854 1.05-.779 2.08-1.578 3.121-2.357.88-.678.78-.579 1.57-1.367.37-.33.76-.829.24-1.208h-.02zm-8.991-13.728c-.81.549-1.62 1.078-2.44 1.607-2.001 1.268-4.031 2.486-6.131 3.594a81 81 0 0 1-4.131 1.927c-.11-.669-.22-1.348-.32-2.017-.43-3.085-1.25-6.09-2.02-9.105-.53-2.107-1.04-4.213-1.68-6.28-.23-.729-.48-1.448-.74-2.166 3.62-2.097 7.121-4.393 10.321-7.079 2.9 6.31 5.421 12.799 7.151 19.529zm-18.182-11.382c.87 2.496 1.48 5.072 2.13 7.628.49 1.967 1.03 3.933 1.46 5.92.35 1.707.59 3.445.87 5.162.01.08.02.15.04.23q-1.56.658-3.15 1.288c-4.961 2.016-9.921 3.963-15.002 5.66-.31-2.406-.7-4.802-1.04-7.208-.5-3.664-1.12-7.318-1.8-10.952.42-.18.85-.36 1.27-.55 3.73-1.607 7.301-3.534 10.891-5.431q2.085-1.108 4.141-2.276c.06.18.13.359.19.539zm-3.901-23.772c1.04-1.018 2.111-1.997 3.051-3.105.32-.37.62-.769.91-1.168.57.898 1.12 1.817 1.66 2.716 1.76 2.885 3.61 5.73 5.181 8.735a227 227 0 0 1 3.69 7.508c-.38.33-.76.65-1.15.959-2.861 2.286-5.931 4.283-9.081 6.12-1.1-2.875-2.41-5.68-3.661-8.496-1.25-2.836-2.74-5.561-4.22-8.277-.22-.41-.43-.819-.65-1.218a64 64 0 0 0 4.28-3.754zm-17.022 12.77c2.421-1.558 4.771-3.215 7.131-4.853a104 104 0 0 0 4.801-3.514c.84 1.558 1.66 3.125 2.51 4.672 1.56 2.936 2.85 6 4.21 9.026a101 101 0 0 1 1.731 4.173c-1.12.639-2.261 1.268-3.391 1.877-4.17 2.257-8.371 4.473-12.731 6.34-.29-1.537-.59-3.085-.9-4.622-.87-4.403-2.15-8.756-3.391-13.08.01 0 .03-.02.04-.03zm-17.062 9.335c.751-.25 1.481-.609 2.201-.909 1.7-.759 3.38-1.577 5-2.506 3.011-1.747 6.031-3.494 8.971-5.351.7 2.526 1.37 5.062 2.071 7.588.84 3.294 1.49 6.639 2.1 9.983-.78.32-1.56.629-2.361.929-3.33 1.228-6.75 2.206-10.191 3.095-2.01.509-4.02 1.018-6.07 1.288-.17-1.358-.33-2.716-.45-4.073-.23-2.576-.31-5.172-.76-7.728a27 27 0 0 0-.511-2.316m2.791 28.174c-.13-3.394-.28-6.799-.62-10.183-.1-.999-.22-1.997-.34-2.995 3.01-.36 5.96-1.208 8.891-1.977a82 82 0 0 0 9.801-3.245l.42 2.316c.47 2.576.9 5.152 1.24 7.748.39 2.676.8 5.351 1.14 8.037-.11.04-.22.08-.33.11-6.541 2.126-13.191 4.003-20.002 4.982-.07-1.598-.13-3.205-.19-4.803zm-11.632 20.388c-.35 0-.72 0-1.09-.01.26-1.787.49-3.574.68-5.372.33-2.885.58-5.78.65-8.696a67 67 0 0 0 2.451.07c2.73-.05 5.46-.249 8.171-.579.23 4.583.36 9.175.37 13.768-3.731.409-7.461.909-11.222.819zm27.284-2.267c-4.241.659-8.541.769-12.832 1.119q-1.095.09-2.19.209c-.03-4.592-.22-9.195-.41-13.788 2.5-.339 4.99-.778 7.451-1.328a154 154 0 0 0 12.981-3.644c.15 1.278.29 2.566.41 3.854.35 2.866.65 5.731.71 8.616.05 1.258.12 2.516.18 3.774-2.08.48-4.18.889-6.29 1.188zm13.071-2.885c-1.91.499-3.83.998-5.761 1.458-.11-2.267-.2-4.543-.32-6.809-.17-2.576-.56-5.122-.79-7.688-.06-.609-.12-1.228-.19-1.837a222 222 0 0 0 6.671-2.346c2.1-.759 4.17-1.598 6.251-2.426 1.76-.709 3.52-1.398 5.27-2.137.19 1.148.38 2.306.5 3.464.13 1.568.18 3.145.31 4.723.17 3.235.4 6.509.32 9.754-4 1.538-8.121 2.746-12.251 3.844zm26.623-11.452c-3.56 2.347-7.211 4.583-11.131 6.28-.73.32-1.46.629-2.2.929.08-3.704-.211-7.418-.441-11.112-.05-2.287-.37-4.563-.73-6.839.87-.38 1.741-.759 2.601-1.169 3.27-1.517 6.35-3.414 9.371-5.381.28-.18.55-.359.83-.549.13.519.25 1.048.37 1.577.93 4.593 1.74 9.286 2.23 13.958.05.519.09 1.048.13 1.568-.34.249-.68.499-1.03.748zm-78.078 4.724c-1.07-.16-1.27-.15-2.3-.52-1.28-.459-2.581-.908-3.811-1.507.24-1.238.53-2.456.82-3.684.62-3.115 1.531-6.16 2.791-9.076.35-.808.69-1.627 1.15-2.386.15-.15.19-.369-.07-.389-.33.08-.51.429-.7.689-.27.439-.53.888-.75 1.357-1.601 3.225-2.661 6.67-3.431 10.184-.25.949-.47 1.897-.67 2.855a85 85 0 0 1-5.81-3.324c-1.231-.779-2.451-1.568-3.731-2.267l-.39-.279c-.23-.1-.52.08-.51.339.01.32.76.709.97.879.38.26.79.529 1.21.799 1.97 1.298 3.931 2.615 6.001 3.764.68.379 1.36.758 2.05 1.108-.3 1.557-.55 3.125-.73 4.702-.17 2.007-.36 4.104-.07 6.12.2.659 1.16.36.99-.269-.06-.27-.06-.549-.09-.819-.12-2.755.15-5.521.6-8.237.05-.359.11-.708.18-1.068.92.439 1.86.829 2.821 1.158 1.39.5 1.87.659 3.34.889.88.16 1.02-1.058.13-1.018z"/><path fill="#fff" d="M218.066 93.303c-.98.17-1.981.09-2.961.03-1.53-.08-3.01-.519-4.45-1.028-.28-.1-.58-.22-.91-.36.01-2.605.12-5.211.63-7.787.15-.38.15-.879.31-1.318.07-.28-.3-.47-.49-.27-.13.12-.16.29-.2.46-.1.36-.21.709-.28 1.078a32 32 0 0 0-.6 3.744 57 57 0 0 0-.22 3.704c-1.601-.789-3.371-1.917-4.261-3.015a.3.3 0 0 0 .02-.09c0-.1-.07-.17-.17-.19-.09-.19-.37-.18-.47 0-.14.35.18.68.37.949.91 1.168 2.86 2.436 4.491 3.255l-.03 2.306c-.03 3.085-.06 6.18.03 9.265.1 3.095.1 6.19.13 9.295.03 1.508.16 3.015.15 4.523.03.689 1.02.659 1.03 0 0-.509 0-1.019-.02-1.528-.22-3.834-.11-7.667-.27-11.501-.13-3.794-.12-7.598-.13-11.392v-.56c.14.06.27.11.39.16 1.05.4 2.11.81 3.21 1.029 1.14.24 2.31.31 3.471.35.78.02.34 0 1.11-.15a.5.5 0 0 0 .42-.55c-.14-.688.21-.439-.28-.409zM204.014 76.73c1.111-2.586 2.861-5.032 4.711-7.148.04-.05.08-.1.13-.14.43 1.388.83 2.786 1.32 4.153.04.12.16.22.27.27.37.17.82-.22.69-.609-.15-.45-.31-.879-.47-1.328-.35-1.088-.74-2.196-1.13-3.295 1.14-1.337 2.21-2.585 3.67-3.714.521-.419-.13-1.148-.65-.758-1.37 1.088-2.28 2.266-3.34 3.574-.02-.05-.04-.11-.06-.16-.41-1.138-.91-2.236-1.32-3.374-.17-.45-.31-.92-.53-1.338-.13-.14-.37-.05-.39.13.34 1.886 1.12 3.673 1.67 5.52-1.03 1.268-2.08 2.536-2.92 3.934-.74 1.368-1.591 2.716-2.101 4.183v-.02c-.09.34.41.45.46.11z"/><path fill="#000" d="M163.099 111.514c-.08-.06-.18-.11-.27-.17-.16-.099-.32-.189-.48-.289.06-.28.22-.589.32-.809 0-.02.01-.03.02-.05.02.01.04.03.06.04h.02c.07.05.14.09.21.14.01.03.03.06.06.07.13.08.27.15.4.23l.15.089c-.05.12-.11.25-.16.37a1 1 0 0 1-.23.429c-.03-.02-.06-.05-.09-.07zm-4.76 11.591c-.12-.16-.25-.3-.39-.44a.4.4 0 0 1 .15-.14h.01c.13-.069.28 0 .33.14.02.08 0 .15-.02.23-.02.07-.05.15-.07.22h-.01zm-1.871-1.766c-.13-.11-.26-.21-.39-.309-.12-.09-.24-.18-.37-.26-.03-.02-.05-.03-.08-.05.01-.03.02-.06.03-.08.06.04.11.09.17.13q.36.242.72.469c-.02.04-.04.09-.06.13-.01 0-.02-.02-.03-.03zm.03-.409s.029.019.038.028c-.009 0-.028-.019-.038-.028m4.911-10.543c-.14-.12-.29-.22-.45-.31-.11-.07-.22-.14-.34-.19.11-.259.22-.519.33-.768l.06.04c.1.059.21.119.31.179.03.02.06.03.08.05l-.03-.02s.07.05.11.07c0 0-.02-.01-.03-.02l.36.21c-.12.269-.23.549-.35.819-.02-.02-.05-.04-.07-.06zm-9.38-3.944s-.05-.02-.07-.03c.01 0 .03.01.04.01-.46-.17-.22-.809.24-.669.47.09.33.729-.05.729-.05 0-.11-.01-.16-.04"/><path fill="#000" d="M152.367 106.723c-.58-.16-.53-.839-.12-.989.06 0 .11.02.16.03h-.02c.14.03.29.06.44.07.42.27.24.938-.24.938-.07 0-.14-.01-.22-.039zm45.166-75.201v.02c0-.01 0-.02-.01-.03zm28.252 24.801s.07-.01.11-.02c-.03.04-.06.07-.09.11 0-.03-.01-.06-.02-.09m11.362-1.598c-.12-.14-.26-.26-.41-.38-.07-.06-.14-.13-.22-.18-.03-.02-.05-.03-.08-.05a8 8 0 0 0 1.02-.23l.09.09c.13.12.26.24.38.36.13.12.27.24.4.35-.03.02-.06.03-.08.05-.28.12-.58.21-.88.28-.08-.09-.15-.19-.23-.28zM205.744 3.419s-.05.01-.08.02c.03 0 .05-.01.08-.02m36.094 58.384s.02-.06.06-.06q.06 0 .06.06c0 .03-.02.06-.06.06q-.06 0-.06-.06m.842 1.177s.02-.06.06-.06q.06 0 .06.06c0 .03-.02.06-.06.06q-.06 0-.06-.06m-51.157 59.766c-1.631-.07-3.191-.589-4.731-1.078-2.23-.859-4.18-2.307-6.011-3.804-.79-.689-1.55-1.448-2.13-2.326a15.2 15.2 0 0 1-1.6-3.834c-1.16-4.233-.42-8.686.44-12.91.34-1.727.89-3.414 1.62-4.992.81-1.457 1.71-2.885 2.79-4.153.09-.08.17-.16.28-.21.211-.1.501.09.401.33-.801 1.418-1.731 2.765-2.481 4.213-.67 1.398-1.1 2.906-1.48 4.403-.75 3.784-1.51 7.738-.89 11.592.98 4.862 2.52 6.489 6.551 9.175.81.489 1.61 1.018 2.49 1.378.7.279 1.43.459 2.15.679 1.86.529 3.821.668 5.731.329 1.38-.2 2.74-.549 4.02-1.078.69-.29 1.38-.609 1.951-1.119.73-.529 1.4-1.148 2.09-1.737.32-.219.5-.669.92-.679.45-.02.71.589.37.899-.07.06-.13.13-.19.2-1.22 1.078-2.42 2.256-3.871 3.025-2.3 1.098-4.87 1.727-7.43 1.727-.33 0-.65-.01-.98-.03zM52.886 62.213l.12.06c.04.209.09.409.14.618-.09-.23-.17-.449-.26-.678m101.152 57.637c-.14-.08-.28-.169-.41-.249a.4.4 0 0 0-.09-.05c.07-.1.16-.18.29-.21.31-.1.63.19.58.509-.01.06-.03.11-.05.17-.11-.05-.21-.1-.32-.16zm4.902-11.322c-.11-.04-.14-.169-.1-.269.03-.09.05-.18.08-.27.12.07.24.13.37.19.02 0 .04.02.06.03-.04.07-.09.13-.14.189-.02.08-.11.14-.19.14-.02 0-.05 0-.07-.02zm-14.744 9.845c-.21-.1-.42-.21-.62-.309-.13-.06-.25-.11-.38-.17s-.27-.12-.4-.17l-.11-.03c0-.06.01-.12.02-.17.02-.169.04-.329.07-.499 0 0 .02-.06.02-.08 0-.01.01-.02.02-.03.14.05.27.1.41.16.18.08.35.16.52.24a6 6 0 0 1 .53.279l.09.05c.27.14.54.28.81.43.07.039.13.069.2.109-.04 0-.09.02-.13.03-.03 0-.07.02-.1.03-.08.02-.17.03-.25.05-.17.03-.33.07-.5.11-.06.01-.11.02-.17.04-.02 0-.03-.02-.05-.02zm1.211-4.742-.521-.12c.03-.02.05-.04.07-.069.03-.05.05-.11.08-.16l.06-.12c.04-.06.081-.11.121-.17 0 0 0 .01-.01.02.05-.07.1-.13.15-.199l.06-.09c.1.02.19.05.29.07.29.059.67.189.61.559-.04.279-.26.359-.49.359-.14 0-.29-.03-.42-.07zm1.48-3.275s.02-.03.03-.04c.06-.089.11-.189.17-.279l-.02.04.05-.08-.02.04c.07-.12.15-.24.22-.36.03-.049.06-.099.08-.149.27.12.35.509.13.719-.11.109-.25.139-.4.139-.08 0-.15 0-.23-.02zm3.93-3.315c-.34-.05-.67-.12-1.01-.21 0 0 0-.01.01-.02.04-.06.09-.1.14-.15.09-.089.18-.169.27-.249h-.01c.1-.07.2-.16.3-.23.05-.03.09-.06.14-.09.33.11.63.26.56.639-.04.17-.21.31-.38.31z"/><path fill="#000" d="M142.676 117.924s-.01-.03-.02-.05c.02-.12.03-.24.04-.349.02-.16.04-.34.07-.51v-.01c0-.02.02-.05.02-.069.05-.11.1-.22.16-.32.04 0 .08.02.13.04.13.07.19.25.13.379q-.24.51-.51.989c0-.03-.02-.07-.03-.1zm7.793-11.331c-.01-.15.03-.29.1-.43.04-.02.07-.05.11-.07.06-.039.12-.079.19-.119.02-.01.04-.03.07-.04s.05-.02.08-.03c.04-.02.07-.03.11-.04h-.03c.01 0 .03 0 .04-.01h.04c.03 0 .05 0 .08-.01-.16.21-.31.419-.47.629-.04.08-.12.2-.2.2-.03 0-.07-.02-.1-.07zm4.759.128a.4.4 0 0 1-.16-.339s.03.02.04.02c.11.04.22.08.33.129.09.03.18.06.28.09.04.01.08.02.11.03-.1.09-.21.15-.34.15q-.12 0-.27-.09zm-6.071 11.123-.17-.03c-.03 0-.07-.01-.11-.02h-.12c.22-.29.45-.559.7-.809.05-.05.1-.1.16-.139h.04c.04 0 .07.01.11.01h.1s.05 0 .07.009c.02.03.02.07.01.11-.11.31-.29.619-.46.929-.11-.02-.23-.05-.34-.07zm5.713 2.416c-.15-.08-.3-.15-.45-.22.09-.159.28-.249.46-.169.24.119.26.319.17.499-.06-.04-.13-.08-.19-.11zm5.079-11.373c-.24-.029-.38-.289-.3-.509 0 0 .01 0 .02.01.11.06.22.13.33.18.1.05.2.11.3.16a.37.37 0 0 1-.29.159zm35.655-72.572c-1.26-.809-2.7-1.378-4.211-1.488h-.21c-.58 0-1.2 0-1.66.39-.29.28-.14.469-.05.549.11.08.27.12.47.08.5-.04 1.12-.04 1.64.03 1.271.18 2.461.708 3.541 1.367.07.02.13.04.19.04.46 0 .73-.659.3-.958zm2.1-4.334c-.37-.599-1-.988-1.53-1.428-.95-.668-2.06-1.178-3.221-1.357-.8 0-1.95-.02-2.29.858-.11.27-.23.58-.07.859.22.37.71.3 1.08.32.68.15 1.4.229 2.1.14.721.319 1.481.548 2.191.878.4.17.75.459 1.17.569.46.09.81-.45.57-.839m24.943 18.052s.008.018.017.018z"/><path fill="#000" d="M165.641 113.161c-.731-.33-1.411-.769-2.101-1.189a65 65 0 0 0-6.32-3.344c-1.331-.549-5.021-2.366-6.271-1.648-.21.12-.48-.099-.38-.319 0 .02-.01.04-.02.06v.05a.27.27 0 0 1 .18-.28c1.39-1.128 3.25-.259 4.71.26 2.181.848 4.281 1.897 6.331 3.025 1.47.739 2.81 1.707 4.271 2.436.62.27.22 1.208-.41.949zm-18.554-3.136s0-.01.009-.019l.01-.019zm4.272-4.232h.029c-.01 0-.019 0-.039.01zm-.27.069h.029c-.01 0-.029 0-.039.009z"/><path fill="#000" d="M280.924 113.032c-.27-1.398-.46-2.816-.77-4.203a80 80 0 0 0-2.191-7.868c-1.11-2.975-2.49-5.84-3.98-8.636-1.08-2.087-2.43-4.024-3.731-5.98-1.65-2.357-3.18-4.753-5.01-7a156 156 0 0 1-2.68-3.024c-1.241-1.368-2.621-2.606-3.971-3.854-2.92-2.366-5.72-4.892-8.731-7.129-1.52-1.188-3.19-2.136-4.79-3.215a31 31 0 0 0-1.771-1.098c-.47-.31-1.02-.539-1.59-.529.04-.39-.11-.769-.37-1.308q-.12-.42-.36-.839c-.21-.369-.42-.728-.63-1.088-.24-.42-.5-.839-.76-1.248-.14-.25-.31-.45-.5-.629a7 7 0 0 0-.98-1.108c-.6-.739-1.36-1.338-2.3-1.607-1.341-.37-2.751-.61-4.131-.37-1.4.15-2.67.809-3.89 1.468l-.27.15c-1.1-1.009-2.141-2.087-3.221-3.125 1.691-.07 3.351-.6 4.701-1.618.7-.539 1.47-1.048 2.02-1.747 1.43-1.358 2.69-2.955 3.84-4.403 1.791-2.486 3.121-5.272 4.261-8.107 1.73-3.884 2.3-8.147 2.17-12.38a23.5 23.5 0 0 0-.66-5.192 6 6 0 0 1-.29-.719q-.135-.405-.3-.808v.01c-.08-.2-.16-.4-.23-.6-.03-.09-.07-.19-.11-.279-.13-.31-.28-.599-.43-.899-.04-.09-.09-.18-.13-.27v-.02c-.04-.079-.08-.159-.12-.229-.08-.16-.16-.31-.25-.459-.05-.09-.1-.18-.15-.26-.04-.05-.07-.11-.11-.16-.08-.12-.16-.249-.24-.369-.12-.19-.23-.39-.35-.579a74 74 0 0 0-.98-1.457c-.06-.08-.12-.17-.18-.25-.11-.12-.22-.24-.33-.35-.14-.14-.28-.269-.42-.409-.07-.07-.14-.14-.21-.22-.03-.03-.06-.07-.09-.1-.02-.02-.04-.05-.06-.07h-.02c-1.361-1.167-2.821-2.236-4.311-3.224a32.6 32.6 0 0 0-5.03-2.796l-.06-.02c-.301-.1-.611-.2-.911-.319-.21-.08-.41-.16-.62-.24-.17-.06-.33-.11-.49-.18-.08-.03-.16-.07-.23-.1-.18-.07-.36-.129-.54-.189-.45-.16-.91-.31-1.37-.46-.09-.03-.18-.049-.28-.079l-.2-.06h.01c-.32-.08-.63-.16-.96-.22-.33-.07-.66-.12-1-.18l-.23-.03h-.05c-.12-.01-.23-.03-.35-.04-.38-.03-.77-.05-1.16-.069-.06 0-.12 0-.18-.01-.17-.01-.33-.02-.5-.04-.181-.02-.361-.03-.541-.05-.23-.02-.45-.03-.68-.04-.08 0-.17 0-.25-.01-.34 0-.68-.02-1.02-.03s-.67-.03-1.01-.04c-.32-.02-.64-.04-.95-.04h-.46l-.96.06c-.49.04-.98.09-1.47.14-.5.05-1.01.11-1.51.17-.04 0-.07.01-.11.02h.039c-.06 0-.11.02-.17.02h-.03c-.03 0-.06 0-.08.01h-.03l-.23.03-.97.15c-.24.04-.48.09-.72.14-.5.099-1 .229-1.5.349-.57.16-1.13.35-1.69.539-.67.22-1.35.44-2 .709-.2.06-.39.13-.59.19a23.6 23.6 0 0 0-3.671 1.637 27 27 0 0 0-2.19 1.358c-.88.529-1.71 1.128-2.46 1.847-.3.26-.57.559-.81.868-.27.27-.55.55-.811.829a21.7 21.7 0 0 0-2.49 3.305 18.2 18.2 0 0 0-1.72 3.624c-.22.649-.41 1.308-.55 1.977v.08c0 .11-.02.22-.03.329v.4c0 .219-.02.439-.02.658 0 .12.01.23.02.35-.02 1.148.2 2.296.75 3.334.26.48.62.929 1.04 1.298 0 .23 0 .47-.01.7v.469c0 .06-.01.12-.02.18-.02.119-.04.229-.07.348-.01.08-.03.16-.04.24-.12.899-.31 1.797-.45 2.696a18.5 18.5 0 0 0-.17 4.203c.03.29.07.709.13 1.188 0 .02.02.05.02.08 0 .02 0 .03.01.05.05.649.19 1.298.33 1.937.18.639.18 1.058.04 1.458-.37.649-.79 1.258-1.2 1.887-.02.04-.04.08-.05.11-.04.09-.09.179-.13.259-.08.16-.17.31-.26.46 0 .01-.02.03-.03.04 0 0-.02.02-.02.03-.01.019-.02.029-.03.049 0 .01-.02.03-.03.04 0 .01-.01.02-.02.03-.04.06-.08.12-.11.19-.04.06-.07.12-.11.18-.07.12-.14.239-.22.359l-.11.17c-.33.628-.75 1.257-.7 1.986.2 1.148 1.11 1.688 2.17 1.967l-.03.13c-.2.819-.05 1.657.08 2.476.18 1.278.74 2.436 1.47 3.484l.06.06-.21.24c-.54-.23-1.14-.19-1.59.36-.85.768-1.53 1.697-1.96 2.765-.07.22-.19.47-.16.699-.36.38-.71.798-1.01 1.208-.08.15-.26.449-.32.719-.06-.02-.12-.04-.18-.05-.68 0-1.351.878-1.801 1.347-.94 1.269-1.45 2.796-1.89 4.294-.62 1.467-.3 2.316.46 3.624.99 1.547 2.351 2.785 3.511 4.203.62.819.66 1.957.63 2.955-.22 3.115-.69 6.2-1.02 9.305-.33 2.946-.44 5.911-.66 8.876-.09 1.528-.491 6.84-.521 7.269a15 15 0 0 0 0 1.777c.03.609.1 1.208.2 1.807.21 1.258.611 2.496 1.291 3.584 0 0 .01.02.02.02.67 1.058 1.66 1.967 2.89 2.316a4.8 4.8 0 0 0 2.01.13 6.5 6.5 0 0 0 1.72-.519c.09-.04.19-.09.28-.13 1.181-.589 2.201-1.457 3.091-2.426.8-.869 1.49-1.817 2.1-2.825a23.6 23.6 0 0 0 2.31-5.102c.32-.999.58-2.017.77-3.045q.105-.585.18-1.168c.12-.21.15-.53.17-.78.11-1.008.23-2.016.34-3.024l.06-.59c.71.47 1.521.76 2.241 1.239 1.27.898 2.53 1.867 3.43 3.154.83 1.368 1.33 2.896 1.61 4.473.65 3.085.96 6.27 1.19 9.415.04.529.13 1.079 0 1.598a31 31 0 0 1-1 3.384c-.24.729-.62 1.408-1.04 2.047-.4.569-.88 1.088-1.39 1.557-.4.37-1.45.839-.9 1.488.12.11.23.16.34.16.3 0 .57-.31.81-.509.27-.21.55-.41.78-.659 1.35-1.278 2.23-2.946 2.73-4.733.37-1.288.931-2.606.76-3.963l-.03-.38c.171-.269.301-.669.401-.818.54-1.149 1.08-2.307 1.67-3.435.31-.629.65-1.248.93-1.907.32-.609-.58-1.058-.88-.439-.69 1.797-1.62 3.504-2.221 5.341-.22-2.655-.5-5.301-1.03-7.917-.16-.859-.35-1.727-.62-2.566.02-.03.04-.06.05-.09.12-.31-.1-.619-.14-.918-.26-1.188-.67-2.347-.92-3.535-.14-.728-.33-1.437-.42-2.196-.16-1.278-.15-2.576-.22-3.864 0-.1-.01-.19-.02-.29a.55.55 0 0 0 .42-.22c.19-.279.42-.528.63-.788.36-.48.76-.928 1.17-1.358.4-.469.76-.978 1.18-1.437.381-.42.731-.879 1.141-1.278.46.928.88 1.877 1.36 2.795.43.829.97 1.608 1.41 2.426.84 1.129 2.5 4.753 3.72 5.032.09.01.18.02.27.02 1.321 0 2.061-1.507 2.811-2.426.6-.699 1.12-1.468 1.61-2.246 1.32-1.877 2.62-3.774 4.07-5.551 1.15-1.358 2.301-2.716 3.491-4.034 2.59-2.895 5.16-5.8 7.721-8.716 1.17-1.348 2.37-2.666 3.54-4.003.08-.02.16-.07.22-.14.32-.42.65-.819.95-1.248.13-.16.27-.32.4-.48.24-.27.42-.499.56-.698.17.02.35.02.52.06.14.03.19.04.35.11 1.19.668 2.291 1.477 3.431 2.216 3.34 2.057 6.35 4.572 9.321 7.118.88.78 1.84 1.468 2.73 2.257a89 89 0 0 1 3.59 3.404c1.061 1.168 2.081 2.367 3.151 3.535 1.45 1.777 2.73 3.694 4.03 5.58 1.22 1.778 2.441 3.565 3.571 5.402 1.77 3.015 3.26 6.17 4.6 9.385 1.17 3.255 2.12 6.599 2.75 9.994.671 3.824 1.371 7.668 1.511 11.551.15 2.726-.09 5.442-.26 8.157-.15 2.476-.79 4.883-1.421 7.259-.46 1.727-.94 3.454-1.65 5.102-1.72 3.783-4.72 6.968-8.311 9.055-.94.529-1.93.919-2.94 1.298-1.18.459-2.38.898-3.61 1.208-1.771.449-3.521.958-5.331 1.248-2.1.369-4.23.549-6.361.659-1.27.06-2.54-.02-3.81-.1-1.31-.06-2.61-.02-3.921-.14l.33-.209c1.881-1.168 3.741-2.406 5.391-3.894 2.5-2.067 5.201-3.874 7.731-5.891 1.9-1.397 3.53-3.125 4.881-5.052 1.05-1.347 2.14-2.685 3.05-4.133.52-.918.96-1.887 1.39-2.855.95-2.576 1.91-5.182 2.16-7.938.08-.499.17-.988.27-1.487a.533.533 0 0 0-.4-.629.534.534 0 0 0-.63.399c-.11.469-.19.949-.27 1.418-.13.978-.23 1.957-.52 2.895a26 26 0 0 1-1.06 3.385c-.48 1.517-1.16 2.975-1.93 4.363-.88 1.368-1.9 2.626-2.901 3.904-.4.489-.75 1.048-1.15 1.537-.56.659-1.18 1.268-1.79 1.887-1.98 1.727-4.12 3.265-6.261 4.792-.95.759-1.93 1.468-2.87 2.247-.85.649-1.61 1.398-2.49 1.997-1.01.768-2.11 1.437-3.191 2.126-1.55 1.048-3.1 2.097-4.77 2.965-.88.51-1.88.749-2.82 1.129-1.521.639-3.111 1.228-4.661 1.787-1.78.609-3.62 1.038-5.481 1.338-1.41.209-2.87.459-4.31.329a21.7 21.7 0 0 1-5.641-1.008c-1.53-.47-3.08-.969-4.52-1.688-1.69-.679-3.241-1.647-4.891-2.406-2.39-1.148-4.83-2.216-7.031-3.714-.13-.1-.59-.329-.99-.449.1-.509-.05-1.198-.32-2.027-.32-1.088-.6-2.186-.72-3.315-.28-2.835-.07-5.72.55-8.496.27-1.677.79-3.295 1.48-4.842 0 0 0-.02.01-.02 0 0 0 .01-.01.02a57 57 0 0 1 3.401-6.08c.64-.989 1.62-1.648 2.43-2.486 4.641-.779 6.041-8.377 7.421-12.141 1.44-4.982 2.54-10.094 4.15-15.036 1.241-2.985 2.771-5.93 4.721-8.516 1.85-2.306 4.17-4.243 6.471-6.09.57-.39 1.17-.84 1.87-.959.31.03.64-.14.67-.48-.05-.948-1.3-.498-1.84-.219-2.921 1.777-5.511 4.253-7.761 6.81-2.16 2.725-3.751 5.84-5.101 9.045-2.37 7.298-3.69 14.926-6.56 22.074-.49.999-1.001 2.057-1.731 2.916-.92-.43-1.94-.569-2.89-.929-1.33-.559-2.56-1.358-3.83-2.066-.18-.14-.47-.06-.56.149-.18.519.5.789.83 1.039.61.449 1.24.838 1.91 1.198 1.11.778 2.47.958 3.72 1.417-.18.14-.38.27-.59.38-.12.08-.25.14-.39.2a1 1 0 0 0-.48-.679c-.79-.36-1.71-.31-2.55-.46-1.42-.249-2.841-.559-4.271-.788-1.02-.21-2.07-.4-3.12-.37-2.18.25-4.421.19-6.551.859-.46.16-.93.249-1.41.339-1.06-.519-2.14-.998-3.18-1.537-2.701-1.278-5.401-2.536-8.011-3.984-3.301-1.887-6.671-3.664-9.891-5.681-.71-.409-1.41-.848-2.111-1.288-.02 0-.03-.01-.05-.02-.07-.04-.13-.08-.2-.119-.13-.08-.27-.15-.4-.23a.13.13 0 0 1-.06-.07c-.07-.05-.14-.09-.21-.14-.02-.01-.03-.02-.04-.03a65 65 0 0 0-2.52-1.537c-.07-.03-.14-.07-.2-.11l-.33-.18c-.05-.03-.1-.05-.15-.08a2 2 0 0 0-.22-.109c-.19-.09-.37-.19-.55-.29 0 0 .02 0 .02.01-.06-.03-.11-.06-.16-.09a.2.2 0 0 1-.06-.04c-.01 0-.02-.02-.03-.02-.81-.409-1.64-.769-2.5-1.068-.09-.02-.18-.04-.27-.07s-.19-.06-.28-.09c-.11-.04-.22-.08-.33-.13-.02 0-.03-.01-.04-.02H155c-.06-.02-.11-.03-.17-.05-.02 0-.03-.009-.05-.019-.831-.25-1.861-.49-2.651-.4a.5.5 0 0 0-.19-.21h-.12c-.07 0-.13.01-.2.02-.09.02-.19.04-.28.07-.05.01-.09.03-.14.04-.03 0-.06.01-.08.02h-.04c-.04.01-.08.03-.11.04h-.02l-.27.18q-.45.332-.87.709l-.02.02c-.03.04-.05.08-.09.09h-.02c-.57.509-1.12 1.058-1.64 1.617-.07.08-.14.15-.21.23-.09.129-.18.269-.26.409-.03.06-.07.11-.1.17q-.09.167-.18.319c-.07.12-.14.23-.21.35 0 .01-.02.03-.03.04-.05.089-.1.169-.16.259l-.18.27c-.11.169-.22.329-.33.499-.11.18-.23.359-.35.539-.05.08-.111.16-.151.24-.02.04-.04.08-.07.109a.2.2 0 0 0-.04.06c-.02.02-.03.05-.05.08-.04.08-.09.15-.14.23 0 0 0-.01.01-.02-.03.04-.05.08-.07.12-.04.08-.08.169-.12.259 0 0 0 .02-.01.02 0 .04.01.09.03.13-.15.17-.31.36-.46.549 0 .01-.01.02-.02.03-.02.03-.04.06-.07.07-.4.499-.78 1.038-.94 1.548a4 4 0 0 0-.67.858c-.02.06-.05.11-.07.17-.04.09-.09.18-.13.269s-.08.18-.12.26c-.01.02-.02.04-.03.07-.07.18-.12.359-.18.539-.01.11-.03.21-.04.32-.01.099-.03.209-.04.309.03.12.08.22.18.32.26.269.61.349.97.349.03-.02.07-.03.1-.04.06-.01.12-.02.17-.03.02 0 .04 0 .06-.01l.26-.06c.17-.04.33-.08.5-.11.05 0 .09-.02.14-.03.24-.069.49-.119.73-.159h.04c.181-.03.351-.05.531-.07.73-.14 1.39-.2 2.02-.19 0-.01.01-.02.02-.03 0 0 .04-.01.06 0h.26c.04 0 .07 0 .11.01h.07c.03 0 .07.01.11.02.06 0 .11.02.17.03h.07c1.49.18 2.8.759 4.26 1.677.05.02.09.05.14.08.14.08.27.17.41.25.27.14.56.269.831.409.14.07.27.15.4.24.14.09.3.18.44.269.13.08.25.17.37.26.13.1.26.2.39.309.25.21.5.42.75.639.22.19.44.39.65.599.17.17.33.34.47.53.26.209.51.419.7.709.14.199.25.419.33.648l.05.05c2.14 1.907 4.21 3.894 6.371 5.761 2.65 2.197 5.36 4.343 8.231 6.24 1.19.729 2.39 1.468 3.55 2.257a7.45 7.45 0 0 0 1.02 2.895c1.25 1.597 2.95 2.745 4.301 4.263 1.73 1.867 3.63 3.584 5.84 4.872 1.22.809 2.471 1.618 3.851 2.137 1.06.329 2.11.769 3.21.908.15.01.29.01.42.01.79 0 1.28-.179 1.54-.509.52.28.94.699 1.41 1.038.591.48 1.251.859 1.901 1.258 1.78 1.099 3.73 1.887 5.58 2.846 2.451 1.378 5.021 2.556 7.701 3.404a24.6 24.6 0 0 0 7.311 1.318c2.13 0 4.25-.449 6.341-.838 2.36-.569 4.64-1.438 6.891-2.327.87-.379 1.78-.698 2.68-1.008.98-.379 1.88-.928 2.78-1.458.53-.279 1.04-.609 1.54-.948.11.07.25.11.38.07.55-.07 1.12.06 1.671.07.77.05 1.54.04 2.3.05 1.16.02 2.32.139 3.48.149 2.85-.02 5.701-.299 8.511-.808 1.99-.39 3.951-.929 5.901-1.468 1.76-.609 3.55-1.208 5.22-2.047 3.381-1.817 6.261-4.622 8.221-7.917 1.63-2.756 2.351-5.911 3.151-8.976.34-1.407.67-2.825.85-4.263.19-1.847.28-3.704.38-5.561.24-4.333-.31-8.656-1.02-12.929h-.02zm-93.791-90.475c-.19-.3-.28-.66-.39-.989-.02-.1-.05-.2-.07-.3-.2-1.367.08-2.864.48-4.232.07-.33.19-.65.31-.969.02-.07.05-.13.07-.2 0-.02.02-.05.03-.07a11 11 0 0 1 .66-1.497c.06-.14.13-.28.19-.42.08-.169.17-.319.27-.479.11-.18.23-.369.36-.539.11-.16.23-.32.34-.469.12-.17.24-.33.36-.5.24-.328.48-.648.711-.978.04-.06.08-.11.12-.16l.24-.329c.02-.03.04-.05.06-.08.09-.12.18-.23.28-.339l.02-.02c.26-.3.56-.56.85-.829.15-.14.29-.28.44-.409.14-.13.28-.24.43-.36.29-.249.59-.489.89-.738.3-.25.6-.49.9-.73.14-.119.29-.219.45-.329.16-.12.32-.23.49-.349.28-.19.56-.4.85-.59.28-.189.58-.368.87-.538h-.01.01s-.01 0-.02.01c.05-.03.11-.07.16-.1.03-.02.06-.03.08-.04.03-.02.06-.03.09-.05.11-.05.22-.11.33-.15.23-.1.46-.18.69-.27.32-.119.631-.259.941-.379.16-.06.31-.12.47-.18s.31-.11.47-.17h.03c.38-.139.76-.269 1.15-.408.36-.13.74-.22 1.11-.32.4-.11.79-.23 1.2-.32.39-.09.79-.19 1.18-.279.4-.09.81-.17 1.21-.26.42-.09.83-.17 1.25-.25.4-.079.801-.129 1.201-.189.2-.03.4-.06.6-.08.22-.02.44-.05.67-.07.39-.04.78-.07 1.17-.11.2-.02.4-.03.6-.04.19-.01.39-.03.59-.03.23 0 .45-.02.68-.02.19 0 .38-.01.56-.01.42 0 .84.02 1.26.03.21 0 .43.02.64.03h.97c.18 0 .36.01.541.02l.58.03c.19 0 .38.02.57.03s.37.03.56.05c.2.02.39.06.59.11l.54.12c.04 0 .07.02.11.03 0 0 .08.03.12.04l.05.02c1.19.28 2.37.609 3.52 1.028 2.891 1.039 5.581 2.576 8.091 4.333 1.71 1.218 3.361 2.546 4.841 4.044.83 1.088 1.54 2.266 1.99 3.564 1.95 4.733 1.84 10.034.97 15.006-.88 3.644-2.42 7.059-4.23 10.354-1.191 2.106-2.751 3.963-4.421 5.72-1.43 1.558-3.14 2.926-5.161 3.604-1.35.32-2.79.36-4.08-.19-.58-.229-1.11-.588-1.65-.898l-.6-.36c-.63-.648-1.02-1.567-.48-2.385.49-1.019 1.38-1.737 2.13-2.556 1.56-1.827 2.41-3.644 2.19-6.09-.26-2.207-1.64-4.364-3.69-5.302-.81-.37-1.72-.42-2.601-.49-.67-.04-1.34-.06-1.99.06-1.46.19-2.3.85-3.26 1.908-.74.788-1.49 1.567-2.13 2.446-.56.649-1.621 3.824-2.731 2.685-.5-.718-.63-1.657-.64-2.645 0-.03 0-.07-.02-.1 0-.04-.01-.09-.02-.13 0-.11-.01-.22 0-.33.01-.22.03-.439.05-.658 0-.1.02-.2.04-.3.04-.769.09-1.508.03-2.166-.04-.919-.18-1.827-.47-2.696-1.01-3.305-4.43-5.471-7.801-5.591-1.09-.05-2.18.1-3.26.24-1.11.15-2.21.289-3.33.24-1.02-.12-2.101-.1-3.061-.51-.51-.29-1.02-.649-1.36-1.138zm.15 25.779c-.14-.66-.27-1.358-.24-2.067.66.1 1.32.15 1.87.2.74 0 1.671-.17 2.101-.87.18-.199.32-.528.15-.798-.15-.29-.57-.31-.791-.08-.13.13-.23.29-.35.44-.45.27-1 .29-1.51.23-1-.1-2.08-.17-2.97-.72-.25-.23-.52-.519-.41-.878.18-.53.51-.989.76-1.488.3-.619.67-1.218 1.04-1.827.08-.12.16-.23.25-.31.16-.18.32-.359.45-.559.93-1.397.62-2.276.26-3.803a18 18 0 0 1-.09-.45c0-.08 0-.17-.01-.25 0-.06-.01-.12-.01-.169-.16-1.028-.2-2.067-.19-3.095-.04-2.197.78-4.383.49-6.57.36.17.75.27 1.16.27h.4c.971 0 1.931-.1 2.901-.16 1-.06 2-.17 2.98-.429.14-.02.29-.03.43-.05a9.8 9.8 0 0 1 3.691.08c2.29.54 4.45 2.177 5.24 4.433.54 1.457.53 2.995.48 4.523v.25c0 .219 0 .428-.04.648 0 .23-.02.47-.02.699.02 1.178.08 2.476.83 3.435.82 1.068 2.261.768 2.971-.25.28-.38.52-.779.75-1.188.62-1.318 1.61-2.386 2.6-3.435.56-.559 1.07-1.238 1.84-1.497 1.37-.49 2.881-.32 4.291-.11 1.9.47 3.2 2.276 3.64 4.113.22 1.069.11 2.187-.2 3.235-.38.959-1 1.827-1.65 2.626-.69.729-1.47 1.408-1.99 2.276-.92 1.358-.85 2.666.25 3.904 2.43 1.877 4.15 2.077 4.43 2.107.35.429.71.828 1.1 1.218.81.838 1.63 1.677 2.461 2.496-.2.14-.4.29-.58.459-.441.41-.801.889-1.141 1.378-.01.02-.03.03-.04.05 0 0-.02-.01-.02-.02a76 76 0 0 1-3.21 3.724c-1.58 1.547-3.09 3.175-4.561 4.832-.49.579-.97 1.168-1.44 1.757-1.07-1.118-2.03-2.336-3.14-3.434-1.24-1.298-2.53-2.536-3.76-3.854-.681-.749-1.341-1.528-2.091-2.217-.05-.04-.1-.09-.16-.14.91-.638 1.871-1.517 2.671-2.326.14-.14.15-.37.03-.529a1 1 0 0 1-.13-.18.4.4 0 0 0-.64-.06c-.201.23-.411.45-.641.65-.95.878-1.93 1.727-3.08 2.326-.52.22-1.02.47-1.51.739-1.04.459-2.11.748-3.23.998-1.061.23-2.191.49-3.291.37-.51-.04-1.02-.15-1.53-.23-.28-.04-.55-.19-.83-.19-.29-1.108-.83-2.156-1.36-3.275-.17-.37-.36-.828-.58-1.317 2.33-.07 4.41-1.897 4.87-2.467.12-.14.28-.329.44-.509.4-.519-.39-1.128-.79-.609-.42.68-1.88 1.648-1.99 1.717-.89.5-1.89 1.039-2.93 1.009-.51-.999-1.17-1.917-2.041-2.137-.51-.03-.94.2-1.31.51-.02-.02-.03-.04-.05-.06-.63-.919-1.09-1.977-1.25-3.095zm13.552 14.746c-.09-.28-1.42-1.987-2.571-3.085.59-.07 1.161-.22 1.761-.32 1.5-.31 3.01-.718 4.35-1.487.45-.19.89-.41 1.31-.65.28.31.59.6.87.92.47.558.96 1.097 1.46 1.637-.48.499-.79 1.178-1.19 1.747-.6.988-1.15 2.126-1.6 3.215-.14.34-.26.689-.39 1.038-.24.33-.47.669-.71.988-.71.979-1.46 1.937-2.07 2.986-.41.639-.83 1.258-1.22 1.897.3-1.688.58-3.385.73-5.092.11-1.298.06-2.676-.72-3.774zm-7.801-.46c-.14-.14-.28-.279-.42-.429-.08-.11-.18-.25-.3-.37 0-.179-.01-.358-.02-.538-.04-.53-.04-1.068-.09-1.608-.12-.798-.62-1.447-.98-2.136a82 82 0 0 0-2.591-4.203c-.11-.17-.25-.33-.4-.47.06-.04.13-.08.19-.13.26-.21.49-.449.8-.589.17-.07.4-.23.58-.14.47.33 1.381 1.958 1.441 2.067.51 1.129.98 2.217 1.52 3.335.33.739.75 1.478.79 2.306.03.989-.12 1.957-.52 2.896zm-6.751-8.955c1.03-1.348 1.57.28 2.1 1.088.72 1.248 1.46 2.486 2.191 3.724.22.37.45.74.59 1.148.11.42.06.869.09 1.298 0 1.149.18 2.317-.01 3.455-.35-.23-.71-.45-1.111-.59-.02 0-.03 0-.05-.01-.08-.758-.18-1.517-.32-2.276-.12-.838-.6-1.667-1.06-2.376-.48-.888-1.12-1.647-1.74-2.436-.45-.689-1.13-1.498-1.89-1.288.37-.599.72-1.208 1.21-1.717zm-2.74 4.323c.6-.579 1.09-1.288 1.79-1.757.52.38.79 1.018 1.2 1.507.53.61.95 1.288 1.34 1.997.28.5.61.969.79 1.518.21.669.27 1.368.38 2.076.13 1.059.34 2.127.19 3.205-.54-.39-.96-.968-1.52-1.347-.01 0-.03-.01-.04-.02 0-.09 0-.16-.01-.22-.07-.679-.3-1.328-.58-1.947-.2-.54-.31-1.128-.63-1.617-.59-.78-1.39-1.378-2.14-1.997-.35-.32-.72-.66-1.14-.899.13-.16.24-.35.38-.489zm14.131 30.132c-.12 1.427-.29 2.855-.45 4.283-.04.36-.07.709-.11 1.068a.8.8 0 0 0-.11.29v.09c-.03.25-.06.509-.1.768-.11.75-.26 1.488-.43 2.227a23.5 23.5 0 0 1-.98 3.055l-.02.04a21.5 21.5 0 0 1-2.54 4.652q-.585.791-1.26 1.508c-.35.369-.72.709-1.12 1.038-.301.24-.611.46-.931.669a6.6 6.6 0 0 1-1.53.709c-.2.06-.4.11-.61.14-.18.03-.37.05-.55.05-.17 0-.33 0-.5-.02-.16-.02-.31-.05-.47-.08-.14-.04-.29-.08-.43-.13-.14-.06-.28-.12-.42-.2a5 5 0 0 1-.4-.259q-.21-.15-.39-.33a8 8 0 0 1-.41-.439c-.14-.18-.28-.369-.4-.569-.01-.02-.02-.03-.03-.05-.15-.24-.28-.499-.4-.759-.15-.349-.28-.699-.4-1.058-.14-.489-.25-.988-.34-1.488a15 15 0 0 1-.18-2.036v-1.009c0-.229.01-.469.02-.699 0-.19.56-6.988.71-9.315.14-1.957.23-3.943.46-5.91.21-2.287.58-4.553.79-6.83.19-2.376.87-5.26-1.1-7.098-1.01-1.268-2.351-2.416-3.141-3.864-.64-1.028-.75-1.547-.24-2.675.32-.959.69-1.907 1.18-2.786.37-.819.881-1.637 1.631-2.146.54.21.98.588 1.42.958.67.53 1.37 1.058 1.88 1.757.32.49.41 1.078.6 1.617.34.85.56 1.768.61 2.686-1.06-1.288-2.36-2.366-3.63-3.414-.54-.35-1.19 0-1.14.649.03.19.22.35.41.31.22-.03.3-.23.37-.4.42.23.58.739.89 1.088.58.699 1.32 1.238 1.93 1.907.33.32.63.689 1.01.959.54.24.76-.2.84-.75.33.43.68.84 1.18 1.079q.21.12.42.12c.48 0 .93-.44 1-.939.06-.549-.01-1.108-.03-1.657 0-.04 0-.09-.01-.13.01 0 .03.02.04.02.311.17.591.41.951.42h.1c.6 0 .86-.55.93-1.089.07-.37.1-.739.11-1.118.18.19.35.35.45.43.11.06.21.08.31.08.78 0 1.15-1.618 1.27-2.227.17-.77.16-1.488.05-2.177.75.53 1.68.779 2.6.849.46.599.99 1.118 1.5 1.707.63.719 1.231 1.498 1.681 2.346.43.869.36 1.867.31 2.806-.36 3.444-1.12 6.919-1.651 10.353-.63 3.605-.86 7.259-1.17 10.903zm3.381 2.306c-.78-.42-1.67-.649-2.431-1.108.17-1.707.29-3.415.43-5.122.23-3.015.691-6.01 1.201-8.986.02-.04.03-.08.04-.12.38-.768.75-1.547 1.21-2.276.83-1.358 1.62-2.725 2.48-4.063.01-.02.02-.04.04-.05a33.9 33.9 0 0 0-1.03 10.473c.08 1.178.12 2.356.32 3.524.09.44.23.869.3 1.308.14.48.23 1.019.51 1.438-.11 1.388-.24 2.796-.19 4.193.08 1.218.31 2.426.6 3.605-.98-1.129-2.21-2.057-3.49-2.816zm7.691-10.823c-.701.6-1.251 1.368-1.871 2.047-.66.879-1.45 1.647-2.11 2.536-.34-1.288-.6-2.596-.64-3.924-.1-1.347-.16-2.695-.12-4.043.19-5.352 1.52-10.763 4.391-15.336.07 0 .13-.04.14-.11 0-.03 0-.06.02-.09.9.96 1.83 1.898 2.76 2.816.63.68 1.28 1.338 1.9 2.027.59.649 1.13 1.358 1.75 1.967-.76.958-1.52 1.937-2.29 2.905-.9 1.228-1.92 2.376-2.75 3.654-.65.929-1.26 1.917-1.37 3.075a5.65 5.65 0 0 0 .19 2.486zm31.583-19.079c-.14.43-.38.809-.63 1.178l-.09.12a178 178 0 0 1-3.65 4.163c-2.531 2.896-5.081 5.78-7.641 8.646-2.32 2.606-4.671 5.182-6.711 8.017-.66.969-1.37 1.907-2.04 2.876-.41.629-.8 1.278-1.28 1.857-.67.729-1.11 1.677-1.901 2.286-.58.53-.93-.38-1.25-.758-.66-.86-1.14-1.838-1.71-2.766-.97-1.518-1.92-3.075-2.67-4.713-.23-.539-.53-1.048-.77-1.587a.565.565 0 0 0-.24-.609 4 4 0 0 1-.15-.6c-.27-1.956.55-3.094 1.61-4.602 1.83-2.446 3.75-4.842 5.64-7.248 1.721-2.117 3.601-4.104 5.511-6.05.64-.73 1.27-1.468 1.88-2.227q.075-.06.12-.15c.12-.15.24-.31.36-.459.67-.589 1.21-1.308 1.891-1.887a11.4 11.4 0 0 1 2.4-1.537c2.45-1.099 5.5-1.438 7.861.08.22.15.41.329.6.509.02.02.04.04.06.07.12.14.24.27.36.409 0 0 0 .01.01.02l.08.08c.34.41.64.848.95 1.278.24.39.5.818.76 1.238.03.07.05.14.07.21.1.18.19.369.29.549.1.22.22.449.33.669.08.299.08.608-.04.918zm-62.847 76.907a90 90 0 0 0-2.65-1.658c-2.18-1.427-4.261-3.015-6.311-4.622-1.07-.929-2.16-1.727-3.21-2.706-1.41-1.278-2.801-2.586-4.231-3.854-1.57-1.358-2.99-2.895-4.58-4.233-1.73-1.378-3.651-2.656-5.791-3.295-.29-.1-.6-.169-.9-.219h-.03c-.04 0-.07 0-.11-.01-.04 0-.07 0-.11-.01-.03 0-.06 0-.09-.01h-.02c-1.31-.15-2.65.06-3.951.239-.59.06-1.14.37-1.73.39.28-1.109 1.08-1.947 2.05-2.506a5.8 5.8 0 0 1 2.421-1.009c.61-.109 1.1.07 1.66.27.73.15 1.4.489 2.11.719.75.209 1.44.609 2.21.739.28.04.591.149.861.069.04.02.08-.039.06-.079-.12-.18-.21-.4-.371-.55-.24-.229-.55-.319-.86-.459-.84-.479-1.73-.719-2.62-1.108-.4-.17-.81-.27-1.23-.379-.46-.17-.92-.35-1.42-.3a5.7 5.7 0 0 0-2.42.629c.61-.669 1.23-1.328 1.81-2.027.25-.279.49-.559.75-.828.31-.29.68-.909 1.22-.779.37.03.68.22 1.01.359 1.01.41 1.95.969 2.9 1.478.72.369 1.431.749 2.161 1.098.35.22.83.38 1.06-.09a.534.534 0 0 0-.26-.699 2 2 0 0 1-.28-.139c-.35-.17-.7-.34-1.04-.51-1.691-.838-3.291-1.916-5.111-2.456-1.07-.269-1.85.57-2.54 1.248.19-.219.38-.429.58-.639.45-.469.95-.948 1.46-1.417.49-.45 1-.889 1.52-1.308.07-.06.14-.11.22-.15.02 0 .03-.02.05-.02h.03c.04 0 .08-.02.12-.03.04 0 .08-.02.11-.04 2.27.599 4.531 1.328 6.601 2.446.91.49 1.8 1.019 2.69 1.558.04 0 .09.02.13.04.08.05.16.09.24.139a.3.3 0 0 1 .12-.029c.09 0 .17.03.23.089l.16.13c.02.01.03.02.05.04.05.04.1.07.16.11.17.1.33.2.5.289.09.05.18.11.27.17l.12.09c.06.04.13.09.16.16.02.04.02.08.02.12 1.061.669 2.131 1.337 3.211 1.966 3.5 2.057 7.051 4.044 10.631 5.961 1.3.719 2.66 1.318 4.01 1.957 1.391.679 2.791 1.348 4.181 2.017-2.2.609-3.82 2.585-5.021 4.452-.59.929-1.02 1.977-1.44 2.996-.32.748-.64 1.497-.85 2.286-.39 1.248-.64 2.596-.64 3.924zm18.572 15.365c-.89-.06-1.73-.429-2.58-.679-1.39-.419-2.64-1.198-3.851-1.997-1.48-.938-2.97-1.897-4.2-3.165-1.19-1.078-2.22-2.306-3.4-3.384-.901-.779-1.811-1.568-2.551-2.496-.36-.609-2.12-4.173.39-9.245 1.01-2.636 2.491-5.292 4.991-6.779.61-.34 1.27-.5 1.94-.639.04.01.08.02.13.02.11 0 .21-.04.29-.1.52-.1 1.04-.21 1.54-.39.76-.209 1.52-.379 2.301-.459.59-.04 1.18-.05 1.76-.14.77-.02 1.59-.169 2.4-.169.23 0 .45.01.68.039 1.75.22 3.471.6 5.201.929 1.04.24 2.11.26 3.15.499-.68.839-1.65 1.418-2.31 2.277-1.02 1.327-1.83 2.815-2.62 4.293-1.121 1.976-2.101 4.053-2.601 6.28-.45 2.176-.92 4.373-.95 6.609-.03 1.737 0 3.494.39 5.202.19.858.45 1.707.69 2.556.24.988.18.928-.78.948z"/><path fill="#000" d="M211.834 39.708c.2-.1.13-.33.2-.509.42-1.427 1.17-2.845 2.44-3.684.63-.4 1.33-.779 2.08-.858 1.571-.05 3.291.918 3.581 2.555.41 2.027-1.81 4.673-3.671 5.242-.39.09-.86-.03-1.11-.35-.15-.399.02-.848.03-1.257.06-.35 0-.73-.26-.989-.34-.32-1.01-.819-1.36-.26-.14.23-.07.58.19.71.11.05.21.11.31.17.11.05.13.129.11.239-.02.22-.05.44-.07.659-.22 1.108.48 1.937 1.56 2.106 2.431.31 5.501-3.484 5.381-5.77-.02-3.065-3.66-5.032-6.301-3.625a6.07 6.07 0 0 0-2.98 2.806c-.3.609-1.06 2.196-.61 2.785.13.13.37.16.51.02z"/><path fill="#FED980" d="M32.754 151.17v-.13c.02.01.04.03.06.04.03.02.06.03.1.05v.02c0 .02.02.03.02.05-.06-.02-.12-.02-.18-.02zM.84 99.692c.36 11.342-.86 64.966 14.672 63.149 5.26-.619 10.39-1.837 13.281-4.762 4.41.868 9.051.878 13.552 1.088 13.181-.23 35.184-1.877 38.424-7.528s3.96-10.623 4.76-10.064c15.612.579 23.013-21.156 28.094-33.236-2.69-.5-5.351-3.754-11.622-10.863-3.29 3.125-13.351 15.675-12.78 8.047-2.961-13.508-5.482-29.303-15.753-38.967-3.73-3.515-12.681-3.425-17.332-4.324-1.65 1.248-5.14 5.901-11.661 5.671-9.191-.32-12.761-7.797-17.522-2.596-6.01 3.894-13.991 5.591-18.582 11.981-4.44 7-7.01 14.098-7.54 22.424z"/><path fill="#FFF7DB" d="M102.382 96.698c-1.32 1.377 10.071 11.741 11.081 11.092 2.251-4.763 4.111-10.044 7.881-13.878 5.031-4.493 13.732-4.133 16.882-10.593 2.25-4.603.07-5.052.07-5.052s3.331-3.974.48-5.62c1.72-3.515 2.961-7.559.56-6.92 1.951-5.092-5-.589-5.58 1.797-2.881 3.595-19.102 14.248-10.231 3.614 2.96-14.087-4.321-4.712-10.972 6.56-4.84 8.197-9.071 17.512-10.171 18.99zm-75.598 33.585c.41 7.398 5.99 14.786 10.521 20.328 5.911-3.844 8.571-9.915 11.472-12.96 4-5.79 7.45-11.98 11.57-17.681 4.931-5.002 12.332-7.748 14.703-14.906 3.89-7.249 2.46-15.176-3.34-3.804 1.81-4.084 1.61-8.686.1-12.83-4.111-1.927-3.801 7.818-5.311 10.394 1.05-3.585-.73-6.4-1.7-9.745-1.65-5.73-3.531 1.138-3.371 3.704-2.08 8.437-1.12 5.511-1.34-1.198-1.11-6.3-4.26-9.065-4.46-.489-1.36 3.215-6.061 20.258-9.942 13.369.07-10.603-2.32-14.537-4.14-12.89-.78 3.614-2.49 6.89-2.77 13.908.82 4.163 3.77 4.872.51 9.325-4.02 5.321-9.161 9.894-12.492 15.475zm3.57-90.823c-3.43 13.028 14.782 6.05 6.6 13.228-2.54 1.198-2.23 3.754-3.13 5.99-.49 1.209-2.77 3.505-1.55 4.354 8.151 5.59 15.802 5.81 21.653 1.747 4.16-2.896.2-7.538.6-11.482 7.09-1.358 16.152-4.752 13.822-13.977-.26-2.437-2.44-4.493-.07-6.01.3-2.307-2.82-3.366-3.821-5.173-2.31-3.883-3.19-8.456-6.83-11.66-9.412-8.288-11.872-2.297-9.502 7.227.42 5.352-5.11 4.983-8.87 6.37-3.891 1.797-1.841 5.601-1.04 8.666 1.24 3.744-1.531 3.964-3.291.959-.95-2.127-3.45-2.207-4.57-.23z"/><path fill="#0D0C21" d="M4.992 13.383c-2.12 11.99 7.88 12.1 8.03 12.85-4.7 21.754 20.803 36.55 26.334 23.691.12-.639-1.03-.788-1.07-1.587-9.592 2.037-10.582-12.52-4.471-9.984 1.02.42 1.9 1.547 3.33 3.055.35.37 1 .21 1.15-.29 1.08-3.564-4.94-8.506.15-11.042 14.692-1.917 6.341-7.308 9.712-16.723 1.2-2.396 3.49-.699 4.89-.21 1.07-1.038-1.01-2.566-1.53-3.534-5.85-6.77-14.082-5.262-21.523-3.245C23.265-3.16 6.712 2.89 4.993 13.383"/><path fill="#FED980" d="M51.998 24.963c-2.45 4.583 2.68 14.696 7.99 11.122 5.151-3.115-2.52-14.816-7.99-11.122m10.13-4.273c-.71 1.257 1.45 3.843 1 5.97.98 1.547 2.97 2.087 3.9 3.584 1.8 2.047 2.251-1.887 1.46-3.025-1.04-2.815-3.38-6.13-6.36-6.53"/><path fill="#fff" d="m16.624 89.52.02-.03c.23-.26.48-.51.71-.76.35-.379.71-.748 1.06-1.128l2.31-2.486c.65-.709 1.31-1.417 1.93-2.156.32-.38.64-.749.95-1.138.14-.18.28-.36.4-.55.09-.14.2-.309.19-.489 0-.07-.03-.14-.07-.2a.37.37 0 0 0-.44-.11c-.13.04-.26.14-.37.22-.22.15-.42.34-.62.52-.4.359-.8.728-1.19 1.108a94 94 0 0 0-2.23 2.236c-.72.749-1.45 1.498-2.16 2.247-.52.549-1.03 1.098-1.56 1.637-.3.3-.3.799 0 1.098.15.15.36.23.57.23.2 0 .39-.07.53-.22zm2.129 22.643c1.14-.27.46-1.368.35-2.127-.46-2.396-.89-4.792-1.46-7.168-.28-1.498-.21-3.035-.63-4.503-.05-.29-.31-.63-.58-.31-.21.43-.09.939-.1 1.398.03 1.038-.1 2.077 0 3.105.16 1.488.48 2.945.7 4.423.16.969.35 1.927.51 2.895.09.55.22 1.099.36 1.638.07.399.46.699.86.639zm-11.372-2.116c.63-2.586 1.35-5.162 1.88-7.778.16-.868.52-1.727.58-2.605-.35-1.039-1.48 2.086-1.57 2.376-.64 2.096-1.34 4.183-1.92 6.3-.11.409-.22.818-.35 1.228a.75.75 0 0 0 0 .569c.24.629 1.21.569 1.38-.09m5.94 14.996c.38-.05.68-.42.62-.809-.36-2.077-.5-4.183-.89-6.25-.12-.589-.38-1.148-.51-1.737 0-.33-.32-.629-.61-.37-.34.43-.11 1.049-.04 1.538.14.719.17 1.468.22 2.176.09 1.228.18 2.456.29 3.684.04.38.08.769.11 1.149.03.389.44.659.81.609zm.761 13.887a.41.41 0 0 0-.34-.399c-1.71-.939-3.4-1.977-4.91-3.225-.48-.409-1.28.06-1.17.669.03.22.16.409.35.529.39.24.77.499 1.15.749.85.549 1.76.988 2.63 1.498.55.279 2.09 1.248 2.28.179zm5.301-8.437c.33-.079.47-.389.6-.669.2-.399.43-.778.66-1.158.73-1.198 1.46-2.386 2.04-3.664.19-.409.37-.828.62-1.208.06-.14 0-.309-.15-.359-.63-.17-1.01.798-1.34 1.208-.85 1.388-1.83 2.596-2.72 3.943-.18.28-.37.56-.54.849-.33.539.21 1.258.82 1.068zm8.151-16.743c1.27-1.658 2.4-3.435 3.76-5.032 1.1-1.478 2.06-3.055 3.19-4.503.16-.24.37-.469.39-.769.01-.2-.23-.349-.41-.249-.23.179-.42.419-.65.619-1.27 1.238-2.27 2.715-3.42 4.053-.72.769-1.45 1.538-2.06 2.406-.59.819-1.29 1.548-1.86 2.386-.17.22-.23.52-.12.779.18.449.79.609 1.16.31zm45.315-31.579c.12-.04.22-.12.29-.23.08-.15.02-.389-.16-.429-.04-.08-.15-.11-.21-.06-1.53-.908-2.96-1.986-4.441-2.975-1.16-.729-2.51-1.108-3.65-1.897-.36-.23-.71-.46-1.07-.679-.85-.479-1.61.779-.76 1.298.72.41 1.41.879 2.16 1.258 1.04.51 2.17.829 3.15 1.468.97.609 2.01 1.268 3 1.747.53.24 1.09.639 1.69.5m-37.703 8.785a75 75 0 0 0 2.43-4.723c.34-.718.87-1.367 1.09-2.136.05-.25-.21-.48-.43-.31-1.81 1.877-2.87 4.313-4.32 6.45-.47.809.75 1.528 1.24.719zM32.273 76.46c0-.379-.3-.678-.51-.978-.48-.619-1-1.198-1.53-1.777-.99-1.069-1.96-2.147-3.01-3.165-.33-.33-.67-.669-.99-1.019-.22-.23-.35-.579-.69-.658-.7-.2-1.21.689-.7 1.198.67.708 1.43 1.327 2.14 1.996 1.55 1.548 3.18 3.026 4.65 4.653.21.23.65.06.63-.26zm17.583 13.439c.18-.17.24-.44.2-.68-.09-1.747-.39-3.474-.42-5.221a37 37 0 0 0-.36-3.504c-.04-.27-.02-1.119-.48-.79-.36.87-.17 1.878-.22 2.796-.07 1.638-.12 3.275.01 4.912.03.66.02 1.318.02 1.967-.02.63.82.979 1.25.52M80.56 126.41c.39-.35-.24-.819-.39-1.138a72 72 0 0 0-2.72-3.784c-.52-.729-1.08-1.438-1.61-2.177a.67.67 0 0 0-.47-.269c-.62-.1-1.07.668-.67 1.158q1.665 1.947 3.3 3.923c.44.45 1.94 2.796 2.57 2.297zm.21-19.339c.81-1.457 1.91-2.635 2.96-3.873.71-.969 1.44-1.927 2.13-2.916.53-.719-.16-1.447-.76-.669-.83.879-1.59 1.837-2.37 2.766-1.15 1.228-2.31 2.456-3.2 3.884-.58.838.7 1.677 1.24.808m-20.272 31.808c.16-.988.5-1.936.66-2.935.15-.838.24-1.677.41-2.516.24-1.098.52-2.196.67-3.314.03-.17.07-.35 0-.51-.07-.169-.3-.239-.45-.129a.28.28 0 0 0-.15.169c-.19.37-.32.759-.45 1.158-.47 1.468-.95 2.926-1.19 4.443v-.06c-.22 1.159-.66 2.247-.94 3.385-.22.998 1.24 1.308 1.43.29zm19.142 9.935c.2-.239.05-.509-.08-.729-.27-.549-.53-1.108-.81-1.657-1.04-1.987-2.12-3.954-3.341-5.831-.57-.738-1.71.13-1.14.879.6.759 1 1.468 1.5 2.266.8 1.288 1.55 2.606 2.32 3.914.33.469.83 1.837 1.55 1.158m-34.212 7.568c.6-.17.61-1.008.87-1.488.43-1.168.91-2.326 1.3-3.514.17-.479.37-.958.58-1.428.09-.219.22-.499.08-.729-.14-.249-.6-.139-.6.14-.96 1.208-1.38 2.716-2.09 4.064-.31.639-.58 1.298-.93 1.907-.33.519.21 1.218.8 1.038zm20.093-1.347c.05-.09.02-.19-.04-.27-.46-.659-.99-1.258-1.54-1.847-.94-.978-1.88-1.957-2.831-2.935-.45-.479-.93-.928-1.32-1.458-.31-.439-1.07-.239-1.12.3-.07.519.54.819.83 1.118 1.2 1.068 2.36 2.177 3.53 3.265.54.499 1.08 1.008 1.63 1.507.23.16.59.609.85.31zm38.112-30.103c1.02-2.436 1.3-5.122 1.83-7.688.32-1.567 1.14-3.035 1.27-4.642.02-.26-.25-.509-.48-.32-.2.3-.24.689-.4 1.019-.59 1.398-1.28 2.775-1.65 4.253-.35 1.478-.65 2.945-1.09 4.383-.22.739-.4 1.508-.74 2.206-.51.809.71 1.608 1.24.799zm-11.972-5.531c.611-.509 1.301-.898 1.961-1.327.86-.589 1.68-1.228 2.55-1.798.52-.339 1-.828 1.61-.988.11-.01.21-.08.25-.18.07-.139.01-.309-.11-.399-.51-.29-1.12.08-1.59.299-.95.53-1.96.989-2.87 1.608-.89.529-1.83.968-2.68 1.557-.79.579.06 1.778.87 1.218zm3.022-10.324c.89-.369 1.81-.838 2.65-1.278.4-.239.78-.509 1.15-.788.13-.11.3-.21.35-.38.05-.13-.08-.269-.21-.249-.65.189-1.24.549-1.88.768-.81.24-1.57.629-2.41.769-.82.22-.45 1.418.35 1.148zM93.61 138.93c.6-.748.6-1.787.73-2.695.21-1.997.26-4.004.38-6.011-.04-1.068-1.56-.908-1.4.17.04 2.426.02 4.872-.18 7.288-.04.32-.1.619-.15.939-.04.08-.04.18.02.259.09.27.45.24.6.04zm-27.4-69.728c.75-.21 1.35-.699 2.05-.978.74-.33 1.5-.62 2.24-.939.65-.32 1.47-.469 1.89-1.108.07-.11.07-.27.18-.36.05-.03.09-.08.09-.149-.01-.13-.17-.17-.25-.1-.09.04-.2.02-.3.05-1.93.769-3.98 1.088-5.82 2.057-.32.15-.73.16-.93.479-.37.55.23 1.298.85 1.048M13.922 81.003c.39-1.018-1.02-1.188-1.67-1.507-1.43-.51-2.91-.869-4.32-1.458-.6-.36-1.5.03-1.07.789.28.39.85.419 1.25.679 1.13.539 2.36.838 3.53 1.278.72.18 1.74 1.158 2.28.21zm-1.71 80.471c.28-.06.48-.27.62-.509.37-.529.66-1.108.93-1.687.38-.809.84-1.578 1.22-2.387.43-.908.91-1.807 1.39-2.685.26-.46.51-.929.72-1.418.04-.09.08-.19.05-.29-.29-.589-.96.52-1.17.759-1.14 1.418-1.97 3.025-2.95 4.543-.53.859-.85 1.647-1.48 2.396-.51.509-.07 1.458.66 1.278zm9.382-15.995c1.22-.25 2.45-.319 3.7-.309 1.41-.04 2.83-.18 4.23-.38.901-.13 1.821-.309 2.591-.809.16-.099.39-.209.42-.419 0-.15-.18-.19-.26-.1-.23-.03-.46-.01-.68.03-2 .36-4.05.36-6.08.4-1.33-.04-2.65-.04-3.971.139-.38-.01-.73.31-.74.689-.02.43.37.789.79.749zm6.73 12.111c.07-.199-.06-.399-.15-.579-.29-.519-.62-1.008-.96-1.497-.43-.589-.89-1.158-1.29-1.777-.19-.26-.3-.609-.63-.719a.64.64 0 0 0-.8.409.62.62 0 0 0 .09.559c.48.609.98 1.198 1.51 1.777.5.559.98 1.129 1.48 1.698.17.239.61.499.77.109zm-21.753-7.069c1.24-.619 2.31-1.547 3.55-2.166.44-.2.98-.25 1.331-.599.24-.27.07-.739-.29-.779-1.39 0-2.58.759-3.74 1.418-.69.489-1.66.629-2.16 1.347-.52.899.78 1.668 1.31.789zm61.597-27.934c.89-.4.23-1.288-.01-1.897-.69-1.478-1.4-2.955-2.27-4.343-.2-.3-.6-.4-.89-.16-.57.469.48 1.877.67 2.456.37.779.74 1.558 1.09 2.336.33.599.45 1.897 1.41 1.598zM28.225 96.318c.12-.16.13-.38-.01-.54a.4.4 0 0 0-.13-.09c-1.08-.608-2.02-1.447-3.11-2.046-1.25-.779-2.621-1.368-3.761-2.306-.46-.39-1.21 0-1.14.599.05.679 1.79 1.338 2.36 1.677.84.42 1.68.849 2.5 1.298.68.38 1.34.809 2 1.218.37.2.94.6 1.3.19z"/><path fill="#000" d="M55.907 62.902h.07c.27-.05.45-.32.41-.589-.14-.828-.28-1.667-.42-2.506-.23-1.378-.49-2.745-.69-4.123-.06-.01-.12-.06-.13-.12-.05-.25-.09-.51-.12-.759 0 0 0-.05-.01-.07 0 0 0-.06-.01-.09a.12.12 0 0 1-.05-.07v-.02s0-.05-.01-.07c0-.01-.01-.03-.01-.05 0-.069-.02-.139-.03-.209v-.08h-.04l-.02-.01h-.64c.16.919.3 1.847.41 2.786.15 1.118.32 2.236.49 3.355.09.559.18 1.108.26 1.667.06.41.07 1.038.59 1.038h.03-.01zm-16.193 50.499s-.01.02-.02.03c0-.01.01-.02.02-.03m96.032-32.288h.02c.29-.18.59-.37.88-.55.02-.01.02-.03.01-.05s-.03-.02-.05-.01c-.29.18-.59.37-.88.55-.03.02-.01.07.02.07zM24.574 102.608s.06-.03.06-.06-.03-.06-.06-.05c-.03 0-.06.03-.06.06s.03.06.06.06zm75.499 31.84c.38-.2.66-.55.97-.849a19 19 0 0 0 2.391-2.895c.11-.17.21-.36.33-.53.06-.109.28-.319.12-.419a.09.09 0 0 0-.12.07c-.05.16-.19.28-.28.419-.8 1.148-1.891 2.087-2.901 3.025-.24.24-.46.43-.74.62a.29.29 0 0 0-.19.259c-.02.18.14.33.31.33.03 0 .07 0 .11-.02z"/><path fill="#000" d="M102.391 132.051c.54-.609 1.04-1.258 1.35-2.017.02-.03.01-.07-.02-.099-.09-.06-.13.089-.17.139-.38.669-.96 1.188-1.49 1.738-.11.159.01.319.16.319.06 0 .12-.03.17-.09zM54.328 54.886h.62v-.09c0-.02 0-.05-.01-.07a.12.12 0 0 1-.05-.07v-.02s0-.05-.01-.07c0-.01-.01-.03-.01-.05 0-.07-.02-.14-.03-.21v-.05c-.18-.379-.37-.748-.53-1.127-.1.05-.19.1-.3.13-.03 0-.06.02-.09.02h-.01l-.2.03h-.12c.12.379.29.758.38.988.1.22.21.449.31.679h.02zm-19.393.328.06-.03.06-.03.06-.02h.03s0-.04.02-.06c.07-.189.18-.379.32-.529.04-.04.08-.07.12-.11l.09-.06c-.06-.199-.13-.409-.15-.608 0-.08-.03-.17-.12-.2-.23-.08-.37.19-.42.38-.09.419-.11.848-.12 1.267l.04-.02zm13.071-41.593s.03-.03.02-.05c0-.02-.03-.03-.05-.03s-.03.03-.03.05.03.03.04.03z"/><path fill="#0D0C21" d="M13.474 26.67s.08-.03.11-.05c.12-.07.2-.18.24-.31a.48.48 0 0 0-.06-.399.53.53 0 0 0-.31-.24c-.5-.099-.99-.239-1.47-.398-.44-.15-.88-.33-1.3-.53a10 10 0 0 1-1.17-.669c-.35-.24-.69-.489-.96-.719-.03-.02-.06-.05-.08-.07-.29-.259-.56-.518-.82-.808q-.171-.19 0 0s-.05-.06-.07-.08a10 10 0 0 1-.73-.948c-.22-.34-.43-.69-.621-1.049-.19-.38-.35-.768-.49-1.168-.14-.42-.26-.848-.35-1.288-.08-.42-.13-.848-.17-1.278-.03-.459-.03-.918 0-1.367v-.11c.04-.48.1-.949.19-1.418.11-.53.25-1.058.43-1.568a13.5 13.5 0 0 1 1.54-3.095c.36-.529.74-1.028 1.15-1.517.43-.49.89-.959 1.37-1.398.54-.47 1.1-.918 1.63-1.288.32-.21.63-.42.96-.609a15 15 0 0 1 1.93-.968c.301-.13.611-.24.921-.36.34-.12.68-.23 1.04-.32.36-.1.73-.179 1.1-.259.63-.12 1.27-.2 1.91-.25a14 14 0 0 1 1.8 0c.58.04 1.15.12 1.72.23.501.11.981.24 1.461.4.48.17.95.359 1.41.579.41.21.81.439 1.19.689.37.25.72.509 1.06.798.37.32.71.66 1.02.999.02.02.03.04.05.06.16.18.31.359.47.539.08.08.15.17.23.24.08.08.18.179.3.159.06 0 .11-.04.15-.08.09-.13.03-.28-.03-.41a4 4 0 0 0-.2-.409c-.15-.26-.34-.509-.53-.748-.39-.48-.82-.919-1.29-1.328-.34-.29-.69-.55-1.06-.799 0 0-.01 0-.02-.02-1.28-.839-2.74-1.398-4.24-1.687-1.55-.3-3.15-.33-4.72-.12-.31.04-.62.09-.91.15-.02 0-.05 0-.06.01h-.05s-.06.01-.08.02c-.77.16-1.53.38-2.281.649-.76.27-1.49.609-2.21.978-1.38.719-2.64 1.657-3.77 2.726a16 16 0 0 0-2.821 3.574 13.5 13.5 0 0 0-1 2.107 13 13 0 0 0-.82 3.574c-.05.779-.05 1.567.06 2.346.05.39.12.769.21 1.148.1.4.22.799.36 1.188a10.4 10.4 0 0 0 2 3.355s.04.05.05.06.02.03.04.04c.28.31.58.599.85.829.57.489 1.18.928 1.84 1.297.62.35 1.27.65 1.95.879.54.19 1.09.34 1.65.46q.135.03.27 0h.02z"/><path fill="#000" d="M64.427 43.383c2.58-1.278 1.1-4.473-1.35-3.414-1.94.838-.74 4.323 1.35 3.414m-1.33-1.637c-.11-1.218 1.26-1.568 1.67-.39.26 1.158-1.52 1.658-1.67.39m5.871-14.527c-.59-1.957-1.7-3.724-3.14-5.172-.87-.829-1.96-1.517-3.17-1.697-.36-.03-1.12-.18-1.16.33 0 .209.2.279.37.299.1.03.24.19.33.07 2.63.479 4.66 3.454 5.56 5.81.49 1.428.83 2.247-.21 3.535-.23.41.18.829.57.739a.5.5 0 0 0 .2-.1c1.06-1.079 1.17-2.436.65-3.804zm-5.87-1.487c-1.14-.1-2.32.38-2.95 1.358-.02.02-.04.05-.06.08-.4-.56-.85-1.079-1.35-1.548-.14-.13-.28-.25-.43-.37-.64-.558-1.371-1.038-2.131-1.487-.71-.37-1.53-.53-2.32-.35-.36.07-.74.09-1.04.31-.39.22-.69.56-1 .879-.21.2-.42.399-.54.669-.02.05-.05.11-.08.18a5 5 0 0 0-.24.498c-.38.919-.48 1.937-.42 2.856.08 1.158.37 2.306.84 3.375.02.04.04.08.06.13l-.26.06c-.27.069-.55.159-.82.239-1.23.39-2.451.799-3.671 1.218l-3.63 1.258c-1.22.43-2.44.848-3.661 1.278-.34.12-.67.24-1.01.36-.3.109-.61.219-.91.319-.15.05-.29.1-.44.15-.28.1-.55.19-.83.289-.53.19-.73.23-1.26.42-.06.02-.13.04-.19.07-.27.089-.4.419-.29.668.05.13.15.23.27.29.11.05.23.06.34.03h.03c.01 0 .02 0 .03-.01.96-.34 1.6-.54 2.56-.879.43-.16.87-.31 1.3-.47.6-.209 1.2-.419 1.8-.638 1.23-.44 2.46-.879 3.7-1.318 1.2-.43 2.4-.869 3.611-1.308.58-.21 1.16-.43 1.74-.649.57-.22 1.14-.43 1.7-.679h.04c.05-.04.1-.06.15-.08.4.769.89 1.488 1.47 2.137.3.34.61.659.91.898a7.7 7.7 0 0 0 1.51 1.038c.56.29 1.151.51 1.771.61.15.02.29.04.45.05.4.03.82 0 1.21-.1.05-.01.1-.03.15-.04.18-.05.35-.12.52-.2.29-.14.56-.32.81-.529.23-.2.45-.43.62-.689.18-.26.33-.539.46-.828.12-.28.21-.57.28-.87a6.6 6.6 0 0 0 .16-1.776c-.04-1.208-.35-2.386-.83-3.495-.07-.17-.15-.34-.23-.499 0 0 0-.01-.01-.02 0-.01-.01-.02-.01-.02-.02-.03-.03-.06-.04-.08l-.21-.389c.13-.25.29-.47.49-.699.54-.669 1.45-.789 2.25-.819.32.01.82-.13.61-.539-.21-.29-.63-.29-.96-.34zm-2.74 9.674a2.4 2.4 0 0 1-.46.54c-.08.07-.17.14-.26.21-.1.069-.21.129-.31.189-.11.05-.22.1-.33.14-.1.03-.21.06-.31.08-.13.02-.25.04-.38.05h-.44c-.16-.01-.31-.03-.471-.06-.17-.04-.33-.08-.49-.13a9 9 0 0 1-.65-.26 9 9 0 0 1-.67-.38 7 7 0 0 1-.73-.548c-.02-.01-.03-.03-.05-.04-.27-.24-.52-.48-.76-.75a10 10 0 0 1-.8-1.018 10.5 10.5 0 0 1-1.2-2.376 9 9 0 0 1-.33-1.208 7 7 0 0 1-.14-1.008v-.07a6 6 0 0 1 0-.859c.02-.25.05-.489.09-.739.04-.2.09-.399.16-.589.05-.14.11-.29.17-.429.07-.13.14-.26.22-.38.08-.11.16-.219.24-.319.08-.08.16-.17.24-.25.08-.07.17-.14.25-.199.09-.06.18-.12.28-.17.11-.05.21-.1.32-.14.12-.04.25-.07.38-.1.12-.02.23-.04.35-.05.13 0 .26-.01.39 0 .07 0 .13.02.2.02h.08c.18.07.36.13.53.2.58.32 1.18.63 1.71 1.019 0 0-.02-.01-.03-.02-.02-.01-.03-.02-.05-.03.76.499 1.41 1.288 1.93 1.977a7.56 7.56 0 0 1 1.58 3.195c.19.728.37 1.497.39 2.256v.04c-.02.26-.05.519-.1.769a5 5 0 0 1-.15.559c-.06.17-.13.33-.2.489-.06.12-.13.25-.21.37z"/><path fill="#000" d="M54.279 32.99c-.48-.4.72-1.498 1-1.837.65-.729 1.34-1.448 2.19-1.907.26-.15.52-.3.79-.41.62-.22.97.72.35.949-1.38.52-2.37 1.637-3.39 2.656-.27.24-.5.878-.94.559zm-1.4-3.065c-.34-.45.17-1.558.32-2.077.21-.56 1.62-2.516 2.24-1.677.18.26.08.609-.19.759-.45.369-.9.778-1.12 1.327-.14.43-.31.879-.35 1.338 0 .45-.61.66-.9.32zm10.608-6.54c-.19-.25.02-.64.19-.849.21-.27.54-.41.85-.519.64-.19.86.779.19.869-.12 0-.25.02-.37.07-.16.07-.31.19-.39.35-.04.219-.36.279-.48.089zm-.579 3.185a.52.52 0 0 1 .28-.668c.12-.04.21-.12.31-.2.13-.16.35-.2.52-.29.34-.14.86-.429 1.11-.01.31.58-.88 1.199-1.33 1.348-.31.2-.74.21-.9-.18z"/><path fill="#0D0C21" d="M139.717 71.499c.69-1.048 1.02-2.306 1.17-3.544.01-.66.21-1.418-.18-2.007-.15-.22-.36-.37-.59-.45.33-.928.63-1.757-.09-2.605-.81-.839-2.991.489-3.771 1.018-.45.29-.76.719-1.12 1.108-.62.61-1.08 1.348-1.69 1.957-1.46 1.348-2.8 2.826-4.341 4.074-.71.499-1.44.968-2.17 1.427-.8.43-1.66.74-2.43 1.228-.98.51-1.86 1.248-2.93 1.568-.03 0-.06.02-.09.02 1.14-2.057 2.2-4.184 2.82-6.46.27-.898.51-1.837.38-2.775-.05-1.348-.98-3.635-2.58-2.247-1.06.889-1.951 1.967-2.851 3.015-.83.849-1.53 1.817-2.1 2.866-.57 1.058-1.36 1.977-2.05 2.955-.53.759-1.05 1.538-1.58 2.296-1.921 2.666-3.741 5.452-4.811 8.577-.12.359-.23.728-.33 1.098-.05.03-.08.09-.1.16-.08.23-.18.559-.25.778-.21.64-.43 1.268-.72 1.877-.55 1.029-1.07 2.077-1.68 3.075-.34.51-.69 1.009-1.02 1.518-1.25 1.947-2.371 3.984-3.821 5.8a52.3 52.3 0 0 1-7.02 7.019c-.42.36-.88.659-1.32.999-.22.18-.44.369-.66.559-.09.12-.22.2-.34.289 0 0-.02.01-.02.02-.35.3-.7.589-1.07.859-.05.03-.1.07-.14.1-.04-.38-.421-3.644-.531-4.413-.33-2.077-.7-4.153-1.29-6.17-.23-.849-.5-1.697-.84-2.506.26-.35-.1-1.018-.18-1.418q-.45-1.543-.93-3.085c-1.22-3.364-2.39-6.74-3.54-10.134-.74-2.046-1.67-4.013-2.711-5.92-.93-1.887-2.09-3.654-3.39-5.302-.85-1.088-1.82-2.086-2.98-2.845-.74-.54-1.46-1.118-2.261-1.568-1.14-.619-2.41-.908-3.67-1.148-1.37-.26-2.72-.479-4.1-.639-1.801-.23-3.601-.41-5.411-.479-.5-.05-1-.12-1.5-.15-.08 0-.18-.01-.27-.01v-.02h-.04c-.04 0-.08-.02-.12-.04-.01 0-.02-.02-.04-.03-.03-.17-.06-.339-.11-.519-.2-1.108-.45-2.126-.62-3.205-.11-.709-.24-1.417-.31-2.126-.03-.52.05-1.038-.14-1.538-.06-.17-.12-.35-.2-.539l.49-.15c.75-.22 1.49-.429 2.22-.678.31-.11.62-.22.93-.32.33-.11.67-.22 1.01-.34.32-.12.64-.23.96-.359.31-.13.63-.26.95-.38.39-.14.78-.239 1.17-.379.22-.08.43-.16.64-.26.2-.09.4-.199.6-.299.39-.21.77-.43 1.15-.659.39-.23.76-.489 1.13-.758.25-.18.47-.4.7-.62.22-.21.42-.459.58-.648a7.2 7.2 0 0 0 1.27-2.347c.14-.429.24-.858.3-1.298.06-.429.12-.868.17-1.298.04-.429.04-.868.02-1.297-.03-.46-.07-.909-.13-1.358s-.13-.899-.25-1.328c-.11-.42-.24-.829-.36-1.248-.14-.48-.3-.949-.48-1.418-.17-.44-.37-.868-.54-1.318a6 6 0 0 1-.18-.579c.09-.03.18-.07.27-.11.21-.09.42-.21.61-.34.25-.179.5-.409.62-.698.11-.24.13-.51.06-.759-.03-.11-.07-.21-.11-.32-.33-.798-.9-1.467-1.47-2.106a22 22 0 0 0-1.67-1.697c-.57-.52-1.18-.979-1.73-1.518-.06-.07-.13-.14-.19-.22-.07-.1-.13-.21-.19-.309-.04-.08-.07-.16-.11-.24-.03-.08-.05-.17-.07-.25l-.03-.229v-.25c.03-.409.08-.818.03-1.227-.03-.22-.08-.44-.15-.65-.07-.209-.14-.419-.22-.628-.15-.41-.34-.81-.53-1.198-.18-.38-.35-.77-.54-1.139-.4-.808-.91-1.557-1.46-2.276-.27-.35-.55-.699-.84-1.038a9.5 9.5 0 0 0-.86-.939 18 18 0 0 0-2.04-1.687c-.71-.5-1.47-.919-2.25-1.308-.2-.1-.391-.19-.571-.28.05-.27-.1-.609-.2-.828-.2-.43-.44-.859-.69-1.268-.53-.799-1.06-1.618-1.71-2.336-.72-.76-1.53-1.328-2.37-1.837-1.52-1.039-3.21-1.798-4.931-2.447-1.46-.479-3.02-.589-4.55-.559-1.54.09-3.051.43-4.561.72-1.49.319-2.93.788-4.34 1.357-1.14.47-2.13 1.248-3.101 1.997-1.22 1.058-2.34 2.246-3.18 3.634a41 41 0 0 1-2.49 3.644c-.6.839-1.29 1.617-2.14 2.197-1.631 1.048-3.451 1.927-4.671 3.484-1.53 2.037-2.23 5.232-2.56 7.728-.17.968-.33 1.977-.32 2.945.19 3.494 1.15 6.909 2.28 10.204.29.878.71 1.707 1.24 2.476 1.11 1.937 2.67 3.554 4.34 5.022 2.58 2.316 5.43 4.422 8.761 5.47 1.2.4 2.51.76 3.8.76.47 0 .94-.05 1.4-.16l.22-.06h.02c-.27.749-.57 1.577-.78 2.306-.27.899-.63 1.767-.9 2.666a7.3 7.3 0 0 1-.81 1.717c-.34.38-.76.68-1.21.929l-.02.02c-.38.16-.74.37-1.11.499-.89.3-1.68.809-2.43 1.368-.83.599-1.74.948-2.66 1.358-1.42.708-2.94 1.178-4.38 1.827-1.521.778-3.081 1.507-4.561 2.356-1.07.659-2.04 1.477-3.06 2.206-.77.57-1.55 1.108-2.29 1.718a16.3 16.3 0 0 0-2.711 3.025c-1.26 2.076-2.4 4.223-3.32 6.47-.68 1.756-1.5 3.464-2.07 5.26-.55 1.908-.87 3.875-1.121 5.841-.67 4.963-.92 9.974-.66 14.976.31 7.778.62 15.566 1.64 23.283.63 4.842 1.34 9.685 2.53 14.427.64 2.546.94 5.192 1.93 7.628.7 1.797 1.39 3.524 2.37 5.161 0 .18.09.37.22.5.741.619 1.701.928 2.571 1.338 1.25.599 2.18 1.138 3.48 1.138h.22c.17 0 .34-.02.52-.05 2.481-.36 5.031-.469 7.381-1.398a25 25 0 0 0 4.161-2.196c1.19-.699 2.37-1.418 3.5-2.207 1.47-.948 2.77-2.116 4.11-3.245.901-.719 1.731-1.507 2.611-2.256.12-.1.24-.2.36-.31.04 0 .09 0 .14-.02a.48.48 0 0 0 .34-.389 53.6 53.6 0 0 0 8.371-9.365c1.13-1.597 2.33-3.155 3.44-4.762 1.82-2.786 3.511-5.581 5.251-8.397a76 76 0 0 1 2.43-3.953c.56-.859 1.03-1.768 1.61-2.616.3-.46 1.36-1.598 1.47-2.177.7-.549 1.541-.998 2.221-1.527.48-.35.91-.739 1.37-1.109a32 32 0 0 1 2.54-1.567s-.02 0-.02.01c1.81-.869 3.16-2.316 4.601-3.674 1.55-1.588 2.76-3.485 3.79-5.441.76-1.478 1.24-3.066 1.73-4.653.34-1.198.58-2.416.75-3.654.12-1.208.34-2.786-.88-3.505-1.35-.619-2.68 1.308-3.24 2.317-.12.19-.23.38-.35.579.13-.719.21-1.458.23-2.187.06-2.006-.25-4.013-.8-5.95-.17-.62-.37-1.288-.83-1.757-.58-.63-1.54-.58-2.13.01-1.57 1.627-2.03 3.973-2.55 6.1-.05.23-.09.46-.14.679-.21-1.488-.62-2.955-1-4.403-.24-.859-.57-1.687-.93-2.506-.26-.57-.55-1.158-1.05-1.548-.86-.609-1.761.35-2.071 1.119-.54 1.098-.65 2.326-.77 3.524-.07.709-.16 1.418-.26 2.127-.01-.27-.03-.53-.06-.8-.2-1.507-.63-2.994-1.26-4.372-.27-.57-.67-1.048-1.06-1.538-.6-.848-1.47-1.837-2.47-.838-.44.529-.35 1.288-.46 1.926-.14 1.209-.29 2.427-.65 3.595-.56 1.767-1.371 3.434-2.071 5.151-.75 2.147-1.48 4.334-2.42 6.4-.29.559-.53 1.218-.93 1.727-.39.4-.82.749-1.31 1.029-.28.12-.56.309-.88.299-.57-.01-1.17-.269-1.48-.758-.32-1.418-.03-2.886.04-4.333.09-1.059.09-2.117.05-3.175.02-.55 0-1.109-.13-1.648-.12-.539-.35-1.038-.571-1.537-.32-.799-.77-1.538-1.38-2.147-.42-.41-.93-.779-1.52-.908-.76-.13-1.51.379-1.71 1.108-.21.599-.23 1.238-.3 1.867a20 20 0 0 1-.67 3.265c-.38 1.627-1.11 3.145-1.38 4.792-.49 2.576.27 5.281 1.64 7.468.04.07.08.13.12.2.02.02.03.04.05.06.01.02.02.029.04.049 0 .01.02.03.02.04.01.02.03.05.04.08s.03.06.04.08c.03.05.06.1.08.16v-.02c.03.05.05.11.07.16l.03.189c.02.12.02.23.03.34 0 .05.01.11.01.16v.299c0 .06-.02.12-.02.18 0 .05-.01.1-.02.15-.05.229-.12.469-.2.688l-.06.15-.18.42c-.04.079-.07.149-.12.219-.05.08-.1.16-.16.24-.14.209-.27.409-.42.609 0 .01-.02.02-.03.03-.08.1-.22.289-.33.429l-.08.1-.03.03c-.01.01-.02.02-.02.03-2.721 3.215-5.241 6.599-8.072 9.724-1.59 1.787-3.2 3.574-4.77 5.382.17-2.676.47-5.342.52-8.028.06-2.136.01-4.233.08-6.349.04-1.638-.06-3.275-.13-4.912-.04-1.678-.03-3.355-.16-5.022-.09-1.228-.1-2.476-.24-3.704a.35.35 0 0 0-.34-.24c-.51.05-.37.809-.4 1.168 0 1.647.08 3.285.13 4.932 0 1.248-.01 2.486.05 3.724.13 2.306.06 4.613.02 6.929 0 3.415-.11 6.829-.5 10.214-.01.838-.1 1.687-.11 2.526a101 101 0 0 0-4.07 5.042.384.384 0 0 0 .04.519l.02.02c.15.129.37.129.52 0 .7-.619 1.33-1.308 1.94-2.017.02.269.04.539.07.809.37 2.655 1.28 5.191 2.36 7.637.77 1.648 1.71 3.215 2.57 4.823.6 1.038 1.1 2.126 1.65 3.185.31.509.72.958 1.09 1.417.47.539.91 1.108 1.38 1.648.14.129.25.299.4.409-.98.829-1.99 1.637-3.07 2.326-1.13.789-2.33 1.478-3.51 2.187-1.17.759-2.42 1.387-3.71 1.927-1.74.679-3.61.888-5.451 1.088-1.09.15-2.23.449-3.32.12-.59-.17-1.12-.48-1.68-.749-.8-.379-1.65-.679-2.401-1.148-.18-.3-.36-.599-.53-.899-.74-1.278-1.28-2.676-1.83-4.033-1.1-2.526-1.41-5.242-2.07-7.888-.93-3.754-1.59-7.568-2.12-11.391-.68-4.703-1.18-9.435-1.47-14.178-.21-2.925-.32-5.86-.44-8.796-.13-3.045-.29-6.09-.22-9.135.07-2.736.29-5.471.65-8.187.14-1.368.35-2.736.62-4.093.31-1.867.96-3.644 1.71-5.372.46-1.078.87-2.176 1.35-3.254.78-1.698 1.67-3.335 2.61-4.953.62-.978 1.38-1.797 2.19-2.615 1.21-1.118 2.57-1.977 3.87-2.966.83-.638 1.57-1.188 2.47-1.677.78-.42 1.581-.789 2.361-1.198.79-.42 1.59-.829 2.42-1.168 1.26-.46 2.48-.988 3.69-1.568.59-.27 1.19-.519 1.741-.858.16-.1.32-.2.47-.31.68 1.089 1.57 2.037 2.56 2.846.55.439 1.12.838 1.72 1.208.61.37 1.24.689 1.89.978.63.29 1.29.53 1.94.749.681.22 1.361.41 2.061.57a24.3 24.3 0 0 0 5.57.598c.41 0 .82 0 1.23-.03.531-.02 1.061-.06 1.581-.12 1.39-.15 2.77-.399 4.11-.768 1.36-.37 2.7-.849 3.981-1.468a18.7 18.7 0 0 0 3.58-2.227c.3-.24.58-.489.82-.708.5-.46.96-.959 1.38-1.488.21-.26.4-.54.58-.829.18-.29.35-.579.5-.888q.135-.285.24-.57c.03-.09.06-.199.04-.299 0-.05-.03-.09-.06-.13.69.08 1.391.18 2.081.27 1.44.18 2.89.39 4.31.679 1.09.22 2.19.43 3.22.869.791.339 1.491.858 2.171 1.367.72.55 1.49 1.039 2.13 1.688 1.37 1.467 2.56 3.125 3.6 4.852.68 1.278 1.38 2.546 2.011 3.854 1.4 2.835 2.26 5.81 3.3 8.776.64 1.986 1.48 3.913 2.07 5.92q-.87-1.42-1.77-2.825c-.74-1.109-1.65-2.107-2.37-3.235-.04-.06-.03-.13-.11-.16-.05-.02-.11 0-.14.05-.32.4 1.35 2.905 1.67 3.385.85 1.337 1.6 2.775 2.41 4.133.45.819.92 1.627 1.26 2.496 1.02 2.766 1.55 5.671 2 8.576.551 4.084.911 8.177.781 12.29-.01 2.127-.06 4.254-.34 6.37-.26 2.376-.48 4.753-.95 7.099-.4 1.987-1.12 3.884-1.77 5.791-.63 1.697-1.17 3.414-1.72 5.131h-.01c-.04.13-.08.26-.12.4-.02.08-.05.159-.07.229v.06c0 .02 0 .04-.01.06-.01.05-.02.1-.03.16l-.03.15c0 .03-.01.06-.02.08-.01.04-.03.069-.05.099l-.03.03c-.43 1.348-.86 2.696-1.34 4.034-.26.759-.51 1.517-.83 2.246-.37.819-.85 1.588-1.19 2.416a6 6 0 0 1-.291.699c-.17.18-.18.48-.02.679.1.12.24.18.39.18h.02c.11 0 .22-.04.3-.12q.15-.12.21-.299c.16-.32.27-.649.41-.969.24-.519.52-1.018.78-1.537.6-1.139.95-2.367 1.39-3.575.36-1.008.68-2.026 1-3.045.27.13.67.13.94.13.65 0 1.31 0 1.95-.11 1.741-.16 3.421-.759 4.901-1.687 1.75-1.098 3.45-2.207 4.971-3.584a25 25 0 0 0 3.42-3.764c.08-.11.16-.22.23-.33.18-.219.36-.449.54-.679.46-.559.941-1.098 1.341-1.707.06-.08.11-.16.16-.25.56-.898 1.09-1.797 1.6-2.725 1.14-1.927 2.12-3.944 3.11-5.961.44-.998.97-1.947 1.44-2.925.68-1.418 1.31-2.865 1.971-4.283 1.95-4.513 3.36-9.255 5.62-13.628.79-1.568 1.54-3.185 2.6-4.543.721-.869 1.491-1.707 2.391-2.396.9-.62 1.88-1.088 2.83-1.608.99-.539 2.05-.938 3.07-1.427 1.141-.53 2.261-1.099 3.421-1.598.62-.28 1.21-.619 1.84-.868.5-.19 1-.38 1.45-.67 1.45-.918 2.77-2.096 3.571-3.633.78-1.168.99-2.576 1.05-3.944.06-.759.06-1.847-.43-2.346.06-.09.12-.18.17-.28.77-1.438.94-3.255.32-4.782-.12-.24-.29-.46-.48-.61.01-.02.03-.05.04-.07.15-.239.33-.468.49-.698v.02zM27.504 129.526c4.47-4.962 8.781-10.114 12.791-15.445 0-.01.02-.02.02-.03.34-.539.6-1.149.72-1.778 0-.019 0-.039.01-.059 0-.04.01-.09.02-.13v-.06c0-.06.01-.11.01-.17v-.759c0-.119-.01-.229-.02-.339v-.02c0-.07 0-.14-.01-.22v-.04c0-.06 0-.109-.01-.169 0-.1-.01-.21-.02-.31v-.04c0-.07-.01-.13-.02-.189-.02-.11-.05-.21-.08-.32-.03-.07-.05-.14-.08-.21-.01-.02-.03-.04-.04-.06a11 11 0 0 1-.91-1.717c-.86-2.066-1.06-4.073-.47-6.23.87-2.656 1.77-5.291 1.95-8.087.25-2.386 1.96-.729 2.66.41.431.858.891 1.747 1.041 2.705.06.709.02 1.418.06 2.127 0 1.288-.14 2.576-.22 3.864v.189c0 .13-.02.25-.02.38v.609c0 .09.02.169.03.259 0 .06.02.12.03.19.02.1.04.2.08.299v.01c.02.07.05.14.07.22.05.15.12.29.18.429.08.16.16.32.26.47l.09.149s0 .01.01.02v.01c.01.02.02.03.03.04l.02.02c.02.03.04.05.06.08l.12.15.08.08c.05.06.1.11.16.16.03.019.06.039.08.069.02.01.03.03.05.04a.3.3 0 0 0 .08.04c.01 0 .02.01.03.02.12.06.24.11.36.16l.12.03h.02s.06.01.09.01c.11 0 .21.01.32.02h.14c.11 0 .21-.02.32-.04.09-.01.19-.02.28-.04.06-.02.12-.03.18-.05.09-.03.17-.06.26-.09.08-.03.17-.05.25-.07.09-.04.18-.08.27-.129.08-.04.17-.08.25-.13.07-.05.15-.1.22-.14s.13-.08.2-.13c.12-.1.21-.219.33-.319.01-.01.02-.02.04-.03v-.01c.6-.559 1.02-1.388 1.42-2.307.59-1.258 1.05-2.565 1.55-3.853.421-1.148.751-2.327 1.241-3.445.46-.968.83-1.977 1.25-2.975.35-.859.63-1.747.83-2.656.19-.908.28-1.837.4-2.765.15-1.388.1-1.738 1.11-.39.97 1.039 1.42 2.396 1.78 3.754.33 1.208.4 2.446.42 3.694-.08.909-.04 1.827-.19 2.726-.1.5-.21.998-.31 1.498q-.015.105 0 .21c-.15.389-.3.768-.46 1.157-.43 1.168-.8 2.357-1.29 3.505-.21.579.63.968.92.409.59-1.318.96-2.716 1.51-4.043.8-1.927 1.33-3.954 1.68-6.01.18-1.179.32-2.357.441-3.545.13-.998.32-2.616 1.18-3.215.55.56.79 1.358 1.1 2.057.34.838.57 1.717.8 2.596.28 1.148.56 2.306.73 3.484.13 1.637-.09 3.305-.57 4.842-.35 1.039-.65 2.107-1.1 3.115-.33.729-.7 1.448-.89 2.217.01.11.07.149.14.149.12 0 .28-.119.34-.209.31-.35.52-.769.77-1.158 0 0-.01.02-.02.03.68-1.009 1.11-2.137 1.51-3.275 0-.02.01-.03.02-.05.04-.04.07-.09.1-.16a69 69 0 0 0 1.42-4.852c.42-1.837.76-3.724 1.49-5.461.41-.819 1.49-3.085 2.181-1.208.49 1.417.78 2.895.93 4.383.22 2.006-.04 4.023-.59 5.96q-.42 1.318-.93 2.606c-.16.289-.46.689-.42 1.028-.4.939-.84 1.867-1.31 2.776-.31.639-.68 1.238-1.02 1.867-.11.239-.62 1.008-.29 1.048.53-.23.81-.779 1.17-1.198.57-.739 1.02-1.557 1.49-2.366.46-.829.87-1.687 1.23-2.556a.2.2 0 0 1 .04-.06c.76-1.288 1.4-2.636 2.13-3.944.58-.948 1.06-2.016 1.96-2.705.38-.28.55-.34.81.13.29.868.07 1.856-.03 2.745a28.4 28.4 0 0 1-1.97 6.689c-.76 1.688-1.78 3.215-2.88 4.683-.75.958-1.66 1.777-2.56 2.596-.56.509-1.11 1.048-1.76 1.457-1.61.949-3.3 1.787-4.681 3.065-.86.769-1.96 1.258-2.67 2.187-.11.14-.21.329-.14.509 0 .03.02.05.04.08-.02.02-.03.04-.05.05-.56.639-1.18 1.238-1.65 1.947-.96 1.497-1.99 3.005-2.93 4.513-1.651 2.785-3.441 5.491-5.131 8.256-1.2 1.957-2.63 3.764-3.97 5.631-2.511 3.614-5.381 6.959-8.672 9.874-.11-.129-.22-.259-.33-.379-.63-.669-1.24-1.348-1.74-2.097-2.24-3.534-4.55-7.038-6.41-10.792-1.01-2.097-1.741-4.313-2.271-6.57-.02-.06-.04-.14-.07-.219.23-.26.47-.53.72-.779zm3.87 21.665c-.64-.699-.94-1.597-1.39-2.416-.42-.769-.85-1.548-1.27-2.306-.57-1.029-1.15-2.027-1.69-3.065-1.14-2.237-2-4.573-2.66-6.979-.23-.759-.33-1.558-.52-2.336a1 1 0 0 1-.04-.15c.63-.769 1.24-1.568 1.87-2.346.06-.04.1-.1.13-.17.17-.21.34-.41.51-.609.32 3.135 1.56 6.11 3.06 8.856a69 69 0 0 0 2.95 5.061c1.29 1.937 2.32 4.064 3.971 5.721.18.19.35.38.52.579l-.4.34c-.86.759-1.72 1.527-2.61 2.256-.09.07-.18.15-.26.23-.13-.26-.41-.499-.57-.699-.53-.659-1.08-1.298-1.61-1.947zM55.358 14.91c.26.17.52.339.77.519.23.17.46.34.68.519.25.21.51.43.75.649.25.23.49.46.73.699.32.36.63.719.93 1.098.29.37.58.739.85 1.118.27.4.53.799.76 1.218.22.43.42.869.62 1.298.21.45.43.899.6 1.368.09.26.18.51.251.769.02.11.04.21.05.32v.289c-.03.41-.1.818-.02 1.228.02.12.05.25.08.37.03.119.08.249.13.369.09.22.22.419.35.619.27.379.62.669.97.968.33.28.67.57 1 .859a22 22 0 0 1 1.3 1.268c.42.459.83.918 1.2 1.417.11.17.22.33.32.51.08.15.14.29.2.449 0 .03.02.05.02.08v.04c0 .01-.01.02-.02.03s-.02.03-.03.04l-.06.06-.18.15c-.07.05-.15.09-.22.139-.13.07-.26.12-.4.18-.16.06-.31.11-.44.21-.11.08-.19.19-.23.309a.77.77 0 0 0-.03.4c.01.09.04.179.06.269s.04.17.07.26c.2.698.53 1.357.79 2.036.15.43.29.869.42 1.308.13.43.26.869.37 1.308.12.579.19 1.168.24 1.757.02.22.03.44.04.659v.709c-.04.569-.12 1.138-.22 1.697-.05.26-.11.51-.18.759a7 7 0 0 1-.69 1.508c-.14.21-.28.409-.43.609l-.15.18c-.17.199-.36.389-.55.578-.1.09-.2.17-.3.26-.1.08-.21.16-.31.24-.65.449-1.33.838-2.02 1.218-.3.15-.6.3-.92.419-.24.08-.48.16-.73.24-.27.08-.53.18-.78.28-.48.179-.94.389-1.42.558-.4.14-.79.27-1.19.41-.41.14-.81.29-1.21.419-.69.23-1.4.43-2.1.629-.11.03-.23.07-.34.1-.05.02-.11.03-.16.05-.07.04-.14.08-.2.12-.1.06-.191.1-.301.13-.03 0-.07.02-.1.02-.02 0-.04 0-.06.01 0 0 0 .02-.01.02h-.13c-.07 0-.14 0-.22-.02h-.01c-.05 0-.1-.01-.15-.02-.02 0-.04 0-.06-.01-.1-.01-.19-.03-.29-.03-.87-.08-1.74-.1-2.6-.26-1.16-.23-2.35-.21-3.52-.43-1.02-.16-2.141-.28-3.061-.748-1.1-.55-2.18-1.119-3.19-1.807a.5.5 0 0 1-.1-.05c-.18-.13-.36-.27-.54-.4 0 0-.01 0-.02-.01 0 0-.02-.01-.02-.02-.07-.02-.13-.04-.19-.07-.02 0-.03-.01-.05-.02a3 3 0 0 1-.19-.09c-.01 0-.02-.01-.03-.02l-.15-.09c-.02-.01-.03-.02-.05-.03l-.33-.239c-.22-.17-.44-.33-.66-.5-.02-.019-.04-.029-.06-.049-.12-.1-.29-.25-.29-.25s-.12-.13-.18-.2c-.45.12-.9.25-1.37.24-.541-.07-1.081-.13-1.601-.27a7.7 7.7 0 0 1-1.22-.598c-2.01-1.268-3.25-2.816-3.48-5.232-.06-.709-.04-1.458.35-2.067.65-.968 1.85-1.607 3.03-1.387.17.03.33.07.5.11.96 1.048 2.23 4.113 3.9 3.704.02 0 .04-.01.06-.02.13-.04.27-.1.41-.19 1.54-1.198.07-4.992-.72-6.39-.47-.809-.79-1.737-.61-2.686.22-1.098.94-2.126 1.95-2.625.9-.45 1.9-.68 2.89-.79.66-.089 1.33-.089 1.98-.219.54-.11 1.051-.29 1.551-.499 1.96-.819 2.74-2.446 2.83-4.483.06-1.557-.65-3.005-.76-4.542-.12-1.258.05-2.526.26-3.764.15-1.129.86-2.157 1.79-2.766.24-.18.48-.33.71-.53.04-.04.09-.079.13-.119.06 0 .12.01.18.02.46.08.92.2 1.35.37.12.05.24.1.36.14l.27.119c.971.46 1.921.969 2.841 1.528zM33.905 54.247c-1.54.399-3.16.01-4.64-.47-2.871-.878-5.461-2.606-7.702-4.552a39 39 0 0 1-2.97-2.766c-1.06-1.138-1.89-2.466-2.68-3.794-.6-1.218-.95-2.496-1.34-3.784-.7-2.396-1.3-4.862-1.42-7.368 0-.849.09-1.598.25-2.416.21-1.618.52-3.225 1.04-4.783.76-2.416 1.76-3.584 3.9-4.922 1.49-.828 2.97-1.747 3.97-3.165.72-.928 1.41-1.876 2.05-2.855.59-.928 1.15-1.877 1.84-2.736.931-1.058 1.961-2.036 3.131-2.825.82-.61 1.74-1.028 2.7-1.358 1.61-.599 3.29-.968 4.991-1.248 1.52-.31 3.07-.45 4.61-.26 1.22.1 2.37.49 3.471.999 1.31.52 2.52 1.218 3.69 1.987a9.6 9.6 0 0 1 2.82 2.626c.59.748 1.12 1.457 1.6 2.236l-.57-.24c-.15-.06-.31-.13-.46-.19-.71-.409-1.46-.728-2.29-.648-1.65.409-2.67 2.036-3.02 3.654-.27.878-.37 1.867-.47 2.935-.07.979 0 1.967.19 2.935.14.69.37 1.358.48 2.047.2 1.158.06 2.406-.52 3.435-.63.958-1.78 1.407-2.85 1.677-1.28.22-2.57.18-3.81.579-2.11.48-3.811 2.177-3.971 4.373-.18 1.707 1.01 3.065 1.54 4.603.29.818.5 1.667.48 2.536-.01 1.717-1.16.379-1.64-.29-.2-.26-.38-.53-.55-.819-.03-.01-.04-.04-.04-.07-.06-.1-.12-.2-.19-.3-.09-.079-.18-.139-.26-.219l-.28-.28-.02-.02-.02-.02-.02-.02s-.05-.05-.08-.069c-.04-.04-.09-.08-.14-.12-.05-.03-.1-.07-.15-.1-.07-.03-.14-.07-.21-.09 0 0-.09-.04-.14-.06-.11-.05-.22-.09-.33-.14-.06-.02-.13-.03-.19-.05-.12-.02-.23-.03-.35-.04h-.17c-.16 0-.31 0-.47-.01-.14 0-.29.02-.43.04-.12.02-.24.03-.36.05-.27.06-.53.14-.8.21-.02 0-.05.01-.07.02-.59.33-1.1.82-1.46 1.378-1.01 1.708-.39 4.154.5 5.8.92 1.478 2.36 2.617 3.92 3.355.8.38 1.71.48 2.58.54.34 0 .67-.07.99-.15.03 0 .05-.01.08-.02.03.03.06.05.1.07.22.14.39.31.59.47.14.099.28.199.41.299-.17.27-.38.529-.55.788a8.3 8.3 0 0 1-2.41 2.456c-.02.01-.04.03-.06.04l-.09.06s-.02.01-.02.02c-.07.05-.14.09-.2.14h.01c-.02.02-.04.03-.07.05-.05.03-.1.06-.14.09s-.08.05-.12.08h-.01l-.02.02c-.03.02-.06.04-.1.07s-.08.06-.12.08c-.07.05-.13.1-.2.14-.02.01-.04.02-.05.03 0 0 .01 0 .02-.01l-.13.079c-.19.11-.38.21-.58.3zm-1.41 8.306c.85-1.218 1.11-2.715 1.62-4.083.3-1.078.64-2.157.99-3.215 0-.01 0-.02.01-.03.01-.05.02-.1.04-.14v-.02c.04-.12.07-.25.1-.37.09-.06.17-.109.26-.169.02-.02.05-.04.08-.06.04-.03.07-.05.11-.07.23-.16.45-.32.68-.479a9.3 9.3 0 0 0 2.68-2.756c.16-.25.35-.479.51-.718.86.599 1.74 1.158 2.68 1.637 1.05.599 2.17 1.088 3.381 1.248.86.09 1.71.27 2.58.32.88.03 1.75.16 2.62.279.69.09 1.39.07 2.08.11.39.02.801.07 1.191 0 .06.02.13.03.2.03-.2 1.348.17 2.785.28 4.153.19 1.348.27 2.736.8 4.004 0 .08.02.15.04.22a7 7 0 0 0-.65.678c-.59.64-1.18 1.268-1.9 1.767-1.03.62-2.2 1.149-3.36 1.408-.6.13-1.19.24-1.79.32-.39.05-.77.11-1.15.2-.04.01-.08.04-.11.07-.62.05-1.241.07-1.861.07-1.32.05-2.62-.16-3.88-.53-.58-.15-1.19-.2-1.77-.38-.63-.2-1.24-.449-1.85-.688-1.161-.43-2.311-.879-3.361-1.538-.49-.32-1.01-.629-1.42-1.048.05-.07.1-.14.15-.22zm27.823.829c-.12.18-.24.37-.37.549-.26.38-.53.739-.82 1.088-.42.5-.87.969-1.35 1.418-.53.48-1.08.919-1.6 1.288-.65.45-1.32.859-2.021 1.238-.4.21-.8.4-1.21.579-.43.19-.87.37-1.31.54-.48.179-.97.339-1.46.478-.51.15-1.01.28-1.53.4-1.12.25-2.25.429-3.401.539-.58.05-1.15.08-1.73.1-.59.01-1.18 0-1.76-.02-1.09-.05-2.16-.17-3.24-.36-.96-.18-1.9-.409-2.831-.709-.78-.26-1.54-.559-2.29-.908-.62-.3-1.23-.63-1.81-1.008-.46-.31-.91-.63-1.34-.979q-.585-.495-1.11-1.048c-.29-.32-.56-.65-.81-.999-.12-.17-.23-.34-.34-.509.66-.38 1.31-.779 2-1.078.42-.21.89-.33 1.35-.33.28.03.53.18.79.28.38.3.8.55 1.2.809 1.07.669 2.25 1.128 3.43 1.567.62.24 1.24.5 1.88.7.65.199 1.32.259 1.98.428 1.27.39 2.58.52 3.901.52.32 0 .64 0 .96-.02h.34c2.27-.1 4.5-.63 6.54-1.648a8 8 0 0 0 1.801-1.158c.34-.25.67-.52.98-.809.5-.499 1.04-1.038 1.22-1.717.07-.08.11-.17.13-.28.25.26.81.29 1.12.38.71.17 1.43.25 2.16.3.28.02.55.05.83.08-.12.07-.2.199-.27.309zm47.905 56.34c-1 2.006-1.93 4.053-3.01 6.02a92 92 0 0 1-2.15 3.734c-.431.579-.811 1.198-1.271 1.757a41 41 0 0 1-3.14 3.445c-.04.03-.08.059-.12.099-.92.799-1.85 1.608-2.79 2.387-.31.229-.63.459-.95.669-.96.668-1.94 1.307-2.99 1.807-.81.449-1.63.918-2.531 1.148-.18.05-.36.1-.55.15q-.15.032-.3.049c-.14.02-.27.02-.41.03h-.05c-.26.01-.52.02-.78-.01-.24-.03-.45-.129-.68-.199-.1-.02-.21-.03-.3-.08-.04-.02-.09-.04-.13-.06-.05-.02-.1-.03-.14-.06a.13.13 0 0 1-.06-.07h-.07c.13-.399.25-.799.38-1.198 1.14-3.584 2.71-7.069 3.28-10.813.45-2.785.72-5.611.98-8.416.12-2.756.17-5.521.08-8.277a68 68 0 0 0-.21-3.195c.04.01.08.02.13.02h.02c.06 0 .12-.02.17-.04.95-.569 1.73-1.387 2.6-2.066.93-.649 1.79-1.388 2.65-2.137a73 73 0 0 0 3.541-3.474c0 .01.02.03.03.04.34.459.64.958.98 1.417 1.71 2.377 3.821 4.403 5.991 6.37.87.799 1.78 1.558 2.62 2.396.39.39.78.769 1.23 1.089.33.239 1.06.758 1.07.758a98 98 0 0 1-3.11 6.73zm4.101-9.216c-.24.639-.5 1.278-.761 1.917-.19-.249-.47-.419-.72-.609-.3-.229-.56-.499-.83-.759-1.86-2.046-4.02-3.843-5.93-5.83-1.501-1.538-2.771-3.275-3.961-5.062.57-.63 1.13-1.278 1.66-1.947.05-.06.1-.13.15-.19.811.939 1.551 1.937 2.341 2.906.79.928 1.67 1.777 2.53 2.645 1.73 1.708 3.9 4.054 6.291 4.843-.26.699-.52 1.397-.77 2.096zm26.543-38.428c-.38-.16-.811-.11-1.191.27-.68.549-1.07 1.347-1.56 2.046-.46.62-.93 1.268-1.41 1.857-.55.64-1.09 1.198-1.73 1.697-.35.3-.77.46-1.2.62-.46.22-.28.898.19.898h.09c1.61-.26 3.14-2.196 4.07-3.454.78-.999 1.28-2.257 2.341-3.006.57.41.57 1.428.58 2.077 0 .899-.24 1.747-.53 2.586a1.8 1.8 0 0 0-.531.08c-.37.1-.66.35-.86.669-.3.44-.66.838-1.02 1.228-1.18 1.118-2.17 2.486-3.61 3.294-.3.16-.6.31-.92.44-.22.08-.64.13-.56.46.19.408.81.189 1.15.109.87-.25 1.65-.779 2.33-1.358.92-.839 1.78-1.737 2.64-2.616.16-.17.31-.35.45-.529.27-.28.42-.789.871-.769.19.37.12.829.13 1.228a21 21 0 0 1-.15 1.748c-.111.908-.541 1.707-1.021 2.476-.27.439-.55.868-.93 1.228-.67.659-1.39 1.238-2.19 1.727-.83.42-1.62.659-2.42 1.088-1.55.719-3.091 1.448-4.641 2.167-.93.429-1.88.808-2.77 1.317-.94.51-1.91.969-2.77 1.608-.89.679-1.661 1.498-2.381 2.356-1.06 1.298-1.83 2.796-2.56 4.303-1.32 2.526-2.42 5.162-3.43 7.828-.06-.03-.13-.07-.19-.1-.68-.35-1.35-.749-1.951-1.238-1.29-1.018-2.43-2.187-3.56-3.365-1.03-1.058-2.02-2.007-2.92-3.155a54 54 0 0 0-1.62-2.036 2.2 2.2 0 0 0-.611-.62c.401-.578.771-1.177 1.161-1.767.84-1.297 1.59-2.645 2.45-3.923.49-.7 1.55-2.806 1.67-3.095.07-.16.13-.31.2-.47.11-.26.22-.529.34-.788.09-.22.19-.43.28-.65.11-.229.21-.459.32-.678.12-.23.22-.48.38-.7.74-2.894 2.24-5.56 3.921-8.016 1.32-1.817 2.51-3.724 3.89-5.501.78-1.029 1.28-2.237 2.1-3.245.46-.55.96-1.048 1.401-1.598.75-.858 1.49-1.777 2.44-2.426.43.39.54 1.009.61 1.558.11.739.01 1.467-.21 2.176-.45 1.628-1.02 3.175-1.8 4.673-.47.928-.98 1.827-1.451 2.745-.37.51.381 1.099.791.63.02-.04.04-.07.06-.11.09.01.19.02.3.02h.13c.3-.01.6-.07.76-.13.61-.17 1.15-.53 1.7-.839.47-.25 1.01-.559 1.44-.799.54-.29 1.11-.519 1.66-.778.57-.27 1.08-.64 1.61-.979 1.091-.629 2.011-1.497 2.921-2.366a47 47 0 0 0 1.89-1.837c.66-.58 1.26-1.218 1.79-1.927.42-.51.89-.978 1.33-1.468.81-.619 1.74-1.208 2.761-1.337.3.439.01.938-.12 1.397-.05.22-.18.45-.19.68-.31.169-.6.349-.831.618-.55.7-.88 1.558-1.34 2.317-.26.429-.55.848-.86 1.248-1.22 1.437-2.45 2.895-3.96 4.053-.58.41-1.17.799-1.84 1.058-.49.24-.27.939.2.939h.02s.09-.01.14-.02c.62-.18 1.15-.53 1.68-.889 1.51-1.008 2.72-2.376 3.89-3.754 1.01-1.078 1.74-2.366 2.361-3.694.17-.31.3-.659.56-.898.3-.26.95-.84 1.13-.17-.01 1.457-.42 2.895-.84 4.283-.14.44-.37.859-.48 1.308h.01z"/><path fill="#000" d="M39.254 114.05s0-.01.01-.019c0-.01.02-.03.03-.03-.01.02-.03.03-.04.049m-3.438-70.407c-.16-.12-.37-.14-.53-.26-.19-.199.15-.518.16-.758.06-.22.03-.47-.06-.669-.25-.47-.68-.799-1.02-1.198-.47-.51-.88-1.138-1.57-1.348-1.15-.4-1.84.949-1.64 1.927.11 1.098.6 2.107 1.22 3.005.6.959 1.42 1.787 2.5 2.197.23.1.54.25.77.06.08-.07.07-.19-.02-.25-.58-.38-1.16-.789-1.62-1.318-.82-1.038-1.5-2.176-1.79-3.494-.03-.38-.18-.899.17-1.178.41.08.66.479.93.758.35.44.78.81 1.12 1.258-.47.869-.28 1.778.73 2.097.62.45 1.27-.38.64-.829z"/><path fill="#FED980" d="M80.55 30.933C75.02 2.828 100.623-.297 121.625 2.738c6.391 4.213 8.631 23.173-2.59 23.582-12.732 5.282-29.324-6.01-37.584 4.833-.26.349-.82.22-.91-.21z"/><path fill="#000" d="M80.8 31.89s0-.018-.01-.018c0 0 0 .017.01.017m-.09-.157s.02.03.03.05c0-.02-.02-.03-.03-.05"/><path fill="#0D0C21" d="M127.204 14.251c-.54-7.717-3-13.578-11.871-12.859-3.631.05-7.261.18-10.872.599-12.281.939-24.382 4.343-24.992 18.82.08 2.096-.76 10.423 1.34 11.182 1.68.09 2.91-2.526 3.92-3.275 3.24-3.404 8.261-1.757 12.392-1.617 8.35 1.398 17.412 2.356 25.322-1.388 4.701-1.727 5.481-7.099 4.751-11.482zm-3.07 9.296c-7.381 4.912-17.022 4.193-25.383 2.775-4.82-.29-10.872-2.256-14.702 1.677-1.02.909-1.71 2.277-2.96 2.886-1.65-8.467-1.68-17.153 5.69-22.973C91.94 3.998 98.861 3.708 105.071 2.9c3.741-.4 7.491-.52 11.252-.54 5.3-.389 8.791 2.996 9.361 8.147.53 4.224 2.02 9.775-1.55 13.04"/><path fill="#0D0C21" d="M94.132 19.211c-.47-2.346.07-4.702.26-7.038-1.9 2.266-3.41 4.832-5.21 7.158-.08.06-.19.02-.22-.08 1.16-2.616 2.99-5.042 4.6-7.428.36-.43.64-.949 1.05-1.328.48-.27.87.21.85.68.05 2.275-.63 4.532-.39 6.808 2-2.286 3.75-4.792 5.741-7.088.74-.69 2.39-3.525 3.251-1.758.55 2.387-.501 4.872-.061 7.269a41 41 0 0 0 2.891-3.275c.88-.919 3.03-4.772 3.95-2.027.24 1.678.28 3.385.8 5.012 1.841-2.067 3.261-4.473 4.961-6.65.45-.558 1.32.1.87.69-1.71 2.196-3.15 4.612-5.011 6.709-2.56 2.386-2.37-4.103-2.7-5.441-5.951 6.869-7.671 10.892-6.661-1.418-1.27 1.288-2.34 2.746-3.51 4.123-.88.73-4.48 6.93-5.48 5.092z"/><path fill="#FFF7DB" d="M176.032 34.277c-11.012-12.07-41.785-4.273-49.866 1.438-15.152 14.676-2.72 21.016 12.901 21.116 8.971.06 16.952-2.666 24.973-6.969 2.731-2.616 6.071.889 8.661 1.528 1.68-.48-1.74-4.014-1.74-5.452 1.61.07 3.24-.26 4.55-1.407 3.031-2.646 3.221-7.289.511-10.254z"/><path fill="#0D0C21" d="M138.976 57.312c-1.91.01-3.821-.2-5.711-.5-1.92-.32-3.85-.579-5.751-1.008-2.57-.6-5.07-1.747-6.92-3.664-1.24-1.158-1.861-2.686-1.831-4.383 0-5.571 3.691-10.583 8.361-13.349 3.041-1.837 6.451-2.935 9.872-3.834 3.7-.988 7.43-1.867 11.241-2.346 1.96-.26 3.94-.43 5.91-.629 1.571-.15 3.141-.3 4.711-.27 3.51.13 7.011.76 10.321 1.927 2 .7 3.951 1.548 5.661 2.796a8.8 8.8 0 0 1 2.86 3.245c1.15 2.116 1.17 5.6-.25 7.598-1.66 2.366-3.19 2.805-5.791 3.604.29.739.61 1.457.941 2.176.32.69.7 1.368.81 2.137.09.41-.06.978-.55 1.048-.39 0-.791-.09-1.161-.2-1.69-.558-3.19-1.557-4.74-2.415-.85.399-1.74.738-2.54 1.248-.5.309-1.011.599-1.551.848-1.66.839-3.43 1.448-5.15 2.167-1.77.728-3.561 1.437-5.391 2.026-4.32 1.258-8.851 1.698-13.341 1.778zm-1.04-1.049c4.49.04 9.031-.39 13.381-1.517 3.471-1.029 6.771-2.536 10.131-3.864 1.64-.709 3.091-1.787 4.771-2.426.02-.07.08-.13.17-.13.04 0 .08 0 .12.01.25-.07.53.07.62.31v.02c.69.349 1.41.628 2.09.998 1 .509 2.02 1.028 3.141 1.168-.361-1.258-1.091-2.376-1.531-3.604-.28-.65-.61-1.268.25-1.618 1.15-.439 2.401-.659 3.471-1.298 2.3-1.557 3.19-3.544 2.88-6.31a5.8 5.8 0 0 0-.89-2.645c-.33-.53-.66-1.069-1.12-1.498-2.15-1.997-4.911-3.115-7.671-3.994a34.3 34.3 0 0 0-8.921-1.507c-1.85-.04-3.68.18-5.521.36-4.28.359-8.561.948-12.731 2.006-2.82.69-5.641 1.408-8.361 2.396-3.52 1.318-6.921 3.255-9.261 6.24-1.43 1.807-2.53 3.904-2.94 6.18-.23 1.278-.35 2.626.02 3.894.37 1.168 1.31 2.027 2.22 2.816 2.12 1.737 4.83 2.506 7.501 2.935 2.72.44 5.43.958 8.191 1.058z"/><path fill="#000" d="M98.58 65.487s-.02 0-.039.01c.01 0 .02 0 .038-.01"/><path fill="#0D0C21" d="M157.799 36.395c.47 2.346-.07 4.703-.26 7.039 1.9-2.267 3.41-4.832 5.211-7.159.08-.06.19-.02.22.08-1.16 2.616-2.991 5.042-4.601 7.428-.36.43-.64.949-1.05 1.328-.48.27-.87-.21-.85-.679-.05-2.276.63-4.532.39-6.809-2 2.287-3.75 4.793-5.741 7.089-.74.689-2.39 3.524-3.25 1.757-.55-2.386.5-4.872.06-7.268a41 41 0 0 0-2.89 3.274c-.88.919-3.031 4.773-3.951 2.027-.24-1.677-.28-3.384-.8-5.012-1.84 2.067-3.26 4.473-4.96 6.65-.45.559-1.321-.1-.871-.69 1.711-2.196 3.151-4.612 5.011-6.709 2.56-2.386 2.37 4.104 2.7 5.442 5.951-6.87 7.671-10.893 6.661 1.417 1.27-1.288 2.34-2.745 3.51-4.123.881-.729 4.481-6.929 5.481-5.092z"/><path fill="#FED980" d="M95.762 88.221c9.291-5.86 19.353 2.785 29.204-1.358 3.33-1.238 4.76-5.66 5.38-9.654.67-7.528-8.021-11.402-12.341-12.081-11.091-1.747-30.364-1.068-32.434 7.508-1.54 6.37 7.951 8.017 10.392 12.09.45 1.269-1.84 3.295-.21 3.485z"/><path fill="#0D0C21" d="M129.896 72.477c-1.2-2.146-2.951-4.013-5.091-5.251-2.12-1.168-4.45-1.897-6.791-2.486a36.6 36.6 0 0 0-8.45-1.089c-.901 0-1.811.03-2.711.07-2.49-.1-4.99.03-7.44.51-.96.18-1.95.299-2.87.618-.421.13-.801.25-1.211.39-.34.12-.69.24-1.03.36-.89.159-1.78.369-2.63.678-1.96.55-3.57 1.228-4.941 2.806-1.72 1.877-2.74 4.243-1.62 6.709.47 1.288 1.43 2.416 2.4 3.355.79.708 1.69 1.297 2.58 1.866.93.6 1.86 1.199 2.79 1.808.82.629 2.05 1.198 2.16 2.346 0 .998-.68 1.967-.26 2.965.16.49.691.819 1.191.659.39-.13.7-.43 1.05-.649.5-.33 1.04-.56 1.6-.729 1.05-.34 2.141-.579 3.241-.649 2.09-.03 4.15.42 6.19.809 1.851.41 3.691.759 5.571.978 1.2.2 2.42.33 3.63.33.36 0 .71-.01 1.071-.03.96-.03 1.91-.21 2.87-.33.98-.15 1.97-.25 2.91-.579 1.51-.449 2.63-1.587 3.741-2.635 1.98-1.838 3.05-3.695 3.1-6.43.05-.709.07-1.428.11-2.137-.02-1.477-.46-2.945-1.16-4.243zm0 5.182c-.04.958-.07 1.917-.25 2.865-.46 2.117-2.15 3.605-3.681 5.002-1.18 1.168-2.73 1.618-4.34 1.787-1.52.22-3.05.48-4.591.44-1.37 0-2.61-.23-3.95-.41-1.96-.24-3.89-.699-5.831-1.068-1.89-.34-3.81-.729-5.74-.609-2.02.21-4.09.719-5.721 1.967-.1-.39.04-.769.15-1.138.26-.869.34-1.847-.18-2.626-.52-.829-1.39-1.368-2.18-1.917-1.75-1.198-3.68-2.236-5.3-3.614-1.201-1.128-2.191-2.536-2.501-4.174-.14-.838.11-1.707.47-2.466.95-1.857 2.59-3.404 4.62-4.003.89-.27 1.63-.54 2.49-.769.72-.18 1.46-.27 2.181-.45l.13-.03c.05-.02.09-.03.14-.05.08-.029.17-.059.26-.089h.01c.17-.06.33-.11.5-.17 0 0 .05-.02.08-.02.31-.11.62-.22.92-.32.32-.109.65-.199.97-.289.02 0 .04-.01.06-.02.19-.03.37-.06.56-.08 1.521-.25 3.041-.529 4.591-.569 1.13-.05 2.25-.02 3.38.02 1.54.05 3.071.11 4.611-.08h.02c2.92.25 5.8.85 8.581 1.758 2.52.818 5.02 1.956 6.771 4.013 1.75 1.927 3.07 4.453 2.74 7.119z"/><path fill="#0D0C21" d="M122.605 79.844c.05-.11.01-.23-.06-.31-.431-.419-.711-.978-.981-1.507-.64-1.118-2.83-7.498-4.28-4.203-.09 1.338.54 2.975-.48 4.083-2.58-.799-2.99-5.97-5.561-6.749-.7-.06-1.06.709-1.06 1.308-.07.918-.21 3.994-1.01 4.433-.48-.06-.74-.63-.99-.949-.95-1.348-3.811-6.869-5.501-3.824-.34 1.119-.05 2.576-.96 3.455-1.94-.33-4.42-5.661-6.74-2.826-.7.949-1.45.55-2.39.37-.71-.17-.99.858-.29 1.068.56.13 1.12.26 1.7.28 2.11-.02 1.65-2.576 3.65-.77 1.42 1.13 3.81 4.733 5.39 1.968.61-1.019.38-2.297.79-3.345 1.821 1.038 2.621 3.265 3.871 4.852 2.96 3.016 3.58-2.785 3.6-4.762 1.61 1.647 2.181 4.044 3.731 5.73 3.11 2.846 3.76-1.856 3.28-4.133 1.08.45 2.79 6.73 4.301 5.851z"/></svg>
