<svg xmlns="http://www.w3.org/2000/svg" width="282" height="211" fill="none"><path fill="#fff" d="M191.008 68.015c.09 3.826-.045 7.655-.114 11.481a142 142 0 0 0 .027 7.398c.03 1.337.075 2.673.114 4.005-.012.749-1.025.906-1.289.282a.6.6 0 0 1-.132.015h-.012c-1.331-.03-2.662-.051-3.99-.078l-5.408-.103q-2.86-.057-5.719-.11c-1.739-.033-3.475-.07-5.213-.102l-5.501-.11a650 650 0 0 1-5.441-.127c-.929-.027-1.859-.051-2.788-.088a46 46 0 0 1-2.659-.157q-.477-.043-.95-.127a5 5 0 0 1-.447-.103c-.084-.025-.165-.055-.249-.076q-.046-.009-.087-.012h-.29a.244.244 0 0 1-.18-.41.65.65 0 0 1-.15-.42c.051-4.45.384-8.898.291-13.351-.006-3.39-.294-6.771-.405-10.155a165 165 0 0 1-.045-2.112.7.7 0 0 1-.003-.248v-.046c0-.263-.009-.572.192-.77.159-.132.315-.175.453-.15a.67.67 0 0 0 1.1.205c2.68-.19 5.387-.1 8.075-.13 5.124-.082 10.247-.257 15.367-.454 3.735-.191 7.473-.382 11.211-.482.983.085 2.827-.4 3.528.288.57.69.462 1.684.552 2.523.081 1.237.132 2.475.168 3.715zM150.37 27.883q.014.746.024 1.49c-.177 1.37-.342 2.745-.429 4.124-.255 4.414 0 8.84-.048 13.257.078 4.444-.054 8.888-.273 13.327-.011.187 0 .411-.014.63.602.224.524 1.22-.162 1.3-3.274-.028-6.559-.046-9.836.075-3.213.13-6.418.39-9.628.551-1.283-.018-2.57-.051-3.853-.112-.284-.04-.584.064-.755.255-1.751.015-3.498.009-5.246.12-.366.02-.725.062-1.091.104a41 41 0 0 0-.597-.024c-.449.015-1.034-.076-1.528.015a.6.6 0 0 0-.39-.158c-.675-.533-.384-1.66-.321-2.648.12-1.817.123-3.64.09-5.462-.075-3.341-.117-6.686-.48-10.012-.476-3.823-.323-7.67-.245-11.515.009-.921-.024-1.842-.018-2.763.027-.297-.018-.63.042-.927-.042-.143-.018-.324.092-.552.342-.415.942-.206 1.406-.239q.814 0 1.622-.027c2.191-.127 4.386-.194 6.577-.321 3.54-.273 7.042-.918 10.573-1.279 4.344-.412 8.723-.487 13.067-.815.279-.072.594-.018.791.16.135-.063.309-.066.537.025.018.012.036.021.054.037v.02l.024 1.364z"/><path fill="#FED980" d="M190.572 23.812c.779 3.344.594 6.734.318 10.11-.27 3.104-.396 6.185-.522 9.294-.225 5.162-.267 10.342.003 15.505.033.633.114 1.254.153 1.884-.006.551-.576.797-.974.615a1.4 1.4 0 0 1-.474.048l-1.235.082c-5.854.403-11.718.049-17.575-.03l-1.158.176c-.054.518-.611.705-1.061.642-.833-.124-1.753-.055-2.524-.421a.53.53 0 0 1-.222-.364c-4.301.185-8.579.81-12.884.779a1 1 0 0 0-.105-.006.68.68 0 0 1-.198.43.68.68 0 0 1-.479.206.68.68 0 0 1-.621-.412.7.7 0 0 1-.06-.273q-.041-2.54-.087-5.08l-.125-7.44-.126-7.39-.12-7.055c-.033-1.912-.066-3.82-.096-5.732q-.014-.746-.024-1.49l-.024-1.364v-.021a.69.69 0 0 1 .68-.667q.094.001.18.025c.837-.152 1.712-.019 2.557-.1 4.961-.452 9.893-1.2 14.863-1.576 3.693-.218 7.401-.209 11.082-.63 2.89-.321 5.729-.975 8.592-1.475.662-.07 1.75-.573 1.945.39a.68.68 0 0 1-.108.47c.231.212.351.585.435.876zm-41.163 38.343c.567-.266.978.282.879.834a84 84 0 0 0-.075 2.302c-.006 3.75.06 7.501-.012 11.252-.024 2.526-.036 5.053-.102 7.58-.039 1.453-.09 2.908-.078 4.362a.66.66 0 0 1-.279.524c0 .051 0 .106-.009.163a.69.69 0 0 1-.788.558c-.468-.085-.935-.19-1.406-.252.006.7.051 1.385.081 2.082.105.739-.135 1.587-1.04 1.415-7.546-.391-15.085-.906-22.639-1.115a257 257 0 0 1-3.405-.2c-.909-.058-1.82-.121-2.728-.1-.279.018-.585 0-.828.151a.7.7 0 0 1-.156.043c-.668.012-.782-.74-.41-1.145-.381-1.385-.168-3.9-.183-4.99.12-.664-.147-1.806.369-2.27-.399-6.385-.333-12.793-.708-19.173.006-.354-.063-.736.114-1.057a.58.58 0 0 1 .54-.279.62.62 0 0 1 .389.158c.495-.091 1.08 0 1.529-.015q.299.01.597.024c.914.04 1.828.097 2.743.145 1.163.06 2.329.127 3.492.185a.54.54 0 0 1 .099-.555c.168-.193.47-.293.755-.254 1.283.06 2.569.094 3.852.112 5.618.073 11.23-.209 16.844-.376.684-.072 1.316-.057 1.88.137.081 0 .159.006.24.009.069 0 .132.015.192.036.066-.145.15-.245.248-.29z"/><path fill="#FFF7DB" d="M280.853 120.801c.578.063 1.226.191 1.139.9a.69.69 0 0 1-.788.551c-12.204-1.4-24.507-1.778-36.743-2.824-7.258-.766-14.545-1.133-21.815-1.769-4.358-.488-8.717-.996-13.109-.987-.506-.07-1.136.024-1.669-.082a.9.9 0 0 1-.33.254c-.327.14-.728-.06-.851-.394-.096-.26-.012-.509.129-.727.096-.36.06-.839.063-1.133-.075-2.438-.258-4.877-.429-7.31-.348-4.038-.579-8.061-.411-12.085.177-4.007.444-8.019.339-12.033-.219-5.38-.696-10.754-.633-16.144-.021-4.541.132-9.17.12-13.687a93 93 0 0 0-.296-5.23q-.026-.276-.048-.553a.57.57 0 0 1-.204-.385.58.58 0 0 1 .18-.467c.155-.163.422-.185.635-.215.222-.033.444-.057.666-.085q.476-.06.95-.112c1.199-.124 2.398-.224 3.597-.333q3.88-.343 7.761-.682l7.971-.697q4.313-.375 8.624-.754l8.697-.76 9.104-.794q4.673-.41 9.347-.815l9.359-.818 7.503-.654h.009a.7.7 0 0 1 .243.024c.12.01.236.06.326.16q.046.05.078.11a.8.8 0 0 1 .075.22 1 1 0 0 1 .018.11v.057q.016.22.024.434.026.621.042 1.242c.021.763.033 1.524.045 2.287.024 1.524.03 3.048.039 4.572.018 3.114.027 6.228.039 9.346q.019 4.73.033 9.46l.03 9.559.03 9.358.033 9.9q.019 4.914.033 9.828.014 4.957.033 9.919.01 2.122.015 4.25z"/><path fill="#0D0C21" d="M257.186 69.405h-.099c-.165 0-.351.003-.488-.075a.4.4 0 0 1-.105-.07c-.234-.209-.216-.615.054-.788.206-.133.488-.118.722-.13l.779-.04q.774-.035 1.547-.066 1.704-.061 3.412-.109c2.182-.064 4.367-.103 6.553-.16 1.993-.052 3.99-.104 5.983-.149q.154 0 .309-.006a.6.6 0 0 1 .183-.018h.063a.66.66 0 0 1 .455.154c.252.203.255.606.051.84l-.054.054a.6.6 0 0 1-.189.112h-.012l-.077.021c-.057.012-.12.015-.156.018h-.06q-.013 0-.03.003a.6.6 0 0 1-.18-.012c-.603.016-1.205.037-1.808.052q-1.539.034-3.078.079c-2.165.06-4.332.127-6.496.178-2.195.052-4.386.106-6.58.11h-.702zm2.295 2.325q-.665-.006-1.328-.019-.308-.008-.615-.018c-.228-.01-.458-.01-.68-.052a.53.53 0 0 1-.33-.194.435.435 0 0 1 0-.515c.144-.203.417-.218.641-.236q.341-.026.687-.04c.429-.02.854-.036 1.283-.05.878-.028 1.76-.05 2.638-.067q2.653-.054 5.306-.088l5.309-.076c1.247-.018 2.494-.052 3.741-.058h.009q.094-.002.192.006c.321.037.566.334.566.655a.67.67 0 0 1-.62.663c-.06.003-.12.003-.141 0h-.042c-.18 0-.363.01-.543.01-.239.002-.476.008-.716.005-.702-.009-1.403.003-2.104.01l-5.279.042q-2.675.024-5.348.03h-.672q-.978.001-1.957-.006zm3.524 2.528q-1.415 0-2.836-.027-.67-.013-1.34-.034c-.206-.009-.422-.006-.626-.054a.58.58 0 0 1-.348-.243.34.34 0 0 1-.039-.284c.054-.182.228-.297.405-.34.117-.03.24-.036.36-.042q.205-.014.416-.021a88 88 0 0 1 1.538-.058c1.064-.033 2.131-.051 3.199-.07q3.192-.048 6.385-.078l2.8-.028 1.316-.012c.332 0 .668 0 1.001-.015.198-.018.399-.015.599-.018a.7.7 0 0 1 .39.042l.078.037c.096.057.18.136.234.233.174.297.084.724-.225.894a.7.7 0 0 1-.252.088.6.6 0 0 1-.216-.003h-.099c-.167 0-.332 0-.497-.01-.387-.012-.777 0-1.163 0l-1.52.01-3.181.018c-1.837.009-3.678.015-5.515.015z"/><path fill="#FED980" d="M264.92 94.996c-.044.833.732 2.584-.497 2.605-.717-.1-1.448-.984-1.952-1.43-.677-.654-1.576-1.06-2.425-1.406-3.813-1.217-3.9-2.85-3.294-6.489.147-2.42-.135-4.25-1.07-6.48-.012.818-.873.355-1.457-.13-.468-.279-.882-.909-1.487-.773-.42 1.633.569 3.508.974 5.099.303.803-.564 1.375-1.217.87.048.642-.051 1.723-.636 1.411-.293-.133-1.169-1.024-1.399-1.196-.714-.54-1.526-.921-2.348-1.255q-.822-.328-1.657-.615c.045.3.087.6.233.83.549 1.16 1.499 2.054 2.264 3.066 1.675 1.845 1.819 4.439 2.86 6.61l-.027-.06c.302.648 2.428 1.115 2.682 1.694.432.766.693 2.223 1.251 2.908.779.991 1.81 1.721 2.847 2.402.294.182.597.385.738.715.566 1.733.518 5.372.509 7.165-.12 2.469.807 10.34.159 10.297-4.808-.327-10.702-1.078-15.504-1.487-5.051-.333-10.129-.403-15.171-.839-.417-.067-.858-.161-1.205-.415a.6.6 0 0 1-.162-.197.66.66 0 0 1-.12-.328c.246-4.365.68-7.852 1.184-12.187.402-2.984 1.16-6.723 1.619-9.667q-.676.81-1.373 1.602c-.522.494-1.193 1.679-2.009 1.082-.323-.273-.269-.694-.192-1.063.042-1.067-.095-2.212-.233-3.188a25 25 0 0 0-.669-3.084c-.102-.609-.566-1.257-.476-1.875a1 1 0 0 1 .167-.745c1.107-2.6 1.85-5.326 2.689-8.02.501-1.82 1.529-3.447 3.028-4.592 1.256-1.094 2.8-1.515 4.248-2.315.695-.393 1.301-1.19 1.987-1.602.447-.37 1.163-.648 1.559-.052.483.93.348 2.067.429 3.088q.067 2.5.174 4.995a70 70 0 0 1 4.589-5.704c1.28-1.464 2.587-2.906 3.807-4.424.402-.663 1.229-1.087 1.787-.342.617.94 1.34 1.803 2.455 2.127 3.318 1.363 7.326 2.072 9.365 5.371 2.44 3.72 1.933 8.731 2.632 13 .192 1.669.309 3.35.347 5.032z"/><path fill="#0D0C21" d="M251.562 54.227c1.304 1.382 1.795 3.339 1.75 5.21-.06.967-.569 2.96-1.873 2.327-.078-.045-.138-.112-.198-.178-1.334.22-2.233-.843-3.115-1.673-1.46-1.402-2.764-2.96-4.056-4.517-.8-1.054-1.762-1.811-2.991-.866-1.05.636-1.847 1.575-2.719 2.424-.189.181-.393.366-.657.424-1.631.118-.788-2.406-.545-3.306.278-.617.455-1.723 1.154-1.957.527-.833 2.902-.448 3.777-.645 1.409-.72 2.593-1.805 4.305-1.248 2.062.751 3.711 2.405 5.171 4.008z"/><path fill="#fff" d="M225.794 90.457c.729 2.214.987 4.559.897 6.88-.177 1.717-.87 4.81-3.115 4.462-1.28-.157-2.26-2.096-2.737-3.187-1.742-3.99-2.131-8.395-1.939-12.709.089-1.457-1.017-2.663-1.802-3.726-.983-1.181-1.976-2.363-2.722-3.72-.471-.797-.893-1.633-1.127-2.533-.171-.382-.084-.885.345-1.039a.66.66 0 0 1 .77.242c.189.352.243.767.411 1.133.383.743.86 1.445 1.427 2.057a156 156 0 0 0-1.059-5.113c-.236-.776.834-1.24 1.223-.524.297.85.684 1.62 1.08 2.42.078-1.006.078-2.027.215-3.026v-.007c.018-.163.036-.324.081-.481v-.003c.12-.518.309-1.333.978-1.236a.57.57 0 0 1 .44.427c.051.406-.15.818-.165 1.227q-.027.3-.045.6c0 .063.006.127.009.188l.009.133a.67.67 0 0 1 .339-.197c.258-.058.498.033.681.218.108.11.159.26.198.406.045.164.062.336.083.506.051.421.081.845.132 1.27.045.396.102.796.15 1.102.078.49.165.985.276 1.47.135-.416.27-.83.414-1.243a28 28 0 0 1 .959-2.345l.219-.47a.685.685 0 0 1 .908-.323c.333.16.486.578.321.918a32 32 0 0 0-.789 1.769c.069.1.111.218.111.348.294 1.679.555 3.363.57 5.072.042 2.184.186 4.468 1.121 6.465.381.854.812 1.687 1.139 2.566zm39.074 8.389c-.24-1.142-.891-2.215-1.862-2.863-1.975-1.187-4.245-1.793-6.256-2.92a2.2 2.2 0 0 1-.414-.26.63.63 0 0 0 .177-.531c-.111-.815-.018-1.645.063-2.457.096-.86.27-1.927.279-2.845.006-1.057-.192-3.535-.822-4.335-.329-.303-.893-.182-1.082.221-.551-.572-1.613-2.578-2.524-1.96a.73.73 0 0 0-.294.655c.426 1.326 1.616 3.932 1.175 5.556-.413-.276-1.013.015-.914.594.042.139.102.275.168.409-.354.124-.71-.091-1.088-.337-.762-.46-1.49-.981-2.239-1.463-.408-.203-1.152-.806-1.775-1.027-.105-.179-.228-.342-.435-.415a.6.6 0 0 0-.653.188c-.288.354-.078.806.111 1.15 1.777 2.933 3.513 2.712 4.415 6.66.474 1.418.948 3.523 2.455 4.156.675.212 1.035.027 1.49.727 1.676 2.327 3.457 5.16 6.439 5.793 2.533.484 4.068-2.491 3.589-4.702zm-14.735-37.385c1.438-.039 1.636 1.27 1.331 2.415-.201.775-.672 1.448-1.25 1.981-.348.442-.606.951-.864 1.451-.491.997-.917 2.042-1.568 2.951-.656.86-1.436 1.609-2.143 2.424a57 57 0 0 0-3.255 3.965c-.399.524-.789 1.055-1.197 1.573-.224.287-.506.7-.914.675-.459-.006-.764-.418-.731-.863-.072-1.924.057-3.848.024-5.769-.087-2.432-1.874-.932-2.398-4.238-.285-2.953.053-5.944.362-8.885-.114-.246 0-.515.087-.755q.035-.306.084-.612c.054-.49.183-1.211.809-1.163 1.083-1.793 3.433-3.335 5.333-1.781.63.494 1.005 1.096 1.403 1.693.618.958 1.451 1.733 2.246 2.536.761.706 1.232 1.733 2.146 2.257.15.076.324.127.489.145z"/><path fill="#0D0C21" d="M175.567 41.089c.462 2.18.575 4.423.231 6.628-.123 1.06-.378 2.1-.795 3.081-.228.56-.488 1.109-.794 1.63-.183.351-.504.679-.923.666-1.002-.078-.945-1.363-.915-2.12.066-1.448.279-2.878.192-4.326-.036-1.315-.674-2.488-1.301-3.605-.264-.46-.503-.955-.899-1.318-.579-.503-1.409-.527-2.132-.427-.761.215-1.423.808-1.774 1.52a.55.55 0 0 1 .123.519 12 12 0 0 0-.303 1.544c-.171 1.667-.279 3.388.066 5.039.06.554.417 1.075.333 1.633-.258.763-1.071.584-1.454.012-1.886-2.145-2.998-4.996-2.938-7.874.15-2.763 1.349-6.14 3.354-8.077 1.88-1.908 4.893-2.332 7.132-.812 1.871 1.485 2.356 4.042 2.794 6.278zM135.883 72.45c.09.672.342 1.433.072 2.084-.237.433-.876.46-1.163.067-.432-.745-.552-1.63-.96-2.39-.41-.797-1.07-1.782-2.08-1.67-1.373.11-3.264.788-4.335-.406-.446-.53-.063-1.581.693-1.402-.273-.34-.135-.897.27-1.058a6.1 6.1 0 0 1 1.894-.427 6.3 6.3 0 0 1 2.455.364c2.066.666 2.695 2.954 3.154 4.841z"/><path fill="#FED980" d="M129.439 44.384c-.525-.555-.135-1.336.105-1.933.329-.824 1.442-2.796 2.479-2.55 1.307-.789 2.851-1.198 4.37-.98.873.11 2.033.413 2.243 1.41.087.502-.294.966-.765 1.087-.302.094-.62.051-.926.118-.875.212-1.694.63-2.5 1.027-.869.448-1.709.948-2.563 1.42-.72.361-1.706 1.052-2.446.395z"/><path fill="#0D0C21" d="M143.194 60.475c1.163 2.317-2.444 1.744-3.694 1.702-2.275-.033-4.547.206-6.822.082-2.012-.076-4.032.057-6.032-.212-.404.342-.71 1.32-1.316 1.184-1.52-.733 1.523-3.332 2.189-3.917 1.163-.978 2.533-1.805 4.031-2.111.759-.125 1.499.12 2.231.278.821.158 1.667.073 2.485-.078 1.391-.373 2.251-.988 3.705-.237 1.475.61 2.431 1.973 3.223 3.309"/><path fill="#A7A6B5" d="M179.016 60.326c.441.936-.156 1.605-1.136 1.433-1.002-.067-2.006-.173-3.013-.097-.95.066-1.898.182-2.851.245-1.75.14-3.501.06-5.255.049-.869.012-1.732.027-2.566.081-.461.034-.92.082-1.379.134-.509.048-1.058.17-1.538-.067-.761-.46-.386-1.52-.344-2.248.254-1.457 1.184-2.796 2.428-3.568.797-.485 1.652-.973 2.578-1.115.56-.31.887.106 1.148.554.45.627.791 1.354 1.367 1.878.902-.593 1.715-1.166 2.587-1.75.671-.404 1.343-1.037 2.17-.991 1.244.354 2.488.97 3.43 1.881.557.573.908 1.3 1.346 1.963.353.53.764 1.033 1.028 1.62z"/><path fill="#FFF7DB" d="M144.724 90.403c.039 1.324.753 2.83-1.298 2.578-1.277-.055-2.56 0-3.834-.112-.989-.088-1.966-.26-2.953-.367-1.226-.14-2.416-.145-3.642-.212-1.847-.097-3.687-.312-5.54-.29-1.879.032-3.759.223-5.638.096-3.04-.07-2.306-1.675-1.382-3.76.743-1.711 2.08-3.244 4.095-3.005 1.223.082 2.461.158 3.651.473a.682.682 0 0 1 .953.433c.024.182.174.336.129.527.165.755.429 1.515 1.028 2.03.627.588 1.538.582 2.326.415 1.062-.17 1.907-.945 2.234-1.972.263-.694.254-1.494.662-2.124.402-.575 1.145-.466 1.736-.351q.6.094 1.205.166c3.51.291 6.391 1.367 6.265 5.466z"/><path fill="#0D0C21" d="M179.342 86.361c.486 1.212 3.897 5.36.663 5.026-2.611-.3-5.219-.703-7.851-.642-3.657.055-7.312-.136-10.963-.209-.572 0-1.229-.47-.968-1.103.435-.727 1.073-1.324 1.634-1.954.401-.363 1.475-1.675 2.218-1.857a3.7 3.7 0 0 0 1.592.44c.455.027.962-.055 1.442-.237 1.13.188 2.209.588 3.099 1.357 1.289.846 1.145.449 2.117-.454.959-.954 1.891-1.942 2.845-2.908.575-.5 1.217-1.476 2.071-1.3.54.16.68.77.917 1.22.405.87.771 1.758 1.187 2.621z"/><path fill="#FED980" d="M176.147 70.178c.249.26.246.73-.03.966-.387.322-.881.122-1.331.182-2.293.125-6.106.115-7.542 2.19-.411.588-.555 1.379-.327 2.067.156.418.411.79.537 1.224.18.693.228 1.55.369 2.193.164.851.416 1.684.683 2.511.261.921.642 1.933.294 2.882-.3.663-.959 1.16-1.691 1.432a3.55 3.55 0 0 1-1.442.237 3.7 3.7 0 0 1-1.592-.44 5 5 0 0 1-.656-.415c-1.79-1.293-1.352-3.786-1.208-5.713.252-2.781.833-5.565 2.017-8.098 1.334-2.575 3.741-5.105 6.808-5.071 1.379.087 2.791.593 3.855 1.496.669.612 1.073 1.475 1.256 2.36z"/><path fill="#000" d="M240.208 72.12c-1.208-.37-2.281-1.237-2.992-2.279-1.154-1.893-.884-4.169-.752-6.28.111-1.309.303-2.608.465-3.911.152-.603-.006-2.551.965-2.248.506.248.318.987.318 1.433-.114 1.76-.441 3.499-.594 5.256-.06.879-.09 1.757-.099 2.639-.072 1.024.234 2.066.911 2.838 1.592 1.754 2.8 1.724 4.917.991a17 17 0 0 0 3.891-1.984c.872-.573 1.615-1.37 1.951-2.382.288-.654 1.253-.25.998.428-.197.539-.47 1.075-.827 1.52-1.652 1.964-6.586 4.514-9.149 3.981z"/><path fill="#000" d="M249.473 66.076c-.045-.527.383-.542.749-.673.294-.16.492-.448.641-.745.354-.558.639-2.67-.122-2.92-.411.124-.753.569-1.212.481-.485-.16-.224-.757.057-.997 1.026-1.075 2.396-.52 2.62.903.309 1.533-.164 3.508-1.642 4.25-.384.192-1.005.252-1.091-.302z"/><path fill="#000" d="M249.038 61.355c-1.403-.775-2.371-2.157-3.243-3.475-.903-1.393-2.036-3.35-3.868-3.45-1.549.351-2.326 1.954-3.366 3.014-.528.636-1.622 1.212-2.104.215-.198-.545-.228-1.145-.231-1.72-.084-2.845 2.236-5.45 5.15-4.808.393.066.935.548.423.86-.264.09-.552-.015-.825-.021-2.665-.224-4.074 2.714-3.612 5.056 1.757-1.566 3.429-4.917 6.202-3.287 2.614 1.415 3.259 4.738 5.642 6.401.348.185.758.458.566.915-.116.282-.461.43-.737.303z"/><path fill="#000" d="M251.73 63.158c-.654-.588.347-1.181.539-1.751.54-1.26.72-2.723.477-4.078-.393-1.857-1.856-3.205-3.196-4.426-1.13-1.051-2.53-1.942-4.124-1.793-1.751.072-2.986 1.306-3.64 2.866-.284.545-.92.29-.899-.288.057-1.07.833-1.972 1.601-2.645 1.729-1.442 4.373-1.46 6.256-.297.812.5 1.535 1.13 2.227 1.785 1.625 1.475 3.103 3.365 3.136 5.665 0 1.372-.225 2.811-.941 4.002-.318.454-.774 1.408-1.433.96zm-13.912-4.05c-.171-.064-.264-.234-.276-.41.024-.875 2.02-1.102 2.704-1.196.668.009.797.966.153 1.154-.561.094-1.128.185-1.673.352-.291.081-.609.22-.911.1z"/><path fill="#000" d="M245.669 59.505c-.533-.261-1.028-.564-1.58-.767-.275-.103-.53-.136-.791-.221a.594.594 0 0 1-.324-.767c.453-1.008 2.572.328 3.241.652.647.4.15 1.384-.546 1.102m-5.171 2.864c-.531 0-1.397-.118-1.148-.863.168-.388.62-.418.983-.385.345.027.717.009 1.049-.06.339-.119.762.014.861.393.176.94-1.143.854-1.745.915m.863 3.387c-3.459-.14-2.509-2.405.39-1.787.587-.255 1.786.53 1.568 1.242-.276.694-1.352.521-1.955.545zm1.025-.578c.396-.013.423-.106.141-.379-.204-.212-.488-.3-.746-.412-.642.018-1.334.055-1.901.382.324.284.843.312 1.229.354.426.04.855.067 1.28.052zm-3.863-5.23c-.218-.57 1.178-.963 1.565-.884.453.185.228.706-.198.736-.347.079-1.112.518-1.367.148m5.687-.169c-.36-.094-.849-.037-1.097-.358-.105-.19.059-.394.248-.43.243-.046.492.027.729.09.195.064.419.119.548.298.177.293-.173.475-.425.403zm-4.53 20.23c-.458-.206-.312-.8-.357-1.197a50 50 0 0 1-.104-2.126 53 53 0 0 1 .062-3.766c.054-.44-.047-1 .276-1.345.207-.197.591-.109.687.164.135.445-.03 1.014-.033 1.442-.126 1.778-.093 3.562-.081 5.344 1.463-2.079 2.917-4.208 4.736-5.987.771-.712 1.634-1.333 2.311-2.132a14.7 14.7 0 0 0 1.874-2.781c.231-.43.785-.037.492.357-.84 2.584-3.073 4.217-4.905 6.06-.863.99-1.564 2.108-2.347 3.162-.455.64-.89 1.287-1.349 1.92-.315.388-.674 1.08-1.262.88z"/><path fill="#000" d="M238.754 81.49c-.438-.745-.629-1.751-.8-2.566a25 25 0 0 1-.387-3.542c-.704.615-1.31 1.321-2.05 1.87-.459.27-.918-.152-.825-.646.087-.642.336-1.233.57-1.83.518-1.305 1.133-2.674 2.287-3.526.357-.239.809-.53 1.25-.39.192.078.306.287.228.49-.057.146-.195.212-.324.276-1.349.715-1.969 2.254-2.521 3.59.381-.36.72-.77 1.13-1.097.189-.17.405-.348.678-.309.764.164.632 1.16.671 1.76.012 1.588.132 3.2.576 4.693.363-.445 1.052.045.77.545-.246.424-.722 1.17-1.253.676zm1.672-2.036a.51.51 0 0 1 0-.706q.458-.497.939-.973c.611-.6 1.22-1.208 1.864-1.775.798-.615 1.85-1.45 2.908-1.075.767.472 1.469 1.239 2.419 1.309.222-.019.309-.276.408-.443.255-.545.476-1.106.71-1.657.384-.948.786-1.9.999-2.902.023-.188.092-.394.02-.579-.266-.29-.56-.56-.83-.851-.282-.349-.944-.864-.782-1.354.389-.633.956.263 1.304.512.509.527 1.301.966 1.373 1.769.039 1.427-.639 2.76-1.115 4.072-.405.833-.609 1.88-1.4 2.435-.849.488-1.871-.021-2.59-.527a5.4 5.4 0 0 1-.837-.715c-.168-.154-.41-.033-.599.015-1.145.406-2.003 1.297-2.839 2.148-.42.427-.84.858-1.25 1.297a.495.495 0 0 1-.699 0z"/><path fill="#000" d="M225.523 89.49c-.567-.163-.279-.851-.15-1.2.162-.5.35-.99.524-1.484.378-1.197.621-2.433.992-3.632.87-2.77 2.387-7.156 5.052-8.544 1.256-.49 2.53-.948 3.81-1.378.248-.106.674-.082.641.288-.087.345-.494.457-.764.624-.929.457-1.895.83-2.845 1.236-.429.163-.839.372-1.178.69-2.051 2.058-3.136 5.196-3.918 7.929-.39 1.451-.705 2.93-1.253 4.329-.204.424-.267 1.275-.905 1.142z"/><path fill="#000" d="M223.864 102.557c-1.853-.325-2.767-2.282-3.457-3.85-1.496-3.64-2.002-7.638-1.93-11.561.018-.597.036-1.197.096-1.794.018-.173.045-.388.195-.5.611-.309.572.618.584.994-.09 4.462.378 9.049 2.317 13.109 1.535 3.247 3.679 3.665 4.476-.27.318-1.681.285-3.414.042-5.105-.147-1.345-.459-2.611-1.127-3.775a.2.2 0 0 0 .018.037v.006c-1.691-3.2-1.811-4.123-1.568-7.686q0-.103.003-.206.064.036.129.064.058.063.126.12a1 1 0 0 0 .33.2c.062.022.122.031.185.043.063.01.126 0 .186-.006-.045 1.173-.201 2.366.018 3.514.366 2.124 2.033 3.715 2.464 5.808.483 2.605.78 5.371.075 7.955-.341 1.373-1.316 2.927-2.827 2.927q-.164 0-.338-.024zm36.441 1.206c-2.818-.8-5.106-3.078-6.074-5.853-.201-.455.291-.954.741-.748.194.078.296.257.35.45q.194.546.447 1.067a7.2 7.2 0 0 0 1.052 1.579c1.505 1.726 3.906 3.156 6.238 2.587 1.271-.43 1.28-2.133 1.394-3.22.099-1.249.051-2.5-.039-3.748-.347-4.65-.323-9.334-1.046-13.945-.458-2.875-1.451-6.262-4.397-7.404-2.483-1.057-5.055-1.836-7.585-2.733-.201-.081-.407-.266-.365-.511.096-.54.755-.361 1.109-.264 2.035.645 4.044 1.388 6.046 2.133 1.697.587 3.382 1.418 4.341 3.023 1.795 2.87 1.999 6.38 2.326 9.673.171 1.979.273 3.872.402 5.805.192 2.711.446 5.392.228 8.1-.165 1.276-.186 2.809-1.251 3.691-1.112.86-2.655.666-3.92.315zM250.112 90.13c0-.11.09-.197.195-.197a.2.2 0 0 1 .195.196.2.2 0 0 1-.195.197.2.2 0 0 1-.195-.197"/><path fill="#000" d="M253.606 97.589c-1.406-.218-2.056-2.16-2.587-3.308-.317-.967-1.028-2.2-1.259-3.193-.087-.552-.162-.764.006-1.306.072-.118.204.033.345.06.369.073.642.343.71.652.114.512.096.833.267 1.445.828 1.324 1.193 2.911 2.009 4.214.404.554.638.697 1.124.118.402-.412 1.055.167.701.621-.311.406-.773.776-1.313.694z"/><path fill="#000" d="M250.007 90.63c-1.46-1.064-2.683-2.466-3.69-3.969-.708-.984-.585-2.281.884-2.066 1.676.333 3.867 2.36 5.081 3.55.363.461.963 1.234.462.925.099.487-1.895-.8-2.056-.967-.864-.857-2.701-2.463-3.909-2.539.197.694.728 1.267 1.16 1.83a33 33 0 0 0 2.641 2.651c.59.557 0 1.181-.576.588zm3.202-3.087c-.141-.249.027-.51.048-.76-.123-1.5-.834-2.894-1.203-4.348-1.091-3.05 1.598-2.82 2.779-.748.168.303.354.609.465.939.138.484-.516.815-.815.412-.495-.73-.993-1.654-1.841-1.994-.111 1.794 2.365 4.848 1.322 6.338-.153.251-.561.494-.761.164z"/><path fill="#000" d="M255.057 89.26c-.227-.278-.2-.287-.236-.623-.033-1.457-.12-2.912-.189-4.369-.015-.681-.144-1.378.009-2.05.159-.725 1.01-.904 1.448-.31.404.497.578 1.16.797 1.748.246.806.471 1.651.438 2.5.012.275-.102.6-.423.596a.41.41 0 0 1-.402-.354c-.108-1.3-.404-2.545-1.046-3.669-.135.552.3 4.354.135 6.035-.069.697-.075.751-.531.497"/><path fill="#000" d="M256.247 93.044c-.144-1.212-.504-2.415-1.155-3.448-.608-.845-1.432-1.481-2.26-2.078.144.824.546 1.554.992 2.227.18.36 1.229 1.378.432 1.554-.387-.045-.587-.47-.803-.754-.531-.827-1.061-1.679-1.322-2.636-.24-.663-.066-1.527.791-1.327.732.212 1.286.806 1.856 1.285.509.463 1.01.945 1.367 1.542.494.86.782 1.835.926 2.817.021.409.252 1.1-.318 1.203a.45.45 0 0 1-.503-.385z"/><path fill="#000" d="M254.575 95.623v-.015c-.506-1.521-1.492-2.833-2.287-4.215-.183-.342-.411-.7-.423-1.102-.029-.452.399-.821.831-.655 1.013.458 1.891 1.249 2.626 2.082.222.218.459.754.012.854-.228.024-.396-.188-.543-.33-.569-.527-1.136-1.055-1.735-1.527.695 1.075 1.397 2.15 1.957 3.308.216.497.549.973.516 1.536.066.676-.933.745-.954.067zm2.126-3.276c-.24-.033-.39-1.151-.36-1.39.051-.425.147-3.793.162-4.56.024-.14.24-.606.405-.648.212-.052.461-.158.482.518.054 1.615-.288 5.892-.33 6.213-.039.358.123-.072-.359-.13z"/><path fill="#000" d="M262.862 96.65c-1.385-1.075-3.319-.954-4.827-1.845-.782-.4-1.669-1.136-1.603-2.109.063-.412.509-.469.725-.133 1.16 1.948 3.681 1.745 5.525 2.59.354.176.707.394.965.703.393.512-.273 1.19-.785.794m-43.585-11.097c-1.481-1.194-2.344-2.948-3.492-4.432-.651-.952-1.562-1.691-2.162-2.682-.53-.87-1.013-3.514-.282-4.31.915-.552 1.089 1.354 1.448 1.866.411.808.93 1.535 1.49 2.238.327.415-.276.952-.641.573-.927-1.009-1.61-2.22-1.94-3.554-.012 1.106.351 2.227.938 3.157.519.767 1.265 1.34 1.817 2.081 1.058 1.273 1.829 2.703 2.89 3.957.195.24.446.442.584.724.165.442-.332.66-.65.382"/><path fill="#000" d="M216.797 79.83c-.156-.073-.213-.227-.252-.385-.102-.451-.198-.903-.327-1.348a104 104 0 0 1-1.642-6.592c-.033-.322.23-.649.566-.591.911.266 1.214 2.045 1.664 2.83.476.99.821 2.047 1.151 3.09.117.445-.528.675-.705.248a35 35 0 0 0-1.828-4.635c.273 1.115.489 2.248.779 3.36.255.914.57 1.808.81 2.726.087.385.557 1.442-.213 1.3z"/><path fill="#000" d="M217.439 75.916c-.125-.082-.146-.227-.173-.364-.06-.309-.102-.62-.141-.936-.129-.775-.03-1.551.129-2.311.188-.855.431-1.712.857-2.467.273-.381.785-.293.929.152.15.464.108.97.126 1.451-.024.688.021 1.379.018 2.066-.015.391.045 2.118-.162 2.47-.225.369-.554.081-.614-.246-.06-1.233.186-3.763-.009-4.993-.507.894-.585 1.97-.597 2.975-.072.388.354 2.503-.36 2.2z"/><path fill="#000" d="M219.679 73.14c.021-.03-.099-.296-.105-.327-.171.688-.36 2.427-.558 3.093-.132.364-.506.221-.491-.133 0-.727.233-2.481.398-3.184.189-.597.258-1.309.681-1.79a.48.48 0 0 1 .539-.052c.669.521.345 1.718.339 2.46-.084.906.063 1.872.315 2.75a3 3 0 0 0-.072.25l-.147.569c-.021.088-.036.178-.054.27l-.018.087a.5.5 0 0 0-.108.124c-.599-1.275-.869-2.71-.713-4.114zm7.08 26.624c-.809-.488.201-1.167.558-1.579 1.04-1.096 1.931-2.163 2.761-3.402q0 .022.006.046.1.735.213 1.472l-.234.309c-.558.657-2.137 3.184-3.127 3.184a.5.5 0 0 1-.177-.03m8.671-14.948a.43.43 0 0 1-.294-.521c.015-.058.033-.112.048-.17.021-.07.048-.133.078-.2l.027-.118q.05-.257.072-.518v-.03q-.013 0-.027.003c-.06.006-.12.012-.18.009-.048 0-.093-.01-.141-.015-.141.015-.282.039-.423.06l-.398.064c-.312.051-.624.103-.891.157-.368.076-.731.167-1.1.246q-.153.03-.305.063.057-.385.119-.766.257-.05.51-.094c.249-.043.498-.082.746-.127q.372-.07.744-.146c.234-.045.471-.084.704-.133l.18-.036a1 1 0 0 1 .126-.058c.072-.027.144-.042.222-.058q.122-.028.249-.042a.61.61 0 0 1 .581.249.9.9 0 0 1 .141.396 1.8 1.8 0 0 1-.054.64c-.039.154-.087.306-.132.46a2 2 0 0 1-.036.203c-.015.06-.036.118-.054.179a.43.43 0 0 1-.404.312.5.5 0 0 1-.111-.015z"/><path fill="#000" d="M231.769 86.854c.572-.466 1.388-.945 1.628-1.133.596-.39 1.226-.72 1.846-1.066.111-.091.24-.16.387-.14.378.037.498.606.153.785-.3.133-.594.282-.885.433-.653.394-1.378.843-1.993 1.258-.36.248-.707.512-1.061.772-.021-.303-.051-.606-.078-.909z"/><path fill="#000" d="M232.146 93.78c.368-.43.761-.835 1.142-1.254 1.328-1.354 1.055-1.35 1.04-3.132.027-1.282.093-2.503.381-3.739.072-.233.132-.53.369-.648.212-.094.416.106.428.321-.006 1.464-.222 2.915-.288 4.345-.081.636-.075 1.272-.126 1.905-.077.355-.284.667-.5.948-.708.885-1.532 1.682-2.344 2.463-.048-.4-.078-.805-.102-1.208m4.857 24.85c-.375-5.426.093-10.858.495-16.268.249-3.605.539-7.217 1.199-10.773.71-3.908 1.942-7.731 3.357-11.41.618-1.469 1.247-2.947 2.066-4.316.123-.188.284-.476.542-.467a.366.366 0 0 1 .378.37c-.015.336-.252.639-.372.948a128 128 0 0 0-1.553 3.557 54 54 0 0 0-2.865 8.74c-1.274 5.531-1.622 11.227-2.024 16.877-.219 3.214-.434 6.435-.419 9.658a33 33 0 0 0 .11 3.017c0 .555-.833.637-.914.064zm-2.461.31a.55.55 0 0 1-.146-.358c-.045-.669-.036-1.342-.048-2.015q-.017-1.131-.03-2.26c-.057-4.544.278-9.07.68-13.578.309-3.187.735-6.365 1.265-9.522.498-2.841.968-5.656 1.871-8.388.165-.403.356-1.451.929-1.063.324.275-.285 1.857-.348 2.314-1.999 8.286-2.95 16.808-3.279 25.315a251 251 0 0 0-.114 7.049c.006.718.036 1.433.072 2.148.021.433-.564.676-.855.358zm25.018 2.524c-.201-4.975-.3-9.955-.417-14.933a89 89 0 0 0-.122-2.732c0-.291-.075-.603.024-.882.308-.527.842-.145.905.345.291 1.473.297 2.99.366 4.487.084 3.469.069 6.938.212 10.403.033 1.103.099 2.209.096 3.309-.081.615-.977.621-1.067 0z"/><path fill="#000" d="M238.678 84.55c0-.373.309-.685.677-.685s.678.312.678.685a.69.69 0 0 1-.678.685.69.69 0 0 1-.677-.685m-1.309 7.425c0-.363.303-.67.662-.67s.663.307.663.67-.303.67-.663.67a.674.674 0 0 1-.662-.67m-.903 7.54c0-.351.291-.642.635-.642s.636.294.636.642a.65.65 0 0 1-.636.643.65.65 0 0 1-.635-.643m-.713 7.805c0-.361.3-.664.656-.664s.657.303.657.664c0 .36-.3.663-.657.663a.67.67 0 0 1-.656-.663m-.029 6.97c0-.363.299-.663.656-.663s.657.303.657.663-.3.664-.657.664a.667.667 0 0 1-.656-.664m-4.693-27.946c-.114-.188.228-.258.192-.04-.024.085-.138.112-.192.04"/><path fill="#000" d="M227.144 118.55c-.125-7.389 1.763-14.62 2.671-21.915.501-3.833.567-7.717 1.238-11.525.207-1 .393-2.044.933-2.926l-.018.033c0 .01-.006.015-.009.025.126-.358.692-.24.602.175-.129.997-.437 1.96-.62 2.948-.549 2.793-.606 5.647-.801 8.419-.236 4.026-.944 8.001-1.579 11.975-.57 4.154-1.268 8.338-1.199 12.537.17.845-1.047 1.133-1.221.257z"/><path fill="#000" d="M230.415 96.044c-.12-.339.105-.636.315-.878.419-.46.872-.888 1.298-1.342.719-.74 1.322-1.457 2.014-2.197.177-.266.531-.442.809-.218.186.146.261.442.126.648-.404.519-.836 1.015-1.262 1.518-.428.503-.848.954-1.31 1.415-.464.373-1.421 1.978-1.993 1.054zm.47-8.004c-.192-.685.753-1 1.139-1.327.828-.566 1.613-1.19 2.402-1.805.53-.4 1.133.39.614.805-.237.17-.492.319-.74.47-.75.467-1.4.903-2.054 1.47-.264.218-.467.536-.812.626-.207.052-.462-.015-.546-.236zm-10.231-4.993c-.507-.697-.561-1.657-.66-2.49-.087-1.021.087-2.03.384-3.005.09-.276.117-.588.303-.819.321-.318.653.043.515.425-.512 1.405-.467 2.972-.257 4.435.069.324.167.642.266.957a.386.386 0 0 1-.134.521.38.38 0 0 1-.423-.027z"/><path fill="#000" d="M223.723 84.753c-.701-.137-.357-.994-.354-1.488.075-.836.147-1.563.15-2.378-.018-1.936-1.19-3.732-.83-5.68.147-.667.483-1.282.56-1.966-.752.963-1.393 2.147-1.471 3.377-.051.9.135 1.718.206 2.597.048.37-.509.451-.563.079-.495-2.182-.51-4.302 1.001-6.093.165-.212.336-.43.558-.59.308-.267.812-.113.881.308.075.846-.396 1.673-.417 2.506-.051 1.663.618 3.217.9 4.826.117.812.093 1.533.042 2.333-.027.575-.042 1.15-.081 1.726-.021.282-.315.482-.582.446z"/><path fill="#0D0C21" d="M205.588 116.32q-.04-3.589-.083-7.177-.044-3.994-.093-7.989-.044-4.051-.093-8.104-.05-4.299-.096-8.6-.049-4.454-.102-8.907c-.033-2.903-.069-5.802-.099-8.704-.03-2.854-.063-5.71-.09-8.564q-.042-4.207-.057-8.413v-1.915q0-.505.003-1.012c0-.17 0-.336.015-.506q0-.027.006-.054a.5.5 0 0 1 .033-.149.6.6 0 0 1 .081-.148c-.012.018-.024.04-.036.057h.003a.6.6 0 0 1 .132-.163c.207-.191.536-.155.731.027q.067.06.108.142.017.03.03.058.036.091.045.188 0 .021.006.042c.018.182.024.36.027.543l.027 1.078.045 1.987q.04 2.115.072 4.224c.045 2.847.081 5.695.117 8.543q.053 4.3.102 8.597l.102 8.825.102 8.731c.033 2.827.069 5.65.099 8.474l.093 7.849q.045 4.134.095 8.268l.033 2.735a.69.69 0 0 1-.662.706h-.015c-.36 0-.678-.3-.681-.669"/><path fill="#0D0C21" d="M204.982 46.523a.58.58 0 0 1-.42-.463.58.58 0 0 1 .261-.576.6.6 0 0 1 .351-.081c.62-.064 1.241-.146 1.862-.21q1.174-.117 2.35-.23a2466 2466 0 0 1 14.224-1.293l.518-.046c.063-.006.126-.015.189-.015l.147-.015c.033 0 .063-.006.096-.006l.063-.006c.117-.012.231-.021.258-.024.054-.007.108-.01.153-.016.521-.045 1.043-.093 1.535-.136q4.959-.444 9.922-.881l10.156-.9 9.827-.87 9.925-.878c3.223-.285 13.861-1.321 13.954-1.321a.69.69 0 0 1 .696.672c.006.355-.273.679-.627.7-.105.012-.536.046-.635.055-.366.033-11.907 1.133-15.193 1.424l-9.823.866-9.814.863q-5.05.446-10.1.888-4.963.437-9.925.87l-.204.018-.087.009a4 4 0 0 1-.192.015q-.036.005-.072.006-4.585.402-9.176.794-2.41.204-4.823.406c-1.541.127-3.079.263-4.622.351l-.486.027a.7.7 0 0 1-.156.022 1 1 0 0 1-.135-.016zm76.204 76.876c-.03 0-.24.034-.573.006l-3.861-.303c-3.276-.257-6.553-.518-9.829-.772q-5.01-.396-10.019-.788l-10.129-.8q-5.057-.397-10.114-.799l-10.153-.806q-5.042-.398-10.085-.806c-3.291-.264-6.583-.518-9.868-.824a36 36 0 0 1-.567-.058c-.174-.021-.356-.039-.506-.136l-.006-.003-.006-.003a.55.55 0 0 1-.168-.182.57.57 0 0 1 .201-.763c.144-.079.293-.088.452-.085.177 0 .351.015.528.024.378.021.758.049 1.136.073q1.254.087 2.509.179 2.523.187 5.048.378 5.014.384 10.028.773 5.067.391 10.132.787l10.075.785 10.138.791 10.13.79 9.796.767c2.893.227 2.272.127 5.162.351h.042l.543.043h.009q.027 0 .054.006c.332.024.587.36.584.681 0 .346-.294.685-.647.685h-.036z"/><path fill="#0D0C21" d="M280.508 123.152v-.106c-.018-1.336-.018-2.675-.03-4.011l-.036-4.957c-.024-3.356-.051-6.716-.072-10.073-.024-3.508-.054-7.02-.075-10.527-.021-3.539-.05-7.08-.074-10.619l-.072-10.488q-.037-5.358-.069-10.715c-.018-3.445-.039-6.89-.048-10.33-.012-3.427-.027-6.854.006-10.28q.004-.389.012-.779c.003-.175 0-.36.027-.536.012-.203-.513-1.07-.321-1.127.375-.02 1.175-.212 1.292.255.036.142.051 1.07.06 1.215.012.206.015.412.021.615q.017.645.03 1.29c.018.842.036 1.688.048 2.53q.039 2.582.069 5.165.061 5.158.105 10.316.05 5.289.09 10.579c.027 3.523.054 7.05.084 10.572a36433 36433 0 0 0 .161 21.159l.075 10.109.072 9.852q0 .324.003.648v.215a.69.69 0 0 1-.668.7h-.012a.69.69 0 0 1-.681-.675zM115.632 91.548c-.027-2.394-.405-12.99-.438-15.693q-.05-4.299-.096-8.6-.048-4.455-.101-8.907c-.033-2.903-.069-5.802-.099-8.704-.03-2.854-.063-5.71-.09-8.565q-.042-4.206-.057-8.413v-1.914q0-.506.003-1.012a6 6 0 0 1 .021-.56.5.5 0 0 1 .033-.149.6.6 0 0 1 .081-.148l-.036.057h.003a.6.6 0 0 1 .132-.164c.206-.19.536-.154.731.028q.067.06.108.142.017.029.03.058.036.091.045.188 0 .021.006.042c.018.182.024.36.027.542l.027 1.079.045 1.987q.04 2.114.072 4.223c.045 2.848.081 5.696.117 8.543q.053 4.299.102 8.598l.101 8.825.102 8.731c.033 2.827.069 5.65.099 8.474.03 2.617.378 10.364.39 11.275a.69.69 0 0 1-.662.706h-.015c-.36 0-.678-.3-.681-.67"/><path fill="#0D0C21" d="M114.858 29.33a.58.58 0 0 1-.42-.463.58.58 0 0 1 .261-.575.6.6 0 0 1 .351-.082c.62-.064 1.241-.145 1.862-.209q1.174-.118 2.35-.23 2.414-.227 4.829-.449a3720 3720 0 0 1 9.913-.89c.063-.006.126-.015.189-.015q.071-.009.147-.016c.033 0 .063-.006.096-.006l.063-.006c.117-.012.231-.02.258-.024l.153-.015c.521-.046 1.043-.094 1.535-.136 3.306-.297 6.613-.588 9.922-.882l10.156-.9q4.916-.434 9.827-.87 4.963-.438 9.925-.878c3.223-.285 11.388-.878 13.658-1.081q.02 0 .039-.003c.093-.01.185-.022.278-.025.372-.009.687.3.696.673.006.354-.273.678-.627.7-.105.012-.213.018-.317.027h-.027q-.144.015-.288.024c-.366.034-3.765.203-5.357.343q-4.93.433-9.86.87-4.912.432-9.823.866l-9.815.863q-5.049.447-10.099.887-4.962.437-9.925.87l-.204.018-.087.01q-.094.008-.192.014a2612 2612 0 0 1-14.071 1.206c-1.541.127-3.079.264-4.623.352l-.485.027a.7.7 0 0 1-.156.021 1 1 0 0 1-.135-.015z"/><path fill="#0D0C21" d="M190.386 105.959v-.106c-.018-1.336-.018-2.675-.03-4.011l-.036-4.956c-.024-3.357-.051-6.717-.072-10.073-.024-3.508-.054-7.02-.075-10.528-.021-3.538-.051-7.08-.075-10.618l-.072-10.488q-.037-5.358-.069-10.716c-.018-3.444-.039-6.889-.048-10.33-.012-3.427-.027-6.853.006-10.28q.004-.389.012-.778c.003-.176 0-.36.027-.536.012-.203.177-.894.369-.949.273-.081.527.082.62.34.048.14.042.303.051.448.012.206.015.412.021.615q.017.645.03 1.29c.018.843.027 2.188.039 3.033q.039 2.583.069 5.166.061 5.158.105 10.315.05 5.29.09 10.58c.027 3.522.054 7.049.084 10.572l.081 10.576.081 10.582.075 10.11.072 9.851q0 .325.003.649v.215a.69.69 0 0 1-.669.7h-.012a.69.69 0 0 1-.68-.676zm-29.763-44.288c-.266-.212-.191-.587-.197-.89.02-1.112.362-2.233.998-3.139.638-.936 1.538-1.657 2.539-2.166 1.178-.57 2.479-1.194 2.668-2.624a.31.31 0 0 1 .297-.23c.53.04.392 1.133.239 1.472-1.262 2.478-5.647 2.188-5.77 6.805-.006.227.054.484-.096.681a.483.483 0 0 1-.681.088zm18.145-.151c-.129-1.667-1.112-3.188-2.245-4.342-.912-.836-2.081-1.206-3.13-1.8-.92-.466-1.808-1.581-1.34-2.65.246-.403.71-.197.755.23.288 1.69 2.599 1.887 3.765 2.811 1.652 1.048 3.22 3.7 3.259 5.68 0 .658-.98.73-1.064.073z"/><path fill="#0D0C21" d="M168.167 58.109c-.231-.088-.393-.285-.528-.485a11.7 11.7 0 0 1-1.145-1.903c-.153-.418-.731-1.236-.132-1.508.417-.082.612.415.801.702.455.749.878 1.515 1.352 2.251.527-.07 1.052-.493 1.459-.739a16 16 0 0 0 2.309-1.92c.174-.182.35-.382.572-.503.321-.194.717.157.567.503-.576 1.1-3.981 4.123-5.255 3.602"/><path fill="#0D0C21" d="M170.014 60.154c-.318-.025-.579-.313-.714-.558l.009.015q0 .005.006.006c-.204-.303-.41-.606-.575-.933-1.064 1.89-2.437 1.242-3.013-.57-.147-.536-1.199-2.686-.198-2.726.603.04 1.238 2.927 1.748 3.417.075.052.147-.051.207-.09.261-.23.467-.519.632-.825.186-.463.675-.76 1.097-.384.468.397.669 1.011 1.014 1.508 1.45-.909 2.524-2.375 3.318-3.877.282-.485 1.031-.11.812.412-.596 1.202-1.277 2.387-2.224 3.347-.593.536-1.25 1.324-2.119 1.258"/><path fill="#0D0C21" d="M167.601 62.2c-.828-.187-.303-1.338-.258-1.911.117-.527.291-1.89 1.079-1.575.333.194.18.62.117.918-.108.451-.204.902-.252 1.366-.054.467-.021 1.27-.689 1.203zm2.284-.793c.015-.615-.137-1.236-.057-1.845.06-.227.273-.418.519-.375.363.063.468.43.528.745.081.488.093.984.12 1.475-.012.733-1.092.736-1.11 0m2.693-8.152c-.27-.536.225-.76.612-.975.371-.267.68-.618.938-.997.833-1.276 1.103-2.83 1.391-4.293.231-1.63-.027-3.269-.267-4.88-.255-1.576-.462-3.172-.929-4.7-.354-.93-.924-1.86-1.814-2.341-1.67-.779-3.597-.509-5.216.276-1.199.651-2.119 1.769-2.713 2.966 0-.007.006-.013.009-.016v-.006c-1.19 2.597-2.065 5.526-1.364 8.383.165.976.54 1.884 1.091 2.7.546.875 1.065 1.82 1.931 2.414.432.327 1.055.397 1.388.842a.48.48 0 0 1-.21.682c-.216.103-.462-.019-.665-.091-1.2-.36-2.126-1.267-2.761-2.33-.516-.812-1.026-1.642-1.349-2.554-1.253-3.572-.69-6.762.794-10.146.615-1.39 1.535-2.68 2.809-3.526 1.996-1.215 4.577-1.615 6.727-.575 2.692 1.45 3.84 5.098 4.301 7.804.21 1.402.423 2.935.348 4.362-.785 4.414-2.521 5.695-3.135 6.34-.408.395-1.439 1.388-1.916.667z"/><path fill="#0D0C21" d="M172.079 53.674c-.705-.137-.384-.921-.324-1.412.219-1.29.474-2.578.567-3.887.102-1.624-.108-3.29-.756-4.772-.38-.902-1.136-1.53-2.089-1.717-.6-.112-1.187.2-1.703.475-.336.243-.485.646-.674 1-.231.44-.489.87-.57 1.366-.129.652-.087 1.294-.099 1.948-.018.579-.096 1.176.111 1.73.567 1.16.498 2.472.878 3.684.075.379.312.779.186 1.166-.206.376-.575.167-.71-.16-.654-1.051-.854-2.278-.995-3.49-.273-1.057-.612-2.112-.45-3.217.009-1.642.108-2.927 1.142-4.287.432-.648 1.16-.957 1.865-1.203 1.142-.327 2.416.2 3.228 1.021 1.589 1.89 1.94 4.587 1.664 6.983-.117 1.151-.336 2.287-.528 3.43-.105.493-.027 1.396-.746 1.335z"/><path fill="#0D0C21" d="M168.798 49.28c-1.062 0-1.002-1.351.074-1.127.363.024.819.115.819.573 0 .475-.516.581-.893.554m-.999-2.533c-.779-.148-.389-1.3.321-.936.468.27.213 1.012-.321.936m2.213-.093c-.477-.367-.051-1.045.482-.954.968.257.258 1.557-.506.93zm-1.313 4.537c-.827-.403-.191-1.42.579-1.045.752.403.144 1.37-.579 1.045m-.96-5.925c-.389-.024-.677-.433-.521-.809.144-.378.641-.46.98-.33.707.351.279 1.315-.459 1.14m2.178-.277c-.279-.636.633-1.203 1.052-.636.516.73-.662 1.439-1.052.636m-1.435 9.25c-.677-.113-2.251-.852-1.367-1.643.411-.233.812.143 1.199.261.531.179 1.106.282 1.661.164a2.7 2.7 0 0 0 1.184-.558c.282-.336.698-.739 1.136-.39.66.587-.228 1.339-.719 1.68-.903.604-2.054.752-3.094.486m-.192 18.66c-.8-.069-.812-1.047-.033-1.193 1.901-.497 3.891-.53 5.786-1.04.23-.378.164-.853.134-1.278-.015-.281.225-.533.492-.57.648-.057.696.604.687 1.098.003.645-.12 1.402-.693 1.784-.74.382-1.751.412-2.515.582-1.28.218-2.56.578-3.858.62z"/><path fill="#0D0C21" d="M165.87 86.464a7.4 7.4 0 0 1-3.51-1.478c-.516-.391-.687-1.03-.702-1.654-.078-.985-.024-2.076.036-2.994.309-4.28.996-8.897 3.849-12.26 1.247-1.475 3.01-2.59 4.962-2.675 1.34-.112 2.641.367 3.762 1.072 1.232.691 2.17 1.894 2.38 3.32.045.552.234 1.525-.255 1.91-.336.193-.629-.158-.629-.485-.048-.427-.096-.855-.174-1.276-.285-1.687-1.892-2.642-3.343-3.211-2.584-.867-5.126.93-6.499 3.054-1.987 2.987-2.554 6.786-2.815 10.248-.057 1.255-.206 2.533.012 3.775.249.403.729.603 1.125.833.929.464 1.978.86 3.024.624.717-.081.924.949.234 1.155-.474.133-.974.103-1.457.045z"/><path fill="#0D0C21" d="M170.596 84.892c-1.142-.158-1.964-1.106-2.383-2.136-.372-.636-2.171-6.44-.54-5.914.174.097.231.31.276.491.138.594.255 1.19.381 1.785.395 1.514.788 4.762 2.838 4.662 1.152-.115 2.102-.963 2.734-1.894.369-.627.642-1.36.879-1.978a9 9 0 0 0 .299-1.066c.039-.376.147-.864.627-.803.782.14.258 1.342.198 1.866-.294 1.055-.66 2.142-1.343 3.008-.941 1.17-2.407 2.194-3.966 1.982z"/><path fill="#0D0C21" d="M168.36 77.545a3.3 3.3 0 0 1-.75-.31c-.797-.123-1.403-.917-1.57-1.684-.171-.69.129-1.402.548-1.939.959-1.272 3.049-1.848 4.308-.7.575.516.944 1.3.821 2.085-.213 1.56-1.732 3.078-3.357 2.55zm.767-1.145c.846-.128 1.766-1.246 1.403-2.109-.782-1.47-2.974-.636-3.315.763.338.755 1.055 1.379 1.912 1.346"/><path fill="#0D0C21" d="M170.966 74.991a.51.51 0 0 1-.237-.493c.192-.743 1.188-.864 1.817-1.015.821-.094.989 1.118.171 1.263a9 9 0 0 0-.914.2c-.267.073-.573.206-.837.045"/><path fill="#0D0C21" d="M174.365 76.64c-2.197-.546-1.681-3.073-.275-4.22.692-.595 2.527-1.376 2.949-.146.174.27.195.639.276.939.156.79.255 1.663-.129 2.402-.521.97-1.813 1.258-2.818 1.024zm.729-1.13c1.667-.058 1.247-1.61.917-2.73-.62.115-1.19.506-1.556 1.02-.536.855-.677 1.8.639 1.71m-3.467 3.114c-.368-.593.243-.933.774-.92.356-.025.686-.167 1.037-.222.51-.027.761.712.339 1.006-.393.24-.882.248-1.325.33-.288.04-.624.079-.825-.194m-.607 2.62c-.291-.042-.6-.112-.843-.287-.318-.216-.315-.715.018-.91.36-.202.771.061 1.151.055a5.4 5.4 0 0 0 1.085-.06c.384-.106.927-.149 1.056.339.129.457-.312.751-.714.781a5.2 5.2 0 0 1-1.756.08zm-7.115 14.863c-1.478-.042-5.378-.288-5.012-2.475.099-1.615.384-3.233.908-4.766.324-.805.918-1.475 1.529-2.072.642-.551 1.91-1.82 2.746-1.805.249-.018.396.315.216.494-1.148 1.157-2.494 2.153-3.322 3.59-.551 1.35-.749 2.929-.863 4.323-.006.206-.048.42-.018.62.234.198.534.291.812.404 1.625.554 3.376.42 5.064.433q1.45-.016 2.901-.04c3.807-.081 7.704-.045 11.482-.393.596-1.164.293-2.694.089-3.887-.713-3.584-2.745-7.071-5.959-8.889-.255-.148-.027-.324.09-.597.219-.496.435-.557.803-.293 1.916 1.142 3.448 2.902 4.56 4.82 1.298 2.365 2.875 6.94 1.496 9.467-.366.693-1.202.672-1.88.733q-.66.052-1.322.079c-4.769.203-9.545.281-14.32.254m-35.718-47.561c-.723-1.3-.309-3.078.782-4.038.306-.27.747-.47 1.157-.37.342.067.555.5.324.788-.114.146-.288.197-.447.27-.869.53-1.298 1.848-.854 2.78.351.65-.566 1.194-.962.567z"/><path fill="#0D0C21" d="M130.15 45.56c0-.152.126-.276.273-.276a.28.28 0 0 1 .273.276.28.28 0 0 1-.273.276.28.28 0 0 1-.273-.276"/><path fill="#0D0C21" d="M129.893 45.184c.012-.488.725-.488.737 0-.012.488-.725.488-.737 0m5.33 9.973c-1.124-.003-2.212-.406-3.106-1.087-.896-.682-1.346-1.779-1.732-2.809-.288-.797-1.026-3.878-.138-4.32.743-.236.722.788.782 1.273.054.493.123.984.219 1.469.348 1.672.983 3.53 2.782 4.041.899.324 1.891.203 2.731-.236 1.298-.773 1.637-2.454 1.972-3.826.132-.503.009-1.373.729-1.394.308 0 .611.273.593.6-.063.92-.305 1.82-.575 2.7-.624 2.144-1.967 3.523-4.257 3.59"/><path fill="#0D0C21" d="M130.35 44.863c-.944-.93 1.109-1.817 1.778-2.123 1.633-.715 3.414-.94 5.105-1.464.374-.166.875-.284 1.076-.678.048-.279-.048-.588-.297-.736-1.816-.952-4.143-.706-5.809.439-.903.6-1.538 1.518-2.039 2.469-.33.606-.483 1.297-.824 1.89-.354.376-.747 0-.702-.436.087-1.17.663-2.239 1.301-3.19 1.061-1.67 2.938-2.733 4.881-2.923 1.259-.076 2.611.003 3.735.633 1.451.87 1.295 2.826-.282 3.45-1.538.7-3.399.83-4.937 1.433-.585.21-1.163.449-1.685.788-.399.273-.776.848-1.301.445z"/><path fill="#0D0C21" d="M138.726 42.897c-.357-.009-.834-.12-.9-.539-.054-.318.249-.563.549-.536.33.048.725-.106.746-.488 0-.194-.042-.397.069-.573.24-.45.975-.36 1.088.146.249.966-.539 2.057-1.552 1.99"/><path fill="#0D0C21" d="M140.101 48.69c-.791-.28-.272-1.073-.189-1.642.165-.706.075-1.43-.072-2.13a23 23 0 0 0-.494-1.933c-.045-.154-.084-.321-.045-.482a.42.42 0 0 1 .291-.297c.476-.106.767.455.938.81.441 1.06.728 2.223.686 3.38-.045.633-.188 1.26-.368 1.867-.099.32-.432.518-.747.427m-7.947-1.28c-.437-.066-.677-.632-.344-.96.216-.218.566-.239.851-.184.399.087.57.633.312.945-.189.254-.537.273-.819.2"/><path fill="#0D0C21" d="M132.484 47.672a.52.52 0 0 1-.413-.493c.012-.673 1.133-.885 1.657-.885.618.067.735.979.159 1.206-.452.103-.938.236-1.403.172m5.229-.428c-.557-.127-1.43-.054-1.654-.715-.066-.236.027-.463.203-.618.225-.197.564-.145.831-.1.423.085.857.112 1.277.21a.66.66 0 0 1 .467.717c-.071.56-.68.637-1.127.51zm-3.364 2.824c-.512-.012-1.022-.464-.668-.979.339-.409.95-.248 1.415-.315.317-.006.647-.124.953.015.42.173.507.785.135 1.06-.207.176-.474.176-.729.198-.368.03-.737.063-1.106.02m-.554 2.346c-1.16-.164-1.019-1.303.135-1.224.534-.015 1.28-.082 1.31.654-.024.773-.902.7-1.442.57zm-8.689 9.949c-1.002-.494.266-2.09.698-2.645a9.2 9.2 0 0 1 2.047-1.757c1.068-.688 2.321-.973 3.454-1.521 1.283-.536.554-1.218 1.202-2.072a.55.55 0 0 1 .788-.024c.24.218.165.614.138.902-.048.567-.057 1.179-.482 1.606-1.029 1.106-2.632 1.297-3.924 1.966a7.6 7.6 0 0 0-1.562 1.094c-.519.457-.98.99-1.289 1.617-.195.461-.459 1.079-1.067.834zm17.823-.77c-.327-1.64-1.307-3.13-2.692-4.048-1.076-.739-2.488-1.218-3.175-2.396-.444-.912.762-1.842 1.046-.603.453.573 1.157.894 1.763 1.278.926.521 1.856 1.082 2.557 1.903.603.703 1.109 1.503 1.433 2.375.195.6.725 1.654-.129 1.951-.333.094-.722-.112-.803-.46m-14.73 10.204c-1.445-.064-1.94-1.506-1.388-2.715.099-.215.147-.485.303-.666.261-.28.764-.146.857.227.045.53-.267 1.084-.144 1.624.306.811 3.061-.328 3.846-.28.72-.038 2.968-.193 2.707.989-.288.85-1.136.26-1.742.266-1.516-.16-2.934.651-4.436.551z"/><path fill="#0D0C21" d="M135.012 75.576c-1.271-.509-1.49-2.16-1.619-3.372-.057-.494-.105-1.23.537-1.318.335-.045.71.206.734.564.045.924.09 1.918.6 2.72.26-1.057.057-2.311-.42-3.28-.504.114-.926-.455-.708-.916.096-.206.216-.409.261-.633-1.493-2.29-4.748-.624-6.79.343-.14.345-1.852.381-.677-1.291.965-1.036 2.506-1.572 3.834-1.739 1.394-.173 4.242.088 5.315 1.057 2.356 2.03 4.293 6.556 1.838 9.577-.741.909-1.889-1.54-2.902-1.706z"/><path fill="#0D0C21" d="M129.991 86.853c-4.874-.255-5.171-10.219-4.503-13.812.186-1.245.501-2.469.947-3.647.138-.434.471-1.037.951-.558.159.21.123.503.09.749-.108.727-.336 1.48-.471 2.175a24.3 24.3 0 0 0-.105 9.003c.39 1.588 1.061 4.284 2.809 4.714 1.694.273 3.133-1.124 4.023-2.43.569-.893.962-1.699 1.31-2.66.132-.387.231-.784.312-1.187.072-.321.413-.527.725-.485a.674.674 0 0 1 .567.752c-.144.927-.492 1.811-.888 2.657-1.058 2.308-3.024 4.768-5.764 4.732z"/><path fill="#0D0C21" d="M135.515 79.457c-.329-.63.234-.884.609-1.251.585-.624.567-1.797-.204-2.26-.351-.082-.677.409-1.082.197-.528-.221-.369-.918.042-1.176 1.712-1.402 3.546 1.303 2.899 2.954-.186.824-1.433 2.6-2.267 1.533zm-7.28-2.851c-.543-.09-1.37-.297-1.403-.972 0-.343.282-.649.629-.643.39.06.657.255 1.041.31.779.224.533 1.405-.264 1.302zm3.327-.203c-.384-.027-.681-.44-.522-.812.132-.321.516-.436.815-.524.213-.064.429-.145.648-.176.758-.109 1.058.997.351 1.288-.477.127-.822.254-1.292.221zm-2.765 3.253c-1.046-.148-.974-1.575.147-1.315.63.097 1.268.03 1.889-.087.323-.061.65.178.734.487.267 1.221-2.041 1.03-2.77.912zm1.251 2.452c-.606-.033-1.463-.11-1.706-.77-.147-.47.339-.911.791-.769 1.313.64 2.704-.733 3.169.285.345 1.175-1.502 1.184-2.254 1.254m-2.786-7.853c-.294-.04-.54-.284-.537-.593.003-.491.522-.71.924-.782.32-.058.641.176.725.482.171.675-.566.96-1.112.893m4.709-.487c-.66-.26-.561-1.036.147-1.109.371-.054.695.282.644.651-.048.367-.462.612-.791.455zm-.261 16.417c-1.43-.245-2.527-1.254-2.821-2.702-.078-.46-.309-1.021-.027-1.445.333-.46 1.103-.252 1.166.315.087.654.21 1.348.636 1.872.827.809 2.095.824 2.868-.07 1.014-1.166.867-2.48.924-3.914.087-.566-.096-1.957.776-1.842.672.176.45 1.854.516 2.436-.009.803.048 1.633-.198 2.409-.507 1.684-1.991 3.196-3.843 2.947z"/><path fill="#0D0C21" d="M144.119 93.005c-.498-.066-.639-.557-.555-.993q0 .027-.003.054 0 .029-.003.058c.045-1.457.303-4.1-.665-5.302-.57-.406-1.433-.47-2.027-.624-1.48-.318-2.982-.512-4.466-.812-.468-.118-.98-.145-1.4-.394a.46.46 0 0 1-.159-.545c.321-.709 2.29-.151 2.956-.124 1.472.2 2.944.421 4.388.775 1.113.21 1.952.764 2.363 1.86.419 1.015.473 2.142.455 3.227a62 62 0 0 1-.129 2.242c-.03.366-.407.627-.755.578m-25.039-1.642c.117-1.111.66-3.262 1.116-4.274.554-1.145 1.639-1.94 2.85-2.248.591-.148 1.184-.127 1.787-.103 1.076.045 2.149.1 3.223.197.548.018 1.42.166 1.091.927-.384.6-1.844.254-2.491.29-1.964-.069-4.206-.557-5.276 1.597-.375.864-.807 2.59-.951 3.514-.111.828-1.355.937-1.352.097zm16.382-32.877c-1.133-.033-2.341-.33-3.205-1.108-.491-.476-.003-1.267.633-.967.74.382 1.526.682 2.362.718 1.139.146 2.221-.363 2.998-1.19.632-.61 1.55.312.944.954-.98.994-2.314 1.696-3.732 1.593m31.284 27.524c-.285-.533.299-.663 1.525-1.745.417-.266.981-.975 1.457-.436.321.415-.066.903-.368 1.194-.411.427-2.159 1.705-2.611.987z"/><path fill="#0D0C21" d="M171.096 88.467c-1.049-.397-1.907-1.194-2.812-1.845-.201-.17-.465-.324-.534-.597-.06-.279.078-.563.36-.642.396-.091.765.175 1.091.366.741.443 1.415 1.003 2.186 1.39.929-.414 1.606-1.262 2.32-1.974a36 36 0 0 0 2.554-3.024c.276-.336.605-.2.866-.006s.462.467.198.836c-.974 1.267-4.637 6.01-6.229 5.493zm-21.524 13.905q.01-3.447.015-6.893.013-4.694.021-9.388l.024-9.58c.006-3.174.018-6.35.024-9.527.006-3.19.018-6.38.024-9.57q.01-4.754.024-9.5c.012-3.112.021-6.22.036-9.332.015-3.162.03-6.328.078-9.491q.015-.984.039-1.97.013-.472.03-.95c.009-.203-.003-.437.057-.637a.5.5 0 0 1 .051-.133.6.6 0 0 1 .072-.1l.003-.006a.5.5 0 0 1 .743.033c.102.122.12.279.132.43.015.17.018.34.024.51q.018.548.027 1.096.022 1.142.03 2.284.021 2.326.024 4.65.009 4.718 0 9.435-.005 4.724-.018 9.452-.008 4.767-.021 9.536c-.009 3.181-.012 6.362-.021 9.543q-.015 4.81-.021 9.619l-.021 9.51c-.009 2.975-.012 5.947-.021 8.921q0 1.009-.006 2.021a.694.694 0 0 1-.665.703h-.012a.69.69 0 0 1-.681-.673z"/><path fill="#0D0C21" d="M116.74 63.513c-.326-.003-.659 0-.983-.072q-.024.001-.048-.006a.55.55 0 0 1-.459-.47.55.55 0 0 1 .327-.573.5.5 0 0 1 .18-.039q.018 0 .036-.006c.081-.018.162-.04.243-.052.102-.018.21-.02.264-.02 1.325-.082 2.653-.092 3.978-.119q2.297-.044 4.595-.085 4.735-.085 9.47-.166 4.713-.084 9.428-.16 4.744-.083 9.487-.161 4.69-.079 9.38-.161l9.59-.164c3.091-.051 6.184-.106 9.275-.157q4.146-.07 8.291-.142.351-.01.702-.013c.369-.006.677.325.674.691a.69.69 0 0 1-.683.682c-2.101.03-4.203.07-6.301.106l-9.104.154-9.563.16-9.458.161-9.365.158-9.49.157-9.446.155c-3.019.048-6.034.103-9.053.133q-.706.01-1.412.012-.276 0-.552-.003zm74.062 32.186c-.342-.015-.684-.03-.935-.046-1.256-.07-2.509-.115-3.766-.175l-3.861-.18-9.089-.414q-4.764-.218-9.529-.44-4.671-.214-9.341-.433c-3.082-.142-6.16-.281-9.242-.424q-4.74-.218-9.485-.433c-3.037-.14-6.07-.279-9.107-.421-1.535-.073-9.955-.494-10.237-.524-.174-.018-.141-1.176.021-1.179.258-.003 13.921.537 16.958.676l9.35.427 9.353.43q4.655.213 9.311.424l9.514.437q4.617.211 9.233.424c2.719.124 5.438.251 8.157.372l1.823.082c.164.006.332.018.497.024.135.006.276.022.411.022.39-.064.746.284.752.67a.69.69 0 0 1-.671.69.5.5 0 0 1-.117-.012z"/><path fill="#FFF7DB" d="m149.107 91.266-.054-.015q0 .096-.003.187a.7.7 0 0 1 .06-.172zm47.172 3.505a.3.3 0 0 0-.078.04c-.096.072-.132.166-.135.287q0 .09-.006.182c-.003.082-.012.163-.009.245q.004.184.048.364v.006l-.021.409a143 143 0 0 1-.126 2.248c-.024.381-.048.763-.039 1.148.006.376.036.751.033 1.127v.012q-.009.435-.045.869v-.009.061q-.058.621-.075 1.242c-.321 2.002-.695 3.999-.905 6.032-.411 3.456-.747 6.922-1.28 10.361q-.137.865-.264 1.729c-.474 4.884-.641 9.795-.881 14.697-.096 1.39-.24 2.775-.381 4.162-.03.306-.048.621-.108.924-.129.609-.878 1.33-1.451.791-.258-.252-.288-.712-.021-.973a1 1 0 0 0 .084-.084l-.968.312c.809.06.872 1.263-.099 1.408-2.764.948-5.531 1.897-8.292 2.854-1.615.573-3.075 1.148-4.646 1.763a.677.677 0 0 1-.929-.457 94 94 0 0 0-4.734 2.099c-1.43.649-2.917 1.451-4.532 1.33-.399-.021-.798-.039-1.199-.063-.327 0-.657-.016-.984-.016a18 18 0 0 1-2.323-.203 67 67 0 0 1-4.748-.539c-4.611-.697-9.134-1.86-13.706-2.784a265 265 0 0 1-3.069-.636c-3.298-.467-6.607-.836-9.884-1.448-4.095-.833-8.214-1.521-12.341-2.163-1.517-.212-3.04-.397-4.566-.546-.342-.039-.686-.054-1.031-.084-.246-.037-.495-.173-.531-.452-.039-.315.177-.603.462-.712.252-.072.507-.103.764-.106a.75.75 0 0 1 .372-.388c1.094-.284 2.251-.324 3.363-.557a106 106 0 0 0 4.362-.854c4.497-.955 8.975-2.027 13.505-2.806 2.473-.415 4.973-.684 7.419-1.254.998-.315 3.034-.521 3.181-1.796.153-1.276.162-2.563.228-3.845.176-4.329.443-8.655.575-12.987.318-4.493.51-8.989.696-13.485.203-2.853.512-5.698.659-8.558q.055-.91.114-1.815c.075-.439-.015-1.011.219-1.39a.5.5 0 0 1 .066-.215c.386-.576 1.172-.197 1.723-.146 3.334.455 6.859.56 10.184.737 4.454.1 8.912-.182 13.366.015 2.15.097 4.293.281 6.442.385 4.095.257 8.073.154 12.153.175.732.006 1.46.049 2.191.088.312 0 .63.024.915.17.554.272.743 1.102.794 2.008.213.297.375.66.48 1.1z"/><path fill="#A7A6B5" d="M145.852 132.915s-34.252 7.168-34.213 7.483c.036.279 55.083 10.655 55.482 10.673 1.615.121 24.443-8.961 24.572-9.57.06-.303-45.841-8.589-45.841-8.589z"/><path fill="#A7A6B5" stroke="#000" stroke-linecap="round" stroke-linejoin="round" stroke-width="7" d="m162.708 141.952-8.736 3.384-21.736-3.884c-.015-.121 13.337-2.556 13.337-2.556z"/><path fill="#0D0C21" d="M149.167 127.301a.45.45 0 0 1-.054-.533c.159-.245.312-.494.471-.739q.374-.568.753-1.127.751-1.109 1.507-2.208c1.008-1.464 2.024-2.918 3.034-4.375.989-1.424 1.985-2.848 2.974-4.272.488-.702.974-1.402 1.466-2.099l.479-.679c.111-.157.24-.275.417-.275.192 0 .372.157.441.378.036.115.048.24.063.361q.116.854.227 1.708c.078.579.147 1.161.231 1.739.021.112.051.222.081.331.519 1.851 1.046 3.696 1.568 5.547l.162.59.087-.139.725-1.142 1.541-2.424c1.046-1.645 2.089-3.29 3.139-4.935q1.527-2.4 3.054-4.805.728-1.141 1.454-2.284l.675-1.06c.081-.127.162-.239.284-.306.228-.124.504.009.624.267.081.175.072.369.069.563-.027 1.806-.045 3.611-.072 5.42l-.087 6.107-.009.67q.351-.445.702-.894.877-1.117 1.75-2.236l3.579-4.568q1.736-2.215 3.475-4.429l3.249-4.145q.627-.794 1.247-1.593c.192-.246.528-.23.717.006a.74.74 0 0 1-.006.884c-.687.864-1.364 1.736-2.048 2.606q-1.687 2.144-3.369 4.293l-3.516 4.48a3726 3726 0 0 1-3.565 4.535l-1.72 2.194q-.19.24-.375.481c-.096.125-.189.261-.297.367-.168.158-.404.185-.584.052-.192-.14-.264-.388-.261-.652l.009-.694.087-5.904c.03-1.83.054-3.663.087-5.493q-.253.4-.507.797l-1.49 2.339c-1.019 1.597-2.035 3.199-3.054 4.796q-1.58 2.478-3.157 4.956l-1.493 2.342q-.301.474-.605.948c-.039.061-.078.124-.126.173a.64.64 0 0 1-.243.169.43.43 0 0 1-.39-.066c-.225-.167-.279-.509-.36-.794-.521-1.857-1.046-3.711-1.561-5.571l-.204-.73c-.063-.231-.132-.461-.183-.697-.048-.221-.066-.458-.093-.685q-.041-.354-.087-.709l-.162-1.33q-1.037 1.477-2.083 2.945c-1.004 1.409-2 2.823-2.998 4.235-1.028 1.451-2.056 2.905-3.097 4.345l-.182.254-.006.009v.006c-.015.015-.027.033-.033.04l-.336.463q-.472.648-.947 1.294-.208.28-.42.554c-.075.097-.156.194-.231.291l-.012.015a.28.28 0 0 1-.225.118.27.27 0 0 1-.189-.079z"/><path fill="#FED980" d="m149.108 91.266-.054-.015q0 .096-.003.188a.7.7 0 0 1 .06-.173z"/><path fill="#0D0C21" d="M166.949 152.347c-2.95-.543-5.881-1.17-8.825-1.754-6.391-1.191-12.839-2.03-19.287-2.833-5.666-.712-11.254-1.945-16.869-2.978-.638.233-1.354-.149-2.008-.203-1.292-.248-2.584-.494-3.861-.806-1.613-.288-3.286-.324-4.865-.76-1.346-.652-.108-2.315 1.022-1.391.629-.739 1.754-.103 2.548 0 1.643.421 3.279.858 4.928 1.248-.168-1.314 1.478-.866 2.248-.736 1.251.203 2.504.367 3.754.558 3.876.633 7.728 1.399 11.574 2.196 5.375 1.16 10.824 1.927 16.226 2.948 3.693.596 7.3 1.726 11.032 2.02q.893.087 1.793.155c.38.027.644.445.575.806.39.127.893.185 1.064.618.258.675-.467 1.096-1.049.915z"/><path fill="#0D0C21" d="M167.636 151.977s0-.006-.003-.009c-.537.054-.933-.624-.612-1.07.141-.248.48-.306.714-.366.806-.215 1.606-.464 2.407-.709 3.495-1.058 6.922-2.315 10.369-3.52 2.563-.867 5.039-1.973 7.551-2.972 1.142-.358 3.636-1.455 4.686-1.082.935.591.248 1.569-.636 1.721-5.48 2.033-11.13 3.562-16.598 5.607-1.763.721-3.472 1.576-5.249 2.266-.717.182-2.219 1.109-2.632.134z"/><path fill="#FED980" d="M79.573 174.568c.42 2.06.702 4.224.135 6.281-2.37 7.625-11.966 7.107-18.409 7.416-5.195.121-10.393.23-15.588.2-9.086-.452-19.509-.724-26.37-7.595-2.159-2.348-3.355-5.432-4.455-8.395-1.505-4.65-2.79-9.379-4.107-14.09-1.55-5.938-2.293-12.064-3.918-17.983-.932-3.269-1.838-6.55-2.335-9.922-.519-3.269-.875-6.565-1.535-9.809-.93-4.554-2.596-9.062-2.122-13.779a46 46 0 0 1 .605-4.783c.252-.776.123-1.933.855-2.396-.204-1.306 1.744-.86 2.518-1.015 4.118-.1 8.234.188 12.35.26 7.563.252 15.411.558 22.486 3.523 3.477 1.282 6.775 3.26 9.023 6.296 3.58 4.726 6.385 9.985 9.299 15.141 1.49 2.769 3.097 5.475 4.55 8.262.948 1.857 1.73 3.787 2.524 5.713a.56.56 0 0 1 .426.221c.654-.16 1.076.637 1.34 1.124.183.37.489.806.246 1.215.21.433.435.864.654 1.294.161.306.36.669.146 1.003.132.351.342.739.246 1.124.207.708.447 1.402.705 2.093 1.975 3.878 3.996 7.71 5.456 11.857 2.074 5.472 4.316 10.934 5.275 16.741zm60.962-.658c1.262 1.018 1.883 2.933 1.331 4.487-1.568 3.775-9.458 4.356-13.064 4.965-2.263.276-4.503.721-6.73 1.2-3.765.833-7.584 1.36-11.394 1.936-2.173.369-4.359.651-6.547.89-2.209.243-4.419.646-6.646.591-1.196-.091-2.467-.042-3.588-.521-2.036-1.021-.96-3.242.647-4.06 3.145-1.823 6.793-2.49 10.324-3.12-.09-.336.102-.73.447-.827a48 48 0 0 1 3.447-.83c1.982-.418 4.116-.873 6.044-1.357q1.402-.354 2.797-.742c.821-.361 1.642-.722 2.482-1.043 2.485-.969 5.096-1.575 7.716-2.029 1.906-.325 3.831-.558 5.746-.752 1.748-.003 3.49.27 5.201.6.612.142 1.25.252 1.781.606zM108.563 53.854c.09.421.147.852.132 1.282-.006 1.484-1.016 2.787-2.371 3.299-.354.478-.777 1.315-1.463.824a.7.7 0 0 1-.24-.376 11 11 0 0 1-1.556.37 1.3 1.3 0 0 1-.332.518c-1.017.782-2.096 1.481-3.04 2.357-.722.645-1.379 1.381-1.799 2.263-.398.833-.653 1.73-.97 2.596-.346 1.145-1.206 2.596-2.56 1.797-1.782-1.121-2.261-3.348-3.29-5.066a.67.67 0 0 1-.335-.606 3 3 0 0 0-.171-.318q-.37.212-.728.437c-2.32 1.402-3.364 2.58-4.59 4.58.06.13.078.282.027.44-.255.62-.576 2.36-1.316 2.447-.279.315-1.064 1.47-1.526 1.045a51 51 0 0 0-1.274 1.642c-1.553 2.227-2.923 4.348-5.498 5.487-1.57.751-3.288 1.73-5.072 1.19-1.346-.354-2.458-1.242-3.765-1.68-2.473-.698-5.258-1.13-7.101-3.112-2.096-2.133-2.02-5.284-2.429-8.056-.47-3.741 1.547-7.016 3.906-9.664-.986-.775-2.194-1.206-3.216-1.926a10.6 10.6 0 0 1-2.542-2.376c-1.598-2.054-1.955-4.883-1.088-7.325.242-.606.383-1.37.872-1.818.791-1.411 2.266-2.208 3.567-3.072 1.874-1.169 3.765-2.366 5.216-4.068 2.26-2.796 4.443-6.008 7.95-7.283 1.121-.351 2.3-.57 3.475-.6 2.323.118 4.718 1.17 6.124 3.09 1.688 2.224 1.772 5.117 1.775 7.795 1.498-.554 2.638-2.281 4.406-1.96 1.457.27 2.503 1.551 3.954 1.857 1.376.194 2.854-.279 4.122.488 1.502.715 2.047 2.463 3.351 3.396 1.55 1.02 3.436 1.406 4.902 2.572 1.04.875 1.48 2.233 2.236 3.332.462.652.974 1.385 1.382 2.16a.76.76 0 0 1 .557.446c.252.481.345 1.048.327 1.59z"/><path fill="#313144" d="M121.817 148.372c1.256 2.766 1.193 6.062.806 8.992-.276 2.281-.662 4.544-.992 6.819-.267 1.26-.168 2.717-.878 3.823-.84.876-2.171.518-3.247.515a47 47 0 0 0-2.662-.054 24 24 0 0 0-1.61.072c-.785 2.239-1.816 4.372-3.612 5.981-2.644 2.432-7.248 4.607-10.876 4.062-2.338-.448-4.451-1.636-6.552-2.714-2.15-1.106-4.21-2.424-6.299-3.621-1.864-1.045-3.747-2.072-5.716-2.899-.537-.269-1.226-.321-1.652-.772-.096-.14-.141-.343-.075-.506a1 1 0 0 1 .039-.085c-.477-.651-.668-1.469-.941-2.221-.429-1.275-.843-2.56-1.26-3.841-.794-2.496-1.612-4.987-2.661-7.386-2.138-5.165-5.183-9.879-7.255-15.075-1.265-3.041-2.407-6.098-3.957-8.991-2.527-4.605-5.384-9.022-8.3-13.385a107 107 0 0 1-4.056-6.368c-1.502-2.547-3.166-5.071-5.576-6.831-1.178-.867-2.617-1.603-3.903-2.151-.255-.146-.609-.218-.926-.321-.045.257-.06.521-.093.781-.006.5-.68.767-1.02.394-.686-1.054.171-2.832.543-3.914 1.43-3.223 4.005-5.798 7.024-7.528 2.134-1.19 4.616-1.527 7.008-1.766 2.992-.294 5.993-.53 8.963-1.006 1.032-.224 2.18-.176 3.121-.688 2.105-1.812 2.221-5.229 4.716-6.71 3.738-2.03 7.773 1.608 10.854 3.472 1.478.933 3.085 1.657 4.494 2.702 1.624 1.063 2.21 2.93 2.833 4.683a.6.6 0 0 1 .305-.027c.639.043 1.235.321 1.838.512.932.33 1.861.685 2.755 1.112 1.736.83 3.201 2.115 4.59 3.432 1.516 1.452 3.015 2.972 4.142 4.763.63 1.039 1.145 2.142 1.616 3.263a.5.5 0 0 1 .234-.022c.449.122.653.627.902.985.752 1.142 1.112 2.475 1.472 3.781a77 77 0 0 1 1.304 5.583c.522 2.733 1.022 5.471 1.436 8.222.246 1.66.363 3.333.423 5.005.506 3.208.926 6.426 1.112 9.673.177 2.396.186 4.799.227 7.198.252-.012.519.064.753.146.944.306 1.897.615 2.887.736.911.169 1.777-.152 2.65-.358 2.056-.487 4.262.543 5.075 2.545z"/><path fill="#0D0C21" d="M145.171 133.001a.36.36 0 0 1-.299-.264l-.015-.024a1.3 1.3 0 0 1-.075-.185c-.042-.145-.036-.309-.039-.46 0-.255.006-.506.009-.761a87 87 0 0 1 .042-1.533q.055-1.594.129-3.184c.095-2.205.206-4.414.32-6.619q.162-3.222.333-6.444l.351-6.665.35-6.616.348-6.514.162-3.017.03-.573c.006-.13.012-.254.06-.375.117-.285.387-.427.678-.449.113-.009.23 0 .344.006l.402.016 5.468.196 6.49.237 13.07.475q3.273.118 6.553.24l6.376.233 6.121.221q1.655.059 3.31.121a.7.7 0 0 1 .482.197.7.7 0 0 1 .204.485c.003.364-.303.706-.674.694q-2.456-.088-4.911-.18-3.115-.113-6.232-.223-3.188-.115-6.376-.234-3.288-.116-6.58-.239c-2.206-.082-4.416-.16-6.622-.242a4405 4405 0 0 1-6.394-.233q-3.23-.12-6.46-.237l-2.707-.1a132 132 0 0 0-1.28-.045c-.099 1.75-.186 3.499-.279 5.25l-.356 6.586-.36 6.65-.36 6.586a2370 2370 0 0 1-.42 7.428v.094l-.009.137q0 .039-.006.078c.003.1-.009.203-.015.243q0 .033-.003.066v.006c0 .031-.003.061-.003.073-.128 2.187-.254 4.375-.425 6.556-.03.391-.066.782-.099 1.172-.018.206-.036.415-.063.621-.018.119-.036.24-.081.352a.6.6 0 0 1-.081.142.38.38 0 0 1-.357.258h-.042z"/><path fill="#0D0C21" d="M192.701 141.413c-.356-.006-.695-.324-.668-.7q.206-3.168.407-6.34l.507-7.907.531-8.289q.255-3.953.506-7.901l.51-7.913q.245-3.826.503-7.653c.066-.975.135-1.95.219-2.923v-.033a.65.65 0 0 1 .645-.585.646.646 0 0 1 .626.654c-.102 2.306-.257 4.608-.404 6.91l-.495 7.787c-.168 2.62-.333 5.238-.504 7.858-.176 2.711-.347 5.426-.521 8.137q-.265 4.085-.525 8.165l-.5 7.801-.144 2.254a.73.73 0 0 1-.207.484.67.67 0 0 1-.474.194z"/><path fill="#0D0C21" d="m192.386 141.94-6.052-1.064c-2.284-.403-4.572-.802-6.856-1.202q-3.549-.621-7.099-1.249l-7.191-1.263-7.275-1.278a2802 2802 0 0 1-7.042-1.242c-1.394-.249-2.791-.488-4.137-.743-.318-.06-.635-.118-.944-.197-.258-.066-.513-.13-.744-.236l-.057-.024c-.287 0-.512-.297-.479-.576.036-.303.363-.536.656-.43h.024c.54-.042 1.088.052 1.619.136 1.13.179 2.257.382 3.384.579q3.534.614 7.066 1.233 3.615.632 7.231 1.269l7.215 1.267a24671 24671 0 0 0 14.041 2.463l6.451 1.133.36.063c.18.031.336.109.45.255.114.142.165.33.144.512-.039.324-.333.609-.66.609-.033 0-.066 0-.099-.009z"/><path fill="#0D0C21" d="M110.89 140.593a.7.7 0 0 1-.315-.431c-.084-.351.135-.757.501-.83l3.81-.76 5.572-1.115 5.468-1.094 5.696-1.139c2.002-.4 4.005-.803 6.007-1.199 1.976-.391 3.951-.794 5.936-1.136.312-.052.62-.107.932-.155q.238-.037.477-.067c.162-.018.344-.033.494.04.297.127.432.551.204.809-.162.187-.387.248-.614.309q-.325.089-.654.16-.662.155-1.325.3-1.425.309-2.857.6c-2.023.415-4.047.821-6.07 1.227l-5.902 1.181-5.474 1.097-5.471 1.097-5.027 1.009q-.437.085-.873.175a1 1 0 0 1-.164.018.7.7 0 0 1-.345-.093z"/><path fill="#0D0C21" d="M167.119 151.071q-2.348-.398-4.697-.794l-7.117-1.202-6.831-1.154-21.02-3.557q-3.556-.604-7.111-1.212c-2.287-.394-4.574-.785-6.859-1.2a95 95 0 0 1-1.415-.26q-.355-.068-.707-.139c-.234-.049-.501-.091-.672-.273a.54.54 0 0 1 .054-.797.5.5 0 0 1 .198-.094c.225-.06.465-.018.696.012q.395.052.791.112.859.129 1.718.267 1.746.279 3.492.567c2.317.378 4.632.766 6.949 1.154q3.489.585 6.979 1.175 3.537.595 7.074 1.194l6.904 1.166q3.484.587 6.972 1.179l7.093 1.196 5.612.949 2.08.351a.697.697 0 0 1 .588.769c-.042.328-.336.603-.666.603-.033 0-.066 0-.099-.009z"/><path fill="#0D0C21" d="M166.445 150.647c-.132-.339.036-.769.384-.89q1.844-.651 3.687-1.306l6.595-2.336q3.334-1.18 6.67-2.354c2.221-.781 4.439-1.56 6.672-2.302q.568-.19 1.137-.376c.281-.091.557-.194.83-.248h.018l.069-.046a.57.57 0 0 1 .731.161.585.585 0 0 1-.06.754.55.55 0 0 1-.38.161c-.117.057-.234.118-.357.166q-.393.154-.785.303c-.579.218-1.161.44-1.739.655-1.1.409-2.2.806-3.304 1.202-2.221.803-4.445 1.591-6.67 2.379l-6.738 2.387-4.893 1.733a88 88 0 0 1-.986.348.8.8 0 0 1-.243.042.68.68 0 0 1-.638-.43z"/><path fill="#0D0C21" d="M192.081 143.277c.003-.473.018-.945 0-1.418-.006-.276 0-.588.227-.782.402-.306.837.109.897.524.102.582.102 1.17.069 1.758-.108.739-1.178.663-1.196-.082zm-25.135 8.84c.042-.515.036-1.067.246-1.545.309-.539 1.04-.24 1.007.351.018.427.036.855.006 1.282-.111.775-1.247.696-1.259-.088"/><path fill="#0D0C21" d="M167.393 153.268c-.159-.061-.279-.243-.249-.418.039-.218.201-.34.38-.44.183-.1.375-.181.567-.26.438-.179.884-.342 1.319-.5q.004 0 .009-.003l.099-.036c.084-.037.174-.061.255-.091l.288-.106.5-.182 2.176-.779q1.198-.43 2.387-.866.007 0 .015-.006l.027-.009.069-.024q.065-.028.119-.046l.087-.033q.006 0 .012-.003l.072-.028.168-.06q.03-.012.066-.024l.024-.009.063-.025h.003c.012-.003.024-.009.081-.03l.111-.039q.15-.056.294-.106l.024-.009.018-.007.21-.075h.012a1 1 0 0 1 .089-.037c.066-.024.132-.048.135-.048.45-.164.9-.33 1.286-.47 1.529-.56 3.058-1.111 4.587-1.666l4.607-1.663c.648-.233 1.295-.467 1.931-.7.006 0 .015-.006.021-.006l.03-.009.093-.033q.903-.333 1.801-.67l.804-.3c.15-.057.306-.109.455-.169l.024-.019a.568.568 0 0 1 .873.219.58.58 0 0 1-.513.805h-.027c-.21.067-.417.149-.626.222l-.96.339q-1.087.385-2.17.778-.181.066-.345.128c-.527.194-1.055.384-1.556.569-.038.015-.077.027-.095.037l-.156.057-.201.073-.015.006c-.042.015-.087.03-.105.039l-.132.049h-.003l-.015.006c-.132.048-.267.097-.336.124-.425.154-.848.312-1.211.445l-.797.294-.387.143q-2.325.85-4.658 1.696-1.431.52-2.866 1.036-.031.014-.063.024l-.495.179h-.006l-.069.024-1.043.379-.713.261-.123.045-.132.049-.09.033-.045.015s-.018.006-.027.012l-.081.03-.108.04-.081.03-.123.046c-.785.287-1.567.581-2.347.866-.617.227-1.238.454-1.861.666-.264.088-.531.182-.804.246a2 2 0 0 1-.348.057h-.018a.5.5 0 0 1-.203-.039z"/><path fill="#0D0C21" d="M167.375 153.255c-.105-.003-.213-.03-.318-.045l-.426-.073q-.665-.117-1.331-.227a606 606 0 0 1-3.237-.536c-2.264-.379-4.527-.754-6.787-1.145-2.278-.394-4.557-.791-6.835-1.182l-6.973-1.193q-3.526-.6-7.053-1.194l-6.973-1.172c-2.245-.379-4.49-.764-6.739-1.146-2.152-.363-4.301-.718-6.442-1.136a53 53 0 0 1-1.957-.409q-.45-.103-.9-.221a7 7 0 0 1-.491-.139c-.132-.043-.276-.097-.342-.23a.25.25 0 0 1 .057-.288c.135-.13.375-.1.546-.091q.323.02.647.048c.429.037.857.088 1.223.137 2.144.272 4.278.63 6.409.99q3.36.571 6.715 1.136 3.471.59 6.943 1.185 3.493.596 6.987 1.188 3.513.594 7.024 1.181 3.452.579 6.904 1.151c2.269.376 4.535.755 6.799 1.148 1.082.188 2.167.37 3.249.561.962.167 1.922.336 2.887.497q.175.028.351.06.064.012.129.022a.7.7 0 0 1 .248.087.555.555 0 0 1-.263 1.03h-.045z"/><path fill="#FFF7DB" d="M107.834 69.799c1.235 3.172 4.374 4.677 1.73 8.316-1.31 1.551-2.548 3.157-3.462 4.984-1.448 2.86-3.978 5.61-7.315 5.88-8.264-.34-9.2 3.378-10.414 3.038-1.247-.315-1.657-2.947-2.542-3.99-.962-1.463-2.533-2.575-3.912-3.514-2.422-1.65-4.922-3.187-7.533-4.51-.908-.713.03-1.652.758-2.01 1.002-.626 2.033-1.205 3.028-1.838 1.93-1.233 3.6-2.778 4.877-4.678 2.267-3.768 3.91-7.467 8.334-9.11 4.428-1.856 9.083-3.456 13.918-3.562a.59.59 0 0 1 .765-.318c.213.079.324.279.386.484a.69.69 0 0 1 .168.806c.255 1.479.51 2.963.681 4.454.213 1.848.039 3.76.53 5.565zm30.898 53.504c.198.321.306.73.114 1.081-.546.882-1.607.052-2.305-.115-1.232 4.793 2.626 1.642-2.365 8.983-.423.424-1.11.197-1.313-.337-.534-2.235-2.333-.612-3.361.267-3.025 2.778-6.862 4.514-10.849 5.329-1.66.442-3.387.421-5.069.733-.452.1-.896.233-1.334.385-.515.166-1.109.6-1.591.127-.567-.597-.108-1.924-.066-2.687.23-1.772.35-3.614-.111-5.32-.195-.115-.243-.336-.339-.518a.63.63 0 0 1 .243-.866c.488-.191 1.046-.088 1.562-.158 2.817-.321 5.653-1.039 7.788-3.002 1.316-1.148 2.323-2.578 3.309-4.011.833-1.139 1.796-2.215 2.95-3.03 1.634-1.002 3.57-1.505 5.459-1.666 1.957.003 4.077.5 5.399 2.063.713.848 1.319 1.791 1.882 2.745zm25.037 7.046a2.7 2.7 0 0 0-.228-.758c-.204-.439-.617-.69-1.064-.742-.69-.348-1.55-.4-1.946-1.163-.212-.33-.389-.718-.746-.918-.776-.373-1.616.185-2.371.382-2.728.878-5.273 2.296-7.656 3.893-2.965 1.905-4.785 4.005-6.233 7.24-.71 1.372-1.448 2.769-1.516 4.35-1.424.552-2.938.903-4.41 1.309-4.116 1.17-8.184 2.5-12.3 3.669-.929.279-1.861.576-2.812.775-.068.013-.191.034-.308.091-.324.106-.366.588-.069.752-.066.472.255.918.365 1.369.276.809.549 1.627.726 2.469.279 1.469.399 2.972.315 4.466-.087 1.423-.477 2.796-.798 4.177-.087.573-.386 1.212-.111 1.769a.72.72 0 0 0 .618.358c.587-.03.869-.639 1.292-.966.477-.397.992-.746 1.502-1.097 1.133-.821 2.599-1.285 3.867-1.894 1.924-.936 3.663-2.205 5.411-3.435 1.723-1.197 3.381-2.487 4.895-3.947 2.611-2.315 4.299-1.739 7.338-2.282.984-.218 1.907-.654 2.8-1.108 1.628-.84 3.265-1.773 4.662-2.985.581-.49 1.408-.766 2.14-.954.593-.145 1.184.085 1.778.088q.54-.026 1.046-.23c1.28-.612 2.656-1.766 2.923-3.239.143-.76-.333-1.393-.66-2.026 1.088-1.315 2.062-2.382 1.394-4.193-.105-.715.201-1.403.339-2.091.192-.993.198-2.163-.192-3.129z"/><path fill="#0D0C21" d="M69.565 80.166a8 8 0 0 0-1.706-.57c-1.235-.187-2.581-.097-3.651-.866-.396-.26-.759-.576-1.178-.797-.363-.179-.759-.267-1.136-.409-1.29-.509-2.402-1.49-3.01-2.75-.78-1.458-1.148-3.073-1.649-4.636-.177-.518-.417-1.012-.524-1.55-.816-3.348.482-5.32 1.51-8.344.489-1.157 1.292-2.396 2.596-2.657.462-.112 1.145-.049 1.25.521a.54.54 0 0 1-.254.548c-.252.116-.525.055-.78.173-.84.33-1.292 1.254-1.607 2.048-.57 1.93-1.726 3.775-1.6 5.85.063.645.123 1.303.311 1.927.231.62.468 1.239.65 1.875.466 1.557.88 3.208 1.886 4.511.387.424.849.775 1.352 1.042.561.285 1.2.376 1.748.694.743.415 1.355 1.097 2.233 1.227.534.112 1.077.103 1.616.166.855.112 1.69.376 2.473.734.81.375.309 1.596-.53 1.266z"/><path fill="#0D0C21" d="M61.481 57.92c-6.97-.912-11.19-8.38-6.613-14.363 1.7-2.581 4.877-3.326 7.084-5.296 1.966-1.735 3.378-4.001 5.297-5.786 3.06-3.199 7.776-4.953 12.032-3.293 7.486 3.081 6.158 14.136.291 18.256a94 94 0 0 1-2.86 2.26c-.746.37-2.113 2.211-2.871 1.324-.222-.291-.174-.74.123-.96.929-.694 1.852-1.391 2.77-2.1 2.332-1.772 4.748-3.717 5.692-6.613 3.106-8.592-4.56-14.618-12.057-9.677-3.291 2.167-5.177 5.814-8.246 8.226-3.01 2.069-6.17 2.977-7.429 6.88-1.492 3.959 1.403 8.097 5.132 9.352 2.57.927 5.333.533 7.851-.267.288.03.507.297.513.585-.021.62-.78.781-1.235.996-1.739.615-3.651.7-5.47.479z"/><path fill="#0D0C21" d="M73.25 79.35c-.095-.348.114-.75.471-.836.417-.103.83-.218 1.235-.357 1.133-.415 2.21-.909 3.208-1.575 1.93-1.185 2.818-3.315 4.26-4.969.476-.566 1.073-1.03 1.483-1.654.507-.763.876-1.609 1.277-2.433 1.286-2.893 2.489-3.768 5.258-5.086 1.38-.658 2.788-1.24 4.164-1.903 1.421-.648 2.935-1.054 4.47-1.327 2.443-.512 5.039-.427 7.371-1.393a4.18 4.18 0 0 0 1.856-1.86c.707-1.409-.138-2.993-.903-4.193-.611-.885-1.331-1.7-1.762-2.696-.243-.621-.519-1.37-.975-1.842-1.151-1.333-3.051-1.355-4.58-1.979-2.272-.766-2.434-3.786-4.703-4.498-1.298-.446-2.725-.088-4.02-.558-2.551-1.072-2.557-3.132-5.726-1.124-.573.343-.971.915-1.532 1.26-.551.219-.881-.39-.617-.854 1.115-1.872 4.097-3.438 6.097-2.108.678.448 1.253 1.048 1.979 1.423.362.18.76.258 1.16.282 1.555.049 3.24.088 4.502 1.136.852.66 1.376 1.618 1.949 2.512.383.603.917 1.115 1.606 1.324 3.211.92 4.989 1.184 6.209 4.698.326.652.797 1.212 1.22 1.797.902 1.248 1.69 2.7 1.726 4.278.024 1.19-.593 2.293-1.387 3.135-.549.585-1.203.985-1.907 1.275q-1.16.15-2.317.34c-.798.124-1.598.245-2.392.379-.975.163-1.96.293-2.911.557-.96.267-1.907.579-2.875.815-1.1.27-2.18.578-3.178 1.133-.425.236-.824.515-1.235.773-.248.154-.521.305-.779.475a9 9 0 0 0-.74.091c-.654.109-1.361.276-1.925.642a6 6 0 0 0-1.232 1.04 3.1 3.1 0 0 0-.513.826c-.216.491-.177 1.027.027 1.5-.35.724-.71 1.539-1.247 2.481-.731 1.297-1.993 2.157-2.782 3.417-1.418 2.176-2.584 3.648-4.973 4.82-1.142.56-2.32 1.091-3.576 1.324a1 1 0 0 1-.096.01.68.68 0 0 1-.641-.5z"/><path fill="#0D0C21" d="M86.65 90.506c-.73-2.248-2.609-3.811-4.47-5.044a36 36 0 0 0-3.951-2.309c-2.752-1.281-6.32-3.435-9.116-1.205-1.325 1.327-1.91 3.18-2.776 4.805-.32.539-.522 1.302-1.133 1.569-.576.136-.798-.485-.56-.942.242-.603.515-1.194.779-1.788.794-1.642 1.462-3.454 2.83-4.708 1.87-1.63 4.637-1.514 6.82-.642 1.795.676 3.528 1.527 5.21 2.45 2.014 1.146 4.016 2.4 5.659 4.057a9.6 9.6 0 0 1 1.646 2.46q.04.105.09.21.076.376.257.696a.8.8 0 0 1-.036.388c-.102.273-.368.412-.632.412-.261 0-.522-.136-.62-.412z"/><path fill="#0D0C21" d="M38.785 100.605c-1.825-.409 1.376-5.962 2.186-6.74 2.329-3.166 6.127-4.372 9.832-4.938 4.458-.806 8.966-1.458 13.505-1.485.75.01 2.91-.209 2.197 1.09-.737.425-1.736.104-2.563.237-4.826.248-16.979 1.157-20.342 4.326-1.598 1.43-2.917 3.209-3.616 5.26-.416.702-.11 2.269-1.202 2.25zm71.373 44.353a.73.73 0 0 1-.201-.485c-.066-1.063-.108-2.126-.162-3.193-.231-4.911-.431-9.758-1.01-14.611-.602-5.284-1.571-10.531-3.04-15.641-.53-1.818-1.163-3.575-2.008-5.266-1.826-3.614-4.236-6.989-7.452-9.458-1.76-1.348-3.634-2.575-5.75-3.26-1.7-.605-3.48-.911-5.255-1.193-.701-.2-3.07-.185-2.71-1.275.264-.534.947-.303 1.415-.273.522.063 1.043.14 1.565.215 1.39.206 2.683.43 4.01.788 1.263.351 2.498.802 3.676 1.378 1.28.651 2.458 1.497 3.621 2.339 3.12 2.333 5.573 5.471 7.444 8.891a30.4 30.4 0 0 1 2.575 6.156c1.405 4.69 2.347 9.513 3.003 14.36.597 4.447.915 8.928 1.112 13.412.102 2.12.195 4.244.312 6.365.033.266.027.56-.186.754a.68.68 0 0 1-.962 0z"/><path fill="#0D0C21" d="M107.703 170.303c-6.523-1.039-9.197-2.915-13.693-7.592-3.091-3.033-5.444-6.732-7.339-10.619-2.146-4.368-3.942-8.931-5.159-13.654-1.21-4.78-1.906-9.676-2.383-14.58a83 83 0 0 1-.336-7.396c.042-1.442-.08-2.932.261-4.341.099-.251.405-.406.647-.257.273.166.264.53.28.815.026.869.02 1.742.041 2.614.048 4.52.378 8.995 1.022 13.454.603 4.378 1.424 8.613 2.776 12.794a77 77 0 0 0 4.224 10.264l-.018-.037-.018-.036c1.469 2.926 3.139 5.744 5.267 8.195 2.039 2.214 4.182 4.502 6.634 6.234 1.571 1.094 3.253 1.694 5.066 2.163 1.103.297 2.215.576 3.358.664 2.017.124 4.02-.252 6.004-.585a.7.7 0 0 1-.24-.433 151 151 0 0 1-.743-6.474c-.204-2.339-.369-4.687-.435-7.034 0-3.163-.33-9.613 4.059-9.689 1.517-.048 3.238.182 4.356 1.318 2.248 2.299 2.353 8.467 2.296 11.618-.096 2.79-.282 8.377-2.56 10.194-.513.361-1.13.509-1.718.7-2.086.645-4.227 1.094-6.385 1.421-1.742.267-3.51.497-5.27.282zm7.009-8.925c.102 1.106.222 2.211.35 3.317.12 1.03.261 2.054.384 3.084a.7.7 0 0 1-.081.424c1.472-.306 2.935-.678 4.359-1.163.405-.121.758-.351.977-.721 1.442-2.521 1.502-6.383 1.583-9.258.018-2.672-.141-7.241-1.526-9.507-.794-1.321-2.512-1.463-3.903-1.396-3.975.003-2.26 12.439-2.143 15.226z"/><path fill="#0D0C21" d="M114.361 147.03c-.813-.139-8.675-2.711-5.498-3.635 1.931.911 3.819 1.811 5.858 2.32.848.227.479 1.563-.36 1.318zM91.079 63.128c.08-.479.629-.467 1.004-.518l.767-.1c-.384.22-.75.475-1.124.709-.168.106-.345.209-.522.315-.09-.094-.137-.227-.125-.41zm-1.557 29.083c-.399-.303-.38-.67-.19-1.018l.139.052q.288.108.581.176c.138.039.28.07.426.084q.163.028.33.049-.014 0-.027-.003l.027.003q-.194.195-.35.427a.67.67 0 0 1-.585.33.66.66 0 0 1-.351-.097zm15.489-32.803c-.204-.5.132-1.182.725-1.018.372.145.528.5.648.873q-.68.09-1.361.193l-.015-.048zm16.892 89.379c-.572-.381-.162-1.054.396-1.166.887-.3 1.795-.521 2.692-.785 3.48-.975 7.077-2.06 10.447-3.208 1.96-.66 3.903-1.381 5.854-2.072.813-.33 1.334.924.513 1.266-4.356 1.597-8.744 3.102-13.205 4.381-1.706.494-3.42.963-5.141 1.396-.507.073-1.058.412-1.559.191zm.282 16.223c-.435-.745 1.801-2.087 2.305-2.541 4.808-3.563 9.79-6.893 15.027-9.777 1.865-1.063 3.762-2.199 5.954-2.323 1.313-.134 2.659-.249 3.852-.87 2.341-1.178 4.14-3.159 6.193-4.753a21 21 0 0 1 2.659-1.806.685.685 0 0 1 .929.258.7.7 0 0 1-.254.939c-.402.239-.804.479-1.194.736-3.063 2.021-5.488 5.266-9.056 6.383-1.37.421-2.82.385-4.217.67-1.661.376-3.094 1.393-4.584 2.181a157 157 0 0 0-3.052 1.751c-4.379 2.6-8.384 5.487-12.521 8.404-.549.285-1.541 1.497-2.041.751z"/><path fill="#0D0C21" d="M140.872 142.804c-.396-.03-.579-.445-.33-.769.387-.47.864-.864 1.184-1.391.786-1.233 1.31-2.705 1.94-3.971 1.436-2.897 3.546-5.532 6.352-7.162a55 55 0 0 1 5.237-2.69c.845-.376 1.7-.734 2.599-.952 1.043-.318 2.311-.145 2.926.855.326.451.614 1.242-.054 1.53-1.616.333-.084-2.033-3.412-.791-1.816.678-3.546 1.563-5.252 2.472-1.166.627-2.332 1.312-3.33 2.181-1.604 1.448-2.89 3.242-3.852 5.181-.869 1.602-1.931 5.377-3.999 5.507z"/><path fill="#0D0C21" d="M163.113 135.075c-.324-.136-.537-.56-.372-.897.15-.306.273-.624.384-.948.327-1.169.842-2.82.222-3.947-.174-.215-.483-.131-.723-.131a7 7 0 0 0-.737.103c-1.568.322-3.07.897-4.557 1.485-.381.148-.758.3-1.142.439-.273.097-.581.24-.869.13-.561-.287-.27-.872.18-1.099.683-.412 1.43-.712 2.161-1.024 1.442-.591 2.932-1.118 4.473-1.367 1.534-.278 2.587.325 2.799 1.942.177 1.467-.182 2.957-.677 4.33-.183.512-.477 1.251-1.148.981z"/><path fill="#0D0C21" d="M162.29 139.577c-.285-.288-.255-.812.09-1.045.722-.646 1.466-1.406 1.699-2.381-1.349-.679-2.901-.779-4.346-1.152-1.005-.236-.69-1.184.279-1.066 1.238.039 2.476.248 3.669.579 1.717.457 2.218 1.433 1.304 3.026-.45.818-1.094 1.512-1.805 2.106-.261.212-.662.169-.893-.067z"/><path fill="#0D0C21" d="M160.827 134.161c-.68-.176-2.287.673-2.479-.269-.045-.967 2.048-1.146 2.74-1.073.663.052 1.229.903.606 1.397a.676.676 0 0 1-.873-.052h.003zm-2.504 12.181c-.435-.091-.921-.451-.939-.933-.018-.609.792-.924 1.184-.46.471-.131.912-.364 1.346-.579.771-.442 1.676-.779 2.279-1.448.293-.461.512-1 .542-1.551-.003-.312-.261-.521-.47-.706a53 53 0 0 0-1.292-1.118c-.339-.327-1.367-.936-.786-1.445.264-.155.609-.012.858.103.845.418 1.585 1.03 2.299 1.642 1.16.909.749 2.563.093 3.66-.579.99-1.727 1.42-2.674 1.969-.774.357-1.562.896-2.44.869zm-47.824-5.798c-.824-.455-.306-1.494.57-1.291 2.47-.612 4.949-1.166 7.467-1.533 1.978-.275 3.81-.8 5.591-1.681 2.26-1.094 3.978-2.99 6.106-4.287 1.046-.615 2.173-1.075 3.309-1.496.966-.385 2.282-.618 2.704-1.706-1.433-.757-3.54.209-5.165-.236-1.487-.3-2.563-1.797-2.584-3.299.018-.961.747-1.712 1.424-2.303 1.073-.83 2.332-2.115 3.786-1.475 1.892.478 2.98 2.217 4.524 3.247.276-.457-.024-.996-.144-1.46-.183-.669-.726-1.115-1.214-1.563-.851-.721-1.589-1.612-2.656-1.99-1.76-.573-3.603.118-5.33.518-1.289.363-2.704.596-3.714 1.557-6.19 6.095-3.331 8.394-13.553 9.73-.866.11-1.073-1.233-.186-1.363a26 26 0 0 0 2.162-.357c1.846-.421 3.981-.664 5.264-2.23 2.179-2.654 4.107-6.771 7.458-8.016 2.428-.682 4.964-1.672 7.518-1.348 1.295.194 2.353.99 3.277 1.881.752.709 1.657 1.336 2.095 2.312.291.76.627 1.605.444 2.426-.165.903-1.058 1.582-1.943 1.176-1.619-.827-2.554-2.69-4.37-3.193-.468-.249-.918-.046-1.268.239-.45.309-.894.63-1.304.988-.351.348-.813.702-.909 1.214.018 1.076.906 2.051 1.991 2.033 1.589.124 3.276-.527 4.793.164 1.229.488 1.19 1.878.345 2.729-.669.797-1.664 1.158-2.614 1.482-.947.345-1.883.712-2.785 1.16-2.68 1.427-4.712 3.878-7.563 5.032-2.159.994-4.506 1.388-6.835 1.709-1.634.257-3.372.636-4.955.978q-.576.122-1.154.215a.68.68 0 0 1-.585.031z"/><path fill="#0D0C21" d="M136.211 127.229c-.455-.055-.653-.533-.557-.948.024-.524-.039-1.048-.111-1.566a17 17 0 0 0-.165-1.024c-.129-.452-.213-1.133.45-1.106.932.194 1.073 2.435 1.154 3.241.051.6.048 1.473-.771 1.403m-3.171.406c-.417-.77-.903-1.509-1.571-2.081-.312-.325-.744-.4-1.169-.458-.459-.033-.981-.394-.654-.891.162-.227.495-.266.735-.278 1.831-.224 3.051 1.633 3.828 3.017.422.788-.69 1.454-1.169.691m-.212 6.423c-.591-.494-.618-1.318-.507-2.03.015-.321.111-.684.456-.778.86-.164.707.963.764 1.511.687-.687 1.124-1.572 1.583-2.42a.67.67 0 0 1 .836-.282c.327.139.51.552.357.885-.59 1.081-1.948 4.029-3.489 3.114m23.465-7.386c-.465-2.139-.843-4.296-1.241-6.45-.219-1.194-.426-2.388-.663-3.578-.291-1.227-.449-2.551-1.085-3.654-1.019.276-2.002.676-3.001 1.015-.365.076-.695-.248-.704-.606-.009-.336.261-.545.527-.684.783-.394 1.616-.667 2.447-.933 1.585-.712 2.23.869 2.572 2.141.668 2.43 1.013 4.935 1.489 7.408q.38 2.076.795 4.144c.045.448.33.93.105 1.36-.273.512-1.112.412-1.244-.163z"/><path fill="#0D0C21" d="m152.605 128.168-.018-.093c-.033-.188-.084-.376-.129-.564l-.291-1.269q-.345-1.515-.695-3.03a556 556 0 0 1-1.364-6.041 345 345 0 0 1-.366-1.702c-.12-.567-.243-1.133-.333-1.706a.54.54 0 0 1-.051-.36c.042-.197.174-.385.369-.449a1 1 0 0 1 .141-.03v-.003a.574.574 0 0 1 .632.57l.018.06c.288.967.516 1.954.753 2.936.231.948.449 1.899.674 2.847.477 2.03.942 4.06 1.409 6.09l.381 1.654c.051.224.096.451.156.675q.017.052.03.106a.696.696 0 0 1-.654.846.69.69 0 0 1-.668-.531z"/><path fill="#0D0C21" d="M150.706 117.129c-.627-.206-.54-.921.036-1.133.869-.376 1.753-.709 2.623-1.085q.315-.135.626-.272c.837-.324 1.343.878.531 1.266-.9.397-1.811.782-2.749 1.082-.342.1-.711.227-1.067.142"/><path fill="#0D0C21" d="M154.808 127.381a.5.5 0 0 1-.168-.224v-.015a.7.7 0 0 1-.054-.173c0-.015-.006-.027-.006-.042-.054-.222-.126-.443-.177-.664-.081-.342-.174-.679-.255-1.021-.176-.736-.323-1.478-.458-2.154l-.084-.421v-.009c-.129-.606-.321-1.194-.471-1.793-.18-.731-.336-1.467-.5-2.2q-.144-.629-.252-1.266-.057-.342-.105-.688c-.018-.106-.03-.212-.045-.318a.55.55 0 0 1 .018-.288.4.4 0 0 1 .072-.112.345.345 0 0 1 .456-.03c.122.1.161.272.212.418.072.206.138.415.207.621.246.727.423 1.472.615 2.214.189.721.38 1.439.521 2.17.012.069.027.142.039.203v.018c.111.542.267 1.069.42 1.599q.21.723.39 1.454c.093.361.171.728.254 1.091.069.303.144.606.204.903q0 .015.006.03c.009.018.015.04.021.058a.6.6 0 0 1 .024.166.56.56 0 0 1-.159.424.56.56 0 0 1-.728.046zM94.246 69.535c-1.712-.724-2.165-2.708-2.95-4.21-.198-.422-.462-.828-.567-1.285-.042-.246.06-.479.285-.588.414-.175.734.249.953.546.657.893 1.058 1.938 1.541 2.932.348.818 1.11 1.53 2.017 1.575.372.016.381-.396.453-.672.093-.47.144-.948.267-1.412.387-1.493 1.235-2.839 2.284-3.947a15 15 0 0 1 2.467-1.976c2.045-1.239 4.452-1.848 6.263-3.46q.136-.126.26-.266c.222-.251.639-.257.894-.057.284.22.359.672.123.96-.675.77-1.562 1.312-2.438 1.82-1.127.643-2.341 1.106-3.501 1.682a12 12 0 0 0-3.36 2.548c-.819.945-1.47 2.06-1.739 3.293-.198.888-.165 2.027-1.01 2.575-.687.424-1.553.294-2.242-.055zm-40.544 46.236c-.365-.045-.63-.406-.581-.772.069-.779.183-1.551.306-2.324.428-2.748 1.409-5.362 2.536-7.886a61 61 0 0 1 2.692-5.413c.707-1.164 1.313-2.442 2.266-3.42.216-.182.587-.15.695.136.138.512-.302.966-.494 1.411-2.048 3.669-3.957 7.489-5.36 11.452a25.3 25.3 0 0 0-1.106 4.684c-.075.515-.123 1.033-.192 1.545a.69.69 0 0 1-.765.587zm6.658 10.647c-.21-.34-.426-.673-.642-1.009a26 26 0 0 0-.311-.479q0-.5.015-1c.099-3.811.47-7.616 1.016-11.387.845-4.845 1.6-10.061 3.438-14.6.654-.424 1.128.355.86.96-1.98 7.141-3.324 14.479-3.81 21.871-.128 2.126-.221 4.259-.107 6.389-.153-.252-.303-.5-.459-.748zm38.13 52.54c-5.324-.769-10.07-3.635-14.434-6.665-1.46-.978-2.926-1.951-4.446-2.832-.437-.303-1.043-.452-1.322-.933-.215-1.403 1.364-.54 1.967-.182 4.868 2.711 9.233 6.583 14.596 8.282 1.24.446 2.506.837 3.822.97.87.109.69 1.49-.186 1.363z"/><path fill="#0D0C21" d="M46.073 189.188c-8.936-.548-19.038-.875-26.07-7.207-9.78-9.691-10.82-29.762-14.366-43.019-1.867-8.858-4.05-17.677-5.11-26.684-.636-5.25-2.18-16.97 6.492-14.172 9.758.47 19.686-.063 29.255 2.267 5.606 1.411 9.515 3.281 13.175 7.937 11.484 14.963 18.885 32.679 26.014 50.062a144 144 0 0 1 3.561 10.328c1.094 3.817 2.614 7.801 2.072 11.83-2.95 11.109-26.006 8.689-35.023 8.658m8.007-1.142c8.454-.23 29.207.885 25.337-12.775-1.748-7.362-4.383-14.481-7.24-21.464-4.517-10.685-9.263-21.313-14.991-31.398-3.49-5.832-6.859-11.763-11.829-16.383-9.428-7.629-28.112-5.684-39.75-6.693q.034.002.07-.006.006 0 .014-.006a.56.56 0 0 1-.548-.218c-5.63-.388-3.42 9.525-3.268 12.988.93 8.022 2.806 15.889 4.485 23.775 1.646 7.528 3.231 15.072 4.86 22.606 1.462 6.541 3.045 13.357 6.786 18.989 7.362 11.306 24.206 9.991 36.074 10.582zm39.075-1.469c-1.634-.115-1.936-1.696-.656-2.647 1.109-.952 2.52-1.412 3.885-1.854 6.66-2.36 13.45-4.345 20.261-6.217 4.622-1.288 9.233-2.675 13.957-3.541 2.309-.415 4.683-.479 6.997-.094 1.094.181 2.179.433 3.234.784.336.112.663.237.948.452.473.342.761.954.605 1.539-.404 1.375-1.969 1.857-3.15 2.354-4.101 1.429-8.394 2.196-12.612 3.178-4.808 1.045-9.592 2.202-14.377 3.341-6.268 1.4-12.62 3.039-19.089 2.711zm2.45-1.336c3.075-.021 6.108-.548 9.121-1.13 5.393-1.048 10.684-2.426 16.035-3.662 4.802-1.124 9.64-2.094 14.422-3.308 1.343-.394 5.285-1.288 5.881-2.479-.111-.16-.311-.221-.485-.29a20 20 0 0 0-2.455-.655 20 20 0 0 0-2.528-.336c-1.951-.142-4.055.118-5.917.509-2.323.488-4.628 1.06-6.922 1.684-8.321 2.297-16.628 4.651-24.869 7.229a.57.57 0 0 1-.32.294c-.513.181-1.038.324-1.535.496-1.052.37-2.138.794-2.935 1.612.827.118 1.676.055 2.506.039z"/><path fill="#0D0C21" d="M96.141 188.989c-1.687-.061-3.888-.458-4.535-2.269-.288-.721-.102-2.739 1.022-2.375.318.136.495.536.348.86a2 2 0 0 0-.165.445c-.237 1.17 1.067 1.639 1.972 1.833 2.117.306 4.254.149 6.373.033 4.14-.278 8.256-.848 12.354-1.481 6.124-1.006 12.198-2.327 18.295-3.508 3.058-.739 6.952-1.251 9.227-3.599.27-.324.519-.697.557-1.13.024-.764-.092-1.494-.164-2.245-.117-.567.317-1.188.914-.867.516.391.429 1.176.542 1.755.06.733.171 1.508-.104 2.211-1.31 2.945-5.156 3.86-7.98 4.608-3.124.754-6.14 1.272-9.26 1.893-6.247 1.27-12.516 2.469-18.856 3.187-3.495.409-7.017.755-10.537.64zm9.312-130.415c0-.224.186-.415.41-.415a.416.416 0 0 1 0 .83.415.415 0 0 1-.41-.415"/><path fill="#0D0C21" d="M89.837 92.435c-1.214-.94 1.298-2.654 2.098-3.014 3.412-1.903 6.622.266 9.74-1.903 4.434-3.132 6.463-7.722 6.043-13.145-.204-2.56-.656-5.099-.644-7.674 0-1.648.033-3.329-.312-4.944-.162-.772-.348-1.548-.683-2.266-.177-.248-.21-.572-.024-.824 1.78-1.584 2.428 5.114 2.371 6.092.012 1.312-.009 2.627.081 3.936.177 2.557.695 5.09.599 7.661-.069 3.933-1.633 7.795-4.511 10.476-1.652 1.7-3.747 3.106-6.181 3.13-1.4.04-2.815-.23-4.197.109-1.307.3-2.758.89-3.45 2.12-.172.334-.624.428-.93.246m1.109-15.378c-2.437-.079-3.75-4.065-4.248-6.08-.764-2.857-.048-7.852 3.81-7.395.849.07 3.058 1.175 1.76 2.093-.36.173-.654-.09-.915-.305-2.563-1.691-3.807 1.596-3.552 3.735.108 1.572.567 3.105 1.262 4.51.516.976 1.265 2.543 2.6 1.952.56-.185 1.024-1.048 1.642-.455.866 1.127-1.502 2.045-2.362 1.948z"/><path fill="#0D0C21" d="M107.891 75.862c-.075-.758.642-.728 1.13-.964.627-.321 1.142-.812 1.604-1.339 1.847-2.087 2.767-4.671 3.319-7.337.164-.949.38-1.954.128-2.906-5.671-.057-11.343.058-17.014.21-1.901.015-3.826.324-5.717.093-.435-.103-.645-.648-.369-1.011.372-.458 1.13-.164 1.649-.252 4.419-.233 8.84-.345 13.268-.376 2.389-.036 4.775-.087 7.164-.06.657.06 1.475-.164 1.979.375 1.238 1.721-.018 5.344-.579 7.238-.728 2.145-1.915 4.162-3.564 5.713-.612.561-2.614 2.018-2.995.616z"/><path fill="#0D0C21" d="M114.412 65.912c-5.21-.545-10.447-.409-15.675-.27-2.284.025-4.59.158-6.859-.142-.89-.154-.72-1.315.186-1.22 7.48.205 14.976-.57 22.438.263.818.094.737 1.39-.093 1.37z"/><path fill="#0D0C21" d="M108.198 74.1c-.663-.775.545-1.315.923-1.881 1.193-1.382 2.173-2.97 2.785-4.684.144-.43.27-.866.368-1.309.078-.336.099-.742.423-.945.944-.388.998.8.816 1.436-.345 1.73-1.161 3.336-2.147 4.78a17 17 0 0 1-1.433 1.806c-.44.443-1.067 1.406-1.735.797m-2.054 7.932c-.471-.124-1.061-.184-1.364-.612a.65.65 0 0 1 .159-.83c.278-.218.599-.112.902-.03.459.121.929.221 1.403.206a.69.69 0 0 1 .794.585c.048.363-.213.733-.581.775-.438.049-.885-.006-1.313-.094m.06-13.845c-.554.027-1.106-.506-.722-1.042.216-.282.566-.263.881-.273 1.253-.048 2.515-.157 3.732-.47.866-.217 1.217 1.064.363 1.328-1.385.342-2.83.524-4.254.46zM92.796 64.7c-.432-.014-1.01.05-1.203-.448-.668-.36-.275-1.43.471-1.142 2.302.421 4.653.015 6.979.058 4.982-.015 9.973-.106 14.955.09.816.104.75 1.373-.093 1.37-7.032-.233-14.077-.094-21.11.073"/><path fill="#0D0C21" d="M108.587 75.585a.7.7 0 0 1-.563-.863c.243-.588.902-.894 1.259-1.412.896-1.045 1.732-2.157 2.329-3.408a29 29 0 0 0 1.325-3.239c.258-.724.45-1.472.716-2.193.138-.44.723-.655 1.059-.3.503.648-.291 1.696-.261 2.448-.893 2.996-2.365 5.938-4.62 8.122-.371.315-.695.915-1.247.845zM91.438 64.27c-.822.119-1.05-.736-.35-1.12.458-.512 1.369-.055 1.177.633-.084.354-.483.572-.827.488m-5.471 3.365c-.324-.548.6-2.17.944-2.672.549-.703 1.607.121 1.077.839-.528.533-1.029 2.936-2.02 1.833m3.99 6.29c-1.116-1.324-1.334-4.16-1.083-5.841.63-3.409 3.795-1.043 3.733 1.272.011.324-.183.612-.213.924.392.609 1.112.96 1.298 1.672.036.364-.204.703-.588.71-.342.005-.593-.298-.812-.531-.414-.506-1.023-.924-1.205-1.575-.117-.449.078-.864.177-1.288.014-.62-.43-1.16-.894-1.52-.596 1.408-.159 3.15.186 4.562.129.545.857 1.075.327 1.617a.66.66 0 0 1-.93 0zm14.141-5.624c-.258-.01-.588.024-.795-.16a.644.644 0 0 1 .081-1.058c.786-.297 1.694-.058 2.521-.179.621 0 1.652-.427 1.814.479a.696.696 0 0 1-.582.775 16.7 16.7 0 0 1-3.039.143"/><path fill="#0D0C21" d="M108.978 73.37c0-.09.075-.163.162-.163s.162.076.162.164a.166.166 0 0 1-.162.163.166.166 0 0 1-.162-.163m-.858-2.033c.012-.464.689-.464.698 0-.012.463-.689.463-.698 0"/><path fill="#0D0C21" d="M108.147 79.197a.68.68 0 0 1 .237-.915c.774-.497 1.598-1.066 2.048-1.896.102-.512-.357-.955-.561-1.394a46 46 0 0 1-1.787-3.341c-.167-.36-.377-.718-.458-1.11-.063-.593.548-.738.914-.338.938 1.096 1.493 2.478 2.257 3.698.777 1.285 1.613 2.464.378 3.8-.497.584-1.097 1.078-1.733 1.505-.395.31-.971.521-1.292-.009z"/><path fill="#FED980" d="M226.837 55.267c-.716-.149-1.25-2.012-4.053-2.34-.156-.26-.261-2.053.156-2.077 1.424.166 4.002.324 5.261 3.683.345-.039-.92.594-1.364.734"/><path fill="#A7A6B5" d="M227.469 60.426c-.201-.055-1.403-1.197-1.412-1.797 0-.542.602-1.802.815-2.29.216-.424 1.574-1.412 2.038-.806.297 1.221-.683 5.054-1.441 4.893"/><path fill="#fff" d="M218.038 60.377c-1.69-2.608-1.364-8.131 3.882-9.346.333-.23.21 1.4.117 1.6-.204.348-.59.52-.875.79-.794.703-1.481 1.594-1.682 2.663-.339 1.866 1.004 3.857 2.833 4.26 1.223.19 2.359-.47 3.447-.93.582-.182 1.107.33 1.34.815.42 1.033-4.163 5.531-9.065.148z"/><path fill="#0D0C21" d="M221.788 53.46c-.147-.48-.03-1.708.054-2.193.054-.37.428-.733.809-.563.42.19.366.69.345 1.075-.036.328.051 1.376-.078 1.682-.192.497-.944.497-1.133 0zm4.48 2.322c.039-.682.893-.827 1.364-1.118.524-.37 1.268.118 1.01.751-.177.4-.653.464-.995.67-.495.285-1.283.509-1.382-.3zm.485 5.277c-.36-.1-.543-.467-.774-.734-.293-.336-.554-.996-.018-1.239.378-.148.723.152.966.412.218.273.554.503.602.873.063.433-.363.806-.776.688"/><path fill="#FFF7DB" stroke="#0D0C21" stroke-miterlimit="10" stroke-width="4" d="M222.94 60.486c1.997 0 3.616-1.636 3.616-3.654s-1.619-3.653-3.616-3.653c-1.996 0-3.615 1.636-3.615 3.653s1.619 3.654 3.615 3.654Z"/><path stroke="#0D0C21" stroke-miterlimit="10" stroke-width="4" d="M222.939 63.004c3.372 0 6.106-2.763 6.106-6.17 0-3.409-2.734-6.172-6.106-6.172-3.373 0-6.106 2.763-6.106 6.171s2.733 6.171 6.106 6.171Z"/></svg>
