<svg width="282" height="211" viewBox="0 0 282 211" fill="none" xmlns="http://www.w3.org/2000/svg">
    <mask id="mask0_5451_2009" style="mask-type:luminance" maskUnits="userSpaceOnUse" x="34" y="-10" width="214" height="212">
        <path d="M42.8009 190.387C42.7633 190.168 42.7382 189.949 42.7382 189.717V-6.22131C42.7382 -8.28685 44.4306 -9.97684 46.4991 -9.97684H220.009C222.078 -9.97684 223.77 -8.28685 223.77 -6.22131V188.421C238.513 189.805 247.345 191.557 247.345 193.473C247.345 197.917 199.738 201.522 141.017 201.522C82.2968 201.522 34.6898 197.917 34.6898 193.473C34.6898 192.377 37.5795 191.338 42.8009 190.387Z" fill="white"/>
    </mask>
    <g mask="url(#mask0_5451_2009)">
        <path d="M141.018 201.562C82.2944 201.562 34.69 197.958 34.69 193.513C34.69 189.067 82.2944 185.464 141.018 185.464C199.741 185.464 247.345 189.067 247.345 193.513C247.345 197.958 199.741 201.562 141.018 201.562Z" fill="#0D0C21"/>
        <path d="M54.2155 86.8747C53.7078 86.6869 50.7931 83.3883 49.8717 82.2867C45.7911 77.2042 44.3807 75.17 49.646 70.2002C50.5298 69.7808 50.7805 70.8449 50.8996 71.4896C51.1692 72.5411 51.4387 73.5238 51.8775 74.5628C52.8616 76.7035 54.3786 78.575 56.2966 79.9583C56.6978 80.2587 57.1428 80.5654 57.6129 80.8346C57.8386 80.9222 58.0767 81.0662 58.2021 81.2539C58.7662 80.6218 59.3492 80.0021 59.9572 79.4075C57.45 78.4811 55.5194 76.3029 54.1842 74.0558C52.8616 71.8401 52.1219 68.8795 53.4069 66.4884C54.391 64.7296 56.6727 64.4855 58.4968 64.5481C61.2234 64.7484 63.4611 64.7985 68.5572 72.5223C72.3056 69.931 75.4773 68.3036 79.5328 66.2381C83.2561 64.4292 87.2678 63.3651 91.1979 62.1133C92.2949 61.7815 93.3792 61.4185 94.4637 61.0617C94.2568 60.6737 94.1879 60.1416 94.0437 59.6722C93.3542 57.2248 92.182 54.8651 92.2008 52.2738C92.1507 50.6526 92.9718 48.1552 95.0153 48.5934C97.0023 49.3132 99.2902 51.7793 100.594 53.4443C100.813 53.801 101.252 54.1203 101.171 54.5834C101.083 55.0341 100.481 55.1781 100.18 54.8401C99.2714 56.0418 98.632 57.4126 98.1556 58.846C98.0303 59.2528 97.8798 59.6722 97.6792 60.0477C99.0583 59.6471 100.45 59.3029 101.873 59.0775C106.731 58.4266 113.97 57.4314 118.878 57.7569C121.599 58.0636 121.994 58.9962 124.601 59.8161C127.083 60.5172 129.34 61.9818 131.847 62.5452C134.869 61.1181 136.617 63.2211 139.507 63.7344C140.435 63.9284 141.494 63.9535 142.459 63.8971C144.058 63.8095 146.684 62.251 148.007 63.5091C149.166 64.5043 148.383 66.8953 148.84 68.2285C149.122 68.8044 149.824 68.9233 150.332 69.2363C152.432 70.3879 154.331 71.8714 156.231 73.3298C162.668 78.4748 169.174 83.7827 174.013 90.5176C177.279 95.0305 179.548 100.151 181.943 105.152C184.701 111.549 187.202 118.071 189.145 124.768C190.411 129.331 196.698 153.923 198.14 173.671C199.644 185.72 201.437 197.738 202.22 209.862C202.785 215.62 77.6962 225.222 77.8968 224.302C79.7334 214.488 80.5922 204.517 82.4726 194.708C81.9398 194.245 82.3159 192.593 82.3472 191.898C82.7171 188.274 83.2123 184.662 83.8391 181.076C84.7542 176.388 85.5378 171.681 86.2774 166.968C86.2022 166.623 86.2147 166.217 86.246 165.929C86.3087 164.62 86.4153 163.312 86.5031 162.004C86.9669 154.261 88.2958 146.594 89.938 139.02C91.4173 132.054 92.7399 122.139 92.4015 122.502C91.3547 123.46 89.0543 120.349 88.2645 119.66C86.9293 118.233 85.4688 116.919 84.2026 115.429C82.178 113.051 75.8785 116.587 71.4656 117.833C68.0808 118.847 58.8415 123.253 53.5511 118.114C51.1629 115.799 49.3264 112.819 48.6181 109.583C47.9662 106.003 48.4927 102.329 49.5583 98.8611C49.5583 97.3839 52.567 89.2157 54.1967 86.8747H54.2155Z" fill="#FED980"/>
        <path d="M81.8462 60.104C81.3009 60.3106 80.7868 59.8411 80.3042 59.6471C79.4893 59.234 78.6682 58.8271 77.8721 58.389C77.8094 58.3514 77.7593 58.3076 77.7154 58.2638C76.7438 57.7318 75.8099 57.0933 74.8634 56.5613C75.0013 57.0996 75.4651 57.7192 75.5027 58.2951C75.5967 58.3764 75.6783 58.4828 75.7284 58.6205C76.1421 59.1213 76.1672 59.9287 75.3836 60.0038C74.293 59.8536 73.2838 59.284 72.2433 58.9273C72.143 58.8834 72.0615 58.8271 72.0051 58.7645C71.5726 58.5705 71.1589 58.3764 70.7703 58.2513C70.7891 58.8834 71.2529 59.403 71.2717 60.0351C71.2717 60.1102 71.2717 60.1729 71.2529 60.2417C71.3783 60.3982 71.5036 60.5609 71.5976 60.7424C71.7982 61.1743 71.4723 61.6813 71.0022 61.6938C70.2876 61.6813 69.6357 61.3058 68.965 61.0804C67.9245 60.6924 66.9028 60.2417 65.9249 59.7222C65.6805 59.5845 65.5927 59.3717 65.6115 59.1651C64.828 58.8271 64.0382 58.5204 63.2045 58.3452C61.7064 59.3028 62.1264 60.6548 59.5188 61.3183C56.9488 61.625 58.0583 57.7318 59.0048 56.6364C60.1958 55.0904 62.3583 55.178 64.126 54.5834C64.9847 54.3017 65.8121 53.9199 66.5643 53.4129C67.5798 52.6868 68.5952 51.8105 69.9241 51.8356C70.6261 51.8105 71.3219 51.8919 72.0239 51.9044C72.6633 52.0234 73.8103 51.6102 74.036 52.4552C74.3807 51.9482 75.0953 52.1736 75.5905 52.2862C77.5524 52.7682 79.2072 54.0263 80.4797 55.5535C81.1629 56.2608 82.3414 57.932 81.89 58.777C82.2599 59.1463 82.404 59.8474 81.8524 60.104H81.8462Z" fill="#FED980"/>
        <path d="M182.569 95.4877C182.093 95.857 181.429 95.037 181.93 94.6614C182.413 94.2734 183.052 95.1121 182.569 95.4877Z" fill="#FED980"/>
        <path d="M75.3331 77.6174C75.9349 77.0291 76.1668 76.1653 76.6432 75.4768C77.1509 74.6318 77.8153 73.8494 78.6803 73.3612C79.5078 72.8667 80.6361 72.8667 81.5261 72.8917C85.3623 72.923 89.2736 75.433 91.129 78.7316C91.8436 80.0585 92.3576 81.5983 92.1069 83.1193C91.7872 84.7154 91.2355 86.3866 90.0822 87.5758C88.9602 88.6649 87.2051 88.3833 85.7634 88.4271H85.8198C82.3034 88.4396 78.9812 86.3866 77.2575 83.3759C76.2859 81.5858 76.3549 79.3888 75.3331 77.6237V77.6174ZM53.6075 74.3126C52.9243 72.9543 52.7237 71.3394 52.6861 69.8748C52.8303 68.0033 53.7893 66.0316 55.5131 65.1553C57.4813 64.1977 59.8945 64.3103 61.8377 65.268C63.6492 66.1819 65.492 67.2522 66.7394 68.8858C67.9993 70.7323 68.8581 72.9105 68.6638 75.1763C68.6512 75.9087 68.4318 76.6848 68.6951 77.3921C66.4197 79.0383 66.0311 80.5593 62.7905 80.359C60.1139 80.2776 58.0392 78.7065 56.1336 77.0666C55.1997 76.2529 54.2344 75.4079 53.6138 74.3126H53.6075ZM52.3602 64.8799C50.7179 67.1583 50.3293 70.1502 50.9624 72.8479C51.8211 75.7772 53.783 78.3435 56.2339 80.1462C58.8352 82.0928 62.0571 83.6513 65.3918 83.1506C67.5104 82.8376 69.535 82.0802 71.4594 81.1601C71.9044 80.9473 72.3745 80.7157 72.7381 80.3715C73.039 80.0523 73.2396 79.7268 73.3586 79.4138C73.5216 81.0537 74.6561 82.8939 75.377 84.0582C78.2541 88.5898 83.4442 91.9072 88.9414 91.4127C91.48 91.2312 93.7052 89.8918 95.7988 88.5585C97.5977 87.4319 99.3654 86.2551 101.02 84.9219C102.606 83.7264 103.998 82.1053 104.317 80.0898C104.637 77.3733 103.759 74.6068 102.274 72.3472C101.478 71.1141 100.581 69.9186 99.3717 69.0673C96.7014 67.1207 93.1975 67.4462 90.1888 68.31C88.1767 68.8045 86.1144 69.0736 84.0961 69.543C81.9774 70.0939 79.7647 70.4819 77.784 71.4458C76.2232 72.222 73.7974 75.5832 73.9541 77.3107C73.6971 77.6049 73.5342 77.9304 73.4401 78.2809C73.4401 78.2559 73.4276 78.2308 73.4213 78.2121C73.8476 76.4344 74.3239 74.7632 75.3833 73.2485C75.8095 72.5412 76.4551 72.0092 77.1885 71.6461C79.6456 70.5445 82.2532 69.8247 84.8107 68.986C86.4341 68.5103 87.9448 68.2161 89.5745 67.9031C90.195 67.7905 90.8156 67.6653 91.4361 67.5777C91.5866 67.5589 91.7433 67.5338 91.8624 67.4337C92.0693 67.2772 92.1319 66.9705 92.0191 66.7389C92.0128 66.5574 91.9752 66.3759 91.9376 66.2194C91.3359 63.9097 89.6434 62.0257 87.6878 60.7301C86.4905 59.9477 85.2369 59.1778 83.8704 58.7334C83.5006 58.6645 83.0744 58.7146 82.8424 59.0463C82.5416 59.4595 82.786 59.9915 82.6355 60.4359C81.1939 60.5673 79.2758 59.2529 77.9846 58.6145C77.4957 58.3203 76.7685 57.8633 76.3109 58.4454C75.5462 59.3092 78.3356 61.3685 75.9223 60.6237C74.5433 60.1354 73.4025 59.4657 72.0987 58.9086C71.5283 58.5143 70.6947 58.9212 71.0018 59.6535C71.4594 60.4359 72.7256 61.0681 72.7318 62.0508C71.942 62.6704 70.8827 61.8505 70.0616 61.6189C68.5885 61.1119 67.1657 60.342 65.6112 60.1229C63.4737 60.0603 61.4114 60.8553 59.368 61.3936C56.9171 62.1947 54.0839 62.8081 52.379 64.8862L52.3602 64.8799Z" fill="#3F3D56"/>
        <path d="M86.2899 74.9948C86.9794 74.7882 87.9447 75.9775 88.4148 76.4282C89.6434 77.1042 90.1574 78.6314 90.7278 79.8394C92.602 83.9392 91.6618 88.2018 86.6848 88.9278C81.9335 89.873 75.7844 83.2382 75.8408 78.6878C76.01 72.6476 82.178 71.2393 86.2899 74.9886V74.9948Z" fill="#FED980"/>
        <path d="M62.2703 65.6438C63.455 66.2008 64.4391 67.0959 65.3229 68.0411C65.7993 68.3478 66.119 68.8422 66.4324 69.2992C66.6706 69.5871 66.8962 69.8875 67.1219 70.188C67.2472 70.3632 67.2786 70.5823 67.2096 70.7701C68.2439 73.1548 69.0462 76.3157 67.6923 78.713C66.7458 80.1088 64.9468 80.6221 63.3359 80.6784C61.0292 80.7598 59.0485 79.2638 57.3184 77.9056C53.8521 75.2204 50.7493 70.0252 53.8333 65.9505C55.9958 63.5157 59.6815 64.4796 62.2703 65.6438Z" fill="#FED980"/>
        <path d="M199.983 185.276C200.008 185.195 200.045 185.113 200.108 185.032C202.032 183.354 205.599 179.937 207.937 182.703C209.191 184.243 209.485 186.34 209.667 188.255C209.968 191.804 209.197 195.322 208.031 198.658C207.103 201.431 206.013 204.141 204.96 206.864C204.809 207.246 204.665 207.621 204.508 208.003C204.301 208.404 204.239 208.973 203.806 209.199C203.744 209.23 203.675 209.242 203.612 209.249C203.631 210.037 203.555 210.707 203.242 210.882C203.148 210.932 203.06 210.957 202.979 210.957C202.628 210.957 202.358 210.563 202.415 210.194C202.415 209.499 202.383 208.804 202.321 208.11C201.957 204.204 201.28 200.336 200.96 196.43C200.754 194.358 200.515 192.292 200.296 190.221C200.158 188.844 200.02 187.467 199.926 186.083C199.882 185.814 199.87 185.507 199.989 185.282L199.983 185.276Z" fill="#EAB339"/>
        <path d="M193.959 138.795C194.868 138.432 195.808 138.125 196.779 137.956C198.184 137.737 199.813 137.593 200.973 138.582C203.436 140.798 204.232 144.366 204.326 147.558C204.207 152.177 202.715 156.647 201.249 160.984C200.754 162.405 200.265 163.826 199.744 165.234C199.381 165.985 199.287 167.106 198.422 167.462C198.359 167.475 198.296 167.481 198.24 167.481C197.149 167.481 197.438 165.084 197.287 164.302C197.143 162.023 196.974 159.745 196.566 157.498C195.958 154.118 195.432 150.725 194.742 147.364C194.285 144.898 193.633 142.444 193.382 139.947C192.874 139.421 193.426 138.92 193.971 138.783L193.959 138.795Z" fill="#EAB339"/>
        <path d="M177.298 90.7431C178.928 90.3675 180.651 90.3488 182.319 90.4552C186.048 90.5365 188.806 92.0513 190.511 95.425C193.996 102.01 191.621 112.45 189.151 119.129C188.888 119.423 188.649 119.542 188.436 119.542C187.49 119.542 186.995 117.157 186.725 116.387C186.418 115.304 186.123 114.221 185.76 113.151C183.115 105.865 180.05 98.6673 175.655 92.2453C175.399 92.1952 175.242 91.9386 175.229 91.6945C175.279 90.8558 176.684 90.9497 177.298 90.7306V90.7431Z" fill="#EAB339"/>
        <path d="M149.129 65.7686C149.53 65.0237 150.514 64.7295 151.185 64.2538C152.457 63.5027 153.824 62.8393 155.272 62.5388C156.977 62.2697 158.675 63.0083 160.054 63.9597C162.129 65.3117 163.521 67.421 164.486 69.6618C165.232 71.4394 169.112 80.4277 167.946 81.6357C167.808 81.7484 167.652 81.7984 167.495 81.7984C166.536 81.7984 165.295 80.002 164.637 79.5076C162.493 77.4045 160.073 75.4391 157.641 73.6615C155.335 71.9589 152.859 70.5131 150.32 69.1861C149.731 68.8982 149.261 68.4225 148.985 67.8279C148.772 67.227 148.233 66.0315 149.129 65.7748V65.7686Z" fill="#EAB339"/>
        <path d="M123.993 57.901C125.171 57.2563 126.344 56.5803 127.296 55.6226C130.919 52.0299 125.635 46.8973 124.256 43.3608C122.388 39.5239 122.589 34.1473 126.287 31.4746C126.506 31.3118 126.732 31.1554 126.958 30.9989C127.202 30.7673 127.453 30.542 127.723 30.3354C129.728 28.8019 132.211 28.0571 134.58 27.2747C136.348 26.799 138.078 26.1417 139.883 25.8538C140.102 25.8288 140.372 25.7975 140.566 25.9477C140.61 25.979 140.648 26.0166 140.679 26.0604C140.98 25.9727 141.274 25.8789 141.575 25.785C143.92 25.134 146.214 24.2452 148.163 22.7555C148.752 22.3174 149.316 21.8542 149.868 21.3785C150.263 21.0905 150.608 20.6211 151.09 20.5022C151.88 19.8888 152.319 21.1657 152.281 21.7978C152.476 24.3704 150.42 26.1981 148.558 27.6314C146.822 28.9709 145.073 30.2853 143.255 31.5184C140.416 33.1708 137.896 35.6683 138.372 39.236C139.331 46.9974 145.261 53.0689 136.855 59.109C135.188 60.3859 133.577 61.7191 132.135 63.2589C130.719 64.5858 129.835 66.2508 129.847 68.2287C129.866 70.5383 130.029 71.2143 127.422 71.5398C126.732 71.6274 126.036 71.6775 125.341 71.6775C124.532 71.6775 123.73 71.6087 122.94 71.4334C121.21 71.0266 119.611 70.119 118.314 68.9297C116.471 67.4651 116.327 64.7298 117.618 62.8583C119.116 60.5612 121.686 59.253 123.999 57.9135L123.993 57.901Z" fill="#EAB339"/>
        <path d="M99.5093 23.4813C101.703 21.1404 104.75 19.8197 106.906 17.4224C107.752 16.5086 108.341 15.4946 108.899 14.3679C109.2 13.7608 109.501 13.1536 109.933 12.6278C110.19 12.3524 110.441 11.9518 110.842 11.9018C111.795 11.1006 112.309 12.7968 112.34 13.5354C112.51 15.4382 111.632 17.2284 110.736 18.8495C109.244 21.6286 107.226 24.3889 106.273 27.4684C105.602 29.7343 106.755 32.0439 108.153 33.784C110.673 36.6757 114.29 39.6363 113.995 43.8488C113.619 47.4791 111.745 50.6964 110.36 54.0075C109.977 54.9151 110.04 55.9228 110.178 56.8805C110.266 58.0259 110.93 59.0274 111.037 60.1603C111.074 60.974 110.849 61.8941 110.153 62.3823C109.858 62.5951 109.589 62.6828 109.332 62.6828C108.755 62.6828 108.241 62.2509 107.721 61.8253C107.119 61.3308 106.498 60.83 105.746 60.999C105.119 61.0742 104.612 61.481 104.022 61.6562C103.602 61.7564 103.233 61.5686 102.863 61.3808C102.499 61.1931 102.136 61.0116 101.709 61.1054C101.033 61.1993 100.506 61.7001 99.8416 61.794C97.6728 61.6062 98.3873 58.6518 99.0141 57.3186C99.7726 55.8352 100.669 54.4143 101.628 53.0561C103.345 50.7527 105.207 48.0174 102.819 45.4261C101.39 43.6861 99.1897 42.8536 97.6352 41.2324C94.9148 38.6787 92.5517 34.7854 93.6737 30.9485C94.5763 27.7751 97.2904 25.7221 99.5093 23.4625V23.4813Z" fill="#EAB339"/>
        <path d="M61.8001 103.593C61.9442 103.605 62.0759 103.68 62.1699 103.787C62.9472 103.668 63.4486 104.594 63.7307 105.189C64.4516 106.697 63.9877 108.869 62.2765 109.445C62.0696 109.502 61.8627 109.527 61.6496 109.527C60.5339 109.527 59.4244 108.788 58.8478 107.868C58.4717 107.173 58.2836 106.322 58.5155 105.546C58.948 104.2 60.4211 103.386 61.8001 103.593Z" fill="#EAB339"/>
        <path d="M48.9381 102.842C48.982 102.11 49.076 101.384 49.1888 100.664C49.2076 100.526 49.2766 100.407 49.3643 100.313C49.0697 100.126 49.0886 99.6563 49.3957 99.481C50.198 99.1618 51.1069 100.113 51.5081 100.733C52.3919 102.085 52.1976 104.57 50.3861 105.002C50.3046 105.014 50.2231 105.02 50.1479 105.02C49.1011 105.02 48.8316 103.725 48.9381 102.836V102.842Z" fill="#EAB339"/>
        <path d="M103.327 58.8903C103.252 59.1156 103.183 59.3409 103.108 59.5662C103.176 59.2846 103.252 59.0029 103.327 58.7213C103.346 58.7213 103.365 58.715 103.383 58.7087C103.365 58.7588 103.352 58.8089 103.333 58.859C103.333 58.859 103.333 58.8715 103.333 58.8777V58.8903H103.327Z" fill="#0D0C21"/>
        <path d="M75.8913 68.6795C75.8913 68.6795 75.8725 68.6921 75.8662 68.6921C75.8787 68.6921 75.8849 68.6795 75.8975 68.6733L75.8913 68.6795Z" fill="#0D0C21"/>
        <path d="M75.9036 68.6733C75.9036 68.6733 75.8916 68.6793 75.8856 68.6854C75.8856 68.6854 75.8915 68.6854 75.8976 68.6854L75.9036 68.6733Z" fill="#0D0C21"/>
        <path d="M62.5897 109.621C62.1321 109.834 61.6307 109.934 61.1355 109.934C60.8848 109.934 60.6278 109.909 60.3771 109.859H60.3708C60.3708 109.859 60.352 109.859 60.3394 109.852C60.2517 109.834 60.1388 109.802 60.026 109.765C59.581 109.615 59.1672 109.383 58.8162 109.076C58.4464 108.751 58.1581 108.363 57.945 107.918C57.8259 107.668 57.7381 107.399 57.6817 107.13C57.4748 106.066 57.7569 104.908 58.4966 104.1C58.8664 103.693 59.3115 103.368 59.8255 103.161C60.2392 102.999 60.6904 102.873 61.1355 102.911C63.2416 103.08 64.1756 104.764 64.2508 104.92C64.5767 105.571 64.7021 106.322 64.5705 107.042C64.4702 107.587 64.2633 108.106 63.9248 108.544C63.5738 109.007 63.1162 109.377 62.5834 109.621H62.5897ZM63.4234 105.928C63.3983 105.822 63.3733 105.715 63.3419 105.615C63.1664 105.189 62.7715 104.801 62.69 104.726C62.6148 104.657 62.5333 104.595 62.4518 104.538C62.3766 104.488 62.2951 104.438 62.2073 104.394C62.1133 104.351 62.0193 104.307 61.9253 104.269C61.8187 104.232 61.7184 104.2 61.6119 104.182C61.5116 104.163 61.4113 104.15 61.311 104.138C61.2107 104.138 61.1104 104.132 61.0101 104.138C60.9035 104.144 60.8032 104.157 60.7029 104.175C60.6089 104.194 60.5149 104.219 60.4209 104.25C60.3206 104.282 60.2266 104.326 60.1326 104.369C60.0511 104.413 59.9696 104.457 59.8881 104.507C59.8066 104.563 59.7251 104.62 59.6499 104.682C59.5747 104.751 59.4995 104.82 59.4243 104.895C59.3616 104.964 59.2989 105.039 59.2488 105.114C59.1923 105.202 59.1359 105.29 59.0858 105.383C59.0419 105.471 59.0043 105.559 58.9667 105.653C58.9354 105.753 58.904 105.853 58.8789 105.953C58.8601 106.059 58.8413 106.16 58.835 106.266C58.8288 106.372 58.8288 106.473 58.835 106.579C58.8413 106.679 58.8539 106.779 58.8727 106.879C58.8915 106.979 58.9228 107.08 58.9542 107.186C58.9855 107.274 59.0168 107.355 59.0544 107.436C59.0983 107.53 59.1484 107.618 59.2048 107.712C59.2612 107.793 59.3177 107.868 59.3804 107.943C59.443 108.012 59.512 108.081 59.581 108.15C59.6562 108.219 59.7314 108.281 59.8129 108.338C59.8944 108.394 59.9759 108.444 60.0574 108.488C60.1514 108.538 60.2454 108.576 60.3457 108.613C60.446 108.651 60.5463 108.676 60.6465 108.701C60.7468 108.72 60.8471 108.738 60.9537 108.745C61.0602 108.751 61.1731 108.751 61.2796 108.745C61.3799 108.738 61.4802 108.726 61.5805 108.707C61.6808 108.688 61.7748 108.663 61.8751 108.632C61.9628 108.601 62.0569 108.563 62.1384 108.526C62.2261 108.482 62.3139 108.432 62.4017 108.375C62.4769 108.325 62.5521 108.269 62.6211 108.213C62.7025 108.137 62.784 108.062 62.8592 107.981C62.9282 107.906 62.9908 107.825 63.0472 107.743C63.1037 107.662 63.1538 107.574 63.204 107.486C63.2478 107.393 63.2918 107.299 63.3294 107.205C63.3607 107.105 63.3858 107.005 63.4109 106.911C63.4297 106.804 63.4484 106.692 63.461 106.585C63.461 106.472 63.4672 106.366 63.461 106.253C63.4547 106.147 63.4359 106.047 63.4234 105.94V105.928Z" fill="#0D0C21"/>
        <path d="M53.8834 75.383C52.9495 73.9559 52.2788 72.3223 52.1158 70.6198C52.0093 69.5494 52.1033 68.4478 52.4794 67.4338C52.7614 66.6827 53.194 65.9817 53.7644 65.4184C53.8521 65.3307 53.9587 65.2806 54.0652 65.2556C54.1843 65.1304 54.316 65.0178 54.4539 64.9114C54.924 64.5421 55.4631 64.2729 56.0272 64.0789C57.9077 63.4467 60.02 63.7597 61.819 64.5045C63.5866 65.2431 65.16 66.3948 66.4449 67.8031C66.4449 67.8031 66.4575 67.8156 66.4638 67.8219C66.47 67.8344 66.4826 67.8407 66.4889 67.8532C66.6581 68.041 66.8336 68.2475 67.0028 68.4541C68.1374 69.8749 68.9961 71.5399 69.366 73.3237C69.7358 75.1076 69.5665 77.048 68.5448 78.594C67.849 79.6455 66.8023 80.3966 65.6113 80.7847C64.5332 81.1415 63.3736 81.1916 62.2516 81.0288C61.8316 80.9662 61.4116 80.8786 61.0104 80.7659C59.7066 80.3966 58.4718 79.777 57.3686 78.9946C55.9959 78.0182 54.8111 76.7914 53.8897 75.383H53.8834ZM59.8571 79.0509C60.2645 79.2387 60.6845 79.4014 61.1107 79.5329C61.4555 79.6393 61.8065 79.7207 62.1575 79.7895C62.5085 79.8458 62.8595 79.8834 63.2105 79.9022C63.4926 79.9084 63.7685 79.9022 64.0505 79.8771C64.2887 79.8521 64.5269 79.8146 64.7588 79.7645C64.972 79.7144 65.1851 79.6518 65.3919 79.5767C65.5862 79.5078 65.768 79.4265 65.9497 79.3326C66.1127 79.245 66.2694 79.1511 66.4199 79.0509C66.564 78.9508 66.7019 78.8381 66.8336 78.7192C66.9652 78.6003 67.0905 78.4688 67.2034 78.3374C67.3225 78.1934 67.4416 78.0432 67.5419 77.8805C67.6422 77.7177 67.7424 77.5487 67.8239 77.3735C67.9117 77.1794 67.9932 76.9791 68.0621 76.7726C68.1311 76.5472 68.1875 76.3156 68.2314 76.0841C68.2752 75.8274 68.3003 75.5645 68.3129 75.3017C68.3191 75.0012 68.3129 74.7008 68.2878 74.4003C68.2565 74.0561 68.2001 73.7181 68.1249 73.3801C68.0371 73.0108 67.9305 72.6415 67.7989 72.2847C67.6485 71.8779 67.4729 71.4835 67.2786 71.1017C67.0529 70.6761 66.8022 70.2567 66.5327 69.8624C66.2318 69.4305 65.9059 69.0237 65.5548 68.6293C65.185 68.2287 64.7964 67.8469 64.3827 67.4902C63.9815 67.1522 63.5615 66.8392 63.1228 66.5513C62.6965 66.2759 62.2578 66.0318 61.8002 65.8127C61.3865 65.6187 60.954 65.4496 60.5215 65.3119C60.1454 65.1993 59.7693 65.1054 59.3869 65.0365C59.0673 64.9865 58.7476 64.9489 58.4216 64.9364C58.1207 64.9239 57.8199 64.9364 57.5253 64.9614C57.2808 64.9865 57.0364 65.024 56.7982 65.0804C56.5788 65.1304 56.3595 65.1993 56.1463 65.2744C55.9458 65.3495 55.7514 65.4371 55.5634 65.531C55.3628 65.6374 55.1684 65.7501 54.9804 65.8815C54.9114 65.9253 54.8488 65.9754 54.7798 66.0255C54.7548 66.1131 54.7046 66.2007 54.6357 66.2696C54.5542 66.351 54.479 66.4323 54.4038 66.5137C54.2784 66.6577 54.1655 66.8142 54.059 66.9706C53.9524 67.1334 53.8584 67.3086 53.7707 67.4839C53.6766 67.6842 53.5951 67.8907 53.5325 68.1036C53.4635 68.3289 53.4134 68.5542 53.3695 68.7858C53.3256 69.0362 53.3005 69.2928 53.288 69.5494C53.2817 69.8499 53.288 70.1566 53.3131 70.457C53.3507 70.795 53.4009 71.1268 53.4761 71.4585C53.5638 71.8278 53.6704 72.1908 53.7958 72.5476C53.9525 72.9732 54.1342 73.3801 54.3411 73.7807C54.5667 74.2063 54.8112 74.6131 55.0807 75.0075C55.3753 75.4331 55.7013 75.84 56.046 76.2218C56.4158 76.6286 56.8107 77.0041 57.2244 77.3609C57.6381 77.7114 58.0769 78.0369 58.5345 78.3311C58.9607 78.6003 59.3995 78.8444 59.8508 79.0572L59.8571 79.0509Z" fill="#0D0C21"/>
        <path d="M77.2513 73.7432C77.3704 73.618 77.502 73.5054 77.6399 73.399C78.11 73.0297 78.6491 72.7605 79.2132 72.5665C81.0937 71.9343 83.2061 72.2473 85.005 72.9921C86.7727 73.7307 88.346 74.8824 89.631 76.2907C89.631 76.2907 89.6435 76.3032 89.6498 76.3095C89.6623 76.322 89.6686 76.3283 89.6749 76.3408C89.8441 76.5286 90.0196 76.7351 90.1889 76.9417C91.3234 78.3625 92.1822 80.0275 92.552 81.8113C92.9218 83.5952 92.7525 85.5356 91.7308 87.0816C91.035 88.1331 89.9883 88.8842 88.7973 89.2723C87.7192 89.6291 86.5596 89.6792 85.4376 89.5164C85.0176 89.4538 84.5977 89.3662 84.1965 89.2535C82.8927 88.8842 81.6578 88.2646 80.5546 87.4822C79.1819 86.5058 77.9972 85.279 77.0758 83.8706C76.1418 82.4435 75.4711 80.8099 75.3082 79.1074C75.2016 78.037 75.2956 76.9354 75.6717 75.9214C75.9537 75.1703 76.3863 74.4693 76.9567 73.906C77.0444 73.8183 77.151 73.7682 77.2576 73.7432H77.2513ZM76.5555 77.2797C76.5179 77.53 76.4866 77.7867 76.4803 78.0433C76.474 78.3437 76.4803 78.6504 76.5054 78.9509C76.5367 79.2889 76.5932 79.6206 76.6684 79.9524C76.7561 80.3216 76.8627 80.6847 76.9881 81.0415C77.1448 81.4671 77.3265 81.8802 77.5334 82.2808C77.759 82.7064 78.0035 83.1133 78.2793 83.5076C78.5739 83.9332 78.8998 84.3401 79.2446 84.7219C79.6144 85.1287 80.0093 85.5043 80.423 85.8611C80.8367 86.2116 81.2755 86.537 81.7331 86.8312C82.1593 87.1004 82.5981 87.3445 83.0494 87.5573C83.4568 87.7451 83.8768 87.9078 84.303 88.0392C84.6478 88.1457 84.9988 88.227 85.3498 88.2959C85.7008 88.3522 86.0518 88.3898 86.4028 88.4086C86.6849 88.4148 86.9608 88.4086 87.2428 88.3835C87.481 88.3585 87.7192 88.3209 87.9511 88.2709C88.1643 88.2208 88.3774 88.1582 88.5842 88.0831C88.7786 88.0142 88.9603 87.9329 89.142 87.839C89.305 87.7513 89.4617 87.6574 89.6122 87.5573C89.7563 87.4571 89.8943 87.3445 90.0322 87.2256C90.1638 87.1066 90.2891 86.9752 90.402 86.8438C90.5211 86.6998 90.6402 86.5496 90.7405 86.3868C90.847 86.2241 90.941 86.0551 91.0225 85.8798C91.1103 85.6858 91.1918 85.4855 91.2607 85.279C91.3297 85.0536 91.3861 84.822 91.43 84.5904C91.4738 84.3338 91.4989 84.0709 91.5114 83.808C91.5177 83.5076 91.5114 83.2071 91.4863 82.9067C91.455 82.5624 91.3987 82.2244 91.3234 81.8864C91.2357 81.5172 91.1291 81.1479 90.9975 80.7911C90.847 80.3842 90.6715 79.9899 90.4772 79.6081C90.2515 79.1825 90.0008 78.7631 89.7313 78.3688C89.4304 77.9369 89.1044 77.53 88.7534 77.1357C88.3836 76.7351 87.995 76.3533 87.5813 75.9965C87.1801 75.6585 86.7601 75.3456 86.3214 75.0576C85.8951 74.7822 85.4563 74.5381 84.9988 74.3191C84.5851 74.125 84.1526 73.956 83.7201 73.8183C83.344 73.7057 82.9679 73.6118 82.5855 73.5429C82.5291 73.5367 82.4727 73.5241 82.4163 73.5179C82.153 73.4803 81.8897 73.4553 81.6202 73.4428C81.3193 73.4303 81.0248 73.4428 80.7239 73.4678C80.4794 73.4928 80.2349 73.5304 79.9968 73.5805C79.7774 73.6306 79.558 73.6994 79.3448 73.7745C79.1443 73.8496 78.95 73.9373 78.7557 74.0311C78.5551 74.1375 78.3607 74.2502 78.1727 74.3817C78.1037 74.4317 78.0411 74.4755 77.9721 74.5256C77.9471 74.6132 77.8969 74.7009 77.828 74.7697C77.7465 74.8511 77.6713 74.9325 77.5961 75.0138C77.4707 75.1578 77.3578 75.3143 77.2513 75.4708C77.1447 75.6335 77.0507 75.8088 76.9692 75.984C76.8752 76.1843 76.7937 76.3909 76.731 76.6037C76.6621 76.829 76.6119 77.0543 76.5681 77.2859L76.5555 77.2797Z" fill="#0D0C21"/>
        <path d="M79.9655 78.2311C82.2284 79.2639 84.4535 80.378 86.6286 81.5798C87.0485 81.8114 87.4623 82.043 87.8697 82.2871C88.2521 82.5562 88.8726 82.7315 88.929 83.2635C88.9353 83.5639 88.6908 83.8143 88.39 83.8143C88.0452 83.7893 87.7694 83.5389 87.4686 83.3949C86.4844 82.8441 85.4941 82.3184 84.4912 81.7926C82.8175 80.9226 81.1189 80.0838 79.4014 79.3077C79.1005 79.17 78.9939 78.7694 79.1444 78.4877C79.2885 78.1935 79.6709 78.0809 79.9655 78.2311Z" fill="#0D0C21"/>
        <path d="M55.6381 70.3128C55.7133 70.1689 55.8449 70.0562 56.0016 70.0124C56.1583 69.9686 56.3089 69.9874 56.4593 70.0562C56.6912 70.1626 56.9231 70.2628 57.1551 70.3692C57.7192 70.6133 58.3522 70.8887 58.9916 71.1704C59.1671 71.2455 59.3364 71.3206 59.5119 71.3957C59.5997 71.4332 59.6811 71.4708 59.7688 71.5084C59.7876 71.5146 59.8127 71.5271 59.8315 71.5334C59.8629 71.5459 59.8879 71.5584 59.9193 71.5709C60.358 71.765 60.7906 71.9528 61.2294 72.1468C61.2858 72.1718 61.3422 72.1969 61.3924 72.2219C61.4112 72.2282 61.43 72.2407 61.4488 72.2469C62.2824 72.6162 63.1224 72.9855 63.9498 73.3736C64.3321 73.5551 64.7207 73.7429 65.0905 73.9495C65.4416 74.1435 65.9368 74.3938 65.8428 74.8758C65.8052 75.0573 65.661 75.2076 65.4854 75.2576C65.4353 75.2701 65.3852 75.2827 65.335 75.2827C65.1282 75.2827 64.9339 75.1575 64.7521 75.0699C63.9498 74.6693 63.1349 74.3062 62.3138 73.9495C61.8374 73.7429 61.361 73.5301 60.8909 73.3235C60.8909 73.3235 60.8783 73.3235 60.8721 73.3173C60.6213 73.2109 60.3706 73.0982 60.1199 72.9855L60.0948 72.973C60.0948 72.973 60.0509 72.9542 60.0321 72.948C60.0259 72.948 60.0133 72.9417 60.007 72.9355C59.9945 72.9292 59.9757 72.9229 59.9632 72.9167L59.9255 72.8979C59.8879 72.8791 59.8504 72.8666 59.8128 72.8478C59.8002 72.8478 59.7752 72.8291 59.7438 72.8165C58.4839 72.2657 57.1864 71.7212 55.9077 71.1391C55.6068 71.0013 55.5002 70.6008 55.6507 70.3191L55.6381 70.3128Z" fill="#0D0C21"/>
        <path d="M50.5675 84.0646C49.0944 82.5749 47.6339 81.0289 46.5683 79.2075C45.6344 77.5926 45.0953 75.5396 46.0668 73.8058C46.4053 73.2111 46.819 72.6603 47.2202 72.1095C48.1729 70.8076 49.1634 69.5495 50.1725 68.3102C50.3105 67.6091 50.5361 66.9081 50.8495 66.2071C52.0279 63.6283 54.3472 62.2012 56.8983 61.2873C56.8106 61.1997 56.7228 61.1121 56.635 61.0245C56.8795 60.7678 57.1177 60.5112 57.3559 60.2546C57.3559 60.2483 57.3559 60.242 57.3622 60.2295C57.3622 60.217 57.3684 60.2045 57.3747 60.1857C57.3998 60.1043 57.4186 60.0167 57.4374 59.9291C57.4374 59.9041 57.4499 59.8728 57.4562 59.8477C57.4687 59.7851 57.4812 59.7163 57.4875 59.6537C57.4875 59.6287 57.4938 59.6036 57.5 59.5786C57.5126 59.491 57.5189 59.4033 57.5189 59.322C57.5189 59.2969 57.5189 59.2781 57.5189 59.2531C57.5189 59.1842 57.5189 59.1154 57.5189 59.0465C57.5189 59.0152 57.5189 58.9902 57.5189 58.9589C57.5126 58.8838 57.5 58.8024 57.4875 58.7273C57.4875 58.7148 57.4875 58.7085 57.4875 58.696C58.0516 57.1563 59.0044 55.7792 60.396 54.8716C61.1356 54.3959 61.9443 54.0267 62.803 53.8389C63.5238 53.6824 64.2572 53.6198 64.9843 53.5071C65.3667 53.432 65.7992 53.3945 66.075 53.0878C67.9116 50.6154 69.5726 50.678 72.3933 51.21C72.6252 51.21 72.8384 51.1912 73.0578 51.1599C73.321 51.1286 73.5968 51.0973 73.9102 51.1224C74.443 51.1474 74.9696 51.2476 75.4836 51.3853C75.9161 51.4478 77.7714 52.1864 78.7367 52.9438C78.8934 52.9438 79.0564 53.0127 79.2006 53.1629C79.7647 53.6636 81.3067 55.8105 82.2845 57.7509C85.5565 58.3705 88.6029 59.7914 90.778 62.3639C91.7245 62.0322 92.6772 61.7067 93.63 61.4C93.4795 61.0745 93.4044 60.6614 93.2853 60.3923C93.1724 59.8728 92.7023 58.9777 92.7524 58.3393C91.6492 55.4475 90.2514 50.897 92.6145 48.3746C94.8272 46.1776 98.0177 49.4637 99.4469 51.1787C99.9797 51.7859 100.487 52.4118 100.983 53.0502C102.644 51.0535 104.223 48.9755 102.675 46.4843C101.722 45.1761 100.274 44.2623 98.9517 43.2608C97.0524 41.8525 95.2848 40.15 94.2317 38.0657C89.3676 28.8271 99.378 22.5553 105.489 17.8985C106.718 16.8845 107.715 15.6577 108.379 14.2181C108.956 13.1415 109.369 11.8396 110.504 11.2387C113.726 10.5314 112.949 15.739 112.316 17.3101C110.09 22.9246 103.208 26.8867 108.674 33.703C112.886 38.3974 115.995 41.1202 114.152 46.816C114.102 46.8786 114.077 46.9537 114.046 47.0288C114.02 47.0914 113.995 47.1603 113.97 47.2229C113.92 47.3543 113.876 47.4858 113.826 47.6235C113.782 47.7487 113.726 47.8676 113.676 47.9928C113.651 48.0616 113.626 48.1305 113.6 48.2056C113.588 48.2431 113.575 48.287 113.563 48.3245C113.563 48.3245 113.563 48.337 113.557 48.3433C113.557 48.3433 113.55 48.3621 113.544 48.3683C113.494 48.4873 113.438 48.6124 113.387 48.7314C112.29 51.066 110.723 53.2568 110.347 55.8418C110.216 56.4865 110.285 57.0311 110.448 57.5068C114.754 57.0185 119.098 57.0186 123.36 57.7759C125.805 56.5429 128.08 55.1283 127.654 52.055C127.278 50.2962 126.218 48.7188 125.322 47.1102C124.031 44.8256 122.997 42.3031 122.871 39.7118C122.1 28.1448 135.094 26.2733 143.4 24.2954C145.104 23.8197 146.672 23.0185 147.994 21.8543C149.066 21.0218 150.069 19.8826 151.492 19.7825C155.083 20.5148 151.943 25.4533 150.595 26.7615C145.8 31.4622 137.025 32.3948 139.507 41.7711C139.908 43.0042 140.297 44.1496 140.642 45.2262C140.704 45.3138 140.736 45.4202 140.736 45.5266C142.184 50.1397 142.697 53.5948 139.156 57.5443C139.081 57.5882 139.012 57.6507 138.949 57.7133C138.893 57.7697 138.843 57.826 138.786 57.8761C138.742 57.9261 138.698 57.97 138.648 58.02C138.586 58.0889 138.523 58.1515 138.46 58.2203C138.435 58.2516 138.404 58.2767 138.372 58.3017C138.297 58.3768 138.216 58.4457 138.141 58.5208C138.078 58.5771 138.021 58.646 137.965 58.7085C137.934 58.7398 137.902 58.7774 137.871 58.8087C137.871 58.8087 137.858 58.8212 137.852 58.8275C137.852 58.8275 137.84 58.84 137.833 58.8462C137.727 58.9464 137.614 59.0465 137.514 59.1467C136.699 59.8477 135.834 60.4987 134.981 61.1747C135.157 61.256 135.332 61.3312 135.508 61.4063C137.294 62.0823 139.062 62.8146 140.804 63.5907C142.666 62.9085 144.578 62.4203 146.565 62.3451C147.787 62.4265 148.621 63.2715 149.091 64.3105C150.564 63.6658 152.043 63.0399 153.535 62.4453C154.168 62.2074 154.789 61.9133 155.441 61.7255L155.453 61.7004C155.497 61.6879 155.547 61.6817 155.591 61.6692C158.638 60.893 161.22 63.115 162.844 65.4497C164.931 68.3728 166.184 71.784 167.263 75.1828C167.451 76.203 169.594 82.0679 168.466 82.5624C169.67 83.8581 170.829 85.1975 171.964 86.5558C173.073 87.8452 174.133 89.1721 175.142 90.5366C175.537 90.424 175.975 90.3677 176.276 90.2863C178.301 89.8732 180.376 89.6478 182.444 89.5915C183.535 89.5665 184.657 89.5539 185.716 89.8481C186.776 90.1861 187.76 90.7682 188.606 91.488C189.427 92.2141 190.06 93.1154 190.624 94.0543C191.721 95.9258 192.36 98.0414 192.53 100.201C192.743 102.329 192.73 104.476 192.48 106.604C191.915 111.524 190.906 116.425 189.057 121.032C190.787 126.659 192.241 132.367 193.482 138.138C194.529 137.675 195.582 137.218 196.698 136.961C198.234 136.567 200.045 136.686 201.268 137.794C202.045 138.482 202.722 139.302 203.092 140.285C204.383 143.602 204.521 147.233 204.22 150.744C204.001 153.285 203.43 155.789 202.753 158.243C201.681 162.098 200.252 165.86 198.485 169.453C198.955 173.465 199.387 177.477 199.788 181.477C199.857 182.234 199.932 182.985 200.008 183.743C200.478 183.423 200.91 183.148 201.086 182.979C210.419 175.925 210.745 187.567 209.629 194.114C208.708 200.142 206.502 205.888 203.725 211.296C203.681 211.383 203.631 211.446 203.568 211.496C203.518 211.709 203.43 211.922 203.367 212.128C203.336 212.209 203.305 212.291 203.273 212.372C203.618 215.352 203.95 218.325 204.251 221.304C204.345 222.281 204.439 223.257 204.527 224.24C205.474 223.407 206.483 222.637 207.63 222.105C212.155 220.159 211.171 226.775 210.363 229.216C209.542 232.001 208.018 234.505 206.527 236.977C206.395 237.165 206.219 237.24 206.05 237.24C205.624 237.24 205.223 236.758 205.53 236.289C206.326 234.981 207.091 233.66 207.805 232.308C209.003 229.942 210.469 225.873 209.554 223.257C208.852 222.168 206 224.49 204.652 225.717C204.778 227.244 204.891 228.778 204.978 230.311C205.016 230.637 204.765 230.95 204.446 230.981C204.427 230.981 204.408 230.981 204.383 230.981C204.088 230.981 203.794 230.749 203.775 230.443C203.762 230.223 203.75 229.998 203.737 229.779C203.342 223.539 202.64 217.317 201.913 211.108C198.81 187.673 197.626 164.014 192.755 140.829C191.445 134.276 189.853 127.779 187.872 121.395C187.816 121.307 187.778 121.207 187.778 121.094C187.684 120.787 187.59 120.481 187.49 120.18C185.121 112.901 182.595 105.609 178.965 98.8426C177.643 96.364 176.126 94.0105 174.477 91.7509C174.458 91.7447 174.446 91.7384 174.427 91.7259C174.327 91.6508 174.264 91.5381 174.233 91.4254C172.81 89.4976 171.287 87.6386 169.707 85.8297C164.711 79.9085 158.625 74.9575 152 70.914C151.097 70.3507 150.182 69.8124 149.26 69.2866C148.991 70.2943 148.577 71.2645 148.076 72.1596C145.976 76.0403 141.695 78.0996 137.501 78.8757C137.181 78.9383 136.862 78.6754 136.818 78.3562C136.749 77.868 137.219 77.6489 137.633 77.6176C138.46 77.4486 139.269 77.2233 140.065 76.9479C141.738 76.3595 143.387 75.5896 144.716 74.3941C146.903 72.4475 148.439 69.562 148.358 66.5952C148.251 65.3746 147.831 63.6846 146.358 63.5907C143.907 63.7409 141.594 64.5922 139.319 65.506C137.771 66.157 136.298 66.9832 134.712 67.5528C134.116 67.8032 133.584 67.0771 134.104 66.6452C135.765 65.8566 137.445 65.0053 139.175 64.273C138.341 63.9162 137.507 63.572 136.667 63.234C136.58 63.2027 136.492 63.1776 136.41 63.1526C135.683 62.9022 134.981 62.5705 134.279 62.2575C134.148 62.2012 134.01 62.1574 133.891 62.0885C132.863 62.9585 131.91 63.9037 131.183 65.0554C129.459 67.4902 131.835 69.6246 130.011 71.0893C128.726 72.1158 127.848 70.9954 128.757 70.5385C130.725 70.1128 128.782 67.8032 129.666 65.8065C129.973 64.8551 130.512 64.0226 131.151 63.2652C131.051 63.2652 130.957 63.2715 130.857 63.2715C128.23 63.2715 125.103 62.2763 123.222 60.5175C122.996 60.2546 122.57 59.9041 122.357 59.5348C118.872 61.2498 115.425 64.5859 118.477 68.523C120.42 70.7262 124.382 71.2833 127.008 70.6198C127.334 70.4571 127.804 70.5322 127.892 70.9265C127.936 71.7152 126.732 71.7277 126.131 71.8529C125.761 71.8779 125.385 71.8967 125.002 71.8967C122.683 71.8967 120.157 71.3584 118.339 69.8499C118.176 69.7185 118.026 69.5745 117.875 69.4243C115.005 66.3323 116.108 62.2951 119.192 60.1732C119.192 60.1607 119.192 60.1482 119.192 60.1356C119.286 59.9604 119.373 59.7851 119.467 59.6099C119.449 59.6599 119.436 59.71 119.417 59.7601C119.399 59.8164 119.38 59.8728 119.361 59.9291C119.348 59.9479 119.342 59.9729 119.33 59.9917C119.311 60.0292 119.292 60.073 119.273 60.1106C119.355 60.0543 119.436 60.0042 119.518 59.9541C120.076 59.5097 120.74 59.1279 121.442 58.7586C120.828 58.671 120.213 58.5959 119.599 58.5333C116.728 58.2954 113.845 58.3893 110.987 58.7023C111.519 59.5598 112.065 60.2796 111.551 61.2811C110.868 62.5955 109.739 61.9946 110.316 61.2811C111.783 60.217 109.338 59.0215 109.332 57.0561C109.326 56.9873 109.319 56.9247 109.319 56.8558C108.392 57.4066 106.812 57.7822 106.248 57.851C105.828 57.9199 105.295 57.9512 104.718 57.9512C102.926 57.9512 100.644 57.6257 99.472 56.9122C98.6822 58.5145 98.3876 60.2358 99.2338 61.6629C100.619 60.3109 102.167 60.6489 103.615 61.5127C103.64 61.4939 103.672 61.4751 103.697 61.4501C104.424 60.7866 105.345 60.2608 106.367 60.4987C110.103 61.6253 112.472 65.2369 114.177 68.5355C116.622 72.7042 120.665 75.6022 124.325 78.6379C127.961 81.5046 131.49 84.4902 135.075 87.4258C136.216 88.3584 137.338 89.3161 138.46 90.2738C138.529 90.3363 138.598 90.3927 138.673 90.4553C138.868 90.5679 139.049 90.7244 139.206 90.8433C140.485 91.8448 141.682 92.9527 142.911 94.023C145.437 96.2263 147.925 98.4796 150.357 100.789C153.623 103.863 156.857 106.973 160.023 110.147C162.304 112.594 165.276 114.854 166.134 118.234C166.981 123.397 161.157 127.522 157.578 130.333C154.287 132.768 151.053 135.096 147.461 137.143C147.355 137.205 147.248 137.23 147.148 137.23C146.615 137.23 146.277 136.423 146.847 136.097C148.408 135.202 149.931 134.251 151.417 133.243C152.664 132.392 153.955 131.484 155.24 130.552C158.769 127.81 164.329 124.349 165.025 119.623C165.169 117.439 163.583 115.686 162.229 114.153C157.923 109.608 153.353 105.302 148.809 101.002C146.371 98.6924 143.857 96.4641 141.331 94.2546C140.541 93.5598 139.758 92.8525 138.955 92.1703C138.886 92.0952 138.786 92.0138 138.673 91.9262C138.14 91.7509 137.783 91.1939 137.319 90.8809C133.747 87.8952 130.149 84.9409 126.557 81.9866C123.805 79.7708 120.997 77.6301 118.383 75.2516C115.857 73.0734 113.669 70.5322 112.253 67.4965C110.911 65.3058 109.238 63.1338 106.887 61.9633C106.016 61.4814 105.333 61.6629 104.643 62.22C105.483 62.8584 106.267 63.5845 106.931 64.1415C107.621 64.7737 108.291 65.4372 108.931 66.1194C109.319 66.7016 110.761 67.5403 109.996 68.2664C109.871 68.3602 109.752 68.3978 109.639 68.3978C109.25 68.3978 108.937 67.9158 108.674 67.6279C108.279 67.1898 107.871 66.7579 107.458 66.3385C105.822 64.7424 104.142 63.0775 102.048 62.076C100.82 61.6128 99.9421 62.5955 99.1335 63.4655C101.503 64.0852 103.59 65.8065 105.395 67.3838C106.11 68.041 106.793 68.7358 107.407 69.4869C107.614 69.7435 107.558 70.1379 107.307 70.3382C107.182 70.432 107.063 70.4696 106.95 70.4696C106.542 70.4696 106.229 69.9438 105.947 69.6497C105.345 68.9799 104.637 68.3102 103.897 67.6655C101.954 66.1007 99.685 64.3043 97.0524 64.442C96.0871 64.6298 95.4039 65.3809 94.7833 66.0882C94.5201 66.4074 94.2631 66.7329 94.0061 67.0583C95.7925 67.1397 97.8924 67.6968 99.3027 68.3289C100.688 68.9424 101.54 70.2505 102.405 71.4335C103.778 73.3301 104.675 75.5834 105.007 77.9056C105.007 77.9369 105.007 77.9619 105.007 77.9932C105.007 78.0307 105.019 78.062 105.026 78.0996C105.026 78.1246 105.026 78.1559 105.026 78.1809C105.019 78.2936 105.013 78.4 105.007 78.5064C104.994 78.713 104.982 78.9258 104.969 79.1324C104.957 79.3452 104.95 79.5642 104.919 79.7771C104.894 79.9899 104.863 80.2027 104.819 80.4092C104.819 80.428 104.812 80.4468 104.806 80.4593V80.4844C104.8 80.5156 104.794 80.5469 104.781 80.5782C104.775 80.6158 104.762 80.6471 104.756 80.6846C104.756 80.6846 104.756 80.6784 104.756 80.6721C104.756 80.6721 104.756 80.6784 104.756 80.6846C104.756 80.6846 104.756 80.7034 104.756 80.7097C104.756 80.7097 104.756 80.6972 104.756 80.6909C104.756 80.6909 104.756 80.7034 104.756 80.7097C104.756 80.7097 104.756 80.7097 104.756 80.7034C104.756 80.7034 104.756 80.7097 104.756 80.7159C104.744 80.7723 104.731 80.8286 104.718 80.8849C104.706 80.9475 104.687 81.0164 104.675 81.079C104.675 81.0727 104.675 81.0664 104.675 81.0602C104.675 81.0664 104.675 81.079 104.668 81.0852C104.668 81.0852 104.668 81.104 104.662 81.1103C104.662 81.1103 104.662 81.104 104.662 81.0977C104.662 81.1103 104.662 81.1228 104.656 81.1353C104.656 81.1353 104.656 81.1353 104.656 81.1416C104.643 81.1854 104.631 81.2355 104.612 81.2793C104.599 81.3231 104.587 81.3669 104.574 81.417C104.562 81.4608 104.543 81.4983 104.53 81.5422C104.518 81.586 104.505 81.6298 104.487 81.6736C104.48 81.6986 104.468 81.7237 104.461 81.7424C104.38 81.949 104.273 82.1493 104.167 82.3433C104.167 82.3371 104.179 82.3246 104.179 82.3183C104.161 82.3496 104.142 82.3809 104.129 82.4122C104.123 82.4247 104.11 82.4435 104.104 82.456C103.866 82.8503 103.59 83.2196 103.346 83.6077C103.327 83.6327 103.314 83.664 103.302 83.6953C103.045 84.0145 102.788 84.315 102.531 84.5966C102.612 84.6467 102.688 84.6905 102.775 84.7343C102.65 84.822 102.525 84.9096 102.399 85.0035C103.07 85.0223 103.734 84.9659 104.43 84.8783C105.634 84.7281 106.956 84.3338 108.103 83.8581C108.987 83.4888 109.84 83.0506 110.698 82.625C111.25 82.3621 111.814 82.0429 112.416 81.9052C112.247 81.7487 112.077 81.5922 111.908 81.4357C111.664 81.0539 112.015 80.5407 112.46 80.6033C114.183 81.586 115.5 83.2384 117.004 84.5403C122.106 89.41 127.09 94.3923 131.891 99.5624C135.865 103.856 139.845 108.144 143.669 112.575C147.706 116.4 142.083 120.249 138.742 121.851C138.636 121.914 138.535 121.945 138.435 121.945C137.902 121.945 137.551 121.125 138.128 120.806C140.385 119.561 143.418 118.115 143.926 115.336C143.086 113.089 140.93 111.524 139.482 109.646C131.365 100.589 122.984 91.7321 114.083 83.4449C113.795 83.495 113.494 83.2259 113.224 83.0694C112.898 82.9818 112.566 83.1132 112.265 83.2321C109.056 84.8032 106.367 86.2303 102.725 86.2303C102.587 86.2303 102.443 86.2303 102.299 86.224C101.841 86.1865 101.672 85.7859 101.76 85.4604C97.8861 88.058 94.1565 91.3628 89.4553 92.2266C89.0416 92.2767 88.6217 92.2955 88.1954 92.2955C81.9084 92.2955 74.7063 87.1692 73.1706 80.9976C71.1334 82.287 68.9897 83.3573 66.5952 83.8017C66.1815 83.8518 65.7553 83.8768 65.329 83.8768C64.7461 83.8768 64.1569 83.833 63.5614 83.7454C62.1072 83.5388 60.6404 83.0819 59.2364 82.4372C56.8544 84.9472 54.7107 87.6824 53.0685 90.7307C51.796 93.2218 50.743 95.882 50.0221 98.6173C50.2478 98.6736 50.4859 98.73 50.6865 98.8551C52.9932 100.326 52.7425 101.928 52.6172 102.648C52.5169 103.193 52.31 103.712 51.9715 104.15C51.6205 104.614 51.1629 104.983 50.6301 105.227C50.1725 105.44 49.671 105.546 49.1759 105.546C49.1132 105.546 49.0505 105.546 48.9879 105.54C48.9753 105.878 48.9753 106.21 48.9753 106.548C49.1445 110.516 50.5236 114.578 53.4822 117.339C55.3689 119.097 57.826 120.481 60.4774 120.312C63.7996 120.055 67.0779 118.935 70.2621 117.983C74.7251 116.562 79.1504 114.973 83.5319 113.32C90.8594 110.428 98.2246 107.631 105.646 104.983C110.297 103.318 114.936 101.572 119.718 100.314C120.295 100.207 121.605 99.7001 121.724 100.608C122.376 101.108 122.733 101.928 122.903 102.711C122.965 103.036 122.721 103.356 122.401 103.406C122.025 103.474 121.712 103.161 121.68 102.798C121.592 102.423 121.417 102.066 121.198 101.747C121.072 101.528 120.834 101.428 120.677 101.252C120.558 101.271 120.452 101.296 120.358 101.334C113.964 103.093 107.702 105.546 101.446 107.8C99.2776 108.563 97.1214 109.371 94.9714 110.191C94.9714 110.203 94.9714 110.216 94.9714 110.222C94.9589 110.347 94.9401 110.466 94.9275 110.585C94.8774 110.935 94.8335 111.286 94.7833 111.636C94.6768 112.413 94.564 113.182 94.4512 113.959C93.8494 118.165 93.2288 122.365 92.6145 126.571C91.9188 131.328 91.223 136.085 90.521 140.836C89.7939 145.787 89.0668 150.738 88.3397 155.689C87.6376 160.483 86.9356 165.278 86.2273 170.072C85.5252 174.867 84.8169 179.668 84.1149 184.462C83.4567 188.938 82.7986 193.413 82.1467 197.895C81.501 202.307 80.8491 206.72 80.2035 211.133C79.5829 215.345 78.9687 219.558 78.3481 223.764C78.0284 225.936 77.715 228.102 77.3953 230.267C77.3514 230.562 77.0819 230.781 76.7936 230.781C76.7623 230.781 76.7309 230.781 76.6996 230.774C76.3736 230.724 76.148 230.411 76.1919 230.08C76.2922 229.404 76.3924 228.721 76.4927 228.045C76.919 225.135 77.3452 222.218 77.7715 219.307C78.3983 215.026 79.0313 210.739 79.6581 206.457C80.3163 201.988 80.9682 197.519 81.6264 193.056C82.3347 188.243 83.0367 183.423 83.745 178.61C84.4345 173.916 85.124 169.215 85.8136 164.521C86.5219 159.682 87.2365 154.844 87.9448 150.005C88.6719 145.023 89.4053 140.047 90.1386 135.065C90.684 131.334 91.2356 127.597 91.7809 123.867C91.1415 123.235 90.5021 122.603 89.8565 121.977C88.4587 120.6 87.0609 119.223 85.6631 117.839C84.936 117.119 84.2089 116.4 83.4881 115.667C83.2373 115.411 82.9866 115.16 82.7358 114.904C80.0405 115.924 77.3264 116.907 74.5934 117.827C70.6006 119.166 66.589 120.525 62.4457 121.294C61.6621 121.432 60.8661 121.526 60.07 121.526C59.7503 121.526 59.437 121.513 59.1173 121.476C55.8202 121.107 52.9305 118.928 50.9811 116.343C48.5428 113.039 47.5524 108.795 47.7906 104.726C48.1792 99.2119 49.8967 93.804 52.6359 89.0094C52.9932 88.4085 53.3693 87.8201 53.7642 87.2443C52.6736 86.2428 51.6017 85.2101 50.5675 84.146V84.0646ZM200.697 160.884C201.876 157.197 202.904 153.423 203.104 149.53C203.286 146.663 203.06 143.746 202.108 141.023C201.75 139.978 201.054 139.089 200.171 138.432C199.274 137.863 198.127 137.856 197.118 138.082C195.965 138.326 194.836 138.826 193.746 139.283C195.683 148.484 197.087 157.823 198.227 167.156C199.149 165.121 199.995 162.987 200.697 160.884ZM203.023 209.994C203.518 209.011 204.001 208.016 204.452 207.014C205.499 204.617 206.439 202.113 207.185 199.603C208.464 195.885 211.742 177.69 203.317 182.966C202.22 183.617 201.167 184.318 200.164 185.107C201.011 193.413 202.051 201.7 203.023 209.994ZM180.802 99.6438C183.829 105.972 186.349 112.488 188.48 119.129C190.16 114.441 191.075 109.477 191.445 104.52C191.514 101.928 191.47 99.2495 190.58 96.7833C189.678 94.3172 188.104 91.9262 185.516 91.0374C184.469 90.7307 183.359 90.7682 182.281 90.7933C180.131 90.8621 178.038 91.1188 175.888 91.5569C177.718 94.1294 179.366 96.8271 180.802 99.6501V99.6438ZM165.025 79.1136C165.884 79.896 166.711 80.7159 167.52 81.5484C167.375 80.8098 167.369 79.8835 167.169 79.4578C166.184 75.3393 164.887 71.2207 162.768 67.5403C161.389 65.3496 159.452 62.5079 156.525 62.7583C156.231 62.8021 155.942 62.8521 155.66 62.9085C155.522 62.9585 155.384 63.0086 155.246 63.0649C153.303 63.8223 151.373 64.6297 149.467 65.4685C149.498 65.6124 149.517 65.7502 149.536 65.8941C149.636 66.5889 149.63 67.2962 149.536 67.9909C155.077 71.1393 160.355 74.7759 165.031 79.1198L165.025 79.1136ZM152.056 22.0108C152.213 19.1128 148.765 22.9184 147.975 23.3565C147.399 23.8072 146.778 24.1952 146.12 24.5145C146.396 24.7022 146.44 25.1842 146.646 25.4721C147.173 26.073 147.85 26.6301 148.627 26.8554C148.652 26.8554 148.677 26.8679 148.702 26.8679C150.238 25.6411 151.504 24.1326 152.056 22.0045V22.0108ZM147.543 27.7254C146.377 27.112 144.941 25.7413 145.261 24.8963C145.173 24.9338 145.086 24.9651 144.998 25.0027C143.212 25.5848 141.306 26.0229 139.388 26.4736C139.469 26.5424 139.532 26.6363 139.57 26.7615C139.858 27.932 140.479 29.0336 141.281 29.9349C141.657 30.298 142.064 30.636 142.541 30.8676C142.904 30.6047 143.293 30.348 143.713 30.0852C144.954 29.3153 146.295 28.5767 147.543 27.7317V27.7254ZM141.5 31.6562C139.946 30.7862 138.736 28.5141 138.391 27.0369C138.366 26.9055 138.391 26.7928 138.429 26.6927C135.84 27.3061 133.258 27.9883 130.932 29.1275C130.97 29.1713 131.001 29.2151 131.026 29.2715C131.164 29.6783 131.227 30.0539 131.408 30.5108C132.468 33.1897 134.718 35.1489 137.351 36.2693C137.627 36.3882 137.909 36.5009 138.191 36.6135C138.567 34.8735 139.57 33.2586 141.5 31.6562ZM138.034 37.7464C137.037 37.5336 135.483 36.6824 135.032 36.4132C132.568 34.9423 130.506 32.5075 129.923 29.6658C128.35 30.5671 126.92 31.7188 125.736 33.2648C124.67 34.6481 124.125 36.3381 123.999 38.1095C124.131 38.1408 124.256 38.2221 124.35 38.3661C124.689 38.8919 125.021 39.3112 125.491 39.7995C128.111 42.372 131.396 44.2811 135.107 44.7818C136.461 44.9696 137.984 45.1323 139.419 45.0509C138.523 42.2656 137.89 39.8934 138.046 37.7464H138.034ZM140.441 48.2056C140.215 47.5171 139.996 46.8536 139.783 46.2089C139.494 46.2464 139.187 46.2402 138.943 46.2652C138.786 46.2652 138.623 46.2652 138.466 46.2652C134.204 46.2652 129.929 45.0572 126.582 42.3532C125.654 41.6397 124.758 40.8635 124.012 39.9622C124.137 41.4143 124.507 42.8727 125.084 44.2185C125.999 46.4405 127.403 48.2682 128.262 50.4276C128.701 51.5042 128.857 52.4556 128.795 53.3006C128.945 53.3256 129.089 53.4007 129.208 53.4946C129.866 53.8076 130.531 53.9828 131.296 54.1706C134.066 54.8842 136.993 54.5587 139.701 53.7199C139.883 53.6824 140.121 53.5572 140.359 53.4884C140.917 51.9549 141.03 50.2148 140.447 48.1993L140.441 48.2056ZM124.187 59.6787C124.94 60.3923 125.886 60.8555 126.851 61.2122C128.412 61.7693 130.155 62.2012 131.866 61.9633C132.029 61.9446 132.211 61.9383 132.368 61.9696C132.687 61.6691 133.019 61.3812 133.345 61.0933C134.267 60.3923 135.22 59.6725 136.122 58.9088C136.16 58.8838 136.204 58.8525 136.241 58.8275C136.291 58.7899 136.335 58.7524 136.385 58.7148C136.448 58.6647 136.517 58.6209 136.58 58.5708C136.624 58.5395 136.667 58.502 136.711 58.4644C136.736 58.4456 136.755 58.4269 136.78 58.4018C136.787 58.3956 136.799 58.3893 136.805 58.3831C136.812 58.3831 136.818 58.3706 136.824 58.3643C136.862 58.333 136.899 58.3017 136.931 58.2704C136.975 58.2328 137.012 58.1953 137.056 58.1515C137.087 58.1202 137.119 58.0951 137.15 58.0638C137.156 58.0576 137.163 58.0513 137.169 58.0451C137.188 58.02 137.207 58.0012 137.232 57.9762C137.288 57.9136 137.338 57.8573 137.388 57.7947C137.42 57.7571 137.445 57.7196 137.476 57.682C138.316 56.8558 139.062 55.967 139.639 54.9968C138.278 55.4162 136.856 55.654 135.439 55.773C135.151 55.7917 134.862 55.8043 134.574 55.8043C132.938 55.8043 131.302 55.5038 129.735 55.0156C129.421 54.8967 128.901 54.7652 128.525 54.5399C127.798 56.5366 125.723 57.8573 123.517 58.9401C123.736 59.2093 123.937 59.5285 124.181 59.685L124.187 59.6787ZM87.5561 117.952C88.9602 119.323 90.358 120.694 91.7558 122.071C91.8373 122.146 91.9125 122.227 91.994 122.302C92.0504 121.933 92.1006 121.557 92.157 121.188C92.4578 119.154 92.7587 117.12 93.0596 115.085C93.2037 114.109 93.3479 113.139 93.4984 112.162C93.5736 111.649 93.6551 111.136 93.7303 110.622C93.7303 110.604 93.7303 110.591 93.7366 110.572C90.4458 111.837 87.1675 113.132 83.8767 114.384C85.1115 115.567 86.3338 116.756 87.5561 117.952ZM49.3138 104.251C49.4141 104.244 49.5144 104.232 49.6147 104.213C49.715 104.194 49.809 104.169 49.9093 104.138C49.997 104.107 50.0911 104.069 50.1725 104.032C50.2603 103.988 50.348 103.938 50.4358 103.888C50.511 103.837 50.5863 103.781 50.6552 103.725C50.7367 103.65 50.8182 103.575 50.8934 103.493C50.9624 103.418 51.025 103.337 51.0814 103.255C51.1378 103.174 51.188 103.086 51.2381 102.999C51.282 102.905 51.3259 102.811 51.3635 102.717C51.3949 102.617 51.4199 102.517 51.445 102.423C51.4638 102.316 51.4826 102.204 51.4951 102.097C51.4951 101.985 51.5014 101.878 51.4951 101.766C51.4889 101.659 51.4763 101.559 51.4575 101.453C51.4324 101.346 51.4073 101.24 51.376 101.14C51.3447 101.046 51.3071 100.952 51.2632 100.858C50.5361 99.8253 49.8089 99.7439 49.7275 99.7252C49.389 101.221 49.1571 102.736 49.0443 104.263C49.132 104.263 49.2198 104.263 49.3075 104.263L49.3138 104.251ZM72.6378 52.418C71.1271 52.3554 69.3846 51.6106 68.0682 52.6997C67.5041 53.1441 67.1656 53.8138 66.5827 54.2332C66.0185 54.6088 65.3228 54.6776 64.6709 54.7715C63.7558 54.8842 62.828 54.9968 61.9693 55.3849C61.4427 55.604 60.9789 55.8982 60.5589 56.2487C60.4398 56.2236 60.3145 56.2174 60.1954 56.2487C59.9259 56.305 59.6751 56.474 59.556 56.7306C59.4808 56.8934 59.4181 57.0624 59.3617 57.2314C59.2927 57.4442 59.2238 57.6507 59.1611 57.8635C59.1423 57.8823 59.1236 57.9074 59.1047 57.9261C59.0483 57.995 58.9919 58.0638 58.9418 58.139C58.9355 58.1515 58.9292 58.1577 58.9229 58.1703C58.8728 58.2454 58.8227 58.3267 58.7788 58.4081C58.7788 58.4144 58.7725 58.4269 58.7662 58.4331C58.7224 58.5145 58.6785 58.6021 58.6409 58.6898C58.6409 58.696 58.6409 58.7023 58.6346 58.7085C58.597 58.7962 58.5594 58.8901 58.528 58.9777C58.4967 59.0528 58.4779 59.1279 58.4528 59.203C58.4466 59.2343 58.434 59.2593 58.4277 59.2906C58.4277 59.3094 58.4153 59.3282 58.4153 59.347C58.4027 59.3908 58.3902 59.4409 58.3776 59.4847C58.3776 59.5035 58.3651 59.5285 58.3651 59.5473C58.3588 59.5786 58.3525 59.6099 58.3462 59.6412C58.3149 59.7726 58.2898 59.9041 58.2648 60.0418C58.2271 60.2421 58.1959 60.4423 58.1708 60.6426C58.1582 60.7177 58.1519 60.7866 58.1394 60.8554C58.1394 60.868 58.1394 60.8742 58.1394 60.8868C58.9417 60.6489 59.7503 60.4549 60.5401 60.2796C60.8598 60.2045 61.1858 60.1294 61.5054 60.0543C61.963 59.0841 62.8468 58.1202 64.0002 58.1828C65.0783 58.2579 65.9872 58.9276 66.94 59.3783C67.2722 59.5473 67.6107 59.7225 67.9429 59.8978C67.9429 59.8978 67.9554 59.8978 67.9617 59.8978C67.9743 59.904 67.9868 59.9103 67.9993 59.9166C67.9993 59.9166 67.993 59.9166 67.9867 59.9166C69.0774 60.4799 70.1681 61.0495 71.3215 61.4689C70.9328 60.7803 70.4815 60.1357 70.0176 59.4972C69.9487 59.5097 69.886 59.5222 69.8171 59.541C69.8171 59.4534 69.8046 59.3595 69.7732 59.2719C69.698 59.0716 69.5538 58.9088 69.4222 58.7461C69.4222 58.7461 69.4222 58.7398 69.4159 58.7336C69.4159 58.7336 69.4096 58.7273 69.4034 58.7211C69.3783 58.6898 69.3532 58.6522 69.3281 58.6209C69.3156 58.5959 69.2968 58.5708 69.2843 58.5458C69.2592 58.5082 69.2404 58.4707 69.2154 58.4394C69.2279 58.4394 69.2404 58.4394 69.2529 58.4331C68.9521 58.0138 68.6637 57.5882 68.3942 57.15C68.2187 56.7557 68.6637 56.3238 69.0461 56.5303C69.2341 56.6305 69.3783 56.787 69.5162 56.9434C69.8672 57.3378 70.1932 57.7509 70.5191 58.1703C70.6445 58.1452 70.7635 58.1202 70.8889 58.0951C70.9077 58.0951 70.9266 58.0951 70.9454 58.0951C71.1209 57.9199 71.3904 57.8573 71.6286 57.9637C71.6411 57.9637 71.6536 57.9637 71.6662 57.9574C71.6724 57.9699 71.685 57.9825 71.6975 57.995C73.0577 58.6021 74.3552 59.3658 75.7468 59.9041C74.7125 58.2767 73.5843 56.7682 72.1865 55.3786C71.5597 55.0469 71.8041 54.1268 72.5312 54.3208C73.3523 54.8529 74.0356 55.5602 74.6624 56.3238C74.8254 56.1423 75.0823 56.0421 75.3456 56.1798C75.6151 56.3175 75.8721 56.4928 76.1291 56.6555C78.0472 57.7884 79.8775 59.1029 81.9335 59.9729C81.175 57.9136 79.9778 55.9294 78.5926 54.1643C78.298 54.0454 78.041 53.7951 77.7527 53.6699C76.1981 52.8249 74.4681 52.0925 72.6629 52.4431L72.6378 52.418ZM63.2417 59.6662C63.5802 59.5911 63.9187 59.5222 64.2572 59.4471C63.8999 59.3658 63.5614 59.4096 63.2417 59.6662ZM95.3412 28.8333C95.5355 29.0586 95.6296 29.3904 95.8552 29.5969C97.9676 31.9379 101.785 32.038 104.518 30.805C104.9 30.6297 105.257 30.4044 105.602 30.1665C105.646 30.129 105.696 30.1039 105.746 30.0789C105.408 28.6017 105.558 27.0181 106.379 25.1654C105.446 25.0841 104.543 24.5207 103.772 24.045C103.365 23.7508 102.18 22.8057 101.835 22.0233C99.2839 23.9824 96.833 26.073 95.3412 28.8396V28.8333ZM111.783 12.8661C110.855 10.425 109.407 14.8127 108.918 15.4574C108.611 16.0395 108.235 16.584 107.815 17.091C107.834 17.1036 107.853 17.1223 107.871 17.1348C108.592 17.8985 109.758 18.2615 110.786 18.0487C110.799 18.0487 110.811 18.0487 110.824 18.0424C111.626 16.4839 112.102 14.8002 111.783 12.8661ZM110.097 19.2943C110.097 19.2943 110.078 19.2943 110.071 19.2943C109.344 19.2943 108.611 19.0752 107.972 18.731C107.677 18.562 107.226 18.2803 106.988 17.9548C105.684 19.119 104.223 20.2081 102.757 21.3097C102.832 21.4036 102.901 21.51 102.963 21.6164C103.358 22.186 103.885 22.6868 104.449 23.0874C105.189 23.5693 106.016 24.0388 106.919 24.0701C107.188 23.5818 107.502 23.0686 107.859 22.5365C108.58 21.4787 109.388 20.4147 110.097 19.2943ZM106.085 31.1617C105.847 31.362 105.558 31.5185 105.339 31.6625C104.311 32.2258 103.164 32.5763 101.992 32.7078C101.628 32.7516 101.252 32.7704 100.876 32.7704C98.5694 32.7704 96.0934 31.9817 94.752 30.1039C94.5452 30.6172 94.3696 31.1492 94.238 31.7126C93.4419 34.9861 95.1344 38.5601 97.7106 40.9699C98.0804 41.3204 98.4627 41.6459 98.8514 41.9526C98.914 41.9276 98.9893 41.9151 99.0645 41.9213C100.45 42.3532 101.929 42.5347 103.396 42.4847C106.386 42.4283 109.545 41.1014 111.018 38.3786C111.087 38.2597 111.143 38.1157 111.212 37.9905C108.887 35.4243 106.969 33.3587 106.091 31.1555L106.085 31.1617ZM112.021 38.9294C110.379 42.1592 106.593 43.7177 103.101 43.6989C103.051 43.6989 103.007 43.6989 102.957 43.6989C102.305 43.6989 101.647 43.6614 100.995 43.58C101.547 43.9994 102.086 44.4375 102.587 44.9258C103.879 46.1651 104.349 47.3919 104.317 48.5999C104.342 48.6124 104.367 48.6312 104.393 48.6437C106.781 49.8518 109.84 49.8455 112.121 48.3996C112.303 48.2995 112.485 48.1054 112.685 47.999C112.685 47.9865 112.698 47.974 112.704 47.9552C112.717 47.9239 112.729 47.8864 112.735 47.8551C112.761 47.7862 112.779 47.7174 112.798 47.6485C112.804 47.611 112.817 47.5672 112.823 47.5296C113.926 44.7192 114.246 41.7899 112.027 38.942L112.021 38.9294ZM100.563 56.0922C102.443 56.668 104.461 56.9122 106.411 56.618C107.451 56.449 108.423 56.0797 109.376 55.6415C109.545 54.3208 110.097 53.0439 110.667 51.8359C111.031 51.185 111.394 50.5215 111.745 49.8455C111.262 50.0771 110.755 50.2523 110.297 50.3775C109.545 50.5653 108.768 50.6592 107.99 50.6592C106.655 50.6592 105.326 50.3775 104.117 49.8017C103.684 51.2789 102.606 52.6997 101.465 54.0266C101.34 54.2082 101.215 54.3897 101.095 54.5712C101.045 54.6338 100.989 54.7026 100.939 54.7715C100.907 54.809 100.876 54.8529 100.845 54.8904C100.826 54.8654 100.807 54.8404 100.795 54.8216C100.544 55.1471 100.299 55.485 100.074 55.8293C100.23 55.9232 100.387 56.0421 100.563 56.0859V56.0922ZM98.8702 55.8919C99.2024 55.2597 99.6726 54.6275 100.18 54.0016C99.4156 52.9939 98.6007 52.0237 97.7482 51.0911C96.9271 50.2336 95.2096 48.5749 93.9308 48.9066C92.0441 49.9769 92.4954 52.8687 92.8465 54.6588C93.1035 55.7917 93.467 56.8934 93.8933 57.9637C93.9497 58.1139 93.9559 58.2516 93.9246 58.3705C94.0499 58.7461 94.1189 59.203 94.2317 59.4659C94.2881 59.8602 94.6705 60.4987 94.777 61.0307C95.7611 60.724 96.7516 60.4236 97.742 60.1419C97.5853 58.8275 97.9112 57.4317 98.6759 56.1923C98.6759 56.1798 98.6696 56.1673 98.6634 56.161C98.6759 55.9858 98.6884 55.8043 98.7009 55.629C98.7009 55.6791 98.7135 55.7229 98.7135 55.773C98.7135 55.8293 98.726 55.8794 98.7323 55.9357C98.7323 55.9545 98.7323 55.9795 98.7323 55.9983C98.7323 56.0359 98.7323 56.0734 98.7323 56.1172C98.7762 56.0421 98.8263 55.9733 98.8765 55.8982L98.8702 55.8919ZM96.9647 63.1714C97.2217 63.1588 97.4724 63.1588 97.7231 63.1714C97.7231 63.1714 97.7294 63.1651 97.7357 63.1588C97.999 62.8709 98.2622 62.5767 98.538 62.2951C98.3311 61.9821 98.1619 61.6504 98.0365 61.3124C95.8489 61.932 93.6864 62.6268 91.5427 63.3717C91.6931 63.5907 91.8373 63.8161 91.9689 64.0476C92.4014 64.805 92.7462 65.625 92.8778 66.495V66.5075C92.8966 66.4825 92.9154 66.4574 92.9342 66.4324C93.9935 65.0742 95.1469 63.4593 96.9647 63.1651V63.1714ZM74.9445 82.3308C76.3925 85.4542 79.0313 87.889 82.109 89.3912C85.2243 91.1 89.0542 91.6821 92.3011 89.9983C95.523 88.3835 98.4565 86.2866 101.384 84.1773C101.434 83.9582 101.616 83.7579 101.797 83.5764C102.575 82.6751 103.289 81.6799 103.885 80.6221C103.929 80.3466 103.985 80.0838 103.973 79.9148C104.016 79.1324 103.929 78.3437 103.785 77.5738C103.515 76.3157 103.133 75.0764 102.568 73.9184C101.81 72.4851 100.895 71.1519 99.7603 69.9501C98.6446 69.0488 97.1778 68.7546 95.8113 68.4479C94.9651 68.2851 94.1064 68.1412 93.2414 68.1912C92.9405 68.2038 92.602 68.3164 92.3388 68.1161C92.3262 68.1099 92.3199 68.0974 92.3074 68.0911C92.2008 68.1349 92.0943 68.1787 91.9814 68.2163C91.8811 68.2601 91.7746 68.2977 91.6743 68.3415C91.6054 68.3665 91.5427 68.3853 91.4738 68.4103C91.4926 68.3853 91.5113 68.3603 91.5239 68.3415C91.5677 68.2789 91.6116 68.2225 91.6555 68.16C90.2389 68.4541 88.8285 68.7483 87.4119 69.0425C85.1804 69.5182 82.9427 70.0002 80.7551 70.6574C79.3886 71.0893 77.9344 71.6338 76.8124 72.5915C73.9165 74.9199 73.3461 79.0698 74.932 82.3246L74.9445 82.3308ZM69.441 81.5797C70.6382 80.9788 71.7915 80.3091 72.9261 79.6018C72.7443 77.9744 72.97 76.2907 73.7222 74.632C75.4522 70.8514 79.6331 69.537 83.394 68.7045C86.1458 68.0473 88.9226 67.4965 91.6931 66.9269C91.6806 66.808 91.668 66.689 91.6555 66.5826C91.5803 66.1507 91.4486 65.7376 91.2669 65.3433C89.7123 62.0572 86.3714 59.8728 82.8737 59.1154C83.1871 59.9979 83.2561 60.7115 82.8737 60.9932C82.7484 61.1371 82.5541 61.1997 82.3096 61.1997C81.1438 61.1997 78.7994 59.7726 76.9691 58.5959C76.8062 58.5959 76.6432 58.6084 76.4865 58.6147C76.4426 58.6147 76.3925 58.6146 76.3486 58.6209C76.3548 58.6272 76.3611 58.6397 76.3673 58.6459C76.944 59.3783 77.7338 60.9556 76.2858 61.1935C74.9194 61.1559 73.7535 60.2483 72.5312 59.7288C72.2554 59.5285 71.7665 59.3971 71.3779 59.203C71.3465 59.2093 71.3152 59.2155 71.2901 59.2218C71.4531 59.4534 71.6161 59.685 71.7728 59.9166C72.2366 60.6865 73.6219 62.3326 72.1301 62.777C72.0674 62.7833 71.9984 62.7895 71.9295 62.7895C70.4752 62.7895 67.642 61.0307 66.3257 60.4173C66.2442 60.3798 66.169 60.3422 66.0875 60.3046C65.5798 60.411 65.0721 60.5175 64.5643 60.6239C62.3328 61.0996 60.0951 61.5815 57.9075 62.2387C56.541 62.6706 55.0868 63.2152 53.971 64.1728C51.0751 66.5013 50.5047 70.6449 52.0906 73.9059C53.5385 77.0293 56.1838 79.4641 59.2552 80.9663C62.3705 82.6751 66.2003 83.2572 69.4473 81.5734L69.441 81.5797ZM54.4725 86.1614C55.5883 84.6279 56.8105 83.1758 58.108 81.7925C53.7203 79.3827 50.1788 75.0826 50.0096 70.4633C49.6335 70.939 49.2574 71.421 48.8938 71.903C48.3359 72.6353 47.7844 73.3739 47.2829 74.1438C47.0761 74.4692 46.9068 74.8198 46.8253 75.2016C46.2862 78.2498 49.8717 81.5985 51.8336 83.6202C52.6924 84.4902 53.5699 85.3352 54.4725 86.1614Z" fill="#0D0C21"/>
        <path d="M104.681 81.0099C104.681 81.0099 104.681 80.9911 104.687 80.9849C104.687 80.9974 104.687 81.0037 104.681 81.0162V81.0099Z" fill="#0D0C21"/>
    </g>
</svg>
