<svg xmlns="http://www.w3.org/2000/svg" width="282" height="211" fill="none"><g clip-path="url(#a)"><g clip-path="url(#b)"><path fill="#FED980" d="M206.284 148.703c.47-.32.99-.719 1.19-1.268-2.44-.989-5.23-1.508-7.061-3.555-.85.07-4.39 2.766-4.99 1.638a3.8 3.8 0 0 1-1.94.17 9 9 0 0 1-.86 1.517c3.88.2 8.891-.719 11.921 2.227.6-.28 1.17-.44 1.74-.739zm75.219-.27c-.28 27.157-14.142 32.568-39.735 31.859-7.331 3.215-16.462 7.728-24.733 5.591-6.73-2.067-13.601-5.451-19.332-9.165-2.88 2.346-10.291-3.245-13.181-6.35-2.621-1.667-4.801-3.385-5.711-5.631-2.11-5.252.62-11.801 5.791-15.964 1.78-1.099 5.85-.669 7.581-2.756-17.152-.399-18.803-20.867-10.302-31.05-3.33 32.198 17.762 16.783 16.862-7.548-.06-5.801 2.961-15.066 6.471-15.735 3.62-10.593 2.98-8.376 8.971-1.637 2.06 3.774 4.31-2.197 6.171-3.605 4.27-3.983 7.791-11.65 15.731-8.566 1.351.53 2.031.38 3.721 4.114 2.06 4.542 7.271 5.301 10.691 8.626 11.191 7.508 19.172 18.77 25.243 30.371 5.21 6.889 5.781 27.436 5.781 27.436z"/><path fill="#6F479F" d="M203.622 150.92c-.51-.13-.42-.639-.26-1.018-.57.06-1.12-.12-1.61-.41-.711-.369-1.441-.688-2.211-.898-.91-.22-1.82-.439-2.75-.529-.87-.11-1.85-.08-2.61-.569-.21.05-.42.08-.63.12-.07.019-.11.039-.14.089-.07.2-.13.44-.11.649.02.06.03.1.07.15.07.11-.09.21-.16.11-.2-.29-.07-.639 0-.959.11-.349.54-.339.82-.459-.03-.359.29-.509.6-.529.3-.08.8-.14.77.31.68.119 1.38.109 2.06.209.95.13 1.89.33 2.82.589.94.24 1.751.829 2.651 1.108.19-.908 1.78-1.208 1.81-.059.03.539-.26 1.048-.45 1.527-.11.32-.28.649-.67.569"/><path fill="#0D0C21" d="M241.079 47.185c0 10.444-11.521 34.375-21.722 25.27-1-.899-1.4-1.857-.74-3.025 2.65-4.683 7.591-10.454.13-13.559-7.171-2.995-12.992 16.314-12.802.919.13-16.304-21.082-1.617-19.642-13.828.01-.08.02-.17.04-.25 5.111-25.648 54.676-22.903 54.746 4.473z"/><path fill="#fff" d="M227.137 78.106c-6.161 6.959-11.301 12.76-11.301 12.76s-5.231-4.553-10.532-10.304c-1.81 2.835-9.931 1.996-7.17 4.562 4.14 2.367 2.29 6.39-.07 27.906-1.761 9.714-2.831 13.069-4.521 15.625-6.351 6.489-9.961 5.012-11.141.139-2.15-8.915 2.17-29.183.96-32.817-2.88-4.852-7.431-6.15-.49-13.478 1.75-1.847 1.9-6.03 4.35-5.462 2.451.57-1.63-4.203-.17-6.01-5.72-5.76 1.891-2.396-.01-13.848-.45-2.695.5-7.648 1.29-8.436 11.582-.2 19.173-2.287 17.632 13.898 3.981 2.436 3.631-5.572 8.441-6.5 4.561-.879 9.011 1.617 8.511 6.21-1.78 4.163-5.37 7.737-3.99 9.714 4.15 2.496 5.211 3.175 8.211 6.03zm-40.915 69.917c0 .24-.22.43-.46.4-.02 0-.04 0-.07-.01-.15-.03-.34-.09-.51-.17-.08.289-.39.389-.62.539-.6.379-1.14.829-1.66 1.318-.6.559-1.16 1.168-1.7 1.787-.83 1.188-1.42 2.516-2.031 3.824-.83 1.657-1 3.444-1.16 5.261-.01.589-.52 1.049-1.06.629-1.68-1.647-3.64-2.935-5.66-4.123a60 60 0 0 1-3.611-2.556c-1.12-.948-2.25-1.887-3.31-2.895-.61-.599-1.19-1.218-1.83-1.787-.46-.47-.971-.879-1.461-1.318-.6-.519-1.1-1.138-1.7-1.668a54 54 0 0 1-2.82-2.625c-.22 0-.37-.19-.54-.3-.19-.12-.38-.24-.58-.339-1.27-.559-2.52-1.148-3.681-1.907l-.81-.509c-.23-.17-.57-.29-.65-.59-1.29-.139-2.68-.249-3.9.27-.69.379-1.35.819-2.1 1.068-.471.22-1.071.17-1.041-.469.41-.839.961-1.627 1.481-2.416.69-1.028 1.32-2.097 1.97-3.155-.19-.349.21-.769.43-1.078.63-.909 1.44-1.668 2.04-2.596.25-.389.51-.769.94-.989.53-.359 1.02-.818 1.64-1.018 1.771-.15 3.521.559 5.021 1.438a96 96 0 0 0 6.721 3.414c1.84 1.019 3.46 2.406 5.38 3.305 1 .519 1.931 1.128 2.851 1.757.24-.179.63-.11.9.08 1.11.599 2.29 1.028 3.44 1.528.69.299 1.31.768 2.03.988.17.04.32.15.41.3.74.469 1.421 1.048 2.151 1.537.92.549 1.78 1.208 2.68 1.787q.21.135.45.27c.25.07.5.14.76.19 0-.02.02-.05.04-.08.06-.08.18-.1.26-.03q.15.137.3.259c.14 0 .27.15.22.29.34.05.79-.07.83.419z"/><path fill="#fff" d="M179.02 129.563c.07.189.15.389.22.579.47 1.178.95 2.396 1.75 3.394a12.76 12.76 0 0 0 5.711 3.984c-.03 2.766.23 5.531.8 8.227.19.649 1.15.379.99-.27a32 32 0 0 1-.6-3.404 41 41 0 0 1-.35-4.303c.27.07.55.139.82.189 1.35.23 2.73.23 4.1.26 2.08.09 4.101-.399 6.011-1.198.71-.28 1.41-.559 2.09-.889.44 1.508.82 3.035 1.15 4.563.13.679.26.938.38 1.607.02.13.08.25.19.33.33.279.9-.04.82-.469-.11-.55-.22-.689-.33-1.248-.26-1.368-.65-2.716-1.01-4.064-.11-.389-.22-.779-.35-1.168q.435-.24.84-.509c2.161-1.328 4.011-2.856 5.201-5.112.33-.579-.17-1.558-.5-.998q-.255.447-.54.878c-1.41 1.957-3.261 3.554-5.351 4.743-.07-.18-.13-.35-.21-.53-.6-1.317-1.35-2.555-2.02-3.843-.82-1.448-1.61-2.966-2.8-4.154-.2-.14-.42-.399-.69-.339-.18.04-.22.299-.06.399.16.11.29.25.42.39 1.17 1.477 1.98 3.194 2.83 4.872.6 1.198 1.27 2.366 1.72 3.644-.58.289-1.18.549-1.79.779-1.25.519-2.53.978-3.871 1.188-1.26.159-2.53.1-3.8.07-1.11 0-2.21-.14-3.27-.44 0-1.198 0-2.416.24-3.594.38-.279-.05-.829-.41-.539-.23.2-.29.569-.35.859-.09.449-.15.888-.19 1.347-.04.56-.08 1.119-.1 1.688-.28-.1-.571-.21-.841-.34a11.8 11.8 0 0 1-4.81-3.834c-.63-.968-1.05-1.986-1.54-3.065-.06-.139-.13-.289-.19-.429q.705-1.468 1.56-2.845c.07-.14.65-1.029.62-1.199-.02-.079-.11-.099-.17-.059-.06 0-.12.04-.12.109v.03c-.66.769-1.46 1.937-2.2 3.225-.41-1.018-.75-2.057-.95-3.145-.05-.269-.1-.529-.14-.799-.02-.079-.11-.139-.19-.119s-.15.09-.15.169c.13 1.548.56 3.056 1.08 4.513-1.06 1.957-1.941 4.094-2.011 5.591 0 .579.871.629.931.06.09-1.507.61-2.865 1.17-4.283.07-.18.15-.349.23-.529zm21.075-15.356c.03-.379.03-.399.12-.768.43-1.857.87-3.724 1.35-5.571.36-1.338.84-2.636 1.29-3.944.04-.17 1.03-2.726.38-2.276-.67 1.797-1.6 3.504-2.21 5.321-.53 1.508-.93 3.055-1.36 4.593-.21.968-.42 1.567-.46 2.566 0 .609.81.659.88.069z"/><path fill="#fff" d="M281.253 155.222c-.11-.06-.06-.23.02-.38-.31.32-.64.619-.97.909-1.31 1.118-2.681 2.166-4.071 3.195-.26-2.906-.61-5.801-1.12-8.666-.49-2.716-.94-5.442-1.6-8.117l-.06-.22c1.58-1.098 3.13-2.246 4.61-3.484a14.4 14.4 0 0 0 1.741-1.668c.14-.169.29-.359.35-.579a.53.53 0 0 0-.29-.609c-.31-.14-.02-.379-.73.38-.35.449-.771.828-1.181 1.218a61 61 0 0 1-4.76 3.674 108 108 0 0 0-3.11-9.775c-1.241-3.334-2.641-6.599-4.141-9.824.41-.359.82-.729 1.22-1.108 1.98-1.907 3.541-3.654 5.521-5.551.2-.19-.15-.4-.35-.599-.2-.2-.34-.25-.54-.05-.44.429-.44.489-.87.928-1.801 1.827-3.551 3.694-5.441 5.412a273 273 0 0 0-3.38-6.889c-2.191-4.194-4.821-8.127-7.271-12.171l-.07-.11q.42-.674.81-1.377c.59-.959 1.17-1.927 1.57-2.986.19-.429.52-1.078-.11-1.297-.31-.09-.6.14-.66.439-.21.509-.42 1.018-.64 1.517-.51.929-1.07 1.817-1.59 2.736-1.36-2.057-2.841-4.044-4.111-6.16-.8-1.348-1.54-2.746-2.55-3.954-1.15-1.308-2.58-2.336-3.94-3.404-.751-.62-1.611-1.069-2.451-1.548-.18-.17-.51-.1-.55.16-.02.36.39.48.63.679.32.22.65.42.96.639a48 48 0 0 1 3.881 3.255c1.77 1.697 2.68 4.033 4.03 6.03.95 1.498 1.991 2.925 2.981 4.393.18.279.36.559.55.848-1.19 1.758-2.761 3.225-4.291 4.693-1.22 1.188-2.51 2.296-3.83 3.375-.36-.669-.73-1.348-1.12-2.007-2.951-4.952-6.011-9.834-9.381-14.507-.7-.909-1.341-1.867-2.001-2.806a65 65 0 0 0 3.791-4.502c.63-.869 1.26-1.648 1.77-2.606.26-.51.5-1.029.78-1.528.21-.429.71-1.108.08-1.417-.57-.22-.74.419-.93.808-.27.5-.53 1.009-.77 1.518-1.43 2.506-3.41 4.732-5.311 6.919-.32-.44-.66-.869-1.01-1.278-1.26-1.478-2.75-2.726-4.27-3.924-.74-.629-1.53-1.198-2.271-1.827-.09-.08-.17-.17-.28-.21-.22-.07-.44.14-.41.36.14.38.49.629.77.908.711.65 1.421 1.298 2.141 1.937 1.23 1.039 2.43 2.127 3.48 3.335.42.47.8.978 1.17 1.487-3.58 4.044-7.521 7.778-11.571 11.352-.18-.229-.37-.459-.56-.679-1.17-1.248-2.48-2.356-3.671-3.584-.71-.659-1.3-1.517-2.21-1.917-.26-.12-.74-.04-.65.33.03.12.16.21.29.19.06 0 .12.02.18.04.7.439 1.17 1.148 1.74 1.737q.883.94 1.781 1.867c.85.828 1.68 1.697 2.41 2.635a196 196 0 0 1-6.681 5.531c-.17.17-1.76 1.189-1.35 1.388 2.03-1.138 3.87-2.705 5.741-4.123.92-.719 1.83-1.458 2.73-2.207.08.12.17.24.25.37a24.4 24.4 0 0 1 2.23 3.195c.38.499 1.15-.03.84-.569-.67-1.139-1.15-1.817-2-2.816l-.6-.779a164 164 0 0 0 6.041-5.411c1.98-1.807 3.82-3.764 5.63-5.74.28.409.57.828.86 1.237 3.291 4.453 6.311 9.106 9.161 13.858a87 87 0 0 1 2.371 4.103c-2.751 2.157-5.661 4.144-8.531 6.141-1.06.738-2.141 1.467-3.231 2.176-.08-.279-.16-.559-.24-.829-.95-3.304-2.05-6.569-3.38-9.744-.62-1.448-1.22-2.935-2.12-4.233-.27-.38-.62-.689-.94-1.019-.06-.069-.11-.109-.14-.219.07-.14-.14-.28-.25-.17-.1.1-.06.25-.02.37.16.389.49.668.71 1.018.89 1.418 1.43 3.015 2.04 4.573 1.36 3.534 2.48 7.148 3.51 10.792a205 205 0 0 1-6 3.694c-2.741 1.678-5.511 3.325-8.421 4.713-.55.259-1.09.539-1.651.769-.2-.679-.41-1.368-.62-2.047-.12-.36-.08-.05-.27-.38.19.33-.18-.299-.35-.329-.25-.04-.35.329-.14.419.32.559.27.519.45 1.148.12.47.24.929.35 1.388-.34.12-.71.21-1.07.31-.09.03-.18.06-.24.14-.06.089-.01.209.09.219h.01s.04.03.06.03c.03 0 .05 0 .07-.01.41 0 .81-.07 1.2-.16.01.04.02.08.03.13.75 3.175.76 6.42 1.001 9.675.12 1.417.27 2.825.42 4.233-1.001.1-2.001.11-3.001.11-1.29-.01-2.59 0-3.87-.23-.33-.329-.87.18-.54.519.42.31 1.02.28 1.52.39 1.3.159 2.61.169 3.91.189q1.035 0 2.071-.09c.25 2.257.49 4.513.61 6.8v-.03c.22 3.744.3 7.498.44 11.252-.56.069-1.12.139-1.68.199-2.941.35-5.921.579-8.891.499.02-1.218 0-2.426-.06-3.644-.061-1.637-.241-3.255-.481-4.872-.18-1.038-.27-2.117-.71-3.075-.2-.699-.84-1.518-1.06-1.657-.17-.09-.38.1-.32.279.09.24.64 1.188.9 1.707.33 1.079.39 2.227.53 3.335.15 1.378.27 2.766.3 4.143.04 1.249.04 2.496 0 3.754a35 35 0 0 1-3.08-.289c-1.75-.23-3.42-.779-5.101-1.308-.18-.05-.88-.26-.84.09v.02l-.18.18c.67.079 1.561.219 2.201.439.96.399 1.95.709 2.95.958 1.32.31 2.67.47 4.02.559-.09 2.686-.33 5.362-.64 8.028-.23 2.026-.48 4.043-.79 6.06-2.5-.11-5.24-.39-7.551-.539-.11 0-.2-.01-.29.04-.05.03-.07.08-.09.129-.03.09.02.19.11.2.07 0 .13-.03.16-.09a86 86 0 0 0 7.571.879c-.03.22-.07.439-.1.659-.14.818-.21 1.637-.33 2.456-.05.279.17.539.44.579.59.07.62-.579.65-.998.06-.52.12-1.049.2-1.568.06-.349.11-.709.16-1.058.83.05 1.631.08 2.411.09 1.77.06 3.55-.08 5.31-.24 1.56-.14 3.131-.3 4.691-.459 0 2.855-.06 5.711-.17 8.566 0 .28.24.519.52.519s.51-.229.52-.519c.02-1.657.1-3.315.15-4.972.02-1.228.03-2.466.03-3.694.86-.08 1.72-.17 2.58-.24 4.721-.299 9.461-.499 14.142-1.258 1.55-.279 3.09-.589 4.63-.928.05 1.318.08 2.646.03 3.973-.03.759 0 .959-.13 1.708-.11.299 0 .659.34.748.85-.748.67-.439.77-1.158.12-1.817.08-3.634.02-5.451v-.04c4.011-.918 7.981-2.007 11.932-3.155a92 92 0 0 0 6-2.027c-.01.25-.03.49-.04.739a76 76 0 0 1-.76 5.811c-.21.809-.85 2.895-1.03 3.714-.08.27.09.559.36.639.8.11.67-.819.9-1.448.35-1.098.95-3.524 1.08-4.672.29-1.717.451-3.455.521-5.182a72 72 0 0 0 4.7-2.037c2.91-1.417 5.681-3.105 8.401-4.852.46-.299.91-.609 1.36-.918.06 1.038.12 2.086.22 3.125.1 1.887.2 3.774.11 5.66 0 .49-.35 1.278.36 1.418.28.04.54-.16.58-.439.1-.689.12-1.388.13-2.087.02-1.507-.05-3.015-.14-4.522-.08-1.288-.17-2.576-.27-3.854 1.05-.779 2.08-1.578 3.121-2.357.88-.678.78-.579 1.57-1.367.37-.33.76-.829.24-1.208h-.02zm-8.991-13.728c-.81.549-1.62 1.078-2.44 1.607-2.001 1.268-4.031 2.486-6.131 3.594a81 81 0 0 1-4.131 1.927c-.11-.669-.22-1.348-.32-2.016-.43-3.086-1.25-6.091-2.02-9.106-.53-2.107-1.04-4.213-1.68-6.28-.23-.729-.48-1.447-.74-2.166 3.62-2.097 7.121-4.393 10.321-7.079 2.9 6.31 5.421 12.799 7.151 19.529zm-18.182-11.382c.87 2.496 1.48 5.072 2.13 7.628.49 1.967 1.03 3.933 1.46 5.92.35 1.707.59 3.445.87 5.162.01.08.02.15.04.23q-1.56.658-3.15 1.288c-4.961 2.016-9.921 3.963-15.002 5.66-.31-2.406-.7-4.802-1.04-7.208-.5-3.664-1.12-7.318-1.8-10.952.42-.18.85-.36 1.27-.55 3.73-1.607 7.301-3.534 10.891-5.431q2.085-1.108 4.141-2.276c.06.18.13.359.19.539zm-3.901-23.772c1.04-1.018 2.111-1.997 3.051-3.105.32-.369.62-.769.91-1.168.57.898 1.12 1.817 1.66 2.716 1.76 2.885 3.61 5.73 5.181 8.736 1.27 2.476 2.51 4.982 3.69 7.508-.38.329-.76.648-1.15.958-2.861 2.286-5.931 4.283-9.081 6.12-1.1-2.875-2.41-5.681-3.661-8.496-1.25-2.836-2.74-5.561-4.22-8.277-.22-.409-.43-.819-.65-1.218a64 64 0 0 0 4.28-3.754zm-17.022 12.77c2.421-1.558 4.771-3.215 7.131-4.853a104 104 0 0 0 4.801-3.514c.84 1.558 1.66 3.125 2.51 4.673 1.56 2.935 2.85 6 4.21 9.025a101 101 0 0 1 1.731 4.173c-1.12.639-2.261 1.268-3.391 1.877-4.17 2.257-8.371 4.473-12.731 6.34-.29-1.537-.59-3.085-.9-4.622-.87-4.403-2.15-8.756-3.391-13.079.01 0 .03-.02.04-.03zm-17.062 9.335c.751-.25 1.481-.609 2.201-.909 1.7-.759 3.38-1.577 5-2.506 3.011-1.747 6.031-3.494 8.971-5.351.7 2.526 1.37 5.062 2.071 7.588.84 3.294 1.49 6.639 2.1 9.984-.78.319-1.56.629-2.361.928-3.33 1.228-6.75 2.206-10.191 3.095-2.01.509-4.02 1.018-6.07 1.288-.17-1.358-.33-2.716-.45-4.073-.23-2.576-.31-5.172-.76-7.728a27 27 0 0 0-.511-2.316m2.791 28.174c-.13-3.394-.28-6.799-.62-10.183-.1-.999-.22-1.997-.34-2.995 3.01-.36 5.96-1.208 8.891-1.977a82 82 0 0 0 9.801-3.245l.42 2.316c.47 2.576.9 5.152 1.24 7.748.39 2.676.8 5.351 1.14 8.037-.11.04-.22.08-.33.11-6.541 2.126-13.191 4.003-20.002 4.982-.07-1.598-.13-3.205-.19-4.803zm-11.632 20.388c-.35 0-.72 0-1.09-.01.26-1.787.49-3.574.68-5.372.33-2.885.58-5.78.65-8.696a67 67 0 0 0 2.451.07c2.73-.05 5.46-.249 8.171-.579.23 4.583.36 9.175.37 13.768-3.731.409-7.461.909-11.222.819zm27.284-2.267c-4.241.659-8.541.769-12.832 1.119q-1.095.09-2.19.209c-.03-4.592-.22-9.195-.41-13.788 2.5-.339 4.99-.778 7.451-1.327a155 155 0 0 0 12.981-3.645c.15 1.278.29 2.566.41 3.854.35 2.866.65 5.731.71 8.616.05 1.258.12 2.516.18 3.774-2.08.48-4.18.889-6.29 1.188zm13.071-2.885c-1.91.499-3.83.998-5.761 1.458-.11-2.267-.2-4.543-.32-6.809-.17-2.576-.56-5.122-.79-7.688-.06-.609-.12-1.228-.19-1.837a222 222 0 0 0 6.671-2.346c2.1-.759 4.17-1.598 6.251-2.426 1.76-.709 3.52-1.398 5.27-2.137.19 1.148.38 2.306.5 3.464.13 1.568.18 3.145.31 4.723.17 3.235.4 6.509.32 9.754-4 1.538-8.121 2.746-12.251 3.844zm26.623-11.452c-3.56 2.347-7.211 4.583-11.131 6.28-.73.32-1.46.629-2.2.929.08-3.704-.211-7.418-.441-11.112-.05-2.287-.37-4.563-.73-6.839.87-.38 1.741-.759 2.601-1.169 3.27-1.517 6.35-3.414 9.371-5.381.28-.18.55-.359.83-.549.13.519.25 1.048.37 1.577.93 4.593 1.74 9.286 2.23 13.958.05.519.09 1.048.13 1.568-.34.249-.68.499-1.03.748zm-78.078 4.724c-1.07-.159-1.27-.149-2.3-.519-1.28-.459-2.581-.908-3.811-1.507.24-1.238.53-2.457.82-3.685.62-3.115 1.53-6.16 2.791-9.075.35-.809.69-1.627 1.15-2.386.15-.15.19-.37-.07-.39-.33.08-.51.43-.7.689-.27.44-.53.889-.75 1.358-1.601 3.225-2.661 6.669-3.431 10.184a56 56 0 0 0-.67 2.855 86 86 0 0 1-5.811-3.324c-1.23-.779-2.45-1.568-3.73-2.267l-.39-.279c-.23-.1-.52.08-.51.339.01.32.76.709.97.879.38.259.79.529 1.21.798 1.97 1.298 3.931 2.616 6.001 3.764.68.38 1.36.759 2.05 1.109-.3 1.557-.55 3.125-.73 4.702-.17 2.007-.36 4.104-.07 6.12.2.659 1.16.36.99-.269-.06-.27-.06-.549-.09-.819-.12-2.756.15-5.521.6-8.237.05-.359.11-.709.18-1.068.92.439 1.86.829 2.821 1.158 1.39.499 1.87.659 3.34.889.88.159 1.02-1.059.13-1.019z"/><path fill="#fff" d="M218.066 117.303c-.98.17-1.98.09-2.961.03-1.53-.08-3.01-.519-4.45-1.029-.28-.099-.58-.219-.91-.359.01-2.606.12-5.212.63-7.787.15-.38.15-.879.31-1.318.07-.28-.3-.47-.49-.27-.13.12-.16.29-.2.459-.1.36-.21.709-.28 1.079a32 32 0 0 0-.6 3.744 57 57 0 0 0-.22 3.704c-1.6-.789-3.371-1.917-4.261-3.015.01-.03.02-.06.02-.09 0-.1-.07-.17-.17-.19-.09-.19-.37-.18-.47 0-.14.349.18.679.37.948.91 1.169 2.861 2.437 4.491 3.255l-.03 2.307c-.03 3.085-.06 6.18.03 9.265.1 3.095.1 6.19.13 9.295.03 1.507.16 3.015.15 4.523.03.688 1.02.658 1.03 0 0-.51 0-1.019-.02-1.528-.22-3.834-.11-7.668-.27-11.502-.13-3.794-.12-7.597-.13-11.391v-.559c.14.059.27.109.39.159 1.05.4 2.11.809 3.21 1.029 1.14.239 2.31.309 3.471.349.78.02.34 0 1.11-.15a.5.5 0 0 0 .42-.549c-.14-.689.21-.439-.28-.409zm-14.051-16.573c1.11-2.586 2.86-5.032 4.71-7.148.04-.05.08-.1.13-.14.43 1.388.83 2.785 1.32 4.153.04.12.16.22.27.27.37.17.82-.22.69-.61-.15-.449-.31-.878-.47-1.327-.35-1.088-.74-2.197-1.13-3.295 1.14-1.338 2.21-2.586 3.671-3.714.52-.42-.13-1.148-.65-.759-1.371 1.089-2.281 2.267-3.341 3.575-.02-.05-.04-.11-.06-.16-.41-1.138-.91-2.237-1.32-3.375-.17-.449-.31-.918-.53-1.338-.13-.14-.37-.05-.39.13.34 1.887 1.12 3.674 1.67 5.521-1.03 1.268-2.08 2.536-2.92 3.934-.74 1.368-1.59 2.716-2.1 4.183v-.02c-.09.34.41.45.46.11z"/><path fill="#000" d="M163.099 135.513c-.08-.06-.18-.11-.27-.17-.16-.099-.32-.189-.48-.289.06-.28.22-.589.32-.809 0-.02.01-.03.02-.05.02.01.04.03.06.04h.02c.07.05.14.09.21.14.01.03.03.06.06.07.13.08.27.15.4.23l.15.089c-.05.12-.11.25-.16.37a1 1 0 0 1-.23.429c-.03-.02-.06-.05-.09-.07zm-4.76 11.591c-.12-.16-.25-.3-.391-.44a.4.4 0 0 1 .15-.14h.011c.13-.069.28 0 .33.14.02.08 0 .15-.02.23-.02.07-.05.15-.07.22h-.01zm-1.871-1.765c-.13-.11-.26-.21-.39-.31-.12-.09-.24-.18-.37-.26-.03-.02-.05-.03-.08-.049.01-.03.02-.06.03-.08.06.04.11.09.17.129.24.16.48.32.72.47-.02.04-.04.09-.06.129-.01 0-.02-.019-.03-.029zm.03-.41s.029.019.038.028c-.009 0-.028-.019-.038-.028m4.911-10.543a2.7 2.7 0 0 0-.45-.309c-.11-.07-.22-.14-.34-.19.11-.26.22-.519.33-.769l.06.04c.1.06.21.12.31.18.03.02.06.03.08.05l-.03-.02s.07.05.11.07c0 0-.02-.01-.03-.02l.36.209c-.12.27-.23.549-.35.819-.02-.02-.05-.04-.07-.06zm-9.38-3.944s-.05-.02-.07-.03c.01 0 .03.01.04.01-.46-.17-.22-.809.24-.669.47.09.33.729-.05.729-.05 0-.11-.01-.16-.04"/><path fill="#000" d="M152.367 130.722c-.58-.16-.53-.839-.12-.989.06 0 .11.02.16.03h-.02c.14.03.29.06.44.07.42.27.24.939-.24.939-.07 0-.14-.01-.22-.04zm45.166-75.2v.02c0-.01 0-.02-.01-.03zm28.252 24.8s.07-.01.11-.02c-.03.04-.06.07-.09.11 0-.03-.01-.06-.02-.09m11.362-1.598a3 3 0 0 0-.41-.379c-.07-.06-.14-.13-.22-.18-.03-.02-.05-.03-.08-.05a8 8 0 0 0 1.02-.23l.09.09c.13.12.26.24.38.36.13.12.27.24.4.35-.03.02-.06.03-.08.05a5.3 5.3 0 0 1-.88.279c-.08-.09-.15-.19-.23-.28zm-31.403-51.306s-.05.01-.08.02c.03 0 .05-.01.08-.02m36.094 58.385s.02-.06.06-.06q.06 0 .06.06c0 .03-.02.06-.06.06q-.06 0-.06-.06m.842 1.177s.02-.06.06-.06q.06 0 .06.06c0 .03-.02.06-.06.06q-.06 0-.06-.06m-51.158 59.766c-1.63-.07-3.19-.589-4.73-1.078-2.23-.859-4.18-2.307-6.011-3.804-.79-.689-1.55-1.448-2.13-2.327a15.2 15.2 0 0 1-1.6-3.833c-1.16-4.234-.42-8.686.44-12.91.34-1.727.89-3.414 1.62-4.992.81-1.457 1.71-2.885 2.79-4.153.09-.08.17-.16.28-.21.21-.1.501.09.401.33-.801 1.418-1.731 2.765-2.481 4.213-.67 1.398-1.1 2.905-1.48 4.403-.75 3.784-1.51 7.738-.89 11.591.98 4.863 2.52 6.49 6.551 9.176.81.489 1.61 1.018 2.49 1.377.7.28 1.43.46 2.15.679 1.86.53 3.821.669 5.731.33 1.38-.2 2.74-.549 4.02-1.078.69-.29 1.38-.609 1.951-1.119.73-.529 1.4-1.148 2.09-1.737.32-.219.5-.669.92-.679.45-.02.71.589.37.899-.07.06-.13.13-.19.199-1.22 1.079-2.42 2.257-3.871 3.026-2.3 1.098-4.87 1.727-7.43 1.727-.33 0-.65-.01-.98-.03zM52.886 86.212l.12.06c.04.21.09.41.14.619-.09-.23-.17-.45-.26-.68m101.152 57.639c-.14-.08-.28-.17-.41-.25a.4.4 0 0 0-.09-.05c.07-.1.16-.18.29-.21.31-.099.63.19.58.51-.01.059-.03.109-.05.169-.11-.05-.21-.1-.32-.159zm4.902-11.323c-.11-.04-.14-.169-.1-.269.03-.09.05-.18.08-.27.12.07.24.13.37.19.02 0 .04.02.06.03-.04.07-.09.13-.14.19-.02.079-.11.139-.19.139-.02 0-.05 0-.07-.02zm-14.744 9.846c-.21-.1-.42-.21-.62-.31-.13-.06-.25-.11-.38-.17a8 8 0 0 0-.4-.169c-.03-.01-.07-.02-.11-.03 0-.06.01-.12.02-.17.02-.17.04-.329.07-.499 0 0 .02-.06.02-.08 0-.01.01-.02.02-.03.14.05.27.1.41.16.18.08.35.16.52.239a6 6 0 0 1 .53.28l.09.05c.27.14.54.279.81.429.07.04.13.07.2.11-.04 0-.09.02-.13.03-.03 0-.07.02-.1.03-.08.02-.17.03-.25.05-.17.03-.33.07-.5.11-.06.01-.11.02-.17.04-.02 0-.03-.02-.05-.02zm1.211-4.743-.521-.12c.03-.02.05-.04.07-.069.03-.05.05-.11.08-.16l.06-.12c.04-.06.081-.11.121-.17 0 0 0 .01-.01.02.05-.07.1-.13.15-.199l.06-.09c.1.02.19.05.29.07.29.059.67.189.61.559-.04.279-.26.359-.49.359-.14 0-.29-.03-.42-.07zm1.48-3.274s.02-.03.03-.04c.06-.09.11-.19.17-.279l-.02.039.05-.079-.02.04c.07-.12.15-.24.22-.36.03-.05.06-.1.08-.15.27.12.35.51.13.719-.11.11-.25.14-.4.14-.08 0-.15 0-.23-.02zm3.93-3.316c-.34-.05-.67-.12-1.01-.209 0 0 0-.01.01-.02.04-.06.09-.1.14-.15.09-.09.18-.17.27-.25h-.01c.1-.07.2-.159.3-.229.05-.03.09-.06.14-.09.33.11.63.259.56.639a.41.41 0 0 1-.38.309z"/><path fill="#000" d="M142.676 141.923s-.01-.03-.02-.05c.02-.12.03-.239.04-.349.02-.16.04-.34.07-.509v-.01c0-.02.02-.05.02-.07.05-.11.1-.22.16-.32.04 0 .08.02.13.04.13.07.19.25.13.38q-.24.508-.51.988c0-.03-.02-.07-.03-.1zm7.793-11.33c-.01-.15.03-.29.1-.43.04-.02.07-.05.11-.07.06-.04.12-.08.19-.119.02-.01.04-.03.07-.04s.05-.02.08-.03c.04-.02.07-.03.11-.04h-.03c.01 0 .03 0 .04-.01h.04c.03 0 .05 0 .08-.01-.16.209-.31.419-.47.629-.04.08-.12.199-.2.199-.03 0-.07-.02-.1-.069zm4.759.127a.4.4 0 0 1-.16-.339s.03.02.04.02c.11.04.22.08.33.13a7 7 0 0 0 .39.119c-.1.09-.21.15-.34.15q-.12 0-.27-.09zm-6.071 11.123-.17-.03c-.03 0-.07-.01-.11-.02h-.12c.22-.289.45-.559.7-.808.05-.05.1-.1.16-.14h.04c.04 0 .07.01.11.01h.1s.05 0 .07.01c.02.03.02.07.01.11-.11.309-.29.619-.46.928-.11-.02-.23-.05-.34-.07zm5.713 2.417c-.15-.08-.3-.15-.45-.22.09-.16.28-.249.46-.17.24.12.26.32.17.5-.06-.04-.13-.08-.19-.11zm5.079-11.373c-.24-.03-.38-.289-.3-.509 0 0 .01 0 .02.01.11.06.22.13.33.18.1.05.2.109.3.159-.07.09-.17.16-.29.16zm35.655-72.573c-1.26-.809-2.7-1.378-4.21-1.488h-.21c-.581 0-1.201 0-1.661.39-.29.28-.14.469-.05.549.11.08.27.12.47.08.5-.04 1.121-.04 1.641.03 1.27.18 2.46.708 3.54 1.367.07.02.13.04.19.04.46 0 .73-.659.3-.958zm2.1-4.334c-.37-.598-1-.987-1.53-1.427-.95-.669-2.06-1.178-3.221-1.358-.8 0-1.95-.02-2.29.859-.11.27-.23.579-.07.859.22.369.71.3 1.08.32.68.149 1.4.229 2.101.139.72.32 1.48.549 2.19.879.4.17.75.459 1.17.569.46.09.81-.45.57-.84m24.942 18.053s.009.018.018.018z"/><path fill="#000" d="M165.641 137.16c-.731-.329-1.411-.768-2.101-1.188a65 65 0 0 0-6.32-3.344c-1.331-.55-5.021-2.367-6.271-1.648-.21.12-.48-.1-.38-.319 0 .02-.01.04-.02.06v.05a.27.27 0 0 1 .18-.28c1.39-1.128 3.25-.26 4.71.26 2.181.848 4.281 1.897 6.331 3.025 1.47.739 2.81 1.707 4.271 2.436.62.269.22 1.208-.41.948zm-18.554-3.135s0-.01.009-.02l.01-.019zm4.272-4.233h.029c-.01 0-.019 0-.038.01zm-.27.069h.028c-.009 0-.028 0-.038.01z"/><path fill="#000" d="M280.924 137.031c-.27-1.398-.46-2.815-.77-4.203a79 79 0 0 0-2.191-7.867c-1.11-2.976-2.49-5.841-3.98-8.637-1.08-2.086-2.43-4.023-3.73-5.98-1.651-2.356-3.181-4.752-5.011-6.999-.9-.998-1.8-1.997-2.68-3.025-1.24-1.368-2.621-2.606-3.971-3.854-2.92-2.366-5.72-4.892-8.731-7.128-1.52-1.188-3.19-2.137-4.79-3.215-.59-.4-1.14-.729-1.77-1.098-.471-.31-1.021-.54-1.591-.53.04-.389-.11-.768-.37-1.307q-.12-.42-.36-.84-.315-.55-.63-1.087c-.24-.42-.5-.839-.76-1.248a2.6 2.6 0 0 0-.5-.63c-.3-.419-.63-.788-.98-1.108-.6-.738-1.36-1.337-2.3-1.607-1.34-.37-2.751-.609-4.131-.37-1.4.15-2.67.81-3.89 1.468l-.27.15c-1.1-1.008-2.141-2.087-3.221-3.125 1.691-.07 3.351-.599 4.701-1.617.7-.54 1.47-1.049 2.02-1.748 1.43-1.357 2.69-2.955 3.841-4.403 1.79-2.486 3.12-5.271 4.26-8.106 1.73-3.884 2.3-8.148 2.17-12.38a23.5 23.5 0 0 0-.66-5.192 6 6 0 0 1-.29-.72q-.135-.403-.3-.808v.01c-.08-.2-.16-.4-.23-.599-.03-.09-.07-.19-.11-.28-.13-.309-.28-.599-.43-.898-.04-.09-.09-.18-.13-.27v-.02c-.04-.08-.08-.16-.12-.23a7 7 0 0 0-.25-.459c-.05-.09-.1-.18-.15-.26-.04-.049-.07-.109-.11-.159-.08-.12-.16-.25-.24-.37-.12-.189-.23-.389-.35-.578-.32-.49-.65-.979-.98-1.458-.06-.08-.12-.17-.18-.25-.11-.12-.22-.24-.33-.349-.14-.14-.28-.27-.42-.41-.07-.07-.14-.14-.21-.219-.03-.03-.06-.07-.09-.1-.02-.02-.04-.05-.06-.07h-.02c-1.361-1.168-2.821-2.236-4.311-3.225a32.6 32.6 0 0 0-5.03-2.795l-.06-.02c-.3-.1-.61-.2-.911-.32-.21-.08-.41-.16-.62-.24-.17-.06-.33-.109-.49-.179-.08-.03-.16-.07-.23-.1-.18-.07-.36-.13-.54-.19-.45-.16-.91-.309-1.37-.459-.09-.03-.18-.05-.28-.08l-.2-.06h.01c-.32-.08-.63-.16-.96-.22-.33-.069-.66-.119-1-.179l-.23-.03h-.05c-.12-.01-.23-.03-.35-.04-.38-.03-.77-.05-1.16-.07-.06 0-.12 0-.18-.01-.17-.01-.33-.02-.5-.04-.18-.02-.36-.03-.54-.05-.231-.02-.451-.03-.681-.04-.08 0-.17 0-.25-.01-.34 0-.68-.02-1.02-.03s-.67-.03-1.01-.04c-.32-.02-.64-.04-.95-.04h-.46l-.96.06c-.49.04-.98.09-1.47.14-.5.05-1.01.11-1.51.17-.04 0-.07.01-.11.02h.04c-.06 0-.11.02-.17.02h-.03c-.03 0-.06 0-.08.01h-.03l-.23.03-.971.15c-.24.04-.48.09-.72.14-.5.1-1 .23-1.5.35-.57.159-1.13.349-1.69.538-.67.22-1.35.44-2 .71-.2.059-.39.129-.59.189q-1.903.662-3.671 1.637c-.75.42-1.48.869-2.19 1.358-.88.53-1.71 1.128-2.46 1.847-.3.26-.57.56-.81.869-.27.27-.55.549-.81.828a21.6 21.6 0 0 0-2.491 3.305 18.2 18.2 0 0 0-1.72 3.624c-.22.65-.41 1.308-.55 1.977v.08c0 .11-.02.22-.03.33v.399c0 .22-.02.439-.02.659 0 .12.01.23.02.35-.02 1.147.2 2.295.75 3.334.26.479.62.928 1.04 1.298 0 .23 0 .469-.01.699v.469c0 .06-.01.12-.02.18-.02.12-.04.23-.07.349-.01.08-.03.16-.04.24-.12.898-.31 1.797-.45 2.695a18.5 18.5 0 0 0-.17 4.203c.03.29.07.71.13 1.189 0 .02.02.05.02.08 0 .02 0 .03.01.05.05.648.19 1.297.33 1.936.18.64.18 1.059.04 1.458-.37.649-.79 1.258-1.2 1.887-.02.04-.04.08-.05.11-.04.09-.09.18-.13.26-.08.16-.17.309-.26.459 0 .01-.02.03-.03.04 0 0-.02.02-.02.03-.01.02-.02.03-.03.05 0 .01-.02.03-.03.04 0 .01-.01.02-.02.03-.04.06-.08.12-.11.189-.04.06-.07.12-.11.18-.07.12-.14.24-.22.36-.04.059-.07.109-.11.169-.33.629-.75 1.258-.7 1.987.2 1.148 1.11 1.687 2.17 1.967l-.03.13c-.2.818-.05 1.657.08 2.475.18 1.278.74 2.436 1.47 3.485l.06.06-.21.24c-.54-.23-1.14-.19-1.59.359-.85.768-1.53 1.697-1.96 2.765-.07.22-.19.47-.16.7-.36.379-.71.798-1.01 1.207-.08.15-.26.45-.32.72-.06-.02-.12-.04-.18-.05-.68 0-1.35.878-1.801 1.347-.94 1.268-1.45 2.796-1.89 4.293-.62 1.468-.3 2.316.46 3.624.99 1.548 2.351 2.786 3.511 4.204.62.818.66 1.956.63 2.955-.22 3.115-.69 6.2-1.02 9.305-.33 2.945-.44 5.91-.66 8.876-.09 1.527-.49 6.839-.52 7.268a15 15 0 0 0 0 1.777c.03.609.1 1.208.2 1.807.21 1.258.61 2.496 1.29 3.585 0 0 .01.019.02.019.67 1.059 1.66 1.967 2.89 2.317.43.12.86.179 1.31.179.23 0 .47-.019.7-.049.6-.09 1.17-.27 1.72-.52.09-.04.19-.089.28-.129 1.181-.589 2.201-1.458 3.091-2.427.8-.868 1.49-1.817 2.1-2.825a23.5 23.5 0 0 0 2.31-5.102c.32-.998.58-2.017.77-3.045q.105-.584.18-1.168c.12-.21.15-.529.17-.779.11-1.008.23-2.017.34-3.025l.06-.589c.711.469 1.521.759 2.241 1.238 1.27.899 2.53 1.867 3.43 3.155.83 1.368 1.33 2.895 1.61 4.473.65 3.085.96 6.27 1.19 9.415.04.529.13 1.078 0 1.597a31 31 0 0 1-1 3.385c-.24.729-.62 1.407-1.04 2.046a9.8 9.8 0 0 1-1.39 1.558c-.4.369-1.45.839-.9 1.488.12.109.23.159.34.159.3 0 .57-.309.81-.509.27-.21.55-.409.78-.659 1.35-1.278 2.23-2.945 2.73-4.732.37-1.288.931-2.606.761-3.964l-.03-.379c.17-.27.3-.669.4-.819.54-1.148 1.08-2.306 1.67-3.434.31-.629.65-1.248.93-1.907.32-.609-.58-1.059-.88-.44-.69 1.797-1.62 3.505-2.22 5.342-.22-2.656-.501-5.302-1.031-7.918-.16-.858-.35-1.727-.62-2.565.02-.03.04-.06.05-.09.12-.31-.1-.619-.14-.919-.26-1.188-.67-2.346-.92-3.534-.14-.729-.33-1.438-.42-2.197-.16-1.278-.15-2.576-.22-3.863 0-.1-.01-.19-.02-.29a.55.55 0 0 0 .42-.22c.19-.279.42-.529.63-.788.36-.48.76-.929 1.17-1.358.4-.469.76-.979 1.181-1.438.38-.419.73-.879 1.14-1.278.46.929.88 1.877 1.36 2.796.43.828.97 1.607 1.41 2.426.84 1.128 2.5 4.752 3.72 5.032.09.01.18.02.27.02 1.321 0 2.061-1.508 2.811-2.426.6-.699 1.12-1.468 1.61-2.247 1.32-1.877 2.62-3.774 4.07-5.551 1.151-1.358 2.301-2.716 3.491-4.033 2.59-2.896 5.16-5.801 7.721-8.716 1.17-1.348 2.37-2.666 3.54-4.004.08-.02.16-.07.22-.14.32-.42.65-.819.95-1.248.13-.16.27-.32.4-.48a8 8 0 0 0 .56-.698c.17.02.35.02.52.06.14.03.19.04.35.11 1.191.669 2.291 1.477 3.431 2.216 3.34 2.057 6.35 4.573 9.321 7.119.88.779 1.84 1.467 2.73 2.256a89 89 0 0 1 3.591 3.405c1.06 1.168 2.08 2.366 3.15 3.534 1.45 1.777 2.73 3.694 4.03 5.581 1.22 1.777 2.441 3.564 3.571 5.401 1.77 3.016 3.26 6.171 4.6 9.385 1.17 3.255 2.12 6.6 2.751 9.994.67 3.824 1.37 7.668 1.51 11.552.15 2.725-.09 5.441-.26 8.157-.15 2.476-.79 4.882-1.42 7.258-.46 1.727-.941 3.455-1.651 5.102-1.72 3.784-4.72 6.969-8.311 9.055-.94.53-1.93.919-2.94 1.298-1.18.46-2.38.899-3.61 1.208-1.771.45-3.521.959-5.331 1.248-2.1.37-4.23.55-6.361.659-1.27.06-2.54-.02-3.81-.099-1.31-.06-2.61-.02-3.92-.14l.33-.21c1.88-1.168 3.74-2.406 5.39-3.894 2.5-2.066 5.201-3.873 7.731-5.89 1.9-1.398 3.53-3.125 4.881-5.052 1.05-1.348 2.14-2.686 3.05-4.133.52-.919.96-1.887 1.39-2.856.95-2.576 1.91-5.182 2.16-7.937.08-.499.17-.989.27-1.488a.534.534 0 0 0-.4-.629.534.534 0 0 0-.63.4c-.11.469-.19.948-.27 1.417-.13.979-.23 1.957-.52 2.896a26 26 0 0 1-1.06 3.384c-.48 1.518-1.16 2.975-1.93 4.363-.88 1.368-1.9 2.626-2.901 3.904-.4.489-.75 1.048-1.15 1.537-.56.659-1.18 1.268-1.79 1.887-1.98 1.728-4.12 3.265-6.261 4.793-.95.759-1.93 1.467-2.87 2.246-.85.649-1.61 1.398-2.49 1.997-1.01.769-2.11 1.438-3.191 2.127-1.55 1.048-3.1 2.096-4.77 2.965-.88.509-1.88.749-2.82 1.128-1.521.639-3.111 1.228-4.661 1.787-1.78.609-3.62 1.038-5.481 1.338-1.41.21-2.87.459-4.31.329a21.7 21.7 0 0 1-5.641-1.008c-1.53-.469-3.08-.968-4.52-1.687-1.69-.679-3.241-1.648-4.891-2.406-2.39-1.148-4.83-2.217-7.03-3.714-.131-.1-.591-.33-.991-.45.1-.509-.05-1.198-.32-2.026-.32-1.089-.6-2.187-.72-3.315-.28-2.836-.07-5.721.55-8.496.27-1.678.79-3.295 1.481-4.843 0 0 0-.02.01-.02 0 0 0 .01-.01.02a57 57 0 0 1 3.4-6.08c.64-.988 1.62-1.647 2.43-2.486 4.641-.779 6.041-8.377 7.421-12.141 1.44-4.982 2.54-10.093 4.15-15.035 1.241-2.986 2.771-5.931 4.721-8.517 1.85-2.306 4.17-4.243 6.471-6.09.57-.389 1.17-.839 1.87-.958.31.029.64-.14.67-.48-.05-.948-1.3-.499-1.84-.219-2.921 1.777-5.511 4.253-7.761 6.809-2.16 2.725-3.75 5.84-5.101 9.045-2.37 7.299-3.69 14.926-6.56 22.075-.49.998-1 2.057-1.731 2.915-.92-.429-1.94-.569-2.89-.928-1.33-.559-2.56-1.358-3.83-2.067-.18-.14-.47-.06-.56.15-.18.519.5.788.83 1.038.61.449 1.24.839 1.91 1.198 1.11.779 2.47.959 3.72 1.418-.18.14-.38.269-.59.379-.12.08-.25.14-.39.2-.06-.28-.22-.529-.48-.679-.79-.359-1.71-.309-2.55-.459-1.42-.25-2.84-.559-4.271-.789-1.02-.21-2.07-.399-3.12-.369-2.18.249-4.42.189-6.551.858-.46.16-.93.25-1.41.34-1.06-.519-2.14-.999-3.18-1.538-2.701-1.278-5.401-2.536-8.011-3.983-3.3-1.887-6.671-3.665-9.891-5.681a68 68 0 0 1-2.11-1.288c-.02 0-.03-.01-.05-.02-.07-.04-.13-.08-.2-.12-.13-.08-.271-.15-.401-.23a.13.13 0 0 1-.06-.07c-.07-.049-.14-.089-.21-.139a.1.1 0 0 1-.04-.03 65 65 0 0 0-2.52-1.538c-.07-.03-.14-.07-.2-.11l-.33-.179c-.05-.03-.1-.05-.15-.08-.07-.04-.15-.08-.22-.11-.19-.09-.37-.19-.55-.29 0 0 .02 0 .02.01-.06-.03-.11-.06-.16-.089a.2.2 0 0 1-.06-.04c-.01 0-.02-.02-.03-.02-.81-.41-1.64-.769-2.5-1.069a3 3 0 0 1-.27-.07c-.09-.029-.19-.059-.28-.089-.11-.04-.22-.08-.33-.13-.02 0-.03-.01-.04-.02H155c-.06-.02-.11-.03-.17-.05-.02 0-.03-.01-.05-.02-.831-.25-1.861-.489-2.651-.399a.5.5 0 0 0-.19-.21h-.12c-.07 0-.13.01-.2.02-.09.02-.19.04-.28.07-.05.01-.09.03-.14.04-.03 0-.06.01-.08.02h-.04c-.04.01-.08.03-.11.04h-.02l-.27.179c-.3.22-.59.46-.87.709l-.02.02c-.03.04-.05.08-.09.09h-.02c-.57.509-1.12 1.058-1.64 1.617-.07.08-.14.15-.21.23-.09.13-.18.27-.26.409-.03.06-.07.11-.1.17-.06.11-.12.22-.18.32-.07.119-.14.229-.21.349 0 .01-.02.03-.03.04-.05.09-.1.17-.16.26l-.18.269c-.11.17-.22.33-.33.499-.11.18-.23.36-.35.539-.05.08-.11.16-.15.24-.02.04-.04.08-.07.11-.02.02-.03.04-.04.06-.02.02-.03.05-.05.08-.04.08-.09.149-.14.229 0 0 0-.01.01-.02-.03.04-.05.08-.07.12-.04.08-.08.17-.12.26 0 0 0 .02-.01.02 0 .04.01.09.03.13-.151.169-.311.359-.461.549 0 .01-.01.02-.02.03-.02.03-.04.059-.07.069-.4.5-.78 1.039-.94 1.548-.26.26-.49.539-.67.859-.02.06-.05.109-.07.169-.04.09-.09.18-.13.27s-.08.18-.12.26a.4.4 0 0 0-.03.069c-.07.18-.12.36-.18.54-.01.109-.03.209-.04.319-.01.1-.03.21-.04.31.03.119.08.219.18.319.26.27.61.349.97.349.03-.02.07-.03.1-.039.06-.01.12-.02.17-.03.02 0 .04 0 .06-.01l.26-.06c.17-.04.33-.08.5-.11.05 0 .09-.02.14-.03.24-.07.491-.12.731-.16h.04c.18-.03.35-.05.53-.07.73-.14 1.39-.199 2.02-.189 0-.01.01-.02.02-.03 0 0 .04-.01.06 0h.26c.04 0 .07 0 .11.01h.07c.03 0 .07.01.11.02.06 0 .11.02.17.03h.07c1.49.179 2.8.758 4.26 1.677.05.02.09.05.14.08.14.08.27.169.41.249.271.14.561.27.831.41.14.07.27.149.4.239.14.09.3.18.44.27.13.08.25.17.37.259.13.1.26.2.39.31.25.21.5.419.75.639.22.19.44.389.65.599.17.17.33.339.47.529.26.21.51.419.7.709.14.2.25.419.33.649l.05.05c2.14 1.907 4.211 3.894 6.371 5.761 2.65 2.196 5.36 4.343 8.231 6.24 1.19.728 2.39 1.467 3.55 2.256a7.4 7.4 0 0 0 1.02 2.895c1.25 1.598 2.951 2.746 4.301 4.263 1.73 1.868 3.63 3.585 5.84 4.873 1.221.808 2.471 1.617 3.851 2.136 1.06.33 2.11.769 3.21.909.15.01.29.01.42.01.79 0 1.28-.18 1.54-.509.52.279.94.698 1.411 1.038.59.479 1.25.859 1.9 1.258 1.78 1.098 3.73 1.887 5.58 2.845 2.451 1.378 5.021 2.556 7.701 3.405a24.6 24.6 0 0 0 7.311 1.318c2.13 0 4.251-.449 6.341-.839 2.36-.569 4.64-1.438 6.891-2.326.87-.38 1.78-.699 2.68-1.009.98-.379 1.88-.928 2.78-1.457.53-.28 1.04-.609 1.54-.949.11.07.25.11.38.07.55-.07 1.121.06 1.671.07.77.05 1.54.04 2.3.05 1.16.02 2.32.14 3.48.15 2.851-.02 5.701-.3 8.511-.809 1.99-.389 3.951-.928 5.901-1.468 1.76-.609 3.55-1.208 5.22-2.046 3.381-1.817 6.261-4.623 8.221-7.918 1.631-2.755 2.351-5.91 3.151-8.975.34-1.408.67-2.826.85-4.263.19-1.847.28-3.704.38-5.561.24-4.333-.31-8.657-1.02-12.93h-.02zm-93.791-90.475c-.19-.3-.28-.659-.39-.988-.02-.1-.05-.2-.07-.3-.2-1.367.08-2.865.48-4.233.07-.33.19-.649.31-.968.02-.07.05-.13.07-.2 0-.02.02-.05.03-.07a11 11 0 0 1 .66-1.497c.06-.14.13-.28.19-.42.08-.17.17-.32.27-.479.11-.18.23-.37.36-.54.11-.159.23-.319.34-.468.12-.17.24-.33.36-.5.241-.33.481-.649.711-.978.04-.06.08-.11.12-.16l.24-.33c.02-.03.04-.05.06-.08.09-.119.18-.229.28-.339l.02-.02c.26-.3.56-.559.85-.828.15-.14.29-.28.44-.41.14-.13.28-.24.43-.359.29-.25.59-.49.89-.739.3-.25.6-.489.9-.729.14-.12.29-.22.45-.33.16-.119.32-.229.49-.349.28-.19.56-.399.85-.589.28-.19.58-.369.87-.539h-.01.01s-.01 0-.02.01c.05-.03.11-.07.16-.1.03-.02.06-.03.08-.04.03-.02.06-.03.09-.05.11-.05.22-.11.33-.15.23-.1.46-.179.69-.269.321-.12.631-.26.941-.38l.47-.179c.16-.06.31-.11.47-.17h.03c.38-.14.76-.27 1.15-.409.36-.13.74-.22 1.11-.32.4-.11.79-.23 1.2-.319.39-.09.79-.19 1.18-.28.4-.09.81-.17 1.21-.26.42-.089.83-.169 1.251-.249.4-.08.8-.13 1.2-.19.2-.03.4-.06.6-.08.22-.02.44-.05.67-.07.39-.04.78-.069 1.17-.109.2-.02.4-.03.6-.04.19-.01.39-.03.59-.03.23 0 .45-.02.68-.02.19 0 .38-.01.56-.01.42 0 .84.02 1.26.03.21 0 .43.02.64.03h.971c.18 0 .36.01.54.02l.58.03c.19 0 .38.02.57.03s.37.03.56.05c.2.02.39.06.59.11l.54.12c.04 0 .07.02.11.03 0 0 .08.03.12.04l.05.02c1.19.279 2.37.608 3.52 1.028 2.891 1.038 5.581 2.576 8.091 4.333 1.71 1.218 3.361 2.546 4.841 4.043.83 1.089 1.54 2.267 1.99 3.565 1.95 4.732 1.84 10.034.97 15.006-.88 3.644-2.42 7.058-4.23 10.353-1.191 2.107-2.751 3.964-4.421 5.72-1.43 1.558-3.14 2.926-5.16 3.605-1.351.32-2.791.36-4.081-.19-.58-.23-1.11-.589-1.65-.898l-.6-.36c-.63-.649-1.02-1.567-.48-2.386.49-1.018 1.38-1.737 2.13-2.556 1.56-1.827 2.41-3.644 2.19-6.09-.26-2.206-1.64-4.363-3.69-5.301-.81-.37-1.72-.42-2.6-.49-.671-.04-1.341-.06-1.991.06-1.46.19-2.3.849-3.26 1.907-.74.789-1.49 1.568-2.13 2.446-.56.65-1.62 3.824-2.731 2.686-.5-.719-.63-1.657-.64-2.646 0-.03 0-.07-.02-.1 0-.04-.01-.09-.02-.13 0-.11-.01-.22 0-.329.01-.22.03-.44.05-.659 0-.1.02-.2.04-.3.04-.768.09-1.507.03-2.166-.04-.919-.18-1.827-.47-2.696-1.01-3.304-4.43-5.47-7.801-5.59-1.09-.05-2.18.1-3.26.239-1.11.15-2.21.29-3.33.24-1.02-.12-2.101-.1-3.061-.51-.51-.29-1.02-.649-1.36-1.138zm.15 25.779c-.14-.659-.27-1.358-.24-2.067.66.1 1.32.15 1.87.2.74 0 1.671-.17 2.101-.869.18-.2.32-.529.15-.798-.15-.29-.57-.31-.79-.08-.13.13-.23.29-.35.439-.451.27-1.001.29-1.511.23-1-.1-2.08-.17-2.97-.72-.25-.229-.52-.518-.41-.878.18-.529.51-.988.76-1.487.3-.62.67-1.218 1.04-1.827.08-.12.16-.23.25-.31.16-.18.32-.36.45-.56.93-1.397.62-2.275.26-3.803q-.045-.21-.09-.45c0-.08 0-.169-.01-.249 0-.06-.01-.12-.01-.17-.16-1.028-.2-2.066-.19-3.095-.04-2.196.78-4.383.49-6.57.36.17.75.27 1.16.27h.4c.971 0 1.931-.1 2.901-.16 1-.06 2-.169 2.98-.429.14-.02.29-.03.43-.05a9.8 9.8 0 0 1 3.691.08c2.29.54 4.45 2.177 5.24 4.433.54 1.458.53 2.996.48 4.523v.25c0 .22 0 .429-.04.649 0 .23-.02.469-.02.698.02 1.179.08 2.477.83 3.435.82 1.068 2.261.769 2.971-.25.28-.379.52-.778.75-1.188.62-1.318 1.61-2.386 2.6-3.434.56-.56 1.07-1.238 1.84-1.498 1.37-.489 2.881-.32 4.291-.11 1.9.47 3.2 2.277 3.64 4.114.22 1.068.11 2.186-.2 3.235-.38.958-1 1.827-1.65 2.625-.69.73-1.47 1.408-1.99 2.277-.92 1.358-.85 2.665.25 3.903 2.43 1.877 4.15 2.077 4.43 2.107.35.43.71.829 1.1 1.218.81.839 1.631 1.677 2.461 2.496-.2.14-.4.29-.58.46-.44.409-.801.888-1.141 1.377-.01.02-.03.03-.04.05 0 0-.02-.01-.02-.02a76 76 0 0 1-3.21 3.724c-1.58 1.548-3.09 3.175-4.56 4.832q-.736.872-1.441 1.758c-1.07-1.119-2.03-2.337-3.14-3.435-1.24-1.298-2.53-2.536-3.76-3.854-.68-.748-1.341-1.527-2.091-2.216-.05-.04-.1-.09-.16-.14.91-.639 1.871-1.517 2.671-2.326a.41.41 0 0 0 .03-.53 1 1 0 0 1-.13-.18.4.4 0 0 0-.64-.059c-.2.23-.41.45-.64.649-.951.879-1.931 1.727-3.081 2.326-.52.22-1.02.47-1.51.74-1.04.458-2.11.748-3.23.998-1.06.23-2.191.489-3.291.369-.51-.04-1.02-.15-1.53-.23-.28-.04-.55-.19-.83-.19-.29-1.108-.83-2.156-1.36-3.274-.17-.37-.36-.829-.58-1.318 2.33-.07 4.41-1.897 4.87-2.466.12-.14.28-.33.44-.51.4-.519-.39-1.127-.79-.608-.42.679-1.88 1.647-1.99 1.717-.89.5-1.89 1.038-2.93 1.008-.51-.998-1.17-1.917-2.04-2.136-.511-.03-.941.2-1.311.509-.02-.02-.03-.04-.05-.06-.63-.919-1.09-1.977-1.25-3.095zm13.552 14.746c-.09-.28-1.42-1.987-2.571-3.085.591-.07 1.161-.22 1.761-.32 1.5-.309 3.01-.718 4.35-1.487.45-.19.89-.41 1.31-.649.28.31.59.6.87.919.47.559.96 1.098 1.461 1.637-.481.5-.791 1.178-1.191 1.747-.6.989-1.15 2.127-1.6 3.215-.14.34-.26.689-.39 1.038-.24.33-.47.67-.71.989-.71.978-1.46 1.937-2.07 2.985-.41.64-.83 1.258-1.22 1.897.3-1.687.58-3.385.73-5.092.11-1.298.06-2.675-.72-3.774zm-7.801-.459c-.14-.14-.28-.28-.42-.43-.08-.11-.18-.249-.3-.369 0-.18-.01-.36-.02-.539-.04-.529-.04-1.068-.09-1.607-.12-.799-.62-1.448-.98-2.137a82 82 0 0 0-2.591-4.203c-.11-.17-.25-.33-.4-.47.06-.04.13-.08.19-.13.26-.209.49-.448.8-.588.17-.07.4-.23.58-.14.471.33 1.381 1.957 1.441 2.067.51 1.128.98 2.216 1.52 3.334.33.74.75 1.478.79 2.307.03.988-.12 1.957-.52 2.895zm-6.751-8.956c1.03-1.347 1.57.28 2.1 1.089.72 1.248 1.46 2.486 2.191 3.724.22.37.45.739.59 1.148.11.42.06.869.09 1.298 0 1.148.18 2.316-.01 3.454-.35-.23-.71-.449-1.11-.589-.02 0-.03 0-.05-.01-.08-.759-.18-1.517-.321-2.276-.12-.839-.6-1.668-1.06-2.376-.48-.889-1.12-1.648-1.74-2.436-.45-.69-1.13-1.498-1.89-1.288.37-.6.72-1.208 1.21-1.718zm-2.74 4.324c.6-.58 1.09-1.288 1.79-1.758.52.38.79 1.019 1.2 1.508.53.609.95 1.288 1.34 1.997.28.499.61.968.79 1.517.21.67.27 1.368.38 2.077.13 1.058.34 2.126.19 3.205-.54-.39-.96-.969-1.52-1.348-.01 0-.03-.01-.04-.02 0-.09 0-.16-.01-.22-.07-.679-.3-1.327-.58-1.947-.2-.539-.31-1.128-.63-1.617-.59-.779-1.39-1.378-2.14-1.997-.35-.32-.72-.659-1.14-.898.13-.16.24-.35.38-.49zm14.131 30.131c-.12 1.428-.29 2.856-.45 4.283-.04.36-.07.709-.11 1.069a.8.8 0 0 0-.11.289v.09c-.03.25-.06.509-.1.769-.11.749-.26 1.487-.43 2.226a23.5 23.5 0 0 1-.98 3.055l-.02.04a21.4 21.4 0 0 1-2.54 4.653c-.39.529-.81 1.028-1.26 1.507-.35.37-.72.709-1.12 1.039-.3.239-.61.459-.931.669q-.405.254-.84.449c-.22.1-.45.19-.69.259-.2.06-.4.11-.61.14-.18.03-.37.05-.55.05-.17 0-.33 0-.5-.02-.16-.02-.31-.05-.47-.08-.14-.04-.29-.08-.43-.129-.14-.06-.28-.12-.42-.2s-.27-.17-.4-.26q-.21-.15-.39-.329c-.14-.14-.28-.29-.41-.44a6 6 0 0 1-.4-.569c-.01-.02-.02-.03-.03-.05a7 7 0 0 1-.4-.758c-.15-.35-.28-.699-.4-1.059-.14-.489-.25-.988-.34-1.487-.11-.669-.16-1.348-.18-2.037v-1.008c0-.23.01-.47.02-.699 0-.19.56-6.989.71-9.315.14-1.957.23-3.944.46-5.911.21-2.286.58-4.552.79-6.829.19-2.376.87-5.261-1.1-7.099-1.01-1.267-2.351-2.416-3.141-3.863-.64-1.029-.75-1.548-.24-2.676.32-.958.69-1.907 1.18-2.785.371-.82.881-1.638 1.631-2.147.54.21.98.589 1.42.958.67.53 1.37 1.059 1.88 1.758.32.489.41 1.078.6 1.617.34.849.56 1.767.61 2.686-1.06-1.288-2.36-2.367-3.63-3.415-.54-.35-1.19 0-1.14.65.03.189.22.349.41.309.22-.03.3-.23.37-.4.42.23.58.74.89 1.089.58.698 1.32 1.238 1.93 1.906.33.32.63.69 1.01.959.54.24.76-.2.84-.749.33.43.68.839 1.18 1.078q.21.12.42.12c.48 0 .931-.44 1.001-.938.06-.55-.01-1.108-.03-1.658 0-.04 0-.09-.01-.13.01 0 .03.02.04.02.31.17.59.41.95.42h.1c.6 0 .86-.55.93-1.088.07-.37.1-.74.11-1.119.18.19.35.35.45.43.11.06.21.08.31.08.78 0 1.15-1.618 1.27-2.227.17-.769.16-1.487.05-2.176.75.529 1.68.778 2.6.848.46.6.99 1.118 1.5 1.707.631.72 1.231 1.498 1.681 2.347.43.868.36 1.867.31 2.805-.36 3.445-1.12 6.92-1.65 10.354-.631 3.604-.861 7.258-1.171 10.902zm3.381 2.306c-.78-.419-1.67-.648-2.431-1.108.171-1.707.291-3.414.431-5.122.23-3.015.69-6.01 1.2-8.985.02-.04.03-.08.04-.12.38-.769.75-1.547 1.21-2.276.83-1.358 1.62-2.726 2.48-4.064.01-.02.02-.04.04-.05a33.9 33.9 0 0 0-1.03 10.474c.08 1.178.12 2.356.32 3.524.09.439.23.868.3 1.308.14.479.23 1.018.51 1.437-.11 1.388-.24 2.796-.19 4.194.08 1.218.31 2.426.6 3.604-.98-1.128-2.21-2.057-3.49-2.816zm7.691-10.822c-.7.599-1.251 1.368-1.871 2.047-.66.878-1.45 1.647-2.11 2.535-.34-1.287-.6-2.595-.64-3.923-.1-1.348-.16-2.696-.12-4.044.19-5.351 1.52-10.763 4.391-15.335.07 0 .13-.04.14-.11 0-.03 0-.06.02-.09.9.959 1.83 1.897 2.76 2.816.63.679 1.28 1.337 1.9 2.026.59.65 1.13 1.358 1.75 1.967-.76.959-1.52 1.937-2.29 2.906-.9 1.228-1.92 2.376-2.75 3.654-.65.928-1.26 1.917-1.37 3.075-.12.828-.06 1.687.19 2.486zm31.583-19.08c-.14.43-.38.81-.63 1.178l-.09.12a178 178 0 0 1-3.65 4.164c-2.531 2.895-5.081 5.78-7.641 8.646-2.32 2.606-4.671 5.181-6.711 8.017-.66.968-1.37 1.907-2.04 2.875-.41.629-.8 1.278-1.28 1.857-.67.729-1.11 1.678-1.901 2.287-.58.529-.93-.38-1.25-.759-.66-.859-1.14-1.837-1.71-2.766-.97-1.517-1.92-3.075-2.67-4.712-.23-.539-.53-1.048-.77-1.588a.57.57 0 0 0-.24-.609 4 4 0 0 1-.15-.599c-.27-1.956.55-3.095 1.61-4.602 1.83-2.446 3.75-4.843 5.641-7.249 1.72-2.116 3.6-4.103 5.51-6.05.64-.729 1.27-1.468 1.88-2.226q.075-.06.12-.15c.12-.15.24-.31.36-.46.67-.588 1.211-1.307 1.891-1.886a11.4 11.4 0 0 1 2.4-1.538c2.45-1.098 5.501-1.438 7.861.08.22.15.41.33.6.51.02.02.04.04.06.07.12.139.24.269.36.408 0 0 0 .01.01.02l.02.02.02.02.02.02.02.02c.34.41.64.849.95 1.278.24.39.5.819.76 1.238.03.07.05.14.07.21.1.18.19.37.29.549.1.22.22.45.33.669.08.3.08.609-.04.918zm-62.847 76.907a90 90 0 0 0-2.65-1.657c-2.18-1.428-4.261-3.015-6.311-4.623-1.07-.928-2.16-1.727-3.21-2.705-1.41-1.278-2.801-2.586-4.231-3.854-1.57-1.358-2.99-2.896-4.58-4.234-1.73-1.377-3.651-2.655-5.791-3.294-.29-.1-.6-.17-.9-.22h-.03c-.04 0-.07 0-.11-.01-.04 0-.07 0-.11-.01-.03 0-.06 0-.09-.01h-.02c-1.31-.15-2.65.06-3.95.24-.591.06-1.141.369-1.731.389.28-1.108 1.08-1.947 2.051-2.506a5.8 5.8 0 0 1 2.42-1.008c.61-.11 1.1.07 1.66.269.73.15 1.4.49 2.11.719.75.21 1.44.609 2.211.739.28.04.59.15.86.07.04.02.08-.04.06-.08-.12-.18-.21-.399-.37-.549-.24-.23-.551-.32-.861-.459-.84-.48-1.73-.719-2.62-1.109-.4-.169-.81-.269-1.23-.379-.46-.17-.92-.349-1.42-.299-.84.019-1.67.249-2.42.629.61-.669 1.23-1.328 1.81-2.027.25-.28.49-.559.75-.829.31-.289.68-.908 1.22-.779.37.03.68.22 1.01.36 1.01.409 1.95.968 2.9 1.477.721.37 1.431.749 2.161 1.099.35.219.83.379 1.06-.09.12-.25 0-.589-.26-.699-.1-.04-.19-.09-.28-.14-.35-.17-.7-.339-1.04-.509-1.691-.839-3.291-1.917-5.111-2.456-1.07-.27-1.85.569-2.54 1.248.19-.22.38-.429.58-.639a33 33 0 0 1 2.98-2.726c.07-.06.14-.11.22-.149.02 0 .03-.02.05-.02h.03c.04 0 .08-.02.12-.03.04 0 .08-.02.11-.04 2.27.599 4.531 1.328 6.601 2.446.91.489 1.8 1.018 2.69 1.557.04 0 .09.02.13.04.08.05.16.09.24.14q.06-.03.12-.03c.09 0 .17.03.23.09l.16.13c.02.01.03.02.05.04.05.04.1.069.16.109.17.1.33.2.5.29.09.05.18.11.271.17l.12.09c.06.039.13.089.16.159.02.04.02.08.02.12 1.06.669 2.13 1.338 3.21 1.967 3.5 2.057 7.051 4.043 10.631 5.96 1.3.719 2.66 1.318 4.011 1.957 1.39.679 2.79 1.348 4.18 2.017-2.2.609-3.82 2.586-5.021 4.453-.59.928-1.02 1.977-1.44 2.995-.32.749-.64 1.498-.85 2.286-.39 1.248-.64 2.596-.64 3.924zm18.572 15.365c-.89-.059-1.73-.429-2.58-.678-1.39-.42-2.64-1.199-3.851-1.997-1.48-.939-2.97-1.897-4.2-3.165-1.19-1.078-2.22-2.306-3.4-3.385-.9-.778-1.811-1.567-2.551-2.496-.36-.609-2.12-4.173.39-9.245 1.01-2.636 2.491-5.291 4.991-6.779.61-.339 1.27-.499 1.94-.639.04.01.08.02.13.02.11 0 .21-.04.29-.1.52-.1 1.04-.21 1.54-.389.76-.21 1.521-.38 2.301-.46.59-.039 1.18-.049 1.76-.139.77-.02 1.59-.17 2.4-.17.23 0 .45.01.68.04 1.75.22 3.471.599 5.201.928 1.04.24 2.11.26 3.15.5-.68.838-1.65 1.417-2.31 2.276-1.02 1.328-1.83 2.815-2.62 4.293-1.121 1.977-2.101 4.054-2.601 6.28-.45 2.177-.92 4.373-.95 6.609-.03 1.738 0 3.495.39 5.202.19.859.45 1.707.69 2.556.24.988.18.929-.78.948z"/><path fill="#000" d="M211.834 63.708c.2-.1.13-.33.2-.51.42-1.427 1.17-2.845 2.44-3.684.63-.399 1.33-.778 2.081-.858 1.57-.05 3.29.918 3.58 2.556.41 2.026-1.81 4.672-3.67 5.241-.391.09-.861-.03-1.111-.35-.15-.398.02-.848.03-1.257.06-.35 0-.729-.26-.989-.34-.319-1.01-.818-1.36-.26-.14.23-.07.58.19.71.11.05.21.11.31.17.11.05.13.13.11.24-.02.219-.05.438-.07.658-.22 1.108.48 1.937 1.56 2.107 2.431.31 5.501-3.485 5.381-5.771-.02-3.065-3.66-5.032-6.301-3.624a6.07 6.07 0 0 0-2.98 2.805c-.3.61-1.06 2.197-.61 2.786.13.13.37.16.51.02z"/><path fill="#FED980" d="M32.754 175.169v-.13c.02.01.04.03.06.04.03.02.06.03.1.05v.02c0 .02.02.03.02.05-.06-.02-.12-.02-.18-.02zM.84 123.691c.36 11.342-.86 64.966 14.672 63.149 5.26-.619 10.39-1.837 13.281-4.762 4.41.868 9.051.878 13.552 1.088 13.181-.23 35.184-1.877 38.424-7.528s3.96-10.623 4.76-10.064c15.612.579 23.013-21.156 28.094-33.236-2.691-.5-5.351-3.754-11.622-10.863-3.29 3.125-13.351 15.675-12.781 8.047-2.96-13.508-5.48-29.303-15.752-38.967-3.73-3.515-12.681-3.425-17.332-4.324-1.65 1.248-5.14 5.901-11.661 5.671-9.191-.32-12.762-7.797-17.522-2.596-6.01 3.894-13.992 5.592-18.582 11.981-4.44 6.999-7.01 14.098-7.54 22.424z"/><path fill="#FFF7DB" d="M102.382 120.697c-1.32 1.378 10.071 11.741 11.081 11.092 2.251-4.762 4.111-10.044 7.881-13.877 5.031-4.493 13.732-4.134 16.882-10.593 2.25-4.603.07-5.052.07-5.052s3.331-3.974.48-5.621c1.72-3.515 2.961-7.558.56-6.92 1.951-5.091-5-.588-5.58 1.798-2.881 3.594-19.102 14.247-10.231 3.614 2.96-14.087-4.321-4.712-10.972 6.56-4.84 8.196-9.071 17.512-10.171 18.989zm-75.598 33.586c.41 7.398 5.99 14.786 10.521 20.327 5.911-3.843 8.571-9.914 11.472-12.959 4-5.791 7.45-11.981 11.57-17.682 4.931-5.001 12.332-7.747 14.703-14.906 3.89-7.248 2.46-15.175-3.34-3.804 1.81-4.083 1.61-8.686.1-12.829-4.111-1.927-3.801 7.818-5.311 10.393 1.05-3.584-.73-6.399-1.7-9.744-1.65-5.731-3.53 1.138-3.37 3.704-2.081 8.437-1.121 5.511-1.341-1.198-1.11-6.3-4.26-9.065-4.46-.489-1.36 3.215-6.061 20.257-9.942 13.368.07-10.603-2.32-14.536-4.14-12.889-.78 3.614-2.49 6.889-2.77 13.908.82 4.163 3.77 4.872.51 9.325-4.02 5.321-9.161 9.894-12.492 15.475zm3.57-90.824c-3.43 13.029 14.782 6.05 6.601 13.228-2.54 1.198-2.23 3.754-3.13 5.99-.49 1.209-2.77 3.505-1.55 4.354 8.15 5.59 15.801 5.81 21.652 1.747 4.16-2.895.2-7.538.6-11.482 7.09-1.357 16.152-4.752 13.822-13.977-.26-2.436-2.44-4.493-.07-6.01.3-2.307-2.82-3.365-3.82-5.172-2.311-3.884-3.191-8.457-6.832-11.662-9.41-8.286-11.871-2.296-9.5 7.229.42 5.351-5.111 4.982-8.872 6.37-3.89 1.797-1.84 5.6-1.04 8.666 1.24 3.744-1.53 3.963-3.29.958-.95-2.126-3.45-2.206-4.57-.23z"/><path fill="#0D0C21" d="M4.992 37.383c-2.12 11.99 7.88 12.1 8.03 12.849-4.7 21.755 20.803 36.551 26.334 23.692.12-.639-1.03-.789-1.07-1.588-9.592 2.037-10.582-12.52-4.471-9.983 1.02.419 1.9 1.547 3.33 3.055.35.369 1 .21 1.15-.29 1.08-3.564-4.94-8.506.15-11.042 14.692-1.917 6.341-7.309 9.712-16.723 1.2-2.397 3.49-.7 4.89-.21 1.07-1.038-1.01-2.566-1.53-3.534-5.85-6.77-14.082-5.262-21.523-3.245-6.73-9.525-23.282-3.475-25.002 7.019"/><path fill="#FED980" d="M51.998 48.962c-2.45 4.583 2.68 14.697 7.99 11.123 5.151-3.115-2.52-14.817-7.99-11.123m10.13-4.273c-.71 1.258 1.45 3.843 1 5.97.98 1.547 2.97 2.087 3.9 3.584 1.801 2.047 2.251-1.887 1.46-3.025-1.04-2.815-3.38-6.13-6.36-6.53"/><path fill="#fff" d="m16.624 113.519.02-.03c.23-.26.48-.51.71-.759.35-.38.71-.749 1.06-1.128l2.31-2.486c.65-.709 1.31-1.418 1.93-2.157.32-.379.64-.749.95-1.138.14-.18.28-.36.4-.549.09-.14.2-.31.19-.489 0-.07-.03-.14-.07-.2a.37.37 0 0 0-.44-.11c-.13.04-.26.14-.37.22-.22.149-.42.339-.62.519-.4.359-.8.729-1.19 1.108-.76.729-1.5 1.488-2.23 2.237-.72.748-1.45 1.497-2.16 2.246-.52.549-1.03 1.098-1.56 1.637-.3.3-.3.799 0 1.099.15.149.36.229.57.229.2 0 .39-.07.53-.219zm2.129 22.643c1.14-.269.46-1.368.35-2.126-.46-2.397-.89-4.793-1.46-7.169-.28-1.498-.21-3.035-.63-4.503-.05-.289-.31-.629-.58-.309-.21.429-.09.938-.1 1.398.03 1.038-.1 2.076 0 3.105.16 1.487.48 2.945.7 4.422.16.969.35 1.927.51 2.896.09.549.22 1.098.36 1.637.07.4.46.699.86.639zm-11.372-2.116c.63-2.586 1.35-5.162 1.88-7.778.16-.868.52-1.727.58-2.605-.35-1.039-1.48 2.086-1.57 2.376-.64 2.097-1.34 4.183-1.92 6.3-.11.409-.22.818-.35 1.228a.75.75 0 0 0 0 .569c.24.629 1.21.569 1.38-.09m5.94 14.996c.38-.05.68-.419.62-.809-.36-2.076-.5-4.183-.89-6.25-.12-.589-.38-1.148-.51-1.737 0-.329-.32-.629-.61-.369-.34.429-.11 1.048-.04 1.537.14.719.17 1.468.22 2.177.09 1.228.18 2.456.29 3.684.04.379.08.769.11 1.148.03.389.44.659.81.609zm.761 13.888a.41.41 0 0 0-.34-.4c-1.71-.938-3.4-1.977-4.91-3.225-.48-.409-1.28.06-1.17.669.03.22.16.41.35.53.39.239.77.499 1.15.748.85.549 1.76.989 2.63 1.498.55.279 2.09 1.248 2.28.18zm5.301-8.438c.33-.079.47-.389.6-.668.2-.4.43-.779.66-1.159.73-1.198 1.46-2.386 2.04-3.664.19-.409.37-.828.62-1.208.06-.14 0-.309-.15-.359-.63-.17-1.01.799-1.34 1.208-.85 1.388-1.83 2.596-2.72 3.944-.18.279-.37.559-.54.848-.33.539.21 1.258.82 1.068zm8.151-16.743c1.27-1.657 2.4-3.435 3.76-5.032 1.1-1.478 2.06-3.055 3.19-4.503.16-.239.37-.469.39-.769.01-.199-.23-.349-.41-.249-.23.18-.42.419-.65.619-1.27 1.238-2.27 2.715-3.42 4.053-.72.769-1.45 1.538-2.06 2.407-.59.818-1.29 1.547-1.86 2.386a.78.78 0 0 0-.12.778c.18.45.79.609 1.16.31zm45.314-31.578c.12-.04.22-.12.29-.23.08-.15.02-.389-.16-.429-.04-.08-.15-.11-.21-.06-1.53-.909-2.96-1.987-4.44-2.975-1.16-.729-2.51-1.109-3.65-1.897-.36-.23-.71-.46-1.07-.68-.85-.478-1.61.78-.76 1.299.72.409 1.41.878 2.16 1.258 1.04.509 2.17.828 3.15 1.467.97.609 2.01 1.268 3 1.748.53.239 1.09.639 1.69.499m-37.703 8.785a75 75 0 0 0 2.43-4.722c.34-.719.87-1.368 1.09-2.137.05-.249-.21-.479-.43-.309-1.81 1.877-2.87 4.313-4.32 6.45-.47.808.75 1.527 1.24.718zm-2.872-14.496c0-.38-.3-.68-.51-.979-.48-.619-1-1.198-1.53-1.777-.99-1.068-1.96-2.147-3.01-3.165-.33-.33-.67-.669-.99-1.018-.22-.23-.35-.58-.69-.66-.7-.199-1.21.69-.7 1.199.67.709 1.43 1.328 2.14 1.997 1.55 1.547 3.18 3.025 4.65 4.652.21.23.65.06.63-.259zm17.584 13.437c.18-.169.24-.439.2-.678-.09-1.748-.39-3.475-.42-5.222a38 38 0 0 0-.36-3.504c-.04-.27-.02-1.119-.48-.789-.36.868-.17 1.877-.22 2.795-.07 1.638-.12 3.275.01 4.912.03.659.02 1.318.02 1.967-.02.629.82.979 1.25.519m30.703 36.512c.39-.349-.24-.818-.39-1.138a72 72 0 0 0-2.72-3.784c-.52-.729-1.08-1.438-1.61-2.176a.67.67 0 0 0-.47-.27c-.62-.1-1.07.669-.67 1.158q1.665 1.947 3.3 3.924c.44.449 1.94 2.795 2.57 2.296zm.21-19.338c.81-1.457 1.91-2.636 2.96-3.874.71-.968 1.44-1.926 2.13-2.915.53-.719-.16-1.448-.76-.669-.83.879-1.59 1.837-2.37 2.766-1.15 1.228-2.31 2.456-3.2 3.884-.58.838.7 1.677 1.24.808m-20.272 31.808c.16-.989.5-1.937.66-2.936.15-.838.24-1.677.41-2.516.24-1.098.52-2.196.67-3.314.03-.17.07-.35 0-.509-.07-.17-.3-.24-.45-.13a.28.28 0 0 0-.15.17c-.19.369-.32.758-.45 1.158-.47 1.467-.95 2.925-1.19 4.443v-.06c-.22 1.158-.66 2.246-.94 3.384-.22.999 1.24 1.308 1.43.29zm19.142 9.935c.2-.239.05-.509-.08-.729-.27-.549-.53-1.108-.81-1.657-1.04-1.987-2.12-3.954-3.341-5.831-.57-.739-1.71.13-1.14.879.6.759 1 1.468 1.5 2.266.8 1.288 1.55 2.606 2.32 3.914.33.469.83 1.837 1.55 1.158m-34.212 7.568c.6-.17.61-1.009.87-1.488.43-1.168.91-2.326 1.3-3.514.17-.479.37-.959.58-1.428.09-.22.22-.499.08-.729-.14-.249-.6-.14-.6.14-.96 1.208-1.38 2.716-2.09 4.064-.31.638-.58 1.297-.93 1.906-.33.52.21 1.219.8 1.039zm20.093-1.348c.05-.09.02-.19-.04-.269-.46-.659-.99-1.258-1.54-1.847q-1.408-1.468-2.831-2.936c-.45-.479-.93-.928-1.32-1.457-.31-.44-1.07-.24-1.12.299-.07.519.54.819.83 1.118 1.2 1.069 2.36 2.177 3.53 3.265.54.499 1.08 1.009 1.63 1.508.23.159.59.609.85.309zm38.112-30.103c1.02-2.436 1.3-5.122 1.83-7.687.32-1.568 1.141-3.036 1.271-4.643.02-.26-.25-.509-.481-.32-.2.3-.24.689-.4 1.019-.59 1.398-1.28 2.775-1.65 4.253-.35 1.478-.65 2.945-1.09 4.383-.22.739-.4 1.508-.74 2.206-.51.809.71 1.608 1.24.799zM91.661 143.4c.61-.509 1.3-.898 1.96-1.327.86-.589 1.68-1.228 2.55-1.798.52-.339 1-.828 1.61-.988.11-.01.21-.08.25-.18.07-.139.01-.309-.11-.399-.51-.29-1.12.08-1.59.3-.95.529-1.96.988-2.87 1.607-.89.529-1.83.968-2.68 1.557-.79.58.06 1.778.87 1.218zm3.021-10.324c.89-.369 1.81-.838 2.65-1.277.4-.24.78-.51 1.15-.789.13-.11.3-.21.35-.38.05-.129-.08-.269-.21-.249-.65.19-1.24.549-1.88.769-.81.239-1.57.629-2.41.768-.82.22-.45 1.418.35 1.149zM93.61 162.93c.6-.749.6-1.787.73-2.696.21-1.997.26-4.003.38-6.01-.04-1.068-1.56-.909-1.4.17.04 2.426.02 4.872-.18 7.288-.04.319-.1.619-.15.938-.04.08-.04.18.02.26.09.27.45.24.6.04zm-27.4-69.729c.75-.21 1.35-.698 2.05-.978.74-.33 1.5-.619 2.24-.939.65-.319 1.47-.469 1.89-1.108.07-.11.07-.27.18-.36a.17.17 0 0 0 .09-.149c-.01-.13-.17-.17-.25-.1-.09.04-.2.02-.3.05-1.93.769-3.98 1.088-5.82 2.057-.32.15-.73.16-.93.48-.37.548.23 1.297.85 1.047m-52.288 11.802c.39-1.019-1.02-1.188-1.67-1.508-1.43-.509-2.91-.868-4.32-1.457-.6-.36-1.5.029-1.07.788.28.39.85.42 1.25.679 1.13.539 2.36.839 3.53 1.278.72.18 1.74 1.158 2.28.21zm-1.71 80.47c.28-.06.48-.269.62-.509.37-.529.66-1.108.93-1.687.38-.809.84-1.578 1.22-2.387.43-.908.91-1.807 1.39-2.685.26-.459.51-.929.72-1.418.04-.09.08-.19.05-.289-.29-.59-.96.519-1.17.758-1.14 1.418-1.97 3.025-2.95 4.543-.53.859-.85 1.647-1.48 2.396-.51.509-.07 1.458.66 1.278zm9.382-15.995c1.22-.249 2.45-.319 3.7-.309 1.41-.04 2.83-.18 4.23-.38.901-.129 1.821-.309 2.591-.808.16-.1.39-.21.42-.42 0-.149-.18-.189-.26-.099-.23-.03-.46-.01-.68.03-2 .359-4.05.359-6.08.399-1.33-.04-2.65-.04-3.971.14-.38-.01-.73.309-.74.689-.02.429.37.788.79.748zm6.73 12.112c.07-.199-.06-.399-.15-.579a18 18 0 0 0-.96-1.497c-.43-.589-.89-1.159-1.29-1.778-.19-.259-.3-.609-.63-.718a.64.64 0 0 0-.8.409.62.62 0 0 0 .09.559c.48.609.98 1.198 1.51 1.777.5.559.98 1.128 1.48 1.697.17.24.61.5.77.11zm-21.753-7.069c1.24-.619 2.31-1.548 3.55-2.167.44-.199.981-.249 1.331-.599.24-.269.07-.739-.29-.778-1.39 0-2.58.758-3.74 1.417-.69.49-1.66.629-2.16 1.348-.52.899.78 1.667 1.31.789zm61.597-27.935c.89-.399.23-1.288-.01-1.897-.69-1.477-1.4-2.955-2.27-4.343-.2-.299-.6-.399-.89-.159-.57.469.48 1.877.67 2.456.37.778.74 1.557 1.09 2.336.33.599.45 1.897 1.41 1.597zm-39.943-26.269a.42.42 0 0 0-.01-.539.4.4 0 0 0-.13-.09c-1.08-.609-2.02-1.448-3.11-2.047-1.25-.778-2.621-1.367-3.761-2.306-.46-.389-1.21 0-1.14.599.05.679 1.79 1.338 2.36 1.677.84.42 1.68.849 2.5 1.298.68.38 1.34.809 2 1.218.37.2.94.599 1.3.19z"/><path fill="#000" d="M55.907 86.902h.07c.27-.05.45-.32.41-.59-.14-.828-.28-1.667-.42-2.505-.23-1.378-.49-2.746-.69-4.124-.06-.01-.12-.06-.13-.12-.05-.25-.09-.509-.12-.758 0 0 0-.05-.01-.07 0 0 0-.06-.01-.09a.12.12 0 0 1-.05-.07v-.02s0-.05-.01-.07c0-.01-.01-.03-.01-.05 0-.07-.02-.14-.03-.21v-.08h-.04l-.02-.01h-.64c.16.92.3 1.848.41 2.786.15 1.118.32 2.237.49 3.355.09.559.18 1.108.26 1.667.06.41.07 1.039.59 1.039h.03-.01zM39.714 137.4s-.01.02-.02.03c0-.01.01-.02.02-.03m96.032-32.288h.02c.29-.18.59-.37.88-.549.02-.01.02-.03.01-.05s-.03-.02-.05-.01c-.29.179-.59.369-.88.549-.03.02-.01.07.02.07zM24.574 126.608s.06-.03.06-.06-.03-.06-.06-.05c-.03 0-.06.03-.06.06s.03.06.06.06zm75.499 31.839c.38-.2.66-.549.97-.849.89-.879 1.69-1.857 2.39-2.895.11-.17.211-.36.331-.529.06-.11.28-.32.12-.42a.09.09 0 0 0-.12.07c-.05.16-.19.28-.281.419-.8 1.149-1.89 2.087-2.9 3.026-.24.239-.46.429-.74.619a.29.29 0 0 0-.19.259c-.02.18.14.33.31.33.03 0 .07 0 .11-.02z"/><path fill="#000" d="M102.391 156.05c.54-.609 1.04-1.258 1.35-2.016.02-.03.01-.07-.02-.1-.09-.06-.13.09-.17.14-.38.669-.96 1.188-1.49 1.737-.11.16.01.319.16.319.06 0 .12-.03.17-.09zM54.329 78.885h.62v-.09c0-.02 0-.05-.01-.07a.12.12 0 0 1-.05-.07v-.02s0-.05-.01-.07c0-.01-.01-.03-.01-.05 0-.07-.02-.14-.03-.209v-.05c-.18-.38-.37-.749-.53-1.128-.1.05-.19.1-.3.13-.03 0-.06.02-.09.02h-.01l-.2.03h-.12c.12.379.29.758.38.988.1.22.21.45.31.679h.02zm-19.393.329.06-.03.06-.03.06-.02h.03s0-.04.02-.06c.07-.19.18-.38.32-.53.04-.04.08-.07.12-.11l.09-.06c-.06-.199-.13-.408-.15-.608 0-.08-.03-.17-.12-.2-.23-.08-.37.19-.42.38-.09.419-.11.848-.12 1.267l.04-.02zm13.07-41.594s.03-.03.02-.049c0-.02-.03-.03-.05-.03s-.03.03-.03.05.03.03.04.03z"/><path fill="#0D0C21" d="M13.474 50.67s.08-.03.11-.05c.12-.07.2-.18.24-.31s.02-.279-.06-.399a.53.53 0 0 0-.31-.24 12.3 12.3 0 0 1-2.77-.928 10 10 0 0 1-1.17-.669 12 12 0 0 1-1.04-.788c-.29-.26-.56-.52-.82-.81q-.171-.189 0 0s-.05-.06-.07-.08a10 10 0 0 1-.73-.947c-.22-.34-.431-.69-.621-1.049-.19-.38-.35-.769-.49-1.168-.14-.42-.26-.849-.35-1.288-.08-.42-.13-.849-.17-1.278q-.045-.691 0-1.368v-.11c.04-.479.1-.948.19-1.417.11-.53.25-1.059.43-1.568a13.5 13.5 0 0 1 1.54-3.095c.36-.529.74-1.028 1.15-1.517.43-.49.89-.959 1.37-1.398.54-.47 1.1-.919 1.63-1.288.32-.21.63-.42.96-.609.33-.19.67-.38 1.01-.55.3-.149.61-.289.92-.418.301-.13.611-.24.921-.36.34-.12.68-.23 1.04-.32.36-.1.73-.18 1.1-.259.63-.12 1.27-.2 1.91-.25a14 14 0 0 1 1.8 0c.58.04 1.15.12 1.72.23.5.11.981.24 1.461.4.48.17.95.359 1.41.579.41.21.81.439 1.19.688.37.25.72.51 1.06.8.37.319.71.658 1.02.998.02.02.03.04.05.06.16.18.31.359.47.539.08.08.15.17.23.24.08.079.18.179.3.159.06 0 .11-.04.15-.08.09-.13.03-.28-.03-.41-.06-.14-.12-.269-.2-.409-.15-.26-.34-.509-.53-.748-.39-.48-.82-.919-1.29-1.328-.34-.29-.69-.55-1.06-.799 0 0-.01 0-.02-.02-1.28-.839-2.74-1.398-4.24-1.687-1.55-.3-3.15-.33-4.72-.12-.31.04-.62.09-.91.15-.02 0-.05 0-.06.01h-.05s-.06.01-.08.02q-1.155.242-2.281.649c-.76.27-1.49.609-2.21.978-1.38.719-2.64 1.657-3.77 2.726a16 16 0 0 0-2.821 3.574c-.39.669-.73 1.378-1 2.106-.28.74-.49 1.488-.64 2.257-.09.45-.14.898-.18 1.318-.05.779-.05 1.567.06 2.346.05.39.12.769.21 1.148.1.4.22.799.36 1.188a10.4 10.4 0 0 0 2 3.355s.04.05.05.06.02.03.04.04c.28.31.58.599.85.828.57.49 1.18.929 1.84 1.298.62.35 1.27.65 1.95.879.54.19 1.09.34 1.65.46q.135.03.27 0h.02z"/><path fill="#000" d="M64.427 67.383c2.58-1.278 1.1-4.473-1.35-3.415-1.94.839-.74 4.323 1.35 3.415m-1.33-1.638c-.11-1.218 1.26-1.567 1.67-.389.26 1.158-1.52 1.657-1.67.39m5.871-14.528c-.59-1.957-1.7-3.724-3.14-5.171-.87-.83-1.96-1.518-3.17-1.698-.36-.03-1.12-.18-1.16.33 0 .21.2.28.37.3.1.03.24.189.33.07 2.63.478 4.66 3.454 5.56 5.81.49 1.428.83 2.246-.21 3.534-.23.41.18.829.57.739a.5.5 0 0 0 .2-.1c1.06-1.078 1.17-2.436.65-3.804zm-5.87-1.487c-1.14-.1-2.32.38-2.95 1.358-.02.02-.04.05-.06.08q-.6-.842-1.35-1.548a8 8 0 0 0-.43-.37c-.641-.558-1.371-1.037-2.131-1.487-.71-.37-1.53-.529-2.32-.35-.36.07-.74.09-1.04.31-.39.22-.69.56-1 .879-.21.2-.42.4-.54.669-.02.05-.05.11-.08.18q-.135.242-.24.499c-.38.918-.48 1.937-.42 2.855.08 1.158.37 2.306.84 3.375.02.04.04.08.06.13l-.26.06c-.27.07-.55.16-.82.239-1.23.39-2.451.799-3.671 1.218l-3.63 1.258c-1.22.43-2.44.849-3.661 1.278-.34.12-.67.24-1.01.36-.3.11-.61.22-.91.319-.15.05-.29.1-.44.15-.28.1-.55.19-.83.29-.53.189-.73.229-1.26.419-.06.02-.13.04-.19.07-.27.09-.4.419-.29.668.05.13.15.23.27.29.11.05.23.06.34.03h.03c.01 0 .02 0 .03-.01.96-.34 1.6-.54 2.56-.879.43-.16.87-.31 1.3-.469.6-.21 1.2-.42 1.8-.639 1.23-.44 2.46-.879 3.7-1.318 1.2-.43 2.4-.868 3.61-1.308a118 118 0 0 0 1.741-.649c.57-.22 1.14-.429 1.7-.679h.04c.05-.04.1-.06.15-.08.4.77.89 1.488 1.47 2.137.3.34.61.659.91.899a7.7 7.7 0 0 0 1.51 1.038c.56.29 1.15.51 1.771.609.15.02.29.04.45.05.4.03.82 0 1.21-.1.05-.01.1-.03.15-.04.18-.05.35-.12.52-.2.29-.14.56-.319.81-.529.23-.2.45-.429.62-.689.18-.26.33-.539.46-.828.12-.28.21-.57.28-.869.14-.579.18-1.188.16-1.777-.04-1.208-.35-2.386-.83-3.494-.07-.17-.15-.34-.23-.5 0 0 0-.01-.01-.02 0-.01-.01-.02-.01-.02-.02-.03-.03-.06-.04-.08l-.21-.389c.13-.25.29-.469.49-.699.54-.669 1.45-.788 2.25-.818.32.01.82-.13.61-.54-.21-.289-.63-.289-.96-.339zm-2.74 9.675a2.4 2.4 0 0 1-.46.539c-.08.07-.17.14-.26.21-.1.07-.21.13-.31.19-.11.049-.22.099-.33.139-.1.03-.21.06-.31.08-.13.02-.25.04-.38.05h-.441c-.16-.01-.31-.03-.47-.06-.17-.04-.33-.08-.49-.13a9 9 0 0 1-.65-.26 9 9 0 0 1-.67-.379c-.26-.17-.5-.35-.73-.55-.02-.01-.03-.03-.05-.04a9 9 0 0 1-.76-.748c-.29-.32-.55-.659-.8-1.018a10.5 10.5 0 0 1-1.2-2.376 9 9 0 0 1-.33-1.209 7 7 0 0 1-.14-1.008v-.07a6 6 0 0 1 0-.858c.02-.25.05-.49.09-.74.04-.199.09-.399.16-.588.05-.14.11-.29.17-.43.07-.13.14-.26.22-.379.08-.11.16-.22.24-.32.08-.08.16-.17.24-.25.08-.069.17-.139.25-.199.09-.06.18-.12.28-.17.11-.05.21-.1.32-.14.12-.04.25-.07.38-.1.12-.02.23-.039.35-.049.13 0 .26-.01.39 0 .07 0 .13.02.2.02h.08c.18.07.36.13.53.2.58.32 1.18.629 1.71 1.018 0 0-.02-.01-.03-.02-.02-.01-.03-.02-.05-.03.76.5 1.41 1.288 1.93 1.977a7.56 7.56 0 0 1 1.58 3.195c.19.729.37 1.497.39 2.256v.04c-.02.26-.05.52-.1.769-.04.19-.09.38-.15.559-.06.17-.13.33-.2.49a4 4 0 0 1-.21.369z"/><path fill="#000" d="M54.279 56.99c-.48-.4.72-1.498 1-1.838.65-.729 1.34-1.448 2.19-1.907.26-.15.52-.3.79-.41.62-.219.97.72.35.95-1.38.518-2.37 1.637-3.39 2.655-.27.24-.5.879-.94.56zm-1.4-3.066c-.34-.45.17-1.558.32-2.077.21-.559 1.62-2.516 2.24-1.677.18.26.08.609-.19.759-.45.369-.9.778-1.12 1.328-.14.429-.31.878-.35 1.337 0 .45-.61.66-.9.32zm10.608-6.539c-.19-.25.02-.64.19-.85.21-.269.54-.408.85-.518.64-.19.86.778.19.868-.12 0-.25.02-.37.07-.16.07-.31.19-.39.35-.04.22-.36.28-.48.09zm-.579 3.185a.52.52 0 0 1 .28-.67c.12-.039.21-.119.31-.199.13-.16.35-.2.52-.29.34-.14.86-.429 1.11-.01.31.58-.88 1.199-1.33 1.348-.31.2-.74.21-.9-.18z"/><path fill="#0D0C21" d="M139.717 95.498c.69-1.048 1.02-2.306 1.17-3.544.01-.66.21-1.418-.18-2.007-.15-.22-.36-.37-.59-.45.33-.928.63-1.756-.09-2.605-.81-.839-2.991.49-3.771 1.018-.45.29-.76.72-1.12 1.109-.62.608-1.08 1.347-1.69 1.956-1.46 1.348-2.8 2.826-4.341 4.074-.71.499-1.44.968-2.17 1.428-.8.429-1.66.738-2.43 1.228-.98.509-1.86 1.248-2.93 1.567-.03 0-.06.02-.09.02 1.14-2.057 2.2-4.183 2.82-6.46.27-.898.51-1.837.38-2.775-.05-1.348-.98-3.634-2.58-2.247-1.06.889-1.951 1.967-2.851 3.016-.83.848-1.53 1.817-2.1 2.865-.57 1.058-1.36 1.977-2.05 2.955-.53.76-1.05 1.538-1.58 2.297-1.921 2.665-3.741 5.451-4.811 8.576-.12.359-.23.729-.33 1.098-.05.03-.08.09-.1.16-.08.229-.18.559-.25.779-.21.639-.43 1.268-.72 1.877-.55 1.028-1.07 2.076-1.68 3.075-.34.509-.69 1.008-1.02 1.517-1.25 1.947-2.371 3.984-3.821 5.801a52.4 52.4 0 0 1-7.02 7.019c-.42.359-.88.659-1.32.998q-.33.272-.66.559c-.09.12-.22.2-.34.29 0 0-.02.01-.02.02-.35.299-.7.589-1.07.858-.05.03-.1.07-.14.1-.04-.379-.421-3.644-.531-4.413-.33-2.076-.7-4.153-1.29-6.17-.23-.849-.5-1.697-.84-2.506.26-.349-.1-1.018-.18-1.418q-.45-1.542-.93-3.085a505 505 0 0 1-3.54-10.133c-.74-2.047-1.67-4.014-2.711-5.92-.93-1.888-2.09-3.655-3.39-5.302-.85-1.089-1.82-2.087-2.98-2.846-.74-.539-1.46-1.118-2.261-1.567-1.14-.62-2.41-.909-3.67-1.148a57 57 0 0 0-4.1-.64c-1.801-.23-3.601-.409-5.411-.479-.5-.05-1-.12-1.5-.15-.08 0-.18-.01-.27-.01v-.02h-.04c-.04 0-.08-.02-.12-.04-.01 0-.02-.02-.04-.03-.03-.169-.06-.339-.11-.519-.2-1.108-.45-2.126-.62-3.204-.11-.71-.24-1.418-.31-2.127-.03-.52.05-1.038-.14-1.537-.06-.17-.12-.35-.2-.54l.49-.15c.75-.219 1.49-.429 2.22-.678.31-.11.62-.22.93-.32.33-.11.67-.22 1.01-.34.32-.119.64-.229.96-.359.31-.13.63-.26.95-.379.39-.14.78-.24 1.17-.38.22-.08.43-.16.64-.259.2-.09.4-.2.6-.3.39-.21.77-.429 1.15-.658.39-.23.76-.49 1.13-.76.25-.179.47-.399.7-.618.22-.21.42-.46.58-.65.57-.688.99-1.497 1.27-2.346.14-.429.24-.858.3-1.297.06-.43.12-.869.17-1.298.04-.43.04-.869.02-1.298-.03-.46-.07-.909-.13-1.358s-.13-.899-.25-1.328c-.11-.42-.24-.829-.36-1.248-.14-.48-.3-.948-.48-1.418-.17-.439-.37-.868-.54-1.318a6 6 0 0 1-.18-.579c.09-.03.18-.07.27-.11.21-.09.42-.21.61-.339.25-.18.5-.41.62-.699.11-.24.13-.509.06-.759-.03-.11-.07-.21-.11-.319-.33-.799-.9-1.468-1.47-2.107a22 22 0 0 0-1.67-1.697c-.57-.52-1.18-.978-1.73-1.517-.06-.07-.13-.14-.19-.22-.07-.1-.13-.21-.19-.31-.04-.08-.07-.16-.11-.24-.03-.08-.05-.169-.07-.249l-.03-.23v-.25c.03-.409.08-.818.03-1.227-.03-.22-.08-.44-.15-.65a13 13 0 0 0-.75-1.827c-.18-.379-.35-.768-.54-1.137-.4-.809-.91-1.558-1.46-2.277-.27-.35-.55-.699-.84-1.038-.27-.33-.55-.649-.86-.939a18 18 0 0 0-2.04-1.687c-.71-.499-1.47-.918-2.25-1.308-.2-.1-.391-.19-.571-.28.05-.269-.1-.608-.2-.828-.2-.43-.44-.859-.69-1.268-.53-.799-1.06-1.617-1.71-2.336-.72-.759-1.53-1.328-2.37-1.837-1.52-1.039-3.21-1.797-4.931-2.446-1.46-.48-3.02-.59-4.55-.56-1.54.09-3.051.43-4.561.72-1.49.319-2.93.788-4.34 1.357-1.14.47-2.13 1.248-3.101 1.997-1.22 1.058-2.34 2.247-3.18 3.634a41 41 0 0 1-2.49 3.644c-.6.84-1.29 1.618-2.14 2.197-1.631 1.048-3.451 1.927-4.671 3.484-1.53 2.037-2.23 5.232-2.56 7.728-.17.968-.33 1.977-.32 2.945.19 3.495 1.15 6.91 2.28 10.204.29.878.71 1.707 1.24 2.476 1.11 1.937 2.67 3.554 4.34 5.022 2.58 2.316 5.43 4.423 8.761 5.471 1.2.4 2.51.759 3.8.759.47 0 .94-.05 1.4-.16l.22-.06h.02c-.27.749-.57 1.578-.78 2.307-.27.898-.63 1.767-.9 2.665a7.3 7.3 0 0 1-.81 1.717c-.34.38-.76.68-1.21.929l-.02.02c-.38.16-.74.37-1.11.5-.89.299-1.68.808-2.43 1.367-.83.599-1.74.948-2.66 1.358-1.42.709-2.94 1.178-4.38 1.827-1.521.779-3.081 1.507-4.561 2.356-1.07.659-2.04 1.478-3.06 2.207-.77.569-1.55 1.108-2.29 1.717a16.3 16.3 0 0 0-2.711 3.025c-1.26 2.077-2.4 4.223-3.32 6.47-.68 1.757-1.5 3.464-2.07 5.261-.55 1.907-.87 3.874-1.121 5.841-.67 4.962-.92 9.974-.66 14.976.31 7.777.62 15.565 1.64 23.282.63 4.843 1.34 9.685 2.53 14.427.64 2.546.94 5.192 1.93 7.628.7 1.797 1.39 3.524 2.37 5.162 0 .179.09.369.22.499.741.619 1.701.928 2.571 1.338 1.25.599 2.18 1.138 3.48 1.138h.22c.17 0 .34-.02.52-.05 2.481-.359 5.031-.469 7.381-1.398a25 25 0 0 0 4.161-2.196c1.19-.699 2.37-1.418 3.5-2.207 1.47-.948 2.77-2.116 4.11-3.244.901-.719 1.731-1.508 2.611-2.257.12-.1.24-.199.36-.309.04 0 .09 0 .14-.02.19-.06.31-.21.34-.39a53.6 53.6 0 0 0 8.371-9.365c1.13-1.597 2.33-3.155 3.44-4.762 1.82-2.786 3.511-5.581 5.251-8.397a77 77 0 0 1 2.43-3.953c.56-.859 1.03-1.767 1.61-2.616.3-.459 1.36-1.597 1.47-2.177.7-.549 1.541-.998 2.221-1.527.48-.35.91-.739 1.37-1.108a32 32 0 0 1 2.54-1.568s-.02 0-.02.01c1.81-.868 3.16-2.316 4.601-3.674 1.55-1.587 2.76-3.484 3.79-5.441.76-1.478 1.24-3.065 1.73-4.653.34-1.198.58-2.416.75-3.654.12-1.208.34-2.785-.88-3.504-1.35-.619-2.68 1.308-3.24 2.316-.12.19-.23.379-.35.579.13-.719.21-1.458.23-2.186.06-2.007-.25-4.014-.8-5.951-.17-.619-.37-1.288-.83-1.757-.58-.629-1.54-.579-2.13.01-1.57 1.627-2.03 3.974-2.55 6.1-.05.23-.09.459-.14.679-.21-1.488-.62-2.955-1-4.403-.24-.858-.57-1.687-.93-2.506-.26-.569-.55-1.158-1.05-1.547-.86-.609-1.761.349-2.071 1.118-.54 1.098-.65 2.326-.77 3.524-.07.709-.16 1.418-.26 2.127-.01-.27-.03-.529-.06-.799-.2-1.508-.63-2.995-1.26-4.373-.27-.569-.67-1.048-1.06-1.537-.6-.849-1.47-1.838-2.47-.839-.44.529-.35 1.288-.46 1.927-.14 1.208-.29 2.426-.65 3.594-.56 1.767-1.371 3.435-2.071 5.152-.75 2.146-1.48 4.333-2.42 6.4-.29.559-.53 1.218-.93 1.727a6 6 0 0 1-1.31 1.028c-.28.12-.56.31-.88.3-.57-.01-1.17-.27-1.48-.759-.32-1.418-.03-2.886.04-4.333.09-1.059.09-2.117.05-3.175.02-.549 0-1.108-.13-1.647-.12-.54-.35-1.039-.571-1.538-.32-.799-.77-1.538-1.38-2.147-.42-.409-.93-.778-1.52-.908-.76-.13-1.51.379-1.71 1.108-.21.599-.23 1.238-.3 1.867a20 20 0 0 1-.67 3.265c-.38 1.627-1.11 3.145-1.38 4.792-.49 2.576.27 5.282 1.64 7.468.04.07.08.13.12.2.02.02.03.04.05.06.01.02.02.03.04.05 0 .01.02.03.02.04.01.02.03.05.04.08s.03.059.04.079c.03.05.06.1.08.16v-.02c.03.05.05.11.07.16l.03.19c.02.119.02.229.03.339 0 .05.01.11.01.16v.299c0 .06-.02.12-.02.18 0 .05-.01.1-.02.15-.05.229-.12.469-.2.689l-.06.149-.18.42c-.04.08-.07.15-.12.219-.05.08-.1.16-.16.24-.14.21-.27.409-.42.609 0 .01-.02.02-.03.03-.08.1-.22.29-.33.429l-.08.1-.03.03c-.01.01-.02.02-.02.03-2.721 3.215-5.241 6.6-8.072 9.724-1.59 1.788-3.2 3.575-4.77 5.382.17-2.676.47-5.342.52-8.027.06-2.137.01-4.233.08-6.35.04-1.637-.06-3.275-.13-4.912-.04-1.678-.03-3.355-.16-5.022-.09-1.228-.1-2.476-.24-3.704a.35.35 0 0 0-.34-.24c-.51.05-.37.809-.4 1.168 0 1.648.08 3.285.13 4.932 0 1.248-.01 2.486.05 3.724.13 2.307.06 4.613.02 6.929 0 3.415-.11 6.829-.5 10.214-.01.839-.1 1.687-.11 2.526a102 102 0 0 0-4.07 5.042c-.12.16-.11.379.04.519l.02.02c.15.13.37.13.52 0 .7-.619 1.33-1.308 1.94-2.017.02.27.04.539.07.809.37 2.656 1.28 5.192 2.36 7.638.77 1.647 1.71 3.214 2.57 4.822.6 1.038 1.1 2.126 1.65 3.185.31.509.72.958 1.09 1.418.47.539.91 1.108 1.38 1.647.14.13.25.299.4.409-.98.829-1.99 1.638-3.07 2.326-1.13.789-2.33 1.478-3.51 2.187-1.17.759-2.42 1.388-3.71 1.927-1.74.679-3.61.888-5.451 1.088-1.09.15-2.23.449-3.32.12-.59-.17-1.12-.479-1.68-.749-.8-.379-1.65-.679-2.401-1.148-.18-.3-.36-.599-.53-.899-.74-1.278-1.28-2.675-1.83-4.033-1.1-2.526-1.41-5.242-2.07-7.887-.93-3.754-1.59-7.568-2.12-11.392-.68-4.703-1.18-9.435-1.47-14.177-.21-2.926-.32-5.861-.44-8.796-.13-3.045-.29-6.091-.22-9.136.07-2.735.29-5.471.65-8.187.14-1.367.35-2.735.62-4.093.31-1.867.96-3.644 1.71-5.371.46-1.079.87-2.177 1.35-3.255.78-1.697 1.67-3.335 2.61-4.952.62-.979 1.38-1.797 2.19-2.616 1.21-1.118 2.57-1.977 3.87-2.965.83-.64 1.57-1.188 2.47-1.678.78-.419 1.581-.788 2.361-1.198.79-.419 1.59-.828 2.42-1.168 1.26-.46 2.48-.988 3.69-1.567.59-.27 1.19-.52 1.741-.859.16-.1.32-.2.47-.31.68 1.089 1.57 2.037 2.56 2.846.55.44 1.12.839 1.72 1.208.61.37 1.24.689 1.89.978.63.29 1.29.53 1.94.75.681.219 1.361.409 2.061.568a24.3 24.3 0 0 0 5.57.6c.41 0 .82 0 1.23-.03.531-.02 1.061-.06 1.581-.12 1.39-.15 2.77-.4 4.11-.77 1.36-.368 2.7-.848 3.981-1.467a18.7 18.7 0 0 0 3.58-2.226c.3-.24.58-.49.82-.709.5-.46.96-.959 1.38-1.488.21-.26.4-.539.58-.828.18-.29.35-.58.5-.889q.135-.285.24-.569c.03-.09.06-.2.04-.3 0-.05-.03-.09-.06-.13.69.08 1.391.18 2.081.27 1.44.18 2.89.39 4.31.68 1.09.219 2.19.428 3.22.868.791.34 1.491.858 2.171 1.368.72.549 1.49 1.038 2.13 1.687 1.37 1.468 2.56 3.125 3.6 4.852.68 1.278 1.38 2.546 2.011 3.854 1.4 2.835 2.26 5.811 3.3 8.776.64 1.987 1.48 3.914 2.07 5.92q-.87-1.42-1.77-2.825c-.74-1.108-1.65-2.107-2.37-3.235-.04-.06-.03-.13-.11-.16-.05-.02-.11 0-.14.05-.32.4 1.35 2.906 1.67 3.385.85 1.338 1.6 2.775 2.41 4.133.45.819.92 1.628 1.26 2.496 1.02 2.766 1.55 5.671 2 8.576.551 4.084.911 8.177.781 12.291-.01 2.126-.06 4.253-.34 6.37-.26 2.376-.48 4.752-.95 7.098-.4 1.987-1.12 3.884-1.77 5.791-.63 1.697-1.17 3.414-1.72 5.132h-.01c-.04.129-.08.259-.12.399-.02.08-.05.16-.07.23v.06c0 .02 0 .039-.01.059-.01.05-.02.1-.03.16l-.03.15c0 .03-.01.06-.02.08-.01.04-.03.07-.05.1l-.03.03c-.43 1.347-.86 2.695-1.34 4.033-.26.759-.51 1.518-.83 2.247-.37.818-.85 1.587-1.19 2.416a6 6 0 0 1-.291.699.526.526 0 0 0-.02.678c.1.12.24.18.39.18h.02c.11 0 .22-.04.3-.12a.63.63 0 0 0 .21-.299c.16-.32.27-.649.41-.969.24-.519.52-1.018.78-1.537.6-1.138.95-2.366 1.39-3.574.36-1.009.68-2.027 1-3.046.27.13.67.13.94.13.65 0 1.31 0 1.95-.11 1.741-.159 3.421-.758 4.901-1.687 1.75-1.098 3.45-2.206 4.971-3.584a25 25 0 0 0 3.42-3.764c.08-.11.16-.22.23-.33.18-.219.36-.449.54-.678.46-.56.941-1.099 1.341-1.708.06-.08.11-.159.16-.249.56-.899 1.09-1.797 1.6-2.726 1.14-1.927 2.12-3.944 3.11-5.96.44-.999.97-1.947 1.44-2.926.68-1.417 1.31-2.865 1.971-4.283 1.95-4.513 3.36-9.255 5.62-13.628.79-1.567 1.54-3.185 2.6-4.543.721-.868 1.491-1.707 2.391-2.396.9-.619 1.88-1.088 2.83-1.607.99-.539 2.05-.939 3.07-1.428 1.141-.529 2.261-1.098 3.421-1.597.62-.28 1.21-.619 1.84-.869.5-.19 1-.379 1.45-.669 1.45-.918 2.77-2.097 3.571-3.634.78-1.168.99-2.576 1.05-3.944.06-.759.06-1.847-.43-2.346.06-.09.12-.18.17-.28.77-1.437.94-3.254.32-4.782a1.8 1.8 0 0 0-.48-.609c.01-.02.03-.05.04-.07.15-.24.33-.47.49-.699v.02zM27.504 153.525c4.47-4.962 8.781-10.114 12.791-15.445 0-.01.02-.02.02-.03a5.2 5.2 0 0 0 .72-1.777c0-.02 0-.04.01-.06 0-.04.01-.09.02-.13v-.06c0-.06.01-.11.01-.17v-.758c0-.12-.01-.23-.02-.34v-.02c0-.07 0-.14-.01-.219v-.04c0-.06 0-.11-.01-.17 0-.1-.01-.21-.02-.31v-.04c0-.069-.01-.129-.02-.189-.02-.11-.05-.21-.08-.32-.03-.07-.05-.139-.08-.209-.01-.02-.03-.04-.04-.06-.36-.539-.65-1.118-.91-1.718-.86-2.066-1.06-4.073-.47-6.23.87-2.655 1.77-5.291 1.95-8.087.25-2.386 1.96-.728 2.66.41.431.858.891 1.747 1.041 2.705.06.709.02 1.418.06 2.127 0 1.288-.14 2.576-.22 3.864v.19c0 .129-.02.249-.02.379v.609c0 .09.02.17.03.26 0 .059.02.119.03.189.02.1.04.2.08.3v.01c.02.07.05.139.07.219.05.15.12.29.18.43.08.159.16.319.26.469l.09.15s0 .01.01.02v.01c.01.02.02.03.03.04l.02.02c.02.029.04.049.06.079l.12.15.08.08c.05.06.1.11.16.16.03.02.06.04.08.07.02.01.03.03.05.04a.3.3 0 0 0 .08.04c.01 0 .02.01.03.02.12.059.24.109.36.159l.12.03h.02s.06.01.09.01c.11 0 .21.01.32.02h.14c.11 0 .21-.02.32-.04.09-.01.19-.02.28-.04.06-.02.12-.03.18-.05.09-.03.17-.06.26-.089.08-.03.17-.05.25-.07.09-.04.18-.08.27-.13.08-.04.17-.08.25-.13.07-.05.15-.1.22-.14s.13-.08.2-.13c.12-.099.21-.219.33-.319.01-.01.02-.02.04-.03v-.01c.6-.559 1.02-1.388 1.42-2.306.59-1.258 1.05-2.566 1.55-3.854.421-1.148.751-2.326 1.241-3.445.46-.968.83-1.976 1.25-2.975.35-.858.63-1.747.83-2.656.19-.908.28-1.837.4-2.765.15-1.388.1-1.737 1.11-.389.97 1.038 1.42 2.396 1.78 3.754.33 1.208.4 2.446.42 3.694-.08.908-.04 1.827-.19 2.725-.1.499-.21.999-.31 1.498q-.015.105 0 .209c-.15.39-.3.769-.46 1.159-.43 1.168-.8 2.356-1.29 3.504-.21.579.63.968.92.409.59-1.318.96-2.715 1.51-4.043.8-1.927 1.33-3.954 1.68-6.011.18-1.178.32-2.356.441-3.544.13-.998.32-2.616 1.18-3.215.55.559.79 1.358 1.1 2.057.34.839.57 1.717.8 2.596.28 1.148.56 2.306.73 3.484.13 1.638-.09 3.305-.57 4.842-.35 1.039-.65 2.107-1.1 3.116-.33.728-.7 1.447-.89 2.216.01.11.07.15.14.15.12 0 .28-.12.34-.21.31-.349.52-.769.77-1.158 0 0-.01.02-.02.03.68-1.009 1.11-2.137 1.51-3.275 0-.02.01-.03.02-.05.04-.04.07-.09.1-.16a69 69 0 0 0 1.42-4.852c.42-1.837.76-3.724 1.49-5.461.41-.819 1.49-3.085 2.181-1.208.49 1.418.78 2.895.93 4.383.22 2.007-.04 4.023-.59 5.96a40 40 0 0 1-.93 2.606c-.16.29-.46.689-.42 1.029-.4.938-.84 1.867-1.31 2.775-.31.639-.68 1.238-1.02 1.867-.11.24-.62 1.008-.29 1.048.53-.229.81-.778 1.17-1.198.57-.739 1.02-1.557 1.49-2.366.46-.829.87-1.687 1.23-2.556a.2.2 0 0 1 .04-.06c.76-1.288 1.4-2.635 2.13-3.943.58-.949 1.06-2.017 1.96-2.706.38-.28.55-.34.81.13.29.868.07 1.857-.03 2.745a28.4 28.4 0 0 1-1.97 6.69c-.76 1.687-1.78 3.214-2.88 4.682-.75.959-1.66 1.777-2.56 2.596-.56.509-1.11 1.048-1.76 1.458-1.61.948-3.3 1.787-4.681 3.065-.86.768-1.96 1.258-2.67 2.186-.11.14-.21.33-.14.509 0 .03.02.05.04.08-.02.02-.03.04-.05.05-.56.639-1.18 1.238-1.65 1.947-.96 1.498-1.99 3.005-2.93 4.513-1.651 2.785-3.441 5.491-5.131 8.257-1.2 1.956-2.63 3.764-3.97 5.631-2.511 3.614-5.381 6.958-8.672 9.874-.11-.13-.22-.26-.33-.38-.63-.669-1.24-1.348-1.74-2.096-2.24-3.535-4.55-7.039-6.41-10.793-1.01-2.097-1.741-4.313-2.271-6.569-.02-.06-.04-.14-.07-.22.23-.26.47-.529.72-.779zm3.87 21.665c-.64-.699-.94-1.597-1.39-2.416-.42-.769-.85-1.547-1.27-2.306-.57-1.028-1.15-2.027-1.69-3.065-1.14-2.237-2-4.573-2.66-6.979-.23-.759-.33-1.557-.52-2.336-.02-.05-.03-.1-.04-.15.63-.769 1.24-1.567 1.87-2.346.06-.04.1-.1.13-.17.17-.21.34-.409.51-.609.32 3.135 1.56 6.11 3.06 8.856a69 69 0 0 0 2.95 5.062c1.29 1.937 2.32 4.063 3.971 5.721.18.189.35.379.52.579l-.4.339c-.86.759-1.72 1.528-2.61 2.256-.09.07-.18.15-.26.23-.13-.26-.41-.499-.57-.699-.53-.659-1.08-1.298-1.61-1.947zM55.358 38.909c.26.17.52.34.77.519.23.17.46.34.68.52.25.209.51.428.75.648.25.23.49.46.73.699.32.36.63.719.93 1.098.29.37.58.74.85 1.118.27.4.53.8.76 1.218.22.43.42.87.62 1.298.21.45.43.899.6 1.368.09.26.18.51.251.769.02.11.04.21.05.32v.289c-.03.41-.1.819-.02 1.228.02.12.05.25.08.37s.08.25.13.369c.09.22.22.42.35.619.27.38.62.669.97.968.33.28.67.57 1 .859a22 22 0 0 1 1.3 1.268c.42.46.83.918 1.2 1.418.11.17.22.33.32.509.08.15.14.29.2.45 0 .03.02.049.02.079v.04c0 .01-.01.02-.02.03s-.02.03-.03.04l-.06.06-.18.15c-.07.05-.15.09-.22.14-.13.07-.26.12-.4.179-.16.06-.31.11-.44.21-.11.08-.19.19-.23.31a.77.77 0 0 0-.03.398c.01.09.04.18.06.27s.04.17.07.26c.2.699.53 1.358.79 2.036.15.43.29.869.42 1.308.13.43.26.869.37 1.308.12.58.19 1.168.24 1.757.02.22.03.44.04.66v.708c-.04.57-.12 1.138-.22 1.698-.05.259-.11.509-.18.758a7 7 0 0 1-.69 1.508c-.14.21-.28.41-.43.609l-.15.18c-.17.2-.36.389-.55.579-.1.09-.2.17-.3.26-.1.08-.21.159-.31.239-.65.45-1.33.838-2.02 1.218-.3.15-.6.3-.92.42-.24.08-.48.159-.73.239-.27.08-.53.18-.78.28-.48.18-.94.389-1.42.558-.4.14-.79.27-1.19.41-.41.14-.81.29-1.21.42-.69.229-1.4.428-2.1.628-.11.03-.23.07-.34.1-.05.02-.11.03-.16.05-.07.04-.14.08-.2.12-.1.06-.191.1-.301.13-.03 0-.07.02-.1.02-.02 0-.04 0-.06.01 0 0 0 .02-.01.02h-.13c-.07 0-.14 0-.22-.02h-.01c-.05 0-.1-.01-.15-.02-.02 0-.04 0-.06-.01-.1-.01-.19-.03-.29-.03-.87-.08-1.74-.1-2.6-.26-1.16-.23-2.35-.21-3.52-.43-1.02-.16-2.141-.279-3.061-.748-1.1-.55-2.18-1.118-3.19-1.807a.5.5 0 0 1-.1-.05c-.18-.13-.36-.27-.54-.4 0 0-.01 0-.02-.01 0 0-.02-.01-.02-.02-.07-.02-.13-.04-.19-.07-.02 0-.03-.01-.05-.02a3 3 0 0 1-.19-.09c-.01 0-.02-.01-.03-.02l-.15-.089c-.02-.01-.03-.02-.05-.03l-.33-.24c-.22-.17-.44-.33-.66-.499-.02-.02-.04-.03-.06-.05-.12-.1-.29-.25-.29-.25s-.12-.13-.18-.199c-.45.12-.9.25-1.37.24-.541-.07-1.081-.13-1.601-.27-.43-.16-.83-.37-1.22-.599-2.01-1.268-3.25-2.815-3.48-5.232-.06-.709-.04-1.457.35-2.066.65-.969 1.85-1.608 3.03-1.388.17.03.33.07.5.11.96 1.048 2.23 4.113 3.9 3.704.02 0 .04-.01.06-.02.13-.04.27-.1.41-.19 1.54-1.198.07-4.992-.72-6.39-.47-.808-.79-1.737-.61-2.685.22-1.099.94-2.127 1.95-2.626.9-.45 1.9-.679 2.89-.789.66-.09 1.33-.09 1.98-.22a8.3 8.3 0 0 0 1.551-.499c1.96-.818 2.74-2.446 2.83-4.482.06-1.558-.65-3.006-.76-4.543-.12-1.258.05-2.526.26-3.764.15-1.128.86-2.157 1.79-2.766.24-.18.48-.33.71-.529.04-.04.09-.08.13-.12.06 0 .12.01.18.02.46.08.92.2 1.35.37.12.05.24.1.36.14l.27.12c.971.458 1.921.968 2.841 1.527zM33.905 78.246c-1.54.4-3.16.01-4.64-.47-2.871-.878-5.461-2.605-7.702-4.552a39 39 0 0 1-2.97-2.766c-1.06-1.138-1.89-2.466-2.68-3.794-.6-1.218-.95-2.496-1.34-3.784-.7-2.396-1.3-4.862-1.42-7.368 0-.848.09-1.597.25-2.416.21-1.617.52-3.225 1.04-4.782.76-2.416 1.76-3.584 3.9-4.922 1.49-.829 2.97-1.748 3.97-3.165.72-.929 1.41-1.877 2.05-2.856.59-.928 1.15-1.877 1.84-2.735.931-1.059 1.961-2.037 3.131-2.826.82-.609 1.74-1.028 2.7-1.358 1.61-.599 3.29-.968 4.991-1.248 1.52-.31 3.07-.449 4.61-.26 1.22.1 2.37.49 3.471 1 1.31.518 2.52 1.217 3.69 1.986a9.6 9.6 0 0 1 2.82 2.626c.59.749 1.12 1.458 1.6 2.236l-.57-.24c-.15-.06-.31-.13-.46-.19-.71-.408-1.46-.728-2.29-.648-1.65.41-2.67 2.037-3.02 3.654-.27.879-.37 1.867-.47 2.935-.07.979 0 1.967.19 2.936.14.689.37 1.358.48 2.046.2 1.159.06 2.407-.52 3.435-.63.958-1.78 1.408-2.85 1.677-1.28.22-2.57.18-3.81.58-2.11.479-3.811 2.176-3.971 4.372-.18 1.708 1.01 3.065 1.54 4.603.29.819.5 1.667.48 2.536-.01 1.717-1.16.38-1.64-.29-.2-.26-.38-.529-.55-.818-.03-.01-.04-.04-.04-.07-.06-.1-.12-.2-.19-.3-.09-.08-.18-.14-.26-.22l-.28-.279-.02-.02-.02-.02-.02-.02s-.05-.05-.08-.07a2 2 0 0 0-.14-.12c-.05-.03-.1-.07-.15-.1-.07-.03-.14-.07-.21-.09 0 0-.09-.04-.14-.06-.11-.05-.22-.09-.33-.139-.06-.02-.13-.03-.19-.05-.12-.02-.23-.03-.35-.04h-.17c-.16 0-.31 0-.47-.01-.14 0-.29.02-.43.04-.12.02-.24.03-.36.05-.27.06-.53.14-.8.21-.02 0-.05.01-.07.02a4.2 4.2 0 0 0-1.46 1.377c-1.01 1.708-.39 4.154.5 5.801.92 1.478 2.36 2.616 3.92 3.355.8.38 1.71.479 2.58.539.34 0 .67-.07.99-.15.03 0 .05-.01.08-.02.03.03.06.05.1.07.22.14.39.31.59.47.14.1.28.199.41.299-.17.27-.38.529-.55.789a8.3 8.3 0 0 1-2.41 2.456c-.02.01-.04.03-.06.04l-.09.06s-.02.01-.02.02c-.07.05-.14.09-.2.14h.01c-.02.02-.04.03-.07.05-.05.03-.1.06-.14.089-.04.03-.08.05-.12.08h-.01l-.02.02c-.03.02-.06.04-.1.07s-.08.06-.12.08c-.07.05-.13.1-.2.14-.02.01-.04.02-.05.03 0 0 .01 0 .02-.01l-.13.08c-.19.11-.38.209-.58.299zm-1.41 8.307c.85-1.219 1.11-2.716 1.62-4.084.3-1.078.64-2.156.99-3.215 0-.01 0-.02.01-.03.01-.05.02-.1.04-.14v-.02c.04-.12.07-.25.1-.369l.26-.17c.02-.02.05-.04.08-.06.04-.03.07-.05.11-.07.23-.16.45-.319.68-.479a9.3 9.3 0 0 0 2.68-2.755c.16-.25.35-.48.51-.72.86.6 1.74 1.159 2.68 1.638 1.05.6 2.17 1.089 3.381 1.248.86.09 1.71.27 2.58.32.88.03 1.75.16 2.62.28.69.09 1.39.07 2.08.11.39.02.801.069 1.191 0 .06.02.13.03.2.03-.2 1.347.17 2.785.28 4.152.19 1.348.27 2.736.8 4.004 0 .08.02.15.04.22a7 7 0 0 0-.65.679c-.59.638-1.18 1.267-1.9 1.767-1.03.619-2.2 1.148-3.36 1.407-.6.13-1.19.24-1.79.32-.39.05-.77.11-1.15.2a.26.26 0 0 0-.11.07c-.62.05-1.241.07-1.861.07-1.32.05-2.62-.16-3.88-.53-.58-.15-1.19-.2-1.77-.38-.63-.199-1.24-.448-1.85-.688-1.161-.43-2.311-.879-3.361-1.538-.49-.32-1.01-.629-1.42-1.048.05-.07.1-.14.15-.22zm27.823.828c-.12.18-.24.37-.37.55-.26.379-.53.738-.82 1.088-.42.499-.87.968-1.35 1.417-.53.48-1.08.919-1.6 1.288-.65.45-1.32.859-2.021 1.238-.4.21-.8.4-1.21.58-.43.189-.87.369-1.31.538-.48.18-.97.34-1.46.48-.51.15-1.01.28-1.53.399-1.12.25-2.25.43-3.401.54-.58.049-1.15.079-1.73.099-.59.01-1.18 0-1.76-.02-1.09-.05-2.16-.17-3.24-.36a23 23 0 0 1-2.831-.708c-.78-.26-1.54-.56-2.29-.909-.62-.3-1.23-.629-1.81-1.008-.46-.31-.91-.63-1.34-.979q-.585-.495-1.11-1.048c-.29-.32-.56-.649-.81-.998-.12-.17-.23-.34-.34-.51.66-.379 1.31-.778 2-1.078.42-.21.89-.33 1.35-.33.28.03.53.18.79.28.38.3.8.55 1.2.809 1.07.669 2.25 1.128 3.43 1.567.62.24 1.24.5 1.88.7.65.199 1.32.259 1.98.429 1.27.389 2.58.519 3.901.519.32 0 .64 0 .96-.02h.34c2.27-.1 4.5-.63 6.54-1.647.64-.29 1.251-.7 1.801-1.159.34-.25.67-.519.98-.808.5-.5 1.04-1.039 1.22-1.718.07-.08.11-.17.13-.28.25.26.81.29 1.12.38.71.17 1.43.25 2.16.3.28.02.55.05.83.08-.12.07-.2.2-.27.31zm47.905 56.34c-1 2.007-1.93 4.053-3.01 6.02a92 92 0 0 1-2.15 3.734c-.431.579-.811 1.198-1.271 1.757a41 41 0 0 1-3.14 3.445c-.04.03-.08.06-.12.1-.92.798-1.85 1.607-2.79 2.386-.31.229-.63.459-.95.669-.96.669-1.94 1.308-2.99 1.807-.81.449-1.63.918-2.531 1.148-.18.05-.36.1-.55.15-.1.02-.2.04-.3.05-.14.02-.27.02-.41.03h-.05c-.26.01-.52.02-.78-.01-.24-.03-.45-.13-.68-.2-.1-.02-.21-.03-.3-.08-.04-.02-.09-.04-.13-.06-.05-.02-.1-.03-.14-.06a.13.13 0 0 1-.06-.07h-.07c.13-.399.25-.798.38-1.198 1.14-3.584 2.71-7.068 3.28-10.812.45-2.786.72-5.611.98-8.417.12-2.755.17-5.521.08-8.277a68 68 0 0 0-.21-3.194c.04.01.08.02.13.02h.02c.06 0 .12-.02.17-.04.95-.569 1.73-1.388 2.6-2.067.93-.649 1.79-1.388 2.65-2.137a73 73 0 0 0 3.541-3.474c0 .01.02.03.03.04.34.459.64.958.98 1.418 1.71 2.376 3.821 4.403 5.991 6.369.87.799 1.78 1.558 2.62 2.397.39.389.78.768 1.23 1.088.33.239 1.06.759 1.07.759a98 98 0 0 1-3.11 6.729zm4.101-9.215c-.24.639-.5 1.278-.761 1.917-.19-.25-.47-.42-.72-.61-.3-.229-.56-.499-.83-.758-1.86-2.047-4.02-3.844-5.93-5.831-1.501-1.537-2.771-3.275-3.961-5.062.57-.629 1.13-1.278 1.66-1.947.05-.06.1-.13.15-.189.811.938 1.551 1.936 2.341 2.905.79.928 1.67 1.777 2.53 2.646 1.73 1.707 3.9 4.053 6.291 4.842-.26.699-.52 1.398-.77 2.097zm26.543-38.429c-.38-.16-.811-.11-1.191.27-.68.549-1.07 1.348-1.56 2.047-.46.618-.93 1.267-1.41 1.856-.55.639-1.09 1.199-1.73 1.698-.35.299-.77.459-1.2.619-.46.219-.28.898.19.898h.09c1.61-.259 3.14-2.196 4.07-3.454.78-.998 1.28-2.257 2.341-3.005.57.409.57 1.427.58 2.076 0 .899-.24 1.748-.53 2.586-.161 0-.331.02-.531.08-.37.1-.66.35-.86.669-.3.439-.66.839-1.02 1.228-1.18 1.118-2.17 2.486-3.61 3.295-.3.16-.6.309-.92.439-.22.08-.64.13-.56.459.19.41.81.19 1.15.11.87-.249 1.65-.779 2.33-1.358.92-.838 1.78-1.737 2.64-2.615.16-.17.31-.35.45-.53.27-.279.42-.788.871-.768.19.369.12.828.13 1.228-.03.579-.07 1.168-.15 1.747-.111.908-.541 1.707-1.021 2.476-.27.439-.55.868-.93 1.228-.67.659-1.39 1.238-2.19 1.727-.83.419-1.62.659-2.42 1.088-1.55.719-3.091 1.448-4.641 2.167-.93.429-1.88.809-2.77 1.318-.94.509-1.91.968-2.77 1.607-.89.679-1.661 1.498-2.381 2.356-1.06 1.298-1.83 2.796-2.56 4.304-1.32 2.526-2.42 5.161-3.43 7.827-.06-.03-.13-.07-.19-.1-.68-.349-1.35-.749-1.951-1.238-1.29-1.018-2.43-2.186-3.56-3.364-1.03-1.059-2.02-2.007-2.92-3.155a54 54 0 0 0-1.62-2.037c-.16-.25-.37-.449-.611-.619.401-.579.771-1.178 1.161-1.767.84-1.298 1.59-2.646 2.45-3.924.49-.699 1.55-2.806 1.67-3.095.07-.16.13-.31.2-.469.11-.26.22-.529.34-.789.09-.22.19-.429.28-.649.11-.23.21-.459.32-.679.12-.23.22-.479.38-.699.74-2.895 2.24-5.561 3.921-8.017 1.32-1.817 2.51-3.724 3.89-5.501.78-1.028 1.28-2.236 2.1-3.245.46-.549.96-1.048 1.401-1.597.75-.859 1.49-1.778 2.44-2.427.43.39.54 1.009.61 1.558.11.739.01 1.468-.21 2.177-.45 1.627-1.02 3.174-1.8 4.672-.47.929-.98 1.827-1.451 2.746-.37.509.381 1.098.791.629.02-.04.04-.07.06-.11.09.01.19.02.3.02h.13c.3-.01.6-.07.76-.13.61-.17 1.15-.53 1.7-.839.47-.25 1.01-.559 1.44-.798.54-.29 1.11-.52 1.66-.78.57-.269 1.08-.638 1.61-.978 1.091-.629 2.011-1.497 2.921-2.366a47 47 0 0 0 1.89-1.837c.66-.579 1.26-1.218 1.79-1.927.42-.509.89-.978 1.33-1.467.81-.62 1.74-1.208 2.761-1.338.3.44.01.938-.12 1.397-.05.22-.18.45-.19.68-.31.17-.6.349-.831.618-.55.7-.88 1.558-1.34 2.317-.26.429-.55.848-.86 1.248-1.22 1.437-2.45 2.895-3.96 4.053-.58.41-1.17.799-1.84 1.058-.49.24-.27.939.2.939h.02s.09-.01.14-.02c.62-.18 1.15-.53 1.68-.888 1.51-1.009 2.72-2.377 3.89-3.755 1.01-1.078 1.74-2.366 2.361-3.694.17-.31.3-.658.56-.898.3-.26.95-.839 1.13-.17-.01 1.458-.42 2.895-.84 4.283-.14.44-.37.859-.48 1.308h.01z"/><path fill="#000" d="M39.254 138.05s0-.01.01-.02c0-.01.02-.03.03-.03-.01.02-.03.03-.04.05m-3.438-70.407c-.16-.12-.37-.14-.53-.26-.19-.2.15-.519.16-.758.06-.22.03-.47-.06-.67-.25-.468-.68-.798-1.02-1.197-.47-.51-.88-1.138-1.57-1.348-1.15-.4-1.84.948-1.64 1.927.11 1.098.6 2.106 1.22 3.005.6.958 1.42 1.787 2.5 2.197.23.1.54.25.77.06.08-.07.07-.19-.02-.25-.58-.38-1.16-.789-1.62-1.318-.82-1.038-1.5-2.177-1.79-3.495-.03-.379-.18-.898.17-1.178.41.08.66.48.93.76.35.439.78.808 1.12 1.257-.47.869-.28 1.777.73 2.097.62.45 1.27-.38.64-.829z"/><path fill="#FED980" d="M80.55 54.932c-5.53-28.105 20.073-31.23 41.075-28.194 6.391 4.213 8.631 23.172-2.59 23.582-12.732 5.281-29.324-6.01-37.584 4.832-.26.35-.82.22-.91-.21z"/><path fill="#000" d="M80.8 55.889s0-.018-.01-.018c0 0 0 .018.01.018m-.09-.158s.02.03.03.05c0-.02-.02-.03-.03-.05"/><path fill="#0D0C21" d="M127.204 38.251c-.54-7.717-3-13.578-11.871-12.86-3.631.05-7.261.18-10.872.6-12.28.938-24.382 4.343-24.992 18.82.08 2.096-.76 10.423 1.34 11.182 1.68.09 2.91-2.526 3.92-3.275 3.24-3.405 8.261-1.757 12.392-1.618 8.351 1.398 17.412 2.357 25.322-1.387 4.701-1.727 5.481-7.099 4.751-11.482zm-3.07 9.295c-7.381 4.912-17.022 4.194-25.383 2.776-4.82-.29-10.871-2.257-14.702 1.677-1.02.909-1.71 2.276-2.96 2.885-1.65-8.466-1.68-17.152 5.69-22.973 5.161-3.913 12.082-4.203 18.293-5.012 3.74-.399 7.49-.519 11.251-.539 5.3-.39 8.791 2.995 9.361 8.147.53 4.223 2.02 9.774-1.55 13.04"/><path fill="#0D0C21" d="M94.133 43.21c-.47-2.346.07-4.702.26-7.038-1.9 2.266-3.41 4.832-5.211 7.158-.08.06-.19.02-.22-.08 1.16-2.616 2.99-5.042 4.6-7.428.36-.43.64-.948 1.05-1.328.48-.27.87.21.85.68.05 2.276-.63 4.532-.39 6.808 2-2.286 3.751-4.792 5.741-7.088.74-.69 2.391-3.525 3.251-1.758.55 2.387-.5 4.873-.06 7.269a41 41 0 0 0 2.89-3.275c.88-.919 3.03-4.772 3.95-2.027.24 1.678.28 3.385.8 5.012 1.841-2.066 3.261-4.473 4.961-6.65.45-.558 1.32.1.87.69-1.71 2.196-3.15 4.612-5.01 6.71-2.561 2.385-2.371-4.104-2.701-5.442-5.95 6.869-7.671 10.892-6.66-1.418-1.271 1.288-2.341 2.746-3.51 4.124-.881.728-4.481 6.928-5.481 5.091z"/><path fill="#FFF7DB" d="M176.031 58.277c-11.011-12.071-41.784-4.273-49.865 1.437-15.152 14.677-2.72 21.017 12.901 21.117 8.971.06 16.952-2.666 24.973-6.97 2.73-2.615 6.071.89 8.661 1.528 1.68-.479-1.74-4.013-1.74-5.451 1.61.07 3.24-.26 4.55-1.408 3.031-2.645 3.221-7.288.51-10.253z"/><path fill="#0D0C21" d="M138.976 81.311c-1.91.01-3.821-.2-5.711-.5-1.92-.319-3.85-.578-5.751-1.008-2.57-.599-5.07-1.747-6.92-3.664-1.24-1.158-1.861-2.685-1.831-4.383 0-5.57 3.691-10.583 8.361-13.348 3.041-1.837 6.451-2.936 9.872-3.834 3.7-.989 7.43-1.867 11.241-2.346 1.96-.26 3.94-.43 5.91-.63 1.571-.15 3.141-.299 4.711-.269 3.51.13 7.011.759 10.321 1.927 2 .699 3.951 1.547 5.661 2.795a8.8 8.8 0 0 1 2.86 3.245c1.15 2.117 1.17 5.601-.25 7.598-1.66 2.366-3.19 2.806-5.791 3.604.29.74.61 1.458.941 2.177.32.689.7 1.368.81 2.136.09.41-.06.979-.55 1.049-.39 0-.791-.09-1.161-.2-1.69-.56-3.19-1.557-4.74-2.416-.85.4-1.74.739-2.54 1.248-.5.31-1.01.599-1.551.849-1.66.838-3.43 1.447-5.15 2.166-1.77.729-3.561 1.438-5.391 2.027-4.32 1.258-8.851 1.697-13.341 1.777zm-1.04-1.048c4.49.04 9.031-.39 13.381-1.518 3.471-1.028 6.771-2.536 10.131-3.864 1.64-.709 3.091-1.787 4.771-2.426.02-.07.08-.13.17-.13.04 0 .08 0 .12.01.25-.07.53.07.62.31v.02c.69.35 1.41.629 2.09.998 1 .51 2.02 1.029 3.141 1.168-.361-1.258-1.091-2.376-1.531-3.604-.28-.649-.61-1.268.25-1.617 1.151-.44 2.401-.66 3.471-1.298 2.3-1.558 3.19-3.544 2.88-6.31a5.8 5.8 0 0 0-.89-2.646c-.33-.529-.66-1.068-1.12-1.497-2.15-1.997-4.911-3.115-7.671-3.994a34.3 34.3 0 0 0-8.921-1.508c-1.85-.04-3.68.18-5.521.36-4.28.36-8.561.948-12.731 2.007-2.82.689-5.641 1.407-8.361 2.396-3.52 1.318-6.921 3.255-9.261 6.24-1.43 1.807-2.53 3.903-2.94 6.18-.23 1.278-.35 2.626.02 3.894.37 1.168 1.31 2.026 2.22 2.815 2.12 1.737 4.83 2.506 7.501 2.935 2.72.44 5.43.959 8.191 1.059z"/><path fill="#000" d="M98.58 89.486s-.02 0-.039.01c.01 0 .02 0 .038-.01"/><path fill="#0D0C21" d="M157.799 60.395c.47 2.346-.07 4.702-.26 7.038 1.9-2.266 3.41-4.832 5.211-7.158.08-.06.19-.02.22.08-1.161 2.616-2.991 5.042-4.601 7.428-.36.43-.64.948-1.05 1.328-.48.27-.87-.21-.85-.68-.05-2.276.63-4.532.39-6.808-2 2.286-3.75 4.792-5.741 7.088-.74.69-2.39 3.525-3.25 1.757-.55-2.386.5-4.872.06-7.268a41 41 0 0 0-2.89 3.275c-.881.918-3.031 4.772-3.951 2.027-.24-1.678-.28-3.385-.8-5.012-1.84 2.066-3.26 4.473-4.96 6.649-.451.56-1.321-.1-.871-.689 1.711-2.196 3.151-4.612 5.011-6.71 2.56-2.385 2.37 4.104 2.7 5.442 5.951-6.869 7.671-10.892 6.661 1.418 1.27-1.288 2.34-2.746 3.51-4.123.881-.73 4.481-6.93 5.481-5.092z"/><path fill="#FED980" d="M95.763 112.221c9.291-5.861 19.352 2.785 29.203-1.358 3.33-1.238 4.76-5.661 5.38-9.655.67-7.528-8.021-11.401-12.341-12.08-11.091-1.747-30.363-1.069-32.434 7.508-1.54 6.37 7.951 8.017 10.392 12.09.45 1.268-1.84 3.295-.21 3.485z"/><path fill="#0D0C21" d="M129.896 96.476c-1.2-2.146-2.951-4.013-5.091-5.251-2.12-1.168-4.45-1.897-6.791-2.486a36.6 36.6 0 0 0-8.45-1.089c-.901 0-1.811.03-2.711.07-2.49-.1-4.99.03-7.44.51-.96.18-1.95.299-2.871.618-.42.13-.8.25-1.21.39-.34.12-.69.24-1.03.36-.89.159-1.78.369-2.63.678-1.96.55-3.57 1.228-4.941 2.806-1.72 1.877-2.74 4.243-1.62 6.709.47 1.288 1.43 2.416 2.4 3.355.79.708 1.69 1.297 2.58 1.867.93.599 1.86 1.198 2.79 1.807.82.629 2.05 1.198 2.16 2.346 0 .998-.68 1.967-.26 2.965.16.489.69.819 1.191.659.39-.13.7-.429 1.05-.649a6.1 6.1 0 0 1 1.6-.729c1.05-.339 2.141-.579 3.241-.649 2.09-.03 4.15.42 6.19.809 1.851.409 3.691.759 5.571.978 1.2.2 2.42.33 3.63.33.36 0 .71-.01 1.07-.03.961-.03 1.911-.21 2.871-.329.98-.15 1.97-.25 2.91-.58 1.51-.449 2.63-1.587 3.741-2.635 1.98-1.837 3.05-3.694 3.1-6.43.05-.709.07-1.428.11-2.137-.02-1.477-.46-2.945-1.16-4.243zm0 5.182c-.04.958-.07 1.917-.25 2.865-.46 2.117-2.15 3.605-3.681 5.002-1.18 1.168-2.73 1.618-4.34 1.787-1.52.22-3.05.48-4.591.44-1.37 0-2.61-.23-3.95-.41-1.96-.239-3.891-.698-5.831-1.068-1.89-.339-3.81-.729-5.74-.609-2.02.21-4.09.719-5.721 1.967-.1-.389.04-.769.15-1.138.26-.869.34-1.847-.18-2.626-.52-.829-1.39-1.368-2.18-1.917-1.75-1.198-3.68-2.236-5.3-3.614-1.201-1.128-2.191-2.536-2.501-4.174-.14-.838.11-1.707.47-2.465.95-1.857 2.59-3.405 4.62-4.004.89-.27 1.63-.54 2.49-.769.72-.18 1.46-.27 2.18-.45l.13-.03c.051-.02.091-.029.141-.049.08-.03.17-.06.26-.09h.01c.17-.06.33-.11.5-.17 0 0 .05-.02.08-.02.31-.11.62-.22.92-.319.32-.11.65-.2.97-.29.02 0 .04-.01.06-.02.19-.03.37-.06.56-.08 1.521-.249 3.041-.529 4.591-.569 1.13-.05 2.25-.02 3.38.02 1.54.05 3.071.11 4.611-.08h.02c2.92.25 5.8.85 8.581 1.758 2.52.819 5.02 1.957 6.77 4.013 1.751 1.927 3.071 4.453 2.741 7.119z"/><path fill="#0D0C21" d="M122.604 103.844c.05-.11.01-.23-.06-.31-.43-.419-.71-.978-.98-1.507-.64-1.119-2.83-7.498-4.28-4.204-.09 1.338.54 2.976-.48 4.084-2.58-.799-2.99-5.97-5.561-6.75-.7-.06-1.06.71-1.06 1.309-.07.918-.21 3.993-1.01 4.432-.48-.06-.74-.629-.99-.948-.95-1.348-3.811-6.87-5.501-3.824-.34 1.118-.05 2.576-.96 3.454-1.94-.329-4.42-5.66-6.74-2.825-.7.949-1.45.55-2.39.37-.71-.17-.991.858-.29 1.068.56.13 1.12.26 1.7.28 2.11-.02 1.65-2.577 3.65-.77 1.42 1.129 3.81 4.733 5.39 1.967.61-1.018.38-2.296.79-3.344 1.821 1.038 2.621 3.265 3.871 4.852 2.96 3.015 3.58-2.786 3.6-4.762 1.61 1.647 2.18 4.043 3.731 5.73 3.11 2.846 3.76-1.857 3.28-4.133 1.08.45 2.79 6.729 4.3 5.851z"/></g></g><defs><clipPath id="a"><path fill="#fff" d="M0 0h282v211H0z"/></clipPath><clipPath id="b"><path fill="#fff" d="M0 0h282v211H0z"/></clipPath></defs></svg>
