<svg width="588" height="392" viewBox="0 0 588 392" fill="none" xmlns="http://www.w3.org/2000/svg">
    <g clip-path="url(#clip0_12582_9715)">
        <path fill-rule="evenodd" clip-rule="evenodd" d="M8.12373 164.546C30.0071 121.115 125.723 112.545 193.587 89.9869C235.367 76.0993 274.44 59.9139 322.641 60.0004C370.69 60.0865 411.278 74.741 450.896 90.4483C504.188 111.578 576.162 127.669 586.327 164.546C597.065 203.498 554.701 243.518 499.487 266.717C449.75 287.614 383.535 270.366 322.641 275.336C240.639 282.03 158.309 325.246 87.5995 300.338C14.1912 274.48 -15.9067 212.239 8.12373 164.546Z" fill="#F6F6F6"/>
        <path d="M361.642 70.5443V174.214L274.242 226.667C229.211 155.242 282.474 70.5571 361.642 70.5571V70.5443Z" fill="#CCCCCC"/>
        <path d="M361.553 70.5443C423.09 70.5443 465.223 116.964 465.223 174.214C465.223 215.515 445.62 244.442 413.568 264.032L361.553 174.214V70.5443Z" fill="#FED980"/>
        <path d="M361.642 174.214L420.307 260.199C381.81 288.521 307.26 284.958 273.42 227.091L361.642 174.227V174.214Z" fill="#FFF7DB"/>
        <path d="M361.642 70.5443C422.043 69.4253 465.312 116.964 465.312 174.214C466.624 232.043 418.892 277.884 361.642 277.884C328.483 277.203 301.601 263.684 282.603 241.291C269.239 222.216 257.972 199.797 257.972 174.214C257.226 165.841 259.297 155.204 261.766 146.342C271.464 101.555 314.051 70.5443 361.629 70.5443H361.642Z" stroke="black" stroke-width="1.88702" stroke-linecap="round" stroke-linejoin="round"/>
        <path d="M361.655 70.5443V174.214L420.513 259.941" stroke="black" stroke-width="1.88702" stroke-linecap="round" stroke-linejoin="round"/>
        <path d="M361.655 174.214L273.574 227.142" stroke="black" stroke-width="1.88702" stroke-linecap="round" stroke-linejoin="round"/>
        <path d="M370.044 216.769H332.304V239.413H370.044V216.769Z" fill="#CCCCCC" stroke="black" stroke-width="1.88702" stroke-linecap="round" stroke-linejoin="round"/>
        <path d="M373.818 239.413H328.53V245.074H373.818V239.413Z" fill="#CCCCCC" stroke="black" stroke-width="1.88702" stroke-linecap="round" stroke-linejoin="round"/>
        <path d="M373.818 211.108H328.53V216.769H373.818V211.108Z" fill="#CCCCCC" stroke="black" stroke-width="1.88702" stroke-linecap="round" stroke-linejoin="round"/>
        <path d="M353.061 228.091C353.061 224.964 355.596 222.43 358.722 222.43C361.849 222.43 364.383 224.964 364.383 228.091V239.413H353.061V228.091Z" fill="#646370" stroke="black" stroke-width="1.88702" stroke-linecap="round" stroke-linejoin="round"/>
        <path d="M351.174 202.616L370.044 211.108H332.304L351.174 202.616Z" fill="#CCCCCC" stroke="black" stroke-width="1.88702" stroke-linecap="round" stroke-linejoin="round"/>
        <path d="M351.174 202.616L351.174 193.181" stroke="black" stroke-width="1.88702" stroke-linecap="round" stroke-linejoin="round"/>
        <path d="M361.553 198.192C358.089 195.942 354.638 200.443 351.174 198.192C351.174 196.113 351.174 194.023 351.174 191.944C354.638 194.194 358.089 189.693 361.553 191.944V198.192Z" fill="white" stroke="black" stroke-width="1.88702" stroke-linecap="round" stroke-linejoin="round"/>
        <path d="M351.174 210.164C352.737 210.164 354.005 208.897 354.005 207.334C354.005 205.77 352.737 204.503 351.174 204.503C349.611 204.503 348.344 205.77 348.344 207.334C348.344 208.897 349.611 210.164 351.174 210.164Z" fill="white" stroke="black" stroke-width="1.88702" stroke-linecap="round" stroke-linejoin="round"/>
        <path d="M347.4 233.752H337.965V222.43H342.689H347.4V233.752Z" fill="white" stroke="black" stroke-width="1.88702" stroke-linecap="round" stroke-linejoin="round"/>
        <path d="M342.682 233.752V223.373" stroke="black" stroke-width="1.88702" stroke-linecap="round" stroke-linejoin="round"/>
        <path d="M337.965 226.204H347.4" stroke="black" stroke-width="1.88702"/>
        <path d="M337.965 229.978H347.4" stroke="black" stroke-width="1.88702"/>
        <path d="M431.372 140.345H393.632V168.65H431.372V140.345Z" fill="#CCCCCC" stroke="black" stroke-width="1.88702" stroke-linecap="round" stroke-linejoin="round"/>
        <path d="M425.711 153.554H418.163V168.65H425.711V153.554Z" fill="#646370" stroke="black" stroke-width="1.88702" stroke-linecap="round" stroke-linejoin="round"/>
        <path d="M412.502 153.554H399.293V162.989H412.502V153.554Z" fill="white" stroke="black" stroke-width="1.88702" stroke-linecap="round" stroke-linejoin="round"/>
        <path d="M396.181 147.893C392.746 147.893 390.184 145.108 390.932 142.173L393.312 132.797H402.907L401.515 143.716C401.208 146.098 398.915 147.893 396.171 147.893H396.181Z" fill="#CCCCCC" stroke="black" stroke-width="1.88702" stroke-linecap="round" stroke-linejoin="round"/>
        <path d="M407.128 147.893H406.994C403.789 147.893 401.295 145.461 401.65 142.676L402.907 132.797H412.502V143.196C412.502 145.788 410.093 147.893 407.128 147.893Z" fill="#CCCCCC" stroke="black" stroke-width="1.88702" stroke-linecap="round" stroke-linejoin="round"/>
        <path d="M418.01 147.893H417.875C414.91 147.893 412.502 145.788 412.502 143.196V132.797H422.097L423.354 142.676C423.709 145.461 421.214 147.893 418.01 147.893Z" fill="#CCCCCC" stroke="black" stroke-width="1.88702" stroke-linecap="round" stroke-linejoin="round"/>
        <path d="M428.833 147.893C426.089 147.893 423.796 146.09 423.489 143.716L422.098 132.797H431.693L434.072 142.173C434.821 145.108 432.259 147.893 428.824 147.893H428.833Z" fill="#CCCCCC" stroke="black" stroke-width="1.88702" stroke-linecap="round" stroke-linejoin="round"/>
        <path d="M390.801 143.175H434.203" stroke="black" stroke-width="1.88702"/>
        <rect x="395.519" y="123.362" width="33.9663" height="5.66105" fill="#CCCCCC" stroke="black" stroke-width="1.88702" stroke-linecap="round" stroke-linejoin="round"/>
        <path d="M405.898 129.023V132.797" stroke="black" stroke-width="1.88702"/>
        <path d="M419.107 129.023V132.797" stroke="black" stroke-width="1.88702"/>
        <path d="M488.719 181.991V180.434C488.719 178 490.69 176.019 493.125 176.009C494.342 176.009 495.446 176.5 496.257 177.302C497.069 178.104 497.55 179.198 497.55 180.416V181.972" stroke="black" stroke-width="1.88702" stroke-linecap="round" stroke-linejoin="round"/>
        <path d="M488.447 181.993L497.826 181.978C498.685 181.977 499.393 182.674 499.395 183.542L499.405 189.845C499.41 193.298 496.612 196.104 493.159 196.11C489.706 196.115 486.899 193.317 486.894 189.864L486.884 183.562C486.882 182.703 487.579 181.994 488.447 181.993Z" stroke="black" stroke-width="1.88702" stroke-linecap="round" stroke-linejoin="round"/>
        <path d="M493.144 186.397L493.162 196.106" stroke="black" stroke-width="1.88702" stroke-linecap="round" stroke-linejoin="round"/>
        <path d="M493.125 176.019C493.125 174.037 494.729 172.433 496.701 172.424" stroke="black" stroke-width="1.88702" stroke-linecap="round" stroke-linejoin="round"/>
        <path d="M493.125 176.019C493.125 174.038 491.511 172.434 489.53 172.443" stroke="black" stroke-width="1.88702" stroke-linecap="round" stroke-linejoin="round"/>
        <path d="M503.182 181.67C503.182 183.652 501.579 185.256 499.607 185.265" stroke="black" stroke-width="1.88702" stroke-linecap="round" stroke-linejoin="round"/>
        <path d="M499.05 191.945C501.409 192.37 503.201 194.436 503.211 196.927" stroke="black" stroke-width="1.88702" stroke-linecap="round" stroke-linejoin="round"/>
        <path d="M499.607 188.341H501.399L503.975 190.907" stroke="black" stroke-width="1.88702" stroke-linecap="round" stroke-linejoin="round"/>
        <path d="M483.086 181.708C483.086 183.69 484.699 185.294 486.68 185.284" stroke="black" stroke-width="1.88702" stroke-linecap="round" stroke-linejoin="round"/>
        <path d="M487.256 191.964C484.897 192.398 483.114 194.464 483.114 196.955" stroke="black" stroke-width="1.88702" stroke-linecap="round" stroke-linejoin="round"/>
        <path d="M486.681 188.36H484.888L482.322 190.945" stroke="black" stroke-width="1.88702" stroke-linecap="round" stroke-linejoin="round"/>
        <path d="M322.535 257.959C322.924 257.959 323.301 258.225 323.301 258.696C323.301 259.095 323.021 259.361 322.572 259.651C322.061 259.965 321.393 260.17 320.566 260.17C318.415 260.17 316.264 258.406 316.264 255.857C316.264 253.308 318.427 251.545 320.542 251.545C321.393 251.545 322.061 251.762 322.572 252.064C323.021 252.354 323.301 252.62 323.301 253.018C323.301 253.49 322.924 253.755 322.535 253.755C322.231 253.755 322.013 253.598 321.879 253.502C321.697 253.381 321.247 253.091 320.566 253.091C319.193 253.091 317.978 254.299 317.978 255.857C317.978 257.416 319.181 258.624 320.579 258.624C321.235 258.624 321.697 258.334 321.879 258.213C322.013 258.116 322.219 257.959 322.535 257.959Z" fill="black"/>
        <path d="M327.161 253.731C328.547 253.731 330.406 254.806 330.406 256.957C330.406 259.119 328.547 260.17 327.161 260.17C325.764 260.17 323.916 259.119 323.916 256.957C323.916 254.806 325.764 253.731 327.161 253.731ZM327.161 255.108C326.298 255.108 325.496 255.785 325.496 256.957C325.496 258.116 326.298 258.793 327.161 258.793C328.012 258.793 328.826 258.116 328.826 256.957C328.826 255.785 328.012 255.108 327.161 255.108Z" fill="black"/>
        <path d="M333.217 259.361C333.217 259.796 332.852 260.146 332.427 260.146C331.989 260.146 331.625 259.796 331.625 259.361V252.245C331.625 251.822 331.989 251.46 332.427 251.46C332.852 251.46 333.217 251.822 333.217 252.245V259.361Z" fill="black"/>
        <path d="M336.267 259.361C336.267 259.796 335.902 260.146 335.477 260.146C335.039 260.146 334.675 259.796 334.675 259.361V252.245C334.675 251.822 335.039 251.46 335.477 251.46C335.902 251.46 336.267 251.822 336.267 252.245V259.361Z" fill="black"/>
        <path d="M340.678 253.731C342.064 253.731 343.741 254.818 343.741 256.691C343.741 257.319 343.388 257.537 342.744 257.537L339.135 257.512C339.281 258.394 339.985 258.866 340.873 258.866C341.31 258.866 341.517 258.769 341.881 258.612C342.1 258.515 342.27 258.419 342.477 258.419C342.817 258.419 343.024 258.66 343.024 258.962C343.024 259.155 342.939 259.373 342.635 259.627C342.185 259.941 341.577 260.146 340.812 260.146C339.195 260.146 337.482 259.155 337.482 256.957C337.482 254.782 339.293 253.731 340.678 253.731ZM340.678 255.108C339.985 255.108 339.244 255.495 339.135 256.425H342.173C342.051 255.495 341.371 255.108 340.678 255.108Z" fill="black"/>
        <path d="M349.537 258.141C349.865 258.141 350.181 258.37 350.181 258.745C350.181 259.131 349.89 259.325 349.732 259.47C349.221 259.917 348.626 260.146 347.836 260.146C346.365 260.146 344.591 259.095 344.591 256.945C344.591 254.782 346.365 253.731 347.836 253.731C348.626 253.731 349.221 253.949 349.732 254.396C349.89 254.553 350.181 254.746 350.181 255.133C350.181 255.507 349.865 255.737 349.537 255.737C349.246 255.737 349.015 255.567 348.918 255.483C348.638 255.217 348.225 255.108 347.897 255.108C346.937 255.108 346.171 255.773 346.171 256.945C346.171 258.104 346.937 258.769 347.897 258.769C348.225 258.769 348.638 258.66 348.918 258.394C349.015 258.31 349.246 258.141 349.537 258.141Z" fill="black"/>
        <path d="M354.35 258.733C354.715 258.708 354.946 258.926 354.946 259.3C354.946 259.856 354.399 260.146 353.573 260.146C352.746 260.146 351.908 259.88 351.908 258.201V255.048H351.555C351.166 255.048 350.911 254.794 350.911 254.432C350.911 254.057 351.166 253.804 351.555 253.804H351.908V252.982C351.908 252.547 352.272 252.185 352.71 252.185C353.147 252.185 353.5 252.547 353.5 252.982V253.804H354.302C354.703 253.804 354.946 254.057 354.946 254.432C354.946 254.794 354.703 255.048 354.302 255.048H353.5V258.249C353.5 258.6 353.621 258.781 353.889 258.781C354.022 258.781 354.217 258.733 354.35 258.733Z" fill="black"/>
        <path d="M356.852 252.91C356.415 252.91 356.038 252.547 356.038 252.124C356.038 251.702 356.415 251.339 356.852 251.339C357.277 251.339 357.654 251.702 357.654 252.124C357.654 252.547 357.277 252.91 356.852 252.91ZM356.852 253.767C357.277 253.767 357.642 254.13 357.642 254.565V259.349C357.642 259.796 357.277 260.158 356.852 260.158C356.415 260.158 356.05 259.796 356.05 259.349V254.565C356.05 254.13 356.415 253.767 356.852 253.767Z" fill="black"/>
        <path d="M363.987 253.767C364.412 253.767 364.728 254.094 364.728 254.48C364.728 254.625 364.68 254.746 364.631 254.843L362.492 259.506C362.31 259.88 362.067 260.11 361.69 260.11C361.313 260.11 361.07 259.88 360.9 259.506L358.749 254.843C358.713 254.746 358.664 254.625 358.664 254.48C358.664 254.094 358.98 253.767 359.393 253.767C359.697 253.767 359.989 253.937 360.159 254.323L361.69 257.899L363.234 254.323C363.392 253.937 363.683 253.767 363.987 253.767Z" fill="black"/>
        <path d="M366.632 252.91C366.194 252.91 365.817 252.547 365.817 252.124C365.817 251.702 366.194 251.339 366.632 251.339C367.057 251.339 367.434 251.702 367.434 252.124C367.434 252.547 367.057 252.91 366.632 252.91ZM366.632 253.767C367.057 253.767 367.421 254.13 367.421 254.565V259.349C367.421 259.796 367.057 260.158 366.632 260.158C366.194 260.158 365.829 259.796 365.829 259.349V254.565C365.829 254.13 366.194 253.767 366.632 253.767Z" fill="black"/>
        <path d="M371.844 258.733C372.209 258.708 372.44 258.926 372.44 259.3C372.44 259.856 371.893 260.146 371.067 260.146C370.24 260.146 369.402 259.88 369.402 258.201V255.048H369.049C368.66 255.048 368.405 254.794 368.405 254.432C368.405 254.057 368.66 253.804 369.049 253.804H369.402V252.982C369.402 252.547 369.766 252.185 370.204 252.185C370.641 252.185 370.994 252.547 370.994 252.982V253.804H371.796C372.197 253.804 372.44 254.057 372.44 254.432C372.44 254.794 372.197 255.048 371.796 255.048H370.994V258.249C370.994 258.6 371.115 258.781 371.383 258.781C371.516 258.781 371.711 258.733 371.844 258.733Z" fill="black"/>
        <path d="M376.828 250.735C377.29 250.735 377.654 251.098 377.654 251.557C377.654 251.75 377.606 251.919 377.472 252.076L376.561 253.079C376.463 253.212 376.305 253.296 376.123 253.296C375.746 253.296 375.43 252.97 375.601 252.547L376.05 251.291C376.172 250.965 376.463 250.735 376.828 250.735ZM376.366 253.731C377.752 253.731 379.429 254.818 379.429 256.691C379.429 257.319 379.076 257.537 378.432 257.537L374.823 257.512C374.969 258.394 375.673 258.866 376.561 258.866C376.998 258.866 377.205 258.769 377.569 258.612C377.788 258.515 377.958 258.419 378.165 258.419C378.505 258.419 378.712 258.66 378.712 258.962C378.712 259.155 378.627 259.373 378.323 259.627C377.873 259.941 377.266 260.146 376.5 260.146C374.884 260.146 373.17 259.155 373.17 256.957C373.17 254.782 374.981 253.731 376.366 253.731ZM376.366 255.108C375.673 255.108 374.932 255.495 374.823 256.425H377.861C377.74 255.495 377.059 255.108 376.366 255.108Z" fill="black"/>
        <path d="M382.685 253.731C383.512 253.731 384.302 254.057 384.703 254.613C384.776 254.722 384.897 254.891 384.897 255.145C384.897 255.531 384.63 255.737 384.277 255.737C384.047 255.737 383.816 255.652 383.609 255.398C383.366 255.12 383.086 254.988 382.734 254.988C382.26 254.988 381.98 255.217 381.98 255.555C381.98 255.749 382.053 256.002 382.612 256.159L383.354 256.377C384.326 256.643 385.14 257.102 385.14 258.177C385.14 259.506 383.901 260.146 382.637 260.146C381.543 260.146 380.887 259.687 380.546 259.276C380.486 259.192 380.218 258.89 380.218 258.515C380.218 258.249 380.388 257.911 380.826 257.911C381.154 257.911 381.336 258.116 381.482 258.298C381.835 258.733 382.224 258.853 382.637 258.853C383.232 258.853 383.56 258.6 383.56 258.261C383.56 258.056 383.427 257.79 382.843 257.621L382.151 257.416C380.923 257.078 380.413 256.425 380.413 255.567C380.413 254.359 381.531 253.731 382.685 253.731Z" fill="black"/>
        <path d="M391.277 173.933C391.64 173.933 391.945 174.228 391.945 174.613C391.945 174.986 391.64 175.281 391.277 175.281H389.67V181.134C389.67 181.576 389.319 181.938 388.911 181.938C388.492 181.938 388.141 181.576 388.141 181.134V175.281H386.545C386.182 175.281 385.865 174.986 385.865 174.613C385.865 174.228 386.182 173.933 386.545 173.933H391.277Z" fill="black"/>
        <path d="M395.871 173.933C397.637 173.933 398.769 175.077 398.769 176.504C398.769 177.953 397.637 179.051 395.871 179.051H394.489V181.168C394.489 181.587 394.15 181.938 393.731 181.938C393.3 181.938 392.961 181.587 392.961 181.168V174.771C392.961 174.284 393.312 173.933 393.799 173.933H395.871ZM395.803 177.749C396.652 177.749 397.286 177.443 397.286 176.504C397.286 175.575 396.652 175.236 395.803 175.236H394.489V177.749H395.803Z" fill="black"/>
        <path d="M401.378 180.523H404.559C404.921 180.523 405.238 180.829 405.238 181.191C405.238 181.565 404.921 181.859 404.559 181.859H400.687C400.2 181.859 399.849 181.508 399.849 181.021V174.771C399.849 174.284 400.2 173.933 400.687 173.933H404.446C404.808 173.933 405.125 174.228 405.125 174.59C405.125 174.964 404.808 175.269 404.446 175.269H401.378V177.24H403.393C403.767 177.24 404.061 177.534 404.061 177.874C404.061 178.225 403.767 178.519 403.393 178.519H401.378V180.523Z" fill="black"/>
        <path d="M413.096 173.345C413.639 173.345 413.922 173.9 413.764 174.307L410.401 182.946C410.31 183.206 410.039 183.41 409.744 183.41C409.201 183.41 408.918 182.855 409.076 182.448L412.439 173.809C412.529 173.549 412.801 173.345 413.096 173.345Z" fill="black"/>
        <path d="M420.792 173.933C422.559 173.933 423.691 175.077 423.691 176.504C423.691 177.953 422.559 179.051 420.792 179.051H419.411V181.168C419.411 181.587 419.072 181.938 418.653 181.938C418.222 181.938 417.883 181.587 417.883 181.168V174.771C417.883 174.284 418.234 173.933 418.721 173.933H420.792ZM420.725 177.749C421.574 177.749 422.208 177.443 422.208 176.504C422.208 175.575 421.574 175.236 420.725 175.236H419.411V177.749H420.725Z" fill="black"/>
        <path d="M432.572 173.9C432.912 173.9 433.274 174.137 433.274 174.613V181.112C433.274 181.531 432.923 181.893 432.481 181.893C432.063 181.893 431.712 181.531 431.712 181.112V177.307L429.685 181.123C429.538 181.395 429.289 181.553 429.017 181.553C428.756 181.553 428.507 181.395 428.36 181.123L426.322 177.307V181.112C426.322 181.531 425.983 181.893 425.564 181.893C425.122 181.893 424.771 181.531 424.771 181.112V174.613C424.771 174.137 425.133 173.9 425.473 173.9C425.79 173.9 426.084 174.137 426.243 174.409L429.017 179.402L431.802 174.409C431.961 174.137 432.255 173.9 432.572 173.9Z" fill="black"/>
        <path d="M436.162 180.523H439.344C439.706 180.523 440.023 180.829 440.023 181.191C440.023 181.565 439.706 181.859 439.344 181.859H435.472C434.985 181.859 434.634 181.508 434.634 181.021V174.771C434.634 174.284 434.985 173.933 435.472 173.933H439.23C439.593 173.933 439.91 174.228 439.91 174.59C439.91 174.964 439.593 175.269 439.23 175.269H436.162V177.24H438.178C438.551 177.24 438.846 177.534 438.846 177.874C438.846 178.225 438.551 178.519 438.178 178.519H436.162V180.523Z" fill="black"/>
        <path d="M407.116 193.732H410.298C410.66 193.732 410.977 194.038 410.977 194.4C410.977 194.774 410.66 195.068 410.298 195.068H406.425C405.939 195.068 405.588 194.717 405.588 194.23V187.98C405.588 187.494 405.939 187.143 406.425 187.143H410.184C410.547 187.143 410.864 187.437 410.864 187.799C410.864 188.173 410.547 188.479 410.184 188.479H407.116V190.449H409.131C409.505 190.449 409.799 190.743 409.799 191.083C409.799 191.434 409.505 191.728 409.131 191.728H407.116V193.732Z" fill="black"/>
        <path d="M417.128 187.143C417.49 187.143 417.796 187.437 417.796 187.822C417.796 188.196 417.49 188.49 417.128 188.49H415.52V194.343C415.52 194.785 415.169 195.147 414.762 195.147C414.343 195.147 413.992 194.785 413.992 194.343V188.49H412.395C412.033 188.49 411.716 188.196 411.716 187.822C411.716 187.437 412.033 187.143 412.395 187.143H417.128Z" fill="black"/>
        <path d="M419.593 187.086C420.012 187.086 420.363 187.448 420.363 187.867V194.343C420.363 194.762 420.012 195.125 419.593 195.125C419.162 195.125 418.811 194.762 418.811 194.343V187.867C418.811 187.448 419.162 187.086 419.593 187.086Z" fill="black"/>
        <path d="M129.553 281.154C129.553 281.154 136.082 289.145 136.082 304.6C136.082 308.591 132.535 308.61 131.289 304.732C129.949 300.6 129.025 295.939 129.025 295.939C127.959 306.864 129.836 310.733 130.884 313.658C131.997 316.781 129.28 318.875 126.647 316.177L126.487 316.583C125.024 317.149 123.741 317.045 122.609 316.479C121.543 315.95 120.618 315.007 119.816 313.837C119.807 313.837 119.807 313.818 119.797 313.809L119.609 313.931C118.778 313.988 112.145 314.045 110.768 301.93C109.862 293.938 111.976 283.55 111.57 279.418C111.174 275.295 107.041 261.708 106.645 245.857C106.239 230.006 107.975 211.353 107.975 211.353V211.315C114.485 212.976 125.836 214.533 134.884 213.967V214.023L131.421 235.328L130.148 266.567L129.553 281.154Z" fill="white"/>
        <path d="M312.377 189.001C313.217 189.718 313.387 190.436 313.056 191.256C313.179 190.473 312.905 189.671 312.377 189.001Z" fill="#FFF7DB"/>
        <path d="M310.48 183.925C310.094 183.142 309.112 182.604 307.508 182.718C305.102 182.878 301.451 182.869 296.828 183.548C301.923 182.718 305.914 182.736 308.49 182.567C309.999 182.463 310.471 183.086 310.48 183.925Z" fill="#FFF7DB"/>
        <path fill-rule="evenodd" clip-rule="evenodd" d="M309.952 198.616C309.913 198.634 309.872 198.654 309.828 198.675C309.825 198.677 309.831 198.674 309.828 198.675C309.798 198.69 309.758 198.709 309.726 198.725L309.503 198.833" fill="#FFF7DB"/>
        <path d="M306.244 204.56C307.046 204.239 307.565 203.843 307.886 203.437C307.461 203.994 306.735 204.447 305.659 204.786C305.848 204.711 306.046 204.635 306.244 204.56Z" fill="#FFF7DB"/>
        <path d="M283.402 209.494C283.402 209.494 283.656 209.523 284.109 209.551C281.741 211.297 264.031 224.081 244.954 230.648C243.935 230.997 242.916 231.223 241.916 231.346C242.595 231.214 243.284 231.035 243.973 230.799C264.484 223.741 283.402 209.494 283.402 209.494Z" fill="#FFF7DB"/>
        <path fill-rule="evenodd" clip-rule="evenodd" d="M296.828 183.548C296.795 183.553 296.759 183.557 296.724 183.562L296.774 183.555C296.793 183.553 296.811 183.55 296.828 183.548Z" fill="white"/>
        <path d="M206.893 88.0552C209.148 89.4611 210.704 92.4331 210.704 95.8675C210.704 98.2263 209.968 100.377 208.78 101.944C207.544 103.567 205.826 104.567 203.93 104.567C200.25 104.567 197.269 100.811 197.165 96.1317C197.156 96.0467 197.156 95.9524 197.156 95.8675C197.156 91.065 200.184 87.1778 203.93 87.1778C204.996 87.1778 205.996 87.4891 206.893 88.0552Z" fill="#FFF7DB"/>
        <path d="M186.73 108.926C182.031 108.926 178.229 104.633 178.229 99.3304C178.229 99.0001 178.248 98.6699 178.276 98.3491V98.3114C178.729 93.4995 182.333 89.7443 186.73 89.7443C190.532 89.7443 193.74 92.556 194.825 96.4432C195.08 97.349 195.221 98.3208 195.221 99.3304C195.221 104.633 191.419 108.926 186.73 108.926Z" fill="#FFF7DB"/>
        <path d="M201.486 145.685C210.27 148.883 217.866 151.818 225.461 165.801C233.047 179.783 240.642 192.709 240.642 192.709C240.642 192.709 239.698 193.625 237.877 195.049C236.019 196.521 233.226 198.54 229.584 200.701C224.008 204.013 219.63 205.551 217.951 206.079C217.46 206.23 217.196 206.296 217.196 206.296L216.979 206.258C216.79 207.287 216.601 208.192 216.403 208.957C216.063 210.268 215.771 211.702 215.516 213.202C214.544 218.873 214.082 225.44 213.865 229.336C213.695 232.573 213.478 234.837 211.752 236.535C210.855 237.432 209.544 238.158 207.61 238.79C201.081 240.923 151.933 240.923 144.338 239.857C142.668 239.621 141.366 239.158 140.328 238.536C137.677 236.96 136.79 234.45 136.214 232.535C135.412 229.874 135.28 214.023 135.28 214.023V213.938C135.139 213.957 135.016 213.967 134.884 213.967C125.836 214.533 114.485 212.976 107.985 211.315C106.258 210.881 104.88 210.438 103.975 210.023C108.107 177.793 109.843 152.61 148.338 142.486C149.706 142.128 150.858 141.75 151.848 141.354L151.933 141.562C151.933 141.562 159.387 153.544 177.238 153.544C192.155 153.544 192.023 142.628 192.023 142.628V142.392C194.646 143.27 197.91 144.383 201.486 145.685Z" fill="#FED980"/>
        <path d="M206.147 84.8191C206.147 84.8191 204.147 76.0256 194.825 72.2893C188.164 82.4131 174.04 90.1405 174.04 90.1405C174.04 90.1405 171.558 95.5374 168.511 99.736C166.784 102.132 164.869 104.142 163.123 104.529C160.453 98.6698 149.537 99.4624 149.263 107.595C148.999 115.71 155.528 117.983 158.057 117.983C158.481 117.983 158.877 117.965 159.236 117.927L159.255 118.116C159.255 118.116 159 121.21 158.679 124.814L158.321 124.777C158.321 124.777 123.43 117.314 135.148 80.5544C135.148 80.5544 123.156 77.6201 123.156 65.3639C123.156 53.1078 133.554 50.7112 138.875 50.7112C144.196 50.7112 151.263 53.3814 151.263 63.0995C164.671 54.2777 186.258 55.7968 195.891 66.1659C209.61 73.8933 206.147 84.8191 206.147 84.8191Z" fill="black"/>
        <path d="M211.874 236.667C211.874 236.667 231.32 266.501 221.064 336.028C221.064 336.028 217.196 347.218 176.172 338.161C135.148 329.103 120.958 337.066 120.958 337.066C120.958 337.066 121.25 329.075 122.609 316.479C123.741 317.045 125.024 317.149 126.487 316.583L126.647 316.177C129.28 318.875 131.997 316.781 130.884 313.658C129.836 310.733 127.959 306.864 129.025 295.939C129.025 295.939 129.949 300.6 131.289 304.732C132.535 308.61 136.082 308.591 136.082 304.6C136.082 289.145 129.553 281.154 129.553 281.154L130.148 266.567C135.082 244.017 140.073 238.932 140.073 238.932L140.328 238.536C141.366 239.158 142.668 239.621 144.338 239.856C151.933 240.923 201.081 240.923 207.61 238.79C209.544 238.158 210.855 237.432 211.752 236.535L211.874 236.667Z" fill="black"/>
        <path d="M186.73 89.7443C190.532 89.7443 193.74 92.556 194.825 96.4432C195.08 97.349 195.221 98.3208 195.221 99.3304C195.221 104.633 191.428 108.926 186.73 108.926C182.031 108.926 178.229 104.633 178.229 99.3304C178.229 99.0001 178.248 98.6699 178.276 98.3491V98.3114C178.729 93.4995 182.333 89.7443 186.73 89.7443ZM194.901 96.4244L197.014 96.1319H197.165C197.156 96.047 197.156 95.9526 197.156 95.8677C197.156 91.0652 200.184 87.178 203.93 87.178C204.996 87.178 205.996 87.4893 206.893 88.0554C206.468 86.0269 206.147 84.8192 206.147 84.8192C206.147 84.8192 204.147 76.0257 194.825 72.2894C188.164 82.4132 174.04 90.1406 174.04 90.1406C174.04 90.1406 171.558 95.5375 168.511 99.7361C166.784 102.133 164.869 104.142 163.123 104.529C160.453 98.6699 149.537 99.4625 149.263 107.596C148.999 115.71 155.528 117.984 158.057 117.984C158.481 117.984 158.877 117.965 159.236 117.927L159.255 118.116C159.255 118.116 159 121.21 158.679 124.815C158.302 129.098 157.811 134.118 157.528 135.561C157.094 137.722 156.019 139.694 151.848 141.354L151.933 141.562C151.933 141.562 159.387 153.544 177.238 153.544C192.155 153.544 192.032 142.628 192.032 142.628V142.392C188.211 141.109 185.767 140.364 185.767 140.364H185.645C185.664 137.609 186.022 134.533 186.135 133.665C186.824 133.768 187.503 133.834 188.164 133.834C206.921 133.834 209.61 116.078 208.78 101.944C207.544 103.567 205.826 104.567 203.93 104.567C200.25 104.567 197.269 100.812 197.165 96.1413H197.014L194.901 96.4244Z" fill="white"/>
        <path d="M238.026 195.081C237.777 195.281 237.508 195.49 237.221 195.699C235.361 197.114 232.802 198.891 229.6 200.771C222.296 205.065 217.015 206.405 217.015 206.405L216.794 206.367C216.603 207.402 216.411 208.314 216.21 209.083C215.865 210.404 215.568 211.848 215.309 213.358L215.395 213.377C215.395 213.377 227.06 233.345 241.131 231.777C241.822 231.644 242.521 231.464 243.221 231.226C264.059 224.121 283.278 209.777 283.278 209.777C283.278 209.777 283.537 209.805 283.997 209.834C284.179 209.691 284.275 209.625 284.275 209.625C284.275 209.625 292.959 210.518 299.41 206.936C300.052 206.585 300.675 206.186 301.26 205.73C301.288 205.73 301.317 205.728 301.346 205.725C301.375 205.723 301.403 205.721 301.432 205.721C303.215 205.635 304.634 205.417 305.717 205.094L305.889 205.037C305.993 204.996 306.099 204.955 306.206 204.914C306.298 204.879 306.39 204.844 306.482 204.809C307.297 204.486 307.826 204.087 308.151 203.678C308.947 202.681 308.755 201.389 307.835 199.916C308.296 199.767 309.155 199.352 309.794 199.043C309.873 199.005 309.95 198.968 310.021 198.934C310.104 198.894 310.182 198.857 310.251 198.824C313.222 197.057 311.19 194.008 311.19 194.008C311.439 193.789 311.679 193.571 311.89 193.352C312.618 192.659 313.136 192.032 313.395 191.443C313.395 191.434 313.395 191.424 313.404 191.415C313.529 190.626 313.251 189.819 312.714 189.144C312.072 188.603 311.046 188.061 309.57 187.501C309.556 187.496 309.539 187.489 309.522 187.482C309.505 187.475 309.489 187.468 309.474 187.463C309.484 187.444 309.493 187.425 309.513 187.396C309.513 187.387 309.522 187.387 309.522 187.387C309.551 187.334 309.587 187.269 309.629 187.194C309.994 186.542 310.787 185.124 310.787 184.034C310.394 183.245 309.398 182.704 307.768 182.818C307.141 182.859 306.431 182.889 305.642 182.923C303.356 183.02 300.41 183.145 296.918 183.654C296.884 183.658 296.849 183.663 296.813 183.668L296.803 183.669C296.77 183.673 296.737 183.678 296.707 183.682C296.362 183.739 296.007 183.806 295.643 183.872C291.094 184.705 287.595 187.353 284.167 189.947C282.083 191.524 280.026 193.081 277.776 194.198C272.849 196.649 249.614 202.396 241.793 204.296L241.774 204.21L241.515 203.184L238.026 195.081Z" fill="white"/>
        <path d="M161.925 117.314C161.925 117.314 161 117.776 159.236 117.927C158.877 117.965 158.481 117.983 158.057 117.983C155.528 117.983 148.999 115.71 149.263 107.595C149.537 99.4623 160.453 98.6698 163.123 104.529C164.869 104.142 166.784 102.132 168.511 99.736C171.558 95.5374 174.04 90.1405 174.04 90.1405C174.04 90.1405 188.164 82.4131 194.825 72.2893C204.147 76.0256 206.147 84.8191 206.147 84.8191C206.147 84.8191 209.61 73.8933 195.891 66.1659C186.258 55.7968 164.671 54.2777 151.263 63.0995C151.263 53.3814 144.206 50.7112 138.875 50.7112C133.544 50.7112 123.156 53.1172 123.156 65.3639C123.156 77.6107 135.148 80.5544 135.148 80.5544C123.43 117.314 158.321 124.777 158.321 124.777" stroke="black" stroke-width="1.88702" stroke-linecap="round" stroke-linejoin="round"/>
        <path d="M155.66 106.793C158.594 106.793 159.255 109.058 159.255 111.19" stroke="black" stroke-width="1.88702" stroke-linecap="round" stroke-linejoin="round"/>
        <path d="M159.255 118.115C159.255 118.115 159 121.21 158.679 124.814C158.302 129.098 157.811 134.117 157.528 135.561C157.094 137.722 156.019 139.694 151.848 141.354C150.858 141.75 149.706 142.128 148.338 142.486C109.843 152.61 108.107 177.792 103.975 210.023C104.88 210.438 106.258 210.881 107.985 211.315C114.485 212.976 125.836 214.533 134.884 213.967C135.016 213.967 135.139 213.957 135.271 213.938C136.007 213.891 136.714 213.834 137.413 213.75C139.819 203.352 140.743 192.606 141.007 181.783" stroke="black" stroke-width="1.88702" stroke-linecap="round" stroke-linejoin="round"/>
        <path d="M107.975 211.353C107.975 211.353 106.239 230.006 106.645 245.857C107.041 261.708 111.174 275.295 111.57 279.418C111.976 283.55 109.862 293.938 110.768 301.93C112.145 314.045 118.778 313.988 119.609 313.931C119.665 313.931 119.694 313.922 119.694 313.922" stroke="black" stroke-width="1.88702" stroke-linecap="round" stroke-linejoin="round"/>
        <path d="M115.297 300.203C115.297 300.203 116.486 308.95 119.797 313.809C119.797 313.818 119.797 313.828 119.816 313.837C120.618 315.007 121.543 315.95 122.609 316.479C123.741 317.045 125.024 317.149 126.487 316.583" stroke="black" stroke-width="1.88702" stroke-linecap="round" stroke-linejoin="round"/>
        <path d="M121.43 299.798C121.43 299.798 122.533 309.035 125.156 314.054C125.628 314.96 126.138 315.658 126.647 316.177C129.28 318.875 131.997 316.781 130.884 313.658C129.836 310.733 127.959 306.864 129.025 295.939C129.025 295.939 129.949 300.6 131.289 304.732C132.535 308.61 136.082 308.591 136.082 304.6C136.082 289.145 129.553 281.154 129.553 281.154L130.148 266.567L131.421 235.328L134.884 214.023" stroke="black" stroke-width="1.88702" stroke-linecap="round" stroke-linejoin="round"/>
        <path d="M135.28 214.023C135.28 214.023 135.412 229.874 136.214 232.535C136.79 234.45 137.677 236.96 140.328 238.536C141.366 239.158 142.668 239.621 144.338 239.857C151.933 240.923 201.081 240.923 207.61 238.79C209.544 238.158 210.855 237.432 211.752 236.535C213.478 234.837 213.695 232.573 213.865 229.336C214.082 225.44 214.545 218.873 215.516 213.202C215.771 211.702 216.064 210.268 216.403 208.957C216.601 208.192 216.79 207.287 216.979 206.258C218.271 198.861 218.856 185.076 213.469 172.33" stroke="black" stroke-width="1.88702" stroke-linecap="round" stroke-linejoin="round"/>
        <path d="M208.78 101.944C209.61 116.078 206.921 133.834 188.164 133.834C187.504 133.834 186.824 133.768 186.135 133.665C181.673 132.938 176.974 130.24 176.974 130.24" stroke="black" stroke-width="1.88702" stroke-linecap="round" stroke-linejoin="round"/>
        <path d="M206.893 88.0552C206.468 86.0267 206.147 84.819 206.147 84.819" stroke="black" stroke-width="1.88702" stroke-linecap="round" stroke-linejoin="round"/>
        <path d="M197.684 103.991C197.684 103.991 198.382 105.255 199.288 106.661C200.184 108.058 201.42 109.718 201.42 111.049C201.42 114.247 197.156 113.983 197.156 113.983" stroke="black" stroke-width="1.88702" stroke-linecap="round" stroke-linejoin="round"/>
        <path d="M194.825 96.4432C195.08 97.349 195.221 98.3208 195.221 99.3304C195.221 104.633 191.419 108.926 186.73 108.926C182.041 108.926 178.229 104.633 178.229 99.3304C178.229 99.0001 178.248 98.6699 178.276 98.3491V98.3114C178.729 93.4995 182.333 89.7443 186.73 89.7443C190.532 89.7443 193.74 92.556 194.825 96.4432Z" stroke="black" stroke-width="1.88702" stroke-linecap="round" stroke-linejoin="round"/>
        <path d="M206.893 88.0552C209.148 89.4611 210.704 92.4331 210.704 95.8675C210.704 98.2263 209.968 100.377 208.78 101.944C207.544 103.567 205.826 104.567 203.93 104.567C200.25 104.567 197.269 100.811 197.165 96.1317C197.156 96.0467 197.156 95.9524 197.156 95.8675C197.156 91.065 200.184 87.1778 203.93 87.1778C204.996 87.1778 205.996 87.4891 206.893 88.0552Z" stroke="black" stroke-width="1.88702" stroke-linecap="round" stroke-linejoin="round"/>
        <path d="M160.057 101.066L168.511 99.7359L177.908 98.264" stroke="black" stroke-width="1.88702" stroke-linecap="round" stroke-linejoin="round"/>
        <path d="M185.758 142.892C185.673 142.147 185.645 141.279 185.645 140.363C185.664 137.608 186.022 134.533 186.136 133.664" stroke="black" stroke-width="1.88702" stroke-linecap="round" stroke-linejoin="round"/>
        <path d="M151.933 141.562C151.933 141.562 159.387 153.544 177.238 153.544C192.155 153.544 192.023 142.628 192.023 142.628" stroke="black" stroke-width="1.88702" stroke-linecap="round" stroke-linejoin="round"/>
        <path d="M185.767 140.363C185.767 140.363 188.211 141.109 192.032 142.392C194.646 143.269 197.91 144.383 201.486 145.685C210.27 148.883 217.866 151.818 225.461 165.8C233.047 179.783 240.642 192.709 240.642 192.709C240.642 192.709 239.698 193.625 237.877 195.049C236.019 196.521 233.226 198.54 229.584 200.701C224.008 204.013 219.63 205.551 217.951 206.079C217.46 206.23 217.196 206.296 217.196 206.296" stroke="black" stroke-width="1.88702" stroke-linecap="round" stroke-linejoin="round"/>
        <path d="M120.892 336.302C120.892 336.302 121.25 329.075 122.609 316.479" stroke="black" stroke-width="1.88702" stroke-linecap="round" stroke-linejoin="round"/>
        <path d="M211.874 236.667C211.874 236.667 231.32 266.501 221.064 336.028" stroke="black" stroke-width="1.88702" stroke-linecap="round" stroke-linejoin="round"/>
        <path d="M130.148 266.567C135.082 244.017 140.073 238.932 140.073 238.932" stroke="black" stroke-width="1.88702" stroke-linecap="round" stroke-linejoin="round"/>
        <path d="M184.701 278.493L180.437 288.079L175.644 341.359" stroke="white" stroke-width="1.88702" stroke-linecap="round" stroke-linejoin="round"/>
        <path d="M237.981 195.304L238.066 195.512L241.312 203.494" stroke="black" stroke-width="1.88702" stroke-linecap="round" stroke-linejoin="round"/>
        <path d="M239.047 204.824C239.047 204.824 239.991 204.598 241.586 204.201C241.887 204.126 242.208 204.05 242.548 203.965C251.03 201.88 272.344 196.512 277.005 194.172C282.864 191.237 287.393 185.246 294.592 183.916C295.29 183.784 295.96 183.671 296.62 183.576C296.686 183.567 296.762 183.557 296.828 183.548C301.451 182.869 305.103 182.878 307.508 182.718C309.112 182.604 310.094 183.142 310.481 183.925C310.952 184.907 310.518 186.256 309.235 187.256C309.235 187.256 309.226 187.256 309.226 187.265C309.094 187.369 308.952 187.463 308.801 187.558C305.169 189.832 297.922 190.511 297.922 190.511C297.922 190.511 299.121 196.531 289.657 198.927" stroke="black" stroke-width="1.88702" stroke-linecap="round" stroke-linejoin="round"/>
        <path d="M215.601 213.221C215.601 213.221 227.631 233.997 241.916 231.346C242.595 231.214 243.284 231.035 243.973 230.799C264.485 223.741 283.402 209.494 283.402 209.494C283.402 209.494 293.17 210.522 299.281 206.673C299.791 206.362 300.272 206.013 300.715 205.626" stroke="black" stroke-width="1.88702" stroke-linecap="round" stroke-linejoin="round"/>
        <path d="M307.31 199.833C307.31 199.833 309.131 201.824 307.886 203.437C307.565 203.843 307.046 204.239 306.244 204.56C306.046 204.635 305.848 204.711 305.659 204.786L305.489 204.843C304.055 205.324 302.621 205.513 301.272 205.466C301.093 205.466 300.913 205.456 300.734 205.447C298.8 205.315 297.054 204.73 295.724 203.899C293.195 202.295 294.601 198.71 298.187 199.569C300.8 200.191 303.848 200.578 307.206 199.474C307.782 199.286 308.376 199.05 308.971 198.767C313.537 196.597 309.971 194.172 309.971 194.172" stroke="black" stroke-width="1.88702" stroke-linecap="round" stroke-linejoin="round"/>
        <path d="M300.913 194.304C300.913 194.304 305.527 195.615 309.896 193.983C310.396 193.804 310.896 193.577 311.377 193.304C311.443 193.266 311.509 193.228 311.566 193.181C312.462 192.653 312.915 191.983 313.047 191.285C313.047 191.275 313.047 191.266 313.056 191.256C313.179 190.473 312.905 189.671 312.377 189.001C311.669 188.096 310.509 187.435 309.282 187.369C309.245 187.36 309.197 187.36 309.16 187.36" stroke="black" stroke-width="1.88702" stroke-linecap="round" stroke-linejoin="round"/>
        <path d="M194.901 96.4242L197.014 96.1411" stroke="black" stroke-width="1.88702" stroke-linecap="round" stroke-linejoin="round"/>
        <path d="M283.09 202.833L376.149 152.214" stroke="black" stroke-width="2.83053" stroke-linecap="round" stroke-linejoin="round"/>
        <path d="M191.089 97.8018C189.004 97.4904 184.711 98.1886 182.229 99.3302" stroke="black" stroke-width="1.88702" stroke-linecap="round" stroke-linejoin="round"/>
        <path d="M187.003 101.661C188.046 101.661 188.89 100.816 188.89 99.7737C188.89 98.7315 188.046 97.8867 187.003 97.8867C185.961 97.8867 185.116 98.7315 185.116 99.7737C185.116 100.816 185.961 101.661 187.003 101.661Z" fill="black"/>
        <path d="M206.817 95.2902C204.717 94.7013 202.02 95.3304 200.213 95.9997" stroke="black" stroke-width="1.88702" stroke-linecap="round" stroke-linejoin="round"/>
        <path d="M203.987 98.8302C205.029 98.8302 205.874 97.9853 205.874 96.9432C205.874 95.901 205.029 95.0562 203.987 95.0562C202.944 95.0562 202.1 95.901 202.1 96.9432C202.1 97.9853 202.944 98.8302 203.987 98.8302Z" fill="black"/>
        <path d="M194.648 121.611C196.354 122.118 197.175 122.042 198.435 121.709" stroke="black" stroke-width="1.88702" stroke-linecap="round" stroke-linejoin="round"/>
        <path d="M198.127 84.3379C196.627 84.4983 196.637 87.0363 198.382 86.725C200.128 86.4136 202.449 86.0079 206.355 85.9702C206.959 85.9702 206.978 84.8097 206.374 84.687C203.675 84.1209 200.798 84.0549 198.127 84.3379Z" fill="black"/>
        <path d="M190.041 85.4135C192.042 85.0927 192.778 87.5364 190.419 87.7817C188.06 88.027 184.928 88.3667 179.833 89.5649C179.05 89.7536 178.682 88.6497 179.427 88.3384C182.767 86.9514 186.475 85.9796 190.041 85.4135Z" fill="black"/>
    </g>
    <defs>
        <clipPath id="clip0_12582_9715">
            <rect width="588" height="392" fill="white"/>
        </clipPath>
    </defs>
</svg>
