<svg xmlns="http://www.w3.org/2000/svg" width="282" height="211" fill="none"><mask id="a" width="214" height="212" x="34" y="-10" maskUnits="userSpaceOnUse" style="mask-type:luminance"><path fill="#fff" d="M42.8 190.387a4 4 0 0 1-.062-.67V-6.221A3.77 3.77 0 0 1 46.5-9.977h173.51a3.77 3.77 0 0 1 3.761 3.756V188.42c14.743 1.384 23.575 3.136 23.575 5.052 0 4.444-47.607 8.049-106.328 8.049-58.72 0-106.327-3.605-106.327-8.049 0-1.096 2.89-2.135 8.11-3.086"/></mask><g mask="url(#a)"><path fill="#0D0C21" d="M141.018 201.562c-58.724 0-106.328-3.604-106.328-8.049 0-4.446 47.604-8.049 106.328-8.049 58.723 0 106.327 3.603 106.327 8.049s-47.604 8.049-106.327 8.049"/><path fill="#FED980" d="M54.216 86.875c-.508-.188-3.423-3.487-4.344-4.588-4.08-5.083-5.491-7.117-.226-12.087.884-.42 1.135.645 1.254 1.29.27 1.051.539 2.034.977 3.073a13.7 13.7 0 0 0 4.42 5.395 13 13 0 0 0 1.316.877c.226.087.464.231.59.419a38 38 0 0 1 1.754-1.847c-2.507-.926-4.438-3.104-5.773-5.351-1.322-2.216-2.062-5.177-.777-7.568.984-1.758 3.266-2.002 5.09-1.94 2.726.2 4.964.25 10.06 7.974 3.749-2.591 6.92-4.218 10.976-6.284 3.723-1.809 7.735-2.873 11.665-4.125 1.097-.331 2.181-.694 3.266-1.051-.207-.388-.276-.92-.42-1.39-.69-2.447-1.862-4.807-1.843-7.398-.05-1.621.77-4.119 2.814-3.68 1.987.72 4.275 3.185 5.579 4.85.219.357.658.676.577 1.14-.088.45-.69.594-.991.256-.909 1.202-1.548 2.573-2.024 4.006a7 7 0 0 1-.477 1.202c1.38-.4 2.771-.745 4.194-.97 4.858-.651 12.097-1.647 17.005-1.321 2.721.307 3.116 1.24 5.723 2.06 2.482.7 4.739 2.165 7.246 2.728 3.022-1.427 4.77.676 7.66 1.19.928.193 1.987.218 2.952.162 1.599-.087 4.225-1.646 5.548-.388 1.159.995.376 3.386.833 4.72.282.575.984.694 1.492 1.007 2.1 1.152 3.999 2.635 5.899 4.094 6.437 5.145 12.943 10.453 17.782 17.188 3.266 4.513 5.535 9.633 7.93 14.634 2.758 6.397 5.259 12.919 7.202 19.616 1.266 4.563 7.553 29.155 8.995 48.903 1.504 12.049 3.297 24.067 4.08 36.191.565 5.758-124.524 15.36-124.323 14.44 1.836-9.814 2.695-19.785 4.576-29.594-.533-.463-.157-2.115-.126-2.81.37-3.624.865-7.236 1.492-10.822.915-4.688 1.699-9.395 2.438-14.108-.075-.345-.062-.751-.031-1.039.063-1.309.17-2.617.257-3.925.464-7.743 1.793-15.41 3.435-22.984 1.48-6.966 2.802-16.881 2.463-16.518-1.046.958-3.347-2.153-4.136-2.842-1.336-1.427-2.796-2.741-4.062-4.231-2.025-2.378-8.324 1.158-12.737 2.404-3.385 1.014-12.624 5.42-17.915.281-2.388-2.315-4.225-5.295-4.933-8.531-.652-3.58-.125-7.254.94-10.722 0-1.477 3.009-9.645 4.639-11.986z"/><path fill="#FED980" d="M81.846 60.104c-.545.207-1.06-.263-1.542-.457-.815-.413-1.636-.82-2.432-1.258a.8.8 0 0 1-.157-.125c-.971-.532-1.905-1.17-2.852-1.703.138.539.602 1.158.64 1.734a.8.8 0 0 1 .225.325c.414.501.44 1.309-.344 1.384-1.091-.15-2.1-.72-3.14-1.077a.7.7 0 0 1-.239-.163c-.432-.194-.846-.388-1.235-.513.02.632.483 1.152.502 1.784 0 .075 0 .138-.02.207.126.156.252.319.346.5.2.432-.126.94-.596.952-.714-.013-1.366-.388-2.037-.614a25 25 0 0 1-3.04-1.358c-.245-.138-.332-.35-.313-.557-.784-.338-1.574-.645-2.407-.82-1.499.958-1.079 2.31-3.686 2.973-2.57.307-1.46-3.586-.514-4.682 1.19-1.546 3.353-1.458 5.121-2.053a9.8 9.8 0 0 0 2.438-1.17c1.016-.726 2.031-1.602 3.36-1.577.702-.026 1.398.056 2.1.068.64.12 1.786-.294 2.012.551.345-.507 1.06-.281 1.555-.169 1.961.482 3.616 1.74 4.889 3.267.683.708 1.861 2.379 1.41 3.224.37.37.514 1.07-.038 1.327zm100.723 35.384c-.476.369-1.14-.451-.639-.827.483-.388 1.122.451.639.827"/><path fill="#3F3D56" d="M75.333 77.617c.602-.588.834-1.452 1.31-2.14.508-.845 1.172-1.628 2.037-2.116.828-.494 1.956-.494 2.846-.47 3.836.032 7.748 2.542 9.603 5.84.715 1.328 1.229 2.867.978 4.388-.32 1.596-.871 3.268-2.025 4.457-1.122 1.089-2.877.807-4.319.851h.057c-3.517.013-6.839-2.04-8.562-5.051-.972-1.79-.903-3.987-1.925-5.752zm-21.725-3.304c-.684-1.359-.884-2.974-.922-4.438.144-1.872 1.103-3.843 2.827-4.72 1.968-.957 4.382-.845 6.325.113 1.811.914 3.654 1.984 4.901 3.618 1.26 1.846 2.12 4.025 1.925 6.29-.013.733-.232 1.509.031 2.216-2.275 1.646-2.664 3.167-5.904 2.967-2.677-.081-4.752-1.652-6.657-3.292-.934-.814-1.9-1.66-2.52-2.754zM52.36 64.88c-1.642 2.278-2.03 5.27-1.398 7.968.86 2.93 2.821 5.496 5.272 7.298 2.601 1.947 5.823 3.505 9.158 3.005 2.118-.313 4.143-1.07 6.067-1.99.445-.214.915-.445 1.28-.79.3-.319.5-.644.62-.957.163 1.64 1.297 3.48 2.018 4.644 2.877 4.532 8.067 7.85 13.564 7.355 2.539-.182 4.764-1.521 6.858-2.855 1.799-1.126 3.566-2.303 5.221-3.636 1.586-1.196 2.978-2.817 3.297-4.832.32-2.717-.558-5.483-2.043-7.743-.796-1.233-1.693-2.428-2.902-3.28-2.67-1.946-6.174-1.62-9.183-.757-2.012.495-4.075.764-6.093 1.233-2.119.55-4.331.939-6.312 1.903-1.56.776-3.987 4.137-3.83 5.865a2.4 2.4 0 0 0-.514.97c0-.025-.012-.05-.019-.069.427-1.778.903-3.449 1.962-4.963.427-.708 1.072-1.24 1.806-1.603 2.457-1.102 5.064-1.821 7.622-2.66 1.623-.476 3.134-.77 4.763-1.083.621-.113 1.242-.238 1.862-.325.15-.02.307-.044.426-.144a.58.58 0 0 0 .157-.695 2.7 2.7 0 0 0-.081-.52c-.602-2.31-2.295-4.193-4.25-5.489-1.198-.782-2.451-1.552-3.818-1.997-.37-.069-.796-.018-1.028.313-.3.413-.056.946-.207 1.39-1.441.131-3.36-1.183-4.65-1.822-.49-.294-1.216-.75-1.674-.169-.765.864 2.025 2.923-.389 2.179-1.379-.489-2.52-1.158-3.823-1.715-.57-.395-1.404.012-1.097.745.457.782 1.724 1.414 1.73 2.397-.79.62-1.85-.2-2.67-.432-1.474-.507-2.896-1.277-4.45-1.496-2.138-.063-4.2.732-6.244 1.27-2.45.802-5.284 1.415-6.989 3.493z"/><path fill="#FED980" d="M86.29 74.995c.69-.207 1.655.983 2.125 1.433 1.228.676 1.742 2.203 2.313 3.411 1.874 4.1.934 8.363-4.043 9.089-4.752.945-10.9-5.69-10.844-10.24.169-6.04 6.337-7.449 10.449-3.7zm-24.02-9.351c1.185.557 2.17 1.452 3.053 2.397.476.307.796.801 1.11 1.258.238.288.463.588.689.889a.63.63 0 0 1 .088.582c1.034 2.385 1.836 5.546.482 7.943-.946 1.396-2.745 1.91-4.356 1.965-2.307.082-4.288-1.414-6.018-2.772-3.466-2.686-6.569-7.88-3.485-11.955 2.163-2.435 5.849-1.471 8.437-.307"/><path fill="#EAB339" d="M199.983 185.276a.8.8 0 0 1 .125-.244c1.924-1.678 5.491-5.095 7.829-2.329 1.254 1.54 1.548 3.637 1.73 5.552.301 3.549-.47 7.067-1.636 10.403-.928 2.773-2.018 5.483-3.071 8.206-.151.382-.295.757-.452 1.139-.207.401-.269.97-.702 1.196a.6.6 0 0 1-.194.05c.019.788-.057 1.458-.37 1.633a.6.6 0 0 1-.263.075c-.351 0-.621-.394-.564-.763q0-1.043-.094-2.084c-.364-3.906-1.041-7.774-1.361-11.68-.206-2.072-.445-4.138-.664-6.209a130 130 0 0 1-.37-4.138c-.044-.269-.056-.576.063-.801zm-6.024-46.481c.909-.363 1.849-.67 2.82-.839 1.405-.219 3.034-.363 4.194.626 2.463 2.216 3.259 5.784 3.353 8.976-.119 4.619-1.611 9.089-3.077 13.426-.495 1.421-.984 2.842-1.505 4.25-.363.751-.457 1.872-1.322 2.228a1 1 0 0 1-.182.019c-1.091 0-.802-2.397-.953-3.179-.144-2.279-.313-4.557-.721-6.804-.608-3.38-1.134-6.773-1.824-10.134-.457-2.466-1.109-4.92-1.36-7.417-.508-.526.044-1.027.589-1.164zm-16.661-48.052c1.63-.375 3.353-.394 5.021-.288 3.729.082 6.487 1.596 8.192 4.97 3.485 6.585 1.11 17.025-1.36 23.704-.263.294-.502.413-.715.413-.946 0-1.441-2.385-1.711-3.155-.307-1.083-.602-2.166-.965-3.236-2.645-7.286-5.71-14.484-10.105-20.906-.256-.05-.413-.306-.426-.55.05-.84 1.455-.745 2.069-.964zm-28.169-24.974c.401-.745 1.385-1.04 2.056-1.515 1.272-.751 2.639-1.415 4.087-1.715 1.705-.27 3.403.47 4.782 1.42 2.075 1.353 3.467 3.462 4.432 5.703.746 1.777 4.626 10.766 3.46 11.974a.7.7 0 0 1-.451.162c-.959 0-2.2-1.796-2.858-2.29-2.144-2.103-4.564-4.069-6.996-5.846-2.306-1.703-4.782-3.149-7.321-4.476a2.84 2.84 0 0 1-1.335-1.358c-.213-.601-.752-1.797.144-2.053zm-25.136-7.868c1.178-.645 2.351-1.32 3.303-2.278 3.623-3.593-1.661-8.726-3.04-12.262-1.868-3.837-1.667-9.214 2.031-11.886q.33-.243.671-.476c.244-.232.495-.457.765-.664 2.005-1.533 4.488-2.278 6.857-3.06 1.768-.476 3.498-1.133 5.303-1.421.219-.025.489-.056.683.094a.5.5 0 0 1 .113.112c.301-.087.595-.181.896-.275 2.345-.651 4.639-1.54 6.588-3.03a31 31 0 0 0 1.705-1.376c.395-.289.74-.758 1.222-.877.79-.613 1.229.664 1.191 1.296.195 2.572-1.861 4.4-3.723 5.833-1.736 1.34-3.485 2.654-5.303 3.887-2.839 1.653-5.359 4.15-4.883 7.718.959 7.761 6.889 13.833-1.517 19.873-1.667 1.277-3.278 2.61-4.72 4.15-1.416 1.327-2.3 2.992-2.288 4.97.019 2.31.182 2.985-2.425 3.31a17 17 0 0 1-2.081.138 11 11 0 0 1-2.401-.244c-1.73-.406-3.329-1.314-4.626-2.503-1.843-1.465-1.987-4.2-.696-6.072 1.498-2.297 4.068-3.605 6.381-4.944zM99.51 23.481c2.193-2.34 5.24-3.661 7.396-6.059.846-.913 1.435-1.927 1.993-3.054.301-.607.602-1.214 1.034-1.74.257-.276.508-.676.909-.726.953-.801 1.467.895 1.498 1.633.17 1.903-.708 3.693-1.604 5.314-1.492 2.78-3.51 5.54-4.463 8.62-.671 2.265.482 4.575 1.88 6.315 2.52 2.892 6.137 5.852 5.842 10.065-.376 3.63-2.25 6.847-3.635 10.159-.383.907-.32 1.915-.182 2.872.088 1.146.752 2.147.859 3.28.037.814-.188 1.734-.884 2.222-.295.213-.564.3-.821.3-.577 0-1.091-.431-1.611-.857-.602-.494-1.223-.995-1.975-.826-.627.075-1.134.482-1.724.657-.42.1-.789-.087-1.159-.275-.364-.188-.727-.37-1.154-.276-.676.094-1.203.595-1.867.689-2.17-.188-1.455-3.142-.828-4.475.759-1.484 1.655-2.905 2.614-4.263 1.717-2.303 3.579-5.039 1.191-7.63-1.429-1.74-3.63-2.572-5.184-4.194-2.72-2.553-5.083-6.447-3.961-10.283.902-3.174 3.616-5.227 5.835-7.487zM61.8 103.593a.56.56 0 0 1 .37.194c.777-.119 1.279.807 1.56 1.402.722 1.508.258 3.68-1.453 4.256a2.3 2.3 0 0 1-.627.082c-1.116 0-2.226-.739-2.802-1.659-.376-.695-.564-1.546-.332-2.322.432-1.346 1.905-2.16 3.284-1.953m-12.862-.751a23 23 0 0 1 .25-2.178.65.65 0 0 1 .176-.351c-.294-.187-.275-.657.032-.832.802-.32 1.71.632 2.112 1.252.884 1.352.69 3.837-1.122 4.269a2 2 0 0 1-.238.018c-1.047 0-1.316-1.295-1.21-2.184z"/><path fill="#0D0C21" d="M103.327 58.89c-.075.226-.144.45-.219.676.068-.281.144-.563.219-.845a.2.2 0 0 0 .056-.012c-.018.05-.031.1-.05.15v.031zm-27.436 9.79s-.019.012-.025.012c.013 0 .019-.012.031-.019zm.013-.007s-.012.006-.018.012h.012zM62.59 109.621a3.45 3.45 0 0 1-1.455.313 4 4 0 0 1-.758-.075h-.006s-.019 0-.032-.007a3.6 3.6 0 0 1-1.523-.776 3.6 3.6 0 0 1-1.134-1.946c-.207-1.064.075-2.222.815-3.03.37-.407.815-.732 1.328-.939.414-.162.865-.288 1.31-.25 2.107.169 3.04 1.853 3.116 2.009.326.651.451 1.402.32 2.122a3.46 3.46 0 0 1-1.988 2.579zm.833-3.693c-.025-.106-.05-.213-.081-.313-.176-.426-.57-.814-.652-.889a2.3 2.3 0 0 0-.483-.332q-.141-.066-.282-.125a2 2 0 0 0-.313-.087q-.15-.027-.301-.044c-.1 0-.2-.006-.3 0a3 3 0 0 0-.308.037 3 3 0 0 0-.282.075c-.1.032-.194.076-.288.119q-.123.064-.245.138a3 3 0 0 0-.238.175q-.112.102-.226.213a2 2 0 0 0-.175.219 4 4 0 0 0-.163.269 4 4 0 0 0-.12.27c-.03.1-.062.2-.087.3-.019.106-.038.207-.044.313a2.6 2.6 0 0 0 .038.613c.019.1.05.201.081.307q.046.13.1.25c.044.094.094.182.15.276q.084.12.176.231.096.104.201.207a2.2 2.2 0 0 0 .765.463c.1.038.2.063.3.088.1.019.201.037.308.044s.22.006.326 0a2.6 2.6 0 0 0 .595-.113c.088-.031.182-.069.263-.106q.132-.066.264-.151.114-.076.22-.162c.08-.076.162-.151.237-.232q.105-.114.188-.238.084-.123.157-.257.068-.14.125-.281.046-.151.082-.294c.019-.107.037-.219.05-.326 0-.113.006-.219 0-.332-.006-.106-.025-.206-.038-.313zm-9.54-30.545c-.934-1.427-1.604-3.06-1.767-4.763-.107-1.07-.013-2.172.363-3.186a5.6 5.6 0 0 1 1.285-2.016.6.6 0 0 1 .301-.162 3.5 3.5 0 0 1 .389-.345 5.4 5.4 0 0 1 1.573-.832c1.88-.632 3.993-.32 5.792.425 1.768.74 3.341 1.89 4.626 3.3l.019.018c.006.012.019.019.025.031.17.188.345.395.514.601 1.134 1.42 1.993 3.086 2.363 4.87s.2 3.724-.821 5.27c-.696 1.052-1.743 1.803-2.934 2.19-1.078.357-2.237.408-3.36.245-.42-.063-.84-.15-1.24-.263a12 12 0 0 1-3.642-1.771 13.5 13.5 0 0 1-3.48-3.612zm5.974 3.668c.407.188.828.35 1.254.482.345.106.696.188 1.047.257q.525.084 1.053.112c.282.006.558 0 .84-.025q.358-.037.708-.112.321-.075.633-.188a4.4 4.4 0 0 0 1.028-.526 4.2 4.2 0 0 0 1.122-1.17 5 5 0 0 0 .282-.507c.088-.195.17-.395.238-.601q.105-.34.17-.689a7 7 0 0 0 .08-.782q.011-.45-.024-.902a8 8 0 0 0-.163-1.02 10 10 0 0 0-.326-1.095q-.227-.61-.52-1.183a13 13 0 0 0-.746-1.24 13 13 0 0 0-.978-1.233q-.554-.602-1.172-1.139a13 13 0 0 0-1.26-.939q-.638-.412-1.323-.738a11 11 0 0 0-1.278-.501 10 10 0 0 0-1.135-.275 7 7 0 0 0-1.862-.075 5.7 5.7 0 0 0-1.379.312q-.3.115-.583.257-.3.157-.583.35c-.069.044-.131.094-.2.144a.6.6 0 0 1-.144.245 8 8 0 0 0-.232.244c-.126.144-.239.3-.345.457a4.3 4.3 0 0 0-.526 1.133 6 6 0 0 0-.245 1.445c-.006.3 0 .608.025.908.038.338.088.67.163 1.002q.132.553.32 1.089c.157.425.338.832.545 1.233.226.425.47.832.74 1.226a12 12 0 0 0 2.143 2.354c.414.35.853.676 1.31.97q.64.406 1.317.726zm17.394-5.308q.181-.186.389-.344c.47-.37 1.01-.639 1.573-.832 1.88-.633 3.993-.32 5.792.425 1.768.739 3.341 1.89 4.626 3.299l.019.019a.1.1 0 0 1 .025.03c.17.189.345.395.514.602 1.134 1.42 1.993 3.086 2.363 4.87.37 1.783.2 3.724-.821 5.27-.696 1.051-1.743 1.802-2.934 2.19-1.078.357-2.237.407-3.36.244a10 10 0 0 1-1.24-.263 12 12 0 0 1-3.642-1.77 13.5 13.5 0 0 1-3.48-3.612c-.933-1.427-1.604-3.061-1.767-4.764-.106-1.07-.012-2.172.364-3.186a5.6 5.6 0 0 1 1.285-2.015.6.6 0 0 1 .3-.163zm-.696 3.537c-.037.25-.068.507-.075.763-.006.3 0 .607.025.908q.05.506.163 1.001.132.555.32 1.09.235.637.545 1.239a12 12 0 0 0 1.711 2.441 12.4 12.4 0 0 0 2.488 2.11c.427.268.866.513 1.317.725q.614.283 1.254.482c.345.107.696.188 1.047.257q.526.084 1.053.113c.282.006.558 0 .84-.026q.359-.037.708-.112.321-.075.633-.188a4.4 4.4 0 0 0 1.448-.857 4.3 4.3 0 0 0 .99-1.346q.134-.29.239-.601.103-.34.169-.689c.044-.256.069-.52.081-.782q.012-.45-.025-.901a8 8 0 0 0-.163-1.02 10 10 0 0 0-.325-1.096 11 11 0 0 0-.52-1.183 13 13 0 0 0-.747-1.24c-.3-.431-.627-.838-.978-1.232a15 15 0 0 0-1.172-1.14 13 13 0 0 0-1.26-.938A12 12 0 0 0 85 74.319a11 11 0 0 0-1.279-.5 10 10 0 0 0-1.135-.276c-.056-.006-.112-.019-.169-.025a8 8 0 0 0-.796-.075c-.3-.013-.595 0-.896.025a7 7 0 0 0-.727.112 6 6 0 0 0-.652.195q-.299.114-.59.256-.3.157-.582.35c-.07.05-.132.094-.2.145a.6.6 0 0 1-.145.244q-.121.122-.232.244a4 4 0 0 0-.627.97q-.142.3-.238.62c-.069.225-.12.45-.163.682z"/><path fill="#0D0C21" d="M79.966 78.231a97 97 0 0 1 6.663 3.349c.42.231.833.463 1.24.707.383.27 1.004.444 1.06.976a.54.54 0 0 1-.539.551c-.345-.025-.62-.275-.921-.42-.985-.55-1.975-1.076-2.978-1.601a103 103 0 0 0-5.09-2.485c-.3-.138-.407-.539-.257-.82.144-.294.527-.407.822-.257m-24.328-7.918a.6.6 0 0 1 .364-.3.65.65 0 0 1 .457.043c.232.107.464.207.696.313.564.244 1.197.52 1.837.801l.52.226c.088.037.17.075.257.112.019.007.044.02.063.025l.087.038c.439.194.872.382 1.31.576q.087.038.163.075c.02.006.038.019.057.025.833.37 1.673.739 2.5 1.127.383.181.772.369 1.142.576.35.194.846.444.752.926a.51.51 0 0 1-.358.382c-.05.012-.1.025-.15.025-.207 0-.401-.126-.583-.213-.802-.4-1.617-.764-2.438-1.12-.477-.207-.953-.42-1.423-.627 0 0-.013 0-.019-.006q-.375-.161-.752-.331l-.025-.013s-.044-.019-.063-.025l-.025-.012c-.012-.007-.031-.013-.044-.02l-.038-.018c-.037-.019-.075-.031-.112-.05-.013 0-.038-.019-.07-.031-1.26-.551-2.557-1.096-3.835-1.678-.301-.138-.408-.538-.257-.82z"/><path fill="#0D0C21" d="M50.568 84.065c-1.474-1.49-2.934-3.036-4-4.858-.934-1.614-1.473-3.667-.501-5.401.338-.595.752-1.146 1.153-1.697a93 93 0 0 1 2.953-3.799 9.8 9.8 0 0 1 .676-2.103c1.179-2.579 3.498-4.006 6.05-4.92l-.264-.262q.366-.386.72-.77c0-.007 0-.013.007-.026q.001-.016.013-.043.036-.125.062-.257c0-.025.013-.056.02-.081.012-.063.024-.132.03-.194q.002-.037.013-.075.02-.134.019-.257v-.363a3 3 0 0 0-.032-.232v-.031c.565-1.54 1.517-2.917 2.909-3.824.74-.476 1.548-.845 2.407-1.033.72-.157 1.454-.22 2.181-.332.383-.075.815-.112 1.091-.42 1.837-2.472 3.498-2.409 6.318-1.877.232 0 .445-.019.665-.05.263-.031.539-.063.852-.038.533.025 1.06.126 1.574.263.432.063 2.287.801 3.253 1.559.156 0 .32.069.464.219.564.5 2.106 2.648 3.084 4.588 3.272.62 6.318 2.04 8.493 4.613.947-.332 1.9-.657 2.852-.964-.15-.325-.226-.739-.345-1.008-.113-.52-.583-1.414-.533-2.053-1.103-2.892-2.5-7.442-.137-9.964 2.212-2.197 5.403 1.089 6.832 2.804.533.607 1.04 1.233 1.536 1.871 1.661-1.996 3.24-4.075 1.692-6.566-.953-1.308-2.401-2.222-3.723-3.223-1.9-1.409-3.667-3.111-4.72-5.195-4.864-9.239 5.146-15.51 11.257-20.168 1.229-1.014 2.226-2.24 2.89-3.68.577-1.076.99-2.378 2.125-2.98 3.222-.707 2.445 4.501 1.812 6.072-2.226 5.615-9.108 9.577-3.642 16.393 4.212 4.694 7.321 7.417 5.478 13.113-.05.063-.075.138-.106.213-.026.062-.051.131-.076.194-.05.131-.094.263-.144.4-.044.126-.1.245-.15.37-.025.069-.05.137-.076.213l-.037.118s0 .013-.006.02c0 0-.007.018-.013.024-.05.12-.106.244-.157.363-1.097 2.335-2.664 4.526-3.04 7.11a3.1 3.1 0 0 0 .101 1.666c4.306-.488 8.65-.488 12.912.269 2.445-1.233 4.72-2.648 4.294-5.721-.376-1.759-1.436-3.336-2.332-4.945-1.291-2.284-2.325-4.807-2.451-7.398-.771-11.567 12.223-13.439 20.529-15.417 1.704-.475 3.272-1.277 4.594-2.44 1.072-.833 2.075-1.972 3.498-2.073 3.591.733.451 5.671-.897 6.98-4.795 4.7-13.57 5.633-11.088 15.01.401 1.232.79 2.378 1.135 3.454a.52.52 0 0 1 .094.3c1.448 4.614 1.961 8.069-1.58 12.018a1 1 0 0 0-.207.17c-.056.056-.106.112-.163.162-.044.05-.088.094-.138.144-.062.069-.125.131-.188.2a.5.5 0 0 1-.088.082c-.075.075-.156.144-.231.219-.063.056-.12.125-.176.188-.031.03-.063.068-.094.1l-.019.019-.019.018c-.106.1-.219.2-.319.3-.815.702-1.68 1.353-2.533 2.029q.263.12.527.231c1.786.676 3.554 1.409 5.296 2.185 1.862-.683 3.774-1.17 5.761-1.246 1.222.081 2.056.927 2.526 1.966a145 145 0 0 1 4.444-1.866c.633-.238 1.254-.532 1.906-.72l.012-.025c.044-.012.094-.018.138-.03 3.047-.777 5.629 1.445 7.253 3.78 2.087 2.923 3.34 6.334 4.419 9.733.188 1.02 2.331 6.885 1.203 7.38a101 101 0 0 1 3.498 3.993 69 69 0 0 1 3.178 3.98c.395-.112.833-.168 1.134-.25 2.025-.413 4.1-.638 6.168-.695 1.091-.024 2.213-.037 3.272.257 1.06.338 2.044.92 2.89 1.64.821.726 1.454 1.627 2.018 2.566a14.4 14.4 0 0 1 1.906 6.147c.213 2.128.2 4.275-.05 6.403-.565 4.92-1.574 9.821-3.423 14.428 1.73 5.627 3.184 11.335 4.425 17.106 1.047-.463 2.1-.92 3.216-1.177 1.536-.394 3.347-.275 4.57.833.777.688 1.454 1.508 1.824 2.491 1.291 3.317 1.429 6.948 1.128 10.459-.219 2.541-.79 5.045-1.467 7.499a64.7 64.7 0 0 1-4.268 11.21c.47 4.012.902 8.024 1.303 12.024.069.757.144 1.508.22 2.266.47-.32.902-.595 1.078-.764 9.333-7.054 9.659 4.588 8.543 11.135-.921 6.028-3.127 11.774-5.904 17.182a.6.6 0 0 1-.157.2c-.05.213-.138.426-.201.632l-.094.244c.345 2.98.677 5.953.978 8.932.094.977.188 1.953.276 2.936.947-.833 1.956-1.603 3.103-2.135 4.525-1.946 3.541 4.67 2.733 7.111-.821 2.785-2.345 5.289-3.836 7.761a.57.57 0 0 1-.477.263c-.426 0-.827-.482-.52-.951a75 75 0 0 0 2.275-3.981c1.198-2.366 2.664-6.435 1.749-9.051-.702-1.089-3.554 1.233-4.902 2.46.126 1.527.239 3.061.326 4.594a.614.614 0 0 1-.532.67h-.063c-.295 0-.589-.232-.608-.538l-.038-.664c-.395-6.24-1.097-12.462-1.824-18.671-3.103-23.435-4.287-47.094-9.158-70.279-1.31-6.553-2.902-13.05-4.883-19.434a.56.56 0 0 1-.094-.301 41 41 0 0 0-.288-.914c-2.369-7.279-4.895-14.571-8.525-21.337-1.322-2.479-2.839-4.833-4.488-7.092a.2.2 0 0 1-.05-.025.56.56 0 0 1-.194-.3 88 88 0 0 0-4.526-5.596c-4.996-5.921-11.082-10.873-17.707-14.916a81 81 0 0 0-2.74-1.627 12.6 12.6 0 0 1-1.184 2.873c-2.1 3.88-6.381 5.94-10.575 6.716-.32.062-.639-.2-.683-.52-.069-.488.401-.707.815-.738a19 19 0 0 0 2.432-.67c1.673-.588 3.322-1.358 4.651-2.554 2.187-1.947 3.723-4.832 3.642-7.799-.107-1.22-.527-2.91-2-3.004-2.451.15-4.764 1.001-7.039 1.915-1.548.651-3.021 1.477-4.607 2.047-.596.25-1.128-.476-.608-.908 1.661-.788 3.341-1.64 5.071-2.372q-1.25-.534-2.508-1.039-.132-.045-.257-.081c-.727-.25-1.429-.582-2.131-.895-.131-.057-.269-.1-.388-.17-1.028.87-1.981 1.816-2.708 2.967-1.724 2.435.652 4.57-1.172 6.034-1.285 1.027-2.163-.094-1.254-.55 1.968-.426.025-2.736.909-4.733.307-.95.846-1.783 1.485-2.54-.1 0-.194.006-.294.006-2.627 0-5.754-.996-7.635-2.754-.226-.263-.652-.614-.865-.983-3.485 1.715-6.932 5.05-3.88 8.988 1.943 2.203 5.905 2.76 8.531 2.097.326-.163.796-.088.884.306.044.79-1.16.802-1.761.927a17 17 0 0 1-1.129.044c-2.319 0-4.845-.539-6.663-2.047a6 6 0 0 1-.464-.426c-2.87-3.092-1.767-7.129 1.317-9.25v-.038c.094-.176.181-.35.275-.526-.018.05-.031.1-.05.15l-.056.17c-.013.018-.019.043-.031.062-.019.037-.038.081-.057.119q.122-.084.245-.157c.558-.444 1.222-.826 1.924-1.195a46 46 0 0 0-1.843-.226c-2.871-.238-5.754-.144-8.612.17.532.857 1.078 1.577.564 2.578-.683 1.315-1.812.714-1.235 0 1.467-1.064-.978-2.26-.984-4.225-.006-.069-.013-.131-.013-.2-.927.55-2.507.926-3.071.995-.42.069-.953.1-1.53.1-1.792 0-4.074-.325-5.246-1.039-.79 1.602-1.084 3.324-.238 4.75 1.385-1.351 2.933-1.013 4.381-.15.025-.018.057-.037.082-.062.727-.663 1.648-1.19 2.67-.951 3.736 1.126 6.105 4.738 7.81 8.036 2.445 4.17 6.488 7.067 10.148 10.103 3.636 2.867 7.165 5.852 10.75 8.788 1.141.932 2.263 1.89 3.385 2.848.069.062.138.119.213.181.195.113.376.27.533.388 1.279 1.002 2.476 2.11 3.705 3.18a238 238 0 0 1 7.446 6.766c3.266 3.074 6.5 6.184 9.666 9.358 2.281 2.447 5.253 4.707 6.111 8.087.847 5.163-4.977 9.288-8.556 12.099-3.291 2.435-6.525 4.763-10.117 6.81a.6.6 0 0 1-.313.087c-.533 0-.871-.807-.301-1.133a71 71 0 0 0 4.57-2.854 164 164 0 0 0 3.823-2.691c3.529-2.742 9.089-6.203 9.785-10.929.144-2.184-1.442-3.937-2.796-5.47-4.306-4.545-8.876-8.851-13.42-13.151-2.438-2.31-4.952-4.538-7.478-6.747-.79-.695-1.573-1.402-2.376-2.085a2.4 2.4 0 0 0-.282-.244c-.533-.175-.89-.732-1.354-1.045-3.572-2.986-7.17-5.94-10.762-8.894-2.752-2.216-5.56-4.357-8.174-6.735-2.526-2.179-4.714-4.72-6.13-7.755-1.342-2.191-3.015-4.363-5.366-5.534-.871-.482-1.554-.3-2.244.257.84.638 1.624 1.364 2.288 1.921.69.633 1.36 1.296 2 1.978.388.583 1.83 1.421 1.065 2.147a.6.6 0 0 1-.357.132c-.389 0-.702-.482-.965-.77q-.594-.659-1.216-1.29c-1.636-1.596-3.316-3.26-5.41-4.262-1.228-.463-2.106.52-2.915 1.39 2.37.62 4.457 2.34 6.262 3.918a20.5 20.5 0 0 1 2.012 2.103.617.617 0 0 1-.1.851.6.6 0 0 1-.357.132c-.408 0-.721-.526-1.003-.82-.602-.67-1.31-1.34-2.05-1.985-1.943-1.564-4.212-3.36-6.845-3.223-.965.188-1.648.939-2.269 1.646q-.393.481-.777.97c1.787.082 3.886.639 5.297 1.27 1.385.614 2.237 1.922 3.102 3.105a14.6 14.6 0 0 1 2.602 6.473v.087c0 .038.012.069.019.107v.08l-.019.326-.038.626c-.012.213-.019.432-.05.645a7 7 0 0 1-.113.682v.025q-.007.048-.025.094c-.006.038-.019.07-.025.107v-.013.038-.02.02-.007.013l-.038.169c-.012.063-.031.131-.043.194v-.019c0 .006 0 .019-.007.025 0 0 0 .019-.006.025v-.012q.001.019-.006.037v.007c-.013.043-.025.094-.044.137l-.038.138c-.012.044-.031.081-.044.125a1 1 0 0 1-.043.132c-.007.025-.019.05-.026.068a5 5 0 0 1-.294.601c0-.006.012-.018.012-.025q-.029.048-.05.094c-.006.013-.019.031-.025.044-.238.394-.514.764-.758 1.152a.4.4 0 0 0-.044.087q-.386.48-.771.902c.081.05.157.094.244.137q-.187.13-.376.27c.671.018 1.335-.038 2.031-.126 1.204-.15 2.526-.544 3.673-1.02.884-.37 1.737-.807 2.595-1.233.552-.263 1.116-.582 1.718-.72l-.508-.47c-.244-.381.107-.894.552-.832 1.723.983 3.04 2.635 4.544 3.937 5.102 4.87 10.086 9.852 14.887 15.022 3.974 4.294 7.954 8.582 11.778 13.013 4.037 3.825-1.586 7.674-4.927 9.276a.6.6 0 0 1-.307.094c-.533 0-.884-.82-.307-1.139 2.257-1.245 5.29-2.691 5.798-5.47-.84-2.247-2.996-3.812-4.444-5.69-8.117-9.057-16.498-17.914-25.399-26.201-.288.05-.589-.22-.859-.376-.326-.087-.658.044-.959.163-3.209 1.571-5.898 2.998-9.54 2.998q-.208.001-.426-.006c-.458-.038-.627-.438-.539-.764-3.874 2.598-7.604 5.903-12.305 6.767-.413.05-.833.069-1.26.069-6.287 0-13.489-5.127-15.024-11.298-2.038 1.289-4.181 2.36-6.576 2.804-.413.05-.84.075-1.266.075q-.874 0-1.768-.132c-1.454-.206-2.92-.663-4.325-1.308-2.382 2.51-4.525 5.245-6.167 8.294-1.273 2.49-2.326 5.151-3.047 7.886.226.057.464.113.665.238 2.306 1.471 2.056 3.073 1.93 3.793a3.46 3.46 0 0 1-1.987 2.579 3.5 3.5 0 0 1-1.454.319q-.095.002-.188-.006c-.013.338-.013.67-.013 1.008.17 3.968 1.549 8.03 4.507 10.791 1.887 1.758 4.344 3.142 6.995 2.973 3.323-.257 6.6-1.377 9.785-2.329 4.463-1.421 8.888-3.01 13.27-4.663 7.327-2.892 14.693-5.689 22.114-8.337 4.651-1.665 9.29-3.411 14.072-4.669.577-.107 1.887-.614 2.006.294.652.5 1.009 1.32 1.179 2.103.062.325-.182.645-.502.695-.376.068-.689-.245-.721-.608a3.2 3.2 0 0 0-.482-1.051c-.126-.219-.364-.319-.521-.495a1.5 1.5 0 0 0-.319.082c-6.394 1.759-12.656 4.212-18.912 6.466a265 265 0 0 0-6.475 2.391v.031c-.012.125-.03.244-.044.363-.05.35-.094.701-.144 1.051-.106.777-.219 1.546-.332 2.323-.602 4.206-1.222 8.406-1.836 12.612q-1.043 7.137-2.094 14.265l-2.181 14.853q-1.051 7.191-2.113 14.383c-.702 4.795-1.41 9.596-2.112 14.39-.658 4.476-1.316 8.951-1.968 13.433-.646 4.412-1.298 8.825-1.944 13.238-.62 4.212-1.234 8.425-1.855 12.631-.32 2.172-.633 4.338-.953 6.503a.62.62 0 0 1-.601.514q-.048.002-.094-.007a.62.62 0 0 1-.508-.694l.3-2.035 1.28-8.738c.626-4.281 1.26-8.568 1.886-12.85.658-4.469 1.31-8.938 1.968-13.401.709-4.813 1.41-9.633 2.119-14.446l2.069-14.089c.708-4.839 1.423-9.677 2.13-14.516.728-4.982 1.461-9.958 2.195-14.94.545-3.731 1.097-7.468 1.642-11.198-.64-.632-1.279-1.264-1.925-1.89q-2.096-2.064-4.193-4.138c-.727-.72-1.454-1.439-2.175-2.172-.25-.256-.501-.507-.752-.763a234 234 0 0 1-8.143 2.923c-3.992 1.339-8.004 2.698-12.147 3.467-.784.138-1.58.232-2.376.232-.32 0-.633-.013-.953-.05-3.297-.369-6.186-2.548-8.136-5.133-2.438-3.304-3.429-7.548-3.19-11.617.388-5.514 2.106-10.922 4.845-15.717q.535-.9 1.128-1.765a79 79 0 0 1-3.197-3.098zm150.129 76.819c1.179-3.687 2.207-7.461 2.407-11.354.182-2.867-.044-5.784-.996-8.507-.358-1.045-1.054-1.934-1.937-2.591-.897-.569-2.044-.576-3.053-.35-1.153.244-2.282.744-3.372 1.201 1.937 9.201 3.341 18.54 4.481 27.873a66 66 0 0 0 2.47-6.272m2.326 49.11c.495-.983.978-1.978 1.429-2.98a65 65 0 0 0 2.733-7.411c1.279-3.718 4.557-21.913-3.868-16.637a29 29 0 0 0-3.153 2.141c.847 8.306 1.887 16.593 2.859 24.887m-22.221-110.35c3.027 6.328 5.547 12.844 7.678 19.485 1.68-4.688 2.595-9.652 2.965-14.609.069-2.592.025-5.27-.865-7.737-.902-2.466-2.476-4.857-5.064-5.746-1.047-.306-2.157-.269-3.235-.244a38 38 0 0 0-6.393.764 64 64 0 0 1 4.914 8.093zm-15.777-20.53a57 57 0 0 1 2.495 2.434c-.145-.738-.151-1.665-.351-2.09-.985-4.119-2.282-8.237-4.401-11.918-1.379-2.19-3.316-5.032-6.243-4.782a18 18 0 0 0-.865.15q-.207.073-.414.157a146 146 0 0 0-5.779 2.404c.031.143.05.281.069.425a7.6 7.6 0 0 1 0 2.097c5.541 3.148 10.819 6.785 15.495 11.129zM152.056 22.01c.157-2.898-3.291.907-4.081 1.346a10.3 10.3 0 0 1-1.855 1.158c.276.187.32.67.526.957.527.601 1.204 1.158 1.981 1.383.025 0 .05.013.075.013 1.536-1.227 2.802-2.735 3.354-4.863zm-4.513 5.714c-1.166-.613-2.602-1.984-2.282-2.829-.088.038-.175.07-.263.107-1.786.582-3.692 1.02-5.61 1.47a.6.6 0 0 1 .182.289c.288 1.17.909 2.272 1.711 3.173.376.363.783.701 1.26.933.363-.263.752-.52 1.172-.783 1.241-.77 2.582-1.508 3.83-2.353zm-6.043 3.931c-1.554-.87-2.764-3.142-3.109-4.62a.6.6 0 0 1 .038-.343c-2.589.613-5.171 1.295-7.497 2.435a.6.6 0 0 1 .094.143c.138.407.201.783.382 1.24 1.06 2.679 3.31 4.638 5.943 5.758.276.12.558.232.84.345.376-1.74 1.379-3.355 3.309-4.958m-3.466 6.09c-.997-.212-2.551-1.064-3.002-1.333-2.464-1.47-4.526-3.905-5.109-6.747-1.573.901-3.003 2.053-4.187 3.599-1.066 1.383-1.611 3.073-1.737 4.844a.57.57 0 0 1 .351.257 9 9 0 0 0 1.141 1.434c2.62 2.572 5.905 4.481 9.616 4.982 1.354.188 2.877.35 4.312.269-.896-2.785-1.529-5.158-1.373-7.305zm2.407 10.46-.658-1.997c-.289.037-.596.031-.84.056h-.477c-4.262 0-8.537-1.208-11.884-3.912-.928-.713-1.824-1.49-2.57-2.39.125 1.451.495 2.91 1.072 4.255.915 2.222 2.319 4.05 3.178 6.21.439 1.076.595 2.028.533 2.873.15.025.294.1.413.194.658.313 1.323.488 2.088.676 2.77.713 5.697.388 8.405-.451.182-.038.42-.163.658-.232.558-1.533.671-3.273.088-5.289zm-16.254 11.473c.753.713 1.699 1.176 2.664 1.533 1.561.557 3.304.99 5.015.751.163-.018.345-.025.502.007.319-.3.651-.589.977-.877.922-.7 1.875-1.42 2.777-2.184l.119-.081c.05-.038.094-.076.144-.113.063-.05.132-.094.195-.144q.065-.049.131-.107a1 1 0 0 0 .069-.062c.007-.006.019-.013.025-.019.007 0 .013-.012.019-.019q.058-.046.107-.094c.044-.037.081-.075.125-.119.031-.03.063-.056.094-.087l.019-.019c.019-.025.038-.044.063-.069.056-.062.106-.119.156-.181.032-.038.057-.075.088-.113.84-.826 1.586-1.715 2.163-2.685-1.361.42-2.783.657-4.2.776q-.432.03-.865.031c-1.636 0-3.272-.3-4.839-.788-.314-.12-.834-.25-1.21-.476-.727 1.997-2.802 3.317-5.008 4.4.219.27.42.589.664.745zm-36.63 58.273q2.103 2.055 4.199 4.119c.081.075.156.156.238.231.056-.369.107-.745.163-1.114l.903-6.103c.144-.976.288-1.946.438-2.923.076-.513.157-1.026.232-1.54 0-.018 0-.031.007-.05-3.291 1.265-6.57 2.56-9.86 3.812a486 486 0 0 1 3.68 3.568M49.314 104.25a2.6 2.6 0 0 0 .595-.113 3 3 0 0 0 .264-.106q.13-.067.263-.144.114-.078.22-.163c.08-.075.162-.15.237-.232q.105-.114.188-.238.084-.124.157-.256.067-.141.126-.282.044-.151.081-.294c.019-.107.038-.219.05-.326 0-.112.006-.219 0-.331a3 3 0 0 0-.037-.313 5 5 0 0 0-.082-.313 3 3 0 0 0-.113-.282c-.727-1.033-1.454-1.114-1.535-1.133a31 31 0 0 0-.684 4.538h.264zm23.324-51.833c-1.51-.063-3.253-.807-4.57.282-.564.444-.902 1.114-1.485 1.533-.564.376-1.26.445-1.912.539-.915.112-1.843.225-2.702.613-.526.219-.99.513-1.41.864a.8.8 0 0 0-.364 0 .9.9 0 0 0-.639.482 5 5 0 0 0-.194.5c-.07.213-.138.42-.2.633-.02.018-.038.043-.057.062q-.087.102-.163.213l-.02.031q-.077.115-.143.238a3 3 0 0 0-.138.282q.002.009-.006.019a5 5 0 0 0-.107.269c-.031.075-.05.15-.075.225-.006.031-.019.056-.025.088 0 .018-.013.037-.013.056l-.037.138c0 .019-.013.044-.013.062l-.019.094a8 8 0 0 0-.081.4q-.057.301-.094.602c-.013.075-.02.144-.032.212v.032a36 36 0 0 1 2.401-.607c.32-.075.646-.15.965-.226.458-.97 1.342-1.934 2.495-1.871 1.078.075 1.987.745 2.94 1.195.332.17.67.344 1.003.52h.019l.037.019h-.012c1.09.563 2.181 1.133 3.335 1.552-.39-.689-.84-1.333-1.304-1.972a2 2 0 0 0-.2.044.8.8 0 0 0-.045-.27c-.075-.2-.22-.362-.35-.525q.002-.002-.007-.012l-.013-.013c-.025-.031-.05-.069-.075-.1-.012-.025-.031-.05-.044-.075-.025-.038-.044-.075-.069-.107q.019.001.038-.006c-.3-.42-.59-.845-.859-1.283-.175-.394.27-.826.652-.62.188.1.332.257.47.413.351.395.677.808 1.003 1.227l.37-.075h.056a.61.61 0 0 1 .684-.131q.019.002.037-.007a.2.2 0 0 0 .032.038c1.36.607 2.657 1.37 4.049 1.91-1.034-1.628-2.163-3.137-3.56-4.526-.627-.332-.383-1.252.344-1.058.821.532 1.505 1.24 2.131 2.003.163-.182.42-.282.684-.144.27.138.526.313.783.476 1.918 1.132 3.748 2.447 5.804 3.317-.758-2.06-1.955-4.044-3.34-5.809-.295-.119-.552-.369-.84-.494-1.555-.845-3.285-1.578-5.09-1.227zm-9.396 7.248c.338-.075.677-.144 1.015-.219-.357-.081-.696-.037-1.015.22m32.1-30.833c.194.226.288.557.513.764 2.113 2.34 5.93 2.441 8.663 1.208.382-.175.739-.4 1.084-.639a.7.7 0 0 1 .144-.087c-.338-1.477-.188-3.06.633-4.914-.933-.08-1.836-.644-2.607-1.12-.407-.294-1.592-1.24-1.937-2.022-2.551 1.96-5.002 4.05-6.494 6.817zm16.441-15.967c-.928-2.441-2.376 1.947-2.865 2.591a9.6 9.6 0 0 1-1.103 1.634c.019.013.038.031.056.044.721.763 1.887 1.127 2.915.914q.019.002.038-.007c.802-1.558 1.278-3.242.959-5.176m-1.686 6.428h-.026c-.727 0-1.46-.219-2.099-.563-.295-.169-.746-.45-.984-.776-1.304 1.164-2.765 2.253-4.231 3.355.075.094.144.2.206.306.395.57.922 1.07 1.486 1.471.74.482 1.567.952 2.47.983a21 21 0 0 1 .94-1.533c.721-1.058 1.529-2.122 2.238-3.243m-4.012 11.868c-.238.2-.527.357-.746.5a9.1 9.1 0 0 1-3.347 1.046c-.364.044-.74.062-1.116.062-2.307 0-4.783-.788-6.124-2.666a11 11 0 0 0-.514 1.609c-.796 3.273.896 6.847 3.473 9.257q.556.524 1.14.983a.5.5 0 0 1 .213-.032c1.386.432 2.865.614 4.332.564 2.99-.057 6.149-1.384 7.622-4.106.069-.12.125-.263.194-.389-2.325-2.566-4.243-4.631-5.121-6.835zm5.936 7.767c-1.642 3.23-5.428 4.789-8.92 4.77h-.144c-.652 0-1.31-.038-1.962-.119.552.42 1.091.858 1.592 1.346 1.292 1.24 1.762 2.466 1.73 3.674.025.012.05.031.076.044 2.388 1.208 5.447 1.202 7.728-.244.182-.1.364-.295.564-.401 0-.013.013-.025.019-.044a1 1 0 0 0 .031-.1c.026-.069.044-.138.063-.206.006-.038.019-.082.025-.12 1.103-2.81 1.423-5.74-.796-8.587zm-11.458 17.163c1.88.576 3.898.82 5.848.526 1.04-.169 2.012-.538 2.965-.977.169-1.32.721-2.597 1.291-3.805a73 73 0 0 0 1.078-1.99 9 9 0 0 1-1.448.532 9.5 9.5 0 0 1-2.307.281 9 9 0 0 1-3.873-.857c-.433 1.477-1.511 2.898-2.652 4.225q-.189.272-.37.544c-.05.063-.106.132-.156.2-.032.038-.063.082-.094.12l-.05-.07c-.251.326-.496.664-.721 1.008.156.094.313.213.489.257zm-1.693-.2c.332-.632.803-1.265 1.31-1.89a41 41 0 0 0-2.432-2.91c-.82-.858-2.538-2.517-3.817-2.185-1.887 1.07-1.436 3.962-1.084 5.752.257 1.133.62 2.234 1.046 3.305.057.15.063.288.032.407.125.375.194.832.307 1.095.056.394.439 1.033.545 1.565.984-.307 1.975-.607 2.965-.89-.157-1.313.17-2.71.934-3.949a.05.05 0 0 0-.013-.031l.038-.532c0 .05.013.094.013.144 0 .056.012.106.018.163v.182c.044-.076.094-.145.144-.22zm-1.905 7.28q.384-.02.758 0l.013-.013c.263-.288.526-.582.802-.864a5 5 0 0 1-.501-.983c-2.188.62-4.35 1.315-6.494 2.06q.226.328.426.676c.432.757.777 1.577.909 2.447v.012l.056-.075c1.06-1.358 2.213-2.973 4.03-3.267zM74.945 82.33c1.448 3.123 4.086 5.558 7.164 7.06 3.115 1.709 6.945 2.291 10.192.607 3.222-1.615 6.156-3.711 9.083-5.82.05-.22.232-.42.413-.602a18.3 18.3 0 0 0 2.088-2.954c.044-.275.1-.538.088-.707.043-.783-.044-1.571-.188-2.341-.27-1.258-.652-2.498-1.217-3.656-.758-1.433-1.673-2.766-2.808-3.968-1.115-.901-2.582-1.195-3.949-1.502-.846-.163-1.705-.307-2.57-.257-.3.013-.639.125-.902-.075-.013-.006-.02-.019-.032-.025q-.158.068-.326.125c-.1.044-.206.082-.307.126-.069.025-.131.043-.2.068l.05-.069c.044-.062.088-.118.132-.181l-4.244.883c-2.232.475-4.47.957-6.657 1.614-1.366.432-2.82.977-3.943 1.935-2.895 2.328-3.466 6.478-1.88 9.733zm-5.504-.751a43 43 0 0 0 3.485-1.978 9.37 9.37 0 0 1 .796-4.97c1.73-3.78 5.911-5.095 9.672-5.928 2.752-.657 5.529-1.207 8.3-1.777l-.038-.344a5 5 0 0 0-.39-1.24c-1.554-3.286-4.895-5.47-8.392-6.228.313.883.382 1.596 0 1.878-.126.144-.32.207-.564.207-1.166 0-3.51-1.427-5.34-2.604-.164 0-.327.012-.483.019-.044 0-.094 0-.138.006.006.006.012.019.018.025.577.732 1.367 2.31-.081 2.547-1.367-.037-2.532-.945-3.755-1.464-.276-.2-.765-.332-1.153-.526q-.049.009-.088.019.246.347.483.695c.464.77 1.849 2.416.357 2.86a2 2 0 0 1-.2.012c-1.455 0-4.288-1.758-5.604-2.372-.082-.037-.157-.075-.238-.112l-1.524.319c-2.231.476-4.469.957-6.656 1.615-1.367.432-2.821.976-3.937 1.934-2.896 2.328-3.466 6.472-1.88 9.733 1.447 3.123 4.093 5.558 7.164 7.06 3.115 1.71 6.945 2.291 10.192.607zM54.472 86.16a46 46 0 0 1 3.636-4.368c-4.388-2.41-7.93-6.71-8.098-11.33-.377.476-.753.958-1.116 1.44-.558.732-1.11 1.47-1.611 2.24a3.3 3.3 0 0 0-.458 1.059c-.539 3.048 3.047 6.397 5.009 8.418a72 72 0 0 0 2.638 2.541"/><path fill="#0D0C21" d="M104.681 81.01s0-.019.006-.025c0 .012 0 .019-.006.031z"/></g></svg>
