<svg xmlns="http://www.w3.org/2000/svg" width="399" height="266" fill="none"><g clip-path="url(#a)"><path fill="#fff" fill-rule="evenodd" d="M176.859 47.442c46.175 3.239 73.341 24.714 108.885 39.977 41.369 17.764 109.269 27.691 112.521 55.096 3.271 27.564-53.456 46.626-98.61 62.135-36.079 12.391-79.391 16.014-122.796 13.906-38.81-1.885-71.872-11.842-101.286-24.791C43.17 179.5 11.488 163.926 4.13 142.515c-8.714-25.357-5.624-53.882 28.8-72.829 35.293-19.426 92.274-25.867 143.93-22.244" clip-rule="evenodd"/><path fill="#FFF7DB" d="M79.57 102.402c-.021-6.917-.295-13.827-.036-20.747-.252 6.913-.108 13.83.036 20.747m137.967 102.335c.028-.343-.141-.332-.444-.426-.119.379.14.383.444.426m2.706-134.628.032 137.417s-85.369 10.908-141.816 20.383c-2.24-57.078.61-177.649.61-177.649l141.17 19.849z"/><path fill="#000" d="M138.01 147.97c.04.805.073 1.613.138 2.417.025.776.169 1.797.999 1.808 1.021-.061.913-1.335.833-2.183-.043-.844-.079-1.688-.119-2.529-.158-3.518-.317-7.04-.49-10.565-.448-13.072-1.53-27.072 3.767-38.687 1.869-4.131 4.615-7.8 8.28-9.554 3.464-1.638 7.841-2.162 11.074 1.039 5.596 5.477 8.461 13.83 9.569 21.905.465 3.035.808 6.094 1.061 9.143.047.549.487.956.913.899.819-.127.714-1.177.617-1.952-.43-4.716-1.018-9.461-2.072-14.101-1.547-6.578-4.575-13.04-9.175-17.529-3.605-3.543-8.411-3.33-12.358-1.587-4.16 1.782-7.332 5.78-9.454 10.373-4.943 10.388-4.687 23.013-4.326 34.935.202 5.398.505 10.781.74 16.168z"/><path fill="#000" d="M141.815 161.129c2.948-3.273 4.138-7.444 4.034-12.001-.051-7.444-.628-14.88-.628-22.338.003-5.633-.083-11.366 1.501-16.706 1.331-4.352 3.601-8.57 7.187-10.475 3.872-2.121 7.646.469 9.847 4.698 1.429 2.728 2.28 5.777 2.822 8.934 1.053 5.509.151 12.25 3.204 16.839.631.888 1.457 1.49 2.378 1.747a5.6 5.6 0 0 0 2.056.184c.693-.062.938-1.281.383-1.787-.256-.248-.567-.23-.877-.209-.17.011-.339.022-.502-.011-.83-.083-1.692-.443-2.24-1.281-2.346-3.774-1.819-9.042-2.457-13.541-.838-7.065-3.504-16.067-10.042-18.178-4.716-1.28-8.912 2.54-11.308 6.971-3.32 5.903-3.832 13.347-3.796 20.466-.148 8.861.776 17.705.581 26.549-.083 4.073-2.158 7.851-5.066 10.211-.494.404-1.01.772-1.533 1.133-.477.332-1.072.707-1.094 1.425-.007.303.152.621.386.75a.8.8 0 0 0 .426.076c1.364-.072 3.872-2.493 4.738-3.464z"/><path fill="#000" d="M147.454 168.937c4.922-7.09 5.109-16.583 5.109-25.069.054-8.588-4.095-25.694 1.793-31.623 3.316-3.088 5.651 1.437 6.679 4.969 1.054 3.825 1.158 7.851 1.613 11.777.44 4.763 1.775 8.746 4.781 11.893 2.06 2.24 4.622 2.767 7.198 1.959.96-.343.646-2.122-.325-1.963-1.23.3-2.532.509-3.748-.05-1.833-.805-3.183-2.714-4.291-4.641-2.406-4.625-1.937-10.388-2.803-15.594-.606-4.622-3.063-12.643-8.039-11.305-9.371 3.479-5.088 23.309-4.73 32.337.162 2.937.126 5.896-.037 8.84-.281 5.29-.905 10.843-3.518 15.457-1.634 2.988-4.048 5.341-6.725 7.09q-.627.406-1.274.769c-.415.231-.949.444-1.147.974-.228.585.18 1.195.696 1.198 2.815-.473 7.007-4.413 8.772-7.021z"/><path fill="#000" d="M158.631 155.313c.365-4.846.318-9.696.09-14.534 2.79 6.394 8.072 11.236 13.625 12.74a8 8 0 0 0 1.631.119q.384-.012.768-.057c.971-.145.852-2.079-.108-1.999a6.83 6.83 0 0 1-3.402-.469c-4.579-2.032-8.884-6.123-11.157-11.738-.711-1.735-1.183-3.446-1.638-5.343-.097-.278-.159-.643-.235-.996-.277-3.006-.631-6.008-.847-9.028a23 23 0 0 1-.018-2.41c.079-.628-.307-1.263-.859-1.281-.989-.011-.913 1.342-.906 2.212.025 2.251.292 4.495.512 6.733.304 3.002.592 6 .762 9.009.314 5.174.458 10.388.141 15.577-.372 9.363-2.595 19.156-8.931 26a27.5 27.5 0 0 1-4.023 3.655c-.487.419-1.198.646-1.468 1.328-.116.393-.036.758.231.996.14.112.324.152.544.13 1.779-.173 5.741-4.315 6.668-5.503 5.788-6.718 8.155-16.171 8.624-25.131z"/><path fill="#000" d="M175.698 161.45c-2.963.025-5.943-.801-8.692-2.259a10.7 10.7 0 0 1-2.068-1.515c-.364-.408-.949-.599-1.349-.094a1.35 1.35 0 0 0-.217.549 2 2 0 0 0-.061.263c-.191 2.114-.624 4.2-1.126 6.257a63.4 63.4 0 0 1-6.159 16.229c-1.505 2.757-3.136 5.434-5.034 7.916-.487.737-2.035 2.072-.887 2.764q.117.05.256.033c1.09-.123 3.024-3.128 3.673-3.998 5.452-8.072 9.324-17.684 10.749-27.509.39.271.765.498.999.686a19.8 19.8 0 0 0 8.797 2.673c.209.015.462.036.707.026.549-.029 1.079-.235 1.101-1.061 0-.469-.3-.938-.689-.956z"/><path fill="#000" d="M175.058 171.881c-.281-.267-.642-.141-.974-.105-.682.08-1.367.119-2.049.091a9.5 9.5 0 0 1-2.714-.531 7 7 0 0 1-.833-.368c-.354-.205-.718-.487-1.133-.249-.267.152-.415.473-.433.805a1.2 1.2 0 0 0-.253.509c-.949 4.095-2.28 8.136-3.821 12.062-.844 2.111-1.775 4.25-2.818 6.278a22 22 0 0 1-1.263 2.14c-.422.548-.382 1.443.242 1.587a.5.5 0 0 0 .173.007c1.242-.147 2.999-4.333 3.58-5.498 1.865-4.114 3.399-8.389 4.636-12.726.264-.949.505-1.906.736-2.862 1.314.682 3.313.87 4.207.873.358 0 .711-.01 1.068-.039q.634-.051 1.267-.155c.689-.123.934-1.372.382-1.819"/><path fill="#000" d="M220.346 72.844a67 67 0 0 0-.068-2.053c.018-.992-.123-1.458-.632-1.53-.473-.069-.357-.05-.83-.119a1 1 0 0 0-.122-.01c-1.541-.22-3.082-.448-4.626-.668q-7.912-1.143-15.826-2.295-8.746-1.267-17.488-2.54-8.746-1.273-17.493-2.54c-5.813-.845-11.622-1.685-17.435-2.53q-8.72-1.267-17.445-2.53-8.871-1.286-17.742-2.568c-5.679-.82-11.358-1.642-17.041-2.454-2.739-.393-5.48-.786-8.223-1.169-1.346-.187-2.695-.379-4.041-.559a108 108 0 0 0-1.819-.235c-.216-.025-.433-.054-.65-.064-.23-.011-.457 0-.656.104a.6.6 0 0 0-.303.35h-.004c-.252.191-.285.484-.306.747-.069 1.263-.062 2.53-.083 3.796-.17 58.055-.022 116.115-.069 174.17 0 .408.433.747.949.747q.199 0 .372-.061c.241-.011.476-.036.714-.058.71-.076 1.422-.166 2.133-.256q2.273-.298 4.542-.624a2737 2737 0 0 0 17.161-2.519q8.78-1.304 17.561-2.619c5.74-.863 11.481-1.721 17.222-2.584l17.766-2.666q8.8-1.32 17.597-2.645c5.831-.877 11.658-1.75 17.486-2.63q8.677-1.309 17.355-2.613c2.309-.346 4.618-.696 6.931-1.035 1.014-.148 2.025-.303 3.038-.455.441-.065.892-.112 1.328-.195.293-.057.538-.187.671-.404a.6.6 0 0 0 .094-.306.57.57 0 0 0 .119-.358c.011-2.056-.003-4.109 0-6.166-.072-42.616.166-85.236-.14-127.852zm-1.598-.743c-.343 42.439-.076 84.882-.159 127.325.007 2.378-.011 4.759 0 7.137-.018 0-.036.007-.054.007q-.471.08-.942.148l-3.139.477c-5.344.819-10.695 1.613-16.046 2.414l-17.676 2.652q-8.685 1.303-17.37 2.612l-17.781 2.674-17.33 2.608q-8.768 1.32-17.536 2.645-8.666 1.314-17.326 2.638c-2.818.433-5.633.869-8.447 1.317q-2.026.318-4.041.667-.774.134-1.548.285v-12.029c-.05-54.029.1-108.055-.072-162.084q-.015-1.238-.04-2.475c-.032-.263-.004-.556-.014-.84q.682.117 1.37.223c1.191.188 2.386.368 3.58.549q3.724.557 7.447 1.104 8.444 1.244 16.887 2.471c5.852.855 11.708 1.703 17.561 2.555 5.87.851 11.741 1.707 17.611 2.558l17.496 2.54 17.417 2.526 17.391 2.522c5.535.805 11.077 1.606 16.612 2.414l4.143.606 1.58.231a1 1 0 0 0 .101.018q.196.026.386.058-.04.723-.058 1.447z"/><path fill="#fff" d="M370.561 256.706c-.332 2.364 1.133 8.23-1.696 8.649-9.237-1.44-18.733-1.793-28.089-2.681-16.068-4.878-31.601 1.252-47.672.48-18.701-3.276-32.592-18.86-45.982-31.135-8.054.101-16.324-5.163-23.591-4.615-4.279 1.44-9.518 4.893-9.518 4.893s-1.093 2.782-1.934 6.946c-.88 4.351-.895 9.467-3.485 13.823-9.761 16.413-14.206 6.39-17.605-6.759-3.893-7.14-4.99-8.277-4.113-16.882-6.722 4.831-10.835 5.015-10.835 5.015s-1.159-12.957-2.948-17.464c-3.165-11.015 3.445-21.327 7.602-31.095 3.125-20.494 19.253-15.692 33.123-14.739-7.725-11.034-18.943-14.736-29.969-21.339-9.746-1.411-30.58-12.531-22.725-22.548 2.735-3.435 18.106 3.049 27.588 4.742 7.491 1.403 15.469 9.092 22.912 8.118 12.47.819 18.045 15.49 29.284 18.705 25.092 7.173 29.151 18.871 47.011 31.51 19.712 12.982 43.883 26.939 67.556 21.057 11.247 11.146 12.856 30.125 15.086 45.319"/><path fill="#000" d="M186.609 153.191c1.144.7 2.284 1.4 3.457 2.046a54 54 0 0 0 7.173 3.294c1.238.466 2.504.866 3.691 1.451 2.14 1.089 3.865 2.807 5.561 4.474 1.829 1.858 3.629 3.741 5.506 5.553-3.035.054-6.077-.083-9.104-.285-8.995-.942-18.351.227-21.349 10.164a106 106 0 0 0-1.379 4.568.923.923 0 0 0 .873 1.155.94.94 0 0 0 .888-.672c.462-1.54.902-3.092 1.418-4.614 2.172-7.152 8.573-9.201 15.447-8.949 3.868.181 7.732.552 11.611.534a62 62 0 0 0 3.565-.072 58 58 0 0 0 1.937 1.671c3.056 2.45 6.253 4.726 9.425 7.025.144 2.443-.047 4.893-.379 7.317-.134 1.021-.325 2.032-.44 3.053-.029.342-.072.79.281.985a.4.4 0 0 0 .184.043c.264 0 .502-.281.711-.714 1.357 2.183 5.023 5.347 5.719 5.856a.83.83 0 0 0 .502.173c.725 0 1.317-1.014.631-1.599a32.3 32.3 0 0 1-4.788-4.737c-.491-.458-.834-1.317-1.443-1.62.27-1.158.443-2.338.505-2.699.198-1.588.343-3.24.292-4.867 1.544-.177 4.81-2.519 5.542-3.176.527-.458.22-1.389-.483-1.421-.668.036-1.166.624-1.736.923a22.5 22.5 0 0 1-3.002 1.685c-.065.033-.137.062-.205.094a6 6 0 0 1-.47-.364c-1.389-1.267-2.951-2.327-4.452-3.457-2.562-1.815-5.044-3.713-7.375-5.802a.8.8 0 0 0-.145-.13 54 54 0 0 1-2.186-2.078c-1.995-1.948-3.879-4.012-5.896-5.935q-.678-.672-1.4-1.299-.017-.007-.029-.015c-.054-.032-.101-.076-.148-.112a7 7 0 0 1-.27-.234l-.007-.007.01.01q-.071-.067-.148-.133l-.028-.025q.01.005.021.018-.102-.092-.205-.177c-.055-.043-.105-.087-.159-.13l-.015-.011-.108-.076-.155-.115c.004 0 .011.007.014.011q-.064-.048-.129-.094l-.04-.033-.011.015c-1.223-.888-2.547-1.627-3.991-2.118-3.034-1.075-6.022-2.299-8.836-3.872-1.169-.646-2.309-1.346-3.446-2.046-1.176-.689-2.327-1.479-3.558-2.081l.015-.015c-.119-.05-.238-.108-.357-.159q-.013 0-.018-.007c-.137-.058-.271-.115-.412-.166.011 0 .022.007.029.011l-.108-.04c.011 0 .022.007.032.011l-.559-.202-.209-.065-.007.007a8 8 0 0 0-.816-.195c-3.146-.674-6.123-1.966-8.999-3.388-4.189-2.183-8.674-4.687-10.925-9.049-.902-1.916-1.563-4.034-1.472-6.17a6.5 6.5 0 0 1 .296-1.49c.151-.116.288-.26.4-.393a2.88 2.88 0 0 1 2.125-1.011c2.659-.075 5.225.776 7.787 1.386q4.292 1.1 8.645 1.945c3.034.613 5.932 1.035 8.941 2.042 4.471 1.609 8.562 4.084 12.935 5.917a25.1 25.1 0 0 0 7.819 2.043c2.883.234 5.784.681 8.382 2.027 2.371 1.213 4.46 2.894 6.495 4.601 2.789 2.378 5.538 4.802 8.497 6.974 4.211 3.114 8.793 5.777 13.722 7.588 3.099 1.159 6.343 1.945 9.298 3.471 3.919 1.985 7.689 4.605 10.98 7.56 3.377 3.045 6.592 6.408 10.11 9.334 12.069 10.117 25.496 18.643 40.051 24.712 4.337 1.693 8.526 3.915 13.137 4.77 4.947.895 9.991 1.068 15.01 1.177q1.76.028 3.518.029c2.45 0 4.9-.04 7.35-.109.502-.014.924-.407.924-.923s-.419-.939-.924-.924c-2.821.094-5.643.108-8.461.058-5.91-.083-11.875-.166-17.695-1.299-2.803-.549-5.397-1.783-8.053-2.851a188 188 0 0 1-14.22-6.386c-11.138-5.73-21.505-12.91-30.994-21.068-3.146-2.761-6.022-5.806-9.19-8.545-4.027-3.471-8.534-6.476-13.473-8.472-2.937-1.104-5.95-1.897-8.837-3.16-7.609-3.179-13.963-8.548-20.13-13.895-3.42-2.916-7.331-5.481-11.86-6.149-2.006-.317-4.041-.386-6.036-.783-6.213-1.4-11.496-5.279-17.46-7.379-3.518-1.226-7.238-1.703-10.872-2.471a156 156 0 0 1-6.996-1.609c-3.063-.693-6.22-1.866-9.392-1.325a4 4 0 0 0-2.194 1.303c-.039.043-.076.094-.115.144a1 1 0 0 0-.155.137c-2.822 3.331-.109 10.305 2.558 13.152 4.178 4.676 12.928 8.866 19.026 10.269 1.999.39 3.662 1.671 5.39 2.674zm5.759 54.487c-.289.382-.686.837-.671 1.295a.58.58 0 0 0-.253.473c0 .31.26.574.574.574a.58.58 0 0 0 .455-.231 1 1 0 0 0 .173.018c.999 0 1.645-1.779 2.183-2.511a.956.956 0 0 0-.339-1.296c-1.162-.602-1.577.974-2.118 1.678z"/><path fill="#000" d="M369.436 263.724c-5.921.039-11.849-.26-17.752-.787-8.447-.805-16.793-2.699-25.301-2.912-3.576-.133-7.173-.148-10.724.343-3.474.462-6.848 1.433-10.297 2.042-5.236.852-10.904.913-16.14-.292-13.422-3.071-22.735-13.96-32.69-22.674-2.58-2.172-5.12-4.441-7.876-6.39.851.054 1.703.116 2.547.209 3.236.455 6.293 1.747 9.129 3.338 2.341 1.299 4.607 3.208 6.927 4.64 1.974 1.212 4.175 1.967 6.419 2.504 2.082.538 4.16 1.097 6.264 1.544.069.011.13.015.191.015 1.061 0 1.245-1.566.177-1.811-1.858-.394-3.698-.87-5.528-1.368-2.031-.545-4.275-1.194-6.141-2.273-1.908-1.115-3.622-2.533-5.477-3.738-3.482-2.248-7.346-4.077-11.478-4.694-2.857-.376-5.755-.3-8.605-.736-8.194-1.245-16.32-3.674-23.439-7.993-3.042-1.872-6.726-3.979-8.255-7.432-.405-.975-.621-2.014-.769-3.057-.018-.144.112-2.237.466-3.074.768-1.735 2.035-3.229 3.481-4.438 1.866-1.403 4.211-1.93 6.481-2.259 4.672-.562 9.395-.115 14.064.311 4.796.393 9.465 1.248 13.975 3.031 5.751 2.136 11.293 5.351 17.586 5.751 2.681.256 5.564.134 7.924-1.302.296-.181.591-.376.851-.603.87-.783-.22-2.107-1.147-1.472a7.3 7.3 0 0 1-2.504 1.237c-3.287.769-6.563.195-9.833-.606-2.684-.743-5.203-1.89-7.761-2.976-3.777-1.595-7.613-3.125-11.651-3.919-5.433-1.035-10.99-1.436-16.518-1.588-1.811-.014-3.687.047-5.509.307.147-.527.234-1.082.317-1.378.245-1.263.426-2.54.53-3.825.051-1.104-1.576-1.212-1.674-.119a18 18 0 0 1-.166 1.862c-.166 1.147-.386 2.287-.584 3.428a7 7 0 0 0-.051.324c-3.117.686-5.964 2.097-7.92 4.918-1.306 1.671-2.374 4.193-1.663 8.523.068.418.177.815.303 1.201a.9.9 0 0 0-.419.13c-.4.275-.768.592-1.172.859-.711.505-1.512.841-2.306 1.191-.343-.931-.732-1.844-1.227-2.699a.92.92 0 0 0-1.248-.329c-.722.448-.415 1.184-.054 1.758.364.739.671 1.504.945 2.28 1.472 4.139 1.941 8.577 1.656 12.946-.083 1.241-.213 2.486-.296 3.731-.007.3-.028.603-.046.906-.105-.137-.206-.278-.318-.412a24 24 0 0 0-2.699-2.926c-.866-.819-2.096.437-1.277 1.277 2.717 2.512 4.889 5.745 5.585 9.421 1.047 5.788.733 16.23-6.7 17.291-2.93.281-4.467-2.807-5.246-5.174-.83-2.49-1.57-5.016-2.667-7.404-1.732-3.926-4.243-7.686-4.452-12.091-.177-2.562.35-5.091.552-7.635 2.984-4.135 4.402-9.551 3.871-14.566-.14-.621-.234-2.27-.606-3.479-.007-.036-.022-.068-.032-.104-.253-.769-.628-1.332-1.216-1.274-1.801-1.66-3.872-3.078-6.156-3.944-.584-.332-1.126.43-.646.884.679.881 1.739 1.364 2.616 2.017 1.274.877 2.41 1.866 3.543 2.912.134.411.289.823.307 1.173.512 2.486.559 5.127.018 7.62-1.154 6.639-6.21 13.051-13.238 13.711h-.047q.032-.412.032-.83a28 28 0 0 0-.274-4.344 65 65 0 0 0-.862-4.636 124 124 0 0 0-1.169-4.85c-.397-1.519-.819-3.031-1.144-4.568-.217-1.071-.397-2.147-.484-3.236a24 24 0 0 1-.007-2.757q.116-1.528.415-3.034c.227-1.061.523-2.097.877-3.125.96-2.706 2.219-5.29 3.503-7.852q.014-.03.029-.057c.065-.127.137-.275.213-.422a208 208 0 0 0 2.14-4.41c.216-.462-.043-1.032-.498-1.223-.484-.205-1.007.036-1.223.498a199 199 0 0 1-1.996 4.135c-.664 1.331-1.335 2.659-1.955 4.012-.671 1.454-1.314 2.927-1.837 4.438a31 31 0 0 0-.779 2.551 24 24 0 0 0-.502 2.584 23.2 23.2 0 0 0-.158 5.022c.057.755.173 1.501.306 2.248q.207 1.175.491 2.338c.364 1.527.794 3.035 1.176 4.554.408 1.624.794 3.255 1.133 4.896.368 1.804.675 3.627.801 5.467.033.465.065 1.053.101 1.638.022.339.036.682.076 1.017.011.098.025.192.051.289a.76.76 0 0 0-.181.498c.076.75.837.97 1.718.97.941 0 2.017-.248 2.547-.364 2.735-.707 5.098-2.143 7.036-4.045-.26 1.62-.422 3.258-.386 4.9-.007 4.586 2.432 8.591 4.319 12.614 1.064 2.277 1.808 4.485 2.572 6.925.758 2.431 1.765 4.997 3.955 6.48.924.624 1.956.895 3.006.891 1.984 0 4.016-.967 5.437-2.324a10.2 10.2 0 0 0 2.006-2.612c1.097-.833 2.313-2.897 2.674-3.485 2.428-4.514 3.67-9.887 2.789-14.985 1.202-1.021 2.01-5.413 2.096-7.173q.087.006.174.007c.155 0 .31-.015.462-.025a10 10 0 0 0 1.504-.285 17 17 0 0 0 2.879-1.036c1.884-.87 3.713-1.894 5.359-3.164.039-.029.072-.065.104-.098 5.539 2.403 11.456 3.937 17.413 4.857 1.061.169 2.129.27 3.197.346.076.076.159.148.238.217 2.039 1.674 4.103 3.312 6.12 5.012 12.553 10.492 24.063 25.293 41.588 26.646 4.615.418 9.291.101 13.826-.823 4.218-.916 8.389-1.963 12.755-2.042 10.009-.44 19.892 1.649 29.793 2.8 5.809.599 11.647.884 17.485.949h.552c.455 0 .913 0 1.364-.022 1.27-.187.989-1.869-.065-1.887zm-146.669-36.609a32 32 0 0 1-3.251 1.866 29 29 0 0 1-3.377 1.428c-.401.137-.805.271-1.206.412l-.27.097c-.083-2.071-.458-4.149-1.357-6.026-.206-.443-.714-.674-1.176-.476-.444.188-.678.729-.476 1.176.389.848.674 1.743.869 2.656.278 1.461.393 2.959.329 4.445-.12 1.501-.412 2.937-.812 4.395-.21-.685-.462-1.36-.769-2.006-.184-.44-.725-.668-1.165-.473-1.144.574-.112 1.725.108 2.562.483 1.433.74 2.93.851 4.435.17 3.73-.743 7.479-2.28 10.871.199-1.465.267-2.952.274-4.373.015-3.349-.685-6.74-2.269-9.685.036-.097.061-.202.076-.303.147-.743.212-1.497.303-2.247.397-3.085.692-6.196.451-9.31a31 31 0 0 0-1.332-7.14c1.418-.347 3.201-1.548 4.038-2.27 1.757 3.157 5.235 5.272 8.266 7.123a51 51 0 0 0 4.655 2.518 15 15 0 0 1-.469.329zm-40.075-78.142c.007 0 .018.007.026.007-.011 0-.019-.007-.03-.011zm24.433 8.953s-.019-.015-.03-.019c0 0 .019.015.03.019"/><path fill="#000" d="M221.64 183.673c-.293.249-.296.642-.361.992-.119.761-.195 1.566-.574 2.237-4.027 7.072-10.889 8.783-16.68 9.129-1.66.108-3.533.105-5.164-.44a4 4 0 0 1-.465-.21 33.3 33.3 0 0 0-.801-7.577c-.119-.487-.238-.985-.422-1.454-.444-1.053-2.043-.483-1.75.61.166.631.357 1.256.48 1.898.534 2.742.7 5.56.541 8.349a31 31 0 0 1-.495 3.731c-.101.375.242.978.686 1.061q.136.026.256.025c1.379 0 1.083-2.547 1.342-3.543.037-.354.062-.711.087-1.065 1.238.405 2.854.542 3.504.563q.318.007.638.008c5.149 0 10.298-1.447 14.621-4.265.328-.235.793-.556 1.299-.92a.7.7 0 0 0 .202.209c.537.299 1.114.53 1.638.859a1 1 0 0 0 .483.133c.837 0 1.368-1.219.469-1.764-.285-.155-.573-.318-.873-.444-.141-.054-.285-.112-.433-.162 2.771-4.117 2.771-5.402 3.031-7.145.159-.721-.671-1.346-1.259-.808zm-5.804 21.855s.019 0 .03.004v-.019zm-1.165 10.629s0-.007.003-.01a.3.3 0 0 1-.047.028q.02-.011.04-.018zm9.643 6.329c1.155.13 2.316-.003 3.363-.505l.05.004c.166 0 .267-.08.325-.195 2.753-1.411 4.088-5.156 4.496-8.299.166-1.259.187-2.522.162-3.792-.025-1.007.466-4.813-2.414-5.203-.093-.033-.191-.054-.288-.083-1.779-.697-3.839-.855-5.882-.74q-.756 0-1.508.033c-4.918.032-11.943 5.737-7.559 12.737 2.132 3.416 5.326 5.332 9.255 6.04zm6.253-13.981c.144-.224.307-.437.473-.646.378 1.912.032 4.864-.206 6.018-.455 1.97-1.119 4.518-2.71 5.878a35 35 0 0 1-.126-1.938c-.148-3.204.801-6.614 2.569-9.312m-15.079 3.124c.105-2.645 2.061-4.929 4.568-5.661 2.158-.585 4.446-.527 6.657-.382.78.075 1.599.191 2.403.371.26.033.574.152.906.271-2.886 2.948-4.221 8.385-3.897 12.239.036.696.062 1.407.159 2.1a4.4 4.4 0 0 1-1.017.119c-1.386-.08-3.06-.61-4.619-1.379a10.7 10.7 0 0 1-2.064-1.475c-.859-.769-1.544-1.736-2.176-2.699-.721-1.029-1.107-2.245-.923-3.504z"/><path fill="#fff" d="M108.484 83.196v58.041l-80.477 12.394-.58-78.705z"/><path fill="#FFF7DB" d="M67.238 105.849c-2.028.761-5.61 6.862-5.61 6.862l-9.52-1.252s.232-8.317 10.125-13.252c1.14-.614 4.193 7.266 5.005 7.638z"/><path fill="#646370" d="M88.145 119.473c-5.041 11.838-20.535 13.816-30.724 6.967.3-2.475 4.038-5.423 6.43-5.885 1.645-.317 11.528 7.989 18.257-3.449.411-.7 1.96.552 6.04 2.367z"/><path fill="#A5A4B3" d="M63.198 119.649s0 1.584-6.3 6.138c-5.65-3.677-5.65-13.769-5.65-13.769l10.377.696 1.57 6.939z"/><path fill="#000" d="M89.357 112.834c1.28 7.028-1.411 6.087-6.83 4.329-.405-3.131-1.451-7.66-4.439-10.434-3.016 1.475 2.786-9.147 3.684-7.166 3.944 3.359 6.802 8.133 7.58 13.274z"/><path fill="#FED980" d="M79.49 98.203c1.981.635-.368 2.677-.592 3.925-2.197 6.564-3.28 1.642-10.69 3.035-2.368-.549-3.205-4.55-4.832-6.38 1.512-3.301 12.885-1.688 16.114-.58"/><path fill="#000" d="M85.78 124.86c1.52-1.682 2.713-3.619 3.45-5.665.386-1.068.667-2.158.833-3.269q.055-.385.094-.769c.01-.112.029-.231.032-.346l.011-.155.022-.365a15.6 15.6 0 0 0-.18-3.171 17 17 0 0 0-.773-2.999c-.743-2.089-1.952-4.091-3.518-5.798a19.7 19.7 0 0 0-2.475-2.281 20 20 0 0 0-1.912-1.302c-.105-.061-.213-.134-.329-.191a.7.7 0 0 0-.465-.109 19 19 0 0 0-2.046-1.006 21 21 0 0 0-3.796-1.198 23 23 0 0 0-2.042-.34 25 25 0 0 0-2.093-.144 21.3 21.3 0 0 0-4.225.307c-1.432.26-2.85.62-4.196 1.155a21 21 0 0 0-4.82 2.648c-.138.105-.275.206-.408.314-.112.09-.242.177-.347.278l-.253.209c-.028.025-.137.119-.248.213-2.187 1.912-3.876 4.305-4.871 6.913A16.8 16.8 0 0 0 50.218 112c-.152 1.44-.083 2.89.151 4.319.112.689.275 1.378.491 2.046.217.671.455 1.338.754 1.984a18 18 0 0 0 2.208 3.601 19.6 19.6 0 0 0 6.672 5.33 21 21 0 0 0 3.933 1.479 26 26 0 0 0 2.02.44c.64.112 1.285.184 1.927.238a21.5 21.5 0 0 0 4.962-.151q.033-.001.06-.007h.015q.052-.005.105-.015h.007a1 1 0 0 0 .126-.022c1.058-.166 2.097-.4 3.103-.718 1.198-.375 2.36-.84 3.446-1.41a20 20 0 0 0 3.168-2.025 19.7 19.7 0 0 0 2.407-2.237zm-5.279-24.338c.112-.194.224-.389.321-.588l.347.21c.368.234.732.483 1.082.739a19 19 0 0 1 1.714 1.436q.762.736 1.425 1.537.65.807 1.202 1.667c.357.578.678 1.166.963 1.772q.4.876.697 1.786.284.91.462 1.84.168.942.223 1.894.048.984-.025 1.967a18 18 0 0 1-.253 1.793 17 17 0 0 1-.53 1.916c-1.754-.667-3.518-1.421-5.39-2.02a6 6 0 0 1-.217-.062 8.3 8.3 0 0 0 .285-1.804 8.8 8.8 0 0 0-.227-2.497 9.2 9.2 0 0 0-.92-2.352 10 10 0 0 0-1.664-2.18 10.4 10.4 0 0 0-2.367-1.75q.31-.577.614-1.154c.49-.928.967-1.858 1.472-2.768.23-.415.512-.898.786-1.382m.96 13.823q-.02.564-.112 1.115a9 9 0 0 1-.263 1.054 9 9 0 0 1-.397.992c-.159.325-.34.639-.534.949a10 10 0 0 1-.632.844q-.34.397-.725.754-.427.39-.898.729c-.296.21-.606.401-.928.585q-.519.28-1.071.509-.546.216-1.119.378a12 12 0 0 1-1.252.26q-.632.088-1.27.105-.606.01-1.212-.043a11 11 0 0 1-1.288-.206q-.6-.14-1.18-.339a12 12 0 0 1-1.13-.48q-.541-.28-1.046-.614c-.3-.202-.61-.443-.91-.7a10 10 0 0 1-.883-.887 9 9 0 0 1-.682-.913 10 10 0 0 1-.577-1.057 8 8 0 0 1-.412-1.126 9 9 0 0 1-.23-1.147 9 9 0 0 1-.051-1.187q.026-.617.133-1.224.125-.594.325-1.172c.144-.383.307-.754.502-1.119q.298-.542.667-1.046.368-.486.79-.935.52-.524 1.104-.988c.307-.235.625-.462.957-.668l.346-.216c.04.007.076.018.115.018a1 1 0 0 0 .397-.072.7.7 0 0 0 .145-.083h.043c.108 0 .216-.015.314-.047q.011.002.018-.008a.6.6 0 0 0 .137-.061q.228-.086.466-.155.595-.178 1.208-.285a12 12 0 0 1 1.241-.137c.444-.018.884-.015 1.325.018.4.032.8.09 1.194.162.386.08.78.181 1.162.3.375.122.743.267 1.1.425.35.163.693.343 1.021.542q.487.302.931.653.456.368.86.779c.198.206.44.484.667.776q.326.432.591.891.27.476.477.974c.122.311.238.65.328.993q.134.542.198 1.096.05.503.04 1.011zM64.344 98.04a24 24 0 0 1 2.439-.617 26 26 0 0 1 2.176-.289 19 19 0 0 1 1.19-.057q.639-.005 1.267.01a35 35 0 0 1 1.284.09c.38.037.754.09 1.13.145.819.137 1.62.31 2.414.527.772.227 1.522.487 2.262.783q.611.26 1.194.548l-.01.015c-.123.17-.235.342-.35.52q-.416.638-.798 1.298c-.563.967-1.082 1.97-1.613 2.97l-.653 1.219a12 12 0 0 0-3.713-.797 12.1 12.1 0 0 0-4.124.501l-.426.134c-.436-.704-.88-1.407-1.324-2.118-.52-.826-1.039-1.656-1.573-2.49-.314-.49-.631-.989-.956-1.48l-.444-.674c.213-.076.422-.159.639-.23zm-11.738 11.683q.313-1.093.755-2.143a19 19 0 0 1 1.226-2.28 22 22 0 0 1 1.404-1.859q.913-1.015 1.956-1.912a23 23 0 0 1 1.92-1.4 23 23 0 0 1 2.225-1.212c.072-.033.145-.058.217-.09l.357.599c.285.48.574.952.862 1.428q.753 1.218 1.505 2.425.807 1.287 1.61 2.558a9.7 9.7 0 0 0-1.823 1.039c-1.811 1.328-3.056 3.197-3.576 5.254-2.86-.397-5.852-.664-8.89-1.144q-.01-.001-.025-.007.113-.629.27-1.252zm4.366 15.025c-.483-.48-.949-.971-1.378-1.49a20 20 0 0 1-1.443-2.097 19 19 0 0 1-1.014-2.096 18 18 0 0 1-.678-2.208 18 18 0 0 1-.329-2.209q-.059-1.082.007-2.164c.607.144 1.278.173 1.87.281 2.309.299 4.571.541 6.78.787q.113.031.223.046a8.9 8.9 0 0 0 .783 4.33 9.6 9.6 0 0 0 1.176 1.916q-.459.364-.916.729c-1.05.834-2.107 1.678-3.168 2.544-.545.444-1.094.887-1.624 1.353-.101.09-.191.188-.285.278zm26.441.642q-.82.708-1.728 1.335-.898.601-1.866 1.115a23 23 0 0 1-1.98.895q-1.04.389-2.122.685-1.088.275-2.208.448h-.022l-.072.011a.2.2 0 0 0-.044.003l-.09.015-.209.025c-.678.086-1.364.133-2.053.155a24 24 0 0 1-2.32-.076l-.137-.011a23 23 0 0 1-2.44-.382 23 23 0 0 1-2.345-.668 22 22 0 0 1-2.374-1.013 22 22 0 0 1-2.298-1.382 22 22 0 0 1-1.086-.845c.306-.198.592-.418.873-.638a176 176 0 0 0 3.413-2.732c.567-.458 1.122-.916 1.682-1.371.501.473 1.046.906 1.645 1.277a11.74 11.74 0 0 0 5.82 1.743q.539.017 1.079-.014a12 12 0 0 0 4.055-.956c1.758-.762 3.273-1.942 4.352-3.381a9.8 9.8 0 0 0 1.136-1.97c.61.191 1.21.393 1.797.617 1.278.469 2.512.999 3.77 1.4-.107.245-.216.49-.338.732a18 18 0 0 1-1.057 1.79 17 17 0 0 1-1.35 1.717q-.703.775-1.497 1.48zm4.709-21.537a.65.65 0 0 0 .314-.083c.09-.051.173-.123.245-.199.127-.126.238-.267.354-.407.494-.607.942-1.249 1.385-1.891q.676-.98 1.346-1.96c.715-1.035 1.407-2.089 2.136-3.113q.032-.04.058-.09c.025 0 .05.007.08.01q.674.053 1.356.08c.88.04 1.764.075 2.645.115q2.095.092 4.189.13.046.007.094.007h.011a1 1 0 0 0 .227-.025.81.81 0 0 0 .498-1.165.8.8 0 0 0-.495-.38v-.003a1 1 0 0 0-.227-.029h-.105a179 179 0 0 0-3.117-.032q-1.54 0-3.081.01c-.538.004-1.076.004-1.613.019a13 13 0 0 0-.834.043c-.198.022-.44.047-.613.17a.8.8 0 0 0-.325.266c-.094.145-.198.3-.303.455q-1.254 1.841-2.504 3.688a72 72 0 0 0-1.27 1.898c-.231.364-.465.728-.678 1.104-.192.343-.491.812-.195 1.183a.5.5 0 0 0 .415.195zm5.307-10.334c2.864.086 5.636.01 8.526.122 1.039.047 1.057-1.497.021-1.479-2.698.022-5.401-.195-8.147 0-.368.061-.826.198-.91.624-.068.358.174.65.51.733m3.621-4.056-1.804-.043q-.535-.011-1.072-.018c-.238 0-.53-.036-.76.047a.75.75 0 0 0-.495.541.727.727 0 0 0 .574.863c.14.032.281.04.433.046.212.011.429.022.642.03.469.017.942.035 1.41.05l2.76.086c1.303.037 2.61.069 3.912.09h.386c.224.015.444.03.668.037h.029c.404 0 .765-.285.797-.704.032-.4-.285-.819-.704-.83-.184-.003-.364 0-.548-.003h-.184c-.942-.05-1.884-.08-2.825-.105a476 476 0 0 0-3.226-.087zm6.194 44.645a.8.8 0 0 0-.354-.087 1 1 0 0 0-.205.018q-.124-.002-.249.007-3.02.094-6.04.213-1.77.07-3.54.173l-1.295.076a.7.7 0 0 0-.127-.191c-.115-.123-.22-.253-.328-.379l-.415-.476c-.317-.368-.639-.736-.956-1.101-.765-.884-1.53-1.768-2.313-2.634-.278-.306-.555-.613-.844-.905-.242-.246-.484-.498-.79-.664-.173-.087-.368-.141-.552-.033-.589.35-.05 1.068.223 1.436.31.423.643.827.974 1.231 0 0 .019.021.033.04.004.007.01.01.014.018.109.129.224.27.34.407.96 1.148 3.673 4.759 3.896 4.77.48.018 10.226-.418 11.976-.451a.7.7 0 0 0 .18.011q.061-.002.116-.014a.8.8 0 0 0 .317-.112h.004a.8.8 0 0 0 .155-.13.78.78 0 0 0-.22-1.212z"/><path fill="#000" d="M94.348 132.466h.105c.671 0 1.342-.018 2.01-.029 2.024-.036 4.052-.094 6.076-.094.13 0 .256.007.386.007.422 0 .758-.407.736-.812a.785.785 0 0 0-.812-.736c-1.306.022-2.612.033-3.922.055q-1.67.028-3.341.079-.807.026-1.61.058c-.28.01-.562.021-.84.054-.328.036-.667.072-.88.361-.184.249-.127.602.09.808.256.245.685.227 1.017.234q.493.016.985.015m7.333-4.756c-2.735-.036-6.029.018-8.757.278-.862.029-1.115 1.191-.209 1.393 1.858.061 3.724-.141 5.582-.159a108 108 0 0 1 3.731-.011c.613.04 1.641.181 1.634-.776-.09-1.003-1.288-.682-1.981-.725m-50.408-4.265a.7.7 0 0 0-.097.101c-.14.166-.224.39-.314.585q-.157.346-.307.693-.297.677-.577 1.36a158 158 0 0 0-1.357 3.424l-1.436 3.72c-.624 1.62-1.263 3.237-1.876 4.86l-.364.011q-.385.017-.769.029a257 257 0 0 0-4.961.177q-1.349.063-2.692.148c-.44.029-.884.061-1.324.101-.224.022-.451.036-.671.076-.206.039-.455.083-.596.252-.137.166-.166.426-.007.596.12.126.27.184.44.216.163.029.329.043.495.054q.444.021.887.025c.47.008.935.011 1.404.011h.545q2.597-.023 5.188-.101c.95-.025 1.898-.076 2.85-.076a.78.78 0 0 0 .524-.18.8.8 0 0 0 .191-.253c.13-.09.238-.22.3-.375.209-.537.41-1.079.617-1.62q1.305-3.426 2.605-6.852c.444-1.172.89-2.345 1.313-3.525a76 76 0 0 0 .761-2.237c.09-.289.235-.617.16-.924-.102-.397-.614-.534-.92-.285z"/><path fill="#000" d="M44.35 135.493a.6.6 0 0 0-.209-.148 1 1 0 0 0-.335-.087.66.66 0 0 0-.354.058h-.05c-.455 0-.95.018-1.444.043-.808.04-1.616.08-2.424.13-.859.054-1.718.105-2.57.199-.472.054-.948.097-1.417.169a4.5 4.5 0 0 0-.66.134c-.206.061-.426.151-.455.397-.022.173.122.306.267.364.202.08.426.098.639.119q.322.031.645.04.666.021 1.332.032h.545c.729 0 1.46-.018 2.19-.036a92 92 0 0 0 3.492-.144.7.7 0 0 0 .361.018.83.83 0 0 0 .545-.346.706.706 0 0 0-.097-.942m-.203-2.85a1.4 1.4 0 0 0-.285-.018.6.6 0 0 0-.18.028c-.084 0-.163.004-.246.004h-.144c-.285-.004-.61.004-.935.011-.422.007-.844.011-1.266.022q-1.592.03-3.183.082c-.642.022-1.288.037-1.926.076a9 9 0 0 0-.6.054q-.178.021-.331.08a.62.62 0 0 0-.43.613.6.6 0 0 0 .22.44l.019.015s.007.003.01.011c.008.007.015.01.026.018q.012.01.025.014c.245.148.57.148.851.155q.395.01.794.011c.285 0 .574 0 .859-.004.927-.007 1.85-.018 2.778-.036.783-.014 1.563-.036 2.346-.057.245-.004.49-.004.732-.022q.23-.016.458-.022c.062.015.13.022.195.022a.8.8 0 0 0 .184-.018q.001-.001-.004-.007a.75.75 0 0 0 .491-.303c.296-.419.072-1.083-.458-1.173zm-9.192-41.639a51 51 0 0 0 1.645.216c1.974.228 3.955.39 5.94.524.901.061 1.807.115 2.709.177q.574.038 1.147.086c.17.014.343.025.513.043l.119.033h.018c.328.404.667.8 1.006 1.194.567.657 1.133 1.317 1.707 1.967a372 372 0 0 0 2.212 2.475q.361.403.729.805l.415.454q.06.066.126.134.06.102.148.187c.112.108.224.206.379.256a.77.77 0 0 0 .956-.484.76.76 0 0 0-.105-.674l-.043-.065c-.01-.01-.047-.065-.09-.115a.7.7 0 0 0-.159-.144q-.134-.158-.274-.314l-.495-.552q-.61-.68-1.223-1.36-1.267-1.403-2.565-2.783c-.653-.692-1.303-1.382-1.974-2.056a.71.71 0 0 0-.667-.368q-.064.002-.123.014c-.22-.007-.444-.029-.664-.04q-.682-.045-1.367-.104c-1.905-.16-3.81-.329-5.72-.437q-1.497-.087-3.001-.126-.738-.018-1.469-.015c-.245 0-.494 0-.74.018-.187.011-.4.022-.562.127q-.024.014-.04.029l-.033.029c-.097.111-.13.28-.036.407.159.217.462.26.711.307.285.058.577.1.866.144zm-.413-2.616c.093.043.198.069.3.094q.211.049.428.083c1.054.162 2.118.256 3.18.346 1.136.098 2.276.18 3.413.264q1.454.101 2.904.198.51.032 1.018.069.123.062.267.068l.274.007c.043 0 .087.008.13.008h.043q.089-.012.166-.033a.72.72 0 0 0 .43-.289.77.77 0 0 0 .025-.819.75.75 0 0 0-.505-.346c-.065-.01-.127-.014-.188-.025a5 5 0 0 0-.245-.03.7.7 0 0 0-.282.03c-.599-.036-1.198-.09-1.797-.137a541 541 0 0 0-3.406-.25 136 136 0 0 0-3.215-.194 56 56 0 0 0-1.566-.054 9 9 0 0 0-.83.007c-.17.01-.339.025-.505.069a.5.5 0 0 0-.353.432.51.51 0 0 0 .306.506zm.083-2.774c.116.072.227.115.361.147.27.066.556.09.83.123 2.075.253 4.16.415 6.238.596q1.428.125 2.855.245c.386.032.772.061 1.158.097q.086.032.184.036h.108l.123.004h.05q.029.001.058-.004h.007q.014 0 .029-.003a.75.75 0 0 0 .487-.303c.278-.386.112-.982-.35-1.137a1.2 1.2 0 0 0-.224-.047 2 2 0 0 0-.148-.025.8.8 0 0 0-.184 0l-.313-.029c-1.704-.144-3.407-.296-5.11-.444-1.053-.09-2.107-.177-3.16-.252q-.817-.06-1.639-.105c-.274-.014-.555-.036-.83-.025-.108.004-.22.01-.324.043a.67.67 0 0 0-.433.39c-.101.238.014.56.227.693"/><path fill="#000" d="M109.23 85.054a18 18 0 0 0-.043-.982c-.014-.202-.029-.436-.097-.638a.8.8 0 0 0 .144-.415.82.82 0 0 0-.202-.585.87.87 0 0 0-.574-.278q-1.37-.141-2.735-.285c-3.092-.32-6.184-.645-9.276-.966l-10.168-1.061q-5.118-.532-10.237-1.068c-3.297-.343-6.595-.69-9.893-1.032l-10.273-1.072c-3.308-.343-6.617-.69-9.93-1.032a4635 4635 0 0 0-9.788-1.01c-1.552-.159-3.1-.321-4.655-.455q-1.149-.099-2.298-.177c-.368-.025-.744-.057-1.112-.057-.173 0-.346 0-.512.05a.7.7 0 0 0-.195.098.6.6 0 0 0-.444.176c-.559 1.159-.151 2.627-.296 3.897-.119 25.041-.097 50.103-.04 75.137.16.664 1.015.754 1.408.321q.2-.012.4-.029.503-.037 1.007-.09c1.624-.18 3.244-.404 4.864-.624q2.424-.326 4.85-.668 5.021-.699 10.037-1.414c3.42-.487 6.845-.971 10.266-1.461q4.994-.71 9.987-1.426 5.08-.724 10.16-1.454l10.046-1.436 10.03-1.436c2.948-.422 5.896-.841 8.844-1.266a.77.77 0 0 0 .541-.368.82.82 0 0 0 .289-.617v-17.085c-.022-13.069.058-26.138-.097-39.203zm-1.389-1.17c-.342 18.962-.079 37.937-.155 56.902l-.826.119-9.688 1.389q-4.968.71-9.94 1.425l-10.125 1.451-10.034 1.439-10.103 1.451q-5.11.735-10.219 1.476-5.004.724-10.009 1.465-2.424.358-4.842.732c-.787.123-1.577.245-2.363.379-.38.065-.755.133-1.13.213l-.195.043c.018-1.082-.025-2.172 0-3.258v-11.6q.002-22.314-.007-44.626c-.032-5.867.029-11.741-.126-17.608q.016 0 .029.007c.45.08.905.14 1.36.202q1.348.186 2.702.34c3.18.364 6.365.688 9.551 1.024 3.287.346 6.578.689 9.865 1.032q5.019.526 10.038 1.046c3.374.35 6.747.704 10.117 1.054 3.417.357 6.834.71 10.251 1.068q5.061.529 10.121 1.053 4.851.503 9.703 1.01c2.009.21 4.023.423 6.033.632-.004.047-.011.094-.011.14z"/><path fill="#fff" d="M211.339 76.358c-3.233-.234-5.621-3.435-5.354-7.144l1.23-17.074c.267-3.706 3.092-6.534 6.296-6.303q.02 0 .04.003l50.966 6.646c3.197.242 5.574 3.443 5.307 7.141l-.512 11.947c-.267 3.73-3.085 6.556-6.286 6.336l-51.683-1.552z"/><path fill="#000" d="M269.824 59.627c.267-3.698-2.114-6.899-5.307-7.14l-50.966-6.647s-.025 0-.04-.003c-3.204-.231-6.029 2.597-6.296 6.303l-1.23 17.074c-.267 3.706 2.121 6.91 5.354 7.144l51.684 1.552c3.2.22 6.015-2.605 6.285-6.336l.513-11.947zm-6.682 16.482h-.029l-51.669-1.551c-2.349-.17-4.099-2.515-3.904-5.232l1.23-17.074c.195-2.706 2.252-4.774 4.593-4.619l50.962 6.647s.026 0 .04.003c2.349.17 4.099 2.515 3.901 5.261l-.513 11.947c-.195 2.713-2.266 4.788-4.611 4.618"/><path fill="#000" d="m262.403 56.282-46.823-5.827c-2.346-.17-4.413 1.901-4.608 4.615l-.848 11.784c-.195 2.713 1.552 5.055 3.922 5.228l47.091 1.617c2.338.159 4.398-1.905 4.597-4.644l.544-7.545c.195-2.713-1.551-5.055-3.871-5.224zm1.772 12.69c-.123 1.721-1.436 3.035-2.923 2.926h-.025l-47.08-1.612c-1.486-.109-2.598-1.595-2.471-3.316l.848-11.785c.122-1.72 1.436-3.034 2.897-2.93l46.823 5.828c1.487.108 2.598 1.594 2.472 3.344l-.545 7.545z"/><path fill="#000" d="M226.361 61.096q-.042.001-.083-.004h-.065c-.036 0-.072-.007-.108-.007l-.415-.022-1.133-.054c-.401-.018-.812-.04-1.216-.058a73 73 0 0 0 1.818-1.522c.513-.365.61-1.09-.122-1.325-.668-.144-1.076.52-1.548.83-.423.343-.834.675-1.249 1.007.011-.296.025-.592.033-.891.01-.386.025-.772.032-1.158l.004-.47c0-.202.007-.422-.116-.602a.6.6 0 0 0-.108-.134c-.292-.278-.812-.274-1.064.018-.181.213-.181.502-.202.765q-.033.41-.055.82-.038.66-.072 1.33a26 26 0 0 0-2.728-2.164c-.584-.411-1.472-.05-1.262.631.09.27.368.44.595.625a47 47 0 0 1 2.475 2.078q-.817-.038-1.638-.065a49 49 0 0 0-1.631-.036c-.231 0-.465 0-.693.021-.263.026-.519.098-.667.3a.46.46 0 0 0 0 .516c.133.216.408.296.66.343.191.036.39.054.585.075.371.037.743.062 1.111.087.177.01.357.025.534.036.469.029.927.05 1.393.076l-.141.108c-.931.707-1.901 1.382-2.829 2.118-.328.26-.281.744.018 1 .845.635 1.559-.451 2.208-.823.632-.466 1.249-.93 1.859-1.393-.044 1.047-.083 2.093-.137 3.136v.065c-.018.368.357.67.75.689h.051c.371-.007.747-.282.768-.628q.001-.046.007-.094c.008-.245.022-.49.033-.736l.108-2.54q1.31 1.326 2.584 2.652c.133.14.306.234.516.256.642.08 1.089-.671.671-1.118-.332-.365-.679-.715-1.025-1.072q-.687-.706-1.378-1.422l.916.044 1.833.083q.027 0 .054.003h.076c.05 0 .123-.007.198-.018a.684.684 0 0 0 .549-.747.75.75 0 0 0-.736-.61zm12.608.959c-.025 0-.046 0-.072-.003h-.057a1 1 0 0 1-.094-.008c-.119-.007-.242-.01-.365-.018q-.493-.026-.992-.047c-.35-.018-.711-.032-1.064-.05a79 79 0 0 0 1.598-1.429c.451-.343.538-1.025-.101-1.237-.584-.134-.942.49-1.36.782q-.552.482-1.097.946c.011-.278.025-.556.032-.834.011-.36.026-.721.033-1.082l.003-.44c0-.188.008-.394-.097-.563a.6.6 0 0 0-.094-.123c-.256-.256-.707-.252-.927.022-.159.198-.159.469-.18.714q-.031.383-.051.765-.037.618-.069 1.241a22 22 0 0 0-2.37-2.01c-.509-.378-1.281-.043-1.104.592.076.253.317.412.516.581.747.624 1.461 1.27 2.147 1.93a90 90 0 0 0-2.851-.082c-.202 0-.404 0-.606.021-.231.022-.451.09-.581.282a.45.45 0 0 0-.004.48c.116.202.354.274.574.317.17.033.339.05.509.069q.486.047.97.079l.466.032c.408.026.808.044 1.212.065-.043.037-.079.069-.122.102-.816.66-1.664 1.295-2.476 1.984-.285.242-.249.696.011.93.733.593 1.361-.425 1.927-.768q.827-.654 1.627-1.302a257 257 0 0 1-.133 2.93v.065c-.018.346.31.627.653.642h.047c.325-.007.653-.264.674-.588l.004-.087c.007-.23.022-.458.033-.69q.055-1.187.104-2.373 1.138 1.24 2.248 2.475a.68.68 0 0 0 .451.238c.559.072.96-.628.592-1.046-.289-.34-.592-.668-.891-1-.401-.436-.798-.88-1.202-1.324.267.014.538.025.801.04.538.025 1.072.047 1.602.075q.024-.001.047.004h.065a1 1 0 0 0 .173-.021c.318-.062.523-.397.484-.7-.04-.304-.321-.581-.643-.57zm11.643 1.047h-.116q-.041-.001-.083-.007-.157-.01-.321-.015l-.873-.043-.935-.043q.716-.66 1.415-1.346c.397-.321.48-.964-.083-1.162-.512-.123-.834.465-1.198.74-.325.303-.646.599-.971.89l.033-.779c.011-.339.025-.674.032-1.014 0-.137.008-.274.008-.41 0-.178.007-.369-.087-.528a.6.6 0 0 0-.083-.115c-.224-.238-.621-.235-.816.025-.14.188-.144.44-.162.671q-.028.357-.05.718c-.026.386-.044.776-.065 1.166a20 20 0 0 0-2.071-1.873c-.444-.353-1.123-.032-.971.56.065.238.278.382.451.54a37 37 0 0 1 1.88 1.805c-.419-.018-.834-.04-1.256-.05-.411-.012-.83-.026-1.245-.023-.176 0-.353 0-.53.022-.202.022-.397.087-.512.267a.46.46 0 0 0-.008.451c.101.188.307.256.502.296.148.033.296.047.444.061.281.03.566.051.848.073l.407.028q.536.032 1.065.058c-.036.033-.072.061-.108.094-.718.62-1.465 1.216-2.18 1.862-.252.227-.22.65.007.873.639.552 1.195-.4 1.693-.725q.73-.617 1.432-1.227c-.04.917-.079 1.83-.13 2.746v.053c-.018.326.271.59.57.603h.04c.285-.007.574-.248.595-.552l.004-.082c.007-.217.022-.43.029-.646l.104-2.227q.996 1.16 1.971 2.313a.6.6 0 0 0 .393.224c.494.069.848-.592.527-.985-.253-.318-.52-.624-.783-.935q-.524-.612-1.054-1.24c.235.01.473.02.704.032.472.021.945.04 1.41.065h.101c.04 0 .094-.008.152-.019.281-.06.462-.375.429-.66-.032-.281-.281-.545-.566-.53zm10.102.974h-.101l-.076-.003-.282-.015q-.385-.02-.775-.036l-.83-.04a46 46 0 0 0 1.255-1.273c.354-.303.43-.906-.068-1.093-.455-.112-.74.44-1.065.7a86 86 0 0 1-.862.84l.033-.732c.01-.318.025-.635.032-.953 0-.13.007-.256.007-.386 0-.166.008-.346-.072-.494a.4.4 0 0 0-.072-.108.46.46 0 0 0-.722.029c-.126.176-.126.414-.144.63q-.026.339-.047.676c-.022.36-.043.729-.061 1.093a18 18 0 0 0-1.822-1.75c-.39-.328-.993-.025-.859.53.058.224.245.358.397.505a32 32 0 0 1 1.652 1.69c-.371-.015-.736-.033-1.111-.044q-.548-.017-1.097-.018c-.155 0-.314 0-.465.021-.177.022-.35.083-.451.253a.45.45 0 0 0-.008.422c.087.177.271.238.441.278.13.029.259.043.393.058q.373.038.747.065c.119.007.242.018.361.025.317.022.627.036.941.05q-.048.043-.097.09c-.635.585-1.299 1.148-1.93 1.758-.224.213-.199.613 0 .819.562.516 1.053-.379 1.497-.686.429-.386.855-.772 1.27-1.154-.04.862-.079 1.72-.126 2.58v.053a.547.547 0 0 0 .501.567h.036a.58.58 0 0 0 .531-.52q0-.037.003-.075.012-.303.029-.606.048-1.047.101-2.093.877 1.088 1.732 2.172a.5.5 0 0 0 .35.21c.437.064.754-.56.473-.928-.224-.3-.458-.588-.689-.88l-.928-1.162c.206.01.419.021.625.029q.628.026 1.252.057h.086a1 1 0 0 0 .134-.018c.249-.057.411-.353.382-.624-.029-.267-.249-.512-.498-.498z"/><path fill="#FFF7DB" d="M146.027 15.11c6.307 15.19-5.91 32.957-19.416 32.383-15.731-.668-24.709-29.353-11.871-40.459 5.048-6.083 13.704-8.216 20.419-4.34 5.066 1.169 8.216 7.526 10.868 12.415"/><path fill="#FED980" d="M128.838 39.775c-7.281-2.692-14.574-20.552-11.752-22.37 5.311-3.425 7.455-4.464 10.514-7.42 2.342 1.018 7.332 4.522 12.214 7.055 1.386 9.843-4.579 19.21-10.976 22.739z"/><path fill="#000" d="M148.115 22.514c-.086-1.646-.343-3.27-.696-4.857a26 26 0 0 0-.617-2.23 26 26 0 0 0-2.937-6.22c-1.581-2.458-3.59-4.514-5.82-6.055a19 19 0 0 0-3.637-1.952 15 15 0 0 0-1.873-.624 17 17 0 0 0-1.984-.412c-2.541-.35-5.12-.148-7.588.672a17.6 17.6 0 0 0-3.248 1.443 18.3 18.3 0 0 0-2.594 1.771.6.6 0 0 0-.181.25c-2.103 1.688-3.904 3.907-5.322 6.43-.757 1.345-1.382 2.788-1.905 4.29a25 25 0 0 0-.674 2.29c-.184.769-.35 1.548-.473 2.335a30 30 0 0 0-.365 4.784 30 30 0 0 0 .43 4.814 26.9 26.9 0 0 0 3.125 8.8c1.515 2.663 3.492 4.972 5.758 6.69 1.13.855 2.317 1.57 3.554 2.154 1.267.599 2.591 1 3.93 1.277a16 16 0 0 0 1.966.263q.613.05 1.227.051.344 0 .689-.018c.682-.04 1.364-.098 2.042-.213a18 18 0 0 0 1.974-.455 18.3 18.3 0 0 0 3.853-1.656c.61-.343 1.195-.74 1.772-1.154.271-.195.534-.408.797-.617.278-.224.556-.459.823-.704.53-.49 1.05-1 1.541-1.548s.952-1.118 1.4-1.717a23.7 23.7 0 0 0 2.381-3.98 26.6 26.6 0 0 0 1.656-4.435c.21-.761.394-1.53.538-2.312q.226-1.223.361-2.461c.169-1.552.18-3.125.101-4.684zm-1.353 3.391a27 27 0 0 1-.141 1.552q-.098.756-.223 1.511-.124.673-.275 1.336-.158.67-.342 1.331c-.148.498-.303.992-.473 1.48a25 25 0 0 1-1.122 2.67q-.302.595-.621 1.18c-.231.4-.465.804-.718 1.186q-.372.563-.761 1.108c-.274.364-.545.725-.837 1.068q-.45.52-.909 1.018c-.296.3-.592.595-.899.876a27 27 0 0 1-.851.744 25 25 0 0 1-.978.743c-.314.224-.639.433-.96.642-.415.25-.834.498-1.259.711-.43.213-.863.408-1.299.595-.368.141-.736.282-1.108.4q-.558.178-1.115.322c-.436.101-.873.199-1.313.263q-.66.093-1.321.152-.616.035-1.237.036c-.387 0-.776-.025-1.162-.058a20 20 0 0 1-2.407-.4 19 19 0 0 1-1.256-.368 20 20 0 0 1-1.241-.473c-.7-.31-1.378-.664-2.053-1.053a20 20 0 0 1-1.191-.783q-.557-.407-1.093-.845a23 23 0 0 1-1.771-1.678 26 26 0 0 1-1.606-1.944 26 26 0 0 1-1.476-2.306 29 29 0 0 1-1.241-2.565 31 31 0 0 1-.971-2.8 33 33 0 0 1-.667-3.02 33 33 0 0 1-.307-2.88q-.066-1.5.007-2.998a32 32 0 0 1 .361-3.132c.177-.956.39-1.894.65-2.818q.426-1.423.977-2.775c.379-.88.791-1.728 1.245-2.55q.693-1.206 1.494-2.314a24 24 0 0 1 1.786-2.125c.455-.469.982-.97 1.534-1.443a.54.54 0 0 0 .241-.105 22 22 0 0 1 1.956-1.37 18 18 0 0 1 2.27-1.16 17 17 0 0 1 2.417-.793h.007l.04-.01a18 18 0 0 1 2.446-.383c.798-.054 1.591-.05 2.385 0 .852.076 1.689.216 2.526.411.812.213 1.609.476 2.399.801q1.125.493 2.201 1.126c.762.473 1.491.992 2.201 1.57a23 23 0 0 1 1.841 1.742 24 24 0 0 1 1.688 2.071 27 27 0 0 1 1.415 2.241c.443.82.844 1.663 1.212 2.537.332.837.628 1.685.891 2.554.267.953.487 1.916.668 2.901.079.476.155.956.205 1.44q.083.767.138 1.54c.028.563.046 1.126.046 1.693 0 .537-.021 1.075-.05 1.613z"/><path fill="#000" d="M134.414 19.963c-.296-.278-.718-.202-.952.144-.051.08-.105.155-.159.235q-1.457 2.181-2.908 4.362c-.603.906-1.202 1.811-1.786 2.731-.249.386-.495.776-.729 1.177-.35-.408-.704-.809-1.058-1.216-.642-.74-1.284-1.483-1.948-2.198a11 11 0 0 0-.328-.343 4 4 0 0 0-.358-.31c-.238-.23-.609-.144-.793.137a.81.81 0 0 0 .101.978l-.054-.058-.047-.065q.13.231.288.44c.008.011.015.026.022.037.152.23.318.45.483.667.314.412.639.812.967 1.209.639.776 1.289 1.54 1.934 2.305.13.156.304.231.473.231.08 0 .162-.018.238-.054l.051.004c.263 0 .465-.25.638-.466q.27-.333.524-.685c.988-1.353 1.973-2.836 2.966-4.312.847-1.266 1.688-2.54 2.543-3.8.235-.346.166-.883-.119-1.154z"/><path fill="#000" d="M140.135 16.152c-.043-.462-.462-.696-.888-.729-.7-.144-1.385-.371-2.035-.613-1.201-.455-2.396-.96-3.543-1.584-1.447-.78-2.84-1.92-4.041-3.107a17 17 0 0 1-.859-.91c-.13-.205-.321-.356-.527-.396-.321-.173-.689.047-.88.397-.26.34-.534.66-.812.974-1.137 1.277-2.468 2.519-3.872 3.406-1.114.711-2.28 1.306-3.456 1.848-.639.288-1.31.566-1.999.765-.426.064-.83.332-.848.8-.115.416-.105.903-.144 1.332-.249 9.807 4.434 18.56 12.047 22.003a.58.58 0 0 0 .404.043c.17.137.397.18.646.047 7.458-3.915 11.763-12.946 11.103-22.724-.069-.51-.069-1.112-.3-1.556zm-7.772 20.285c-1.111.974-2.262 1.747-3.486 2.447-.025-.018-.047-.037-.075-.05-1.299-.636-2.523-1.358-3.713-2.292-4.5-3.601-7.217-9.908-7.509-16.385a27 27 0 0 1-.043-1.855c-.007-.18.003-.367.014-.559 1.765-.353 5.081-2.377 5.763-2.8 1.573-1.028 2.991-2.385 4.3-3.857.123-.162.296-.343.466-.541.195.202.397.39.541.556 1.382 1.37 2.869 2.615 4.492 3.521.715.375 4.215 2.187 5.968 2.363.018.26.054.52.054.765.036.617.04 1.238.036 1.855-.018 6.488-2.464 12.957-6.805 16.832z"/><path fill="#FED980" d="M287.735 120.887c.556 3.673.852 7.512.13 11.182-.667 3.366-2.093 6.516-3.691 9.374-2.342 3.897-5.582 7.036-9.255 9.046-3.276 1.88-6.917 3.236-10.597 2.778-2.721-.267-5.47-.79-7.996-2.057-2.908-1.591-5.629-3.702-7.898-6.375-3.543-4.363-4.821-10.024-5.001-15.916-.177-3.251-.141-6.567.689-9.699.206-.657.299-1.53.855-1.909 1.891-7.176 6.939-12.884 12.849-15.508 2.85-1.197 5.917-1.591 8.93-1.511 7.123.436 11.766 3.893 16.396 10.056 2.1 3.07 3.846 6.671 4.586 10.539z"/><path fill="#000" d="M265.978 146.834q-.065.006-.126.014a6 6 0 0 1-.852-.011 8 8 0 0 1-1.136-.191c-.52-.13-1.028-.3-1.53-.502l-.069-.028c-.046-.022-.133-.058-.223-.098a14 14 0 0 1-1.057-.519l-.286-.159c-.075-.044-.151-.094-.227-.134 0 0-.007 0-.007-.003a17 17 0 0 1-1.728-1.202 16 16 0 0 1-1.35-1.227 15 15 0 0 1-1.043-1.226 23 23 0 0 1-.407-.574l-.3-.437c-.104-.151-.213-.299-.357-.397-.188-.18-.451-.227-.682-.068s-.332.469-.285.758c.007.194.047.375.123.559.079.205.166.404.27.592.148.274.311.541.487.79.978 1.389 2.223 2.511 3.533 3.431 1.32.927 2.76 1.667 4.254 2.111.815.242 1.66.404 2.504.404q.358.002.711-.04c.429-.05.736-.559.678-1.05-.058-.519-.462-.848-.891-.801zm-10.669-6.665q.022.022.04.044l.039.054.036.065.022.05a.8.8 0 0 0-.141-.213zm9.805-32.387q1.022.3 2.017.707c2.846 1.209 5.661 3.187 7.49 6.102a.65.65 0 0 0 .527.271c.415 0 .837-.387.819-.928-.004-.483-.346-.826-.577-1.18-.549-.786-1.148-1.526-1.819-2.165-2.594-2.413-5.73-4.192-9.009-4.788-.646-.075-1.177.744-.758 1.4.314.451.869.412 1.306.585zm-9.545 4.918c.375.361.844.112 1.241-.062.454-.18.92-.335 1.393-.454 3.052-.657 6.354-.52 9.164 1.154 2.429 1.537 4.622 3.973 5.943 6.867 1.09 2.72 1.631 5.867 1.234 8.869-.65 3.528-3.886 5.416-6.758 5.289-3.063-.242-5.647-3.565-5.817-7.126-.028-1.223-1.558-1.227-1.584 0 .004 1.389.412 2.796.993 4.009.858 1.883 2.24 3.442 3.911 4.29a6.64 6.64 0 0 0 2.97.685c2.937 0 5.939-1.818 7.266-4.914.729-1.591.801-3.449.7-5.217-.194-3.36-1.136-6.816-3.012-9.425-2.097-2.93-4.821-5.391-8.047-6.235-3.096-.747-6.494-.718-9.439.736-.501.271-.613 1.144-.158 1.537z"/><path fill="#000" d="M275.815 135.078c-2.833 3.944-8.079 5.04-11.958 2.648-1.263-.768-2.507-1.692-3.391-3.07-1.361-2.245-2.09-5.146-1.704-7.895.145-.888.589-1.783 1.354-2.068.956-.357 2.197-.44 2.879.581 1.126 1.537 1.1 3.756 2.136 5.366.7 1.176 1.887 1.912 3.11 1.883 2.504-.029 4.619-2.215 4.831-5.181.192-3.644-1.378-7.191-3.456-9.789-2.266-2.786-5.679-4.077-8.909-3.641-2.619.408-5.214 1.71-7.054 3.984-.317.393-.754.934-.548 1.526.169.476.671.595 1.021.335.375-.299.682-.707 1.025-1.053 2.973-3.064 7.49-3.998 11.062-1.873 2.306 1.436 4.023 4.063 4.846 6.95.632 1.944.801 4.499-.671 6-1.411 1.274-3.485 1.342-4.297-.801-.376-.898-.567-1.88-.866-2.814-.542-1.786-1.783-3.472-3.493-3.547-3.525-.296-4.987 2.843-4.608 6.61.224 2.735 1.137 5.459 2.761 7.462 1.941 2.211 4.539 3.738 7.23 4.08q.578.067 1.166.069c3.381 0 6.859-1.681 8.93-4.864.487-1.14-.823-1.934-1.403-.902z"/><path fill="#000" d="M273.725 141.746c-2.724 1.136-5.748 1.721-8.62 1.108-3.305-.856-6.264-3.331-8.165-6.614-2.205-3.803-2.468-9.905.054-13.578 1.833-2.313 5.08-2.85 7.487-1.559 1.991 1.198 3.305 4.28 3.225 6.863.026.368.235.657.534.78 1.487.227 1.011-2.62.736-3.612-.479-1.566-1.143-3.107-2.132-4.316-1.88-2.222-4.788-2.666-7.292-1.941-5.448 1.335-6.791 9.093-5.445 14.595 1.508 5.766 6.087 10.168 11.063 11.283.74.144 1.483.206 2.226.206 1.743 0 3.486-.347 5.174-.837.725-.303 1.757-.321 2.19-1.162.289-.743-.407-1.544-1.035-1.22z"/><path fill="#000" d="M288.833 125.08c-.097-1.865-.4-3.709-.815-5.513a28 28 0 0 0-.722-2.53 30 30 0 0 0-.952-2.504 29.7 29.7 0 0 0-2.479-4.557 24.8 24.8 0 0 0-6.798-6.87 22.2 22.2 0 0 0-4.247-2.215 17 17 0 0 0-2.19-.708 21 21 0 0 0-2.32-.469c-2.966-.397-5.982-.165-8.862.762-1.302.418-2.572.96-3.792 1.638-1.046.584-2.075 1.241-3.031 2.01a.7.7 0 0 0-.213.281c-2.457 1.916-4.56 4.435-6.217 7.296-.884 1.53-1.616 3.164-2.226 4.867a28 28 0 0 0-.786 2.602 30 30 0 0 0-.552 2.652 34 34 0 0 0-.426 5.426 33 33 0 0 0 .501 5.46 29.9 29.9 0 0 0 3.652 9.983c1.771 3.024 4.081 5.64 6.726 7.592a23.5 23.5 0 0 0 4.153 2.443c1.479.678 3.027 1.133 4.593 1.45.757.152 1.53.242 2.298.3q.715.056 1.436.058.402 0 .805-.022a21 21 0 0 0 2.385-.245q1.164-.194 2.305-.516c1.556-.444 3.053-1.086 4.503-1.88.711-.39 1.397-.841 2.072-1.31.317-.22.624-.462.931-.7.324-.253.649-.52.959-.801a27 27 0 0 0 1.801-1.757 27 27 0 0 0 1.634-1.949 27 27 0 0 0 2.782-4.514 29 29 0 0 0 1.934-5.033c.246-.862.458-1.735.628-2.623q.264-1.386.419-2.793c.198-1.761.209-3.543.115-5.315zm-1.576 3.846a33 33 0 0 1-.166 1.761 47 47 0 0 1-.26 1.714 36 36 0 0 1-.321 1.515 35 35 0 0 1-.397 1.512 41 41 0 0 1-.552 1.678 28 28 0 0 1-.621 1.57c-.22.49-.44.985-.685 1.461q-.352.677-.726 1.339c-.27.454-.541.909-.837 1.345q-.432.64-.887 1.256c-.318.411-.639.823-.978 1.212q-.524.592-1.065 1.155a29 29 0 0 1-1.05.996c-.324.292-.66.566-.995.844-.376.289-.755.574-1.144.844-.368.257-.744.495-1.122.729-.484.285-.971.563-1.473.805q-.751.358-1.515.675c-.429.162-.859.317-1.292.454a25 25 0 0 1-1.302.365c-.509.115-1.018.227-1.534.299q-.769.105-1.544.17-.724.038-1.443.039c-.455 0-.906-.028-1.357-.064a24 24 0 0 1-2.811-.455c-.49-.126-.981-.26-1.465-.419-.487-.158-.97-.342-1.45-.537a24 24 0 0 1-2.396-1.198c-.469-.282-.938-.57-1.389-.888a29 29 0 0 1-1.277-.96 27 27 0 0 1-2.072-1.905 30 30 0 0 1-1.876-2.204 30 30 0 0 1-1.724-2.616 32 32 0 0 1-1.451-2.908 33 33 0 0 1-1.133-3.179 35 35 0 0 1-.779-3.424 35 35 0 0 1-.358-3.266c-.05-1.136-.05-2.266.008-3.402.079-1.198.22-2.378.422-3.554a36 36 0 0 1 .761-3.201 35 35 0 0 1 1.14-3.15c.441-.996.924-1.959 1.458-2.894a31 31 0 0 1 1.743-2.623 29 29 0 0 1 2.085-2.414c.531-.53 1.148-1.1 1.79-1.638a.6.6 0 0 0 .281-.119 25 25 0 0 1 2.284-1.555 22 22 0 0 1 2.652-1.313 21 21 0 0 1 2.826-.902h.007l.047-.015a22 22 0 0 1 2.857-.436 22 22 0 0 1 2.79 0c.992.086 1.973.245 2.951.469.949.242 1.88.541 2.8.909q1.314.557 2.573 1.277a24 24 0 0 1 2.569 1.783q1.113.918 2.147 1.977 1.043 1.11 1.973 2.349.883 1.216 1.653 2.54c.519.931.985 1.887 1.418 2.876q.579 1.422 1.039 2.897c.31 1.083.566 2.176.779 3.291.091.541.181 1.086.242 1.634q.096.87.159 1.747c.032.638.054 1.277.054 1.919 0 .61-.025 1.22-.058 1.83z"/><path fill="#FED980" d="M92.049 160.894c.674-5.657-.588-13.967-7.48-14.952-1.743 1.876-4.478 2.057-6.92 1.822-2.04-.288-4.345-1.025-4.807-3.175-6.97-.487-10.175 2.396-12.405 9.298-2.197 10.901 1.761 13.221 3.688 13.188.534 1.523.53 5.25-.162 7.693.043 1.522-1.642 4.55.01 5.268 8.418-.357 18.528.205 26.488-1.415.603-4.669-.422-9.431.985-13.924 1.029-.627.974-2.821.603-3.803"/><path fill="#FFF7DB" d="M68.635 158.037c-.224 0-3.565-.642-3.63-.639-.021 0-2.211-.097-2.637-1.309-.101-.174.075-.405.27-.34.322.174.596.401.913.585-.021-.022-.047-.047-.043-.047-.35-.281-.66-.617-.794-1.057-.036-.119-.029-.256.08-.336.173-.13.41-.003.591.058a16 16 0 0 1 1.97 1.014.27.27 0 0 1 .166-.08q.055-.001.108.004c-.26-.256-.837-1.198-.847-1.389.029-.332.375-.31.573-.123 1.602.549 4.041 3.825 3.287 3.659zm13.967 4.586c-.635.336-1.41.74-2.136.714-.52-.018-1.032.163-1.544.04-.996-.216-3.605-.022-3.872.09-.094.3-.3.541-.653.361-.577-.372.451-3.825.642-4.247.05-.101.148-.122.239-.101.082-.054 2.478-.296 3.546-.159.635.091 5.514-.216 6.21 1.877.242.14-1.782 1.403-2.428 1.421zm9.293 20.253c.443 3.121.086 2.951-3.067 6.054-3.215 1.306-8.205.578-11.294.318-3.078-1.339-10.446.133-13.769-1.602-1.324-.693-2.508-3.652-.4-7.516 1.053-.462 26.877-.621 27.148-.469.692 2.287 1.024 2.648 1.382 3.215m-9.84 39.274c4.774 1.635.588 8.772-2.724 7.134.014-.43-1.082-3.756-1.082-3.756s2.457-2.19 3.806-3.378m-2.929 8.314c.632 3.453-3.51 2.72-4.308.711-.054-1.465.523-1.747.523-1.747s3.29.325 3.785 1.032z"/><path fill="#313144" d="M71.847 238.95c-4.236-.065-1.374-2.876.109-4.654.58-1.278 1.374-2.577 2.28-2.786.801-.184 1.584 1.155 2.562 1.472.978.318 1.844-.631 2.2-.397 1.66 1.09-2.781 7.44-7.154 6.365z"/><path fill="#313144" d="M79.11 236.594c-.794-.898.061-3.511.068-3.72-.133-.823-.021-4.803 1.422-3.085 1.598-.469 2.63-1.389 3.547-2.71-.058-.545 0-3.933.191-4.192.444-.477 7.963 1.035 2.255 5.073-.018 2.81-4.38 9.612-7.483 8.634"/><path fill="#fff" d="M79.71 147.844c-2.76.194 0-3.172 1.396-2.053.238-.668.895-.473 1.245-.87.126-.581.83-.938 1.053-.224 3.183 1.187-2.349 3.378-3.695 3.147m-4.475-.801c-1.584-1.148-4.089-2.479-.636-3.515.495 2.216.235.495 1.249 1.729.382.537.404 2.608-.613 1.786"/><path fill="#000" d="M84.52 130.68c-.013-.029-.057-.054-.053-.087-1.894-4.618-8.61-4.708-11.647-1.263-1.682 2.346-3.98 7.574-1.472 9.717 2.013 1.241 2.42-1.742.855-2.428-.722-1.328.992-2.078 1-3.215 1.51-5.434 9.377-3.135 9.453 1.855.144.667.656.083.894-.188 1.606-.534 1.371 1.728.78 2.551-.307.567-3.089 1.934-.805 1.66 3.666 2.071 3.294-7.014.992-8.602z"/><path fill="#FFF7DB" d="M84.168 134.645c-.556-.008-.812.584-1.147.934-.116.011-.246.04-.357.083a6 6 0 0 0-.57-2.284c-.329-1.053-1.216-1.851-2.158-2.374-.88-.567-2.382-1.169-4.77-.383a2.69 2.69 0 0 0-1.837 1.949c-.043.263-.444 2.035-.52 2.388-.57.12-.14 1.884.203 1.981.137.736-.931 2.317 2.745 5.867-.137.267-.238.552-.375.819-.4.04-.526.567-.14.736.617.253 1.197.718 1.14 1.447-.444 2.219 1.385 1.952 1.443 1.941 0 0 .17-.046.245-.097.34.112 1.08-1.811 1.159-1.948.1-.112.252-.065.386-.073.306.019 2.114-.425 2.219-.833.126-.429-.195-.801-.386-1.162-.242-.566-.278-1.191-.264-1.797.671-.721.884-1.764 1.335-2.63.397-.184.556-.646.73-1.018.905-.097 2.33-3.435.923-3.55z"/><path fill="#fff" d="M73.378 137.47c-1.75-.884-.787-4.2 1.33-3.475 2.296.198.596 4.077-1.33 3.475m5.639-.274c-2.378-.476-1.664-4.189.743-3.482 2.22.585 1.487 3.706-.743 3.482"/><path fill="#313144" d="M75.494 197.929c.177-2.584.205-5.153-.087-7.729-.3 4.792-3.157 11.351-3.25 16.049-.048 2.345.555 3.24 2.59 5.189.112-4.565.227-9.097.747-13.509m13.772-9.18c-.195 5.117-5.932 11.579-5.625 17.85-.516 2.883.996 14.325-1.32 15.501-.618.314-2.804 2.89-4.493 2.89 1.617 3.009 3.067 7.169-2.05 3.821-.198-5.044-1.186-6.938-4.777-10.954-4.066-4.55-6.758-6.228-7.938-9.984-.768-5.618.087-17.929.946-19.816 3.8-.628 7.956 1.035 11.25.855 4.77.252 9.555 1.58 14.007-.166z"/><path fill="#000" d="M92.1 182.616c-.253-.751-.762-1.368-1.043-2.1a.5.5 0 0 0 .058-.162.5.5 0 0 0 .057-.17q.016-.281.037-.563c.064-1.144.064-2.28.028-3.424.018-.52.033-1.043.022-1.562a37 37 0 0 1-.004-1.09c.058-1.476.163-2.948.166-4.42.011-.433.026-.873.018-1.31q.04-.974.062-1.948c.39-.801.667-1.653.768-2.548.538-2.356.495-4.77.191-7.158a214 214 0 0 0-.544-4.002c-.137-1.367-.65-2.655-1.624-3.644-.787-.718-1.66-1.386-2.594-1.902-.686-.389-1.353-.848-2.118-1.057-.123-.029-.246-.072-.368-.108-.08-.397-.801-.57-1.094-.801-.313-.3-.552-.837-1.075-.769-.364.087-.65.3-.906.552-.176-.768-.472-1.501-.653-2.265a.2.2 0 0 0-.007-.083c.267-.239.541-.524.765-.856a5.4 5.4 0 0 0 .437-.786q.164-.359.274-.74l.04-.144c.487.292 2.626.361 2.72.191.044-.079.444-1.155.455-1.18.032-.065.317-.988.36-1.342.051-.386.07-.772.07-1.158 0-.264-.015-.527-.033-.791a11 11 0 0 0-.09-.837 10 10 0 0 0-.166-.79 14 14 0 0 0-.203-.758c-.086-.288-.19-.57-.299-.851-.101-.256-.202-.516-.314-.769a8 8 0 0 0-.386-.736 8 8 0 0 0-.451-.7 8.6 8.6 0 0 0-2.356-2.287c-.664-.43-1.447-.772-2.27-.909a6 6 0 0 0-.765-.076 4 4 0 0 0-.847.036 3.4 3.4 0 0 0-.805.22 1.5 1.5 0 0 0-.318.184c-.003 0-.007.007-.01.011-1.198-.051-1.599.072-2.19.263-3.79 1.22-5.207 6.34-4.97 9.937.07.512.022 1.176.243 1.685.166.209 2.576.733 2.62.733.068.357.19.703.364 1.024.202.376.458.711.736 1.029.27.31.613.606.996.855l.075.043c-.025.083-.137.484-.177.606a.3.3 0 0 0-.111-.047c-.451-.09-.79.285-1.162.473-.31.202-.632.404-.913.649-.018 0-.101-.09-.4-.025-.733.119-1.462.264-2.205.3-3.825.054-6.07 1.273-7.906 4.68-1.858 3.131-3.222 6.761-2.89 10.452.05.921.144 1.812.354 2.714.17.851.292 1.724.642 2.525.346.7.924 1.216 1.526 1.714.574.405 1.241.628 1.927.783a.4.4 0 0 0-.014.062c-.383 2.605-.56 5.188-.715 7.829-.108 1.538-.35 3.049-.39 4.615 0 .238.156.376.336.419-.758 1.079-1.068 2.461-1.266 3.745-.008.935.216 1.88.67 2.699.167.357.271.765.632.985.213.166.444.318.697.415-.224 1.324-.534 2.638-.73 3.969-.266 1.84-.263 3.702-.494 5.546a136 136 0 0 0-.274 4.553c-.191 2.367-.307 4.922 1.021 7.007.895 1.617 2.198 2.941 3.341 4.377 1.685 1.88 3.31 3.814 4.944 5.737 1.143 1.328 2.114 2.771 3.33 4.045q.075.08.151.166c-.266 1.768.011 3.579-.151 5.354a.46.46 0 0 0 .151.484c-.032.054-.06.108-.1.148-.314.426-.416.96-.704 1.4a.4.4 0 0 0-.09.123c-.487.09-.917.436-1.245.97-.437.7-.899 1.382-1.404 2.032l-.281.606c-.12.148-.228.306-.347.454-.631.682-1.349 1.31-1.843 2.111-.224.361.097.7.278 1 .277.476.837.664 1.327.851.765.282 1.595.213 2.392.339 1.455-.011 2.909-.66 3.933-1.685a50 50 0 0 1 1.476-1.331c.159.397.578.66 1.083.649 1.732.069 3.445-.761 4.438-2.193a17.7 17.7 0 0 0 1.872-3.699c.289-.913.459-1.865.993-2.684.534.169 1.107.086 1.299-.509.368-.823.8-1.656.743-2.584 0-.151-.116-.959-.177-1.042-.166-.578-1.187-1.956-2.814-2.104-.617-.076-1.288-.043-1.84.274-.011 0-.022-.007-.033-.007-.133-.007-.26.058-.393.058-.163-.043-.336-.076-.498-.13.01-.014.025-.029.036-.047.234-.624.346-1.295.501-1.945.477-3.11.592-6.332.592-9.486-.014-2.717-.043-5.434.642-8.089.704-2.194 1.574-4.312 2.32-6.509.856-1.92 1.83-3.793 2.353-5.835.155-.465.411-1.05.57-1.558.047-.181.112-.419-.018-.578a.4.4 0 0 0-.087-.072q.246-.226.491-.447c.6-.52 1.19-1.058 1.627-1.725.86-1.065.538-2.472-.082-3.569zm-27.578-14.837q0-.115-.007-.224l.314.054c1.663-.007 3.294-.577 4.882-1.039.545-.122 1.09-.231 1.624-.397v.026c.025.108.119.166.202.22.66.404 1.299.833 1.962 1.23 1.332.79 2.508 1.58 3.89 2.342 2.19 1.115 4.583 2.035 7.061 2.114 1.249-.058 2.248-.931 3.154-1.706.682-.61 1.436-1.148 2.028-1.844v.021s.003-.007.007-.007q.092-.093.184-.191.07-.097.152-.195l.14-.162v-.022q.276-.336.53-.693c-.19.708-.346 1.426-.353 2.162 0 1.475.105 2.951.054 4.427.01.519.007 1.043 0 1.562h-.14q-.197.012-.394.018c-.31.015-.624.036-.934.047-.322.011-.643.007-.964.004-.314 0-.624 0-.938.011q-.948.016-1.898.061c-.639.029-1.273.05-1.912.072-.678.022-1.357.054-2.032.065-.656.011-1.313.018-1.966.033q-.969.022-1.938.039c-.653.011-1.306.04-1.959.054-.664.015-1.328.015-1.988.022-.646.007-1.288.018-1.934.032-.657.015-1.317.015-1.974.018-.645 0-1.291.019-1.934.004-.61-.011-1.223-.043-1.833-.011a6 6 0 0 0-1.46.242h-.012q.07-.542.13-1.082c.415-2.436.87-4.904.264-7.318zm-.87 11.9.087-.841c.116-.704.228-1.411.325-2.122l.069.022c.126.033.252.058.382.083l-.047-.011q.369.075.747.094c-.245.628-.332 2.161-.281 2.721a6 6 0 0 0-.513.039c-.256-.032-.508-.057-.761.015zm13.124-3.157c.068.981-.235 1.973-.054 2.948.007.028.025.054.036.079q-.779.053-1.566.112c0-.744-.036-1.422-.206-2.187-.036-.101-.13-.628-.26-.909q.462-.016.924-.022c.375-.003.75-.014 1.122-.021zm-2.533 3.204q-.764.048-1.534.086c.036-.83-.13-1.659-.213-2.486-.036-.22-.036-.462-.1-.678.678-.022 1.36-.051 2.038-.072-.072 1.043-.34 2.111-.191 3.153zm-2.331-2.461a51 51 0 0 0-.152 2.58q-.465.012-.923.007-.22-.019-.44-.032c.111-.964-.318-2.645-.38-3.075 0-.007-.007-.014-.01-.021.563-.022 1.122-.044 1.685-.054.097 0 .191-.008.289-.008-.047.213-.047.495-.073.607zm-2.176-.48c-.177.523-.245 1.075-.339 1.62-.054.328-.09.653-.101.985-.004.116-.01.242-.007.368-.505-.018-1.01-.032-1.52-.054.127-.848-.064-2.241-.097-2.619a1 1 0 0 0-.05-.264c.058 0 .108-.007.166-.011.646-.032 1.291-.05 1.937-.079h.033l-.022.058zm-2.746.736c-.065.715-.144 1.454-.065 2.172-.433-.007-.873-.043-1.313-.061.17-.884.224-1.844-.007-2.713h.086c.459 0 .92-.037 1.379-.073-.05.217-.044.451-.08.668zm10.673 1.404c-.043-.332-.17-1.729-.443-2.411q.174.002.35-.007c.613-.018 1.226-.025 1.84-.043-.007.177.01.375 0 .465.043.798-.213 1.638-.072 2.425q-.849.059-1.696.134c.054-.174.043-.387.021-.563m4.442.27a103 103 0 0 0-1.754.09c-.122-.952-.277-1.923-.559-2.836.56-.018 1.122-.039 1.682-.046q.39-.007.779-.008c-.01.062-.014.127-.014.174-.026.869-.16 1.75-.134 2.626m.93-.036c-.028-.148-.06-.292-.078-.411-.101-.556-.188-1.108-.293-1.663-.065-.217-.061-.48-.144-.69.336 0 .675-.007 1.01-.01q.666-.007 1.332-.008c-.05.358-.044.733-.087 1.086-.029.545-.112 1.094-.05 1.635v.011q-.846.02-1.693.05zm2.866-.35c-.087-.462-.098-.938-.134-1.407-.028-.346-.05-.693-.1-1.036.544 0 1.093-.014 1.637-.032q.228-.007.455-.018c0 .094.007.184.036.263-.08.834-.4 1.646-.36 2.483q-.752.006-1.509.018a.7.7 0 0 0-.025-.271m4.384-.862c-.033.299-.065.613-.083.916a1 1 0 0 0-.108.011c-.538.011-1.069.083-1.599.141-.184-.722.097-1.479.12-2.212.014-.17.032-.343.032-.516.18-.004.36-.014.54-.011h1.141c-.014.556-.032 1.115-.04 1.671zm-7.198-33.394c.216.163.32.437.534.606.187.166.414.282.624.412l-.047.061c-.101.119-.22.227-.336.336l-.007.007a7 7 0 0 1-.375.306q-.27.19-.563.35a8 8 0 0 1-.801.372c-.415.152-.84.267-1.27.368a8.6 8.6 0 0 1-2.15.206c.1-.159.18-.343.23-.433.84-2.468 1.025-.025 3.287-1.873.293-.238.487-.62.88-.721zM71.02 138.3c-.75-3.835.588-9.331 4.698-10.676.368-.101.74-.282 1.122-.383-.04.083-.072.173-.098.26-.09.245-.332.62.008.779.375.155.714-.595.678-.996.09-.007.18-.021.27-.032.242-.036.484-.083.73-.105.266-.021.533-.036.804-.025q.258.015.516.061.384.071.758.192c.22.072.469.173.714.285q.392.188.772.436.37.245.711.527.394.341.75.722.374.412.704.873l.01.021c.225.322.441.672.632 1.032.188.358.376.722.52 1.108q.2.559.336 1.133c.086.401.133.808.17 1.216.024.296.035.635.02.978a8 8 0 0 1-.126 1.086c-.043.224-.097.458-.151.693q-.06.266-.14.527l-.033.082c-.022.055-.03.109-.04.166a.1.1 0 0 1-.007.033q-.011.036-.03.072-.038.076-.071.152l-.054.133a4 4 0 0 1-.083.184c-.033.069-.076.141-.116.217a.5.5 0 0 0-.242.353 9.5 9.5 0 0 0-1.692-.133l.025-.13c.022-.137.044-.274.033-.411v-.011c1.306.393 2.143-2.862 1.757-3.753-.242-.592-1.025-.577-1.465-.22-.234.148-.32.451-.566.574-.17-1.083-.451-2.216-1.159-3.085-1.457-1.732-3.665-2.941-5.946-2.172-1.663.382-3.005 2.053-2.713 3.774-.043.032-.09.061-.13.094a1 1 0 0 0-.101.097 1.8 1.8 0 0 0-.62.628 2.3 2.3 0 0 0-.311.931c-.061.703.195 1.429.736 1.898.112.097.238.18.368.252 0 .015-.007.026-.01.04a3.6 3.6 0 0 0-.058.794q.002.16.014.321c-.646-.061-1.27-.386-1.884-.577zm9.219-4.882a2.1 2.1 0 0 0-1.108-.151 2.13 2.13 0 0 0-1.353.696 1.9 1.9 0 0 0-.455.617c-.018.04-.029.079-.047.119-.314-.155-.729-.047-1.057.022h-.01a2.1 2.1 0 0 0-.318-.491c-.213-.242-.459-.465-.758-.595a2.2 2.2 0 0 0-1.7-.04c-.05.022-.097.051-.147.076.393-1.454 1.158-2.908 2.8-3.143 2.096-.501 3.976.469 5.282 2.096.4.531.639 1.155.78 1.797-.094.004-.203.026-.278.029-.094.025-.318.036-.502.076-.029-.058-.05-.115-.083-.173a2.35 2.35 0 0 0-1.04-.935zm.7 2.071q-.008.096-.026.192a3 3 0 0 1-.047.162c-.025.069-.054.13-.083.195a2 2 0 0 1-.144.245q-.065.093-.14.181-.065.069-.134.133-.08.066-.166.126a2 2 0 0 1-.173.101 2 2 0 0 1-.166.069q-.083.026-.166.047a2 2 0 0 1-.173.022h-.18c-.066-.008-.13-.015-.196-.029a3 3 0 0 1-.263-.076q-.124-.05-.249-.105l-.036-.018a3 3 0 0 1-.227-.137q-.084-.059-.156-.123a2 2 0 0 1-.148-.148c-.046-.054-.086-.108-.13-.165-.04-.058-.072-.12-.104-.181a3 3 0 0 1-.069-.162q-.028-.093-.05-.184a2 2 0 0 1-.029-.235v-.195q.01-.096.025-.187.024-.103.058-.206.045-.123.101-.242a3 3 0 0 1 .195-.314q.053-.055.112-.104.074-.061.155-.116c.058-.039.144-.086.23-.133.04-.018.109-.047.178-.072a1.5 1.5 0 0 1 .414-.083h.221c.05.003.122.014.19.028q.137.029.268.073a2 2 0 0 1 .415.209 1.54 1.54 0 0 1 .498.556c0 .007.007.014.01.021q.038.077.066.159.047.134.079.274.021.12.032.238v.195zm-7.852 1.003c-.047-.054-.086-.108-.13-.162-.04-.058-.072-.115-.108-.173a3 3 0 0 1-.08-.177 2 2 0 0 1-.05-.169 2 2 0 0 1-.032-.224q-.008-.127-.004-.253.006-.076.018-.148c.014-.072.036-.14.058-.213q.043-.12.097-.234c.044-.083.087-.17.137-.249.03-.043.235-.217.307-.256.069-.036.14-.062.213-.09.065-.022.162-.051.26-.076.061-.011.119-.022.18-.025a2 2 0 0 1 .495.032c.046.011.097.022.144.036q.093.034.18.072.146.076.282.163c.05.032.097.072.144.108q.055.048.105.101.059.07.111.144a1.6 1.6 0 0 1 .17.332q.028.09.05.181c.022.108.04.212.051.321q.005.092.004.18a1.4 1.4 0 0 1-.14.549c-.026.046-.052.097-.08.14a2 2 0 0 1-.12.159 3 3 0 0 1-.144.144 1.3 1.3 0 0 1-.285.199q-.069.033-.137.061-.099.033-.202.054-.096.018-.191.026a2 2 0 0 1-.199 0 2 2 0 0 1-.144-.019 3 3 0 0 1-.289-.075 4 4 0 0 1-.17-.069q-.07-.038-.14-.083a3 3 0 0 1-.206-.155 3 3 0 0 1-.166-.162zm1.873 5.099a5 5 0 0 1-.451-.448 4 4 0 0 1-.282-.371s-.01-.018-.014-.022c-.126-.195-.235-.408-.354-.617-.22-.382-.526-1.328-.544-1.414a6 6 0 0 1-.076-.625c0-.054-.007-.133-.011-.209v-.032a2.1 2.1 0 0 0 .8.155c.134 0 .272-.011.401-.033.318-.05.628-.173.899-.35.314-.205.584-.465.772-.797a2.5 2.5 0 0 0 .31-.913q.026-.211.015-.422a1.2 1.2 0 0 1 .317-.036c.127-.015.25.018.376.04 0 .148.003.295.028.443q.069.39.257.744c.137.252.328.472.548.649.202.163.437.282.686.35.187.051.375.072.566.072q.137.001.274-.014a2.47 2.47 0 0 0 1.43-.642c.172-.159.32-.35.428-.56.112-.216.18-.451.217-.692a3 3 0 0 0 .025-.43c.231-.072.466-.122.704-.177.173.96.862.574 1.328.04.187-.169.664-.4.757-.032.011.249.065.559.015.815-.152.729-.513 1.386-1.003 1.938-.253-.13-.459-.426-.762-.404-.335.036-.458.497-.187.696.057.043.119.083.177.126-.008.072-.015.155-.03.238q-.015.068-.032.134v.007l-.003.015v.018s-.004.007-.004.01c-.01.044-.018.094-.029.141q.001.013-.004.025c-.043.21-.108.43-.183.646a5 5 0 0 1-.231.531 4 4 0 0 1-.231.393l-.007.011a8 8 0 0 1-.488.62 4 4 0 0 1-.371.372 7 7 0 0 1-.596.447 4 4 0 0 1-.422.242 5 5 0 0 1-.537.224c-.206.068-.419.13-.632.177a3 3 0 0 1-.444.057 5.5 5.5 0 0 1-1.317-.09q-.272-.058-.534-.144a4.5 4.5 0 0 1-1.064-.531 5 5 0 0 1-.48-.371zm1.353 1.548c.462.151.945.252 1.432.267h.148c.375 0 .754-.044 1.126-.112a5 5 0 0 0 .704-.184 5.6 5.6 0 0 0 1.165-.574q.066-.045.126-.09v.17c.08.783.25 1.587.668 2.258-.253.155-.53.249-.808.361-.538.235-1.148-.04-1.685.231-.664.415-.823 1.274-.982 1.985a1 1 0 0 0-.018.101 8 8 0 0 1-.71-.091s-.015 0-.03-.003a9 9 0 0 1-.53-.116c0-.169-.162-.314-.22-.48-.13-.346-.036-.682-.025-1.046.047-1.025-.697-1.183-1.39-1.653-.093-.075-.09-.18-.079-.288 0-.004.007-.007.011-.011.23-.285.447-.599.534-.96.188.087.375.166.57.231zm-1.782.624c-.21.566.277 1.054.782 1.248.473.192.722.379.607.935v-.004c-.076.347-.076.758.043 1.108a10 10 0 0 1-.527-.22 6.3 6.3 0 0 1-1.324-.852 7 7 0 0 1-.588-.577 4 4 0 0 1-.264-.321 7 7 0 0 1-.277-.422c.057-.022 1.096-.639 1.547-.891zM61.48 165.275c-.484-.433-.693-1.097-.873-1.721-.578-2.389-.863-4.864-.506-7.318.448-3.359 2.13-6.534 4.374-9.045 1.064-1.115 2.536-1.682 4.04-1.873 1.343-.133 2.725-.151 4.02-.52q.001.023.007.04c.033.184.087.361.17.527.191.393.44.747.765 1.043.206.187.43.364.664.519q.379.244.79.433c.252.119.509.231.776.321q.427.146.866.253a10 10 0 0 0 1.663.256q.498.039.996.04.363.001.725-.025a8.7 8.7 0 0 0 1.588-.239q.4-.103.794-.245c.263-.097.526-.195.779-.321a6.7 6.7 0 0 0 1.169-.729c.238-.184.444-.4.646-.62.018-.019.029-.044.047-.065l.068.021c.783.177 1.422.671 2.057 1.137.718.386 1.331.916 1.995 1.382 1.74 1.263 1.97 2.93 2.212 4.914.44 2.952.945 5.946.404 8.927-.1 1.079-.26 2.168-.804 3.128a10.2 10.2 0 0 1-1.238 2.039.28.28 0 0 0-.13.169 15 15 0 0 1-2.057 2.1c-.624.523-1.23 1.162-2.013 1.462-1.663.635-3.453-.257-5.07-.686-1.057-.48-2.204-.866-3.178-1.515-1.324-.823-2.53-1.862-3.976-2.515-.166-.08-.7-.39-1.162-.552.588-.127 1.183-.271 1.656-.646.3-.3.454-.657.548-1.043.246-.043.487-.097.736-.134.866-.122 1.664-.606 2.54-.642.563-.018 1.069.278 1.628.314 1.31.177 2.569-.343 3.677-.996.494-.26 1.1-.325 1.544-.693.39-.324.826-.757.83-1.295a.2.2 0 0 0-.065-.112c.003-.021.01-.039.007-.065-.043-.364-.133-.721-.216-1.082.05-.17.06-.361.133-.52.707-2.237 2.4-4.164 2.53-6.567.05-.021.046-.086.014-.122-.058-.083-.148.007-.18.072-.488.761-.596 1.67-1.025 2.461-.34.664-.56 1.349-.938 2.006-.271.491-.542 1.01-.733 1.548-.162-1.09.087-2.219.134-3.32.007-.137.256-.866-.04-.743-.83.819-.877 1.999-.729 3.092.08.621.101 1.252.191 1.876.03.242.098.469.173.697-.371-.285-.772-.527-1.234-.643-1.067-.342-2.197-.263-3.305-.331-1.562-.159-3.193-.401-4.716.072a.46.46 0 0 0-.108-.256c-.39-.473-1.082-.473-1.642-.581-.512-.087-1.024-.159-1.544-.152-.988-.011-1.934-.386-2.933-.429-.18-.448-.888-1.382-1.39-1.996a.4.4 0 0 0 .084-.108c.357-.444.36-1.061.537-1.587.38-1 .459-2.118.173-3.15-.382-.322-.429.977-.487 1.194-.068.368-.144.772-.18 1.154.004.177-.116.617-.231 1.083-.108-.743-.39-1.447-.56-2.187a.08.08 0 0 0-.01-.101l-.025-.021c-.022-.076-.134-.08-.16-.004-.032.267.051.541.062.812.094.79.25 1.57.336 2.36l-.04-.036c-.512-.477-1.111-1.007-1.826-1.094-.216-.043-.505-.162-.67.054-.279.459.194.881.429 1.256.01.015.021.025.032.04a2 2 0 0 0-.3-.148c-.429-.184-.797-.498-1.266-.581-.501-.206-1.371-.213-1.064.563.032.054.075.101.112.151-.47.011-.899.484-.628.949.397.769 1.234 1.245 2.078 1.4.173.166.53.105.765.148.74.08 1.508.123 2.248.246 1 .212 2.013.245 3.027.324.466.087.927.195 1.404.213.765.033 1.476.058 2.244.184.35.083.83.047 1.072.354-.011.04-.863 2.313-1.029 3.355-.177.852.174 2.223-.974 2.458-1.461.335-2.944.624-4.366 1.115-1.086.274-2.2.66-3.337.772-.668-.058-1.386-.249-2.025-.48-.631-.249-1.09-.704-1.551-1.191zm13.657-5.521q.016-.076.04-.151c.201-.029.41-.04.613-.04.786.007 1.616-.137 2.41-.119.74.04 1.523.159 2.273.141 1.826-.015 2.948.108 4.326 1.411h.011c-.029.115-.094.22-.151.321-.332.57-.975.819-1.584 1.003-.765.252-1.418.804-2.234.887-1.068.239-2.01-.249-3.041-.328-1.216-.076-2.404.263-3.428.902.083-.786.018-1.634.303-2.356.159-.552.332-1.115.462-1.674zm-10.803-2.547s-.011-.007-.018-.007c-.671-.184-1.508-.448-1.83-1.126.127-.213.484-.022.758.072.516.412 1.122.74 1.674 1.115a2.6 2.6 0 0 0-.588-.054zm1.37.144c-.598-.415-1.186-.855-1.803-1.248-.404-.285-.95-.559-1.104-1.057.52.011 1.017.213 1.49.436.49.188.967.441 1.422.708.44.465.916.891 1.392 1.32a11 11 0 0 0-1.396-.162zm1.816.235c-.123-.231-.4-.545-.567-.715-.692-.783-1.44-1.54-2.006-2.428 1.09.152 1.855 1.079 2.53 1.876.425.448.8.928 1.165 1.426a14 14 0 0 1-1.122-.156zm16.056 70.644c.289 3.107-1.57 5.474-3.886 1.924-.058-.166-.054-.275-.058-.314 1.509.231 2.966-.484 3.944-1.61m-5.643-2.522s0 .008.004.015c.32.978.988 1.836 1.064 2.886 0 .296-.076.588-.112.884q-.001.061-.007.116c-.56.025-1.082-.112-1.627-.267-.527-.101-.967-.412-1.472-.574.007-1.072.075-2.143-.058-3.211-.015-.509-.137-.992-.25-1.483.56.729 1.141 1.533 2.058 1.624.137.014.266.014.396.007zm-2.692 4.547c.044-.213.108-.426.141-.643.126.058.26.109.372.156.707.451 1.551.577 2.367.7.213 0 .501.025.746-.022.011.418.037.837.055 1.259a9 9 0 0 0-.747.527c-.217.184-.44.4-.747.397-.79-.141-1.368-.772-1.992-1.227a2 2 0 0 0-.473-.234c.156-.314.246-.711.278-.913m-.22 1.789c.35.235.646.574.996.809.48.263 1.021.501 1.577.516-.52.808-.985 1.688-1.747 2.287-1.057.13-.934-1.555-.981-2.259-.022-.454.097-.909.155-1.353m-2.01 1.032c.383-.476.74-1.187 1.393-1.291l.105.025c-.083.115-.145.285-.228.375-.562.74-1.14 1.519-1.926 2.039-.083.036-.18.097-.274.144.317-.422.63-.87.934-1.292zm.823 5.564c-.599.195-1.234-.072-1.85-.094-.86-.029-1.96-.263-2.483-.996.332-.479 2.298-2.731 2.334-2.836q.032.007.058.015c.703.036 1.241-.541 1.66-1.036.104-.148.526-.581.866-1.006-.296 1.104-.368 2.662.462 3.348.277.271.678.245 1.035.198.458-.108.714-.577 1.028-.891.462-.638.957-1.302 1.267-2.035.13-.029.599-.375.65-.404-.033.224-.062.448-.12.664-.155.743-1.154 3.861-4.914 5.077zM88.2 225.138c-.003.596-.047.747-.173 1.014-.206.531-.49 1.032-.732 1.544-.231.044-.47-.01-.69.083a.97.97 0 0 0-.465.477c-.599 1.093-.722 2.374-1.284 3.485-.758 1.783-1.898 3.54-3.79 4.247-.396.087-.764.274-1.175.256-.267 0-.581.062-.812-.108-.141-.17-.022-.433.007-.631.014-.065.018-.13.022-.195q.036-.099.068-.17c.264-.574.372-1.299.394-1.941.032-.256-.051-.48-.116-.729-.007-.029-.01-.072-.018-.112.018-.021.35-.685.332-.887.144.303.321.591.552.822.278.235.642.354.992.426 1.718.354 2.85-1.14 2.98-2.71.033-.75-.237-1.457-.35-2.186v-.065a5 5 0 0 0 .553-1.057c.49-1.148.285-2.421-.073-3.58a.4.4 0 0 0 .03-.137c.977-.447 3.788.563 3.748 2.147zm-4.647-1.724c.177 1.594.321 3.81-1.104 4.867-.754.657-1.786 1.043-2.793.848.033-.17-.14-2.223-1.104-3.525.025.021 2.44-1.801 2.803-2.259a3.7 3.7 0 0 0 .683-1.046c.288.591.815.999 1.486 1.118h.029zm4.701-32.019c-.573 1.392-1.129 2.814-1.728 4.199-.97 2.523-2.356 4.897-2.955 7.549-.588 2.76-.538 5.596-.47 8.403.023 2.761-.028 5.539-.32 8.285-.065.71-.285 1.407-.376 2.11-.01-.014-.025-.021-.036-.036a.8.8 0 0 0-.14-.126 5 5 0 0 0 .115-.494c.065-.336.177-.693.101-1.032a.27.27 0 0 0-.23-.17c-.08-.397-.697-.949-.867-1.194-.815-.942-1.58-1.934-2.36-2.908-1.349-1.476-2.384-3.222-3.618-4.796.17-.129.173-.411.144-.62-.04-.426-.065-.798-.083-1.256-.116-1.587-.05-3.182-.083-4.773.007-2.075.191-4.135.317-6.225-.014-1.205.065-2.403.044-3.608a31 31 0 0 1-.065-1.84c.068-.231.061-.527.086-.732.062-.625.015-1.26-.205-1.848-.04-.101-.094-.278-.231-.256-.069.018-.112.083-.148.141-.282.534-.245 1.147-.285 1.735.022.199-.043.473-.054.726-.314 1.299-.664 2.587-.985 3.882-.289 1.616-.841 3.15-1.115 4.774-.192.84-.293 1.75-.52 2.612-.31.952-.512 1.93-.62 2.926-.26-.206-.675-.166-.693.224-.008.213.18.317.346.4.296.239.56.52.765.841.678.971 1.483 1.84 2.201 2.782.458.469.989 1.032 1.404 1.573 1.006 1.342 1.966 2.724 3.139 3.929.956 1.296 1.992 2.541 3.056 3.757a.23.23 0 0 0 .1.075c-.11.466-.194.946-.291 1.418-.549 1.288-2.728 2.757-3.1 2.966-.386.199-.862.289-1.27.119-.245-.209-.426-.469-.656-.714-.83-1.086-1.776-2.129-2.649-3.19a28 28 0 0 0-1.656-2.089c-1.653-1.97-3.312-3.936-5.04-5.841-1.21-1.487-2.66-2.8-3.497-4.558-1.285-2.41-.639-5.271-.797-7.891.09-2.818.324-5.647.649-8.454q.186-1.153.36-2.305c.062-.52.2-1.065.196-1.595.133.018.267.014.4.007.148-.007.296-.014.44.015 1.126.198 2.284.176 3.425.292 1.234.126 2.478.148 3.712.296.95.047 1.84.472 2.8.425 2.403.047 4.828.094 7.21.462 1.306-.014 2.608-.043 3.914-.021.592.028 1.187-.004 1.776-.036a1.7 1.7 0 0 0 .912-.242c.228-.152.44-.321.65-.498-.451.768-.84 1.573-1.111 2.425zm-13.281 3.395c.029-.09.094-.357.173-.715-.098 2.097-.184 4.193-.354 6.286-.083 2.334-.075 4.669-.14 7.003-.055.765.079 1.519.09 2.284.025.257.014.516.014.776-.772-.996-1.465-2.06-2.36-2.955.148-1.963.704-3.879.993-5.831.23-1.129.487-2.298.811-3.41.282-1.14.415-2.312.773-3.435zm15.515-7.913a41 41 0 0 0-1.797 1.743c-.34.415-.834.411-1.317.408h-.17a108 108 0 0 0-5.087.036c-2.158-.26-4.326-.368-6.495-.419-.49-.032-.985.011-1.472-.068-.447-.091-.88-.253-1.335-.3-1.212-.191-2.443-.252-3.662-.361-1.786-.22-3.612-.22-5.351-.674-.347-.112-.516-.376-.639-.7-.444-.729-.78-1.556-.765-2.418.217-1.241.603-2.464 1.01-3.659q.083.034.16.051c.447.097.908.105 1.363.112.747.054 1.494.05 2.24.029.618.075 1.246.111 1.863.137a48 48 0 0 0 3.038-.134c1.811-.047 3.622-.039 5.416-.278.212-.007.425-.018.642-.018 1.92-.097 3.835-.007 5.748-.144l.718-.011c1.887.076 3.788.098 5.672-.072q.027.105.068.188-.001.048.004.101a.35.35 0 0 0 .14.202c.098.422.253.833.48 1.201.264.592.477 1.267.755 1.862.692 1.335-.26 2.342-1.224 3.193z"/><path fill="#000" d="M76.607 140.093c.501.123 1.053.155 1.53-.086.39-.213 1.06-.632.616-1.115-.18-.181-.508-.195-.685 0-.08.093-.166.176-.267.245-.368.234-.78.274-1.209.289-.245.021-.49-.055-.714-.152-.062-.032-.137-.068-.213-.011-.116.098-.011.224.047.318.22.278.537.476.894.516zm.235-1.808c.321.069.715-.162.614-.526-.058-.228-.293-.321-.51-.3-.277.011-.577-.097-.84.007-.126.073-.126.242-.058.354.137.303.487.411.794.465"/><path fill="#fff" d="M245.768 67.11v.004s.003.007.007.01l-.004-.007zm-.005-.014s.004.007.004.01c0 0 0-.007-.004-.01m-2.998 1.667s.003.007.007.01l-.004-.003zm3.019-1.631.003.006zm-.498-4.409q.075.061.155.115a.2.2 0 0 0-.083.018c-.025-.043-.047-.09-.072-.133m23.596 16.627c-.173-.026-.325-.199-.289-.38.105-.537.253-1.064.39-1.59-.011-.376.076-.747.09-1.123.007-.112.069-.213.123-.303.007-.133.155-.256.234-.094.397.004.408.545.437.841.043.029.097.022.141.015.054-.004.065.075.01.079-.05.007-.108.022-.158 0-.051.426-.181.833-.296 1.248-.098.358-.199.715-.314 1.065a.34.34 0 0 1-.372.245zm3.392-54.257c2.97 2.158-2.24 2.234-3.63 3.255-2.955 2.288-6.05-7.422-9.251-9.843-.844.776-2.536 4.344-4.792 4.611-.061 3.911-5.019 2.714-6.072-1.017.92-3.064.794-4.12 0-4.554-.989.267-3.821 1.13-6.65 1.894-.245-2.064-.505-5.69-.696-7.573 2.15-.25 4.059.162 6.17-.39 1.472-1.035 6.621-6.34 7.689-3.337-4.345 2.724-2.826 7.364 2.388 5.426.08.044.098.27.17.318 2.367.873.498 2.374 3.244 2.374 1.995 0 2.655.949 4.885-.015 1.497 1.53 3.247 6.008 6.545 8.855z"/><path fill="#fff" d="M274.604 83.3c-1.753-1.352-5.838-.31-5.286-3.874.242-1.563.318-2.84 1.815-2.869 1.119-.022 1.209 1.894 1.068 2.602 1.231.544 5.124 2.529 2.403 4.138zm-30.489-13.501c-2.717-.375-2.046-9.663 1.248-7.552 1.44.566.188 2.97.307 3.86.754 1.668 1.093 4.035-1.555 3.692"/><path fill="#000" d="M279.887 54.543c-4.449-9.706-22.114-2.53-29.706-2.526 4.904-14.93-1.068-27.104-13.029-8.775-.852 1.119-5.531 5.25-3.006 5.647 3.237.783 5.037 2.187 6.062 3.821.79 4.463.733 8.288 2.432 9.905 2.356-1.249 2.587.866 3.424.17 3.276-3.901 1.729-4.828 3.323-7.993 8.682 4.82 13.098 5.788 19.311 9.89.946 2.364-.122 7.548 1.162 11.842 2.382-.75 1.876 1.068 2.825.7 7.614-5.697 9.223-20.047 7.206-22.688z"/><path fill="#646370" d="M255.463 13.648c-3.919-2.042.202-5.318.202-5.318s-.393-.238-.613-.191c-3.536 2.626-3.244 4.964-1.996 5.92 1.187.91 3.273.527 2.407-.41m5.948-.152c1.516-3.32 1.407-2.396-1.576-2.83-.527-1.396-.524 2.425-2.4 3.22 1.768.115 1.018 2.51 2.89 2.233 4.164 1.295.094-.693 1.086-2.624"/><path fill="#A5A4B3" d="M276.558 33.92c.307 7.508-11.567 6.682-16.669 9.33-.578 9.894-1.422 7.162-9.349 8.429 0 0 5.242-28.317-9.558-12.921-4.157 3.388-10.659 17.755-8.541 3.052.596-4.138 3.868-9.601.765-13.22-1.746-3.594-5.243-10.565-3.738-13.53 2.522-1.329 4.622-2.137 6.184-2.949 3.522-3.092 6.365-2.746 5.972 7.343 0 0 3.02.53 6.123 2.569 1.223-.877.628 3.9 6.314 3.056.852.217-.119.985 1.086 1.685 4.41 2.573 5.835 5.557 9.457 4.774 2.414-.614.61-1.393 1.433-2.006 6.332-4.301 10.691-4.76 10.525 4.387z"/><path fill="#FED980" d="M255.792 13.738c-3.158-.855-2.093-5.712 1.237-4.943 3.287.927 2.079 5.61-1.237 4.943m7.817 2.826c-3.728-.347-2.465-6.33 1.14-5.16 3.446 1.118 2.114 5.463-1.14 5.16M251.353 37.4c-1.165-3.218-2.591-4.437-5.232-3.286 3.042-4.485 1.537-5.146 1.638-7.235 1.328-1.169 2.674-1.912 3.522-1.62.592.202 1.551 4.012.288 4.983-.66.927 1.375 6.397-.216 7.155z"/><path fill="#000" d="M262.459 8.575c1.711 3.36-1.053 3.258-3.33 2.01-.689-1.461-2.735-2.27-2.663-2.94-4.954-.232-5.82 1.77-8.255 4.048-.285.137-.729-.022-1.018 0-2.421-1.202-1.566-5.193 2.36-5.326 2.688-1.83 5.225-2.901 7.393-1.67 2.627-.141 4.489 1.223 5.513 3.878"/><path fill="#000" d="M255.978 8.135c-.614-.116-1.094-.585-1.718-.664-.119.116-.303.08-.455.08-.234.003-.472 0-.707 0-.187.05-.516.097-.537-.174-.17-.08-.224-.332-.08-.462.199-.162.476-.122.715-.133.433.01.873-.01 1.302.072a.51.51 0 0 1 .35-.44c.141-.108.325-.12.498-.126.108.021.209.06.314.097a.3.3 0 0 1 .119-.029c.047 0 .09.015.13.036.224.188.621.329.678.639.354.281.238.92-.238.978a.43.43 0 0 1-.371.13zm-10.125 55.248c-.534-.483-1.198-1.082-1.97-.775-.299.1-.573.267-.873.35-.289.047-.278-.224-.148-.404.43-.708 1.407-.913 2.169-.708.465.188.884.516 1.241.866.404.332.058.982-.415.668z"/><path fill="#000" d="M244.113 70.13c-1.576-.115-2.442-1.977-2.107-3.47.177-.79.477-1.462.495-2.256.086-.548-.073-1.125.075-1.66.675-.811.607.906.585 1.332-.069 1.238-.61 2.367-.581 3.576.058 2.323 3.641 2.547 3.323.278-.068-.48-.458-.848-.631-1.296-.206-.36.754-4.965 1.425-3.911-.144 1.075-.848 2.233-.92 3.33a.6.6 0 0 0 .122.502c1.263 1.57.387 3.882-1.786 3.575m25.521 6.853c-.206-.224-.235-.549-.311-.83-.133-.596-.27-1.191-.346-1.8-.426-2.422-.426-4.829-.379-7.268.007-2.035.079-4.026.3-6.043.046-1.05.129-2.108.422-3.118.054-.13.198-.325.346-.206.144.217.094.516.119.765-.014 1.072.072 1.978.04 2.948-.105 2.37-.13 4.745-.119 7.116-.054 2.143.148 4.279.509 6.383.068.598.274 1.205.249 1.804-.08.36-.567.52-.83.249"/><path fill="#000" d="M268.957 60.821c.187-1.068 1.829-2.742 2.763-3.283.347-.224.834.08.783.487-.047.422-.544.534-.83.769a11 11 0 0 0-1.533 1.382c-.213.202-1.007 1.277-1.183.649zm3.189 18.226c-.206-.99.115-1.483-.354-2.017-.234-.239-.635-.16-.916-.145-.325.018-.632.17-.91.318-.061.04-.09.115-.104.184.007.054 0 .148-.087.119-.054-.025-.047-.083-.043-.134-.018-.346.18-.624.422-.855.451-.476 1.288-.664 1.869-.332.433.227.617.7.675 1.162.022.134.047.263.061.4.022.253-.4 1.422-.613 1.296z"/><path fill="#000" d="M274.563 83.661c-1.13-.202-2.32-.761-3.428-1.046-1.01-.238-2.464-.69-2.158-2.111.209-.97.253-2.62.44-3.601.116-.617.058-.09.376-.087.09.008.162.076.176.163-.072 1.118-.299 2.457-.443 3.597l.01.033c.607-.008 1.198.094 1.805.137 1.58.112 2.514.224 3.72.566.573.264.916 1.032.689 1.631a1.085 1.085 0 0 1-1.187.722zm.44-.765c.213-.227.133-.78-.126-.956-.26-.177-.531-.177-.845-.249-1.039-.245-2.042-.343-3.096-.476-.422-.054-.894-.069-1.324-.09q-.012 0-.014.01c-.094.711 4.232 1.664 5.109 1.844.108.022.224 0 .296-.083"/><path fill="#000" d="M275.019 83.466a.354.354 0 0 1-.141-.476c.361.065.335-.49.364-.783-.05-.4-.375-1.201-.729-1.403-.512-.29-1.125-.332-1.631-.65-.815-.386-.999-1.912-.617-2.804.055-.083.942-.288 1.068-.17.015.358-.292.553-.537 1.404a.87.87 0 0 0 .512 1.043c.697.285 1.534.321 2.053.928.661.83.827 1.995.105 2.81a.355.355 0 0 1-.451.101zm-.787-56.23.003.003zm.022.021-.006-.006zm-.004.003-.002-.002zm-.015-.017-.003-.003zm0 .005h-.003l.003.002zm.008-.002-.007-.006-.004-.004.007.007zm-.032-.024s.007.003.007.007h.004-.004l.011.01.004.004zm-33.667-2.338.012.03c0-.012-.008-.023-.012-.03M256.206 8.03a.3.3 0 0 1 .008-.195.3.3 0 0 1 .093-.126c-.155-.245-.512-.325-.779-.415a2.46 2.46 0 0 0-1.616-.061c-.607.18-.989.703-1.577.902.007.025-.007.057-.044.054-.119-.05.008-.17.069-.21.155-.122.307-.256.447-.39.978-1.05 2.432-.98 3.641-.4.202.083.314.267.408.455a.35.35 0 0 1 .072.35c-.108.278-.621.375-.722.04zm-.814 19.282a.55.55 0 0 0-.083-.281c-.036-.047-.068-.094-.115-.13a.36.36 0 0 1 .141.098.31.31 0 0 1 .061.335v-.022z"/><path fill="#000" d="M256.179 7.781a.76.76 0 0 1-.43.043c-.097-.014-.206-.01-.314-.01a.3.3 0 0 0-.148-.192c-.101-.054-.223-.06-.335-.086-.332-.083-.661-.235-1.014-.188a8.7 8.7 0 0 0-4.601 2.71c-.245.274-.494.545-.696.855-.166.231-.267.509-.48.704-.011.01-.036.036-.058.036-.274.007-.548-.044-.819.036-.025-.022-.068 0-.068.032.014.134.22.098.317.116.174.01.343.058.516.065.412 0 .581-.473.823-.733.419-.469.855-.92 1.295-1.37 1.036-.932 2.273-1.733 3.67-1.953.451-.08.841.282 1.266.368h.026c.234.144.523.166.793.188.202.014.437-.007.578-.17.205-.213-.065-.574-.325-.436zM242.591 61.23c-.524-1.025-.816-2.144-1.105-3.252-.267-1.05-.465-2.114-.681-3.175-.21-1.378-.329-2.775-.466-4.16-.011-1.086-.018-2.176-.058-3.262 0-1.014.065-2.031-.047-3.042-.025-.209-.032-.433-.126-.624-.083-.13-.267-.155-.368-.029-.094.134-.032.314-.061.466-.119.895-.271 1.793-.357 2.691-.083 1.184-.069 2.375-.08 3.558.065 1.205.325 2.389.451 3.587.087.797.311 1.57.466 2.356.404 1.843.804 3.73 1.663 5.423.166.306.332.606.523.895.112.166.256.314.466.353.371.05.591-.393.364-.689-.209-.35-.397-.736-.584-1.1z"/><path fill="#000" d="M281.07 57.217c-.184-.967-.27-1.952-.71-2.847-.332-.93-.935-1.714-1.639-2.396-.454-.469-.934-.916-1.504-1.24-.585-.319-1.241-.452-1.858-.69a5.4 5.4 0 0 0-1.151-.357c-.953-.152-1.913-.296-2.876-.343-1.324 0-2.649.054-3.969.14-2.721.134-5.441.29-8.151.581.029-.19.051-.367.087-.476.108-.78.263-1.57.332-2.36.166-1.226.274-2.46.443-3.687 0-.022.008-.043.011-.069.145 0 .296-.043.43-.072a27 27 0 0 0 2.027-.462c1.307-.379 2.627-.7 3.941-1.053 2.258-.596 4.546-1.187 6.649-2.212 2.144-.93 4.287-2.645 4.078-5.218a10.6 10.6 0 0 0-.74-2.612q.207-.215.285-.436c.285-.874-.447-2.966-.823-3.518-.386-.69-.79-1.45-1.544-1.794a1.6 1.6 0 0 0-.833-.079 5 5 0 0 0-.203.069l-.043-.047c-.13-.141-.22-.242-.357-.397-.577-.632-1.151-1.325-1.725-1.97a30 30 0 0 1-2.504-3.27c-.841-1.27-2.688-4.098-2.8-4.214.282-.234.462-.461.639-.783.191-.346.317-.721.357-1.115v-.028a3 3 0 0 0-.05-.892 3.1 3.1 0 0 0-.459-1.06 3.1 3.1 0 0 0-.815-.841c-.015-.007-.025-.018-.04-.025a2.8 2.8 0 0 0-.628-.318 3 3 0 0 0-.559-.148q-.075-.01-.151-.014c-.127-.137-.426-.166-.603-.163-.097 0-.188.008-.274.011.108-.36.072-.768.061-1.144-.097-.591-.574-1.006-.967-1.421-.198-.26-.256-.592-.4-.88-.524-1.235-1.696-2.148-2.919-2.638-.646-.235-1.335-.09-1.999-.17-.509-.126-.91-.512-1.429-.613a4.5 4.5 0 0 0-2.439.097c-.79.227-1.534.725-2.154 1.267-.466.425-1.05.786-1.66.974-.682.202-1.429.018-2.1.303-1.097.408-1.916 1.526-1.786 2.717a4.7 4.7 0 0 0 .685 2.118q.016.043.036.09c-1.764-.08-3.539-.198-5.3.004a2 2 0 0 0-.105-.253c-.436-.92-.728-.797-1.634-.88-.801-.242-1.645-.094-2.381.274-.156.076-.332.159-.48.267q-.14.072-.285.144c-.174.123-.318.3-.39.502-.09.123-.141.314-.177.52-1.67.274-3.287.74-4.73 1.684-.567.376-1.238.636-1.718 1.13-.288.382-.566.83-.588 1.32-.076.827.408 1.541.556 2.331.44 2.62 1.169 5.261 2.323 7.66.441 1.032 1.018 1.996 1.584 2.963.307.462.603.93.801 1.45.387 1.422.008 2.898-.212 4.33a54 54 0 0 0-.372 2.782c-.321 1.414-.664 2.829-.971 4.236-.296 1.559-1.154 5.61-.306 6.888.083.09 1.14.26 1.165.23.823-.76 1.277-1.843 1.952-2.727 1.324-1.847 2.659-3.71 4.099-5.466 1.061-1.1 2.086-2.237 3.215-3.266 1.093-.945 2.096-1.991 3.388-2.688.902-.379 1.959-.71 2.912-.292.739.198 1.194.837 1.58 1.458.393.732.57 1.584.772 2.41.116.729.119 1.472.217 2.205.242 1.944-.087 3.9-.318 5.834-.205 2.039-.516 4.063-1.097 6.03-.436 1.464-.761 2.965-1.32 4.39-.426 1.23-1.021 2.436-1.588 3.623-.353.603-.57 1.285-.877 1.909-.194.274-.285.667.116.812q.054.016.108.018c.188 0 .35-.156.415-.336.105-.191.184-.364.303-.592 1.173-2.078 2.194-4.214 2.883-6.509a60 60 0 0 0 1.129-3.882c.444.047 1.108-.054 1.372-.058.876-.105 1.757-.213 2.637-.289 1.025-.064 2.021-.263 3.049-.35 1.299-.13 2.602-.277 3.886-.508 2.356-.3 4.723-.448 7.094-.545 1.782-.087 3.575-.116 5.325.296.65.195 1.271.48 1.916.693.758.252 1.353.826 1.866 1.421.317.35.628.71.869 1.119.56 1.01.877 2.11 1.018 3.254.119.53.173 1.068.177 1.61.05 1.418-.188 2.832-.459 4.221-.144.916-.378 1.811-.617 2.706-.252 1.01-.371 2.057-.761 3.027-.635 1.552-1.707 2.876-2.692 4.218-.808 1.072-1.659 2.1-2.457 3.183-.332.426-.653.859-.913 1.335 0 0-.411.79.098 1.01.249.083.512-.068.613-.307.184-.335.383-.664.606-.977.311-.419.581-.809.902-1.234 1.014-1.368 2.144-2.649 3.089-4.063.642-.891 1.263-1.826 1.606-2.876.324-.902.487-1.85.71-2.782.267-1.035.542-1.984.729-3.056.397-1.927.747-3.879.455-5.852zm-7.36-30.435a.51.51 0 0 1 .62.235c.404.725 1.877 2.998 1.797 3.622-.076.628-.256.668-.57.82-1.144.54-3.442 1.648-4.795 2.038a2.38 2.38 0 0 1-2.382-.65c-.718-.761-1.75-1.999-2.204-2.666a.39.39 0 0 1 .162-.574c1.512-.682 6.011-2.352 7.368-2.829zm-8.216 3.521c.068.134.148.257.231.38-.588.176-1.53.505-2.414.818-.263-.04-4.893-2.81-7.429-4.625-.231-.166-.502-.282-.758-.419l-.014-.029c-.242-.566-.581-1.176-.628-1.331-.008-.025-.018-.058-.036-.09q.043-.142.072-.289c.122-.419.223-.84.288-1.27.769-.216 1.491-.653 2.093-1.151.715-.592 1.202-1.371 1.714-2.136.097-.184.581-.978.779-1.566q.233.26.477.516c.227.289.415.602.656.88.91 1.018 1.462 2.274 2.191 3.417 1.107 1.887 2.276 3.753 3.781 5.355-.325.173-.642.36-.945.573-.354.246-.271.66-.055.971zm-18.618-11.86a15 15 0 0 0 1.667-.696q.001.06-.004.123c.04.692.224 1.374.505 2.013q-.032.075-.054.152c-.148.4-.314.786-.469 1.18a3.4 3.4 0 0 1-.408.227c-.115.076-.389.166-.635.281-.848-.67-1.768-1.252-2.688-1.825a5.2 5.2 0 0 0-1.248-.484c1.133-.242 2.251-.538 3.33-.967h.007zm10.106-3.871c-.021-.126-.068-.27-.198-.321-.242-.069-.498-.076-.747-.127a.2.2 0 0 1-.047-.007.1.1 0 0 0-.007-.029c.086.015.635.145 1.241-.025q.13-.036.252-.08c.102 0 .199.008.3.033.285.05.487.278.682.48.263.292.357.65.447 1.014-.151-.05-1.295-.466-1.663.137-.523.862.909 1.779 1.533 2.302l.228.231c-.026.083-.044.17-.072.242-.888 2.204-2.205 4.08-4.666 4.586a4.7 4.7 0 0 1-1.66-.134c-.53-.22-.956-.664-1.349-1.075-.444-.462-.812-.953-1.209-1.468-.516-.863-.844-1.808-1.079-2.786.415-.206.83-.415 1.249-.61.451-.155.924-.306 1.403-.292.545.007 1.061.216 1.602.23.776.051 1.581-.115 2.227-.562.27-.195.498-.444.732-.678.17-.166.397-.26.57-.422a.63.63 0 0 0 .231-.636zm-3.446-3.204q.027.275.098.545.071.266.191.516l.04.079c.173.343.415.657.707.906.245.209.527.371.823.494-1.404.693-3.338-.498-2.779-2.259.267-.523.487-1.075.841-1.551.224-.3.465-.585.714-.866a3.2 3.2 0 0 0-.534 1.05 2.8 2.8 0 0 0-.104 1.09zm1.75 2.082a2.4 2.4 0 0 1-.534-.376 3 3 0 0 1-.234-.241 3 3 0 0 1-.209-.282 4 4 0 0 1-.138-.249 2.6 2.6 0 0 1-.202-.653 2 2 0 0 1-.025-.267 2.7 2.7 0 0 1 .155-.963q.045-.12.101-.235.077-.147.17-.288.081-.116.173-.22.125-.136.267-.257.126-.102.263-.194a2.7 2.7 0 0 1 .65-.303q.01-.001.022-.008a3 3 0 0 1 .332-.08 3 3 0 0 1 .321-.035q.156-.002.314.007.165.017.332.05.15.039.295.087.159.061.311.137c.097.054.191.108.285.173q.12.088.231.184.099.093.191.195a2.2 2.2 0 0 1 .44.801q.048.162.079.329.03.171.037.342c0 .109 0 .213-.008.318q-.017.167-.054.328a5 5 0 0 1-.086.303c0 .011-.008.018-.011.03-.04.107-.087.208-.137.313a3 3 0 0 1-.137.231 4 4 0 0 1-.195.249h-.004s-.018.025-.029.036a2.3 2.3 0 0 1-.429.364c-.087.058-.181.105-.271.152a4 4 0 0 1-.371.144 5 5 0 0 1-.379.094q-.158.027-.314.036a2 2 0 0 1-.238.004 2.4 2.4 0 0 1-.368-.058 3 3 0 0 1-.336-.097 5 5 0 0 1-.245-.108zm4.128-2.739c.466.595.985.75 1.75.87.386.083.751-.087 1.126-.145a2.8 2.8 0 0 0-.635.588 3.2 3.2 0 0 0-.534 1.05 2.8 2.8 0 0 0-.105 1.09q.027.275.098.545.07.266.191.516c.003.01.021.043.039.08.174.342.415.656.708.905q.071.058.148.115a18 18 0 0 1-.635-.05s0-.004-.008-.007c-.093-.08-.198-.137-.296-.206-.487-.354-.754-.873-.934-1.44-.238-.725-.238-1.382-.087-2.118-.043-.068-.115-.01-.14.044-.091.19-.224.357-.282.566l-.021.112c-.285-.148-.599-.267-.924-.238q-.022.001-.054.007a3 3 0 0 0 .263-.382c.191-.347.318-.722.357-1.115v-.029a3 3 0 0 0-.029-.761zm-.177 4.54a1.86 1.86 0 0 0-1.046-1.354 1.2 1.2 0 0 0-.422-.043q.276-.137.519-.328.118-.094.224-.192c.018 0 .036.008.054.011.303.05.574.177.844.314.109.054.21.126.332.159q.012.369.141.729c.188.61.498 1.194.96 1.627-.238-.029-.74-.184-1.064-.162a4 4 0 0 0-.513-.34q.012-.015.018-.032c.047-.13-.047-.256-.058-.386zm-4.795 8.28c-.065.17-.115.354-.152.422-.14.314-.23.671-.313 1.018-.56.043-1.123.021-1.682.061-.411.014-.815-.058-1.209-.159-.371-.27-.761-.516-1.107-.815-.433-.3-.74-.711-1.043-1.133a4 4 0 0 1-.199-.448c0-.01.004-.025.008-.036.296-.656.458-1.353.537-2.064.044.08.083.156.13.231.264.415.668.758.992 1.144.859.82 1.75 1.804 3.028 1.819.339.04.678.025 1.014-.036zm-7.151-.978c.259-.242.602-.39.905-.592v.015c.127 1.194 1.043 2.46 2.071 3.179-.09.043-2.186 1.122-2.76 1.342a.116.116 0 0 1-.155-.09c-.123-.888-.271-3.417-.061-3.854m.786 4.391c.953-.328 2.703-1.486 2.71-1.515.032.01.444.159.519.173-.025.238.267 1.93.816 3.024-.007.043-.09 1.14-1.274 1.638-.75.314-2.049 0-2.428-.7-.487-.895-.484-1.591-.343-2.62m3.717-1.263.043.011c.292.033 2.172.101 2.435-.151.166.53.314 1.06.635 1.526-.097.08-2.017 1.371-2.172 1.443-.548-.595-.916-2.756-.941-2.825zm14.281-8.28c.476.89 1.064 1.717 1.609 2.569a33 33 0 0 0 3.006 4.008c.664.783 1.306 1.588 2.038 2.31-.025.003-.05.014-.075.018-.874.26-1.74.537-2.566.909-.989.45-2.039.8-3.027 1.26-.058-.091-.13-.174-.195-.257-.39-.48-.776-.963-1.14-1.465-.686-.924-1.285-1.901-1.913-2.861-.443-.769-.884-1.537-1.356-2.284-.368-.744-.873-1.393-1.407-2.02a16 16 0 0 0-1.433-1.502c-.339-.357-.653-.736-1.046-1.042-.238-.246-1.223-.82-.881-1.191.368-.538 1.602.523 1.978.833.674.603 1.504 1.09 2.432 1.104h-.029.061c.527.062 1.064-.072 1.523-.328.151-.072.397-.202.259-.397-.057-.076-.162-.09-.245-.047-.332.191-.682.343-1.068.38-.426-.023-.859-.08-1.241-.279-.336-.144-.635-.368-.927-.606.093.01.191.025.288.032.845.08 1.66.358 2.508.423.173.021.386 0 .559-.04.029.01.473.054.928-.08.31-.09.606-.223.876-.4.015-.01.062.065.076.108.108.296.282.56.422.841zm-2.869-5.676.022-.007a3 3 0 0 1 .332-.08q.16-.026.321-.036.157-.002.314.008c.112.01.22.028.332.05q.15.038.296.087.157.06.31.137c.097.054.191.108.285.173.079.058.159.119.231.184q.099.091.191.195a2.2 2.2 0 0 1 .44.8c.033.11.058.217.08.33.018.115.032.226.036.342q.002.161-.007.318-.017.166-.054.328a6 6 0 0 1-.087.303c0 .01-.007.018-.011.029a4 4 0 0 1-.137.314 3 3 0 0 1-.137.23q-.091.13-.195.25h-.004s-.018.025-.028.036c-.044.05-.116.119-.192.184a2 2 0 0 1-.238.18c-.086.058-.18.105-.27.152a4 4 0 0 1-.372.144 5 5 0 0 1-.379.094 3 3 0 0 1-.314.04c-.065 0-.094.003-.205.003h-.033q-.056-.005-.112-.014a13 13 0 0 1-.357-.069c-.076-.014-.155-.043-.235-.072a5 5 0 0 1-.245-.108 2.5 2.5 0 0 1-.534-.376 3 3 0 0 1-.234-.241 3 3 0 0 1-.21-.282c-.039-.068-.09-.155-.137-.249a2.6 2.6 0 0 1-.202-.653 2 2 0 0 1-.025-.267 3 3 0 0 1 .065-.65q.037-.156.09-.313a3 3 0 0 1 .101-.235 3 3 0 0 1 .17-.288 2.4 2.4 0 0 1 .703-.671 2.7 2.7 0 0 1 .65-.303zm-19.524.58a56 56 0 0 0 2.429-.259c.122-.021.35-.043.595-.076.014 0 .033.008.047.008a.25.25 0 0 0 .13-.033c.411-.065.819-.173.859-.4-.004-.04-.047-.073-.087-.058-.227.058-.455.054-.686.047h-.046c-.098-.195-.156-.412-.267-.6-.282-.436-.415-.926-.488-1.439-.332-1.353.888-2.59 2.212-2.594 1.49.115 2.623-.675 3.706-1.588.956-.718 2.212-1.133 3.395-.819.549.12.96.563 1.516.675.49.101.988-.018 1.483.04.949.093 1.739.707 2.37 1.396.455.487.621 1.187.855 1.797.422.78 1.068.927.845 1.974-.036.18-.083.357-.026.537-.368.065-.707.148-1.093.217-.967-.05-1.656-.246-2.183-1.119-.022-.022-.068-.09-.119-.151a3.1 3.1 0 0 0-1.01-1.183l-.04-.026a2.8 2.8 0 0 0-.628-.318 3 3 0 0 0-.559-.148 3.4 3.4 0 0 0-.61-.036 2.8 2.8 0 0 0-1.674.643 6 6 0 0 0-.224.202q.102-.114.21-.228c-.008.008-.011.011-.022.018.13-.14.772-.617.494-.793-.039-.011-.076.007-.108.028-.346.307-.823.43-1.126.798-.66.628-2.576 2.63-1.638 4.514 1.046 2.11 2.98 1.208 3.554 1.064.3.036.599.087.895.133.094.322-.281.394-.491.516-.314.17-.573.42-.862.632-1.627 1.31-2.869.213-4.593.527-1.534.346-2.836 1.317-4.327 1.804-1.071.379-2.197.566-3.305.812a10 10 0 0 0-.822.209c-.105.036-.228.058-.325.112.04-.21.087-.415.09-.632-.05-1.713-.249-3.445-.649-5.12a7 7 0 0 1-.166-.876c.83-.105 1.656-.213 2.493-.21zm-7.559.542h.007q.03-.243.08-.487l.032-.13.054-.202.015-.054.032-.116c.018-.075 1.047-.797 1.469-.93.509-.134 1.032.014 1.544.04.184.017.455.046.66.06.152.152.257.354.332.56q-.014-.001-.036.004h.036a4 4 0 0 1 .073.209c.003.021.104.314.137.444v.003c.036.14.057.285.079.43.022.155.415 3.066.415 4.102-.029.949.076 2.843.083 2.843-.473.134-2.035.65-2.389.697-1.952-.31-1.786-.549-2.136-2.375-.31-1.212-.638-2.424-.613-3.716.032-.458.079-.916.123-1.375zm9.367 21.1a.4.4 0 0 1-.191.185 4.7 4.7 0 0 0-.974.541c-.386.289-.747.613-1.126.913a.04.04 0 0 0-.018.018c-.826.769-1.663 1.526-2.436 2.352-1.172 1.31-2.37 2.616-3.46 4.002-1.053 1.194-1.934 2.526-2.912 3.781a12 12 0 0 0-.638.978c-.04.094-.293.433-.549.733-.195.227-.57.158-.66-.127a7 7 0 0 1-.173-.67.4.4 0 0 1-.008-.113q.021-.248.037-.501c.014-.231.036-.458.061-.69v.019q.022-.24.05-.477l.055-.526q.012-.108.028-.21.015-.14.04-.281c.018-.116.04-.227.058-.343l.032-.195c.015-.08.033-.155.047-.234v.007c0-.018.007-.032.007-.05l.047-.325c.073-.48.137-.96.224-1.436.076-.422.162-.845.245-1.267.044-.234.08-.469.134-.7q.076-.35.17-.696c.057-.213.119-.43.169-.642.065-.275.144-.549.224-.823l.047-.206c.133-.804.274-1.605.411-2.435.17-1.285.383-2.634.094-3.919l-.022-.072c-.357-.945-1.064-1.707-1.504-2.612-.625-1.054-1.148-2.165-1.617-3.29-.267-.744-.613-1.451-.797-2.227-.137-.639-.307-1.27-.466-1.905-.223-.859-.256-1.833-.49-2.703-.141-.584-.462-1.133-.394-1.75q.002-.037.015-.076c.097-.36.256-.74.584-.952.549-.36 1.144-.65 1.718-.967 1.201-.606 2.536-.927 3.886-1.119-.011.069-.018.134-.033.18-.306 1.513-.101 3.086.314 4.558 0 .01.007.021.007.032.354 2.039.386 2.862 2.411 3.186a.38.38 0 0 1 .303.242c.494 1.328 2.042 4.875 2.331 4.961.097.026.321-.205.415-.245.158-.126-.589-1.183-.729-1.696-.329-.722-.563-1.49-.913-2.183l-.054-.155q-.061-.139-.116-.278a2 2 0 0 1-.083-.27c-.025-.094-.057-.18-.072-.275-.007-.046.007-.097.04-.122 0 0 .003-.008.007-.008a.1.1 0 0 1 .072-.007c.325-.108.646-.267 1.003-.335.401-.123.823-.173 1.216-.307a.5.5 0 0 0 .152-.166.39.39 0 0 1 .397-.198 7.9 7.9 0 0 1 2.832 1.075c.48.267.996.476 1.436.805q.14.108.274.223a.39.39 0 0 1 .112.433 4 4 0 0 0-.101.34c-.126.533-.061 4.3.527 4.387a.5.5 0 0 0 .191.036c.083 0 .17-.018.249-.047-.314.844-.123 1.941.238 2.616-.007.13-.011.242-.014.372-.52.866-1.068 1.706-1.584 2.594-.116.198-.523.75-.779 1.263zm4.878.697c-.627-.768-1.641-1.133-2.608-1.22-.408-.017-.805.084-1.191.217l.029-.054c.166-.332 1.479-2.197 1.891-3.183.404.282.894.433 1.389.502q.151.022.303.022c.31 0 .573-.05.812-.127.389 1.898.512 4.193.559 5.918a7.4 7.4 0 0 0-1.18-2.075zm8.234 15.13c0 .097-.036.23-.076.37q-1.396.164-2.781.383a32 32 0 0 0-3.479.578c-.389.094-.779.18-1.165.292q.114-.464.216-.935c.293-1.735.614-3.467.791-5.217.093-.942.212-1.88.238-2.822.039-.89-.083-1.775-.174-2.659a43 43 0 0 0 .083-3.969c-.101-1.76-.097-3.572-.703-5.25.837-.534 1.057-1.45 1.093-1.584.018 0 .033.004.054 0 .498-.025.913-.379 1.357-.573.494-.253.888-.636 1.299-.993l.097-.086q.749.49 1.454 1.028c.957.704 4.402 2.916 5.207 3.233q.239.099.476.191c-.83.3-1.479.538-1.53.556-.263.108-.324.494-.086.66.328.224 3.637-1.086 4.911-1.634.065-.044.147-.076.23-.112.235.296.488.584.726.88.31.47.721.899 1.071 1.35.376.487.899.87 1.523.93q.103.01.206.008c.599 0 4.099-.84 5.968-1.913.252.66.555 1.314.638 2.021.155 3.435-4.438 4.868-7.086 5.737-1.909.606-3.857 1.072-5.784 1.613-.812.245-1.635.44-2.461.635-.177.054-.455.083-.703.148.176-1.151.36-2.331.501-3.475a40 40 0 0 0 .274-2.558c-.003-.249.159-.888-.083-1.025-.032-.007-.072.018-.076.05-.245.77-.483 1.541-.602 2.343-.397 2.283-.725 4.56-1.014 6.866-.202 1.645-.357 3.298-.61 4.94z"/><path fill="#000" d="M255.034 19.887c-.483.086-.985.126-1.429-.13-.281-.141-.548-.307-.757-.542-.13-.14-.271-.331-.48-.335-.184.022-.155.238-.098.36.253.64.975.99 1.61 1.148.245.065 1.49.058 1.374-.343a.21.21 0 0 0-.22-.158m.417-2.681c-.307-.177-.668-.177-1.007-.105-.231.05-.487.08-.678.224-.361.354.768.13.902.108.555-.115.689.18.992.552a.2.2 0 0 0 .263-.014c.127-.12.029-.282-.068-.383-.112-.133-.249-.292-.404-.382"/></g><defs><clipPath id="a"><path fill="#fff" d="M0 0h398.4v265.6H0z"/></clipPath></defs></svg>
