<svg width="316" height="178" viewBox="0 0 316 178" fill="none" xmlns="http://www.w3.org/2000/svg">
    <g clip-path="url(#clip0_12906_16446)">
        <rect width="316" height="177.75" fill="#F6F6F6"/>
        <path fill-rule="evenodd" clip-rule="evenodd" d="M150.138 26.2962C174.788 24.6542 199.939 27.8133 219.438 38.3886C241.479 50.3425 266.31 67.3624 260.949 86.3946C255.684 105.083 219.435 107.914 196.808 118.724C181.019 126.267 168.528 135.564 150.138 139.335C121.413 145.227 86.0908 160.093 64.209 145.919C42.4339 131.815 62.5266 106.64 68.4071 86.3946C72.6592 71.7554 78.2145 57.6801 92.9959 46.8111C108.289 35.5659 127.938 27.775 150.138 26.2962Z" fill="white"/>
        <g clip-path="url(#clip1_12906_16446)">
            <path d="M144.641 123.417C141.114 130.819 140.69 126.47 137.212 126.708C132.089 128.608 131.455 107.595 130.512 104.266C127.455 103.779 122.518 102.689 119.62 101.596C118.906 101.326 118.146 101.225 117.387 101.129C114.297 100.738 131.498 81.0016 135.845 78.1371C162.581 60.5159 150.322 111.489 144.641 123.417Z" fill="black"/>
            <path d="M140.344 132.677C140.5 131.291 140.752 129.918 141.176 128.59C140.223 127.74 139.067 126.839 137.74 127.369C137.299 127.518 136.885 127.737 136.454 127.904C136.719 128.598 136.588 129.431 136.61 130.158C136.55 131.235 136.552 132.258 136.224 133.265C135.919 134.413 135.505 135.602 135.546 136.8C135.861 138.241 136.893 139.728 138.426 139.978C140.197 140.324 141.739 139.218 141.512 137.338C141.297 136.452 140.656 135.75 140.326 134.913C140.071 134.193 140.296 133.413 140.344 132.677Z" fill="white"/>
            <path d="M163.804 35.9488C163.789 35.9539 163.779 35.964 163.763 35.969C164.033 35.9539 164.434 35.969 164.702 36.0523C165.706 36.4965 166.344 37.5035 166.528 38.5837C166.541 38.7477 166.639 39.096 166.677 39.3812C167.058 39.6235 167.371 39.8582 167.557 39.9995C168.163 39.9566 169.099 40.2544 169.548 40.3024C168.682 39.4948 168.102 38.402 167.752 37.2612C167.752 37.2562 167.749 37.2511 167.747 37.2461C167.747 37.2511 167.749 37.2562 167.752 37.2612C167.588 36.8145 167.504 36.3577 167.487 35.8933C167.26 35.8327 167.065 35.699 166.866 35.598C166.369 35.3431 165.867 35.1109 165.312 35.015C164.904 35.3911 164.402 35.7015 163.814 35.9438C163.814 35.9438 163.811 35.9438 163.809 35.9463L163.804 35.9488Z" fill="white"/>
            <path d="M159.408 24.6452C159.607 24.6452 159.809 24.6326 159.988 24.6629C160.258 24.7108 160.535 24.6906 160.79 24.5846C160.841 24.5594 160.891 24.5468 160.939 24.5392C160.964 24.5089 160.979 24.4686 161.01 24.4433C160.714 23.984 160.046 23.8351 159.546 23.6685C158.595 23.3 157.493 23.2395 156.519 23.5524C156.146 23.6609 155.823 23.8426 155.513 24.0471C155.871 23.9411 156.232 23.8452 156.598 23.7669C157.18 23.6559 159.052 24.1001 159.408 24.6452Z" fill="white"/>
            <path d="M144.825 59.8816C146.104 59.3592 149.141 57.4891 149.295 57.4184C147.36 56.0757 146.068 53.4333 145.836 51.1922C145.836 51.1821 145.836 51.1695 145.836 51.1594C145.269 51.5405 144.628 51.8181 144.139 52.2749C143.765 53.0598 143.944 57.7238 144.169 59.498C144.209 59.811 144.532 60.0002 144.825 59.8816Z" fill="white"/>
            <path d="M157.851 26.4699C158.419 26.0914 158.966 25.8189 159.498 25.6196C159.256 25.5691 159.024 25.4934 158.817 25.3622C158.807 25.3673 158.799 25.3698 158.789 25.3749C158.61 25.771 157.955 26.2756 157.783 26.4649C157.798 26.4497 157.808 26.4422 157.823 26.4295C157.75 26.5153 157.672 26.6011 157.596 26.6869C157.68 26.6137 157.763 26.5406 157.854 26.4699H157.851Z" fill="white"/>
            <path d="M146.076 65.6126C147.787 67.9622 151.058 67.0713 152.151 66.0896C153.434 64.9387 153.182 63.7223 153.192 63.6541C153.044 63.4901 151.611 58.3365 151.654 57.8923C151.505 57.8645 151.091 57.7535 151.028 57.7333C151.01 57.7863 147.244 59.9416 145.456 60.5549C145.453 60.5726 145.456 60.5927 145.446 60.6104C145.446 60.6054 145.448 60.6003 145.451 60.5927C145.322 61.3802 144.363 63.2604 146.074 65.6075L146.076 65.6126Z" fill="#FED980"/>
            <path d="M155.637 54.1777C153.246 54.1499 151.573 52.3025 149.964 50.7655C149.358 50.0462 148.599 49.4027 148.107 48.6228C148.021 48.4764 147.943 48.3275 147.863 48.1812C147.282 49.6197 147.133 49.9276 146.581 51.1592C146.581 51.3965 147.446 54.2837 148.859 55.8283C149.57 56.6081 151.672 57.0675 152.726 57.1053C154.381 57.1659 156.81 57.1709 156.843 57.1709C156.987 56.5576 157.12 55.5683 157.367 55.0131C157.443 54.8667 157.562 54.42 157.716 54.0616C157.032 54.2055 156.336 54.261 155.637 54.1752V54.1777Z" fill="white"/>
            <path d="M159.429 40.5641C158.218 41.4045 156.712 41.7149 155.259 41.619C154.245 41.5912 153.276 41.2 152.255 41.1849C151.349 41.1622 150.469 41.4423 149.621 41.7351C148.837 42.101 148.062 42.4922 147.285 42.8759C147.727 44.7081 148.09 46.5631 149.059 48.1784C153.465 54.0689 156.177 53.2285 157.209 53.1174C161.823 52.166 164.292 48.6478 165.952 44.5188C166.007 44.3851 166.04 44.2261 166.083 44.0747C165.942 43.9258 165.808 43.7718 165.662 43.6305C164.491 42.6487 161.87 40.8896 162.786 39.3122C163.51 38.1412 164.789 38.4037 165.869 38.9261C165.71 38.2851 165.528 37.6667 165.064 37.1544C164.698 36.7783 164.325 36.3518 163.79 36.2559C163.611 36.208 163.434 36.2004 163.258 36.2054C162.869 36.4174 162.481 36.6395 162.072 36.7985C162.209 36.9273 162.267 37.1241 162.299 37.3058C162.413 37.7601 162.219 38.2043 161.871 38.4996C161.548 38.805 161.124 38.9791 160.803 39.2895C160.362 39.7312 159.941 40.1956 159.431 40.5615L159.429 40.5641ZM156.475 48.2162C155.289 47.9184 153.935 47.2622 153.463 46.0634C153.352 45.8337 153.299 45.4299 153.642 45.3896C154.035 45.3946 154.3 45.7505 154.543 46.018C154.939 46.4596 155.441 46.7726 155.963 47.0351C156.79 47.5146 157.736 47.4389 158.637 47.2774C158.826 47.2521 159.01 47.3909 159.053 47.5726C159.265 48.3247 156.931 48.3348 156.475 48.2137V48.2162ZM160.312 43.686C160.183 43.8097 159.956 43.8324 159.817 43.7112C159.245 43.0197 159 42.4594 157.958 42.679C157.703 42.7194 155.587 43.1358 156.265 42.4746C156.626 42.2045 157.105 42.149 157.537 42.0531C158.172 41.9219 158.848 41.9168 159.426 42.2499C159.719 42.419 159.971 42.7169 160.183 42.9692C160.37 43.1585 160.554 43.4614 160.314 43.686H160.312Z" fill="white"/>
            <path d="M182.355 70.1168C183.407 71.3005 184.607 72.9485 186.06 73.0495C186.979 72.9914 188.353 72.6532 189.241 72.4564C191.958 71.9188 196.594 69.92 196.652 69.8998C196.738 69.872 198.09 69.1704 197.916 67.959C197.909 67.8984 197.437 66.4876 197.301 66.1166C196.91 64.7992 195.197 60.804 194.395 60.4279C193.593 60.0494 192.233 60.5188 192.225 60.5213C192.145 60.5365 181.464 64.9758 179.487 66.051C180.47 67.5047 181.31 68.7111 182.352 70.1193L182.355 70.1168ZM194.627 61.0917C194.627 61.0917 194.629 61.0942 194.632 61.0967C194.632 61.0967 194.632 61.0993 194.634 61.0993C194.634 61.0993 194.624 61.0917 194.619 61.0867C194.619 61.0867 194.622 61.0892 194.624 61.0917H194.627Z" fill="white"/>
            <path d="M143.385 44.5637C143.385 44.5637 143.365 44.5713 143.355 44.5763C143.355 44.5763 143.358 44.5763 143.36 44.5763C143.37 44.5738 143.378 44.5688 143.388 44.5662L143.385 44.5637Z" fill="white"/>
            <path d="M162.409 26.621C156.05 25.1521 154.358 35.3129 160.977 35.7117C166.372 36.0978 167.861 27.7668 162.409 26.621Z" fill="#FED980"/>
            <path d="M153.801 33.8504C154.881 36.1495 157.128 36.1571 159.328 36.1142C156.155 34.87 154.84 30.5391 156.715 27.6973C155.186 29.4817 153.682 31.5385 153.801 33.8504Z" fill="white"/>
            <path d="M171.752 33.3953C171.635 33.529 171.527 33.6653 171.424 33.8092C171.308 33.9833 171.202 34.1625 171.103 34.3467C171.033 34.4906 170.967 34.637 170.912 34.7859C170.843 34.9777 170.788 35.1746 170.74 35.3739C170.695 35.591 170.662 35.808 170.639 36.0301C170.624 36.2169 170.616 36.4036 170.619 36.5904C170.626 36.7595 170.642 36.9261 170.667 37.0926C170.702 37.3046 170.755 37.5141 170.816 37.7211C170.881 37.923 170.957 38.1198 171.045 38.3142C171.131 38.4883 171.224 38.6549 171.302 38.7811C171.424 38.9628 171.552 39.1369 171.691 39.306C171.83 39.465 171.976 39.6139 172.13 39.7578C172.291 39.9016 172.463 40.0354 172.639 40.1616C172.801 40.2701 172.965 40.3685 173.134 40.4569C173.285 40.5326 173.439 40.6007 173.59 40.6588H173.595H173.598C173.749 40.7143 173.898 40.7572 174.039 40.7951C174.216 40.8228 174.39 40.8582 174.564 40.896C174.683 40.9137 174.799 40.9389 174.92 40.9515C175.172 40.9515 175.76 40.9036 175.954 40.8708C176.206 40.8203 176.456 40.7597 176.663 40.6966C176.9 40.6184 177.132 40.5275 177.359 40.4241C177.536 40.3383 177.705 40.2449 177.869 40.1389C178.025 40.0354 178.174 39.9218 178.318 39.8007C178.456 39.677 178.59 39.5508 178.673 39.4574C178.691 39.4373 178.709 39.4171 178.726 39.3994L178.734 39.3918C178.865 39.2429 178.986 39.0864 179.102 38.9224C179.196 38.7836 179.281 38.6397 179.359 38.4908C179.455 38.299 179.541 38.1047 179.617 37.9053C179.622 37.8876 179.629 37.87 179.634 37.8548C179.698 37.6681 179.753 37.4813 179.798 37.2895C179.841 37.0851 179.877 36.8806 179.897 36.6737C179.912 36.4743 179.917 36.2749 179.912 36.0756C179.899 35.8585 179.877 35.644 179.841 35.4295C179.803 35.2225 179.753 35.0181 179.695 34.8162C179.634 34.6244 179.561 34.4376 179.478 34.2534C179.395 34.0817 179.301 33.9152 179.198 33.7537C179.097 33.5997 178.986 33.4558 178.868 33.3145C178.754 33.1858 178.636 33.0672 178.512 32.9511C178.373 32.8274 178.227 32.7138 178.076 32.6028C177.904 32.4867 177.727 32.3807 177.546 32.2798C177.357 32.1838 177.165 32.1006 176.968 32.0248C176.787 31.9618 176.602 31.9088 176.416 31.8633C176.211 31.8204 176.005 31.7901 175.795 31.7674C175.598 31.7548 175.407 31.7498 175.21 31.7548C175.008 31.7674 174.806 31.7901 174.605 31.8204C174.395 31.8608 174.191 31.9088 173.986 31.9693C173.974 31.9744 173.961 31.9769 173.949 31.9819C173.737 32.0526 173.527 32.1334 173.321 32.2268C173.121 32.3252 172.924 32.4312 172.735 32.5498C172.564 32.6634 172.402 32.7845 172.243 32.9158C172.069 33.0672 171.9 33.2262 171.744 33.3978L171.752 33.3953Z" fill="#FED980"/>
            <path d="M195.631 165.423C195.535 165.234 195.961 164.282 196.102 164.005C196.261 162.864 186.698 162.114 185.868 162.071C185.717 163.672 194.939 165.256 195.631 165.423Z" fill="white"/>
            <path d="M152.021 77.7952C151.784 75.1629 151.703 68.2704 151.693 67.4704C151.113 67.7656 150.407 67.9625 149.542 67.9751C149.355 67.9776 149.168 67.9625 148.977 67.9347C147.849 67.7808 146.716 67.324 145.811 66.6249C145.417 68.336 143.467 72.4473 143.23 72.9243C149.938 73.5754 151.519 77.3283 152.047 78.6634C152.039 78.3732 152.029 78.0829 152.024 77.7952H152.021Z" fill="#FED980"/>
            <path d="M159.98 104.726C161.713 104.446 163.451 104.211 165.191 104.007C165.262 103.739 165.328 103.492 165.33 103.31C165.807 100.236 166.092 97.137 166.473 94.0504C167.015 89.7271 167.628 85.4543 168.375 81.1764C168.597 79.6748 169.043 78.2236 169.502 76.785C169.508 76.7245 169.581 76.674 169.641 76.6917C170.09 76.9516 169.785 78.1479 169.795 78.6148C169.692 80.2225 169.495 81.8175 169.283 83.4151C169.026 85.5628 168.678 87.7737 168.347 89.9315C168.811 89.8104 169.333 89.7574 169.664 89.6514C171.215 89.2879 172.752 88.922 174.275 88.4601C177.885 87.4506 181.535 86.5749 185.109 85.4391C190.074 83.8113 198.681 81.1209 198.388 74.6827C198.247 73.4688 197.765 72.3431 197.319 71.215C197.117 71.3235 196.917 71.4321 196.728 71.5406C194.715 72.5551 192.556 73.2568 190.334 73.6429C188.868 73.8044 187.486 74.4758 186.007 74.4758C185.881 74.4758 185.753 74.4707 185.624 74.4606C184.456 74.347 183.475 73.6278 182.774 72.7167C182.118 71.8712 181.343 71.0712 180.763 70.1903C180.317 69.6351 179.847 69.1001 179.406 68.5423C179.252 68.6054 175.337 69.1228 173.016 70.4225C172.426 70.7532 170.514 71.8813 169.901 71.4623C169.449 71.1544 169.447 70.786 169.936 70.5815C170.191 70.5008 171.705 69.5745 172.272 69.3323C172.151 69.2818 172.033 69.2313 171.911 69.1833C170.406 68.5827 168.975 67.8028 167.535 67.0634C165.577 65.9781 163.95 64.4386 162.157 63.1187C161.274 62.4549 160.366 61.8063 159.432 61.193C159.374 61.2536 159.309 61.3066 159.248 61.3596C158.476 62.0334 157.737 62.7502 156.814 63.2221C155.982 63.5906 155.202 64.2468 154.269 64.2973C154.228 64.2998 154.196 64.2947 154.16 64.2897C154.077 64.5976 154.012 65.9352 152.516 66.9195C152.955 70.4882 153.242 73.7868 153.434 77.0955C153.487 79.6243 153.452 82.0648 153.277 84.5382C153.452 86.1938 153.679 87.8519 153.605 89.5227C153.557 91.2944 153.33 93.0535 153.156 94.8151C152.826 98.0985 152.223 101.347 151.676 104.6C151.55 105.185 151.408 105.768 151.27 106.351C151.991 106.144 152.723 105.978 153.452 105.804C155.603 105.319 157.78 104.968 159.972 104.721L159.98 104.726Z" fill="white"/>
            <path d="M144.774 60.8065C144.62 60.8595 143.944 60.8343 143.942 60.8293C142.837 60.6677 142.716 53.5986 142.95 52.6042C143.046 52.2256 143.155 51.847 143.344 51.5038C143.036 51.2464 142.731 50.9839 142.411 50.7391C141.583 50.1208 136.982 47.3522 133.708 47.1023C133.236 49.0885 128.849 49.0709 128.862 49.1491C128.89 49.3283 133.773 58.2525 132.467 58.8935C132.293 58.9667 132.091 58.9818 131.909 58.9314C131.334 58.7547 131.735 58.2272 131.511 57.7376C131.14 56.7937 128.471 51.1581 127.828 49.2475C124.377 49.1289 122.881 47.6247 122.518 43.7835C122.301 42.2919 121.769 38.2034 121.746 34.2713C119.279 34.6322 116.84 35.2303 114.637 36.3408C113.56 36.9364 112.448 37.4765 111.419 38.1529C110.783 38.5668 110.488 39.3038 110.306 40.0054C110.14 41.189 110.763 42.2415 111.033 43.357C111.474 44.9874 111.532 46.8146 111.953 48.4248C112.249 49.6135 112.564 50.7971 112.824 51.996C113.169 53.4471 113.818 54.7747 114.32 56.1678C115.202 58.2827 116.181 60.3649 117.352 62.3385C118.192 64.0572 119.534 65.5008 120.197 67.3053C120.76 69.7332 118.547 82.0166 118.441 82.4178C118.328 82.8494 115.767 94.8375 116.693 99.3399C116.741 99.5772 117.074 99.6428 117.261 99.4863C117.617 99.186 123.416 90.8827 125.388 88.639C127.434 86.042 129.674 83.5914 131.874 81.1383C133.322 79.5836 134.901 78.1602 136.455 76.7141C137.171 76.1487 137.847 75.5354 138.579 74.9903C139.399 74.3795 140.35 73.9858 141.293 73.6073C141.482 72.9839 142.002 72.3025 142.221 71.8532C143.314 69.9427 144.345 68.0574 145.375 66.1368C144.686 65.0541 144.028 62.9997 144.774 60.799V60.8065Z" fill="white"/>
            <path d="M132.604 46.7717C134.259 45.5326 131.991 35.2153 130.838 31.3917C130.705 30.945 130.286 30.6446 129.822 30.5942C127.804 30.3746 123.533 29.6503 123.16 34.0846C122.832 37.3125 123.72 45.7774 124.819 46.9938C125.917 48.2103 130.949 48.0084 132.604 46.7692V46.7717Z" fill="white"/>
            <path d="M190.525 155.751C190.568 155.213 190.557 154.777 190.038 154.403C189.518 154.029 188.847 154.103 188.317 154.135C187.707 154.166 187.137 154.456 186.61 154.734C186.607 154.734 186.605 154.739 186.6 154.741C186.438 156.743 186.055 159.054 185.802 161.046C185.81 161.066 185.815 161.086 185.82 161.106C186.958 161.089 193.791 161.765 195.996 162.378C195.789 162.01 195.499 161.689 195.131 161.48C194.172 160.94 193.019 160.856 192.076 160.263C189.513 158.941 190.464 156.475 190.52 155.753L190.525 155.751Z" fill="white"/>
            <path d="M198.359 106.086C197.15 105.685 195.99 105.15 194.772 104.786C191.497 104.019 188.132 104.07 184.795 104.234C180.353 104.415 175.913 104.69 171.501 105.256C169.09 105.687 166.653 105.962 164.216 106.21C162.291 106.376 160.43 106.747 158.505 106.866C156.855 107.007 155.208 107.209 153.563 107.406C153.069 107.409 151.828 107.6 150.998 107.512C150.579 109.168 150.118 110.808 149.618 112.441C151.223 113.1 152.822 113.774 154.408 114.48C160.263 117.107 166.073 119.833 171.847 122.627C176.024 124.805 180.133 127.114 184.21 129.482C184.298 127.801 184.419 126.12 184.601 124.432C184.687 122.466 184.845 120.484 185.393 118.586C185.496 118.344 185.761 117.976 186.044 118.198C186.316 118.604 186.218 119.162 186.268 119.634C186.261 120.169 186.268 120.681 186.281 121.181C187.401 119.783 188.879 118.458 189.908 117.862C190.557 117.443 191.47 118.008 191.374 118.778C191.286 119.568 190.355 119.78 189.815 120.217C188.763 120.999 187.825 121.857 186.944 122.804C186.823 122.917 186.604 123.182 186.346 123.462C186.359 124.025 186.364 124.588 186.346 125.163C186.152 129.608 186.104 134.055 186.127 138.504C186.029 142.525 186.402 146.527 187.08 150.47C187.176 151.313 187.416 152.163 187.509 153.011C188.382 152.461 189.585 152.322 190.473 152.827C190.983 153.094 191.308 153.541 191.505 154.053C191.858 153.521 192.239 153.006 192.635 152.501C194.126 150.475 195.72 148.541 197.236 146.535C199.08 144.024 200.508 141.858 201.694 138.951C202.425 137.129 203.232 134.847 203.707 132.954C204.151 131.276 204.587 129.593 204.862 127.879C205.366 125.269 205.813 122.619 205.72 119.962C205.717 118.945 205.614 117.938 205.389 116.943C205.127 114.798 204.536 112.736 203.485 110.841C203.03 110.076 202.45 109.402 201.855 108.744C200.891 107.628 199.781 106.558 198.359 106.081V106.086Z" fill="black"/>
            <path d="M158.133 60.9346C157.537 60.0689 157.204 57.901 157.192 57.8984C155.951 58.1761 153.206 58.219 152.656 58.1609C152.628 58.1559 152.598 58.1483 152.57 58.1432C152.621 58.272 154.298 63.3246 154.349 63.4407C154.634 63.3069 157.951 61.0835 158.133 60.9371V60.9346Z" fill="white"/>
            <path d="M178.493 40.7868C177.969 41.1502 177.388 41.4379 176.768 41.5969C176.316 41.713 175.845 41.7585 175.375 41.7383C175.37 41.7408 175.204 41.7458 175.075 41.7307C174.742 41.8165 174.321 41.8569 173.983 41.814C172.396 41.6928 170.868 41.1729 169.283 41.024C169.102 41.0089 168.923 40.9836 168.741 40.9609C169.291 41.4051 169.854 41.8241 170.482 42.0992C171.201 42.4702 172.01 42.5787 172.807 42.6191C173.526 42.556 174.187 42.2683 174.805 41.9099C174.962 41.8291 175.153 41.8569 175.262 42.0007C175.524 42.3692 175.06 42.6065 174.778 42.7453C173.917 43.2273 172.908 43.4772 171.922 43.3636C171.909 43.3636 171.897 43.3636 171.882 43.3636C171.856 43.3636 171.831 43.3585 171.806 43.3585C171.834 43.3585 171.844 43.3636 171.861 43.3636C170.129 43.3333 168.57 42.4222 167.306 41.2916C166.602 40.706 166.019 40.0549 165.268 39.6082C164.347 39.4769 164.047 39.4189 163.603 39.7268C162.962 40.4259 164.808 41.501 165.252 41.9578C165.984 42.5307 166.572 43.2425 167.21 43.9138C168.166 44.7971 169.067 45.7259 169.896 46.7278C170.9 47.9064 171.844 49.1254 172.535 50.516C173.425 51.9193 174.248 53.3629 175.078 54.8015C176.258 56.5984 177.381 58.4357 178.662 60.1645C179.346 61.1034 180.072 62.0094 180.801 62.9104C180.925 63.0669 181.061 63.2209 181.17 63.3925C183.024 62.5319 184.991 61.8731 186.84 61.0302C188.394 60.3286 190.016 59.8112 191.651 59.3241C191.701 59.3165 191.747 59.3014 191.795 59.2913C190.43 57.936 189.219 56.4318 187.978 54.963C185.927 52.5931 184.018 50.0971 182.345 47.4446C181.326 45.8495 180.224 44.2974 179.333 42.6266C179.071 42.1017 178.748 41.6045 178.546 41.0518C178.518 40.971 178.496 40.8827 178.488 40.7944L178.493 40.7868Z" fill="white"/>
            <path d="M154.067 24.5573C154.196 24.4437 154.332 24.3377 154.456 24.2191C156.287 22.2506 159.014 22.3793 161.277 23.467C161.658 23.621 161.867 23.9667 162.044 24.3175C162.2 24.4942 162.263 24.7441 162.175 24.9737C162.129 25.0873 162.046 25.1782 161.948 25.2564C163.809 25.4305 165.265 26.6723 166.085 28.2749C166.244 28.343 166.473 28.6888 166.541 28.7645C167.237 29.9153 168.09 30.4302 169.162 30.67C168.88 28.9134 168.264 27.1922 167.283 25.7006C166.879 24.999 166.299 24.4387 165.726 23.8784C165.199 23.2601 164.647 22.6695 164.004 22.1698C163.703 21.9124 163.325 21.7029 163.07 21.4101C162.878 20.7186 164.036 21.2991 164.276 21.4682C166.259 22.6544 168.042 24.2519 169.271 26.2154C169.308 26.1751 169.346 26.1372 169.377 26.0968C170.663 24.6027 171.717 22.6392 171.604 20.6353C171.321 18.0005 169.518 14.8861 166.584 14.8659C164.816 15.0703 166.362 12.7914 163.446 12.3497C162.493 12.1882 161.501 12.5617 160.79 13.1977C160.664 13.4324 160.656 13.7453 160.389 13.8816C160.202 13.9952 159.952 14.0053 159.763 13.8917C159.569 13.7983 159.448 13.4778 159.312 13.3643C158.926 12.9327 158.444 12.6046 157.97 12.279C156.86 11.5118 155.45 11.5421 154.193 11.8146C152.203 12.332 150.175 13.6368 149.501 15.6609C149.264 16.5417 149.065 17.4528 149.282 18.3488C149.486 18.8333 149.86 19.222 150.117 19.6788C150.392 20.176 150.705 20.6404 151.103 21.0265C152.347 20.2138 153.719 19.6258 154.304 20.4536C154.801 21.5893 153.149 21.9982 152.415 22.4171C148.109 24.8778 147.244 27.018 145.935 31.5583C146.227 31.2681 146.429 30.8264 146.674 30.4453C148.525 27.8483 151.113 25.7536 154.067 24.5548V24.5573Z" fill="black"/>
            <path d="M166.657 29.8064C166.657 29.8064 166.646 29.7837 166.641 29.7736C167.025 31.3586 166.831 33.0546 165.895 34.3442C166.485 34.3038 167.06 34.5209 167.577 34.7909C167.59 34.7203 167.597 34.6471 167.613 34.5764C167.719 34.1852 167.971 33.8723 168.14 33.5139C168.183 33.4129 168.321 33.3019 168.402 33.4306C168.117 34.8061 168.117 36.0377 168.564 37.398C168.907 38.4605 169.406 39.4373 170.317 40.101C170.501 40.2323 170.703 40.3383 170.874 40.4872C170.879 40.4922 170.882 40.4973 170.887 40.4998C171.28 40.5402 171.676 40.5679 172.072 40.5957C171.979 40.525 171.886 40.4569 171.795 40.3837C171.248 39.9143 170.794 39.3287 170.471 38.6877C170.44 38.6246 170.408 38.5615 170.4 38.5413C170.251 38.2284 170.128 37.9053 170.039 37.5722C169.949 37.239 169.893 36.8958 169.855 36.5526C169.782 35.8661 169.855 35.172 170.049 34.5108C170.259 33.7966 170.599 33.1328 171.051 32.5422C171.288 32.2318 171.568 31.9643 171.866 31.7144C171.984 31.6135 172.11 31.5251 172.239 31.4368C171.666 31.5251 171.109 31.7472 170.534 31.7472C170.4 31.7472 170.266 31.7346 170.13 31.7069C170.082 31.6993 170.042 31.6917 169.994 31.6841C169.88 31.6942 169.772 31.669 169.668 31.6261C168.382 31.3863 167.484 31.0078 166.657 29.8064Z" fill="white"/>
            <path d="M134.032 45.9005C134.221 45.7793 134.468 45.739 134.68 45.6683C135.182 45.5143 135.724 45.3831 136.221 45.2746C138.295 44.8102 140.406 44.4619 142.417 43.7502C145.206 42.8391 147.648 41.022 150.521 40.3683C153.753 39.7752 156.079 41.8321 159.128 39.3764C159.666 38.9802 160.155 38.5158 160.743 38.1953C161.136 37.9631 161.838 37.8294 161.661 37.2287C161.109 37.1454 160.551 37.052 159.994 36.9839C159.123 37.3776 157.153 37.471 156.689 37.3675C149.275 36.5675 153.861 27.184 158.278 25.2078C153.092 23.0071 148.96 29.7481 145.57 32.2871C141.223 32.4461 136.796 32.2366 132.45 32.5395C132.995 36.4816 134.851 41.9255 134.032 45.898V45.9005Z" fill="white"/>
            <path d="M194.637 61.0977C194.637 61.0977 194.637 61.0977 194.634 61.0952C194.634 61.0952 194.632 61.0926 194.629 61.0901C194.629 61.0901 194.627 61.0876 194.624 61.0851C194.629 61.0901 194.634 61.0952 194.639 61.0977H194.637Z" fill="black"/>
            <path d="M158.643 47.2813C157.74 47.4428 156.794 47.5185 155.969 47.039C155.444 46.774 154.942 46.4611 154.549 46.0219C154.309 45.7544 154.042 45.396 153.648 45.3935C153.305 45.4339 153.358 45.8377 153.469 46.0673C153.943 47.2636 155.298 47.9223 156.481 48.2201C156.937 48.3388 159.271 48.3287 159.059 47.5791C159.016 47.3949 158.834 47.2586 158.643 47.2838V47.2813Z" fill="black"/>
            <path d="M159.426 42.2538C158.848 41.9207 158.172 41.9257 157.536 42.057C157.105 42.1503 156.626 42.2059 156.265 42.4784C155.589 43.1397 157.703 42.7232 157.958 42.6829C159.002 42.4658 159.247 43.0236 159.817 43.7151C159.956 43.8362 160.183 43.8161 160.311 43.6899C160.551 43.4652 160.367 43.1649 160.18 42.9731C159.968 42.7207 159.716 42.4229 159.423 42.2538H159.426Z" fill="black"/>
            <path d="M200.209 105.11C191.34 100.426 171.548 103.318 166.475 103.866C166.531 103.505 166.573 103.174 166.634 102.972C166.836 101.509 167.128 100.03 167.257 98.5481C167.57 96.2489 167.772 93.9346 168.089 91.6354C168.095 91.595 168.102 91.5521 168.11 91.5092C168.377 91.5042 168.667 91.4259 168.912 91.3755C170.183 91.1508 171.455 90.8354 172.711 90.5073C175.158 89.7981 177.632 89.1974 180.092 88.5311C184.322 87.4181 188.608 86.3077 192.556 84.3845C196.572 82.6431 200.59 79.4303 200.196 74.6048C199.969 73.04 199.543 71.5106 198.955 70.0443C199.225 69.7339 199.404 69.3679 199.495 68.9162C199.763 67.5937 196.317 59.5705 194.904 58.9269C194.208 58.5736 193.09 58.8613 192.967 58.9068C192.939 58.879 192.911 58.8512 192.886 58.8209C192.641 58.556 192.47 58.3641 192.218 58.0764C191.133 56.8953 190.061 55.5955 188.989 54.3816C187.294 52.4559 185.717 50.399 184.297 48.2563C182.725 45.8764 181.356 43.2769 179.519 41.0736C179.365 40.9423 179.153 40.5915 178.931 40.4552C179.456 40.0161 179.915 39.4861 180.248 38.8905C180.609 38.2419 180.841 37.5352 180.917 36.7957C180.917 36.7957 180.917 36.7831 180.919 36.7705C180.919 36.7629 180.919 36.7528 180.922 36.7453C180.967 36.1926 180.944 35.6297 180.828 35.072C180.679 34.3628 180.422 33.6486 179.971 33.0832C178.079 30.7159 175.96 30.562 175.866 30.5519C175.627 30.297 175.064 30.3121 174.739 30.249C172.67 30.1102 171.414 30.6856 170.733 30.837C170.907 29.878 170.428 28.3915 170.123 27.8186C170.034 27.6091 169.928 27.4097 169.828 27.2053C169.966 27.0564 170.095 26.8949 170.198 26.7712C170.857 25.9737 171.46 25.1181 171.916 24.1868C172.66 22.6296 173.041 20.8706 172.524 19.1746C171.846 16.4337 169.558 13.7459 166.551 13.7686C165.721 11.0984 161.96 10.8233 160.02 12.436C158.173 10.7501 156.196 10.3362 153.802 10.9974C150.449 11.8429 147.604 14.7958 147.942 18.4124C148.03 19.066 148.431 19.6036 148.764 20.1538C149.092 20.7595 149.511 21.3753 150.071 21.769C149.564 22.1602 149.143 22.5236 148.901 22.7407C146.449 24.8304 144.922 28.0533 145.54 31.2964C145.54 31.4529 145.566 31.6472 145.674 31.7532C145.467 31.8642 145.223 31.9071 144.897 31.8163C144.897 31.8138 144.905 31.8112 144.907 31.8062C140.722 31.7481 136.512 30.991 132.3 31.5891C131.788 28.7524 122.409 28.177 122.063 32.6618C118.94 33.1766 111.872 34.8676 110.003 37.934C109.463 38.6507 108.941 39.4886 108.903 40.4098C108.759 41.9569 109.665 43.297 109.942 44.781C110.77 49.6898 112.132 54.6466 114.299 59.1389C115.121 61.0747 116.208 62.8767 117.265 64.6913C117.84 65.557 118.395 66.4353 118.769 67.412C119.49 70.0746 118.779 72.8407 118.368 75.5285C118.078 77.2598 116.43 86.0452 115.858 88.6851C115.303 91.6076 113.691 99.2043 115.285 101.602C116.143 102.894 117.422 102.089 117.47 102.033C118.867 100.466 119.861 98.5759 121.13 96.9177C123.609 93.4525 126.112 89.9672 128.813 86.6711C130.799 84.6092 132.718 82.4765 134.837 80.5509C136.888 78.7817 138.762 76.8207 141.187 75.5134C142.874 74.8017 144.857 74.1808 146.645 74.9632C148.033 75.3392 148.88 76.5355 149.607 77.6939C150.343 79.0694 150.674 80.6644 151.052 82.2115C151.269 83.5794 151.279 84.9701 151.461 86.3455C151.912 89.9924 151.297 93.6595 150.866 97.2862C150.477 101.105 149.902 104.901 148.812 108.588C147.99 111.336 147.389 114.145 146.338 116.823C145.54 119.132 144.423 121.391 143.364 123.614C142.708 124.725 142.304 125.984 141.742 127.148C141.184 126.661 140.558 126.227 139.882 125.952C138.702 125.636 137.249 125.853 136.326 126.688C135.972 126.078 135.645 125.424 135.324 124.796C134.343 122.872 133.798 120.778 133.258 118.698C132.756 116.73 132.385 114.736 131.979 112.747C131.583 110.163 131.366 107.548 131.104 104.946C131.081 102.907 131.069 100.87 130.995 98.8333C131.001 96.9329 131.119 95.0249 130.907 93.1295C130.862 92.7358 130.844 92.3168 130.67 91.9585C130.514 91.7111 130.171 91.6682 129.979 91.9004C129.805 92.1528 129.921 92.4859 129.863 92.7736C129.643 94.452 129.356 96.1328 129.194 97.8213C129.041 100.04 129.068 102.271 129.043 104.492C129.164 106.748 129.653 108.971 129.891 111.218C130.052 112.714 130.473 114.16 130.766 115.634C131.525 119.094 132.272 122.625 133.884 125.805C134.197 126.378 134.504 126.941 134.868 127.486C134.966 127.635 135.079 127.771 135.213 127.885C135.188 127.966 135.165 128.046 135.158 128.135C135.173 128.874 135.155 129.614 135.178 130.353C135.175 130.464 135.163 130.636 135.13 130.749C135.097 131.115 135.117 131.484 135.011 131.842C134.931 132.264 134.752 132.645 134.598 133.041C134.429 133.689 134.353 134.275 134.204 134.979C134.068 135.653 133.856 136.334 133.942 137.031C134.305 139.121 135.877 141.369 138.154 141.483C139.877 141.634 142.191 140.93 142.44 138.949C142.889 137.475 142.347 135.999 141.497 134.78C141.275 134.505 141.209 134.182 141.262 133.836C141.325 133.139 141.431 132.445 141.535 131.754C141.653 131.034 141.757 130.31 141.898 129.596C141.938 129.384 141.999 129.172 142.062 128.96C142.211 128.914 142.332 128.814 142.415 128.682C142.642 128.579 142.824 128.364 142.907 128.122C143.099 127.761 143.253 127.441 143.472 127.012C145.667 123.115 147.584 119.112 148.87 114.809C148.901 114.716 148.928 114.62 148.959 114.526C152.846 116.124 156.698 117.807 160.481 119.65C168.617 123.228 176.426 127.451 184.098 131.918C184.06 133.2 184.032 134.487 184.027 135.784C183.934 140.357 183.936 144.87 184.733 149.405C184.877 150.543 185.137 151.659 185.387 152.777C185.52 153.267 185.581 153.822 185.894 154.236C185.687 154.546 185.659 155.104 185.548 155.394C185.011 157.191 184.877 159.071 184.763 160.929C183.787 163.478 186.913 164.437 188.805 164.886C190.883 165.426 192.967 166.009 194.909 166.933C196.052 167.367 197.071 166.552 197.452 165.497C197.603 165.098 197.616 164.659 197.528 164.235C197.908 163.175 197.596 162.135 196.713 161.027C195.401 159.495 193.015 159.899 191.642 158.501C191.347 158.024 191.388 157.486 191.446 156.954C191.789 156.916 192.099 156.676 192.24 156.341C192.586 155.712 192.954 155.094 193.373 154.511C193.956 153.726 194.465 152.992 195.063 152.202C196.965 149.64 203.461 144.065 206.563 128.251C207.272 124.632 209.061 109.809 200.191 105.128L200.209 105.11ZM141.512 137.339C141.742 139.219 140.198 140.325 138.427 139.979C136.893 139.726 135.861 138.242 135.546 136.801C135.506 135.605 135.919 134.416 136.225 133.266C136.553 132.256 136.55 131.236 136.611 130.159C136.588 129.432 136.717 128.599 136.454 127.905C136.886 127.741 137.302 127.519 137.741 127.37C139.068 126.842 140.22 127.743 141.176 128.591C140.753 129.916 140.5 131.292 140.344 132.677C140.296 133.414 140.072 134.194 140.326 134.914C140.654 135.751 141.298 136.453 141.512 137.339ZM192.23 60.5169C192.23 60.5169 193.597 60.0475 194.4 60.4236C195.202 60.8021 196.915 64.7973 197.306 66.1122C197.442 66.4832 197.911 67.8965 197.921 67.9546C198.093 69.166 196.743 69.8676 196.657 69.8954C196.599 69.9131 191.963 71.9119 189.246 72.452C188.358 72.6488 186.981 72.987 186.065 73.0451C184.61 72.9441 183.411 71.2961 182.36 70.1124C181.318 68.7041 180.478 67.4978 179.494 66.0441C181.472 64.9689 192.155 60.5296 192.233 60.5144L192.23 60.5169ZM178.424 67.1495C177.267 67.47 174.202 68.6209 173.425 68.8909C173.185 68.8177 169.444 67.0359 167.89 66.0971C165.264 64.3102 163.075 61.8747 160.234 60.3857C159.765 60.1258 159.291 59.8608 158.812 59.5983C158.38 58.5686 157.76 57.453 157.631 57.0947C157.697 56.8827 157.755 56.6681 157.795 56.4511C158.027 55.6561 158.219 54.8535 158.342 54.0358C158.35 53.9954 158.355 53.9525 158.36 53.9071C159.747 53.4882 161.049 52.6957 162.141 51.7972C163.481 50.6867 164.391 49.228 165.35 47.7919C165.534 47.4437 166.442 45.9597 166.808 44.8517C167.103 45.1773 167.396 45.5054 167.701 45.8208C168.125 46.3584 168.48 46.9515 168.929 47.4739C170.63 49.3794 171.666 51.7366 173.031 53.8768C175.107 57.4152 177.294 60.9107 180.114 63.914C179.504 64.237 178.909 64.5878 178.341 64.9916C177.675 65.4535 178.205 66.8416 178.422 67.152L178.424 67.1495ZM143.346 44.5817C143.346 44.5817 143.353 44.5817 143.356 44.5791C143.366 44.5741 143.376 44.5716 143.386 44.5665C143.379 44.569 143.369 44.5741 143.358 44.5766C144.431 44.2182 145.462 43.7589 146.484 43.2693C146.484 43.345 146.484 43.4207 146.476 43.4964C146.552 44.7962 146.895 46.0758 147.42 47.272C147.379 47.3654 147.347 47.4638 147.314 47.5547C147.041 48.2942 146.744 49.0135 146.454 49.7403C146.206 49.9119 145.942 50.0608 145.672 50.1971C145.452 50.341 144.943 50.5101 144.484 50.7246C142.892 49.4677 136.464 46.6058 135.65 46.4039C137.774 45.9496 141.313 45.3842 143.353 44.5791C143.351 44.5791 143.346 44.5791 143.343 44.5817H143.346ZM159.329 36.1118C157.129 36.1522 154.881 36.1446 153.802 33.8479C153.681 31.5361 155.187 29.4792 156.715 27.6949C154.841 30.5367 156.155 34.8676 159.329 36.1118ZM162.409 26.6198C167.86 27.7656 166.372 36.0966 160.976 35.7105C154.357 35.3092 156.049 25.1509 162.409 26.6198ZM157.782 26.4658C157.956 26.2791 158.61 25.7718 158.789 25.3755C158.799 25.3705 158.807 25.368 158.817 25.3629C159.023 25.4942 159.258 25.5699 159.498 25.6203C158.965 25.8197 158.418 26.0948 157.85 26.4709C157.76 26.5415 157.676 26.6147 157.593 26.6879C157.669 26.6021 157.747 26.5138 157.82 26.4305C157.808 26.4431 157.798 26.4532 157.78 26.4658H157.782ZM156.597 23.7679C156.231 23.8461 155.87 23.9445 155.512 24.048C155.822 23.8436 156.148 23.6619 156.519 23.5534C157.492 23.2404 158.595 23.301 159.546 23.6695C160.045 23.8385 160.714 23.9849 161.009 24.4443C160.978 24.4695 160.963 24.5099 160.938 24.5402C160.888 24.5477 160.84 24.5604 160.789 24.5856C160.534 24.6916 160.26 24.7143 159.987 24.6638C159.808 24.6335 159.606 24.6462 159.407 24.6462C159.051 24.101 157.177 23.6568 156.597 23.7679ZM166.861 35.5995C167.063 35.7004 167.257 35.8342 167.482 35.8947C167.499 36.3566 167.582 36.8159 167.746 37.2626C168.097 38.4059 168.677 39.4987 169.542 40.3038C169.093 40.2533 168.16 39.9581 167.552 40.001C167.363 39.8571 167.053 39.6224 166.672 39.3826C166.634 39.0974 166.536 38.7492 166.523 38.5851C166.339 37.5049 165.703 36.4979 164.697 36.0537C164.432 35.9705 164.028 35.9553 163.758 35.9705C163.773 35.9654 163.784 35.9553 163.799 35.9503C163.799 35.9503 163.801 35.9503 163.804 35.9477C164.391 35.708 164.896 35.395 165.302 35.019C165.857 35.1149 166.359 35.3471 166.856 35.602L166.861 35.5995ZM162.298 37.3106C162.265 37.1264 162.207 36.9295 162.071 36.8033C162.479 36.6443 162.868 36.4222 163.256 36.2102C163.433 36.2052 163.609 36.2127 163.789 36.2607C164.323 36.3566 164.699 36.7831 165.062 37.1592C165.527 37.6715 165.708 38.2898 165.867 38.9309C164.787 38.4059 163.509 38.1435 162.785 39.317C161.869 40.8944 164.49 42.6535 165.66 43.6352C165.807 43.7791 165.94 43.933 166.082 44.0794C166.039 44.2309 166.006 44.3899 165.95 44.5236C164.291 48.6526 161.818 52.1707 157.207 53.1222C156.176 53.2307 153.464 54.0712 149.057 48.1831C148.088 46.5654 147.728 44.7104 147.284 42.8806C148.06 42.497 148.837 42.1058 149.619 41.7399C150.467 41.4471 151.347 41.167 152.253 41.1897C153.275 41.2023 154.243 41.5935 155.257 41.6238C156.713 41.7197 158.219 41.4067 159.427 40.5688C159.937 40.2029 160.358 39.7385 160.799 39.2968C161.12 38.9864 161.543 38.8123 161.866 38.5069C162.217 38.2141 162.411 37.7674 162.295 37.3131L162.298 37.3106ZM157.719 54.0636C157.563 54.422 157.447 54.8687 157.371 55.0151C157.124 55.5703 156.99 56.5571 156.847 57.1729C156.816 57.1729 154.385 57.1679 152.73 57.1073C151.675 57.0694 149.574 56.6101 148.863 55.8302C147.45 54.2832 146.585 51.3984 146.585 51.1612C147.137 49.9296 147.286 49.6217 147.866 48.1831C147.947 48.332 148.025 48.4809 148.111 48.6248C148.603 49.4046 149.362 50.0482 149.968 50.7675C151.577 52.3045 153.249 54.1494 155.641 54.1797C156.342 54.2655 157.038 54.2074 157.719 54.0661V54.0636ZM144.135 52.2742C144.625 51.8174 145.266 51.5398 145.833 51.1587C145.833 51.1688 145.833 51.1814 145.833 51.1915C146.068 53.4301 147.359 56.0751 149.291 57.4177C149.138 57.4884 146.1 59.3585 144.822 59.8809C144.529 59.9996 144.204 59.8103 144.166 59.4973C143.939 57.7206 143.762 53.0591 144.135 52.2742ZM145.447 60.6154C145.457 60.5952 145.452 60.5775 145.457 60.5573C147.246 59.944 151.012 57.7887 151.03 57.7357C151.093 57.7559 151.509 57.867 151.655 57.8947C151.612 58.3389 153.045 63.4925 153.194 63.6565C153.184 63.7247 153.436 64.9386 152.152 66.092C151.06 67.0713 147.788 67.9622 146.078 65.615C144.367 63.2654 145.326 61.3851 145.455 60.6002C145.455 60.6053 145.45 60.6103 145.45 60.6179L145.447 60.6154ZM152.568 58.1395C152.596 58.1446 152.626 58.1521 152.654 58.1572C153.204 58.2152 155.948 58.1723 157.19 57.8947C157.202 57.8972 157.535 60.0677 158.13 60.9308C157.946 61.0798 154.632 63.3007 154.347 63.4345C154.299 63.3184 152.621 58.2657 152.568 58.137V58.1395ZM179.338 42.6181C180.23 44.2914 181.33 45.841 182.349 47.4361C184.022 50.0886 185.931 52.5846 187.982 54.9545C189.223 56.4233 190.434 57.9275 191.799 59.2828C191.751 59.2929 191.703 59.308 191.655 59.3156C190.023 59.8052 188.398 60.3201 186.845 61.0217C184.993 61.8672 183.028 62.5259 181.174 63.384C181.068 63.2149 180.929 63.0609 180.806 62.9019C180.077 61.9984 179.35 61.0949 178.667 60.156C177.385 58.4272 176.263 56.5924 175.082 54.793C174.25 53.3544 173.427 51.9133 172.539 50.5075C171.848 49.1169 170.902 47.8979 169.901 46.7193C169.071 45.7149 168.17 44.7886 167.214 43.9053C166.578 43.234 165.988 42.5222 165.257 41.9493C164.813 41.4925 162.966 40.4174 163.607 39.7183C164.053 39.4104 164.351 39.4684 165.272 39.5997C166.024 40.0464 166.606 40.6975 167.31 41.2831C168.574 42.4137 170.133 43.3248 171.866 43.3551C171.846 43.3551 171.838 43.3526 171.81 43.35C171.835 43.35 171.861 43.3551 171.886 43.3551C171.899 43.3551 171.911 43.3551 171.926 43.3551C172.913 43.4687 173.922 43.2188 174.782 42.7368C175.064 42.598 175.526 42.3607 175.266 41.9922C175.155 41.8484 174.963 41.8206 174.81 41.9014C174.189 42.2572 173.531 42.545 172.812 42.6106C172.015 42.5702 171.205 42.4617 170.486 42.0907C169.858 41.8156 169.293 41.3992 168.745 40.9524C168.927 40.9752 169.106 41.0004 169.288 41.0155C170.872 41.1644 172.398 41.6843 173.987 41.8055C174.328 41.8459 174.746 41.8055 175.079 41.7222C175.208 41.7348 175.375 41.7323 175.38 41.7298C175.849 41.75 176.321 41.7045 176.772 41.5884C177.393 41.4294 177.973 41.1417 178.497 40.7783C178.505 40.8666 178.528 40.955 178.556 41.0357C178.757 41.5859 179.08 42.0856 179.343 42.6106L179.338 42.6181ZM172.744 32.5482C172.933 32.4296 173.13 32.3236 173.329 32.2251C173.536 32.1343 173.743 32.0535 173.957 31.9803C173.97 31.9753 173.982 31.9728 173.995 31.9677C174.199 31.9097 174.403 31.8592 174.613 31.8188C174.815 31.7885 175.014 31.7658 175.218 31.7532C175.415 31.7481 175.607 31.7532 175.803 31.7658C176.013 31.7885 176.217 31.8188 176.424 31.8617C176.611 31.9071 176.795 31.9627 176.976 32.0232C177.173 32.0989 177.367 32.1848 177.554 32.2781C177.736 32.3766 177.912 32.4851 178.084 32.6012C178.235 32.7097 178.379 32.8258 178.52 32.9495C178.644 33.0656 178.762 33.1867 178.876 33.3129C178.994 33.4542 179.105 33.6006 179.206 33.752C179.307 33.9136 179.403 34.0801 179.486 34.2517C179.572 34.436 179.643 34.6227 179.703 34.8146C179.764 35.0165 179.812 35.2209 179.85 35.4278C179.885 35.6424 179.908 35.8569 179.92 36.0739C179.925 36.2733 179.92 36.4727 179.905 36.6721C179.882 36.879 179.85 37.0835 179.807 37.2879C179.761 37.4797 179.706 37.6665 179.643 37.8532C179.635 37.8709 179.63 37.8885 179.625 37.9037C179.549 38.1056 179.464 38.2999 179.368 38.4892C179.29 38.6381 179.204 38.782 179.11 38.9208C178.994 39.0823 178.873 39.2388 178.742 39.3902L178.735 39.3978C178.717 39.418 178.699 39.4382 178.682 39.4558C178.596 39.5492 178.465 39.6779 178.326 39.7991C178.182 39.9202 178.033 40.0338 177.877 40.1373C177.713 40.2433 177.541 40.3366 177.367 40.4224C177.14 40.5259 176.908 40.6168 176.671 40.695C176.464 40.7581 176.215 40.8212 175.962 40.8692C175.768 40.902 175.18 40.9499 174.928 40.9499C174.81 40.9373 174.691 40.9121 174.572 40.8944C174.398 40.8565 174.222 40.8212 174.048 40.7934C173.906 40.7556 173.758 40.7127 173.606 40.6572H173.604L173.599 40.6546C173.447 40.5966 173.293 40.5284 173.142 40.4527C172.971 40.3619 172.807 40.2634 172.648 40.1574C172.469 40.0338 172.3 39.9 172.138 39.7536C171.982 39.6098 171.838 39.4609 171.699 39.3019C171.561 39.1328 171.429 38.9612 171.311 38.7769C171.233 38.6507 171.139 38.4842 171.053 38.31C170.965 38.1157 170.89 37.9188 170.824 37.7169C170.763 37.51 170.71 37.303 170.675 37.0885C170.65 36.9219 170.632 36.7528 170.627 36.5863C170.625 36.3995 170.632 36.2127 170.647 36.026C170.67 35.8064 170.703 35.5868 170.748 35.3698C170.794 35.1704 170.852 34.9761 170.92 34.7817C170.978 34.6328 171.041 34.4865 171.111 34.3426C171.207 34.1584 171.313 33.9792 171.432 33.805C171.535 33.6612 171.644 33.5249 171.76 33.3911C171.916 33.222 172.085 33.063 172.259 32.9091C172.418 32.7778 172.58 32.6567 172.751 32.5431L172.744 32.5482ZM169.994 31.685C170.039 31.6926 170.082 31.7002 170.13 31.7078C170.266 31.738 170.4 31.7481 170.534 31.7481C171.109 31.7481 171.666 31.526 172.239 31.4377C172.11 31.526 171.984 31.6169 171.866 31.7153C171.568 31.9652 171.288 32.2327 171.051 32.5431C170.599 33.1362 170.259 33.7975 170.05 34.5117C169.855 35.1729 169.782 35.867 169.855 36.5535C169.893 36.8967 169.949 37.2374 170.039 37.5731C170.128 37.9062 170.251 38.2293 170.4 38.5422C170.41 38.5624 170.44 38.6255 170.471 38.6886C170.796 39.3322 171.248 39.9177 171.795 40.3846C171.883 40.4603 171.979 40.5284 172.073 40.5966C171.677 40.5688 171.28 40.5411 170.887 40.5007C170.882 40.4956 170.879 40.4906 170.874 40.4881C170.703 40.3417 170.501 40.2332 170.317 40.1019C169.406 39.4407 168.907 38.4614 168.564 37.3989C168.117 36.0386 168.117 34.807 168.402 33.4315C168.322 33.3003 168.183 33.4113 168.14 33.5148C167.973 33.8732 167.719 34.1861 167.613 34.5773C167.595 34.648 167.59 34.7187 167.577 34.7918C167.06 34.5243 166.485 34.3047 165.895 34.3451C166.831 33.0555 167.025 31.3595 166.642 29.7745C166.647 29.7846 166.652 29.7972 166.657 29.8073C167.484 31.0087 168.382 31.3847 169.669 31.627C169.772 31.6674 169.88 31.6951 169.994 31.685ZM152.414 22.4151C153.151 21.9987 154.803 21.5873 154.304 20.4516C153.719 19.6238 152.346 20.2118 151.103 21.0245C150.704 20.6358 150.391 20.1715 150.116 19.6768C149.859 19.22 149.486 18.8313 149.281 18.3468C149.064 17.4533 149.264 16.5397 149.501 15.6589C150.177 13.6348 152.203 12.33 154.193 11.8126C155.446 11.5401 156.859 11.5098 157.969 12.277C158.441 12.6026 158.925 12.9307 159.311 13.3622C159.45 13.4783 159.568 13.7963 159.763 13.8897C159.952 14.0058 160.201 13.9932 160.388 13.8796C160.656 13.7433 160.663 13.4279 160.789 13.1957C161.498 12.5622 162.492 12.1862 163.445 12.3477C166.364 12.7893 164.815 15.0683 166.584 14.8639C169.517 14.8841 171.318 17.9985 171.603 20.6333C171.717 22.6372 170.662 24.6007 169.376 26.0948C169.346 26.1352 169.308 26.1731 169.27 26.2134C168.042 24.2499 166.258 22.6524 164.275 21.4662C164.036 21.2996 162.875 20.7166 163.07 21.4081C163.324 21.6984 163.703 21.9104 164.003 22.1678C164.646 22.6675 165.199 23.2581 165.726 23.8764C166.298 24.4367 166.881 24.9944 167.282 25.6986C168.266 27.1876 168.879 28.9114 169.162 30.668C168.089 30.4282 167.234 29.9133 166.541 28.7625C166.473 28.6868 166.24 28.3385 166.084 28.2729C165.264 26.6703 163.806 25.4311 161.947 25.2544C162.045 25.1787 162.129 25.0853 162.174 24.9717C162.262 24.7421 162.197 24.4922 162.043 24.3155C161.866 23.9647 161.657 23.619 161.276 23.465C159.013 22.3773 156.287 22.2486 154.455 24.2171C154.332 24.3357 154.195 24.4417 154.067 24.5553C151.113 25.7541 148.522 27.8489 146.673 30.4459C146.428 30.827 146.224 31.2686 145.934 31.5589C147.246 27.0185 148.108 24.8758 152.414 22.4176V22.4151ZM145.571 32.2908C148.961 29.7518 153.093 23.0107 158.279 25.2115C153.862 27.1876 149.279 36.5686 156.69 37.3712C157.154 37.4746 159.124 37.3813 159.995 36.9875C160.552 37.0582 161.11 37.1491 161.662 37.2324C161.839 37.833 161.137 37.9693 160.744 38.199C160.154 38.5195 159.667 38.9814 159.129 39.3801C156.08 41.8332 153.754 39.7789 150.522 40.372C147.649 41.0231 145.207 42.8428 142.418 43.7539C140.41 44.4681 138.296 44.8164 136.222 45.2782C135.723 45.3868 135.183 45.518 134.681 45.6719C134.469 45.7426 134.222 45.783 134.033 45.9041C134.852 41.9317 132.996 36.4878 132.451 32.5457C136.797 32.2453 141.224 32.4523 145.571 32.2933V32.2908ZM123.163 34.0852C123.534 29.6509 127.807 30.3727 129.825 30.5948C130.289 30.6452 130.705 30.9456 130.842 31.3923C131.994 35.2158 134.262 45.5306 132.607 46.7723C130.953 48.0115 125.923 48.2134 124.823 46.9969C123.726 45.7805 122.835 37.3156 123.163 34.0877V34.0852ZM141.293 73.6129C140.349 73.9915 139.396 74.3852 138.578 74.996C137.847 75.5411 137.168 76.1544 136.454 76.7197C134.9 78.1659 133.324 79.5893 131.873 81.144C129.674 83.5971 127.434 86.0477 125.388 88.6447C123.415 90.8858 117.616 99.1917 117.26 99.492C117.074 99.6485 116.743 99.5829 116.693 99.3456C115.767 94.8432 118.325 82.8551 118.441 82.4235C118.547 82.0222 120.759 69.7389 120.196 67.311C119.533 65.5065 118.191 64.0629 117.351 62.3442C116.181 60.3706 115.204 58.2884 114.319 56.1735C113.817 54.7778 113.169 53.4528 112.823 52.0016C112.563 50.8028 112.248 49.6192 111.953 48.4305C111.532 46.8203 111.474 44.993 111.032 43.3627C110.762 42.2471 110.139 41.1947 110.306 40.0111C110.487 39.312 110.782 38.5725 111.418 38.1586C112.447 37.4822 113.56 36.9421 114.637 36.3465C116.839 35.236 119.278 34.6354 121.745 34.277C121.768 38.2116 122.3 42.3001 122.517 43.7892C122.88 47.6304 124.376 49.1346 127.827 49.2532C128.47 51.1637 131.139 56.7969 131.51 57.7433C131.735 58.2329 131.334 58.7604 131.909 58.937C132.093 58.9875 132.292 58.9749 132.466 58.8992C133.773 58.2607 128.892 49.334 128.861 49.1548C128.849 49.0766 133.238 49.0917 133.707 47.108C136.984 47.3578 141.585 50.1265 142.41 50.7448C142.728 50.9896 143.033 51.2521 143.343 51.5095C143.154 51.8502 143.046 52.2313 142.95 52.6099C142.715 53.6043 142.834 60.6734 143.941 60.8349C143.941 60.84 144.62 60.8652 144.774 60.8122C144.029 63.013 144.685 65.0674 145.374 66.1501C144.345 68.0707 143.313 69.9534 142.221 71.8665C142.001 72.3182 141.482 72.9971 141.293 73.6205V73.6129ZM143.23 72.9239C143.467 72.4469 145.417 68.3332 145.81 66.6245C146.716 67.3236 147.849 67.7804 148.976 67.9344C149.168 67.9622 149.355 67.9798 149.541 67.9748C150.406 67.9596 151.113 67.7628 151.693 67.47C151.706 68.2726 151.784 75.1626 152.021 77.7949C152.026 78.0851 152.036 78.3754 152.044 78.6631C151.519 77.328 149.935 73.5751 143.227 72.9239H143.23ZM151.683 104.603C152.23 101.352 152.833 98.1014 153.164 94.8179C153.338 93.0538 153.565 91.2972 153.613 89.5255C153.688 87.8548 153.459 86.1966 153.285 84.541C153.459 82.0677 153.497 79.6272 153.441 77.0983C153.249 73.7896 152.959 70.491 152.523 66.9223C154.019 65.9381 154.084 64.6005 154.168 64.2925C154.203 64.2976 154.236 64.3026 154.276 64.3001C155.209 64.2496 155.989 63.5935 156.821 63.225C157.745 62.753 158.484 62.0363 159.256 61.3624C159.316 61.3119 159.379 61.2564 159.44 61.1958C160.373 61.8066 161.281 62.4577 162.164 63.1215C163.958 64.4414 165.582 65.981 167.542 67.0662C168.982 67.8057 170.413 68.5855 171.919 69.1862C172.04 69.2341 172.158 69.2846 172.279 69.3351C171.712 69.5774 170.198 70.5036 169.944 70.5844C169.454 70.7888 169.457 71.1573 169.908 71.4652C170.521 71.8841 172.431 70.756 173.024 70.4254C175.347 69.1282 179.259 68.6108 179.413 68.5452C179.855 69.1029 180.324 69.638 180.77 70.1932C181.35 71.0765 182.125 71.8766 182.781 72.7195C183.482 73.6306 184.463 74.3474 185.631 74.4635C185.76 74.4736 185.889 74.4786 186.015 74.4786C187.493 74.4786 188.875 73.8073 190.341 73.6458C192.561 73.2596 194.72 72.558 196.735 71.5434C196.925 71.4349 197.124 71.3289 197.326 71.2179C197.772 72.346 198.254 73.4716 198.395 74.6856C198.688 81.1213 190.084 83.8116 185.117 85.442C181.542 86.5777 177.892 87.451 174.282 88.463C172.759 88.9249 171.222 89.2908 169.671 89.6542C169.341 89.7577 168.819 89.8107 168.354 89.9344C168.685 87.7765 169.033 85.5657 169.29 83.4179C169.502 81.8229 169.696 80.2253 169.802 78.6176C169.792 78.1507 170.097 76.9545 169.648 76.6945C169.588 76.6768 169.512 76.7273 169.51 76.7879C169.048 78.2265 168.604 79.6776 168.382 81.1793C167.635 85.4571 167.022 89.7325 166.48 94.0532C166.099 97.1398 165.814 100.237 165.337 103.313C165.335 103.495 165.269 103.745 165.199 104.01C163.458 104.214 161.72 104.449 159.987 104.729C157.795 104.976 155.618 105.327 153.466 105.812C152.737 105.986 152.006 106.152 151.284 106.359C151.423 105.776 151.564 105.193 151.69 104.608L151.683 104.603ZM196.102 164.008C195.961 164.283 195.535 165.237 195.631 165.426C194.939 165.26 185.717 163.675 185.868 162.075C186.701 162.118 196.264 162.867 196.102 164.008ZM192.079 160.263C193.022 160.856 194.175 160.939 195.134 161.479C195.499 161.689 195.792 162.009 195.999 162.378C193.794 161.764 186.961 161.09 185.823 161.106C185.818 161.085 185.813 161.065 185.805 161.045C186.058 159.054 186.441 156.744 186.602 154.741C186.605 154.741 186.607 154.735 186.613 154.733C187.14 154.455 187.707 154.165 188.32 154.135C188.85 154.102 189.521 154.029 190.041 154.402C190.56 154.776 190.568 155.212 190.528 155.75C190.472 156.472 189.521 158.938 192.084 160.26L192.079 160.263ZM205.39 116.947C205.612 117.938 205.716 118.948 205.721 119.965C205.814 122.623 205.368 125.273 204.863 127.882C204.591 129.598 204.152 131.282 203.708 132.958C203.234 134.85 202.429 137.134 201.695 138.954C200.507 141.862 199.079 144.027 197.237 146.538C195.719 148.545 194.127 150.475 192.636 152.504C192.243 153.009 191.859 153.524 191.506 154.057C191.307 153.547 190.982 153.098 190.475 152.83C189.587 152.325 188.383 152.464 187.511 153.014C187.417 152.166 187.178 151.316 187.082 150.473C186.403 146.528 186.03 142.528 186.128 138.507C186.105 134.058 186.153 129.611 186.348 125.167C186.365 124.591 186.358 124.028 186.348 123.466C186.605 123.185 186.824 122.92 186.945 122.807C187.826 121.858 188.764 121.002 189.816 120.22C190.353 119.783 191.284 119.571 191.375 118.781C191.471 118.012 190.558 117.449 189.909 117.865C188.883 118.461 187.405 119.786 186.282 121.184C186.269 120.684 186.264 120.172 186.269 119.637C186.222 119.165 186.32 118.607 186.045 118.201C185.762 117.979 185.498 118.347 185.394 118.59C184.847 120.488 184.688 122.471 184.602 124.435C184.42 126.123 184.297 127.804 184.211 129.485C180.137 127.115 176.028 124.808 171.848 122.63C166.074 119.836 160.265 117.111 154.41 114.483C152.823 113.774 151.224 113.103 149.619 112.444C150.116 110.811 150.581 109.168 150.999 107.515C151.829 107.601 153.073 107.412 153.565 107.409C155.209 107.212 156.854 107.008 158.506 106.869C160.429 106.75 162.293 106.377 164.217 106.213C166.654 105.966 169.088 105.69 171.502 105.259C175.914 104.694 180.354 104.418 184.796 104.237C188.134 104.075 191.499 104.022 194.773 104.789C195.994 105.153 197.154 105.685 198.36 106.089C199.783 106.566 200.893 107.636 201.856 108.752C202.452 109.411 203.032 110.084 203.486 110.849C204.538 112.744 205.128 114.804 205.39 116.952V116.947Z" fill="black"/>
            <path d="M143.345 44.5806C143.345 44.5806 143.353 44.5806 143.356 44.578C143.353 44.578 143.348 44.5806 143.345 44.5806Z" fill="black"/>
            <path d="M167.746 37.261C167.746 37.2559 167.744 37.2509 167.741 37.2458C167.741 37.2509 167.746 37.2585 167.746 37.261Z" fill="black"/>
        </g>
    </g>
    <defs>
        <clipPath id="clip0_12906_16446">
            <rect width="316" height="177.75" fill="white"/>
        </clipPath>
        <clipPath id="clip1_12906_16446">
            <rect width="208.472" height="156.354" fill="white" transform="translate(53.4895 10.6979)"/>
        </clipPath>
    </defs>
</svg>
