<svg xmlns="http://www.w3.org/2000/svg" width="316" height="178" fill="none"><g clip-path="url(#a)"><path fill="#F6F6F6" d="M0 0h316v177.75H0z"/><path fill="#fff" fill-rule="evenodd" d="M150.138 26.296c24.65-1.642 49.801 1.517 69.3 12.093 22.041 11.953 46.872 28.973 41.511 48.006-5.265 18.688-41.514 21.519-64.141 32.329-15.789 7.543-28.28 16.84-46.67 20.611-28.725 5.892-64.047 20.758-85.929 6.584-21.775-14.104-1.682-39.279 4.198-59.524 4.252-14.64 9.808-28.715 24.589-39.584 15.293-11.245 34.942-19.036 57.142-20.515" clip-rule="evenodd"/><g clip-path="url(#b)"><path fill="#000" d="M144.641 123.417c-3.527 7.402-3.951 3.053-7.429 3.291-5.123 1.9-5.757-19.113-6.7-22.442-3.057-.487-7.994-1.577-10.892-2.67-.714-.27-1.474-.371-2.233-.467-3.09-.391 14.111-20.127 18.458-22.992 26.736-17.621 14.477 33.352 8.796 45.28"/><path fill="#fff" d="M140.344 132.677c.156-1.386.408-2.759.832-4.087-.953-.85-2.109-1.751-3.436-1.221-.441.149-.855.368-1.286.535.265.694.134 1.527.156 2.254-.06 1.077-.058 2.1-.386 3.107-.305 1.148-.719 2.337-.678 3.535.315 1.441 1.347 2.928 2.88 3.178 1.771.346 3.313-.76 3.086-2.64-.215-.886-.856-1.588-1.186-2.425-.255-.72-.03-1.5.018-2.236m23.46-96.728c-.015.005-.025.015-.041.02.27-.015.671 0 .939.083 1.004.444 1.642 1.452 1.826 2.532.013.164.111.512.149.797.381.242.694.477.88.618.606-.042 1.542.255 1.991.303-.866-.807-1.446-1.9-1.796-3.04q-.001-.008-.005-.016 0 .007.005.015a4.4 4.4 0 0 1-.265-1.368c-.227-.06-.422-.194-.621-.295-.497-.255-.999-.487-1.554-.583-.408.376-.91.687-1.498.929l-.005.002zm-4.396-11.304c.199 0 .401-.012.58.018.27.048.547.028.802-.078a.5.5 0 0 1 .149-.046c.025-.03.04-.07.071-.096-.296-.459-.964-.608-1.464-.774-.951-.369-2.053-.43-3.027-.117-.373.109-.696.29-1.006.495a15 15 0 0 1 1.085-.28c.582-.111 2.454.333 2.81.878m-14.583 35.237c1.279-.523 4.316-2.393 4.47-2.464-1.935-1.342-3.227-3.985-3.459-6.226v-.033c-.567.382-1.208.66-1.697 1.116-.374.785-.195 5.449.03 7.223a.48.48 0 0 0 .656.384m13.026-33.412a8 8 0 0 1 1.647-.85 2 2 0 0 1-.681-.258l-.028.013c-.179.396-.834.9-1.006 1.09.015-.015.025-.023.04-.035q-.111.128-.227.257c.084-.073.167-.146.258-.217z"/><path fill="#FED980" d="M146.076 65.613c1.711 2.35 4.982 1.458 6.075.477 1.283-1.151 1.031-2.368 1.041-2.436-.148-.164-1.581-5.318-1.538-5.762a10 10 0 0 1-.626-.159c-.018.053-3.784 2.209-5.572 2.822-.003.018 0 .038-.01.055q0-.007.005-.017c-.129.787-1.088 2.667.623 5.014z"/><path fill="#fff" d="M155.637 54.178c-2.391-.028-4.064-1.875-5.673-3.412-.606-.72-1.365-1.363-1.857-2.143-.086-.147-.164-.295-.244-.442-.581 1.439-.73 1.747-1.282 2.978 0 .238.865 3.125 2.278 4.67.711.78 2.813 1.239 3.867 1.276 1.655.06 4.084.066 4.117.066.144-.613.277-1.603.524-2.158.076-.146.195-.593.349-.951a6.3 6.3 0 0 1-2.079.113z"/><path fill="#fff" d="M159.429 40.564c-1.211.84-2.717 1.15-4.17 1.055-1.014-.028-1.983-.419-3.004-.434-.906-.023-1.786.257-2.634.55-.784.366-1.559.757-2.336 1.14.442 1.833.805 3.688 1.774 5.303 4.406 5.89 7.118 5.05 8.15 4.94 4.614-.952 7.083-4.47 8.743-8.6.055-.133.088-.292.131-.443-.141-.15-.275-.303-.421-.445-1.171-.981-3.792-2.74-2.876-4.318.724-1.17 2.003-.908 3.083-.386-.159-.64-.341-1.26-.805-1.772-.366-.376-.739-.802-1.274-.898a1.8 1.8 0 0 0-.532-.05c-.389.211-.777.433-1.186.592.137.13.195.326.227.508.114.454-.08.898-.428 1.194-.323.305-.747.48-1.068.79-.441.441-.862.906-1.372 1.272zm-2.954 7.652c-1.186-.298-2.54-.954-3.012-2.153-.111-.23-.164-.633.179-.673.393.005.658.36.901.628.396.442.898.755 1.42 1.017.827.48 1.773.404 2.674.242a.39.39 0 0 1 .416.296c.212.752-2.122.762-2.578.64zm3.837-4.53c-.129.124-.356.146-.495.025-.572-.691-.817-1.252-1.859-1.032-.255.04-2.371.457-1.693-.204.361-.27.84-.326 1.272-.422.635-.131 1.311-.136 1.889.197.293.169.545.467.757.72.187.188.371.491.131.716zm22.043 26.431c1.052 1.183 2.252 2.831 3.705 2.932.919-.058 2.293-.396 3.181-.593 2.717-.537 7.353-2.536 7.411-2.556.086-.028 1.438-.73 1.264-1.941a51 51 0 0 0-.615-1.842c-.391-1.318-2.104-5.313-2.906-5.69s-2.162.092-2.17.094c-.08.015-10.761 4.455-12.738 5.53a111 111 0 0 0 2.865 4.068zm12.272-9.025.005.005.002.002-.015-.012.005.005zm-51.242-16.528-.03.012h.005l.028-.01z"/><path fill="#FED980" d="M162.409 26.621c-6.359-1.469-8.051 8.692-1.432 9.09 5.395.387 6.884-7.944 1.432-9.09"/><path fill="#fff" d="M153.801 33.85c1.08 2.3 3.327 2.307 5.527 2.264-3.173-1.244-4.488-5.575-2.613-8.417-1.529 1.785-3.033 3.842-2.914 6.153"/><path fill="#FED980" d="M171.752 33.395q-.174.2-.328.414a7 7 0 0 0-.321.538q-.107.216-.191.439a6 6 0 0 0-.172.588 7 7 0 0 0-.101.656 6 6 0 0 0-.02.56q.01.254.048.503c.035.212.088.421.149.628q.097.302.229.593c.086.174.179.34.257.467q.182.272.389.525.208.237.439.452.243.215.509.404.242.162.495.295.228.114.456.202h.008q.228.08.441.136.265.043.525.101c.119.018.235.043.356.056.252 0 .84-.048 1.034-.081a8 8 0 0 0 .709-.174q.355-.119.696-.273.265-.128.51-.285.234-.156.449-.338c.138-.124.272-.25.355-.344l.053-.058.008-.007q.195-.224.368-.47a5 5 0 0 0 .257-.431 6 6 0 0 0 .258-.586l.017-.05q.096-.28.164-.566c.043-.204.079-.408.099-.615q.022-.3.015-.598a6 6 0 0 0-.071-.647 6 6 0 0 0-.146-.613 5 5 0 0 0-.217-.563 5 5 0 0 0-.28-.5 5 5 0 0 0-.33-.438 5 5 0 0 0-.356-.364 6 6 0 0 0-.436-.348 7 7 0 0 0-.53-.323 6 6 0 0 0-.578-.255 6 6 0 0 0-.552-.162 6 6 0 0 0-.621-.096c-.197-.012-.388-.017-.585-.012a7 7 0 0 0-.605.065q-.313.06-.619.15l-.037.012q-.319.104-.628.245-.301.146-.586.323a6 6 0 0 0-.492.366 6 6 0 0 0-.499.482z"/><path fill="#fff" d="M195.631 165.423c-.096-.189.33-1.141.471-1.418.159-1.141-9.404-1.891-10.234-1.934-.151 1.601 9.071 3.185 9.763 3.352"/><path fill="#FED980" d="M152.021 77.795c-.237-2.632-.318-9.525-.328-10.325-.58.296-1.286.493-2.151.505a3.6 3.6 0 0 1-.565-.04 6.75 6.75 0 0 1-3.166-1.31c-.394 1.711-2.344 5.822-2.581 6.3 6.708.65 8.289 4.403 8.817 5.738q-.014-.436-.023-.868z"/><path fill="#fff" d="M159.98 104.726c1.733-.28 3.471-.515 5.211-.719.071-.268.137-.515.139-.697.477-3.074.762-6.173 1.143-9.26.542-4.323 1.155-8.596 1.902-12.874.222-1.501.668-2.952 1.127-4.391.006-.06.079-.111.139-.093.449.26.144 1.456.154 1.923-.103 1.608-.3 3.203-.512 4.8-.257 2.148-.605 4.359-.936 6.516.464-.12.986-.174 1.317-.28 1.551-.363 3.088-.729 4.611-1.19 3.61-1.01 7.26-1.886 10.834-3.022 4.965-1.628 13.572-4.318 13.279-10.756-.141-1.214-.623-2.34-1.069-3.468a24 24 0 0 0-.591.326 23 23 0 0 1-6.394 2.102c-1.466.161-2.848.833-4.327.833q-.19 0-.383-.015c-1.168-.114-2.149-.833-2.85-1.744-.656-.846-1.431-1.646-2.011-2.527-.446-.555-.916-1.09-1.357-1.648-.154.063-4.069.58-6.39 1.88-.59.331-2.502 1.46-3.115 1.04-.452-.308-.454-.676.035-.88.255-.081 1.769-1.007 2.336-1.25l-.361-.149c-1.505-.6-2.936-1.38-4.376-2.12-1.958-1.085-3.585-2.624-5.378-3.944a53 53 0 0 0-2.725-1.926c-.058.06-.123.114-.184.167-.772.673-1.511 1.39-2.434 1.862-.832.369-1.612 1.025-2.545 1.075-.041.003-.073-.002-.109-.007-.083.308-.148 1.645-1.644 2.63.439 3.568.726 6.867.918 10.176.053 2.528.018 4.969-.157 7.442.175 1.656.402 3.314.328 4.985-.048 1.771-.275 3.53-.449 5.292-.33 3.284-.933 6.532-1.48 9.785-.126.585-.268 1.168-.406 1.751.721-.207 1.453-.373 2.182-.547a60 60 0 0 1 6.52-1.083zm-15.206-43.919c-.154.052-.83.027-.832.022-1.105-.161-1.226-7.23-.992-8.225.096-.378.205-.757.394-1.1-.308-.258-.613-.52-.933-.765-.828-.618-5.429-3.387-8.703-3.637-.472 1.987-4.859 1.969-4.846 2.047.028.18 4.911 9.103 3.605 9.745a.87.87 0 0 1-.558.037c-.575-.176-.174-.704-.398-1.193-.371-.944-3.04-6.58-3.683-8.49-3.451-.12-4.947-1.623-5.31-5.465-.217-1.491-.749-5.58-.772-9.512-2.467.361-4.906.96-7.109 2.07-1.077.595-2.189 1.136-3.218 1.812-.636.414-.931 1.15-1.113 1.852-.166 1.184.457 2.236.727 3.352.441 1.63.499 3.458.92 5.068.296 1.189.611 2.372.871 3.571.345 1.451.994 2.779 1.496 4.172.882 2.115 1.861 4.197 3.032 6.17.84 1.72 2.182 3.163 2.845 4.967.563 2.428-1.65 14.712-1.756 15.113-.113.431-2.674 12.42-1.748 16.922.048.237.381.303.568.146.356-.3 6.155-8.603 8.127-10.847 2.046-2.597 4.286-5.048 6.486-7.5 1.448-1.555 3.027-2.979 4.581-4.425.716-.565 1.392-1.179 2.124-1.724.82-.61 1.771-1.004 2.714-1.383.189-.623.709-1.305.928-1.754a237 237 0 0 0 3.154-5.716c-.689-1.083-1.347-3.137-.601-5.338z"/><path fill="#fff" d="M132.604 46.772c1.655-1.24-.613-11.557-1.766-15.38-.133-.447-.552-.747-1.016-.798-2.018-.22-6.289-.944-6.662 3.49-.328 3.228.56 11.693 1.659 12.91 1.098 1.216 6.13 1.014 7.785-.225zm57.921 108.979c.043-.538.032-.974-.487-1.348-.52-.374-1.191-.3-1.721-.268-.61.031-1.18.321-1.707.599l-.01.007c-.162 2.002-.545 4.313-.798 6.305q.011.03.018.06c1.138-.017 7.971.659 10.176 1.272a2.33 2.33 0 0 0-.865-.898c-.959-.54-2.112-.624-3.055-1.217-2.563-1.322-1.612-3.788-1.556-4.51z"/><path fill="#000" d="M198.359 106.086c-1.209-.401-2.369-.936-3.587-1.3-3.275-.767-6.64-.716-9.977-.552-4.442.181-8.882.456-13.294 1.022-2.411.431-4.848.706-7.285.954-1.925.166-3.786.537-5.711.656-1.65.141-3.297.343-4.942.54-.494.003-1.735.194-2.565.106-.419 1.656-.88 3.296-1.38 4.929a178 178 0 0 1 4.79 2.039 666 666 0 0 1 17.439 8.147c4.177 2.178 8.286 4.487 12.363 6.855.088-1.681.209-3.362.391-5.05.086-1.966.244-3.948.792-5.846.103-.242.368-.61.651-.388.272.406.174.964.224 1.436-.007.535 0 1.047.013 1.547 1.12-1.398 2.598-2.723 3.627-3.319.649-.419 1.562.146 1.466.916-.088.79-1.019 1.002-1.559 1.439a21 21 0 0 0-2.871 2.587c-.121.113-.34.378-.598.658.013.563.018 1.126 0 1.701-.194 4.445-.242 8.892-.219 13.341-.098 4.021.275 8.023.953 11.966.096.843.336 1.693.429 2.541.873-.55 2.076-.689 2.964-.184.51.267.835.714 1.032 1.226.353-.532.734-1.047 1.13-1.552 1.491-2.026 3.085-3.96 4.601-5.966 1.844-2.511 3.272-4.677 4.458-7.584.731-1.822 1.538-4.104 2.013-5.997.444-1.678.88-3.361 1.155-5.075.504-2.61.951-5.26.858-7.917a13.8 13.8 0 0 0-.331-3.019c-.262-2.145-.853-4.207-1.904-6.102-.455-.765-1.035-1.439-1.63-2.097-.964-1.116-2.074-2.186-3.496-2.663z"/><path fill="#fff" d="M158.133 60.935c-.596-.866-.929-3.034-.941-3.037-1.241.278-3.986.321-4.536.263l-.086-.018c.051.129 1.728 5.182 1.779 5.298.285-.134 3.602-2.358 3.784-2.504zm20.36-20.148a5.4 5.4 0 0 1-1.725.81 4.8 4.8 0 0 1-1.393.141 2 2 0 0 1-.3-.007 3.1 3.1 0 0 1-1.092.083c-1.587-.121-3.115-.641-4.7-.79-.181-.015-.36-.04-.542-.063.55.444 1.113.863 1.741 1.138.719.371 1.528.48 2.325.52.719-.063 1.38-.35 1.998-.71.157-.08.348-.052.457.092.262.368-.202.605-.484.744-.861.482-1.87.732-2.856.619h-.04c-.026 0-.051-.005-.076-.005.028 0 .038.005.055.005-1.732-.03-3.291-.942-4.555-2.072-.704-.586-1.287-1.237-2.038-1.684-.921-.131-1.221-.19-1.665.119-.641.699 1.205 1.774 1.649 2.23.732.574 1.32 1.285 1.958 1.957a29 29 0 0 1 2.686 2.814c1.004 1.178 1.948 2.397 2.639 3.788.89 1.403 1.713 2.847 2.543 4.285 1.18 1.797 2.303 3.635 3.584 5.363.684.94 1.41 1.845 2.139 2.746.124.157.26.31.369.483 1.854-.861 3.821-1.52 5.67-2.363 1.554-.701 3.176-1.219 4.811-1.706.05-.008.096-.023.144-.033-1.365-1.355-2.576-2.86-3.817-4.328-2.051-2.37-3.96-4.866-5.633-7.518-1.019-1.596-2.121-3.148-3.012-4.818-.262-.525-.585-1.023-.787-1.575a1 1 0 0 1-.058-.258z"/><path fill="#000" d="M154.067 24.557c.129-.113.265-.22.389-.338 1.831-1.968 4.558-1.84 6.821-.752.381.154.59.5.767.85a.65.65 0 0 1 .131.657.7.7 0 0 1-.227.282c1.861.174 3.317 1.416 4.137 3.019.159.068.388.414.456.49.696 1.15 1.549 1.665 2.621 1.905-.282-1.757-.898-3.478-1.879-4.97-.404-.701-.984-1.261-1.557-1.822-.527-.618-1.079-1.209-1.722-1.708-.301-.258-.679-.467-.934-.76-.192-.691.966-.11 1.206.058 1.983 1.186 3.766 2.784 4.995 4.747q.058-.059.106-.118c1.286-1.494 2.34-3.458 2.227-5.462-.283-2.635-2.086-5.749-5.02-5.77-1.768.205-.222-2.074-3.138-2.515-.953-.162-1.945.212-2.656.848-.126.234-.134.547-.401.684a.62.62 0 0 1-.626.01c-.194-.094-.315-.414-.451-.528-.386-.431-.868-.76-1.342-1.085-1.11-.767-2.52-.737-3.777-.464-1.99.517-4.018 1.822-4.692 3.846-.237.88-.436 1.792-.219 2.688.204.484.578.873.835 1.33.275.497.588.961.986 1.348 1.244-.813 2.616-1.401 3.201-.573.497 1.135-1.155 1.544-1.889 1.963-4.306 2.46-5.171 4.601-6.48 9.141.292-.29.494-.732.739-1.113 1.851-2.597 4.439-4.691 7.393-5.89z"/><path fill="#fff" d="m166.657 29.806-.016-.032c.384 1.585.19 3.28-.746 4.57.59-.04 1.165.177 1.682.447.013-.07.02-.144.036-.215.106-.39.358-.704.527-1.062.043-.101.181-.212.262-.083-.285 1.375-.285 2.607.162 3.967.343 1.063.842 2.04 1.753 2.703.184.131.386.237.557.386q.006.008.013.013c.393.04.789.068 1.185.096q-.14-.105-.277-.212a5.5 5.5 0 0 1-1.324-1.696c-.031-.063-.063-.127-.071-.147a5.7 5.7 0 0 1-.361-.969 7 7 0 0 1-.184-1.02c-.073-.686 0-1.38.194-2.041.21-.714.55-1.378 1.002-1.969a5.3 5.3 0 0 1 1.188-1.105c-.573.088-1.13.31-1.705.31q-.2.001-.404-.04l-.136-.023a.7.7 0 0 1-.326-.058c-1.286-.24-2.184-.618-3.011-1.82M134.032 45.9c.189-.12.436-.161.648-.232a20 20 0 0 1 1.541-.393c2.074-.465 4.185-.813 6.196-1.525 2.789-.91 5.231-2.728 8.104-3.382 3.232-.593 5.558 1.464 8.607-.992.538-.396 1.027-.86 1.615-1.18.393-.233 1.095-.367.918-.967-.552-.084-1.11-.177-1.667-.245-.871.394-2.841.487-3.305.383-7.414-.8-2.828-10.183 1.589-12.16-5.186-2.2-9.318 4.541-12.708 7.08-4.347.16-8.774-.05-13.12.252.545 3.943 2.401 9.386 1.582 13.359z"/><path fill="#000" d="m194.637 61.098-.003-.003-.005-.005-.005-.005q.007.008.015.013zm-35.994-13.817c-.903.162-1.849.238-2.674-.242-.525-.265-1.027-.578-1.42-1.017-.24-.268-.507-.626-.901-.628-.343.04-.29.444-.179.673.474 1.197 1.829 1.855 3.012 2.153.456.119 2.79.109 2.578-.64a.386.386 0 0 0-.416-.296zm.783-5.027c-.578-.333-1.254-.328-1.89-.197-.431.093-.91.149-1.271.421-.676.662 1.438.245 1.693.205 1.044-.217 1.289.34 1.859 1.032.139.121.366.101.494-.025.24-.225.056-.525-.131-.717-.212-.252-.464-.55-.757-.72z"/><path fill="#000" d="M200.209 105.11c-8.869-4.684-28.661-1.792-33.734-1.244.056-.361.098-.692.159-.894.202-1.463.494-2.942.623-4.424.313-2.3.515-4.613.832-6.913l.021-.126c.267-.005.557-.083.802-.133 1.271-.225 2.543-.54 3.799-.869 2.447-.709 4.921-1.31 7.381-1.976 4.23-1.113 8.516-2.223 12.464-4.147 4.016-1.74 8.034-4.954 7.64-9.78a20 20 0 0 0-1.241-4.56c.27-.31.449-.676.54-1.128.268-1.322-3.178-9.345-4.591-9.99-.696-.352-1.814-.065-1.937-.02a33 33 0 0 1-.749-.83c-1.085-1.18-2.157-2.48-3.229-3.694a57 57 0 0 1-4.692-6.126c-1.572-2.38-2.941-4.98-4.778-7.182-.154-.132-.366-.482-.588-.619a5.7 5.7 0 0 0 1.317-1.564 5.4 5.4 0 0 0 .669-2.095l.002-.026q0-.012.003-.025a5.9 5.9 0 0 0-.094-1.673c-.149-.71-.406-1.423-.857-1.989-1.892-2.367-4.011-2.521-4.105-2.531-.239-.255-.802-.24-1.127-.303-2.069-.139-3.325.437-4.006.588.174-.959-.305-2.445-.61-3.018-.089-.21-.195-.41-.295-.614.138-.149.267-.31.37-.434.659-.797 1.262-1.653 1.718-2.584.744-1.557 1.125-3.316.608-5.012-.678-2.741-2.966-5.43-5.973-5.406-.83-2.67-4.591-2.946-6.531-1.333-1.847-1.686-3.824-2.1-6.218-1.439-3.353.846-6.198 3.799-5.86 7.415.088.654.489 1.192.822 1.742.328.605.747 1.221 1.307 1.615-.507.391-.928.755-1.17.972-2.452 2.09-3.979 5.312-3.361 8.555 0 .157.026.351.134.457-.207.111-.451.154-.777.063 0-.002.008-.005.01-.01-4.185-.058-8.395-.815-12.607-.217-.512-2.837-9.891-3.412-10.237 1.073-3.123.515-10.191 2.206-12.06 5.272-.54.717-1.062 1.555-1.1 2.476-.144 1.547.762 2.887 1.039 4.371.828 4.909 2.19 9.866 4.357 14.358.822 1.936 1.909 3.738 2.966 5.552.575.866 1.13 1.744 1.504 2.721.721 2.663.01 5.429-.401 8.116-.29 1.732-1.938 10.517-2.51 13.157-.555 2.923-2.167 10.52-.573 12.917.858 1.292 2.137.487 2.185.431 1.397-1.567 2.391-3.457 3.66-5.115 2.479-3.466 4.982-6.95 7.683-10.247 1.986-2.062 3.905-4.195 6.024-6.12 2.051-1.77 3.925-3.73 6.35-5.038 1.687-.711 3.67-1.332 5.458-.55 1.388.376 2.235 1.573 2.962 2.73.736 1.376 1.067 2.971 1.445 4.519.217 1.367.227 2.758.409 4.133.451 3.647-.164 7.314-.595 10.941-.389 3.819-.964 7.615-2.054 11.302-.822 2.748-1.423 5.557-2.474 8.235-.798 2.309-1.915 4.568-2.974 6.791-.656 1.111-1.06 2.37-1.622 3.534-.558-.487-1.184-.921-1.86-1.196-1.18-.316-2.633-.099-3.556.736-.354-.61-.681-1.264-1.002-1.892-.981-1.924-1.526-4.018-2.066-6.098-.502-1.968-.873-3.962-1.279-5.951-.396-2.584-.613-5.199-.875-7.801-.023-2.039-.035-4.076-.109-6.113.006-1.9.124-3.808-.088-5.704-.045-.393-.063-.812-.237-1.17-.156-.248-.499-.29-.691-.059-.174.253-.058.586-.116.874-.22 1.678-.507 3.359-.669 5.047-.153 2.219-.126 4.45-.151 6.671.121 2.256.61 4.479.848 6.726.161 1.496.582 2.942.875 4.416.759 3.46 1.506 6.991 3.118 10.171.313.573.62 1.136.984 1.681.098.149.211.285.345.399a1 1 0 0 0-.055.25c.015.739-.003 1.479.02 2.218a1.8 1.8 0 0 1-.048.396c-.033.366-.013.735-.119 1.093-.08.422-.259.803-.413 1.199-.169.648-.245 1.234-.394 1.938-.136.674-.348 1.355-.262 2.052.363 2.09 1.935 4.338 4.212 4.452 1.723.151 4.037-.553 4.286-2.534.449-1.474-.093-2.95-.943-4.169-.222-.275-.288-.598-.235-.944.063-.697.169-1.391.273-2.082.118-.72.222-1.444.363-2.158a7 7 0 0 1 .164-.636.64.64 0 0 0 .353-.278.96.96 0 0 0 .492-.56c.192-.361.346-.681.565-1.11 2.195-3.897 4.112-7.9 5.398-12.203.031-.093.058-.189.089-.283 3.887 1.598 7.739 3.281 11.522 5.124 8.136 3.578 15.945 7.801 23.617 12.268a150 150 0 0 0-.071 3.866c-.093 4.573-.091 9.086.706 13.621.144 1.138.404 2.254.654 3.372.133.49.194 1.045.507 1.459-.207.31-.235.868-.346 1.158-.537 1.797-.671 3.677-.785 5.535-.976 2.549 2.15 3.508 4.042 3.957 2.078.54 4.162 1.123 6.104 2.047 1.143.434 2.162-.381 2.543-1.436.151-.399.164-.838.076-1.262.38-1.06.068-2.1-.815-3.208-1.312-1.532-3.698-1.128-5.071-2.526-.295-.477-.254-1.015-.196-1.547.343-.038.653-.278.794-.613.346-.629.714-1.247 1.133-1.83.583-.785 1.092-1.519 1.69-2.309 1.902-2.562 8.398-8.137 11.5-23.951.709-3.619 2.498-18.442-6.372-23.123zm-58.697 32.229c.23 1.88-1.314 2.986-3.085 2.64-1.534-.253-2.566-1.737-2.881-3.178-.04-1.196.373-2.385.679-3.535.328-1.01.325-2.03.386-3.107-.023-.727.106-1.56-.157-2.254.432-.164.848-.386 1.287-.535 1.327-.528 2.479.373 3.435 1.221-.423 1.325-.676 2.701-.832 4.086-.048.737-.272 1.517-.018 2.237.328.837.972 1.539 1.186 2.425m50.718-76.822s1.367-.47 2.17-.093c.802.378 2.515 4.373 2.906 5.688.136.371.605 1.785.615 1.843.172 1.211-1.178 1.913-1.264 1.94-.058.018-4.694 2.017-7.411 2.557-.888.197-2.265.535-3.181.593-1.455-.1-2.654-1.749-3.705-2.933a112 112 0 0 1-2.866-4.068c1.978-1.075 12.661-5.514 12.739-5.53zm-13.806 6.633c-1.157.32-4.222 1.47-4.999 1.74-.24-.072-3.981-1.854-5.535-2.793-2.626-1.787-4.815-4.222-7.656-5.711q-.703-.392-1.422-.788c-.432-1.03-1.052-2.145-1.181-2.503.066-.212.124-.427.164-.644a18 18 0 0 0 .565-2.544c1.387-.419 2.689-1.211 3.781-2.11 1.34-1.11 2.25-2.569 3.209-4.005.184-.348 1.092-1.832 1.458-2.94.295.325.588.653.893.969.424.537.779 1.13 1.228 1.653 1.701 1.905 2.737 4.263 4.102 6.403 2.076 3.538 4.263 7.034 7.083 10.037a16 16 0 0 0-1.773 1.078c-.666.462-.136 1.85.081 2.16zm-35.078-22.568s.007 0 .01-.003l.03-.013q-.011.006-.028.01c1.073-.358 2.104-.817 3.126-1.307 0 .076 0 .152-.008.227.076 1.3.419 2.58.944 3.776-.041.093-.073.192-.106.283-.273.74-.57 1.459-.86 2.185-.248.172-.512.32-.782.457-.22.144-.729.313-1.188.528-1.592-1.257-8.02-4.12-8.834-4.321 2.124-.454 5.663-1.02 7.703-1.825q-.004 0-.01.003zm15.983-8.47c-2.2.04-4.448.033-5.527-2.264-.121-2.312 1.385-4.369 2.913-6.153-1.874 2.842-.56 7.173 2.614 8.417m3.08-9.492c5.451 1.146 3.963 9.477-1.433 9.09-6.619-.4-4.927-10.56 1.433-9.09m-4.627-.154c.174-.187.828-.694 1.007-1.09l.028-.013c.206.131.441.207.681.257-.533.2-1.08.475-1.648.85a6 6 0 0 0-.257.218l.227-.258a.2.2 0 0 1-.04.036zm-1.185-2.698c-.366.078-.727.177-1.085.28.31-.204.636-.386 1.007-.495.973-.313 2.076-.252 3.027.116.499.17 1.168.316 1.463.775-.031.026-.046.066-.071.096a.5.5 0 0 0-.149.046 1.4 1.4 0 0 1-.802.078c-.179-.03-.381-.018-.58-.018-.356-.545-2.23-.99-2.81-.878m10.264 11.831c.202.101.396.235.621.296.017.462.1.92.264 1.368.351 1.143.931 2.236 1.796 3.04-.449-.05-1.382-.345-1.99-.302a12 12 0 0 0-.88-.618c-.038-.286-.136-.634-.149-.798-.184-1.08-.82-2.087-1.826-2.531-.265-.084-.669-.099-.939-.084.015-.005.026-.015.041-.02l.005-.002a4.9 4.9 0 0 0 1.498-.929c.555.096 1.057.328 1.554.583zm-4.563 1.712c-.033-.185-.091-.382-.227-.508.408-.159.797-.38 1.185-.593a1.8 1.8 0 0 1 .533.05c.534.097.91.523 1.273.9.465.512.646 1.13.805 1.77-1.08-.524-2.358-.786-3.082.387-.916 1.577 1.705 3.337 2.875 4.318.147.144.28.298.422.444-.043.152-.076.31-.132.445-1.659 4.129-4.132 7.647-8.743 8.598-1.031.109-3.743.95-8.15-4.939-.969-1.618-1.329-3.473-1.773-5.302.776-.384 1.553-.775 2.335-1.141.848-.293 1.728-.573 2.634-.55 1.022.012 1.99.404 3.004.434 1.456.096 2.962-.217 4.17-1.055.51-.366.931-.83 1.372-1.272.321-.31.744-.485 1.067-.79.351-.293.545-.74.429-1.194zm-4.579 16.753c-.156.358-.272.805-.348.951-.247.555-.381 1.542-.524 2.158-.031 0-2.462-.005-4.117-.066-1.055-.038-3.156-.497-3.867-1.277-1.413-1.547-2.278-4.432-2.278-4.669.552-1.231.701-1.54 1.281-2.978.081.149.159.298.245.442.492.78 1.251 1.423 1.857 2.142 1.609 1.537 3.281 3.382 5.673 3.413.701.086 1.397.027 2.078-.114zm-13.584-1.79c.49-.457 1.131-.734 1.698-1.115v.032c.235 2.24 1.526 4.884 3.458 6.227-.153.07-3.191 1.94-4.469 2.463a.478.478 0 0 1-.656-.384c-.227-1.776-.404-6.438-.031-7.223m1.312 8.341c.01-.02.005-.038.01-.058 1.789-.613 5.555-2.768 5.573-2.821.063.02.479.131.625.159-.043.444 1.39 5.597 1.539 5.761-.01.069.242 1.283-1.042 2.436-1.092.98-4.364 1.87-6.074-.477-1.711-2.35-.752-4.23-.623-5.015 0 .005-.005.01-.005.018zm7.121-2.476.086.018c.55.058 3.294.015 4.536-.262.012.002.345 2.173.94 3.036-.184.149-3.498 2.37-3.783 2.504-.048-.117-1.726-5.17-1.779-5.298zm26.77-15.52c.892 1.672 1.992 3.222 3.011 4.817 1.673 2.653 3.582 5.149 5.633 7.519 1.241 1.468 2.452 2.973 3.817 4.328-.048.01-.096.025-.144.033-1.632.49-3.257 1.004-4.81 1.706-1.852.845-3.817 1.504-5.671 2.362-.106-.17-.245-.323-.368-.482-.729-.904-1.456-1.807-2.139-2.746-1.282-1.729-2.404-3.564-3.585-5.363-.832-1.439-1.655-2.88-2.543-4.285-.691-1.391-1.637-2.61-2.638-3.789a29 29 0 0 0-2.687-2.814c-.636-.671-1.226-1.383-1.957-1.956-.444-.456-2.291-1.532-1.65-2.23.446-.309.744-.25 1.665-.12.752.447 1.334 1.099 2.038 1.684 1.264 1.13 2.823 2.042 4.556 2.072-.02 0-.028-.002-.056-.005.025 0 .051.005.076.005h.04c.987.114 1.996-.136 2.856-.618.282-.139.744-.376.484-.745a.36.36 0 0 0-.456-.09c-.621.355-1.279.643-1.998.709-.797-.04-1.607-.15-2.326-.52-.628-.275-1.193-.692-1.741-1.139.182.023.361.048.543.064 1.584.148 3.11.668 4.699.79.341.04.759 0 1.092-.084.129.013.296.01.301.008a4.8 4.8 0 0 0 1.392-.142 5.4 5.4 0 0 0 1.725-.81 1 1 0 0 0 .059.258c.201.55.524 1.05.787 1.575zm-6.594-10.07c.189-.12.386-.225.585-.324q.309-.135.628-.245l.038-.012q.304-.088.618-.15.301-.045.605-.065c.197-.005.389 0 .585.013.21.023.414.053.621.096q.28.069.552.161.297.115.578.255.273.149.53.323.226.163.436.349.186.174.356.363.178.212.33.439.154.242.28.5a4.5 4.5 0 0 1 .217.563q.09.303.147.613.052.32.07.646.008.3-.015.598a6 6 0 0 1-.098.616 7 7 0 0 1-.164.565q-.011.027-.018.05a4.5 4.5 0 0 1-.515 1.017 7 7 0 0 1-.368.47l-.007.008-.053.058a5 5 0 0 1-.356.343 5 5 0 0 1-.449.338 5 5 0 0 1-.51.285 7 7 0 0 1-.696.273 7 7 0 0 1-.709.174c-.194.033-.782.08-1.034.08-.118-.012-.237-.037-.356-.055a10 10 0 0 0-.524-.1 5 5 0 0 1-.442-.137h-.002l-.005-.002a5 5 0 0 1-.457-.202 6 6 0 0 1-.494-.296 5 5 0 0 1-.949-.855 6 6 0 0 1-.388-.525 6 6 0 0 1-.258-.467 6 6 0 0 1-.229-.593 5 5 0 0 1-.149-.628 4 4 0 0 1-.048-.503 6 6 0 0 1 .02-.56q.034-.331.101-.656.07-.299.172-.588.087-.224.191-.44.143-.276.321-.537.154-.215.328-.414a7 7 0 0 1 .499-.482 6 6 0 0 1 .492-.366zm-2.75-.864.136.023c.136.03.27.04.404.04.575 0 1.132-.222 1.705-.31q-.195.131-.373.277c-.298.25-.578.518-.815.828a6 6 0 0 0-1.001 1.969 5.3 5.3 0 0 0-.195 2.041c.038.344.094.684.184 1.02q.135.5.361.97l.071.146a5.5 5.5 0 0 0 1.324 1.696c.088.075.184.143.278.212-.396-.028-.793-.056-1.186-.096l-.013-.013c-.171-.146-.373-.255-.557-.386-.911-.661-1.41-1.64-1.753-2.703-.447-1.36-.447-2.592-.162-3.968-.08-.13-.219-.02-.262.084-.167.358-.421.671-.527 1.062-.018.071-.023.142-.036.215-.517-.268-1.092-.487-1.682-.447.936-1.29 1.13-2.985.747-4.57l.015.032c.827 1.202 1.725 1.578 3.012 1.82a.7.7 0 0 0 .325.058m-17.58-9.27c.737-.416 2.389-.828 1.89-1.963-.585-.828-1.958-.24-3.201.572-.399-.388-.712-.852-.987-1.347-.257-.457-.63-.846-.835-1.33-.217-.894-.017-1.807.22-2.688.676-2.024 2.702-3.329 4.692-3.846 1.253-.273 2.666-.303 3.776.464.472.326.956.654 1.342 1.085.139.116.257.434.452.528a.61.61 0 0 0 .625-.01c.268-.137.275-.452.401-.684.709-.634 1.703-1.01 2.656-.848 2.919.441 1.37 2.72 3.139 2.516 2.933.02 4.734 3.134 5.019 5.77.114 2.003-.941 3.967-2.227 5.46-.03.041-.068.08-.106.12-1.228-1.964-3.012-3.562-4.995-4.748-.239-.166-1.4-.75-1.205-.058.254.29.633.502.933.76.643.5 1.196 1.09 1.723 1.708.572.56 1.155 1.118 1.556 1.823.984 1.489 1.597 3.212 1.88 4.969-1.073-.24-1.928-.755-2.621-1.905-.068-.076-.301-.425-.457-.49-.82-1.603-2.278-2.842-4.137-3.019a.7.7 0 0 0 .227-.282.65.65 0 0 0-.131-.657c-.177-.35-.386-.696-.767-.85-2.263-1.088-4.989-1.216-6.821.752-.123.119-.26.225-.388.338-2.954 1.2-5.545 3.294-7.394 5.89-.245.382-.449.824-.739 1.114 1.312-4.54 2.174-6.683 6.48-9.141zm-6.843 9.876c3.39-2.54 7.522-9.28 12.708-7.08-4.417 1.977-9 11.358-1.589 12.16.464.104 2.434.01 3.305-.384.557.071 1.115.162 1.667.245.177.601-.525.737-.918.967-.59.32-1.077.782-1.615 1.181-3.049 2.453-5.375.399-8.607.992-2.873.651-5.315 2.47-8.104 3.382-2.008.714-4.122 1.062-6.196 1.524a20 20 0 0 0-1.541.394c-.212.07-.459.111-.648.232.819-3.972-1.037-9.416-1.582-13.358 4.346-.3 8.773-.094 13.12-.253zm-22.408 1.794c.371-4.434 4.644-3.712 6.662-3.49.464.05.88.35 1.017.797 1.152 3.824 3.42 14.139 1.765 15.38-1.654 1.24-6.684 1.441-7.784.225-1.097-1.216-1.988-9.681-1.66-12.91zm18.13 39.528c-.944.379-1.897.772-2.715 1.383-.731.545-1.41 1.158-2.124 1.724-1.554 1.446-3.13 2.87-4.581 4.424-2.199 2.453-4.439 4.904-6.485 7.5-1.973 2.242-7.772 10.548-8.128 10.848-.186.156-.517.09-.567-.146-.926-4.503 1.632-16.49 1.748-16.922.106-.402 2.318-12.685 1.755-15.113-.663-1.805-2.005-3.248-2.845-4.967-1.17-1.973-2.147-4.056-3.032-6.17-.502-1.396-1.15-2.721-1.496-4.172-.26-1.2-.575-2.383-.87-3.572-.421-1.61-.479-3.437-.921-5.067-.27-1.116-.893-2.168-.726-3.352.181-.699.476-1.439 1.112-1.852 1.029-.677 2.142-1.217 3.219-1.812 2.202-1.111 4.641-1.712 7.108-2.07.023 3.935.555 8.023.772 9.512.363 3.841 1.859 5.346 5.31 5.464.643 1.91 3.312 7.544 3.683 8.49.225.49-.176 1.017.399 1.194.184.05.383.038.557-.038 1.307-.638-3.574-9.565-3.605-9.744-.012-.078 4.377-.063 4.846-2.047 3.277.25 7.878 3.019 8.703 3.637.318.245.623.507.933.765-.189.34-.297.721-.393 1.1-.235.994-.116 8.063.991 8.225 0 .005.679.03.833-.023-.745 2.201-.089 4.255.6 5.338a242 242 0 0 1-3.153 5.716c-.22.452-.739 1.131-.928 1.755zm1.937-.69c.237-.476 2.187-4.59 2.58-6.299a6.76 6.76 0 0 0 3.166 1.31c.192.028.379.046.565.04.865-.014 1.572-.211 2.152-.504.013.803.091 7.693.328 10.325q.01.436.023.868c-.525-1.335-2.109-5.088-8.817-5.74zm8.453 31.68c.547-3.251 1.15-6.502 1.481-9.785.174-1.764.401-3.52.449-5.293.075-1.67-.154-3.328-.328-4.984a80 80 0 0 0 .156-7.443 158 158 0 0 0-.918-10.176c1.496-.984 1.561-2.322 1.645-2.63a.5.5 0 0 0 .108.008c.933-.05 1.713-.706 2.545-1.075.924-.472 1.663-1.189 2.435-1.863q.091-.075.184-.166c.933.61 1.841 1.262 2.724 1.925 1.794 1.32 3.418 2.86 5.378 3.945 1.44.74 2.871 1.52 4.377 2.12q.18.073.36.15c-.567.241-2.081 1.168-2.335 1.248-.49.205-.487.573-.036.881.613.42 2.523-.709 3.116-1.04 2.323-1.297 6.235-1.814 6.389-1.88.442.558.911 1.093 1.357 1.648.58.883 1.355 1.684 2.011 2.526.701.912 1.682 1.628 2.85 1.745q.194.015.384.015c1.478 0 2.86-.672 4.326-.833a23 23 0 0 0 6.394-2.103q.287-.16.591-.325c.446 1.128.928 2.254 1.069 3.468.293 6.435-8.311 9.126-13.278 10.756-3.575 1.136-7.225 2.009-10.835 3.021-1.523.462-3.06.828-4.611 1.191-.33.104-.852.157-1.317.28.331-2.157.679-4.368.936-6.516.212-1.595.406-3.193.512-4.8-.01-.467.295-1.663-.154-1.923-.06-.018-.136.032-.138.093-.462 1.439-.906 2.89-1.128 4.391-.747 4.278-1.36 8.554-1.902 12.874-.381 3.087-.666 6.184-1.143 9.26-.002.182-.068.432-.138.697-1.741.204-3.479.439-5.212.719a60 60 0 0 0-6.521 1.083c-.729.174-1.46.34-2.182.547.139-.583.28-1.166.406-1.751zm44.419 59.405c-.141.275-.567 1.229-.471 1.418-.692-.166-9.914-1.751-9.763-3.351.833.043 10.396.792 10.234 1.933m-4.023-3.745c.943.593 2.096.676 3.055 1.216.365.21.658.53.865.899-2.205-.614-9.038-1.288-10.176-1.272a.4.4 0 0 0-.018-.061c.253-1.991.636-4.301.797-6.304.003 0 .005-.006.011-.008.527-.278 1.094-.568 1.707-.598.53-.033 1.201-.106 1.721.267.519.374.527.81.487 1.348-.056.722-1.007 3.188 1.556 4.51zm13.311-43.316a14 14 0 0 1 .331 3.018c.093 2.658-.353 5.308-.858 7.917-.272 1.716-.711 3.4-1.155 5.076-.474 1.892-1.279 4.176-2.013 5.996-1.188 2.908-2.616 5.073-4.458 7.584-1.518 2.007-3.11 3.937-4.601 5.966-.393.505-.777 1.02-1.13 1.553-.199-.51-.524-.959-1.031-1.227-.888-.505-2.092-.366-2.964.184-.094-.848-.333-1.698-.429-2.541-.679-3.945-1.052-7.945-.954-11.966-.023-4.449.025-8.896.22-13.34.017-.576.01-1.139 0-1.701.257-.281.476-.546.597-.659a21 21 0 0 1 2.871-2.587c.537-.437 1.468-.649 1.559-1.439.096-.769-.817-1.332-1.466-.916-1.026.596-2.504 1.921-3.627 3.319-.013-.5-.018-1.012-.013-1.547-.047-.472.051-1.03-.224-1.436-.283-.222-.547.146-.651.389-.547 1.898-.706 3.881-.792 5.845a90 90 0 0 0-.391 5.05c-4.074-2.37-8.183-4.677-12.363-6.855a669 669 0 0 0-17.438-8.147 170 170 0 0 0-4.791-2.039c.497-1.633.962-3.276 1.38-4.929.83.086 2.074-.103 2.566-.106 1.644-.197 3.289-.401 4.941-.54 1.923-.119 3.787-.492 5.711-.656 2.437-.247 4.871-.523 7.285-.954 4.412-.565 8.852-.841 13.294-1.022 3.338-.162 6.703-.215 9.977.552 1.221.364 2.381.896 3.587 1.3 1.423.477 2.533 1.547 3.496 2.663.596.659 1.176 1.332 1.63 2.097 1.052 1.895 1.642 3.955 1.904 6.103z"/><path fill="#000" d="M143.345 44.58s.008 0 .011-.002zm24.401-7.319a.03.03 0 0 0-.005-.015c0 .005.005.012.005.015"/></g></g><defs><clipPath id="a"><path fill="#fff" d="M0 0h316v177.75H0z"/></clipPath><clipPath id="b"><path fill="#fff" d="M53.49 10.698h208.472v156.354H53.49z"/></clipPath></defs></svg>
