<svg width="235" height="132" viewBox="0 0 235 132" fill="none" xmlns="http://www.w3.org/2000/svg">
    <rect width="234.667" height="132" fill="#FEF6E3"/>
    <path fill-rule="evenodd" clip-rule="evenodd" d="M111.495 19.5279C129.801 18.3086 148.478 20.6546 162.958 28.5079C179.326 37.3851 197.766 50.0244 193.785 64.1579C189.875 78.0363 162.956 80.1383 146.153 88.1663C134.428 93.7679 125.152 100.672 111.495 103.473C90.1629 107.848 63.9325 118.888 47.6827 108.362C31.5121 97.8876 46.4333 79.1926 50.8002 64.1579C53.9579 53.2866 58.0834 42.8341 69.0603 34.7626C80.417 26.4118 95.0088 20.6261 111.495 19.5279Z" fill="#FEECC2"/>
    <g clip-path="url(#clip0_12592_4131)">
        <path d="M107.412 91.6512C104.794 97.1482 104.479 93.919 101.896 94.0951C98.091 95.5064 97.6208 79.9017 96.9202 77.4296C94.6498 77.0679 90.9838 76.2582 88.8314 75.4467C88.3013 75.2462 87.7374 75.1712 87.1735 75.1C84.8788 74.8095 97.6527 60.1531 100.88 58.0259C120.735 44.9401 111.631 82.7936 107.412 91.6512Z" fill="black"/>
        <path d="M104.221 98.5277C104.338 97.4987 104.525 96.4792 104.84 95.4933C104.131 94.8617 103.274 94.1926 102.288 94.5862C101.96 94.6968 101.653 94.8598 101.333 94.9835C101.529 95.4989 101.432 96.1174 101.449 96.6572C101.404 97.4575 101.406 98.2166 101.162 98.9644C100.936 99.8171 100.628 100.7 100.658 101.59C100.893 102.66 101.659 103.764 102.798 103.95C104.113 104.207 105.257 103.386 105.089 101.989C104.929 101.331 104.454 100.81 104.208 100.188C104.019 99.6541 104.186 99.0749 104.221 98.5277Z" fill="white"/>
        <path d="M121.643 26.6961C121.632 26.6999 121.625 26.7074 121.613 26.7111C121.814 26.6999 122.112 26.7111 122.31 26.773C123.056 27.1028 123.53 27.8507 123.666 28.6528C123.676 28.7746 123.749 29.0333 123.777 29.2451C124.06 29.425 124.292 29.5993 124.431 29.7043C124.88 29.6724 125.575 29.8936 125.909 29.9292C125.266 29.3294 124.835 28.5179 124.575 27.6707C124.575 27.667 124.573 27.6632 124.571 27.6595C124.571 27.6632 124.573 27.667 124.575 27.6707C124.453 27.339 124.391 26.9998 124.378 26.6549C124.21 26.6099 124.065 26.5106 123.917 26.4356C123.548 26.2463 123.176 26.0739 122.763 26.0027C122.46 26.2819 122.087 26.5125 121.651 26.6924C121.651 26.6924 121.649 26.6924 121.647 26.6943L121.643 26.6961Z" fill="white"/>
        <path d="M118.379 18.3019C118.527 18.3019 118.677 18.2926 118.81 18.3151C119.01 18.3507 119.216 18.3357 119.405 18.257C119.443 18.2382 119.48 18.2288 119.516 18.2232C119.535 18.2007 119.546 18.1707 119.568 18.152C119.349 17.8109 118.853 17.7003 118.482 17.5766C117.776 17.303 116.957 17.258 116.234 17.4904C115.957 17.571 115.717 17.7059 115.486 17.8578C115.752 17.779 116.02 17.7078 116.292 17.6497C116.725 17.5673 118.115 17.8971 118.379 18.3019Z" fill="white"/>
        <path d="M107.549 44.4691C108.499 44.0811 110.754 42.6924 110.869 42.6399C109.432 41.6428 108.473 39.6805 108.3 38.0162C108.3 38.0087 108.3 37.9993 108.3 37.9918C107.879 38.2748 107.403 38.481 107.04 38.8202C106.762 39.4031 106.895 42.8667 107.062 44.1842C107.092 44.4166 107.332 44.5572 107.549 44.4691Z" fill="white"/>
        <path d="M117.223 19.6569C117.644 19.3759 118.051 19.1735 118.446 19.0255C118.266 18.988 118.094 18.9318 117.94 18.8344C117.933 18.8381 117.927 18.84 117.919 18.8437C117.786 19.1379 117.3 19.5126 117.172 19.6532C117.183 19.6419 117.191 19.6363 117.202 19.6269C117.148 19.6907 117.09 19.7544 117.034 19.8181C117.095 19.7637 117.157 19.7094 117.225 19.6569H117.223Z" fill="white"/>
        <path d="M108.478 48.725C109.749 50.4699 112.178 49.8083 112.989 49.0792C113.943 48.2245 113.756 47.3212 113.763 47.2706C113.653 47.1487 112.588 43.3216 112.62 42.9917C112.51 42.9711 112.203 42.8887 112.156 42.8737C112.143 42.913 109.346 44.5136 108.018 44.969C108.016 44.9821 108.018 44.9971 108.01 45.0103C108.01 45.0065 108.012 45.0028 108.014 44.9971C107.918 45.5819 107.207 46.9782 108.477 48.7212L108.478 48.725Z" fill="#FED980"/>
        <path d="M115.578 40.2333C113.802 40.2127 112.56 38.8407 111.365 37.6993C110.916 37.1652 110.352 36.6873 109.987 36.1081C109.923 35.9994 109.865 35.8889 109.805 35.7802C109.374 36.8485 109.264 37.0771 108.853 37.9917C108.853 38.1679 109.496 40.312 110.545 41.459C111.073 42.0382 112.634 42.3793 113.417 42.4074C114.645 42.4524 116.449 42.4561 116.474 42.4561C116.581 42.0007 116.68 41.266 116.863 40.8537C116.92 40.7449 117.008 40.4132 117.122 40.1471C116.614 40.2539 116.097 40.2951 115.578 40.2314V40.2333Z" fill="white"/>
        <path d="M118.394 30.1235C117.495 30.7476 116.377 30.9782 115.298 30.9069C114.545 30.8863 113.825 30.5958 113.067 30.5846C112.394 30.5677 111.74 30.7757 111.111 30.9931C110.528 31.2649 109.953 31.5554 109.376 31.8403C109.704 33.201 109.974 34.5785 110.693 35.778C113.966 40.1524 115.98 39.5283 116.746 39.4459C120.172 38.7393 122.006 36.1266 123.238 33.0604C123.28 32.9611 123.304 32.843 123.336 32.7305C123.231 32.62 123.132 32.5056 123.023 32.4007C122.154 31.6716 120.208 30.3653 120.888 29.1939C121.425 28.3243 122.375 28.5192 123.177 28.9071C123.059 28.4311 122.924 27.9719 122.579 27.5914C122.307 27.3122 122.03 26.9954 121.633 26.9242C121.5 26.8886 121.369 26.883 121.238 26.8867C120.949 27.0442 120.661 27.2091 120.357 27.3272C120.459 27.4228 120.502 27.569 120.526 27.7039C120.61 28.0413 120.466 28.3711 120.208 28.5904C119.968 28.8172 119.653 28.9465 119.415 29.177C119.087 29.505 118.774 29.8499 118.396 30.1216L118.394 30.1235ZM116.201 35.8061C115.32 35.585 114.314 35.0977 113.964 34.2074C113.881 34.0369 113.842 33.737 114.097 33.707C114.389 33.7108 114.586 33.975 114.766 34.1737C115.06 34.5017 115.433 34.7341 115.82 34.929C116.435 35.2851 117.137 35.2289 117.806 35.1089C117.946 35.0902 118.083 35.1933 118.115 35.3282C118.272 35.8867 116.54 35.8942 116.201 35.8043V35.8061ZM119.05 32.4419C118.954 32.5338 118.786 32.5506 118.683 32.4607C118.257 31.9471 118.076 31.531 117.302 31.6941C117.113 31.7241 115.541 32.0333 116.045 31.5423C116.313 31.3418 116.669 31.3005 116.989 31.2293C117.461 31.1318 117.963 31.1281 118.392 31.3755C118.61 31.5011 118.797 31.7222 118.954 31.9096C119.093 32.0502 119.23 32.2751 119.052 32.4419H119.05Z" fill="white"/>
        <path d="M135.419 52.0699C136.201 52.9489 137.092 54.1728 138.171 54.2477C138.853 54.2046 139.874 53.9535 140.534 53.8073C142.551 53.4081 145.994 51.9237 146.037 51.9087C146.101 51.8881 147.105 51.3671 146.976 50.4674C146.97 50.4225 146.62 49.3748 146.519 49.0993C146.228 48.1209 144.956 45.154 144.361 44.8748C143.765 44.5937 142.755 44.9423 142.75 44.9441C142.69 44.9554 134.758 48.2521 133.29 49.0505C134.02 50.1301 134.644 51.026 135.418 52.0718L135.419 52.0699ZM144.533 45.3677C144.533 45.3677 144.535 45.3696 144.537 45.3715C144.537 45.3715 144.537 45.3733 144.539 45.3733C144.539 45.3733 144.531 45.3677 144.527 45.364C144.527 45.364 144.529 45.3658 144.531 45.3677H144.533Z" fill="white"/>
        <path d="M106.48 33.0938C106.48 33.0938 106.465 33.0994 106.458 33.1031C106.458 33.1031 106.46 33.1031 106.462 33.1031C106.469 33.1012 106.475 33.0975 106.482 33.0956L106.48 33.0938Z" fill="white"/>
        <path d="M120.608 19.7691C115.885 18.6783 114.628 26.2239 119.544 26.52C123.551 26.8068 124.656 20.62 120.608 19.7691Z" fill="#FED980"/>
        <path d="M114.215 25.1378C115.017 26.8452 116.686 26.8508 118.319 26.819C115.963 25.895 114.987 22.6788 116.379 20.5685C115.244 21.8936 114.127 23.421 114.215 25.1378Z" fill="white"/>
        <path d="M127.545 24.7999C127.459 24.8992 127.379 25.0004 127.302 25.1072C127.216 25.2366 127.137 25.3696 127.064 25.5065C127.012 25.6133 126.963 25.722 126.922 25.8326C126.871 25.975 126.83 26.1212 126.794 26.2693C126.761 26.4304 126.736 26.5916 126.719 26.7566C126.708 26.8952 126.702 27.0339 126.704 27.1726C126.71 27.2982 126.721 27.4219 126.74 27.5456C126.766 27.703 126.805 27.8586 126.85 28.0123C126.899 28.1622 126.955 28.3084 127.021 28.4527C127.085 28.582 127.154 28.7057 127.212 28.7995C127.302 28.9344 127.397 29.0637 127.5 29.1893C127.604 29.3074 127.712 29.4179 127.826 29.5248C127.946 29.6316 128.074 29.7309 128.205 29.8246C128.325 29.9052 128.446 29.9783 128.572 30.0439C128.684 30.1002 128.799 30.1508 128.911 30.1939H128.915H128.917C129.029 30.2351 129.14 30.267 129.245 30.2951C129.376 30.3157 129.505 30.3419 129.634 30.37C129.722 30.3832 129.808 30.4019 129.898 30.4113C130.086 30.4113 130.522 30.3757 130.666 30.3513C130.854 30.3138 131.039 30.2688 131.193 30.222C131.369 30.1639 131.541 30.0964 131.71 30.0196C131.841 29.9558 131.966 29.8865 132.088 29.8078C132.204 29.7309 132.315 29.6466 132.422 29.5566C132.525 29.4648 132.624 29.3711 132.686 29.3017C132.699 29.2867 132.712 29.2718 132.725 29.2586L132.731 29.253C132.828 29.1424 132.918 29.0262 133.004 28.9044C133.073 28.8013 133.137 28.6945 133.195 28.5839C133.266 28.4415 133.33 28.2972 133.386 28.1491C133.39 28.136 133.396 28.1229 133.399 28.1116C133.446 27.9729 133.487 27.8342 133.521 27.6918C133.553 27.54 133.579 27.3882 133.594 27.2345C133.606 27.0864 133.609 26.9384 133.606 26.7903C133.596 26.6291 133.579 26.4698 133.553 26.3105C133.525 26.1568 133.487 26.005 133.444 25.8551C133.399 25.7126 133.345 25.5739 133.283 25.4371C133.221 25.3097 133.152 25.186 133.075 25.066C133 24.9517 132.918 24.8449 132.83 24.7399C132.746 24.6443 132.658 24.5562 132.566 24.47C132.463 24.3782 132.354 24.2938 132.242 24.2114C132.114 24.1252 131.983 24.0464 131.848 23.9715C131.708 23.9003 131.565 23.8384 131.419 23.7822C131.285 23.7353 131.148 23.696 131.009 23.6622C130.857 23.6304 130.704 23.6079 130.548 23.591C130.402 23.5816 130.26 23.5779 130.114 23.5816C129.964 23.591 129.814 23.6079 129.664 23.6304C129.509 23.6604 129.357 23.696 129.205 23.7409C129.196 23.7447 129.186 23.7466 129.177 23.7503C129.02 23.8028 128.864 23.8628 128.711 23.9321C128.563 24.0052 128.417 24.0839 128.276 24.172C128.149 24.2564 128.029 24.3463 127.911 24.4438C127.781 24.5562 127.656 24.6743 127.54 24.8018L127.545 24.7999Z" fill="#FED980"/>
        <path d="M145.278 122.846C145.207 122.705 145.524 121.999 145.629 121.792C145.747 120.945 138.645 120.389 138.029 120.357C137.916 121.545 144.765 122.722 145.278 122.846Z" fill="white"/>
        <path d="M112.893 57.772C112.717 55.8172 112.657 50.6987 112.65 50.1045C112.219 50.3238 111.694 50.47 111.052 50.4794C110.913 50.4813 110.775 50.47 110.632 50.4494C109.795 50.3351 108.954 49.9958 108.281 49.4767C107.989 50.7474 106.541 53.8005 106.365 54.1547C111.346 54.6383 112.521 57.4252 112.912 58.4167C112.906 58.2012 112.899 57.9856 112.895 57.772H112.893Z" fill="#FED980"/>
        <path d="M118.804 77.7712C120.09 77.5632 121.381 77.3889 122.674 77.2371C122.726 77.0384 122.775 76.8547 122.777 76.7198C123.131 74.437 123.342 72.1354 123.625 69.8433C124.028 66.6327 124.483 63.4597 125.038 60.2829C125.203 59.1677 125.534 58.0901 125.875 57.0218C125.879 56.9768 125.933 56.9393 125.978 56.9524C126.312 57.1455 126.085 58.0338 126.092 58.3806C126.016 59.5745 125.87 60.759 125.712 61.9453C125.521 63.5403 125.263 65.1821 125.017 66.7846C125.362 66.6946 125.75 66.6552 125.995 66.5765C127.147 66.3066 128.288 66.0349 129.419 65.6919C132.1 64.9422 134.811 64.2919 137.465 63.4485C141.152 62.2396 147.543 60.2417 147.326 55.4605C147.221 54.5591 146.863 53.7232 146.532 52.8854C146.382 52.966 146.234 53.0466 146.093 53.1272C144.599 53.8806 142.995 54.4016 141.345 54.6884C140.256 54.8083 139.23 55.3069 138.132 55.3069C138.038 55.3069 137.943 55.3031 137.847 55.2956C136.98 55.2113 136.251 54.6771 135.73 54.0005C135.243 53.3727 134.668 52.7786 134.237 52.1244C133.906 51.7121 133.557 51.3148 133.23 50.9006C133.115 50.9474 130.208 51.3317 128.485 52.2969C128.046 52.5424 126.626 53.3802 126.171 53.0691C125.836 52.8404 125.834 52.5668 126.197 52.415C126.387 52.355 127.511 51.6671 127.932 51.4872C127.842 51.4497 127.754 51.4122 127.664 51.3766C126.546 50.9306 125.484 50.3514 124.414 49.8023C122.96 48.9964 121.752 47.8531 120.42 46.8729C119.765 46.38 119.09 45.8983 118.397 45.4429C118.354 45.4879 118.305 45.5272 118.26 45.5666C117.687 46.067 117.138 46.5993 116.453 46.9497C115.834 47.2234 115.256 47.7107 114.562 47.7482C114.532 47.75 114.508 47.7463 114.482 47.7425C114.42 47.9712 114.371 48.9645 113.26 49.6955C113.586 52.3456 113.8 54.7952 113.942 57.2523C113.982 59.1303 113.955 60.9426 113.826 62.7794C113.955 64.0088 114.124 65.2402 114.07 66.4809C114.034 67.7966 113.866 69.103 113.736 70.4112C113.491 72.8495 113.043 75.2616 112.637 77.6775C112.543 78.1123 112.438 78.5453 112.335 78.9782C112.871 78.8245 113.414 78.7008 113.955 78.5715C115.553 78.2116 117.17 77.9511 118.798 77.7675L118.804 77.7712Z" fill="white"/>
        <path d="M107.511 45.1559C107.397 45.1953 106.895 45.1766 106.893 45.1728C106.073 45.0529 105.983 39.8032 106.157 39.0647C106.228 38.7836 106.309 38.5025 106.449 38.2476C106.221 38.0564 105.994 37.8615 105.756 37.6797C105.142 37.2205 101.725 35.1645 99.2934 34.9789C98.9431 36.454 95.6855 36.4408 95.6948 36.4989C95.7154 36.632 99.3421 43.2592 98.3717 43.7353C98.2425 43.7896 98.0926 43.8009 97.9577 43.7634C97.5306 43.6322 97.8285 43.2405 97.6618 42.8769C97.3864 42.1759 95.4045 37.9908 94.9268 36.572C92.3641 36.4839 91.2533 35.3669 90.9835 32.5144C90.8224 31.4067 90.4272 28.3705 90.4103 25.4504C88.5782 25.7185 86.7668 26.1626 85.1314 26.9873C84.3315 27.4296 83.5054 27.8307 82.7411 28.333C82.269 28.6404 82.0498 29.1876 81.915 29.7087C81.7913 30.5877 82.254 31.3692 82.4545 32.1976C82.7823 33.4084 82.8254 34.7653 83.1382 35.961C83.3574 36.8438 83.5916 37.7228 83.7845 38.6131C84.0411 39.6907 84.5226 40.6766 84.8954 41.7111C85.551 43.2817 86.2778 44.8279 87.147 46.2936C87.7708 47.5699 88.7674 48.642 89.2601 49.982C89.6778 51.785 88.035 60.9068 87.9563 61.2048C87.872 61.5253 85.9706 70.4279 86.6581 73.7715C86.6937 73.9476 86.941 73.9964 87.0796 73.8802C87.3437 73.6571 91.6504 67.491 93.1153 65.8248C94.6345 63.8962 96.298 62.0763 97.9315 60.2546C99.0068 59.1001 100.179 58.043 101.333 56.9691C101.865 56.5493 102.367 56.0939 102.911 55.689C103.52 55.2355 104.226 54.9431 104.926 54.662C105.067 54.199 105.453 53.693 105.616 53.3594C106.427 51.9406 107.193 50.5406 107.957 49.1143C107.446 48.3102 106.957 46.7846 107.511 45.1503V45.1559Z" fill="white"/>
        <path d="M98.4739 34.7334C99.7028 33.8132 98.0187 26.1514 97.1626 23.3119C97.0633 22.9802 96.7523 22.7572 96.4077 22.7197C94.909 22.5566 91.7376 22.0187 91.4603 25.3117C91.2168 27.7088 91.8762 33.995 92.6929 34.8983C93.5078 35.8017 97.245 35.6518 98.4739 34.7315V34.7334Z" fill="white"/>
        <path d="M141.487 115.663C141.518 115.264 141.511 114.94 141.125 114.662C140.739 114.385 140.241 114.439 139.847 114.463C139.394 114.486 138.971 114.702 138.579 114.908C138.577 114.908 138.575 114.911 138.572 114.913C138.452 116.4 138.167 118.116 137.98 119.595C137.985 119.61 137.989 119.625 137.993 119.64C138.838 119.627 143.912 120.129 145.55 120.585C145.396 120.311 145.181 120.073 144.907 119.917C144.195 119.516 143.339 119.455 142.639 119.014C140.735 118.032 141.442 116.201 141.483 115.665L141.487 115.663Z" fill="white"/>
        <path d="M147.304 78.7812C146.407 78.4832 145.545 78.0859 144.64 77.816C142.209 77.2463 139.71 77.2837 137.232 77.4056C133.933 77.5405 130.636 77.7448 127.359 78.1646C125.569 78.4851 123.759 78.6894 121.949 78.8731C120.52 78.9968 119.138 79.2723 117.708 79.3604C116.483 79.4653 115.26 79.6153 114.039 79.7614C113.671 79.7633 112.75 79.9058 112.133 79.8402C111.822 81.0696 111.48 82.2879 111.109 83.5005C112.3 83.9897 113.488 84.4901 114.666 85.0149C119.014 86.9659 123.328 88.9901 127.616 91.0648C130.718 92.6823 133.77 94.3972 136.797 96.1552C136.863 94.907 136.953 93.6588 137.087 92.4049C137.151 90.9449 137.269 89.4736 137.676 88.0642C137.752 87.8843 137.949 87.6107 138.159 87.7756C138.361 88.0773 138.288 88.4915 138.326 88.842C138.32 89.2394 138.326 89.6198 138.335 89.9909C139.167 88.9526 140.265 87.9686 141.029 87.5263C141.51 87.2152 142.188 87.635 142.117 88.2067C142.052 88.7933 141.36 88.9507 140.959 89.275C140.178 89.856 139.481 90.4932 138.828 91.196C138.738 91.2804 138.575 91.4772 138.384 91.6852C138.393 92.1032 138.397 92.5211 138.384 92.9484C138.239 96.2489 138.204 99.5513 138.221 102.856C138.148 105.841 138.425 108.814 138.929 111.741C139 112.367 139.178 112.999 139.247 113.629C139.895 113.22 140.789 113.117 141.448 113.492C141.827 113.69 142.068 114.022 142.215 114.403C142.477 114.007 142.76 113.625 143.054 113.25C144.161 111.745 145.345 110.309 146.471 108.819C147.84 106.954 148.9 105.346 149.781 103.187C150.324 101.834 150.923 100.14 151.276 98.7341C151.605 97.4878 151.929 96.2377 152.134 94.9651C152.508 93.0271 152.84 91.0592 152.771 89.0857C152.769 88.3304 152.692 87.5825 152.525 86.8441C152.33 85.251 151.892 83.7198 151.111 82.3123C150.774 81.7444 150.343 81.244 149.901 80.7548C149.185 79.9264 148.361 79.1317 147.304 78.7775V78.7812Z" fill="black"/>
        <path d="M117.432 45.251C116.99 44.6082 116.742 42.9982 116.733 42.9963C115.811 43.2025 113.773 43.2344 113.365 43.1913C113.344 43.1875 113.322 43.1819 113.301 43.1781C113.339 43.2737 114.584 47.0259 114.622 47.1121C114.833 47.0128 117.297 45.3616 117.432 45.2529V45.251Z" fill="white"/>
        <path d="M132.552 30.2889C132.162 30.5588 131.731 30.7725 131.271 30.8906C130.935 30.9768 130.585 31.0105 130.237 30.9955C130.233 30.9974 130.109 31.0011 130.014 30.9899C129.766 31.0536 129.454 31.0836 129.202 31.0517C128.024 30.9618 126.889 30.5757 125.713 30.4651C125.578 30.4539 125.445 30.4351 125.31 30.4183C125.718 30.7481 126.136 31.0592 126.602 31.2635C127.136 31.539 127.738 31.6196 128.33 31.6496C128.863 31.6028 129.354 31.3891 129.813 31.123C129.929 31.063 130.072 31.0836 130.152 31.1904C130.347 31.4641 130.002 31.6402 129.793 31.7433C129.154 32.1013 128.404 32.2869 127.672 32.2025C127.663 32.2025 127.653 32.2025 127.642 32.2025C127.623 32.2025 127.605 32.1988 127.586 32.1988C127.606 32.1988 127.614 32.2025 127.627 32.2025C126.34 32.18 125.182 31.5034 124.244 30.6638C123.721 30.229 123.289 29.7454 122.73 29.4137C122.047 29.3162 121.824 29.2731 121.494 29.5018C121.018 30.0209 122.389 30.8193 122.719 31.1586C123.262 31.584 123.699 32.1125 124.173 32.6111C124.883 33.2671 125.551 33.9568 126.168 34.7008C126.913 35.5761 127.614 36.4813 128.127 37.514C128.788 38.5561 129.399 39.6281 130.015 40.6965C130.892 42.0309 131.726 43.3953 132.677 44.6792C133.185 45.3764 133.725 46.0492 134.266 46.7183C134.358 46.8345 134.459 46.9488 134.539 47.0763C135.916 46.4372 137.377 45.948 138.751 45.322C139.905 44.801 141.109 44.4168 142.323 44.055C142.36 44.0494 142.394 44.0382 142.43 44.0307C141.416 43.0242 140.517 41.9072 139.595 40.8164C138.072 39.0565 136.654 37.2029 135.412 35.2331C134.656 34.0486 133.837 32.896 133.176 31.6552C132.981 31.2654 132.741 30.8962 132.591 30.4857C132.571 30.4258 132.554 30.3602 132.548 30.2946L132.552 30.2889Z" fill="white"/>
        <path d="M114.413 18.2366C114.508 18.1523 114.609 18.0736 114.701 17.9855C116.061 16.5236 118.086 16.6192 119.767 17.427C120.049 17.5413 120.205 17.798 120.336 18.0586C120.452 18.1898 120.499 18.3753 120.433 18.5459C120.4 18.6302 120.338 18.6977 120.265 18.7558C121.647 18.8851 122.728 19.8072 123.337 20.9973C123.455 21.0479 123.626 21.3047 123.676 21.3609C124.193 22.2156 124.826 22.5979 125.622 22.776C125.413 21.4715 124.956 20.1933 124.227 19.0856C123.927 18.5646 123.496 18.1485 123.071 17.7324C122.68 17.2733 122.269 16.8347 121.792 16.4636C121.569 16.2724 121.288 16.1169 121.098 15.8995C120.956 15.3859 121.816 15.817 121.994 15.9426C123.466 16.8235 124.791 18.0098 125.703 19.468C125.731 19.438 125.759 19.4099 125.782 19.3799C126.737 18.2703 127.52 16.8122 127.436 15.3241C127.226 13.3674 125.887 11.0546 123.708 11.0396C122.395 11.1914 123.543 9.49902 121.378 9.17103C120.67 9.05108 119.933 9.32847 119.405 9.80077C119.311 9.97507 119.306 10.2075 119.107 10.3087C118.969 10.393 118.783 10.4005 118.643 10.3162C118.498 10.2468 118.408 10.0088 118.307 9.92447C118.021 9.60398 117.663 9.36033 117.311 9.11856C116.486 8.5488 115.439 8.57129 114.506 8.7737C113.028 9.15791 111.522 10.1269 111.022 11.63C110.846 12.2841 110.698 12.9607 110.859 13.626C111.011 13.9859 111.288 14.2745 111.479 14.6138C111.683 14.983 111.916 15.3278 112.212 15.6146C113.135 15.0111 114.154 14.5744 114.589 15.1891C114.958 16.0325 113.731 16.3362 113.186 16.6473C109.988 18.4746 109.346 20.064 108.373 23.4357C108.591 23.2202 108.74 22.8922 108.922 22.6092C110.297 20.6806 112.219 19.125 114.413 18.2347V18.2366Z" fill="black"/>
        <path d="M123.762 22.1347C123.762 22.1347 123.754 22.1178 123.751 22.1104C124.035 23.2874 123.891 24.5468 123.196 25.5046C123.635 25.4746 124.062 25.6358 124.446 25.8363C124.455 25.7838 124.461 25.7295 124.472 25.677C124.551 25.3865 124.738 25.1541 124.863 24.8879C124.895 24.813 124.998 24.7305 125.058 24.8261C124.847 25.8475 124.847 26.7622 125.178 27.7724C125.433 28.5614 125.804 29.2867 126.48 29.7796C126.617 29.8771 126.767 29.9558 126.894 30.0664C126.898 30.0701 126.9 30.0739 126.903 30.0758C127.196 30.1058 127.49 30.1264 127.784 30.147C127.715 30.0945 127.645 30.0439 127.578 29.9896C127.171 29.6409 126.834 29.2061 126.594 28.7301C126.572 28.6832 126.547 28.6364 126.542 28.6214C126.431 28.389 126.34 28.1491 126.274 27.9017C126.207 27.6543 126.165 27.3994 126.137 27.1445C126.083 26.6347 126.137 26.1193 126.281 25.6283C126.437 25.0979 126.69 24.6049 127.025 24.1664C127.201 23.9358 127.409 23.7372 127.63 23.5516C127.718 23.4767 127.812 23.4111 127.907 23.3455C127.482 23.4111 127.068 23.576 126.641 23.576C126.542 23.576 126.443 23.5666 126.341 23.546C126.306 23.5404 126.276 23.5348 126.24 23.5291C126.156 23.5366 126.075 23.5179 125.999 23.486C125.043 23.308 124.376 23.0268 123.762 22.1347Z" fill="white"/>
        <path d="M99.5339 34.0864C99.6744 33.9965 99.858 33.9665 100.015 33.914C100.388 33.7997 100.791 33.7022 101.16 33.6216C102.7 33.2768 104.268 33.0181 105.761 32.4896C107.833 31.813 109.646 30.4636 111.78 29.9782C114.179 29.5377 115.906 31.0652 118.171 29.2416C118.57 28.9473 118.934 28.6025 119.37 28.3645C119.662 28.192 120.183 28.0927 120.052 27.6466C119.642 27.5848 119.228 27.5154 118.814 27.4648C118.167 27.7572 116.704 27.8266 116.36 27.7497C110.854 27.1556 114.26 20.1873 117.54 18.7198C113.688 17.0854 110.62 22.0915 108.102 23.9769C104.875 24.095 101.587 23.9394 98.3594 24.1643C98.764 27.0919 100.143 31.1346 99.5339 34.0846V34.0864Z" fill="white"/>
        <path d="M144.54 45.3722C144.54 45.3722 144.54 45.3722 144.538 45.3703C144.538 45.3703 144.537 45.3684 144.535 45.3665C144.535 45.3665 144.533 45.3647 144.531 45.3628C144.535 45.3665 144.538 45.3703 144.542 45.3722H144.54Z" fill="black"/>
        <path d="M117.811 35.1119C117.14 35.2318 116.437 35.2881 115.825 34.9319C115.435 34.7352 115.062 34.5028 114.77 34.1766C114.592 33.978 114.394 33.7118 114.101 33.71C113.847 33.7399 113.886 34.0398 113.968 34.2104C114.321 35.0988 115.327 35.5879 116.205 35.8091C116.544 35.8972 118.277 35.8897 118.12 35.333C118.088 35.1962 117.953 35.095 117.811 35.1137V35.1119Z" fill="black"/>
        <path d="M118.392 31.3784C117.963 31.131 117.461 31.1348 116.989 31.2322C116.669 31.3016 116.313 31.3428 116.045 31.5452C115.543 32.0363 117.113 31.727 117.302 31.697C118.077 31.5358 118.259 31.95 118.682 32.4636C118.785 32.5535 118.954 32.5385 119.05 32.4448C119.228 32.278 119.091 32.055 118.952 31.9126C118.795 31.7251 118.607 31.504 118.39 31.3784H118.392Z" fill="black"/>
        <path d="M148.678 78.0564C142.092 74.5778 127.394 76.7257 123.627 77.1324C123.668 76.8644 123.7 76.6188 123.745 76.4689C123.895 75.3819 124.112 74.2836 124.208 73.1834C124.44 71.476 124.59 69.7573 124.826 68.0499C124.83 68.0199 124.835 67.9881 124.841 67.9562C125.039 67.9525 125.255 67.8944 125.437 67.8569C126.381 67.6901 127.325 67.4558 128.258 67.2122C130.075 66.6855 131.913 66.2394 133.739 65.7446C136.88 64.9181 140.063 64.0935 142.995 62.6653C145.977 61.3721 148.961 58.9862 148.669 55.4027C148.5 54.2407 148.184 53.1049 147.747 52.016C147.948 51.7855 148.081 51.5137 148.148 51.1782C148.347 50.1962 145.788 44.238 144.739 43.7601C144.222 43.4977 143.392 43.7114 143.3 43.7451C143.28 43.7245 143.259 43.7039 143.24 43.6814C143.059 43.4846 142.931 43.3421 142.744 43.1285C141.938 42.2514 141.142 41.2861 140.346 40.3846C139.087 38.9546 137.916 37.4271 136.862 35.8359C135.695 34.0685 134.677 32.1381 133.314 30.5019C133.199 30.4044 133.042 30.1439 132.877 30.0427C133.267 29.7166 133.608 29.323 133.855 28.8807C134.123 28.399 134.295 27.8742 134.352 27.3251C134.352 27.3251 134.352 27.3157 134.353 27.3064C134.353 27.3007 134.353 27.2932 134.355 27.2876C134.389 26.8772 134.372 26.4592 134.286 26.045C134.175 25.5184 133.984 24.988 133.649 24.5681C132.244 22.8101 130.671 22.6958 130.601 22.6883C130.423 22.499 130.006 22.5102 129.764 22.4634C128.228 22.3603 127.295 22.7876 126.789 22.9001C126.918 22.1879 126.562 21.084 126.336 20.6585C126.27 20.503 126.192 20.3549 126.117 20.2031C126.22 20.0925 126.315 19.9726 126.392 19.8807C126.881 19.2885 127.329 18.6531 127.668 17.9615C128.22 16.8051 128.503 15.4988 128.119 14.2393C127.615 12.2039 125.916 10.2079 123.683 10.2248C123.067 8.24185 120.274 8.03756 118.833 9.23518C117.462 7.98321 115.993 7.67584 114.216 8.16688C111.726 8.79474 109.613 10.9876 109.864 13.6733C109.93 14.1587 110.227 14.558 110.475 14.9665C110.718 15.4163 111.029 15.8737 111.445 16.166C111.069 16.4565 110.756 16.7264 110.576 16.8876C108.755 18.4395 107.622 20.8328 108.081 23.2412C108.081 23.3574 108.099 23.5017 108.18 23.5804C108.026 23.6629 107.845 23.6948 107.603 23.6273C107.603 23.6254 107.609 23.6235 107.61 23.6198C104.503 23.5767 101.376 23.0144 98.2478 23.4586C97.8675 21.352 90.9026 20.9247 90.646 24.2551C88.3269 24.6375 83.078 25.8932 81.6899 28.1704C81.289 28.7027 80.9012 29.3249 80.8731 30.009C80.7663 31.1579 81.4388 32.1531 81.6449 33.2551C82.2593 36.9005 83.2709 40.5814 84.8801 43.9175C85.4907 45.3551 86.2981 46.6932 87.083 48.0408C87.5101 48.6837 87.9223 49.3359 88.1995 50.0612C88.7353 52.0385 88.207 54.0926 87.9017 56.0887C87.6862 57.3744 86.463 63.8985 86.0377 65.859C85.6256 68.0293 84.4286 73.6707 85.6125 75.4512C86.2494 76.4108 87.1992 75.8129 87.2348 75.7717C88.2726 74.6078 89.0106 73.204 89.9529 71.9727C91.7943 69.3994 93.6526 66.8111 95.6589 64.3633C97.1332 62.8321 98.5587 61.2484 100.132 59.8184C101.655 58.5045 103.047 57.0483 104.847 56.0774C106.101 55.5489 107.573 55.0878 108.901 55.6689C109.931 55.9481 110.561 56.8365 111.1 57.6968C111.647 58.7182 111.893 59.9027 112.174 61.0516C112.335 62.0674 112.342 63.1001 112.477 64.1216C112.813 66.8298 112.355 69.553 112.035 72.2463C111.747 75.082 111.32 77.9008 110.51 80.639C109.9 82.68 109.454 84.7661 108.673 86.7546C108.081 88.4695 107.251 90.1469 106.464 91.7981C105.977 92.6228 105.677 93.558 105.259 94.422C104.845 94.0603 104.381 93.7379 103.879 93.5336C103.002 93.2993 101.923 93.4605 101.238 94.0809C100.975 93.6273 100.732 93.1419 100.494 92.6752C99.7651 91.2471 99.3605 89.6915 98.9596 88.1471C98.5868 86.6852 98.3115 85.2046 98.0099 83.7277C97.7158 81.8085 97.5547 79.8669 97.3598 77.9345C97.343 76.4202 97.3336 74.9077 97.2793 73.3952C97.283 71.9839 97.3711 70.567 97.2137 69.1595C97.18 68.8671 97.1669 68.556 97.0376 68.2898C96.9215 68.1062 96.6667 68.0743 96.5244 68.2467C96.3951 68.4341 96.4813 68.6815 96.4382 68.8952C96.2752 70.1416 96.0617 71.3898 95.9418 72.6436C95.8275 74.2911 95.8481 75.9479 95.8294 77.5972C95.9193 79.2727 96.2827 80.9239 96.4588 82.592C96.5787 83.7034 96.8915 84.7773 97.1088 85.8718C97.6727 88.4414 98.2272 91.0634 99.4242 93.4249C99.6565 93.8504 99.885 94.2683 100.155 94.6732C100.228 94.7837 100.312 94.8849 100.411 94.9693C100.393 95.0292 100.376 95.0892 100.37 95.1548C100.381 95.704 100.368 96.2531 100.385 96.8023C100.383 96.8847 100.374 97.0122 100.35 97.0965C100.325 97.3683 100.34 97.6419 100.262 97.908C100.202 98.221 100.069 98.504 99.9543 98.7983C99.8288 99.28 99.7726 99.7148 99.6621 100.238C99.561 100.738 99.4036 101.244 99.4673 101.761C99.737 103.313 100.904 104.983 102.596 105.068C103.875 105.18 105.593 104.657 105.778 103.186C106.112 102.091 105.709 100.995 105.078 100.09C104.913 99.8853 104.864 99.6454 104.904 99.3887C104.95 98.8714 105.029 98.356 105.106 97.8425C105.194 97.3083 105.271 96.7704 105.376 96.24C105.406 96.0826 105.451 95.9251 105.497 95.7677C105.608 95.734 105.698 95.659 105.76 95.5615C105.928 95.4847 106.063 95.3254 106.125 95.1455C106.267 94.8774 106.382 94.6394 106.545 94.3208C108.174 91.427 109.598 88.4545 110.553 85.259C110.576 85.1896 110.596 85.1184 110.619 85.0491C113.506 86.2354 116.366 87.4855 119.176 88.8537C125.217 91.5113 131.017 94.6469 136.714 97.9643C136.686 98.9164 136.665 99.8722 136.661 100.836C136.592 104.232 136.594 107.583 137.186 110.951C137.293 111.796 137.486 112.624 137.671 113.455C137.77 113.818 137.815 114.231 138.048 114.538C137.894 114.768 137.873 115.183 137.791 115.398C137.392 116.733 137.293 118.129 137.208 119.508C136.483 121.401 138.804 122.114 140.209 122.447C141.753 122.848 143.3 123.281 144.743 123.967C145.591 124.289 146.348 123.684 146.631 122.901C146.743 122.605 146.753 122.278 146.687 121.964C146.97 121.176 146.738 120.404 146.082 119.581C145.108 118.444 143.336 118.744 142.317 117.705C142.098 117.351 142.128 116.952 142.171 116.556C142.425 116.528 142.656 116.35 142.761 116.101C143.017 115.634 143.291 115.175 143.602 114.742C144.035 114.159 144.413 113.614 144.857 113.027C146.269 111.125 151.093 106.985 153.397 95.241C153.924 92.5534 155.252 81.5462 148.665 78.0695L148.678 78.0564ZM105.089 101.99C105.259 103.386 104.113 104.207 102.798 103.951C101.659 103.763 100.893 102.661 100.659 101.591C100.629 100.703 100.936 99.8197 101.163 98.9651C101.406 98.2154 101.404 97.4582 101.449 96.6579C101.432 96.1182 101.528 95.4997 101.333 94.9843C101.653 94.8624 101.963 94.6975 102.288 94.5869C103.274 94.1952 104.13 94.8643 104.84 95.4941C104.525 96.478 104.338 97.4995 104.222 98.5284C104.186 99.0757 104.019 99.6548 104.209 100.189C104.452 100.811 104.93 101.332 105.089 101.99ZM142.753 44.9409C142.753 44.9409 143.769 44.5922 144.364 44.8715C144.96 45.1526 146.232 48.1195 146.522 49.096C146.623 49.3715 146.972 50.4211 146.979 50.4642C147.107 51.3638 146.104 51.8848 146.041 51.9054C145.998 51.9186 142.555 53.4029 140.537 53.804C139.878 53.9502 138.855 54.2013 138.175 54.2445C137.094 54.1695 136.204 52.9456 135.423 52.0666C134.649 51.0208 134.026 50.1249 133.295 49.0454C134.764 48.247 142.697 44.9502 142.755 44.939L142.753 44.9409ZM132.501 49.8663C131.641 50.1043 129.365 50.959 128.788 51.1595C128.61 51.1051 125.832 49.782 124.678 49.0847C122.728 47.7578 121.102 45.9492 118.992 44.8434C118.644 44.6503 118.292 44.4536 117.936 44.2586C117.616 43.494 117.155 42.6656 117.059 42.3994C117.108 42.242 117.151 42.0827 117.181 41.9215C117.353 41.3311 117.496 40.7351 117.588 40.1279C117.593 40.0979 117.597 40.066 117.601 40.0323C118.631 39.7212 119.598 39.1327 120.409 38.4654C121.403 37.6408 122.08 36.5575 122.792 35.4911C122.928 35.2324 123.603 34.1304 123.874 33.3076C124.093 33.5494 124.311 33.793 124.537 34.0273C124.852 34.4265 125.116 34.8669 125.45 35.2549C126.712 36.6699 127.482 38.4205 128.496 40.0098C130.037 42.6374 131.661 45.2332 133.756 47.4635C133.302 47.7034 132.86 47.964 132.439 48.2638C131.944 48.6068 132.338 49.6376 132.499 49.8682L132.501 49.8663ZM106.451 33.1071C106.451 33.1071 106.456 33.1071 106.458 33.1052C106.466 33.1014 106.473 33.0996 106.481 33.0958C106.475 33.0977 106.468 33.1014 106.46 33.1033C107.256 32.8372 108.023 32.4961 108.781 32.1325C108.781 32.1887 108.781 32.2449 108.776 32.3011C108.832 33.2664 109.087 34.2166 109.476 35.105C109.446 35.1743 109.422 35.2474 109.398 35.3149C109.195 35.864 108.974 36.3982 108.759 36.938C108.575 37.0654 108.378 37.176 108.178 37.2772C108.015 37.384 107.637 37.5096 107.296 37.6689C106.114 36.7355 101.341 34.6102 100.736 34.4602C102.313 34.1229 104.941 33.7031 106.456 33.1052C106.455 33.1052 106.451 33.1052 106.449 33.1071H106.451ZM118.32 26.8172C116.686 26.8472 115.017 26.8416 114.216 25.136C114.126 23.4192 115.244 21.8918 116.379 20.5667C114.987 22.6771 115.963 25.8932 118.32 26.8172ZM120.607 19.7683C124.655 20.6192 123.55 26.8059 119.543 26.5192C114.628 26.2212 115.885 18.6775 120.607 19.7683ZM117.172 19.6539C117.301 19.5153 117.786 19.1385 117.919 18.8443C117.927 18.8405 117.932 18.8387 117.94 18.8349C118.093 18.9324 118.268 18.9886 118.445 19.0261C118.05 19.1741 117.644 19.3784 117.222 19.6577C117.155 19.7102 117.093 19.7645 117.031 19.8189C117.087 19.7552 117.145 19.6896 117.2 19.6277C117.19 19.6371 117.183 19.6446 117.17 19.6539H117.172ZM116.291 17.6504C116.02 17.7085 115.752 17.7816 115.486 17.8584C115.716 17.7066 115.958 17.5717 116.233 17.4911C116.956 17.2587 117.775 17.3037 118.481 17.5773C118.852 17.7029 119.348 17.8116 119.568 18.1527C119.545 18.1714 119.534 18.2014 119.515 18.2239C119.478 18.2295 119.442 18.2389 119.405 18.2577C119.215 18.3364 119.011 18.3532 118.809 18.3158C118.676 18.2933 118.526 18.3026 118.378 18.3026C118.114 17.8978 116.722 17.5679 116.291 17.6504ZM123.914 26.4367C124.063 26.5117 124.208 26.611 124.374 26.656C124.388 26.999 124.449 27.3401 124.571 27.6718C124.832 28.5209 125.262 29.3324 125.905 29.9303C125.571 29.8928 124.878 29.6735 124.427 29.7054C124.286 29.5985 124.056 29.4242 123.773 29.2462C123.745 29.0344 123.672 28.7757 123.663 28.6539C123.526 27.8518 123.054 27.1039 122.306 26.7741C122.11 26.7122 121.81 26.701 121.609 26.7122C121.621 26.7085 121.628 26.701 121.639 26.6972C121.639 26.6972 121.641 26.6972 121.643 26.6954C122.08 26.5173 122.454 26.2849 122.756 26.0057C123.168 26.0769 123.541 26.2493 123.91 26.4386L123.914 26.4367ZM120.525 27.7074C120.5 27.5706 120.457 27.4244 120.356 27.3307C120.66 27.2127 120.948 27.0477 121.237 26.8903C121.368 26.8865 121.499 26.8922 121.632 26.9278C122.029 26.999 122.308 27.3157 122.578 27.595C122.923 27.9755 123.058 28.4346 123.176 28.9107C122.374 28.5209 121.424 28.3259 120.886 29.1974C120.206 30.3688 122.153 31.6752 123.022 32.4042C123.131 32.5111 123.23 32.6254 123.335 32.7341C123.303 32.8465 123.279 32.9646 123.237 33.064C122.005 36.1302 120.169 38.7428 116.745 39.4494C115.978 39.53 113.965 40.1541 110.692 35.7816C109.973 34.5802 109.705 33.2026 109.375 31.8438C109.952 31.559 110.529 31.2685 111.11 30.9967C111.739 30.7793 112.393 30.5712 113.065 30.5881C113.824 30.5975 114.543 30.888 115.297 30.9105C116.377 30.9817 117.496 30.7493 118.393 30.1271C118.771 29.8553 119.084 29.5104 119.412 29.1825C119.65 28.9519 119.965 28.8226 120.205 28.5958C120.465 28.3784 120.609 28.0467 120.523 27.7093L120.525 27.7074ZM117.125 40.1485C117.009 40.4146 116.923 40.7464 116.866 40.8551C116.683 41.2674 116.583 42.0002 116.477 42.4575C116.454 42.4575 114.648 42.4538 113.419 42.4088C112.636 42.3807 111.076 42.0396 110.548 41.4604C109.499 40.3115 108.856 38.1693 108.856 37.9931C109.266 37.0785 109.377 36.8499 109.808 35.7816C109.868 35.8921 109.926 36.0027 109.99 36.1095C110.355 36.6887 110.919 37.1666 111.368 37.7008C112.563 38.8422 113.805 40.2122 115.581 40.2347C116.102 40.2984 116.619 40.2553 117.125 40.1504V40.1485ZM107.037 38.8197C107.401 38.4804 107.876 38.2743 108.298 37.9913C108.298 37.9988 108.298 38.0081 108.298 38.0156C108.472 39.6781 109.431 41.6422 110.866 42.6393C110.752 42.6918 108.496 44.0806 107.547 44.4686C107.329 44.5566 107.088 44.4161 107.06 44.1837C106.891 42.8642 106.76 39.4025 107.037 38.8197ZM108.011 45.0139C108.019 44.999 108.015 44.9858 108.019 44.9708C109.347 44.5154 112.144 42.9148 112.157 42.8755C112.204 42.8905 112.513 42.9729 112.621 42.9935C112.59 43.3234 113.654 47.1506 113.764 47.2724C113.757 47.323 113.944 48.2245 112.991 49.081C112.179 49.8082 109.75 50.4698 108.48 48.7268C107.21 46.9819 107.921 45.5856 108.017 45.0027C108.017 45.0065 108.013 45.0102 108.013 45.0158L108.011 45.0139ZM113.3 43.1753C113.32 43.1791 113.343 43.1847 113.363 43.1885C113.772 43.2316 115.81 43.1997 116.731 42.9935C116.741 42.9954 116.988 44.6072 117.43 45.2482C117.293 45.3588 114.832 47.0081 114.62 47.1074C114.585 47.0212 113.339 43.269 113.3 43.1735V43.1753ZM133.179 31.6489C133.842 32.8915 134.659 34.0423 135.416 35.2268C136.658 37.1966 138.076 39.0502 139.599 40.8101C140.52 41.9009 141.419 43.0179 142.433 44.0244C142.397 44.0319 142.362 44.0431 142.326 44.0487C141.114 44.4123 139.908 44.7947 138.754 45.3157C137.379 45.9436 135.919 46.4327 134.543 47.07C134.464 46.9444 134.361 46.8301 134.269 46.712C133.728 46.041 133.188 45.37 132.681 44.6728C131.729 43.389 130.895 42.0264 130.019 40.6901C129.4 39.6218 128.79 38.5517 128.13 37.5077C127.617 36.475 126.915 35.5698 126.171 34.6945C125.555 33.9486 124.886 33.2607 124.176 32.6048C123.704 32.1062 123.265 31.5777 122.722 31.1523C122.392 30.813 121.021 30.0146 121.497 29.4954C121.829 29.2668 122.05 29.3099 122.733 29.4074C123.292 29.7391 123.724 30.2226 124.247 30.6575C125.186 31.4971 126.343 32.1737 127.63 32.1962C127.615 32.1962 127.61 32.1943 127.589 32.1924C127.608 32.1924 127.626 32.1962 127.645 32.1962C127.655 32.1962 127.664 32.1962 127.675 32.1962C128.408 32.2805 129.157 32.095 129.796 31.737C130.006 31.6339 130.348 31.4577 130.155 31.1841C130.073 31.0773 129.931 31.0567 129.816 31.1166C129.355 31.3809 128.867 31.5946 128.333 31.6433C127.741 31.6133 127.139 31.5327 126.606 31.2572C126.139 31.0529 125.719 30.7437 125.313 30.4119C125.448 30.4288 125.581 30.4475 125.716 30.4588C126.892 30.5694 128.025 30.9555 129.206 31.0454C129.459 31.0754 129.769 31.0454 130.017 30.9836C130.112 30.9929 130.236 30.9911 130.24 30.9892C130.588 31.0042 130.938 30.9705 131.274 30.8842C131.735 30.7662 132.165 30.5525 132.555 30.2826C132.561 30.3482 132.578 30.4138 132.598 30.4738C132.748 30.8824 132.988 31.2535 133.183 31.6433L133.179 31.6489ZM128.282 24.1708C128.423 24.0827 128.569 24.004 128.717 23.9309C128.87 23.8634 129.024 23.8035 129.183 23.7491C129.193 23.7454 129.202 23.7435 129.211 23.7397C129.363 23.6966 129.515 23.6591 129.67 23.6292C129.82 23.6067 129.968 23.5898 130.12 23.5804C130.266 23.5767 130.408 23.5804 130.554 23.5898C130.71 23.6067 130.862 23.6292 131.015 23.661C131.154 23.6948 131.291 23.736 131.425 23.781C131.572 23.8372 131.716 23.9009 131.854 23.9703C131.989 24.0434 132.12 24.1239 132.248 24.2102C132.36 24.2908 132.467 24.377 132.572 24.4688C132.664 24.555 132.752 24.645 132.836 24.7387C132.924 24.8436 133.007 24.9524 133.081 25.0648C133.156 25.1848 133.228 25.3085 133.289 25.4359C133.353 25.5727 133.406 25.7114 133.45 25.8538C133.495 26.0038 133.531 26.1556 133.559 26.3093C133.585 26.4686 133.602 26.6279 133.612 26.7891C133.615 26.9371 133.612 27.0852 133.6 27.2333C133.583 27.387 133.559 27.5388 133.527 27.6906C133.494 27.833 133.452 27.9717 133.406 28.1104C133.4 28.1235 133.396 28.1366 133.392 28.1479C133.336 28.2978 133.273 28.4421 133.201 28.5827C133.143 28.6933 133.08 28.8001 133.01 28.9032C132.924 29.0231 132.834 29.1393 132.737 29.2518L132.731 29.2574C132.718 29.2724 132.705 29.2874 132.692 29.3005C132.628 29.3699 132.531 29.4655 132.428 29.5554C132.321 29.6454 132.21 29.7297 132.094 29.8066C131.972 29.8853 131.845 29.9546 131.716 30.0184C131.547 30.0952 131.375 30.1627 131.199 30.2208C131.045 30.2676 130.86 30.3145 130.672 30.3501C130.528 30.3745 130.092 30.4101 129.904 30.4101C129.816 30.4007 129.728 30.382 129.64 30.3688C129.511 30.3407 129.38 30.3145 129.251 30.2939C129.146 30.2657 129.035 30.2339 128.923 30.1927H128.921L128.917 30.1908C128.805 30.1477 128.69 30.0971 128.578 30.0408C128.451 29.9734 128.329 29.9003 128.211 29.8216C128.078 29.7297 127.952 29.6304 127.833 29.5217C127.716 29.4149 127.61 29.3043 127.507 29.1862C127.404 29.0606 127.306 28.9332 127.218 28.7964C127.16 28.7027 127.091 28.579 127.027 28.4496C126.961 28.3053 126.905 28.1591 126.857 28.0092C126.812 27.8555 126.772 27.7018 126.746 27.5425C126.727 27.4188 126.714 27.2932 126.71 27.1695C126.709 27.0309 126.714 26.8922 126.725 26.7535C126.742 26.5904 126.767 26.4274 126.8 26.2662C126.834 26.1181 126.877 25.9738 126.928 25.8295C126.971 25.7189 127.018 25.6102 127.07 25.5034C127.141 25.3666 127.22 25.2335 127.308 25.1042C127.385 24.9973 127.465 24.8961 127.552 24.7968C127.668 24.6712 127.793 24.5531 127.922 24.4388C128.04 24.3414 128.16 24.2514 128.288 24.1671L128.282 24.1708ZM126.24 23.5298C126.274 23.5354 126.306 23.5411 126.341 23.5467C126.443 23.5692 126.542 23.5767 126.641 23.5767C127.068 23.5767 127.482 23.4117 127.907 23.3461C127.812 23.4117 127.718 23.4792 127.63 23.5523C127.409 23.7379 127.201 23.9365 127.025 24.1671C126.69 24.6075 126.437 25.0985 126.281 25.6289C126.137 26.12 126.083 26.6354 126.137 27.1452C126.165 27.4001 126.206 27.6531 126.274 27.9024C126.339 28.1498 126.431 28.3897 126.542 28.6221C126.549 28.6371 126.572 28.6839 126.594 28.7308C126.836 29.2087 127.171 29.6435 127.578 29.9902C127.643 30.0465 127.714 30.0971 127.784 30.1477C127.49 30.1271 127.196 30.1064 126.903 30.0765C126.9 30.0727 126.898 30.069 126.894 30.0671C126.767 29.9584 126.617 29.8778 126.48 29.7803C125.804 29.2893 125.433 28.5621 125.178 27.773C124.846 26.7628 124.846 25.8482 125.058 24.8268C124.998 24.7293 124.895 24.8118 124.863 24.8886C124.74 25.1548 124.551 25.3872 124.472 25.6777C124.459 25.7301 124.455 25.7826 124.446 25.837C124.062 25.6383 123.634 25.4753 123.196 25.5052C123.891 24.5475 124.035 23.288 123.751 22.111C123.754 22.1185 123.758 22.1279 123.762 22.1354C124.376 23.0275 125.043 23.3068 125.999 23.4867C126.075 23.5167 126.156 23.5373 126.24 23.5298ZM113.185 16.6458C113.732 16.3366 114.959 16.0311 114.588 15.1877C114.154 14.5729 113.135 15.0096 112.211 15.6131C111.915 15.3245 111.683 14.9797 111.479 14.6123C111.288 14.2731 111.01 13.9844 110.859 13.6246C110.698 12.9611 110.846 12.2827 111.022 11.6286C111.524 10.1254 113.028 9.15647 114.506 8.77225C115.437 8.56984 116.486 8.54735 117.31 9.11711C117.661 9.35888 118.02 9.60253 118.307 9.92302C118.41 10.0092 118.498 10.2454 118.642 10.3147C118.783 10.4009 118.968 10.3916 119.107 10.3072C119.305 10.206 119.311 9.97175 119.405 9.79932C119.931 9.32889 120.669 9.04964 121.377 9.16958C123.545 9.49757 122.394 11.19 123.708 11.0382C125.886 11.0532 127.224 13.366 127.435 15.3226C127.52 16.8108 126.737 18.2689 125.781 19.3784C125.759 19.4084 125.731 19.4365 125.703 19.4665C124.79 18.0084 123.466 16.822 121.993 15.9411C121.816 15.8174 120.954 15.3845 121.098 15.898C121.287 16.1136 121.568 16.271 121.791 16.4622C122.269 16.8333 122.679 17.2718 123.071 17.731C123.496 18.1471 123.929 18.5613 124.226 19.0842C124.957 20.19 125.412 21.4701 125.622 22.7745C124.826 22.5965 124.191 22.2141 123.676 21.3595C123.625 21.3033 123.453 21.0446 123.337 20.9959C122.728 19.8058 121.645 18.8855 120.264 18.7543C120.338 18.6981 120.399 18.6287 120.433 18.5444C120.499 18.3739 120.45 18.1883 120.336 18.0571C120.205 17.7966 120.049 17.5398 119.766 17.4255C118.086 16.6177 116.061 16.5221 114.701 17.984C114.609 18.0721 114.508 18.1508 114.412 18.2352C112.219 19.1254 110.295 20.681 108.922 22.6096C108.74 22.8926 108.588 23.2206 108.373 23.4361C109.347 20.0644 109.988 18.4732 113.185 16.6477V16.6458ZM108.103 23.9796C110.621 22.0942 113.689 17.0881 117.541 18.7225C114.261 20.19 110.857 27.1564 116.361 27.7524C116.705 27.8293 118.168 27.7599 118.815 27.4675C119.229 27.52 119.643 27.5875 120.053 27.6493C120.184 28.0954 119.663 28.1966 119.371 28.3672C118.933 28.6052 118.571 28.9482 118.172 29.2443C115.907 31.066 114.18 29.5404 111.78 29.9809C109.647 30.4644 107.833 31.8157 105.762 32.4923C104.27 33.0227 102.701 33.2814 101.161 33.6243C100.79 33.7049 100.389 33.8024 100.016 33.9167C99.8588 33.9692 99.6752 33.9992 99.5347 34.0891C100.144 31.1391 98.7648 27.0965 98.3602 24.1689C101.588 23.9459 104.875 24.0996 108.103 23.9815V23.9796ZM91.4628 25.3122C91.7381 22.0192 94.9115 22.5552 96.4101 22.7202C96.7548 22.7576 97.0639 22.9807 97.165 23.3124C98.0211 26.1518 99.7052 33.8118 98.4763 34.7339C97.2475 35.6541 93.5121 35.8041 92.6954 34.9007C91.8805 33.9973 91.2192 27.7112 91.4628 25.3141V25.3122ZM104.926 54.6662C104.225 54.9473 103.517 55.2397 102.91 55.6932C102.367 56.0981 101.863 56.5535 101.333 56.9733C100.179 58.0472 99.0083 59.1043 97.9312 60.2588C96.2977 62.0806 94.6342 63.9004 93.115 65.829C91.6501 67.4933 87.3434 73.6613 87.0793 73.8844C86.9407 74.0006 86.6953 73.9518 86.6578 73.7757C85.9703 70.4321 87.8698 61.5295 87.956 61.209C88.0347 60.911 89.6775 51.7892 89.2598 49.9862C88.7671 48.6462 87.7705 47.5741 87.1467 46.2978C86.2775 44.8321 85.5526 43.2859 84.895 41.7153C84.5223 40.6789 84.0408 39.6949 83.7842 38.6172C83.5912 37.727 83.3571 36.848 83.1379 35.9652C82.8251 34.7695 82.782 33.4126 82.4542 32.2018C82.2537 31.3734 81.791 30.5919 81.9146 29.7129C82.0495 29.1937 82.2687 28.6446 82.7408 28.3372C83.5051 27.8349 84.3312 27.4338 85.1311 26.9915C86.7664 26.1668 88.5779 25.7208 90.41 25.4546C90.4268 28.3765 90.8221 31.4128 90.9832 32.5186C91.253 35.3711 92.3638 36.4881 94.9265 36.5762C95.4041 37.995 97.3861 42.1783 97.6614 42.8811C97.8282 43.2447 97.5303 43.6364 97.9574 43.7676C98.0942 43.8051 98.2422 43.7957 98.3714 43.7395C99.3418 43.2653 95.717 36.6362 95.6945 36.5031C95.6851 36.445 98.9446 36.4563 99.2931 34.9831C101.726 35.1687 105.143 37.2247 105.756 37.6839C105.992 37.8657 106.219 38.0606 106.449 38.2518C106.309 38.5048 106.228 38.7878 106.157 39.0689C105.983 39.8074 106.071 45.0571 106.893 45.177C106.893 45.1807 107.397 45.1995 107.511 45.1601C106.959 46.7945 107.446 48.3201 107.957 49.1241C107.193 50.5504 106.427 51.9485 105.615 53.3692C105.452 53.7047 105.067 54.2088 104.926 54.6718V54.6662ZM106.365 54.1545C106.541 53.8003 107.989 50.7453 108.281 49.4765C108.954 49.9956 109.795 50.3348 110.632 50.4492C110.774 50.4698 110.913 50.4829 111.052 50.4792C111.694 50.4679 112.219 50.3217 112.65 50.1043C112.659 50.7003 112.717 55.8169 112.893 57.7717C112.897 57.9873 112.904 58.2028 112.91 58.4165C112.52 57.425 111.344 54.638 106.363 54.1545H106.365ZM112.642 77.6796C113.049 75.2657 113.496 72.8517 113.742 70.4133C113.871 69.1032 114.04 67.7988 114.075 66.4831C114.131 65.2424 113.961 64.011 113.832 62.7815C113.961 60.9448 113.989 59.1324 113.948 57.2544C113.805 54.7973 113.59 52.3477 113.266 49.6976C114.377 48.9667 114.425 47.9733 114.487 47.7447C114.513 47.7484 114.538 47.7522 114.568 47.7503C115.261 47.7128 115.84 47.2255 116.458 46.9519C117.144 46.6014 117.692 46.0691 118.266 45.5687C118.311 45.5312 118.357 45.49 118.402 45.445C119.096 45.8986 119.77 46.3821 120.426 46.875C121.757 47.8553 122.964 48.9985 124.419 49.8044C125.489 50.3536 126.551 50.9327 127.67 51.3788C127.759 51.4144 127.847 51.4519 127.937 51.4894C127.516 51.6693 126.392 52.3571 126.203 52.4171C125.839 52.5689 125.841 52.8425 126.177 53.0712C126.632 53.3823 128.05 52.5445 128.49 52.299C130.215 51.3357 133.121 50.9515 133.235 50.9027C133.563 51.3169 133.911 51.7143 134.243 52.1266C134.674 52.7826 135.249 53.3767 135.736 54.0027C136.257 54.6793 136.985 55.2116 137.853 55.2978C137.948 55.3053 138.044 55.309 138.137 55.309C139.235 55.309 140.262 54.8105 141.35 54.6905C142.999 54.4038 144.602 53.8827 146.099 53.1293C146.239 53.0487 146.387 52.97 146.537 52.8875C146.869 53.7253 147.227 54.5612 147.331 55.4627C147.549 60.2419 141.159 62.2399 137.471 63.4506C134.816 64.294 132.105 64.9425 129.425 65.694C128.293 66.037 127.153 66.3088 126 66.5787C125.755 66.6555 125.367 66.6949 125.023 66.7867C125.268 65.1843 125.526 63.5424 125.718 61.9475C125.875 60.763 126.019 59.5766 126.098 58.3827C126.09 58.036 126.317 57.1476 125.984 56.9546C125.939 56.9415 125.882 56.9789 125.881 57.0239C125.538 58.0922 125.208 59.1699 125.043 60.2851C124.489 63.4618 124.033 66.6368 123.631 69.8454C123.348 72.1376 123.136 74.4373 122.782 76.7219C122.78 76.8569 122.732 77.0424 122.679 77.2392C121.387 77.391 120.096 77.5653 118.809 77.7733C117.181 77.957 115.564 78.2175 113.966 78.5774C113.425 78.7067 112.882 78.8304 112.346 78.9841C112.449 78.5512 112.554 78.1182 112.648 77.6834L112.642 77.6796ZM145.629 121.795C145.524 121.999 145.207 122.708 145.278 122.848C144.765 122.725 137.916 121.548 138.029 120.359C138.647 120.391 145.749 120.948 145.629 121.795ZM142.641 119.014C143.341 119.454 144.197 119.516 144.909 119.917C145.181 120.073 145.398 120.311 145.552 120.584C143.915 120.129 138.84 119.628 137.995 119.64C137.991 119.625 137.988 119.61 137.982 119.595C138.169 118.116 138.454 116.401 138.574 114.913C138.576 114.913 138.578 114.909 138.581 114.907C138.973 114.701 139.394 114.485 139.85 114.463C140.243 114.439 140.741 114.384 141.127 114.662C141.513 114.939 141.519 115.263 141.489 115.662C141.448 116.199 140.741 118.03 142.645 119.012L142.641 119.014ZM152.526 86.8464C152.691 87.583 152.768 88.3327 152.771 89.088C152.841 91.0615 152.509 93.0295 152.135 94.9674C151.932 96.2419 151.606 97.492 151.277 98.7365C150.924 100.142 150.327 101.838 149.782 103.19C148.899 105.349 147.839 106.957 146.472 108.822C145.344 110.312 144.162 111.745 143.055 113.252C142.763 113.627 142.478 114.009 142.216 114.405C142.068 114.026 141.826 113.693 141.449 113.494C140.79 113.119 139.896 113.222 139.248 113.631C139.179 113.001 139.001 112.369 138.93 111.744C138.426 108.814 138.149 105.843 138.222 102.858C138.205 99.5536 138.24 96.2512 138.385 92.9507C138.398 92.5234 138.392 92.1055 138.385 91.6875C138.576 91.4795 138.739 91.2827 138.829 91.1984C139.482 90.4936 140.179 89.8583 140.96 89.2773C141.359 88.953 142.051 88.7956 142.118 88.209C142.189 87.6373 141.511 87.2194 141.03 87.5286C140.267 87.971 139.17 88.9549 138.336 89.9932C138.327 89.6221 138.323 89.2417 138.327 88.8443C138.291 88.4939 138.364 88.0797 138.16 87.7779C137.95 87.613 137.753 87.8866 137.677 88.0665C137.27 89.476 137.152 90.9491 137.088 92.4072C136.954 93.6611 136.862 94.9093 136.798 96.1575C133.773 94.3976 130.721 92.6846 127.617 91.0672C123.329 88.9924 119.015 86.9683 114.667 85.0172C113.489 84.4905 112.301 83.992 111.11 83.5028C111.479 82.2902 111.823 81.0701 112.134 79.8425C112.751 79.9062 113.674 79.7656 114.04 79.7638C115.261 79.6176 116.482 79.4658 117.709 79.3627C119.137 79.2746 120.521 78.9972 121.95 78.8754C123.76 78.6917 125.568 78.4874 127.36 78.1669C130.637 77.7471 133.934 77.5428 137.233 77.4079C139.711 77.2879 142.21 77.2486 144.641 77.8183C145.548 78.0882 146.41 78.4837 147.305 78.7836C148.362 79.1378 149.186 79.9324 149.902 80.7609C150.344 81.25 150.775 81.7504 151.112 82.3183C151.893 83.7259 152.331 85.2552 152.526 86.8502V86.8464Z" fill="black"/>
        <path d="M106.451 33.1063C106.451 33.1063 106.456 33.1063 106.458 33.1044C106.456 33.1044 106.452 33.1063 106.451 33.1063Z" fill="black"/>
        <path d="M124.571 27.6707C124.571 27.6669 124.569 27.6632 124.567 27.6594C124.567 27.6632 124.571 27.6688 124.571 27.6707Z" fill="black"/>
    </g>
    <defs>
        <clipPath id="clip0_12592_4131">
            <rect width="154.815" height="116.111" fill="white" transform="translate(39.7222 7.94446)"/>
        </clipPath>
    </defs>
</svg>
