<svg xmlns="http://www.w3.org/2000/svg" width="220" height="116" fill="none"><path fill="#2845C1" fill-rule="evenodd" d="M180.313 31.807c6.657 0 11.043 4.252 11.58 10.294.118 1.336.187 2.797-.048 4.115a.9.9 0 0 1-.897.732h-16.653a.458.458 0 0 0-.457.532c.756 4.388 3.172 6.224 7.034 6.224 1.129 0 2.283-.402 3.113-.776.459-.206.691-.31.844-.344.323-.073.533-.06.846.051.147.052.319.156.664.364l1.426.861c.927.56 1.392.838 1.583 1.123a1.525 1.525 0 0 1-.03 1.75c-.2.278-.66.535-1.581 1.047-.691.384-1.398.734-2.135.998-2.549.912-5.269.942-8.009.362-6.815-1.441-10.439-7.08-10.439-13.513 0-7.57 4.776-13.82 13.159-13.82m-.152 5.284c-3.111 0-5.232 1.623-6.061 4.616a.453.453 0 0 0 .445.568h10.716a.443.443 0 0 0 .45-.49c-.305-2.42-2.169-4.694-5.55-4.694" clip-rule="evenodd"/><path fill="#2845C1" d="M92.514 21.943c4.834 0 8.623 1.965 11.558 5.019.225.233.338.35.405.497a.99.99 0 0 1-.03.852c-.077.142-.208.26-.469.497l-3.226 2.915c-.3.272-.452.409-.598.471a.91.91 0 0 1-.837-.044c-.139-.078-.286-.242-.58-.57-1.841-2.05-3.879-3.344-6.174-3.344-2.536 0-4.21 1.624-4.21 3.755 0 2.714 2.861 3.962 6.175 5.406 4.554 1.985 9.961 4.341 9.962 11.39-.102 6.7-5.278 10.708-11.824 10.709-5.457 0-9.271-1.812-12.286-4.976-.22-.232-.332-.35-.398-.495a.99.99 0 0 1 .028-.844c.075-.14.204-.26.46-.497l3.2-2.95c.302-.278.453-.418.596-.481a.9.9 0 0 1 .824.023c.139.072.3.24.621.572 1.989 2.063 4.427 3.254 6.904 3.254 2.841 0 4.566-1.522 4.566-4.06 0-2.778-2.907-4.058-6.254-5.53-4.537-1.995-9.88-4.346-9.88-11.266 0-5.633 4.667-10.303 11.467-10.303m21.126 10.963c.371 0 .557 0 .707.051a.95.95 0 0 1 .593.591c.051.15.051.337.051.71v13.161c.001 3.704 1.928 5.987 5.479 5.987 3.502 0 5.43-2.283 5.43-5.987V34.257c0-.372 0-.559.051-.709a.96.96 0 0 1 .594-.591c.15-.051.335-.051.707-.051h3.793c.372 0 .559 0 .709.051a.95.95 0 0 1 .591.591c.052.15.052.337.052.71v12.855c0 7.662-4.466 12.382-11.976 12.383s-11.926-4.72-11.926-12.383V34.257c0-.372 0-.559.051-.709a.96.96 0 0 1 .591-.591c.15-.051.337-.051.709-.051z"/><path fill="#2845C1" fill-rule="evenodd" d="M63.234 31.87c7.409 0 11.215 4.415 11.215 10.047v15.192c0 .372 0 .558-.051.707a.96.96 0 0 1-.593.594c-.15.05-.336.051-.707.051h-3.742c-.372 0-.56 0-.71-.051a.95.95 0 0 1-.59-.594c-.052-.15-.052-.335-.052-.707v-.265c0-.227 0-.341-.025-.39a.21.21 0 0 0-.253-.11c-.053.016-.142.1-.317.264-1.708 1.611-4.407 2.613-7.066 2.614-5.125 0-8.628-2.943-8.628-7.662 0-3.857 2.993-6.75 8.473-7.664l7.165-1.21a.78.78 0 0 0 .651-.77c0-2.688-2.03-4.413-4.973-4.413-1.985 0-3.613.743-4.886 1.998-.337.332-.506.497-.634.563a.86.86 0 0 1-.765.047c-.135-.05-.29-.167-.597-.402l-2.575-1.965c-.275-.21-.413-.316-.503-.456a1.02 1.02 0 0 1-.08-.878c.064-.154.166-.266.369-.488 2.314-2.536 5.735-4.053 9.874-4.053m3.984 15.354-5.303.885c-2.689.457-3.806 1.572-3.806 3.145 0 1.725 1.37 2.842 3.553 2.842 2.575 0 4.528-1.05 5.826-2.671.088-.11.133-.166.212-.3.12-.204.25-.57.283-.805.022-.154.021-.275.021-.517V47.89c0-.216 0-.323-.032-.405a.48.48 0 0 0-.35-.298c-.085-.017-.191.001-.404.036" clip-rule="evenodd"/><path fill="#2845C1" d="M156.412 26.512c.371 0 .559 0 .708.052a.95.95 0 0 1 .592.591c.051.15.051.335.051.707v4.577c0 .128-.001.193.017.244a.33.33 0 0 0 .206.204.8.8 0 0 0 .244.019h5.997c.372 0 .558 0 .707.051a.95.95 0 0 1 .591.592c.052.15.052.337.052.709v3.082c0 .371 0 .557-.052.707a.95.95 0 0 1-.591.593c-.149.051-.335.051-.707.051h-5.997c-.128 0-.192 0-.244.017a.33.33 0 0 0-.206.204c-.018.052-.017.118-.017.246v9.986c0 2.842 1.522 3.958 4.059 3.958.995 0 1.799-.063 2.465-.182.459-.081.688-.122.808-.098.252.048.398.17.49.409.044.114.043.313.043.709v3.356c0 .24 0 .36-.034.482a1.04 1.04 0 0 1-.405.55c-.107.07-.2.099-.385.157-1.102.344-2.409.503-4.098.503-6.394 0-9.439-3.602-9.439-9.844v-9.986c0-.128 0-.194-.017-.246a.33.33 0 0 0-.206-.203c-.052-.018-.116-.018-.244-.018h-2.952c-.371 0-.557 0-.707-.051a.96.96 0 0 1-.593-.593c-.051-.15-.051-.336-.051-.707v-3.082c0-.372 0-.56.051-.71a.95.95 0 0 1 .593-.59c.15-.052.336-.052.707-.052h2.952a.8.8 0 0 0 .244-.02.33.33 0 0 0 .206-.203c.017-.051.017-.116.017-.244v-4.577c0-.371 0-.557.051-.707a.95.95 0 0 1 .593-.591c.15-.051.336-.052.707-.052zM34.559 23.096c.455-.037.887.213 1.081.628.104.22.105.568.105 1.261v26.51c0 .186 0 .28.026.354a.48.48 0 0 0 .295.296c.075.025.168.025.354.025h11.11c.371 0 .557 0 .707.052a.95.95 0 0 1 .59.59c.052.15.052.338.052.71v3.641c0 .372 0 .557-.051.707a.95.95 0 0 1-.591.593c-.15.051-.336.052-.707.052H30.206c-.372 0-.56 0-.709-.052a.95.95 0 0 1-.591-.593c-.051-.15-.051-.336-.051-.707V28.05c0-.518 0-.778.053-1.015.098-.438.329-.835.66-1.137.179-.164.403-.294.852-.55l2.992-1.714c.602-.345.902-.518 1.147-.538m108.035 9.81c.372 0 .557 0 .707.051a.96.96 0 0 1 .594.591c.051.15.051.337.051.71V57.13c0 .37 0 .557-.051.707a.96.96 0 0 1-.594.59c-.15.052-.335.052-.707.052h-3.742c-.372 0-.559 0-.709-.051a.95.95 0 0 1-.591-.591c-.051-.15-.051-.336-.051-.707V34.257c0-.372 0-.559.051-.709a.95.95 0 0 1 .591-.591c.15-.051.337-.051.709-.051zm-1.846-12.89c2.283 0 4.162 1.93 4.162 4.213-.001 2.283-1.879 4.21-4.162 4.21s-4.21-1.927-4.211-4.21c0-2.283 1.927-4.213 4.211-4.213M50.65 71.848c4.386 0 7.268 2.953 7.268 7.053 0 .74-.093 1.434-.197 1.95a.32.32 0 0 1-.317.255H46.987a.32.32 0 0 0-.32.37c.477 2.65 2.243 3.734 4.61 3.734 1.584 0 2.983-.633 3.856-1.604a.357.357 0 0 1 .481-.052l2.332 1.827c.14.11.17.316.056.454-1.488 1.808-3.848 2.913-6.693 2.913-5.606 0-8.768-3.883-8.768-8.45 0-4.628 2.943-8.45 8.11-8.45m65.958 0c5.136 0 8.646 3.76 8.647 8.45 0 4.691-3.511 8.45-8.647 8.45s-8.644-3.759-8.644-8.45c.001-4.69 3.508-8.45 8.644-8.45m67.188 0c4.384.001 7.263 2.953 7.263 7.053 0 .74-.088 1.434-.192 1.95a.32.32 0 0 1-.317.255h-10.417a.32.32 0 0 0-.321.37c.477 2.65 2.243 3.734 4.61 3.734 1.585 0 2.984-.632 3.857-1.604a.355.355 0 0 1 .481-.052l2.332 1.827a.32.32 0 0 1 .052.454c-1.488 1.807-3.846 2.913-6.69 2.913-5.606 0-8.771-3.883-8.771-8.45 0-4.628 2.946-8.45 8.113-8.45m-27.21 0c4.573 0 6.922 2.705 6.922 6.154V87.8a.33.33 0 0 1-.333.326h-3.314a.33.33 0 0 1-.33-.326v-.275c0-.308-.418-.47-.662-.278-1.055.837-2.572 1.345-4.068 1.345-3.164 0-5.325-1.8-5.325-4.689 0-2.36 1.849-4.133 5.232-4.692l4.547-.76a.33.33 0 0 0 .276-.327v-.123c0-1.646-1.253-2.702-3.069-2.703-1.413 0-2.534.604-3.363 1.596a.35.35 0 0 1-.477.064l-2.388-1.807a.315.315 0 0 1-.06-.45c1.423-1.774 3.66-2.854 6.412-2.854m-121.333-3.29a.33.33 0 0 1 .333.326v3.26c0 .181.15.326.333.326h4.157c.183 0 .333.149.333.33v2.886a.33.33 0 0 1-.333.327H35.92a.333.333 0 0 0-.333.33v6.07c0 1.739.939 2.423 2.504 2.424.804 0 1.408-.066 1.882-.187.228-.059.468.1.47.334v2.742a.32.32 0 0 1-.201.299c-.743.284-1.633.414-2.837.414-3.947 0-5.827-2.205-5.827-6.026v-6.07c0-.182-.15-.33-.333-.33h-2.279a.33.33 0 0 1-.333-.327V72.8c0-.182.15-.33.333-.33h2.28a.33.33 0 0 0 .332-.327v-3.26a.33.33 0 0 1 .333-.326zm65.427 0c.182 0 .328.146.329.326v3.26a.33.33 0 0 0 .333.326h4.161a.33.33 0 0 1 .329.33v2.886a.33.33 0 0 1-.329.327h-4.161a.333.333 0 0 0-.333.33v6.07c0 1.74.942 2.424 2.508 2.424.803 0 1.405-.066 1.878-.187.228-.059.468.1.47.334v2.742a.32.32 0 0 1-.201.299c-.743.284-1.632.414-2.837.414-3.946 0-5.827-2.205-5.827-6.026v-6.07a.33.33 0 0 0-.329-.33H94.39a.33.33 0 0 1-.329-.327V72.8a.33.33 0 0 1 .33-.33h2.282a.33.33 0 0 0 .33-.327v-3.26c0-.18.15-.326.333-.326zm-30.733 3.602c.428 0 .816.063 1.147.151a.31.31 0 0 1 .23.302v3.229a.342.342 0 0 1-.414.326 7 7 0 0 0-1.34-.124c-1.891.001-3.128 1.004-3.74 1.975a.3.3 0 0 0-.048.167V87.8a.33.33 0 0 1-.333.326h-3.315a.33.33 0 0 1-.329-.326v-15a.33.33 0 0 1 .329-.33h3.315c.183 0 .333.148.333.33v.414c0 .294.368.446.597.258.942-.773 2.109-1.313 3.568-1.313m12.724 0c.429 0 .817.063 1.148.151a.31.31 0 0 1 .228.302v3.229a.342.342 0 0 1-.413.326 7 7 0 0 0-1.34-.124c-1.891 0-3.127 1.004-3.74 1.975a.3.3 0 0 0-.048.167V87.8a.33.33 0 0 1-.333.326h-3.315a.33.33 0 0 1-.329-.326v-15a.33.33 0 0 1 .33-.33h3.314c.183 0 .333.148.333.33v.414c0 .294.369.446.598.258.941-.773 2.108-1.313 3.567-1.313m8.226.31c.183 0 .333.149.333.33v15.002a.33.33 0 0 1-.333.326h-3.314a.33.33 0 0 1-.33-.326V72.8a.33.33 0 0 1 .33-.33zm46.126-.31c.429 0 .817.063 1.148.151a.31.31 0 0 1 .229.302v3.229a.342.342 0 0 1-.414.326 7 7 0 0 0-1.34-.124c-1.891.001-3.127 1.004-3.74 1.975a.3.3 0 0 0-.048.167V87.8a.33.33 0 0 1-.333.326h-3.315a.33.33 0 0 1-.329-.326v-15a.33.33 0 0 1 .329-.33h3.315c.183 0 .333.148.333.33v.414c0 .294.369.446.598.258.941-.773 2.109-1.313 3.567-1.313m8.226.31c.183 0 .333.149.333.33v15.002a.33.33 0 0 1-.333.326h-3.314a.33.33 0 0 1-.329-.326V72.8a.33.33 0 0 1 .329-.33zm26.46-7.642a.33.33 0 0 1 .329.33v22.644a.33.33 0 0 1-.329.326h-3.315a.33.33 0 0 1-.333-.326V65.158c0-.182.15-.33.333-.33zm-15.938 16.964c-1.66.28-2.348.963-2.348 1.926 0 1.056.844 1.74 2.191 1.74 1.777 0 3.076-.804 3.864-2.002a.3.3 0 0 0 .052-.175v-1.724a.332.332 0 0 0-.389-.322zm-39.1-6.213c-2.631 0-4.574 1.987-4.575 4.72 0 2.734 1.944 4.725 4.575 4.725 2.536 0 4.446-2.022 4.446-4.725-.001-2.733-1.91-4.72-4.446-4.72m-66.114-.498c-1.9 0-3.203.975-3.723 2.775-.058.2.099.392.309.393h6.512c.188 0 .342-.154.317-.338-.204-1.463-1.351-2.83-3.415-2.83m133.142 0c-1.901 0-3.199.976-3.72 2.775a.312.312 0 0 0 .309.393h6.513c.187 0 .337-.154.313-.338-.204-1.463-1.351-2.83-3.415-2.83m-94.443-10.5c1.41 0 2.568 1.182 2.568 2.58 0 1.397-1.16 2.575-2.568 2.575s-2.6-1.178-2.6-2.575 1.19-2.58 2.6-2.58m54.352 0c1.409 0 2.568 1.182 2.568 2.58-.001 1.397-1.159 2.575-2.568 2.575s-2.599-1.178-2.6-2.575 1.191-2.579 2.6-2.58"/><path fill="#FBC63A" d="M220 100.116c0 1.806 0 2.709-.185 3.536a7.7 7.7 0 0 1-2.296 3.977c-.623.574-1.405 1.025-2.969 1.929l-6.829 3.945c-1.565.904-2.348 1.356-3.157 1.61a7.7 7.7 0 0 1-4.594 0c-.81-.254-1.592-.706-3.157-1.61l-4.643-2.682c-1.969-1.137-2.953-1.706-3.41-2.364a3.585 3.585 0 0 1 .002-4.091c.458-.657 1.443-1.225 3.412-2.36l4.654-2.682c1.566-.903 2.35-1.355 2.974-1.929a7.7 7.7 0 0 0 2.3-3.979c.185-.828.185-1.731.185-3.54v-5.35c0-2.272 0-3.408.341-4.133a3.58 3.58 0 0 1 3.542-2.045c.798.067 1.782.635 3.749 1.771l4.629 2.672c1.564.904 2.347 1.355 2.971 1.929a7.7 7.7 0 0 1 2.296 3.977c.185.828.185 1.73.185 3.537z"/><path fill="#00867A" d="M15.437.352a7.7 7.7 0 0 1 4.594 0c.81.253 1.591.707 3.155 1.61l4.644 2.682c1.968 1.137 2.953 1.707 3.41 2.365a3.585 3.585 0 0 1-.002 4.09c-.458.658-1.444 1.224-3.412 2.359l-4.655 2.684c-1.565.902-2.348 1.354-2.973 1.928a7.7 7.7 0 0 0-2.3 3.98c-.185.827-.184 1.73-.184 3.538v5.352c0 2.271 0 3.407-.34 4.132a3.585 3.585 0 0 1-3.544 2.046c-.798-.067-1.783-.636-3.75-1.772l-4.63-2.673c-1.564-.903-2.347-1.354-2.97-1.928a7.7 7.7 0 0 1-2.297-3.977C0 25.94 0 25.038 0 23.232v-7.883c0-1.806 0-2.709.184-3.536A7.7 7.7 0 0 1 2.48 7.835c.624-.573 1.406-1.024 2.969-1.927l6.83-3.946c1.565-.904 2.349-1.357 3.158-1.61"/></svg>
