<svg width="163" height="80" viewBox="0 0 163 80" fill="none" xmlns="http://www.w3.org/2000/svg">
<path d="M157.002 67.6724H153.993V72.0192H157.002V67.6724Z" fill="#07559F"/>
<path d="M160.001 67.6724H156.992V72.0192H160.001V67.6724Z" fill="#F4F4F5"/>
<path d="M163 67.6724H160.001V72.0192H163V67.6724Z" fill="#E22717"/>
<path d="M39.9501 18.4917C39.9501 18.4917 41.0334 9.98878 50.2109 10.551C50.2109 10.551 48.7666 20.5898 39.9501 18.4917Z" fill="#33A9E0"/>
<path d="M22.2368 11.0629C22.2368 11.0629 16.62 7.81033 19.7092 0.73291C19.7092 0.73291 26.2991 4.70831 22.2368 11.0629Z" fill="#33A9E0"/>
<path d="M14.7744 37.9772C14.7744 37.9772 8.39519 36.6621 6.50952 44.111C6.50952 44.111 14.0923 45.5265 14.7744 37.9772Z" fill="#33A9E0"/>
<path d="M19.9299 24.307C19.9299 24.307 9.54871 21.2753 11.7553 8.59618C11.7553 8.59618 24.0022 12.421 19.9299 24.307Z" fill="#E52113"/>
<path d="M31.264 15.4125C31.264 15.4125 28.1346 9.55987 34.0323 5.3335C34.0323 5.3335 37.6231 12.3406 31.264 15.4125Z" fill="#E52113"/>
<path d="M48.2852 44.4951C48.2852 44.4951 47.4126 37.8695 39.9501 38.3112C39.9501 38.3112 41.1236 46.1415 48.2852 44.4951Z" fill="#E52113"/>
<path d="M12.3672 32.4084C12.3672 32.4084 6.34909 27.9913 0 34.888C0 34.888 7.27186 40.038 12.3672 32.4084Z" fill="#E52113"/>
<path d="M11.4645 22.2663C11.4645 22.2663 9.10737 16.0422 1.95587 18.2909C1.95587 18.2909 4.86462 25.6092 11.4645 22.2663Z" fill="#94C01F"/>
<path d="M39.6993 6.95695C39.6993 6.95695 37.5428 2.92132 41.605 0C41.605 0 44.0825 4.83874 39.6993 6.95695Z" fill="#94C01F"/>
<path d="M53.7015 23.9428C53.7015 23.9428 52.5279 27.1854 49.6693 28.2997C46.8208 29.414 44.5539 27.7375 44.5539 27.7375C44.5539 27.7375 46.7305 21.6439 53.7015 23.9428Z" fill="#94C01F"/>
<path d="M32.0564 60.404L21.3542 60.3538L21.7955 45.0746L17.8136 37.5555L10.301 26.7034L13.1696 24.9366L20.6922 32.6866L26.4395 11.876L28.6561 12.5385L26.8808 30.478L36.1687 13.2111L38.6061 14.5463L32.1868 31.5823L44.3533 20.5094L45.898 22.728L36.1687 33.3492L46.7907 30.478L47.0013 32.9074L38.1547 36.2303L33.0694 46.6306L32.0564 60.404Z" fill="#0053A0"/>
<path d="M121.706 60.404L121.164 43.9503C121.104 42.8259 121.214 40.9185 121.214 40.1957H121.104C120.944 41.1193 120.352 42.8661 119.6 44.402L111.866 60.404H105.908L98.125 44.3518C97.4831 43.0568 96.8913 41.1996 96.7308 40.3463H96.6205C96.6707 41.2297 96.7308 42.6452 96.6707 43.7796L96.0287 60.394H88.7268L90.0106 31.8534H99.5192L107.834 49.1604C108.697 50.9072 109.178 52.3126 109.349 53.1258H109.449C109.67 52.2825 110.141 50.9474 110.954 49.1604L118.737 31.8534H128.296L129.8 60.394H121.696L121.706 60.404Z" fill="#0053A0"/>
<path d="M59.5591 43.5286C56.3193 44.422 54.1528 45.7973 52.9392 47.6746C52.1267 48.9295 51.7055 50.4353 51.7055 52.3126V52.684C51.7957 55.1235 52.9292 57.2216 55.4969 58.8178C58.0646 60.414 62.0967 61.4379 67.8139 61.4379C68.0446 61.4379 68.2753 61.4379 68.506 61.4379C74.6043 61.3576 78.7468 60.6248 82.0667 59.4302V42.1131C82.0667 38.1979 80.9735 35.8287 78.817 34.2727C76.6505 32.7167 73.1901 32.0039 68.4257 31.9035C65.9282 31.8433 62.9794 31.8232 60.5019 31.8232C58.4558 31.8232 56.7306 31.8232 55.8279 31.8433V37.0133H65.9082C67.9242 37.0434 69.4689 37.1639 70.7026 37.4751C71.9162 37.7863 72.8591 38.3184 73.4509 39.1616C73.8521 39.7338 74.0827 40.4065 74.2031 41.1694V41.2296L74.2131 42.2737H73.5411C73.1299 42.2637 72.7186 42.2536 72.3174 42.2536H72.2873C67.0416 42.2536 62.7788 42.6552 59.5591 43.5587M73.5411 47.9758H74.2031L74.173 56.037L73.5913 56.1173C73.5913 56.1173 71.164 56.4386 69.0175 56.4386C67.182 56.4386 65.5972 56.3181 64.2833 56.0069C62.9794 55.6957 61.9061 55.1837 61.2141 54.3204C60.7527 53.7481 60.4919 53.0253 60.4718 52.2423V52.1118C60.4618 51.1481 60.8831 50.3048 61.5551 49.7326C62.2371 49.1604 63.1298 48.799 64.1629 48.548C66.2492 48.0461 68.9774 47.9657 71.9664 47.9657C72.4779 47.9657 72.9995 47.9657 73.5211 47.9657" fill="#0053A0"/>
<path d="M158.216 42.304C158.216 42.304 149.429 42.3341 146.48 42.3341H146.45C146.049 42.3341 145.648 42.3341 145.237 42.3341H144.565V41.2499C144.705 40.487 144.936 39.8144 145.337 39.2522C145.929 38.3888 146.871 37.8568 148.085 37.5556C149.309 37.2444 150.853 37.1239 152.88 37.0938H162.96V31.9238C162.057 31.9238 160.332 31.9138 158.286 31.9138C155.808 31.9138 152.859 31.9238 150.362 31.984C145.598 32.0844 142.137 32.7972 139.971 34.3532C137.814 35.9092 136.731 38.2784 136.721 42.1936V60.4142H144.585V56.1476L144.575 48.0864L158.226 48.0463V42.304H158.216Z" fill="#0053A0"/>
<path d="M24.1627 72.029L23.7916 71.0251H22.0463L21.6752 72.029H20.6522L22.4776 67.5316H23.4004L25.2058 72.029H24.1527H24.1627ZM23.1497 69.3587C23.0494 69.0977 22.9591 68.8266 22.9089 68.656C22.8588 68.8266 22.7685 69.0977 22.6682 69.3587L22.3573 70.1718H23.4506L23.1396 69.3587H23.1497Z" fill="#0053A0"/>
<path d="M27.5629 72.0993C26.7705 72.0993 26.0684 71.7881 25.7073 71.2861L26.3894 70.7039C26.7204 71.0653 27.1517 71.2158 27.603 71.2158C28.1647 71.2158 28.4355 71.0652 28.4355 70.7239C28.4355 70.4328 28.275 70.3023 27.3723 70.1116C26.4897 69.9208 25.8778 69.6498 25.8778 68.7663C25.8778 67.9532 26.6401 67.4513 27.583 67.4513C28.3252 67.4513 28.8668 67.7123 29.3182 68.154L28.6361 68.7864C28.3252 68.4852 27.9842 68.3246 27.5529 68.3246C27.0413 68.3246 26.8708 68.5354 26.8708 68.7362C26.8708 69.0173 27.0714 69.1077 27.8337 69.2783C28.596 69.449 29.4285 69.6899 29.4285 70.6637C29.4285 71.517 28.8568 72.0993 27.5529 72.0993" fill="#0053A0"/>
<path d="M31.9862 72.0993C31.1938 72.0993 30.4917 71.7881 30.1306 71.2861L30.8126 70.7039C31.1436 71.0653 31.5749 71.2158 32.0263 71.2158C32.588 71.2158 32.8588 71.0652 32.8588 70.7239C32.8588 70.4328 32.6983 70.3023 31.7956 70.1116C30.9129 69.9208 30.3011 69.6498 30.3011 68.7663C30.3011 67.9532 31.0634 67.4513 32.0062 67.4513C32.7484 67.4513 33.2901 67.7123 33.7414 68.154L33.0594 68.7864C32.7484 68.4852 32.4074 68.3246 31.9761 68.3246C31.4646 68.3246 31.2941 68.5354 31.2941 68.7362C31.2941 69.0173 31.4947 69.1077 32.257 69.2783C33.0193 69.449 33.8518 69.6899 33.8518 70.6637C33.8518 71.517 33.28 72.0993 31.9761 72.0993" fill="#0053A0"/>
<path d="M36.6703 72.1094C35.3663 72.1094 34.604 71.1557 34.604 69.7904C34.604 68.4251 35.3764 67.4714 36.6703 67.4714C37.9641 67.4714 38.7365 68.4251 38.7365 69.7904C38.7365 71.1557 37.9641 72.1094 36.6703 72.1094ZM36.6703 68.3548C35.8979 68.3548 35.577 68.9772 35.577 69.7803C35.577 70.5835 35.8979 71.2059 36.6703 71.2059C37.4426 71.2059 37.7635 70.5835 37.7635 69.7803C37.7635 68.9772 37.4426 68.3548 36.6703 68.3548Z" fill="#0053A0"/>
<path d="M42.4577 68.8466C42.2871 68.5354 42.0163 68.3547 41.585 68.3547C40.8729 68.3547 40.4616 68.947 40.4616 69.7803C40.4616 70.6135 40.8729 71.2058 41.5951 71.2058C42.0264 71.2058 42.2771 71.0351 42.5279 70.6336L43.3303 71.0853C43.0093 71.7178 42.4376 72.0992 41.565 72.0992C40.3212 72.0992 39.4787 71.1958 39.4787 69.7803C39.4787 68.3648 40.3513 67.4613 41.5951 67.4613C42.4978 67.4613 43.0394 67.8729 43.3403 68.4551L42.4577 68.8366V68.8466Z" fill="#0053A0"/>
<path d="M45.3363 67.5316H44.3835V72.029H45.3363V67.5316Z" fill="#0053A0"/>
<path d="M49.8198 72.029L49.4487 71.0251H47.7034L47.3323 72.029H46.3093L48.1347 67.5316H49.0575L50.8629 72.029H49.8198ZM48.8168 69.3587C48.7165 69.0977 48.6262 68.8266 48.5761 68.656C48.5259 68.8266 48.4356 69.0977 48.3353 69.3587L48.0244 70.1718H49.1177L48.8068 69.3587H48.8168Z" fill="#0053A0"/>
<path d="M53.1397 68.415V72.029H52.1869V68.415H50.8228V67.5316H54.5139V68.415H53.1397Z" fill="#0053A0"/>
<path d="M56.4698 67.5316H55.5169V72.029H56.4698V67.5316Z" fill="#0053A0"/>
<path d="M59.5992 72.1094C58.3053 72.1094 57.533 71.1557 57.533 69.7904C57.533 68.4251 58.3053 67.4714 59.5992 67.4714C60.8931 67.4714 61.6654 68.4251 61.6654 69.7904C61.6654 71.1557 60.8931 72.1094 59.5992 72.1094ZM59.5992 68.3548C58.8268 68.3548 58.5059 68.9772 58.5059 69.7803C58.5059 70.5835 58.8268 71.2059 59.5992 71.2059C60.3715 71.2059 60.6925 70.5835 60.6925 69.7803C60.6925 68.9772 60.3715 68.3548 59.5992 68.3548Z" fill="#0053A0"/>
<path d="M65.6774 72.0291L63.9322 69.5696C63.8118 69.3989 63.6614 69.1781 63.6012 69.0576C63.6012 69.2283 63.6212 69.7904 63.6212 70.0414V72.0191H62.6784V67.5217H63.5912L65.2762 69.9009C65.3866 70.0715 65.547 70.2924 65.6072 70.4128C65.6072 70.2422 65.5972 69.68 65.5972 69.429V67.5217H66.54V72.0191H65.6875L65.6774 72.0291Z" fill="#0053A0"/>
<path d="M70.8229 72.029H69.3986V67.5316H70.8931C72.2572 67.5316 73.2602 68.1339 73.2602 69.7803C73.2602 71.4267 72.0466 72.029 70.8229 72.029ZM70.863 68.405H70.3615V71.1556H70.8329C71.836 71.1556 72.2873 70.6035 72.2873 69.7803C72.2873 68.8567 71.8761 68.405 70.863 68.405Z" fill="#0053A0"/>
<path d="M74.2433 72.029V67.5316H77.5432V68.415H75.1961V69.188H76.5602V70.0614H75.1961V71.1556H77.6535V72.029H74.2433Z" fill="#0053A0"/>
<path d="M80.2011 72.0993C79.4087 72.0993 78.7066 71.7881 78.3456 71.2861L79.0276 70.7039C79.3586 71.0653 79.7899 71.2158 80.2412 71.2158C80.8029 71.2158 81.0738 71.0652 81.0738 70.7239C81.0738 70.4328 80.9133 70.3023 80.0106 70.1116C79.1279 69.9208 78.5161 69.6498 78.5161 68.7663C78.5161 67.9532 79.2784 67.4513 80.2212 67.4513C80.9634 67.4513 81.505 67.7123 81.9564 68.154L81.2643 68.7864C80.9534 68.4852 80.6224 68.3246 80.1811 68.3246C79.6695 68.3246 79.499 68.5354 79.499 68.7362C79.499 69.0173 79.6996 69.1077 80.4619 69.2783C81.2242 69.449 82.0567 69.6899 82.0567 70.6637C82.0567 71.517 81.485 72.0993 80.1811 72.0993" fill="#0053A0"/>
<path d="M88.2453 72.029V70.3726C88.2453 70.1317 88.2554 69.5595 88.2554 69.3788C88.1852 69.5494 88.0447 69.8707 87.9244 70.1216L86.9615 72.1194L85.9986 70.1216C85.8782 69.8606 85.7378 69.5394 85.6676 69.3788C85.6676 69.5494 85.6776 70.1216 85.6776 70.3726V72.029H84.7448V67.5316H85.6576L86.6505 69.5695C86.7709 69.8205 86.9113 70.1618 86.9815 70.3224C87.0417 70.1517 87.1821 69.8305 87.3025 69.5695L88.2654 67.5316H89.2082V72.029H88.2453Z" fill="#0053A0"/>
<path d="M93.6215 72.029L93.2504 71.0251H91.5052L91.134 72.029H90.111L91.9365 67.5316H92.8592L94.6646 72.029H93.6215ZM92.6185 69.3587C92.5182 69.0977 92.4279 68.8266 92.3778 68.656C92.3276 68.8266 92.2374 69.0977 92.137 69.3587L91.8261 70.1718H92.9194L92.6185 69.3587Z" fill="#0053A0"/>
<path d="M96.6004 67.5316H95.6476V72.029H96.6004V67.5316Z" fill="#0053A0"/>
<path d="M100.683 72.029L99.8301 70.4128H98.8672V72.029H97.9143V67.5316H100.131C101.034 67.5316 101.776 68.0034 101.776 68.9571C101.776 69.6297 101.465 70.0614 100.863 70.2823L101.776 72.029H100.683ZM100.111 68.405H98.8672V69.5595H100.111C100.552 69.5595 100.793 69.3687 100.793 68.9772C100.793 68.5857 100.532 68.405 100.111 68.405Z" fill="#0053A0"/>
<path d="M102.799 72.029V67.5316H106.099V68.415H103.752V69.188H105.116V70.0614H103.752V71.1556H106.209V72.029H102.799Z" fill="#0053A0"/>
<path d="M108.757 72.0993C107.964 72.0993 107.262 71.7881 106.901 71.2861L107.583 70.7039C107.914 71.0653 108.346 71.2158 108.797 71.2158C109.359 71.2158 109.629 71.0652 109.629 70.7239C109.629 70.4328 109.469 70.3023 108.566 70.1116C107.684 69.9208 107.072 69.6498 107.072 68.7663C107.072 67.9532 107.834 67.4513 108.777 67.4513C109.519 67.4513 110.061 67.7123 110.512 68.154L109.82 68.7864C109.509 68.4852 109.178 68.3246 108.737 68.3246C108.225 68.3246 108.055 68.5354 108.055 68.7362C108.055 69.0173 108.255 69.1077 109.018 69.2783C109.77 69.449 110.612 69.6899 110.612 70.6637C110.612 71.517 110.041 72.0993 108.737 72.0993" fill="#0053A0"/>
<path d="M114.715 72.029H113.291V67.5316H114.785C116.149 67.5316 117.152 68.1339 117.152 69.7803C117.152 71.4267 115.939 72.029 114.715 72.029ZM114.755 68.405H114.253V71.1556H114.725C115.728 71.1556 116.179 70.6035 116.179 69.7803C116.179 68.8567 115.768 68.405 114.755 68.405Z" fill="#0053A0"/>
<path d="M118.125 72.029V67.5316H121.435V68.415H119.078V69.188H120.452V70.0614H119.078V71.1556H121.535V72.029H118.125Z" fill="#0053A0"/>
<path d="M125.156 68.415V69.2583H126.591V70.1317H125.156V72.029H124.203V67.5316H127.614V68.415H125.156Z" fill="#0053A0"/>
<path d="M131.245 72.029L130.392 70.4128H129.429V72.029H128.476V67.5316H130.693C131.596 67.5316 132.338 68.0034 132.338 68.9571C132.338 69.6297 132.027 70.0614 131.425 70.2823L132.338 72.029H131.245ZM130.683 68.405H129.439V69.5595H130.683C131.124 69.5595 131.365 69.3687 131.365 68.9772C131.365 68.5857 131.104 68.405 130.683 68.405Z" fill="#0053A0"/>
<path d="M136.43 72.029L136.059 71.0251H134.314L133.943 72.029H132.92L134.745 67.5316H135.668L137.473 72.029H136.43ZM135.427 69.3587C135.327 69.0977 135.237 68.8266 135.186 68.656C135.136 68.8266 135.046 69.0977 134.946 69.3587L134.635 70.1718H135.728L135.427 69.3587Z" fill="#0053A0"/>
<path d="M141.395 72.0291L139.65 69.5696C139.529 69.3989 139.379 69.1781 139.319 69.0576C139.319 69.2283 139.329 69.7904 139.329 70.0414V72.0191H138.386V67.5217H139.299L140.984 69.9009C141.104 70.0715 141.255 70.2924 141.315 70.4128C141.315 70.2422 141.305 69.68 141.305 69.429V67.5217H142.248V72.0191H141.395V72.0291Z" fill="#0053A0"/>
<path d="M146.22 68.8466C146.049 68.5354 145.778 68.3547 145.347 68.3547C144.635 68.3547 144.224 68.947 144.224 69.7803C144.224 70.6135 144.635 71.2058 145.357 71.2058C145.788 71.2058 146.039 71.0351 146.29 70.6336L147.092 71.0853C146.771 71.7178 146.199 72.0992 145.327 72.0992C144.083 72.0992 143.241 71.1958 143.241 69.7803C143.241 68.3648 144.113 67.4613 145.357 67.4613C146.26 67.4613 146.801 67.8729 147.102 68.4551L146.22 68.8366V68.8466Z" fill="#0053A0"/>
<path d="M148.075 72.029V67.5316H151.385V68.415H149.028V69.188H150.392V70.0614H149.028V71.1556H151.486V72.029H148.075Z" fill="#0053A0"/>
<path d="M20.9229 79.8894V75.4021H24.2128V76.2754H21.8658V77.0484H23.2299V77.9218H21.8658V79.006H24.3131V79.8894H20.9229Z" fill="#0053A0"/>
<path d="M27.272 76.2855V79.8894H26.3292V76.2855H24.9651V75.4021H28.6361V76.2855H27.272Z" fill="#0053A0"/>
<path d="M32.1968 79.8894H30.7826V75.4021H32.267C33.6211 75.4021 34.6241 76.0044 34.6241 77.6407C34.6241 79.2771 33.4205 79.8794 32.1968 79.8794M32.2369 76.2754H31.7354V79.0161H32.2069C33.1998 79.0161 33.6612 78.4639 33.6612 77.6407C33.6612 76.7272 33.25 76.2654 32.247 76.2654" fill="#0053A0"/>
<path d="M35.4165 79.8894V75.4021H38.7064V76.2754H36.3593V77.0484H37.7234V77.9218H36.3593V79.006H38.8067V79.8894H35.4165Z" fill="#0053A0"/>
<path d="M41.1638 79.9598C40.3714 79.9598 39.6793 79.6485 39.3182 79.1466L40.0003 78.5744C40.3313 78.9358 40.7626 79.0864 41.2139 79.0864C41.7756 79.0864 42.0364 78.9358 42.0364 78.5945C42.0364 78.3033 41.8759 78.1728 40.9732 77.9821C40.1006 77.7914 39.4887 77.5303 39.4887 76.6469C39.4887 75.8338 40.251 75.3318 41.1838 75.3318C41.9261 75.3318 42.4677 75.5928 42.9191 76.0345L42.237 76.657C41.9361 76.3658 41.5951 76.1952 41.1638 76.1952C40.6522 76.1952 40.4817 76.406 40.4817 76.5967C40.4817 76.8778 40.6823 76.9682 41.4346 77.1388C42.1869 77.3095 43.0194 77.5504 43.0194 78.5242C43.0194 79.3775 42.4476 79.9497 41.1538 79.9497" fill="#0053A0"/>
<path d="M47.1518 78.2934H46.1087V79.8795H45.1558V75.3921H47.232C48.1247 75.3921 48.8669 75.8639 48.8669 76.8176C48.8669 77.8516 48.1347 78.2934 47.1518 78.2934ZM47.2019 76.2755H46.1087V77.43H47.212C47.6533 77.43 47.894 77.2393 47.894 76.8477C47.894 76.4562 47.6232 76.2755 47.2019 76.2755Z" fill="#0053A0"/>
<path d="M52.3574 79.8894L51.5049 78.2732H50.552V79.8894H49.5991V75.4021H51.8058C52.6985 75.4021 53.4407 75.8739 53.4407 76.8276C53.4407 77.5002 53.1398 77.9218 52.5279 78.1427L53.4407 79.8894H52.3474H52.3574ZM51.7957 76.2754H50.552V77.4299H51.7957C52.2371 77.4299 52.4778 77.2392 52.4778 76.8477C52.4778 76.4561 52.217 76.2754 51.7957 76.2754Z" fill="#0053A0"/>
<path d="M54.2731 79.8895V75.4022H57.5731V76.2756H55.226V77.0485H56.5901V77.9219H55.226V79.0061H57.6734V79.8795H54.2731V79.8895ZM55.3965 75.111L55.9883 74.0871H57.1819L56.1989 75.111H55.3965Z" fill="#0053A0"/>
<path d="M60.1308 79.9598C59.3384 79.9598 58.6463 79.6485 58.2852 79.1466L58.9673 78.5744C59.2983 78.9358 59.7296 79.0864 60.1809 79.0864C60.7426 79.0864 61.0134 78.9358 61.0134 78.5945C61.0134 78.3033 60.8529 78.1728 59.9502 77.9821C59.0776 77.7914 58.4658 77.5303 58.4658 76.6469C58.4658 75.8338 59.2281 75.3318 60.1609 75.3318C60.9031 75.3318 61.4447 75.5928 61.8961 76.0345L61.214 76.657C60.9131 76.3658 60.5721 76.1952 60.1308 76.1952C59.6192 76.1952 59.4487 76.406 59.4487 76.5967C59.4487 76.8778 59.6493 76.9682 60.4016 77.1388C61.1539 77.3095 61.9864 77.5504 61.9864 78.5242C61.9864 79.3775 61.4146 79.9497 60.1207 79.9497" fill="#0053A0"/>
<path d="M63.852 75.4021H62.8991V79.8894H63.852V75.4021Z" fill="#0053A0"/>
<path d="M66.3897 79.8894H64.9754V75.4021H66.4599C67.814 75.4021 68.817 76.0044 68.817 77.6407C68.817 79.2771 67.6134 79.8794 66.3897 79.8794M66.4198 76.2754H65.9183V79.0161H66.3897C67.3827 79.0161 67.844 78.4639 67.844 77.6407C67.844 76.7272 67.4328 76.2654 66.4298 76.2654" fill="#0053A0"/>
<path d="M69.5993 79.8894V75.4021H72.8892V76.2754H70.5421V77.0484H71.9062V77.9218H70.5421V79.006H72.9895V79.8894H69.5993Z" fill="#0053A0"/>
<path d="M76.831 79.8894L75.0857 77.4399C74.9754 77.2693 74.8149 77.0484 74.7547 76.938C74.7547 77.1087 74.7648 77.6708 74.7648 77.9218V79.8995H73.832V75.4121H74.7447L76.4298 77.7813C76.5501 77.9419 76.7006 78.1728 76.7608 78.2832C76.7608 78.1125 76.7507 77.5504 76.7507 77.2994V75.4021H77.6835V79.8894H76.831Z" fill="#0053A0"/>
<path d="M80.7428 76.2855V79.8894H79.7899V76.2855H78.4258V75.4021H82.1069V76.2855H80.7428Z" fill="#0053A0"/>
<path d="M84.2934 79.9598C83.5011 79.9598 82.809 79.6485 82.4479 79.1466L83.1299 78.5744C83.4609 78.9358 83.8922 79.0864 84.3436 79.0864C84.9053 79.0864 85.1761 78.9358 85.1761 78.5945C85.1761 78.3033 85.0156 78.1728 84.1229 77.9821C83.2503 77.7914 82.6385 77.5303 82.6385 76.6469C82.6385 75.8338 83.4008 75.3318 84.3336 75.3318C85.0758 75.3318 85.6174 75.5928 86.0688 76.0345L85.3867 76.657C85.0858 76.3658 84.7448 76.1952 84.3135 76.1952C83.802 76.1952 83.6314 76.406 83.6314 76.5967C83.6314 76.8778 83.8321 76.9682 84.5843 77.1388C85.3366 77.3095 86.1691 77.5504 86.1691 78.5242C86.1691 79.3775 85.5974 79.9497 84.3035 79.9497" fill="#0053A0"/>
<path d="M89.6997 79.8894H88.2855V75.4021H89.77C91.124 75.4021 92.127 76.0044 92.127 77.6407C92.127 79.2771 90.9234 79.8794 89.6997 79.8794M89.7298 76.2754H89.2283V79.0161H89.6997C90.6927 79.0161 91.1541 78.4639 91.1541 77.6407C91.1541 76.7272 90.7429 76.2654 89.7399 76.2654" fill="#0053A0"/>
<path d="M93.6014 77.4901H92.9194L92.6887 75.4021H93.8422L93.6014 77.4901Z" fill="#0053A0"/>
<path d="M95.6877 75.4021H94.7348V79.8894H95.6877V75.4021Z" fill="#0053A0"/>
<path d="M99.8001 79.8894L98.0548 77.4399C97.9345 77.2693 97.784 77.0484 97.7238 76.938C97.7238 77.1087 97.7439 77.6708 97.7439 77.9218V79.8995H96.801V75.4121H97.7138L99.3989 77.7813C99.5192 77.9419 99.6697 78.1728 99.7299 78.2832C99.7299 78.1125 99.7198 77.5504 99.7198 77.2994V75.4021H100.653V79.8894H99.8001Z" fill="#0053A0"/>
<path d="M103.712 76.2855V79.8894H102.759V76.2855H101.395V75.4021H105.076V76.2855H103.712Z" fill="#0053A0"/>
<path d="M105.818 79.8894V75.4021H109.118V76.2754H106.771V77.0484H108.135V77.9218H106.771V79.006H109.218V79.8894H105.818Z" fill="#0053A0"/>
<path d="M112.819 79.8894L111.967 78.2732H111.014V79.8894H110.061V75.4021H112.278C113.17 75.4021 113.912 75.8739 113.912 76.8276C113.912 77.5002 113.612 77.9218 113 78.1427L113.912 79.8894H112.819ZM112.257 76.2754H111.014V77.4299H112.257C112.699 77.4299 112.94 77.2392 112.94 76.8477C112.94 76.4561 112.679 76.2754 112.257 76.2754Z" fill="#0053A0"/>
<path d="M117.453 76.7072C117.283 76.396 117.012 76.2152 116.581 76.2152C115.868 76.2152 115.457 76.8075 115.457 77.6408C115.457 78.474 115.868 79.0663 116.581 79.0663C117.012 79.0663 117.263 78.8956 117.513 78.4941L118.316 78.9458C117.985 79.5783 117.423 79.9598 116.56 79.9598C115.317 79.9598 114.484 79.0663 114.484 77.6408C114.484 76.2152 115.357 75.3318 116.591 75.3318C117.483 75.3318 118.025 75.7434 118.326 76.3257L117.443 76.7072H117.453Z" fill="#0053A0"/>
<path d="M120.763 79.9598C119.469 79.9598 118.697 79.0161 118.697 77.6408C118.697 76.2654 119.469 75.3318 120.763 75.3318C122.057 75.3318 122.829 76.2755 122.829 77.6408C122.829 79.0061 122.057 79.9598 120.763 79.9598ZM120.763 76.2152C120.001 76.2152 119.68 76.8377 119.68 77.6408C119.68 78.4439 120.001 79.0663 120.763 79.0663C121.525 79.0663 121.846 78.4439 121.846 77.6408C121.846 76.8377 121.525 76.2152 120.763 76.2152Z" fill="#0053A0"/>
<path d="M127.122 79.8894V78.2431C127.122 78.0021 127.132 77.4299 127.132 77.2592C127.062 77.4299 126.922 77.7511 126.801 78.0021L125.838 79.9999L124.875 78.0021C124.755 77.7511 124.615 77.4299 124.544 77.2592C124.544 77.4299 124.554 78.0021 124.554 78.2431V79.8894H123.622V75.4021H124.534L125.527 77.4299C125.648 77.6809 125.788 78.0222 125.848 78.1828C125.909 78.0122 126.049 77.6909 126.169 77.4299L127.122 75.4021H128.055V79.8894H127.102H127.122Z" fill="#0053A0"/>
<path d="M132.619 79.8894V78.2431C132.619 78.0021 132.629 77.4299 132.629 77.2592C132.558 77.4299 132.418 77.7511 132.298 78.0021L131.335 79.9999L130.372 78.0021C130.252 77.7511 130.111 77.4299 130.041 77.2592C130.041 77.4299 130.051 78.0021 130.051 78.2431V79.8894H129.118V75.4021H130.031L131.024 77.4299C131.144 77.6809 131.285 78.0222 131.345 78.1828C131.405 78.0122 131.545 77.6909 131.666 77.4299L132.619 75.4021H133.551V79.8894H132.599H132.619Z" fill="#0053A0"/>
<path d="M136.5 79.9597C135.357 79.9597 134.585 79.2269 134.585 77.9218V75.4021H135.537V77.9118C135.537 78.6346 135.899 79.0863 136.51 79.0863C137.122 79.0863 137.483 78.6446 137.483 77.9318V75.4121H138.436V77.9218C138.436 79.2269 137.714 79.9697 136.51 79.9697" fill="#0053A0"/>
<path d="M142.448 79.8894L140.703 77.4399C140.593 77.2693 140.432 77.0484 140.372 76.938C140.372 77.1087 140.382 77.6708 140.382 77.9218V79.8995H139.449V75.4121H140.362L142.047 77.7813C142.168 77.9419 142.318 78.1728 142.378 78.2832C142.378 78.1125 142.368 77.5504 142.368 77.2994V75.4021H143.301V79.8894H142.448Z" fill="#0053A0"/>
<path d="M147.503 79.8894L147.132 78.8956H145.397L145.026 79.8894H144.013L145.828 75.4021H146.751L148.557 79.8894H147.503ZM146.5 77.2191C146.4 76.9581 146.31 76.687 146.26 76.5264C146.21 76.6971 146.119 76.9581 146.019 77.2191L145.718 78.0322H146.801L146.5 77.2191Z" fill="#0053A0"/>
<path d="M149.269 79.8894V75.4021H150.212V78.996H152.599V79.8894H149.269Z" fill="#0053A0"/>
<path d="M154.324 75.4021H153.371V79.8894H154.324V75.4021Z" fill="#0053A0"/>
<path d="M157.443 76.2855V79.8894H156.501V76.2855H155.136V75.4021H158.808V76.2855H157.443Z" fill="#0053A0"/>
<path d="M159.56 79.8895V75.4022H162.86V76.2756H160.513V77.0485H161.877V77.9219H160.513V79.0061H162.96V79.8795H159.56V79.8895ZM161.475 75.111H160.683L161.275 74.0871H162.458L161.475 75.111Z" fill="#0053A0"/>
</svg>
