<svg width="260" height="95" viewBox="0 0 260 95" fill="none" xmlns="http://www.w3.org/2000/svg">
<path d="M73.7976 6.25457V10.5633H79.9997V4.51719C79.9997 2.36284 78.0485 0.13899 75.8882 0H69.4074V5.97659L73.728 6.25457H73.7976Z" fill="#2A3D85"/>
<path d="M73.7976 88.7457V84.437H79.9997V90.4831C79.9997 92.6374 78.0485 94.8613 75.8882 95.0003H69.4074V89.0237L73.728 88.7457H73.7976Z" fill="#FFCA05"/>
<path d="M6.20209 88.7457V84.437H0V90.4831C0 92.6374 1.95122 94.8613 4.11149 95.0003H10.5923V89.0237L6.27178 88.7457H6.20209Z" fill="#5C72B6"/>
<path d="M6.20221 6.25457V10.5633H0.00012207V4.51719C0.00012207 2.36284 1.95134 0.13899 4.11162 0H10.5924V5.97659L6.2719 6.25457H6.20221Z" fill="#008373"/>
<path d="M101.393 29.0487C101.393 27.9368 102.23 27.1723 103.832 26.8943L106.341 26.4774V25.9909C106.341 24.9485 105.575 24.3925 104.529 24.3925C103.484 24.3925 102.996 24.8095 102.508 25.4349L101.603 24.74C102.23 23.8366 103.275 23.3501 104.599 23.3501C106.481 23.3501 107.596 24.462 107.596 26.0604V30.9946H106.341V30.0911C105.784 30.7861 104.808 31.2031 103.832 31.2031C102.369 31.2031 101.393 30.3691 101.393 29.1182V29.0487ZM104.042 30.0911C105.017 30.0911 105.853 29.6047 106.341 28.8402V27.3808L104.181 27.7283C103.136 27.9368 102.718 28.3537 102.718 28.9792C102.718 29.6047 103.205 30.0911 104.111 30.0911H104.042Z" fill="#2A3D85"/>
<path d="M112.961 30.4386C112.613 30.1606 112.474 29.8131 112.474 29.3962C112.474 28.8402 112.752 28.3537 113.38 27.9368C112.752 27.4503 112.334 26.6859 112.334 25.9214C112.334 24.5315 113.449 23.2806 115.191 23.2806C116.934 23.2806 116.237 23.4196 116.585 23.5586H119.303V24.6705H117.7C117.909 25.018 117.979 25.4349 117.979 25.9214C117.979 27.3113 116.864 28.4927 115.122 28.4927C113.38 28.4927 114.425 28.4927 114.076 28.3537C113.798 28.5622 113.589 28.8402 113.589 29.1182C113.589 29.3962 113.728 29.6742 114.216 29.6742H116.306C118.258 29.6742 119.164 30.6471 119.164 31.9675C119.164 33.2879 117.63 34.6778 115.4 34.6778C113.17 34.6778 111.777 33.8439 111.777 32.3845C111.777 30.9251 112.125 31.0641 112.892 30.5081L112.961 30.4386ZM115.47 33.5659C117.003 33.5659 117.979 32.9404 117.979 31.9675C117.979 30.9946 117.561 30.7166 116.237 30.7166H113.867C113.38 31.0641 113.031 31.5505 113.031 32.1065C113.031 33.0099 113.937 33.5659 115.4 33.5659H115.47ZM116.864 25.8519C116.864 24.9485 116.237 24.184 115.191 24.184C114.146 24.184 113.519 24.9485 113.519 25.8519C113.519 26.7554 114.146 27.4503 115.191 27.4503C116.237 27.4503 116.864 26.6859 116.864 25.8519Z" fill="#2A3D85"/>
<path d="M126.55 31.2031C124.042 31.2031 122.508 29.3962 122.508 27.2418C122.508 25.0875 123.972 23.2806 126.202 23.2806C128.432 23.2806 129.547 24.6705 129.547 26.4774C129.547 28.2842 129.547 27.0333 129.477 27.2418H123.832C123.832 28.9792 125.017 30.0911 126.62 30.0911C128.223 30.0911 128.362 29.6742 128.85 28.9792L129.756 29.6742C129.059 30.5776 127.944 31.2031 126.62 31.2031H126.55ZM123.902 26.3384H128.292C128.292 25.2265 127.526 24.323 126.202 24.323C124.878 24.323 124.111 25.018 123.902 26.3384Z" fill="#2A3D85"/>
<path d="M135.54 23.5586V24.3925C136.167 23.7671 136.934 23.2806 137.979 23.2806C139.651 23.2806 140.836 24.3925 140.836 26.4774V30.9251H139.582V26.5469C139.582 25.2265 138.815 24.462 137.7 24.462C136.585 24.462 135.958 25.0875 135.47 25.8519V30.9251H134.216V23.5586H135.54Z" fill="#2A3D85"/>
<path d="M151.568 28.9792L152.543 29.7437C151.846 30.6471 150.801 31.2725 149.407 31.2725C146.968 31.2725 145.366 29.4657 145.366 27.3113C145.366 25.157 146.899 23.3501 149.407 23.3501C151.916 23.3501 151.846 23.9755 152.543 24.879L151.568 25.6434C151.08 25.018 150.383 24.5315 149.477 24.5315C147.874 24.5315 146.759 25.7824 146.759 27.3113C146.759 28.8402 147.874 30.0911 149.477 30.0911C151.08 30.0911 151.15 29.6742 151.568 28.9792Z" fill="#2A3D85"/>
<path d="M160 31.2031C157.491 31.2031 155.958 29.3962 155.958 27.2418C155.958 25.0875 157.421 23.2806 159.651 23.2806C161.881 23.2806 162.996 24.6705 162.996 26.4774C162.996 28.2842 162.996 27.0333 162.927 27.2418H157.282C157.282 28.9792 158.467 30.0911 160.069 30.0911C161.672 30.0911 161.812 29.6742 162.299 28.9792L163.205 29.6742C162.508 30.5776 161.393 31.2031 160.069 31.2031H160ZM157.352 26.3384H161.742C161.742 25.2265 160.975 24.323 159.651 24.323C158.327 24.323 157.561 25.018 157.352 26.3384Z" fill="#2A3D85"/>
<path d="M175.609 23.5586V24.3925C176.237 23.7671 177.003 23.2806 178.049 23.2806C179.721 23.2806 180.906 24.3925 180.906 26.4774V30.9251H179.651V26.5469C179.651 25.2265 178.885 24.462 177.77 24.462C176.655 24.462 176.028 25.0875 175.54 25.8519V30.9251H174.285V23.5586H175.609Z" fill="#2A3D85"/>
<path d="M185.644 29.0487C185.644 27.9368 186.481 27.1723 188.083 26.8943L190.592 26.4774V25.9909C190.592 24.9485 189.826 24.3925 188.78 24.3925C187.735 24.3925 187.247 24.8095 186.759 25.4349L185.853 24.74C186.481 23.8366 187.526 23.3501 188.85 23.3501C190.731 23.3501 191.846 24.462 191.846 26.0604V30.9946H190.592V30.0911C190.035 30.7861 189.059 31.2031 188.083 31.2031C186.62 31.2031 185.644 30.3691 185.644 29.1182V29.0487ZM188.292 30.0911C189.268 30.0911 190.104 29.6047 190.592 28.8402V27.3808L188.432 27.7283C187.386 27.9368 186.968 28.3537 186.968 28.9792C186.968 29.6047 187.456 30.0911 188.362 30.0911H188.292Z" fill="#2A3D85"/>
<path d="M197.352 24.6705H195.958V23.5586H197.352V21.7517H198.606V23.5586H201.184V24.6705H198.606V28.4232C198.606 29.6047 199.164 29.8826 200.069 29.8826C200.975 29.8826 200.906 29.8826 201.184 29.6742V30.7861C200.836 30.9251 200.418 30.9946 199.93 30.9946C198.258 30.9946 197.352 30.1606 197.352 28.3537V24.601V24.6705Z" fill="#2A3D85"/>
<path d="M205.505 20.7788C205.505 20.2923 205.923 19.9448 206.411 19.9448C206.899 19.9448 207.247 20.3618 207.247 20.7788C207.247 21.1957 206.899 21.6822 206.411 21.6822C205.923 21.6822 205.505 21.2652 205.505 20.7788ZM205.714 23.5586H206.968V30.9251H205.714V23.5586Z" fill="#2A3D85"/>
<path d="M219.651 27.2418C219.651 29.3962 218.048 31.2031 215.679 31.2031C213.31 31.2031 211.707 29.3962 211.707 27.2418C211.707 25.0875 213.31 23.2806 215.679 23.2806C218.048 23.2806 219.651 25.0875 219.651 27.2418ZM218.327 27.2418C218.327 25.7129 217.212 24.462 215.679 24.462C214.146 24.462 212.961 25.7129 212.961 27.2418C212.961 28.7707 214.076 30.0216 215.679 30.0216C217.282 30.0216 218.327 28.7012 218.327 27.2418Z" fill="#2A3D85"/>
<path d="M225.505 23.5586V24.3925C226.132 23.7671 226.899 23.2806 227.944 23.2806C229.616 23.2806 230.801 24.3925 230.801 26.4774V30.9251H229.547V26.5469C229.547 25.2265 228.78 24.462 227.665 24.462C226.55 24.462 225.923 25.0875 225.435 25.8519V30.9251H224.181V23.5586H225.505Z" fill="#2A3D85"/>
<path d="M235.609 29.0487C235.609 27.9368 236.446 27.1723 238.049 26.8943L240.557 26.4774V25.9909C240.557 24.9485 239.791 24.3925 238.745 24.3925C237.7 24.3925 237.212 24.8095 236.724 25.4349L235.819 24.74C236.446 23.8366 237.491 23.3501 238.815 23.3501C240.697 23.3501 241.812 24.462 241.812 26.0604V30.9946H240.557V30.0911C240 30.7861 239.024 31.2031 238.049 31.2031C236.585 31.2031 235.609 30.3691 235.609 29.1182V29.0487ZM238.188 30.0911C239.164 30.0911 240 29.6047 240.488 28.8402V27.3808L238.327 27.7283C237.282 27.9368 236.864 28.3537 236.864 28.9792C236.864 29.6047 237.352 30.0911 238.258 30.0911H238.188Z" fill="#2A3D85"/>
<path d="M246.899 19.9448H248.153V30.9251H246.899V19.9448Z" fill="#2A3D85"/>
<path d="M256.794 31.2031C254.285 31.2031 252.752 29.3962 252.752 27.2418C252.752 25.0875 254.216 23.2806 256.446 23.2806C258.676 23.2806 259.791 24.6705 259.791 26.4774C259.791 28.2842 259.791 27.0333 259.721 27.2418H254.076C254.076 28.9792 255.261 30.0911 256.864 30.0911C258.467 30.0911 258.606 29.6742 259.094 28.9792L260 29.6742C259.303 30.5776 258.188 31.2031 256.864 31.2031H256.794ZM254.146 26.3384H258.606C258.606 25.2265 257.839 24.323 256.515 24.323C255.191 24.323 254.425 25.018 254.216 26.3384H254.146Z" fill="#2A3D85"/>
<path d="M105.017 41.5578C106.132 41.5578 106.968 41.9748 107.665 42.7393V38.2916H108.92V49.2718H107.665V48.3684C107.038 49.1328 106.132 49.5498 105.017 49.5498C102.717 49.5498 101.254 47.7429 101.254 45.5886C101.254 43.4342 102.717 41.6273 105.017 41.6273V41.5578ZM105.157 48.2989C106.202 48.2989 107.108 47.8124 107.665 46.909V43.9902C107.108 43.0867 106.202 42.6003 105.157 42.6003C103.623 42.6003 102.508 43.8512 102.508 45.3801C102.508 46.909 103.554 48.1599 105.157 48.1599V48.2989Z" fill="#2A3D85"/>
<path d="M117.491 49.4803C114.982 49.4803 113.449 47.6734 113.449 45.5191C113.449 43.3647 114.913 41.5578 117.143 41.5578C119.373 41.5578 120.488 42.9477 120.488 44.7546C120.488 46.5615 120.488 45.3106 120.418 45.5191H114.773C114.773 47.2565 115.958 48.3684 117.561 48.3684C119.163 48.3684 119.303 47.9514 119.791 47.2565L120.697 47.9514C120 48.8548 118.885 49.4803 117.561 49.4803H117.491ZM114.843 44.6156H119.303C119.303 43.5037 118.536 42.6003 117.212 42.6003C115.888 42.6003 115.122 43.2952 114.913 44.6156H114.843Z" fill="#2A3D85"/>
<path d="M131.846 38.2221H133.101V49.2023H131.846V38.2221Z" fill="#2A3D85"/>
<path d="M137.979 47.3259C137.979 46.214 138.815 45.4496 140.418 45.1716L142.927 44.7546V44.2682C142.927 43.2257 142.16 42.6698 141.115 42.6698C140.069 42.6698 139.582 43.0867 139.094 43.7122L138.188 43.0172C138.815 42.1138 139.86 41.6273 141.184 41.6273C143.066 41.6273 144.181 42.7393 144.181 44.3377V49.2718H142.927V48.3684C142.369 49.0633 141.393 49.4803 140.418 49.4803C138.954 49.4803 137.979 48.6464 137.979 47.3954V47.3259ZM140.627 48.3684C141.603 48.3684 142.439 47.8819 142.927 47.1175V45.6581L140.766 46.0055C139.721 46.214 139.303 46.631 139.303 47.2565C139.303 47.8819 139.791 48.3684 140.697 48.3684H140.627Z" fill="#2A3D85"/>
<path d="M161.324 47.2565L162.299 48.0209C161.603 48.9243 160.557 49.5498 159.163 49.5498C156.724 49.5498 155.122 47.7429 155.122 45.5886C155.122 43.4342 156.655 41.6273 159.163 41.6273C161.672 41.6273 161.603 42.2528 162.299 43.1562L161.324 43.9207C160.836 43.2952 160.139 42.8088 159.233 42.8088C157.63 42.8088 156.515 44.0597 156.515 45.5886C156.515 47.1175 157.63 48.3684 159.233 48.3684C160.836 48.3684 160.906 47.9514 161.324 47.2565Z" fill="#2A3D85"/>
<path d="M173.798 45.5191C173.798 47.6734 172.195 49.4803 169.826 49.4803C167.456 49.4803 165.853 47.6734 165.853 45.5191C165.853 43.3647 167.456 41.5578 169.826 41.5578C172.195 41.5578 173.798 43.3647 173.798 45.5191ZM172.474 45.5191C172.474 43.9902 171.359 42.7393 169.826 42.7393C168.292 42.7393 167.108 43.9902 167.108 45.5191C167.108 47.048 168.223 48.2989 169.826 48.2989C171.428 48.2989 172.474 46.9785 172.474 45.5191Z" fill="#2A3D85"/>
<path d="M179.651 38.2221V42.6698C180.278 42.0443 181.045 41.5578 182.09 41.5578C183.763 41.5578 184.947 42.6698 184.947 44.7546V49.2023H183.693V44.8241C183.693 43.5037 182.927 42.7393 181.812 42.7393C180.697 42.7393 180.069 43.3647 179.582 44.1292V49.2023H178.327V38.2221H179.651Z" fill="#2A3D85"/>
<path d="M193.519 49.4803C191.01 49.4803 189.477 47.6734 189.477 45.5191C189.477 43.3647 190.94 41.5578 193.17 41.5578C195.4 41.5578 196.515 42.9477 196.515 44.7546C196.515 46.5615 196.515 45.3106 196.446 45.5191H190.801C190.801 47.2565 191.986 48.3684 193.589 48.3684C195.191 48.3684 195.331 47.9514 195.819 47.2565L196.724 47.9514C196.028 48.8548 194.913 49.4803 193.589 49.4803H193.519ZM190.871 44.6156H195.331C195.331 43.5037 194.564 42.6003 193.24 42.6003C191.916 42.6003 191.15 43.2952 190.94 44.6156H190.871ZM192.683 40.6544L194.216 38.2221H195.609L193.867 40.6544H192.683Z" fill="#2A3D85"/>
<path d="M201.324 47.4649C201.812 48.0904 202.439 48.5074 203.205 48.5074C203.972 48.5074 204.529 48.0209 204.529 47.3954C204.529 45.7276 200.836 46.353 200.836 43.7122C200.836 41.0714 201.812 41.6273 203.205 41.6273C204.599 41.6273 205.157 42.1138 205.714 42.8088L204.878 43.5732C204.46 43.0172 203.902 42.6698 203.275 42.6698C202.648 42.6698 202.09 43.1562 202.09 43.7122C202.09 45.3801 205.784 44.8241 205.784 47.3259C205.784 48.7158 204.669 49.5498 203.275 49.5498C201.881 49.5498 201.184 49.0633 200.488 48.2294L201.393 47.4649H201.324Z" fill="#2A3D85"/>
<path d="M210.104 39.056C210.104 38.5695 210.522 38.2221 211.01 38.2221C211.498 38.2221 211.846 38.639 211.846 39.056C211.846 39.473 211.498 39.9595 211.01 39.9595C210.522 39.9595 210.104 39.5425 210.104 39.056ZM210.383 41.8358H211.637V49.2023H210.383V41.8358Z" fill="#2A3D85"/>
<path d="M224.251 45.5191C224.251 47.6734 222.648 49.4803 220.278 49.4803C217.909 49.4803 216.306 47.6734 216.306 45.5191C216.306 43.3647 217.909 41.5578 220.278 41.5578C222.648 41.5578 224.251 43.3647 224.251 45.5191ZM222.927 45.5191C222.927 43.9902 221.812 42.7393 220.278 42.7393C218.745 42.7393 217.561 43.9902 217.561 45.5191C217.561 47.048 218.676 48.2989 220.278 48.2989C221.881 48.2989 222.927 46.9785 222.927 45.5191Z" fill="#2A3D85"/>
<path d="M230.174 41.8358V42.6698C230.801 42.0443 231.568 41.5578 232.613 41.5578C234.285 41.5578 235.47 42.6698 235.47 44.7546V49.2023H234.216V44.8241C234.216 43.5037 233.449 42.7393 232.334 42.7393C231.219 42.7393 230.592 43.3647 230.104 44.1292V49.2023H228.85V41.8358H230.174Z" fill="#2A3D85"/>
<path d="M105.017 59.8351C106.132 59.8351 106.968 60.2521 107.665 61.0165V56.5688H108.92V67.5491H107.665V66.6456C107.038 67.4101 106.132 67.827 105.017 67.827C102.717 67.827 101.254 66.0202 101.254 63.8658C101.254 61.7115 102.717 59.9046 105.017 59.9046V59.8351ZM105.157 66.5761C106.202 66.5761 107.108 66.0897 107.665 65.1862V62.2674C107.108 61.364 106.202 60.8775 105.157 60.8775C103.623 60.8775 102.508 62.1284 102.508 63.6573C102.508 65.1862 103.554 66.4371 105.157 66.4371V66.5761Z" fill="#2A3D85"/>
<path d="M117.491 67.7576C114.982 67.7576 113.449 65.9507 113.449 63.7963C113.449 61.642 114.913 59.8351 117.143 59.8351C119.373 59.8351 120.488 61.225 120.488 63.0319C120.488 64.8388 120.488 63.5878 120.418 63.7963H114.773C114.773 65.5337 115.958 66.6456 117.561 66.6456C119.163 66.6456 119.303 66.2286 119.791 65.5337L120.697 66.2286C120 67.1321 118.885 67.7576 117.561 67.7576H117.491ZM114.843 62.8234H119.303C119.303 61.7115 118.536 60.808 117.212 60.808C115.888 60.808 115.122 61.503 114.913 62.8234H114.843Z" fill="#2A3D85"/>
<path d="M125.296 65.7422C125.784 66.3676 126.411 66.7846 127.177 66.7846C127.944 66.7846 128.501 66.2982 128.501 65.6727C128.501 64.0048 124.808 64.6303 124.808 61.9894C124.808 59.3486 125.784 59.9046 127.177 59.9046C128.571 59.9046 129.129 60.3911 129.686 61.086L128.85 61.8505C128.432 61.2945 127.874 60.947 127.247 60.947C126.62 60.947 126.062 61.4335 126.062 61.9894C126.062 63.6573 129.756 63.1014 129.756 65.6032C129.756 66.9931 128.641 67.827 127.247 67.827C125.853 67.827 125.157 67.3406 124.46 66.5066L125.366 65.7422H125.296Z" fill="#2A3D85"/>
<path d="M141.324 61.225H139.93V60.1131H141.324V58.3062H142.578V60.1131H145.157V61.225H142.578V64.9777C142.578 66.1592 143.136 66.4371 144.042 66.4371C144.947 66.4371 144.878 66.4371 145.157 66.2286V67.3406C144.808 67.4796 144.39 67.5491 143.902 67.5491C142.23 67.5491 141.324 66.7151 141.324 64.9082V61.1555V61.225Z" fill="#2A3D85"/>
<path d="M152.961 67.7576C150.453 67.7576 148.92 65.9507 148.92 63.7963C148.92 61.642 150.383 59.8351 152.613 59.8351C154.843 59.8351 155.958 61.225 155.958 63.0319C155.958 64.8388 155.958 63.5878 155.888 63.7963H150.244C150.244 65.5337 151.428 66.6456 153.031 66.6456C154.634 66.6456 154.773 66.2286 155.261 65.5337L156.167 66.2286C155.47 67.1321 154.355 67.7576 153.031 67.7576H152.961ZM150.313 62.8234H154.704C154.704 61.7115 153.937 60.808 152.613 60.808C151.289 60.808 150.522 61.503 150.313 62.8234Z" fill="#2A3D85"/>
<path d="M160.697 60.1131H161.951V61.0165C162.508 60.3911 163.136 59.9741 164.111 59.9741C165.087 59.9741 164.599 59.9741 164.738 60.0436V61.225C164.529 61.225 164.32 61.1555 163.972 61.1555C162.996 61.1555 162.369 61.642 161.951 62.4064V67.4796H160.697V60.1131Z" fill="#2A3D85"/>
<path d="M169.198 60.1131H170.453V61.0165C171.01 60.3911 171.637 59.9741 172.613 59.9741C173.589 59.9741 173.101 59.9741 173.24 60.0436V61.225C173.031 61.225 172.822 61.1555 172.474 61.1555C171.498 61.1555 170.871 61.642 170.453 62.4064V67.4796H169.198V60.1131Z" fill="#2A3D85"/>
<path d="M177.352 57.3333C177.352 56.8468 177.77 56.4993 178.258 56.4993C178.745 56.4993 179.094 56.9163 179.094 57.3333C179.094 57.7502 178.745 58.2367 178.258 58.2367C177.77 58.2367 177.352 57.8197 177.352 57.3333ZM177.63 60.1131H178.885V67.4796H177.63V60.1131Z" fill="#2A3D85"/>
<path d="M184.599 61.225H183.205V60.1131H184.599V58.3062H185.853V60.1131H188.432V61.225H185.853V64.9777C185.853 66.1592 186.411 66.4371 187.317 66.4371C188.223 66.4371 188.153 66.4371 188.432 66.2286V67.3406C188.083 67.4796 187.665 67.5491 187.177 67.5491C185.505 67.5491 184.599 66.7151 184.599 64.9082V61.1555V61.225Z" fill="#2A3D85"/>
<path d="M200.139 63.7963C200.139 65.9507 198.536 67.7576 196.167 67.7576C193.798 67.7576 192.195 65.9507 192.195 63.7963C192.195 61.642 193.798 59.8351 196.167 59.8351C198.536 59.8351 200.139 61.642 200.139 63.7963ZM198.815 63.7963C198.815 62.2674 197.7 61.0165 196.167 61.0165C194.634 61.0165 193.449 62.2674 193.449 63.7963C193.449 65.3252 194.564 66.5761 196.167 66.5761C197.77 66.5761 198.815 65.2557 198.815 63.7963Z" fill="#2A3D85"/>
<path d="M204.529 57.3333C204.529 56.8468 204.947 56.4993 205.435 56.4993C205.923 56.4993 206.271 56.9163 206.271 57.3333C206.271 57.7502 205.923 58.2367 205.435 58.2367C204.947 58.2367 204.529 57.8197 204.529 57.3333ZM204.808 60.1131H206.062V67.4796H204.808V60.1131Z" fill="#2A3D85"/>
<path d="M211.359 60.1131H212.613V61.0165C213.17 60.3911 213.798 59.9741 214.773 59.9741C215.749 59.9741 215.261 59.9741 215.4 60.0436V61.225C215.191 61.225 214.982 61.1555 214.634 61.1555C213.658 61.1555 213.031 61.642 212.613 62.4064V67.4796H211.359V60.1131Z" fill="#2A3D85"/>
<path d="M222.718 67.7576C220.209 67.7576 218.676 65.9507 218.676 63.7963C218.676 61.642 220.139 59.8351 222.369 59.8351C224.599 59.8351 225.714 61.225 225.714 63.0319C225.714 64.8388 225.714 63.5878 225.644 63.7963H220C220 65.5337 221.184 66.6456 222.787 66.6456C224.39 66.6456 224.529 66.2286 225.017 65.5337L225.923 66.2286C225.226 67.1321 224.111 67.7576 222.787 67.7576H222.718ZM220.069 62.8234H224.46C224.46 61.7115 223.693 60.808 222.369 60.808C221.045 60.808 220.278 61.503 220.069 62.8234Z" fill="#2A3D85"/>
<path d="M230.522 65.7422C231.01 66.3676 231.637 66.7846 232.404 66.7846C233.17 66.7846 233.728 66.2982 233.728 65.6727C233.728 64.0048 230.035 64.6303 230.035 61.9894C230.035 59.3486 231.01 59.9046 232.404 59.9046C233.798 59.9046 234.355 60.3911 234.913 61.086L234.076 61.8505C233.658 61.2945 233.101 60.947 232.474 60.947C231.846 60.947 231.289 61.4335 231.289 61.9894C231.289 63.6573 234.982 63.1014 234.982 65.6032C234.982 66.9931 233.867 67.827 232.474 67.827C231.08 67.827 230.383 67.3406 229.686 66.5066L230.592 65.7422H230.522Z" fill="#2A3D85"/>
<path d="M10.5224 34.8865C10.5224 30.1608 14.2158 26.7555 20.836 25.6436L30.9406 23.9757V22.3773C30.9406 18.5551 28.0834 16.1923 24.0416 16.1923C19.9998 16.1923 17.9789 17.7212 16.167 20.2925L11.3587 16.6092C14.1461 12.8565 18.6061 10.5631 24.2507 10.5631C32.6827 10.5631 37.3517 15.4973 37.3517 22.3773V43.0174H30.9406V39.4732C28.7106 42.1835 24.8082 43.9209 20.9057 43.9209C14.7036 43.9209 10.4528 40.3766 10.4528 34.8865H10.5224ZM22.1601 38.7782C26.0625 38.7782 29.1287 36.9018 31.0102 33.9135V28.4929L22.5782 29.9523C18.6758 30.6473 17.073 32.3152 17.073 34.678C17.073 37.0408 19.0242 38.7782 22.2298 38.7782H22.1601Z" fill="#2A3D85"/>
<path d="M40.9057 11.7446H47.3169V14.8024C49.6862 12.3005 52.8221 10.4937 57.282 10.4937C64.181 10.4937 69.4771 15.1498 69.4771 24.1842V42.9479H62.9963V24.3927C62.9963 19.4585 60.2785 16.4702 55.7489 16.4702C51.2193 16.4702 48.9197 19.1111 47.3169 21.8909V42.9479H40.9057V11.6751V11.7446Z" fill="#2A3D85"/>
<path d="M36.4458 73.8733L41.6026 77.8345C38.6757 81.7958 33.9371 84.2976 28.0137 84.2976C17.282 84.2976 10.5224 76.3751 10.5224 66.9933C10.5224 57.6114 17.282 49.689 28.0137 49.689C38.7454 49.689 38.6757 52.2603 41.6026 56.152L36.4458 60.1132C34.6339 57.6114 31.7071 55.874 28.0137 55.874C21.8116 55.874 17.3517 60.6692 17.3517 66.9933C17.3517 73.3173 21.8116 78.1125 28.0834 78.1125C34.3552 78.1125 34.6339 76.3056 36.4458 73.8733Z" fill="#2A3D85"/>
<path d="M51.7768 57.5419H44.8081V51.7738H51.7768V43.9904H58.2576V51.7738H69.4771V57.5419H58.2576V72.2054C58.2576 76.4446 60.4876 77.765 63.9719 77.765C67.4562 77.765 68.3621 77.4871 69.4771 77.0701V82.6992C68.0137 83.3247 65.4353 83.6026 62.9963 83.6026C55.6792 83.6026 51.7768 79.7804 51.7768 72.1359V57.4724V57.5419Z" fill="#2A3D85"/>
</svg>
