<svg xmlns="http://www.w3.org/2000/svg" width="180" height="180" fill="none"><g clip-path="url(#a)"><path fill="#0B436A" fill-rule="evenodd" d="M90 17.666c-39.953 0-72.336 32.377-72.336 72.312S50.047 162.29 90 162.29s72.336-32.378 72.336-72.312c0-39.935-32.384-72.312-72.336-72.312M0 89.977C0 40.283 40.297.002 90 .002s89.999 40.28 89.999 89.976c0 49.694-40.296 89.975-90 89.975C40.298 179.953 0 139.672 0 89.978" clip-rule="evenodd"/><path fill="#fff" d="M85.927 175.492c-.149-.03-.802-.975-2.338-3.375a97 97 0 0 1-2.217-3.553c-.08-.208-.317 2.296-.469 4.872l-.053.951.579.216c.719.268.787.491.133.425a97 97 0 0 0-1.574-.133 9 9 0 0 1-1.168-.134c-.1-.101.09-.229.488-.327.231-.059.445-.146.475-.19.065-.11.624-7.118.573-7.204-.023-.036-.297-.161-.612-.274-.528-.193-.677-.318-.499-.416.039-.021.683.009 1.432.066l1.367.104 1.836 2.935c1.01 1.61 1.898 3.06 1.97 3.214.124.28.127.28.133.048.003-.131.09-1.236.19-2.46.259-3.09.297-2.775-.377-3.027-.704-.265-.766-.485-.119-.416.247.021.957.083 1.575.13.618.051 1.144.11 1.167.134.101.101-.092.235-.424.291-.197.03-.416.095-.485.137-.095.059-.208 1.108-.445 4.04l-.321 3.987c-.003.033-.582.003-.817-.041m6.313-.075c-.333-.077-.624-.157-.648-.184-.023-.024-.068-.493-.095-1.043l-.05-1.001h.231c.2 0 .256.08.42.591.249.782.546.966 1.547.969.553 0 .787-.042 1.043-.193.737-.431.977-1.295.54-1.943-.22-.327-.87-.704-2.16-1.248-.748-.318-1.342-.802-1.598-1.304-.225-.437-.252-1.358-.053-1.83.362-.871 1.417-1.536 2.59-1.634.604-.051 1.837.089 2.071.238.06.035.137.478.173.986l.068.921h-.238c-.202 0-.258-.071-.41-.541-.214-.653-.445-.802-1.366-.858-1.067-.066-1.631.329-1.62 1.134.01.699.3.927 2.306 1.813 1.337.594 1.872 1.268 1.872 2.362 0 1.268-.577 2.094-1.813 2.593-.722.294-1.949.368-2.81.172m9.192-.802a1.7 1.7 0 0 1-.437-.107 22 22 0 0 1-.312-1.946c.009-.006.101-.038.208-.071.169-.05.238.027.475.535.17.362.369.636.514.707.297.148 1.364.143 1.774-.006 1.037-.377 1.337-1.589.564-2.297-.332-.306-.614-.427-1.996-.849-1.589-.487-2.187-1.132-2.187-2.356 0-.553.042-.737.259-1.105.547-.93 1.453-1.397 2.876-1.474.475-.03 1.013-.021 1.194.012l.327.059.142.877c.149.879.122 1.01-.184 1.013-.062 0-.208-.208-.318-.469-.261-.609-.347-.672-1.019-.734-.772-.069-1.188.029-1.568.362s-.49.713-.339 1.171c.163.49.472.677 1.839 1.099 2.02.63 2.674 1.218 2.775 2.49.095 1.2-.44 2.079-1.613 2.653-.92.454-1.96.607-2.971.436zm-28.212-.802c-.906-.211-1.663-.437-1.684-.496-.024-.071.151-.134.49-.178.288-.036.55-.101.576-.149.063-.098-.148-2.091-.228-2.18-.06-.066-2.962-.761-2.995-.719-.464.624-1.183 1.824-1.147 1.919.03.071.223.226.434.347.353.202.514.455.288.455-.053 0-.552-.107-1.111-.238l-1.23-.285c-.3-.068-.264-.303.06-.371a1.2 1.2 0 0 0 .504-.318c.131-.14 1.29-1.753 2.576-3.589s2.398-3.336 2.466-3.336c.074 0 .348.047.61.104.368.077.49.148.525.306.044.193 1.087 8.086 1.087 8.223 0 .036.134.217.297.404.17.193.262.374.214.416-.044.042-.826-.098-1.732-.312zm-1.06-5.282c-.092-.793-.17-1.655-.173-1.916l-.006-.476-.237.413c-.128.223-.594.936-1.04 1.575q-.438.603-.802 1.254c0 .074 1.901.564 2.275.585.131.006.131-.137-.017-1.435m37.668 4.456c0-.071.169-.237.377-.365.273-.167.38-.297.38-.461 0-.312-1.696-6.747-1.818-6.892-.054-.068-.282-.119-.505-.119-.366 0-.612-.125-.49-.25.062-.059 3.244-.888 3.422-.888.25 0 .164.155-.232.416-.294.193-.377.309-.371.508 0 .143.398 1.75.876 3.571l.874 3.313.541.08c.297.044.54.131.54.19 0 .086-1.167.422-3.428.986-.098.024-.166-.012-.166-.089m-62.353-12.29a2.1 2.1 0 0 1-.951-.999c-.152-.466.027-.989.475-1.396.633-.57 1.447-.555 2.13.048.624.546.61 1.307-.038 1.999-.318.342-.41.386-.868.416a2.2 2.2 0 0 1-.748-.068m83.704-.259a1.78 1.78 0 0 1-.635-1.164c0-.47.398-1.058.879-1.305.401-.205.49-.216.817-.118.683.205 1.17 1.025 1.004 1.684-.217.871-1.331 1.358-2.065.903m17.13-10.009c-.035-.035 0-.19.078-.341.08-.155.13-.33.116-.393-.018-.062-.978-1.021-2.137-2.133-1.158-1.111-2.103-2.044-2.1-2.079 0-.033.098-.175.214-.315l.208-.253 2.84.321c1.56.178 2.965.342 3.119.372.238.044.039-.185-1.218-1.391a38 38 0 0 0-1.642-1.527c-.093-.053-.268-.009-.514.128-.208.119-.399.187-.428.157-.051-.05 1.111-1.396 1.441-1.669.234-.193.282-.024.101.356l-.17.351 1.878 1.821c1.034.998 1.952 1.842 2.044 1.875.089.029.333-.036.544-.155.208-.119.407-.184.439-.148.098.095-1.307 1.527-1.53 1.559-.166.024-4.299-.46-5.128-.6-.279-.047-.216.033.713.93q.726.706 1.468 1.393l.455.413.416-.228c.228-.125.445-.197.481-.161s-.315.452-.779.924c-.463.475-.873.832-.909.793M28.66 147.61c-.25-.256-.3-.371-.247-.547.039-.122.66-1.402 1.382-2.846 1.12-2.243 1.313-2.691 1.316-3.075l.006-.451.939.986c.514.541.915 1.019.888 1.064-.03.041-.217-.006-.416-.11l-.371-.19-.235.404q-.21.367-.395.748l-.164.351.476.549c.267.303.624.684.796.85l.318.297.71-.279q.404-.15.781-.357c.042-.038.006-.231-.077-.427-.08-.196-.125-.384-.095-.413.065-.066.793.627 1.218 1.158l.294.369-.36-.06c-.308-.05-.775.104-3.285 1.076l-3.045 1.179c-.066.027-.262-.098-.434-.276m3.654-1.768c-.035-.104-1.224-1.334-1.254-1.298a93 93 0 0 0-.653 1.218l-.627 1.197 1.28-.523c.707-.288 1.272-.555 1.257-.594zm120.796-2.864c-1.048-.347-1.99-1.132-2.418-2.002a3.62 3.62 0 0 1-.131-2.409c.348-.96 1.34-1.949 2.208-2.19.956-.267 1.821-.077 2.792.618 1.12.796 1.718 2.1 1.486 3.238-.06.297-.202.737-.315.975a4.24 4.24 0 0 1-1.619 1.604c-.553.267-1.471.342-2.006.166zm2.252-1.042a1.84 1.84 0 0 0 .93-1.106c.285-.95-.725-2.347-2.281-3.155-.749-.386-1.144-.469-1.62-.338a1.6 1.6 0 0 0-1.221 1.556c0 .586.188.996.719 1.566 1.186 1.263 2.57 1.854 3.476 1.477zm-129.928.926c-.687-.19-1.305-.6-1.94-1.286-.53-.57-1.278-1.791-1.278-2.088 0-.09.238-.342.526-.562.419-.315.544-.371.609-.267.053.089.015.246-.113.451-.312.505-.113 1.221.553 2 .953 1.117 2.436 1.013 3.832-.265 1.272-1.161 1.379-2.546.273-3.541a1.7 1.7 0 0 0-.484-.351c-.178 0-1.426 1.058-1.387 1.171.232.618.285.823.229.879-.036.036-.08.048-.099.024-1.832-2.326-2.106-2.772-1.375-2.252.154.107.342.172.419.143.077-.03.481-.318.897-.639.91-.707.862-.719 2.02.487 1.06 1.099 1.495 1.949 1.495 2.927 0 .852-.297 1.506-.987 2.186-.915.9-2.133 1.278-3.19.98zm133.63-5.41c.244-.623.333-.534-2.068-2.133-1.227-.817-2.287-1.485-2.362-1.485-.071 0-.237.083-.368.187-.267.211-.354.235-.354.095 0-.148 1.438-2.27 1.536-2.27.048 0 .06.185.021.419l-.059.419 2.281 1.521 2.288 1.521.318-.243c.172-.131.339-.205.368-.161.072.119-1.381 2.288-1.536 2.294-.083 0-.104-.06-.062-.164zm-139.635-1.836a99 99 0 0 1-1.253-1.963c-.015-.033.214-.202.505-.378.612-.365.867-.297.523.137a.9.9 0 0 0-.202.404c0 .232.98 1.726 1.102 1.679.06-.021.481-.28.933-.571.517-.332.802-.576.772-.653a10 10 0 0 0-.481-.802c-.401-.63-.452-.675-.692-.618-.401.092-.422.089-.47-.033-.06-.158 1.396-1.099 1.515-.98.057.053.012.196-.119.383l-.213.297.496.751c.27.416.514.752.54.752s.49-.282 1.028-.63c.624-.398.98-.689.98-.79 0-.128-.801-1.485-1.01-1.702a2 2 0 0 0-.579-.048c-.781 0-.763-.208.045-.544.348-.142.639-.249.648-.237l2.16 3.357c.463.725.457.942-.021.541-.173-.146-.34-.214-.41-.173-.066.039-1.114.707-2.33 1.489l-2.207 1.42.06.41c.035.223.03.407-.012.407-.045 0-.63-.856-1.308-1.902zm141.611-2.127c-.538-.306-.687-.475-.541-.624.03-.029.244.006.475.075.232.071.476.107.544.08.068-.024.279-.336.469-.689l.348-.642-2.279-1.292c-1.253-.713-2.347-1.296-2.427-1.296-.083 0-.267.11-.407.244-.14.137-.279.208-.306.16-.059-.098 1.269-2.483 1.385-2.483.041 0 .059.196.047.436l-.03.437 2.312 1.316c1.854 1.055 2.335 1.29 2.427 1.195.062-.069.246-.375.41-.684l.297-.561-.377-.386c-.268-.268-.357-.422-.297-.514.065-.107.208-.063.73.225q.346.188.684.387c.047.041-2.748 4.961-2.817 4.955-.029 0-.324-.154-.647-.339M16.542 130.89l-.488-.984 1.216-2.483c.668-1.367 1.206-2.484 1.194-2.484-.009 0-.811.413-1.78.918l-1.758.918.059.383.077.431c.01.024-.03.06-.08.071-.125.036-1.159-1.925-1.064-2.02.04-.038.203.051.36.205l.288.277.493-.268c.268-.142 1.48-.772 2.686-1.396l2.195-1.135.149.282c.077.158.143.342.143.41s-.592 1.367-1.314 2.888l-1.313 2.763.392-.223a90 90 0 0 1 1.976-1.043c.87-.454 1.584-.852 1.584-.891 0-.033-.045-.229-.101-.428-.208-.746.07-.517.603.493q.293.533.54 1.088c0 .136-.24.047-.469-.17l-.24-.231-2.363 1.224a68 68 0 0 0-2.433 1.298c-.035.038-.026.255.024.487.063.27.063.446 0 .508-.06.06-.258-.249-.576-.891zm146.179-5.526c-2.576-.196-2.911-.205-3.155-.077-.148.077-.297.116-.327.083-.074-.074.948-2.279 1.067-2.303.05-.008.095.164.095.387v.398l.52.059c.285.036.671.069.861.071l.336.009.449-.995c.246-.549.433-1.037.416-1.081-.06-.164-1.037-1.138-1.141-1.138-.06 0-.226.113-.372.252-.145.14-.291.229-.32.197-.084-.084.748-1.872.855-1.839.051.017.119.172.158.344.038.193.255.511.579.844.285.291 1.286 1.352 2.228 2.356l1.714 1.824-.205.425c-.24.499.199.475-3.758.181zm1.795-1.988a15 15 0 0 0-1.04-.989c-.069.003-.785 1.61-.737 1.658.021.021.609.098 1.307.169.701.072 1.316.137 1.367.146.05.006-.354-.437-.897-.981zm-150.318-.255c-1.322-.196-2.335-1.281-2.763-2.971-.291-1.129-.401-.98 1.194-1.613.06-.024.128.041.155.148.035.14-.045.253-.321.446-.202.14-.395.357-.428.481-.158.636.288 1.658.891 2.029.297.188.476.223 1.111.217 1.263-.009 2.347-.564 2.93-1.503.246-.401.285-.553.285-1.132 0-.772-.226-1.337-.746-1.872-.282-.291-.303-.344-.187-.505.125-.169.163-.148.69.372.887.879 1.324 2.002 1.196 3.078-.207 1.782-2.085 3.107-4.007 2.825m154.085-3.31-.03-.395-2.585-.855-2.584-.862-.271.333c-.148.181-.297.3-.335.267-.09-.092.748-2.564.885-2.611q.112-.038.113.374v.413l2.192.728c1.206.401 2.211.713 2.228.695s-.906-.814-2.055-1.771c-1.997-1.657-2.092-1.752-2.038-2.014.029-.151.074-.297.101-.327.029-.026 1.218-.118 2.65-.205 1.429-.086 2.62-.175 2.644-.199.023-.023-.921-.356-2.104-.733-2.038-.654-2.154-.684-2.263-.514-.559.84-.615.623-.185-.693.199-.6.395-1.057.44-1.01.045.042.092.247.11.452l.03.374 2.587.856 2.591.855.255-.306c.458-.546.476-.347.09.817l-.378 1.126-2.148.081c-1.179.044-2.35.08-2.599.08-.321 0-.416.03-.324.095.071.053.98.811 2.026 1.687l1.898 1.593-.341 1.034c-.187.567-.392 1.033-.458 1.033-.068 0-.127-.163-.142-.398M9.774 115.076a54 54 0 0 1-.654-2.231c-.014-.185 1.094-.523 1.195-.369.047.075-.03.208-.208.357-.16.136-.288.321-.288.416 0 .148.46 1.761.522 1.833.036.038 1.967-.556 2.05-.633.09-.077-.392-1.643-.531-1.738a.8.8 0 0 0-.36-.071c-.166 0-.261-.051-.261-.14s.267-.22.784-.377c.434-.134.817-.238.853-.238.16 0 .044.282-.179.446l-.246.178.258.87c.146.476.306.868.357.868.217 0 2.237-.672 2.293-.764.063-.104-.404-1.758-.552-1.957-.05-.066-.25-.143-.446-.176-.844-.133-.76-.454.146-.546q.326-.047.656-.036c.104.131 1.39 4.537 1.34 4.584-.035.036-.184-.077-.333-.255l-.267-.321-2.59.802c-2.19.674-2.597.829-2.62.989-.066.431-.123.612-.197.612-.042 0-.365-.945-.722-2.103m155.55-5.823c-.03-.054.017-.446.107-.871.139-.665.199-.793.419-.906.386-.202 3.297-1.458 3.371-1.458.036 0 .051.219.03.493-.056.823.348 1.316 1.186 1.45.522.086 1.001-.131 1.194-.541.148-.318.365-1.12.297-1.12-.015 0-1.15-.235-2.516-.52s-2.579-.52-2.698-.52q-.211 0-.359.282c-.149.288-.333.38-.333.17 0-.36.535-2.624.615-2.597.053.018.119.196.142.398l.048.368.662.149c2.535.573 4.813.983 4.849.876.062-.19.383-.549.437-.496.089.089-.669 3.455-.871 3.892-.362.773-.707 1.025-1.396 1.025a1.63 1.63 0 0 1-1.587-1.414c-.035-.208-.083-.383-.107-.383-.181 0-2.985 1.387-3.181 1.574-.14.134-.277.199-.309.149M7.427 105.816l-.17-1.052 1.724-1.765c.95-.968 1.839-1.86 1.973-1.976.317-.276.32-.279-1.932.101l-1.797.301-.083.377c-.122.564-.155.648-.217.588a22 22 0 0 1-.407-2.314c-.006-.217.14-.12.32.214.12.217.247.329.378.326.107 0 1.462-.202 3.007-.451 2.771-.446 2.807-.449 2.86-.259.128.479.033.606-2.061 2.802-1.165 1.218-2.089 2.228-2.059 2.234.033.012.995-.14 2.139-.33l2.083-.35.089-.496c.092-.523.208-.639.282-.283.074.351.339 2.027.339 2.139 0 .208-.149.104-.327-.222-.098-.188-.25-.333-.345-.333-.199 0-4.89.743-5.113.811-.169.05-.267.318-.267.728-.003.148-.056.258-.128.258-.083 0-.178-.332-.29-1.048zm161.753-3.664c-1.411-.505-2.205-1.61-2.205-3.074 0-1.379.666-2.544 1.715-2.995a4.02 4.02 0 0 1 3.553.327c.956.633 1.396 1.485 1.393 2.697-.006 1.388-.564 2.383-1.622 2.9-.713.35-2.068.419-2.834.148zm2.733-1.345a1.656 1.656 0 0 0 1.233-1.605c0-.817-.455-1.337-1.497-1.717-.452-.166-.782-.208-1.741-.214-1.126-.009-1.203.003-1.622.25a1.647 1.647 0 0 0 .116 2.911c.204.107.594.253.867.327.588.158 2.148.184 2.644.048M12.359 97.934c-.131-.178-.793-.437-3.218-1.242a146 146 0 0 1-3.09-1.046c-.02-.018-.059-.237-.08-.487l-.044-.455 2.959-1.319c2.427-1.084 2.989-1.37 3.11-1.583.268-.467.354-.312.416.748.083 1.35.08 1.64-.027 1.64-.047 0-.142-.148-.207-.332-.149-.407-.25-.41-1.109-.03l-.674.297.053.954c.078 1.435.021 1.337.91 1.607.424.13.808.217.846.193.042-.027.101-.193.137-.374.098-.535.324-.416.327.17 0 .272.024.718.06.991.065.565-.078.666-.37.268m-2.38-1.812c-.033-.084-.06-.455-.06-.83 0-.37-.035-.73-.077-.796-.059-.089-.374.006-1.3.401-.877.375-1.168.535-1.035.574.104.03.68.22 1.278.419 1.277.428 1.268.425 1.194.231m162.579-2.012c0-.13.104-.199.401-.261l.404-.086.062-1.037c.036-.57.045-1.07.018-1.111-.024-.042-.576-.075-1.221-.075h-1.179v1.902l.285.1q.284.097.282.292c0 .178-.039.187-.496.134a10 10 0 0 0-.945-.06c-.579 0-.621-.231-.071-.38l.377-.101v-1.86l-.579-.06a14 14 0 0 0-1.23-.059h-.645l-.128.443c-.071.244-.187.463-.255.484-.101.036-.113-.154-.062-.98.032-.559.059-1.248.059-1.524 0-.594.14-.66.294-.143l.11.366 1.052.059a58 58 0 0 0 2.786.062h1.729l.14-.33c.253-.603.357-.41.291.535a45 45 0 0 0-.059 2.365v1.5h-.713c-.624 0-.707-.02-.707-.178zM6.678 90.997l-.733-.03v-.692c0-.38.03-1.655.059-2.834l.065-2.145h.797c.707 0 .79.02.763.166-.02.11-.187.205-.49.28-.253.062-.475.127-.493.148-.018.015-.06.374-.095.796l-.066.766 1.836.063c1.01.038 2.255.053 2.772.035l.936-.03.11-.326c.06-.178.166-.345.238-.368.1-.033.112.113.062.751a24 24 0 0 0-.06 1.48c0 .76-.127.891-.288.303-.056-.208-.154-.398-.216-.416-.06-.02-1.296-.066-2.743-.098l-2.629-.06.03.83.027.831.424.101c.327.077.434.149.458.312.015.113.015.2 0 .19-.018-.012-.363-.035-.764-.053m167.05-3.708c-.092-.232-.214-.386-.309-.383q-1.379.084-2.757.187c-3.511.252-3.217.267-3.217-.178 0-.357.041-.401 2.145-2.246a79 79 0 0 1 2.388-2.044c.306-.208.416-.205-2.026-.024-1.04.077-1.966.14-2.056.14-.098 0-.184.095-.213.237l-.098.476c-.09.419-.217.25-.268-.357-.154-1.759-.154-1.773-.03-1.773.066 0 .176.148.238.33.089.243.178.33.327.326.743-.009 5.199-.365 5.252-.416.036-.035.11-.237.164-.454.157-.63.294-.53.359.27.131 1.524.297 1.239-1.758 2.989l-2.145 1.812-.321.264.558-.053c.309-.03 1.218-.101 2.026-.158.805-.059 1.495-.148 1.527-.202.033-.056.09-.264.119-.466.089-.562.226-.434.288.273l.104 1.177c.06.662-.089.799-.297.273m-161.39-3.547c-.036-.181-.101-.357-.146-.383-.08-.048-4.848-.52-5.279-.523-.154 0-.261.098-.374.332-.24.505-.348.407-.277-.261.033-.327.09-.942.122-1.373.066-.837.244-1.057.357-.445.035.187.116.356.178.38.11.039 5.012.517 5.309.517.08 0 .208-.148.285-.333.078-.18.184-.33.238-.33.119 0 .119.102-.027 1.554-.113 1.144-.267 1.495-.386.865m154.412-5.235q-.09-.687-.217-1.37c-.083-.29.22-.184.344.12.066.157.152.305.191.33.065.04 4.759-.634 5.273-.758.16-.039.226-.14.273-.431.033-.214.107-.366.164-.345.148.048.534 2.716.395 2.716-.06 0-.184-.152-.271-.34-.142-.293-.196-.329-.421-.284-.14.03-1.278.205-2.526.386-2.947.434-2.685.356-2.757.808-.116.713-.273.416-.445-.832zm-157.508.936c-.915-.294-1.494-.793-1.984-1.714-.196-.366-.226-.556-.226-1.37 0-.823.03-1.016.247-1.47.338-.725.76-1.17 1.39-1.486.484-.235.633-.261 1.485-.255.743.006 1.06.05 1.486.217a3.48 3.48 0 0 1 1.75 1.67c.228.49.264.68.258 1.372-.015 1.42-.591 2.424-1.693 2.944-.494.237-.68.27-1.376.267a5 5 0 0 1-1.337-.178zm2.567-1.248c.856-.196 1.325-.787 1.325-1.666 0-1.07-1.004-1.783-2.822-2.006-1.607-.196-2.653.312-2.81 1.36q-.224 1.482 1.618 2.08c.966.315 1.961.402 2.69.232m159.243-3.972c-.306-.125-.939-.636-1.058-.855-.149-.277.131-.33.466-.09.615.434 1.391.289 1.628-.309a3 3 0 0 1 .152-.341c.077-.095.787.713.787.894 0 .238-.318.558-.692.701a2.3 2.3 0 0 1-1.283 0M14.144 72.461c-.035-.035-.065-.225-.065-.424 0-.203-.02-.366-.045-.366-.026 0-1.206-.318-2.623-.707q-1.312-.37-2.632-.713c-.03 0-.152.172-.268.38-.208.369-.392.493-.392.268 0-.06.113-.526.25-1.034l.25-.927.956-.368 2.54-.975a17 17 0 0 0 1.587-.653c0-.027-.838-.277-1.86-.559l-1.86-.514-.149.202-.309.416c-.279.39-.267.134.045-.998.312-1.135.466-1.367.52-.773.018.193.095.369.19.416.09.048 1.373.416 2.855.817 1.486.404 2.727.764 2.763.796.042.033.03.208-.02.395l-.09.333-2.772 1.1q-1.45.579-2.908 1.14c-.128.039-.128.05 0 .098.3.113 3.98 1.105 4.09 1.103.066 0 .218-.17.336-.378.217-.38.452-.517.363-.21l-.297 1.11c-.256.96-.339 1.144-.455 1.025m152.867-.918c-.861-.279-1.628-1.01-2.05-1.952-.252-.558-1.135-3.698-1.06-3.772.032-.03.172.08.312.249.139.17.338.306.442.303.104 0 1.296-.315 2.647-.692l2.46-.69.03-.395c.059-.802.261-.424.781 1.474.458 1.658.514 1.97.514 2.766 0 .743-.038.968-.208 1.286-.267.502-.784.951-1.444 1.254-.629.288-1.809.371-2.424.17m1.774-1.473c1.512-.568 1.955-1.465 1.509-3.063a5 5 0 0 0-.22-.684c-.053-.056-4.92 1.287-5.036 1.388-.246.22.44 1.842.924 2.186.702.5 1.777.565 2.823.173M16.23 65.174a2 2 0 0 1-.101-.327c-.042-.166-.85-.99-2.404-2.445-1.286-1.206-2.353-2.249-2.37-2.317-.015-.069.035-.28.112-.467l.143-.338h3.232c2.867 0 3.26-.018 3.503-.16.149-.09.297-.137.327-.108s-.152.591-.401 1.248c-.473 1.248-.728 1.548-.672.793l.03-.404h-1.77l-.387 1.02-.38 1.018.276.291q.307.311.645.586l.365.29.27-.3c.476-.534.49-.353.054.773-.327.853-.395.975-.466.847zm-1.233-3.782c.175-.449.306-.829.291-.84-.015-.016-.63-.04-1.37-.06-1.027-.024-1.319-.006-1.23.08.624.603 1.917 1.714 1.952 1.678.024-.023.185-.41.357-.858m147.766-.784c-.96-.232-1.652-1.043-1.991-2.338-.211-.826-.211-.826.523-1.156.366-.16.707-.297.758-.297.217 0 .068.338-.285.638-.268.23-.378.398-.378.577 0 .47.202.98.517 1.325.265.285.38.342.701.342.773 0 1.126-.544 1.141-1.765.018-1.685.565-2.44 1.756-2.44.606 0 .986.188 1.444.705.377.428.683 1.147.817 1.928.056.309.047.318-.565.594-.846.386-1.078.232-.466-.306.392-.345.437-.743.148-1.373-.306-.68-.87-.89-1.36-.505-.306.241-.443.71-.443 1.53q.001 1.369-.484 1.917a1.98 1.98 0 0 1-1.833.624M19.15 57.458l.057-.404-2.422-1.206c-1.334-.662-2.483-1.206-2.555-1.206-.074 0-.216.113-.315.25-.1.136-.231.234-.29.213-.126-.041 1.098-2.638 1.241-2.638.054 0 .066.19.03.473l-.066.472 2.38 1.185c1.783.889 2.41 1.16 2.502 1.085.166-.14.802-1.489.802-1.706 0-.092-.098-.29-.214-.44-.466-.575-.46-.564-.321-.68.101-.083.267 0 .758.369l.627.475-1.04 2.08c-.574 1.144-1.082 2.08-1.132 2.08-.057 0-.072-.167-.039-.402zm139.448-3.76c-.609-1.153-1.082-2.119-1.052-2.149s.199.054.374.188l.321.246 2.401-1.268 2.406-1.266-.024-.43c-.015-.238.015-.432.06-.432.05 0 .436.672.864 1.492.428.817.921 1.75 1.099 2.068l.318.576-.57.303c-.49.261-.577.282-.624.148-.036-.089.021-.237.14-.365.11-.119.202-.291.202-.386 0-.184-.823-1.753-.921-1.753-.045 0-1.81.92-1.896.992-.015.01.17.386.41.838l.434.817.371-.06c.303-.047.372-.03.372.096 0 .095-.283.297-.77.537-.841.425-1.111.401-.713-.059l.232-.273-.413-.82-.413-.823-1.067.552c-.588.306-1.081.624-1.099.707-.035.182.698 1.652.912 1.825.084.062.357.118.612.118.378 0 .455.027.431.155-.03.151-.404.324-.995.451l-.294.066zM21.967 51.955l.053-.416-2.305-1.381c-1.269-.76-2.362-1.381-2.428-1.381s-.216.089-.332.199c-.556.522-.327-.033.772-1.878 1.337-2.24 1.14-2.086 1.967-1.566.285.178.338.256.255.357-.077.089-.187.104-.392.044-.457-.13-.422-.166-1.307 1.343l-.205.345.945.57c.686.416.968.54 1.03.46.048-.062.268-.424.488-.807l.4-.693-.207-.222c-.13-.14-.187-.286-.149-.384.05-.136.084-.14.268-.02l.757.46c.663.39.716.591.149.544-.383-.03-.401-.018-.668.442-.155.262-.36.61-.461.773l-.184.3 1.049.63c.576.347 1.105.612 1.173.585.071-.03.348-.437.618-.91l.493-.86-.237-.428c-.214-.38-.25-.713-.075-.702.033.003.288.208.57.46l.506.458-1.218 2.044c-.669 1.123-1.254 2.044-1.302 2.047-.044 0-.06-.184-.026-.413zm134.135-2.724c-.728-1.072-.876-1.405-.502-1.138.52.374.446.401 2.442-.927 1.034-.689 1.919-1.286 1.961-1.328.047-.038-.294.01-.755.11l-2.733.594c-1.887.416-1.889.416-2.056.226-.089-.104-.163-.246-.163-.315 0-.124 2.596-3.963 2.968-4.388.258-.294.237-.282-1.917 1.156-1.815 1.21-1.83 1.221-1.782 1.518.03.163.08.374.119.466.041.107.018.164-.066.16-.16 0-1.337-1.767-1.259-1.892.029-.05.196.018.374.149l.318.247 2.276-1.521c1.253-.838 2.278-1.554 2.278-1.593s-.041-.217-.092-.398c-.053-.178-.059-.36-.018-.404.098-.095 1.37 1.797 1.308 1.949-.021.06-.684 1.001-1.465 2.094a61 61 0 0 0-1.405 2c.009.009 1.081-.211 2.382-.49 1.302-.28 2.436-.511 2.52-.511.163-.003 1.381 1.755 1.283 1.853-.03.03-.187-.038-.348-.151-.16-.116-.35-.187-.424-.16-.214.083-4.379 2.881-4.445 2.988-.035.057-.021.25.03.43.05.182.059.351.021.375-.039.024-.419-.47-.847-1.099zM27.261 43.846c.03-.125.08-.318.119-.431.053-.178-.214-.422-2.074-1.913-1.174-.942-2.169-1.711-2.207-1.711-.042 0-.179.086-.312.187-.268.208-.378.237-.378.086 0-.16 2.119-2.748 2.698-3.298.668-.633 1.248-.891 1.996-.891 1.468-.003 2.971 1.432 3.129 2.992.059.594-.158 1.544-.485 2.103-.273.466-2.302 3.016-2.439 3.066-.06.02-.08-.053-.047-.19m1.461-2.338c.53-.648.749-1.379.598-1.979-.158-.624-.315-.891-.86-1.42-.908-.891-1.963-1.242-2.786-.927-.386.149-1.322 1.028-1.562 1.474-.06.113.377.508 1.963 1.776 1.123.898 2.089 1.616 2.145 1.599s.283-.256.502-.523m121.04-1.016c-.844-1.02-1.509-1.88-1.479-1.91s.22.035.416.148l.362.202 2.074-1.714c2.204-1.821 2.183-1.795 1.975-2.433q-.07-.227.036-.19c.059.02.766.837 1.575 1.815l1.473 1.776-.3.259c-.555.47-.656.523-.772.407-.081-.077-.066-.178.053-.38.089-.15.164-.327.164-.387 0-.062-.28-.448-.624-.861l-.624-.743-.817.671q-.443.346-.847.737c-.015.036.238.372.556.752q.577.686.719.633c.814-.312.784-.036-.075.656-.46.372-.701.511-.769.446-.066-.069-.048-.166.059-.318.08-.119.149-.273.149-.345 0-.113-1.025-1.438-1.111-1.438-.101 0-1.917 1.557-1.917 1.646 0 .057.303.458.669.889.662.775.671.78 1.019.713.547-.104.719-.09.749.062.023.119-.583.517-1.112.737-.035.015-.754-.808-1.601-1.83M32.249 37.853c0-.026.071-.196.16-.383l.16-.335-.89-.904c-.494-.496-1.394-1.37-2-1.94l-1.102-1.036-.339.163c-.187.09-.368.13-.404.095s.547-.692 1.295-1.459c.746-.77 1.474-1.518 1.614-1.67l.258-.273.481.416c.404.348.458.434.35.541-.106.107-.174.104-.424-.027-.38-.196-.484-.14-1.215.684l-.58.653.773.773.778.772.654-.66.657-.659-.16-.339c-.146-.303-.146-.341-.01-.392.2-.077 1.403 1.1 1.266 1.239q-.093.093-.401-.02c-.3-.114-.312-.108-.954.534l-.65.65.87.841c.478.46.92.853.986.868.06.015.425-.297.805-.69.675-.695.693-.724.624-1.069-.19-.98-.044-1.066.508-.297l.378.532-1.658 1.717c-1.453 1.506-1.83 1.85-1.83 1.675m113.176-2.16c-1.049-1.054-1.209-1.33-.583-1.01l.387.197 1.197-1.135a100 100 0 0 0 1.952-1.893l.751-.76-.421-.47c-.473-.528-.773-.665-1.07-.484l-.362.226c-.119.074-.197.068-.283-.018-.092-.092-.009-.226.425-.66l.541-.54 1.987 1.984c1.091 1.094 1.985 2.036 1.985 2.098 0 .06-.244.327-.544.588-.63.556-.864.517-.52-.083.119-.202.214-.446.214-.54 0-.099-.229-.402-.511-.678l-.508-.505-1.928 1.892c-2.121 2.086-1.961 1.833-1.643 2.6.14.338-.122.14-1.066-.808m9.878.535c-.098-.73-.071-2.192.044-2.263.098-.06.366.196.713.689.137.193.125.273-.154 1.111-.169.514-.351.9-.422.9s-.145-.175-.178-.437zm-13.732-4.32c-.754-.308-1.541-.997-1.871-1.642-.146-.276-.14-.288.297-.814.241-.291.49-.535.552-.538.217-.012.22.175.009.606l-.211.437.226.428c.565 1.06 1.801 1.256 2.228.356.191-.398.146-.647-.312-1.738-.454-1.081-.475-1.788-.077-2.314.532-.695 1.495-.891 2.356-.481.49.231 1.206.894 1.456 1.34l.202.368-.464.514c-.356.398-.49.49-.576.404-.089-.09-.077-.19.048-.446.219-.466.202-.624-.131-1.081-.285-.395-.749-.668-1.132-.668-.282 0-.755.499-.755.799 0 .136.193.73.428 1.325.481 1.218.52 1.619.211 2.228a1.79 1.79 0 0 1-1.61 1.01 2.7 2.7 0 0 1-.874-.09zm-102.16-.98c-.035-.03.024-.178.125-.32.104-.146.188-.306.188-.357 0-.187-3.328-4.228-3.503-4.257a.7.7 0 0 0-.383.08c-.113.06-.238.071-.286.027-.083-.084 1.997-1.827 2.178-1.827.149 0 .125.074-.148.43-.226.297-.235.342-.107.535.43.654 3.146 3.91 3.28 3.934.089.015.472-.22.852-.52l.692-.547-.068-.475c-.107-.767-.101-.844.047-.874.167-.03.913 1.284.788 1.39q-1.762 1.444-3.556 2.844c-.021 0-.066-.03-.098-.06zm96.745-3.315c-.583-.446-1.04-.844-1.014-.885.027-.045.217-.021.425.053l.378.134.653-.874.651-.87.217-1.922c.169-1.492.193-1.982.113-2.199-.06-.151-.078-.297-.042-.318.101-.062 2.187 1.492 2.19 1.634 0 .084-.06.107-.164.066a3 3 0 0 0-.416-.116c-.291-.06-.267-.13-.514 1.545-.086.585-.142 1.102-.122 1.155.033.098 2.264-.9 2.466-1.105.086-.083.06-.178-.095-.392-.199-.267-.267-.475-.16-.475.098 0 1.655 1.17 1.655 1.247 0 .042-.137.075-.303.075-.173 0-1.034.326-2.018.763l-1.714.764-.633.843c-.347.464-.63.898-.63.963a.9.9 0 0 0 .188.357c.101.13.187.267.187.308.006.182-.315-.002-1.298-.751m-92.03-.573c.164-.387.11-.788-.505-3.744l-.647-3.107.389-.268.386-.267 2.63 1.883c2.195 1.572 2.682 1.884 2.952 1.884.179 0 .327.042.327.095 0 .122-2.16 1.56-2.234 1.486-.033-.03.03-.182.143-.336a1.04 1.04 0 0 0 .196-.407c-.003-.104-.984-.906-1.236-1.01-.039-.015-.496.255-1.013.6l-.942.624.163.757c.197.915.262.995.675.85.612-.214.454.062-.339.588-.847.565-1.063.65-.945.372m1.84-4.201c0-.033-.49-.428-1.094-.877-.624-.463-1.07-.742-1.04-.647.027.089.158.653.291 1.253.134.6.262 1.144.283 1.21.03.08.294-.045.802-.378.416-.276.757-.526.757-.561m84.996 1.346c-.689-.327-1.601-1.153-1.515-1.373.143-.374.743-1.197.847-1.162.119.042.125.184.015.758-.089.47.062.752.606 1.111.573.38 1.129.386 1.518.02.158-.15.274-.34.336-.549.059-.297.065-.288-.892-2.076-.338-.642-.395-.817-.356-1.16.143-1.244 1.524-1.9 2.766-1.312a4.2 4.2 0 0 1 1.378 1.04l.187.237-.347.55a22 22 0 0 1-.377.588c-.018.02-.095-.015-.173-.08-.101-.086-.116-.175-.047-.35.172-.455.104-.743-.259-1.106-.603-.603-1.34-.653-1.693-.113-.238.366-.122.8.466 1.735.624.99.799 1.566.636 2.11-.137.46-.701 1.108-1.117 1.28-.529.223-1.325.163-1.982-.148zm-77.477-3.788c-.291-.58-.312-.669-.179-.743.12-.066.232 0 .485.28.386.427.763.474 1.402.186.707-.323 1.025-.939.766-1.485-.255-.532-.52-.636-1.705-.675-1.435-.047-1.622-.086-2.008-.424-.82-.72-.793-1.88.065-2.695a4.04 4.04 0 0 1 1.842-.861l.404-.042.294.582c.416.823.247 1.037-.332.422-.295-.312-.354-.336-.678-.276-.9.16-1.42.65-1.31 1.23.104.561.458.713 1.667.713 1.248 0 1.856.163 2.246.609a1.93 1.93 0 0 1 .472 1.524c-.077.92-.853 1.729-2.04 2.118-.955.315-1.011.297-1.391-.463m69.518-.568a4.3 4.3 0 0 1-1.648-.915l-.306-.318.279-.639c.368-.831.558-.852.558-.059 0 .66.137.877.731 1.18.877.448 1.777.03 1.777-.832 0-.31-.208-.675-.802-1.403-.877-1.078-1.019-1.752-.535-2.516.362-.57.823-.793 1.622-.79a3.27 3.27 0 0 1 2.05.844l.336.29-.289.64c-.225.493-.323.623-.445.576-.125-.05-.143-.143-.092-.5.074-.543-.122-.837-.761-1.146-.68-.327-1.26-.13-1.414.478-.086.348.053.633.701 1.438.636.793.951 1.39.951 1.824 0 .155-.101.502-.223.767-.437.933-1.381 1.343-2.493 1.081zm-64.269-1.046c0-.053.125-.21.28-.356l.279-.258-1.028-2.556-1.025-2.554h-.386c-.211 0-.398-.033-.413-.078-.021-.071 3.636-1.595 4.147-1.726.166-.044.226.03.404.49.256.669.149.868-.252.482-.149-.14-.336-.253-.425-.253-.184 0-1.59.544-1.712.663-.047.047.087.505.315 1.075l.401.995.44-.175c1.31-.52 1.233-.466 1.263-.84.047-.541.267-.428.558.287.375.91.401 1.023.265 1.023-.066 0-.229-.104-.363-.232l-.24-.229-.865.333-.864.332.475 1.174c.258.648.517 1.174.576 1.174.06 0 .505-.158.993-.351.95-.374 1.057-.487 1.057-1.12 0-.259.036-.327.181-.327.149 0 .205.107.292.544.059.3.115.603.124.671.012.08-.772.443-2.204 1.016-1.221.49-2.234.892-2.246.892-.015 0-.03-.042-.03-.096zm58.161-1.589c-1.182-.446-2.118-.844-2.079-.882s.237-.084.439-.098l.372-.03.927-2.46c.508-1.355.927-2.525.93-2.603.002-.077-.128-.252-.295-.386-.163-.136-.258-.27-.214-.297.11-.065 4.391 1.53 4.391 1.634 0 .238-.41 1.135-.505 1.105-.059-.02-.13-.222-.157-.451l-.048-.416-.897-.354a17 17 0 0 0-.959-.356c-.054-.006-.684 1.622-.764 1.967-.018.08.229.222.683.395.859.327 1.07.341 1.242.08.074-.11.202-.184.288-.163.134.03.113.14-.148.837-.336.898-.547 1.046-.624.44-.051-.363-.056-.368-.871-.671l-.819-.31-.434 1.15q-.237.602-.434 1.218c0 .075.086.11 1.251.544l.731.27.439-.332c.606-.464.713-.315.309.425-.178.326-.377.573-.457.564-.08-.003-1.111-.374-2.297-.82m-51.253-1.5c-.633-.232-1.521-1.159-1.795-1.875-.32-.832-.362-1.842-.104-2.525.484-1.278 1.937-2.19 3.64-2.273l.555-.03.223.713c.267.856.267.85.053.85-.095 0-.303-.184-.463-.413-.33-.47-.624-.57-1.25-.43-1.067.237-1.62.92-1.617 1.999.003 1.37.728 2.674 1.723 3.101.847.363 2.02.134 2.733-.534.208-.193.262-.208.357-.095a.32.32 0 0 1 .053.282c-.086.22-.974.876-1.515 1.12-.62.28-1.972.335-2.593.11m44.89-.57c-.758-.179-3.069-.812-3.262-.895-.226-.098-.229-.107-.048-.178q.216-.075.443-.083c.199-.006.273-.072.35-.315.184-.588 1.337-4.873 1.337-4.974 0-.056-.128-.178-.285-.267-.324-.193-.395-.46-.095-.365l1.892.525c1.872.511 2.511.785 3.06 1.308.609.576.773.98.767 1.901-.006 1.643-.847 2.822-2.317 3.26-.47.139-1.412.183-1.842.082m1.342-.794c.752-.365 1.328-1.459 1.426-2.706.045-.61.024-.74-.207-1.207-.303-.623-.699-.89-1.735-1.176-.514-.143-.702-.163-.734-.077-.024.06-.339 1.197-.701 2.525-.514 1.878-.633 2.436-.544 2.522.199.187 1.227.41 1.67.36a3.1 3.1 0 0 0 .825-.238zm-38.71-.13a4 4 0 0 0-.357-.09c-.344-.077-.89-.57-1.114-1.01-.1-.193-.353-1.197-.564-2.228q-.198-1.054-.473-2.092c-.07-.163-.169-.213-.424-.213-.211 0-.333-.045-.333-.122q-.002-.123 1.254-.38c.689-.14 1.307-.256 1.37-.256.216 0 .124.146-.212.327-.181.098-.33.223-.33.279 0 .06.188 1.01.416 2.115.274 1.313.49 2.125.624 2.344.377.612 1.022.767 1.768.428.49-.223.692-.588.692-1.254 0-.641-.728-4.159-.88-4.257a.9.9 0 0 0-.368-.074c-.303 0-.433-.155-.196-.229.211-.068 2.006-.434 2.115-.434.19 0 .066.17-.246.336-.181.098-.33.223-.33.276s.17.918.378 1.92c.451 2.183.469 2.638.13 3.321-.264.529-.656.853-1.316 1.084-.386.137-1.435.274-1.604.208m26.488-1.198c-1.144-.151-2.139-.297-2.204-.32-.187-.066-.039-.238.208-.238.47 0 .505-.107.81-2.555.158-1.272.316-2.475.346-2.668.05-.333.032-.363-.286-.514-.754-.36-.377-.378 1.955-.092 1.263.154 2.308.29 2.326.303.018.015 0 .309-.035.653-.054.502-.098.621-.217.597-.083-.014-.193-.178-.244-.356-.05-.184-.131-.36-.178-.392-.051-.036-.493-.116-.986-.178-.666-.09-.915-.093-.963-.015-.074.119-.327 2.002-.273 2.053.053.056 1.239.231 1.553.231.238 0 .318-.053.413-.282.066-.157.179-.285.259-.285.119 0 .131.116.074.713q-.04.482-.134.957c-.059.237-.074.24-.228.089a.58.58 0 0 1-.161-.34c0-.097-.032-.198-.074-.225-.116-.068-1.729-.273-1.777-.223-.098.095-.338 2.365-.261 2.442.098.098 1.242.274 1.783.274.332 0 .41-.045.644-.378.467-.656.639-.445.348.431-.17.511-.238.612-.41.603a95 95 0 0 1-2.288-.285m-20.956.02c0-.044.175-.154.386-.237.374-.148.386-.166.333-.505a136 136 0 0 1-.297-2.674c-.131-1.274-.253-2.364-.274-2.424-.02-.06-.19-.134-.377-.17-.184-.035-.339-.097-.339-.142 0-.119.265-.163 2.059-.344 1.892-.19 2.51-.12 2.965.332a1.68 1.68 0 0 1 .425 1.373c-.078.407-.594 1.019-1.004 1.188-.158.066-.277.155-.262.196.077.223 2.234 2.463 2.46 2.555.261.107.333.223.193.306-.038.024-.43.071-.873.104l-.805.066-1.317-1.492-1.313-1.491.416-.107c.915-.232 1.17-.58 1.105-1.492-.035-.493-.08-.603-.344-.837-.267-.241-.368-.268-.963-.268-.636 0-.66.006-.66.23 0 .27.45 4.604.524 5.032.041.261.095.303.425.356.412.066.499.22.163.286-.291.059-2.106.246-2.392.246-.127 0-.234-.039-.234-.086m14.263-.552c-.862-.024-1.111-.06-1.111-.16 0-.071.157-.167.356-.214.342-.08.357-.098.416-.585.033-.277.09-1.498.13-2.713l.07-2.207-.23-.06a3.8 3.8 0 0 0-.793-.03l-.564.03-.149.476c-.089.285-.214.484-.309.505-.136.024-.157-.074-.157-.74 0-.526.035-.778.119-.808.065-.024 1.351.009 2.86.074l2.746.116.03.282a4 4 0 0 1-.03.785c-.084.671-.327.656-.47-.027l-.1-.472-.52-.06a12 12 0 0 0-.812-.074l-.297-.009-.06 1.872a113 113 0 0 1-.121 2.733l-.06.867.393.12c.475.142.531.38.083.35a47 47 0 0 0-1.42-.05m-6.694-.104c0-.044.173-.148.38-.228l.378-.149-.06-2.258c-.03-1.239-.083-2.484-.118-2.763-.054-.475-.083-.523-.366-.618-.626-.208-.365-.29 1.04-.318.832-.014 1.396.012 1.396.066 0 .047-.124.119-.279.148-.148.036-.318.113-.371.179-.06.074-.066.974-.01 2.664l.09 2.716c0 .104.134.199.38.273.476.143.482.232.024.306-.532.09-2.484.074-2.484-.018m-28.065-.66c-.08-.05-.09-.178-.033-.445l.193-.93c.11-.546.116-.555.624-.781.6-.264.698-.276.698-.09 0 .134-1.058 1.97-1.266 2.2-.06.065-.157.085-.216.047m42.186-5.525c-.071-.09.065-.312.526-.862l.621-.742.573.065c.318.039.594.08.612.101.119.104-.154.348-.808.725l-1.081.63c-.271.16-.363.178-.44.083z"/><path fill="#A2A3A4" d="M80.737 159.997a96 96 0 0 1-5.06-.897 71 71 0 0 1-16.859-5.912 82 82 0 0 1-4.655-2.573 83 83 0 0 1-5.182-3.431 82 82 0 0 1-4.842-3.862c-1.622-1.414-3.82-3.55-4.13-4.011-.309-.449-2.394-2.861-3.47-4.005-.33-.35-.63-.624-.662-.603-.033.018-.223-.172-.422-.428-.2-.255-.33-.463-.297-.463.041 0 .47.392.956.87.615.606.886.814.886.693 0-.098-.09-.363-.202-.592-.11-.225-.178-.433-.152-.457.024-.027.202.03.395.119.345.166.354.166.511-.048l.16-.211.268.279c.149.152.24.321.208.378-.032.053.09.294.273.535a1.7 1.7 0 0 1 .333.603c0 .092.13.344.285.561.277.38.473.499.473.288 0-.059-.19-.38-.422-.713-.416-.594-.416-.603-.187-.603.386 0 1.387.562 1.791 1.004.318.351.473.437.969.55.341.077.713.238.876.371.261.22.339.238.921.188.49-.042.728-.015 1.016.112.357.155.363.17.155.226-.2.054-.101.14.778.704.663.425 1.007.701 1.007.814 0 .122.095.179.357.217.22.03.787.321 1.506.773.636.401 1.18.805 1.209.903.036.113.119.157.229.128.196-.054.624.148 1.197.555.315.223.514.282 1.087.327.87.062 2.876.698 3.539 1.117q.445.276.93.475c.266.107.507.269.707.476a8 8 0 0 0 1.93 1.399c.238.101.372.226.417.398.044.178.003.327-.143.526-.14.19-.184.347-.142.511.05.208.11.238.466.238.348 0 .398-.024.36-.176-.042-.16.017-.172.778-.157.692.012.843.044.956.196q.128.183.188.398c.03.119.089.211.14.211.047 0 .127-.107.177-.238.048-.128.143-.232.208-.232.069 0 .633.134 1.257.292.624.16 1.358.318 1.634.356.337.025.65.182.87.437l.378.368.214-.199c.202-.19.267-.193 1.11-.11.497.048 1.01.125 1.145.17.148.05.309.044.416-.015.246-.14 1.506-.027 2.177.196q.783.265 1.56.544c.87.311 1.105.356 1.89.362l.9.009.92.659c.779.562.936.719 1.023 1.022.053.199.07.446.038.55a2 2 0 0 1-.344.517c-.238.267-.277.38-.23.633.04.217 0 .416-.133.662a4 4 0 0 0-.187.386c0 .018.267.208.597.422q.767.535 1.468 1.153c.763.677.867.802.867 1.081 0 .256.05.339.282.452.247.119.268.157.16.303-.097.134-.281.172-.92.187-.8.021-1.242.161-1.498.47-.097.118-.086.157.054.231.095.048.535.205.974.351.817.267 1.69.665 2.035.933.105.08.167.142.14.139zm45.437-10.344c0-.027.089-.208.19-.401.196-.366.226-.586.131-.945q-.058-.213-.413-.318l-.354-.107-.056-.769c-.03-.422-.122-.966-.208-1.21a2.5 2.5 0 0 0-.499-.784 1.9 1.9 0 0 0-.749-.457c-.223-.06-.404-.161-.404-.223 0-.223.273-1.408.466-2.02.143-.455.33-.773.725-1.23.292-.339.612-.743.707-.898.101-.154.179-.392.179-.522 0-.161-.131-.372-.384-.615-.353-.345-.38-.404-.326-.743.041-.268.003-.476-.143-.779a2.6 2.6 0 0 0-1.248-1.12c-.178-.074-.79-.225-1.357-.341-.565-.113-1.18-.279-1.361-.375a2.4 2.4 0 0 1-.565-.415c-.222-.238-.222-.253-.068-.58.1-.247.155-.511.161-.778.002-.276.089-.624.237-.921.256-.517.297-1.099.104-1.444a1.4 1.4 0 0 0-.398-.404c-.362-.238-1.069-.238-1.533-.003a7 7 0 0 0-.909.612c-.579.449-1.396.817-1.821.817-.149 0-.392-.134-.606-.327a2.3 2.3 0 0 0-.743-.439c-.294-.09-.535-.09-1.043-.006-.624.104-.787.19-2.76 1.485a88 88 0 0 1-2.834 1.803c-.41.264-.87.439-1.352.514q-.957.194-1.88.514-.686.245-1.391.428c-.219 0-1.09.484-1.637.915l-.549.428-1.471-.149-1.467-.154-1.337.977a139 139 0 0 1-8.491 5.713c-1.634 1.01-3.877 2.315-3.919 2.273a22 22 0 0 1 1.21-1.396 144 144 0 0 0 2.31-2.644l1.073-1.269-1.11-.579c-2.193-1.138-4.416-2.487-7.214-4.379a94 94 0 0 1-6.031-4.442 88 88 0 0 1-8.437-7.65 78 78 0 0 1-7.73-8.963 83 83 0 0 1-4.49-6.676 62 62 0 0 1-3.143-5.843 74 74 0 0 1-3.541-9.617q-.87-3.099-1.56-6.242-.713-3.41-1.236-6.857a136 136 0 0 1-.894-7.783c-.1-1.189-.208-2.187-.238-2.217s-.053.018-.053.104-.036.158-.077.158c-.042 0-.143-.14-.217-.31-.113-.24-.125-.445-.06-.968.096-.73.01-2.032-.13-2.032-.05 0-.291.416-.538.921-.386.796-.44.983-.41 1.397.048.65.045 1.871-.006 2.552-.042.576-.17.888-.778 1.898-.327.54-.327.54-.386.267-.146-.7-.283-1.084-.636-1.767-.208-.404-.398-.72-.416-.699-.021.018.003.327.056.69.12.829.125 2.656.01 2.727-.114.071-.951-.966-1.23-1.515-.117-.238-.28-.77-.36-1.189l-.149-.757.256-.208c.231-.181.25-.238.16-.473-.06-.145-.1-.582-.1-.968 0-.666-.016-.713-.239-.796a4.7 4.7 0 0 0-.85-.152L37 68.916v-.354q.006-.33.1-.647c.06-.164.247-.384.429-.496a1.5 1.5 0 0 0 .475-.49l.152-.292.124.297c.187.446.559.776.865.773.148 0 .327-.039.407-.09.077-.047.208-.362.282-.695.14-.588.17-.63.891-1.244q.448-.397.948-.725c.11-.05.413-.505.695-1.055q.282-.51.496-1.052c0-.047-.068-.16-.151-.252-.119-.128-.128-.205-.042-.363.098-.184.09-.196-.133-.14-.134.03-.244.03-.244-.011 0-.042.11-.259.24-.484l.238-.41h-.237c-.131 0-.238-.039-.238-.09 0-.246.137-.386.386-.386.149 0 .276-.03.28-.068l.08-.838c.065-.698.107-.81.46-1.277.244-.318.35-.53.285-.568-.1-.062-.065-.416.075-.784.059-.152.044-.163-.11-.077-.104.06-.283.392-.416.787-.131.377-.292.704-.357.725-.065.02-.145-.039-.178-.134a1.4 1.4 0 0 0-.166-.309c-.08-.104-.116-.044-.152.276-.06.503-.285.64-.285.173 0-.458-.158-.957-.377-1.188-.104-.116-.188-.286-.188-.38a.42.42 0 0 0-.098-.268c-.065-.069-.06-.193.006-.392.084-.238.075-.342-.053-.535-.149-.229-.149-.264.038-.648a5.3 5.3 0 0 1 .53-.82l.332-.416v.348q0 .346.13.345c.075 0 .176-.12.224-.262.047-.142.068-.434.047-.645-.036-.347.006-.436.43-.944.476-.565 2.069-2.077 2.859-2.704.552-.445 1.188-.76 1.447-.725.142.021.213.107.234.277.024.208-.06.3-.564.632a8 8 0 0 0-1.165.975c-.57.591-.493.561.44-.166.28-.217.677-.44.885-.497.535-.14 1.04.01 1.227.369.078.151.143.436.14.633 0 .407-.267 1.051-.63 1.527l-.244.318-.207-.259c-.17-.214-.238-.24-.39-.16a1.6 1.6 0 0 0-.362.297c-.178.196-.178.199.17.199.287 0 .362.038.445.255.074.196.047.425-.119 1.016-.16.585-.22 1.09-.25 2.202q-.04.721 0 1.444c.024 0 .912-.446 1.976-.987a158 158 0 0 1 3.773-1.854 29 29 0 0 0 1.958-.98c.06-.06.327-.91.585-1.892.354-1.331.556-1.923.8-2.312.258-.416.308-.57.246-.766a33 33 0 0 1-.273-.918l-.197-.678-.496.134c-.817.217-.802.229-.7-.526.07-.508.13-.674.264-.713.252-.083.558-.508.558-.784 0-.13.11-.431.25-.666.264-.451.246-.451.57.048.101.154.113.14.119-.134 0-.17.03-.306.06-.306s.133.042.231.095c.14.075.2.057.276-.089a.9.9 0 0 0 .101-.333c0-.095-.089-.148-.25-.148-.219 0-.237-.024-.177-.259.032-.142.19-.57.35-.95.158-.375.416-.814.57-.972.158-.157.663-.475 1.124-.707.719-.362.843-.398.918-.267.065.119.228-.024.831-.72.562-.653.746-.935.746-1.143 0-.229.285-.561 1.753-2.032.96-.969 1.99-1.925 2.288-2.13.294-.205.555-.369.582-.369s-.077.366-.232.817c-.151.452-.264.835-.246.853.017.015.228-.345.472-.796.238-.455.44-.785.44-.734 0 .053-.101.54-.226 1.087a9 9 0 0 0-.202 1.02c.015.014.232-.509.481-1.162.25-.654.657-1.498.906-1.878.5-.76 1.284-1.545 1.414-1.414.048.048.253.475.46.95q.288.64.438 1.326c.041.315.017.564-.084.802-.11.267-.22.365-.487.44a3.8 3.8 0 0 0-.763.341 1.28 1.28 0 0 0-.565.589c-.077.187-.128.356-.113.37.018.019.22-.16.446-.391.297-.303.493-.425.683-.425.146 0 .265.044.265.1 0 .054-.069.23-.149.387-.083.157-.13.309-.104.336.027.023.238-.131.475-.348l.428-.395-.24.882q-.203.739-.482 1.45c-.267.63-.43 1.147-.335 1.052.032-.033.451-.752.924-1.596.82-1.455.879-1.535 1.137-1.515.149.01.378.128.508.259.19.187.238.32.223.642-.009.22-.252 1.2-.535 2.171q-.37 1.23-.618 2.49a16 16 0 0 0-.1 1.696c0 .96-.004.98-.238 1.058l-.235.08.475.707c.399.603.47.778.47 1.159 0 .246.015.448.03.448.017 0 1.316-.466 2.884-1.04a289 289 0 0 1 6.002-2.085l3.285-1.1c.09-.035-.026-.127-.332-.267a4.4 4.4 0 0 1-1.088-.85 7.5 7.5 0 0 0-1.274-1.018 8 8 0 0 1-1.12-.814 4.6 4.6 0 0 1-.695-.832l-.238-.407.338-.392c.185-.217.407-.603.49-.862.182-.544.137-1.135-.106-1.402-.158-.175-.158-.181.015-.184.098 0 .698.05 1.33.113l1.153.115.437.832.44.832h-.339c-.434 0-1.025.244-.974.401.074.226.653.535 1.9 1.016a82 82 0 0 1 1.53.61c.227.1.322.234.45.641.089.285.163.54.163.57s-.178.069-.398.09c-.38.038-.428.011-.921-.497a4.8 4.8 0 0 0-.936-.742c-.226-.116-.43-.19-.457-.164-.024.024.326.69.778 1.474.624 1.075.861 1.417.98 1.381l2.846-.852c1.483-.446 2.725-.817 2.763-.832.06-.021-1.396-1.753-2.763-3.286l-.609-.683.327.068c.606.134 6.447 2.1 9.266 3.12q6.481 2.34 12.838 5c.793.335 1.464.576 1.488.534.027-.038-.068-.324-.205-.627-.217-.475-.256-.707-.279-1.628l-.03-1.072.303.229c.184.145.333.326.443.534.074.164.178.286.234.268.06-.021.164-.149.238-.283.125-.216.122-.282-.021-.585-.151-.315-.151-.356-.009-.576.149-.226.146-.374-.023-1.04l-.066-.267.547.309c.502.282.808.33.808.118 0-.044-.125-.136-.276-.198a.5.5 0 0 1-.33-.416c-.057-.298-.089-.312-.862-.503-.445-.106-.829-.16-.855-.118-.027.044-.378.068-.785.056-.588-.02-.793-.065-1.036-.238a2 2 0 0 1-.301-.24c0-.015.333-.01.74.015.565.032.808.008 1.04-.113.218-.136.406-.316.55-.53.217-.326.291-.376.609-.376.196 0 .469.044.606.095.22.083.243.074.193-.08-.045-.15.033-.188.6-.292a5.8 5.8 0 0 1 1.349-.053l.695.06-.66-.426c-.591-.38-.68-.413-.817-.288-.121.113-.237.12-.576.045a6 6 0 0 1-.603-.164c-.16-.059-.166-.05-.051.096.075.089.113.178.09.205a2.5 2.5 0 0 1-.684-.143c-.356-.101-.692-.25-.751-.327-.063-.09-.446-.214-.912-.306q-.612-.114-1.207-.294a2.1 2.1 0 0 1-.742-.517c-.277-.306-.621-.496-1.854-1.022-.832-.357-1.536-.668-1.563-.695-.03-.03.021-.158.107-.288.119-.158.276-.286.458-.366l.3-.119-.461-.32c-.439-.3-.454-.327-.279-.452a8 8 0 0 1 .541-.342l.356-.208-.57-.276c-.315-.148-.571-.306-.571-.347 0-.045.149-.078.33-.078s.33-.035.33-.08c0-.042-.407-.134-.903-.202-.684-.092-.921-.16-.951-.276a3.7 3.7 0 0 0-.719-1.23l-.3-.327.327.062c.303.06.312.054.142-.077a.83.83 0 0 0-.433-.14c-.14 0-.505.087-.811.194-.293.12-.61.168-.924.14-.502-.078-1.783-.616-3.04-1.278-.784-.416-1.179-.565-1.604-.615-.315-.039-.6-.12-.639-.179-.118-.184-.08-.344.09-.344.261 0 .02-.149-.52-.321a1.9 1.9 0 0 0-.82-.098c-.25.047-.327.027-.35-.095-.03-.14-.26-.163-1.83-.202a50 50 0 0 1-2.502-.116c-.707-.065-.707-.065-.46-.226a.57.57 0 0 1 .516-.086c.285.077.79-.041.79-.187 0-.048.375-.095.83-.104s.635-.03.4-.048c-.505-.035-1.23-.216-1.23-.306 0-.089 1.159-.445 1.84-.57.308-.053.938-.098 1.399-.098 1.334 0 3.452.178 5.644.475 1.117.152 2.044.259 2.065.238.018-.015-.235-.122-.564-.232-.327-.11-1.034-.24-1.566-.29-.535-.051-1.058-.14-1.165-.197s-.178-.152-.154-.214c.018-.06.16-.134.309-.16.252-.042.22-.069-.377-.327-.52-.217-.615-.288-.47-.345.098-.038.297-.074.44-.077.374-.009.332-.267-.069-.437-.228-.095-.695-.136-1.544-.136-1.061 0-1.24-.024-1.376-.173a.7.7 0 0 1-.154-.226c0-.077.436-.237 1.135-.412.4-.103.816-.14 1.23-.107.564.044.662.02 1.226-.277l.615-.323-.683.05-1.373.101c-.543.039-.647.03-.51-.06.145-.088.154-.124.047-.192a2.1 2.1 0 0 0-.695-.084 6.4 6.4 0 0 1-1.135-.136c-.49-.12-.654-.12-1.227.003-.362.077-1.07.202-1.575.276-.864.13-.941.128-1.455-.05a4 4 0 0 0-1.159-.188c-.496 0-.594-.024-.51-.125.058-.068.32-.225.581-.347.265-.122.446-.259.401-.3-.041-.042-.606-.036-1.253.015-.648.05-1.263.092-1.367.092-.297.006-.035-.184.535-.386l.505-.179-1.278.057c-1.15.047-2.272.199-2.792.368-.184.063-.184.06-.003-.086.098-.08.154-.172.125-.205-.093-.09-1.061.223-1.325.43a1 1 0 0 1-.523.194c-.152 0-.508.044-.788.1-.579.114-3.496.18-3.434.075.024-.038-.205.03-.505.146-.517.202-1.346.389-1.346.303 0-.021.214-.193.476-.38.445-.321.594-.363 2.34-.675q3.421-.595 6.878-.909c1.907-.17 9.537-.172 11.349-.003a75.4 75.4 0 0 1 11.961 2.017c2.971.764 6.542 1.97 9.596 3.245a80 80 0 0 1 3.437 1.568 66 66 0 0 1 8.209 4.688 71 71 0 0 1 8.17 6.331c1.705 1.533 5.047 4.962 6.485 6.664a70 70 0 0 1 9.239 13.874 66 66 0 0 1 3.996 9.626 69 69 0 0 1 3.158 14.468c.202 1.865.39 4.554.369 5.294-.006.261-.03.365-.051.237l-.324-2.317a47 47 0 0 0-1.022-5.389l-.178-.662-.009.873c-.006.481-.041.876-.08.876-.089 0-.63-.802-.79-1.158-.107-.24-.238-.306-.529-.268-.065.006-.282-.246-.484-.564l-.369-.582-.246.79c-.291.939-.998 2.415-1.408 2.956-.336.437-1.224 1.378-1.302 1.378-.029 0-.237-.237-.463-.528-.229-.289-.446-.49-.484-.446-.039.041-.161.416-.268.832-.154.58-.27.82-.49 1.019-.232.208-.327.24-.469.166-.265-.142-.957-.119-1.266.045-.261.136-.282.13-.758-.274q-.37-.316-.79-.564a1.6 1.6 0 0 0-.591-.155c-.226 0-.33.069-.475.306-.199.327-.247.785-.101 1.01.053.09.032.212-.06.357-.136.205-.133.22.051.22.119 0 .368.202.644.523.381.44.491.514.693.47.208-.048.353.07 1.129.911l.888.969-.06-.398q-.065-.398-.112-.8c-.042-.368-.015-.335.371.455.229.472.475.91.552.971.113.09.155.042.256-.29.065-.22.279-.577.475-.788.236-.243.397-.548.464-.88.059-.27.107-1.12.11-1.883l.003-1.39.377.897c.211.511.484.998.63 1.126l.255.226.381-.443.386-.443.356.431.36.431-.024 1.821c-.015 1.233.015 1.925.089 2.157.104.297.089.395-.089.802a2.3 2.3 0 0 0-.196.939 1.5 1.5 0 0 1-.226.88 1.38 1.38 0 0 0-.211.944c.03.573-.03.71-.781 1.901a1.63 1.63 0 0 0-.327 1.138c0 .58-.039.695-.591 1.723a15 15 0 0 0-.811 1.747q-.207.593-.476 1.159c-.142.276-.505.772-.811 1.099-.407.437-.594.734-.722 1.129-.169.535-.707 1.283-.921 1.283-.062 0-.335-.457-.603-1.016-.315-.653-.505-1.182-.531-1.476a1.7 1.7 0 0 0-.223-.71 2.6 2.6 0 0 0-.761-.535c-.41-.202-.618-.368-.722-.585a1.35 1.35 0 0 0-.395-.467 1.6 1.6 0 0 0-.65-.184 2.7 2.7 0 0 1-.734-.163c-.279-.119-.348-.208-.446-.588a4.7 4.7 0 0 0-.297-.811 3.3 3.3 0 0 0-.52-.696c-.243-.246-.416-.335-.636-.332a1 1 0 0 0-.43.08c-.09.06-.387-.172-.999-.781-1.025-1.01-1.928-1.59-2.415-1.551l-.327.026-.16-.644c-.089-.357-.193-.675-.229-.71-.036-.033-.033.419.003 1.01l.071 1.075-.321-.065c-.178-.039-.677-.256-1.114-.487a5 5 0 0 0-.825-.386c-.018.02.089.201.243.41.178.24.565.54 1.093.843.449.259.93.594 1.07.752.594.677 1.26 1.254 1.794 1.56.523.3.583.368.639.71.033.208.119.475.196.59.143.224.407.28.565.12q.092-.095.502.065c.386.148.43.214 1.054 1.456.398.793.716 1.319.82 1.346.089.026.339.077.547.109.208.036.475.125.591.199.119.078.404.52.639.987.258.517.484.849.573.849.078 0 .274-.068.434-.148a.93.93 0 0 1 .588-.098c.488.092 1.456.594 1.613.838a.68.68 0 0 1 .093.514c-.054.264-.024.306.386.534.324.179.487.226.609.161.089-.051.44-.476.772-.954l1.287-1.824q.598-.848 1.135-1.738c.249-.428.484-.778.522-.778.214-.015-.095 2.323-.73 5.526-.407 2.044-.708 3.045-1.397 4.634-.184.416-1.221 2.543-2.311 4.73a189 189 0 0 0-2.751 5.719c-.719 1.634-.758 1.753-.585 1.818.104.036.187.086.187.107s-.086.3-.187.624a7 7 0 0 0-.25 1.188c-.059.582-.053.6.14.55.11-.03.202-.009.202.041s-.131.535-.291 1.076a16 16 0 0 1-.666 1.782c-.449.96-1.527 2.597-2.4 3.643a52 52 0 0 1-1.682 1.871c-1.016 1.076-1.058 1.135-1.227 1.798q-.192.691-.493 1.343c-.238.499-.499.837-1.061 1.372q-.525.509-1.069.995a3.8 3.8 0 0 0-.588.678q-.403.566-.862 1.087c-.636.725-3.134 3.078-4.744 4.468q-.848.725-1.759 1.367-1.043.665-2.145 1.224-.683.359-1.385.677c-.029 0-.056-.021-.056-.047m-34.445-11.349a91 91 0 0 0 8.574-13.853 111 111 0 0 0 1.902-3.972 91 91 0 0 0 2.691-6.854c.678-1.982 1.664-5.372 2.038-7 .143-.624.33-.802.366-.84 2.115-.357 4.091.038 6.016.534.802.208 1.634.401 1.842.422.288.03.445-.006.636-.16a1.06 1.06 0 0 0 .306-1.058c-.039-.122-.589-.754-1.218-1.405-.633-.648-1.456-1.578-1.831-2.065q-.645-.85-1.218-1.75a25 25 0 0 1-1.078-2 21 21 0 0 1-.876-2.177 22 22 0 0 1-.529-1.99 24 24 0 0 1-.3-2.124q-.096-1.201-.057-2.407c.06-1.34.256-2.828.55-4.162.297-1.346.811-3.01 1.378-4.444 1.159-2.936 2.576-5.574 4.852-9.04.469-.714.567-.934.567-1.264 0-.496-.297-.974-.769-1.23-.339-.178-.339-.178-1.747.075-2.837.51-5.609.82-7.359.82h-.879l-.544-1.584a95 95 0 0 0-2.27-5.888 102 102 0 0 0-3.238-6.667 96 96 0 0 0-4.97-8.075c-1.144-1.657-3.684-5.032-3.764-5.002-.042.014-.431.332-.865.706-.434.375-1.367 1.27-2.065 1.988a48.6 48.6 0 0 0-5.808 7.264 61 61 0 0 0-3.547 6.147 68 68 0 0 0-3.642 8.517 72 72 0 0 0-2.03 6.795l-.543 2.168-.698.404a33 33 0 0 1-4.13 1.87q-1.174.418-2.377.766c-.989.267-1.99.499-2.994.704-1.224.243-1.798.4-1.94.531-.144.144-.26.314-.342.5-.104.24-.11.386-.03.623.054.17.197.398.312.505.116.11.657.357 1.204.544a33 33 0 0 1 4.494 1.925 27.6 27.6 0 0 1 4.27 2.716l.683.546v2.793c0 2.831.086 4.498.348 6.818a74 74 0 0 0 2.127 11.111 84 84 0 0 0 3.547 10.241c.885 2.079 2.421 5.241 3.446 7.085 1.988 3.568 4.359 7.012 6.7 9.715 1.048 1.212 3.514 3.66 3.645 3.619.056-.015.58-.663 1.164-1.438zm18.132-5.725a2.4 2.4 0 0 0-.241-.612c-.036-.024-.119.021-.184.098s-.247.143-.404.143-.52-.134-.802-.292a2.4 2.4 0 0 0-.538-.261c-.059.068-.241.446-.241.496 0 .03.149.054.327.054s.538.047.796.101c.252.049.487.161.684.325.196.165.347.377.439.616.14.321.146.324.238.116.074-.157.053-.356-.074-.784m32.65-1.081c.012-.289.089-.684.172-.877s.175-.662.205-1.04c.051-.641.042-.683-.137-.683-.166 0-.196.077-.237.606a2.5 2.5 0 0 1-.297 1.055 1.75 1.75 0 0 0-.25.95c0 .491.009.506.262.506.249 0 .261-.018.282-.517m-1.789-1.709c.018-.015-.02-.267-.089-.564-.089-.416-.166-.556-.341-.621-.211-.08-.22-.119-.167-.63.054-.49.033-.585-.208-.951l-.264-.404-.08.312a2.8 2.8 0 0 0-.024.832c.03.285.056.683.05.888 0 .208.048.405.119.446.066.045.223.08.345.08.202 0 .22.039.187.378-.036.356-.027.371.202.318q.142-.029.27-.084m2.148-6.042c.131-.17.508-.85.841-1.51.526-1.039.576-1.188.401-1.135a4.8 4.8 0 0 0-1.678 1.046l-.535.511-.066.826a34 34 0 0 1-.112 1.203l-.051.378.481-.505q.377-.393.719-.814m-9.738-28.07.416-.802c.176-.365.402-.704.671-1.007.149-.124.6-.335 1.007-.475a6 6 0 0 0 1.233-.585l.496-.345V90.75c0-1.105-.05-1.934-.136-2.341-.119-.562-.238-.838-.832-1.91a1.7 1.7 0 0 1-.167-.702c0-.285-.038-.4-.133-.4-.078 0-.19.148-.256.33-.098.267-.184.34-.44.391-.178.03-.335.107-.353.167l-.273.909q-.21.695-.381 1.4c-.098.436-.107.587-.023.558.059-.021.112-.131.112-.244q0-.204.33-.368a1.7 1.7 0 0 0 .538-.482l.211-.315-.057.505c-.029.28-.112.612-.178.743a2.4 2.4 0 0 1-.407.505c-.208.202-.35.262-.529.229-.217-.042-.249-.006-.338.342a130 130 0 0 1-1.4 4.946l-.368 1.153.621-.235q.323-.114.636-.252m3.036-17.617.241-.529-.173-.442-.172-.44-.059.425c-.149.99-.194 1.515-.137 1.515.03 0 .166-.238.3-.529m8.105-1.42c.127-.089.246-.095.424-.026.137.053.378.07.538.038.161-.03.422-.19.579-.36.161-.169.485-.576.719-.903l.428-.597-.416-.386a6 6 0 0 1-.826-1.058c-.392-.644-.425-.674-.84-.733a2 2 0 0 1-.654-.208 3.3 3.3 0 0 1-.6-.76c-.276-.458-.47-.66-.737-.78a2.2 2.2 0 0 1-.633-.472 1.7 1.7 0 0 1-.332-.594c-.036-.163-.101-.294-.143-.294-.045 0-.202.071-.351.155-.258.148-.312.142-1.277-.155l-1.013-.312.232-.392.228-.392-.326-.31c-.182-.171-.33-.38-.33-.466 0-.083.193-.35.428-.588l.43-.436-.454-.485a24 24 0 0 1-.752-.844l-.3-.362-.264.196c-.505.377-.782.832-.981 1.604-.11.416-.237 1.227-.285 1.807l-.089 1.051.359.832c.357.823.366.832.794.942.279.068.6.258.903.532.333.285.713.514 1.12.674.707.273 2.246.731 2.46.731.113 0 .11.045-.009.282a1.7 1.7 0 0 0-.146.663c0 .214.066.544.146.74.08.193.407.742.722 1.227l.576.876.25-.157zM40.298 69.373q.094-.41.103-.831v-.404l-.243.424c-.13.235-.348.538-.481.678l-.238.252.267.149c.149.077.321.145.38.148.057 0 .152-.187.209-.416zm103.11-5.104c.226-.166.258-.252.258-.698 0-.279-.068-.641-.151-.808-.163-.324-1.382-1.966-1.426-1.925-.015.015.018.282.074.594.08.452.071.642-.044.978l-.143.416.487.873c.274.487.532.85.586.817q.182-.118.356-.247zm2.908-8.99c0-.068-1.25-2.177-1.366-2.302-.089-.098-.146-.086-.279.06-.158.178-.143.225.362 1.232l.526 1.052h.377c.208 0 .38-.018.38-.041m-76.247-7.052c.237-.09.246-.11.095-.196a.8.8 0 0 0-.416-.063.38.38 0 0 0-.327.253c-.074.202-.06.217.149.163.13-.03.356-.104.499-.157m73.868-.387.291-.1-.208-.321c-.184-.286-.256-.324-.615-.327a1.7 1.7 0 0 1-.615-.104 3 3 0 0 1-.481-.357c-.285-.255-.262-.163.08.306.196.274 1.061 1.007 1.185 1.007.039 0 .199-.047.363-.104M30.095 147.246c0-.053.045-.095.102-.095.053 0 .074.042.041.095-.033.051-.077.092-.101.092s-.042-.041-.042-.092m15.497-8.764a.35.35 0 0 1-.214-.202 3 3 0 0 0-.116-.288c-.039-.089.006-.116.16-.095.14.021.262.142.342.342.068.169.092.303.053.297a3 3 0 0 1-.225-.054m-6.631-3.259c-.143-.107-.238-.235-.205-.285.068-.107.29.059.424.312.054.098.084.172.069.169-.015 0-.146-.089-.288-.196m104.563.036c.142-.378 1.111-2.012 1.557-2.624q.395-.54.707-1.131l.662-1.376c.268-.561.802-1.396 1.426-2.222.903-1.197 1.388-1.949 2.457-3.83l.351-.615-.06.41c-.065.482-.386 1.417-.784 2.288a24 24 0 0 1-.826 1.557c-.951 1.637-2.95 4.795-3.52 5.549-.862 1.141-1.759 2.16-1.902 2.16-.086 0-.11-.059-.068-.166m-105.371-4.501c-.289-.104-.488-.291-.49-.464-.004-.124.314-.074.739.119.238.107.392.238.371.306a.23.23 0 0 1-.175.137c-.074.009-.273-.036-.445-.098m-1.863-1.061a2.5 2.5 0 0 0-.633-.229.33.33 0 0 0-.253.158c-.077.14-.127.119-.404-.178a3.2 3.2 0 0 0-.742-.547c-.49-.244-.734-.443-.877-.707-.098-.184-.095-.184.178-.009l.488.318c.119.074.237.116.267.089.03-.03-.184-.345-.47-.698a4 4 0 0 1-.49-.677c.018-.018.324.115.68.297.854.433 3.203 2.454 2.811 2.418-.044-.003-.297-.11-.555-.238zm-4.495-2.267c-.22-.288-.384-.54-.36-.564.066-.065.707.493.933.808.193.27.193.279.015.279-.113 0-.342-.208-.588-.523m.327-.921c-.387-.225-.847-.534-.963-.635a.44.44 0 0 1-.119-.297c0-.107-.17-.387-.38-.627q-.37-.436-.663-.927a2.3 2.3 0 0 0-.508-.642 6 6 0 0 1-.82-.98q-.374-.534-.78-1.043c-.105-.119-.268-.214-.357-.214-.19 0-.369-.267-.369-.553q.001-.603 1.233 1.031.47.653 1.02 1.242c.094.069.501.556.905 1.082.401.525.835 1.004.963 1.06.128.06.229.152.229.208 0 .054.237.327.52.606.496.484.659.811.404.808a.8.8 0 0 1-.315-.119m-5.455-8.841c-.66-1.366-1.156-2.614-1.916-4.822-.021-.065-.125-.118-.232-.118-.14 0-.193-.06-.193-.229 0-.125-.083-.422-.184-.66-.25-.579-.83-1.476-.957-1.476-.053 0-.08.077-.053.166.172.624.175.639.071.541-.235-.223-1.236-4.023-1.806-6.854a80 80 0 0 1-1.088-7.374q-.166-2.033-.252-4.064a56 56 0 0 1 0-5.02c.06-1.382.175-3.212.255-4.068.208-2.08.49-4.16.856-6.218a70.5 70.5 0 0 1 7.406-20.856 73 73 0 0 1 3.399-5.594 80 80 0 0 1 3.357-4.584 90 90 0 0 1 4.088-4.679c1.257-1.337 3.538-3.506 5.146-4.893 1.435-1.236 4.477-3.613 4.09-3.19-.065.068-.118.157-.118.195s.573-.205 1.274-.537q.66-.334 1.346-.607c.042.004-.071.131-.252.286l-.327.279h1.114l-.193.214c-.107.116-.178.258-.158.315.021.056-.142.184-.365.282-.223.101-.701.395-1.07.654-.362.261-1.277.9-2.032 1.414a15.7 15.7 0 0 0-2.127 1.708c-.416.425-1.352 1.284-2.08 1.91a36 36 0 0 0-1.797 1.634l-.475.5.32-.06c.277-.05.307-.039.247.107-.038.09-.14.348-.223.57-.13.345-.133.416-.017.488.077.047.228.047.356-.003q.23-.088.166.011c-.03.054-.514.488-1.07.963q-.544.444-1.039.942c-.018.041.048.05.143.018.095-.03.017.074-.173.237q-.346.293-.3.467c.03.107-.086.336-.294.594a19.5 19.5 0 0 0-1.812 2.82c-.481.923-1.257 1.9-1.263 1.592 0-.09-.044-.167-.089-.167-.05 0-.178.125-.288.277-.288.404-.666 1.253-.666 1.5 0 .16.066.229.27.267l.274.057-.52.751c-.285.416-.502.773-.481.79.02.021.226-.124.46-.32.241-.208.574-.386.779-.425.196-.039.395-.042.446-.012.047.03-.06.247-.238.484-.282.366-.39.692-.339 1.008.006.038-.089.273-.214.52a7 7 0 0 0-.29.659c-.057.184-.03.214.177.214.214 0 .241.038.241.33 0 .184.045.332.095.332s.208-.18.345-.404c.14-.22.297-.43.356-.47a.5.5 0 0 1 .238-.07c.1 0 .119.112.074.534-.05.496-.098.577-.606 1.1-.345.353-.46.517-.312.442.13-.065.35-.199.487-.297.149-.098.324-.16.502-.172.149 0 .348-.104.494-.262.172-.2.316-.425.427-.665.113-.253.357-.532.642-.749.386-.285.476-.41.526-.728a3.34 3.34 0 0 1 .936-1.776c.24-.223.7-.68 1.025-1.01.582-.597 1.928-1.59 2.026-1.492.089.09-.594 1.206-1.292 2.13q-.528.692-.975 1.438c-.232.416-.395.592-.671.713-.496.226-.66.502-.583.966.06.339.039.39-.228.58a1.64 1.64 0 0 0-.574.801c0 .03.05.054.113.054s.238-.119.39-.262l.276-.261-.069.333a3.5 3.5 0 0 1-.237.662c-.095.178-.458.648-.808 1.034a4.85 4.85 0 0 0-1.13 1.898c-.068.232-.065.23.25-.056.175-.16.505-.434.731-.606a5.3 5.3 0 0 0 .79-.8c.208-.264.47-.501.58-.528.11-.03.297-.2.41-.377.502-.788.698-1.04.93-1.189.213-.142.264-.148.341-.03.05.072.074.452.057.841a3 3 0 0 1-.34 1.343 3 3 0 0 1-.549.83c-.136.106-.276.192-.309.192-.035 0-.11-.119-.163-.258-.098-.259-.104-.256-.383.353a9 9 0 0 0-.446 1.23c-.073.3-.199.583-.371.838a4.5 4.5 0 0 1-1.468.95l-.481.194-.134-.256c-.098-.187-.107-.309-.033-.47.078-.171.06-.255-.08-.412-.166-.184-.184-.184-.297-.03a1 1 0 0 0-.122.482c0 .169-.038.311-.089.311-.044 0-.347.22-.668.488-.47.392-.603.463-.675.356-.086-.128-.06-.639.069-1.197l.056-.262-.196.286c-.294.419-.348.855-.157 1.256l.163.342-.835.772c-.799.74-.838.764-.867.523a.74.74 0 0 0-.113-.332c-.05-.05-.24.056-.467.258-.143.15-.315.267-.505.348-.068 0-.163.133-.214.297a.83.83 0 0 1-.252.404c-.122.074-.217.068-.357-.018-.169-.107-.226-.083-.475.202q-.237.269-.547.449c-.148.07-.727.62-1.286 1.218-.891.953-1.082 1.218-1.536 2.145-.505 1.019-.517 1.063-.365 1.289.145.223.14.267-.08.79-.152.38-.283.773-.387 1.168-.119.463-.232.677-.46.87l-.3.259h.237a.9.9 0 0 1 .434.14c.149.103.223.326.318.932a9 9 0 0 1 .077 1.58c-.035.619-.009.886.13 1.249.105.297.164.615.173.935 0 .41.039.508.28.713.142.115.257.259.338.422a.46.46 0 0 0 .24.259c.173.065.17.095-.088.632-.146.312-.291.743-.327.951-.033.217-.175.642-.312.95-.282.619-.312 1.023-.19 2.544.074.936.199 1.465.35 1.465.042 0 .101-.084.134-.185.03-.1.208-.314.386-.475.282-.244.342-.365.384-.784.026-.274.151-1.007.279-1.631q.16-.781.279-1.572c.05-.425.062-.437.425-.487.205-.03.564-.143.802-.256a2.2 2.2 0 0 0 .805-.736 4.6 4.6 0 0 0 .556-1.103c.243-.784.424-2.216.362-2.822a1.5 1.5 0 0 1 .054-.686c.056-.104.347-.428.644-.725.476-.466.577-.63.788-1.304.133-.422.243-.856.243-.963s.184-.365.422-.585c.368-.345.428-.458.487-.91a4 4 0 0 1 .244-.92c.119-.276.252-.422.416-.464.13-.032.246-.044.258-.023l.285.445c.149.229.396.464.565.535.163.068.336.1.38.074.181-.113.25.265.25 1.405v1.2l.392.322.386.323-.38.797a7.4 7.4 0 0 0-.446 1.117q-.09.365-.243.707a2 2 0 0 0-.179.638c0 .137.063.401.14.589.08.187.143.466.143.623 0 .167.065.318.163.372.116.065.267.035.523-.095.199-.101.386-.25.419-.327.03-.083.157-.187.282-.235.125-.044.336-.267.466-.487 1.046-1.747 1.189-1.955 1.308-1.907.095.036.107.134.044.398-.047.19-.086.73-.089 1.2a16 16 0 0 1-.095 1.56c-.068.535-.053.998.06 1.901l.15 1.189-.29.29c-.202.203-.294.387-.294.586 0 .16.148.585.326.942.2.389.306.722.274.84-.039.155.03.238.327.387.273.142.386.267.43.475.045.238.134.312.526.452l.473.166-.589.365q-.33.205-.65.431c-.039.033.163.048.448.03.413-.027.53 0 .577.125.03.083.012.255-.045.38-.098.217-.086.226.297.255.327.024.416.075.523.298.113.237.107.341-.062.85-.12.356-.158.617-.104.67.148.155.098.488-.113.758q-.25.281-.568.485c-.318.199-.436.222-.885.172-.368-.045-.564-.027-.668.06-.084.07-.232.284-.33.475-.107.213-.345.448-.6.597l-.422.25-.883-.233a20 20 0 0 1-2.697-.9l-.493-.21-.28.199a1.9 1.9 0 0 0-.484.623c-.17.348-.255.425-.46.425-.177.014-.347.07-.496.167-.137.089-.636.612-1.115 1.158-.614.704-.822 1.001-.718 1.025.089.018.383-.223.715-.585a4 4 0 0 1 1.106-.885 2.25 2.25 0 0 1 1.218-.265c.588 0 .713.03.92.229.348.327.33.757-.047 1.188l-.29.333-.239-.187c-.282-.22-.487-.155-.27.086.08.09.149.217.149.282 0 .08.083.098.267.06q.267-.06.383.077.112.136.018.196c-.184.116-.276.713-.199 1.277.074.52.119.595.674 1.135.503.49.642.577.886.553.243-.024.327.03.546.35.143.208.259.407.259.443 0 .033-.223.11-.493.169-.277.06-.782.188-1.13.292a2.16 2.16 0 0 0-1.066.618c-.237.237-.487.415-.552.395-.155-.054-.34-.606-.345-1.046-.003-.25.071-.461.238-.683.237-.309.237-.318.053-.416a.8.8 0 0 0-.285-.101c-.16 0-.404.303-.35.436.035.096-.045.131-.304.131-.193 0-.683.08-1.09.178-.526.125-.82.256-1.016.443-.223.211-.28.345-.28.671 0 .235.105.63.25.945.178.389.22.585.155.689-.057.09-.3.17-.642.208-.342.036-.594.119-.666.211-.08.113-.237.149-.6.134-.347-.015-.516.018-.579.119-.047.074-.089.303-.089.505 0 .205-.16.841-.357 1.42-.338 1.004-.356 1.105-.365 2.374a51 51 0 0 1-.024 1.491c-.009.104-.175.238-.425.348a1.53 1.53 0 0 0-.855.915c-.039.128-.17.223-.357.258l-.294.06.05.736c.051.74.108.921 1.525 4.992.454 1.304.62 2.026.466 2.026-.05 0-.457-.755-.903-1.679m-.939-17.793c.128-.068.173-.163.14-.294a.56.56 0 0 0-.232-.29.53.53 0 0 0-.36-.04c-.124.04-.195 0-.237-.136-.036-.107-.125-.193-.202-.193-.074 0-.244.068-.368.148-.223.149-.238.143-.348-.1-.104-.23-.125-.238-.184-.08q-.075.256-.077.522c0 .208.059.41.154.505.134.134.282.155.844.113.374-.03.766-.098.87-.154m1.607-.66c.11-.454.107-.528-.03-.662-.139-.14-.163-.14-.279.018-.118.164-.14.158-.368-.071-.134-.13-.348-.24-.475-.24-.244 0-.535.22-.535.4 0 .17.303.449.487.449.09 0 .282.151.425.339.172.228.318.327.452.306.154-.021.228-.143.326-.538zM24.74 97.54q.08-.49.214-.962l.157-.54.19.498c.173.458.203.487.348.357.149-.137.149-.208-.024-1.159-.16-.906-.217-1.058-.534-1.444a11 11 0 0 1-.627-.844c-.259-.392-.277-.49-.324-1.654-.03-.755-.098-1.325-.172-1.456a2 2 0 0 1-.104-.802 1.9 1.9 0 0 0-.206-1.04 1.5 1.5 0 0 0-.273-.446c-.03.003-.136.143-.238.31-.16.252-.26.308-.594.332-.309.024-.436.09-.588.297-.104.149-.19.297-.19.327s.062.06.143.06c.1 0 .14.098.142.35 0 .196.039.416.083.487.06.095.2.119.479.08l.395-.053-.06.276c-.035.149-.032.41 0 .574.039.166.247.496.47.733q.401.435.508.877.074.274.11.558c0 .06-.09 0-.2-.14a1.7 1.7 0 0 0-.475-.394c-.258-.134-.288-.131-.505.086a1.6 1.6 0 0 0-.32.594c-.15.552-.298 2.106-.295 2.986.003.442.06.909.134 1.07l.125.281.148-.344c.084-.187.196-.8.247-1.355.053-.556.14-1.165.19-1.358.083-.246.208-.475.371-.677l.28-.333.151.357c.083.199.178.54.208.763s.003.657-.06.966a9 9 0 0 1-.16.671c-.026.069.063.128.223.146l.267.03-.032.85c-.036.846-.036.852.151.683.11-.096.214-.348.247-.595zm4.528-4.079c-.027-.246-.06-.463-.075-.48-.015-.019-.136.026-.27.094l-.244.13.288.351q.146.192.321.354c.015 0 .006-.202-.02-.449m1.286-2.75c.217-.203.392-.437.392-.524 0-.207-.39-.205-.654.012-.11.09-.225.324-.258.517-.033.208-.018.357.033.357.05 0 .267-.164.487-.363m9.31-1.198q.456-.36.357-.458c-.06-.059-.14-.053-.237.027-.08.066-.283.104-.452.084l-.309-.036v.445c0 .277.033.416.095.372zm-3.318-1.218c.12-.074.202-.06.339.062.19.173.556.208.76.08.17-.11.104-.623-.08-.638-.077-.003-.193-.015-.258-.021-.072-.009-.119-.157-.119-.368v-.357L37 87.36c-.104.172-.25.31-.324.31s-.238-.04-.357-.084c-.22-.083-.222-.077-.214.591.007.371.018.76.033.862.015.116.069.023.137-.226.06-.229.181-.463.267-.517zM23.75 86.878c.089-.35.089-.49 0-.594-.06-.072-.143-.131-.182-.131-.041 0-.118.199-.172.443-.06.221-.06.455 0 .677.05.134.119.199.166.148.042-.047.128-.29.19-.543zm10.27.223c-.033-.16-.03-.327.006-.49.06-.19.074-.197.184-.048.107.148.128.148.244.006.11-.13.098-.205-.072-.496-.11-.19-.267-.357-.344-.375-.09-.017-.238.134-.386.387a1.8 1.8 0 0 0-.247.582c0 .09.125.288.276.44.155.151.306.276.339.276.036 0 .036-.128 0-.282m2.876 13.095-.19-.427.407-.52.407-.523.065.374c.074.434.327.957.458.957.05 0 .089.032.089.074 0 .083-.79.49-.951.49-.053 0-.181-.19-.285-.425m5.85-.252c-.23-.063-.357-.152-.357-.253 0-.086.065-.365.143-.62.08-.256.142-.5.142-.544s-.053-.08-.119-.078c-.065 0-.297.232-.52.517-.353.46-.44.52-.736.52h-.336l.25-.327c.14-.184.231-.389.201-.46-.062-.166-1.15-.449-1.999-.526-.615-.053-.668-.074-.751-.318-.08-.223-.054-.3.196-.564.16-.172.647-1.01 1.081-1.869.547-1.072.927-1.7 1.227-2.008.336-.35.496-.452.728-.452h.297l-.413.85c-.253.52-.392.927-.363 1.043.045.13.128.243.238.326.107.075.238.232.3.351.09.175.214.232.624.285.327.039.556.122.636.232.068.095.098.238.062.315-.29.69-.398 1.043-.315 1.043.054 0 .202-.069.327-.152.22-.142.238-.142.238.01 0 .088-.13.281-.285.427-.205.19-.283.35-.283.576v.31l.286-.277c.24-.232.303-.253.377-.134.122.19.1 1.004-.036 1.462-.127.422-.258.472-.84.315m-7.092-.615a13 13 0 0 1-.392-.57c-.039-.069.1-.042.338.068.223.1.503.184.621.187.116 0 .211.024.211.053 0 .03-.1.202-.225.384l-.223.33zm1.004-3.871c-.51-.342-.787-.61-.945-.906-.148-.283-.178-.642-.053-.642.491.22.922.555 1.257.977.258.357.365.817.19.817-.045 0-.247-.11-.449-.246m-9.287-10.012c-.154-.196-.178-.3-.11-.43a.7.7 0 0 1 .181-.23c.122-.077.303.606.208.779-.062.11-.118.083-.279-.12m2.16-3.951q.017-.234.06-.467c.044-.28.112-.368.341-.448q.158-.059.32-.099c.019 0 .03.209.03.461 0 .437-.014.472-.297.568a1.8 1.8 0 0 1-.374.103c-.047 0-.083-.05-.08-.118m10.695-5.345a.9.9 0 0 1-.107-.285c0-.048.09-.205.202-.345.158-.199.223-.229.285-.13.128.201.09.487-.098.733l-.178.226zm-6.536-3.9c0-.39.363-1.07.594-1.115.312-.06.28.259-.083.76-.196.274-.392.541-.434.589-.044.05-.077-.053-.077-.238zm-.846-1.911c.089-.312.505-.73.73-.734.066 0 .226.071.357.155.229.148.232.16.068.344-.187.211-.84.535-1.084.538-.134.003-.146-.045-.072-.303m2.83-.113c0-.315.036-.43.137-.43.078 0 .179.073.223.166.116.228-.003.63-.199.665-.13.03-.16-.044-.16-.4m.663-.053q0-.392.11-.357a.5.5 0 0 1 .214.196c.071.116.071.208 0 .321a.53.53 0 0 1-.214.196c-.071.027-.11-.095-.11-.356m-1.568-1.248c-.146-.276-.146-.318 0-.565.089-.151.127-.32.089-.386a.5.5 0 0 1-.05-.282c.044-.267-.167-.193-.342.119-.09.154-.22.282-.294.282-.072 0-.23.107-.348.238-.125.13-.327.234-.464.234h-.24l.238-.47c.13-.257.237-.492.237-.519 0-.03-.062-.05-.142-.05-.078 0-.14-.033-.14-.072s.083-.208.187-.377c.104-.17.24-.31.306-.312.068 0 .416-.446.779-.992.736-1.105 1.325-1.824 1.417-1.732.035.032.02.309-.033.612q-.126.855-.19 1.717c-.072.897-.137 1.236-.288 1.48-.167.27-.176.326-.054.37.22.084.172.518-.089.773-.125.13-.273.235-.327.235s-.166-.134-.252-.3zm5.635-5.244c0-.044.125-.297.274-.558.306-.53.965-1.177 1.203-1.177.125 0 .145.066.098.35a1.7 1.7 0 0 1-.232.586 3.3 3.3 0 0 1-.499.493c-.333.268-.847.452-.844.306m1.48-.267c-.166-.125-.163-.143.06-.476l.234-.341.09.267a.64.64 0 0 1 0 .476c-.054.118-.12.21-.152.207-.03 0-.137-.059-.232-.13zm-.383-3.06c-.027-.042.163-.235.422-.428.534-.398.635-.261.154.205-.312.303-.487.368-.576.223m-4.091-4.358c.032-.318.104-.633.208-.936.119-.291.21-.387.436-.431.16-.033.455-.229.657-.437s.43-.38.511-.38c.077 0 .14.027.14.06 0 .029-.09.178-.196.326-.12.17-.185.386-.167.553.024.214-.062.371-.407.74a2.9 2.9 0 0 0-.499.662c-.033.107-.193.244-.356.3a2.5 2.5 0 0 1-.34.101c-.026 0-.02-.25.013-.559m.024-2.386c-.084-.119-.149-.27-.149-.339 0-.148-.21-.157-.356-.012-.08.08-.096.06-.06-.089.05-.184.027-.193-.297-.142-.348.059-.35.053-.235-.17q.13-.234.31-.436c.19-.208.19-.208.424-.024.13.1.291.187.357.187.062 0 .169-.14.237-.309a2.1 2.1 0 0 1 .318-.532l.2-.226-.322.164c-.246.125-.335.136-.392.047s-.142-.092-.38-.009a9 9 0 0 1-.318.107 9 9 0 0 1 0-.526c.006-.516.018-.534.633-1.158.399-.382.72-.838.945-1.343.25-.55.454-.832.927-1.266l.603-.561.059.297c.039.184-.006.49-.119.826a2.2 2.2 0 0 0-.148.633c.017.053.21-.178.43-.517.258-.382.44-.81.535-1.26.125-.585.187-.695.666-1.17l.526-.526.187.234c.157.203.199.214.279.096.05-.078.092-.277.092-.44 0-.223.09-.374.356-.606.194-.17.607-.476.919-.675a4.8 4.8 0 0 1 1.889-.7l.371-.066-.21.297c-.12.163-.571.746-1.01 1.295-.518.648-.734.98-.61.942.104-.033.19-.03.19.006 0 .033-.332.407-.733.832l-.734.763.567-.466c.312-.258.883-.737 1.263-1.07.386-.326.716-.576.743-.552.023.024-.03.184-.12.356-.088.173-.998 1.126-2.02 2.116-.769.742-1.535 1.497-2.296 2.255-.291.297-.615.802-.939 1.461a7.8 7.8 0 0 1-.88 1.426l-.385.416-.045-.312c-.027-.172-.098-.327-.16-.35-.066-.021-.16.118-.22.326a1.4 1.4 0 0 1-.535.814c-.196.167-.208.164-.353-.044m4.349-2.463c.041-.068.428-.674.861-1.346.431-.671.785-1.271.785-1.337 0-.06.297-.395.665-.74.6-.564.847-.733.847-.564 0 .03-.152.262-.339.517-.184.255-.297.464-.25.464.126 0 .868-.809 1.237-1.35.157-.235.359-.438.594-.596a1 1 0 0 1 .665-.09c.28.05.369.107.345.223-.018.098-.143.167-.336.184-.17.018-.306.069-.306.11 0 .042.072.107.164.14.136.053.104.116-.214.39-.208.177-.624.48-.921.67-.44.28-.535.384-.487.53.047.148-.173.415-1.04 1.262-.606.594-1.15 1.079-1.21 1.079-.059 0-.338.13-.623.288-.28.16-.476.237-.437.166m1.55-.348c0-.115.645-.802 1.712-1.824.942-.903 1.827-1.714 1.964-1.803.136-.092.33-.166.428-.166.145 0 .163.041.107.258a3 3 0 0 0-.066.66c.009.356-.03.43-.39.719a25 25 0 0 1-1.312.95c-.844.582-.918.615-.945.422-.03-.19-.08-.163-.597.291a7 7 0 0 1-.734.589c-.13.068-.166.05-.166-.096m6.091-1.82c-.027-.048-.02-.176.015-.286.041-.137.03-.178-.045-.134-.06.036-.231-.053-.386-.199-.25-.237-.28-.32-.27-.831.003-.315.062-.705.13-.871.149-.357 1.406-1.702 1.667-1.785.265-.084 1.189-1.236 1.331-1.664.066-.196.43-.698.814-1.117.38-.416.731-.76.779-.76.198 0 .068.385-.292.86-.338.452-.362.52-.225.622.083.06.124.157.089.214-.033.053-.033.098 0 .098.038 0 .231-.09.433-.208.286-.158.396-.179.482-.092.06.059.142.112.18.112.04 0 .096-.083.129-.18.03-.102.297-.452.594-.782.44-.493.58-.594.79-.57.253.03.262.014.374-.708l.12-.74 1.027-1.036c.773-.776 1.052-1.004 1.114-.906.06.095.167-.003.407-.38q.339-.5.79-.898c1.01-.846 2.505-2.029 2.567-2.029.039 0 .303-.19.589-.425a3 3 0 0 1 .609-.425c.05 0 .22-.124.377-.276a4 4 0 0 1 .713-.505A64 64 0 0 0 67 31.456c.25-.166.261-.166.261 0 0 .095-.294.77-.653 1.5-.642 1.316-.663 1.343-2.009 2.76q-1.126 1.186-2.373 2.246c-.559.446-1.058.814-1.111.814-.054 0-.096.057-.096.125 0 .175-.615.743-.77.713-.07-.012-.326.009-.57.048-.243.038-.463.124-.487.193a.32.32 0 0 0 .03.246c.098.16-.276.684-.446.621-.068-.03-.193.086-.288.262-.089.169-.532.66-.98 1.087-.583.553-.862.758-.975.713-.11-.042-.347.122-.799.544q-.505.477-1.04.92c-.306.241-.386.357-.338.506.047.142-.054.297-.425.653-.267.259-.526.446-.576.413-.051-.032-.238.03-.407.137-.176.107-.34.172-.369.142-.027-.03.077-.175.229-.326.276-.277.288-.473.024-.473-.075 0-.134-.083-.134-.187 0-.199-.14-.255-.238-.095-.03.054-.098.095-.148.095-.048 0-.06-.25-.027-.594.06-.58.06-.585-.125-.422-.104.09-.217.163-.252.163-.033 0-.06-.092-.06-.207 0-.146-.1-.042-.341.356q-.238.407-.535.773c-.11.118-.155.216-.101.216s.095.158.089.354l-.012.356.362-.03c.333-.029.357-.014.298.173-.057.175-.036.196.133.143.11-.036.2-.03.2.014 0 .045-.066.179-.15.292-.08.115-.118.252-.088.303.089.14-.39.897-.654 1.04a.62.62 0 0 0-.285.344c-.03.125-.092.226-.137.226-.044 0-.202.095-.35.21-.277.218-.758.307-.85.155zM45.28 45.7q.38-.476.855-.855c.214-.113.229-.104.229.116 0 .13-.128.383-.285.564-.303.342-1.117.91-1.31.91-.063 0 .169-.334.51-.735m3.354.247c0-.134.098-.386.214-.562.246-.365 1.274-1.22 1.464-1.22.188 0-.335.698-1.07 1.42-.56.558-.608.585-.608.362m58.785-.838q-.395-.24-.782-.502c-.02-.02.309-.107.737-.193.425-.086.784-.146.793-.134.012.015.051.312.089.663.033.35.03.636-.014.636-.042 0-.413-.214-.823-.47m-58.316-.835c0-.222.098-.368.449-.671.288-.247.543-.386.71-.386.142 0 .261-.045.261-.101a.9.9 0 0 0-.104-.291c-.083-.158-.065-.217.095-.33.107-.077.196-.2.196-.277 0-.074.045-.136.099-.136.056 0 .207-.113.332-.25.128-.136.232-.21.232-.166 0 .047.086-.053.187-.223.196-.32.419-.398.505-.172.03.071-.009.208-.08.306-.247.327-.14.356.16.044q.22-.231.488-.407c.154-.083.178-.074.127.054-.03.089-.009.154.054.154.06 0-.06.173-.265.386A26 26 0 0 1 50 43.9c-.208.139-.493.347-.638.457l-.259.202zm.897-.208c.033-.05.131-.089.22-.089.137 0 .14.012.018.09-.184.118-.312.118-.238 0m-7.171-.14c.032-.088 0-.142-.095-.142-.08 0 .255-.389.751-.867.921-.892 1.058-.978 3.396-2.14.478-.237.945-.504 1.39-.796.476-.335.559-.362.68-.237.125.122.108.17-.148.413-.18.177-.33.383-.445.609-.09.199-.58.716-1.183 1.253l-1.025.915h-.535c-.341 0-.668.066-.89.179a3.3 3.3 0 0 1-.59.237c-.13.033-.468.208-.75.39-.283.178-.535.326-.565.326-.024 0-.021-.059.009-.14m6.464-.867c0-.035.113-.187.253-.333.14-.148.318-.267.395-.267.101 0 .077.069-.09.247-.249.267-.558.463-.558.356zm-.285-.644c.09-.232.08-.238-.333-.238-.356 0-.421-.03-.421-.184 0-.101.184-.333.415-.526.351-.285.455-.327.612-.24a.9.9 0 0 0 .312.1c.09 0 .12-.119.092-.416-.03-.371.006-.46.327-.814.268-.294.72-.576 1.756-1.099.773-.383 1.45-.698 1.515-.698.181 0-.636.784-1.744 1.678-.561.45-1.016.853-1.016.892 0 .17.268.06.636-.253q.211-.203.472-.333c.048 0 .19-.106.318-.243.31-.333 1.04-.862 1.346-.98.14-.051.253-.08.253-.066 0 .015-.49.428-1.088.918-.754.615-1.046.906-.944.939.11.038.047.145-.259.44-.514.496-1.872 1.357-2.139 1.357-.172 0-.187-.03-.11-.237zm4.825-.23c0-.112.683-.682.742-.62.024.024-.059.157-.184.291-.273.291-.558.46-.558.333zm50.543-.572c-.912-.203-1.598-.565-2.079-1.094-.282-.312-4.522-3.06-4.988-3.235-.28-.104-.74-.481-1.515-1.248l-1.114-1.093.059-.407c.047-.303.024-.446-.09-.574-.085-.092-.403-.29-.706-.44-.407-.195-.582-.344-.663-.552a.9.9 0 0 1-.08-.309c.012-.015.508.098 1.1.247.59.148 1.101.318 1.137.371a20 20 0 0 0 2.353 2.496c1.049.92 3.446 2.653 4.792 3.467q.754.459 1.56.823a6.4 6.4 0 0 0 1.218.33c.344.047.832.059 1.081.03.416-.06.485-.04.734.201.149.143.276.294.276.333 0 .038-.273.208-.606.368a2.8 2.8 0 0 1-1.346.333c-.409.02-.915 0-1.123-.047m-50.011-.69c.044-.196.142-.374.285-.52.128-.116.273-.21.32-.21.143 0 .105.314-.07.57-.173.25-.41.46-.523.466-.036 0-.045-.136-.012-.306m-2.181.01c.128-.215.796-.776.796-.67 0 .054-.199.256-.44.455-.243.2-.404.297-.356.214m.562-.081c.03-.05.142-.092.246-.092s.164.041.13.092c-.029.053-.142.095-.246.095s-.163-.042-.13-.095m2.694-1.076c0-.07.178-.288.401-.478s.594-.532.829-.755c.511-.493 1.123-.95 1.182-.888.027.027-.433.544-1.019 1.15-.98 1.019-1.396 1.307-1.396.971zm-.19-.609c0-.231.502-.698.677-.63.09.033.315-.139.63-.48.267-.298.49-.571.49-.61 0-.142.595-.576.862-.63.148-.03.374-.193.51-.368.283-.374 1.445-1.227 1.54-1.132s-1.789 1.821-3.271 2.995q-.66.546-1.367 1.028c-.038 0-.071-.078-.071-.173m-3.64-.44c.274-.228.871-.486.948-.406.021.02-.246.172-.597.341-.591.283-.615.289-.35.066m1.807-.908q.213-.164.416-.342c.024-.03-.193.08-.481.244a2.8 2.8 0 0 1-.657.297c-.184 0 .44-.636.948-.963.231-.148.707-.356 1.054-.463.348-.101.877-.295 1.174-.428.416-.181.561-.211.618-.119q.067.117-.413.475-.27.226-.594.36c-.066 0-.395.193-.737.425a7 7 0 0 1-1.1.615c-.267.104-.507.19-.54.19-.03 0 .11-.13.312-.291m1.872-.238c.03-.08.056-.163.056-.184 0-.018.244-.202.544-.404.297-.205.627-.467.73-.583q.21-.213.476-.356c.273-.14.28-.14.125.036a1.2 1.2 0 0 0-.22.43q-.062.256-.41.416a6 6 0 0 0-.785.479q-.234.186-.505.318c-.038 0-.044-.069-.011-.15zm2.139-1.129c0-.03.148-.244.33-.466.341-.416.76-.66 1.033-.604.101.024-.065.197-.487.514-.73.55-.88.642-.88.559zm45.341-1.803c-.395-.146-.689-.372-.594-.464.059-.06 1.307.137 1.307.208 0 .101-.205.407-.267.401a4 4 0 0 1-.446-.145m-19.242-.698a3.5 3.5 0 0 0-.764-.087c-.475-.009-.555-.041-.867-.362l-.348-.357.184-.237c.098-.128.182-.327.185-.443 0-.122-.113-.288-.289-.41-.16-.113-.766-.416-1.348-.668-.684-.297-.969-.46-.805-.464.136 0 .612.134 1.06.297.49.179.877.268.98.226.152-.06.15-.08-.056-.223a5 5 0 0 0-.71-.374l-.487-.217.624.039c.636.041 1.396.312 1.74.624.105.095.36.225.568.294.208.065.55.237.758.386.237.16.508.273.793.33l.416.065-.276.137a1.8 1.8 0 0 0-.476.38l-.208.247-.742-.348c-.728-.342-1.07-.428-1.07-.273 0 .124.505.558.713.615l.891.258.704.205-.371.226c-.208.125-.416.223-.47.217a2 2 0 0 1-.33-.083m-3.17-5.488c-1.132-.083-2.115-.208-1.985-.246q1.062-.151 2.127-.268a29 29 0 0 0 3.44-.588l1.406-.347 1.194.243 1.195.24-.841.013c-.725.009-.918.047-1.417.29q-.556.263-1.147.429c-.594.154-2.133.335-2.695.314a47 47 0 0 1-1.277-.08m1.266-3.856c.059-.107.08-.261.047-.344-.03-.08-.157-.176-.282-.209-.125-.03-.226-.086-.226-.124 0-.036.327-.14.734-.232.591-.13 1.096-.157 2.623-.134l1.89.03-1.513.487c-.831.268-1.746.514-2.032.547-.288.03-.707.086-.933.116-.392.053-.407.05-.305-.137zm5.023-1.476c0-.03.259-.185.574-.345.55-.276.6-.285 1.099-.181.285.06.505.121.484.14-.018.017-.434.1-.93.187-.493.083-.971.172-1.06.201-.093.027-.167.024-.167-.002"/><path fill="#E31F1C" d="M85.348 145.432c5.852-6.723 8.793-10.761 12.359-16.964a86.7 86.7 0 0 0 9.096-22.727l.113-.467 1.094.03c1.241.033 2.976.309 4.827.766 2.074.514 2.341.535 2.662.214.175-.175.277-.448.277-.742 0-.398-.149-.63-.951-1.498-2.205-2.376-3.289-3.906-4.332-6.108-1.447-3.051-1.889-5.555-1.663-9.358.282-4.754 1.972-9.323 5.677-15.36.677-1.099 1.307-2.145 1.396-2.32.226-.425.089-1.176-.279-1.572-.359-.386-1.09-.412-2.784-.112-1.966.336-3.95.564-5.942.683l-1.628.089-.564-1.655a86 86 0 0 0-7.427-15.88c-1.955-3.226-5.08-7.712-6.468-9.292a45 45 0 0 1-1.346-1.664 65 65 0 0 0-2.038-2.466c-.641-.733-1.108-1.354-1.04-1.378.209-.071 7.457 2.397 11.7 3.98 9.631 3.602 16.628 6.635 25.169 10.907 6.661 3.333 10.782 5.645 12.618 7.086l.718.564-.062 2.308c-.336 12.603-1.678 21.937-4.528 31.477a58 58 0 0 1-4.257 10.636c-6.678 12.92-19.418 26.126-35.633 36.928-2.596 1.732-6.919 4.406-7.118 4.406-.05 0 .11-.232.357-.511z"/><path fill="#0B436A" d="M87.7 140.334c-3.446-1.813-8.05-4.837-11.907-7.82a115 115 0 0 1-5.597-4.691 118 118 0 0 1-6.673-6.684 130 130 0 0 1-2.317-2.695 98 98 0 0 1-4.554-6.007 84 84 0 0 1-4.644-7.662c-1.17-2.201-2.513-5.377-3.53-8.36-1.107-3.238-2.082-6.845-2.828-10.464a127 127 0 0 1-1.794-11.871c-.407-4.061-.713-9.49-.713-12.686v-1.239l1.25-.695a177 177 0 0 1 4.377-2.267 192 192 0 0 1 12.864-6A212 212 0 0 1 74.64 46.13q5.613-1.981 11.305-3.729c3.342-.986 3.398-1.004 3.46-.933l.544.663.485.594-.776.678c-1.09.944-2.97 2.857-4.079 4.144a58.6 58.6 0 0 0-5.772 8.208A70 70 0 0 0 74.25 68.07a74 74 0 0 0-1.93 6.574c-.337 1.361-.461 1.732-.634 1.866-.332.261-2.757 1.44-3.808 1.854a36 36 0 0 1-2.035.725q-2.281.706-4.629 1.138-.613.096-1.203.285c-.205.1-.38.254-.505.445a1.35 1.35 0 0 0-.19.574c0 .148.059.386.136.532.078.145.238.326.36.41.124.08.733.326 1.354.543a29.4 29.4 0 0 1 4.124 1.762c1.42.719 3.476 2.03 4.474 2.85l.565.463-.027 2.168c-.012 1.195.02 2.956.08 3.922.146 2.409.418 4.809.814 7.189a78.7 78.7 0 0 0 5.17 17.686 92 92 0 0 0 3.253 6.75 77 77 0 0 0 2.982 4.911 66 66 0 0 0 3.491 4.658c.434.52 1.524 1.688 2.424 2.594l1.64 1.646-.534.695a4.6 4.6 0 0 1-.595.692c-.03 0-.63-.3-1.328-.668"/><path fill="#072C49" d="M91.39 113.786c-1.158-.191-3.217-.639-5.959-1.308q-2.31-.567-4.635-1.078c-1.616-.333-3.217-.579-3.796-.582a1.5 1.5 0 0 1-.53-.075c-.088-.059-.032-.282.218-.921a24.8 24.8 0 0 0 1.458-5.956c.14-1.254.12-3.476-.05-4.748a18 18 0 0 0-1.646-5.656 24 24 0 0 0-1.022-1.914 26 26 0 0 0-1.072-1.56 26 26 0 0 0-1.875-2.061 26 26 0 0 0-2.302-2.035q-.994-.73-2.033-1.393c-1.161-.725-3.42-1.863-4.777-2.4-.505-.203-.92-.387-.92-.417s.356-.125.798-.214c1.168-.24 3.304-.87 4.623-1.36a34.6 34.6 0 0 0 5.217-2.535 28 28 0 0 0 5.437-4.367 31 31 0 0 0 4.498-6.114c.748-1.316 1.723-3.467 2.415-5.336l.5-1.342.617 1.01c1.212 1.99 2.187 3.223 3.714 4.703q.744.725 1.55 1.381a19.7 19.7 0 0 0 3.283 2.02q1.15.53 2.347.936c.698.232 1.7.508 2.223.615.516.104 1.476.267 2.127.357.897.127 1.794.166 3.737.16 1.99-.003 2.926-.05 4.254-.208a63 63 0 0 0 2.983-.428q.65-.129 1.307-.199c.018.018-.178.342-.433.725a51 51 0 0 0-4.032 7.41 39 39 0 0 0-1.673 4.86 30 30 0 0 0-.751 4.254 23 23 0 0 0 0 4.094 22.4 22.4 0 0 0 .713 3.734 21 21 0 0 0 2.148 4.843 26 26 0 0 0 2.267 3.102c.21.231.368.436.347.457s-.419-.044-.888-.143a30.8 30.8 0 0 0-7.074-.615c-.772.036-1.955.146-2.632.244q-1.172.179-2.317.47c-2.624.701-4.546 1.755-6.016 3.3a5.9 5.9 0 0 0-1.24 1.729 8.7 8.7 0 0 0-.593 1.634c-.12.553-.149.998-.11 1.703.03.525.083 1.027.118 1.12.069.172 0 .184-.522.101z"/></g><defs><clipPath id="a"><path fill="#fff" d="M0 0h180v179.952H0z"/></clipPath></defs></svg>
