<svg xmlns="http://www.w3.org/2000/svg" width="140" height="82" fill="none"><path fill="#164194" d="M16.282 69.3v-.762l-.126.058a.9.9 0 0 1-.31.059c-.16 0-.268-.034-.335-.092-.117-.118-.117-.36-.117-.704v-3.98c0-.453-.05-.864-.62-.864-.168 0-.302.042-.461.093-.252.075-.554.167-1.14.167h-.084v.838h.428c.385 0 .385.084.402.612v2.757c-.235.595-.847 1.08-1.366 1.08-.813 0-.964-.452-.964-1.281v-3.377c0-.445-.05-.889-.612-.889-.167 0-.284.042-.418.093-.202.075-.445.159-1.006.159h-.084v.838h.243c.386 0 .386.084.394.611v2.514c0 1.5.712 2.33 2.011 2.33.796 0 1.475-.344 1.97-.997.184.662.628.997 1.307.997.26 0 .628-.076.846-.235l.033-.025zm1.315-4.542v3.294c0 .41-.058.544-.754.544h-.084v.838h3.235v-.838h-.084c-.788 0-.83-.142-.83-.544v-3.394c.378-.369.99-.57 1.383-.57 1.056 0 1.14.796 1.14 1.684v2.263c0 .427 0 .561-.72.561h-.084v.838h3.024v-.838h-.083c-.654 0-.654-.109-.654-.561v-2.338c0-1.777-.687-2.682-2.036-2.682-.712 0-1.483.352-1.97.713-.016-.378-.117-.687-.611-.687-.168 0-.31.041-.47.092-.25.075-.57.167-1.156.167h-.084v.838h.453c.394 0 .394.084.402.612m8.497-2.682c.57 0 1.03-.444 1.03-.997s-.46-1.014-1.03-1.014-1.03.453-1.03 1.014c0 .562.46.997 1.03.997m-.721 2.648v3.336c0 .385-.033.544-.82.544h-.085v.838h3.277v-.838h-.084c-.78 0-.813-.134-.813-.544V63.87c0-.47-.042-.863-.603-.863-.168 0-.318.042-.486.092a3.9 3.9 0 0 1-1.207.168h-.084v.838h.52c.386 0 .394.084.394.611m6.235 3.947c-.914 0-1.484-.905-1.484-2.354 0-1.542.528-2.397 1.484-2.397.955 0 1.483.846 1.483 2.397 0 1.45-.57 2.354-1.483 2.354m0-5.656c-1.92 0-3.06 1.249-3.06 3.343 0 1.55.805 3.21 3.06 3.21 1.407 0 3.05-.855 3.05-3.268 0-2.053-1.14-3.285-3.05-3.285m4.742 1.751v3.294c0 .41-.058.544-.754.544h-.084v.838h3.235v-.838h-.084c-.788 0-.83-.142-.83-.544v-3.394c.37-.369.99-.57 1.383-.57 1.056 0 1.148.796 1.148 1.684v2.263c0 .427 0 .561-.72.561h-.084v.838h3.025v-.838h-.084c-.654 0-.654-.109-.654-.561v-2.338c0-1.777-.687-2.682-2.036-2.682-.712 0-1.483.352-1.97.713-.016-.378-.116-.687-.61-.687-.168 0-.302.041-.47.092-.252.075-.57.167-1.157.167h-.083v.838h.452c.394 0 .394.084.402.612m12.788 3.913c-1.249 0-1.433-1.525-1.433-2.43 0-1.433.545-2.321 1.433-2.321.93 0 1.483.871 1.483 2.321 0 .905-.192 2.43-1.483 2.43m1.684-.067c.201.629.637.964 1.266.964.251 0 .62-.076.838-.235l.033-.025v-.77l-.125.066a.8.8 0 0 1-.302.059c-.168 0-.277-.034-.344-.1-.117-.118-.117-.361-.117-.705v-7.156c0-.452-.05-.863-.62-.863-.168 0-.319.042-.486.084-.277.075-.612.167-1.224.167h-.083v.838h.51c.403 0 .428.084.428.612v2.036a2.5 2.5 0 0 0-1.592-.57c-1.852 0-2.874 1.224-2.874 3.453 0 1.885 1.064 3.1 2.706 3.1.83 0 1.5-.326 1.986-.963m4.291-2.799c.067-1.207.594-1.902 1.44-1.902.32 0 .57.1.764.293.284.302.427.855.402 1.609zm3.988 2.162.026-.109h-1.056l-.026.05c-.268.52-.687.755-1.315.755-.737 0-1.584-.528-1.617-2.003h4.181v-.084c.008-.16.017-.41.017-.57 0-1.114-.36-2.983-2.749-2.983-1.885 0-3.058 1.299-3.058 3.394 0 2.33 1.667 3.159 3.092 3.159 1.424 0 2.338-.813 2.522-1.609m4.374-2.053c-.084-.042-.167-.092-.26-.142-.125-.067-.26-.143-.385-.21-.603-.318-1.173-.612-1.173-1.04 0-.343.318-.72 1.005-.72.344 0 .629.084.813.235a.8.8 0 0 0-.134.436c0 .469.369.82.855.82a.86.86 0 0 0 .871-.87c0-.813-1.014-1.4-2.421-1.4-1.408 0-2.296.729-2.296 1.768 0 1.131 1.039 1.66 1.877 2.087.084.041.167.083.26.125.645.319 1.365.68 1.365 1.123a.45.45 0 0 1-.134.335c-.184.176-.57.277-1.03.252a2.6 2.6 0 0 1-.93-.21.76.76 0 0 0 .15-.46c0-.47-.368-.822-.863-.822a.864.864 0 0 0-.88.88c0 .863 1.048 1.475 2.556 1.475s2.472-.696 2.472-1.802c0-.921-.88-1.4-1.726-1.852m15.368 2.137v-2.338c0-1.776-.628-2.681-1.86-2.681-.804 0-1.718.444-2.262.913-.31-.603-.822-.913-1.534-.913s-1.475.343-1.97.72c-.016-.402-.108-.695-.594-.695-.168 0-.31.042-.478.084a3.8 3.8 0 0 1-1.173.167h-.084v.838h.453c.394 0 .394.084.402.612v3.293c0 .41-.059.545-.754.545h-.084v.838h3.226v-.838h-.084c-.787 0-.82-.134-.82-.545v-3.369c.368-.385.98-.586 1.39-.586.888 0 .964.796.964 1.684v2.263c0 .427 0 .561-.72.561h-.085v.838h3.026v-.838h-.084c-.654 0-.654-.109-.654-.561v-2.338a5.6 5.6 0 0 0-.075-.964c.36-.419 1.005-.637 1.433-.637.888 0 .963.796.963 1.685v2.262c0 .427 0 .562-.72.562h-.084v.838h3.025v-.838h-.084c-.653 0-.653-.11-.653-.562m4.441-5.823c.243 0 .427-.135.595-.411l.78-1.308q.26-.44.259-.779c0-.419-.293-.67-.78-.67-.636 0-.796.502-.946 1.215l-.302 1.424a.48.48 0 0 0 .067.394.4.4 0 0 0 .319.143m-1.274 3.561c.067-1.207.595-1.902 1.441-1.902.319 0 .57.1.763.293.284.302.427.855.402 1.609zm4.005 2.053h-1.056l-.025.05c-.268.52-.687.763-1.315.763-.738 0-1.584-.528-1.618-2.003h4.182v-.084c.008-.159.017-.41.017-.57 0-1.114-.36-2.983-2.749-2.983-1.885 0-3.059 1.3-3.059 3.394 0 2.33 1.668 3.16 3.084 3.16s2.338-.814 2.522-1.61l.026-.109zm1.634-3.511v3.025c0 1.458.67 2.204 1.986 2.204 1.064 0 1.777-.73 1.827-1.86v-.093h-.855l-.017.076c-.117.645-.368.972-.737.972-.595 0-.72-.712-.72-1.316v-3.31h1.851v-.896H89.21v-1.785h-1.14v.62c-.033.964-.351 1.165-.82 1.165h-.31v.896h.578c.176 0 .218.009.218.302m5.321.385v3.336c0 .385-.034.544-.822.544h-.083v.838h3.276v-.838h-.084c-.779 0-.812-.134-.812-.544V63.87c0-.47-.042-.863-.604-.863-.167 0-.318.042-.486.092a4 4 0 0 1-1.206.168h-.084v.838h.52c.385 0 .385.084.393.611m.712-2.648c.57 0 1.031-.444 1.031-.997s-.46-1.014-1.03-1.014-1.031.453-1.031 1.014c0 .562.46.997 1.03.997m4.09 3.721c.067-1.207.595-1.902 1.441-1.902q.475.002.763.293c.285.302.427.855.402 1.609zm1.466 3.77c1.492 0 2.338-.812 2.523-1.608l.025-.109h-1.056l-.025.05c-.268.52-.687.755-1.316.755-.737 0-1.584-.528-1.617-2.003h4.181v-.084c.009-.16.017-.41.017-.57 0-1.114-.36-2.983-2.748-2.983-1.886 0-3.06 1.299-3.06 3.394 0 2.33 1.66 3.159 3.085 3.159m4.416-4.844v3.336c0 .41-.059.544-.755.544h-.083v.838h3.595v-.838h-.084c-1.165 0-1.199-.084-1.199-.603v-3.21c.244-.368.579-.586.847-.662a.83.83 0 0 0 .838.821c.511 0 .913-.41.913-.93 0-.611-.402-1.013-1.031-1.013-.519 0-1.097.284-1.567.762-.008-.41-.092-.762-.62-.762-.167 0-.301.041-.469.092a3.6 3.6 0 0 1-1.156.167h-.084v.838h.452c.386 0 .386.084.394.612m5.472 2.497a.86.86 0 0 0-.88.88c0 .863 1.048 1.475 2.556 1.475s2.472-.696 2.472-1.802c0-.921-.871-1.39-1.726-1.852-.084-.05-.168-.092-.26-.142-.125-.075-.26-.143-.385-.21-.604-.318-1.173-.611-1.173-1.039 0-.343.318-.72 1.005-.72.344 0 .62.084.813.234a.8.8 0 0 0-.134.436c0 .47.369.821.855.821a.86.86 0 0 0 .871-.871c0-.813-1.014-1.4-2.422-1.4-1.407 0-2.296.73-2.296 1.769 0 1.13.998 1.642 1.877 2.086.084.042.168.084.26.134.645.319 1.366.679 1.366 1.123a.4.4 0 0 1-.142.327c-.185.176-.57.276-1.031.251a2.4 2.4 0 0 1-.93-.218.76.76 0 0 0 .151-.46c0-.47-.369-.822-.864-.822m10.919 1.458c-1.248 0-1.433-1.525-1.433-2.43 0-1.433.545-2.321 1.433-2.321.93 0 1.483.863 1.483 2.321 0 .905-.192 2.43-1.483 2.43m2.95.897c.251 0 .62-.076.838-.235l.033-.025v-.77l-.125.066a.8.8 0 0 1-.302.059c-.168 0-.277-.034-.344-.1-.117-.118-.117-.361-.117-.705v-7.147c0-.453-.05-.864-.62-.864-.168 0-.318.042-.494.084a4 4 0 0 1-1.224.168h-.084v.838h.512c.393 0 .427.084.427.611v2.037a2.5 2.5 0 0 0-1.592-.57c-1.852 0-2.874 1.223-2.874 3.452 0 1.886 1.064 3.1 2.706 3.1.83 0 1.5-.326 1.986-.963.201.637.637.964 1.265.964m3.034-3.771c.067-1.207.595-1.902 1.441-1.902.319 0 .57.1.763.293.285.302.427.855.402 1.609zm3.98 2.162.025-.109h-1.055l-.025.05c-.269.52-.688.755-1.316.755-.738 0-1.584-.528-1.617-2.003h4.181v-.084c.008-.16.017-.41.017-.57 0-1.114-.36-2.983-2.749-2.983-1.885 0-3.058 1.299-3.058 3.394 0 2.33 1.659 3.159 3.083 3.159s2.338-.813 2.523-1.609M2.455 80.428V73.03c0-.453-.05-.863-.62-.863-.176 0-.327.042-.503.084-.276.075-.611.167-1.248.167H0v.838h.578c.402 0 .402.093.402.612v6.553c0 .385-.117.561-.83.561H.068v.838H3.36v-.838h-.084c-.779 0-.82-.142-.82-.561M5.413 72.4a1.13 1.13 0 0 0-1.097 1.157c0 .503.377.83.695 1.064q.254.176.218.453c-.05.335-.486.787-1.34 1.064l-.11.033.377.553h.05c1.467-.26 2.372-1.399 2.372-2.983 0-.804-.47-1.34-1.173-1.34m8.639 8.027V78.09c0-1.785-.687-2.69-2.036-2.69-.712 0-1.483.352-1.96.721v-3.084c0-.452-.051-.863-.62-.863-.16 0-.31.042-.47.084-.252.076-.57.168-1.157.168h-.083v.838h.452c.394 0 .394.084.402.611v6.562c0 .41-.058.544-.754.544h-.084v.838h3.235v-.838h-.084c-.787 0-.83-.142-.83-.544v-3.394c.378-.369.99-.57 1.383-.57 1.056 0 1.14.796 1.14 1.684v2.263c0 .427 0 .561-.72.561h-.085v.838H14.8v-.838h-.084c-.654 0-.654-.108-.654-.561m4.558.629c-.922 0-1.483-.906-1.483-2.355 0-1.542.527-2.397 1.483-2.397.955 0 1.483.855 1.483 2.397 0 1.45-.57 2.355-1.483 2.355m0-5.648c-1.92 0-3.059 1.248-3.059 3.343 0 1.55.805 3.21 3.059 3.21 1.408 0 3.05-.855 3.05-3.269 0-2.053-1.14-3.276-3.05-3.276m-1.827-.637c.134 0 .302-.067.478-.218l1.315-1.022 1.308 1.014c.293.268.56.268.703.15.126-.1.143-.276.042-.444l-1.642-2.245-.025-.034h-.763l-1.667 2.28c-.101.167-.084.335.041.444q.09.075.227.075m9.276 5.296c-.117.645-.369.972-.737.972-.595 0-.721-.712-.721-1.315v-3.31h1.852v-.897h-1.852v-1.785h-1.14v.62c-.033.964-.352 1.165-.83 1.165h-.31v.897h.579c.176 0 .218.008.218.301v3.025c0 1.467.67 2.204 1.986 2.204 1.064 0 1.776-.729 1.826-1.86v-.092h-.854zm3.168-1.885c.067-1.207.595-1.903 1.44-1.903.32 0 .57.101.755.294.285.301.427.855.402 1.609h-2.606zm1.432-2.782c-1.885 0-3.058 1.298-3.058 3.385 0 2.33 1.668 3.16 3.084 3.16s2.338-.805 2.522-1.61l.025-.109h-1.056l-.025.05c-.268.52-.687.763-1.315.763-.738 0-1.584-.528-1.618-2.003h4.182v-.083c.008-.16.016-.411.016-.57 0-1.115-.36-2.983-2.748-2.983m5.933 5.027V73.03c0-.453-.05-.863-.62-.863-.176 0-.327.042-.503.084a4.2 4.2 0 0 1-1.249.167h-.084v.838h.579c.402 0 .402.093.402.612v6.553c0 .385-.117.561-.83.561h-.084v.838h3.294v-.838h-.084c-.78 0-.821-.142-.821-.561m3.98.007V73.03c0-.453-.05-.863-.62-.863-.176 0-.327.042-.503.084a4.2 4.2 0 0 1-1.248.167h-.084v.838h.578c.402 0 .402.093.402.612v6.553c0 .385-.117.561-.83.561h-.083v.838h3.293v-.838h-.084c-.779 0-.82-.142-.82-.561m3.334-2.238c.067-1.207.595-1.903 1.442-1.903.318 0 .57.101.762.294.285.301.428.855.402 1.609zm1.433-2.782c-1.885 0-3.058 1.298-3.058 3.385 0 2.33 1.659 3.16 3.083 3.16s2.338-.805 2.523-1.61l.025-.109h-1.056l-.025.05c-.268.52-.687.763-1.316.763-.737 0-1.584-.528-1.617-2.003h4.181v-.083c.009-.16.017-.411.017-.57 0-1.115-.36-2.983-2.748-2.983m7.491-.001c-.52 0-1.098.285-1.567.763-.008-.41-.092-.762-.62-.762-.168 0-.302.041-.47.083a3.6 3.6 0 0 1-1.156.168h-.084v.838h.453c.385 0 .385.084.394.612v3.335c0 .41-.059.544-.754.544h-.084v.838h3.595v-.838h-.084c-1.165 0-1.198-.083-1.198-.603v-3.21c.243-.368.578-.586.846-.661a.84.84 0 0 0 .235.57c.15.167.368.25.603.25.511 0 .913-.41.913-.93 0-.611-.402-1.013-1.03-1.013m2.128-1.927c0 .544.46.997 1.03.997s1.031-.444 1.031-.997c0-.554-.46-1.014-1.03-1.014s-1.031.452-1.031 1.014m1.784 6.988v-4.181c0-.47-.041-.863-.602-.863a1.7 1.7 0 0 0-.486.092c-.269.075-.595.167-1.207.167H54.4v.838h.52c.385 0 .385.084.393.612v3.335c0 .394-.033.545-.82.545h-.085v.838h3.277v-.838h-.084c-.77 0-.813-.134-.813-.545m3.328-2.262c.067-1.207.595-1.903 1.441-1.903.319 0 .57.101.763.294.285.301.427.855.402 1.609zM61.55 75.4c-1.885 0-3.059 1.298-3.059 3.385 0 2.33 1.66 3.16 3.084 3.16s2.338-.805 2.523-1.61l.025-.109h-1.056l-.025.05c-.268.52-.687.763-1.316.763-.729 0-1.584-.528-1.617-2.003h4.181v-.083c0-.16.017-.411.017-.57 0-1.115-.36-2.983-2.749-2.983m10.617 0c-.528 0-1.098.285-1.567.763-.009-.41-.093-.762-.62-.762-.16 0-.302.041-.47.083-.251.076-.57.168-1.156.168h-.084v.838h.452c.386 0 .394.084.394.612v3.335c0 .41-.058.544-.754.544h-.084v.838h3.595v-.838h-.084c-1.164 0-1.198-.083-1.198-.603v-3.21c.243-.368.578-.586.846-.661a.84.84 0 0 0 .235.57c.15.167.369.25.603.25.512 0 .914-.41.914-.93 0-.611-.402-1.013-1.03-1.013m2.714 2.799c.067-1.207.595-1.903 1.441-1.903.319 0 .57.101.763.294.285.301.427.855.402 1.609zm1.441-2.782c-1.885 0-3.058 1.298-3.058 3.385 0 2.33 1.659 3.16 3.084 3.16 1.424 0 2.338-.805 2.522-1.61l.025-.109h-1.056l-.025.05c-.268.52-.687.763-1.316.763-.737 0-1.583-.528-1.617-2.003h4.182v-.083c0-.16.016-.411.016-.57 0-1.115-.36-2.983-2.748-2.983m6.929 2.891c-.083-.042-.167-.093-.259-.143-.126-.075-.26-.142-.386-.21-.603-.31-1.173-.611-1.173-1.038 0-.344.319-.721 1.006-.721.344 0 .628.084.813.234a.8.8 0 0 0-.134.436c0 .47.368.822.854.822a.86.86 0 0 0 .872-.872c0-.813-1.014-1.4-2.422-1.4s-2.296.73-2.296 1.769c0 1.131.997 1.642 1.877 2.086q.124.061.26.134c.645.319 1.366.68 1.366 1.123a.42.42 0 0 1-.134.327c-.185.176-.57.268-1.03.251a2.4 2.4 0 0 1-.931-.218c.1-.133.15-.293.15-.46 0-.47-.368-.822-.862-.822a.864.864 0 0 0-.88.88c0 .863 1.047 1.475 2.556 1.475 1.508 0 2.472-.695 2.472-1.801 0-.922-.88-1.4-1.727-1.852m6.109 1.776c-.117.645-.368.972-.737.972-.595 0-.72-.712-.72-1.315v-3.31h1.851v-.897h-1.852v-1.785h-1.14v.62c-.033.964-.351 1.165-.82 1.165h-.31v.897h.577c.176 0 .218.008.218.301v3.025c0 1.467.67 2.204 1.986 2.204 1.064 0 1.777-.729 1.819-1.86v-.092h-.855zm3.713.872c-.453 0-.755-.285-.755-.73 0-.586.352-1.047 1.006-1.332.058-.025.134-.05.218-.084.293-.109.678-.26 1.022-.427v.788c0 1.231-.754 1.785-1.492 1.785m3.603-.864v.084c0 .763-.268.763-.403.763-.117 0-.234-.076-.234-.637v-2.715c0-1.492-.78-2.179-2.447-2.179-.905 0-1.71.285-2.162.763-.26.276-.385.62-.369.98.026.453.369.771.83.771.511 0 .888-.36.888-.838a.82.82 0 0 0-.243-.586 1.87 1.87 0 0 1 .939-.227c.603 0 1.08.377 1.08.696 0 .595-.209.679-1.843 1.198-1.332.436-2.036 1.148-2.036 2.07 0 1.131.963 1.726 1.91 1.726 1.132 0 1.777-.477 2.18-.888.217.553.703.888 1.29.888q.642.002.997-.385c.293-.31.436-.796.41-1.408v-.084h-.804zm7.258.964c-.16 0-.277-.033-.336-.092-.117-.117-.117-.36-.117-.704v-3.98c0-.453-.05-.863-.62-.863-.168 0-.302.041-.461.092-.251.075-.553.167-1.14.167h-.083v.838h.427c.385 0 .385.084.402.612v2.757c-.234.595-.846 1.081-1.366 1.081-.812 0-.963-.452-.963-1.282v-3.377c0-.444-.05-.888-.612-.888-.168 0-.277.041-.41.092-.202.075-.445.167-1.006.167h-.084v.838h.243c.385 0 .385.084.394.612v2.514c0 1.5.712 2.33 2.011 2.33.796 0 1.475-.344 1.969-.998.185.662.629.998 1.307.998.252 0 .629-.076.847-.235l.033-.025v-.763l-.125.059a.9.9 0 0 1-.31.059m4.793-5.649c-.52 0-1.098.285-1.567.763-.009-.41-.092-.762-.62-.762-.159 0-.302.041-.469.083-.252.076-.57.168-1.157.168h-.084v.838h.453c.385 0 .394.084.394.612v3.335c0 .41-.059.544-.755.544h-.083v.838h3.595v-.838h-.084c-1.165 0-1.199-.083-1.199-.603v-3.21c.244-.368.579-.586.847-.661a.84.84 0 0 0 .234.57.8.8 0 0 0 .604.25c.511 0 .913-.41.913-.93 0-.611-.402-1.013-1.03-1.013m3.511 5.556c-.461 0-.755-.277-.755-.73 0-.586.352-1.047 1.006-1.332.059-.025.134-.05.218-.084.293-.109.679-.26 1.022-.427v.788c0 1.231-.746 1.785-1.491 1.785m3.603-.864v.084c0 .679-.201.763-.402.763-.118 0-.235-.076-.235-.637v-2.715c0-1.492-.779-2.179-2.447-2.179-.905 0-1.709.285-2.162.763a1.3 1.3 0 0 0-.369.98c.026.453.369.771.83.771.511 0 .888-.36.888-.838a.83.83 0 0 0-.243-.586 1.87 1.87 0 0 1 .939-.227c.603 0 1.081.377 1.081.696 0 .595-.21.679-1.835 1.198-1.333.436-2.037 1.148-2.037 2.07 0 1.181.989 1.726 1.911 1.726 1.131 0 1.776-.477 2.179-.888.218.553.704.888 1.299.888.418 0 .762-.126.997-.385.293-.31.435-.796.402-1.408v-.084h-.805zm4.542-.008c-.118.645-.369.972-.738.972-.595 0-.721-.712-.721-1.315v-3.31h1.852v-.897h-1.852v-1.785h-1.139v.62c-.034.964-.352 1.165-.821 1.165h-.31v.897h.578c.176 0 .218.008.218.301v3.025c0 1.467.67 2.204 1.986 2.204 1.064 0 1.776-.729 1.818-1.86v-.092h-.855zm3.879.377v-4.181c0-.47-.042-.863-.603-.863a1.7 1.7 0 0 0-.486.092 4 4 0 0 1-1.215.167h-.084v.838h.52c.385 0 .385.084.394.612v3.335c0 .394-.034.545-.813.545h-.084v.838h3.276v-.838h-.083c-.771 0-.813-.134-.813-.545m-1.794-6.988c0 .544.461.997 1.031.997s1.031-.444 1.031-.997c0-.554-.461-1.014-1.031-1.014s-1.031.452-1.031 1.014m6.545 7.592c-.913 0-1.483-.906-1.483-2.355 0-1.542.528-2.397 1.483-2.397s1.483.855 1.483 2.397c0 1.45-.569 2.355-1.483 2.355m0-5.648c-1.919 0-3.058 1.248-3.058 3.343 0 1.55.804 3.21 3.058 3.21 1.408 0 3.05-.855 3.05-3.269 0-2.053-1.139-3.276-3.05-3.276m10.885 5.581c-.653 0-.653-.11-.653-.562v-2.337c0-1.777-.687-2.682-2.036-2.682-.713 0-1.484.352-1.97.712-.016-.377-.117-.687-.611-.687-.168 0-.302.042-.47.092a3.6 3.6 0 0 1-1.156.168h-.084v.838h.453c.393 0 .393.084.402.612v3.293c0 .41-.059.544-.754.544h-.084v.839h3.234v-.838h-.083c-.788 0-.83-.143-.83-.545v-3.394c.377-.369.989-.57 1.383-.57 1.056 0 1.139.796 1.139 1.685v2.262c0 .427 0 .561-.72.561h-.084v.839H140v-.838h-.084z"/><path fill="#E63312" d="M88.197 6.838c0 3.78 3.05 6.838 6.812 6.838s6.813-3.059 6.813-6.838S98.772 0 95.009 0s-6.812 3.059-6.812 6.838"/><path fill="#164194" d="M100.825 16.793H89.194V54.97h11.631zm24.628-1.157c-4.14 0-8.095 2.221-10.483 5.414V6.838h-11.631V54.97h11.631V35.697c0-5.07 1.617-8.991 6.687-8.991 5.069 0 6.695 3.913 6.695 8.991v19.274h11.631V31.7c0-9.026-5.463-16.056-14.539-16.056M25.013 16.793v19.273c0 5.07-1.617 8.991-6.695 8.991s-6.695-3.913-6.695-8.99V16.792H0v23.27C0 49.088 5.472 56.12 14.539 56.12c4.374 0 8.941-2.665 10.952-6.277h.268c-.033.68-.075 1.6-.075 2.213v2.907h10.969V35.69c0-5.07 1.617-8.991 6.695-8.991s6.687 3.913 6.687 8.991v19.273h11.631V35.69c0-5.07 1.618-8.991 6.696-8.991s6.695 3.913 6.695 8.991v19.273h11.631v-23.27c0-9.025-5.472-16.056-14.539-16.056-5.757 0-10.282 2.615-12.82 6.838-2.422-4.164-6.612-6.838-12.202-6.838-4.382 0-8.94 2.665-10.952 6.277h-.268c.034-.679.076-1.6.076-2.212v-2.908z"/></svg>
