<svg width="140" height="82" viewBox="0 0 140 82" fill="none" xmlns="http://www.w3.org/2000/svg">
<path d="M16.2818 69.3001V68.5376L16.1561 68.5962C16.0807 68.6298 15.955 68.6549 15.8461 68.6549C15.6869 68.6549 15.5779 68.6214 15.5109 68.5627C15.3936 68.4454 15.3936 68.2024 15.3936 67.8588V63.8785C15.3936 63.426 15.3433 63.0153 14.7735 63.0153C14.6059 63.0153 14.4718 63.0572 14.3126 63.1075C14.0612 63.1829 13.7595 63.2751 13.173 63.2751H13.0892V64.1131H13.5165C13.902 64.1131 13.902 64.1969 13.9187 64.7248V67.4817C13.6841 68.0767 13.0724 68.5627 12.5529 68.5627C11.74 68.5627 11.5892 68.1102 11.5892 67.2806V63.9036C11.5892 63.4595 11.5389 63.0153 10.9775 63.0153C10.8099 63.0153 10.6926 63.0572 10.5585 63.1075C10.3574 63.1829 10.1144 63.2667 9.55291 63.2667H9.46912V64.1047H9.71213C10.0976 64.1047 10.0976 64.1885 10.106 64.7164V67.2303C10.106 68.7303 10.8183 69.5599 12.1171 69.5599C12.9132 69.5599 13.5919 69.2163 14.0863 68.5627C14.2707 69.2247 14.7148 69.5599 15.3936 69.5599C15.6533 69.5599 16.0221 69.4845 16.2399 69.3253L16.2734 69.3001H16.2818Z" fill="#164194"/>
<path d="M17.5974 64.7583V68.0516C17.5974 68.4622 17.5387 68.5962 16.8432 68.5962H16.7594V69.4342H19.994V68.5962H19.9102C19.1225 68.5962 19.0806 68.4538 19.0806 68.0516V64.6578C19.4577 64.2891 20.0694 64.088 20.4633 64.088C21.5191 64.088 21.6029 64.884 21.6029 65.7723V68.0348C21.6029 68.4622 21.6029 68.5962 20.8822 68.5962H20.7985V69.4342H23.8235V68.5962H23.7397C23.0861 68.5962 23.0861 68.4873 23.0861 68.0348V65.6969C23.0861 63.9204 22.399 63.0153 21.0498 63.0153C20.3376 63.0153 19.5666 63.3673 19.0806 63.7276C19.0639 63.3505 18.9633 63.0405 18.4689 63.0405C18.3013 63.0405 18.1588 63.0824 17.9996 63.1327C17.7482 63.2081 17.4298 63.3003 16.8432 63.3003H16.7594V64.1382H17.2119C17.6058 64.1382 17.6058 64.222 17.6142 64.7499" fill="#164194"/>
<path d="M26.1111 62.0684C26.681 62.0684 27.1418 61.6243 27.1418 61.0712C27.1418 60.5182 26.681 60.0573 26.1111 60.0573C25.5413 60.0573 25.0804 60.5098 25.0804 61.0712C25.0804 61.6327 25.5413 62.0684 26.1111 62.0684Z" fill="#164194"/>
<path d="M25.3905 64.7164V68.0515C25.3905 68.437 25.357 68.5962 24.5693 68.5962H24.4855V69.4342H27.762V68.5962H27.6782C26.8989 68.5962 26.8653 68.4621 26.8653 68.0515V63.8701C26.8653 63.4008 26.8234 63.007 26.262 63.007C26.0944 63.007 25.9436 63.0489 25.776 63.0991C25.5078 63.1746 25.181 63.2667 24.5693 63.2667H24.4855V64.1047H25.005C25.3905 64.1047 25.3989 64.1885 25.3989 64.7164" fill="#164194"/>
<path d="M31.6335 68.6633C30.7201 68.6633 30.1503 67.7583 30.1503 66.3086C30.1503 64.7667 30.6782 63.912 31.6335 63.912C32.5888 63.912 33.1167 64.7583 33.1167 66.3086C33.1167 67.7583 32.5469 68.6633 31.6335 68.6633ZM31.6335 63.007C29.7146 63.007 28.5749 64.2555 28.5749 66.3505C28.5749 67.9007 29.3794 69.5599 31.6335 69.5599C33.0413 69.5599 34.6837 68.7052 34.6837 66.2918C34.6837 64.2388 33.5441 63.007 31.6335 63.007Z" fill="#164194"/>
<path d="M36.3763 64.7583V68.0516C36.3763 68.4622 36.3176 68.5962 35.6221 68.5962H35.5383V69.4342H38.7729V68.5962H38.6891C37.9014 68.5962 37.8595 68.4538 37.8595 68.0516V64.6578C38.2282 64.2891 38.8483 64.088 39.2421 64.088C40.298 64.088 40.3902 64.884 40.3902 65.7723V68.0348C40.3902 68.4622 40.3902 68.5962 39.6695 68.5962H39.5857V69.4342H42.6108V68.5962H42.527C41.8734 68.5962 41.8734 68.4873 41.8734 68.0348V65.6969C41.8734 63.9204 41.1862 63.0153 39.8371 63.0153C39.1248 63.0153 38.3539 63.3673 37.8679 63.7276C37.8511 63.3505 37.7505 63.0405 37.2561 63.0405C37.0885 63.0405 36.9545 63.0824 36.7869 63.1327C36.5355 63.2081 36.2171 63.3003 35.6305 63.3003H35.5467V64.1382H35.9992C36.393 64.1382 36.393 64.222 36.4014 64.7499" fill="#164194"/>
<path d="M49.189 68.6632C47.9404 68.6632 47.7561 67.1381 47.7561 66.2331C47.7561 64.8002 48.3008 63.9119 49.189 63.9119C50.1192 63.9119 50.6722 64.7834 50.6722 66.2331C50.6722 67.1381 50.4795 68.6632 49.189 68.6632ZM50.8733 68.5962C51.0744 69.2247 51.5102 69.5599 52.1387 69.5599C52.3901 69.5599 52.7588 69.4844 52.9766 69.3252L53.0102 69.3001V68.5292L52.8845 68.5962C52.8174 68.6297 52.6834 68.6549 52.5828 68.6549C52.4152 68.6549 52.3063 68.6213 52.2392 68.5543C52.1219 68.437 52.1219 68.194 52.1219 67.8504V60.6941C52.1219 60.2416 52.0716 59.831 51.5018 59.831C51.3342 59.831 51.1834 59.8729 51.0158 59.9148C50.7393 59.9902 50.4041 60.0824 49.7924 60.0824H49.7086V60.9204H50.2197C50.6219 60.9204 50.6471 61.0042 50.6471 61.5321V63.5684C50.1946 63.1997 49.6415 62.9985 49.0549 62.9985C47.203 62.9985 46.1807 64.222 46.1807 66.451C46.1807 68.3364 47.2449 69.5515 48.8873 69.5515C49.7169 69.5515 50.3873 69.2247 50.8733 68.5878" fill="#164194"/>
<path d="M55.1636 65.789C55.2306 64.5823 55.7585 63.8868 56.6049 63.8868C56.9233 63.8868 57.1747 63.9874 57.3675 64.1801C57.6524 64.4818 57.7948 65.0348 57.7697 65.789H55.1636ZM59.1523 67.951L59.1775 67.8421H58.1216L58.0965 67.8923C57.8283 68.4119 57.4094 68.6465 56.7809 68.6465C56.0435 68.6465 55.1971 68.1186 55.1636 66.6438H59.3451V66.56C59.3534 66.4007 59.3618 66.1493 59.3618 65.9901C59.3618 64.8756 59.0015 63.007 56.6133 63.007C54.7278 63.007 53.5547 64.3058 53.5547 66.4007C53.5547 68.7303 55.2222 69.5599 56.6468 69.5599C58.0714 69.5599 58.9847 68.7471 59.1691 67.951" fill="#164194"/>
<path d="M63.5433 65.898C63.4595 65.8561 63.3757 65.8058 63.2835 65.7555C63.1578 65.6885 63.0237 65.613 62.898 65.546C62.2947 65.2276 61.7249 64.9343 61.7249 64.5069C61.7249 64.1634 62.0433 63.7863 62.7304 63.7863C63.074 63.7863 63.3589 63.8701 63.5433 64.0209C63.4595 64.1466 63.4092 64.2974 63.4092 64.4566C63.4092 64.9259 63.7779 65.2779 64.2639 65.2779C64.75 65.2779 65.1354 64.9008 65.1354 64.4064C65.1354 63.5935 64.1215 63.007 62.7137 63.007C61.3059 63.007 60.4176 63.736 60.4176 64.7751C60.4176 65.9063 61.4567 66.4343 62.2947 66.8616C62.3785 66.9035 62.4623 66.9454 62.5545 66.9873C63.1997 67.3058 63.9204 67.6661 63.9204 68.1102C63.9204 68.2443 63.8785 68.3532 63.7863 68.4454C63.6019 68.6214 63.2165 68.7219 62.7556 68.6968C62.4372 68.6884 62.0852 68.6046 61.8254 68.4873C61.926 68.3532 61.9763 68.194 61.9763 68.0264C61.9763 67.5571 61.6076 67.2052 61.1132 67.2052C60.6188 67.2052 60.2333 67.5823 60.2333 68.0851C60.2333 68.9482 61.2808 69.5599 62.7891 69.5599C64.2975 69.5599 65.2611 68.8644 65.2611 67.7583C65.2611 66.8365 64.3812 66.3588 63.5349 65.9063" fill="#164194"/>
<path d="M78.9034 68.0432V65.7052C78.9034 63.9287 78.2749 63.0237 77.0431 63.0237C76.2387 63.0237 75.3253 63.4679 74.7806 63.9371C74.4705 63.3338 73.9594 63.0237 73.2471 63.0237C72.5348 63.0237 71.7723 63.3673 71.2779 63.7444C71.2611 63.3422 71.1689 63.0489 70.6829 63.0489C70.5153 63.0489 70.3729 63.0908 70.2053 63.1327C69.9455 63.2081 69.6187 63.3003 69.0321 63.3003H68.9483V64.1382H69.4008C69.7947 64.1382 69.7947 64.222 69.803 64.75V68.0432C69.803 68.4538 69.7444 68.5879 69.0489 68.5879H68.9651V69.4258H72.1913V68.5879H72.1075C71.3198 68.5879 71.2863 68.4538 71.2863 68.0432V64.6745C71.655 64.2891 72.2667 64.088 72.6773 64.088C73.5655 64.088 73.641 64.884 73.641 65.7723V68.0348C73.641 68.4622 73.641 68.5962 72.9203 68.5962H72.8365V69.4342H75.8616V68.5962H75.7778C75.1242 68.5962 75.1242 68.4873 75.1242 68.0348V65.6969C75.1242 65.3449 75.099 65.0181 75.0487 64.7332C75.4091 64.3142 76.0543 64.0963 76.4817 64.0963C77.3699 64.0963 77.4453 64.8924 77.4453 65.7807V68.0432C77.4453 68.4705 77.4453 68.6046 76.7247 68.6046H76.6409V69.4426H79.666V68.6046H79.5822C78.9286 68.6046 78.9286 68.4957 78.9286 68.0432" fill="#164194"/>
<path d="M83.3698 62.2193C83.6128 62.2193 83.7972 62.0852 83.9648 61.8087L84.7441 60.5014C84.9201 60.2082 85.0039 59.9484 85.0039 59.7221C85.0039 59.3031 84.7106 59.0518 84.2246 59.0518C83.5877 59.0518 83.4285 59.5545 83.2777 60.2668L82.976 61.6914C82.9425 61.8422 82.9676 61.9847 83.043 62.0852C83.1184 62.1774 83.2274 62.2277 83.3615 62.2277" fill="#164194"/>
<path d="M82.0877 65.789C82.1547 64.5824 82.6827 63.8868 83.529 63.8868C83.8475 63.8868 84.0988 63.9874 84.2916 64.1801C84.5765 64.4818 84.7189 65.0349 84.6938 65.789H82.0877ZM86.0932 67.8421H85.0374L85.0122 67.8923C84.7441 68.4119 84.3251 68.6549 83.6966 68.6549C82.9592 68.6549 82.1128 68.127 82.0793 66.6521H86.2608V66.5683C86.2692 66.4091 86.2776 66.1577 86.2776 65.9985C86.2776 64.884 85.9172 63.0153 83.529 63.0153C81.6436 63.0153 80.4704 64.3142 80.4704 66.4091C80.4704 68.7387 82.138 69.5683 83.5542 69.5683C84.9703 69.5683 85.8921 68.7555 86.0765 67.9594L86.1016 67.8504L86.0932 67.8421Z" fill="#164194"/>
<path d="M87.7272 64.331V67.356C87.7272 68.8141 88.3976 69.5599 89.7132 69.5599C90.7774 69.5599 91.4897 68.8309 91.54 67.6996V67.6074H90.6853L90.6685 67.6829C90.5512 68.3281 90.2998 68.6549 89.9311 68.6549C89.3361 68.6549 89.2104 67.9426 89.2104 67.3393V64.0293H91.0624V63.1327H89.2104V61.3478H88.0708V61.9679C88.0373 62.9316 87.7189 63.1327 87.2496 63.1327H86.9395V64.0293H87.5177C87.6937 64.0293 87.7356 64.0377 87.7356 64.331" fill="#164194"/>
<path d="M93.0567 64.7164V68.0515C93.0567 68.437 93.0232 68.5962 92.2355 68.5962H92.1517V69.4342H95.4282V68.5962H95.3444C94.565 68.5962 94.5315 68.4621 94.5315 68.0515V63.8701C94.5315 63.4008 94.4896 63.007 93.9282 63.007C93.7606 63.007 93.6098 63.0489 93.4422 63.0991C93.174 63.1746 92.8388 63.2667 92.2355 63.2667H92.1517V64.1047H92.6712C93.0567 64.1047 93.0567 64.1885 93.0651 64.7164" fill="#164194"/>
<path d="M93.7773 62.0684C94.3472 62.0684 94.808 61.6243 94.808 61.0712C94.808 60.5182 94.3472 60.0573 93.7773 60.0573C93.2075 60.0573 92.7466 60.5098 92.7466 61.0712C92.7466 61.6327 93.2075 62.0684 93.7773 62.0684Z" fill="#164194"/>
<path d="M97.8668 65.789C97.9338 64.5823 98.4617 63.8868 99.3081 63.8868C99.6265 63.8868 99.8779 63.9874 100.071 64.1801C100.356 64.4818 100.498 65.0348 100.473 65.789H97.8668ZM99.3332 69.5599C100.825 69.5599 101.671 68.7471 101.856 67.951L101.881 67.8421H100.825L100.8 67.8923C100.532 68.4119 100.113 68.6465 99.4841 68.6465C98.7467 68.6465 97.9003 68.1186 97.8668 66.6438H102.048V66.56C102.057 66.4007 102.065 66.1493 102.065 65.9901C102.065 64.8756 101.705 63.007 99.3165 63.007C97.431 63.007 96.2579 64.3058 96.2579 66.4007C96.2579 68.7303 97.9171 69.5599 99.3416 69.5599" fill="#164194"/>
<path d="M103.758 64.7164V68.0515C103.758 68.4621 103.699 68.5962 103.003 68.5962H102.92V69.4342H106.515V68.5962H106.431C105.266 68.5962 105.232 68.5124 105.232 67.9929V64.7834C105.476 64.4147 105.811 64.1969 106.079 64.1214C106.087 64.3477 106.171 64.5488 106.313 64.6913C106.464 64.8505 106.682 64.9427 106.917 64.9427C107.428 64.9427 107.83 64.5321 107.83 64.0125C107.83 63.4008 107.428 62.9986 106.799 62.9986C106.28 62.9986 105.702 63.2835 105.232 63.7611C105.224 63.3505 105.14 62.9986 104.612 62.9986C104.445 62.9986 104.311 63.0405 104.143 63.0907C103.892 63.1662 103.573 63.2583 102.987 63.2583H102.903V64.0963H103.355C103.741 64.0963 103.741 64.1801 103.749 64.708" fill="#164194"/>
<path d="M109.221 67.2052C108.718 67.2052 108.341 67.5823 108.341 68.0851C108.341 68.9482 109.389 69.5599 110.897 69.5599C112.406 69.5599 113.369 68.8644 113.369 67.7583C113.369 66.8365 112.498 66.3672 111.643 65.9064C111.559 65.8561 111.475 65.8142 111.383 65.7639C111.258 65.6885 111.123 65.6214 110.998 65.5544C110.394 65.236 109.825 64.9427 109.825 64.5153C109.825 64.1717 110.143 63.7947 110.83 63.7947C111.174 63.7947 111.45 63.8785 111.643 64.0293C111.559 64.155 111.509 64.3058 111.509 64.465C111.509 64.9343 111.878 65.2863 112.364 65.2863C112.85 65.2863 113.235 64.9092 113.235 64.4148C113.235 63.6019 112.221 63.0153 110.813 63.0153C109.406 63.0153 108.517 63.7444 108.517 64.7835C108.517 65.9147 109.515 66.4259 110.394 66.87C110.478 66.9119 110.562 66.9538 110.654 67.0041C111.299 67.3225 112.02 67.6829 112.02 68.127C112.02 68.2611 111.978 68.37 111.878 68.4538C111.693 68.6298 111.308 68.7303 110.847 68.7052C110.528 68.6968 110.177 68.613 109.917 68.4873C110.017 68.3532 110.068 68.194 110.068 68.0264C110.068 67.5572 109.699 67.2052 109.204 67.2052" fill="#164194"/>
<path d="M120.123 68.6632C118.875 68.6632 118.69 67.1381 118.69 66.2331C118.69 64.8002 119.235 63.9119 120.123 63.9119C121.053 63.9119 121.606 64.7751 121.606 66.2331C121.606 67.1381 121.414 68.6632 120.123 68.6632ZM123.073 69.5599C123.324 69.5599 123.693 69.4845 123.911 69.3252L123.944 69.3001V68.5292L123.819 68.5962C123.752 68.6297 123.618 68.6549 123.517 68.6549C123.349 68.6549 123.24 68.6213 123.173 68.5543C123.056 68.437 123.056 68.194 123.056 67.8504V60.7025C123.056 60.25 123.006 59.8394 122.436 59.8394C122.268 59.8394 122.118 59.8813 121.942 59.9232C121.673 59.9986 121.33 60.0908 120.718 60.0908H120.634V60.9288H121.146C121.539 60.9288 121.573 61.0126 121.573 61.5405V63.5768C121.12 63.208 120.567 63.0069 119.981 63.0069C118.129 63.0069 117.107 64.2304 117.107 66.4594C117.107 68.3448 118.171 69.5599 119.813 69.5599C120.643 69.5599 121.313 69.2331 121.799 68.5962C122 69.2331 122.436 69.5599 123.064 69.5599" fill="#164194"/>
<path d="M126.098 65.789C126.165 64.5823 126.693 63.8868 127.539 63.8868C127.858 63.8868 128.109 63.9874 128.302 64.1801C128.587 64.4818 128.729 65.0348 128.704 65.789H126.098ZM130.078 67.951L130.103 67.8421H129.048L129.023 67.8923C128.754 68.4119 128.335 68.6465 127.707 68.6465C126.969 68.6465 126.123 68.1186 126.09 66.6438H130.271V66.56C130.279 66.4007 130.288 66.1493 130.288 65.9901C130.288 64.8756 129.928 63.007 127.539 63.007C125.654 63.007 124.481 64.3058 124.481 66.4007C124.481 68.7303 126.14 69.5599 127.564 69.5599C128.989 69.5599 129.902 68.7471 130.087 67.951" fill="#164194"/>
<path d="M2.45526 80.4283V73.029C2.45526 72.5765 2.40498 72.1659 1.83516 72.1659C1.65918 72.1659 1.50835 72.2078 1.33237 72.2497C1.05584 72.3251 0.720655 72.4173 0.0837971 72.4173H0V73.2553H0.5782C0.980427 73.2553 0.980427 73.3475 0.980427 73.867V80.4199C0.980427 80.8054 0.863111 80.9814 0.150835 80.9814H0.0670377V81.8194H3.36027V80.9814H3.27647C2.49715 80.9814 2.45526 80.8389 2.45526 80.4199" fill="#164194"/>
<path d="M5.4133 72.4006C4.88538 72.4006 4.31556 72.8447 4.31556 73.557C4.31556 74.0598 4.69265 74.3866 5.01108 74.6212C5.17867 74.7385 5.25409 74.8894 5.22895 75.0737C5.17867 75.4089 4.74293 75.8614 3.8882 76.1379L3.77926 76.1715L4.15635 76.7245H4.20662C5.67307 76.4647 6.57808 75.3251 6.57808 73.7413C6.57808 72.9369 6.10882 72.4006 5.40492 72.4006" fill="#164194"/>
<path d="M14.0444 80.4283V78.0904C14.0444 76.3055 13.3572 75.4005 12.0081 75.4005C11.2958 75.4005 10.5249 75.7525 10.0472 76.1212V73.0374C10.0472 72.5849 9.99697 72.1743 9.42715 72.1743C9.26793 72.1743 9.1171 72.2162 8.95788 72.2581C8.70649 72.3335 8.38806 72.4257 7.80148 72.4257H7.71768V73.2637H8.17019C8.56404 73.2637 8.56404 73.3475 8.57241 73.8754V80.4367C8.57241 80.8473 8.51376 80.9814 7.81824 80.9814H7.73444V81.8194H10.969V80.9814H10.8852C10.0975 80.9814 10.0556 80.8389 10.0556 80.4367V77.0429C10.4327 76.6742 11.0444 76.4731 11.4383 76.4731C12.4941 76.4731 12.5779 77.2692 12.5779 78.1574V80.42C12.5779 80.8473 12.5779 80.9814 11.8573 80.9814H11.7735V81.8194H14.7985V80.9814H14.7147C14.0611 80.9814 14.0611 80.8725 14.0611 80.42" fill="#164194"/>
<path d="M18.6198 81.0485C17.698 81.0485 17.1366 80.1435 17.1366 78.6938C17.1366 77.1519 17.6645 76.2972 18.6198 76.2972C19.5751 76.2972 20.103 77.1519 20.103 78.6938C20.103 80.1435 19.5332 81.0485 18.6198 81.0485ZM18.6198 75.4006C16.7008 75.4006 15.5612 76.6492 15.5612 78.7441C15.5612 80.2943 16.3656 81.9535 18.6198 81.9535C20.0276 81.9535 21.67 81.0988 21.67 78.6854C21.67 76.6324 20.5304 75.409 18.6198 75.409" fill="#164194"/>
<path d="M16.793 74.772C16.9271 74.772 17.0947 74.705 17.2706 74.5542L18.5863 73.5318L19.8935 74.5458C20.1868 74.8139 20.4549 74.8139 20.5974 74.6966C20.7231 74.5961 20.7398 74.4201 20.6393 74.2525L18.9969 72.0067L18.9717 71.9732H18.2092L16.5416 74.2525C16.441 74.4201 16.4578 74.5877 16.5835 74.6966C16.6422 74.7469 16.7176 74.772 16.8098 74.772" fill="#164194"/>
<path d="M26.086 80.0681C25.9687 80.7133 25.7173 81.0401 25.3486 81.0401C24.7536 81.0401 24.6279 80.3279 24.6279 79.7245V76.4145H26.4798V75.5179H24.6279V73.733H23.4883V74.3531C23.4548 75.3168 23.1363 75.5179 22.6587 75.5179H22.3486V76.4145H22.9268C23.1028 76.4145 23.1447 76.4229 23.1447 76.7162V79.7413C23.1447 81.2077 23.8151 81.9452 25.1307 81.9452C26.1949 81.9452 26.9072 81.2161 26.9575 80.0849V79.9927H26.1027L26.086 80.0681Z" fill="#164194"/>
<path d="M29.2536 78.1827C29.3206 76.976 29.8485 76.2805 30.6949 76.2805C31.0133 76.2805 31.2647 76.381 31.449 76.5737C31.734 76.8754 31.8764 77.4285 31.8513 78.1827H29.2452H29.2536ZM30.6865 75.4006C28.8011 75.4006 27.6279 76.6994 27.6279 78.786C27.6279 81.1155 29.2955 81.9451 30.7116 81.9451C32.1278 81.9451 33.0496 81.1407 33.2339 80.3362L33.2591 80.2273H32.2032L32.1781 80.2776C31.9099 80.7971 31.4909 81.0401 30.8625 81.0401C30.125 81.0401 29.2787 80.5122 29.2452 79.0374H33.4267V78.9536C33.435 78.7944 33.4434 78.543 33.4434 78.3838C33.4434 77.2693 33.0831 75.4006 30.6949 75.4006" fill="#164194"/>
<path d="M36.6278 80.4283V73.029C36.6278 72.5765 36.5775 72.1659 36.0077 72.1659C35.8317 72.1659 35.6808 72.2078 35.5049 72.2497C35.2283 72.3251 34.8848 72.4173 34.2563 72.4173H34.1725V73.2553H34.7507C35.1529 73.2553 35.1529 73.3475 35.1529 73.867V80.4199C35.1529 80.8054 35.0356 80.9814 34.3233 80.9814H34.2395V81.8194H37.5328V80.9814H37.449C36.6697 80.9814 36.6278 80.8389 36.6278 80.4199" fill="#164194"/>
<path d="M40.6081 80.4283V73.029C40.6081 72.5765 40.5578 72.1659 39.988 72.1659C39.812 72.1659 39.6612 72.2078 39.4852 72.2497C39.2087 72.3251 38.8651 72.4173 38.2367 72.4173H38.1529V73.2553H38.7311C39.1333 73.2553 39.1333 73.3475 39.1333 73.867V80.4199C39.1333 80.8054 39.016 80.9814 38.3037 80.9814H38.2199V81.8194H41.5131V80.9814H41.4293C40.65 80.9814 40.6081 80.8389 40.6081 80.4199" fill="#164194"/>
<path d="M43.9432 78.1827C44.0103 76.976 44.5382 76.2805 45.3845 76.2805C45.703 76.2805 45.9544 76.381 46.1471 76.5737C46.432 76.8754 46.5745 77.4285 46.5493 78.1827H43.9432ZM45.3762 75.4006C43.4907 75.4006 42.3176 76.6994 42.3176 78.786C42.3176 81.1155 43.9767 81.9451 45.4013 81.9451C46.8258 81.9451 47.7392 81.1407 47.9236 80.3362L47.9487 80.2273H46.8929L46.8677 80.2776C46.5996 80.7971 46.1806 81.0401 45.5521 81.0401C44.8147 81.0401 43.9684 80.5122 43.9348 79.0374H48.1163V78.9536C48.1247 78.7944 48.1331 78.543 48.1331 78.3838C48.1331 77.2693 47.7728 75.4006 45.3845 75.4006" fill="#164194"/>
<path d="M52.876 75.4006C52.3564 75.4006 51.7782 75.6855 51.3089 76.1631C51.3006 75.7525 51.2168 75.4006 50.6889 75.4006C50.5213 75.4006 50.3872 75.4425 50.2196 75.4844C49.9682 75.5598 49.6498 75.652 49.0632 75.652H48.9794V76.4899H49.4319C49.8174 76.4899 49.8174 76.5737 49.8257 77.1017V80.4368C49.8257 80.8474 49.7671 80.9815 49.0716 80.9815H48.9878V81.8194H52.5827V80.9815H52.4989C51.3341 80.9815 51.3006 80.8977 51.3006 80.3781V77.1687C51.5436 76.8 51.8788 76.5821 52.1469 76.5067C52.1553 76.733 52.2391 76.9341 52.3816 77.0765C52.5324 77.2441 52.7503 77.3279 52.9849 77.3279C53.4961 77.3279 53.8983 76.9173 53.8983 76.3978C53.8983 75.786 53.4961 75.3838 52.8676 75.3838" fill="#164194"/>
<path d="M54.996 73.4565C54.996 74.0012 55.4569 74.4537 56.0267 74.4537C56.5965 74.4537 57.0574 74.0095 57.0574 73.4565C57.0574 72.9034 56.5965 72.4425 56.0267 72.4425C55.4569 72.4425 54.996 72.895 54.996 73.4565Z" fill="#164194"/>
<path d="M56.7809 80.4452V76.2637C56.7809 75.7944 56.739 75.4006 56.1775 75.4006C56.0099 75.4006 55.8591 75.4425 55.6915 75.4928C55.4234 75.5682 55.0966 75.6604 54.4848 75.6604H54.401V76.4983H54.9206C55.3061 76.4983 55.3061 76.5821 55.3144 77.11V80.4452C55.3144 80.839 55.2809 80.9899 54.4932 80.9899H54.4094V81.8278H57.6859V80.9899H57.6021C56.8312 80.9899 56.7893 80.8558 56.7893 80.4452" fill="#164194"/>
<path d="M60.1161 78.1827C60.1831 76.976 60.7111 76.2805 61.5574 76.2805C61.8759 76.2805 62.1272 76.381 62.32 76.5737C62.6049 76.8754 62.7473 77.4285 62.7222 78.1827H60.1161ZM61.549 75.4006C59.6636 75.4006 58.4904 76.6994 58.4904 78.786C58.4904 81.1155 60.1496 81.9451 61.5742 81.9451C62.9987 81.9451 63.9121 81.1407 64.0965 80.3362L64.1216 80.2273H63.0658L63.0406 80.2776C62.7725 80.7971 62.3535 81.0401 61.725 81.0401C60.996 81.0401 60.1413 80.5122 60.1077 79.0374H64.2892V78.9536C64.2892 78.7944 64.306 78.543 64.306 78.3838C64.306 77.2693 63.9456 75.4006 61.5574 75.4006" fill="#164194"/>
<path d="M72.1745 75.4006C71.6465 75.4006 71.0767 75.6855 70.6075 76.1631C70.5991 75.7525 70.5153 75.4006 69.9874 75.4006C69.8281 75.4006 69.6857 75.4425 69.5181 75.4844C69.2667 75.5598 68.9483 75.652 68.3617 75.652H68.2779V76.4899H68.7304C69.1159 76.4899 69.1242 76.5737 69.1242 77.1017V80.4368C69.1242 80.8474 69.0656 80.9815 68.3701 80.9815H68.2863V81.8194H71.8812V80.9815H71.7974C70.6326 80.9815 70.5991 80.8977 70.5991 80.3781V77.1687C70.8421 76.8 71.1773 76.5821 71.4454 76.5067C71.4538 76.733 71.5376 76.9341 71.6801 77.0765C71.8309 77.2441 72.0488 77.3279 72.2834 77.3279C72.7946 77.3279 73.1968 76.9173 73.1968 76.3978C73.1968 75.786 72.7946 75.3838 72.1661 75.3838" fill="#164194"/>
<path d="M74.8811 78.1827C74.9481 76.976 75.476 76.2805 76.3224 76.2805C76.6408 76.2805 76.8922 76.381 77.0849 76.5737C77.3698 76.8754 77.5123 77.4285 77.4872 78.1827H74.8811ZM76.3224 75.4006C74.437 75.4006 73.2638 76.6994 73.2638 78.786C73.2638 81.1155 74.923 81.9451 76.3475 81.9451C77.7721 81.9451 78.6855 81.1407 78.8698 80.3362L78.895 80.2273H77.8391L77.814 80.2776C77.5458 80.7971 77.1268 81.0401 76.4984 81.0401C75.7609 81.0401 74.9146 80.5122 74.8811 79.0374H79.0625V78.9536C79.0625 78.7944 79.0793 78.543 79.0793 78.3838C79.0793 77.2693 78.719 75.4006 76.3308 75.4006" fill="#164194"/>
<path d="M83.2608 78.2916C83.177 78.2497 83.0932 78.1994 83.001 78.1491C82.8753 78.0737 82.7412 78.0067 82.6155 77.9396C82.0122 77.6296 81.4424 77.3279 81.4424 76.9006C81.4424 76.557 81.7608 76.1799 82.4479 76.1799C82.7915 76.1799 83.0764 76.2637 83.2608 76.4145C83.177 76.5402 83.1267 76.6911 83.1267 76.8503C83.1267 77.3195 83.4954 77.6715 83.9814 77.6715C84.4674 77.6715 84.8529 77.2944 84.8529 76.8C84.8529 75.9872 83.839 75.4006 82.4312 75.4006C81.0234 75.4006 80.1351 76.1296 80.1351 77.1687C80.1351 78.3 81.1323 78.8111 82.0122 79.2553C82.096 79.2972 82.1798 79.3391 82.272 79.3893C82.9172 79.7078 83.6378 80.0681 83.6378 80.5122C83.6378 80.6463 83.596 80.7552 83.5038 80.839C83.3194 81.015 82.934 81.1072 82.4731 81.0904C82.1546 81.082 81.8027 80.9982 81.5429 80.8725C81.6435 80.7385 81.6938 80.5792 81.6938 80.4117C81.6938 79.9424 81.3251 79.5904 80.8307 79.5904C80.3362 79.5904 79.9508 79.9675 79.9508 80.4703C79.9508 81.3334 80.9982 81.9451 82.5066 81.9451C84.0149 81.9451 84.9786 81.2496 84.9786 80.1435C84.9786 79.2217 84.0987 78.7441 83.2524 78.2916" fill="#164194"/>
<path d="M89.3612 80.0681C89.2439 80.7133 88.9925 81.0401 88.6238 81.0401C88.0289 81.0401 87.9032 80.3279 87.9032 79.7245V76.4145H89.7551V75.5179H87.9032V73.733H86.7635V74.3531C86.73 75.3168 86.4116 75.5179 85.9423 75.5179H85.6323V76.4145H86.2104C86.3864 76.4145 86.4283 76.4229 86.4283 76.7162V79.7413C86.4283 81.2077 87.0987 81.9452 88.4143 81.9452C89.4785 81.9452 90.1908 81.2161 90.2327 80.0849V79.9927H89.378L89.3612 80.0681Z" fill="#164194"/>
<path d="M93.0735 80.9396C92.6209 80.9396 92.3193 80.6547 92.3193 80.2105C92.3193 79.624 92.6712 79.1631 93.3249 78.8782C93.3835 78.853 93.4589 78.8279 93.5427 78.7944C93.836 78.6854 94.2215 78.5346 94.565 78.367V79.1547C94.565 80.3865 93.8109 80.9396 93.0735 80.9396ZM96.6767 80.0765V80.1603C96.6767 80.9228 96.4086 80.9228 96.2745 80.9228C96.1572 80.9228 96.0399 80.8474 96.0399 80.286V77.5709C96.0399 76.0793 95.2606 75.3922 93.593 75.3922C92.688 75.3922 91.8835 75.6771 91.431 76.1548C91.1713 76.4313 91.0456 76.7749 91.0623 77.1352C91.0875 77.5877 91.431 77.9061 91.8919 77.9061C92.4031 77.9061 92.7802 77.5458 92.7802 77.0681C92.7802 76.8503 92.6964 76.6408 92.5372 76.4816C92.7131 76.381 93.0232 76.2553 93.4757 76.2553C94.079 76.2553 94.5567 76.6324 94.5567 76.9508C94.5567 77.5458 94.3472 77.6296 92.7131 78.1491C91.3808 78.5849 90.6769 79.2971 90.6769 80.2189C90.6769 81.3502 91.6405 81.9451 92.5874 81.9451C93.7187 81.9451 94.3639 81.4675 94.7662 81.0569C94.984 81.61 95.4701 81.9451 96.0566 81.9451C96.484 81.9451 96.8192 81.8194 97.0538 81.5597C97.3471 81.2496 97.4896 80.7636 97.4644 80.1519V80.0681H96.66L96.6767 80.0765Z" fill="#164194"/>
<path d="M103.934 81.0401C103.774 81.0401 103.657 81.0066 103.598 80.948C103.481 80.8306 103.481 80.5876 103.481 80.2441V76.2637C103.481 75.8112 103.431 75.4006 102.861 75.4006C102.693 75.4006 102.559 75.4425 102.4 75.4928C102.149 75.5682 101.847 75.6604 101.26 75.6604H101.177V76.4983H101.604C101.989 76.4983 101.989 76.5821 102.006 77.11V79.867C101.772 80.4619 101.16 80.948 100.64 80.948C99.8275 80.948 99.6766 80.4955 99.6766 79.6659V76.2888C99.6766 75.8447 99.6264 75.4006 99.0649 75.4006C98.8973 75.4006 98.7884 75.4425 98.6543 75.4928C98.4532 75.5682 98.2102 75.6604 97.6488 75.6604H97.565V76.4983H97.808C98.1934 76.4983 98.1934 76.5821 98.2018 77.11V79.624C98.2018 81.1239 98.9141 81.9535 100.213 81.9535C101.009 81.9535 101.688 81.61 102.182 80.9563C102.367 81.6183 102.811 81.9535 103.489 81.9535C103.741 81.9535 104.118 81.8781 104.336 81.7189L104.369 81.6938V80.9312L104.244 80.9899C104.168 81.0234 104.042 81.0485 103.934 81.0485" fill="#164194"/>
<path d="M108.727 75.4006C108.207 75.4006 107.629 75.6855 107.16 76.1631C107.151 75.7525 107.068 75.4006 106.54 75.4006C106.381 75.4006 106.238 75.4425 106.071 75.4844C105.819 75.5598 105.501 75.652 104.914 75.652H104.83V76.4899H105.283C105.668 76.4899 105.677 76.5737 105.677 77.1017V80.4368C105.677 80.8474 105.618 80.9815 104.922 80.9815H104.839V81.8194H108.434V80.9815H108.35C107.185 80.9815 107.151 80.8977 107.151 80.3781V77.1687C107.395 76.8 107.73 76.5821 107.998 76.5067C108.006 76.733 108.09 76.9341 108.232 77.0765C108.383 77.2441 108.601 77.3279 108.836 77.3279C109.347 77.3279 109.749 76.9173 109.749 76.3978C109.749 75.786 109.347 75.3838 108.719 75.3838" fill="#164194"/>
<path d="M112.23 80.9396C111.769 80.9396 111.475 80.663 111.475 80.2105C111.475 79.624 111.827 79.1631 112.481 78.8782C112.54 78.853 112.615 78.8279 112.699 78.7944C112.992 78.6854 113.378 78.5346 113.721 78.367V79.1547C113.721 80.3865 112.975 80.9396 112.23 80.9396ZM115.833 80.0765V80.1603C115.833 80.839 115.632 80.9228 115.431 80.9228C115.313 80.9228 115.196 80.8474 115.196 80.286V77.5709C115.196 76.0793 114.417 75.3922 112.749 75.3922C111.844 75.3922 111.04 75.6771 110.587 76.1548C110.327 76.4313 110.193 76.7749 110.218 77.1352C110.244 77.5877 110.587 77.9061 111.048 77.9061C111.559 77.9061 111.936 77.5458 111.936 77.0681C111.936 76.8503 111.852 76.6408 111.693 76.4816C111.869 76.381 112.179 76.2553 112.632 76.2553C113.235 76.2553 113.713 76.6324 113.713 76.9508C113.713 77.5458 113.503 77.6296 111.878 78.1491C110.545 78.5849 109.841 79.2971 109.841 80.2189C109.841 81.4005 110.83 81.9451 111.752 81.9451C112.883 81.9451 113.528 81.4675 113.931 81.0569C114.149 81.61 114.635 81.9451 115.23 81.9451C115.648 81.9451 115.992 81.8194 116.227 81.5597C116.52 81.2496 116.662 80.7636 116.629 80.1519V80.0681H115.824L115.833 80.0765Z" fill="#164194"/>
<path d="M120.375 80.0681C120.257 80.7133 120.006 81.0401 119.637 81.0401C119.042 81.0401 118.916 80.3279 118.916 79.7245V76.4145H120.768V75.5179H118.916V73.733H117.777V74.3531C117.743 75.3168 117.425 75.5179 116.956 75.5179H116.646V76.4145H117.224C117.4 76.4145 117.442 76.4229 117.442 76.7162V79.7413C117.442 81.2077 118.112 81.9452 119.428 81.9452C120.492 81.9452 121.204 81.2161 121.246 80.0849V79.9927H120.391L120.375 80.0681Z" fill="#164194"/>
<path d="M124.254 80.4452V76.2637C124.254 75.7944 124.212 75.4006 123.651 75.4006C123.483 75.4006 123.333 75.4425 123.165 75.4928C122.897 75.5682 122.562 75.6604 121.95 75.6604H121.866V76.4983H122.386C122.771 76.4983 122.771 76.5821 122.78 77.11V80.4452C122.78 80.839 122.746 80.9899 121.967 80.9899H121.883V81.8278H125.159V80.9899H125.076C124.305 80.9899 124.263 80.8558 124.263 80.4452" fill="#164194"/>
<path d="M122.469 73.4565C122.469 74.0012 122.93 74.4537 123.5 74.4537C124.07 74.4537 124.531 74.0095 124.531 73.4565C124.531 72.9034 124.07 72.4425 123.5 72.4425C122.93 72.4425 122.469 72.895 122.469 73.4565Z" fill="#164194"/>
<path d="M129.014 81.0485C128.101 81.0485 127.531 80.1435 127.531 78.6938C127.531 77.1519 128.059 76.2972 129.014 76.2972C129.969 76.2972 130.497 77.1519 130.497 78.6938C130.497 80.1435 129.928 81.0485 129.014 81.0485ZM129.014 75.4006C127.095 75.4006 125.956 76.6492 125.956 78.7441C125.956 80.2943 126.76 81.9535 129.014 81.9535C130.422 81.9535 132.064 81.0988 132.064 78.6854C132.064 76.6324 130.925 75.409 129.014 75.409" fill="#164194"/>
<path d="M139.899 80.9899C139.246 80.9899 139.246 80.8809 139.246 80.4284V78.0905C139.246 76.314 138.559 75.409 137.21 75.409C136.497 75.409 135.726 75.7609 135.24 76.1213C135.224 75.7442 135.123 75.4341 134.629 75.4341C134.461 75.4341 134.327 75.476 134.159 75.5263C133.908 75.6017 133.59 75.6939 133.003 75.6939H132.919V76.5319H133.372C133.765 76.5319 133.765 76.6157 133.774 77.1436V80.4368C133.774 80.8474 133.715 80.9815 133.02 80.9815H132.936V81.8195H136.17V80.9815H136.087C135.299 80.9815 135.257 80.839 135.257 80.4368V77.043C135.634 76.6743 136.246 76.4732 136.64 76.4732C137.696 76.4732 137.779 77.2693 137.779 78.1575V80.42C137.779 80.8474 137.779 80.9815 137.059 80.9815H136.975V81.8195H140V80.9815H139.916L139.899 80.9899Z" fill="#164194"/>
<path d="M88.1965 6.83785C88.1965 10.6171 91.2467 13.6757 95.0092 13.6757C98.7717 13.6757 101.822 10.6171 101.822 6.83785C101.822 3.0586 98.7717 0 95.0092 0C91.2467 0 88.1965 3.0586 88.1965 6.83785Z" fill="#E63312"/>
<path d="M100.825 16.7929H89.1936V54.9708H100.825V16.7929Z" fill="#164194"/>
<path d="M125.453 15.6363C121.313 15.6363 117.358 17.857 114.97 21.0496V6.83765H103.339V54.9707H114.97V35.6974C114.97 30.6277 116.587 26.706 121.657 26.706C126.726 26.706 128.352 30.6193 128.352 35.6974V54.9707H139.983V31.7003C139.983 22.6753 134.52 15.6447 125.444 15.6447" fill="#164194"/>
<path d="M25.0134 16.7927V36.0661C25.0134 41.1358 23.3962 45.0575 18.3181 45.0575C13.2399 45.0575 11.6227 41.1442 11.6227 36.0661V16.7927H0V40.0632C0 49.0882 5.47195 56.1188 14.5388 56.1188C18.913 56.1188 23.48 53.454 25.4911 49.8423H25.7592C25.7257 50.5211 25.6838 51.4429 25.6838 52.0546V54.9623H36.6529V35.689C36.6529 30.6193 38.2702 26.6976 43.3483 26.6976C48.4264 26.6976 50.0353 30.6109 50.0353 35.689V54.9623H61.6663V35.689C61.6663 30.6193 63.2836 26.6976 68.3617 26.6976C73.4398 26.6976 75.0571 30.6109 75.0571 35.689V54.9623H86.6881V31.6919C86.6881 22.6669 81.2162 15.6363 72.1493 15.6363C66.3925 15.6363 61.8674 18.2508 59.3284 22.4742C56.9066 18.3095 52.7168 15.6363 47.1275 15.6363C42.7449 15.6363 38.1864 18.3011 36.1752 21.9128H35.9071C35.9406 21.234 35.9825 20.3122 35.9825 19.7005V16.7927H25.0134Z" fill="#164194"/>
</svg>
