<svg xmlns="http://www.w3.org/2000/svg" width="260" height="95" fill="none"><path fill="#2A3D85" d="M73.798 6.255v4.308H80V4.517C80 2.363 78.049.14 75.888 0h-6.48v5.977l4.32.278z"/><path fill="#FFCA05" d="M73.798 88.746v-4.309H80v6.046c0 2.154-1.951 4.378-4.112 4.517h-6.48v-5.976l4.32-.278z"/><path fill="#5C72B6" d="M6.202 88.746v-4.309H0v6.046C0 92.637 1.951 94.861 4.111 95h6.481v-5.976l-4.32-.278z"/><path fill="#008373" d="M6.202 6.255v4.308H0V4.517C0 2.363 1.951.14 4.112 0h6.48v5.977l-4.32.278z"/><path fill="#2A3D85" d="M101.393 29.049c0-1.112.837-1.877 2.439-2.155l2.509-.417v-.486c0-1.043-.766-1.599-1.812-1.599-1.045 0-1.533.418-2.021 1.043l-.905-.695c.627-.903 1.672-1.39 2.996-1.39 1.882 0 2.997 1.112 2.997 2.71v4.935h-1.255v-.904c-.557.695-1.533 1.112-2.509 1.112-1.463 0-2.439-.834-2.439-2.085zm2.649 1.042c.975 0 1.811-.486 2.299-1.25v-1.46l-2.16.347c-1.045.209-1.463.626-1.463 1.251 0 .626.487 1.112 1.393 1.112zm8.919.348c-.348-.278-.487-.626-.487-1.043 0-.556.278-1.042.906-1.46-.628-.486-1.046-1.25-1.046-2.015 0-1.39 1.115-2.64 2.857-2.64s1.046.139 1.394.278h2.718v1.111H117.7c.209.348.279.765.279 1.251 0 1.39-1.115 2.572-2.857 2.572s-.697 0-1.046-.14c-.278.21-.487.487-.487.765s.139.556.627.556h2.09c1.952 0 2.858.973 2.858 2.294 0 1.32-1.534 2.71-3.764 2.71s-3.623-.834-3.623-2.293.348-1.32 1.115-1.877zm2.509 3.127c1.533 0 2.509-.626 2.509-1.599 0-.972-.418-1.25-1.742-1.25h-2.37c-.487.347-.836.834-.836 1.39 0 .903.906 1.459 2.369 1.459zm1.394-7.714c0-.904-.627-1.668-1.673-1.668-1.045 0-1.672.764-1.672 1.668s.627 1.598 1.672 1.598c1.046 0 1.673-.764 1.673-1.598m9.686 5.351c-2.508 0-4.042-1.807-4.042-3.961s1.464-3.961 3.694-3.961 3.345 1.39 3.345 3.196 0 .556-.07.765h-5.645c0 1.737 1.185 2.85 2.788 2.85s1.742-.418 2.23-1.113l.906.695a3.93 3.93 0 0 1-3.136 1.53zm-2.648-4.865h4.39c0-1.111-.766-2.015-2.09-2.015s-2.091.695-2.3 2.015m11.638-2.779v.833c.627-.625 1.394-1.111 2.439-1.111 1.672 0 2.857 1.111 2.857 3.196v4.448h-1.254v-4.378c0-1.32-.767-2.085-1.882-2.085s-1.742.625-2.23 1.39v5.073h-1.254V23.56zm16.028 5.421.975.764c-.697.903-1.742 1.529-3.136 1.529-2.439 0-4.041-1.807-4.041-3.962 0-2.154 1.533-3.96 4.041-3.96s2.439.625 3.136 1.528l-.975.764c-.488-.625-1.185-1.111-2.091-1.111-1.603 0-2.718 1.25-2.718 2.78 0 1.528 1.115 2.78 2.718 2.78s1.673-.418 2.091-1.113M160 31.203c-2.509 0-4.042-1.807-4.042-3.961s1.463-3.961 3.693-3.961 3.345 1.39 3.345 3.196 0 .556-.069.765h-5.645c0 1.737 1.185 2.85 2.787 2.85 1.603 0 1.743-.418 2.23-1.113l.906.695a3.93 3.93 0 0 1-3.136 1.53zm-2.648-4.865h4.39c0-1.111-.767-2.015-2.091-2.015s-2.09.695-2.299 2.015m18.257-2.779v.833c.628-.625 1.394-1.111 2.44-1.111 1.672 0 2.857 1.111 2.857 3.196v4.448h-1.255v-4.378c0-1.32-.766-2.085-1.881-2.085s-1.742.625-2.23 1.39v5.073h-1.255V23.56zm10.035 5.49c0-1.112.837-1.877 2.439-2.155l2.509-.417v-.486c0-1.043-.766-1.599-1.812-1.599-1.045 0-1.533.418-2.021 1.043l-.906-.695c.628-.903 1.673-1.39 2.997-1.39 1.881 0 2.996 1.112 2.996 2.71v4.935h-1.254v-.904c-.557.695-1.533 1.112-2.509 1.112-1.463 0-2.439-.834-2.439-2.085zm2.648 1.042c.976 0 1.812-.486 2.3-1.25v-1.46l-2.16.347c-1.046.209-1.464.626-1.464 1.251 0 .626.488 1.112 1.394 1.112zm9.06-5.421h-1.394v-1.11h1.394v-1.807h1.254v1.807h2.578v1.111h-2.578v3.753c0 1.182.558 1.46 1.463 1.46.906 0 .837 0 1.115-.209v1.112q-.522.21-1.254.209c-1.672 0-2.578-.834-2.578-2.641V24.6zm8.153-3.891c0-.487.418-.834.906-.834s.836.417.836.834-.348.903-.836.903a.92.92 0 0 1-.906-.903m.209 2.78h1.254v7.366h-1.254zm13.937 3.683c0 2.154-1.603 3.961-3.972 3.961s-3.972-1.807-3.972-3.961 1.603-3.961 3.972-3.961 3.972 1.806 3.972 3.96m-1.324 0c0-1.53-1.115-2.78-2.648-2.78s-2.718 1.25-2.718 2.78 1.115 2.78 2.718 2.78 2.648-1.32 2.648-2.78m7.178-3.682v.833c.627-.625 1.394-1.111 2.439-1.111 1.672 0 2.857 1.111 2.857 3.196v4.448h-1.254v-4.378c0-1.32-.767-2.085-1.882-2.085s-1.742.625-2.23 1.39v5.073h-1.254V23.56zm10.104 5.49c0-1.112.837-1.877 2.44-2.155l2.508-.417v-.486c0-1.043-.766-1.599-1.812-1.599-1.045 0-1.533.418-2.021 1.043l-.905-.695c.627-.903 1.672-1.39 2.996-1.39 1.882 0 2.997 1.112 2.997 2.71v4.935h-1.255v-.904c-.557.695-1.533 1.112-2.508 1.112-1.464 0-2.44-.834-2.44-2.085zm2.579 1.042c.976 0 1.812-.486 2.3-1.25v-1.46l-2.161.347c-1.045.209-1.463.626-1.463 1.251 0 .626.488 1.112 1.394 1.112zm8.711-10.146h1.254v10.98h-1.254zm9.895 11.258c-2.509 0-4.042-1.807-4.042-3.961s1.464-3.961 3.694-3.961 3.345 1.39 3.345 3.196 0 .556-.07.765h-5.645c0 1.737 1.185 2.85 2.788 2.85s1.742-.418 2.23-1.113l.906.695a3.93 3.93 0 0 1-3.136 1.53zm-2.648-4.865h4.46c0-1.111-.767-2.015-2.091-2.015s-2.09.695-2.299 2.015zm-149.129 15.22c1.115 0 1.951.417 2.648 1.181v-4.447h1.255v10.98h-1.255v-.904c-.627.765-1.533 1.182-2.648 1.182-2.3 0-3.763-1.807-3.763-3.961s1.463-3.962 3.763-3.962zm.14 6.74c1.045 0 1.951-.486 2.508-1.389V43.99c-.557-.903-1.463-1.39-2.508-1.39-1.534 0-2.649 1.251-2.649 2.78s1.046 2.78 2.649 2.78zm12.334 1.182c-2.509 0-4.042-1.807-4.042-3.96 0-2.155 1.464-3.962 3.694-3.962s3.345 1.39 3.345 3.197c0 1.806 0 .556-.07.764h-5.645c0 1.738 1.185 2.85 2.788 2.85s1.742-.418 2.23-1.112l.906.694a3.93 3.93 0 0 1-3.136 1.53zm-2.648-4.864h4.46c0-1.112-.767-2.016-2.091-2.016s-2.09.695-2.299 2.016zm17.003-6.394h1.255v10.98h-1.255zm6.133 9.104c0-1.112.836-1.876 2.439-2.154l2.509-.417v-.487c0-1.042-.767-1.598-1.812-1.598-1.046 0-1.533.417-2.021 1.042l-.906-.695c.627-.903 1.672-1.39 2.996-1.39 1.882 0 2.997 1.112 2.997 2.71v4.935h-1.254v-.904c-.558.695-1.534 1.112-2.509 1.112-1.464 0-2.439-.834-2.439-2.085zm2.648 1.042c.976 0 1.812-.486 2.3-1.25v-1.46l-2.161.347c-1.045.209-1.463.626-1.463 1.252 0 .625.488 1.111 1.394 1.111zm20.697-1.111.975.764c-.696.903-1.742 1.529-3.136 1.529-2.439 0-4.041-1.807-4.041-3.961s1.533-3.962 4.041-3.962 2.44.626 3.136 1.53l-.975.764c-.488-.626-1.185-1.112-2.091-1.112-1.603 0-2.718 1.25-2.718 2.78s1.115 2.78 2.718 2.78 1.673-.418 2.091-1.112m12.474-1.737c0 2.153-1.603 3.96-3.972 3.96-2.37 0-3.973-1.807-3.973-3.96 0-2.155 1.603-3.962 3.973-3.962s3.972 1.807 3.972 3.961m-1.324 0c0-1.53-1.115-2.78-2.648-2.78s-2.718 1.25-2.718 2.78c0 1.528 1.115 2.779 2.718 2.779s2.648-1.32 2.648-2.78m7.177-7.296v4.448c.627-.626 1.394-1.112 2.439-1.112 1.673 0 2.857 1.112 2.857 3.197v4.447h-1.254v-4.378c0-1.32-.766-2.085-1.881-2.085s-1.743.626-2.23 1.39v5.073h-1.255v-10.98zm13.868 11.258c-2.509 0-4.042-1.807-4.042-3.96 0-2.155 1.463-3.962 3.693-3.962s3.345 1.39 3.345 3.197c0 1.806 0 .556-.069.764h-5.645c0 1.738 1.185 2.85 2.788 2.85s1.742-.418 2.23-1.112l.905.694a3.93 3.93 0 0 1-3.135 1.53zm-2.648-4.864h4.46c0-1.112-.767-2.016-2.091-2.016s-2.09.695-2.3 2.016zm1.812-3.962 1.533-2.432h1.393l-1.742 2.432zm8.641 6.811c.488.625 1.115 1.042 1.881 1.042.767 0 1.324-.486 1.324-1.112 0-1.667-3.693-1.042-3.693-3.683s.976-2.085 2.369-2.085 1.952.487 2.509 1.182l-.836.764c-.418-.556-.976-.903-1.603-.903s-1.185.486-1.185 1.042c0 1.668 3.694 1.112 3.694 3.614 0 1.39-1.115 2.224-2.509 2.224s-2.091-.487-2.787-1.32l.905-.765zm8.78-8.409c0-.486.418-.834.906-.834s.836.417.836.834-.348.904-.836.904a.92.92 0 0 1-.906-.904m.279 2.78h1.254v7.366h-1.254zm13.868 3.684c0 2.153-1.603 3.96-3.973 3.96s-3.972-1.807-3.972-3.96c0-2.155 1.603-3.962 3.972-3.962 2.37 0 3.973 1.807 3.973 3.961m-1.324 0c0-1.53-1.115-2.78-2.649-2.78-1.533 0-2.717 1.25-2.717 2.78 0 1.528 1.115 2.779 2.717 2.779s2.649-1.32 2.649-2.78m7.247-3.682v.834c.627-.626 1.394-1.112 2.439-1.112 1.672 0 2.857 1.112 2.857 3.197v4.447h-1.254v-4.378c0-1.32-.767-2.085-1.882-2.085s-1.742.626-2.23 1.39v5.073h-1.254v-7.366zM105.017 59.835c1.115 0 1.951.417 2.648 1.181V56.57h1.255v10.98h-1.255v-.903c-.627.764-1.533 1.181-2.648 1.181-2.3 0-3.763-1.807-3.763-3.961s1.463-3.961 3.763-3.961zm.14 6.741c1.045 0 1.951-.486 2.508-1.39v-2.919c-.557-.903-1.463-1.39-2.508-1.39-1.534 0-2.649 1.251-2.649 2.78 0 1.53 1.046 2.78 2.649 2.78zm12.334 1.182c-2.509 0-4.042-1.807-4.042-3.962 0-2.154 1.464-3.96 3.694-3.96s3.345 1.389 3.345 3.196 0 .556-.07.764h-5.645c0 1.738 1.185 2.85 2.788 2.85s1.742-.417 2.23-1.112l.906.695a3.93 3.93 0 0 1-3.136 1.529zm-2.648-4.935h4.46c0-1.111-.767-2.015-2.091-2.015s-2.09.695-2.299 2.015zm10.453 2.919c.488.626 1.115 1.043 1.881 1.043.767 0 1.324-.487 1.324-1.112 0-1.668-3.693-1.043-3.693-3.684s.976-2.084 2.369-2.084 1.952.486 2.509 1.181l-.836.764c-.418-.556-.976-.903-1.603-.903s-1.185.486-1.185 1.042c0 1.668 3.694 1.112 3.694 3.614 0 1.39-1.115 2.224-2.509 2.224s-2.09-.486-2.787-1.32l.906-.765zm16.028-4.517h-1.394v-1.112h1.394v-1.807h1.254v1.807h2.579v1.112h-2.579v3.753c0 1.181.558 1.46 1.464 1.46s.836 0 1.115-.21v1.113q-.523.208-1.255.208c-1.672 0-2.578-.834-2.578-2.64v-3.754zm11.637 6.533c-2.508 0-4.041-1.807-4.041-3.962 0-2.154 1.463-3.96 3.693-3.96s3.345 1.389 3.345 3.196 0 .556-.07.764h-5.644c0 1.738 1.184 2.85 2.787 2.85s1.742-.417 2.23-1.112l.906.695a3.93 3.93 0 0 1-3.136 1.529zm-2.648-4.935h4.391c0-1.111-.767-2.015-2.091-2.015s-2.091.695-2.3 2.015m10.384-2.71h1.254v.904c.557-.626 1.185-1.043 2.16-1.043s.488 0 .627.07v1.181c-.209 0-.418-.07-.766-.07-.976 0-1.603.487-2.021 1.251v5.074h-1.254zm8.501 0h1.255v.904c.557-.626 1.184-1.043 2.16-1.043s.488 0 .627.07v1.181c-.209 0-.418-.07-.766-.07-.976 0-1.603.487-2.021 1.251v5.074h-1.255zm8.154-2.78c0-.486.418-.834.906-.834.487 0 .836.417.836.834s-.349.904-.836.904a.92.92 0 0 1-.906-.904m.278 2.78h1.255v7.367h-1.255zm6.969 1.112h-1.394v-1.112h1.394v-1.807h1.254v1.807h2.579v1.112h-2.579v3.753c0 1.181.558 1.46 1.464 1.46s.836 0 1.115-.21v1.113q-.523.208-1.255.208c-1.672 0-2.578-.834-2.578-2.64v-3.754zm15.54 2.571c0 2.155-1.603 3.962-3.972 3.962s-3.972-1.807-3.972-3.962c0-2.154 1.603-3.96 3.972-3.96s3.972 1.806 3.972 3.96m-1.324 0c0-1.529-1.115-2.78-2.648-2.78s-2.718 1.251-2.718 2.78c0 1.53 1.115 2.78 2.718 2.78s2.648-1.32 2.648-2.78m5.714-6.463c0-.486.418-.834.906-.834s.836.417.836.834-.348.904-.836.904a.92.92 0 0 1-.906-.904m.279 2.78h1.254v7.367h-1.254zm6.551 0h1.254v.904c.557-.626 1.185-1.043 2.16-1.043s.488 0 .627.07v1.181c-.209 0-.418-.07-.766-.07-.976 0-1.603.487-2.021 1.251v5.074h-1.254zm11.359 7.645c-2.509 0-4.042-1.807-4.042-3.962 0-2.154 1.463-3.96 3.693-3.96s3.345 1.389 3.345 3.196 0 .556-.07.764H220c0 1.738 1.184 2.85 2.787 2.85s1.742-.417 2.23-1.112l.906.695a3.93 3.93 0 0 1-3.136 1.529zm-2.649-4.935h4.391c0-1.111-.767-2.015-2.091-2.015s-2.091.695-2.3 2.015m10.453 2.919c.488.626 1.115 1.043 1.882 1.043s1.324-.487 1.324-1.112c0-1.668-3.693-1.043-3.693-3.684s.975-2.084 2.369-2.084 1.951.486 2.509 1.181l-.837.764c-.418-.556-.975-.903-1.602-.903s-1.185.486-1.185 1.042c0 1.668 3.693 1.112 3.693 3.614 0 1.39-1.115 2.224-2.508 2.224s-2.091-.486-2.788-1.32l.906-.765zm-220-30.855c0-4.726 3.694-8.131 10.314-9.243l10.105-1.668v-1.599c0-3.822-2.858-6.185-6.9-6.185s-6.062 1.53-7.874 4.1l-4.808-3.683c2.787-3.753 7.247-6.046 12.892-6.046 8.432 0 13.1 4.934 13.1 11.814v20.64h-6.41v-3.544c-2.23 2.71-6.133 4.448-10.035 4.448-6.202 0-10.453-3.544-10.453-9.035zm11.638 3.891c3.903 0 6.969-1.876 8.85-4.864v-5.421l-8.432 1.46c-3.902.694-5.505 2.362-5.505 4.725s1.951 4.1 5.157 4.1zm18.746-27.033h6.41v3.057c2.37-2.501 5.506-4.308 9.966-4.308 6.899 0 12.195 4.656 12.195 13.69v18.764h-6.48V24.393c0-4.934-2.718-7.923-7.248-7.923s-6.83 2.641-8.432 5.42v21.058h-6.411V11.675zm-4.46 62.128 5.157 3.962c-2.927 3.96-7.666 6.463-13.59 6.463-10.731 0-17.49-7.923-17.49-17.305s6.759-17.304 17.49-17.304c10.732 0 10.663 2.571 13.59 6.463l-5.157 3.961c-1.812-2.502-4.739-4.239-8.432-4.239-6.202 0-10.662 4.795-10.662 11.12 0 6.323 4.46 11.118 10.731 11.118 6.272 0 6.55-1.806 8.363-4.239m15.331-16.331h-6.969v-5.768h6.969V43.99h6.48v7.784h11.22v5.768h-11.22v14.663c0 4.24 2.23 5.56 5.715 5.56s4.39-.278 5.505-.695v5.63c-1.463.625-4.042.903-6.48.903-7.318 0-11.22-3.823-11.22-11.467V57.472z"/></svg>
