<svg width="220" height="116" viewBox="0 0 220 116" fill="none" xmlns="http://www.w3.org/2000/svg">
<path fill-rule="evenodd" clip-rule="evenodd" d="M180.313 31.8071C186.97 31.8071 191.356 36.0593 191.893 42.1012C192.011 43.4365 192.08 44.8976 191.845 46.2158C191.769 46.6467 191.386 46.9483 190.948 46.9483H174.295C174.011 46.9483 173.79 47.1994 173.838 47.4796C174.594 51.8684 177.01 53.7038 180.872 53.7038C182.001 53.7038 183.155 53.3018 183.985 52.9285C184.444 52.7215 184.676 52.6178 184.829 52.5838C185.152 52.5113 185.362 52.5244 185.675 52.6352C185.822 52.687 185.994 52.7914 186.339 52.9992L187.765 53.8603C188.692 54.4192 189.157 54.698 189.348 54.9825C189.707 55.5201 189.695 56.2078 189.318 56.7325C189.118 57.0106 188.658 57.2677 187.737 57.78C187.046 58.1645 186.339 58.5141 185.602 58.7781C183.053 59.6899 180.333 59.7196 177.593 59.14C170.778 57.6985 167.154 52.0593 167.154 45.6268C167.154 38.0562 171.93 31.8073 180.313 31.8071ZM180.161 37.0912C177.05 37.0912 174.929 38.7144 174.1 41.707C174.02 41.9959 174.245 42.2745 174.545 42.2745H185.261C185.529 42.2743 185.744 42.0495 185.711 41.7841C185.406 39.3656 183.542 37.0912 180.161 37.0912Z" fill="#2845C1"/>
<path d="M92.5142 21.9434C97.3477 21.9434 101.137 23.9078 104.072 26.9619C104.297 27.1955 104.41 27.3124 104.477 27.4587C104.596 27.7203 104.585 28.0587 104.447 28.3114C104.37 28.4528 104.239 28.5717 103.978 28.8081L100.752 31.7234C100.452 31.9947 100.3 32.132 100.154 32.1944C99.8706 32.3157 99.5865 32.2999 99.317 32.1496C99.1783 32.0723 99.0309 31.9077 98.7365 31.5799C96.8958 29.5296 94.8583 28.2362 92.5634 28.2362C90.0272 28.2367 88.3528 29.8603 88.3526 31.991C88.3526 34.705 91.2144 35.9534 94.5276 37.3973C99.0819 39.3821 104.489 41.7382 104.49 48.7879C104.388 55.4863 99.2124 59.4953 92.6663 59.4955C87.2092 59.4955 83.3949 57.6836 80.3803 54.5198C80.1591 54.2876 80.0483 54.1705 79.9818 54.025C79.864 53.766 79.8752 53.4318 80.0097 53.1811C80.0855 53.0401 80.2138 52.9206 80.4702 52.6842L83.6702 49.7346C83.9721 49.4563 84.1232 49.3163 84.2656 49.2528C84.5486 49.1267 84.8153 49.1337 85.0904 49.2763C85.229 49.3482 85.3903 49.5151 85.7115 49.8482C87.6996 51.9106 90.1383 53.1016 92.6148 53.1018C95.4563 53.1018 97.1812 51.5797 97.1814 49.0428C97.1814 46.2639 94.2741 44.9844 90.9271 43.5123C86.3899 41.517 81.0467 39.1663 81.0465 32.2458C81.0465 26.6133 85.7143 21.9434 92.5142 21.9434Z" fill="#2845C1"/>
<path d="M113.64 32.9056C114.011 32.9056 114.197 32.9058 114.347 32.957C114.625 33.0524 114.845 33.2701 114.94 33.5483C114.991 33.6981 114.991 33.8853 114.991 34.2572V47.4194C114.992 51.1229 116.919 53.4057 120.47 53.4059C123.972 53.4059 125.9 51.1232 125.9 47.4194V34.2572C125.9 33.8853 125.9 33.6981 125.951 33.5483C126.047 33.2701 126.267 33.0524 126.545 32.957C126.695 32.9058 126.88 32.9056 127.252 32.9056H131.045C131.417 32.9056 131.604 32.9058 131.754 32.957C132.032 33.0526 132.25 33.2706 132.345 33.5483C132.397 33.6981 132.397 33.8853 132.397 34.2572V47.1131C132.397 54.7753 127.931 59.495 120.421 59.4955C112.911 59.4955 108.495 54.7755 108.495 47.1131V34.2572C108.495 33.8853 108.495 33.6981 108.546 33.5483C108.642 33.2706 108.86 33.0526 109.137 32.957C109.287 32.9058 109.474 32.9056 109.846 32.9056H113.64Z" fill="#2845C1"/>
<path fill-rule="evenodd" clip-rule="evenodd" d="M63.2343 31.8693C70.6427 31.8693 74.4491 36.2845 74.4493 41.9169V57.1095C74.4493 57.4808 74.4489 57.6667 74.3979 57.8163C74.3026 58.0947 74.0827 58.3144 73.8045 58.4097C73.6549 58.4607 73.4688 58.4612 73.0977 58.4612H69.3557C68.9837 58.4612 68.7965 58.4609 68.6469 58.4097C68.3688 58.3144 68.1508 58.0945 68.0557 57.8163C68.0045 57.6667 68.0043 57.4808 68.0043 57.1095V56.8439C68.0043 56.6167 68.0038 56.5027 67.9786 56.4541C67.9276 56.3581 67.8307 56.3162 67.7257 56.3449C67.673 56.3601 67.584 56.4432 67.4089 56.6084C65.7009 58.2193 63.002 59.2213 60.3427 59.2216C55.2176 59.2216 51.7153 56.2786 51.7149 51.56C51.7149 47.7035 54.7084 44.8098 60.1885 43.896L67.3531 42.6859C67.7286 42.6226 68.0043 42.2979 68.0043 41.9169C68.0041 39.2277 65.9738 37.5026 63.0308 37.5026C61.0464 37.5026 59.4182 38.2465 58.145 39.5008C57.8084 39.8325 57.6388 39.998 57.5109 40.0641C57.2464 40.201 57.026 40.2139 56.7464 40.1113C56.6112 40.0617 56.4568 39.9439 56.1488 39.7086L53.5742 37.7445C53.299 37.5344 53.1612 37.4285 53.0709 37.2884C52.9145 37.0447 52.8811 36.6776 52.9916 36.4102C53.0553 36.2555 53.1575 36.1439 53.36 35.9218C55.6742 33.3855 59.0952 31.8693 63.2343 31.8693ZM67.2182 47.2245L61.9147 48.1093C59.226 48.5658 58.109 49.6811 58.1085 51.2535C58.1085 52.9788 59.4799 54.0958 61.662 54.0958C64.237 54.0956 66.1902 53.0469 67.488 51.4249C67.5763 51.3146 67.6209 51.2592 67.7 51.125C67.8206 50.9206 67.9494 50.5546 67.9828 50.3197C68.0047 50.1662 68.0043 50.0449 68.0043 49.8034V47.8907C68.0043 47.6754 68.0032 47.5679 67.9722 47.486C67.914 47.3337 67.7828 47.2206 67.6229 47.1883C67.5372 47.1709 67.4306 47.1892 67.2182 47.2245Z" fill="#2845C1"/>
<path d="M156.412 26.5124C156.783 26.5124 156.971 26.5126 157.12 26.5638C157.398 26.6594 157.617 26.8773 157.712 27.155C157.763 27.3046 157.763 27.4905 157.763 27.8618V32.4392C157.763 32.5672 157.762 32.6316 157.78 32.6833C157.813 32.7795 157.89 32.854 157.986 32.8867C158.038 32.9045 158.102 32.906 158.23 32.906H164.227C164.599 32.906 164.785 32.9063 164.934 32.9574C165.212 33.0528 165.43 33.2707 165.525 33.5487C165.577 33.6985 165.577 33.8857 165.577 34.2577V37.3399C165.577 37.7114 165.577 37.8969 165.525 38.0467C165.43 38.3248 165.212 38.5448 164.934 38.6399C164.785 38.6911 164.599 38.6913 164.227 38.6913H158.23C158.102 38.6913 158.038 38.6909 157.986 38.7085C157.89 38.7414 157.813 38.8161 157.78 38.9119C157.762 38.9638 157.763 39.0297 157.763 39.1584V49.144C157.763 51.9855 159.285 53.102 161.822 53.1022C162.817 53.1022 163.621 53.0385 164.287 52.9201C164.746 52.8386 164.975 52.7984 165.095 52.8217C165.347 52.8702 165.493 52.9913 165.585 53.2308C165.629 53.3446 165.628 53.5436 165.628 53.9398V57.296C165.628 57.5355 165.628 57.6552 165.594 57.778C165.537 57.9852 165.37 58.2128 165.189 58.3284C165.082 58.3971 164.989 58.4268 164.804 58.4848C163.702 58.8289 162.395 58.9882 160.706 58.9882C154.312 58.9882 151.267 55.3856 151.267 49.144V39.1584C151.267 39.0297 151.267 38.9638 151.25 38.9119C151.216 38.8163 151.14 38.7414 151.044 38.7085C150.992 38.6911 150.928 38.6913 150.8 38.6913H147.848C147.477 38.6913 147.291 38.6909 147.141 38.6399C146.863 38.5448 146.643 38.3248 146.548 38.0467C146.497 37.8971 146.497 37.711 146.497 37.3399V34.2577C146.497 33.8857 146.497 33.6985 146.548 33.5487C146.643 33.2705 146.863 33.0528 147.141 32.9574C147.291 32.9063 147.477 32.906 147.848 32.906H150.8C150.928 32.906 150.992 32.9043 151.044 32.8867C151.14 32.854 151.217 32.7795 151.25 32.6833C151.267 32.6316 151.267 32.5672 151.267 32.4392V27.8618C151.267 27.4907 151.267 27.3046 151.318 27.155C151.413 26.8769 151.633 26.6591 151.911 26.5638C152.061 26.5126 152.247 26.5124 152.618 26.5124H156.412Z" fill="#2845C1"/>
<path d="M34.5585 23.096C35.0143 23.0589 35.4456 23.3093 35.6401 23.7235C35.744 23.9449 35.7451 24.2923 35.7451 24.985V51.4956C35.7451 51.6812 35.7451 51.7741 35.7708 51.8491C35.8185 51.9879 35.9274 52.0969 36.0663 52.1446C36.1412 52.1701 36.2341 52.1703 36.4198 52.1703H47.5299C47.9012 52.1703 48.087 52.1705 48.2367 52.2217C48.5146 52.3168 48.7323 52.5352 48.8279 52.8129C48.8791 52.9628 48.8793 53.1497 48.8793 53.5219V57.1631C48.8793 57.5346 48.8791 57.7203 48.8279 57.8699C48.7325 58.148 48.5148 58.368 48.2367 58.4633C48.087 58.5143 47.901 58.5147 47.5299 58.5147H30.2061C29.8339 58.5147 29.6469 58.5145 29.4971 58.4633C29.219 58.368 29.001 58.148 28.9059 57.8699C28.8547 57.7203 28.8545 57.5344 28.8545 57.1631V28.0501C28.8545 27.5323 28.8549 27.2719 28.9081 27.0349C29.0063 26.5972 29.2368 26.2002 29.5676 25.8975C29.7469 25.7336 29.971 25.6044 30.4203 25.3471L33.4125 23.6336C34.0138 23.2891 34.3144 23.1158 34.5585 23.096Z" fill="#2845C1"/>
<path d="M142.594 32.9056C142.966 32.9056 143.151 32.9061 143.301 32.957C143.579 33.0524 143.799 33.2701 143.895 33.5483C143.946 33.6981 143.946 33.8853 143.946 34.2572V57.1308C143.946 57.5019 143.946 57.688 143.895 57.8376C143.799 58.1157 143.579 58.3335 143.301 58.4288C143.151 58.4798 142.966 58.4802 142.594 58.4802H138.852C138.48 58.4802 138.293 58.48 138.143 58.4288C137.866 58.3335 137.647 58.1155 137.552 57.8376C137.501 57.688 137.501 57.5021 137.501 57.1308V34.2572C137.501 33.8853 137.501 33.6981 137.552 33.5483C137.647 33.2703 137.866 33.0524 138.143 32.957C138.293 32.9058 138.48 32.9056 138.852 32.9056H142.594Z" fill="#2845C1"/>
<path d="M140.748 20.0156C143.031 20.0156 144.91 21.9453 144.91 24.2289C144.909 26.5119 143.031 28.4398 140.748 28.4398C138.465 28.4398 136.538 26.5119 136.537 24.2289C136.537 21.9455 138.464 20.0158 140.748 20.0156Z" fill="#2845C1"/>
<path d="M50.6507 71.8484C55.0356 71.8484 57.9177 74.8006 57.9177 78.9012C57.9177 79.6409 57.8252 80.3354 57.7211 80.8515C57.691 81.0011 57.5578 81.1064 57.404 81.1064H46.9871C46.7879 81.1066 46.6319 81.2819 46.6661 81.4763C47.1438 84.1262 48.9102 85.2096 51.2767 85.2098C52.861 85.2098 54.2605 84.577 55.1329 83.6057C55.2566 83.468 55.4682 83.4401 55.6143 83.5541L57.9458 85.3809C58.0864 85.4915 58.1154 85.6969 58.0021 85.8346C56.5138 87.6428 54.1539 88.7481 51.3087 88.7481C45.7025 88.7481 42.5409 84.8651 42.5409 80.2983C42.5416 75.67 45.4837 71.8486 50.6507 71.8484ZM116.608 71.8484C121.744 71.8484 125.254 75.6078 125.255 80.2983C125.255 84.9894 121.744 88.7481 116.608 88.7481C111.472 88.7477 107.964 84.989 107.964 80.2983C107.965 75.608 111.472 71.8488 116.608 71.8484ZM183.796 71.8484C188.18 71.8491 191.059 74.801 191.059 78.9012C191.059 79.6407 190.971 80.3354 190.867 80.8515C190.837 81.0007 190.703 81.1055 190.55 81.1064H180.133C179.933 81.1064 179.777 81.2817 179.812 81.4763C180.289 84.1266 182.055 85.2098 184.422 85.2098C186.007 85.2096 187.406 84.5775 188.279 83.6057C188.403 83.4677 188.614 83.4394 188.76 83.5541L191.092 85.3809C191.232 85.4915 191.257 85.6969 191.144 85.8346C189.656 87.6419 187.298 88.7477 184.454 88.7481C178.848 88.7481 175.683 84.8651 175.683 80.2983C175.683 75.67 178.629 71.8484 183.796 71.8484ZM156.586 71.8484C161.159 71.8486 163.508 74.5534 163.508 78.0017V87.801C163.507 87.9818 163.358 88.1273 163.175 88.1273H159.861C159.678 88.1268 159.532 87.9816 159.531 87.801V87.5264C159.531 87.2177 159.113 87.0553 158.869 87.2476C157.814 88.0846 156.297 88.593 154.801 88.593C151.637 88.593 149.476 86.7928 149.476 83.9043C149.476 81.5433 151.325 79.771 154.708 79.2116L159.255 78.4514C159.414 78.4244 159.531 78.2853 159.531 78.1252V78.0017C159.531 76.3557 158.278 75.2998 156.462 75.2991C155.049 75.2991 153.928 75.9031 153.099 76.8953C152.981 77.037 152.769 77.0697 152.622 76.959L150.234 75.1519C150.091 75.0438 150.062 74.8419 150.174 74.7022C151.597 72.9276 153.834 71.8484 156.586 71.8484ZM35.254 68.5568C35.4363 68.5568 35.586 68.7024 35.5871 68.8833V72.143C35.5877 72.3241 35.7373 72.4693 35.9201 72.4693H40.0772C40.2604 72.4693 40.4102 72.618 40.4102 72.7997V75.6853C40.4091 75.8659 40.2597 76.0116 40.0772 76.0116H35.9201C35.7369 76.0116 35.5871 76.1603 35.5871 76.342V82.4118C35.5871 84.1508 36.5259 84.8352 38.0908 84.8356C38.8947 84.8356 39.4991 84.7699 39.9728 84.6487C40.2006 84.5904 40.4412 84.7499 40.4423 84.9831V87.7252C40.4423 87.8557 40.3643 87.9768 40.2417 88.0238C39.4991 88.3085 38.6095 88.4377 37.4047 88.4377C33.4583 88.4377 31.5783 86.233 31.5783 82.4118V76.342C31.5783 76.1603 31.4282 76.0116 31.2452 76.0116H28.966C28.7834 76.0116 28.634 75.8659 28.6329 75.6853V72.7997C28.6329 72.618 28.783 72.4693 28.966 72.4693H31.2452C31.428 72.4693 31.5776 72.3241 31.5783 72.143V68.8833C31.5794 68.7024 31.7288 68.5568 31.9114 68.5568H35.254ZM100.681 68.5568C100.863 68.5572 101.009 68.7027 101.01 68.8833V72.143C101.011 72.3241 101.161 72.4693 101.343 72.4693H105.504C105.687 72.4697 105.833 72.6183 105.833 72.7997V75.6853C105.832 75.8657 105.686 76.0112 105.504 76.0116H101.343C101.16 76.0118 101.01 76.1603 101.01 76.342V82.4118C101.01 84.1515 101.952 84.8356 103.518 84.8356C104.321 84.8356 104.923 84.7697 105.396 84.6487C105.624 84.5902 105.864 84.7497 105.866 84.9831V87.7252C105.866 87.8557 105.788 87.9768 105.665 88.0238C104.922 88.3081 104.033 88.4377 102.828 88.4377C98.8818 88.4375 97.0015 86.2327 97.0015 82.4118V76.342C97.0015 76.1608 96.855 76.0123 96.6724 76.0116H94.3892C94.2071 76.0112 94.0612 75.8657 94.0601 75.6853V72.7997C94.0601 72.6183 94.2064 72.4697 94.3892 72.4693H96.6724C96.8546 72.4686 97.0009 72.3236 97.0015 72.143V68.8833C97.0024 68.7024 97.152 68.5568 97.3346 68.5568H100.681ZM69.9479 72.1589C70.3765 72.1589 70.7643 72.2217 71.0954 72.31C71.2325 72.3467 71.3232 72.4717 71.3241 72.6125V75.8405C71.3235 76.054 71.1222 76.208 70.9109 76.1669C70.5242 76.0916 70.0966 76.0435 69.5707 76.0435C67.6796 76.0441 66.4434 77.0471 65.8308 78.0177C65.7992 78.0676 65.7827 78.1258 65.7827 78.1847V87.801C65.7818 87.9818 65.6322 88.1273 65.4496 88.1273H62.1349C61.953 88.1266 61.8069 87.9814 61.806 87.801V72.7997C61.806 72.6185 61.9524 72.4699 62.1349 72.4693H65.4496C65.6327 72.4693 65.7827 72.618 65.7827 72.7997V73.2137C65.7832 73.5083 66.1514 73.6601 66.3805 73.4722C67.322 72.6989 68.489 72.1589 69.9479 72.1589ZM82.6721 72.1589C83.1008 72.1589 83.4886 72.2217 83.8196 72.31C83.957 72.3467 84.0477 72.4717 84.0484 72.6125V75.8405C84.0479 76.054 83.8465 76.208 83.6351 76.1669C83.2484 76.0916 82.8211 76.0435 82.2949 76.0435C80.4037 76.0439 79.1676 77.0469 78.5551 78.0177C78.5234 78.0678 78.5069 78.1258 78.5069 78.1847V87.801C78.5061 87.9818 78.3564 88.1273 78.1739 88.1273H74.8594C74.677 88.1268 74.5312 87.9816 74.5303 87.801V72.7997C74.5303 72.6183 74.6766 72.4697 74.8594 72.4693H78.1739C78.3569 72.4693 78.5069 72.618 78.5069 72.7997V73.2137C78.5074 73.5085 78.8756 73.6603 79.1048 73.4722C80.0464 72.6989 81.2133 72.1589 82.6721 72.1589ZM90.8981 72.4693C91.0814 72.4693 91.2312 72.618 91.2312 72.7997V87.801C91.2303 87.9818 91.0807 88.1273 90.8981 88.1273H87.5836C87.4013 88.127 87.2554 87.9816 87.2545 87.801V72.7997C87.2545 72.6183 87.4008 72.4697 87.5836 72.4693H90.8981ZM137.024 72.1589C137.453 72.1589 137.841 72.2217 138.172 72.31C138.309 72.3467 138.4 72.4717 138.401 72.6125V75.8405C138.4 76.054 138.199 76.208 137.987 76.1669C137.601 76.0916 137.173 76.0435 136.647 76.0435C134.756 76.0441 133.52 77.0471 132.907 78.0177C132.876 78.0676 132.859 78.1258 132.859 78.1847V87.801C132.858 87.9818 132.709 88.1273 132.526 88.1273H129.211C129.029 88.1266 128.883 87.9814 128.882 87.801V72.7997C128.882 72.6185 129.029 72.4699 129.211 72.4693H132.526C132.709 72.4693 132.859 72.618 132.859 72.7997V73.2137C132.859 73.5083 133.228 73.6601 133.457 73.4722C134.398 72.6989 135.566 72.1589 137.024 72.1589ZM145.25 72.4693C145.433 72.4693 145.583 72.618 145.583 72.7997V87.801C145.582 87.9818 145.433 88.1273 145.25 88.1273H141.936C141.754 88.1268 141.607 87.9816 141.607 87.801V72.7997C141.607 72.6183 141.753 72.4697 141.936 72.4693H145.25ZM171.71 64.8273C171.893 64.8282 172.039 64.9765 172.039 65.1577V87.801C172.038 87.9814 171.892 88.1266 171.71 88.1273H168.395C168.213 88.1273 168.063 87.9818 168.062 87.801V65.1577C168.062 64.976 168.212 64.8273 168.395 64.8273H171.71ZM155.772 81.791C154.112 82.0704 153.424 82.7541 153.424 83.7173C153.424 84.7732 154.268 85.4565 155.615 85.4565C157.392 85.4565 158.691 84.6533 159.479 83.4546C159.513 83.4029 159.531 83.341 159.531 83.2795V81.5561C159.531 81.3535 159.344 81.2004 159.142 81.2336L155.772 81.791ZM116.672 75.5779C114.041 75.5779 112.098 77.5649 112.097 80.2983C112.097 83.0321 114.041 85.0228 116.672 85.0228C119.208 85.0224 121.118 83.0009 121.118 80.2983C121.117 77.5651 119.208 75.5781 116.672 75.5779ZM50.5584 75.0803C48.6571 75.0803 47.3554 76.0555 46.8347 77.8545C46.7767 78.0549 46.9337 78.2473 47.1436 78.2484H53.6563C53.8437 78.2484 53.9977 78.0944 53.9731 77.9101C53.7692 76.4473 52.6219 75.0807 50.5584 75.0803ZM183.7 75.0803C181.799 75.0805 180.501 76.0562 179.98 77.8545C179.922 78.0555 180.078 78.2484 180.289 78.2484H186.802C186.989 78.2482 187.139 78.0942 187.115 77.9101C186.911 76.4471 185.764 75.0803 183.7 75.0803ZM89.2569 64.5805C90.6663 64.5805 91.8251 65.7617 91.8251 67.1597C91.8242 68.557 90.6659 69.7348 89.2569 69.7348C87.8482 69.7348 86.6576 68.557 86.6567 67.1597C86.6567 65.7619 87.8477 64.5808 89.2569 64.5805ZM143.609 64.5805C145.018 64.5805 146.177 65.7617 146.177 67.1597C146.176 68.557 145.018 69.7348 143.609 69.7348C142.2 69.7346 141.01 68.557 141.009 67.1597C141.009 65.7619 142.2 64.581 143.609 64.5805Z" fill="#2845C1"/>
<path d="M220 100.116C220 101.922 220 102.825 219.815 103.652C219.473 105.181 218.673 106.568 217.519 107.629C216.896 108.203 216.114 108.654 214.55 109.558L207.721 113.503C206.156 114.407 205.373 114.859 204.564 115.113C203.068 115.582 201.465 115.582 199.97 115.113C199.16 114.859 198.378 114.407 196.813 113.503L192.17 110.821C190.201 109.684 189.217 109.115 188.76 108.457C187.906 107.227 187.907 105.596 188.762 104.366C189.22 103.709 190.205 103.141 192.174 102.006L196.828 99.3236C198.394 98.4206 199.178 97.9693 199.802 97.3954C200.957 96.3349 201.759 94.9464 202.102 93.4164C202.287 92.5885 202.287 91.6846 202.287 89.8767V84.5258C202.287 82.2538 202.287 81.1179 202.628 80.3931C203.265 79.0384 204.678 78.2228 206.17 78.3481C206.968 78.4151 207.952 78.983 209.919 80.1191L214.548 82.7914C216.112 83.6946 216.895 84.1463 217.519 84.72C218.673 85.7805 219.473 87.1684 219.815 88.6973C220 89.5245 220 90.4277 220 92.2343V100.116Z" fill="#FBC63A"/>
<path d="M15.4368 0.35154C16.9321 -0.11707 18.5359 -0.11729 20.0312 0.35154C20.8402 0.605278 21.6221 1.05864 23.1862 1.96224L27.8299 4.64393C29.798 5.78088 30.7829 6.35058 31.2399 7.00862C32.0937 8.23862 32.093 9.87063 31.2377 11.0997C30.7799 11.757 29.7943 12.3232 27.8257 13.4579L23.1712 16.1418C21.6056 17.0441 20.8228 17.4959 20.1982 18.0695C19.0436 19.1301 18.2401 20.5193 17.8978 22.0491C17.7128 22.8767 17.7136 23.7806 17.7136 25.5877V30.9403C17.7136 33.2112 17.714 34.3473 17.3731 35.0719C16.7356 36.4266 15.3222 37.2426 13.8304 37.1176C13.0322 37.0506 12.0473 36.482 10.0799 35.3461L5.45118 32.6732C3.88723 31.7702 3.10424 31.3191 2.48034 30.7452C1.32726 29.6849 0.525931 28.2966 0.184201 26.7677C-0.000665643 25.9407 3.40327e-08 25.0373 3.40327e-08 23.2315V15.3492C3.40327e-08 13.5435 -0.000562385 12.64 0.184201 11.8129C0.525799 10.2843 1.32759 8.8958 2.48034 7.83539C3.10393 7.26189 3.88602 6.81057 5.44903 5.90767L12.2796 1.96224C13.8444 1.05833 14.6276 0.605256 15.4368 0.35154Z" fill="#00867A"/>
</svg>
