<svg xmlns="http://www.w3.org/2000/svg" width="320" height="213" fill="none"><path fill="#FFF7DB" d="m266.354 33.845.173 71.035-156.266.288.523-71.35a2.326 2.326 0 0 1 2.314-2.31c17.623-.105 131.274-.774 150.44-.482a2.86 2.86 0 0 1 2.816 2.82"/><path fill="#313144" d="M169.843 129.781c-.14-.017-.077.059-.024.135zm97.726-13.629c.967 10.402-1.688 11.666-8.513 11.726-5.591.049-56.546.331-53.988.361 2.734.238 1.235 11.189 3.896 14.267.702 4.852 9.249.42 9.249 4.415 0 2.081-24.892.509-24.892.509s-24.438.758-35.421.301c1.125.047.003-2.151.817-2.379 3.559-1.006 6.177.692 7.862-.616 1.311-1.016 3.677-15.647 2.353-15.783-7.067-.724-58.237-.258-58.237-.258l.119-22.984s145.521.294 155.233.245c.708-.09 1.459 7.198 1.516 10.2z"/><path fill="#000" d="M191.434 115.355a3.36 3.36 0 0 0-1.562-1.499 3.86 3.86 0 0 0-2.34-.265 3.7 3.7 0 0 0-2.069 1.231 3.4 3.4 0 0 0-.622 1.132c-.123.37-.192.761-.176 1.155.02.367.09.735.215 1.082.11.304.275.592.467.854.384.526.887.953 1.493 1.201.295.119.606.219.92.262q.22.03.44.029.333.001.656-.062a3.5 3.5 0 0 0 .834-.259 3 3 0 0 0 .87-.44q.432-.322.735-.768c.225-.334.384-.718.477-1.112.096-.423.132-.867.069-1.297a3.9 3.9 0 0 0-.407-1.244m-.645 2.095a5 5 0 0 1-.09.307 3 3 0 0 1-.135.298q-.09.153-.192.301a4 4 0 0 1-.285.341 4 4 0 0 1-.275.259 3 3 0 0 1-.427.291l-.129.049q-.179.059-.364.096-.143.026-.291.037a4 4 0 0 1-.354 0 4 4 0 0 1-.407-.053 4 4 0 0 1-.308-.076 3 3 0 0 1-.249-.1 3 3 0 0 1-.274-.152 3 3 0 0 1-.292-.212 2.3 2.3 0 0 1-.423-.446 2.3 2.3 0 0 1-.248-.474 2.6 2.6 0 0 1-.149-.681c-.004-.093 0-.189 0-.282q.02-.243.066-.486.025-.11.063-.219.065-.163.145-.321c.06-.106.123-.205.192-.307q.093-.125.196-.239.102-.106.215-.202.114-.088.238-.168.134-.08.278-.149a5 5 0 0 1 .298-.119 3 3 0 0 1 .318-.083q.147-.026.294-.037c.093-.003.182-.006.275 0q.158.01.311.04.142.031.278.073.166.06.325.129.168.084.327.182.16.104.308.228.113.1.215.202a2.4 2.4 0 0 1 .348.49 2.2 2.2 0 0 1 .192.526c.023.116.04.229.05.348q.009.147 0 .294-.014.169-.047.331z"/><path fill="#000" d="M267.251 32.968c-.297-1.37-.807-2.125-2.141-2.654a4.2 4.2 0 0 0-1.327-.311c-.02-.023-150.496.288-151.847.298a1.71 1.71 0 0 0-1.701 1.69c-.113 8.275-.417 84.36-.46 96.006 0 .824.665 1.489 1.486 1.486 8.834-.05 56.688-.305 57.612-.305-.093.407-1.295 15.059-3.132 15.161s-4.753.275-7.077.368a1.26 1.26 0 0 0-1.208 1.201 49 49 0 0 0-.043 1.516 1.074 1.074 0 0 0 1.076 1.088c6.038-.003 35.355-.026 37.513-.046 2.493-.023 4.985-.056 7.478-.089 2.475-.033 14.296-.156 14.415-.172a.6.6 0 0 0 .318-.153h.006c.838.083.017-2.452-.45-2.839-.208-.252-4.21-.53-5.988-.728a1.93 1.93 0 0 1-1.638-1.37c-1.056-3.551-3.065-13.662-3.231-14.175 2.665-.013 55.394-.592 59.413-.685a1.707 1.707 0 0 0 1.671-1.721c-.073-11.821-.725-93.344-.741-93.572zm-155.739-.271c0-.46.374-.834.835-.834l150.442-.47a2.534 2.534 0 0 1 2.543 2.508c.122 12.712.665 69.328.672 70.784-1.993 0-153.945.036-154.495.073q-.114.01-.228.016c0-.602.205-64.055.231-72.077m96.866 109.713c.391.913.735 1.939 1.397 2.697.262.301.639.473 1.036.493 1.404.073 4.926.139 5.74.371q.045.016.079.046c.212.209.348.48.471.761a.19.19 0 0 1-.173.268c-3.065-.013-29.496.01-31.71.02s-22.277.189-25.941.248a.51.51 0 0 1-.517-.536c.007-.162.014-.337.017-.503a.373.373 0 0 1 .434-.357c1.396.215 6.226-.046 7.421-.189.685-.02 1.218-1.721 1.307-1.976.652-1.598 1.804-8.502 1.93-10.272.106-1.268.301-4.296.301-4.296.037-.036 32.998-.215 35.315-.228a.19.19 0 0 1 .189.162c.238 1.641 1.493 10.431 2.701 13.294zm57.635-17.246c0 .616-.479 1.119-1.092 1.148-3.777.189-135.971 1.672-151.876 1.615a1.585 1.585 0 0 1-1.582-1.565c-.063-4.663-.242-20.112-.242-20.112.003-.063.003-.126.017-.188a.08.08 0 0 1 .046-.057v-.006h.017q.019 0 .033.003.345.025.692.04c.837.039 153.656.195 153.984.195.007 1.026 0 14.893 0 18.927z"/><path fill="#000" d="M197.359 64.306c2.9 1.019 6.025 1.257 9.076 1.323 2.49.03 4.992-.119 7.428-.638a24.5 24.5 0 0 0 3.38-.947.823.823 0 0 0 .496-1.039c-.463-1.086-1.651-.175-2.439-.037a29 29 0 0 1-3.38.719c-4.531.579-9.215.427-13.66-.728-.417-.12-.907-.202-1.235.152-.358.38-.123 1.016.334 1.195m-8.762 11.054h-.033a.3.3 0 0 1-.049-.007.4.4 0 0 0 .066.006c.45.05.904.056 1.357.083.311.017.619.033.93.036.166 0 .331.004.5.004.364 0 .728-.007 1.096-.013.837-.017 1.708-.044 2.578-.07.444-.013.778-.457.742-.88a.83.83 0 0 0-.278-.546.87.87 0 0 0-.603-.199q-1.201.033-2.403.076c-1.324.05-2.645.152-3.956.348h-.019c-.315.01-.553.324-.527.625.027.318.295.526.603.526zm23.77-25.08c2.112.55 4.071 1.562 5.908 2.72.904.563 1.755-.731.894-1.343-2.367-1.48-4.988-2.926-7.822-3.124-.638-.03-1.128.685-.678 1.207.447.414 1.148.341 1.701.537zm-45.586 12.689c-.788-.14-1.98-1.05-2.44.036-.149.42.08.887.497 1.04 1.102.4 2.231.707 3.379.946 2.248.48 4.548.642 6.845.642q.294.001.586-.004c3.055-.066 6.18-.304 9.077-1.323.456-.18.695-.811.334-1.195-.331-.358-.818-.271-1.235-.152-4.445 1.155-9.129 1.307-13.66.728a28 28 0 0 1-3.38-.718zm-3.429-9.829a.87.87 0 0 0 .453-.14c1.837-1.158 3.793-2.17 5.908-2.72.553-.195 1.255-.126 1.702-.536.447-.526-.043-1.238-.679-1.208-2.833.199-5.455 1.642-7.821 3.124-.712.507-.252 1.483.44 1.483zm25.735 36.361a10 10 0 0 1-1.572-.113c-1.857-.28-3.052-1.082-3.37-2.257-.317-1.174.315-2.469 1.778-3.643 1.281-1.033 3.102-1.9 5.127-2.446s4.035-.712 5.664-.467c1.857.282 3.052 1.082 3.369 2.257.692 2.559-3.041 5.047-6.904 6.09-1.414.38-2.817.576-4.092.576zm6.048-7.407c-1.125 0-2.383.179-3.661.523-1.814.49-3.423 1.251-4.532 2.145-.887.715-1.357 1.463-1.228 1.952.133.49.914.9 2.043 1.073 1.41.215 3.184.063 4.995-.427 1.814-.49 3.422-1.251 4.531-2.145.887-.715 1.357-1.463 1.228-1.952-.132-.49-.913-.9-2.042-1.073a9 9 0 0 0-1.334-.092z"/><path fill="#FED980" d="M306.737 124.482c-2.505-7.681-7.229-14.254-9.569-21.985-.311-7.942 2.522-16.047.275-24.05-.467-1.049-1.602-10.49-2.453-7.866.202 9.829-5.386 3.382-6.882-1.443-4.885 2.846-6.987 4.007-7.984 4.007s.173 11.97.282 13.4 2.307 25.868 1.572 39.023c2.403 2.038 7.004 2.568 9.712.559.298-4.057-.381-8.482.142-12.682 2.983 3.929 4.75 10.389 8.524 13.963 2.244 1.605 6.491-.06 6.381-2.929zm-26.709-57.36c5.7-1.102 4.505-11.325 10.404-12.57 4.081-.549 5.097 3.969 6.173 6.534.801-.063-.178-5.64-1.82-6.53s-4.35-2.27-5.763-1.03c-3.774 3.31-4.26 4.71-5.442 3.542-2.244 2.29-3.518 6.903-3.552 10.054"/><path fill="#fff" d="M284.398 53.914c.506-.268.235.814.182.883-.298.408-.593.815-.864 1.208a22 22 0 0 0-1.06 1.731c-.367.586-1.059 2.933-2.118 1.94-.579-.616-1.056-1.77-.252-2.4 1.252-1.26 2.645-2.366 4.112-3.366z"/><path fill="#fff" d="M287.9 53.835c.053.182-.983 1.181-1.351 1.568-.702.62-1.466 2.714-2.678 1.605-.324-.218-.45-.595-.182-.91.258-.387.543-.754.834-1.118.47-.573.921-1.195 1.516-1.635.103-.05 1.755.152 1.861.493zm7.537 3.64c2.3 3.945-.321 12.808-1.407 18.16-1.797.856-4.661-3.694-5.399-5.108-.741-1.413-.821-1.214.695-3.038 1.07-1.287 1.92-2.756 3.069-3.98-.033-.047-.08-.094-.126-.14-1.076 1.231-4.512-1.502-5.495-2.336-.877-.768-.907-1.298-.48-2.343.649-1.185 1.169-2.933 2.407-3.502 2.221-1.873 5.495.434 6.736 2.287"/><path fill="#A7A6B5" d="M290.098 127.097c-2.496 1.734-5.968-.884-8.269-.864-1.182 2.009-7.117-.543-7.117 2.366 0 1.83 10.794 1.523 12.254 1.976 1.937.397 4.31.089 3.463-2.84-.083-.284.086-.718-.335-.638zm17.183-1.589c-2.274 1.268-4.489 4.25-7.825 1.043-1.192-.106-2.314 1.823-3.585 2.263-3.651-.056-2.354 3.479.622 3.257h-.007c3.003.357 5.631-.523 8.146-2.049 2.291-.129 5.879-1.089 2.652-4.511z"/><path fill="#fff" d="M290.316 52.898c.444-.324 1.109-1.092 1.576-1.384.169-.135 3.346 2.787 3.326 2.982-.023.212-5.22-1.4-4.902-1.595z"/><path fill="#FED980" d="M298.27 41.513c.295 1.46.358 2.995-.119 4.422-.301 1.37-1.079 2.545-2.016 3.557-.384.497-.801.997-1.403.43-.566-.585-.801-1.432-.867-2.227.019-.758-.03-1.578-.384-2.253-.351-.805-1.179-1.126-1.937-1.433-.655-.358-1.221-.821-1.797-1.288-.927-.764-1.857-1.529-2.691-2.402-.593-.66-1.318-1.242-1.758-2.02-.116-.214-.03-.516.219-.588.168-.057.331.036.446.148.212.216.431.414.646.623.662-.278 1.235-.679 1.897-.95 1.118-.5 2.356-.738 3.581-.629 2.691.229 5.372 1.96 6.183 4.614z"/><path fill="#FFF7DB" d="M292.954 45.134c1.927 2.823-1.774 8.552-5.17 8.366-3.247-.178-.92-4.067-4.882-7.33-1.281-1.056 1.512-3.766 2.704-4.875 2.251-3.478 3.704 3.59 7.348 3.842zm-12.059 15.141c.255.241.252.575.053.837-.324.741-.165 1.598-.413 2.363-.219.48-.692.774-1.063 1.128-.857.755-1.933 1.37-3.095 1.417-3.336.119-5.193-3.015-7.325-5.057a11 11 0 0 0-2.234-1.483c-.55-.364-2.35-.658-1.798-1.592-.602-.407-.893-.936-.172-1.406-.258-1.628 2.38.04 3.029-.51.222-.288-.07-.615-.255-.837a.34.34 0 0 1-.156-.324c.024-.262.338-.378.54-.229.268-.063.404.209.559.374 1.05 1.099 2.02 2.29 3.089 3.323 1.503 1.234 3.359 2.088 5.24 2.482a.16.16 0 0 0 .172-.07c.546-.618 1.082-1.313 1.671-1.846.265-.285.765-.453.983-.023.262.579.762.993 1.175 1.456z"/><path fill="#FFF7DB" d="M291.657 63.938c.145.457-.328.751-.55 1.086-.685.854-1.453 1.638-2.089 2.532-1.671 2.396-3.048 3.501-5.743 4.633-.92.43-1.919.645-2.919.797a30 30 0 0 1-5.72.444c-3.896-.033-7.785-.169-11.668-.493a24 24 0 0 0-2.903-.093c-.443-.175-.245-.728.199-.705.602-.397 1.049-.135 1.681-.48-.771-.264-1.248-.374-2.049-.43-.407-.046-.844.063-1.228-.066a.355.355 0 0 1-.092-.516c.109-.133.294-.153.453-.182.652-.116 1.301-.166 1.923-.298-.837-.239-1.704-.358-2.568-.464-.166-.016-.338-.04-.427-.202-.172-.317.162-.572.463-.565.914-.1 1.834.013 2.751-.027-.344-.175-1.268-.54-1.526-.83-.159-.219.467-.288.725-.361.778-.16 1.595.132 2.38-.017.043-.413-.232-1.036.231-.953.659.162 1.556 1.115 2.122 1.446.788.523 1.745.831 2.665.927 2.846.235 5.643-.344 8.411-.91 2.002-.348 4.064-.533 5.852-1.532 1.436-1.129 3.34-5.875 3.704-6.288 3.429 3.623 4.571 3.17 5.918 3.547z"/><path fill="#000" d="M294.192 48.55c.311.82 1.384 1.948-.281 1.823-.904-.014-1.271-.642-1.195-1.483.039-.404-.047-.8-.027-1.201-.043-.424-.106-.848.01-1.265a.96.96 0 0 0-.122-.88.7.7 0 0 0-.07-.122c-.467-.282-1.062-.689-1.622-.493-.45.191-.675.714-1.175.827-.344.106-.649-.265-.503-.59.113-.32.258-.631.248-.972 0-.464-.185-.884-.274-1.33-.007-.103.043-.2.145-.226.212-.03 2.542 1.314 4.184 2.46.387.767.341 2.677.675 3.461z"/><path fill="#000" d="M308.522 126.835a21 21 0 0 0-.762-1.426c-.092-.142-.175-.325-.317-.42.043-.464-.166-.901-.345-1.324-.417-.98-.87-1.946-1.314-2.913-2.509-5.477-5.571-10.765-7.586-16.451-.371-1.165-.821-2.356-.785-3.594.136-1.125.351-2.24.503-3.366.748-4.905 1.135-9.902.646-14.853-.457-3.561-1.367-7.046-2.089-10.56-.202-.974-.397-1.947-.53-2.933-.046-.344-.076-.692-.119-1.036.205-1.102.434-2.2.672-3.293.245-1.118.411-2.336.457-3.574a.6.6 0 0 0 .007-.248c.082-3.634-.917-7.387-4.198-9.21-.02-.014-.049-.024-.079-.037l.003-.016c.076-.818.202-1.619.431-2.397.052-.3.268-.608.185-.916-.179-.358-.603-.199-.682.145a11 11 0 0 0-.546 2.172c-.136.115-.252.3-.377.403-.6.61-1.248 1.192-2.02 1.575-.811.381-1.728.666-2.625.494-.165-.017-.327-.12-.493-.133a26 26 0 0 0-.341-1.317c-.278-.963-.516-1.94-.847-2.883.639.298 1.317.474 2.036.384.413-.086 1.486-.807.768-1.164-.414-.08-.619.476-1.027.473-.956.006-1.823-.487-2.595-1.01-.496-.387-1.122-.685-1.463-1.234-.221-.553-.056-1.086.235-1.575l.027.03c.523.635 1.781 1.376 2.611 1.168.242-.136.219-.513-.043-.613-.102-.036-.211-.04-.317-.062-.729-.15-1.407-.533-1.841-1.142.126-.16.252-.315.368-.46.238.225.682.36.923.364.646-.014.622-.811-.046-.725-.113-.02-.225-.09-.338-.159-.086-.192-.202-.39-.139-.572.07-.13.192-.212.308-.295.331-.215.665-.43.96-.695.228-.218.642-.645.877-.973l.086.086c1.175 1.152 2.34 2.33 3.635 3.35.529.373 1.175.539 1.747.827.765.403 1.149.741 1.159 1.648.023.31-.013.619-.06.923-.096.655.206 1.278.527 1.83.341.533.681 1.235 1.413 1.304.675.063 1.682-1.151 1.89-1.367a7.6 7.6 0 0 0 1.231-1.687 7.57 7.57 0 0 0 .871-4.048 7.55 7.55 0 0 0-1.314-3.78 7.6 7.6 0 0 0-3.161-2.62 7.54 7.54 0 0 0-7.504.798c-.103.072-.199.151-.295.227-.748-.589-1.513-1.012-1.992-.721-.749.52.158 1.569.582 2.019.225.248.457.486.692.724-.348.384-.96 1.053-1.361 1.305-.37.248-.814.476-.979.916a1 1 0 0 0-.027.596c-.159.146-.304.354-.42.477-1.112 1.267-1.824 3.044-.093 4.143.374.275.768.563 1.179.827 0 .047.003.093.023.14.271.807.519 1.621.735 2.445.145.543.38 1.403.529 1.946.013.046.023.1.037.152a10.7 10.7 0 0 0-3.982 2.502c-1.265 1.198-2.572 2.35-3.883 3.495-.503.437-.977.92-1.344 1.47-.179-.087-.411-.14-.556-.192a17 17 0 0 1-1.93-.808c-.818-.42-1.612-.9-2.314-1.5-.953-.83-1.426-2.08-2.452-2.845-.636-.44-1.308-1.026-2.106-1.076-.913.202-.198 1.215.146 1.645-.596-.142-1.178-.4-1.804-.358-.609.047-1.705.12-1.721.92a.75.75 0 0 0 .258.417c-.291.133-.523.371-.47.715.036.285.341.553.722.755-.163.225-.159.622.397.99.907.536 1.986.708 2.87 1.303.211.123.423.252.625.388.977.516 2.188 2.402 3.052 3.29 1.38 1.422 3.29 2.697 5.362 2.382 1.195-.169 2.225-.874 3.178-1.579-.103.623-.338 2.135-.338 2.135s-2.26.639-3.396.87c-3.214.6-6.527 1.07-9.778.517-.053-.013-.102-.023-.155-.037-.45-.228-.828-.585-1.255-.86-.622-.417-1.238-1.086-2.035-1.072-.54.036-.795.602-.778 1.085-.689-.046-2.642-.384-3.003.305-.182.443.308.734.646.89-.682-.01-1.404-.116-2.042.175-.285.116-.553.427-.414.745.281.486.963.526 1.456.668-.503.076-1.364.656-.735 1.145.662.292 1.424.279 2.135.358-.314.06-.681.162-.84.467a.52.52 0 0 0 .231.701c1.444.48 3.016.57 4.529.669.079-.007.172 0 .268 0 .652.076 1.383.076 1.89.076.221 0 .4 0 .513.006 1.645.03 3.26.212 4.899.212.185 0 .374 0 .559-.006 2.383-.027 4.869-.1 7.272-.5.03 1.827.093 3.65.143 5.477.36 12.225 2.393 24.358 2.075 36.613.007 2.174-.066 4.345-.165 6.513 0 1.271-.242 2.631.238 3.839-.113.08-.225.152-.341.225-.387-.993-1.049-2.012-1.94-2.611-1.145-.612-1.827.625-.95 1.479.606.649 1.407 1.069 2.158 1.533a8 8 0 0 1-.37.162c-1.215.364-2.513.096-3.761.212-1.79.109-2.995.675-2.257 2.674.314.499 1.572.417 2.142.552 1.317.163 2.634.348 3.955.497 2.744.208 5.501.715 8.255.562 1.05-.115 2.357-.46 2.361-1.74.019-.345.125-1.526-.04-2.191.4-.159.778-.364 1.112-.649.437-.496.262-1.205.245-1.807-.182-2.969-.536-5.944-.391-8.919q.045-.621.129-1.238c1.334 2.582 2.751 5.12 4.184 7.648.772 1.351 1.424 2.784 2.354 4.035-.096.096-.189.195-.281.258q-.045.036-.09.076c-1.178-3.081-3.181-1.618-1.655-.093.262.222.679.666 1.049.609-.489.427-.989.844-1.559 1.155-.403.219-.867.182-1.307.232-.53.076-1.122.205-1.447.665-.354.483-.235 1.115-.119 1.658.083.401.219.847.599 1.056.964.404 2.019.543 3.049.682.559.073 1.122.122 1.685.122 1.135-.006 2.247-.314 3.287-.754.718-.285 1.344-.758 2.045-1.073.937-.168 1.894-.301 2.787-.642.96-.397 2.175-1.095 2.281-2.234-.026-.403-.265-.758-.424-1.118zm-23.131-88.979c.298-.248 3.684 3.088 4.743 4.051q.173.16.351.321c.129.116.288.281.477.255.331-.073.288-.424.079-.616-.678-.731-1.427-1.4-2.138-2.101-.301-.265-.831-.811-1.427-1.34a8 8 0 0 1 .576-.404c.252-.153.507-.292.775-.414a7 7 0 0 1 .834-.314q.435-.13.88-.206.448-.07.901-.086c.317-.006.635.007.903.033a6.87 6.87 0 0 1 4.591 2.476q.269.331.497.692.234.38.424.784.183.412.317.837.13.433.209.88.074.467.093.937.008.465-.037.93a8 8 0 0 1-.159.894q-.11.431-.268.847-.169.427-.387.827-.218.388-.48.752a8 8 0 0 1-.569.681c-.272.282-.874.91-.914.947-.334.39-.695.136-.914-.209a9 9 0 0 1-.542-.913c-.113-.242-.226-.493-.242-.761-.01-.202.04-.4.059-.603.05-.54.02-1.102-.132-1.618a2.2 2.2 0 0 0-.556-.764c-.629-.573-1.46-.808-2.211-1.162-.348-.175-.632-.45-.924-.702-1.065-.897-2.002-1.856-2.992-2.823-.467-.46-2.065-1.883-1.814-2.095zm-6.511 86.136c.477-.086 1.261 1.043 1.516 1.417-.387-.252-1.569-.914-1.516-1.417m17.901 1.516c.208.152.341.391.476.606-.192-.172-.38-.364-.476-.606m-5.045-73.557.047-.046c.115.053.284.122.519.218.917.513 1.698 1.258 2.304 2.119-.923-.686-1.96-1.126-2.631-1.285a4.7 4.7 0 0 0-1.324-.129 7.7 7.7 0 0 0 1.085-.877m-1.741 1.668c.977-.235 1.973 0 2.903.318.546.189 1.983 1.373 2.423 1.754q.065.05.119.11c.358.886.57 1.823.682 2.776l-.109-.252c-.49-1.138-1.228-2.14-2.102-3.015-1.347-1.373-3.687-1.754-5.131-.873-.741.463-1.317 1.142-1.794 1.87-.374.599-.662 1.25-.92 1.906-.281.817-.334.92-.682 1.714-.986 2.115-2.009 4.273-3.399 6.156-.454.41-1.103.493-1.698.652.592-4.064 1.052-6.182 3.105-9.449.185.156.383.301.602.41.354.183.761.298 1.155.2.407-.093.589-.5.791-.825q.264-.422.546-.84c.815-1.248 2.01-2.324 3.509-2.612m-3.886-.06.156-.059c.231.278.91.344 1.519.318a5 5 0 0 0-.48.38c-.914.798-1.523 1.78-2.152 2.794-.188.44-.744.119-1.029-.057-.109-.066-.218-.175-.334-.261l.175-.265c.083-.145.192-.278.252-.433.407-.603.774-1.238 1.281-1.764.172-.232.47-.4.619-.652zm-6.157 4.555c1.51-1.298 2.867-2.843 4.585-3.84-.315.408-.596.841-.854 1.291-.063.146-.176.305-.262.467a19.7 19.7 0 0 0-2.224 3.822c-.427-.149-.662-.582-.904-.94a6 6 0 0 1-.394-.75l.057-.05zm-4.187 7.608c-2.817-.34-5.428-4.183-6.266-4.911-.837-.732-2.651-1.678-3.015-1.83-.49-.206-1.07-.282-1.463-.666.321.093.625.126.817.077.272-.143.219-.596-.086-.662-.453-.106-.94-.196-1.321-.487.712-.185 1.444.11 2.135.268.335.093 1.03.397 1.023-.195-.026-.328-1.023-.612-1.88-.758a.4.4 0 0 0-.182-.116 4 4 0 0 1-.781-.324c.748-.271 1.529-.113 2.257.139 1.265.427 1.533-.543.745-1.4 2.036.943 2.297 2.578 3.886 3.822a13.6 13.6 0 0 0 3.098 1.771c.374.106 1.026.47 1.536.54a4 4 0 0 0-.248.698c-.126.447.573.648.698.192.368-1.427 1.586-2.333 2.672-3.263.102.278.294.559.397.764.294.463.602.913 1.145 1.112-.096.248-.189.496-.271.748a23 23 0 0 0-.603 2.519c-1.238.986-2.621 2.095-4.286 1.959zm-3.714 7.427c-1.642.033-11.022-.49-12.029-.699.47-.129.957-.152 1.447-.152.205 0 .417.003.622-.036.354-.057.45-.503.186-.725-.199-.202-.494-.278-.768-.325-.937-.129-1.837-.079-2.784-.258.768-.208 1.519-.155 2.323-.218.262.016.583-.142.51-.447-.152-.404-.711-.364-1.066-.46-.787-.119-1.582-.169-2.343-.427.963-.175 1.963.01 2.933.033.235.004.499.076.708-.062.357-.325.007-.66-.354-.742-.46-.169-.944-.33-1.394-.57.682-.059 1.364.02 2.043.1.178.02.367.06.536-.026.4-.215.056-.732.291-1.043.374-.04.698.298 1.006.48.629.417 1.202.96 1.871 1.314 5.862 1.228 12.72-.768 16.113-1.876 1.026-.41 2.797-3.83 3.899-6.285.318.486.828.993 1.03 1.194.867.818 1.939 1.357 3.065 1.725.529.205 1.072.38 1.635.466-1.87 2.678-4.303 5.537-6.855 6.914-3.933 1.89-8.361 2.121-12.631 2.135zm10.778 55.358a.5.5 0 0 1-.162.023c-.669-.11-.868-.97-1.109-1.503.483.42 1.049.857 1.271 1.48m7.51.469c-.036.414-.026.934-.499 1.083-1.927.804-5.237.059-7.379-.05a131 131 0 0 1-7.537-.923c-.245-1.013-.043-1.258.957-1.46 1.483-.278 3.025.086 4.492-.271q.275-.088.539-.205a.3.3 0 0 0 0 .099c.113.486.348.94.626 1.35.321.467.94.781 1.499.599 1.255-.546-.033-1.919-.979-2.687q.085-.056.165-.113c.642.536 1.668.609 2.433.901 1.019.271 2.059.602 3.125.503.817-.12 1.704-.192 2.535-.411.01.07.02.136.013.205.03.46.037.924.007 1.384zm5.078-9.789c-4.81-8.366-8.543-17.368-11.469-26.546-.696-2.343-1.242-4.732-1.798-7.112-.043-.191-.261-.304-.443-.251a.363.363 0 0 0-.252.443c.53 2.294 1.059 4.587 1.718 6.848 1.006 3.465 2.334 6.827 3.631 10.193.867 2.214 1.755 4.421 2.748 6.583.645 1.426 1.33 2.836 2.039 4.229-.312.629-.305 2.214-.365 2.562-.129 3.213.345 6.42.447 9.62-.109.98-3.786 1.364-4.63 1.324-1.315-.175-2.586-.592-3.843-.993-.732-.129-.927-.867-.95-1.515-.057-1.046.009-2.095.049-3.145.245-5.533.169-11.08-.056-16.613-.407-8.532-1.682-17.02-1.864-25.556-.059-2.006-.129-4.014-.159-6.02 2.202-.434 4.317-1.168 6.2-2.433 2.089-1.658 3.853-3.723 5.429-5.864.857-1.287 2.419-3.753 2.519-3.995.099-.241-.56-.52-.732-.181q-.314.586-.658 1.158c-.302.486-.633 1-.987 1.526a5 5 0 0 1-.817-.123c-1.444-.43-2.913-.963-4.012-2.055a5 5 0 0 1-.715-.844c-.126-.199-.225-.348-.301-.463.248-.58.436-1.066.546-1.38a.4.4 0 0 0 .053-.087c.592-1.519 1.681-3.673 3.508-3.782 2.721-.16 4.287 2.293 4.654 2.958.507.98 1.04 2.069 1.331 3.174a26 26 0 0 1-.027.937c-.129 1.605-.513 3.157-.834 4.72-.599 2.789-.966 5.622-1.218 8.462-.351 1.327-2.277-.695-2.694-1.175-.854-.983-1.639-2.032-2.235-3.19a11 11 0 0 1-.426-.977c-.196-.434-.838-.165-.669.281.52 1.374 1.337 2.595 2.251 3.73.814.956 2.28 2.807 3.681 2.44.744-.21.86-1.047.883-1.705.043-.546.1-1.089.163-1.632a57 57 0 0 1 .327-2.492c.113.672.248 1.34.384 2.006.682 3.366 1.536 6.698 1.999 10.104.444 4.127.229 8.313-.274 12.427a154 154 0 0 1-.523 3.637c-.11.83-.311 1.655-.341 2.492.046 1.509.599 2.949 1.095 4.355.881 2.347 1.92 4.63 3.006 6.891 1.94 3.961 3.979 7.88 5.713 11.94.119.301.291.613.209.943-.162.603-.689 1.03-1.179 1.377-1.125.788-2.548.98-3.896.924-.46-.017-.88-.219-1.294-.411a1.7 1.7 0 0 1-.367-.248c-.828-.778-1.394-1.781-1.94-2.763a321 321 0 0 0-2.615-4.733m12.625 9.187c-.891 1.139-2.437 1.43-3.787 1.658-.665.027-1.212.407-1.768.735-2.472 1.38-4.213 1.344-6.914.844-.437-.09-.874-.192-1.295-.338a.32.32 0 0 1-.225-.178c-.139-.331-.192-.695-.231-1.053-.037-.265.062-.556.327-.662.527-.248 1.122-.169 1.678-.281.285-.063.543-.179.795-.321.477-.288.91-.639 1.334-1 .337.957.841 2.201 1.814 1.778.897-.801-.05-1.91-.917-2.549l.043-.036c.083-.07.129-.123.172-.169.305.348.652.662 1.079.844a4 4 0 0 0 2.089.434c1.522-.043 2.956-.391 4.141-1.397.311-.268.609-.579.814-.94.324.675.672 1.344.96 2.035.126.206 0 .417-.116.599zm-9.338-.612c.275.304.791.721.695 1.168-.371-.278-.516-.758-.695-1.168"/><path fill="#000" d="M290.266 47.89a.87.87 0 0 1-.652-.605c-.132-.453-.821-.265-.698.192.245.966 1.43 1.446 2.29.966.921-.426 1.407-1.545 1.03-2.498-.136-.354-.47-.692-.871-.679h-.033a.43.43 0 0 0-.311.096c-.344.282-.248.801-.453 1.169-.345.148-.225.711.152.694.556-.062.632-.73.741-1.19.12.122.156.343.169.502.096.728-.629 1.466-1.36 1.35zm-3.879-5.414c.268.301.526.59.781.894.186.175.321.496.606.51.407-.024.407-.484.155-.712-.324-.4-.648-.798-1.002-1.168-.315-.312-.811.125-.543.476zm1.675 35.276a23 23 0 0 0-.728-.758.4.4 0 0 0-.159-.092.3.3 0 0 0-.096-.047.37.37 0 0 0-.447.255c-.073.232-.05.493-.003.728.053.285.142.556.245.828.218.576.509 1.128.817 1.661a20.8 20.8 0 0 0 2.648 3.588c.315.337.642.661.99.963.308.264.635.516.996.698q.089.045.182.08.066.025.136.026c.139 0 .271-.08.328-.215v-.007l.006-.026.014-.047v-.073c0-.387-.417-1.072-.52-1.343-1.152-2.274-2.708-4.336-4.412-6.225zm3.704 6.553a14 14 0 0 1-1.165-1.178 21 21 0 0 1-1.583-2.049c-.4-.596-.777-1.211-1.102-1.85a8 8 0 0 1-.43-.99l-.017-.056a30 30 0 0 1 2.38 2.92c.752 1.062 1.483 2.164 2.066 3.325-.05-.043-.103-.082-.152-.125z"/><path fill="#FED980" d="M130.264 88.862c-2.665 7.857-9.235 14.79-4.826 23.332-.139 2.343-1.625 6.503.338 7.979.625.47-1.295 13.771.413 20.049 1.066 3.833 2.715 8.304 1.705 12.358-1.251.4-2.502-.275-4.061.294-7.408 2.694-3.767-9.051-5.558-13.519-3.102-4.491-.821-22.7-4.912-10.431-3.598 10.189-2.145 29.643-8.63 27.587 2.327 5.223-2.969 5.819-6.633 4.117-1.744-2.23.914-6.771 1.04-10.017 2.191-9.644 2.032-20.393 3.233-30.577.623-5.265 1.844-3.71 3.423-15.131 1.509-4.739 11.86-14.74 6.779-23.96 1.433-.791 2.492-.358 2.492-.358s.97 7.784 1.248 9.555c1.636 1.89 6.736 1.558 9.136 2.313 1.539-1.632 2.483-9.071 4.81-3.584z"/><path fill="#FFF7DB" d="M113.555 84.017c1.046 3.11.48 6.933-3.658 12.765-1.148-.57-1.983-.752-3.082-1.629-.4-.54.384-.85.739-1.102 4.465-2.009-4.059-2.485-4.068-5.705 1.645-3.492 9.529-11.749 10.069-4.332zm-7.59 20.277-.166-3.872 1.94.252-1.778 3.62zM127.46 87.78c-.192 1.406-.873 4.55-2.479 4.852-2.463-.745-8.166-.434-8.398-2.539-.493-4.47-1.512-9.514-1.512-9.514s2.628-.341 4.243-.298c.95.026.825.393 1.149 1.039 1.013 2.055 2.165 2.565 4.164 3.366.778 1.191 1.638 2.276 2.83 3.09zm3.737 10.799c-.493.582-5.415.516-5.415.516s2.973-5.17 4.326-9.995c.427-1.522 1.583 8.893 1.089 9.475z"/><path fill="#FED980" d="M137.367 75.568c.08 1.767-.215 3.63-1.079 5.192-.341.682-.96 1.248-1.142 1.996.043.199.715.93.56 1.192-.424.572-1.344-.576-1.718-.867-1.447-1.182-2.986-2.29-4.217-3.704-.921-1.079-1.503-2.465-2.572-3.412-1.043-1.165-5.77-1.483-.675-5.133 2.171-1.357 4.978-1.559 7.255-.344 1.943.95 3.509 2.87 3.588 5.087z"/><path fill="#A7A6B5" d="M103.426 161.817c.443.294-.04.754-.222 1.039-1.122 1.549-1.125 4.1-3.644 3.819-1.003-.099-2.221-.053-2.976-.818-.665-1.098.305-2.28.977-3.117.377-.473.74-.957 1.122-1.426.129-.212.43-.381.619-.143.877.235 1.787.493 2.687.586.474.063.99-.116 1.444.06zm30.41-4.399c.635.537.532 1.265-.275 1.533-.762.135-1.516.102-2.281.208-2.476.295-4.932.828-7.438.732-2.108.043-3.75-.394-3.488-2.883.043-.582.149-1.162.291-1.724.043-.252.374-.377.546-.166 1.377.129 2.744.113 4.091-.165.758-.103 1.526-.51 2.294-.381.272.123.394.431.636.599.874.695 2.039.924 3.052 1.341.84.341 1.83.357 2.572.903z"/><path fill="#fff" d="M127.288 153.642c.238.629-.347.814-.847.887-1.51.344-3.062.444-4.608.44-.404-.029-1.052.05-1.172-.456a3.8 3.8 0 0 1-.072-.795c0-.162.026-.324.172-.423a.264.264 0 0 1 .357.082c.109-.052.232-.029.351-.016.457.046.95.043 1.367.013 1.188-.069 2.347-.367 3.532-.457.573-.079.745.245.917.725z"/><path fill="#FED980" d="M146.295 157.988c.245 4.107-11.321 16.474-9.189 5.848 3.896 2.035 8.053-12.62 9.189-5.848"/><path fill="#FFF7DB" d="M144.683 155.426c.797.496-2.033 5.034-4.393 7.115-1.933 1.705-3.492 1.205-2.949.199 1.202-2.237 2.714-3.554 3.608-3.693-3.188-8.761-7.193-18.057-9.934-26.768-1.016-1.764-6.06-16.282-3.038-10.246 3.707 10.313 13.588 35.826 13.588 35.826s1.665-3.333 3.114-2.433z"/><path fill="#FFF7DB" d="M126.725 118.79a.3.3 0 0 1-.076.242q0 .044-.006.089c-.037.417-.652.417-.686 0 .024-.159 0-.331.007-.493-.626-2.115-1.662-4.087-2.34-6.186-.447-1.211-.857-2.432-1.288-3.647-.42-1.287-1.006-2.432-1.423-3.68-.129-.509.629-.638.675-.122 1.162 2.707 2.056 5.484 3.062 8.247.645 1.867 1.609 3.631 2.075 5.553zm-7.768-20.797c.291.318-.152.781-.484.5-.413-.58-.569-1.334-.837-1.993-.089-.192-.248-.417-.199-.632-.079-.324-.172-.658-.129-.993.073-.387.606-.377.709-.013.125.437.228.884.294 1.334.106.609.421 1.244.646 1.804z"/><path fill="#000" d="M146.424 156.773c-.229-.496-.573-.923-.94-1.324-.106-.135-.259-.278-.417-.311-.269-.188-.6-.318-.924-.314-.983.185-1.672 1.105-2.274 1.837-.06.095-.159.208-.248.324-.017-.046-.037-.096-.053-.142q-1.221-3.287-2.436-6.573l-2.433-6.569-2.682-7.235-2.621-7.072c-.894-2.41-1.784-4.816-2.678-7.225l-2.602-7.019-2.512-6.775c-.821-2.217-1.642-4.438-2.469-6.652a368 368 0 0 0-1.314-3.482q-.326-.844-.662-1.684a40 40 0 0 0-.315-.755c-.043-.096-.083-.195-.136-.288a.44.44 0 0 0-.158-.178.242.242 0 0 0-.358.178.6.6 0 0 0 .023.265q.055.197.119.39.16.503.335 1.003c.364 1.066.764 2.168 1.165 3.27q.56 1.539 1.132 3.078l2.466 6.659 2.549 6.873 2.608 7.033 2.655 7.165 2.628 7.089q1.326 3.573 2.648 7.145 1.232 3.318 2.459 6.636c.666 1.794 1.708 4.368 2.403 6.228a1.07 1.07 0 0 1-.284.49 1 1 0 0 1-.119.096l-.186-.496q-1.22-3.286-2.436-6.573l-2.433-6.569-2.681-7.235-2.622-7.072-2.677-7.225-2.602-7.019-2.513-6.775c-.82-2.217-1.641-4.438-2.469-6.652-.434-1.162-.867-2.323-1.314-3.481q-.326-.846-.662-1.685-.153-.377-.314-.755c-.043-.096-.083-.195-.136-.288a.44.44 0 0 0-.159-.178.242.242 0 0 0-.351.142c0 .013-.007.023-.007.037a.6.6 0 0 0 .024.264q.054.199.119.39.16.503.334 1.004c.364 1.065.765 2.167 1.165 3.269q.561 1.539 1.132 3.078l2.466 6.659 2.549 6.874q1.305 3.514 2.608 7.032l2.655 7.165 2.628 7.089q1.327 3.573 2.648 7.146 1.232 3.317 2.46 6.635l1.87 5.044a.5.5 0 0 0-.252.198c-.721.927-1.519 1.791-2.247 2.711-.282.43-1.013 1.148-.97 1.717a.3.3 0 0 0-.04.106c-.116.838-.033 1.695-.092 2.539-.007 1.132-.408 1.926.999 2.283 3.757.718 6.286-4.011 7.852-6.735.41-.721.85-1.426 1.254-2.151.54-.794.189-1.84-.159-2.647zm-6.127 2.562q.014.03.033.056c.003.073.043.136.132.175.881.358 1.9-.996 1.556-1.744a.5.5 0 0 0-.066-.145c.205-.149.351-.494.519-.652.345-.424.712-.838 1.146-1.172.423-.314.599-.4 1.066-.086-.288.778-.805 1.393-1.265 2.115a45 45 0 0 1-1.827 2.465c-.593.742-1.238 1.503-1.946 2.201-.623.596-1.434 1.314-2.301.718.781-1.453 2.125-2.515 2.956-3.935zm5.703-.315c-.397.715-.824 1.413-1.231 2.122-1.232 2.088-2.364 4.385-4.419 5.794-.887.606-2.208 1.086-3.188.437-.046-.814.043-1.628.043-2.442-.007-.288.013-.586 0-.877.238.106.507.159.751.179.98.056 1.745-.715 2.4-1.347 1.132-1.155 2.125-2.436 3.075-3.74a38 38 0 0 0 1.679-2.535q.08-.13.155-.281c.394.493.672 1.072.804 1.691.057.331.126.705-.072 1.002z"/><path fill="#fff" d="M122.803 101.796a.35.35 0 0 1-.112.42c-.159.119-.388.06-.573.04a57 57 0 0 0-.821-.076c.334.142.679.274 1.016.413.179.063.361.192.358.401-.01.423-.494.377-.791.321.241.119.546.198.681.45.149.321-.202.579-.503.516a31 31 0 0 1-2.479-.232.35.35 0 0 1-.331.245.3.3 0 0 1-.093-.013 34 34 0 0 1-1.009-.351c-.517-.192-1.023-.407-1.529-.622-.772-.324-1.543-.652-2.327-.927a50 50 0 0 0-1.692-.536c-.596-.182-1.188-.374-1.784-.552-1.192-.358-2.41-.613-3.621-.881-1.258-.278-2.519-.559-3.737-.983a10 10 0 0 1-.924-.367 4.7 4.7 0 0 1-.804-.453c-.272-.199-.619-.143-.765-.447-.119-.255-.043-.838-.059-1.116a6 6 0 0 1 .01-.718q.03-.46.095-.923c.083-.609.196-1.215.348-1.81.215-.847.48-1.681.751-2.463q.24-.69.494-1.37.103-.283.221-.562c.07-.162.159-.368.351-.397.1-.02.206.003.285.086q.074.075.089.175c.288.08.54.53.788.679 1.182 1.042 2.453 2.071 3.932 2.63.643.212.715.712.179 1.122-.612.56-1.208 1.185-1.969 1.536a92 92 0 0 0 4.306 2.184c1.582.722 3.247 1.42 4.985 1.536.891.066 1.788-.023 2.675.086.989.149 1.903.35 2.823.725.404.188 1.844.854 1.526 1.39-.089.132-.222.182-.374.182-.414-.023-.814-.133-1.228-.162.358.152.715.297 1.069.456.195.096.444.166.546.378zm8.848-16.456c-.209.133-.781.08-.97.226-1.105.563-2.231 1.896-3.571 1.545-.904-.52-1.437-1.492-2.278-2.098-1.145-.817-2.449-1.476-3.31-2.628-.569-.754-1.082-2.111-.913-2.2.261-.13 1.641-.328 3.406-3.134.711-.272 2.591-.772 3.343-.593.41.126 2.016 2.74 2.787 3.551.632.623 1.688 1.701 2.324 2.32.135.053-.09 2.4-.815 3.012zm-.622 13.497s-.325 21.866-1.424 24.881c-.132.407-2.032-1.715-1.615-4.346-.285.374-1.222 1.433-1.387 1.238-.109-.126.301-3.111.225-3.306-.089-.44-.904-1.767-1.235-2.631-.837-3.005.04-15.499.603-15.466.136-.132 4.833-.37 4.833-.37"/><path fill="#FED980" d="m124.372 76.663 1.023-1.466 1.43.804z"/><path fill="#000" d="M123.667 73.44s-.003.023-.007.035q.001-.018.007-.038z"/><path fill="#000" d="M137.715 74.178a7.6 7.6 0 0 0-2.161-3.273 7.7 7.7 0 0 0-3.042-1.658 7.66 7.66 0 0 0-3.549-.126 7.6 7.6 0 0 0-3.224 1.503 7 7 0 0 0-1.284 1.33 6 6 0 0 0-.497.79c-.066.13-.125.262-.185.395-.036.08-.076.165-.099.251q.001.012-.004.023 0 .01-.003.02v-.003c-.036.192 0 .427.046.586.159.52.557.84 1.007 1.089a.7.7 0 0 0-.093.132c-.49.642-.92 1.33-1.324 2.032-1.205 2.601-2.999 2.727-5.614 2.8-3.512-.007-7.362-.06-10.235 2.27-3.257 2.648-5.511 6.556-6.567 10.59-.414 1.698-.89 3.806-.374 5.534q.036.106.123.172l.019.023c1.291 1.06 3.003 1.41 4.585 1.827l.043.01a3 3 0 0 0-.003.298c0 .328 0 1.155.006 1.486.02 2.174-.063 4.365-.404 6.52-.437 2.902-1.506 5.655-2.29 8.472-1.225 4.173-1.086 8.545-1.129 12.847-.05 1.774-.159 3.575-.268 5.355-.162 2.327-.622 4.392-.957 6.698-.486 3.217-.973 6.434-1.423 9.658-.34 2.128-.99 4.193-1.46 6.294-.122.712-.47 1.476-.185 2.184q.044.103.11.196c-.706.092-1.563.331-1.537 1.115.192.748 1.103.549 1.83.394-.496.619-1.052 1.198-1.393 1.923-.97 1.982.397 2.972 2.268 3.177 1.962.198 3.445-.047 4.131-2.112.463-1.244 1.294-2.174 2.015-3.289a.37.37 0 0 0-.046-.457c.324-.377.576-.837.748-1.281.391-.946.914-2.161.149-3.061 1.496-.252 2.099-.156 2.923-1.618 1.367-2.655 2.012-5.627 2.565-8.539.748-4.332.811-8.767 1.798-13.062.38-1.774.92-3.515 1.585-5.203.344-.884.735-1.751 1.129-2.614.102 1.555.172 3.114.261 4.666.12 3.015.037 3.779 1.53 6.483.506 1.271.632 2.644.774 3.991.229 2.377.401 4.759.603 7.139.125 1.307.082 2.661.509 3.915.182.447.517.818.924 1.086-.013.205.053.427.05.625a7.2 7.2 0 0 1-.034 1.87c-.142.93-.493 1.88-.245 2.82.308 1.224 1.629 1.76 2.784 1.843 2.708.146 5.409-.301 8.11-.457 1.072-.115 2.274-.036 3.201-.668.695-.48.983-1.542.284-2.148-.605-.566-1.453-.662-2.237-.755a8 8 0 0 1-2.099-.589 4 4 0 0 1-1.006-.622c.741-.374 1.43-.864 1.923-1.545.285-.364.53-.814.487-1.291-.037-.434-.441-.784-.877-.728-.901.099-1.755 1.565-2.394 2.568a4.7 4.7 0 0 1-.506-1.079c.056-.006.116-.013.172-.023a1.06 1.06 0 0 0 1.01-.88c.291-2.214.125-4.505-.262-6.699-.324-1.572-.966-3.048-1.516-4.547-1.539-4.448-.695-9.243-.675-13.847.04-1.469.059-2.942.076-4.412 0-.387.013-1.274.023-2.005.285.46.659.324 1.023-.017-.007.98-.129 2.191.344 3.009.199.251.56.258.814.089.067.543.192.957.421 1.099.695.344.91-.612 1.039-1.102.427-1.437.603-2.932.659-4.425a1 1 0 0 0 .016-.132c.103-1.606.547-12.974.742-18.735.162-4.786.619-10.78-1.347-13.258a1.03 1.03 0 0 0-.397-.338c.168-.149.327-.308.476-.463a.5.5 0 0 0 .066-.086c.209.043.484-.02.686-.033.552-.057 1.284-.186 1.449-.808.173-.705.189-1.443.364-2.148.027-.122.09-.274.12-.42.056.043.109.09.165.132.775.53 1.467 1.357 2.43 1.506.966-.01.748-.98.241-1.466a22 22 0 0 0-.394-.433c.173-.133.345-.292.514-.45a7.62 7.62 0 0 0 2.307-4.53 7.6 7.6 0 0 0-.331-3.413zm-13.012 2.313c.129-.284.56-.698.692-1.062q.148.064.288.129c.288.142.553.278.818.433q-.02-.002-.04.007a8 8 0 0 0-.675.166 10 10 0 0 0-.758.231 8 8 0 0 0-.348.133zm-4.594 4.187c.006.202.079.413.119.602.265 1.013.94 1.847 1.711 2.525.771.725 1.718 1.38 2.817 1.39.086.143.159.262.209.351.155.248.314.506.486.758-.258.01-.516.013-.771-.003a7 7 0 0 1-.675-.1 6 6 0 0 1-.669-.188 6 6 0 0 1-.606-.265 6 6 0 0 1-.609-.37 6 6 0 0 1-.523-.418 9 9 0 0 1-.586-.605 9 9 0 0 1-.648-.87 13 13 0 0 1-.712-1.268 18 18 0 0 1-.444-1.01q-.08-.196-.165-.394.547-.039 1.059-.132zm-2.466.185c.212 0 .417-.007.625-.013.02.07.047.142.067.205a14 14 0 0 0 .705 1.678c.688 1.373 1.625 2.677 2.952 3.495a5.9 5.9 0 0 0 2.148.797c.335.057.672.08 1.01.08.308 0 .616-.02.92-.05.301.291.652.52 1.083.622.056.014.109.02.162.027-.172.784-.46 1.535-.805 2.26-.291.55-.933 2.098-1.585 2.237-1.45-.251-2.9-.513-4.356-.734-.824-.206-3.664-.417-3.704-1.44-.129-2.657-.513-5.295-1.033-7.903-.096-.314-.142-.857-.304-1.241.708-.013 1.416-.01 2.115-.02m-14.068 18.368c-.665-.209-1.407-.467-2.023-.847a4 4 0 0 1-.264-.19l-.06-.082a4 4 0 0 1-.139-1.022c-.013-1.202.232-2.645.523-3.81a21 21 0 0 1 1.45-3.971.125.125 0 0 1 .205-.03c.407.417.947.828 1.258 1.115l.007.007c1.132.89 2.333 1.784 3.7 2.264a.125.125 0 0 1 .04.215q-.548.446-1.126.854c-.244.119-.364.404-.188.632.324.374.725-.08 1.016-.272a22 22 0 0 0 1.734-1.423c1.05-.926 1.838-2.227 2.361-3.53v-.008c.099-.32.46-.976.195-1.254-.566-.41-.854.973-1.059 1.317a13 13 0 0 1-.719 1.35 7.8 7.8 0 0 1-1.267 1.52.13.13 0 0 1-.12.03c-.84-.196-1.621-.583-2.343-1.056a19 19 0 0 1-2.016-1.49 18 18 0 0 1-1.152-1.075.125.125 0 0 1-.02-.149c1.364-2.489 3.244-4.762 5.455-6.083.97-.56 2.013-.89 3.085-1.085.057.026.093.046.149.072.444.86.854 1.983 1.083 2.96.784 3.335.334 6.122-1.536 9.017-.477.739-1.003 1.47-1.496 2.201-.182.275-.371.546-.55.824a.126.126 0 0 1-.159.047 20 20 0 0 1-.698-.354c-1.182-.57-2.311-1.275-3.549-1.721-.241-.073-.556-.18-.771 0-.155.162.023.36.189.42 1.711.814 3.333 1.804 5.051 2.608.983.46 2.013.827 3.045 1.158 1.119.374 3.075.718 4.088.82.331.034.662.014.983-.065.278-.066.56-.13.851-.113 1.172.146 2.989.838 3.906 1.665.106.093 0 .265-.129.212-.361-.143-1.268-.527-1.745-.53-.47-.049-.585.655-.125.758.215.03 1.228.324 1.526.417.794.152.645.444.443.473-.669.063-1.321-.245-1.959-.4-.467-.103-.669.566-.226.741.345.119.696.209 1.046.305.259.066 1.123.294 1.086.413s-.877-.089-1.344-.168c-.208-.034-.404.145-.423.347a.394.394 0 0 0 .297.417c.365.086.735.149 1.109.179q.03.09.11.182c-.696.159-1.424-.033-2.119-.113-.93-.152-1.873-.258-2.78-.516-.649-.192-1.238-.523-1.837-.824-1.506-.758-3.145-1.201-4.774-1.612-2.416-.615-4.879-1.042-7.268-1.747zm10.787-1.198a.4.4 0 0 0 .017-.073c.225-1.026.493-2.039.861-3.025.102-.645.685-.864 1.274-.877 1.91-.063 3.82.228 5.677.659.569.168 1.244.211 1.688.642.851 1.214.189 2.826-.149 4.12a21 21 0 0 1-.374 1.062c-.281-.437-.768-.797-1.149-1.075-1.403-.808-3.237-1.655-4.819-.93-.053-.04-2.095-.262-3.029-.507zm-8.305 4.117c-.026-.215.007-.927-.049-1.476q.665.154 1.337.304c-.255.507-.493 1.02-.748 1.526q-.261.526-.533 1.052.006-.7-.007-1.403zm-5.729 59.61c-.08.139-.119.331-.166.484a4.3 4.3 0 0 1-.43.893c-.232-.311-.285-.705-.434-1.052a1.9 1.9 0 0 0-.44-.652c.46.139.97.245 1.473.331zm-2.314-.662q.034.02.07.037-.001.004-.007.01-.175.017-.344.063a6.4 6.4 0 0 1-1 .168c.404-.168.84-.231 1.278-.278zm3.969 3.29c-.675 1.87-1.308 2.069-3.234 1.956-1.907-.182-2.74-.874-1.506-2.658.172-.317.814-.946 1.215-1.542.089.136.145.298.201.434.19.506.381 1.214.977 1.353.662.067.923-.698 1.155-1.188.076-.245.278-.615.229-.887.685.093 1.314.153 1.734.212.238.023.463 0 .675-.056-.536.754-1.099 1.502-1.443 2.369zm28.513-12.08c.003.424-.331.762-.579 1.076-.325.377-.739.665-1.176.9.255-.367 1.318-2.187 1.755-1.976m-2.47 3.068a5.53 5.53 0 0 0 2.43 1.39c.715.368 4.409.278 3.068 1.725-.906.648-2.307.47-3.419.625q-1.068.084-2.132.172c-1.853.119-3.674.411-5.537.215-2.718-.403-1.801-2.234-1.543-4.186.268.112.636.126.871.162a13.1 13.1 0 0 0 4.995-.616c.215-.076.437-.142.648-.228q.024.034.044.07c-1.123.307-4.314 1.952-2.857 3.064 1.446.493 2.684-1.307 3.432-2.389zm-7.149-1.635c-.014-.069-.02-.139-.027-.208q.25.074.503.103c1.556.092 3.095-.278 4.638-.437l.705-.09q0 .023.01.047.124.417.314.804c-1.698.625-3.525.87-5.332.781q-.253-.02-.507-.046c-.073-.007-.155-.02-.231-.017a4 4 0 0 0-.073-.93zm5.981 1.96c-.46.619-1.026 1.32-1.84 1.413h-.05c.165-.354.533-.556.834-.785q.512-.341 1.059-.628zm-.609-36.239a.4.4 0 0 0-.338-.159c-.026 0-.049.01-.073.013.024-.576-.099-1.198-.225-1.631-.102-.374-.225-.742-.334-1.112-.079-.255-.44-.338-.629-.156-.225-1.479-.606 1.162-.688 1.572-.053.784-.262 2.515.698 2.8.381-.013.649-.152.831-.368.01.143.016.282.016.404-.013.751-.016 2.664-.029 3.416-.007 3.799-.348 7.595-.275 11.391.026 2.446.579 4.838 1.546 7.079a16.9 16.9 0 0 1 1.228 5.854c.043 1.05.073 2.082-.04 3.131-.04.146-.023.361-.165.444-.348.089-.709.106-1.063.159-1.142.142-2.284.297-3.426.446-1.079.126-2.377.325-3.187-.585-.381-.444-.408-1.073-.5-1.629.691.126 1.618.09 1.939.136a.397.397 0 0 0 .394-.394c-.043-.579-.778-.351-1.168-.427a10 10 0 0 1-1.241-.145c-.09-1.089-.156-2.185-.259-3.274-.208-2.415-.35-4.838-.672-7.241-.139-.963-.354-1.923-.771-2.806-.387-.738-.821-1.46-1.016-2.28-.265-1.089-.222-2.221-.295-3.333a314 314 0 0 0-.347-5.831c-.017-.182-.027-.368-.053-.55.477-1.082.92-2.177 1.254-3.316.06-.208-.099-.427-.298-.47-.182-.04-.397.063-.456.248a28 28 0 0 1-1.195 3.158.33.33 0 0 0-.086.198l-.027.063c-.887 1.969-1.81 3.928-2.459 5.99-.54 1.652-.934 3.349-1.238 5.057-.91 5.309-.91 10.773-2.522 15.952-.394 1.291-.808 2.641-1.51 3.816-.615 1.092-1.354.797-2.38 1.069a1 1 0 0 0-.112.039c-.441-.198-1.242-.112-1.635-.129-.388.01-.54.543-.199.742.417.109.884.016 1.324.076 0 .109.036.222.112.327.179.216.358.431.365.725.036.239-.03.47-.1.695q-.185.596-.44 1.172c-.222.466-.473.953-.907 1.257-.493.378-1.142.166-1.701.11q-.562-.073-1.119-.156c-.662-.112-1.334-.215-1.97-.437a.2.2 0 0 0-.06-.039q-.105-.043-.214-.067c-.44-.185-.805-.456-.662-.979.192-1.073.48-2.128.734-3.191.305-1.218.64-2.432.871-3.667.215-1.201.354-2.412.533-3.617.477-3.28.993-6.549 1.47-9.829.172-1.175.443-2.32.48-3.505v-.01q.059-.927.109-1.86c.235-3.001.185-6 .241-9.008.057-2.102.288-4.203.772-6.252.645-2.753 1.721-5.404 2.313-8.191.371-1.734.56-3.501.633-5.272a.4.4 0 0 0 .119-.129c.271-.43.503-.887.738-1.337q.365-.695.708-1.4c.129-.268.259-.536.381-.807.036-.093.083-.189.119-.285 1.543.348 3.085.698 4.601 1.152.715.218 1.443.473 2.145.791.732.341 1.43.761 2.198 1.016 1.053.337 2.158.45 3.247.632.838.093 1.781.351 2.565-.06.388-.188.411-.575.226-.883.476-.209.576-.732.165-1.149.338-.195.427-.893.619-1.208.454-1.141.864-2.31 1.086-3.524.778-3.886-1.844-3.813-4.78-4.385-1.529-.14-3.86-.682-5.17.248-.381.377-.474.94-.659 1.426-.271.86-.549 1.724-.692 2.615v.013l-.39-.122a27 27 0 0 1-2.837-1.05c.175-.264.351-.532.529-.794.58-.87 1.212-1.707 1.751-2.604 2.179-3.535 2.231-7.033.927-10.902-.135-.34-.367-.903-.619-1.327.59-.07 1.182-.106 1.778-.13.01.236.139.484.162.712.414 2.05.765 4.118.98 6.196.063.668.099 1.343.149 2.022-.01.57.222 1.115.728 1.407 1.205.691 2.651.804 3.995 1.055 1.361.199 2.705.454 4.062.689 1.436.241 3.131-4.11 3.22-5.312a3.1 3.1 0 0 0 1-.457c.089.205.364.36.454.58q.038.075.072.151l-.013.087q-.037.247-.079.496c-.123.824-.431 1.602-.745 2.37-.94 2.26-1.788 4.567-2.9 6.754-1.039 2.016-1.463 4.25-1.966 6.441-.129.526-.271 1.045-.407 1.568-.093.407-.252.808-.248 1.228.046.639.387 1.211.688 1.764.344.602.732 1.185 1.112 1.767q.02.026.043.047c.017.877.057 1.754.136 2.631a.38.38 0 0 0 .146.268c.318.989 1.009 2.23 1.165 2.558.417 1.162-.113 2.363-.285 3.551zm-1.42.506c-.252-.751-.106-1.539-.05-2.33.156.626.52 1.804.05 2.33m.53-17.421c-.103 2.154-.249 4.312-.275 6.47-.477-.735-1.083-1.698-1.046-2.297.222-.956.51-1.893.725-2.849.208-.887.387-1.784.615-2.664.007.45.004.896-.023 1.343zm3.078 20.436a.34.34 0 0 0-.209-.013c-.162-.881-.129-1.784-.119-2.674-.016-.215.04-.46.01-.679.142-.195.265-.367.358-.476.063.688-.096 2.455-.04 3.839zm2.218-22.485c-.156 2.486-.49 12.924-.613 16.72l-.01-.007s-.251 4.054-.784 6.063c-.06-1.549.036-3.114-.01-4.663 0-.516-.556-.837-.957-.457-.483.49-.844 1.089-1.281 1.619.186-1.367.795-2.836.252-4.187-.232-.496-.536-.956-.755-1.459a11 11 0 0 1-.526-1.622c-.063-1.128-.119-2.26-.109-3.392.006-3.19.453-6.377.238-9.571.371.07.837.053 1.082.073 1.185 0 2.39-.093 3.522-.454q-.032.674-.049 1.337m-.997-9.76c.196-.492.358-.999.467-1.515.963 2.873.775 6.03.619 9.091q-.46.167-.94.278c-.351.076-.722.13-1.092.169-.669.063-1.341.093-2.01.07-.165 0-.331-.02-.499-.03.314-.719.668-1.43.999-2.118.864-1.963 1.662-3.952 2.453-5.944zm2.033-6.476c-.04.285-.066.573-.129.85a.18.18 0 0 1-.09.146 4 4 0 0 1-.218-.129 3 3 0 0 1-.603-.582c-.069-.123-.165-.239-.317-.255-.245-.033-.451.195-.414.433.076.258.271.513.51.728l-.216.02a.38.38 0 0 0-.297.189q-.02-.008-.044-.01a5 5 0 0 1-.407-.258c-.407-.298-.738-.689-1.026-1.099-.109-.169-.208-.367-.437-.38a.38.38 0 0 0-.387.314c.05.639.904 1.46 1.556 1.903-.517.48-1.129.913-1.851.777-1.079-.181-2.684-3.418-3.061-4.464-.053-.215-.116-.45-.067-.672.176-.248.05-.642-.281-.648-1.059.297-.334 1.965.348 3.206-.722-.162-1.291-.675-1.834-1.151-.735-.632-1.371-1.516-1.559-2.496a.5.5 0 0 0-.033-.178c1.264-.368 2.32-1.109 3.015-2.608l.209-.361c.175-.11.354-.218.539-.308.136-.063.275-.116.417-.168q.244-.092.487-.173a8 8 0 0 1 .86-.225 4 4 0 0 1 .454-.066c.06 0 .116-.003.175 0q.07.006.139.02.141.03.282.066h.006c.298.354.48.801.689 1.211.4.815.93 1.556 1.569 2.201.814.828 1.691 1.585 2.592 2.32-.437.278-.484 1.447-.58 1.847zm5.65-7.407a7 7 0 0 1-.106.967c-.043.245-.116.54-.202.827-.096.305-.215.6-.347.89 0 0-.007.013-.007.02l-.013.023a7 7 0 0 1-.44.781 6.9 6.9 0 0 1-1.427 1.575l-.103.083c-.751-.75-1.546-1.462-2.317-2.197-.48-.43-.96-.86-1.453-1.274a.375.375 0 0 0-.526.033.376.376 0 0 0 .033.526c1.615 1.45 3.257 2.896 4.71 4.51-1.132-.71-2.145-1.6-3.171-2.451-.844-.739-1.698-1.48-2.39-2.363-.678-.815-.943-1.913-1.652-2.724-.811-.801-1.906-1.195-2.906-1.691-.268-.166-.523-.4-.606-.715-.029-.1-.036-.212-.066-.311l.06-.1q.346-.531.751-1.019s.017-.02.023-.03a8 8 0 0 1 .679-.695 8 8 0 0 1 .662-.526q.383-.264.794-.48.393-.199.805-.354c.274-.1.553-.178.837-.245a8 8 0 0 1 .887-.142 7 7 0 0 1 .891-.023c.321.013.642.05.96.102q.442.084.87.215.429.14.838.328.417.201.811.45.38.249.731.546.332.286.629.613.282.317.53.665.247.358.45.741.21.408.371.834c.096.268.182.553.248.837q.094.431.139.867.04.454.026.907z"/><path fill="#000" d="M126.044 77.296c-1.232.277-2.198 2.157-1.043 3.048a.397.397 0 0 0 .54-.13.4.4 0 0 0-.126-.539c-.057-.033-.083-.096-.1-.156-.192-.73.566-1.631 1.324-1.466.196.14-.013.404.143.576.159.232.516.189.645-.05.397-.843-.589-1.585-1.377-1.283zm2.922 3.974c-.407.655.993 1.51 1.46 1.807.44.265.851-.397.414-.672a6 6 0 0 1-.464-.298 3.6 3.6 0 0 1-.625-.552c-.176-.295-.467-.62-.785-.285m-21.882 29.326c-.54-.301-.619.374-.563.754-.03 1.804-.262 3.674-.848 5.411a25 25 0 0 1-.897 2.241c-.089.195.024.437.216.516a.4.4 0 0 0 .516-.215 21 21 0 0 0 1.099-2.866c.387-1.304.563-2.658.662-4.011-.013-.543.189-1.347-.185-1.827z"/><path fill="#FED980" d="M49.64 18.943c.758 3.67 2.99 15.061 2.99 15.061s-14.145 2.323-12.728-1.453c.712-2.73 2.718-11.302 3.29-14.068.457-1.066 5.889-2.678 6.445.463zm11.665 50.975c-9.208 3.86-25.01 3.091-29.158-.284.639-3.713 3.743-17.365 3.743-17.365s10.636 2.786 20.867.407c1.275 1.006 1.44 6.354 4.548 17.242m18.954 32.245c1.84 3.644-5.614 6.351-5.614 6.351S62.49 118.8 58.157 117.456c-7.749-1.304-27.685-2.852-44.21-5.318-2.793-1.129-3.23-3.677-1.148-5.232 11.023-5.051 13.588-4.65 14.24-15.777.16-.85.242-3.928 1.59-2.442 11.15 4.1 24.07 4.047 34.96-.15 1.93-.744 1.536 1.106 1.721 1.973.798 5.5 2.34 9.446 2.34 9.446s6.85-.732 12.605 2.204z"/><path fill="#fff" d="M56.757 52.676s-12.71 2.052-20.976-.85c2.135-9.853 4.294-17.544 4.294-17.544s6.173 1.188 12.899-.357c1.135 5.209 3.787 18.751 3.787 18.751zm8.1 35.084c-12.376 4.544-26.497 5.269-36.748.145 1.787-11.311 3.326-18.377 3.783-17.675 7.007 3.713 20.635 2.697 29.145.35 1.658 4.597 2.512 11.948 3.82 17.18"/><path fill="#000" d="M80.706 102.011c-.063-.096-.133-.219-.209-.338-.84-1.896-7.835-1.87-9.347-1.933-.91-.006-1.821 0-2.728 0-.156.017-.324-.006-.493-.013q-.781-3.503-1.556-7.006l-2.168-9.763-2.175-9.793-2.174-9.783-2.208-9.938-2.205-9.925-2.135-9.601q-.992-4.469-1.99-8.932a448 448 0 0 0-.926-4.071q-.207-.89-.43-1.774c-.03-.112-.056-.225-.086-.337.03-.034.42-.868-1.748-1.596-.771-.258-1.615-.245-2.413-.129-.596.103-2.44.44-2.72 1.09a2 2 0 0 0-.15.343q-.074.302-.142.61-.166.724-.325 1.449l-1.28 5.768-1.669 7.526q-.984 4.443-1.973 8.886c-.592 2.677-1.188 5.355-1.78 8.032q-.98 4.424-1.963 8.846l-2.063 9.294q-1.082 4.895-2.171 9.789-1.077 4.856-2.155 9.707L25.21 97.96c-.185.837-.37 1.678-.56 2.515-.211.027-.387.179-.572.275-1.698 1.016-3.462 1.926-5.25 2.77-1.97.93-3.979 1.797-5.855 2.912-.646.431-1.444.798-1.827 1.503-.04.139-.057.268-.063.39-.043.166-.037.341-.034.51.014.715.126 1.436.414 2.098.384.977 1.232 1.526 2.241 1.695h.01c1.933.566 4.621.652 5.637.85 2.9.348 5.773.553 8.68.867 5.279.649 10.572 1.169 15.851 1.817 5.081.613 10.106 1.758 15.23 1.959.218.02.43.034.639.034 2.44 0 4.227-1.4 6.166-2.817 3.135-2.31 6.419-4.398 9.732-6.44.927-.589 1.847-1.191 2.77-1.791.715-.539 1.682-.933 2.251-1.641l-.02-.086c.186-.096.305-.338.351-.549.288-.927.15-1.96-.281-2.82zM49.065 18.373c-.305.176-.649.262-.997.305-1.25.135-2.509-.083-3.717-.407 1.447-.447 3.367-.771 4.717.102zM41.5 28.493c.444-2.001 2.105-9.517 2.112-9.55 1.023.354 2.105.542 3.181.625.718.036 1.695.02 2.43-.308.086.45.758 3.66 1.01 4.816.645 2.942 1.3 5.884 1.952 8.826l.142.642q-.093.015-.178.04c-1.705.307-3.433.48-5.16.576-1.947.112-4.039.026-5.982-.378-.185-.003-.414-.09-.645-.162l1.138-5.126m-1.327 5.984.12.03c1.194.295 2.419.454 3.643.53 2.87.125 5.757-.13 8.58-.642L56.44 52.05a.5.5 0 0 0-.176.03 12 12 0 0 1-2.165.585c-2.423.464-4.889.427-7.361.414-2.675-.043-5.37-.046-8-.573a17 17 0 0 1-2.05-.556c-.119-.033-.241-.092-.364-.122.477-2.151 3.661-16.508 3.85-17.352m-4.035 18.2s.033.01.05.012c2.293.854 4.756 1.09 7.186 1.185 4.399.05 8.99.493 13.214-.983l.04-.02c.698 3.138 3.223 14.513 3.79 17.06a.45.45 0 0 0-.239.02q-.224.08-.447.153-.199.064-.397.123a40 40 0 0 1-3.903.91 43 43 0 0 1-2.956.427 83 83 0 0 1-4.505.38c-.463.027-.983.046-1.502.06-1.503.033-3.01.04-4.509-.063q-.145-.01-.291-.023a26 26 0 0 1-2.264-.262 56 56 0 0 1-2.082-.38 24 24 0 0 1-1.854-.46 40 40 0 0 1-1.764-.55q-.514-.18-1.02-.39a4 4 0 0 0-.33-.126c.526-2.376 3.72-16.773 3.786-17.067zM32.167 70.58l.063.03q.437.193.89.363a29 29 0 0 0 2.003.642q.547.16 1.099.302c.36.089.721.165 1.085.238a59 59 0 0 0 2.142.384c.755.122 1.52.188 2.284.248q1.147.09 2.297.1h.649q1.951.002 3.9-.117 2.25-.138 4.484-.407a45 45 0 0 0 4.25-.731 35 35 0 0 0 1.92-.477 17 17 0 0 0 1.271-.4.4.4 0 0 0 .093-.05q.155.687.305 1.374l2.18 9.812q.642 2.896 1.289 5.785c-.034.01-.07.02-.103.04-.874.516-1.837.85-2.8 1.159-4.942 1.432-10.225 1.89-15.363 2.118-5.375.198-10.979.05-15.927-2.32-.487-.245-1.056-.56-1.53-.92a.65.65 0 0 0-.248-.156c.427-1.92 3.651-16.458 3.777-17.02zM28.19 88.498c.65.566 1.94 1.106 2.516 1.377 3.807 1.565 7.957 2.082 12.049 2.039 6.461-.05 13.045-.464 19.268-2.307.698-.225 1.39-.473 2.049-.798.135-.072.32-.152.483-.248.238 1.069 3.29 14.823 3.595 16.184l.023.082-.013.033a2 2 0 0 1-.116.215 4 4 0 0 1-.172.242 4 4 0 0 1-.302.318 6 6 0 0 1-.5.407 9 9 0 0 1-.86.533l-.007.003a15 15 0 0 1-1.675.758c-1.049.404-2.18.735-3.326 1.016-.497.122-1.05.245-1.606.357a57 57 0 0 1-5.12.785c-.315.036-.685.072-1.06.109a83 83 0 0 1-10.741.304 76 76 0 0 1-4.098-.258 63 63 0 0 1-3.776-.453 45 45 0 0 1-1.993-.348 36 36 0 0 1-3.111-.744c-.01 0-.02-.007-.027-.01a19.5 19.5 0 0 1-2.46-.891 11 11 0 0 1-1.164-.608 6 6 0 0 1-.666-.47 5 5 0 0 1-.37-.345 2.4 2.4 0 0 1-.35-.476 2 2 0 0 1-.09-.189q-.03-.088-.057-.175-.018-.08-.027-.159-.005-.08-.006-.159a1.2 1.2 0 0 1 .056-.361 4673 4673 0 0 0 3.648-15.763zm-14.08 18.279c2.856-1.559 5.911-2.721 8.738-4.336a25 25 0 0 0 1.562-.923c-.129.586-.632 2.502-.701 2.766-.093.355-.073.739.046 1.086.12.347.318.659.56.93.496.556 1.131.973 1.784 1.32 1.062.566 2.204.97 3.356 1.308.185.053.43.122.672.188.956.255 1.926.47 2.9.649 1.38.258 2.77.453 4.163.609q1.643.181 3.29.285a82 82 0 0 0 4.837.162h.417q1.874 0 3.747-.083a77 77 0 0 0 5.163-.4 62 62 0 0 0 3.946-.566 40 40 0 0 0 4.479-1.04c1.224-.364 2.436-.804 3.561-1.413.371-.198.775-.45 1.152-.741.523-.404 1.007-.913 1.238-1.546a.43.43 0 0 0-.01-.321.4.4 0 0 0 0-.129l-.748-3.365-.139-.633c.613.004 1.225 0 1.834 0 2.502.053 7.587-.062 9.669 1.324.026.04.056.076.082.116-.268.884-1.35 1.198-2.029 1.741a237 237 0 0 1-5.918 3.766c-2.198 1.35-4.316 2.82-6.405 4.329-1.245.847-2.413 1.843-3.79 2.475-1.854.828-3.972.371-5.928.245-3.73-.41-7.54-1.132-11.288-1.621-7.623-.917-15.25-1.811-22.896-2.529-1.91-.202-3.948-.42-5.888-.698-1.225-.235-2.708-.242-3.605-1.218-.294-.516 1.685-1.436 2.148-1.751zm64.053-.55a231 231 0 0 1-5.919 3.766c-2.198 1.351-4.316 2.82-6.405 4.329-1.244.847-2.413 1.844-3.79 2.476-1.853.827-3.972.37-5.928.245-3.73-.411-7.54-1.132-11.288-1.622-7.623-.917-15.249-1.81-22.895-2.529-1.913-.201-3.95-.42-5.889-.698-.652-.126-1.377-.185-2.049-.364a1 1 0 0 0-.112-.046l-.216-.053a6 6 0 0 1-.274-.103q.001.015-.004.03c-.887-.251-1.257-1.099-1.406-1.966 1.774 1.033 5.607 1.102 6.865 1.35 2.9.348 5.773.553 8.679.868 5.28.648 10.572 1.168 15.852 1.816 5.08.613 10.105 1.758 15.23 1.96 2.773.271 4.696-1.248 6.805-2.787 3.135-2.31 6.418-4.398 9.731-6.44.927-.589 1.848-1.192 2.771-1.791.712-.536 1.672-.93 2.24-1.634a2.8 2.8 0 0 1 .007 1.502c-.036.096-.076.192-.102.288h-.027c-.403.642-1.294.94-1.88 1.41z"/><path fill="#FED980" d="M264.971 80.883c.887 4.296 3.498 17.626 3.498 17.626s-16.553 2.721-14.895-1.7c.834-3.198 3.181-13.229 3.853-16.465.533-1.248 6.892-3.135 7.544.539m13.65 59.66c-10.777 4.518-29.271 3.621-34.127-.334.749-4.345 4.383-20.324 4.383-20.324s12.449 3.263 24.422.477c1.493 1.175 1.685 7.436 5.322 20.181m22.181 37.735c2.152 4.263-6.57 7.433-6.57 7.433s-14.224 12.04-19.295 10.465c-9.069-1.529-32.402-3.336-51.739-6.225-3.271-1.321-3.784-4.303-1.344-6.123 12.899-5.911 15.905-5.441 16.666-18.467.185-.993.281-4.597 1.86-2.859 13.052 4.798 28.169 4.735 40.916-.173 2.258-.87 1.797 1.295 2.013 2.311.933 6.436 2.74 11.053 2.74 11.053s8.014-.857 14.753 2.578z"/><path fill="#fff" d="M273.299 120.362s-14.876 2.403-24.551-.993c2.499-11.533 5.021-20.532 5.021-20.532s7.226 1.393 15.098-.417c1.327 6.096 4.429 21.945 4.429 21.945zm9.48 41.061c-14.485 5.318-31.009 6.165-43.008.169 2.096-13.238 3.893-21.509 4.429-20.688 8.199 4.345 24.151 3.157 34.107.41 1.94 5.381 2.94 13.983 4.472 20.109"/><path fill="#000" d="M301.329 178.099c-.073-.112-.156-.254-.245-.393-.983-2.218-9.169-2.191-10.94-2.264-1.066-.01-2.128 0-3.194 0-.182.02-.381-.01-.576-.013q-.913-4.101-1.821-8.201-1.267-5.712-2.539-11.425c-.847-3.819-1.698-7.638-2.545-11.46l-2.545-11.448-2.586-11.633-2.581-11.613-2.496-11.236c-.775-3.484-1.549-6.97-2.331-10.454-.357-1.589-.711-3.177-1.085-4.763a92 92 0 0 0-.609-2.468c.036-.04.49-1.016-2.046-1.87-.9-.305-1.89-.288-2.823-.15-.699.12-2.857.517-3.185 1.275-.01.013-.142.271-.175.4-.06.235-.109.474-.166.712q-.193.849-.38 1.698l-1.5 6.751q-.979 4.405-1.953 8.81l-2.307 10.402-2.085 9.402q-1.15 5.178-2.297 10.355l-2.413 10.875-2.543 11.458-2.519 11.361-2.476 11.167-.652 2.942c-.248.029-.453.208-.668.324-1.986 1.191-4.052 2.254-6.147 3.24-2.307 1.089-4.657 2.102-6.852 3.409-.758.503-1.691.933-2.138 1.757a2 2 0 0 0-.073.457c-.05.192-.04.397-.04.596.017.837.146 1.681.484 2.452.45 1.142 1.443 1.784 2.624 1.982h.01c2.264.662 5.409.761 6.601.996 3.392.407 6.755.646 10.158 1.016 6.177.758 12.373 1.367 18.55 2.125 5.945.718 11.827 2.059 17.825 2.294q.382.038.748.036c2.853 0 4.945-1.638 7.216-3.296 3.667-2.704 7.51-5.146 11.386-7.536a252 252 0 0 0 3.241-2.098c.837-.629 1.969-1.092 2.635-1.92l-.027-.099c.219-.112.358-.394.411-.642.337-1.086.175-2.293-.331-3.3zm-37.033-97.884c-.358.205-.762.304-1.166.357-1.463.159-2.939-.096-4.352-.477 1.694-.52 3.939-.903 5.518.12m-8.852 11.847c.52-2.343 2.463-11.14 2.473-11.179 1.195.414 2.463.632 3.721.732.84.043 1.982.023 2.843-.361.099.526.884 4.285 1.182 5.636.754 3.445 1.522 6.887 2.287 10.332l.169.755a2 2 0 0 0-.209.046c-1.992.36-4.018.56-6.037.675-2.281.133-4.727.03-7.001-.44-.215-.007-.487-.106-.755-.189l1.331-6zm-1.552 7.003q.074.02.142.034c1.397.344 2.83.529 4.267.618 3.356.15 6.739-.152 10.043-.75l4.591 20.66a.6.6 0 0 0-.205.037c-.818.314-1.655.523-2.533.688-2.836.54-5.723.503-8.616.487-3.128-.05-6.285-.053-9.364-.669a20 20 0 0 1-2.4-.649c-.139-.039-.281-.109-.427-.142.56-2.515 4.287-19.321 4.505-20.307zm-4.723 21.297a.4.4 0 0 0 .059.017c2.685.999 5.568 1.277 8.408 1.383 5.147.056 10.522.579 15.464-1.152.017-.006.03-.016.047-.023.814 3.674 3.773 16.984 4.435 19.966a.55.55 0 0 0-.281.023q-.26.095-.523.179-.232.074-.464.142a45 45 0 0 1-4.567 1.063 52 52 0 0 1-3.459.5 97 97 0 0 1-5.273.443c-.543.03-1.149.056-1.758.07-1.761.039-3.519.046-5.276-.077q-.17-.01-.345-.026a31 31 0 0 1-2.648-.305 74 74 0 0 1-2.436-.443 28 28 0 0 1-2.171-.539 45 45 0 0 1-2.066-.643 22 22 0 0 1-1.191-.456 9 9 0 0 0-.388-.149c.619-2.783 4.353-19.629 4.433-19.976zm-4.651 20.952.073.034c.344.152.688.294 1.042.423a34 34 0 0 0 2.341.751q.639.19 1.287.351c.421.103.844.192 1.268.278q1.248.248 2.506.45c.884.143 1.777.222 2.671.292q1.342.105 2.688.115c.255 0 .506.004.761.004q2.284.002 4.561-.136a93 93 0 0 0 5.25-.473 51 51 0 0 0 4.975-.857 40 40 0 0 0 2.244-.556c.5-.143 1-.292 1.49-.467a.4.4 0 0 0 .109-.06q.178.806.358 1.605 1.275 5.746 2.552 11.484l1.506 6.772a.4.4 0 0 0-.119.046c-1.023.606-2.152.993-3.277 1.357-5.783 1.678-11.966 2.211-17.981 2.479-6.292.231-12.849.056-18.642-2.714-.569-.288-1.235-.652-1.791-1.076a.66.66 0 0 0-.291-.178c.5-2.248 4.273-19.262 4.419-19.92zm-4.651 20.973c.762.662 2.271 1.294 2.943 1.611 4.455 1.834 9.311 2.436 14.101 2.387 7.563-.06 15.266-.543 22.551-2.701.818-.265 1.626-.556 2.397-.933.159-.086.377-.179.566-.291.278 1.251 3.85 17.348 4.207 18.94a.5.5 0 0 0 .03.096c-.007.013-.01.026-.017.039a3 3 0 0 1-.135.252q-.094.146-.202.281c-.11.133-.229.255-.351.374a7 7 0 0 1-.583.477 10 10 0 0 1-1.009.625s-.007 0-.01.004c-.629.337-1.291.628-1.963.887-1.228.47-2.552.857-3.893 1.188-.579.142-1.228.284-1.88.417a67 67 0 0 1-5.872.906l-.119.014c-.368.039-.805.086-1.238.129q-2.861.271-5.737.364-2.563.084-5.12.04a93 93 0 0 1-6.508-.348 71 71 0 0 1-4.422-.533 61 61 0 0 1-2.334-.404 42 42 0 0 1-3.641-.87c-.01 0-.023-.007-.033-.01a24 24 0 0 1-2.88-1.039c-.46-.209-.92-.444-1.363-.712a8 8 0 0 1-.778-.549 5 5 0 0 1-.434-.404 4 4 0 0 1-.248-.301c-.056-.083-.113-.165-.162-.255a2 2 0 0 1-.103-.221q-.035-.103-.066-.206a4 4 0 0 1-.033-.185q-.009-.095-.007-.189c0-.072.01-.145.02-.218q.018-.104.046-.202a5928 5928 0 0 0 4.27-18.45zm-16.481 21.392c3.344-1.823 6.918-3.187 10.228-5.073a31 31 0 0 0 1.831-1.082c-.152.685-.738 2.929-.821 3.24a2.2 2.2 0 0 0 .056 1.27c.139.404.371.772.656 1.089.579.649 1.324 1.139 2.088 1.546 1.242.662 2.582 1.135 3.929 1.532.219.063.504.146.788.222a44 44 0 0 0 3.396.761c1.616.301 3.244.533 4.876.712q1.922.212 3.85.331c1.883.119 3.773.182 5.66.188h.487q2.193 0 4.382-.096a90 90 0 0 0 6.041-.466 72 72 0 0 0 4.618-.662c1.764-.315 3.521-.702 5.239-1.215 1.434-.427 2.854-.94 4.168-1.651a10.4 10.4 0 0 0 1.35-.867c.613-.474 1.179-1.069 1.45-1.807a.5.5 0 0 0-.013-.374.6.6 0 0 0 0-.153c-.288-1.313-.586-2.627-.877-3.938q-.084-.37-.166-.741c.715.006 1.43 0 2.148 0 2.93.063 8.878-.073 11.314 1.552q.046.067.096.136c-.314 1.035-1.582 1.403-2.373 2.038a265 265 0 0 1-6.928 4.405c-2.572 1.582-5.051 3.3-7.497 5.064-1.457.993-2.824 2.158-4.436 2.896-2.168.969-4.647.433-6.938.284-4.366-.48-8.824-1.324-13.21-1.9-8.921-1.072-17.848-2.121-26.795-2.958-2.238-.235-4.625-.493-6.892-.818-1.43-.274-3.168-.284-4.217-1.426-.344-.602 1.97-1.681 2.512-2.049zm74.967-.645a274 274 0 0 1-6.928 4.408c-2.572 1.582-5.051 3.303-7.497 5.064-1.457.993-2.824 2.158-4.436 2.896-2.168.969-4.647.433-6.938.284-4.366-.48-8.824-1.324-13.21-1.9-8.921-1.072-17.848-2.121-26.795-2.958-2.238-.235-4.625-.493-6.892-.818-.765-.145-1.612-.218-2.4-.427a1 1 0 0 0-.132-.053c-.086-.016-.169-.043-.252-.062a6 6 0 0 1-.321-.12q0 .017-.003.034c-1.039-.295-1.473-1.288-1.649-2.301 2.079 1.208 6.561 1.291 8.037 1.579 3.393.407 6.756.645 10.159 1.016 6.177.758 12.373 1.367 18.55 2.125 5.945.718 11.827 2.058 17.824 2.293 3.244.318 5.498-1.459 7.964-3.26 3.668-2.703 7.511-5.146 11.387-7.535a264 264 0 0 0 3.241-2.099c.831-.628 1.956-1.088 2.625-1.912.152.572.172 1.178.01 1.76-.044.113-.09.225-.12.335h-.029c-.474.751-1.513 1.098-2.202 1.648z"/></svg>
