<svg xmlns="http://www.w3.org/2000/svg" width="316" height="178" fill="none"><g clip-path="url(#a)"><path fill="#F6F6F6" d="M0 0h316v177.75H0z"/><path fill="#fff" fill-rule="evenodd" d="M152.37 30.724c20.663-.704 37.868 6.22 54.607 13.426 20.075 8.641 45.828 15.733 49.633 31.444 3.999 16.509-13.343 32.441-30.995 45.511-17.614 13.042-39.656 25.886-65.607 26.018-24.751.126-39.379-15.099-57.448-25.393-17.732-10.102-43.408-17.424-45.166-33.065C55.617 72.85 75.84 59.236 94.274 47.99c16.251-9.915 36.414-16.527 58.096-17.266" clip-rule="evenodd"/><path fill="#fff" d="M100.602 120.011c.218.22.098.632-.209.692-.327.04-.658.051-.986.101-1.094.26-2.198.49-3.288.779-3.221.89-6.434 1.82-9.668 2.663-1.05.344-2.08.745-3.133 1.084-.838.203-1.705.554-2.576.388-.791-.108-1.613-.368-2.37-.533-1.978-.271-3.968-.532-5.917-.97-1.355-.258-2.69-.595-3.983-1.074-.618-.222-1.278-.244-1.926-.289-.312-.041-.697 0-.932-.24a.42.42 0 0 1 .019-.591c.192-.174.484-.18.727-.249.793-.207 1.577-.458 2.38-.631.94-.205 1.884-.332 2.813-.526 1.453-.258 2.864-.69 4.294-1.043 1.42-.289 2.83-.619 4.244-.928 1.57-.302 3.151-.615 4.63-1.233a.42.42 0 0 1 .426-.465c.26.005.516.093.775.067a.3.3 0 0 1 .065.022q.022.015.042.033c3.447.623 6.878 1.465 10.233 2.445.945.233 1.86.359 2.822.363.371.004.743.016 1.115.007.148-.016.298.015.401.128z"/><path fill="#fff" d="M118.466 123.219c.235.141.281.496.074.679a1 1 0 0 1-.15.097q-.246.083-.494.17c-.159.039-.318.073-.468.123-.946.267-1.919.421-2.877.642-.986.223-1.981.414-2.972.613-1.248.324-2.476.716-3.721 1.053-1.968.499-3.961.898-5.918 1.44-1.095.309-2.17.639-3.243 1.001-.694.2-1.397.509-2.127.498a19.4 19.4 0 0 1-3.882-.659c-.87-.251-1.837-.344-2.578-.899-1.933-.064-3.78-.624-5.659-1.014-.364-.058-.732-.073-1.098-.106-.38-.067-.884.017-1.103-.347a.422.422 0 0 1 .22-.588c.997-.324 1.907-.809 2.906-1.114 1.694-.555 3.473-.809 5.161-1.39 2.195-.805 4.498-1.228 6.774-1.738 1.461-.293 2.878-.765 4.343-1.034.17-.064.353-.063.528-.097.089-.022.208-.004.23.095.653.143 1.292.306 1.931.467.724-.107 1.42.323 2.13.437q1.147.188 2.295.379c1.086.133 2.175.267 3.242.494q.394.055.788.102c1.226.129 2.456.196 3.674.385.489.049.973.124 1.458.203.179.024.371.011.534.104z"/><path fill="#fff" d="M129.231 131.118c.181.178.133.505-.07.65-.174.106-.381.152-.57.227-.717.26-1.452.477-2.16.767a40 40 0 0 1-5.838 2.055c-1.456.77-2.985 1.402-4.533 1.967-2.216.828-4.527 1.345-6.774 2.079-.368.108-.72.255-1.062.427-.312.119-.621.371-.965.324-.884.369-1.746.785-2.623 1.167-.691.301-1.477.482-2.224.288a579 579 0 0 1-6.442-1.722c-1.433-.387-2.835-.881-4.272-1.261-1.44-.334-2.868-.716-4.301-1.08-1.026-.214-2.068-.363-3.085-.624-.592-.139-1.204-.156-1.8-.279-.443-.089-.887-.175-1.329-.278-.239-.073-.525-.11-.682-.32-.178-.229-.04-.587.244-.65 1.783-.492 3.637-.953 5.38-1.537 2.796-1.041 5.679-1.839 8.573-2.571 1.6-.37 3.127-.98 4.712-1.395 1.759-.404 3.479-.95 5.226-1.393.888-.201 1.791-.336 2.665-.591-.133-.335.232-.664.561-.534.342.071.686.128 1.032.183.114-.011.266-.039.349.058 2.223.368 4.409.906 6.601 1.424 3.069.295 6.076 1.032 9.078 1.669.804.174 1.594.425 2.404.562.424.042.845.084 1.265.148.226.039.477.057.636.236zm21.554-7.508c.862-.132 1.004.723.183.97-1.361.41-2.748.748-4.118 1.133-2.203.816-4.433 1.572-6.715 2.139a.6.6 0 0 0-.3.073q-.282.068-.567.134c-.962.201-1.842.661-2.774.964-.827.299-1.659.582-2.488.875-.608.212-1.215.428-1.814.668-.459.152-.906.445-1.402.416a107 107 0 0 0-3.717-.663c-1.123-.24-2.241-.512-3.349-.716-1.679-.283-3.37-.506-5.003-.995-1.316-.22-2.648-.366-3.941-.71-.974-.196-1.923-.513-2.901-.687-.298.013-.59-.016-.89.013-.196-.018-.429-.003-.571-.159-.276-.328-.041-.739.362-.785 1.713-.394 3.377-.957 5.088-1.369a64 64 0 0 1 2.52-.911c3.531-1.207 7.156-2.151 10.819-2.877-.057-.255.161-.507.424-.498.279.013.545.131.813.212a.46.46 0 0 1 .511.156c.756.206 1.54.252 2.317.329 1.5.145 3 .293 4.496.476 1.439.207 2.84.624 4.296.732 1.888.205 3.798.311 5.633.823q.366.095.732.185c.207.039.45.117.505.344q.233.022.466.022c.457-.119.916-.23 1.382-.289z"/><path fill="#fff" d="M163.39 131.137c.347-.032.817.099.797.522-.041.368-.464.6-.769.747a17 17 0 0 0-4.089 1.623c-1.496.908-3.05 1.731-4.681 2.376-.363.108-.777.547-1.148.291-1.386.743-2.88 1.294-4.189 2.17.066.335-.237.511-.531.535-.253.064-.553.208-.758-.026a.4.4 0 0 1-.095-.163c-2.126-.241-4.259-.465-6.354-.913-1.613-.41-3.223-.835-4.877-1.067-1.564-.243-3.138-.419-4.704-.642-.566-.079-1.134-.143-1.696-.257-.429-.106-1.326-.141-1.141-.781-.882-.028-1.735-.264-2.599-.419-.651-.127-1.29-.313-1.949-.337-.303.077-.625.3-.937.17-.291-.122-.311-.531-.056-.703.272-.142.586-.194.871-.309.679-.258 1.346-.54 2.025-.802 2.018-.894 3.989-1.725 6.072-2.437.793-.289 1.603-.513 2.417-.725.318-.055.704-.302.985-.048 1.191-.55 2.417-1.054 3.697-1.363l.05-.011a.42.42 0 0 1-.07-.443.44.44 0 0 1 .176-.201.56.56 0 0 1 .299-.073c.202-.002.426.056.61.08q.606.092 1.21.17c3.072.427 6.129.956 9.175 1.532 2.905.364 5.856.496 8.715 1.148 1.16.28 2.353.366 3.542.355zm27.96 3.937c.768.639-.623 1.237-1.078 1.536-.834.428-1.642.9-2.484 1.315-1.549.776-2.959 1.778-4.41 2.715-.032.223-.226.393-.383.541a8 8 0 0 1-.873.652c-.718.439-1.346 1.001-2.04 1.477-.599.428-1.209.84-1.796 1.285-.321.194-.645.618-1.056.534a.425.425 0 0 1-.66-.192c-.458-.018-.921.009-1.379-.057-.736-.117-1.452-.326-2.199-.386a64 64 0 0 1-1.513-.243c-.37-.09-1.034-.03-1.014-.562-3.217-.2-6.367-.928-9.5-1.629-2.089-.196-4.135-.668-6.202-1.001-.352-.055-.72-.077-1.038-.246-.453-.091-.908-.175-1.357-.28-.366-.078-.712-.214-1.069-.32-.405-.117-.834-.154-1.23-.304a.1.1 0 0 1-.089.035.1.1 0 0 1-.057-.033c-.094.011-.159.101-.259.081a.28.28 0 0 1-.165-.11c-.26-.381.261-.785.642-.672l.024.006a.4.4 0 0 1 .113-.169c.148-.137.322-.238.499-.331.672-.364 1.361-.694 2.051-1.025 1.606-.77 3.207-1.548 4.812-2.322a125 125 0 0 1 4.429-1.99q1.273-.672 2.543-1.348c.219-.121.452-.215.668-.335a.83.83 0 0 1 .496-.132c1.453.249 2.934.293 4.397.478 2.112.329 4.2.805 6.307 1.171 1.283.252 2.589.373 3.887.52 1.712.192 3.421.411 5.13.646 1.418.157 2.822.415 4.246.53.39.03.78.05 1.171.074.149.009.303.011.436.091"/><path fill="#fff" d="M228.523 134.509a.45.45 0 0 1 .133.432c-.551.393-1.084 1.109-1.526 1.713-.225.033-.366.26-.347.47a5 5 0 0 1-.182.229 9 9 0 0 1-.211.313c-.318.333-.638.666-.969.99a283 283 0 0 0-4.364 4.262q-.41.385-.805.786c.147.276-.051.693-.469.605l-.095-.012c-.125.131-.262.245-.416.258a.4.4 0 0 0-.307-.118.4.4 0 0 1-.133-.247c-1.797-.219-3.6-.397-5.405-.545q-2.195-.194-4.393-.383h-.003q-.553-.065-1.106-.135c-1.818-.13-3.629-.337-5.441-.534-1.942-.123-3.832-.617-5.763-.84a88 88 0 0 0-2.291-.29 23 23 0 0 0-2.125-.334c-.871-.119-1.725-.352-2.604-.42-.908-.062-1.821-.117-2.709-.331q-.131-.034-.27-.062l-.176.101c-.105.051-.209.122-.314.183q-.186-.017-.372-.031c.002-.202-.14-.405-.359-.431a.5.5 0 0 1 .226-.247c-.12-.41.287-.602.612-.715a27 27 0 0 0 3.795-2.054c.372-.208.707-.514 1.11-.657.952-.66 1.914-1.312 2.857-1.985.806-.579 1.546-1.239 2.343-1.831.461-.358.943-.691 1.422-1.026.237-.149.426-.429.727-.436.952.198 2.038.168 2.989.251.847.042 1.699.038 2.541.144.795.096 1.644.279 2.415.416 1.429.23 2.853.487 4.281.723 3.601.543 7.24.688 10.861 1.032 1.31.174 2.624.324 3.943.415a91 91 0 0 1 1.957.13c.312.055.675.017.937.211z"/><path fill="#fff" d="M219.274 144.554c.159.163.189.457-.046.675-.788 1.054-1.837 1.869-2.763 2.8-1.015.932-1.886 1.997-2.815 3.011-1.013 1.098-1.927 2.288-3.001 3.329a.43.43 0 0 1-.44.099c-.141.163-.283.327-.391.448q-.545.629-1.085 1.263a.315.315 0 0 1-.059.353q-.345.33-.685.665a.4.4 0 0 1-.305.3l-.42.415c-.118.17-.349.269-.541.159-.171-.093-.226-.285-.169-.461q.008-.022.019-.042c-.196.015-.407-.022-.594-.022-.902-.095-1.816-.124-2.707-.291-.685-.117-1.326-.393-1.938-.688-1.683-.359-3.359-.741-5.055-1.019-.373.373-1.002.062-1.453.007a16 16 0 0 0-1.252-.242c-1.498-.184-3.033-.208-4.466-.728-1.375-.172-2.806-.199-4.086-.8-.325-.155-.728-.307-.884-.653-1.25-.2-2.48-.423-3.719-.672-.686-.122-1.352-.337-2.034-.472-.743-.121-1.485-.245-2.234-.331-.792-.062-1.544-.311-2.319-.458-.786-.133-1.555-.353-2.345-.454-.274.198-.621.483-.903.143-.377-.558.57-.855.89-1.162 1.171-.857 2.463-1.523 3.621-2.398 2.278-1.502 4.47-3.111 6.687-4.698a19 19 0 0 1 2.232-1.676q.298-.195.6-.384a.36.36 0 0 1 .27-.169c.192-.11.375-.287.61-.267h.013c.218.026.362.229.359.43q.186.014.371.031c.609.051 1.217.112 1.824.148.728.013 1.442.158 2.165.244 1.402.17 2.808.311 4.211.47.766.088 1.53.181 2.292.289 1.93.222 3.82.718 5.762.84 1.813.198 3.623.405 5.441.535q.551.069 1.106.135h.004c1.109.132 2.219.257 3.328.388 1.678.172 3.348.432 5.007.74.436.073.874.119 1.313.168l.038-.035a.53.53 0 0 1 .246-.088.4.4 0 0 1 .307.118z"/><path fill="#fff" d="M250.518 143.542c.609 1.569.361 4.156-.227 5.716-.718 1.826-1.877 3.579-3.139 5.051a9.36 9.36 0 0 1-4.188 2.892c-6.543 2.401-13.552 3.955-20.556 3.697-4.368-.185-8.832-.46-12.995-1.867-.66-.236-2.436-.681-1.487-1.609.69-.637 1.365-1.299 2.123-1.858.054-.17.209-.333.35-.463.279-.303.541-.624.815-.935 1.631-1.823 3.416-3.505 5.043-5.333.766-.805 1.57-1.574 2.306-2.407.54-.653 1.143-1.248 1.718-1.87q.657-.802 1.336-1.589c1.562-1.797 3.414-3.343 4.775-5.303q.108-.154.21-.313.086-.103.182-.229c-.019-.211.124-.438.347-.471.442-.603.975-1.319 1.526-1.713.226-.161.453-.267.679-.289.656.064 1.305.227 1.962.31 1.918.303 3.861.415 5.775.744 2.053.399 4.091.908 6.096 1.498.904.245 1.711.728 2.508 1.204.667.393 1.342.794 1.936 1.294.629.523 1.134 1.171 1.624 1.821.486.633 1.002 1.266 1.283 2.018z"/><path fill="#000" d="M64.293 122.191c-.076-.481.4-.519.754-.583q.462-.102.923-.198c1.417-.32 2.837-.624 4.246-.974 3.48-.887 7.026-1.497 10.52-2.335 1.17-.328 2.357-.609 3.517-.97.486-.148.958-.232 1.439-.39.124-.031.259-.104.379-.027v.002c.6.466-1.592.999-1.877 1.151-1.838.648-3.73 1.136-5.632 1.568-2.54.564-5.098 1.051-7.624 1.68-1.652.418-3.314.78-4.977 1.15-.388.08-.777.164-1.167.243a.427.427 0 0 1-.503-.318z"/><path fill="#000" d="M96.757 130.224c-.703.01-1.38-.195-2.064-.323-1.964-.432-3.88-1.053-5.84-1.501-2.743-.67-5.469-1.186-8.186-1.929-2.241-.6-4.512-1.089-6.781-1.58-1.866-.357-3.732-.712-5.56-1.231-.769-.202-1.538-.397-2.304-.615-.38-.106-.76-.214-1.135-.335-.165-.051-.337-.112-.435-.262-.27-.381.464-.714.657-.344 2.075.481 4.116 1.045 6.199 1.484 1.161.229 2.328.423 3.484.672 2.866.58 5.696 1.318 8.531 2.035 2.412.527 4.827 1.063 7.22 1.664 1.555.402 3.094.882 4.671 1.195.524.102 1.038.247 1.576.234.544.042.529.833-.035.833zm16.764-7.211-2.774-.565-3.218-.657-3.286-.672-3.411-.699-3.441-.71q-1.732-.36-3.464-.717a426 426 0 0 1-4.437-.943l-.06-.013-.023-.003-.044-.01h-.008l-.114-.025-.403-.088c-.056-.013-.111-.024-.124-.028l-.33-.073q-.76-.166-1.52-.34a15 15 0 0 1-.706-.178 5 5 0 0 1-.348-.108c-.103-.038-.218-.089-.26-.197a.19.19 0 0 1 .042-.198c.094-.093.246-.082.368-.073q.203.014.403.046.417.061.83.137.854.155 1.706.316l.682.13h.004q1.363.26 2.726.528c1.155.226 2.31.461 3.465.691q1.73.347 3.459.698 1.724.347 3.449.699l3.378.686 3.231.659 3.266.666 1.097.223a.44.44 0 0 1 .273.163.4.4 0 0 1 .078.313.43.43 0 0 1-.41.357.4.4 0 0 1-.073-.007z"/><path fill="#000" d="M78.215 135.41c-.136-.518.354-.566.733-.655.606-.167 1.22-.31 1.834-.452 2.956-.738 5.859-1.622 8.75-2.574 2.282-.803 4.599-1.632 6.922-2.247 4.207-1.263 8.492-2.244 12.756-3.3 3.438-.911 6.882-1.828 10.285-2.853 2.755-.78 5.531-1.49 8.301-2.216.474-.136.942-.29 1.417-.416.174-.024.36-.104.525-.024.08.041.12.132.081.216-.038.075-.114.103-.188.134a19 19 0 0 1-3.114 1.127c-5.336 1.496-10.634 3.119-15.992 4.541-4.401 1.158-8.902 2.121-13.258 3.422-1.363.405-2.687.753-4.022 1.201-1.539.534-3.068 1.098-4.62 1.6q-3.09.974-6.213 1.837c-.962.269-1.939.472-2.906.721-.436.068-1.045.467-1.289-.06z"/><path fill="#000" d="M102.532 141.816h-.004l.046.021.043.017c-.113-.038-.231-.068-.346-.099l-.396-.11q-.397-.109-.795-.221-.796-.223-1.594-.443-1.647-.457-3.294-.911l-3.321-.919-3.31-.915-3.344-.926q-1.653-.46-3.303-.923a347 347 0 0 1-3.342-.951q-.264-.076-.523-.16a7 7 0 0 1-.307-.108.5.5 0 0 1-.146-.08q-.036-.028-.065-.066a.3.3 0 0 1-.043-.097.21.21 0 0 1 .067-.211c.124-.113.307-.078.457-.049q.21.045.418.095l.819.207q.815.212 1.63.428 1.662.442 3.322.89l3.381.913 3.301.895 3.386.921 3.287.891 3.219.871c.342.093.685.189 1.029.278l.011.002a.42.42 0 0 1 .342.533.42.42 0 0 1-.394.291.5.5 0 0 1-.229-.063zm49.878-17.469c-.925-.134-1.847-.262-2.772-.394q-1.426-.201-2.852-.406l-2.872-.41-2.876-.414q-1.447-.208-2.892-.419l-2.887-.424q-1.42-.21-2.837-.432-.705-.109-1.409-.227a17 17 0 0 1-.692-.128 5 5 0 0 1-.347-.085c-.113-.032-.241-.069-.315-.162a.2.2 0 0 1 .041-.282c.1-.072.233-.072.351-.07q.165.001.328.013.373.031.745.073.732.084 1.461.18 1.421.18 2.843.373l2.89.393c.962.132 1.923.268 2.885.399q1.441.2 2.883.403l2.876.404 2.861.403q1.356.193 2.713.384a.423.423 0 0 1 .355.474.43.43 0 0 1-.42.356q-.031.001-.059-.004z"/><path fill="#000" d="M102.746 141.629a.42.42 0 0 1 .251-.536c.476-.177.956-.344 1.432-.518 1.47-.549 2.96-1.03 4.442-1.55 4.059-1.396 8.056-2.967 12.061-4.504 5.391-1.944 10.762-3.938 16.139-5.917 3.353-1.072 6.701-2.156 10.063-3.197 1.742-.507 3.514-.901 5.257-1.395a.055.055 0 0 1 .049-.066c.098-.007.196-.029.294-.042a.1.1 0 0 1 .103.075c.046.152-.111.28-.235.339-1.869.796-3.88 1.202-5.794 1.874-3.071 1.078-6.169 2.086-9.263 3.099-2.543.902-5.045 1.908-7.584 2.822-2.576.917-5.13 1.896-7.71 2.805-4.013 1.492-7.973 3.119-12.021 4.513-1.981.709-3.983 1.358-5.957 2.09l-.984.356a.427.427 0 0 1-.541-.249z"/><path fill="#000" d="m130.951 131.801-2.228-.461q-1.448-.298-2.892-.601-1.486-.311-2.974-.616a530 530 0 0 1-2.991-.625l-3.018-.633q-1.518-.32-3.036-.644-1.482-.319-2.961-.65l-1.511-.336q-.374-.084-.747-.171c-.259-.06-.52-.113-.773-.192-.155-.047-.388-.106-.387-.305q0-.035.015-.068c.059-.143.239-.137.368-.128.13.009.257.029.385.049q.363.06.727.126.764.14 1.525.286c1.006.19 2.012.375 3.015.576 1.017.204 2.036.403 3.053.606q1.519.304 3.037.611l2.973.603q1.483.301 2.961.604l2.902.592 2.698.551a.42.42 0 0 1 .346.484.43.43 0 0 1-.488.34zm60.821 3.586c-.242-.013-.482-.039-.723-.062a65 65 0 0 1-1.529-.183c-1.021-.132-2.044-.264-3.064-.405a1392 1392 0 0 1-12.262-1.735q-3.205-.463-6.415-.93l-6.271-.909q-3.2-.464-6.399-.93l-6.434-.933q-3.107-.45-6.212-.903c-.466-.067-.93-.139-1.396-.203q-.016 0-.031-.003l-.122-.019a.42.42 0 0 1-.348-.481.426.426 0 0 1 .484-.344l.123.018q.01 0 .018.004c.719.108 1.443.209 2.162.313l3.033.441q3.232.471 6.463.939l6.325.919q3.199.464 6.399.931l6.3.917 6.229.911q3.08.453 6.158.919c2.037.309 4.074.617 6.105.961.381.064.764.128 1.143.207.168.035.338.068.503.119.1.031.209.077.264.168a.156.156 0 0 1-.031.19.32.32 0 0 1-.179.074q-.075.01-.15.009-.07 0-.143-.004zm-14.665 10.351q-.018-.001-.037-.008a.1.1 0 0 1-.028-.007c-.432-.09-.869-.168-1.304-.254l-1.662-.324q-1.7-.333-3.397-.663l-6.887-1.345-7.301-1.424-7.046-1.376q-3.435-.67-6.873-1.345c-2.28-.449-4.56-.895-6.84-1.347q-3.424-.673-6.845-1.36-1.723-.348-3.445-.701-.848-.173-1.696-.355a45 45 0 0 1-.83-.185q-.409-.091-.814-.19a14 14 0 0 1-.529-.15c-.115-.035-.27-.066-.329-.183a.16.16 0 0 1 .035-.196q.003-.001.006-.006.011-.01.025-.018a.34.34 0 0 1 .182-.038q.095.002.192.014l.216.02c.28.03.557.074.834.119.272.046.546.086.82.132q.441.076.88.156 1.717.311 3.432.633 3.44.644 6.874 1.31 3.402.655 6.8 1.313l6.954 1.35q3.539.691 7.081 1.378l7 1.364 7.109 1.385 6.75 1.316c.253.05.508.103.762.15l.024.004.026.005h.009l.052.013c.201.051.323.278.286.472a.43.43 0 0 1-.49.337z"/><path fill="#000" d="M169.471 150.855c-.324-.379.104-.689.405-.894a53 53 0 0 1 1.8-1.286c2.252-1.675 4.643-3.15 6.97-4.72a374 374 0 0 1 10.878-7.337c.754-.496 1.54-.941 2.315-1.402.797-.503 1.583-1.034 2.391-1.514l-.018.011-.021.013c.879-.547 1.779-1.06 2.656-1.605.403-.258.799-.529 1.208-.781.192-.101.39-.231.61-.246.176.05 0 .233-.083.293a25.5 25.5 0 0 1-2.85 2.143c-1.491.957-2.952 2.034-4.474 2.932-1.714 1.064-3.367 2.224-5.048 3.338-3.144 2.041-6.161 4.265-9.299 6.314-1.777 1.117-3.482 2.336-5.193 3.547-.571.41-1.143.817-1.698 1.249-.161.126-.412.091-.549-.054z"/><path fill="#000" d="M169.59 150.886a.304.304 0 0 1 .013-.428c.251-.238.525-.452.799-.666.745-.59 1.533-1.12 2.322-1.651 2.138-1.444 4.193-3.003 6.338-4.438 1.047-.741 2.12-1.441 3.194-2.142 1.583-1.103 3.159-2.216 4.784-3.259 1.85-1.278 3.814-2.366 5.672-3.624 1.33-.893 2.619-1.841 3.965-2.708.638-.392 1.226-.947 1.966-1.128.309.009.305.333.07.492-.429.368-.887.705-1.333 1.053-2.354 1.695-4.705 3.424-7.218 4.885-2.75 1.718-5.398 3.583-8.078 5.404-2.722 1.759-5.335 3.677-7.985 5.54a148 148 0 0 1-3.168 2.099 39 39 0 0 1-.942.606.314.314 0 0 1-.401-.039z"/><path fill="#000" d="M229.023 135.068c-.308-.033-.615-.071-.924-.106l-1.824-.208q-1.886-.214-3.772-.431-1.911-.219-3.821-.435-1.912-.218-3.821-.438l-3.843-.439-3.865-.444-3.782-.443q-.95-.113-1.899-.229a57 57 0 0 1-1.84-.247c-.27-.042-.544-.075-.812-.134a2 2 0 0 1-.357-.102c-.089-.039-.166-.092-.205-.182-.028-.062-.008-.137.031-.19.052-.068.143-.101.224-.115a2 2 0 0 1 .353-.022c.272 0 .544.029.814.051.595.044 1.189.104 1.731.161 1.285.132 2.567.277 3.85.419q1.902.21 3.802.427 1.925.216 3.849.435l3.813.434 3.83.437 3.83.438 3.712.423c.322.036.643.077.967.111q.018-.001.035.004l.065.007c.227.028.383.266.346.482a.42.42 0 0 1-.169.269.42.42 0 0 1-.253.076q-.03 0-.063-.003z"/><path fill="#000" d="M206.995 158.422c-.17-.139-.211-.423-.054-.59l.012-.012c.706-.751 1.411-1.507 2.117-2.257l2.558-2.725q1.299-1.386 2.598-2.767l2.652-2.824q1.325-1.412 2.65-2.821l2.661-2.827q1.31-1.393 2.626-2.78c.879-.926 1.754-1.852 2.645-2.764.03-.029.059-.058.074-.075.292-.304.592-.604.889-.902q.225-.226.455-.448a4 4 0 0 1 .22-.191.5.5 0 0 1 .239-.13.23.23 0 0 1 .264.207c.01.077-.025.141-.061.205-.037.066-.086.128-.133.189q-.142.179-.296.355c-.201.23-.403.463-.606.69l-.398.442-.066.057c-.196.17-.409.375-.542.612q-.114.123-.226.247-1.288 1.399-2.583 2.792-1.305 1.403-2.615 2.802l-2.68 2.865q-1.32 1.412-2.645 2.822l-2.615 2.789-2.603 2.778-1.652 1.761q-.134.09-.235.219-.076.074-.148.15a5 5 0 0 0-.451.502l-.037.055-.017.018c-.469.5-.941.996-1.405 1.499a.44.44 0 0 1-.292.148h-.032a.44.44 0 0 1-.272-.097z"/><path fill="#000" d="M209.241 156.577h.004l-.004.006-.022.022.022-.026zm-1.889 2.042q-.261-.05-.523-.104l-.015-.002-.102-.02-.046-.011c-1.135-.231-2.273-.454-3.408-.683l-4.544-.913-4.668-.941-4.793-.966-9.643-1.945a1645 1645 0 0 1-4.817-.985c-1.5-.309-3.004-.613-4.453-.95l-.056-.013q-.308-.07-.614-.148c-.094-.025-.19-.049-.281-.088-.089-.038-.168-.095-.203-.188-.034-.092-.006-.181.059-.251.113-.119.318-.088.464-.069q.279.036.555.086.546.091 1.093.192 1.176.217 2.352.444 2.403.469 4.803.945 2.43.481 4.856.966 2.396.48 4.792.957l4.816.963q2.353.469 4.708.941 2.3.462 4.599.92l4.309.864.235.048q.011 0 .022.003l.642.128a.423.423 0 0 1 .346.482.43.43 0 0 1-.487.342zm1.756-2.662a.43.43 0 0 1 .556-.212q.147.066.296.128c-.12.07-.227.16-.312.269l-.148.15a8 8 0 0 0-.2.205.42.42 0 0 1-.192-.54m18.53-19.238a3 3 0 0 1-.292-.104c-.079-.035-.172-.084-.2-.17a.17.17 0 0 1 .041-.176c.046-.047.115-.062.18-.068q.141-.008.282.013c.174.02.348.055.52.088l.046.009-.172.147a4 4 0 0 0-.305.291zm-140.61-13.827a27 27 0 0 0-6.31-2.017c-.734.004-.725-.961-.009-.849a27.8 27.8 0 0 1 6.486 2.022c.198-.478.301-2.244 1.072-1.955.156.066.24.216.243.379-.152.498-.343 1.001-.439 1.525-.135.578-.272 1.318-1.045.897zm-6.452 3.34a.42.42 0 0 1 .054-.313.44.44 0 0 1 .266-.188l2.734-.751 3.105-.853 3.188-.874c1.006-.277 2.012-.549 3.018-.826q1.577-.431 3.157-.855c1.047-.281 2.097-.56 3.15-.821a40 40 0 0 1 2.235-.5q.194-.039.389-.064a2 2 0 0 1 .166-.016.4.4 0 0 1 .17.016q.005 0 .009.004c.091.04.119.157.056.234a.3.3 0 0 1-.069.059l-.009.005c-.218.13-.468.209-.706.295q-.369.132-.738.252-.77.254-1.546.483c-1.047.312-2.1.61-3.151.904q-1.576.44-3.155.877l-3.044.84-3.204.881q-1.543.422-3.086.849l-2.48.681a.4.4 0 0 1-.096.012.434.434 0 0 1-.409-.327zm22.334.456c-1.626-.538-2.319-1.861-2.033-3.503-1.07.555-2.289.71-3.412 1.127-.593.202-1.18.421-1.779.606-.427.073-1.167.593-1.413.024-.077-.207.03-.467.25-.536q.51-.161 1.02-.319c1.033-.333 2.044-.726 3.093-1.01.527-.143 1.062-.269 1.563-.49.416-.165.767-.489 1.2-.601.544-.011.52.524.399.904-.351 1.399-.062 2.572 1.445 3.033.912.097 1.982-.209 2.507-.994-.033-.141.063-.304.217-.309.344-.04.433.393.299.637-.536 1.186-2.136 1.709-3.356 1.433zm-.346 9.145c-.292-.664.925-.816 1.317-1.104 1.173-.615 2.36-1.207 3.542-1.808.9-.375 1.792-.781 2.639-1.255.231-.044.492.062.697.1q1.023.228 2.029.526 1.39.386 2.74.887c.302.145.686.132.945.344.25.255.039.716-.322.694-.691-.145-1.348-.425-2.015-.652-1.276-.395-2.562-.776-3.869-1.054-.731.396-1.481.756-2.256 1.062a204 204 0 0 0-3.527 1.788c-.383.207-.784.371-1.173.562-.236.163-.591.21-.747-.086z"/><path fill="#000" d="M110.632 135.154c-1.078-.36-2.21-.578-3.311-.874-1.394-.339-2.764-.767-4.14-1.177-.564-.163-1.128-.328-1.7-.469-.381-.121-1.115-.135-.98-.704a.426.426 0 0 1 .525-.28c.355.1.714.19 1.071.283 1.028.279 2.038.621 3.059.925 1.379.446 2.777.838 4.164 1.264.496.154.997.313 1.456.555a.26.26 0 0 1 .113.293.26.26 0 0 1-.259.183zm25.192-7.792c-.73-.155-1.472-.602-1.657-1.363-2.106 1.727-6.743 1.572-7.011-1.743-.042-.865.442-1.786 1.356-1.963.31-.099.762-.183.86.232.1.47-.439.533-.775.608-.734.289-.729 1.336-.353 1.908.464.767 1.318 1.164 2.2 1.203 1.437.075 3.07-.361 3.791-1.693.191-.26.662-.221.766.099.104.485-.231 1.045.152 1.468 1 .929 3.223.399 3.386-1.045-.797-.42.274-1.276.697-.449.281.531.028 1.15-.288 1.607-.668.97-2.001 1.305-3.126 1.127zm10.963 9.516c-.462-.318 0-.783.3-1.021.828-.834 1.827-1.495 2.837-2.095-1.213-.509-2.534-.641-3.777-1.056-.823 1.936-3.084 2.69-5.072 2.661-1.35.038-2.893-.119-3.854-1.164-.533-.584-.402-1.433.044-2.026.694-1.097 2.267-1.693 3.506-1.258.213.085.304.352.213.553-.189.419-.612.143-.939.136-.977 0-1.963.521-2.303 1.462a.6.6 0 0 0 .009.413l-.011-.027q0-.007-.009-.022c.718 1.164 2.373 1.098 3.591 1.096 1.648-.018 3.479-.673 4.125-2.293.173-.408.636-.465 1.011-.309.496.15.991.294 1.498.404.932.132 1.787.513 2.683.763.265.046.589.147.611.458-.074.716-1.247.996-1.728 1.449-.569.405-1.181.756-1.669 1.261-.332.226-.602.881-1.066.619zm1.322 2.896a.42.42 0 0 1 .201-.556q.005-.001.01-.006h.001l.289-.142.011-.006c1.235-.606 2.469-1.219 3.702-1.826q2.22-1.098 4.441-2.191l4.438-2.187c1.269-.624 2.536-1.25 3.808-1.867a.4.4 0 0 1 .085-.055 1 1 0 0 1 .218-.075c.196-.044.4.088.459.271a.4.4 0 0 1-.126.428 1 1 0 0 1-.196.125.5.5 0 0 1-.09.031q-2.02 1.008-4.045 2.009l-4.455 2.202q-2.21 1.094-4.42 2.183c-1.154.57-2.304 1.142-3.46 1.708h-.004l-.005.004-.257.126-.024.013-.01.003h-.003l-.004.004-.035.015a.43.43 0 0 1-.533-.213zm28.809 1.659a.41.41 0 0 1-.228-.344.42.42 0 0 1 .082-.271c-.161-1.484-2.096-2.967-3.268-3.785-.026.615-.37 1.161-.805 1.578-.726.796-1.738 1.215-2.798 1.36-1.437.179-3.132-.317-4.088-1.422-.757-1.031-.117-2.23.893-2.797.453-.337 1.009-.421 1.557-.478a7.9 7.9 0 0 1 3.205.028c1.812.344 3.34 1.517 4.601 2.798.645.687 1.32 1.472 1.455 2.431.048.457.015 1.105-.604.9zm-7.673-2.253c.899-.035 1.858-.249 2.541-.864.52-.439 1.098-1.074.786-1.793-1.62-.714-3.568-.729-5.23-.18-2.517 1.408.24 2.802 1.905 2.835zm50.432 5.864-.074-.016-.17-.02-.594-.074q-.6-.072-1.196-.146l-2.502-.309q-2.541-.314-5.082-.632l-5.125-.637-5.234-.651q-2.64-.33-5.283-.657a3090 3090 0 0 0-5.104-.635q-2.146-.266-4.291-.535l-.183-.022c-.229-.029-.405-.217-.386-.45.018-.22.227-.41.454-.382q1.962.245 3.925.488l5.145.641 5.281.657 5.214.65 5.109.636 5.125.639c1.631.203 3.262.405 4.891.615a1 1 0 0 0 .147.013 1 1 0 0 1 .127.026h.006a.4.4 0 0 1 .111.04l.044.025c.087.061.15.152.168.26.037.205-.09.388-.283.458a.4.4 0 0 1-.138.018h-.05q-.029.001-.058-.004zm-16.505 5.4c-2.227-.093-4.451-.726-6.314-1.954-1.842.741-3.808 1.109-5.79 1.202-1.33.024-2.793.158-4.02-.43-.712-.315-1.108-1.034-1.177-1.781-.053-.906.527-2.059 1.428-2.364 1.2-.461 2.502-.311 3.743-.128 1.894.272 4.733 1.122 6.068 2.514.965-.347 1.925-.732 2.933-.937.749-.135 1.503-.23 2.258-.329 1.178-.161 2.399-.313 3.556.047.884.204 1.964.731 1.922 1.772-.015.862-.884 1.301-1.539 1.693-.927.52-2.016.728-3.07.695zm.046-.825c1.077.029 2.151-.243 3.041-.855 1.732-1.026-.222-1.662-1.28-1.819-1.217-.157-2.436.128-3.643.265-1.269.127-2.477.528-3.658.98v.04c1.723.88 3.626 1.296 5.542 1.391zm-13.322-.73c2.104-.015 4.235-.264 6.206-1.014a.3.3 0 0 1-.002-.181c-1.544-1.027-3.357-1.609-5.186-1.884-.876-.106-1.764-.269-2.644-.091-.375.079-.805.148-1.078.437-.463.593-.653 1.285-.252 1.966.714.825 1.959.704 2.956.767m26.164-8.43c-.266-.069-.529-.157-.792-.236l-1.159-.347q-1.152-.347-2.301-.69l-4.875-1.463-4.839-1.453-2.107-.631a.42.42 0 0 1-.273-.525.427.427 0 0 1 .53-.271q1.839.551 3.681 1.105l4.91 1.473 4.762 1.43 1.518.455.754.227q.145.046.291.09c.172-.194.335-.395.503-.591l.671-.78.664-.772c.174-.201.353-.399.522-.606.144-.177.427-.187.595-.042a.42.42 0 0 1 .043.589c-.196.242-.407.473-.609.709l-.725.843q-.373.436-.747.87l-.348.406a.7.7 0 0 1-.295.22.5.5 0 0 1-.163.027 1 1 0 0 1-.204-.029z"/><path fill="#000" d="M204.837 138.921a.4.4 0 0 1-.097-.3.45.45 0 0 1 .15-.289l2.983-2.749.664-.611.019-.017.003-.004.004-.003c.168-.154.453-.116.596.053.153.181.114.434-.054.589l-.004.004-.003.003q-1.637 1.505-3.272 3.013l-.394.364a.38.38 0 0 1-.261.097.45.45 0 0 1-.334-.15m16.852 22.322a57.3 57.3 0 0 1-14.602-2.434c-.598-.181-.416-1.07.24-.941 2.042.542 4.069 1.148 6.149 1.529 7.431 1.29 15.139 1.288 22.503-.365 3.665-.845 7.416-2.047 10.293-4.498 1.94-1.717 3.141-4.134 3.623-6.644.89-4.423-1.3-7.73-5.302-9.581-1.455-.699-3.025-1.11-4.603-1.44a97 97 0 0 0-5.317-.953c-1.529-.235-3.058-.491-4.595-.661-.426-.049-.853-.073-1.276-.134-.15-.023-.285-.062-.39-.179-.111-.124-.102-.322-.008-.45.318-.421 1.87-.116 2.391-.099 2.673.337 5.338.763 7.986 1.257 3.127.569 6.325 1.397 8.854 3.399 2.665 2.052 3.856 5.249 3.298 8.528-.542 3.804-2.732 7.288-6.118 9.206-6.341 3.693-15.856 4.762-23.128 4.46z"/><path fill="#000" d="M225.845 145.399c.163.049.282.17.307.315a.38.38 0 0 1-.066.281c.351 1.465 2.803 2.704 4.281 3.372-.035-.619.311-1.206.78-1.679.775-.889 1.926-1.435 3.165-1.713 1.681-.36 3.743-.078 4.997.906 1.008.935.381 2.215-.753 2.908-.499.394-1.15.548-1.792.674a11.1 11.1 0 0 1-3.797.379c-2.182-.116-4.12-1.097-5.751-2.218-.84-.604-1.726-1.304-1.988-2.248-.093-.393-.128-.937.36-.988a1 1 0 0 1 .257.011m11.895 3.878c2.828-1.726-.591-2.771-2.563-2.595-1.059.148-2.175.483-2.914 1.184-.568.505-1.182 1.213-.735 1.892 1.075.275 2.24.333 3.383.213a10.8 10.8 0 0 0 2.829-.694M130.654 92.228c-.279 9.128-3.804 18.466-4.712 27.077-.211 2.721-3.325 2.842-5.505 2.901-11.777 1.592-3.214-12.416-2.475-18.275 1.857-4.23 1.025-13.786-1.585-19.097a352 352 0 0 1-8.542 10.895c-4.514 2.67-10.668 2.172-15.051 2.106-3.1-1.442-3.475-7.577-.454-9.429 4.868-.135 8.202.844 8.485-5.527.995-3.479 1.151.727 2.541-.016.379.39.877.384 1.522.122 6.654 7.628 17.878-8.226 20.607-14.066.737-.668 1.567-1.514 1.887-1.33.797.46.203 5.669.693 7.18.746 5.833 2.525 11.554 2.589 17.457z"/><path fill="#FED980" d="M131.891 30.99c.234.637-1.458 1.697-1.955 1.135-3.255 2.1-1.944 6.836-1.313 10.133 1.526 10.306-.083 23.553-5.232 30.116-3.088 3.937-8.77 13.552-14.253 12.934-4.66-1.184-4.66-2.563-4.346-4.307 1.639-3.675 2.079-5.393 3.259-5.895.971-.227 3.219 2.1 2.145-1.978-1.47-3.83-5.522-3.65-7.453-.135-1.017 1.224-2.121 6.145-2.121 6.145s-1.339-.692-2.07-1.782c-.91-3.646 2.347-7.369 3.904-10.55-.029-2.734-.236-5.52.546-8.178 2.154-8.004 8.492-14.925 12.111-22.275 1.147-.586 7.427-3.203 10.904-2.76.875-1.724 4.917-4.475 5.874-2.601zm26.247 36.144c.741.461.16 1.44-.339.981-6.06-.53.039 4-1.759 4.345-.528-.126-1.666.878-2.161.675-5.602-3.534-9.597-12.613-15.019-16.982-1.515 2.134-5.657 16.536-7.201 15.23 1.879-9.35 4.714-18.989 5.328-28.456.005-.176-.058-.423.157-.487 1.76-.006 3.149-1.28 4.283-2.51 1.844.978 1.572 6.082 2.863 8.352 4.558 7.013 8.801 13.179 13.848 18.852"/><path fill="#fff" d="M136.694 43.814c-.151 8.276-1.455 18.014-9.06 23.44-.863 1.022-2.361 1.238-1.202-.413 2.968-6.987 2.765-14.864 2.608-22.311.125-3.668-3.686-11.179 1.862-12.072.35 1.127-1.093 2.53-1.494 3.675-.418 3.662 3.329 8.854 7.286 7.681"/><path fill="#fff" d="M146.39 31.058c-.217 4.467-4.823 10.595-9.399 11.14-.068.425-.05 1.343-.584 1.475-2.445.17-4.683-1.431-5.87-3.517-3.404-5.097 2.053-6.331 1.173-10.248-.934-4.324 3.06-3.102 2.587-1.583.619 4.975 3.173.235 6.068-2.221 2.395-2.034 5.161-2.444 6.027 4.956zm16.258 46.517a.54.54 0 0 1-.124-.278l-.022-.174-.032-.027c-.005.406-.436.741-.784.424-.262-.27-.284-.678-.403-1.02-.172.257-.579.263-.736-.013-.15-.23-.222-.496-.348-.734-.279-.495-.534-1.007-.667-1.56-.07-.375-.226-.719-.353-1.078-.389.042-.612-.364-.947-.481-.133-.084-.231-.209-.329-.33-.357-.159-.674-.388-.977-.63-.177-.003-.279-.175-.364-.306a18 18 0 0 1-1.223-1.175c-.238-.286-.553-.533-.691-.885-.089-.258.159-.547.427-.52.279-.61.945-.95 1.598-1.004.577-.015 1.115.287 1.57.613q.357.279.697.578c.179.12.366.262.412.478l.025.013.037.022c.451.02.756.428 1.091.683.216.2.567.345.623.66q.135.145.281.277c.516-.43.819.27.938.684.19.525.29 1.074.406 1.62.113.419.313.805.492 1.198.17.291.307.707-.101.872.155.521.671 1.985-.039 2.242a.44.44 0 0 1-.453-.15zm-52.093-2.624c.238.536-.646.904-1.012.553-2.955-1.629-3.049 3.01-4.52 5.133-.61.945-.044 3.137-1.621 2.246-.844 1.018-2.127-1.955-2.482-2.363-2.114-6.522 7.51-15.847 9.635-5.565z"/><path fill="#FFF7DB" d="M129.744 82.931c-1.664-4.542-1.503-10-2.18-15.353 1.147-.76 5.058-6.585 5.626-5.042-1.522 6.373-2.721 13.83-3.446 20.395"/><path fill="#FED980" d="M123.888 127.235c-2.467.115-4.967-.528-7.222-1.163-2.618.308-2.082-2.661-1.892-4.377 1.245-.586 2.728.937 4.091.909.516-.11 1.783-.584 1.343.452 1.117 1.311 9.248 3.917 3.68 4.177zm-34.415-27.089c-2.993-.61-.198-17.282 3.561-11.91-6.54 1.502.598 9.922-3.561 11.91"/><path fill="#000" d="M149.107 21.758c.803 1.105.854 2.644-.139 3.643-1.163 1.778.263 4.179-.736 5.967-2.256 1.288-1.596-2.606-2.167-3.704-4.984-9.083-10.355 8.387-11.498.622-2.352-4.85-3.151 2.134-4.042.85-5.693-7.155 2.901-13.475 10.186-12.023 2.844 1.211 5.82 2.91 8.398 4.643zm-45.82 50.56.005-.008zm29.891-7.022-.003.027-.033.125.036-.15zm1.464-6.076-.035.21-.037.132-.067.236z"/><path fill="#000" d="M134.609 59.415v.008l.001-.008zm1.093-1.336h.003l-.014.058zm1.291-13.919.013-.005.015-.005.015-.006.016-.005.017-.006.017-.005.016-.006.017-.005.015-.007.015-.006.015-.005.014-.006.008-.004q-.001.097-.006.193l-.003.034-.187-.153zm3.508 3.82-.013.045c-.06.209-.115.42-.174.63l-.021.047q.1-.363.206-.723zm.316-1.008a7 7 0 0 0 .154-.653v.051-.006q0 .033-.002.065v-.026l-.013.194a10 10 0 0 1-.245.7l.106-.323zm9.03 8.778-.017-.021.035.044zm-22.712-23.568h.02l.009.002h.01l.009.004h.009l.009.003h.01l.009.004h.009l.009.004h.01l.009.003.007.004h.008l.007.004.008.003.007.004.007.004.01.003.007.004.008.004.007.003.009.004.008.005.009.004.007.006.01.005.007.006.007.005.008.006.009.005.007.006.008.005.007.006.008.007.007.007.004.004-.071.051-.079.066zm3.939-2.185-.009-.015-.011-.015-.004-.007a.3.3 0 0 1 .028.042l-.004-.003zm9.722 11.022.013-.004h-.013zm-9.087-13.171-.003.006zm.703-.858-.005.003zm.016-.016-.002.002zm.017-.011.002-.002zm.027-.025-.024.02zm-1.142 1.696s0-.005.002-.007q.055-.161.126-.315a5 5 0 0 0-.124.353zm8.126 5.108a.3.3 0 0 0 .1.014.39.39 0 0 0 .375-.324c.037-.227-.155-.419-.377-.43-.519-.132-1.039-.276-1.581-.287q-.046.001-.105-.004c-.178-.005-.429-.013-.446.17 0 .06.05.1.102.117.022.02.051.042.079.037.359.137.745.2 1.097.36.257.107.488.268.756.345zm4.673.302c-.228-.093-1.598-.553-1.45-.02.061.163.247.216.395.278.241.1.476.214.685.37a.4.4 0 0 0 .229.079c.34 0 .549-.515.141-.707m-4.311 4.45c-.581-.028-1.045-.432-1.45-.802v.002c-.153-.103-.362.078-.309.249.069.23.25.411.415.58.336.325.712.637 1.192.703q.057.013.11.012c.427 0 .525-.666.042-.744m2.721-4.111c-.04-.227-.349-.223-.408-.004-.117.978.048 1.975 0 2.956-.4-.042-.758-.293-1.04-.563-.401-.383-.983.194-.601.594a2.9 2.9 0 0 0 1.214.721c.118.035.249.057.381.057.279 0 .554-.095.706-.344.229-.436.018-.946-.013-1.406-.072-.671-.168-1.341-.235-2.01zm-4.235-2.922c.072.01.136.003.208-.013a3.4 3.4 0 0 1 1.891.051.3.3 0 0 0 .103.017.396.396 0 0 0 .379-.331c.022-.465-.449-.463-.847-.462-.116 0-.227 0-.316-.01-.499-.017-.999.118-1.443.338-.218.053-.197.382.026.41zm7.706 1.528v.003l.002-.004v.002l.009-.017c-.17-.424-.634-.9-.882-1.023-.716-.338-1.017.8-.222.813.164.188.281.412.386.635a.43.43 0 0 0 .389.25h.013l.05-.105q.1-.23.209-.456.022-.05.048-.099zm-15.827 2.216.003-.006q-.001.005-.005.011zm10.897 6.474-.002-.005.003.007z"/><path fill="#000" d="m140.796 41.02.012-.004h-.012z"/><path fill="#000" d="M163.631 74.545a18 18 0 0 0-.784-2.348c-.161-.379-.301-.801-.645-1.058-.749-.594-1.449-1.174-2.201-1.786l-.291-.238a.22.22 0 0 0-.037-.183c-.136-.19-.292-.371-.416-.57-.53-.844-1.1-1.666-1.644-2.503-1.344-1.89-2.765-3.73-4.166-5.578-1.206-1.512-2.416-2.998-3.601-4.531-.958-1.177-1.872-2.43-2.795-3.655a13 13 0 0 1-1.105-1.583c-.524-1.005-.794-2.15-1.188-3.212-.405-1.248-.85-2.487-1.191-3.756-.181-.648-.403-1.286-.619-1.923-.22-.557-.337-1.179-.683-1.673a.6.6 0 0 0-.137-.106c.437-.421.842-.875 1.201-1.36.464-.688.863-1.418 1.267-2.143.266-.48 2.05-3.66 2.239-4.26q.01-.065.017-.129.157.073.353.099c1.393-.024 2.14-1.578 2.153-2.798.081-.925-.37-1.864-.065-2.768.094-.23.436-.937.497-1.028.426-.696.629-1.51.518-2.32-.096-.967-.662-1.873-1.411-2.486-.81-.657-1.886-.756-2.85-1.069-1.333-.496-2.334-1.545-3.541-2.255-1.435-.887-3.213-.988-4.851-.767-.892.13-1.803.2-2.66.496-2.06.831-4.061 2.008-5.455 3.754-.66.836-1.365 1.706-1.363 2.983 0 1.404.634 3.157.78 3.446.353.7.707 1.412 1.234 2.003.27.287.497.624.799.882-.666.018-3.697.682-5.154 3.124-.683.04-8.493 1.327-10.647 2.407-.794.726-1.291 1.729-1.813 2.657-.752 1.301-1.474 2.62-2.263 3.9-1.275 1.894-2.569 3.787-3.712 5.763-1.147 1.878-2.299 3.765-3.244 5.752-.357.76-.654 1.547-1.017 2.305-.226.457-.546.874-.66 1.376-.361 1.881-.398 3.812-.503 5.721a82 82 0 0 0-.045 3.102c-.325.404-.421.948-.662 1.402q-.119.277-.233.556c-.678 1.36-1.278 2.755-1.929 4.127-.475 1.186-1.161 2.381-1.21 3.677.03.816.582 1.45 1.122 2.013.436.469.906.899 1.335 1.37.022.647.122 1.284.377 1.879-.159.49-.259.997-.36 1.502-.128.692-.296 1.377-.383 2.074-.06.807-.207 1.62-.627 2.324-2.05.365-4.087.698-6.151.937.007-.2-.043-.437-.096-.508-.33-.753-1.115-1.047-1.894-.839-1.533.172-1.94 1.869-2.39 3.077-.741 1.623-.83 3.393-.919 5.146-.107 1.044-.157 2.116-.035 3.163.024 1.16.418 2.311 1.748 2.449q.078.008.151.009c1.299 0 1.463-2.083 1.502-3.117.196.337.427.65.751.862.277.143.605.059.903.038.628-.07 1.253.088 1.882.092h.509c3.229 0 6.535-.22 9.653-1.052 1.147-.36 2.603-.615 3.413-1.558 2.557-3.609 5.322-7.064 7.998-10.587.124.635.29 1.263.481 1.881.447 1.567 1.006 3.082 1.339 4.683.372 1.541.494 3.196.418 4.797-.191 3.542-1.324 6.92-2.182 10.337-.796 2.925-1.689 5.824-2.109 8.834-.168 1.364-.451 2.729-.468 4.104-.033.234-.092.479.026.695.185.324.42.6.686.838-.068.205-.116.417-.172.626-.149.569-.275 1.144-.318 1.731-.05.533-.092 1.088.106 1.598.137.331.331.666.638.87.671.329 1.435.448 2.165.587 1.326.265 2.676.355 4.01.567 1.204.117 1.953.332 3.166.361h.098c.272 0 .15.04.42 0l.011-.002c.501-.027 1.215-.593 1.379-.908a.67.67 0 0 0 .041-.638c-.187-.5-.505-.963-1-1.203-.944-.421-1.9-.812-2.882-1.135-.937-.269-1.585-.307-1.729-1.229a16 16 0 0 0 1.764-.189h.01c.111 0 .225-.016.333-.016a5.9 5.9 0 0 0 2.158-.608c.588-.344 1.148-.824 1.287-1.517.32-1.062.534-2.153.767-3.236.452-2.268 1.073-4.5 1.467-6.779.642-3.444 1.339-6.878 1.912-10.335.389-2.282.725-4.58.823-6.898a14.4 14.4 0 0 0-.194-3.334c-.163-1.32-.375-2.692-.568-4.016-.103-.657.128-4.075.309-4.904.183-.795.303-1.6.461-2.398.138-.573.222-1.16.264-1.752.063-.316.135-.63.224-.942.287-1.025.66-2.026 1.024-3.025.455-1.267.883-2.566 1.424-3.812 1.754-4.113 3.67-8.161 5.144-12.383.902 1.32 2.038 2.47 2.953 3.784 2.402 3.247 4.764 6.527 7.514 9.503.991 1.109 2.019 2.192 3.164 3.147.313.222.587.59.995.608.265-.004.531-.031.794-.064.771-.145 1.431-.608 2.112-.97a.5.5 0 0 0 .194-.218c.66.483 1.387.879 2.182 1.062l.03.005c-.002.138 1.424 3.575 1.768 3.591a.28.28 0 0 0 .209-.084c.166.379.408.708.8.9q.128.051.233.05c.195 0 .328-.121.387-.291.14.15.311.27.531.27h.035c.242 0 .442-.188.544-.397.173-.37.011-.781-.102-1.145a3 3 0 0 0-.119-.297c.836.256.343-1.101.289-1.424zm-18.47-40.144s-1.307 2.498-1.853 3.261c-1.738 2.438-3.116 3.124-4.542 3.836a3.12 3.12 0 0 1-2.962.011c-1.683-.829-2.473-2.824-3.1-4.471-.294-1.069-.307-2.178.126-3.216.065-.188.076-.415-.102-.49-.494-.181-.651.454-.79.794-.172.48-.175.996-.162 1.5-.002.881.19 1.749.575 2.545.658 1.698 1.72 3.426 3.491 4.136.259.097.526.154.794.18l-.1.97q-.034-.001-.072.005c-.749.247-1.511.018-2.234-.23-1.727-.674-3.063-2.18-3.751-3.862a8 8 0 0 1-.555-1.397 7 7 0 0 1-.188-.492 5 5 0 0 1-.1-.355 1.4 1.4 0 0 1-.02-.597 1 1 0 0 1 .048-.183l.057-.16c.033-.09.076-.18.113-.27q.073-.174.159-.344c.061-.125.118-.249.185-.37l.005-.01q.001-.005.006-.01l.055-.091q.14-.256.261-.518 0-.005.004-.01l-.002.006.009-.016-.003.005q.188-.42.381-.838c.138-.304.29-.602.445-.897l-.003.007q.054-.104.099-.214l.023-.055.038-.091c.054-.13.119-.256.178-.384l.002-.006a6 6 0 0 0 .168-.399s.072-.16.143-.328q.048.046.099.088c.08.063.165.088.248.088.274 0 .516-.296.403-.567-.057-.039-.109-.086-.161-.132a4 4 0 0 1-.266-.265 1 1 0 0 1-.114-.129q-.063-.087-.119-.18a2 2 0 0 1-.207-.44l-.002-.007-.011-.039a2.8 2.8 0 0 1-.131-.924v.01-.017q0-.03.003-.059v.013l.002-.04v-.009l.008-.08q.004-.056.013-.113l.013-.073q.008-.057.02-.113.008-.038.02-.075.014-.056.03-.108.014-.042.029-.08.017-.049.036-.096a1.6 1.6 0 0 1 .251-.393 1 1 0 0 1 .237-.198c.09-.055.188-.097.285-.124.227-.068.508-.074.715.06.161.104.291.27.387.434q.096.16.166.33.03.068.058.14l.026.066.04.117.03.086v.004l.005.016q.059.19.109.379v-.002.006-.004q0 .008.004.017.036.139.067.281l.016.08q.029.135.052.274l.035.194v-.013l.008.04.016.086q.025.083.056.163c.059.582.283 1.127.952 1.182h.017c.588 0 1.008-.466 1.237-.964q.114-.048.235-.112c.986-.478 1.701-1.316 2.328-2.183.651-.82 1.104-1.869 2.103-2.34 1.226-.587 2.833-.041 3.699.936.899.908.852 1.967.928 3.155.074 1.139.32 1.65.352 1.706a7.4 7.4 0 0 1-1.154 2.968zm-4.937 12.01c0 .305-.174.587-.257.876-.228.666-.496 1.32-.796 1.956-1.163 2.528-2.165 5.125-3.327 7.654-.44.96-.926 1.947-1.409 2.923q.176-.713.346-1.43.064-.376.139-.748l-.011.057q.093-.45.179-.9c.054-.279.12-.553.187-.828.133-.538.273-1.076.432-1.607l.086-.395q.113-.665.268-1.322c.349-2.055.738-4.11.948-6.185.06-.597.117-1.2.15-1.803v-.004q-.001-.113.011-.225a12.4 12.4 0 0 0-.053-1.93q.093-.005.185-.014c1.344-.139 2.11-.633 2.877-1.121l.006-.004.042-.031c.026-.02.05-.044.078-.062a.05.05 0 0 1 .035-.011h.008l.033-.024q.004.033.011.066.005.01.007.02l.008.038.007.033q0 .011.004.022l.009.035c.179.7.403 1.407.753 2.042q-.581.43-1.156.866c-.205.11-.405.245-.383.505.089.542.433 1.02.586 1.547zm-11.097-2.32c-.138-1.934-3.576-10.443 1.663-11.456q.05-.005.104-.004c-.331.595-.65 1.193-.984 1.784-.187.363-.355.732-.551 1.091a.8.8 0 0 0-.137.337 4 4 0 0 0-.165.41c-.22 1.038.102 2.143.642 3.148l.157.393c.202.504.409 1.01.731 1.452 1.168 1.725 3.045 3.102 5.207 3.175h.011c.217 0 .433-.033.642-.084a62 62 0 0 1-.44 3.557c-.377 2.228-.71 4.464-1.221 6.668-.388 1.82-.837 3.627-1.279 5.435-.084.172-.154.352-.256.513a23.3 23.3 0 0 1-2.594 3.13c-.788.79-1.548 1.61-2.341 2.395-.631.624-1.258 1.318-2.038 1.757 1.002-2.037 1.858-4.147 2.104-6.418.657-3.778.864-7.612.855-11.443.007-1.947.018-3.896-.11-5.84m.82-16.702a7.3 7.3 0 0 1-.699-1.914c-.122-.637-.315-1.35-.185-2.032.161-.814.677-1.49 1.168-2.139 1.304-1.609 3.163-2.687 5.071-3.459.666-.227 1.371-.287 2.062-.393 1.421-.222 2.952-.26 4.278.37 1.322.667 2.358 1.784 3.717 2.395.914.426 1.987.437 2.846.979 1.02.708 1.807 2.204 1.118 3.265-.672 1.03-.992 2.23-1.008 2.376-.074.838.223 1.66.159 2.498-.05.74-.374 1.634-1.169 1.846-.592-.205-.414-1.808-.494-2.35-.026-.697-.155-1.458-.538-2.07-.54-.87-1.339-1.621-2.33-1.95a4.3 4.3 0 0 0-1.498-.282c-.938 0-1.837.346-2.543 1.083-.77.83-1.999 3.56-4.015 4.396-.202.085-.418.092-.505-.106-.17-.386-.307-.86-.42-1.197-.198-.521-.305-1.1-.675-1.535-.115-.147-.495-.743-1.415-.721-.897.02-1.86.964-1.827 2.386a18 18 0 0 1-1.095-1.444zm-4.33 7.096q.052-.089.108-.174l.04-.064c.061-.095.132-.185.2-.275l.006-.005c.083-.112.162-.225.249-.333.083-.106.267-.35.267-.35.038-.053.551-.605.551-.605l.175-.165c2.943-2.308 4.332-1.603 4.411-1.624q.07.125.155.238l-.423.707c-.562-.154-1.677.238-1.999.443-2.919 1.982-2.171 4.98-1.916 6.601.098.747.327 1.437.58 2.136.163 1.034.309 2.068.381 3.115.18 2.654.161 5.315.126 7.972-.065 2.51-.172 5.028-.636 7.5-.203.902-.268 1.827-.422 2.734-.194-1.171-.541-2.311-.86-3.453a529 529 0 0 1-1.318-4.693c-.383-1.277-.779-2.553-1.064-3.858-.403-1.896-.906-3.77-1.337-5.659-.026-.164-.092-.336-.055-.503.438-.505.995-.893 1.527-1.325.359-.24.422-.549.041-.81-.335-.262-.686-.502-1.008-.778.472-1.699 1.014-3.38 1.572-5.055.191-.705.377-1.249.636-1.7q.003-.008.01-.015zm-22.836 31.373q-.004-2.589.18-5.173c.12-1.136.092-2.324.455-3.415.689-1.213 1.181-2.518 1.788-3.772 1.955-3.673 4.161-7.214 6.508-10.653.704-1.056 1.274-2.194 1.931-3.28.625-1.074 1.157-2.214 1.971-3.168 1.618-1.041 9.591-2.43 9.539-2.348-.468.785-2.217 5.416-2.436 6.915-.011.177-.038.371.047.534a.9.9 0 0 0 .257.262c.305.234.612.468.937.675-.51.333-1.028.666-1.459 1.1-.36.27-.445.72-.325 1.133l.706 3.113c.329 1.283.559 2.588.89 3.869.32 1.272.741 2.517 1.084 3.783.676 2.474 1.549 4.9 2.102 7.405a.3.3 0 0 0 .132.17c.048.145.081.298.123.447-.689 2.318-1.799 4.485-2.988 6.586-.462.936-.867 1.904-1.409 2.802-.866 1.38-1.868 2.676-2.887 3.948-1.67 2.055-3.669 3.801-5.676 5.525-1.195 1.02-2.504 1.984-3.985 2.568-1.027.348-2.147-.024-3.03-.571-.778-.567-1.511-1.21-2.343-1.698h-.002a6 6 0 0 0 .152-1.358.24.24 0 0 0-.1-.202c.925-1.027 1.859-3.268 2.023-3.896.135-.461.293-.92.583-1.312.163-.218.379-.388.579-.575.17.344.444.628.851.769.201.071.399.106.584.106.971 0 1.626-.913 1.067-1.935-.107-.269-.022-.547-.033-.829-.032-.391-.239-.736-.505-1.02-.152-.18-.311-.35-.468-.519-.067-.997.102-2.024.229-3.018.4-1.848.675-3.766 1.025-5.637.355-1.753.642-3.534 1.213-5.24.159-.605.583-1.083.875-1.63 1.313-2.3 2.702-4.56 4.233-6.723.392-.554.773-1.125 1.012-1.762.205-.545.347-1.113.49-1.675.072-.29.133-.585.199-.878.023-.1.015-.2-.038-.29-.147-.266-.563-.228-.677.045a4.3 4.3 0 0 0-.25.7c-.218.76-.379 1.547-.732 2.26-.566 1.017-1.323 1.913-1.926 2.91a73 73 0 0 0-2.746 4.457c-.322.542-.623 1.1-.986 1.618-.12.214-.17.462-.26.69-.766 2.423-1.171 4.986-1.541 7.497-.111 1.191-.336 2.371-.433 3.565-.081.959-.027 1.936.108 2.893a5 5 0 0 1-.47-.585c-.431-.948-1.631-.89-2.512-.754-.741.111-1.499.256-2.134.675-.407.252-.845.472-1.185.814-.211-1.965-.368-3.934-.342-5.915zm-.225 7.648.013-.048a1 1 0 0 1 .038-.09l.026-.054a5 5 0 0 1 .313-.535q.103-.156.225-.296l.008-.011q.057-.083.118-.165l.022-.022a.8.8 0 0 1 .147-.177c.835-.74 1.936-1.159 3.025-1.384.609-.07 1.611-.275 2.018.302.298.494.691.975 1.045 1.439.521.616.588.76.545 1.562.017.323.228.597.252.914-.287.503-1.04.481-1.472.18-.463-.378-.62-.967-.744-1.533-.016-.038 0-.122-.046-.152a.08.08 0 0 0-.092 0c-.104.1-.062.288-.086.42-.024.237-.02.488.015.732a.35.35 0 0 0-.15.084c-.233.265-.493.507-.704.79-.413.546-.557 1.214-.77 1.849-.275.781-.656 1.493-1.061 2.222-.25.455-.523.902-.884 1.282.072-.946.264-1.874.375-2.814.087-.67.1-1.346.137-2.017.058-.075-.046-.185-.126-.126-.07.062-.074.168-.101.252-.157.646-.294 1.3-.451 1.946-.197.849-.376 1.725-.454 2.604-.02.295-.138.71.195.877q.089.034.181.034a.8.8 0 0 0 .407-.14c-.037.55-.143 1.121-.468 1.572-.292-.132-.435-.414-.538-.72-.097-1.02-.392-2.026-.296-3.054.076-.547.125-1.177.214-1.739.043-.295-.401-.384-.479-.1-.194.964-.331 1.965-.207 2.946.028.562.485 2.074.074 2.443-.494-.214-.571-.948-.727-1.416a7.4 7.4 0 0 1-.242-2.396c.059-.67.174-1.334.257-2.002 0-.117.104-.374-.083-.385a.1.1 0 0 0-.078.068c-.503 1.4-.893 2.938-.56 4.407-.285-.655-.344-1.363-.34-2.075 0-.652.055-1.29.188-1.933.307-1.228.834-2.377 1.326-3.541zm-2.118 3.925c-.035.416-.072.842-.087 1.269a10 10 0 0 0-.27-.394c-1.686-2.053-1.683-2.102-.782-4.595a57 57 0 0 1 1.907-4.468l.053-.091.701-1.245a40 40 0 0 0 .438 4.823c-.449.823-.88 1.656-1.25 2.516-.299.705-.608 1.42-.71 2.186M90.405 98.133c-.037.465-.083.94-.294 1.362-.074.114-.12.284-.255.339a1.11 1.11 0 0 1-.917-.441c-.346-.483-.276-1.122-.353-1.684-.126-1.36.068-2.72.101-4.081.043-.619.09-1.272.21-1.885.156-.685.434-1.289.687-1.957.248-.644.462-1.327.94-1.846.234-.317.614-.414.983-.485.235-.05.483-.066.707.04.276.14.501.36.634.637q-.49.055-.984.1c-.503.116-.847.577-1.189.93-1.132 1.296-1.248 3.175-.884 4.784.167.83.476 1.622.868 2.37-.283.438-.206 1.459-.256 1.817zm31.362 26.348c.564.225 1.132.446 1.687.691.686.379 1.614.467 1.86 1.316a1.6 1.6 0 0 1-.449.361c-.108.044-.233.084-.344.137-1.005.095-1.286-.046-2.318-.249-.813-.111-1.625-.251-2.441-.346a25 25 0 0 1-2.434-.333c-.53-.08-1.059-.177-1.575-.327-.278-.066-.575-.125-.718-.401-.364-.542-.277-1.23-.266-1.847.024-.534.059-1.067.124-1.596 0-.038.009-.104.02-.183 1.008.71 2.367.967 3.579.994l.503.002a28 28 0 0 0 1.161-.022c-.052.364.032.741.274 1.027.307.448.849.602 1.339.774zm7.065-21.642c-.38 2.315-.892 4.606-1.304 6.916-.381 2.282-.99 4.519-1.459 6.783-.311 1.332-.496 2.716-.997 3.991-.424.489-.997.751-1.609.917a.48.48 0 0 0-.366-.009q-.342.088-.688.157c-1.121.216-2.268.258-3.409.269-1.518.008-3.353-.21-4.303-1.517a.5.5 0 0 0 .013-.104c-.01-.273 0-.545.02-.816q.049-.45.093-.901l.031-.251c.102-.812.211-1.623.335-2.434.338-1.874.788-3.729 1.237-5.582q.106-.421.218-.842c.272-.979.546-1.96.799-2.942q.214-.78.414-1.565c1.054-3.754 1.998-7.63 1.491-11.541-.209-1.474-.596-2.921-1.028-4.345-.322-.82-.566-1.649-.882-2.476a31 31 0 0 1-.613-1.66.33.33 0 0 0-.035-.17c1.424-1.917 2.772-3.888 4.241-5.773.638-.86 1.294-1.715 1.792-2.665.32-.636.655-1.268.952-1.916.019-.029.056-.106.089-.14a.142.142 0 0 0-.044-.21c-.095-.054-.193.02-.224.109-.588.79-1.15 1.601-1.718 2.405-1.681 2.212-3.427 4.376-5.016 6.658q.001.016-.005.035c-.017.043-.045.084-.07.124q-.033.052-.067.1-.03.038-.055.076l-.017.02c-.02.038-.046.075-.07.111q-.047.069-.098.134l-.11.148a.1.1 0 0 1-.077.044l-.019.02-.085.103c-2.75 3.664-5.646 7.222-8.289 10.964-.334.59-.998.833-1.609 1.055a23 23 0 0 1-3.476.905c-1.132.174-2.264.365-3.405.46-1.236.044-2.469.122-3.706.135-.758.026-1.511-.051-2.264-.117-.35-.014-.693.051-1.043.06-.46-.508-.699-1.132-1.028-1.729-.936-1.856-1.476-4.46.004-6.182.604-.745.723-.612 1.621-.696 1.29-.097 2.614-.327 3.899-.523.92-.158 1.846-.3 2.763-.48.56-.203.747-1.07.941-1.575.202-.652.187-1.342.315-2.01a70 70 0 0 1 .597-2.833l.011.033c.22.59.351 1.343.938 1.69q.187.103.345.102c.23 0 .415-.145.539-.348.127.318.347.562.749.595.255-.02.443-.189.58-.43.945.699 1.75 1.6 2.802 2.14.529.224 1.075.47 1.655.504q.147.014.294.013c1.038 0 1.994-.501 2.867-1.029 1.453-.873 2.713-2.004 3.974-3.122 1.837-1.568 3.538-3.296 5.005-5.214.843-1.113 1.705-2.218 2.409-3.424.561-.976.96-2.032 1.459-3.038q.362-.687.718-1.378c.459.038 1.012-.244 1.581-.668 0 .049.008.102.008.148.029.573.059 1.144.074 1.716.037 1.16.654 6.668.878 8.266.359 2.873.723 5.77 1.156 8.638.211 1.341.375 2.688.564 4.032.065.46.076.922.081 1.385-.05 3.602-.732 7.154-1.366 10.69zm3.016-34.568.007-.05-.018.121.007-.05a47 47 0 0 1-.553 3.12 85 85 0 0 0-.61 3.023c-.045.245-.085.488-.131.732v-.007q-.001.021-.008.043v.044q.001.007-.004.015v.015l-.09.48c-.063.363-.111.73-.167 1.095l.01-.055-.011.077.009-.055-.046.308-.054.454q-.073.591-.105 1.19c-.012.199-.017.398-.025.598q-.012.31-.04.62c-.035.386-.087.77-.124 1.157a53 53 0 0 0-.089.98l-.009.158v.158c0 .047-.006.097-.009.144l-.002.024c-.004.026-.024.038-.046.038a.05.05 0 0 1-.041-.022l-.004-.007a.2.2 0 0 1-.016-.044q0-.005-.004-.01v-.004q-.044-.124-.085-.25-.043-.14-.078-.281a18 18 0 0 1-.131-.56c-.039-.19-.085-.379-.12-.57-.036-.192-.056-.387-.078-.581q-.07-.587-.155-1.173c-.028-.2-.058-.4-.082-.6q-.034-.306-.061-.614a29 29 0 0 1-.079-1.213c-.023-.414-.429-3.963-.531-4.65-.133-1.2-.22-2.512-.435-3.725-.037-.1-.04-.445-.15-.558 1.051-.844 2.116-2.085 2.691-2.628.89-.921 1.816-1.82 2.604-2.828v.007l-.016.06q.001.006-.004.012-.001.01-.006.02-.001-.006.004-.011l-.013.053a.1.1 0 0 0 .007-.03l-.037.147v-.002.002l-.007.03.007-.032a57 57 0 0 0-.356 1.556c-.054.25-.111.501-.161.752-.048.247-.087.498-.134.745-.038.205-.079.408-.112.613a16 16 0 0 0-.095.648q-.09.69-.198 1.374zm22.943 4.277c-.292.126-.614.13-.921.2-1.42-1.057-2.62-2.365-3.802-3.681-1.197-1.34-2.375-2.681-3.466-4.11-2.313-2.878-4.318-6.106-7.094-8.595-.089-.075-.172-.154-.259-.23q.166-.485.324-.97l.059-.198c.061-.134.122-.266.174-.403.357-.954.551-1.953.695-2.956.1-.534.152-1.078.246-1.614.067-.51-.679-.659-.825-.166q-.088.513-.168 1.026c-.226.968-.44 1.94-.664 2.91-.707 2.57-1.707 5.055-2.748 7.517-.923 2.26-1.97 4.47-2.917 6.72a.2.2 0 0 1-.02.124q-.065.141-.133.279a3 3 0 0 1-.082.159 63 63 0 0 0-.373.926q.001.004-.004.007-.036.116-.074.23a.1.1 0 0 1-.028.049l-.072.204q-.076.203-.155.405c-.03.075-.055.152-.089.225l-.033.071v.002q-.034.071-.067.145c-.031.084-.057.172-.094.254a.05.05 0 0 1-.046.031c-.028 0-.058-.02-.056-.055 0-.022.008-.043.013-.064v.008l.05-.233v.008q.022-.105.037-.213l.026-.225q.014-.107.03-.212.013-.106.033-.207.036-.192.078-.384l.014-.103q.064-.427.132-.855a51 51 0 0 1 .414-2.249c.024-.108.046-.218.074-.325l.091-.363.12-.558q.027-.175.061-.352c.052-.276.115-.55.174-.825a61 61 0 0 1 .434-1.89l.006-.011c.353-.674.686-1.36 1.023-2.043a121 121 0 0 0 3.249-6.938c.682-1.636 1.466-3.228 2.171-4.854.577-1.59.993-1.715 0-3.3.496-.35 1.075-.616 1.517-1.028a.47.47 0 0 0 .073-.392c-.02-.324-.179-.598-.332-.876q-.105-.206-.215-.408l-.011-.017c-.044-.068-.092-.133-.135-.203a3 3 0 0 1-.144-.253l-.004-.007v-.002q-.062-.114-.122-.229a1 1 0 0 1-.05-.113q-.018-.056-.039-.114c-.029-.07-.068-.137-.098-.208q-.015-.007-.016-.028.001-.01.005-.018a.04.04 0 0 1 .032-.018c.282-.203.549-.412.791-.611q.015.021.043.053c.255.598.43 1.23.647 1.843.324.926.564 1.876.849 2.813.64 1.876 1.18 3.794 1.94 5.626.8 1.442 1.921 2.68 2.875 4.024 2.185 2.846 4.518 5.6 6.651 8.509.967 1.292 1.956 2.564 2.929 3.852.252.324.481.666.721 1-.438-.244-.906-.422-1.414-.47-.45-.027-.894.05-1.284.275l-.013.006c-.327.227-1.649 1.374-1.387 4.174.011.117.145.174.235.174.085 0 .163-.053.183-.175.011-.044.074-1.503.261-2.08.163.584.549 1.078 1.041 1.529q.178.162.361.32c-.472.236-.934.516-1.426.737zm8.287 4.615c-.81-.977-1.426-2.099-2.162-3.125-.024-.026-.061-.028-.085-.002-.031.033-.018.068.004.102.011.022.031.073.065.075.371.687.673 1.377.915 2.125.067.26.154.514.287.745-.021.066-.024.14-.035.203-.356-.315-.526-.796-.733-1.213a19 19 0 0 0-.716-1.59c-.064-.09-.257-.617-.386-.486-.026.123.07.253.096.377.107.335.198.676.285 1.018.087.34.161.725.274 1.09l-.019-.003a10 10 0 0 1-.732-1.39 9 9 0 0 0-.718-1.7c.39-.058.714-.347.612-.8-.116-.409-.371-.76-.593-1.123.434.368.899.725 1.196 1.208.298.56.644 1.093.993 1.622.32.486.668 1 1.141 1.358.152.393.546 1.23.313 1.508zm-.423-2.7c-.535-.74-1.003-1.529-1.558-2.252-.327-.3-.737-.498-1.117-.726-.242-.108-.462-.313-.726-.346l-.026.007c-.307-.472-.487-.939-.751-1.44-.205-.244-.605.009-.466.294.105.194.216.385.325.577.381.706.932 1.301 1.238 2.051.051.522-.707.14-.938.01-.771-.46-1.478-1.01-2.153-1.604-.325-.296-.658-.593-.935-.933-.18-.25-.457-1.213.205-1.733.338-.266.812-.299 1.246-.225.834.177 1.519.755 2.183 1.255.848.672 1.74 1.334 2.603 2.022.254.172.333.48.452.745.135.352.284.736.419 1.126.202.578.365 1.17.522 1.76l.015.048a6 6 0 0 1-.538-.635z"/><path fill="#000" d="m132.312 30.569.016.017-.018-.019zm-1.804 4.004v.003l-.003.005zm10.358 6.647.001.006q0-.005-.003-.007z"/></g><defs><clipPath id="a"><path fill="#fff" d="M0 0h316v177.75H0z"/></clipPath></defs></svg>
