<svg xmlns="http://www.w3.org/2000/svg" width="108" height="90" fill="none"><path fill="#fff" d="M16 12h33v12H16z"/><path fill="#00008F" d="M26.656 22.55c.004 0 .008-.006.008-.006a.5.5 0 0 0 .092-.088q-.006.001-.012-.006a2 2 0 0 0-.088.1m4.414-1.487-.07.06c.04-.01.07-.02.07-.06"/><path fill="#00008F" fill-rule="evenodd" d="M29.643 22.582q.19-.194.383-.405h-.004c.24-.273.473-.534.752-.772q.127-.117.244-.199.015-.018.023-.045.007-.027.023-.044c-.055.02-.099.054-.143.088a.6.6 0 0 1-.151.091c-.023 0-.047-.023-.023-.047q.121-.088.24-.183h-.016c-.023 0-.023-.023-.023-.047-.288-.045-.51.152-.708.328l-.012.011c-.031.016-.06 0-.083-.012q-.018-.01-.03-.011c-.175.059-.326.167-.479.276-.14.1-.281.202-.443.265v-.046q-.082.03-.163.068a1.2 1.2 0 0 1-.244.091c-.151.036-.292.031-.428.027l-.133-.003a7 7 0 0 0-.738.13l-.08.018-.011.004-.012.004a1.7 1.7 0 0 0-.418.171l-.015.008-.016.02-.015.019a.5.5 0 0 1-.155.136 1.3 1.3 0 0 0-.265.199q-.053.049-.107.093c-.008.008-.024.012-.035.012a15 15 0 0 1-.364.347c-.008.008-.043.012-.07.008 0 0 .004 0 .004-.004l.011-.024.059-.093.032-.053.033-.052q.046-.072.097-.137.012-.018 0-.03a.04.04 0 0 0-.03-.013 2 2 0 0 1 .379-.284v-.004c-.016.004-.039-.008-.027-.023q.016-.022.03-.046l.008-.017q.003-.004.004-.01l.004-.009-.008-.01-.007-.01-.024.016a.4.4 0 0 0-.13.114c-.036.045-.073.093-.129.093-.004 0-.023 0-.035-.004q-.018-.001-.023-.008v-.004h.004q.002-.001.004-.008s0-.004.003-.004l.006-.01.006-.01.006-.009.006-.01.004-.007q0-.005.004-.008l.004-.008.011-.023.006-.01.006-.01.015-.025.016-.026.015-.023.012-.021.011-.022c.012-.02 0-.035-.015-.039a.5.5 0 0 1 .155-.136h-.008q.08-.041.163-.09l.097-.054q.016-.02.038-.031a1.4 1.4 0 0 0-.356.179s-.031.012-.039.02c0 0-.023.007-.054-.02q-.005-.005-.004-.016a.2.2 0 0 1 .071-.064q.034-.02.065-.049c.023 0 .042 0 .042.024.446-.35.996-.431 1.548-.512.34-.05.68-.1.997-.213l.1-.068.102-.068c.056-.024.107-.064.16-.107s.11-.086.177-.12c.178-.136.313-.292.383-.521 0-.024-.023-.047-.023-.047a3.6 3.6 0 0 1-.992.748c-.343.181-.711.208-1.076.235q-.206.013-.407.038c.023-.047.07-.047.112-.047 0-.055.026-.08.06-.11l.03-.027h.065c.012 0 .017-.011.023-.023s.012-.023.023-.023c.047 0 .113-.024.09-.024-.036-.045-.088-.027-.145-.007-.054.019-.114.04-.17.007.021-.022.027-.05.033-.074.006-.026.011-.05.034-.062h.089c0-.047.046-.09.046-.09.202-.121.397-.227.589-.331q.192-.104.38-.21c-.026 0-.048.01-.07.02-.035.017-.068.032-.109.003.024 0 .024-.016.024-.033 0-.016 0-.033.023-.033.145-.039.274-.102.407-.166q.138-.07.29-.13a.3.3 0 0 0-.086.016c-.053.015-.103.03-.162-.016a.2.2 0 0 0 .04-.027c.025-.02.05-.04.096-.04v-.066c0-.023.023-.023.046-.023-.023 0-.046-.023-.046-.023.012-.025.036-.03.063-.036a.14.14 0 0 0 .072-.03c-.023 0-.066 0-.066-.024.066-.09.179-.113.291-.136-.012-.024-.034-.024-.053-.024-.02 0-.036 0-.036-.023s.023-.023.046-.023h-.046c-.037-.019-.03-.052-.026-.074l.003-.016c.09-.107.12-.234.15-.36q.021-.093.051-.182c-.023 0-.046 0-.046-.023-.218.242-.563.333-.891.42l-.031.009h-.113a.44.44 0 0 1-.383-.024c-.054-.028-.092-.063-.133-.1a1 1 0 0 0-.092-.079 2.8 2.8 0 0 0-.561-.273 5 5 0 0 0-1.732-.25c.163-.089.337-.125.513-.16a3.4 3.4 0 0 0 .445-.117c.32-.098.633-.194.975-.174a.4.4 0 0 0-.155-.005q-.038.005-.07.005c-.259-.02-.52.038-.793.098l-.175.038a3 3 0 0 0-.31.087c-.113.035-.225.07-.345.093a.5.5 0 0 0-.134.078c-.065.047-.128.093-.226.081v-.07c.225-.273.496-.541.856-.565.348-.056.677-.016 1.02.026l.173.021c.281.023.544.085.827.153l.03.007c.061 0 .096.054.13.107.027.043.054.085.094.095.055.02.11.023.165.026.08.006.161.01.242.064l-.006-.046c-.005-.03-.01-.06.006-.09.05-.05.107-.037.163-.024.044.01.088.02.127 0 .123-.076.008-.193-.108-.31-.055-.057-.11-.113-.14-.165 0-.023.024-.047.024-.047q.075.07.145.14c.117.117.232.231.393.312.112.047.383.113.337-.023-.08-.177-.216-.33-.353-.485q-.085-.094-.166-.193v-.09c-.035 0-.044-.013-.054-.03l-.012-.017v-.09c-.057-.029-.07-.076-.082-.124-.008-.027-.015-.054-.03-.078-.04-.063-.042-.14-.045-.22a.7.7 0 0 0-.025-.189 2.3 2.3 0 0 1-.09-.386q-.037-.208-.08-.403c-.047-.23-.093-.452-.12-.684-.036-.33.13-.61.301-.896q.077-.126.148-.257c.159-.273.337-.541.631-.725.064-.266.24-.487.413-.708l.013-.016c.172-.214.459-.345.67-.441l.024-.011c.313-.14.596-.23.6-.23H16v11.996h11.04c.295-.214.588-.35.938-.51a17 17 0 0 0 .658-.315c.315-.155.817-.402 1.007-.59m-3.503-1.619c-.044.005-.09.01-.073-.026.016-.079.097-.102.176-.125q.052-.014.095-.034l.012-.007.01-.005c.044-.023.097-.051.137-.035.026.038.06.048.091.057.024.008.047.014.067.033-.084.084-.181.092-.28.1a.6.6 0 0 0-.196.04l-.04.002m-3.427-.548c0 .024.023.047.023.047.542-.611 1.034-1.134 1.731-1.566.019-.008.012.002.003.015-.014.02-.033.046.02.032.231-.053.335-.25.436-.443q.038-.076.08-.146c.105-.172.256-.282.407-.393.11-.08.22-.16.313-.265 0 .023 0 .047-.023.07.023.024.047.024.07.024a.4.4 0 0 1 .128-.056c.055-.016.106-.03.143-.08-.178-.071-.407-.094-.585-.024-.473.226-.875.588-1.259.997-.232.246-.473.475-.767.635a7 7 0 0 1-.72 1.153m1.89-1.449c-.011.025-.024.037-.035.05q-.015.013-.03.04a.18.18 0 0 1-.09.089c-.022 0-.046 0-.046-.023.024-.09.09-.179.178-.202.024.004.024.027.024.046m.991 3.46a.3.3 0 0 0 .054-.066c.02-.047-.1-.035-.12-.023a.3.3 0 0 0-.042.045l-.004.005-.054.054-.039.036q-.08.084-.166.16c-.039.035.085.05.112.027a1 1 0 0 0 .085-.078q.015 0 .028-.003h.007c.064-.022.112-.067.158-.11l.012-.012c.016-.015-.004-.03-.03-.035m-.35-.253h-.001v.004l-.071.05q-.089.065-.185.121a3 3 0 0 1-.188.095l-.11.053q.001-.002-.004-.004-.013-.018-.039-.007a1 1 0 0 0-.225.175.1.1 0 0 0-.03.031l-.035.035v.004c-.016.016-.032.031-.05.055l-.01.012q-.008.011-.022.019c-.015.008-.054.008-.05-.016v-.004a.2.2 0 0 1-.039.02l-.017.01-.018.01q-.007-.006-.015-.005c-.004 0-.012 0-.016.004l-.027.023-.054.047a2 2 0 0 0-.132.14q.001.002-.004.004 0 .004-.002.004l-.002.004-.007.008-.003.004-.005.004-.004.004q-.005.011-.015.023a.03.03 0 0 1-.02.008q-.007-.006-.008-.012l-.003-.006-.004-.005-.01-.018-.01-.018v-.003l-.002-.006-.002-.006.07-.082.004-.004.012-.013.011-.014.02-.023.03-.043q.036-.046.07-.098v-.004q.007-.004.008-.015a.3.3 0 0 0 .031-.047l.023-.047v-.003l.004-.004.002-.004.002-.004.012-.027.011-.028v-.004l.004-.015.004-.012.004-.012v-.003l.004-.018q0-.009.004-.018.001-.008-.004-.015a.7.7 0 0 1 .089-.121l-.006.002-.003.002h-.003a.3.3 0 0 0-.047.04q-.018.018-.038.034c-.023.02-.07-.012-.039-.035q.029-.023.05-.047s0-.004.005-.004l.045-.046q.033-.037.07-.067a1 1 0 0 0 .082-.062l.05-.058q.002.001.004-.004c.133-.13.32-.175.511-.221.12-.03.242-.06.353-.11.063-.027.133-.016.202-.006a.5.5 0 0 0 .158.005c.066 0 .136 0 .202.047-.153.082-.3.175-.444.267l-.126.08zm.484-1.588c-.018.002-.03.003-.02.014.066.066.202.043.295-.008.066-.047.135-.047.224-.047.023 0 .023-.043.023-.066a.5.5 0 0 0 .179.023c.538-.113 1.057-.226 1.553-.475-.502-.388-1.12-.56-1.726-.73l-.3-.084q.033.002.066.014c.044.015.089.03.136-.014a.37.37 0 0 0-.198-.068.4.4 0 0 1-.163-.045l.019.002c.023.005.053.01.07-.026-.117-.059-.235-.079-.354-.1a2 2 0 0 1-.184-.036.22.22 0 0 0 .182-.226c0-.023-.046-.023-.07-.023-.267.136-.449.385-.561.677.1.06.21.053.317.046.06-.003.12-.007.178.001-.05.048-.124.062-.194.074l-.077.016c-.07.015-.135.066-.112.113a.08.08 0 0 0 .05.031.3.3 0 0 0-.14.082c.065.05.13.04.195.03q.04-.006.077-.007c0 .029.019.038.038.048q.016.007.028.018a.4.4 0 0 0-.225.203.4.4 0 0 1-.13.155c-.034.03-.068.058-.094.094v.07a4 4 0 0 1-.228.184c-.156.12-.307.237-.427.405.023 0 .023.023.023.047a.3.3 0 0 1-.08.075c-.034.025-.066.049-.079.084 0 .024 0 .047.024.047.142-.047.265-.126.385-.204.11-.07.217-.139.335-.182.096-.023.18-.067.262-.11.07-.035.138-.07.21-.092q.087-.019.18-.045.096-.026.18-.045c0 .024 0 .047.024.047h.178c-.01.026-.045.03-.069.033" clip-rule="evenodd"/><path fill="#E0000F" d="M49 12H36.097s.023.004.12.055c.106.054.242.128.325.171.167.086.327.195.432.363.047.066.114.203.07.293-.046.113-.07.296-.183.34-.136.07-.316.07-.476.046-.09 0-.179-.024-.273-.047.34.137.66.297.886.613.023.046.113.066.203.066.023 0 .023.047.023.066-.047.047-.09.07-.066.137h.066c.113-.047.09-.273.25-.203.113.066.16.226.09.34-.09.089-.18.16-.274.226a.2.2 0 0 0 0 .16c.067.09.09.179.114.273.07.16.09.339.16.499.09.34.179.679.16 1.022 0 .18-.09.34-.024.523.047.18.16.316.25.476.09.136.179.226.25.363.136.226.385.452.272.725-.066.16-.316.137-.476.226-.136.114-.023.297.047.41.113.203-.136.34-.296.41.047.07.136.046.16.09.023.113.136.179.066.296-.09.136-.363.203-.226.41.09.16.031.335-.024.499-.066.203-.25.292-.41.34a.9.9 0 0 1-.428.023c-.047-.024-.09-.047-.137-.047-.386-.047-.772-.156-1.154-.156-.114.023-.227.043-.316.09a2 2 0 0 0-.273.241l-.004.004c-.016.02-.035.035-.051.055-.008.012-.02.023-.027.035-.008.008-.012.016-.02.023a2.4 2.4 0 0 0-.19.277q-.008.016-.02.032a2.2 2.2 0 0 0-.172.417c-.156.519-.086.964.023 1.073.032.031.75.254 1.249.476.234.105.397.183.534.269h12.67V12z"/><path fill="gray" d="M36.863 16.375c.09.023.226.023.226.07-.047.179-.315.226-.451.409h-.07c-.067.047-.047.16-.113.16-.066-.024-.136 0-.203.023.09.09.203.16.339.136.023 0 .066.047.066.09 0 0 .023 0 .047-.023.023 0 .046 0 .046.023v.09c-.066.09-.183.046-.272.066a1 1 0 0 0 .521 0c.136-.047 0-.273.09-.386-.047 0 0-.07-.047-.07.047-.047.09-.113.136-.136.047 0 .113-.024.136-.07 0-.047-.09-.067-.07-.114.137-.09.25-.226.203-.362-.024-.07-.203-.07-.315-.113-.113-.043-.25 0-.386.024-.112 0-.225.07-.338.09a1.6 1.6 0 0 0-.428.225c.16-.066.315-.09.498-.136.136.004.249-.027.385.004"/><path fill="#000" d="M17.236 39v-8.4h2.568c1.848 0 2.988.948 2.988 2.508 0 1.02-.492 1.776-1.356 2.172L24.064 39H22.06l-2.244-3.396h-.876V39zm2.664-6.984h-.96v2.172h.96c.72 0 1.14-.42 1.14-1.104 0-.636-.42-1.068-1.14-1.068m8.627-2.136H26.98l1.356-1.62h1.752zM25.323 39v-8.4h4.896v1.416h-3.192v1.992h2.712v1.416h-2.712v2.16h3.192V39zm7.056 0v-8.4h2.772c1.848 0 2.976.948 2.976 2.508 0 1.548-1.128 2.496-2.976 2.496h-1.068V39zm2.844-6.984h-1.14v2.172h1.14c.72 0 1.152-.42 1.152-1.104 0-.636-.432-1.068-1.152-1.068m9.447 3.84V30.6h1.704v5.112c0 2.208-1.296 3.528-3.407 3.528-2.1 0-3.396-1.32-3.396-3.528V30.6h1.704v5.256c0 1.128.636 1.788 1.703 1.788 1.044 0 1.692-.66 1.692-1.788M48.671 39v-8.4h2.472c1.752 0 2.82.864 2.82 2.28 0 .684-.312 1.272-.9 1.656.888.396 1.38 1.116 1.38 1.992 0 1.536-1.188 2.472-3.12 2.472zm2.508-6.984h-.804v1.896h.804c.648 0 1.032-.348 1.032-.96 0-.588-.384-.936-1.032-.936m.24 3.312h-1.044v2.256h1.044c.792 0 1.272-.42 1.272-1.128 0-.72-.48-1.128-1.272-1.128M56.372 39v-8.4h1.704v6.852h3.192V39zm6.576 0v-8.4h1.704V39zm11.275-.216c.648.588 1.224.804 1.764.804.18 0 .42-.024.6-.096v1.44a2.2 2.2 0 0 1-.888.156c-.936 0-1.8-.384-2.628-1.104l-.996-.888q-.54.144-1.152.144c-2.652 0-4.464-2.04-4.464-4.44s1.812-4.44 4.464-4.44c2.64 0 4.452 2.04 4.452 4.44 0 1.404-.624 2.688-1.656 3.504zm-3.3-1.14c1.572 0 2.7-1.236 2.7-2.844s-1.128-2.844-2.7-2.844c-1.584 0-2.712 1.236-2.712 2.844s1.128 2.844 2.712 2.844m11.22-1.788V30.6h1.703v5.112c0 2.208-1.296 3.528-3.408 3.528-2.1 0-3.396-1.32-3.396-3.528V30.6h1.704v5.256c0 1.128.636 1.788 1.704 1.788 1.044 0 1.692-.66 1.692-1.788m4 3.144v-8.4h4.896v1.416h-3.192v1.992h2.712v1.416h-2.712v2.16h3.192V39zM17.236 51v-8.4h4.896v1.416H18.94v1.992h2.712v1.416H18.94V51zm6.576 0v-8.4h2.568c1.848 0 2.988.948 2.988 2.508 0 1.02-.492 1.776-1.356 2.172L30.64 51h-2.004l-2.244-3.396h-.876V51zm2.664-6.984h-.96v2.172h.96c.72 0 1.14-.42 1.14-1.104 0-.636-.42-1.068-1.14-1.068M31.206 51l3.18-8.4h2.232l3.18 8.4h-1.812l-.804-2.184h-3.36L33.018 51zm3.144-3.636h2.304l-1.152-3.156zM41.275 51v-8.4h2.184l3.756 6.072V42.6h1.704V51h-2.184l-3.756-6.072V51zm13.918-1.356c.96 0 1.716-.468 2.196-1.152l1.344 1.032c-.648.888-1.656 1.512-2.88 1.668l-1.044 1.74h-1.512l1.056-1.764c-2.184-.384-3.624-2.232-3.624-4.368 0-2.4 1.812-4.44 4.464-4.44 1.524 0 2.772.684 3.54 1.704l-1.344 1.044c-.48-.684-1.236-1.152-2.196-1.152-1.584 0-2.712 1.236-2.712 2.844s1.128 2.844 2.712 2.844M59.277 51l3.18-8.4h2.232l3.18 8.4h-1.812l-.804-2.184h-3.36L61.089 51zm3.144-3.636h2.304l-1.152-3.156zM69.346 51v-8.4h1.704V51zm3.476-1.164 1.236-1.14c.504.648 1.176 1.032 1.86 1.032.672 0 1.08-.36 1.08-.96 0-1.548-3.816-1.128-3.816-3.972 0-1.332 1.104-2.436 2.712-2.436 1.26 0 2.22.564 2.94 1.416l-1.248 1.128c-.492-.636-1.044-1.056-1.68-1.056-.6 0-.996.384-.996.888 0 1.524 3.816 1.092 3.816 3.972-.024 1.584-1.248 2.532-2.796 2.532-1.416 0-2.364-.516-3.108-1.404M80.692 51v-8.4h4.897v1.416h-3.192v1.992h2.712v1.416h-2.712v2.16h3.192V51z"/><path fill="#000" fill-rule="evenodd" d="m47.18 72.614-1.116 1.02h-.288l.66-1.164h.744zm-.804 3.947h-.24c-.3.36-.636.648-.96.648-.336 0-.504-.204-.504-.648 0-.18.024-.372.06-.54l1.956-.648c.384-.912-.072-1.308-.612-1.308-.924 0-1.98 1.62-1.98 2.916 0 .612.288.948.744.948.528-.012 1.08-.528 1.536-1.368m-.671-1.967c.264 0 .492.204.372.672l-1.213.324c.193-.576.553-.996.84-.996m-3.816.024h.648l-1.032 2.831c-.097.24.035.48.287.48.733 0 1.609-.624 1.945-1.512h-.18c-.264.372-.84.78-1.272.852l.948-2.651h.972l.12-.408h-.948l.36-1.02h-.372l-.672 1.02-.804.108zm-.901-.54c.132 0 .312.144.228.408l-1.164 2.82c.3-.048.612-.336.792-.6h.192c-.276.708-.9 1.224-1.44 1.224-.132 0-.324-.144-.228-.408l1.08-2.82c-.3.048-.612.336-.792.6h-.18c.276-.72.948-1.224 1.512-1.224m.337-.72a.443.443 0 1 0 0-.888.443.443 0 1 0 0 .888m-5.245 2.34c.264-.576.168-.84 0-.84-.144 0-.312.156-.48.444h-.18c.276-.612.636-1.224 1.032-1.224.336 0 .456.336.456.708v.528l.158-.185.002-.002c.507-.595.894-1.049 1.34-1.049.348 0 .528.216.528.54 0 .192-.06.432-.192.684l-.996 2.004c.3-.048.612-.336.792-.6h.18c-.276.72-.948 1.224-1.512 1.224-.252 0-.396-.264-.288-.48l1.152-2.22c.132-.252.156-.42-.048-.42-.276 0-.924.456-1.272.876l-.756 1.992c-.084.204-.168.252-.36.252-.312 0-.468-.204-.324-.528zm-.781-.769c.132-.456.06-.864-.288-.864-.434 0-.57.287-.991 1.174l-.03.062v-.528c0-.371-.12-.707-.456-.707-.396 0-.756.611-1.032 1.223h.18c.192-.276.372-.444.516-.444.168 0 .264.264 0 .84l-.768 1.704c-.144.324.012.528.324.528.192 0 .276-.048.36-.252l.757-1.992c.215-.264.407-.492.648-.744zm-3.793.337c.12-.468-.108-.672-.372-.672-.288 0-.648.42-.84.996zm.3 1.295h-.24c-.3.36-.636.648-.96.648-.337 0-.505-.204-.505-.648 0-.18.024-.372.06-.54l1.957-.648c.384-.912-.072-1.308-.612-1.308-.925 0-1.98 1.62-1.98 2.916 0 .612.287.948.744.948.528-.012 1.08-.528 1.536-1.368m-3.84-1.944h-.648v-.3l.804-.107.673-1.02h.372l-.36 1.02h.948l-.12.408h-.972l-.949 2.651c.433-.072 1.009-.48 1.273-.852h.18c-.336.888-1.213 1.512-1.945 1.512-.252 0-.384-.24-.288-.48zm-4.08 2.197c0-.876.973-2.052 1.513-2.052.12 0 .24.012.336.048l-.564 1.512c-.324.396-.828.876-1.069.876-.131 0-.215-.12-.215-.384m2.677-2.928.3.024-1.044 2.4c-.252.576-.144.84 0 .84s.324-.168.516-.444h.18c-.276.612-.636 1.224-1.032 1.224-.336 0-.54-.36-.48-1.008l.024-.228-.065.09c-.43.602-.82 1.146-1.22 1.146-.347 0-.527-.216-.527-.54 0-1.392 1.524-3.168 2.952-3.168h.06zm-2.749 1.043c.132-.456.06-.864-.288-.864-.434 0-.57.287-.99 1.174l-.03.062v-.528c0-.371-.12-.707-.456-.707-.396 0-.756.611-1.032 1.223h.18c.192-.276.372-.444.504-.444.168 0 .264.264 0 .84l-.768 1.716c-.144.324.012.528.324.528.192 0 .276-.048.36-.252l.756-1.992c.216-.264.408-.492.648-.744h.792zm-4.946 2.64-.072.216H16l.072-.228c.864-.156 1.008-.228 1.368-1.2l.78-2.088c.348-.972.276-1.044-.48-1.2l.072-.216h3.637l-.216 1.164h-.264c0-.696-.072-.876-.732-.876h-.168c-.648 0-.732.096-.912.6l-.517 1.404h.756c.505 0 .697-.312.925-.72h.264l-.624 1.704h-.264c.06-.516.06-.72-.409-.72h-.756l-.348.96c-.376.999-.268 1.02.627 1.189zm2.377-14.135-1.116.805v.011h-.289l.66-.96h.745zm7.802 5.63 1.788-4.753-.06-.073-1.236.144v.145l.24.18c.205.16.151.308-.019.774l-.029.078-1.368 3.65c-.108.216.036.48.288.48.564 0 1.164-.516 1.44-1.224h-.18c-.192.264-.576.552-.864.6m8.197-3.661 1.116-1.02v-.145h-.744l-.66 1.165zm.071 2.917h.24c-.444.853-.996 1.37-1.524 1.37-.456 0-.744-.337-.744-.95 0-1.296 1.056-2.917 1.98-2.917.528 0 .996.396.612 1.309l-1.968.648c-.036.168-.06.36-.06.54 0 .445.168.649.504.649.324 0 .66-.288.96-.649m-.06-1.296c.12-.456-.109-.66-.373-.66-.276 0-.636.42-.84.984zm-3.53-.637h-.647v-.3l.804-.108.672-1.02h.372l-.36 1.02h.948l-.12.408h-.972l-.948 2.653c.432-.072 1.008-.48 1.272-.852h.18c-.336.888-1.212 1.513-1.944 1.513-.252 0-.384-.24-.288-.48zm-1.32-.144c.072-.264-.096-.408-.24-.408-.564 0-1.236.516-1.512 1.225h.18c.18-.265.492-.553.792-.6l-1.08 2.82c-.096.265.096.409.228.409.54 0 1.164-.516 1.44-1.225h-.18c-.18.264-.492.552-.792.6zm.553-1.56a.45.45 0 0 1-.444.444.443.443 0 1 1 .444-.444m-6.06 1.848c-.54 0-1.512 1.177-1.512 2.054 0 .264.084.384.229.384.228 0 .732-.48 1.056-.877l.564-1.512a1 1 0 0 0-.336-.049m1.465-.852-.3-.024-.336.336h-.06c-1.428 0-2.952 1.777-2.952 3.17 0 .324.18.54.528.54.4 0 .789-.544 1.219-1.145l.065-.091-.024.228c-.06.648.144 1.008.48 1.008.396 0 .756-.612 1.032-1.224h-.18c-.192.276-.372.444-.516.444s-.252-.264 0-.84zm-6.05 3.89c-.516.204-.876.444-.876.817 0 .348.324.492.996.492.9 0 1.393-.264 1.393-.612 0-.157-.204-.229-.744-.409a5.4 5.4 0 0 1-.768-.288m.6-1.477c-.24 0-.324-.204-.324-.42 0-.696.336-1.56.876-1.56.24 0 .324.204.324.42-.012.708-.348 1.56-.876 1.56m.457 1.129c.66.204 1.068.36 1.068.816 0 .588-1.08 1.285-2.388 1.273-.756 0-1.404-.204-1.404-.697 0-.468.432-.852 1.488-1.164a.42.42 0 0 1-.204-.384c0-.288.264-.516.72-.733-.444-.06-.732-.396-.732-.888 0-.756.624-1.62 1.608-1.62a.94.94 0 0 1 .528.143h1.08l-.12.409h-.636c.036.108.06.228.06.36 0 .732-.588 1.572-1.524 1.62-.24.133-.36.313-.36.457 0 .17.196.227.63.353zm-3.805-2.053c.468 0 .48.204.408.72h.264l.624-1.705h-.264c-.228.409-.42.72-.924.72H18.64l.504-1.404c.18-.504.264-.6.912-.6h.456c.66 0 .732.18.732.876h.264l.216-1.164h-3.913l-.072.216c.756.156.828.228.48 1.2l-.78 2.101c-.36.973-.504 1.045-1.38 1.201l-.06.228h4.345l.78-1.237h-.3c-.504.493-1.008.949-1.992.949-1.083 0-1.064-.053-.739-.946l.066-.183.36-.96h1.045zm3.583-10.281a.45.45 0 0 0 .444-.444.45.45 0 0 0-.444-.444.443.443 0 0 0-.444.444c0 .252.192.444.444.444m3.552 1.51c0-.575-.144-.791-.552-.791-.504 0-.971.54-1.44 1.187l1.008-2.698-.06-.084-1.235.144v.144l.24.18c.209.162.148.324-.03.802l-.018.05-1.092 2.854c-.096.24-.204.528-.204.6 0 .335.456.66.876.66.936.011 2.507-1.716 2.507-3.047m10.402-1.223 1.116-1.02v-.143h-.744l-.66 1.163zm.072 2.915h.24c-.455.851-1.007 1.367-1.535 1.355-.456 0-.744-.324-.744-.935 0-1.296 1.056-2.915 1.98-2.915.527 0 .995.396.611 1.307l-1.955.648c-.036.168-.06.36-.06.54 0 .444.168.648.504.648.324 0 .66-.288.96-.648m-.06-1.296c.12-.455-.109-.66-.373-.66-.288 0-.648.42-.84.984zm-3.541-.634h-.648v-.3l.804-.108.672-1.02h.371l-.36 1.02h.948l-.12.407h-.971l-.948 2.651c.432-.072 1.008-.48 1.271-.851h.18c-.336.887-1.211 1.511-1.943 1.511-.252 0-.384-.24-.288-.48zm-.982.311c.132-.455.06-.863-.288-.863-.434 0-.57.286-.99 1.173l-.03.062v-.528c0-.371-.12-.707-.456-.707-.395 0-.755.611-1.031 1.223h.18c.192-.276.372-.444.503-.444.168 0 .264.264 0 .84l-.767 1.703c-.144.324.012.528.324.528.192 0 .276-.048.36-.252l.755-1.991c.216-.264.408-.492.648-.744zm-3.803.324c.12-.456-.108-.66-.372-.66-.288 0-.636.42-.84.983zm.3 1.295h-.24c-.3.36-.637.648-.96.648-.336 0-.504-.204-.504-.648 0-.18.024-.372.06-.54l1.955-.648c.384-.911-.072-1.307-.612-1.307-.923 0-1.98 1.62-1.98 2.915 0 .611.289.935.745.935.527.012 1.08-.504 1.535-1.355m-5.039.456c0 .156.276.336.468.336.78 0 1.512-1.403 1.5-2.183 0-.264-.132-.372-.312-.372-.288 0-.816.432-1.152.84l-.312.84c-.108.275-.192.491-.192.54m-1.26-2.938c.145 0 .313.144.24.408l-1.151 2.818c.3-.048.612-.336.792-.6h.18c-.276.708-.9 1.224-1.44 1.224-.144 0-.336-.144-.24-.408l1.08-2.819c-.3.048-.612.336-.792.6h-.18c.276-.708.948-1.223 1.512-1.223m-4.98-1.248h2.58l-.072.228c-.876.156-1.02.228-1.38 1.2l-.767 2.11c-.372 1.008-.276 1.128.383 1.128.816 0 1.35-.592 1.817-1.11l.103-.113h.3l-.852 1.511H16l.072-.216c.864-.156 1.008-.228 1.368-1.2l.78-2.122c.348-.972.276-1.044-.48-1.2z" clip-rule="evenodd"/></svg>
