<svg xmlns="http://www.w3.org/2000/svg" width="428" height="175" fill="none"><path fill="#fff" d="m75.213 111.125-47.56-77.13H0v106.702h21.575v-77.13l47.561 77.13H96.79V33.996H75.213zm70.647-77.129h-21.576v106.701h21.576zm56.976 15.853c8.052 0 15.044 5.336 21.272 13.414l15.802-14.327c-9.118-10.82-21.273-17.986-37.226-17.986-20.357 0-34.335 14.023-34.335 30.945 0 36.125 48.319 30.793 48.319 50.457 0 7.623-5.168 12.194-13.675 12.194s-17.17-4.875-23.551-13.111l-15.649 14.479c9.421 11.281 21.424 17.834 39.351 17.834 19.601 0 35.099-12.041 35.402-32.161 0-36.58-48.319-31.097-48.319-50.457 0-6.4 5.011-11.282 12.609-11.282m157.981 46.511c7.095-6.916 13.659-14.723 13.659-24.99 0-12.616-10.038-21.77-23.865-21.77-12.056 0-21.564 5.538-28.252 16.455l-1.174 1.917 14.659 8.958 1.153-1.944c3.831-6.439 7.402-9.066 12.337-9.066 4.449 0 7.106 2.551 7.106 6.835 0 4.544-2.565 7.66-7.982 13.198l-24.265 23.936V125.1h52.052v-16.515h-28.057l12.629-12.22z"/><path fill="#FDC82E" d="M348.722 7.6c2.614 0 5.201.69 7.473 1.988l56.631 32.427c4.687 2.682 7.603 7.715 7.603 13.133v64.398a15.16 15.16 0 0 1-7.603 13.133l-56.631 32.427a15.03 15.03 0 0 1-7.473 1.987c-2.619 0-5.2-.69-7.472-1.987l-56.631-32.427c-4.687-2.682-7.603-7.715-7.603-13.133V55.148a15.16 15.16 0 0 1 7.603-13.133L341.25 9.588a15.03 15.03 0 0 1 7.472-1.987m0-7.6c-3.874 0-7.749.994-11.223 2.986l-56.63 32.427a22.74 22.74 0 0 0-11.424 19.735v64.398c0 8.16 4.362 15.69 11.424 19.735l56.63 32.427a22.58 22.58 0 0 0 22.447 0l56.63-32.427A22.74 22.74 0 0 0 428 119.546V55.148c0-8.16-4.362-15.69-11.424-19.735l-56.63-32.427A22.6 22.6 0 0 0 348.722 0"/></svg>
