<svg xmlns="http://www.w3.org/2000/svg" width="588" height="330" fill="none"><path fill="#fff" fill-rule="evenodd" d="M261.026 39.02c68.151 4.78 108.246 36.476 160.704 59.002 61.057 26.218 161.271 40.869 166.07 81.316 4.828 40.682-78.895 68.816-145.538 91.705-53.249 18.288-117.174 23.636-181.236 20.524-57.279-2.782-106.075-17.477-149.487-36.588-47.824-21.054-94.583-44.04-105.445-75.641C-6.768 141.914-2.206 99.814 48.6 71.85c52.09-28.671 136.189-38.178 212.427-32.83" clip-rule="evenodd"/><path fill="#646370" d="M261.719 197.596c-2.671.933 5.51 19.8 6.108 21.903 3.908 13.388 16.496 42.637 18.398 37.059 3.418-7.005 56.427-20.032 56.427-20.032s-30.152-36.559-42.302-52.921c-12.387 4.908-29.182 4.042-38.631 13.991"/><path fill="#313144" d="M170.627 11.352c6.831-.119 15.192 1.87 24.007 4.505 22.971 5.14 42.637 37.126 19.367 53.756-9.114 8.681-19.398 6.944-30.95 5.31-.665-2.037 2.907 13.691-.201 16.026-4.109 3.14-15.625-6.412-22.306-6.077-3.371 4.273 8.413 9.614 1.604 14.49-4.243 3.042-12.419 2.47-13.589 4.975-.634 6.176-1.438 12.284-1.438 12.284s-8.846-2.304-21.203-3.206c-8.546-10.753-13.856-26.78-14.459-41.168-1.603-36.693 29.548-60.431 59.163-60.9z"/><path fill="#FFF7DB" d="M225.995 244.073c-2.804-.433-1.835 2.505.5 2.134 7.645 5.841 12.485 13.723 12.485 24.043.067 9.48 36.828-29.28 44.405-32.92 9.614-11.588 28.945 3.841 19.233-8.882-3.474-1.701-4.407-6.608-6.175-10.351-3.006-1.737-5.707-7.047-10.583-6.145-21.069 8.516-38.962 23.136-59.865 32.121m-77.496-130.019c.366 6.042 9.083 10.32 12.253 15.728 2.67 2.907 4.438 8.016 8.614 7.315 4.371-6.913 11.753-12.723 16.295-19.166 4.809 2.005 5.974 3.505 15.892 5.01 4.542 1-9.181 4.975-5.778 14.656 4.706 21.769 3.304 46.209 11.655 67.076 2.804 10.583 21.001 19.398 23.507 3.238 3.371-16.692-1.536-37.627-2.64-56.226-.402-6.68 6.779-11.387 8.748-15.959 1.305-13.656-9.547-13.692-12.686-23.739-.732-2.603-7.614-.732-4.005-4.005 3.572-4.042-.933-12.29 5.144-12.522.835-.469 1.402-2.067 1.036-2.938-1.902-4.542-4.34-8.78-7.113-12.79-2.238-3.005 1.969-11.552-1.836-12.021-7.949 9.516-22.671 8.382-33.79 6.48-.933.03-2.707 4.407-.738 9.583 3.743 9.851-4.773 8.846-5.505.902-.402-4.439-7.547-8.748-12.955-6.444-1.835.768-2.737 4.64-4.139 5.51-2.773 1.671 4.877 13.992 2.639 14.724-14.155 4.639-14.588.732-14.588 15.593z"/><path fill="#646370" d="M460.917 224.757c4.505.031 12.181-.783 12.181-.783l73.319-199.698-9.382-5.81s-51.075 138.911-76.118 206.291"/><path fill="#313144" d="M340.38 147.242c22.502 14.923 99.331 64.339 100.331 65.844-1.438 14.625-8.815 16.563-25.976 18.733 2.573 9.248 19.563 5.073 27.543 1.634 5.846-2.505 6.913-11.454 6.48-15.825 5.877 3.84 11.15 6.346 11.15 6.346l5.408-14.357-122.302-70.381s-2.237 7.176-2.639 8.016z"/><path fill="#646370" d="M344.022 209.112c14.522 17.563 39.163 36.394 55.891 54.158 10.985-2.268 32.553-7.882 36.193-7.779-3.64-4.407-20.203-21.769-21.337-23.707 5.243-2.738 25.007 2.072 26.244-18.93-11.186-9.046-15.362-10.985-17.13-10.418-3.34 1.067 3.408 12.79-26.878 14.589-12.021-9.145-14.521-14.424-19.496-14.125-10.949 1.438-22.135 4.207-33.487 6.212m-56.895 45.745c.031 4.974-.433 5.51-.433 5.51l53.287-13.624s2.103-6.042 1.567-9.851c-12.521 4.304-46.075 11.351-54.421 17.965"/><path fill="#FFF7DB" d="M343.548 138.999c28.311 17.331 122.399 70.381 122.399 70.381l70.752-190.25-153.855-.567-.335 1.135s-26.476 81.969-38.961 119.296z"/><path fill="#646370" d="M298.876 188.11c9.614 10.419 28.616 36.693 36.394 45.343 1.635 4.042-5.742 4.274-8.077 4.274-10.382-9.918-31.152-39.466-35.291-45.374a1.33 1.33 0 0 1 .335-1.835c1.469-1.067 4.309-2.774 6.645-2.402zm-30.242 9.315c6.078.567 17.331-9.65 19.898-.902 11.017 12.022 19.533 25.976 28.884 39.266 1.902 1.536 2.335 3.072 1.572 3.974-1.469 1.737-6.547 2.134-8.413 2.706-5.645 3.14-12.985 4.341-18.13 7.346-2.67.732-9.851-11.521-9.047-12.521 10.083-12.418 31.317 6.614 17.697-12.857-3.17-4.907-6.279-10.784-11.887-13.186-5.243-.402-11.321 2.907-15.228 4.974-1.402-2.871-11.217-18.965-5.341-18.795z"/><path fill="#FED980" d="M43.284 236.088c-4.34 53.153 17.46 73.654 73.288 70.551 13.089 3.907 26.275 12.887 41.333 11.784 16.057-2.134 31.12-9.315 44.539-18.094 13.222 2.907 25.408-14.759 34.754-22.47 3.609-7.511-.701-18.063-5.139-25.11-11.351-15.594-32.523-7.377-46.41-6.377-7.181-3.706 10.681-3.773 10.717-8.346 3.84 1.201 8.449 4.609 13.387 3.939 35.291-.732 37.394-35.992 22.94-59.298-3.737 2.969.902 16.094-.835 22.373-.232 16.361-17.764 15.526-23.203 2.737-14.521-20.501-1.402-49.617-19.429-67.912a919 919 0 0 1-7.748-15.794s-6.077 4.943-13.887 14.49c-6.846-8.717-13.022-16.527-19.063-22.372-3.439.469-13.924-1.238-22.636-2.738-2.505 2.269-5.108 4.506-6.742 10.583-38.967 23.775-71.917 64.005-75.86 112.049zM200.682 76.227c-2.439 10.186 8.382 27.713 15.594 12.155 10.016-19.697-11.285-45.709-15.594-12.155"/><path fill="#FED980" d="M218.172 67.278c1.201 4.707.536 20.667 8.114 20.868 5.206-7.645 2.871-28.549-2.603-28.244-1.604.067-3.506 3.17-5.511 7.376"/><path fill="#000" d="M450.299 218.195c0 .031.036.067.068.099-.032-.032-.032-.068-.068-.099m-108.451 28.11a.88.88 0 0 0-.866-.866.885.885 0 0 0-.866.866c0 .464.402.866.866.866a.86.86 0 0 0 .866-.866m-61.893-6.64-.066.067c0-.031.03-.031.066-.067"/><path fill="#000" d="M260.779 196.993c1.036-3.207 3.273-3.738 6.109-4.774 3.139-1.17 6.278-2.304 9.516-3.206 3.139-.866 6.278-1.701 9.382-2.67 2.871-.867 5.706-1.97 8.614-2.738 5.449-1.83 7.186.49 7.511.799.649.619 1.268 1.304 1.902 1.939 1.438 1.536 24.037 29.347 29.481 36.528 1.572 2.005 3.005 4.108 4.572 6.108 1.037 1.335 4.243 5.877 4.64 6.877.701 1.737-.201 11.233-1.134 11.454-.067.031-6.743 1.768-9.985 2.604-3.64.933-7.243 1.902-10.883 2.84-3.804 1-7.577 1.969-11.387 2.974-3.974 1.036-7.913 2.067-11.887 3.073-2.655.69-8.996 2.572-10.98 3.046a.95.95 0 0 1-1.021-.407c-.82-1.253-8.593-17.233-8.696-17.532-.067-.134.845-1.335 1.01-1.103s7.506 13.789 7.841 14.392a8.3 8.3 0 0 1 .536-2.402c.098-.299.299-.567.5-.799-.402-.701-6.599-12.186-7.001-13.186.469-.299 1.604-1.067 1.702-1.134.165.402 6.567 12.485 7.036 13.253.165-.067.335-.165.5-.268 6.042-3.139 12.656-5.212 19.166-7.212 5.841-1.768 32.286-9.016 32.523-9.047.103-.031-.799-1.902-1.433-2.871a681 681 0 0 0-14.692-19.331c-3.273-4.042-6.541-8.078-9.851-12.088-2.438-3.006-4.743-6.109-7.243-9.083a208 208 0 0 0-4.206-5.176c-.222-.294-1.923-2.036-2.794-2.923a1.41 1.41 0 0 0-1.242-.402c-.774.129-1.97.35-2.676.588-3.237.969-22.604 6.742-27.811 8.748-1.536.598-3.139 1.036-4.505 1.969-.268.232-.433.536-.598.835 2.237 7.047 5.577 13.655 8.346 20.465.201.5.433 1.036.665 1.536-.232.098-.433.232-.635.366-.299.201-.567.366-.835.598l-.134.103a259 259 0 0 1-2.268-5.474c-2.134-4.975-4.242-9.985-5.608-15.259-.067-.268-.134-.567-.201-.835-.433 1.067-.866 2.17-.799 3.34.268 2.671 1.304 5.176 2.335 7.614 1.433 3.408 2.84 6.81 4.273 10.217.232.5-1.268 2.269-1.433 1.738-.536-1.201-1.036-2.403-1.536-3.604-1.402-3.474-2.938-6.876-4.31-10.382-.701-1.835-1.237-3.737-1.371-5.675-.201-1.573.433-3.006 1-4.408zm79.964 40.466c-.5.201-19.496 5.712-26.677 8.047-8.583 2.706-17.362 4.975-25.342 9.181-.335.165-.665.335-.969.567-.701 1.067-.5 2.572-.634 3.841v.201h.031c3.407-.903 6.81-1.769 10.253-2.671 3.938-1.036 7.882-2.036 11.851-3.072l11.321-2.938c3.67-.933 18.429-4.743 19.429-5.011.036-.134 1.036-6.48.732-8.145zM117.949 127.246c0-.067-.031-.134-.099-.134q-.1.001-.098.103c0 .068.031.135.098.135q.1.001.099-.098zm-1.605 2.238c0-.068-.031-.135-.098-.135q-.1-.001-.099.098c0 .068.032.135.099.135q.1.001.098-.098m84.873 172.248q-.002-.1-.104-.099-.1-.002-.098.099-.001.1.098.098.102.001.104-.098m262.169-194.255c0 .036-.036.036-.067.066z"/><path fill="#000" d="M265.66 198.229c.036-.335.933-.768 1.103-.799.501-.201 18.93-6.108 18.93-6.108a.6.6 0 0 0 .231-.067c.037.036.037.067.068.067.097.134 5.34 6.546 5.577 6.778 1.103 1.403 2.237 2.774 3.372 4.176 0 0 .701.799.933 1.067.098.098.201.232.299.335-.037 0-.067 0-.067.031.536.665 9.248 12.351 9.449 12.619.134.201.299.402.433.598-.036 0 12.856 18.867 13.253 20.27 1.505 3.407-.536 3.407-1.134 3.67-2.005.902-26.378 9.315-26.512 9.351-2.103.732-3.536-3.34-4.274-4.438-1.433-2.238-3.072-5.207-4.505-7.444-.402-.433 1.67-1.938 2.237-1.737.536.134.732.701.969 1.17.604 1.067 1.238 2.134 1.805 3.206.201-.103.366-.201.567-.299.433-.232 6.644-3.34 6.742-3.407.031 0 .031-.036.067-.036a78 78 0 0 1-1.067-2.335c-.402-.836-1.067-1.836-1.402-2.738-.067-.201.768-.165.933 0 1.237 1.268 2.238 2.737 3.037 4.31 0 .031.036.031.036.067.201-.098 15.526-6.712 15.856-6.81-1-1.402-1.969-2.773-2.938-4.175a38 38 0 0 0-1.134-1.568c-.799.202-1.603.433-2.371.665-1.702.366-3.408.732-5.109 1.135a3 3 0 0 1-.799.134c-.433 0-.835-.165-.933-.702-.098-.701.603-.969 1.17-1.067 2.304-.567 4.573-1.237 6.877-1.835-1.103-1.567-2.206-3.103-3.304-4.675-1.805.732-3.573 1.5-5.511 1.835a5 5 0 0 1-.732.067c-.268 0-.567-.067-.768-.268-.469-.433-.232-1.268.366-1.402l1-.201c1.572-.366 3.041-1 4.541-1.604-1.268-1.804-2.572-3.603-3.84-5.407-2.505.768-6.279 2.067-8.815 2.603-.902-.969-3.206-6.346-3.438-6.681-.568.17-4.439 1.573-5.81 2.073.232.335 2.237 3.17 1.335 3.907-.201.098-.366.165-.5.165-.902 0-1.402-1.567-1.902-2.201-.232-.402-.5-.768-.732-1.17a147 147 0 0 0-5.377 2.103c.665 1.304 1.268 2.67 1.67 4.072.098.165-.665.433-.701.268-.634-.835-1.17-1.737-1.737-2.639-.268-.433-.567-.902-.835-1.371.598 1.237 1.17 2.505 1.634 3.773.268.433.031 1.036-.5 1.103-.036 0-.768-.402-.866-.768-.165-.469-6.98-16.758-6.877-17.661zm52.689 41.436c0-.036-.098-.933-.098-.969-1.804.433-6.041 2.237-6.712 2.469.031.067.098.768.098.768s5.774-1.902 6.712-2.268m-17.594 6.31c.536-.098 7.047-2.805 9.717-3.604 0 0-.201-.634-.201-.799-1.701.598-3.407 1.237-5.108 1.768-1.5.567-2.969 1.171-4.439 1.805 0 .067 0 .866.031.835zm-8.913 3.041c2.104-.433 7.681-2.572 7.681-2.572l-.098-.835s-5.742 2.201-7.376 2.773c-.134.165-.268.634-.201.634zm-4.273-6.212-.433 1.304s2.603 4.109 3.005 4.542c.098-.268.165-.665.299-.969a54 54 0 0 1-2.871-4.877m8.279-4.242a1.1 1.1 0 0 0-.5.201c-.634.335-6.712 3.407-6.877 3.474.5.933 2.603 4.743 2.639 4.81 2.671-.866 5.243-1.701 7.882-2.738-.232-.335-2.706-4.907-3.139-5.742zm10.387-4.64c-.201.031-7.011 2.969-8.016 3.439q-.403.201-.799.402c.835 1.438 2.706 5.474 2.938 5.974 3.14-1.268 6.31-2.505 9.516-3.639-1.304-2.17-2.438-3.975-3.639-6.176m1.304-.567c1.5 1.938 3.573 6.243 3.604 6.31 2.17-.737 4.371-1.438 6.613-2.072-1.237-2.202-2.639-4.31-4.072-6.377-.335.103-5.81 2.036-6.145 2.139m-29.847-37.827c-.299.098-.634.201-.933.268a132 132 0 0 1-3.609 1.134l-.701.201c.098.134.232.232.335.366.867.835 1.635 1.804 2.336 2.774.134-.067.268-.103.433-.165 1.603-.567 3.237-1 4.84-1.439-.866-1.067-1.737-2.134-2.706-3.139zm8.779-.701c-.402-.567-.902-1.036-1.335-1.572-1.567.5-3.14 1-4.707 1.469-.299.103-.598.165-.902.268.567.732 1.201 1.402 1.835 2.103.299.335.598.665.902 1 1.836-.603 3.671-1.201 5.542-1.737-.433-.5-.866-1.036-1.335-1.536zm4.309 15.924c.098.232.232.433.366.665.366-.098.732-.201 1.037-.335 1.938-.665 3.871-1.336 5.809-1.939-1.237-1.67-2.536-3.273-3.84-4.876-1.969.634-3.975 1.268-5.944 1.902a157 157 0 0 1 2.572 4.572zm-3.608-6.042c1.938-.598 3.871-1.17 5.779-1.768-.866-1.103-1.701-2.139-2.537-3.207-.536-.701-1.067-1.402-1.603-2.067a54 54 0 0 0-5.443 1.769c.469.567.969 1.134 1.433 1.737.835 1.134 1.603 2.335 2.371 3.536m-7.145 2.572c1.067-.433 2.17-.866 3.238-1.304.799-.299 1.603-.567 2.402-.835-1.268-1.603-2.537-3.206-3.872-4.742a2.2 2.2 0 0 1-.268-.336c-1.768.567-3.608 1.037-5.376 1.671.335.5.665 1.036.969 1.536q1.5 1.956 2.907 4.005zm-9.949-2.536c1 1.737 2.067 3.438 2.938 5.274.067.098.134.232.165.366 1.671-1 3.372-1.769 5.109-2.47-.067-.098-.098-.165-.165-.268-.536-1.036-1.17-1.969-1.871-2.907a38 38 0 0 1-1.603-2.469c-1.537.67-3.006 1.438-4.573 2.072-.067 0-.103.031-.165.031.067.134.098.232.165.366zm-.866-1.871q.031 0 .067-.036c1.536-.598 3.005-1.371 4.506-2.036-.098-.165-.232-.335-.336-.5-.5-.799-1.103-1.635-1.67-2.506-.067-.134-.165-.268-.232-.402-.536.134-1.036.268-1.572.433s-1.067.335-1.603.5c-.402.134-.799.268-1.201.366h-.036c.603 1.438 1.335 2.805 2.072 4.176zm21.893-10.655.732-2.773.098.036v-.036c2.439-.537 4.877-1.805 7.377-1.836 1.268-.433 3.34 3.738 4.371 4.609q5.458 7.112 11.017 14.125c7.046 9.345 14.892 18.16 21.202 28.043.335 3.175-5.377 3.84-7.748 3.938-2.773-.098-4.572-2.938-6.078-4.944-10.552-13.49-21.501-27.012-30.986-41.167zm10.815 11.15c-.031-.031-.031-.067-.067-.067l-.232 1.201c1.305 1.67 2.573 3.372 3.872 5.042l.268-1.268c-1.268-1.635-2.572-3.274-3.841-4.908m4.81 6.176-.268 1.304c1.304 1.701 2.603 3.371 3.907 5.078l.268-1.372a255 255 0 0 0-3.907-5.01m4.639 7.681c1.501 1.969 3.006 3.974 4.542 5.943l.268-1.371c-1.5-2-3.005-3.974-4.541-5.944zm5.511 7.242c1.469 1.939 2.975 3.805 4.408 5.743l.268-1.304-4.408-5.81zm6.346 6.511c-.232-.268-.433-.536-.665-.799l-.268 1.335c1.402 1.902 2.871 3.439 4.273 5.341.134-.299.335-.598.567-.866-.902-2.067-2.603-3.238-3.907-5.011m-22.569-27.78.269-1.268c-1.269-1.433-2.403-3.005-3.604-4.542l-.201 1.067c.835 1.171 3.207 4.341 3.542 4.743zm-7.948-12.021-.202 1.103c1.305 1.505 2.403 3.237 3.609 4.84l.201-1.036c-.969-1.237-3.34-4.541-3.603-4.907zm8.144-.067c-.598-.866-1.402-1.671-1.938-2.573-1.536.732-3.237 1.134-4.809 1.737 1.067 1.47 2.304 2.939 3.407 4.408 1.902-.098 3.773-.536 5.676-.603-.799-1-1.568-1.969-2.336-2.969m5.542 7.077c-.799-1-1.603-2.005-2.371-3.036-1.872.098-3.707.634-5.573.768 1.201 1.567 2.438 3.14 3.64 4.743 1.835-.335 3.675-.933 5.541-.902a42 42 0 0 0-1.237-1.567zm3.706 4.774c-.634-.835-1.304-1.67-1.938-2.469-1.768.335-3.407.933-5.139 1.433a553 553 0 0 1 3.938 5.206c1.804-.433 3.603-.866 5.475-1.134a107 107 0 0 0-2.336-3.036m3.64 4.675c-.232-.268-.433-.567-.665-.835-1.737.469-3.408 1.067-5.14 1.603 1.335 1.738 2.64 3.475 3.975 5.207 1.835-.402 3.603-1.134 5.505-1.17-1.237-1.634-2.438-3.237-3.67-4.81zm7.279 9.382c-.97-1.237-1.939-2.438-2.872-3.67-1.768.433-3.438 1.103-5.175 1.603 1.433 1.872 2.907 3.738 4.34 5.609 1.969-.469 3.975-.933 5.975-.598a193 193 0 0 0-2.268-2.938zm3.67 4.743-.598-.799c-2.072.268-3.639.5-5.578 1.067a337 337 0 0 1 4.274 5.444c2-.433 4.072-.201 6.108-.402-1.438-1.738-2.84-3.537-4.206-5.31m9.114 11.186c-1.402-1.536-2.774-3.108-4.042-4.742-1.938.469-3.871.536-5.809.835 1.335 1.969 2.907 3.84 3.938 5.974 2.103-.402 4.676-1.103 6.743-1.201-.299-.268-.567-.567-.835-.866zm-4.609 4.006c1.836-.067 3.774-.268 5.408-1.103.268-.403.567-.799.835-1.238-1.804.536-5.609 1.201-7.444 1.537-.031.299-.098.536-.098.902.402.036.866-.067 1.304-.098zM382.716 18.43c.067-.133-.066.132 0 0m-43.5 128.946c.067-.165.103-.335.165-.5.299-.902.603-1.836.933-2.738 1.536-4.541 3.036-9.083 4.572-13.655 1.639-4.877 3.274-9.748 4.908-14.656a2347 2347 0 0 1 4.943-14.691c1.603-4.743 3.171-9.48 4.774-14.223 1.567-4.64 3.103-9.284 4.675-13.923 1.671-4.975 3.341-9.919 4.975-14.893 1.536-4.542 3.036-9.083 4.572-13.625 1.567-4.706 3.171-9.418 4.743-14.124a621 621 0 0 1 2.335-6.78 112 112 0 0 1 1.335-3.67c.201-.5.402-1 .598-1.469v-.03a.94.94 0 0 1 .299-.403h.031l.036-.03a.7.7 0 0 1 .232-.068c.067-.03.098-.03.165-.067.098-.03.232-.067.335-.067.366-.067.732-.067 1.103-.067a51 51 0 0 1 3.207-.098c5.675-.098 11.32-.067 16.996-.03 6.041.03 12.052.03 18.094.067 6.175.03 12.351.03 18.532.067 5.84.03 11.655.03 17.496.067 6.041.03 12.088.03 18.094.067 5.943.03 11.851.03 17.764.067 5.876.03 11.722.03 17.593.067 5.31.03 10.62.03 15.929.067 2.671 0 5.377.03 8.078.03.165 0 .299.031.433.098.299-.03.634.067.866.135 2.469.866 4.64 2.402 6.81 3.804.701.536 2.005.933 2.005 2.005a.6.6 0 0 1-.067.232v.067c.036.3-.031.603-.098.866l-.402 1.304c-.366 1.17-.799 2.336-1.201 3.506-.835 2.469-1.768 5.01-2.67 7.578a2909 2909 0 0 1-6.877 18.862c-2.603 7.144-5.243 14.29-7.846 21.47-2.603 7.176-5.242 14.29-7.846 21.47-2.737 7.511-5.51 15.027-8.248 22.569-2.773 7.614-5.572 15.192-8.346 22.805-2.67 7.279-5.34 14.589-8.01 21.868-2.64 7.243-5.31 14.454-7.949 21.702-2.604 7.114-5.212 14.192-7.815 21.301-1.804 4.907-3.573 9.784-5.377 14.691 0 .067-.356.799-1.402.866-1.119.145-9.588.505-11.97.608a2 2 0 0 1-1.144-.309c-1.67-1.077-6.872-4.433-8.46-5.438a32 32 0 0 1-1.067-.701c-.299.902-.5 1.804-.768 2.67-.567 2.505-2.077 8.495-2.335 9.232a2.38 2.38 0 0 1-1.206 1.361c-1.248.609-3.49 1.665-4.567 1.923-6.413 2.17-13.223 3.042-19.935 3.542 2.671 2.572 5.274 5.175 7.949 7.778 1.567 1.501 3.042 3.037 4.542 4.609 1 1.036 2.103 2 3.005 3.139.536.5.732 1.372.036 1.836-.17.097-.335.164-.5.164-.268.134-.634.232-.835.299-2.134.5-31.62 7.047-35.559 7.98-.067 0-.134.036-.232.036-.366 0-.701-.232-.866-.536-.201-.165-.366-.366-.567-.536-1.737-1.67-3.474-3.304-5.206-4.974-1.805-1.701-3.573-3.408-5.377-5.14-1.804-1.737-3.639-3.474-5.444-5.206-1.871-1.769-3.706-3.573-5.572-5.341a748 748 0 0 1-5.475-5.243c-1.835-1.768-3.67-3.505-5.51-5.273-1.872-1.804-3.738-3.572-5.609-5.377-1.835-1.768-3.67-3.505-5.475-5.273-1.804-1.737-3.603-3.506-5.376-5.243-1.804-1.768-3.604-3.541-5.31-5.376a14 14 0 0 1-.634-.701c-.201-.232-1.613-1.903.531-2.135 1.237-.232 2.438-.433 3.676-.67 2.134-.402 4.273-.768 6.443-1.17s4.372-.799 6.547-1.201c2.17-.402 4.31-.768 6.48-1.17 2.201-.402 4.407-.799 6.645-1.201 1.134-.201 2.268-.402 3.438-.598.5-.103 1.036-.17 1.536-.268.268-.031.5-.067.768-.134.134 0 .268-.037.402-.037s.268 0 .366.068c.201.067 4.506 4.407 6.413 6.01 1.536 1.201 3.036 2.603 4.64 3.939 1.417 1.201 3.639 3.046 5.046 4.479.248.253.598.377.949.34 1.917-.201 7.846-1.221 10.598-1.448 3.289-.567 3.671-.799 5.475-1.201 1.572-.433 3.108-1.237 4.371-2.237 1.305-1.037 2.294-2.423 3.109-3.841 1.484-2.593 1.665-5.722 1.665-5.722s-8.511-5.428-12.552-8.031q-6.21-4.005-12.419-8.016c-4.108-2.64-8.248-5.274-12.351-7.949-4.072-2.64-8.145-5.243-12.222-7.882-4.006-2.572-8.016-5.145-12.022-7.748-4.005-2.572-8.016-5.14-12.021-7.748-1.737-1.134-7.96-4.918-9.047-5.578-.356-.216-.634-.768-.469-1.268zM534.604 20.033l-11.552-.031c-5.676-.031-11.387-.031-17.063-.067-5.944-.031-11.851-.031-17.795-.067-5.944-.031-11.887-.031-17.795-.067-5.974-.031-11.954-.031-17.96-.067-5.876-.031-11.753-.031-17.661-.067-6.175-.031-12.387-.067-18.563-.067-5.876-.031-11.753-.031-17.63-.098-2.84-.031-5.639-.031-8.48-.098-1.304-.031-2.603-.031-3.871-.098l-1.835-.098c-.098 0-.232-.031-.366-.031-.098.335-.165.67-.268 1-.299 1.103-.634 2.17-.969 3.237-1.438 4.609-3.006 9.181-4.542 13.759-1.603 4.706-3.139 9.449-4.742 14.155-1.567 4.707-3.14 9.382-4.707 14.089-1.634 4.876-3.273 9.748-4.907 14.625-1.537 4.608-3.073 9.217-4.64 13.82a1958 1958 0 0 1-4.84 14.393l-5.078 15.16c-1.603 4.743-3.17 9.516-4.773 14.259-.134.366-.232.701-.366 1.067.134 0 .232.031.335.067h.031c.036 0 .067.031.097.067.037.036.067.036.104.067.201.098.402.201.567.335l.902.5c.701.402 1.402.799 2.103 1.201 4.505 2.604 9.016 5.212 13.558 7.815 4.505 2.604 8.979 5.176 13.49 7.779 4.506 2.603 9.016 5.176 13.522 7.779 4.572 2.639 9.114 5.274 13.691 7.882 4.475 2.572 8.98 5.175 13.455 7.748 4.407 2.536 8.815 5.077 13.222 7.614 4.371 2.505 8.748 5.041 13.119 7.578 4.274 2.469 8.516 4.943 12.79 7.412 2.103 1.238 4.206 2.47 6.31 3.707 1.036.598 2.036 1.237 3.041 1.835.335.201.634.402.969.634 2.036-5.511 4.073-10.985 6.109-16.496 2.505-6.81 5.041-13.624 7.547-20.434 2.639-7.145 5.273-14.29 7.949-21.471 2.572-6.912 5.108-13.856 7.68-20.769 2.841-7.681 5.676-15.326 8.516-23.007 2.774-7.51 5.578-15.026 8.346-22.568 1.433-3.871 2.872-7.748 4.305-11.62 1.469-4.005 2.938-7.98 4.438-11.985a5803 5803 0 0 1 8.449-22.702c1.237-3.273 2.469-6.578 3.774-9.851.67-1.737 1.371-3.475 2.072-5.176.366-.902.732-1.804 1.134-2.67a4.7 4.7 0 0 1-1.201.03zM471.786 223.55a.84.84 0 0 0 .747-.547c1-2.722 1.975-5.423 2.975-8.15 2.505-6.846 5.01-13.655 7.511-20.465 2.603-7.078 5.175-14.156 7.778-21.233 2.671-7.346 5.377-14.692 8.078-22.038 2.841-7.712 5.645-15.46 8.48-23.171 2.706-7.413 5.444-14.826 8.145-22.27 2.67-7.243 5.31-14.49 7.98-21.77 2.639-7.247 5.309-14.459 7.949-21.702a3617 3617 0 0 1 7.175-19.5 994 994 0 0 1 3.475-9.316c.665-1.768 1.335-3.505 2.005-5.273.335-.902.701-1.768 1.067-2.67.098-.269.201-.5.335-.738-.402-.2-.732-.567-1.103-.768-1.335-.866-2.706-1.67-4.041-2.505-.5-.402-1.872-1.103-2.774-1.804a1.2 1.2 0 0 1-.536.366c-.067.165-.098.366-.165.536-.268.866-.567 1.768-.835 2.639-.567 1.701-1.17 3.407-1.737 5.109a1101 1101 0 0 1-3.237 9.114c-1.201 3.34-2.439 6.711-3.671 10.052a1676 1676 0 0 0-4.175 11.351c-1.469 4.005-2.975 8.01-4.439 12.052l-8.614 23.337c-2.773 7.547-5.577 15.057-8.345 22.604-2.707 7.279-5.377 14.558-8.078 21.837-2.64 7.077-5.243 14.191-7.882 21.3-2.573 6.98-5.145 13.924-7.712 20.903-2.572 6.98-5.176 13.955-7.748 20.935-1.768 4.773-3.536 9.547-5.31 14.356-.902 2.402-2.227 5.65-3.129 8.052.418 0 7.655-.531 9.821-.623zm-33.44 10c1.402-.5 5.118-1.747 6.521-2.345.665-.201 1.056-2.696 1.19-3.093.299-1.134.537-2.268.799-3.372.47-2.134.97-4.273 1.671-6.376-.835-.536-1.634-1.036-2.47-1.573a172 172 0 0 1-4.242-2.773c-.134 1.036-.268 2.072-.469 3.072-.469 2.403-1.438 4.676-2.603 6.846-1.269 2.371-3.006 4.774-5.712 5.475-2.505.835-5.109 1.103-7.681 1.634-1.732.335-7.217.99-9.243 1.201a.236.236 0 0 0-.144.402c.979 1.01 2.557 2.732 3.119 3.351a.58.58 0 0 0 .479.185c1.943-.19 13.212-1.232 18.779-2.639zm-14.589-29.615c-.335 1.469-.66 2.969-1.268 4.34-1.072 2.403-2.969 4.408-5.31 5.676-1.201.603-2.402 1.268-3.737 1.469-1.402.366-2.804.835-4.243 1.036-3.474.299-9.98 1.14-12.294 1.439a1.7 1.7 0 0 1-1.428-.5c-.784-.82-8.748-7.413-11.655-9.852-1.119-1.01-3.387-3.268-4.336-4.036a.92.92 0 0 0-.768-.191c-.85.176-2.144.439-2.809.552-2.238.402-4.475.835-6.712 1.237-2.17.402-4.371.799-6.547 1.201-2.17.402-4.304.768-6.474 1.17s-4.341.799-6.511 1.171c-1.521.283-3.042.572-4.562.824a.113.113 0 0 0-.052.201c.304.248.598.5.876.779 1.872 1.67 3.707 3.34 5.542 5.041a726 726 0 0 1 5.511 5.176c1.871 1.768 3.773 3.572 5.644 5.34 1.805 1.738 3.64 3.439 5.444 5.176a775 775 0 0 0 5.578 5.31c1.871 1.768 3.706 3.541 5.577 5.309 1.836 1.768 3.671 3.506 5.511 5.274 1.835 1.737 3.639 3.474 5.475 5.206 1.768 1.701 3.572 3.408 5.34 5.109 1.567 1.505 3.17 3.005 4.743 4.505h.02c1.098-.226 2.16-.587 3.253-.866 4.263-1.196 27.368-5.732 31.074-6.459a.255.255 0 0 0 .124-.438c-.516-.464-1.428-1.294-1.98-1.851-3.206-3.371-6.577-6.608-9.882-9.918-2.402-2.603-5.139-4.876-7.48-7.547-.402-.603-3.196-2.819-2.19-3.732.592-.541 10.17-1.644 12.712-2.211 2.268-.433 4.572-.701 6.779-1.469 3.304-.97 5.407-6.243 6.613-9.279.299-.903.536-1.805.732-2.738.134-.469.299-1.536.634-2.201-.134-.098-.268-.201-.433-.268a681 681 0 0 0-6.108-3.974l-5.908-3.805c-1.402-.902-2.84-1.804-4.242-2.706v.067c-.067.469-.165.969-.232 1.438zm36.193 19.831c.232-.634 3.609-9.717 5.078-13.655-.134-.067-.232-.098-.366-.165-.598-.299-120.931-69.381-120.967-69.417-.036 0-.036-.031-.067-.031-.732 2.17-1.593 4.521-2.325 6.722.366.165 118.384 76.345 118.652 76.546z"/><path fill="#fff" d="M353.734 133.22c24.507 15.027 105.976 60.932 105.976 60.932l61.267-164.706-133.22-.5-.268.969c0 .03-22.94 70.984-33.755 103.305"/><path fill="#000" d="M459.709 195.158c.103 0 .232-.037.335-.067a.95.95 0 0 0 .598-.604l61.266-164.706a1.15 1.15 0 0 0-.103-.933c-.165-.299-.5-.433-.835-.433l-133.219-.5c-.433 0-.836.299-.97.737l-.268.97c-.299.968-23.037 71.318-33.754 103.269-.134.433.031.933.433 1.17 24.238 14.893 105.207 60.499 106.006 60.968a.96.96 0 0 0 .5.134zm59.833-164.707L459.178 192.72c-9.413-5.309-80.768-45.611-104.239-59.931 5.645-16.862 14.326-43.503 20.703-63.004 10.717-32.889 12.521-38.529 12.82-39.6h.031l.067-.233z"/><path fill="#FED980" d="M472.602 59.868c-4.269-.315-7.444-4.372-7.099-9.063.346-4.69 4.088-8.237 8.351-7.918 4.269.315 7.444 4.372 7.099 9.063-.346 4.69-4.088 8.237-8.351 7.918"/><path fill="#000" d="M441.601 56.862c-3.917-.289-6.835-4.01-6.516-8.315.32-4.304 3.753-7.557 7.671-7.268 3.918.288 6.836 4.01 6.516 8.314s-3.753 7.558-7.671 7.269m-30.967-3.469c-3.33-.248-5.809-3.413-5.536-7.073.268-3.66 3.185-6.428 6.516-6.18 3.33.247 5.809 3.412 5.536 7.072-.268 3.66-3.186 6.428-6.516 6.18"/><path fill="#A5A4B3" d="M397.939 78.031c2.505-7.444 4.371-12.923 4.371-12.923l67.443 7.644-5.609 15.094-66.21-9.815zm-6.243 19.264a727 727 0 0 1 4.207-12.186l66.643 9.748-6.609 17.429zm-5.783 17.832c2.505-7.444 3.707-10.919 3.707-10.919l64.406 15.058-5.944 17.197z"/><path fill="#FED980" d="M379.15 131.073a1611 1611 0 0 1 3.707-10.918l61.803 22.135-5.609 17.862-59.895-29.079z"/><path fill="#000" d="M206.261 80.635c.134 0 .232-.031.366-.067 1.438-.902 2.974-1.634 4.608-2.134a.6.6 0 0 0 .031.232c.232.799 1.067 1.37 1.902 1.37.201 0 .433-.066.634-.133.701-.335 1.536-.933 1.469-1.804 0-.067 0-.165-.036-.269.433 0 .866 0 1.238.032.866.164 1.5-.433.732-1.17-.866-.733-2.037-.733-3.14-.733h-.402c-2.84.201-5.578 1.304-7.98 2.84-.835.599-.299 1.836.567 1.836z"/><path fill="#000" d="M306.019 232.551c-.201-.634-.402-1.268-.701-1.871-.402-.866-.969-1.603-1.603-2.237-.433-1.402-1.737-2.938-2.804-4.176a.57.57 0 0 0 0-.469c-.165-.335-.335-.634-.469-.969-.165-.366-.299-.701-.469-1.067a10 10 0 0 0-.567-1.036c-.202-.335-.366-.634-.567-.933a33.4 33.4 0 0 0-2.97-3.774 48 48 0 0 0-3.237-3.17c-.567-.5-1.17-1-1.804-1.469-.232-.165-.469-.335-.732-.469-.103-.067-.201-.134-.299-.165-.299-.134-.567-.165-.866-.201-.366-.031-6.042 1.268-7.578 1.804-6.98 2.304-12.857 6.846-19.13 10.485-6.145 3.805-12.522 7.212-18.8 10.784-4.944 2.738-10.083 5.14-15.192 7.578-1.969 1.036-4.042 1.938-6.042 2.939-.902-.201-1.804-.366-2.67-.671-1.103-.366-2.201-.598-3.304-.768 2.103-.366 4.139-1.067 6.175-1.701 4.243-1.603 7.949-4.371 11.419-7.212 1.505-1.304 2.938-2.773 4.041-4.438 1.335-2.268 2.335-4.743 3.042-7.279 2.201-8.047.799-16.527-.836-24.543a40.8 40.8 0 0 0-3.072-9.48c-1.5-2.737-3.17-5.443-5.206-7.815-.232-3.675-.47-7.345-.866-10.985-.635-5.907-1.537-11.784-1.939-17.697-.067-1.871 0-4.041 1.201-5.608 2.207-2.707 4.774-5.078 6.645-8.016 1.438-2.47 2.036-4.073.866-6.877-.835-2.871-1.804-5.774-3.572-8.181-.835-.902-2.103-2.572-3.408-2.572-.098.036-.232.067-.335.103-.098-.5-.433-1.103-.603-1.371a20.4 20.4 0 0 0-1.902-2.305c.067-.433-.165-.933-.299-1.335a14.4 14.4 0 0 0-3.737-5.273c-.866-1.036-1.97-1.103-3.006-.665a6 6 0 0 1-.402-.433c.067-.031.098-.067.134-.098 1.402-2.036 2.469-4.207 2.805-6.645.268-1.536.536-3.14.17-4.706-.036-.098-.036-.165-.067-.268 2-.537 3.737-1.537 4.103-3.738.103-1.536-.866-2.84-1.5-4.14-.067-.133-.165-.298-.232-.432.835-.567 1.5-1.403 2.036-2.269.768-1.237 1.304-2.603 1.701-4.005.433-1.371.701-2.804.902-4.243.165-1.402.268-2.804.299-4.206.031-2.871-.201-5.779-.933-8.547-.366-1.371-.866-2.737-1.567-3.974-.732-1.237-1.737-2.506-3.206-2.872-.366-.098-.799-.134-1.134 0 .335-.902.603-1.835.799-2.773a25.8 25.8 0 0 0 .536-7.645c-.201-2.603-.768-5.175-1.603-7.68-.835-2.403-1.97-4.707-3.274-6.877-1.335-2.238-2.938-4.34-4.706-6.28a50 50 0 0 0-5.542-5.108 48 48 0 0 0-6.376-4.206 43 43 0 0 0-6.944-3.103c-9.583-3.372-14.388-4.64-26.342-5.176-2.706-.134-4.634-.072-8.078.536a62.1 62.1 0 0 0-24.476 9.815c-4.84 3.206-9.449 6.81-13.289 11.15-7.547 8.98-12.254 20.8-13.888 32.389-.433 3.804-.366 7.645-.031 11.485.201 3.304.567 6.609 1.305 9.815.701 3.207 1.402 6.413 2.603 9.45 1.67 4.108 3.639 8.113 5.676 12.088a97 97 0 0 0 3.005 5.474c.366.567.737 1.134 1.335 1.469l-.402.402c-.768.702-1.469 1.202-1.969 2.104a49 49 0 0 0-2.64 4.608c-.902 1.902-1.5 2.902-1.402 3.939-1.103-.031-2.139.402-3.036 1a79 79 0 0 0-3.34 2.103c-3.006 2.036-6.212 3.84-9.084 6.109-5.742 4.273-11.052 9.046-16.593 13.557-2.573 2.402-5.176 4.743-7.547 7.346-1.67 1.938-3.372 3.84-5.073 5.743-3.474 4.309-6.376 8.851-9.516 13.32-2.469 3.706-5.01 7.377-7.078 11.351-2.84 5.341-5.474 10.784-7.577 16.429a154 154 0 0 0-4.176 14.96c-.567 2.67-.933 5.34-1.469 8.011-1.335 8.113-2.371 16.325-1.97 24.47.202 3.542.367 7.078.733 10.583.335 2.738.969 5.444 1.603 8.114 1.536 5.841 2.871 11.821 5.975 17.063 3.706 6.279 9.18 11.589 15.593 15.058 3.17 1.603 6.578 2.737 9.918 3.907 3.707 1.036 7.444 2.073 11.218 2.805 5.34.969 10.753 1.5 16.161 1.536 2.201-.036 4.407-.268 6.608-.299 1.469-.031 2.908 0 4.372-.098 1.067-.031 2.139-.268 3.17-.134.232.067.5 0 .701-.134.969.634 1.938 1.268 2.938 1.804 1.701 1 3.408 2.036 5.274 2.773 1.701.567 3.407 1.171 5.077 1.903 4.274 1.67 8.614 3.304 13.089 4.407 3.938.732 7.98 1.603 12.021 1.603 4.743-.103 9.418-1 13.893-2.505 5.108-1.603 9.985-3.841 14.625-6.48 3.541-1.804 7.242-3.34 10.619-5.407 1.237-.769 2.469-1.501 3.603-2.403.866-.634 1.701-1.438 2.67-1.969.469.634 1.403.969 2.908.969.268 0 .536-.031.799-.031 2.072-.268 4.072-1.103 6.077-1.737 2.64-1 5.011-2.536 7.31-4.072 4.176-2.439 7.815-5.707 11.083-9.248 2.537-2.872 5.774-5.078 8.145-8.114.969-1.567 1.572-3.305 1.871-5.109 2.537-1.768 4.176-3.072 6.81-4.675 5.444-3.64 10.619-7.712 15.625-11.888 4.108-3.541 8.047-7.309 12.088-10.949 3.408-3.005 6.48-6.547 10.382-8.882 4.81-3.17 8.65-4.541 14.424-3.474.969.103 1.902.268 2.84.536 1.201.433 2.841.768 3.841-.232.5-.5.469-1.201.201-1.804zM233.2 199.998c-.067-.835-.835-10.918-1-13.821l-.201-3.17c1.103 1.804 2.201 3.572 3.171 5.444 1.268 2.67 2.103 5.541 2.804 8.382 1.438 7.211 2.907 14.722 1.701 22.037-1.871 9.248-4.81 12.351-12.454 17.46-1.568.902-3.073 1.938-4.743 2.603-1.304.536-2.706.866-4.072 1.304-3.542 1-7.279 1.269-10.888.665-2.639-.402-5.206-1.036-7.644-2.072-1.336-.536-2.64-1.134-3.707-2.103-1.402-1-2.67-2.17-3.974-3.304-.604-.403-.933-1.238-1.702-1.305-.969-.902-1.871-1.871-2.603-2.938-.799-1.237-1.536-2.505-1.969-3.907-.732-2.135-1.438-4.274-1.902-6.444-.268-1-.067-2.036 0-3.042.433-5.974 1.036-12.021 2.268-17.898.536-3.005 1.505-5.907 3.072-8.516 1.702-2.469 4.109-4.309 6.511-6.01 1.402-.902 2.938-1.433 4.274-2.335.036.402.056.768.103 1.134.886 7.113 2.17 13.289 2.773 15.191.299 1 .665 1.969 1.036 2.939a43.7 43.7 0 0 0 3.341 6.778c1.17 1.903 2.505 3.738 4.005 5.377 1.701 1.835 3.639 3.474 5.877 4.609.165.097.366.201.531.268 1.067.469 2.134.799 3.273.969.433.067.902.098 1.335.098.835 0 1.67-.098 2.469-.335 2.336-.665 4.207-2.403 5.475-4.408l.031-.036c1.268-2.067 2.036-4.407 2.438-6.81.165-1.134.299-2.268.366-3.438a28 28 0 0 0 0-3.371zm-29.548 42.167c-.835.134-1.67.299-2.469.469-2.706.433-5.408 1.001-8.114 1.506-1.603.268-3.34.201-4.841.866-.5.299-.799.768-.902 1.304a3 3 0 0 1-.732-.366 25 25 0 0 1-1.103-.732c2.371-.866 4.975-1.201 7.078-2.706a24 24 0 0 0 3.572-2.305c.232-.165.567-.366.866-.567.134.098.299.201.433.268 1.97.969 4.073 1.701 6.212 2.269zm-22.573-85.773c-.202-2.206-1.372-4.072-2.604-5.841-1.567-2.438-3.505-4.608-5.206-6.943a2990 2990 0 0 1-4.341-5.542c1.201-1.17 2.238-2.505 3.341-3.742 1.17-1.305 2.402-2.537 3.608-3.841 1.768-1.737 3.542-3.505 5.243-5.34 0 .067.031.098.031.165.031.134.134.201.268.201 5.474 8.681 7.98 18.965 8.346 29.146.067 2.572-.031 5.108-.232 7.681-.067 2.536-.567 5.041-1.201 7.479-1.269-1.67-2.738-3.139-4.006-4.809-1.17-1.304-2.201-2.773-3.541-3.908.469-1.536.567-3.139.299-4.706zm13.32-19.568c.299 3.237.835 6.479 1.402 9.681-.768-1.201-1.572-2.402-2.335-3.609-1.17-2-2.603-3.804-3.938-5.675-.433-.598-.867-1.238-1.336-1.872a51 51 0 0 0-.732-1.969c-.835-2.072-1.902-4.242-3.041-6.108-.732-1.068-1.335-2.336-2.237-3.305.933-1 1.871-2.036 2.773-3.108.536-.598 1.103-1.134 1.634-1.737.768.469 1.603.902 2.469 1.237 2.537 1.469 5.408 2.237 8.248 2.84 1.134.201 2.238.469 3.341.603-2.17 2.103-4.707 5.341-4.877 5.877-1.469 2.103-1.567 4.742-1.371 7.145m-4.475 43.374c.104-2.671-.165-5.341-.366-7.98.537-.799.702-1.835.97-2.738.134-.866.402-1.67.567-2.505.366-2.237.433-4.474.603-6.712.366-6.675-.268-13.423-1.969-19.898.03.031.03.067.067.098 1.634 2.536 3.139 5.145 4.706 7.712.866 1.402 1.603 2.871 2.402 4.304 0 .067.036.165.067.232.969 5.676 1.835 11.352 2.268 17.094.232 3.274.5 6.511.799 9.748-1.438.866-3.103 1.304-4.608 2.103-2.469 1.47-4.774 3.238-6.645 5.377.567-2.237 1-4.541 1.134-6.846zm40.766-58.329c1.438.969 2.402 2.536 3.103 4.073.933 1.701 1.639 3.505 2.237 5.309.97 2.134.769 3.14-.433 5.073-1.505 2.737-4.041 4.943-5.974 7.345-3.774 3.475-2.469 8.98-2.103 13.491.402 4.341 1.103 8.65 1.5 12.985.433 3.707.603 7.511.866 11.218.268 4.407 1.335 17.325 1.335 17.697 0 .433.031.902.031 1.335 0 .634.026 5.588-1.134 8.748-.243.654-.433 1.335-.732 2.005-.201.5-.469.969-.732 1.438-.031.031-.031.067-.067.098-.232.366-.5.732-.768 1.067-.232.299-.5.567-.769.835a7 7 0 0 1-.732.634c-.231.165-.5.335-.768.5a8 8 0 0 1-.799.366c-.268.098-.536.201-.804.268a8 8 0 0 1-.902.165c-.299.036-.634.036-.933.036-.366 0-.701-.036-1.067-.103a13 13 0 0 1-1.134-.268c-.433-.165-.902-.335-1.304-.5-.567-.232-1.104-.536-1.604-.835-.603-.402-1.201-.799-1.768-1.268a24 24 0 0 1-2.134-1.969 28 28 0 0 1-2.402-2.871 44 44 0 0 1-2.505-3.939 43 43 0 0 1-2.305-4.907l-.031-.067a42 42 0 0 1-1.871-5.81 39 39 0 0 1-.835-4.243c-.098-.5-.536-3.572-.603-4.242-.299-2.706-.634-5.408-.866-8.145-.567-6.944-1-13.893-2.201-20.733-1.036-6.547-2.439-13.156-3.14-19.697-.098-1.805-.232-3.707.604-5.341.866-1.634 2-3.103 3.206-4.474.969-1.103 1.969-2.104 2.84-3.238 1.738-.134 3.506-.634 4.944-1.634-.201 1.304-.232 2.671.098 4.14.232 1.17.933 4.242 2.402 4.242.201 0 .402-.067.603-.165.201-.134.531-.433.866-.799.036.732.098 1.438.232 2.14.134 1.036.634 2.067 1.768 2.067h.201c.671-.031 1.238-.5 1.805-.799 0 0 .031-.031.067-.031-.031.067-.031.165-.031.232-.031 1.036-.201 2.103-.067 3.139.134.933.969 1.768 1.902 1.768.268 0 .531-.067.799-.232.933-.469 1.603-1.237 2.237-2.067.165 1.036.567 1.835 1.603 1.402.732-.469 1.305-1.17 1.939-1.804 1.134-1.304 2.536-2.304 3.639-3.639.603-.665.902-1.634 1.701-2.073.134.335.268.701.701.768.366.067.732-.232.768-.603.098-1.237-1.134-1.902-2.17-1.237-2.402 2.005-4.877 4.073-6.877 6.511.098-1.737.536-3.506 1.171-5.109.366-1.036.53-2.139 1.134-3.072.969-1.335 2.304-2.335 3.572-3.341.835-.701 1.67-1.433 2.706-1.835zm-21.068 1.469c.097-1.567.866-2.974 1.505-4.371 1-2.134 1.902-4.207 2.871-6.346.768-1.402 1.402-2.974 2.737-3.938.366-.165.768.134 1.104.268.567.232 1 .701 1.5 1.103.134.098.232.201.366.268a4 4 0 0 0-.768.902 176 176 0 0 0-4.908 7.98c-.701 1.335-1.639 2.572-1.871 4.072-.103 1.001-.103 2.037-.17 3.042 0 .335-.031.665-.031 1-.232.232-.433.5-.567.701l-.799.799c-.768-1.768-1.036-3.603-.969-5.475zm18.965-3.34c.268.268.469.634.768.902-.799.469-1.505 1.103-2.17 1.701-1.439 1.201-2.939 2.335-4.073 3.805-.603.933-.835 2.036-1.201 3.072-.536 1.17-.969 2.402-1.103 3.706 0 .134-.031.268-.031.433 0 0-.036.031-.067.031-1.067.732-1.871 1.835-2.908 2.573-.268-2.037.098-4.073.366-6.078.165-1.335.299-2.67.702-3.939.366-1.036.969-1.938 1.505-2.871.732-1.335 1.536-2.639 2.536-3.804.768-.933 1.304-2.134 2.268-2.872 1.335.867 2.268 2.238 3.408 3.341m-5.176-8.212c.902.969 1.572 2.139 2.335 3.273-1.469-.366-2.737 1.171-3.603 2.47-1.17 1.505-2.402 2.974-3.304 4.639-.866 1.335-1.769 2.902-2.006 4.506a47 47 0 0 0-.598 4.34h-.098c-.768.299-1.438.701-2.103 1.134-.366-2.17-.036-4.407-.036-6.578.067-.835-.031-1.67.165-2.469.268-.768.701-1.469 1.103-2.17 1.371-2.371 2.774-4.707 4.14-7.078 1.036-1.536 2.036-4.639 4.005-2.072zm1.402-17.094c-1.701 1.036-3.742 1.17-5.644 1.371-.97.134-2.006.067-2.872-.433-.232-.268-.402-.567-.67-.835-.402-.433-1.201-.402-1.5.165-.299.5-.036 1.134.299 1.5.799 1.305 2.572 1.64 3.974 1.64 1.037-.134 2.305-.201 3.537-.402.067 1.335-.201 2.67-.469 3.938-.268 2.139-1.171 4.139-2.372 5.779-.031.067-.067.098-.098.134-.701-.598-1.505-1.036-2.469-.969-2.938.732-4.572 5.711-5.742 8.211-.97 2.104-2.006 4.109-2.573 6.212-.567 0-1.067.299-1.603.366-.969.134-1.938.366-2.907.433-2.067.232-4.207-.268-6.243-.701-2.134-.469-4.176-1.036-6.145-1.902-.933-.5-1.902-1-2.871-1.402-2.201-1.134-4.042-2.738-5.841-4.408-.732-.634-1.371-1.371-2.005-2.103-.536-.598-1.134-1.469-2-.835-.536.366-.469 1.237 0 1.603.433.536.902 1.036 1.335 1.536 1.572 1.603 3.274 3.171 5.109 4.475a2.3 2.3 0 0 1-.299.268c-1.433 1.304-2.671 2.773-3.975 4.206-2.335 2.47-4.773 4.841-7.145 7.31-2.067 2.072-3.907 4.371-5.943 6.511-.902-1.103-1.804-2.238-2.738-3.341-2.773-3.17-5.639-6.242-8.644-9.181-2.372-2.572-4.707-5.242-6.846-8.016-.268-.335-.536-.665-.799-1 .051-.453.103-.891.17-1.335.041-.082.077-.17.098-.268.165-1.036.201-2.17.232-3.237.067-1.701.134-3.439.665-4.506.902-1.768 2.572-3.108 4.505-3.541.866-.201 1.805-.232 2.805-.268.402 0 .768-.036 1.17-.067 1.237-.067 3.041-.299 4.438-1.371 3.707-2.707 1.505-6.346.036-8.748-.299-.5-.567-.933-.799-1.372-1.335-2.536-.603-6.644 1.701-9.346 1-1.17 3.104-3.04 5.944-2.072 3.572 1.17 6.413 4.14 7.444 7.748.067.3.165.567.232.866.201.8.402 1.603.799 2.402.732 1.439 2 2.372 3.304 2.439 1.902.103 3.408-1.567 3.737-3.238.336-1.7-.268-3.371-.732-4.474-.164-.366-.335-.701-.5-1.036-.402-.835-.799-1.635-1-2.439-.546-2.216.057-4.03 1.861-5.418a41 41 0 0 0 3.047.645 41 41 0 0 0 7.047.634h.232a47 47 0 0 0 3.706-.165 24 24 0 0 0-.067 1.603c0 2.268.201 4.542.701 6.743a26 26 0 0 0 1.067 3.474c.536 1.305 1.17 2.537 2.006 3.67.665.934 1.469 1.769 2.438 2.403.933.634 2 1.036 3.103 1.17.232.036.433.036.665.036.835 0 1.634-.134 2.402-.433 1.036-.366 1.97-.969 2.774-1.701 1.603-1.402 2.804-3.273 3.706-5.207a25.5 25.5 0 0 0 1.304-3.438c.366-1.268.665-2.572.866-3.84.536 3.34 2.939 6.041 4.372 9.047.469.969 1.103 1.835 1.438 2.84.232.701-.299 1.237-.768 1.67zM202.276 76.16a40 40 0 0 0 3.438-.835c2.371-.701 4.707-1.634 6.846-2.907 1.737-1 3.34-2.17 4.742-3.64.269 1.17.47 2.371.604 3.439.134 1.134.201 2.237.201 3.34v.799c-.036 1.433-.134 2.84-.366 4.243-.201 1.237-.433 2.438-.799 3.639a28 28 0 0 1-1.037 2.84c-.299.732-.701 1.433-1.103 2.135a23 23 0 0 1-1 1.469c-.335.402-.67.768-1.036 1.134-.232.268-.536.469-.799.7-.232.166-.5.336-.768.5-.232.135-.469.233-.701.336s-.469.165-.701.232c-.201.03-.402.067-.603.098-.232.036-.433.036-.634.036-.165-.036-.366-.036-.567-.067-.201-.036-.402-.067-.604-.134-.201-.031-.366-.134-.567-.201-.201-.098-.433-.201-.634-.335-.232-.134-.433-.3-.665-.47-.232-.164-.469-.401-.67-.602a20 20 0 0 1-.799-.97 28 28 0 0 1-.835-1.304c-.335-.598-.603-1.237-.866-1.871a32 32 0 0 1-.799-2.536 30 30 0 0 1-.603-3.408 26 26 0 0 1-.201-3.938c0-.5.031-1 .067-1.505.5-.067.969-.134 1.469-.232zm-1.304-1.768c.03-.232.067-.433.097-.665.202-1.201.47-2.438.8-3.603.335-1.036.664-2.006 1.103-2.97.299-.732.701-1.469 1.103-2.139.335-.5.665-1 1.036-1.47.268-.334.603-.67.902-1 .299-.267.603-.535.902-.767.268-.165.536-.335.799-.5a7 7 0 0 1 .665-.335c.232-.098.469-.165.701-.232.201-.031.402-.067.603-.098.165-.031.366-.031.567-.031.202.03.403.03.604.067.201.036.402.067.603.134s.402.134.567.2c.232.099.469.202.665.336.232.134.469.299.665.47.268.2.5.432.732.67.366.401.701.798 1.036 1.236.201.3.402.634.603.97.335.634.634 1.304.902 1.938l.031.098s.036.03.036.067a17 17 0 0 1-1.969 1.768 28 28 0 0 1-2.603 1.835 23 23 0 0 1-3.274 1.737 34 34 0 0 1-3.706 1.371h-.031q-.036.031-.067.031a32 32 0 0 1-4.072.903zm22.702-14.49c.201.2.464.267.732.365a1 1 0 0 1 .335.134l.299.201c.134.098.268.202.402.336.134.133.299.298.433.469.165.2.335.433.469.67.201.402.397.768.598 1.17q.4 1.005.701 1.902c0 .031.031.067.031.098.299 1.036.536 2.072.701 3.14v.03c.232 1.47.366 2.939.402 4.31a36 36 0 0 1-.201 4.64 31 31 0 0 1-.665 3.87 32 32 0 0 1-.799 2.537 19 19 0 0 1-.732 1.603 5.2 5.2 0 0 1-.634.97c-.165.231-.335.401-.5.597a1.8 1.8 0 0 1-.366.366c0 .031-.031.031-.067.067-.969-1.603-2.072-3.14-3.005-4.773-.299-.5-1.268-2.47-1.804-3.371.036-.434.067-.867.103-1.305.732.536 2.237.8 2.871.536 1.201-.17 1.438-1.804.134-1.969-.969.201-1.969 0-2.938.134v-1.7a34 34 0 0 0-.268-3.238 28 28 0 0 0-.701-3.34c-.098-.336-.201-.635-.299-.97a25.5 25.5 0 0 0 3.34-4.608c.5-.933.969-1.903 1.371-2.903.031 0 .031.031.067.031zm-101.635 45.842c-2.006-3.84-3.908-7.778-5.542-11.753-1.603-4.108-2.438-8.48-3.237-12.79-.536-4.639-1-9.314-.768-13.99.098-3.907.933-7.779 2.005-11.552 1.304-5.073 3.438-9.851 5.841-14.46 1.902-3.304 4.005-6.541 6.608-9.351 2.97-3.17 6.346-5.877 9.882-8.413 4.774-3.34 9.882-6.279 15.357-8.248 4.108-1.469 8.346-2.402 12.619-3.14 1.567-.231 3.104-.2 4.676-.2 8.815 0 17.228 1.835 22.702 3.706 1.134.402 2.336.732 3.475 1.17.433.165.866.3 1.268.47q.03.03.067.03h.031a54 54 0 0 1 5.773 2.738 50 50 0 0 1 5.042 3.237 46 46 0 0 1 4.371 3.67 40 40 0 0 1 3.573 3.872c1 1.268 1.969 2.572 2.804 3.938v.031l.031.031a40 40 0 0 1 2.139 4.072 31 31 0 0 1 1.433 3.872c.366 1.237.67 2.505.866 3.773.165 1.17.268 2.335.299 3.542 0 1.103-.036 2.237-.165 3.34-.134 1-.299 2.036-.536 2.902a39 39 0 0 1-.902 2.774c-.031.03-.031.067-.031.067v.03a23 23 0 0 1-1.237 2.604 26 26 0 0 1-1.536 2.371c-.268.366-.567.701-.866 1.067a12 12 0 0 0-.469-1c-.232-.469-.5-.933-.768-1.371q-.45-.752-1-1.402a8 8 0 0 0-1.202-1.17c-.5-.402-1.036-.768-1.603-1.036a6.7 6.7 0 0 0-1.768-.568 5.9 5.9 0 0 0-2.036-.03c-1.067.134-2.103.567-3.005 1.17-1.939 1.268-3.372 3.206-4.439 5.206-1.036 2.005-1.768 4.14-2.268 6.346-.268 1.103-.433 2.17-.567 3.273a53 53 0 0 1-3.103.201 42 42 0 0 1-5.475-.268c-1.67-.2-3.34-.469-4.974-.866a4 4 0 0 1-.567-.134h-.037a.94.94 0 0 0-.871.16 2 2 0 0 0-.129.072c-2.639 1.872-3.639 4.573-2.871 7.712.268 1.036.701 1.933 1.134 2.84.165.335.335.665.469 1 .603 1.336.799 2.372.603 3.238-.165.835-.902 1.67-1.701 1.634-.732-.03-1.335-.732-1.634-1.335s-.469-1.268-.67-2.005c-.067-.3-.165-.635-.232-.933-1.237-4.243-4.572-7.712-8.748-9.083-2.907-.97-5.877.036-8.114 2.706-2.804 3.34-3.639 8.315-1.938 11.552.268.47.531.97.866 1.47 1.67 2.773 2.572 4.572.5 6.077-.768.567-1.835.866-3.408.97-.366.035-.737.035-1.103.066-1.036.031-2.103.067-3.17.335-2.505.603-4.676 2.304-5.81 4.609-.732 1.469-.799 3.438-.866 5.34-.031 1.036-.067 2.103-.232 3.006v.041a320 320 0 0 0-.397 3.062c-3.438-1.103-7.144-1-10.686-1.701-1.804-.299-3.541-.835-5.309-1.304-1.635-.5-3.408-.537-4.975-1.202-1.402-1.871-2.371-4.072-3.474-6.108zm-.701 16.027c.902-1.768 1.871-3.541 3.036-5.175.866-.732 1.634-1.506 2.469-2.104.902.165 1.871.299 2.774.567 2.371.702 4.572 1.269 6.979 1.635 2.47.335 5.006.536 7.413.969a8.7 8.7 0 0 1 2.103.567c.299.098.604.201.903.201.164 0 .299-.031.433-.067.567-.232.768-.768.902-1.335 1.938 2.938 4.206 5.644 6.541 8.279 3.609 3.675 7.181 7.479 10.449 11.485 3.609 4.541 7.248 9.083 10.718 13.758 2.036 2.872 3.572 5.042 3.072 8.748a4.2 4.2 0 0 1-.268 1.134c-.222.743-.237.634-.469 1.171-.469 1-1.036 2.005-1.469 3.005-1.439 3.139-3.238 6.078-5.073 8.98-1.067 1.737-1.969 3.603-3.237 5.242-.603.702-1.268 2.439-2.371 1.439-1.501-1.17-2.336-2.939-3.604-4.341-.902-1.103-1.634-2.335-2.438-3.536-1.268-1.835-2.603-3.639-3.871-5.475-3.841-5.407-8.315-10.315-12.723-15.258a2064 2064 0 0 1-14.521-16.46 386 386 0 0 1-6.913-7.913c-.634-.866-1.402-1.67-1.969-2.603.067-1.036.732-1.969 1.134-2.902zm79.896 178.563c-.799.232-1.67.701-1.902.866-4.175 2.871-8.779 4.907-13.32 7.078-3.14 1.433-6.078 3.273-9.279 4.572-2.737 1.371-5.676 2.304-8.583 3.207a40.6 40.6 0 0 1-10.717 1.938c-2.738.232-5.511-.232-8.181-.634-3.506-.567-7.011-1.371-10.382-2.536-2.939-1.068-5.975-2.202-8.846-3.408-1.768-.732-3.671-1.17-5.341-2.134-3.139-1.67-6.108-3.639-9.047-5.645-2.036-1.304-4.108-2.572-6.041-4.041-1.671-1.17-3.14-2.573-4.743-3.805-1.768-1.469-3.639-2.84-5.443-4.273-4.073-2.907-8.115-5.81-11.888-9.114-1.17-1.201-2.335-2.335-3.407-3.609-.8-.902-1.47-1.969-2.202-2.907-1.902-2.402-3.84-4.809-5.51-7.413-1.47-2.639-2.773-5.376-3.67-8.279a54 54 0 0 1-2.006-6.443c-.536-1.805-.7-3.671-.969-5.511a38 38 0 0 0-.5-2.706c-.134-.536-.67-.902-1.201-.768-.536.134-.902.665-.768 1.201.232.933.402 1.902.536 2.84.5 5.243 2.304 10.186 4.109 15.094.835 1.804 1.67 3.675 2.639 5.407 1.737 2.738 3.804 5.274 5.81 7.846 2.572 3.671 5.675 6.944 9.284 9.614 4.81 3.841 9.949 7.243 14.691 11.187 3.171 2.84 6.676 5.175 10.248 7.412l.603.402c-2.469.232-4.974.165-7.443.268-2.439.165-4.841.299-7.243.202-4.042-.202-8.114-.537-12.089-1.238-3.438-.536-6.742-1.5-10.114-2.371-2.335-.598-4.608-1.438-6.845-2.304-1.903-.701-3.805-1.469-5.578-2.469-6.81-3.975-12.521-10.017-15.795-17.228-1.335-3.109-2.268-6.413-3.14-9.681-1.17-4.542-2.401-9.114-2.67-13.821-.298-5.175-.767-10.351-.67-15.624.268-7.377 1.604-14.692 2.872-21.971 1.237-6.444 3.036-12.82 5.242-18.996 2.573-6.145 5.408-12.155 8.748-17.862 2.14-3.505 4.439-6.913 6.78-10.284 2.468-3.609 4.907-7.248 7.644-10.619 2.036-2.201 3.974-4.475 5.975-6.712a185 185 0 0 1 6.81-6.48c1.67-1.469 3.505-2.773 5.175-4.273 5.644-4.841 11.351-9.65 17.697-13.558 2.17-1.402 4.242-2.938 6.511-4.206.298-.134.402-.134.67-.201.335-.067.67-.067 1-.098.268.402.634.835 1.067 1.335 3.072 3.84 6.443 7.48 9.681 11.186 4.84 5.542 9.748 11.052 14.655 16.563 2.238 2.536 4.408 5.109 6.609 7.681 2.773 3.371 5.243 6.98 7.748 10.552.933 1.505 1.938 2.938 3.072 4.274 1.433 1.737 2.841 4.608 5.341 4.608.165 0 .335 0 .5-.036 2.304-.5 5.444-7.413 7.047-9.547.866-1.572 1.871-3.041 2.706-4.608.933-1.738 1.737-3.542 2.603-5.31.768.768 1.439 1.634 2.171 2.438.799.866 1.469 1.835 2.237 2.737a33 33 0 0 1 2.237 2.604c.402.5.835.969 1.201 1.505.201.232.5.366.799.402 0 .201 0 .402-.036.567-.098 2.438-.098 4.908-.402 7.346-.165 1.438-.536 2.804-.799 4.175-.469 2.269-1.938 8.547-1.902 8.614-.5 1.604-.866 3.238-1.17 4.877-1.036 4.975-1.573 10.016-1.97 15.058-1.134-3.475-2.902-6.743-4.206-10.15-.567-1.171-2.268-.336-1.67.835.531 1.268 1.17 2.438 1.768 3.639 1.103 2.17 2.134 4.34 3.17 6.547.201.299.433 1.067.768 1.567-.031.232-.031.5-.067.732-.335 2.572.737 5.109 1.439 7.547.933 3.371 2.603 6.547 5.175 8.98.433.469.969.835 1.469 1.237.366.268.732.701 1.17.866 1.367 1.237 2.738 2.438 4.243 3.505-1.969 1.171-3.938 2.336-6.042 3.238-1.804.665-3.737.933-5.474 1.768-1.371-1.634-2.335-3.64-3.274-5.542-5.443-13.588-7.979-28.079-12.454-41.966-2.572-6.109-5.578-12.022-9.681-17.197-4.273-4.877-9.181-9.583-14.723-12.955-1.036-.536-3.407-1.402-3.505.402.067.665.665 1 1.268.933 1.335.232 2.438 1.104 3.542 1.836 4.371 3.505 8.779 7.18 12.284 11.588 3.706 4.907 6.614 10.516 8.98 16.192 3.072 9.382 5.145 19.13 7.882 28.579 2.639 7.145 5.273 21.604 14.088 23.073 1.536 1.604 3.408 2.872 4.609 4.743 2.402 3.701 4.531 7.567 6.433 11.532 0-.006-.01-.016-.02-.016 0 0 0 .036.031.036 1.304 2.939 2.304 6.042 2.804 9.212 1.201 5.31 1.603 10.753 1.067 16.161-.232 2.134-.768 4.243-1.371 6.31-.5 1.572-.799 2.871-.603 3.84zm35.09-22.337c-1.402 1.769-3.139 3.274-4.84 4.743-2.238 2.067-4.207 4.408-6.444 6.444-2.335 2.402-5.176 4.206-7.98 6.01-2.304 1.506-4.675 2.975-7.31 3.774-1.603.5-3.206 1.201-4.907 1.304-1.804-.036-1.938.067-1.433-1.835.469-1.603.933-3.206 1.304-4.841.768-3.237.799-6.577.732-9.882-.067-4.242-.933-8.413-1.804-12.552-.969-4.243-2.805-8.212-4.944-11.954-1.505-2.805-3.041-5.609-4.974-8.145-1.268-1.634-3.104-2.737-4.408-4.341 1.969-.433 4.006-.469 5.975-.933 3.273-.634 6.577-1.371 9.882-1.768.402-.031.835-.067 1.268-.067 1.536 0 3.103.299 4.578.335 1.103.165 2.237.201 3.34.268 1.469.134 2.938.469 4.371.866.933.335 1.939.536 2.903.732.17.134.366.201.567.201.067 0 .17 0 .232-.036 1.268.268 2.536.567 3.675 1.201 4.743 2.841 7.578 7.882 9.48 12.888 2.335 5.443 3.908 12.222.732 17.594zm64.473-45.709c-3.273-.433-6.68-.969-9.882.067-4.041 1.238-7.712 3.676-10.985 6.279-3.036 2.536-5.743 5.444-8.712 8.047-2.706 2.402-5.34 4.877-8.011 7.31-1.969 1.871-4.041 3.371-6.077 5.145-3.908 3.036-7.846 6.077-11.986 8.778-2 1.201-3.371 2.202-5.041 3.439.036-2.64-.433-5.31-1.103-7.846-.402-1.505-1.036-2.907-1.64-4.341-.799-1.938-1.603-3.907-2.737-5.675-2.268-3.573-5.34-7.31-9.516-8.48 2.67-1.268 5.31-2.536 7.949-3.841 2.572-1.201 5.145-2.335 7.614-3.706 6.779-3.67 13.521-7.444 20.166-11.351 5.14-3.006 10.083-6.444 15.259-9.248 3.505-1.902 10.882-4.274 12.521-4.707a.7.7 0 0 1 .567.134c.603.536 2.573 2.238 3.305 2.908a73 73 0 0 1 2.773 2.706c.366.366.732.799 1.103 1.201-1.335-1.304-2.804-2.907-4.84-2.371-3.475 1.036-6.511 3.072-9.718 4.675-.634.336-1.304.635-1.969.97-.165.098-.335.201-.531.268-.5.201-.737.866-.5 1.335.433.902 1.335.567 2.006.165 1.402-.665 2.737-1.402 4.108-2.103 1.804-.97 3.572-2.037 5.511-2.805.634-.299 1.237-.67 1.938-.701 1-.232 1.701.969 2.304 1.5.5.5.969 1.036 1.439 1.573 1.103 1.304 2.268 2.572 3.438 3.84-1.438-.732-3.005-1.17-4.609-1.201-.969-.098-1.835.232-2.706.567-.799.232-1.603.402-2.335.732-1.701.732-3.372 1.201-4.975 2.103-.567.268-1.103.5-1.634.866-1.268.835-.402 1.67 1.036 1.067 1.371-.567 2.774-1 4.207-1.402 1.335-.433 2.603-1.067 4.005-1.371 1.067-.366 1.969-.701 3.14-.5 1.639.299 3.206.933 4.572 1.938 1.835 1.067 3.34 2.67 3.871 4.774-1.134-.036-2.17-.604-3.304-.732z"/><path fill="#000" d="M174.873 90.681c-.5-.402-1.67-1.469-2.14-2.036.232-.067.567-.03.903 0l1.103.134v-1.134c0-1.701-.5-3.273-1.402-4.474-1.068-1.403-2.774-2.207-4.372-2.14-2.371.098-4.974 2.335-5.078 5.774-.03 1.737.501 5.278 2.805 7.578 1.402 1.37 3.17 2.036 5.273 2.036h.469c.567-.031.97-.5.97-1.036s-.47-.97-1.037-.97c-1.737.068-3.17-.401-4.242-1.469-1.835-1.804-2.237-4.773-2.206-6.077.036-1.738 1.371-3.738 3.175-3.84 1-.032 2.036.468 2.706 1.37.469.599.768 1.372.902 2.202-.164.03-.335.03-.5.098-.866.232-1.505.969-1.572 1.768-.134 1.304 2.707 3.541 3.042 3.804a.977.977 0 0 0 1.402-.2.98.98 0 0 0-.201-1.403zm81.549 6.891c.207-2.34.31-4.686.707-7.005.134-.63.046-1.418.484-1.923 1.016-.603.804 2.866.876 3.423-.061 1.897.114 3.773.176 5.66.025.613-.526 1.124-1.124 1.124-.67 0-1.206-.609-1.114-1.274z"/><path fill="#000" d="M254.277 95.113c-.113-.005-.216 0-.319 0-.268 0-.5 0-.748-.108-.515-.35-.046-.959.423-1.057 1.314-.355 2.706-.428 4.036-.742 1.207-.253 2.289-.47 3.5-.598.903-.134 1.547.98.959 1.686-.366.453-.917.422-1.464.391-.273-.015-.551-.03-.799.016-1.654.175-3.314.433-4.985.433-.201 0-.402 0-.598-.01zM73.244 97.69c-2.536-1.118-3.835-3.768-6.279-5.2-2.722-1.599 4.63-9.81 5.418-9.274 7.48 5.062 7.707 6.366 7.336 7.196-.464 1.051-5.104 7.634-6.48 7.279zm-4.526-6.629c1.98.877 3.155 2.665 4.64 4.109 1.237-1.918 2.65-3.547 4.2-5.16-1.814-1.387-3.938-2.449-5.35-4.29-1.232 1.733-2.242 3.62-3.485 5.341zm22.876-59.062c-1.366-.5-2.953-.047-4.433-.201a.657.657 0 0 1-.577-.717c.118-1.495.273-4.84-.145-6.603-.16-.686-1.16-.665-1.304.025-.433 2.037-.242 4.356-.716 6.45a.684.684 0 0 1-.701.53c-1.903-.108-3.81.093-5.702.072a.75.75 0 0 0-.588.263c-1.577 1.913 3.594 1.866 5.697 2.01a.664.664 0 0 1 .613.769c-.459 2.789-2.598 10.51.737 9.196a.69.69 0 0 0 .402-.417c.877-2.665.67-5.748 1.202-8.573a.673.673 0 0 1 .726-.551c2.124.231 7.31.865 5.805-1.82-.072-.13-.882-.382-1.02-.433z"/></svg>
