<svg width="588" height="330" viewBox="0 0 588 330" fill="none" xmlns="http://www.w3.org/2000/svg">
<path fill-rule="evenodd" clip-rule="evenodd" d="M261.026 39.0195C329.177 43.7997 369.272 75.4959 421.73 98.022C482.787 124.24 583.001 138.891 587.8 179.338C592.628 220.02 508.905 248.154 442.262 271.043C389.013 289.331 325.088 294.679 261.026 291.567C203.747 288.785 154.951 274.09 111.539 254.979C63.7146 233.925 16.9555 210.939 6.09444 179.338C-6.76768 141.914 -2.20651 99.8141 48.5992 71.8499C100.689 43.1787 184.788 33.672 261.026 39.0195Z" fill="white"/>
<path d="M261.719 197.596C259.048 198.529 267.229 217.396 267.827 219.499C271.735 232.887 284.323 262.136 286.225 256.558C289.643 249.553 342.652 236.526 342.652 236.526C342.652 236.526 312.5 199.967 300.35 183.605C287.963 188.513 271.168 187.647 261.719 197.596Z" fill="#646370"/>
<path d="M170.627 11.3517C177.458 11.2331 185.819 13.2229 194.634 15.8571C217.605 20.9966 237.271 52.9832 214.001 69.6131C204.887 78.294 194.603 76.5568 183.051 74.9227C182.386 72.8865 185.958 88.6143 182.85 90.9495C178.741 94.0889 167.225 84.5367 160.544 84.8718C157.173 89.1452 168.957 94.4858 162.148 99.3624C157.905 102.404 149.729 101.832 148.559 104.337C147.925 110.513 147.121 116.621 147.121 116.621C147.121 116.621 138.275 114.317 125.918 113.415C117.372 102.662 112.062 86.6348 111.459 72.2473C109.856 35.5542 141.007 11.8156 170.622 11.3465L170.627 11.3517Z" fill="#313144"/>
<path d="M225.995 244.073C223.191 243.64 224.16 246.578 226.495 246.207C234.14 252.048 238.98 259.93 238.98 270.25C239.047 279.73 275.808 240.97 283.385 237.33C292.999 225.742 312.33 241.171 302.618 228.448C299.144 226.747 298.211 221.84 296.443 218.097C293.437 216.36 290.736 211.05 285.86 211.952C264.791 220.468 246.898 235.088 225.995 244.073Z" fill="#FFF7DB"/>
<path d="M148.499 114.054C148.865 120.096 157.582 124.374 160.752 129.782C163.422 132.689 165.19 137.798 169.366 137.097C173.737 130.184 181.119 124.374 185.661 117.931C190.47 119.936 191.635 121.436 201.553 122.941C206.095 123.941 192.372 127.916 195.775 137.597C200.481 159.366 199.079 183.806 207.43 204.673C210.234 215.256 228.431 224.071 230.937 207.911C234.308 191.219 229.401 170.284 228.297 151.685C227.895 145.005 235.076 140.298 237.045 135.726C238.35 122.07 227.498 122.034 224.359 111.987C223.627 109.384 216.745 111.255 220.354 107.982C223.926 103.94 219.421 95.6921 225.498 95.4602C226.333 94.9911 226.9 93.393 226.534 92.5218C224.632 87.9803 222.194 83.7429 219.421 79.7324C217.183 76.727 221.39 68.1801 217.585 67.711C209.636 77.227 194.914 76.093 183.795 74.1908C182.862 74.2217 181.088 78.5983 183.057 83.7739C186.8 93.625 178.284 92.6198 177.552 84.676C177.15 80.2375 170.005 75.928 164.597 78.2323C162.762 79.0004 161.86 82.8717 160.458 83.7429C157.685 85.4131 165.335 97.7335 163.097 98.4655C148.942 103.105 148.509 99.1975 148.509 114.059L148.499 114.054Z" fill="#FFF7DB"/>
<path d="M460.917 224.757C465.422 224.788 473.098 223.974 473.098 223.974L546.417 24.2755L537.035 18.4658C537.035 18.4658 485.96 157.377 460.917 224.757Z" fill="#646370"/>
<path d="M340.38 147.242C362.882 162.165 439.711 211.581 440.711 213.086C439.273 227.711 431.896 229.649 414.735 231.819C417.308 241.067 434.298 236.892 442.278 233.453C448.124 230.948 449.191 221.999 448.758 217.628C454.635 221.468 459.908 223.974 459.908 223.974L465.316 209.617L343.014 139.236C343.014 139.236 340.777 146.412 340.375 147.252L340.38 147.242Z" fill="#313144"/>
<path d="M344.022 209.112C358.544 226.675 383.185 245.506 399.913 263.27C410.898 261.002 432.466 255.388 436.106 255.491C432.466 251.084 415.903 233.722 414.769 231.784C420.012 229.046 439.776 233.856 441.013 212.854C429.827 203.808 425.651 201.869 423.883 202.436C420.543 203.503 427.291 215.226 397.005 217.025C384.984 207.88 382.484 202.601 377.509 202.9C366.56 204.338 355.374 207.107 344.022 209.112Z" fill="#646370"/>
<path d="M287.127 254.857C287.158 259.831 286.694 260.367 286.694 260.367L339.981 246.743C339.981 246.743 342.084 240.701 341.548 236.892C329.027 241.196 295.473 248.243 287.127 254.857Z" fill="#646370"/>
<path d="M343.548 138.999C371.859 156.33 465.947 209.38 465.947 209.38L536.699 19.1304L382.844 18.5634L382.509 19.6975C382.509 19.6975 356.033 101.667 343.548 138.994V138.999Z" fill="#FFF7DB"/>
<path d="M298.876 188.11C308.49 198.529 327.492 224.803 335.27 233.453C336.905 237.495 329.528 237.727 327.193 237.727C316.811 227.809 296.041 198.261 291.902 192.353C291.5 191.755 291.634 190.951 292.237 190.518C293.706 189.451 296.546 187.744 298.882 188.116L298.876 188.11Z" fill="#646370"/>
<path d="M268.634 197.425C274.712 197.992 285.965 187.775 288.532 196.523C299.549 208.545 308.065 222.499 317.416 235.789C319.318 237.325 319.751 238.861 318.988 239.763C317.519 241.5 312.441 241.897 310.575 242.469C304.93 245.609 297.59 246.81 292.445 249.815C289.775 250.547 282.594 238.294 283.398 237.294C293.481 224.876 314.715 243.908 301.095 224.437C297.925 219.53 294.816 213.653 289.208 211.251C283.965 210.849 277.887 214.158 273.98 216.225C272.578 213.354 262.763 197.26 268.639 197.43L268.634 197.425Z" fill="#646370"/>
<path d="M43.2841 236.088C38.9437 289.241 60.744 309.742 116.572 306.639C129.661 310.546 142.847 319.526 157.905 318.423C173.962 316.289 189.025 309.108 202.444 300.329C215.666 303.236 227.852 285.57 237.198 277.859C240.807 270.348 236.497 259.796 232.059 252.749C220.708 237.155 199.536 245.372 185.649 246.372C178.468 242.666 196.33 242.599 196.366 238.026C200.206 239.227 204.815 242.635 209.753 241.965C245.044 241.233 247.147 205.973 232.693 182.667C228.956 185.636 233.595 198.761 231.858 205.04C231.626 221.401 214.094 220.566 208.655 207.777C194.134 187.276 207.253 158.16 189.226 139.865C185.252 131.983 181.478 124.071 181.478 124.071C181.478 124.071 175.401 129.014 167.591 138.561C160.745 129.844 154.569 122.034 148.528 116.189C145.089 116.658 134.604 114.951 125.892 113.451C123.387 115.72 120.784 117.957 119.15 124.034C80.1834 147.809 47.2328 188.039 43.2893 236.083L43.2841 236.088Z" fill="#FED980"/>
<path d="M200.682 76.2268C198.243 86.413 209.064 103.94 216.276 88.3822C226.292 68.6851 204.991 42.6732 200.682 76.2268Z" fill="#FED980"/>
<path d="M218.172 67.2784C219.373 71.9849 218.708 87.9447 226.286 88.1457C231.492 80.5009 229.157 59.5975 223.683 59.9017C222.079 59.9687 220.177 63.072 218.172 67.2784Z" fill="#FED980"/>
<path d="M450.299 218.195C450.299 218.226 450.335 218.262 450.367 218.294C450.335 218.262 450.335 218.226 450.299 218.195Z" fill="black"/>
<path d="M341.848 246.305C341.848 245.836 341.446 245.439 340.982 245.439C340.518 245.439 340.116 245.841 340.116 246.305C340.116 246.769 340.518 247.171 340.982 247.171C341.446 247.171 341.848 246.805 341.848 246.305Z" fill="black"/>
<path d="M279.955 239.665L279.889 239.732C279.889 239.701 279.919 239.701 279.955 239.665Z" fill="black"/>
<path d="M260.779 196.993C261.815 193.786 264.052 193.255 266.888 192.219C270.027 191.049 273.166 189.915 276.404 189.013C279.543 188.147 282.682 187.312 285.786 186.343C288.657 185.476 291.492 184.373 294.4 183.605C299.849 181.775 301.586 184.095 301.911 184.404C302.56 185.023 303.179 185.708 303.813 186.343C305.251 187.879 327.85 215.69 333.294 222.871C334.866 224.876 336.299 226.979 337.866 228.979C338.903 230.314 342.109 234.856 342.506 235.856C343.207 237.593 342.305 247.089 341.372 247.31C341.305 247.341 334.629 249.078 331.387 249.914C327.747 250.847 324.144 251.816 320.504 252.754C316.7 253.754 312.927 254.723 309.117 255.728C305.143 256.764 301.204 257.795 297.23 258.801C294.575 259.491 288.234 261.373 286.25 261.847C285.858 261.94 285.451 261.78 285.229 261.44C284.409 260.187 276.636 244.207 276.533 243.908C276.466 243.774 277.378 242.573 277.543 242.805C277.708 243.037 285.049 256.594 285.384 257.197C285.451 256.362 285.616 255.563 285.92 254.795C286.018 254.496 286.219 254.228 286.42 253.996C286.018 253.295 279.821 241.81 279.419 240.81C279.888 240.511 281.023 239.743 281.121 239.676C281.286 240.078 287.688 252.161 288.157 252.929C288.322 252.862 288.492 252.764 288.657 252.661C294.699 249.522 301.313 247.449 307.823 245.449C313.664 243.681 340.109 236.433 340.346 236.402C340.449 236.371 339.547 234.5 338.913 233.531C334.139 227.02 329.232 220.546 324.221 214.2C320.948 210.158 317.68 206.122 314.37 202.112C311.932 199.106 309.627 196.003 307.127 193.029C305.756 191.291 304.354 189.554 302.921 187.853C302.699 187.559 300.998 185.817 300.127 184.93C299.802 184.6 299.338 184.451 298.885 184.528C298.111 184.657 296.915 184.878 296.209 185.116C292.972 186.085 273.605 191.858 268.398 193.864C266.862 194.462 265.259 194.9 263.893 195.833C263.625 196.065 263.46 196.369 263.295 196.668C265.532 203.715 268.872 210.323 271.641 217.133C271.842 217.633 272.074 218.169 272.306 218.669C272.074 218.767 271.873 218.901 271.671 219.035C271.372 219.236 271.104 219.401 270.836 219.633L270.702 219.736C269.934 217.932 269.166 216.097 268.434 214.262C266.3 209.287 264.192 204.277 262.826 199.003C262.759 198.735 262.692 198.436 262.625 198.168C262.192 199.235 261.759 200.338 261.826 201.508C262.094 204.179 263.13 206.684 264.161 209.122C265.594 212.53 267.001 215.932 268.434 219.339C268.666 219.839 267.166 221.608 267.001 221.077C266.465 219.876 265.965 218.674 265.465 217.473C264.063 213.999 262.527 210.597 261.155 207.091C260.454 205.256 259.918 203.354 259.784 201.416C259.583 199.843 260.217 198.41 260.784 197.008L260.779 196.993ZM340.743 237.459C340.243 237.66 321.247 243.171 314.066 245.506C305.483 248.212 296.704 250.481 288.724 254.687C288.389 254.852 288.059 255.022 287.755 255.254C287.054 256.321 287.255 257.826 287.121 259.095V259.296H287.152C290.559 258.393 293.962 257.527 297.405 256.625C301.343 255.589 305.287 254.589 309.256 253.553L320.577 250.615C324.247 249.682 339.006 245.872 340.006 245.604C340.042 245.47 341.042 239.124 340.738 237.459H340.743Z" fill="black"/>
<path d="M117.949 127.246C117.949 127.179 117.918 127.112 117.85 127.112C117.783 127.112 117.752 127.148 117.752 127.215C117.752 127.283 117.783 127.35 117.85 127.35C117.918 127.35 117.949 127.319 117.949 127.252V127.246Z" fill="black"/>
<path d="M116.344 129.484C116.344 129.416 116.313 129.349 116.246 129.349C116.179 129.349 116.147 129.38 116.147 129.447C116.147 129.515 116.179 129.582 116.246 129.582C116.313 129.582 116.344 129.551 116.344 129.484Z" fill="black"/>
<path d="M201.217 301.732C201.217 301.664 201.18 301.633 201.113 301.633C201.046 301.633 201.015 301.664 201.015 301.732C201.015 301.799 201.046 301.83 201.113 301.83C201.18 301.83 201.217 301.799 201.217 301.732Z" fill="black"/>
<path d="M463.386 107.477C463.386 107.513 463.35 107.513 463.319 107.543C463.35 107.513 463.386 107.477 463.386 107.477Z" fill="black"/>
<path d="M265.66 198.229C265.696 197.894 266.593 197.461 266.763 197.43C267.264 197.229 285.693 191.322 285.693 191.322C285.76 191.322 285.857 191.291 285.924 191.255C285.961 191.291 285.961 191.322 285.992 191.322C286.089 191.456 291.332 197.868 291.569 198.1C292.672 199.503 293.806 200.874 294.941 202.276C294.941 202.276 295.642 203.075 295.874 203.343C295.972 203.441 296.075 203.575 296.173 203.678C296.136 203.678 296.106 203.678 296.106 203.709C296.642 204.374 305.354 216.06 305.555 216.328C305.689 216.529 305.854 216.73 305.988 216.926C305.952 216.926 318.844 235.793 319.241 237.196C320.746 240.603 318.705 240.603 318.107 240.866C316.102 241.768 291.729 250.181 291.595 250.217C289.492 250.949 288.059 246.877 287.321 245.779C285.888 243.541 284.249 240.572 282.816 238.335C282.414 237.902 284.486 236.397 285.053 236.598C285.589 236.732 285.785 237.299 286.022 237.768C286.626 238.835 287.26 239.902 287.827 240.974C288.028 240.871 288.193 240.773 288.394 240.675C288.827 240.443 295.038 237.335 295.136 237.268C295.167 237.268 295.167 237.232 295.203 237.232C294.837 236.464 294.471 235.665 294.136 234.897C293.734 234.061 293.069 233.061 292.734 232.159C292.667 231.958 293.502 231.994 293.667 232.159C294.904 233.427 295.905 234.896 296.704 236.469C296.704 236.5 296.74 236.5 296.74 236.536C296.941 236.438 312.266 229.824 312.596 229.726C311.596 228.324 310.627 226.953 309.658 225.551C309.292 225.014 308.926 224.514 308.524 223.983C307.725 224.185 306.921 224.416 306.153 224.648C304.451 225.014 302.745 225.38 301.044 225.783C300.812 225.85 300.508 225.917 300.245 225.917C299.812 225.917 299.41 225.752 299.312 225.215C299.214 224.514 299.915 224.246 300.482 224.148C302.786 223.581 305.055 222.911 307.359 222.313C306.256 220.746 305.153 219.21 304.055 217.638C302.25 218.37 300.482 219.138 298.544 219.473C298.312 219.509 298.044 219.54 297.812 219.54C297.544 219.54 297.245 219.473 297.044 219.272C296.575 218.839 296.812 218.004 297.41 217.87C297.745 217.803 298.075 217.736 298.41 217.669C299.982 217.303 301.451 216.669 302.951 216.065C301.683 214.261 300.379 212.462 299.111 210.658C296.606 211.426 292.832 212.725 290.296 213.261C289.394 212.292 287.09 206.915 286.858 206.58C286.29 206.75 282.419 208.153 281.048 208.653C281.28 208.988 283.285 211.823 282.383 212.56C282.182 212.658 282.017 212.725 281.883 212.725C280.981 212.725 280.481 211.158 279.981 210.524C279.749 210.122 279.481 209.756 279.249 209.354C277.445 210.019 275.64 210.725 273.872 211.457C274.537 212.761 275.14 214.127 275.542 215.529C275.64 215.694 274.877 215.962 274.841 215.797C274.207 214.962 273.671 214.06 273.104 213.158C272.836 212.725 272.537 212.256 272.269 211.787C272.867 213.024 273.439 214.292 273.903 215.56C274.171 215.993 273.934 216.596 273.403 216.663C273.367 216.663 272.635 216.261 272.537 215.895C272.372 215.426 265.557 199.137 265.66 198.234V198.229ZM318.349 239.665C318.349 239.629 318.251 238.732 318.251 238.696C316.447 239.129 312.21 240.933 311.539 241.165C311.57 241.232 311.637 241.933 311.637 241.933C311.637 241.933 317.411 240.031 318.349 239.665ZM300.755 245.975C301.291 245.877 307.802 243.17 310.472 242.371C310.472 242.371 310.271 241.737 310.271 241.572C308.57 242.17 306.864 242.809 305.163 243.34C303.663 243.907 302.194 244.511 300.724 245.145C300.724 245.212 300.724 246.011 300.755 245.98V245.975ZM291.842 249.016C293.946 248.583 299.523 246.444 299.523 246.444L299.425 245.609C299.425 245.609 293.683 247.81 292.049 248.382C291.915 248.547 291.781 249.016 291.848 249.016H291.842ZM287.569 242.804L287.136 244.108C287.136 244.108 289.739 248.217 290.141 248.65C290.239 248.382 290.306 247.985 290.44 247.681C288.77 245.175 287.569 242.804 287.569 242.804ZM295.848 238.562C295.647 238.593 295.482 238.66 295.348 238.763C294.714 239.098 288.636 242.17 288.471 242.237C288.971 243.17 291.074 246.98 291.11 247.047C293.781 246.181 296.353 245.346 298.992 244.309C298.76 243.974 296.286 239.402 295.853 238.567L295.848 238.562ZM306.235 233.922C306.034 233.953 299.224 236.891 298.219 237.361C297.951 237.495 297.683 237.629 297.42 237.763C298.255 239.201 300.126 243.237 300.358 243.737C303.498 242.469 306.668 241.232 309.874 240.098C308.57 237.928 307.436 236.123 306.235 233.922ZM307.539 233.355C309.039 235.293 311.112 239.598 311.143 239.665C313.313 238.928 315.514 238.227 317.756 237.593C316.519 235.391 315.117 233.283 313.684 231.216C313.349 231.319 307.874 233.252 307.539 233.355ZM277.692 195.528C277.393 195.626 277.058 195.729 276.759 195.796C275.558 196.198 274.357 196.564 273.15 196.93C272.919 196.997 272.681 197.064 272.449 197.131C272.547 197.265 272.681 197.363 272.784 197.497C273.651 198.332 274.419 199.301 275.12 200.271C275.254 200.204 275.388 200.168 275.553 200.106C277.156 199.539 278.79 199.106 280.393 198.667C279.527 197.6 278.656 196.533 277.687 195.528H277.692ZM286.471 194.827C286.069 194.26 285.569 193.791 285.136 193.255C283.569 193.755 281.996 194.255 280.429 194.724C280.13 194.827 279.831 194.889 279.527 194.992C280.094 195.724 280.728 196.394 281.362 197.095C281.661 197.43 281.96 197.76 282.264 198.095C284.1 197.492 285.935 196.894 287.806 196.358C287.373 195.858 286.94 195.322 286.471 194.822V194.827ZM290.78 210.751C290.878 210.983 291.012 211.184 291.146 211.416C291.512 211.318 291.878 211.215 292.183 211.081C294.121 210.416 296.054 209.745 297.992 209.142C296.755 207.472 295.456 205.869 294.152 204.266C292.183 204.9 290.177 205.534 288.208 206.168C289.11 207.704 289.945 209.204 290.78 210.74V210.751ZM287.172 204.709C289.11 204.111 291.043 203.539 292.951 202.941C292.085 201.838 291.25 200.802 290.414 199.734C289.878 199.033 289.347 198.332 288.811 197.667C286.976 198.167 285.172 198.734 283.368 199.436C283.837 200.003 284.337 200.57 284.801 201.173C285.636 202.307 286.404 203.508 287.172 204.709ZM280.027 207.281C281.094 206.848 282.197 206.415 283.265 205.977C284.064 205.678 284.868 205.41 285.667 205.142C284.399 203.539 283.13 201.936 281.795 200.4C281.697 200.302 281.594 200.168 281.527 200.064C279.759 200.631 277.919 201.101 276.151 201.735C276.486 202.235 276.816 202.771 277.12 203.271C278.12 204.575 279.089 205.91 280.027 207.276V207.281ZM270.078 204.745C271.078 206.482 272.145 208.183 273.016 210.019C273.083 210.117 273.15 210.251 273.181 210.385C274.852 209.385 276.553 208.616 278.29 207.915C278.223 207.817 278.192 207.75 278.125 207.647C277.589 206.611 276.955 205.678 276.254 204.74C275.687 203.941 275.151 203.106 274.651 202.271C273.114 202.941 271.645 203.709 270.078 204.343C270.011 204.343 269.975 204.374 269.913 204.374C269.98 204.508 270.011 204.606 270.078 204.74V204.745ZM269.212 202.874C269.233 202.874 269.255 202.862 269.279 202.838C270.815 202.24 272.284 201.467 273.785 200.802C273.687 200.637 273.553 200.467 273.449 200.302C272.949 199.503 272.346 198.667 271.779 197.796C271.712 197.662 271.614 197.528 271.547 197.394C271.011 197.528 270.511 197.662 269.975 197.827C269.439 197.992 268.908 198.162 268.372 198.327C267.97 198.461 267.573 198.595 267.171 198.693H267.135C267.738 200.131 268.47 201.498 269.207 202.869L269.212 202.874Z" fill="black"/>
<path d="M291.105 192.219L291.837 189.446L291.935 189.482V189.446C294.374 188.909 296.812 187.641 299.312 187.61C300.58 187.177 302.652 191.348 303.683 192.219C307.323 196.961 310.993 201.668 314.7 206.344C321.746 215.689 329.592 224.504 335.902 234.387C336.237 237.562 330.525 238.227 328.154 238.325C325.381 238.227 323.582 235.387 322.076 233.381C311.524 219.891 300.575 206.369 291.09 192.214L291.105 192.219ZM301.92 203.369C301.889 203.338 301.889 203.302 301.853 203.302L301.621 204.503C302.926 206.173 304.194 207.875 305.493 209.545L305.761 208.277C304.493 206.642 303.189 205.003 301.92 203.369ZM306.73 209.545L306.462 210.849C307.766 212.55 309.065 214.22 310.369 215.927L310.637 214.555C309.369 212.885 308.065 211.215 306.73 209.545ZM311.369 217.226C312.87 219.195 314.375 221.2 315.911 223.169L316.179 221.798C314.679 219.798 313.174 217.824 311.638 215.854L311.369 217.226ZM316.88 224.468C318.349 226.407 319.855 228.273 321.288 230.211L321.556 228.907C320.087 226.969 318.617 225.035 317.148 223.097L316.88 224.468ZM323.226 230.979C322.994 230.711 322.793 230.443 322.561 230.18L322.293 231.515C323.695 233.417 325.164 234.954 326.566 236.856C326.7 236.557 326.901 236.258 327.133 235.99C326.231 233.923 324.53 232.752 323.226 230.979ZM300.657 203.199L300.926 201.931C299.657 200.498 298.523 198.926 297.322 197.389L297.121 198.456C297.956 199.627 300.328 202.797 300.663 203.199H300.657ZM292.709 191.178L292.507 192.281C293.812 193.786 294.91 195.518 296.116 197.121L296.317 196.085C295.348 194.848 292.977 191.544 292.714 191.178H292.709ZM300.853 191.111C300.255 190.245 299.451 189.44 298.915 188.538C297.379 189.27 295.678 189.672 294.106 190.275C295.173 191.745 296.41 193.214 297.513 194.683C299.415 194.585 301.286 194.147 303.189 194.08C302.39 193.08 301.621 192.111 300.853 191.111ZM306.395 198.188C305.596 197.188 304.792 196.183 304.024 195.152C302.152 195.25 300.317 195.786 298.451 195.92C299.652 197.487 300.889 199.06 302.091 200.663C303.926 200.328 305.766 199.73 307.632 199.761C307.23 199.225 306.833 198.724 306.395 198.194V198.188ZM310.101 202.962C309.467 202.127 308.797 201.292 308.163 200.493C306.395 200.828 304.756 201.426 303.024 201.926C304.359 203.663 305.663 205.4 306.962 207.132C308.766 206.699 310.565 206.266 312.437 205.998C311.668 204.962 310.9 203.962 310.101 202.962ZM313.741 207.637C313.509 207.369 313.308 207.07 313.076 206.802C311.339 207.271 309.668 207.869 307.936 208.405C309.271 210.143 310.576 211.88 311.911 213.612C313.746 213.21 315.514 212.478 317.416 212.442C316.179 210.808 314.978 209.205 313.746 207.632L313.741 207.637ZM321.02 217.019C320.05 215.782 319.081 214.581 318.148 213.349C316.38 213.782 314.71 214.452 312.973 214.952C314.406 216.824 315.88 218.69 317.313 220.561C319.282 220.092 321.288 219.628 323.288 219.963C322.556 218.994 321.782 217.994 321.02 217.025V217.019ZM324.69 221.762C324.489 221.494 324.288 221.226 324.092 220.963C322.02 221.231 320.453 221.463 318.514 222.03C319.952 223.834 321.386 225.639 322.788 227.474C324.788 227.041 326.86 227.273 328.896 227.072C327.458 225.334 326.056 223.535 324.69 221.762ZM333.804 232.948C332.402 231.412 331.03 229.84 329.762 228.206C327.824 228.675 325.891 228.742 323.953 229.041C325.288 231.01 326.86 232.881 327.891 235.015C329.994 234.613 332.567 233.912 334.634 233.814C334.335 233.546 334.067 233.247 333.799 232.948H333.804ZM329.195 236.954C331.031 236.887 332.969 236.686 334.603 235.851C334.871 235.448 335.17 235.052 335.438 234.613C333.634 235.149 329.829 235.814 327.994 236.15C327.963 236.449 327.896 236.686 327.896 237.052C328.298 237.088 328.762 236.985 329.2 236.954H329.195Z" fill="black"/>
<path d="M382.716 18.4295C382.783 18.2968 382.65 18.5622 382.716 18.4295Z" fill="black"/>
<path d="M339.216 147.376C339.283 147.211 339.319 147.041 339.381 146.876C339.68 145.974 339.984 145.04 340.314 144.138C341.85 139.597 343.35 135.055 344.886 130.483C346.525 125.606 348.16 120.735 349.794 115.827C351.428 110.92 353.067 106.043 354.737 101.136C356.34 96.3931 357.908 91.6557 359.511 86.9131C361.078 82.2737 362.614 77.629 364.186 72.9896C365.857 68.015 367.527 63.0714 369.161 58.0969C370.697 53.5554 372.197 49.0138 373.733 44.4723C375.3 39.7658 376.904 35.0542 378.476 30.3477C379.244 28.0795 380.012 25.8423 380.811 23.5689C381.244 22.3317 381.677 21.0997 382.146 19.8986C382.347 19.3986 382.548 18.8985 382.744 18.4294V18.3985C382.811 18.2335 382.909 18.0995 383.043 17.9964H383.074L383.11 17.9655C383.177 17.9346 383.275 17.8985 383.342 17.8985C383.409 17.8675 383.44 17.8675 383.507 17.8315C383.605 17.8005 383.739 17.7644 383.842 17.7644C384.208 17.6974 384.574 17.6974 384.945 17.6974C386.012 17.6304 387.085 17.5995 388.152 17.5995C393.827 17.5015 399.472 17.5325 405.148 17.5686C411.189 17.5995 417.2 17.5995 423.242 17.6356C429.417 17.6665 435.593 17.6665 441.774 17.7026C447.614 17.7335 453.429 17.7335 459.27 17.7696C465.311 17.8005 471.358 17.8005 477.364 17.8366C483.307 17.8675 489.215 17.8675 495.128 17.9036C501.004 17.9346 506.85 17.9346 512.721 17.9706C518.031 18.0016 523.341 18.0016 528.65 18.0377C531.321 18.0377 534.027 18.0686 536.728 18.0686C536.893 18.0686 537.027 18.0995 537.161 18.1665C537.46 18.1356 537.795 18.2335 538.027 18.3006C540.496 19.1666 542.667 20.7028 544.837 22.1049C545.538 22.641 546.842 23.038 546.842 24.1102C546.842 24.1772 546.811 24.2752 546.775 24.3422V24.4092C546.811 24.7082 546.744 25.0123 546.677 25.2752C546.543 25.7082 546.409 26.1413 546.275 26.5794C545.909 27.7496 545.476 28.9146 545.074 30.0848C544.239 32.554 543.306 35.0954 542.404 37.6626C540.136 43.9723 537.831 50.251 535.527 56.5246C532.924 63.6694 530.284 70.8142 527.681 77.995C525.078 85.1707 522.439 92.2846 519.835 99.4655C517.098 106.976 514.325 114.492 511.587 122.034C508.814 129.648 506.015 137.226 503.241 144.839C500.571 152.118 497.901 159.428 495.231 166.707C492.591 173.95 489.921 181.161 487.282 188.409C484.678 195.523 482.07 202.601 479.467 209.71C477.663 214.617 475.894 219.494 474.09 224.401C474.09 224.468 473.734 225.2 472.688 225.267C471.569 225.412 463.1 225.772 460.718 225.875C460.311 225.891 459.919 225.783 459.574 225.566C457.904 224.489 452.702 221.133 451.114 220.128C450.748 219.896 450.382 219.659 450.047 219.427C449.748 220.329 449.547 221.231 449.279 222.097C448.712 224.602 447.202 230.592 446.944 231.329C446.738 231.927 446.3 232.417 445.738 232.69C444.49 233.299 442.248 234.355 441.171 234.613C434.758 236.783 427.948 237.655 421.236 238.155C423.907 240.727 426.51 243.33 429.185 245.933C430.752 247.434 432.227 248.97 433.727 250.542C434.727 251.578 435.83 252.542 436.732 253.681C437.268 254.181 437.464 255.053 436.768 255.517C436.598 255.614 436.433 255.681 436.268 255.681C436 255.815 435.634 255.913 435.433 255.98C433.299 256.48 403.813 263.027 399.874 263.96C399.807 263.96 399.74 263.996 399.642 263.996C399.276 263.996 398.941 263.764 398.776 263.46C398.575 263.295 398.41 263.094 398.209 262.924C396.472 261.254 394.735 259.62 393.003 257.95C391.198 256.249 389.43 254.542 387.626 252.81C385.822 251.073 383.987 249.336 382.182 247.604C380.311 245.835 378.476 244.031 376.61 242.263C374.775 240.526 372.934 238.758 371.135 237.02C369.3 235.252 367.465 233.515 365.625 231.747C363.753 229.943 361.887 228.175 360.016 226.37C358.181 224.602 356.346 222.865 354.541 221.097C352.737 219.36 350.938 217.591 349.165 215.854C347.361 214.086 345.561 212.313 343.855 210.478C343.654 210.277 343.453 210.045 343.221 209.777C343.02 209.545 341.608 207.874 343.752 207.642C344.989 207.41 346.19 207.209 347.428 206.972C349.562 206.57 351.701 206.204 353.871 205.802C356.042 205.4 358.243 205.003 360.418 204.601C362.588 204.199 364.728 203.833 366.898 203.431C369.099 203.029 371.305 202.632 373.543 202.23C374.677 202.029 375.811 201.828 376.981 201.632C377.481 201.529 378.017 201.462 378.517 201.364C378.785 201.333 379.017 201.297 379.285 201.23C379.419 201.23 379.553 201.193 379.687 201.193C379.821 201.193 379.955 201.193 380.053 201.261C380.254 201.328 384.559 205.668 386.466 207.271C388.002 208.472 389.502 209.874 391.106 211.21C392.523 212.411 394.745 214.256 396.152 215.689C396.4 215.942 396.75 216.066 397.101 216.029C399.018 215.828 404.947 214.808 407.699 214.581C410.988 214.014 411.37 213.782 413.174 213.38C414.746 212.947 416.282 212.143 417.545 211.143C418.85 210.106 419.839 208.72 420.654 207.302C422.138 204.709 422.319 201.58 422.319 201.58C422.319 201.58 413.808 196.152 409.767 193.549C405.627 190.878 401.488 188.208 397.348 185.533C393.24 182.893 389.1 180.259 384.997 177.584C380.925 174.944 376.852 172.341 372.775 169.702C368.769 167.13 364.759 164.557 360.753 161.954C356.748 159.382 352.737 156.814 348.732 154.206C346.995 153.072 340.772 149.288 339.685 148.628C339.329 148.412 339.051 147.86 339.216 147.36V147.376ZM534.604 20.0326L523.052 20.0017C517.376 19.9708 511.665 19.9708 505.989 19.9347C500.045 19.9038 494.138 19.9038 488.194 19.8677C482.25 19.8367 476.307 19.8367 470.399 19.8007C464.425 19.7697 458.445 19.7697 452.439 19.7336C446.563 19.7027 440.686 19.7027 434.778 19.6666C428.603 19.6357 422.391 19.5996 416.215 19.5996C410.339 19.5687 404.462 19.5687 398.585 19.5017C395.745 19.4707 392.946 19.4707 390.105 19.4037C388.801 19.3728 387.502 19.3728 386.234 19.3058C385.636 19.2748 384.997 19.2388 384.399 19.2078C384.301 19.2078 384.167 19.1769 384.033 19.1769C383.935 19.512 383.868 19.847 383.765 20.177C383.466 21.2801 383.131 22.3472 382.796 23.4143C381.358 28.0228 379.79 32.5953 378.254 37.1729C376.651 41.8794 375.115 46.6219 373.512 51.3284C371.945 56.0349 370.372 60.7104 368.805 65.4169C367.171 70.2935 365.532 75.165 363.898 80.0416C362.361 84.6501 360.825 89.2586 359.258 93.862C357.655 98.6716 356.052 103.476 354.418 108.255L349.34 123.415C347.737 128.158 346.17 132.931 344.567 137.674C344.433 138.04 344.335 138.375 344.201 138.741C344.335 138.741 344.433 138.772 344.536 138.808H344.567C344.603 138.808 344.634 138.839 344.664 138.875C344.701 138.911 344.731 138.911 344.768 138.942C344.969 139.04 345.17 139.143 345.335 139.277L346.237 139.777C346.938 140.179 347.639 140.576 348.34 140.978C352.845 143.582 357.356 146.19 361.898 148.793C366.403 151.397 370.877 153.969 375.388 156.572C379.894 159.175 384.404 161.748 388.91 164.351C393.482 166.99 398.024 169.625 402.601 172.233C407.076 174.805 411.581 177.408 416.056 179.981C420.463 182.517 424.871 185.058 429.278 187.595C433.649 190.1 438.026 192.636 442.397 195.173C446.671 197.642 450.913 200.116 455.187 202.585C457.29 203.823 459.393 205.055 461.497 206.292C462.533 206.89 463.533 207.529 464.538 208.127C464.873 208.328 465.172 208.529 465.507 208.761C467.543 203.25 469.58 197.776 471.616 192.265C474.121 185.455 476.657 178.641 479.163 171.831C481.802 164.686 484.436 157.541 487.112 150.36C489.684 143.448 492.22 136.504 494.792 129.591C497.633 121.91 500.468 114.265 503.308 106.584C506.082 99.0737 508.886 91.5577 511.654 84.016C513.087 80.1447 514.526 76.2681 515.959 72.3967C517.428 68.3913 518.897 64.4169 520.397 60.4114C523.201 52.8337 526.006 45.2868 528.846 37.709C530.083 34.4356 531.315 31.1313 532.62 27.8579C533.29 26.1206 533.991 24.3834 534.692 22.6823C535.058 21.7802 535.424 20.878 535.826 20.012C535.424 20.079 535.027 20.079 534.625 20.0429L534.604 20.0326ZM471.786 223.551C472.121 223.535 472.415 223.319 472.533 223.004C473.533 220.282 474.508 217.581 475.508 214.854C478.013 208.008 480.518 201.199 483.019 194.389C485.622 187.311 488.194 180.233 490.797 173.156C493.468 165.81 496.174 158.464 498.875 151.118C501.716 143.406 504.52 135.658 507.355 127.947C510.061 120.534 512.799 113.121 515.5 105.677C518.17 98.4345 520.81 91.1866 523.48 83.9078C526.119 76.6599 528.789 69.4481 531.429 62.2054C533.8 55.6947 536.202 49.1839 538.604 42.7042C539.739 39.6009 540.909 36.4924 542.079 33.3891C542.744 31.621 543.414 29.8838 544.084 28.1156C544.419 27.2135 544.785 26.3475 545.151 25.4453C545.249 25.1773 545.352 24.9453 545.486 24.7082C545.084 24.5071 544.754 24.1411 544.383 23.9401C543.048 23.0741 541.677 22.2699 540.342 21.4348C539.842 21.0327 538.47 20.3316 537.568 19.6305C537.434 19.7955 537.233 19.9295 537.032 19.9965C536.965 20.1615 536.934 20.3625 536.867 20.5327C536.599 21.3987 536.3 22.3008 536.032 23.172C535.465 24.8731 534.862 26.5794 534.295 28.2806C533.259 31.2498 532.161 34.3222 531.058 37.3945C529.857 40.735 528.619 44.1063 527.387 47.4467C525.985 51.2202 524.583 55.0245 523.212 58.798C521.743 62.8034 520.237 66.8088 518.773 70.8503C515.902 78.6291 513.031 86.4079 510.159 94.1868C507.386 101.734 504.582 109.244 501.814 116.791C499.107 124.07 496.437 131.349 493.736 138.628C491.096 145.705 488.493 152.819 485.854 159.928C483.281 166.908 480.709 173.852 478.142 180.831C475.57 187.811 472.966 194.786 470.394 201.766C468.626 206.539 466.858 211.313 465.084 216.122C464.182 218.524 462.857 221.772 461.955 224.174C462.373 224.174 469.61 223.643 471.776 223.551H471.786ZM438.346 233.551C439.748 233.051 443.464 231.804 444.867 231.206C445.532 231.005 445.923 228.51 446.057 228.113C446.356 226.979 446.594 225.845 446.856 224.741C447.326 222.607 447.826 220.468 448.527 218.365C447.692 217.829 446.893 217.329 446.057 216.792C444.619 215.89 443.217 214.957 441.815 214.019C441.681 215.055 441.547 216.091 441.346 217.091C440.877 219.494 439.908 221.767 438.743 223.937C437.474 226.308 435.737 228.711 433.031 229.412C430.526 230.247 427.922 230.515 425.35 231.046C423.618 231.381 418.133 232.036 416.107 232.247C415.906 232.268 415.824 232.505 415.963 232.649C416.942 233.659 418.52 235.381 419.082 236C419.205 236.134 419.381 236.201 419.561 236.185C421.504 235.995 432.773 234.953 438.34 233.546L438.346 233.551ZM423.757 203.936C423.422 205.405 423.097 206.905 422.489 208.276C421.417 210.679 419.52 212.684 417.179 213.952C415.978 214.555 414.777 215.22 413.442 215.421C412.04 215.787 410.638 216.256 409.199 216.457C405.725 216.756 399.219 217.597 396.905 217.896C396.374 217.963 395.848 217.777 395.477 217.396C394.693 216.576 386.729 209.983 383.822 207.544C382.703 206.534 380.435 204.276 379.486 203.508C379.27 203.333 378.991 203.261 378.718 203.317C377.868 203.493 376.574 203.756 375.909 203.869C373.671 204.271 371.434 204.704 369.197 205.106C367.027 205.508 364.826 205.905 362.65 206.307C360.48 206.709 358.346 207.075 356.176 207.477C354.005 207.879 351.835 208.276 349.665 208.648C348.144 208.931 346.623 209.22 345.103 209.472C345.005 209.488 344.974 209.612 345.051 209.673C345.355 209.921 345.649 210.173 345.927 210.452C347.799 212.122 349.634 213.792 351.469 215.493C353.304 217.194 355.145 218.932 356.98 220.669C358.851 222.437 360.753 224.241 362.624 226.009C364.429 227.747 366.264 229.448 368.068 231.185C369.903 232.953 371.774 234.727 373.646 236.495C375.517 238.263 377.352 240.036 379.223 241.804C381.059 243.572 382.894 245.31 384.734 247.078C386.569 248.815 388.373 250.552 390.209 252.284C391.977 253.985 393.781 255.692 395.549 257.393C397.116 258.898 398.719 260.398 400.292 261.898H400.312C401.41 261.672 402.472 261.311 403.565 261.032C407.828 259.836 430.933 255.3 434.639 254.573C434.845 254.532 434.918 254.274 434.763 254.135C434.247 253.671 433.335 252.841 432.783 252.284C429.577 248.913 426.206 245.676 422.901 242.366C420.499 239.763 417.762 237.49 415.421 234.819C415.019 234.216 412.225 232 413.231 231.087C413.823 230.546 423.401 229.443 425.943 228.876C428.211 228.443 430.515 228.175 432.722 227.407C436.026 226.437 438.129 221.164 439.335 218.128C439.634 217.225 439.871 216.323 440.067 215.39C440.201 214.921 440.366 213.854 440.701 213.189C440.567 213.091 440.433 212.988 440.268 212.921C438.232 211.586 436.196 210.251 434.16 208.947C432.191 207.678 430.221 206.41 428.252 205.142C426.85 204.24 425.412 203.338 424.01 202.436V202.503C423.943 202.972 423.845 203.472 423.778 203.941L423.757 203.936ZM459.95 223.767C460.182 223.133 463.559 214.05 465.028 210.112C464.894 210.045 464.796 210.014 464.662 209.947C464.064 209.648 343.731 140.566 343.695 140.53C343.659 140.53 343.659 140.499 343.628 140.499C342.896 142.669 342.035 145.02 341.303 147.221C341.669 147.386 459.687 223.566 459.955 223.767H459.95Z" fill="black"/>
<path d="M353.734 133.22C378.241 148.247 459.71 194.152 459.71 194.152L520.977 29.4456L387.757 28.9456L387.489 29.9147C387.489 29.9457 364.549 100.899 353.734 133.22Z" fill="white"/>
<path d="M459.709 195.158C459.812 195.158 459.941 195.121 460.044 195.091C460.312 194.993 460.544 194.792 460.642 194.487L521.908 29.7812C522.006 29.4822 521.975 29.1471 521.805 28.8481C521.64 28.5491 521.305 28.4151 520.97 28.4151L387.751 27.9151C387.318 27.9151 386.915 28.214 386.781 28.6522L386.513 29.6214C386.214 30.5905 363.476 100.94 352.759 132.891C352.625 133.324 352.79 133.824 353.192 134.061C377.43 148.954 458.399 194.56 459.198 195.029C459.363 195.127 459.533 195.163 459.698 195.163L459.709 195.158ZM519.542 30.4513L459.178 192.719C449.765 187.41 378.41 147.108 354.939 132.788C360.584 115.926 369.265 89.2849 375.642 69.7837C386.359 36.895 388.163 31.2555 388.462 30.1832H388.493L388.56 29.9513L519.542 30.4513Z" fill="black"/>
<path d="M472.602 59.8677C468.333 59.5532 465.158 55.4962 465.503 50.8052C465.849 46.1142 469.591 42.5676 473.854 42.8872C478.123 43.2017 481.298 47.2586 480.953 51.9496C480.607 56.6406 476.865 60.1873 472.602 59.8677Z" fill="#FED980"/>
<path d="M441.601 56.862C437.684 56.5733 434.766 52.8514 435.085 48.547C435.405 44.2426 438.838 40.9898 442.756 41.2785C446.674 41.5672 449.592 45.2891 449.272 49.5935C448.952 53.8979 445.519 57.1507 441.601 56.862Z" fill="black"/>
<path d="M410.634 53.3928C407.304 53.1454 404.825 49.9802 405.098 46.3202C405.366 42.6602 408.283 39.892 411.614 40.1394C414.944 40.3869 417.423 43.552 417.15 47.212C416.882 50.8721 413.964 53.6403 410.634 53.3928Z" fill="black"/>
<path d="M397.939 78.0312C400.444 70.5874 402.31 65.1077 402.31 65.1077L469.753 72.7525L464.144 87.8462L397.934 78.0312H397.939Z" fill="#A5A4B3"/>
<path d="M391.696 97.2954C394.202 89.8516 395.903 85.1091 395.903 85.1091L462.546 94.8571L455.937 112.286L391.696 97.2954Z" fill="#A5A4B3"/>
<path d="M385.913 115.127C388.418 107.683 389.62 104.208 389.62 104.208L454.026 119.266L448.082 136.463L385.913 115.127Z" fill="#A5A4B3"/>
<path d="M379.15 131.073C381.656 123.629 382.857 120.155 382.857 120.155L444.66 142.29L439.051 160.152L379.156 131.073H379.15Z" fill="#FED980"/>
<path d="M206.261 80.6348C206.395 80.6348 206.493 80.6039 206.627 80.5678C208.065 79.6657 209.601 78.9337 211.235 78.4337C211.235 78.5007 211.235 78.5986 211.266 78.6656C211.498 79.4647 212.333 80.0369 213.168 80.0369C213.369 80.0369 213.601 79.9699 213.802 79.9028C214.503 79.5678 215.338 78.9698 215.271 78.0986C215.271 78.0316 215.271 77.9336 215.235 77.8305C215.668 77.8305 216.101 77.8305 216.473 77.8615C217.339 78.0264 217.973 77.4285 217.205 76.6913C216.339 75.9593 215.168 75.9593 214.065 75.9593H213.663C210.823 76.1603 208.085 77.2635 205.683 78.7997C204.848 79.3976 205.384 80.6348 206.25 80.6348H206.261Z" fill="black"/>
<path d="M306.019 232.551C305.818 231.917 305.617 231.283 305.318 230.68C304.916 229.814 304.349 229.077 303.715 228.443C303.282 227.041 301.978 225.505 300.911 224.267C300.978 224.133 300.978 223.968 300.911 223.798C300.746 223.463 300.576 223.164 300.442 222.829C300.277 222.463 300.143 222.128 299.973 221.762C299.808 221.396 299.607 221.061 299.406 220.726C299.204 220.391 299.04 220.092 298.839 219.793C297.936 218.458 296.936 217.19 295.869 216.019C294.833 214.916 293.766 213.849 292.632 212.849C292.065 212.349 291.462 211.849 290.828 211.38C290.596 211.215 290.359 211.045 290.096 210.911C289.993 210.844 289.895 210.777 289.797 210.746C289.498 210.612 289.23 210.581 288.931 210.545C288.565 210.514 282.889 211.813 281.353 212.349C274.373 214.653 268.496 219.195 262.223 222.834C256.078 226.639 249.701 230.046 243.423 233.618C238.479 236.356 233.34 238.758 228.231 241.196C226.262 242.232 224.189 243.134 222.189 244.135C221.287 243.934 220.385 243.769 219.519 243.464C218.416 243.098 217.318 242.866 216.215 242.696C218.318 242.33 220.354 241.629 222.39 240.995C226.633 239.392 230.339 236.624 233.809 233.783C235.314 232.479 236.747 231.01 237.85 229.345C239.185 227.077 240.185 224.602 240.892 222.066C243.093 214.019 241.691 205.539 240.056 197.523C239.422 194.25 238.386 191.044 236.984 188.043C235.484 185.306 233.814 182.6 231.778 180.228C231.546 176.553 231.308 172.883 230.912 169.243C230.277 163.336 229.375 157.459 228.973 151.546C228.906 149.675 228.973 147.505 230.174 145.938C232.381 143.231 234.948 140.86 236.819 137.922C238.257 135.452 238.855 133.849 237.685 131.045C236.85 128.174 235.881 125.271 234.113 122.864C233.278 121.962 232.01 120.292 230.705 120.292C230.607 120.328 230.473 120.359 230.37 120.395C230.272 119.895 229.937 119.292 229.767 119.024C229.2 118.225 228.566 117.451 227.865 116.719C227.932 116.286 227.7 115.786 227.566 115.384C226.731 113.348 225.463 111.58 223.829 110.111C222.963 109.075 221.859 109.008 220.823 109.446C220.689 109.312 220.555 109.178 220.421 109.013C220.488 108.982 220.519 108.946 220.555 108.915C221.957 106.879 223.024 104.708 223.36 102.27C223.628 100.734 223.896 99.1306 223.53 97.5635C223.494 97.4656 223.494 97.3986 223.463 97.2955C225.463 96.7593 227.2 95.7593 227.566 93.5581C227.669 92.0219 226.7 90.7177 226.066 89.4187C225.999 89.2846 225.901 89.1197 225.834 88.9857C226.669 88.4186 227.334 87.5835 227.87 86.7175C228.638 85.4803 229.174 84.1142 229.571 82.7121C230.004 81.3408 230.272 79.9078 230.473 78.4695C230.638 77.0674 230.741 75.6652 230.772 74.2631C230.803 71.3918 230.571 68.4844 229.839 65.7161C229.473 64.3449 228.973 62.9789 228.272 61.7417C227.54 60.5045 226.535 59.2364 225.066 58.8704C224.7 58.7724 224.267 58.7363 223.932 58.8704C224.267 57.9682 224.535 57.0352 224.731 56.097C225.298 53.5917 225.463 50.9884 225.267 48.4522C225.066 45.8489 224.499 43.2766 223.664 40.7713C222.829 38.3691 221.694 36.0648 220.39 33.8946C219.055 31.6573 217.452 29.5541 215.684 27.6158C213.983 25.7807 212.111 24.0744 210.142 22.5073C208.142 20.9401 206.003 19.538 203.766 18.3008C201.564 17.0636 199.224 16.0326 196.822 15.1975C187.239 11.8262 182.434 10.558 170.48 10.0219C167.774 9.8879 165.846 9.94976 162.402 10.558C153.654 12.0272 145.272 15.3986 137.926 20.3731C133.086 23.5795 128.477 27.1828 124.637 31.5233C117.09 40.5032 112.383 52.3235 110.749 63.9119C110.316 67.7163 110.383 71.5567 110.718 75.3972C110.919 78.7015 111.285 82.0058 112.023 85.2122C112.724 88.4186 113.425 91.625 114.626 94.6613C116.296 98.7698 118.265 102.775 120.302 106.75C121.235 108.585 122.24 110.425 123.307 112.224C123.673 112.791 124.044 113.358 124.642 113.693C124.508 113.827 124.374 113.961 124.24 114.095C123.472 114.797 122.771 115.297 122.271 116.199C121.302 117.699 120.436 119.204 119.631 120.807C118.729 122.709 118.131 123.709 118.229 124.746C117.126 124.715 116.09 125.148 115.193 125.746C114.023 126.447 112.956 127.112 111.853 127.849C108.847 129.885 105.641 131.689 102.769 133.958C97.0269 138.231 91.7172 143.004 86.1757 147.515C83.6033 149.917 81.0001 152.258 78.6288 154.861C76.9586 156.799 75.2575 158.701 73.5563 160.604C70.0819 164.913 67.1796 169.455 64.0403 173.924C61.571 177.63 59.0296 181.301 56.9625 185.275C54.1221 190.616 51.4879 196.059 49.3847 201.704C47.7506 206.612 46.3484 211.586 45.2092 216.664C44.6421 219.334 44.2761 222.004 43.74 224.675C42.4049 232.788 41.3687 241 41.7708 249.145C41.9719 252.687 42.1368 256.223 42.5028 259.728C42.8379 262.466 43.472 265.172 44.106 267.842C45.6422 273.683 46.9773 279.663 50.0806 284.905C53.787 291.184 59.2616 296.494 65.6744 299.963C68.8447 301.566 72.2521 302.7 75.5925 303.87C79.2989 304.906 83.0363 305.943 86.8097 306.675C92.1503 307.644 97.563 308.175 102.971 308.211C105.172 308.175 107.378 307.943 109.579 307.912C111.048 307.881 112.487 307.912 113.951 307.814C115.018 307.783 116.09 307.546 117.121 307.68C117.353 307.747 117.621 307.68 117.822 307.546C118.791 308.18 119.76 308.814 120.76 309.35C122.461 310.35 124.168 311.386 126.034 312.123C127.735 312.69 129.441 313.294 131.111 314.026C135.385 315.696 139.725 317.33 144.2 318.433C148.138 319.165 152.18 320.036 156.221 320.036C160.964 319.933 165.639 319.036 170.114 317.531C175.222 315.928 180.099 313.69 184.739 311.051C188.28 309.247 191.981 307.711 195.358 305.644C196.595 304.875 197.827 304.143 198.961 303.241C199.827 302.607 200.662 301.803 201.631 301.272C202.1 301.906 203.034 302.241 204.539 302.241C204.807 302.241 205.075 302.21 205.338 302.21C207.41 301.942 209.41 301.107 211.415 300.473C214.055 299.473 216.426 297.937 218.725 296.401C222.901 293.962 226.54 290.694 229.808 287.153C232.345 284.281 235.582 282.075 237.953 279.039C238.922 277.472 239.525 275.734 239.824 273.93C242.361 272.162 244 270.858 246.634 269.255C252.078 265.615 257.253 261.543 262.259 257.367C266.367 253.826 270.306 250.058 274.347 246.418C277.755 243.413 280.827 239.871 284.729 237.536C289.539 234.366 293.379 232.995 299.153 234.062C300.122 234.165 301.055 234.33 301.993 234.598C303.194 235.031 304.834 235.366 305.834 234.366C306.334 233.866 306.303 233.165 306.035 232.562L306.019 232.551ZM233.2 199.998C233.133 199.163 232.365 189.08 232.2 186.177C232.133 185.11 232.066 184.074 231.999 183.007C233.102 184.811 234.2 186.579 235.17 188.451C236.438 191.121 237.273 193.992 237.974 196.833C239.412 204.044 240.881 211.555 239.675 218.87C237.804 228.118 234.865 231.221 227.221 236.33C225.653 237.232 224.148 238.268 222.478 238.933C221.174 239.469 219.772 239.799 218.406 240.237C214.864 241.237 211.127 241.506 207.518 240.902C204.879 240.5 202.312 239.866 199.874 238.83C198.538 238.294 197.234 237.696 196.167 236.727C194.765 235.727 193.497 234.557 192.193 233.423C191.589 233.02 191.26 232.185 190.491 232.118C189.522 231.216 188.62 230.247 187.888 229.18C187.089 227.943 186.352 226.675 185.919 225.273C185.187 223.138 184.481 220.999 184.017 218.829C183.749 217.829 183.95 216.793 184.017 215.787C184.45 209.813 185.053 203.766 186.285 197.889C186.821 194.884 187.79 191.982 189.357 189.373C191.059 186.904 193.466 185.064 195.868 183.363C197.27 182.461 198.806 181.93 200.142 181.028C200.178 181.43 200.198 181.796 200.245 182.162C201.131 189.275 202.415 195.451 203.018 197.353C203.317 198.353 203.683 199.322 204.054 200.292C204.987 202.663 206.09 204.931 207.395 207.07C208.565 208.973 209.9 210.808 211.4 212.447C213.101 214.282 215.039 215.921 217.277 217.056C217.442 217.153 217.643 217.257 217.808 217.324C218.875 217.793 219.942 218.123 221.081 218.293C221.514 218.36 221.983 218.391 222.416 218.391C223.251 218.391 224.086 218.293 224.885 218.056C227.221 217.391 229.092 215.653 230.36 213.648L230.391 213.612C231.659 211.545 232.427 209.205 232.829 206.802C232.994 205.668 233.128 204.534 233.195 203.364C233.262 202.261 233.262 201.127 233.195 199.993L233.2 199.998ZM203.652 242.165C202.817 242.299 201.982 242.464 201.183 242.634C198.477 243.067 195.775 243.635 193.069 244.14C191.466 244.408 189.729 244.341 188.228 245.006C187.728 245.305 187.429 245.774 187.326 246.31C187.058 246.212 186.826 246.109 186.594 245.944C186.228 245.712 185.862 245.475 185.491 245.212C187.862 244.346 190.466 244.011 192.569 242.506C193.837 241.835 195.038 241.067 196.141 240.201C196.373 240.036 196.708 239.835 197.007 239.634C197.141 239.732 197.306 239.835 197.44 239.902C199.41 240.871 201.513 241.603 203.652 242.171V242.165ZM181.079 156.392C180.877 154.186 179.707 152.32 178.475 150.551C176.908 148.113 174.97 145.943 173.269 143.608C171.8 141.736 170.361 139.901 168.928 138.066C170.129 136.896 171.166 135.561 172.269 134.324C173.439 133.019 174.671 131.787 175.877 130.483C177.645 128.746 179.419 126.978 181.12 125.143C181.12 125.21 181.151 125.241 181.151 125.308C181.182 125.442 181.285 125.509 181.419 125.509C186.893 134.19 189.399 144.474 189.765 154.655C189.832 157.227 189.734 159.763 189.533 162.336C189.466 164.872 188.966 167.377 188.332 169.815C187.063 168.145 185.594 166.676 184.326 165.006C183.156 163.702 182.125 162.233 180.785 161.098C181.254 159.562 181.352 157.959 181.084 156.392H181.079ZM194.399 136.824C194.698 140.061 195.234 143.303 195.801 146.505C195.033 145.304 194.229 144.103 193.466 142.896C192.296 140.896 190.863 139.092 189.528 137.221C189.095 136.623 188.661 135.983 188.192 135.349C187.96 134.684 187.723 134.045 187.46 133.38C186.625 131.308 185.558 129.138 184.419 127.272C183.687 126.204 183.084 124.936 182.182 123.967C183.115 122.967 184.053 121.931 184.955 120.859C185.491 120.261 186.058 119.725 186.589 119.122C187.357 119.591 188.192 120.024 189.058 120.359C191.595 121.828 194.466 122.596 197.306 123.199C198.44 123.4 199.544 123.668 200.647 123.802C198.477 125.905 195.94 129.143 195.77 129.679C194.301 131.782 194.203 134.421 194.399 136.824ZM189.924 180.198C190.028 177.527 189.759 174.857 189.558 172.218C190.095 171.419 190.26 170.383 190.528 169.48C190.662 168.614 190.93 167.81 191.095 166.975C191.461 164.738 191.528 162.501 191.698 160.263C192.064 153.588 191.43 146.84 189.729 140.365C189.759 140.396 189.759 140.432 189.796 140.463C191.43 142.999 192.935 145.608 194.502 148.175C195.368 149.577 196.105 151.046 196.904 152.479C196.904 152.546 196.94 152.644 196.971 152.711C197.94 158.387 198.806 164.063 199.239 169.805C199.471 173.079 199.739 176.316 200.038 179.553C198.6 180.419 196.935 180.857 195.43 181.656C192.961 183.126 190.656 184.894 188.785 187.033C189.352 184.796 189.785 182.492 189.919 180.187L189.924 180.198ZM230.69 121.869C232.128 122.838 233.092 124.405 233.793 125.942C234.726 127.643 235.432 129.447 236.03 131.251C237 133.385 236.799 134.391 235.597 136.324C234.092 139.061 231.556 141.267 229.623 143.669C225.849 147.144 227.154 152.649 227.52 157.16C227.922 161.501 228.623 165.81 229.02 170.145C229.453 173.852 229.623 177.656 229.886 181.363C230.154 185.77 231.221 198.688 231.221 199.06C231.221 199.493 231.252 199.962 231.252 200.395C231.252 201.029 231.278 205.983 230.118 209.143C229.875 209.797 229.685 210.478 229.386 211.148C229.185 211.648 228.917 212.117 228.654 212.586C228.623 212.617 228.623 212.653 228.587 212.684C228.355 213.05 228.087 213.416 227.819 213.751C227.587 214.05 227.319 214.318 227.05 214.586C226.819 214.818 226.581 215.019 226.318 215.22C226.087 215.385 225.818 215.555 225.55 215.72C225.282 215.854 225.014 215.988 224.751 216.086C224.483 216.184 224.215 216.287 223.947 216.354C223.648 216.421 223.344 216.488 223.045 216.519C222.746 216.555 222.411 216.555 222.112 216.555C221.746 216.555 221.411 216.519 221.045 216.452C220.679 216.385 220.277 216.287 219.911 216.184C219.478 216.019 219.009 215.849 218.607 215.684C218.04 215.452 217.503 215.148 217.003 214.849C216.4 214.447 215.802 214.05 215.235 213.581C214.467 212.947 213.766 212.313 213.101 211.612C212.235 210.71 211.431 209.741 210.699 208.741C209.797 207.472 208.962 206.168 208.194 204.802C207.292 203.163 206.523 201.498 205.889 199.895L205.858 199.828C205.09 197.925 204.456 195.956 203.987 194.018C203.621 192.616 203.353 191.178 203.152 189.775C203.054 189.275 202.616 186.203 202.549 185.533C202.25 182.827 201.915 180.125 201.683 177.388C201.116 170.444 200.683 163.495 199.482 156.655C198.446 150.108 197.043 143.499 196.342 136.958C196.244 135.153 196.11 133.251 196.946 131.617C197.812 129.983 198.946 128.514 200.152 127.143C201.121 126.04 202.121 125.039 202.992 123.905C204.73 123.771 206.498 123.271 207.936 122.271C207.735 123.575 207.704 124.942 208.034 126.411C208.266 127.581 208.967 130.653 210.436 130.653C210.637 130.653 210.838 130.586 211.039 130.488C211.24 130.354 211.57 130.055 211.905 129.689C211.941 130.421 212.003 131.127 212.137 131.829C212.271 132.865 212.771 133.896 213.905 133.896H214.106C214.777 133.865 215.344 133.396 215.911 133.097C215.911 133.097 215.942 133.066 215.978 133.066C215.947 133.133 215.947 133.231 215.947 133.298C215.916 134.334 215.746 135.401 215.88 136.437C216.014 137.37 216.849 138.205 217.782 138.205C218.05 138.205 218.313 138.138 218.581 137.973C219.514 137.504 220.184 136.736 220.818 135.906C220.983 136.942 221.385 137.741 222.421 137.308C223.153 136.839 223.726 136.138 224.36 135.504C225.494 134.2 226.896 133.2 227.999 131.865C228.602 131.2 228.901 130.231 229.7 129.792C229.834 130.127 229.968 130.493 230.401 130.56C230.767 130.627 231.133 130.328 231.169 129.957C231.267 128.72 230.035 128.055 228.999 128.72C226.597 130.725 224.122 132.793 222.122 135.231C222.22 133.494 222.658 131.725 223.293 130.122C223.659 129.086 223.823 127.983 224.427 127.05C225.396 125.715 226.731 124.715 227.999 123.709C228.834 123.008 229.669 122.276 230.705 121.874L230.69 121.869ZM209.622 123.338C209.719 121.771 210.488 120.364 211.127 118.967C212.127 116.833 213.029 114.76 213.998 112.621C214.766 111.219 215.4 109.647 216.735 108.683C217.101 108.518 217.503 108.817 217.839 108.951C218.406 109.183 218.839 109.652 219.339 110.054C219.473 110.152 219.571 110.255 219.705 110.322C219.406 110.59 219.138 110.889 218.937 111.224C217.235 113.827 215.596 116.503 214.029 119.204C213.328 120.539 212.39 121.776 212.158 123.276C212.055 124.277 212.055 125.313 211.988 126.318C211.988 126.653 211.957 126.983 211.957 127.318C211.725 127.55 211.524 127.818 211.39 128.019C211.122 128.287 210.854 128.555 210.591 128.818C209.823 127.05 209.555 125.215 209.622 123.343V123.338ZM228.587 119.998C228.855 120.266 229.056 120.632 229.355 120.9C228.556 121.369 227.85 122.003 227.185 122.601C225.746 123.802 224.246 124.936 223.112 126.406C222.509 127.339 222.277 128.442 221.911 129.478C221.375 130.648 220.942 131.88 220.808 133.184C220.808 133.318 220.777 133.452 220.777 133.617C220.777 133.617 220.741 133.648 220.71 133.648C219.643 134.38 218.839 135.483 217.802 136.221C217.534 134.184 217.9 132.148 218.168 130.143C218.333 128.808 218.467 127.473 218.87 126.204C219.236 125.168 219.839 124.266 220.375 123.333C221.107 121.998 221.911 120.694 222.911 119.529C223.679 118.596 224.215 117.395 225.179 116.657C226.514 117.524 227.447 118.895 228.587 119.998ZM223.411 111.786C224.313 112.755 224.983 113.925 225.746 115.059C224.277 114.693 223.009 116.23 222.143 117.529C220.973 119.034 219.741 120.503 218.839 122.168C217.973 123.503 217.07 125.07 216.833 126.674C216.565 128.112 216.364 129.581 216.235 131.014H216.137C215.369 131.313 214.699 131.715 214.034 132.148C213.668 129.978 213.998 127.741 213.998 125.57C214.065 124.735 213.967 123.9 214.163 123.101C214.431 122.333 214.864 121.632 215.266 120.931C216.637 118.56 218.04 116.224 219.406 113.853C220.442 112.317 221.442 109.214 223.411 111.781V111.786ZM224.813 94.6922C223.112 95.7283 221.071 95.8624 219.169 96.0634C218.199 96.1974 217.163 96.1304 216.297 95.6304C216.065 95.3623 215.895 95.0633 215.627 94.7953C215.225 94.3623 214.426 94.3932 214.127 94.9603C213.828 95.4603 214.091 96.0943 214.426 96.4603C215.225 97.7646 216.998 98.0996 218.4 98.0996C219.437 97.9656 220.705 97.8986 221.937 97.6975C222.004 99.0327 221.736 100.368 221.468 101.636C221.2 103.775 220.297 105.775 219.096 107.415C219.065 107.482 219.029 107.513 218.998 107.549C218.297 106.951 217.493 106.513 216.529 106.58C213.591 107.312 211.957 112.291 210.787 114.791C209.817 116.895 208.781 118.9 208.214 121.003C207.647 121.003 207.147 121.302 206.611 121.369C205.642 121.503 204.673 121.735 203.704 121.802C201.637 122.034 199.497 121.534 197.461 121.101C195.327 120.632 193.285 120.065 191.316 119.199C190.383 118.699 189.414 118.199 188.445 117.797C186.244 116.663 184.403 115.059 182.604 113.389C181.872 112.755 181.233 112.018 180.599 111.286C180.063 110.688 179.465 109.817 178.599 110.451C178.063 110.817 178.13 111.688 178.599 112.054C179.032 112.59 179.501 113.09 179.934 113.59C181.506 115.193 183.208 116.761 185.043 118.065C184.945 118.163 184.842 118.266 184.744 118.333C183.311 119.637 182.073 121.106 180.769 122.539C178.434 125.009 175.996 127.38 173.624 129.849C171.557 131.921 169.717 134.22 167.681 136.36C166.779 135.257 165.877 134.122 164.943 133.019C162.17 129.849 159.304 126.777 156.299 123.838C153.927 121.266 151.592 118.596 149.453 115.822C149.185 115.487 148.917 115.157 148.654 114.822C148.705 114.369 148.757 113.931 148.824 113.487C148.865 113.405 148.901 113.317 148.922 113.219C149.087 112.183 149.123 111.049 149.154 109.982C149.221 108.281 149.288 106.543 149.819 105.476C150.721 103.708 152.391 102.368 154.324 101.935C155.19 101.734 156.129 101.703 157.129 101.667C157.531 101.667 157.897 101.631 158.299 101.6C159.536 101.533 161.34 101.301 162.737 100.229C166.444 97.5223 164.242 93.8829 162.773 91.4807C162.474 90.9806 162.206 90.5476 161.974 90.1094C160.639 87.5732 161.371 83.4647 163.675 80.7635C164.675 79.5933 166.779 77.7221 169.619 78.6912C173.191 79.8614 176.032 82.8306 177.063 86.4391C177.13 86.7381 177.228 87.0061 177.295 87.3051C177.496 88.1042 177.697 88.9083 178.094 89.7073C178.826 91.1456 180.094 92.0786 181.398 92.1456C183.3 92.2487 184.806 90.5785 185.135 88.9083C185.471 87.2072 184.867 85.537 184.403 84.4338C184.239 84.0678 184.068 83.7327 183.903 83.3977C183.501 82.5626 183.104 81.7635 182.903 80.9594C182.357 78.7427 182.96 76.9282 184.764 75.5415C185.77 75.7889 186.79 76.0158 187.811 76.1859C190.115 76.588 192.486 76.8199 194.858 76.8199H195.09C196.327 76.8199 197.559 76.7529 198.796 76.655C198.76 77.1911 198.729 77.7221 198.729 78.2582C198.729 80.5264 198.93 82.7997 199.43 85.0009C199.698 86.171 200.064 87.3361 200.497 88.4753C201.033 89.7795 201.667 91.0116 202.503 92.1456C203.168 93.0787 203.972 93.9138 204.941 94.5478C205.874 95.1819 206.941 95.584 208.044 95.718C208.276 95.7541 208.477 95.7541 208.709 95.7541C209.544 95.7541 210.343 95.6201 211.111 95.3211C212.147 94.9551 213.081 94.352 213.885 93.62C215.488 92.2178 216.689 90.3466 217.591 88.4134C218.127 87.2794 218.56 86.0783 218.895 84.9751C219.261 83.707 219.56 82.4028 219.761 81.1346C220.297 84.4751 222.7 87.1762 224.133 90.1816C224.602 91.1507 225.236 92.0168 225.571 93.022C225.803 93.7231 225.272 94.2592 224.803 94.6922H224.813ZM202.276 76.1601C203.477 75.9281 204.678 75.624 205.714 75.325C208.085 74.6239 210.421 73.6909 212.56 72.4176C214.297 71.4175 215.9 70.2474 217.302 68.7782C217.571 69.9484 217.772 71.1495 217.906 72.2166C218.04 73.3506 218.107 74.4538 218.107 75.557V76.356C218.071 77.7891 217.973 79.1964 217.741 80.5985C217.54 81.8357 217.308 83.0368 216.942 84.2379C216.643 85.2071 216.308 86.1401 215.905 87.0783C215.606 87.8103 215.204 88.5114 214.802 89.2125C214.467 89.7486 214.101 90.2795 213.802 90.6816C213.467 91.0837 213.132 91.4497 212.766 91.8157C212.534 92.0838 212.23 92.2848 211.967 92.5168C211.735 92.6817 211.467 92.8519 211.199 93.0168C210.967 93.1509 210.73 93.2488 210.498 93.3519C210.266 93.455 210.029 93.5169 209.797 93.5839C209.596 93.6148 209.395 93.6509 209.194 93.6818C208.962 93.7179 208.761 93.7179 208.56 93.7179C208.395 93.6818 208.194 93.6818 207.993 93.6509C207.792 93.6148 207.591 93.5839 207.389 93.5169C207.188 93.4859 207.023 93.3828 206.822 93.3158C206.621 93.2179 206.389 93.1148 206.188 92.9807C205.956 92.8467 205.755 92.6818 205.523 92.5116C205.291 92.3467 205.054 92.1096 204.853 91.9085C204.585 91.6095 204.317 91.2744 204.054 90.9394C203.755 90.5064 203.487 90.0733 203.219 89.6352C202.884 89.0372 202.616 88.398 202.353 87.7639C202.054 86.9288 201.786 86.0937 201.554 85.2277C201.286 84.0936 201.085 82.9595 200.951 81.8202C200.786 80.516 200.719 79.217 200.75 77.8819C200.75 77.3818 200.781 76.8818 200.817 76.3766C201.317 76.3096 201.786 76.2426 202.286 76.1446L202.276 76.1601ZM200.972 74.392C201.002 74.16 201.039 73.9589 201.069 73.727C201.271 72.5259 201.539 71.2887 201.869 70.1236C202.204 69.0875 202.533 68.1184 202.972 67.1544C203.271 66.4224 203.673 65.6852 204.075 65.0151C204.41 64.515 204.74 64.015 205.111 63.5459C205.379 63.2108 205.714 62.8758 206.013 62.5458C206.312 62.2778 206.616 62.0097 206.915 61.7778C207.183 61.6128 207.451 61.4427 207.714 61.2777C207.946 61.1437 208.147 61.0457 208.379 60.9426C208.611 60.8447 208.848 60.7777 209.08 60.7107C209.281 60.6797 209.482 60.6437 209.683 60.6127C209.848 60.5818 210.049 60.5818 210.25 60.5818C210.452 60.6127 210.653 60.6127 210.854 60.6488C211.055 60.6849 211.256 60.7158 211.457 60.7828C211.658 60.8499 211.859 60.9169 212.024 60.9839C212.256 61.0818 212.493 61.1849 212.689 61.319C212.921 61.453 213.158 61.6179 213.354 61.7881C213.622 61.9891 213.854 62.2211 214.086 62.4582C214.452 62.8603 214.787 63.2572 215.122 63.6954C215.323 63.9944 215.524 64.3295 215.725 64.6645C216.06 65.2986 216.359 65.9687 216.627 66.6028L216.658 66.7007C216.658 66.7007 216.694 66.7317 216.694 66.7678C216.091 67.4018 215.457 67.9689 214.725 68.5359C213.89 69.2061 213.024 69.804 212.122 70.3711C211.086 71.0412 209.988 71.6083 208.848 72.1083C207.611 72.6444 206.379 73.1084 205.142 73.4795H205.111C205.087 73.5001 205.065 73.5104 205.044 73.5104C203.673 73.9125 202.271 74.2115 200.972 74.4126V74.392ZM223.674 59.9013C223.875 60.1024 224.138 60.1694 224.406 60.2673C224.54 60.2983 224.638 60.3344 224.741 60.4014C224.839 60.4684 224.942 60.5354 225.04 60.6024C225.174 60.7004 225.308 60.8035 225.442 60.9375C225.576 61.0715 225.741 61.2365 225.875 61.4066C226.04 61.6076 226.21 61.8396 226.344 62.0767C226.545 62.4788 226.741 62.8448 226.942 63.2469C227.21 63.9171 227.442 64.5511 227.643 65.1491C227.643 65.18 227.674 65.2161 227.674 65.247C227.973 66.2832 228.21 67.3193 228.375 68.3864V68.4173C228.607 69.8865 228.741 71.3557 228.777 72.7269C228.808 74.3301 228.741 75.8972 228.576 77.3664C228.442 78.6706 228.21 79.9696 227.911 81.2377C227.679 82.1038 227.411 82.9389 227.112 83.774C226.88 84.341 226.643 84.8771 226.38 85.3772C226.215 85.7123 226.014 86.0112 225.746 86.3463C225.581 86.5783 225.411 86.7484 225.246 86.9443C225.148 87.0783 225.014 87.2123 224.88 87.3103C224.88 87.3412 224.849 87.3412 224.813 87.3773C223.844 85.7741 222.741 84.2379 221.808 82.6038C221.509 82.1038 220.54 80.1346 220.004 79.2325C220.04 78.7994 220.071 78.3664 220.107 77.9283C220.839 78.4644 222.344 78.7273 222.978 78.4644C224.179 78.2943 224.416 76.6601 223.112 76.4952C222.143 76.6962 221.143 76.4952 220.174 76.6292V74.9281C220.143 73.861 220.04 72.7578 219.906 71.6907C219.741 70.5566 219.504 69.4535 219.205 68.3503C219.107 68.0153 219.004 67.7163 218.906 67.3812C220.174 65.9791 221.308 64.4429 222.246 62.7727C222.746 61.8396 223.215 60.8705 223.617 59.8704C223.648 59.8704 223.648 59.9013 223.684 59.9013H223.674ZM122.039 105.744C120.033 101.904 118.131 97.9656 116.497 93.9911C114.894 89.8826 114.059 85.5112 113.26 81.2017C112.724 76.5622 112.26 71.8866 112.492 67.2111C112.59 63.3036 113.425 59.4322 114.497 55.6588C115.801 50.5863 117.935 45.8077 120.338 41.1991C122.24 37.8948 124.343 34.6575 126.946 31.848C129.916 28.6777 133.292 25.9714 136.828 23.4351C141.602 20.0947 146.71 17.1564 152.185 15.1872C156.293 13.718 160.531 12.785 164.804 12.0478C166.371 11.8159 167.908 11.8468 169.48 11.8468C178.295 11.8468 186.708 13.682 192.182 15.5532C193.316 15.9553 194.518 16.2852 195.657 16.7234C196.09 16.8883 196.523 17.0224 196.925 17.1925C196.945 17.2131 196.968 17.2234 196.992 17.2234H197.023C199.028 18.0224 200.961 18.9606 202.796 19.9607C204.534 20.9298 206.235 22.033 207.838 23.198C209.374 24.3321 210.843 25.5693 212.209 26.8683C213.477 28.0695 214.679 29.3737 215.782 30.7397C216.782 32.0078 217.751 33.3121 218.586 34.6781V34.709L218.617 34.74C219.416 36.0751 220.122 37.4102 220.756 38.8124C221.323 40.0805 221.792 41.3486 222.189 42.6838C222.555 43.921 222.859 45.1891 223.055 46.4572C223.22 47.6274 223.323 48.7924 223.354 49.9987C223.354 51.1018 223.318 52.2359 223.189 53.3391C223.055 54.3391 222.89 55.3753 222.653 56.2413C222.385 57.1744 222.086 58.1126 221.751 59.0147C221.72 59.0456 221.72 59.0817 221.72 59.0817V59.1126C221.354 60.0148 220.952 60.8808 220.483 61.7159C220.019 62.5149 219.514 63.3191 218.947 64.0872C218.679 64.4532 218.38 64.7882 218.081 65.1543C217.947 64.8192 217.782 64.4841 217.612 64.1542C217.38 63.6851 217.112 63.2211 216.844 62.783C216.545 62.2829 216.21 61.8138 215.844 61.3808C215.478 60.9478 215.076 60.5457 214.642 60.2106C214.142 59.8086 213.606 59.4426 213.039 59.1745C212.472 58.9064 211.869 58.7054 211.271 58.6074C210.606 58.4734 209.9 58.4734 209.235 58.5765C208.168 58.7105 207.132 59.1436 206.23 59.7467C204.291 61.0148 202.858 62.9531 201.791 64.9532C200.755 66.9585 200.023 69.0927 199.523 71.299C199.255 72.4021 199.09 73.4692 198.956 74.5724C197.92 74.6703 196.884 74.7373 195.853 74.7734C194.017 74.8095 192.177 74.7064 190.378 74.5054C188.708 74.3043 187.038 74.0362 185.404 73.6393C185.239 73.6084 185.038 73.5723 184.837 73.5053H184.8C184.568 73.4383 184.3 73.4383 184.068 73.5723C184.022 73.5981 183.976 73.629 183.929 73.6651C183.888 73.6857 183.842 73.7115 183.8 73.7373C181.161 75.6085 180.161 78.3097 180.929 81.4491C181.197 82.4852 181.63 83.3822 182.063 84.2895C182.228 84.6245 182.398 84.9545 182.532 85.2895C183.135 86.6247 183.331 87.6608 183.135 88.5269C182.97 89.362 182.233 90.1971 181.434 90.161C180.702 90.1301 180.099 89.429 179.8 88.8259C179.501 88.2227 179.331 87.5577 179.13 86.8206C179.063 86.5216 178.965 86.1865 178.898 85.8875C177.661 81.645 174.326 78.1757 170.15 76.8045C167.243 75.8353 164.273 76.8406 162.036 79.5108C159.232 82.8512 158.397 87.8258 160.098 91.0631C160.366 91.5322 160.629 92.0322 160.964 92.5323C162.634 95.3056 163.536 97.1047 161.464 98.61C160.696 99.177 159.629 99.476 158.056 99.5791C157.69 99.6152 157.319 99.6152 156.953 99.6461C155.917 99.677 154.85 99.7131 153.783 99.9812C151.278 100.584 149.107 102.285 147.973 104.59C147.241 106.059 147.174 108.028 147.107 109.93C147.076 110.966 147.04 112.033 146.875 112.936C146.875 112.951 146.875 112.961 146.875 112.977C146.736 113.998 146.607 115.018 146.478 116.039C143.04 114.936 139.334 115.039 135.792 114.338C133.988 114.039 132.251 113.503 130.483 113.034C128.848 112.534 127.075 112.497 125.508 111.832C124.106 109.961 123.137 107.76 122.034 105.724L122.039 105.744ZM121.338 121.771C122.24 120.003 123.209 118.23 124.374 116.596C125.24 115.864 126.008 115.09 126.843 114.492C127.745 114.657 128.714 114.791 129.617 115.059C131.988 115.761 134.189 116.328 136.596 116.694C139.066 117.029 141.602 117.23 144.009 117.663C144.741 117.761 145.447 117.962 146.112 118.23C146.411 118.328 146.716 118.431 147.015 118.431C147.179 118.431 147.314 118.4 147.448 118.364C148.015 118.132 148.216 117.596 148.35 117.029C150.288 119.967 152.556 122.673 154.891 125.308C158.5 128.983 162.072 132.787 165.34 136.793C168.949 141.334 172.588 145.876 176.058 150.551C178.094 153.423 179.63 155.593 179.13 159.299C179.099 159.701 178.996 160.067 178.862 160.433C178.64 161.176 178.625 161.067 178.393 161.604C177.924 162.604 177.357 163.609 176.924 164.609C175.485 167.748 173.686 170.687 171.851 173.589C170.784 175.326 169.882 177.192 168.614 178.831C168.011 179.533 167.346 181.27 166.243 180.27C164.742 179.1 163.907 177.331 162.639 175.929C161.737 174.826 161.005 173.594 160.201 172.393C158.933 170.558 157.598 168.754 156.33 166.918C152.489 161.511 148.015 156.603 143.607 151.66C138.731 146.185 133.89 140.711 129.086 135.2C126.781 132.628 124.41 129.926 122.173 127.287C121.539 126.421 120.771 125.617 120.204 124.684C120.271 123.648 120.936 122.715 121.338 121.782V121.771ZM201.234 300.334C200.435 300.566 199.564 301.035 199.332 301.2C195.157 304.071 190.553 306.107 186.012 308.278C182.872 309.711 179.934 311.551 176.733 312.85C173.996 314.221 171.057 315.154 168.15 316.057C164.675 317.191 161.072 317.825 157.433 317.995C154.695 318.227 151.922 317.763 149.252 317.361C145.746 316.794 142.241 315.99 138.87 314.825C135.931 313.757 132.895 312.623 130.024 311.417C128.256 310.685 126.353 310.247 124.683 309.283C121.544 307.613 118.575 305.644 115.636 303.638C113.6 302.334 111.528 301.066 109.595 299.597C107.924 298.427 106.455 297.024 104.852 295.792C103.084 294.323 101.213 292.952 99.4085 291.519C95.336 288.612 91.2945 285.709 87.5211 282.405C86.3509 281.204 85.1859 280.07 84.1137 278.796C83.3147 277.894 82.6445 276.827 81.9125 275.889C80.0103 273.487 78.0721 271.08 76.4019 268.476C74.9327 265.837 73.6285 263.1 72.7315 260.197C71.9325 258.094 71.2624 255.955 70.7262 253.754C70.1901 251.949 70.0252 250.083 69.7571 248.243C69.6231 247.341 69.4581 246.439 69.2571 245.537C69.123 245.001 68.5869 244.635 68.056 244.769C67.5199 244.903 67.1539 245.434 67.2879 245.97C67.5199 246.903 67.69 247.872 67.824 248.81C68.324 254.053 70.1283 258.996 71.9325 263.904C72.7676 265.708 73.6027 267.579 74.5718 269.311C76.3091 272.049 78.3762 274.585 80.3815 277.157C82.9538 280.828 86.0571 284.101 89.6656 286.771C94.4752 290.612 99.6147 294.014 104.357 297.958C107.528 300.798 111.033 303.133 114.605 305.37C114.806 305.504 115.007 305.638 115.208 305.772C112.739 306.004 110.234 305.937 107.765 306.04C105.326 306.205 102.924 306.339 100.522 306.242C96.4804 306.04 92.408 305.705 88.4335 305.004C84.9952 304.468 81.6908 303.504 78.3195 302.633C75.9843 302.035 73.711 301.195 71.4737 300.329C69.5715 299.628 67.6694 298.86 65.896 297.86C59.0863 293.885 53.3746 287.843 50.1012 280.632C48.7661 277.523 47.8331 274.219 46.9619 270.951C45.7917 266.409 44.5597 261.837 44.2916 257.13C43.9926 251.955 43.5235 246.779 43.6214 241.506C43.8895 234.129 45.2246 226.814 46.4928 219.535C47.73 213.091 49.529 206.715 51.7354 200.539C54.3077 194.394 57.1429 188.384 60.4833 182.677C62.6226 179.172 64.9218 175.764 67.2621 172.393C69.7313 168.784 72.1696 165.145 74.9069 161.774C76.9431 159.573 78.8814 157.299 80.8815 155.062C83.0827 152.861 85.356 150.691 87.6912 148.582C89.3614 147.113 91.1966 145.809 92.8668 144.309C98.5115 139.468 104.218 134.659 110.564 130.751C112.734 129.349 114.806 127.813 117.075 126.545C117.373 126.411 117.477 126.411 117.745 126.344C118.08 126.277 118.415 126.277 118.745 126.246C119.013 126.648 119.379 127.081 119.812 127.581C122.884 131.421 126.255 135.061 129.493 138.767C134.333 144.309 139.241 149.819 144.148 155.33C146.386 157.866 148.556 160.439 150.757 163.011C153.53 166.382 156 169.991 158.505 173.563C159.438 175.068 160.443 176.501 161.577 177.837C163.01 179.574 164.418 182.445 166.918 182.445C167.083 182.445 167.253 182.445 167.418 182.409C169.722 181.909 172.862 174.996 174.465 172.862C175.331 171.29 176.336 169.821 177.171 168.254C178.104 166.516 178.908 164.712 179.774 162.944C180.542 163.712 181.213 164.578 181.945 165.382C182.744 166.248 183.414 167.217 184.182 168.119C184.986 168.955 185.718 169.821 186.419 170.723C186.821 171.223 187.254 171.692 187.62 172.228C187.821 172.46 188.12 172.594 188.419 172.63C188.419 172.831 188.419 173.032 188.383 173.197C188.285 175.635 188.285 178.105 187.981 180.543C187.816 181.981 187.445 183.347 187.182 184.718C186.713 186.987 185.244 193.265 185.28 193.332C184.78 194.936 184.414 196.57 184.11 198.209C183.074 203.184 182.537 208.225 182.14 213.267C181.006 209.792 179.238 206.524 177.934 203.117C177.367 201.946 175.666 202.781 176.264 203.952C176.795 205.22 177.434 206.39 178.032 207.591C179.135 209.761 180.166 211.931 181.202 214.138C181.403 214.437 181.635 215.205 181.97 215.705C181.939 215.937 181.939 216.205 181.903 216.437C181.568 219.009 182.64 221.546 183.342 223.984C184.275 227.355 185.945 230.531 188.517 232.964C188.95 233.433 189.486 233.799 189.986 234.201C190.352 234.469 190.718 234.902 191.156 235.067C192.523 236.304 193.894 237.505 195.399 238.572C193.43 239.743 191.461 240.908 189.357 241.81C187.553 242.475 185.62 242.743 183.883 243.578C182.512 241.944 181.548 239.938 180.609 238.036C175.166 224.448 172.63 209.957 168.155 196.07C165.583 189.961 162.577 184.048 158.474 178.873C154.201 173.996 149.293 169.29 143.751 165.918C142.715 165.382 140.344 164.516 140.246 166.32C140.313 166.985 140.911 167.32 141.514 167.253C142.849 167.485 143.952 168.357 145.056 169.089C149.427 172.594 153.835 176.269 157.34 180.677C161.046 185.584 163.954 191.193 166.32 196.869C169.392 206.251 171.465 215.999 174.202 225.448C176.841 232.593 179.475 247.052 188.29 248.521C189.826 250.125 191.698 251.393 192.899 253.264C195.301 256.965 197.43 260.831 199.332 264.796C199.332 264.79 199.322 264.78 199.312 264.78C199.312 264.78 199.312 264.816 199.343 264.816C200.647 267.755 201.647 270.858 202.147 274.028C203.348 279.338 203.75 284.781 203.214 290.189C202.982 292.323 202.446 294.432 201.843 296.499C201.343 298.071 201.044 299.37 201.24 300.339L201.234 300.334ZM236.324 277.997C234.922 279.766 233.185 281.271 231.484 282.74C229.246 284.807 227.277 287.148 225.04 289.184C222.705 291.586 219.864 293.39 217.06 295.194C214.756 296.7 212.385 298.169 209.75 298.968C208.147 299.468 206.544 300.169 204.843 300.272C203.039 300.236 202.905 300.339 203.41 298.437C203.879 296.834 204.343 295.231 204.714 293.596C205.482 290.359 205.513 287.019 205.446 283.714C205.379 279.472 204.513 275.301 203.642 271.162C202.673 266.919 200.837 262.95 198.698 259.208C197.193 256.403 195.657 253.599 193.724 251.063C192.456 249.429 190.62 248.326 189.316 246.722C191.285 246.289 193.322 246.253 195.291 245.789C198.564 245.155 201.868 244.418 205.173 244.021C205.575 243.99 206.008 243.954 206.441 243.954C207.977 243.954 209.544 244.253 211.019 244.289C212.122 244.454 213.256 244.49 214.359 244.557C215.828 244.691 217.297 245.026 218.73 245.423C219.663 245.758 220.669 245.959 221.633 246.155C221.803 246.289 221.999 246.356 222.2 246.356C222.267 246.356 222.37 246.356 222.432 246.32C223.7 246.588 224.968 246.887 226.107 247.521C230.85 250.362 233.685 255.403 235.587 260.409C237.922 265.852 239.495 272.631 236.319 278.003L236.324 277.997ZM300.797 232.288C297.524 231.855 294.117 231.319 290.915 232.355C286.874 233.593 283.203 236.031 279.93 238.634C276.894 241.17 274.187 244.078 271.218 246.681C268.512 249.083 265.878 251.558 263.207 253.991C261.238 255.862 259.166 257.362 257.13 259.136C253.222 262.172 249.284 265.213 245.144 267.914C243.144 269.115 241.773 270.116 240.103 271.353C240.139 268.713 239.67 266.043 239 263.507C238.598 262.002 237.964 260.6 237.36 259.166C236.561 257.228 235.757 255.259 234.623 253.491C232.355 249.918 229.283 246.181 225.107 245.011C227.777 243.743 230.417 242.475 233.056 241.17C235.628 239.969 238.201 238.835 240.67 237.464C247.449 233.794 254.191 230.02 260.836 226.113C265.976 223.107 270.919 219.669 276.095 216.865C279.6 214.963 286.977 212.591 288.616 212.158C288.817 212.127 289.018 212.158 289.183 212.292C289.786 212.828 291.756 214.53 292.488 215.2C293.457 216.102 294.39 217.004 295.261 217.906C295.627 218.272 295.993 218.705 296.364 219.107C295.029 217.803 293.56 216.2 291.524 216.736C288.049 217.772 285.013 219.808 281.806 221.411C281.172 221.747 280.502 222.046 279.837 222.381C279.672 222.479 279.502 222.582 279.306 222.649C278.806 222.85 278.569 223.515 278.806 223.984C279.239 224.886 280.141 224.551 280.812 224.149C282.214 223.484 283.549 222.747 284.92 222.046C286.724 221.076 288.492 220.009 290.431 219.241C291.065 218.942 291.668 218.571 292.369 218.54C293.369 218.308 294.07 219.509 294.673 220.04C295.173 220.54 295.642 221.076 296.112 221.613C297.215 222.917 298.38 224.185 299.55 225.453C298.112 224.721 296.545 224.283 294.941 224.252C293.972 224.154 293.106 224.484 292.235 224.819C291.436 225.051 290.632 225.221 289.9 225.551C288.199 226.283 286.528 226.752 284.925 227.654C284.358 227.922 283.822 228.154 283.291 228.52C282.023 229.355 282.889 230.19 284.327 229.587C285.698 229.02 287.101 228.587 288.534 228.185C289.869 227.752 291.137 227.118 292.539 226.814C293.606 226.448 294.508 226.113 295.679 226.314C297.318 226.613 298.885 227.247 300.251 228.252C302.086 229.319 303.591 230.922 304.122 233.026C302.988 232.99 301.952 232.422 300.818 232.294L300.797 232.288Z" fill="black"/>
<path d="M174.873 90.6814C174.373 90.2793 173.203 89.2122 172.733 88.6452C172.965 88.5782 173.3 88.6142 173.636 88.6452L174.739 88.7792V87.6451C174.739 85.944 174.239 84.3717 173.337 83.1706C172.269 81.7685 170.563 80.9643 168.965 81.0313C166.594 81.1292 163.991 83.3665 163.887 86.8049C163.857 88.5421 164.388 92.0835 166.692 94.3827C168.094 95.7539 169.862 96.4189 171.965 96.4189H172.434C173.001 96.3879 173.404 95.9188 173.404 95.3827C173.404 94.8466 172.934 94.4136 172.367 94.4136C170.63 94.4806 169.197 94.0115 168.125 92.9444C166.29 91.1402 165.888 88.1709 165.919 86.8667C165.955 85.1295 167.29 83.1294 169.094 83.0263C170.094 82.9953 171.13 83.4954 171.8 84.3975C172.269 84.9955 172.568 85.7687 172.702 86.5987C172.538 86.6296 172.367 86.6296 172.202 86.6966C171.336 86.9286 170.697 87.6657 170.63 88.4647C170.496 89.769 173.337 92.0062 173.672 92.2691C174.105 92.6042 174.739 92.5372 175.074 92.0681C175.409 91.635 175.342 91.001 174.873 90.6659V90.6814Z" fill="black"/>
<path d="M256.422 97.5721C256.629 95.2318 256.732 92.8863 257.129 90.5666C257.263 89.9376 257.175 89.1489 257.613 88.6437C258.629 88.0406 258.417 91.5099 258.489 92.0667C258.428 93.9637 258.603 95.8401 258.665 97.7268C258.69 98.3402 258.139 98.8506 257.541 98.8506C256.871 98.8506 256.335 98.2423 256.427 97.5773L256.422 97.5721Z" fill="black"/>
<path d="M254.277 95.1132C254.164 95.108 254.061 95.1132 253.958 95.1132C253.69 95.1132 253.458 95.1132 253.21 95.005C252.695 94.6544 253.164 94.0461 253.633 93.9482C254.947 93.5925 256.339 93.5203 257.669 93.2059C258.876 92.9533 259.958 92.7368 261.169 92.6079C262.072 92.4739 262.716 93.5873 262.128 94.2936C261.762 94.7472 261.211 94.7163 260.664 94.6853C260.391 94.6699 260.113 94.6544 259.865 94.7008C258.211 94.8761 256.551 95.1338 254.88 95.1338C254.679 95.1338 254.478 95.1338 254.282 95.1235L254.277 95.1132Z" fill="black"/>
<path d="M73.2441 97.6907C70.7079 96.5721 69.4088 93.9224 66.9654 92.4893C64.2435 90.8913 71.5945 82.6794 72.3832 83.2156C79.8631 88.2777 80.0899 89.5819 79.7188 90.4119C79.2548 91.4635 74.6154 98.0464 73.239 97.6907H73.2441ZM68.7181 91.0614C70.6976 91.9378 71.8729 93.7265 73.3575 95.1699C74.5947 93.2523 76.0072 91.6233 77.5588 90.0098C75.7443 88.6231 73.6204 87.5612 72.208 85.7209C70.976 87.4529 69.9656 89.3397 68.7232 91.0614H68.7181Z" fill="black"/>
<path d="M91.5943 31.9988C90.2282 31.4988 88.6405 31.9524 87.161 31.7977C86.8053 31.7617 86.5527 31.4369 86.5837 31.0812C86.7022 29.5863 86.8569 26.2407 86.4393 24.4777C86.2795 23.7921 85.2795 23.8127 85.1351 24.5035C84.7021 26.5397 84.8928 28.8594 84.4186 30.9523C84.3464 31.2771 84.0474 31.4988 83.7175 31.4833C81.8153 31.375 79.908 31.5761 78.0161 31.5555C77.7893 31.5555 77.5728 31.6431 77.4284 31.8184C75.851 33.7308 81.0215 33.6845 83.1247 33.8288C83.5165 33.8546 83.8 34.2103 83.7381 34.5969C83.2793 37.3857 81.14 45.1079 84.4753 43.7933C84.6609 43.7212 84.8155 43.5665 84.8774 43.3758C85.7537 40.7107 85.5475 37.628 86.0785 34.8031C86.1455 34.4577 86.4548 34.2154 86.8053 34.2515C88.9292 34.4835 94.1151 35.1175 92.6098 32.4318C92.5377 32.3029 91.7283 32.0503 91.5891 31.9988H91.5943Z" fill="black"/>
</svg>
