<svg xmlns="http://www.w3.org/2000/svg" width="80" height="80" fill="none"><path fill="#FFF7DB" fill-rule="evenodd" d="M70 69a1.001 1.001 0 0 1 0-2 1.001 1.001 0 0 1 0 2m-2-56a1.001 1.001 0 0 1 0-2 1.001 1.001 0 0 1 0 2M14 69a1.001 1.001 0 0 1 0-2 1.001 1.001 0 0 1 0 2" clip-rule="evenodd"/><path fill="#FED980" fill-rule="evenodd" d="M19.397 12.006Q19.695 12 20 12l.303.002q.15 0 .3.004l.59.019.576.031q.426.028.834.07l.532.063C26.015 12.566 28 13.507 28 15v6a1 1 0 0 1-1.993.117L26 21v-3.874c-.781.312-1.757.54-2.864.685l-.533.063q-.408.042-.834.07l-.575.031-.59.019a29 29 0 0 1-1.207 0l-.59-.019-.576-.031a22 22 0 0 1-.834-.07l-.532-.063C13.986 17.434 12 16.493 12 15s1.986-2.434 4.865-2.811l.532-.063q.408-.042.834-.07l.575-.031zM26 15l-.022-.014a4.8 4.8 0 0 0-.944-.38l-.205-.059C23.58 14.202 21.854 14 20 14s-3.58.202-4.828.547c-.422.117-.77.246-1.028.375L14 15l.17.091c.211.103.48.206.797.302l.205.06C16.42 15.798 18.147 16 20 16s3.581-.202 4.829-.547c.422-.117.77-.246 1.028-.375z" clip-rule="evenodd"/><path fill="#FED980" d="M59.732 49.804C58.672 48.659 57.222 48 55.675 48c-2.475 0-4.574 1.672-5.352 4H49l-.117.007A1 1 0 0 0 49 54h1q0 .511.078 1H49l-.117.007A1 1 0 0 0 49 57h1.76c.98 1.792 2.812 3 4.915 3a5.5 5.5 0 0 0 3.776-1.52 1.024 1.024 0 0 0 .063-1.413.946.946 0 0 0-1.367-.065c-.68.64-1.55.998-2.472.998a3.6 3.6 0 0 1-2.473-1H55l.117-.007A1 1 0 0 0 55 55h-2.947a4.3 4.3 0 0 1-.117-1H55l.117-.007A1 1 0 0 0 55 52h-2.564c.647-1.197 1.858-2 3.24-2 1.01 0 1.957.43 2.657 1.186.37.4.982.413 1.368.032.386-.382.4-1.015.03-1.414M13 20c.513 0 .935.35.993.803l.007.106v18.182c0 .502-.448.909-1 .909-.513 0-.935-.35-.993-.803L12 39.09V20.909c0-.502.448-.909 1-.909m0 24a1 1 0 1 0 0-2 1 1 0 0 0 0 2"/><path fill="#FED980" fill-rule="evenodd" d="M60 28q-.305 0-.603.006l-.59.019-.576.031a22 22 0 0 0-.834.07l-.532.063C53.986 28.566 52 29.507 52 31s1.986 2.434 4.865 2.811l.532.063q.408.042.834.07l.575.031.59.019a29 29 0 0 0 1.207 0l.59-.019.576-.031q.426-.028.834-.07l.532-.063c1.108-.145 2.084-.373 2.865-.685V37l.007.117A1 1 0 0 0 68 37v-6c0-1.493-1.986-2.434-4.864-2.811l-.533-.063a22 22 0 0 0-.834-.07l-.575-.031-.59-.019-.3-.004zm5.857 3.078L66 31l-.022-.014a4.8 4.8 0 0 0-.944-.38l-.205-.059C63.58 30.202 61.854 30 60 30s-3.581.202-4.829.547c-.422.117-.77.246-1.028.375L54 31l.17.091c.211.103.48.206.797.302l.205.06c1.248.345 2.975.547 4.829.547s3.58-.202 4.828-.547c.422-.117.77-.246 1.028-.375" clip-rule="evenodd"/><path fill="#FED980" d="M53.993 34.883A1 1 0 0 0 52 35v4l.007.117A1 1 0 0 0 54 39v-4z"/><path fill="#0D0C21" fill-rule="evenodd" d="m36.662 22-.668.012-.33.01-.65.03-.637.042q-.472.034-.927.084l-.598.07-.293.04-.572.087C28.423 22.962 26 24.217 26 25.999v4.573l.005.148.01.108Q26 30.913 26 31v4.572l.005.148.01.108Q26 35.912 26 36v4.572l.005.148.01.108q-.015.083-.015.171v4.572l.005.148q.015.21.067.412l-.45-.037-.636-.042-.65-.03-.33-.01-.668-.012h-.676l-.668.012-.33.01-.65.03-.636.042q-.473.035-.928.084l-.598.07-.293.04-.572.087C14.423 46.962 12 48.217 12 49.999v4.572l.005.148q.004.055.01.109Q12 54.912 12 55v4.571l.005.148c.13 1.963 2.833 3.367 6.646 3.963l.58.083q.294.04.596.071l.61.059Q21.673 64 23 64c.882 0 1.74-.036 2.563-.105l.61-.059q.302-.032.596-.071l.58-.083c3.738-.585 6.41-1.945 6.635-3.847.954.109 1.95.165 2.966.165 2.49 0 5.54-.318 7.234-.796A12 12 0 0 0 55 66c6.627 0 12-5.373 12-12 0-6.628-5.373-12-12-12-2.612 0-5.03.834-7 2.251V41l-.007-.117-.008-.054Q48 40.7 48 40.572V36l-.007-.117-.008-.055q.015-.127.015-.256V31l-.007-.117-.008-.055q.015-.127.015-.256V26c0-1.735-2.297-2.972-5.708-3.578l-.562-.092q-.287-.045-.582-.082l-.598-.07q-.455-.049-.927-.084l-.637-.042-.65-.03-.33-.01-.668-.012zm7.398 27.06c-.812.259-1.725.467-2.711.621l-.58.084q-.294.038-.596.07l-.61.059q-1.237.105-2.563.105c-.882 0-1.74-.035-2.563-.105l-.443-.042q.006.073.006.147v2.594c.954.119 1.96.18 2.99.18 2.035 0 4.461-.233 6.147-.593a12 12 0 0 1 .923-3.12m-1.051 5.408c-1.774.33-4.059.532-6.019.532-1.03 0-2.038-.057-3.004-.17l.003.02.003.02.001.013L34 55v2.605c.942.116 1.934.176 2.95.176 2.201 0 4.898-.268 6.461-.654a12 12 0 0 1-.402-2.66M28 30.572v-2.126c.963.487 2.231.868 3.708 1.13l.563.093q.285.043.58.081l.599.07q.455.05.927.085l.637.041.65.03.33.01.668.012Q36.83 30 37 30l.338-.002.668-.012.33-.01.65-.03.637-.041q.472-.036.927-.084l.598-.07.293-.04.572-.087c1.596-.263 2.964-.66 3.987-1.178v2.126l-.007.06c-.08.36-.832.933-2.246 1.418-1.752.6-4.163.95-6.747.95s-4.995-.35-6.747-.95C28.756 31.537 28 30.924 28 30.572m.773-3.9C28.276 26.438 28 26.204 28 26c0-.203.276-.437.773-.671l.266-.117q.142-.059.301-.116l.335-.115q.176-.057.367-.112l.397-.109.21-.053.439-.102a21 21 0 0 1 .466-.098l.49-.091.515-.085.266-.039.546-.073.565-.063.584-.054q.295-.024.6-.044l.614-.031.627-.02q.159-.004.318-.005L37 24q.322 0 .639.007l.627.02.615.031q.303.02.6.044l.583.054.565.063.547.073.525.08.254.044.491.091.236.048.453.1q.22.052.426.105l.397.11q.096.026.188.055l.35.113q.252.087.465.174l.266.117c.497.234.773.468.773.671s-.276.438-.773.672l-.266.117a8 8 0 0 1-.301.116l-.335.114q-.176.057-.367.113l-.397.109-.21.053-.439.102a21 21 0 0 1-.466.098l-.49.091-.515.084-.266.04-.546.072-.565.064-.584.054q-.295.024-.6.043l-.614.032-.627.02a31 31 0 0 1-1.278 0l-.627-.02-.615-.032a30 30 0 0 1-.6-.043l-.583-.054-.565-.064-.547-.072-.525-.08-.254-.044-.491-.091-.236-.048-.453-.1q-.22-.052-.426-.105l-.397-.11-.188-.055-.35-.114a8 8 0 0 1-.465-.173zm-.773 8.9v-2.328c1.165.655 2.773 1.145 4.651 1.438l.58.083q.294.04.596.071l.61.059Q35.674 35 37 35c.882 0 1.74-.035 2.563-.105l.61-.059q.302-.032.596-.07l.58-.084c1.878-.293 3.486-.783 4.651-1.438v2.328l-.007.06c-.08.36-.832.933-2.246 1.418-1.752.6-4.163.95-6.747.95s-4.995-.35-6.747-.95C28.756 36.536 28 35.924 28 35.572m4 21.671c-1.165.656-2.773 1.145-4.651 1.438l-.58.084q-.294.04-.596.07l-.61.06Q24.327 58.998 23 59c-.882 0-1.74-.036-2.563-.106l-.61-.058q-.302-.033-.596-.071l-.58-.084c-1.878-.293-3.486-.782-4.651-1.438v2.328c0 .353.755.965 2.253 1.479 1.752.6 4.163.95 6.747.95s4.995-.35 6.747-.95c1.414-.485 2.167-1.058 2.246-1.418l.007-.06zm-4-19c1.165.656 2.773 1.146 4.651 1.44l.58.082q.294.04.596.071l.61.059Q35.674 40 37 40c.882 0 1.74-.035 2.563-.105l.61-.059q.302-.032.596-.07l.58-.084c1.878-.293 3.486-.783 4.651-1.438v2.328l-.007.06c-.08.36-.832.933-2.246 1.418-1.752.6-4.163.95-6.747.95s-4.995-.35-6.747-.95C28.756 41.536 28 40.924 28 40.572zm18 7.328v-2.327c-1.165.655-2.773 1.145-4.651 1.438l-.58.083q-.294.04-.596.071l-.61.059Q38.326 45 37 45c-.882 0-1.74-.035-2.563-.105l-.61-.059q-.302-.032-.596-.07l-.58-.084c-1.878-.293-3.486-.783-4.651-1.438v2.327c0 .252.386.637 1.153 1.023 1.057.235 1.982.537 2.732.902 1.496.323 3.261.503 5.115.503 2.584 0 4.995-.35 6.747-.95 1.414-.485 2.167-1.058 2.246-1.417zm-14.501 3.898c-1.118-.239-2.113-.554-2.937-.939l-.116-.023-.49-.091q-.128-.023-.255-.043l-.526-.081-.546-.073-.565-.063-.584-.054q-.295-.024-.6-.043l-.614-.032-.627-.02A30 30 0 0 0 23 48l-.32.002q-.16 0-.319.005l-.627.02-.615.032q-.303.018-.6.043l-.583.054-.565.063-.546.073-.266.04-.514.084-.491.091a21 21 0 0 0-.466.098l-.44.102-.21.053-.396.11q-.192.054-.367.111l-.335.115a8 8 0 0 0-.301.116l-.266.117c-.497.234-.773.468-.773.671s.276.438.773.672l.266.117q.213.087.465.173l.35.114.188.056.397.109q.206.052.426.105l.453.1.236.048.49.091.255.043.526.08.546.073.565.064.584.054q.296.024.6.043l.614.032.627.02a31 31 0 0 0 1.278 0l.627-.02.615-.032q.303-.019.6-.043l.583-.054.565-.064.546-.072.266-.04.514-.084.491-.091a21 21 0 0 0 .466-.098l.44-.102.21-.053.396-.11q.192-.055.367-.111l.335-.115q.159-.057.301-.116l.266-.117c.497-.234.773-.468.773-.672 0-.163-.177-.345-.501-.53M32 54.571v-2.125c-1.023.518-2.39.915-3.987 1.178l-.572.087-.293.04-.598.07q-.455.048-.928.084l-.636.041-.65.03q-.165.007-.33.01l-.668.013L23 54q-.17 0-.338-.002l-.668-.011-.33-.011-.65-.03-.636-.041a30 30 0 0 1-.928-.084l-.598-.07q-.295-.039-.582-.082l-.562-.093c-1.477-.262-2.745-.643-3.708-1.13v2.125c0 .353.755.965 2.253 1.479 1.752.6 4.163.95 6.747.95s4.995-.35 6.747-.95c1.414-.485 2.167-1.059 2.246-1.418zm23-10.572c5.523 0 10 4.478 10 10 0 5.524-4.477 10-10 10s-10-4.476-10-10c0-5.522 4.477-10 10-10" clip-rule="evenodd"/><path fill="#0D0C21" d="M61.421 40.093a1 1 0 1 0-.842 1.814C65.064 43.99 68 48.355 68 53.001a1 1 0 0 0 2 0c0-5.444-3.405-10.505-8.579-12.908"/></svg>
