<svg width="148" height="148" viewBox="0 0 148 148" fill="none" xmlns="http://www.w3.org/2000/svg">
    <path d="M45.9307 5.10345H51.0342V0C48.2157 1.02069e-05 45.9307 2.28485 45.9307 5.10345Z" fill="black"/>
    <path d="M53.586 5.10345C52.9912 5.10345 51.0342 5.10345 51.0342 5.10345C51.0342 5.10345 51.0342 3.36616 51.0342 2.55172C51.0342 1.91559 51.0342 0 51.0342 0C51.0342 0 52.8129 0 53.586 0C54.9952 0 56.1377 1.14245 56.1377 2.55172C56.1377 3.96093 54.9952 5.10345 53.586 5.10345Z" fill="black"/>
    <path d="M73.9997 0C75.4091 0 76.5514 1.14246 76.5514 2.55172C76.5514 3.96106 75.4091 5.10345 73.9997 5.10345C72.5905 5.10345 71.448 3.96106 71.448 2.55172C71.448 1.14246 72.5905 0 73.9997 0Z" fill="black"/>
    <path d="M94.4137 0C95.0085 0 96.9654 0 96.9654 0C96.9654 0 96.9654 1.73703 96.9654 2.55172C96.9654 3.18766 96.9654 5.10345 96.9654 5.10345C96.9654 5.10345 95.1872 5.10345 94.4137 5.10345C93.004 5.10345 91.862 3.96049 91.862 2.55172C91.862 1.14279 93.004 0 94.4137 0Z" fill="black"/>
    <path d="M99.5169 5.10345C98.9222 5.10345 96.9652 5.10345 96.9652 5.10345C96.9652 5.10345 96.9652 3.36616 96.9652 2.55172C96.9652 1.91559 96.9652 0 96.9652 0C96.9652 0 98.7439 0 99.5169 0C100.926 0 102.069 1.14245 102.069 2.55172C102.069 3.96093 100.926 5.10345 99.5169 5.10345Z" fill="black"/>
    <path d="M45.9307 7.65463C45.9307 7.05986 45.9307 5.10291 45.9307 5.10291C45.9307 5.10291 47.6679 5.10291 48.4824 5.10291C49.1186 5.10291 51.0342 5.10291 51.0342 5.10291C51.0342 5.10291 51.0342 6.88157 51.0342 7.65463C51.0342 9.06383 49.8917 10.2064 48.4824 10.2064C47.0732 10.2064 45.9307 9.06383 45.9307 7.65463Z" fill="black"/>
    <path d="M58.6895 5.10291C60.0988 5.10291 61.2412 6.24536 61.2412 7.65463C61.2412 9.06397 60.0988 10.2064 58.6895 10.2064C57.2802 10.2064 56.1378 9.06397 56.1378 7.65463C56.1378 6.24536 57.2802 5.10291 58.6895 5.10291Z" fill="black"/>
    <path d="M84.2064 5.10291C85.6158 5.10291 86.7582 6.24536 86.7582 7.65463C86.7582 9.06397 85.6158 10.2064 84.2064 10.2064C82.7972 10.2064 81.6547 9.06397 81.6547 7.65463C81.6547 6.24536 82.7972 5.10291 84.2064 5.10291Z" fill="black"/>
    <path d="M104.62 5.10291C106.03 5.10291 107.172 6.24536 107.172 7.65463C107.172 9.06397 106.03 10.2064 104.62 10.2064C103.211 10.2064 102.069 9.06397 102.069 7.65463C102.069 6.24536 103.211 5.10291 104.62 5.10291Z" fill="black"/>
    <path d="M63.793 10.2063C65.2023 10.2063 66.3447 11.3488 66.3447 12.758C66.3447 14.1674 65.2023 15.3097 63.793 15.3097C62.3837 15.3097 61.2413 14.1674 61.2413 12.758C61.2413 11.3488 62.3837 10.2063 63.793 10.2063Z" fill="black"/>
    <path d="M73.9997 10.2063C74.5945 10.2063 76.5514 10.2063 76.5514 10.2063C76.5514 10.2063 76.5514 11.9433 76.5514 12.758C76.5514 13.394 76.5514 15.3097 76.5514 15.3097C76.5514 15.3097 74.7732 15.3097 73.9997 15.3097C72.59 15.3097 71.448 14.1668 71.448 12.758C71.448 11.3491 72.59 10.2063 73.9997 10.2063Z" fill="black"/>
    <path d="M79.1032 15.3097C78.5085 15.3097 76.5515 15.3097 76.5515 15.3097C76.5515 15.3097 76.5515 13.5725 76.5515 12.758C76.5515 12.1219 76.5515 10.2063 76.5515 10.2063C76.5515 10.2063 78.3302 10.2063 79.1032 10.2063C80.5124 10.2063 81.655 11.3487 81.655 12.758C81.655 14.1672 80.5124 15.3097 79.1032 15.3097Z" fill="black"/>
    <path d="M89.31 10.2063C89.9047 10.2063 91.8617 10.2063 91.8617 10.2063C91.8617 10.2063 91.8617 11.9433 91.8617 12.758C91.8617 13.394 91.8617 15.3097 91.8617 15.3097C91.8617 15.3097 90.0835 15.3097 89.31 15.3097C87.9002 15.3097 86.7582 14.1668 86.7582 12.758C86.7582 11.3491 87.9002 10.2063 89.31 10.2063Z" fill="black"/>
    <path d="M91.862 10.2063V15.3097H96.9654C96.9654 12.4911 94.6806 10.2063 91.862 10.2063Z" fill="black"/>
    <path d="M58.6895 15.3101C60.0988 15.3101 61.2412 16.4525 61.2412 17.8618C61.2412 19.2711 60.0988 20.4135 58.6895 20.4135C57.2802 20.4135 56.1378 19.2711 56.1378 17.8618C56.1378 16.4525 57.2802 15.3101 58.6895 15.3101Z" fill="black"/>
    <path d="M68.8962 15.3101C70.3055 15.3101 71.4479 16.4525 71.4479 17.8618C71.4479 19.2711 70.3055 20.4135 68.8962 20.4135C67.4869 20.4135 66.3445 19.2711 66.3445 17.8618C66.3445 16.4525 67.4869 15.3101 68.8962 15.3101Z" fill="black"/>
    <path d="M84.2064 15.3101C85.6158 15.3101 86.7582 16.4525 86.7582 17.8618C86.7582 19.2711 85.6158 20.4135 84.2064 20.4135C82.7972 20.4135 81.6547 19.2711 81.6547 17.8618C81.6547 16.4525 82.7972 15.3101 84.2064 15.3101Z" fill="black"/>
    <path d="M96.9654 15.3101H91.862V20.4135H96.9654V15.3101Z" fill="black"/>
    <path d="M104.62 15.3101C106.03 15.3101 107.172 16.4525 107.172 17.8618C107.172 19.2711 106.03 20.4135 104.62 20.4135C103.211 20.4135 102.069 19.2711 102.069 17.8618C102.069 16.4525 103.211 15.3101 104.62 15.3101Z" fill="black"/>
    <path d="M66.3447 22.9654C66.3447 23.5601 66.3447 25.5171 66.3447 25.5171C66.3447 25.5171 64.6076 25.5171 63.793 25.517C63.1569 25.5171 61.2413 25.517 61.2413 25.517C61.2413 25.517 61.2413 23.7386 61.2413 22.9654C61.2413 21.5562 62.3837 20.4137 63.7929 20.4137C65.2022 20.4137 66.3447 21.5562 66.3447 22.9654Z" fill="black"/>
    <path d="M96.9654 20.4137H91.862V25.5171H96.9654V20.4137Z" fill="black"/>
    <path d="M40.8272 30.6204H45.9307V25.517C43.1121 25.517 40.8272 27.8018 40.8272 30.6204Z" fill="black"/>
    <path d="M48.4824 30.6204C47.8877 30.6204 45.9307 30.6204 45.9307 30.6204C45.9307 30.6204 45.9307 28.8831 45.9307 28.0687C45.9307 27.4326 45.9307 25.517 45.9307 25.517C45.9307 25.517 47.7094 25.517 48.4824 25.517C49.8917 25.517 51.0342 26.6594 51.0342 28.0687C51.0342 29.4779 49.8917 30.6204 48.4824 30.6204Z" fill="black"/>
    <path d="M58.6895 25.517C59.2842 25.517 61.2412 25.517 61.2412 25.517C61.2412 25.517 61.2412 27.254 61.2412 28.0687C61.2412 28.7046 61.2412 30.6204 61.2412 30.6204C61.2412 30.6204 59.463 30.6204 58.6895 30.6204C57.2797 30.6204 56.1378 29.4775 56.1378 28.0687C56.1378 26.6598 57.2797 25.517 58.6895 25.517Z" fill="black"/>
    <path d="M66.3447 25.517H61.2413V30.6204H66.3447V25.517Z" fill="black"/>
    <path d="M79.1032 25.517C79.698 25.517 81.655 25.517 81.655 25.517C81.655 25.517 81.655 27.254 81.655 28.0687C81.655 28.7046 81.655 30.6204 81.655 30.6204C81.655 30.6204 79.8767 30.6204 79.1032 30.6204C77.6935 30.6204 76.5515 29.4775 76.5515 28.0687C76.5515 26.6598 77.6935 25.517 79.1032 25.517Z" fill="black"/>
    <path d="M81.6547 25.517V30.6204H86.7582C86.7582 27.8018 84.4733 25.517 81.6547 25.517Z" fill="black"/>
    <path d="M96.9654 25.517H91.862V30.6204H96.9654V25.517Z" fill="black"/>
    <path d="M99.5169 30.6204C98.9222 30.6204 96.9652 30.6204 96.9652 30.6204C96.9652 30.6204 96.9652 28.8831 96.9652 28.0687C96.9652 27.4326 96.9652 25.517 96.9652 25.517C96.9652 25.517 98.7439 25.517 99.5169 25.517C100.926 25.517 102.069 26.6594 102.069 28.0687C102.069 29.4779 100.926 30.6204 99.5169 30.6204Z" fill="black"/>
    <path d="M40.8272 33.172C40.8272 32.5772 40.8272 30.6202 40.8272 30.6202C40.8272 30.6202 42.5644 30.6202 43.3789 30.6202C44.0151 30.6202 45.9307 30.6202 45.9307 30.6202C45.9307 30.6202 45.9307 32.3989 45.9307 33.172C45.9307 34.5812 44.7881 35.7237 43.3789 35.7237C41.9697 35.7237 40.8272 34.5812 40.8272 33.172Z" fill="black"/>
    <path d="M53.586 30.6202C54.9953 30.6202 56.1377 31.7627 56.1377 33.172C56.1377 34.5813 54.9953 35.7237 53.586 35.7237C52.1767 35.7237 51.0342 34.5813 51.0342 33.172C51.0342 31.7627 52.1767 30.6202 53.586 30.6202Z" fill="black"/>
    <path d="M66.3447 30.6202H61.2413V35.7237H66.3447V30.6202Z" fill="black"/>
    <path d="M73.9997 30.6202C75.4091 30.6202 76.5514 31.7627 76.5514 33.172C76.5514 34.5813 75.4091 35.7237 73.9997 35.7237C72.5905 35.7237 71.448 34.5813 71.448 33.172C71.448 31.7627 72.5905 30.6202 73.9997 30.6202Z" fill="black"/>
    <path d="M86.7582 30.6202H81.6547V35.7237H86.7582V30.6202Z" fill="black"/>
    <path d="M96.9654 30.6202H91.862V35.7237H96.9654V30.6202Z" fill="black"/>
    <path d="M104.62 30.6202C106.03 30.6202 107.172 31.7627 107.172 33.172C107.172 34.5813 106.03 35.7237 104.62 35.7237C103.211 35.7237 102.069 34.5813 102.069 33.172C102.069 31.7627 103.211 30.6202 104.62 30.6202Z" fill="black"/>
    <path d="M48.4824 35.7239C49.8918 35.7239 51.0342 36.8663 51.0342 38.2756C51.0342 39.6849 49.8918 40.8273 48.4824 40.8273C47.0732 40.8273 45.9307 39.6849 45.9307 38.2756C45.9307 36.8663 47.0732 35.7239 48.4824 35.7239Z" fill="black"/>
    <path d="M58.6895 35.7239C59.2842 35.7239 61.2412 35.7239 61.2412 35.7239C61.2412 35.7239 61.2412 37.4609 61.2412 38.2756C61.2412 38.9115 61.2412 40.8273 61.2412 40.8273C61.2412 40.8273 59.463 40.8273 58.6895 40.8273C57.2797 40.8273 56.1378 39.6844 56.1378 38.2756C56.1378 36.8667 57.2797 35.7239 58.6895 35.7239Z" fill="black"/>
    <path d="M66.3447 35.7239H61.2413V40.8273H66.3447V35.7239Z" fill="black"/>
    <path d="M68.8962 40.8273C68.3014 40.8273 66.3445 40.8273 66.3445 40.8273C66.3445 40.8273 66.3445 39.09 66.3445 38.2756C66.3445 37.6395 66.3445 35.7239 66.3445 35.7239C66.3445 35.7239 68.1231 35.7239 68.8962 35.7239C70.3054 35.7239 71.4479 36.8663 71.4479 38.2756C71.4479 39.6848 70.3054 40.8273 68.8962 40.8273Z" fill="black"/>
    <path d="M79.1032 35.7239C79.698 35.7239 81.655 35.7239 81.655 35.7239C81.655 35.7239 81.655 37.4609 81.655 38.2756C81.655 38.9115 81.655 40.8273 81.655 40.8273C81.655 40.8273 79.8767 40.8273 79.1032 40.8273C77.6935 40.8273 76.5515 39.6844 76.5515 38.2756C76.5515 36.8667 77.6935 35.7239 79.1032 35.7239Z" fill="black"/>
    <path d="M86.7582 35.7239H81.6547V40.8273H86.7582V35.7239Z" fill="black"/>
    <path d="M91.8617 35.7239H86.7582V40.8273H91.8617V35.7239Z" fill="black"/>
    <path d="M96.9654 35.7239H91.862V40.8273H96.9654V35.7239Z" fill="black"/>
    <path d="M99.5169 40.8273C98.9222 40.8273 96.9652 40.8273 96.9652 40.8273C96.9652 40.8273 96.9652 39.09 96.9652 38.2756C96.9652 37.6395 96.9652 35.7239 96.9652 35.7239C96.9652 35.7239 98.7439 35.7239 99.5169 35.7239C100.926 35.7239 102.069 36.8663 102.069 38.2756C102.069 39.6848 100.926 40.8273 99.5169 40.8273Z" fill="black"/>
    <path d="M5.10345 43.3792C5.10345 43.974 5.10345 45.931 5.10345 45.931C5.10345 45.931 3.3663 45.931 2.55172 45.9308C1.91559 45.931 0 45.9308 0 45.9308C0 45.9308 0 44.1524 0 43.3792C6.12414e-05 41.97 1.14245 40.8275 2.55166 40.8275C3.96093 40.8275 5.10345 41.97 5.10345 43.3792Z" fill="black"/>
    <path d="M20.4137 43.3792C20.4137 43.974 20.4137 45.931 20.4137 45.931C20.4137 45.931 18.6765 45.931 17.862 45.9308C17.2258 45.931 15.3102 45.9308 15.3102 45.9308C15.3102 45.9308 15.3102 44.1524 15.3102 43.3792C15.3103 41.97 16.4527 40.8275 17.8619 40.8275C19.2712 40.8275 20.4137 41.97 20.4137 43.3792Z" fill="black"/>
    <path d="M25.517 45.931H30.6204V40.8275C27.8019 40.8275 25.517 43.1124 25.517 45.931Z" fill="black"/>
    <path d="M33.1725 45.931C32.5777 45.931 30.6207 45.931 30.6207 45.931C30.6207 45.931 30.6207 44.1937 30.6207 43.3792C30.6207 42.7431 30.6207 40.8275 30.6207 40.8275C30.6207 40.8275 32.3994 40.8275 33.1725 40.8275C34.5817 40.8275 35.7242 41.97 35.7242 43.3792C35.7242 44.7884 34.5817 45.931 33.1725 45.931Z" fill="black"/>
    <path d="M45.9307 43.3792C45.9307 43.974 45.9307 45.931 45.9307 45.931C45.9307 45.931 44.1935 45.931 43.3789 45.9308C42.7428 45.931 40.8272 45.9308 40.8272 45.9308C40.8272 45.9308 40.8272 44.1524 40.8272 43.3792C40.8273 41.97 41.9697 40.8275 43.3789 40.8275C44.7881 40.8275 45.9307 41.97 45.9307 43.3792Z" fill="black"/>
    <path d="M66.3447 40.8275H61.2413V45.931H66.3447V40.8275Z" fill="black"/>
    <path d="M73.9997 40.8275C75.4091 40.8275 76.5514 41.97 76.5514 43.3792C76.5514 44.7886 75.4091 45.931 73.9997 45.931C72.5905 45.931 71.448 44.7886 71.448 43.3792C71.448 41.97 72.5905 40.8275 73.9997 40.8275Z" fill="black"/>
    <path d="M86.7582 40.8275H81.6547V45.931H86.7582V40.8275Z" fill="black"/>
    <path d="M112.276 43.3792C112.276 43.974 112.276 45.931 112.276 45.931C112.276 45.931 110.539 45.931 109.724 45.9308C109.088 45.931 107.172 45.9308 107.172 45.9308C107.172 45.9308 107.172 44.1524 107.172 43.3792C107.172 41.97 108.315 40.8275 109.724 40.8275C111.133 40.8275 112.276 41.97 112.276 43.3792Z" fill="black"/>
    <path d="M119.93 40.8275C121.34 40.8275 122.482 41.97 122.482 43.3792C122.482 44.7886 121.34 45.931 119.93 45.931C118.521 45.931 117.379 44.7886 117.379 43.3792C117.379 41.97 118.521 40.8275 119.93 40.8275Z" fill="black"/>
    <path d="M5.10345 51.0345V45.931H0C1.02069e-05 48.7496 2.28484 51.0345 5.10345 51.0345Z" fill="black"/>
    <path d="M7.65472 51.0345C7.05995 51.0345 5.103 51.0345 5.103 51.0345C5.103 51.0345 5.103 49.2972 5.103 48.4828C5.103 47.8466 5.103 45.931 5.103 45.931C5.103 45.931 6.88166 45.931 7.65472 45.931C9.06393 45.931 10.2064 47.0735 10.2064 48.4828C10.2064 49.892 9.06393 51.0345 7.65472 51.0345Z" fill="black"/>
    <path d="M20.4137 45.931H15.3102V51.0345H20.4137V45.931Z" fill="black"/>
    <path d="M25.517 48.4828C25.517 47.888 25.517 45.931 25.517 45.931C25.517 45.931 27.2542 45.931 28.0687 45.931C28.7048 45.931 30.6204 45.931 30.6204 45.931C30.6204 45.931 30.6204 47.7097 30.6204 48.4828C30.6204 49.892 29.4779 51.0345 28.0687 51.0345C26.6594 51.0345 25.517 49.892 25.517 48.4828Z" fill="black"/>
    <path d="M35.7238 51.0345H40.8272V45.931C38.0087 45.931 35.7238 48.2159 35.7238 51.0345Z" fill="black"/>
    <path d="M45.9307 45.931H40.8272V51.0345C43.6458 51.0345 45.9307 48.7496 45.9307 45.931Z" fill="black"/>
    <path d="M56.1378 51.0345H61.2412V45.931C58.4227 45.931 56.1378 48.2159 56.1378 51.0345Z" fill="black"/>
    <path d="M66.3447 45.931H61.2413V51.0345H66.3447V45.931Z" fill="black"/>
    <path d="M66.3445 45.931V51.0345H71.4479C71.4479 48.2159 69.163 45.931 66.3445 45.931Z" fill="black"/>
    <path d="M76.5515 51.0345H81.655V45.931C78.8364 45.931 76.5515 48.2159 76.5515 51.0345Z" fill="black"/>
    <path d="M86.7582 45.931H81.6547V51.0345H86.7582V45.931Z" fill="black"/>
    <path d="M91.8617 45.931H86.7582V51.0345H91.8617V45.931Z" fill="black"/>
    <path d="M91.862 45.931V51.0345H96.9654C96.9654 48.2159 94.6806 45.931 91.862 45.931Z" fill="black"/>
    <path d="M102.069 51.0345H107.172V45.931C104.354 45.931 102.069 48.2159 102.069 51.0345Z" fill="black"/>
    <path d="M112.276 45.931H107.172V51.0345H112.276V45.931Z" fill="black"/>
    <path d="M114.827 51.0345C114.233 51.0345 112.276 51.0345 112.276 51.0345C112.276 51.0345 112.276 49.2972 112.276 48.4828C112.276 47.8466 112.276 45.931 112.276 45.931C112.276 45.931 114.054 45.931 114.827 45.931C116.237 45.931 117.379 47.0735 117.379 48.4828C117.379 49.892 116.237 51.0345 114.827 51.0345Z" fill="black"/>
    <path d="M132.689 48.4828C132.689 49.0775 132.689 51.0345 132.689 51.0345C132.689 51.0345 130.952 51.0345 130.138 51.0344C129.502 51.0345 127.586 51.0344 127.586 51.0344C127.586 51.0344 127.586 49.2559 127.586 48.4827C127.586 47.0735 128.728 45.931 130.138 45.931C131.547 45.931 132.689 47.0735 132.689 48.4828Z" fill="black"/>
    <path d="M145.448 45.931C146.858 45.931 148 47.0735 148 48.4828C148 49.8921 146.858 51.0345 145.448 51.0345C144.039 51.0345 142.896 49.8921 142.896 48.4828C142.896 47.0735 144.039 45.931 145.448 45.931Z" fill="black"/>
    <path d="M20.4137 56.1374V51.0339H15.3102C15.3103 53.8525 17.5951 56.1374 20.4137 56.1374Z" fill="black"/>
    <path d="M22.9652 56.1374C22.3704 56.1374 20.4135 56.1374 20.4135 56.1374C20.4135 56.1374 20.4135 54.4001 20.4135 53.5857C20.4135 52.9495 20.4135 51.0339 20.4135 51.0339C20.4135 51.0339 22.1921 51.0339 22.9652 51.0339C24.3744 51.0339 25.5169 52.1764 25.5169 53.5857C25.5169 54.9949 24.3744 56.1374 22.9652 56.1374Z" fill="black"/>
    <path d="M33.1725 51.0339C33.7672 51.0339 35.7242 51.0339 35.7242 51.0339C35.7242 51.0339 35.7242 52.771 35.7242 53.5857C35.7242 54.2216 35.7242 56.1374 35.7242 56.1374C35.7242 56.1374 33.9459 56.1374 33.1725 56.1374C31.7627 56.1374 30.6207 54.9944 30.6207 53.5857C30.6207 52.1767 31.7627 51.0339 33.1725 51.0339Z" fill="black"/>
    <path d="M40.8272 51.0339H35.7238V56.1374H40.8272V51.0339Z" fill="black"/>
    <path d="M45.9307 56.1374H51.0342V51.0339C48.2157 51.0339 45.9307 53.3188 45.9307 56.1374Z" fill="black"/>
    <path d="M56.1377 51.0339H51.0342V56.1374H56.1377V51.0339Z" fill="black"/>
    <path d="M61.2412 51.0339H56.1378V56.1374H61.2412V51.0339Z" fill="black"/>
    <path d="M66.3447 51.0339H61.2413V56.1374H66.3447V51.0339Z" fill="black"/>
    <path d="M71.4479 51.0339H66.3445V56.1374H71.4479V51.0339Z" fill="black"/>
    <path d="M76.5514 51.0339H71.448V56.1374H76.5514V51.0339Z" fill="black"/>
    <path d="M81.655 51.0339H76.5515V56.1374C79.3701 56.1374 81.655 53.8525 81.655 51.0339Z" fill="black"/>
    <path d="M91.8617 56.1374V51.0339H86.7582C86.7582 53.8525 89.0431 56.1374 91.8617 56.1374Z" fill="black"/>
    <path d="M96.9654 51.0339H91.862V56.1374H96.9654V51.0339Z" fill="black"/>
    <path d="M102.069 51.0339H96.9652V56.1374H102.069V51.0339Z" fill="black"/>
    <path d="M107.172 51.0339H102.069V56.1374H107.172V51.0339Z" fill="black"/>
    <path d="M112.276 51.0339H107.172V56.1374C109.991 56.1374 112.276 53.8525 112.276 51.0339Z" fill="black"/>
    <path d="M119.93 51.0339C121.34 51.0339 122.482 52.1764 122.482 53.5857C122.482 54.995 121.34 56.1374 119.93 56.1374C118.521 56.1374 117.379 54.995 117.379 53.5857C117.379 52.1764 118.521 51.0339 119.93 51.0339Z" fill="black"/>
    <path d="M132.689 56.1374V51.0339H127.586C127.586 53.8525 129.871 56.1374 132.689 56.1374Z" fill="black"/>
    <path d="M137.793 51.0339H132.689V56.1374H137.793V51.0339Z" fill="black"/>
    <path d="M137.793 51.0339V56.1374H142.896C142.896 53.3188 140.612 51.0339 137.793 51.0339Z" fill="black"/>
    <path d="M2.55172 56.1376C3.14648 56.1376 5.10345 56.1376 5.10345 56.1376C5.10345 56.1376 5.10345 57.8746 5.10345 58.6893C5.10345 59.3252 5.10345 61.241 5.10345 61.241C5.10345 61.241 3.32521 61.241 2.55172 61.241C1.14196 61.241 0 60.0981 0 58.6893C0 57.2804 1.14196 56.1376 2.55172 56.1376Z" fill="black"/>
    <path d="M10.2064 56.1376H5.103V61.241H10.2064V56.1376Z" fill="black"/>
    <path d="M12.7582 61.241C12.1634 61.241 10.2065 61.241 10.2065 61.241C10.2065 61.241 10.2065 59.5037 10.2065 58.6893C10.2065 58.0532 10.2065 56.1376 10.2065 56.1376C10.2065 56.1376 11.9851 56.1376 12.7582 56.1376C14.1674 56.1376 15.3099 57.28 15.3099 58.6893C15.3099 60.0985 14.1674 61.241 12.7582 61.241Z" fill="black"/>
    <path d="M40.8272 56.1376H35.7238V61.241H40.8272V56.1376Z" fill="black"/>
    <path d="M45.9307 56.1376H40.8272V61.241H45.9307V56.1376Z" fill="black"/>
    <path d="M51.0342 56.1376H45.9307V61.241H51.0342V56.1376Z" fill="black"/>
    <path d="M61.2412 56.1376H56.1378V61.241H61.2412V56.1376Z" fill="black"/>
    <path d="M66.3447 56.1376H61.2413V61.241H66.3447V56.1376Z" fill="black"/>
    <path d="M71.4479 56.1376H66.3445V61.241C69.163 61.241 71.4479 58.9561 71.4479 56.1376Z" fill="black"/>
    <path d="M86.7582 58.6893C86.7582 59.284 86.7582 61.241 86.7582 61.241C86.7582 61.241 85.021 61.241 84.2064 61.2409C83.5703 61.241 81.6547 61.2409 81.6547 61.2409C81.6547 61.2409 81.6547 59.4624 81.6547 58.6892C81.6548 57.28 82.7972 56.1376 84.2064 56.1376C85.6157 56.1376 86.7582 57.28 86.7582 58.6893Z" fill="black"/>
    <path d="M137.793 61.241V56.1376H132.689C132.689 58.9561 134.974 61.241 137.793 61.241Z" fill="black"/>
    <path d="M142.896 56.1376H137.793V61.241H142.896V56.1376Z" fill="black"/>
    <path d="M20.4135 66.3445H25.5169V61.2411C22.6984 61.2411 20.4135 63.5259 20.4135 66.3445Z" fill="black"/>
    <path d="M30.6204 61.2411H25.517V66.3445H30.6204V61.2411Z" fill="black"/>
    <path d="M35.7242 61.2411H30.6207V66.3445H35.7242V61.2411Z" fill="black"/>
    <path d="M40.8272 61.2411H35.7238V66.3445H40.8272V61.2411Z" fill="black"/>
    <path d="M51.0342 61.2411H45.9307V66.3445H51.0342V61.2411Z" fill="black"/>
    <path d="M61.2412 61.2411H56.1378V66.3445H61.2412V61.2411Z" fill="black"/>
    <path d="M66.3447 61.2411H61.2413V66.3445C64.0598 66.3445 66.3447 64.0596 66.3447 61.2411Z" fill="black"/>
    <path d="M71.448 66.3445H76.5514V61.2411C73.7329 61.2411 71.448 63.5259 71.448 66.3445Z" fill="black"/>
    <path d="M81.655 61.2411H76.5515V66.3445H81.655V61.2411Z" fill="black"/>
    <path d="M86.7582 61.2411H81.6547V66.3445H86.7582V61.2411Z" fill="black"/>
    <path d="M91.8617 61.2411H86.7582V66.3445H91.8617V61.2411Z" fill="black"/>
    <path d="M96.9654 61.2411H91.862V66.3445H96.9654V61.2411Z" fill="black"/>
    <path d="M102.069 61.2411H96.9652V66.3445H102.069V61.2411Z" fill="black"/>
    <path d="M107.172 61.2411H102.069V66.3445H107.172V61.2411Z" fill="black"/>
    <path d="M112.276 61.2411H107.172V66.3445H112.276V61.2411Z" fill="black"/>
    <path d="M117.379 61.2411H112.276V66.3445H117.379V61.2411Z" fill="black"/>
    <path d="M119.93 66.3445C119.336 66.3445 117.379 66.3445 117.379 66.3445C117.379 66.3445 117.379 64.6073 117.379 63.7928C117.379 63.1567 117.379 61.2411 117.379 61.2411C117.379 61.2411 119.157 61.2411 119.93 61.2411C121.34 61.2411 122.482 62.3835 122.482 63.7928C122.482 65.202 121.34 66.3445 119.93 66.3445Z" fill="black"/>
    <path d="M130.138 61.2411C131.547 61.2411 132.689 62.3835 132.689 63.7928C132.689 65.2022 131.547 66.3445 130.138 66.3445C128.728 66.3445 127.586 65.2022 127.586 63.7928C127.586 62.3835 128.728 61.2411 130.138 61.2411Z" fill="black"/>
    <path d="M142.896 66.3445V61.2411H137.793C137.793 64.0596 140.078 66.3445 142.896 66.3445Z" fill="black"/>
    <path d="M145.448 66.3445C144.853 66.3445 142.896 66.3445 142.896 66.3445C142.896 66.3445 142.896 64.6073 142.896 63.7928C142.896 63.1567 142.896 61.2411 142.896 61.2411C142.896 61.2411 144.675 61.2411 145.448 61.2411C146.857 61.2411 148 62.3835 148 63.7928C148 65.202 146.857 66.3445 145.448 66.3445Z" fill="black"/>
    <path d="M5.10345 68.8965C5.10345 69.4912 5.10345 71.4482 5.10345 71.4482C5.10345 71.4482 3.3663 71.4482 2.55172 71.4481C1.91559 71.4482 0 71.4481 0 71.4481C0 71.4481 0 69.6696 0 68.8964C6.12414e-05 67.4872 1.14245 66.3447 2.55166 66.3447C3.96093 66.3447 5.10345 67.4872 5.10345 68.8965Z" fill="black"/>
    <path d="M10.2065 71.4482H15.3099V66.3447C12.4914 66.3447 10.2065 68.6296 10.2065 71.4482Z" fill="black"/>
    <path d="M20.4137 66.3447H15.3102V71.4482H20.4137V66.3447Z" fill="black"/>
    <path d="M25.5169 66.3447H20.4135V71.4482H25.5169V66.3447Z" fill="black"/>
    <path d="M30.6204 66.3447H25.517V71.4482H30.6204V66.3447Z" fill="black"/>
    <path d="M40.8272 71.4482V66.3447H35.7238C35.7238 69.1633 38.0086 71.4482 40.8272 71.4482Z" fill="black"/>
    <path d="M45.9307 66.3447H40.8272V71.4482H45.9307V66.3447Z" fill="black"/>
    <path d="M51.0342 66.3447H45.9307V71.4482H51.0342V66.3447Z" fill="black"/>
    <path d="M56.1377 66.3447H51.0342V71.4482H56.1377V66.3447Z" fill="black"/>
    <path d="M61.2412 66.3447H56.1378V71.4482H61.2412V66.3447Z" fill="black"/>
    <path d="M66.3445 71.4482H71.4479V66.3447C68.6294 66.3447 66.3445 68.6296 66.3445 71.4482Z" fill="black"/>
    <path d="M76.5514 66.3447H71.448V71.4482H76.5514V66.3447Z" fill="black"/>
    <path d="M81.655 66.3447H76.5515V71.4482H81.655V66.3447Z" fill="black"/>
    <path d="M86.7582 66.3447H81.6547V71.4482H86.7582V66.3447Z" fill="black"/>
    <path d="M96.9652 68.8965C96.9652 68.3017 96.9652 66.3447 96.9652 66.3447C96.9652 66.3447 98.7024 66.3447 99.5169 66.3447C100.153 66.3447 102.069 66.3447 102.069 66.3447C102.069 66.3447 102.069 68.1234 102.069 68.8965C102.069 70.3057 100.926 71.4482 99.5169 71.4482C98.1077 71.4482 96.9652 70.3057 96.9652 68.8965Z" fill="black"/>
    <path d="M5.10345 71.4481H0V76.5516H5.10345V71.4481Z" fill="black"/>
    <path d="M10.2065 73.9998C10.2065 73.4051 10.2065 71.4481 10.2065 71.4481C10.2065 71.4481 11.9437 71.4481 12.7582 71.4481C13.3943 71.4481 15.3099 71.4481 15.3099 71.4481C15.3099 71.4481 15.3099 73.2268 15.3099 73.9998C15.3099 75.409 14.1674 76.5516 12.7582 76.5516C11.3489 76.5516 10.2065 75.409 10.2065 73.9998Z" fill="black"/>
    <path d="M30.6204 71.4481H25.517V76.5516H30.6204V71.4481Z" fill="black"/>
    <path d="M33.1725 76.5516C32.5777 76.5516 30.6207 76.5516 30.6207 76.5516C30.6207 76.5516 30.6207 74.8143 30.6207 73.9998C30.6207 73.3637 30.6207 71.4481 30.6207 71.4481C30.6207 71.4481 32.3994 71.4481 33.1725 71.4481C34.5817 71.4481 35.7242 72.5906 35.7242 73.9998C35.7242 75.409 34.5817 76.5516 33.1725 76.5516Z" fill="black"/>
    <path d="M45.9307 76.5516V71.4481H40.8272C40.8272 74.2667 43.1121 76.5516 45.9307 76.5516Z" fill="black"/>
    <path d="M51.0342 71.4481H45.9307V76.5516H51.0342V71.4481Z" fill="black"/>
    <path d="M56.1377 71.4481H51.0342V76.5516H56.1377V71.4481Z" fill="black"/>
    <path d="M61.2412 71.4481H56.1378V76.5516H61.2412V71.4481Z" fill="black"/>
    <path d="M66.3447 71.4481H61.2413V76.5516H66.3447V71.4481Z" fill="black"/>
    <path d="M71.4479 71.4481H66.3445V76.5516H71.4479V71.4481Z" fill="black"/>
    <path d="M76.5514 71.4481H71.448V76.5516C74.2666 76.5516 76.5514 74.2667 76.5514 71.4481Z" fill="black"/>
    <path d="M81.6547 73.9998C81.6547 73.4051 81.6547 71.4481 81.6547 71.4481C81.6547 71.4481 83.3919 71.4481 84.2064 71.4481C84.8426 71.4481 86.7582 71.4481 86.7582 71.4481C86.7582 71.4481 86.7582 73.2268 86.7582 73.9998C86.7582 75.409 85.6157 76.5516 84.2064 76.5516C82.7972 76.5516 81.6547 75.409 81.6547 73.9998Z" fill="black"/>
    <path d="M104.62 71.4481C106.03 71.4481 107.172 72.5906 107.172 73.9998C107.172 75.4092 106.03 76.5516 104.62 76.5516C103.211 76.5516 102.069 75.4092 102.069 73.9998C102.069 72.5906 103.211 71.4481 104.62 71.4481Z" fill="black"/>
    <path d="M117.379 73.9998C117.379 74.5946 117.379 76.5516 117.379 76.5516C117.379 76.5516 115.642 76.5516 114.827 76.5514C114.191 76.5516 112.276 76.5514 112.276 76.5514C112.276 76.5514 112.276 74.773 112.276 73.9998C112.276 72.5906 113.418 71.4481 114.827 71.4481C116.237 71.4481 117.379 72.5906 117.379 73.9998Z" fill="black"/>
    <path d="M127.586 76.5516H132.689V71.4481C129.871 71.4481 127.586 73.733 127.586 76.5516Z" fill="black"/>
    <path d="M137.793 71.4481H132.689V76.5516H137.793V71.4481Z" fill="black"/>
    <path d="M142.896 71.4481H137.793V76.5516H142.896V71.4481Z" fill="black"/>
    <path d="M145.448 76.5516C144.853 76.5516 142.896 76.5516 142.896 76.5516C142.896 76.5516 142.896 74.8143 142.896 73.9998C142.896 73.3637 142.896 71.4481 142.896 71.4481C142.896 71.4481 144.675 71.4481 145.448 71.4481C146.857 71.4481 148 72.5906 148 73.9998C148 75.409 146.857 76.5516 145.448 76.5516Z" fill="black"/>
    <path d="M0 79.103C0 78.5082 0 76.5513 0 76.5513C0 76.5513 1.73722 76.5513 2.55172 76.5513C3.18786 76.5513 5.10345 76.5513 5.10345 76.5513C5.10345 76.5513 5.10345 78.3299 5.10345 79.103C5.10345 80.5122 3.96093 81.6547 2.55172 81.6547C1.14245 81.6547 0 80.5122 0 79.103Z" fill="black"/>
    <path d="M30.6204 76.5513H25.517V81.6547H30.6204V76.5513Z" fill="black"/>
    <path d="M56.1377 81.6547V76.5513H51.0342C51.0343 79.3698 53.3191 81.6547 56.1377 81.6547Z" fill="black"/>
    <path d="M61.2412 76.5513H56.1378V81.6547H61.2412V76.5513Z" fill="black"/>
    <path d="M66.3447 76.5513H61.2413V81.6547H66.3447V76.5513Z" fill="black"/>
    <path d="M91.8617 79.103C91.8617 79.6977 91.8617 81.6547 91.8617 81.6547C91.8617 81.6547 90.1245 81.6547 89.31 81.6546C88.6738 81.6547 86.7582 81.6546 86.7582 81.6546C86.7582 81.6546 86.7582 79.8761 86.7582 79.1029C86.7583 77.6937 87.9007 76.5513 89.3099 76.5513C90.7192 76.5513 91.8617 77.6937 91.8617 79.103Z" fill="black"/>
    <path d="M107.172 81.6547H112.276V76.5513C109.457 76.5513 107.172 78.8361 107.172 81.6547Z" fill="black"/>
    <path d="M117.379 76.5513H112.276V81.6547H117.379V76.5513Z" fill="black"/>
    <path d="M117.379 76.5513V81.6547H122.482C122.482 78.8361 120.197 76.5513 117.379 76.5513Z" fill="black"/>
    <path d="M127.586 79.103C127.586 78.5082 127.586 76.5513 127.586 76.5513C127.586 76.5513 129.323 76.5513 130.138 76.5513C130.774 76.5513 132.689 76.5513 132.689 76.5513C132.689 76.5513 132.689 78.3299 132.689 79.103C132.689 80.5122 131.547 81.6547 130.138 81.6547C128.728 81.6547 127.586 80.5122 127.586 79.103Z" fill="black"/>
    <path d="M142.896 76.5513H137.793V81.6547H142.896V76.5513Z" fill="black"/>
    <path d="M7.65472 81.6548C8.24948 81.6548 10.2064 81.6548 10.2064 81.6548C10.2064 81.6548 10.2064 83.3918 10.2064 84.2065C10.2064 84.8424 10.2064 86.7582 10.2064 86.7582C10.2064 86.7582 8.42821 86.7582 7.65472 86.7582C6.24495 86.7582 5.103 85.6153 5.103 84.2065C5.103 82.7976 6.24495 81.6548 7.65472 81.6548Z" fill="black"/>
    <path d="M15.3099 81.6548H10.2065V86.7582H15.3099V81.6548Z" fill="black"/>
    <path d="M17.862 86.7582C17.2672 86.7582 15.3102 86.7582 15.3102 86.7582C15.3102 86.7582 15.3102 85.0209 15.3102 84.2065C15.3102 83.5704 15.3102 81.6548 15.3102 81.6548C15.3102 81.6548 17.0889 81.6548 17.862 81.6548C19.2712 81.6548 20.4137 82.7972 20.4137 84.2065C20.4137 85.6157 19.2712 86.7582 17.862 86.7582Z" fill="black"/>
    <path d="M30.6204 81.6548H25.517V86.7582H30.6204V81.6548Z" fill="black"/>
    <path d="M33.1725 86.7582C32.5777 86.7582 30.6207 86.7582 30.6207 86.7582C30.6207 86.7582 30.6207 85.0209 30.6207 84.2065C30.6207 83.5704 30.6207 81.6548 30.6207 81.6548C30.6207 81.6548 32.3994 81.6548 33.1725 81.6548C34.5817 81.6548 35.7242 82.7972 35.7242 84.2065C35.7242 85.6157 34.5817 86.7582 33.1725 86.7582Z" fill="black"/>
    <path d="M61.2412 81.6548H56.1378V86.7582H61.2412V81.6548Z" fill="black"/>
    <path d="M66.3447 81.6548H61.2413V86.7582H66.3447V81.6548Z" fill="black"/>
    <path d="M66.3445 81.6548V86.7582H71.4479C71.4479 83.9396 69.163 81.6548 66.3445 81.6548Z" fill="black"/>
    <path d="M81.6547 86.7582H86.7582V81.6548C83.9396 81.6548 81.6547 83.9396 81.6547 86.7582Z" fill="black"/>
    <path d="M91.8617 81.6548H86.7582V86.7582C89.5768 86.7582 91.8617 84.4733 91.8617 81.6548Z" fill="black"/>
    <path d="M99.5169 81.6548C100.926 81.6548 102.069 82.7972 102.069 84.2065C102.069 85.6158 100.926 86.7582 99.5169 86.7582C98.1077 86.7582 96.9652 85.6158 96.9652 84.2065C96.9652 82.7972 98.1077 81.6548 99.5169 81.6548Z" fill="black"/>
    <path d="M107.172 84.2065C107.172 83.6117 107.172 81.6548 107.172 81.6548C107.172 81.6548 108.909 81.6548 109.724 81.6548C110.36 81.6548 112.276 81.6548 112.276 81.6548C112.276 81.6548 112.276 83.4334 112.276 84.2065C112.276 85.6157 111.133 86.7582 109.724 86.7582C108.315 86.7582 107.172 85.6157 107.172 84.2065Z" fill="black"/>
    <path d="M122.482 81.6548H117.379V86.7582H122.482V81.6548Z" fill="black"/>
    <path d="M137.793 84.2065C137.793 83.6117 137.793 81.6548 137.793 81.6548C137.793 81.6548 139.53 81.6548 140.345 81.6548C140.981 81.6548 142.896 81.6548 142.896 81.6548C142.896 81.6548 142.896 83.4334 142.896 84.2065C142.896 85.6157 141.754 86.7582 140.345 86.7582C138.935 86.7582 137.793 85.6157 137.793 84.2065Z" fill="black"/>
    <path d="M20.4135 91.8619H25.5169V86.7584C22.6984 86.7584 20.4135 89.0433 20.4135 91.8619Z" fill="black"/>
    <path d="M30.6204 86.7584H25.517V91.8619H30.6204V86.7584Z" fill="black"/>
    <path d="M40.8272 91.8619H45.9307V86.7584C43.1121 86.7584 40.8272 89.0433 40.8272 91.8619Z" fill="black"/>
    <path d="M45.9307 86.7584V91.8619H51.0342C51.0342 89.0433 48.7493 86.7584 45.9307 86.7584Z" fill="black"/>
    <path d="M61.2412 91.8619V86.7584H56.1378C56.1378 89.577 58.4226 91.8619 61.2412 91.8619Z" fill="black"/>
    <path d="M66.3447 86.7584H61.2413V91.8619H66.3447V86.7584Z" fill="black"/>
    <path d="M71.4479 86.7584H66.3445V91.8619H71.4479V86.7584Z" fill="black"/>
    <path d="M71.448 86.7584V91.8619H76.5514C76.5514 89.0433 74.2666 86.7584 71.448 86.7584Z" fill="black"/>
    <path d="M86.7582 86.7584H81.6547V91.8619H86.7582V86.7584Z" fill="black"/>
    <path d="M112.276 91.8619H117.379V86.7584C114.561 86.7584 112.276 89.0433 112.276 91.8619Z" fill="black"/>
    <path d="M122.482 86.7584H117.379V91.8619H122.482V86.7584Z" fill="black"/>
    <path d="M130.138 86.7584C131.547 86.7584 132.689 87.9009 132.689 89.3101C132.689 90.7195 131.547 91.8619 130.138 91.8619C128.728 91.8619 127.586 90.7195 127.586 89.3101C127.586 87.9009 128.728 86.7584 130.138 86.7584Z" fill="black"/>
    <path d="M148 89.3101C148 89.9049 148 91.8619 148 91.8619C148 91.8619 146.263 91.8619 145.448 91.8617C144.812 91.8619 142.896 91.8617 142.896 91.8617C142.896 91.8617 142.896 90.0833 142.896 89.3101C142.897 87.9009 144.039 86.7584 145.448 86.7584C146.857 86.7584 148 87.9009 148 89.3101Z" fill="black"/>
    <path d="M2.55172 91.8621C3.96106 91.8621 5.10345 93.0045 5.10345 94.4138C5.10345 95.8231 3.96106 96.9655 2.55172 96.9655C1.14246 96.9655 0 95.8231 0 94.4138C0 93.0045 1.14246 91.8621 2.55172 91.8621Z" fill="black"/>
    <path d="M15.3102 96.9655H20.4137V91.8621C17.5952 91.8621 15.3102 94.1469 15.3102 96.9655Z" fill="black"/>
    <path d="M25.5169 91.8621H20.4135V96.9655H25.5169V91.8621Z" fill="black"/>
    <path d="M30.6204 91.8621H25.517V96.9655H30.6204V91.8621Z" fill="black"/>
    <path d="M35.7242 91.8621H30.6207V96.9655H35.7242V91.8621Z" fill="black"/>
    <path d="M40.8272 91.8621H35.7238V96.9655H40.8272V91.8621Z" fill="black"/>
    <path d="M45.9307 91.8621H40.8272V96.9655H45.9307V91.8621Z" fill="black"/>
    <path d="M51.0342 91.8621H45.9307V96.9655C48.7493 96.9655 51.0342 94.6806 51.0342 91.8621Z" fill="black"/>
    <path d="M66.3447 91.8621H61.2413V96.9655H66.3447V91.8621Z" fill="black"/>
    <path d="M76.5514 91.8621H71.448V96.9655H76.5514V91.8621Z" fill="black"/>
    <path d="M86.7582 96.9655V91.8621H81.6547C81.6547 94.6806 83.9396 96.9655 86.7582 96.9655Z" fill="black"/>
    <path d="M86.7582 91.8621V96.9655H91.8617C91.8617 94.1469 89.5768 91.8621 86.7582 91.8621Z" fill="black"/>
    <path d="M107.172 96.9655H112.276V91.8621C109.457 91.8621 107.172 94.1469 107.172 96.9655Z" fill="black"/>
    <path d="M117.379 91.8621H112.276V96.9655H117.379V91.8621Z" fill="black"/>
    <path d="M122.482 91.8621H117.379V96.9655H122.482V91.8621Z" fill="black"/>
    <path d="M125.034 96.9655C124.439 96.9655 122.482 96.9655 122.482 96.9655C122.482 96.9655 122.482 95.2282 122.482 94.4138C122.482 93.7776 122.482 91.8621 122.482 91.8621C122.482 91.8621 124.261 91.8621 125.034 91.8621C126.443 91.8621 127.586 93.0045 127.586 94.4138C127.586 95.823 126.443 96.9655 125.034 96.9655Z" fill="black"/>
    <path d="M137.793 96.9655H142.896V91.8621C140.078 91.8621 137.793 94.1469 137.793 96.9655Z" fill="black"/>
    <path d="M148 91.8621H142.896V96.9655H148V91.8621Z" fill="black"/>
    <path d="M20.4137 96.9656H15.3102V102.069H20.4137V96.9656Z" fill="black"/>
    <path d="M40.8272 99.5173C40.8272 98.9225 40.8272 96.9656 40.8272 96.9656C40.8272 96.9656 42.5644 96.9656 43.3789 96.9656C44.0151 96.9656 45.9307 96.9656 45.9307 96.9656C45.9307 96.9656 45.9307 98.7442 45.9307 99.5173C45.9307 100.927 44.7881 102.069 43.3789 102.069C41.9697 102.069 40.8272 100.927 40.8272 99.5173Z" fill="black"/>
    <path d="M58.6895 96.9656C59.2842 96.9656 61.2412 96.9656 61.2412 96.9656C61.2412 96.9656 61.2412 98.7026 61.2412 99.5173C61.2412 100.153 61.2412 102.069 61.2412 102.069C61.2412 102.069 59.463 102.069 58.6895 102.069C57.2797 102.069 56.1378 100.926 56.1378 99.5173C56.1378 98.1084 57.2797 96.9656 58.6895 96.9656Z" fill="black"/>
    <path d="M66.3447 96.9656H61.2413V102.069C64.0598 102.069 66.3447 99.7841 66.3447 96.9656Z" fill="black"/>
    <path d="M71.448 99.5173C71.448 98.9225 71.448 96.9656 71.448 96.9656C71.448 96.9656 73.1852 96.9656 73.9997 96.9656C74.6359 96.9656 76.5514 96.9656 76.5514 96.9656C76.5514 96.9656 76.5514 98.7442 76.5514 99.5173C76.5514 100.927 75.4089 102.069 73.9997 102.069C72.5904 102.069 71.448 100.927 71.448 99.5173Z" fill="black"/>
    <path d="M91.8617 102.069V96.9656H86.7582C86.7582 99.7841 89.0431 102.069 91.8617 102.069Z" fill="black"/>
    <path d="M94.4137 102.069C93.819 102.069 91.862 102.069 91.862 102.069C91.862 102.069 91.862 100.332 91.862 99.5173C91.862 98.8812 91.862 96.9656 91.862 96.9656C91.862 96.9656 93.6407 96.9656 94.4137 96.9656C95.8229 96.9656 96.9654 98.108 96.9654 99.5173C96.9654 100.927 95.8229 102.069 94.4137 102.069Z" fill="black"/>
    <path d="M102.069 102.069H107.172V96.9656C104.354 96.9656 102.069 99.2504 102.069 102.069Z" fill="black"/>
    <path d="M112.276 96.9656H107.172V102.069H112.276V96.9656Z" fill="black"/>
    <path d="M142.896 102.069V96.9656H137.793C137.793 99.7841 140.078 102.069 142.896 102.069Z" fill="black"/>
    <path d="M148 96.9656H142.896V102.069C145.715 102.069 148 99.7841 148 96.9656Z" fill="black"/>
    <path d="M2.55172 102.069C3.96106 102.069 5.10345 103.211 5.10345 104.62C5.10345 106.03 3.96106 107.172 2.55172 107.172C1.14246 107.172 0 106.03 0 104.62C0 103.211 1.14246 102.069 2.55172 102.069Z" fill="black"/>
    <path d="M12.7582 102.069C13.353 102.069 15.3099 102.069 15.3099 102.069C15.3099 102.069 15.3099 103.806 15.3099 104.62C15.3099 105.256 15.3099 107.172 15.3099 107.172C15.3099 107.172 13.5317 107.172 12.7582 107.172C11.3484 107.172 10.2065 106.029 10.2065 104.62C10.2065 103.211 11.3484 102.069 12.7582 102.069Z" fill="black"/>
    <path d="M20.4137 102.069H15.3102V107.172C18.1288 107.172 20.4137 104.887 20.4137 102.069Z" fill="black"/>
    <path d="M33.1725 102.069C33.7672 102.069 35.7242 102.069 35.7242 102.069C35.7242 102.069 35.7242 103.806 35.7242 104.62C35.7242 105.256 35.7242 107.172 35.7242 107.172C35.7242 107.172 33.9459 107.172 33.1725 107.172C31.7627 107.172 30.6207 106.029 30.6207 104.62C30.6207 103.211 31.7627 102.069 33.1725 102.069Z" fill="black"/>
    <path d="M38.2755 107.172C37.6807 107.172 35.7238 107.172 35.7238 107.172C35.7238 107.172 35.7238 105.435 35.7238 104.62C35.7238 103.984 35.7238 102.069 35.7238 102.069C35.7238 102.069 37.5024 102.069 38.2755 102.069C39.6847 102.069 40.8272 103.211 40.8272 104.62C40.8272 106.03 39.6847 107.172 38.2755 107.172Z" fill="black"/>
    <path d="M51.0342 104.62C51.0342 105.215 51.0342 107.172 51.0342 107.172C51.0342 107.172 49.297 107.172 48.4824 107.172C47.8463 107.172 45.9307 107.172 45.9307 107.172C45.9307 107.172 45.9307 105.393 45.9307 104.62C45.9308 103.211 47.0732 102.069 48.4824 102.069C49.8917 102.069 51.0342 103.211 51.0342 104.62Z" fill="black"/>
    <path d="M86.7582 104.62C86.7582 105.215 86.7582 107.172 86.7582 107.172C86.7582 107.172 85.021 107.172 84.2064 107.172C83.5703 107.172 81.6547 107.172 81.6547 107.172C81.6547 107.172 81.6547 105.393 81.6547 104.62C81.6548 103.211 82.7972 102.069 84.2064 102.069C85.6157 102.069 86.7582 103.211 86.7582 104.62Z" fill="black"/>
    <path d="M107.172 102.069H102.069V107.172H107.172V102.069Z" fill="black"/>
    <path d="M112.276 102.069H107.172V107.172H112.276V102.069Z" fill="black"/>
    <path d="M117.379 102.069H112.276V107.172H117.379V102.069Z" fill="black"/>
    <path d="M122.482 102.069H117.379V107.172H122.482V102.069Z" fill="black"/>
    <path d="M122.482 102.069V107.172H127.586C127.586 104.353 125.301 102.069 122.482 102.069Z" fill="black"/>
    <path d="M137.793 104.62C137.793 105.215 137.793 107.172 137.793 107.172C137.793 107.172 136.056 107.172 135.241 107.172C134.605 107.172 132.689 107.172 132.689 107.172C132.689 107.172 132.689 105.393 132.689 104.62C132.689 103.211 133.832 102.069 135.241 102.069C136.65 102.069 137.793 103.211 137.793 104.62Z" fill="black"/>
    <path d="M43.3789 107.172C43.9737 107.172 45.9307 107.172 45.9307 107.172C45.9307 107.172 45.9307 108.909 45.9307 109.724C45.9307 110.36 45.9307 112.275 45.9307 112.275C45.9307 112.275 44.1524 112.275 43.3789 112.275C41.9692 112.275 40.8272 111.132 40.8272 109.724C40.8272 108.315 41.9692 107.172 43.3789 107.172Z" fill="black"/>
    <path d="M51.0342 107.172H45.9307V112.275H51.0342V107.172Z" fill="black"/>
    <path d="M53.586 112.275C52.9912 112.275 51.0342 112.275 51.0342 112.275C51.0342 112.275 51.0342 110.538 51.0342 109.724C51.0342 109.088 51.0342 107.172 51.0342 107.172C51.0342 107.172 52.8129 107.172 53.586 107.172C54.9952 107.172 56.1377 108.314 56.1377 109.724C56.1377 111.133 54.9952 112.275 53.586 112.275Z" fill="black"/>
    <path d="M63.793 107.172C65.2023 107.172 66.3447 108.314 66.3447 109.724C66.3447 111.133 65.2023 112.275 63.793 112.275C62.3837 112.275 61.2413 111.133 61.2413 109.724C61.2413 108.314 62.3837 107.172 63.793 107.172Z" fill="black"/>
    <path d="M73.9997 107.172C75.4091 107.172 76.5514 108.314 76.5514 109.724C76.5514 111.133 75.4091 112.275 73.9997 112.275C72.5905 112.275 71.448 111.133 71.448 109.724C71.448 108.314 72.5905 107.172 73.9997 107.172Z" fill="black"/>
    <path d="M81.6547 109.724C81.6547 109.129 81.6547 107.172 81.6547 107.172C81.6547 107.172 83.3919 107.172 84.2064 107.172C84.8426 107.172 86.7582 107.172 86.7582 107.172C86.7582 107.172 86.7582 108.951 86.7582 109.724C86.7582 111.133 85.6157 112.275 84.2064 112.275C82.7972 112.275 81.6547 111.133 81.6547 109.724Z" fill="black"/>
    <path d="M99.5169 107.172C100.112 107.172 102.069 107.172 102.069 107.172C102.069 107.172 102.069 108.909 102.069 109.724C102.069 110.36 102.069 112.275 102.069 112.275C102.069 112.275 100.29 112.275 99.5169 112.275C98.1072 112.275 96.9652 111.132 96.9652 109.724C96.9652 108.315 98.1072 107.172 99.5169 107.172Z" fill="black"/>
    <path d="M107.172 107.172H102.069V112.275H107.172V107.172Z" fill="black"/>
    <path d="M127.586 107.172H122.482V112.275H127.586V107.172Z" fill="black"/>
    <path d="M137.793 112.275V107.172H132.689C132.689 109.991 134.974 112.275 137.793 112.275Z" fill="black"/>
    <path d="M142.896 107.172H137.793V112.275H142.896V107.172Z" fill="black"/>
    <path d="M145.448 112.275C144.853 112.275 142.896 112.275 142.896 112.275C142.896 112.275 142.896 110.538 142.896 109.724C142.896 109.088 142.896 107.172 142.896 107.172C142.896 107.172 144.675 107.172 145.448 107.172C146.857 107.172 148 108.314 148 109.724C148 111.133 146.857 112.275 145.448 112.275Z" fill="black"/>
    <path d="M61.2412 114.827C61.2412 115.422 61.2412 117.379 61.2412 117.379C61.2412 117.379 59.5041 117.379 58.6895 117.379C58.0533 117.379 56.1378 117.379 56.1378 117.379C56.1378 117.379 56.1378 115.601 56.1378 114.827C56.1378 113.418 57.2802 112.276 58.6894 112.276C60.0987 112.276 61.2412 113.418 61.2412 114.827Z" fill="black"/>
    <path d="M89.31 112.276C90.7193 112.276 91.8617 113.418 91.8617 114.827C91.8617 116.237 90.7193 117.379 89.31 117.379C87.9007 117.379 86.7582 116.237 86.7582 114.827C86.7582 113.418 87.9007 112.276 89.31 112.276Z" fill="black"/>
    <path d="M107.172 112.276H102.069V117.379H107.172V112.276Z" fill="black"/>
    <path d="M114.827 112.276C116.237 112.276 117.379 113.418 117.379 114.827C117.379 116.237 116.237 117.379 114.827 117.379C113.418 117.379 112.276 116.237 112.276 114.827C112.276 113.418 113.418 112.276 114.827 112.276Z" fill="black"/>
    <path d="M127.586 112.276H122.482V117.379H127.586V112.276Z" fill="black"/>
    <path d="M137.793 114.827C137.793 114.233 137.793 112.276 137.793 112.276C137.793 112.276 139.53 112.276 140.345 112.276C140.981 112.276 142.896 112.276 142.896 112.276C142.896 112.276 142.896 114.054 142.896 114.827C142.896 116.237 141.754 117.379 140.345 117.379C138.935 117.379 137.793 116.237 137.793 114.827Z" fill="black"/>
    <path d="M43.3789 117.379C43.9737 117.379 45.9307 117.379 45.9307 117.379C45.9307 117.379 45.9307 119.116 45.9307 119.931C45.9307 120.567 45.9307 122.483 45.9307 122.483C45.9307 122.483 44.1524 122.483 43.3789 122.483C41.9692 122.483 40.8272 121.34 40.8272 119.931C40.8272 118.522 41.9692 117.379 43.3789 117.379Z" fill="black"/>
    <path d="M51.0342 117.379H45.9307V122.483H51.0342V117.379Z" fill="black"/>
    <path d="M56.1377 117.379H51.0342V122.483H56.1377V117.379Z" fill="black"/>
    <path d="M61.2412 117.379H56.1378V122.483H61.2412V117.379Z" fill="black"/>
    <path d="M73.9997 117.379C75.4091 117.379 76.5514 118.522 76.5514 119.931C76.5514 121.34 75.4091 122.483 73.9997 122.483C72.5905 122.483 71.448 121.34 71.448 119.931C71.448 118.522 72.5905 117.379 73.9997 117.379Z" fill="black"/>
    <path d="M86.7582 119.931C86.7582 120.526 86.7582 122.483 86.7582 122.483C86.7582 122.483 85.021 122.483 84.2064 122.483C83.5703 122.483 81.6547 122.483 81.6547 122.483C81.6547 122.483 81.6547 120.704 81.6547 119.931C81.6548 118.522 82.7972 117.379 84.2064 117.379C85.6157 117.379 86.7582 118.522 86.7582 119.931Z" fill="black"/>
    <path d="M94.4137 117.379C95.8231 117.379 96.9654 118.522 96.9654 119.931C96.9654 121.34 95.8231 122.483 94.4137 122.483C93.0045 122.483 91.862 121.34 91.862 119.931C91.862 118.522 93.0045 117.379 94.4137 117.379Z" fill="black"/>
    <path d="M107.172 117.379H102.069V122.483H107.172V117.379Z" fill="black"/>
    <path d="M127.586 117.379H122.482V122.483H127.586V117.379Z" fill="black"/>
    <path d="M132.689 117.379H127.586V122.483H132.689V117.379Z" fill="black"/>
    <path d="M135.241 122.483C134.646 122.483 132.689 122.483 132.689 122.483C132.689 122.483 132.689 120.746 132.689 119.931C132.689 119.295 132.689 117.379 132.689 117.379C132.689 117.379 134.468 117.379 135.241 117.379C136.65 117.379 137.793 118.522 137.793 119.931C137.793 121.34 136.65 122.483 135.241 122.483Z" fill="black"/>
    <path d="M56.1377 122.482H51.0342V127.586H56.1377V122.482Z" fill="black"/>
    <path d="M61.2412 122.482H56.1378V127.586H61.2412V122.482Z" fill="black"/>
    <path d="M79.1032 122.482C79.698 122.482 81.655 122.482 81.655 122.482C81.655 122.482 81.655 124.219 81.655 125.034C81.655 125.67 81.655 127.586 81.655 127.586C81.655 127.586 79.8767 127.586 79.1032 127.586C77.6935 127.586 76.5515 126.443 76.5515 125.034C76.5515 123.625 77.6935 122.482 79.1032 122.482Z" fill="black"/>
    <path d="M86.7582 122.482H81.6547V127.586H86.7582V122.482Z" fill="black"/>
    <path d="M86.7582 122.482V127.586H91.8617C91.8617 124.767 89.5768 122.482 86.7582 122.482Z" fill="black"/>
    <path d="M107.172 122.482H102.069V127.586H107.172V122.482Z" fill="black"/>
    <path d="M112.276 122.482H107.172V127.586H112.276V122.482Z" fill="black"/>
    <path d="M117.379 122.482H112.276V127.586H117.379V122.482Z" fill="black"/>
    <path d="M122.482 122.482H117.379V127.586H122.482V122.482Z" fill="black"/>
    <path d="M127.586 122.482H122.482V127.586H127.586V122.482Z" fill="black"/>
    <path d="M145.448 122.482C146.858 122.482 148 123.625 148 125.034C148 126.443 146.858 127.586 145.448 127.586C144.039 127.586 142.896 126.443 142.896 125.034C142.896 123.625 144.039 122.482 145.448 122.482Z" fill="black"/>
    <path d="M43.3789 127.586C44.7883 127.586 45.9307 128.728 45.9307 130.138C45.9307 131.547 44.7883 132.689 43.3789 132.689C41.9697 132.689 40.8272 131.547 40.8272 130.138C40.8272 128.728 41.9697 127.586 43.3789 127.586Z" fill="black"/>
    <path d="M56.1377 127.586H51.0342V132.689H56.1377V127.586Z" fill="black"/>
    <path d="M61.2412 127.586H56.1378V132.689H61.2412V127.586Z" fill="black"/>
    <path d="M86.7582 127.586H81.6547V132.689H86.7582V127.586Z" fill="black"/>
    <path d="M91.8617 127.586H86.7582V132.689H91.8617V127.586Z" fill="black"/>
    <path d="M96.9654 127.586H91.862V132.689H96.9654V127.586Z" fill="black"/>
    <path d="M102.069 127.586H96.9652V132.689H102.069V127.586Z" fill="black"/>
    <path d="M107.172 127.586H102.069V132.689C104.887 132.689 107.172 130.404 107.172 127.586Z" fill="black"/>
    <path d="M117.379 132.689V127.586H112.276C112.276 130.404 114.561 132.689 117.379 132.689Z" fill="black"/>
    <path d="M122.482 127.586H117.379V132.689H122.482V127.586Z" fill="black"/>
    <path d="M127.586 127.586H122.482V132.689H127.586V127.586Z" fill="black"/>
    <path d="M132.689 127.586H127.586V132.689H132.689V127.586Z" fill="black"/>
    <path d="M137.793 127.586H132.689V132.689H137.793V127.586Z" fill="black"/>
    <path d="M140.345 132.689C139.75 132.689 137.793 132.689 137.793 132.689C137.793 132.689 137.793 130.952 137.793 130.138C137.793 129.501 137.793 127.586 137.793 127.586C137.793 127.586 139.572 127.586 140.345 127.586C141.754 127.586 142.896 128.728 142.896 130.138C142.896 131.547 141.754 132.689 140.345 132.689Z" fill="black"/>
    <path d="M45.9307 137.793H51.0342V132.689C48.2157 132.689 45.9307 134.974 45.9307 137.793Z" fill="black"/>
    <path d="M56.1377 132.689H51.0342V137.793H56.1377V132.689Z" fill="black"/>
    <path d="M61.2412 132.689H56.1378V137.793H61.2412V132.689Z" fill="black"/>
    <path d="M66.3447 132.689H61.2413V137.793H66.3447V132.689Z" fill="black"/>
    <path d="M68.8962 137.793C68.3014 137.793 66.3445 137.793 66.3445 137.793C66.3445 137.793 66.3445 136.055 66.3445 135.241C66.3445 134.605 66.3445 132.689 66.3445 132.689C66.3445 132.689 68.1231 132.689 68.8962 132.689C70.3054 132.689 71.4479 133.832 71.4479 135.241C71.4479 136.65 70.3054 137.793 68.8962 137.793Z" fill="black"/>
    <path d="M86.7582 132.689H81.6547V137.793H86.7582V132.689Z" fill="black"/>
    <path d="M91.8617 132.689H86.7582V137.793H91.8617V132.689Z" fill="black"/>
    <path d="M127.586 137.793V132.689H122.482C122.482 135.508 124.767 137.793 127.586 137.793Z" fill="black"/>
    <path d="M132.689 132.689H127.586V137.793H132.689V132.689Z" fill="black"/>
    <path d="M137.793 132.689H132.689V137.793C135.508 137.793 137.793 135.508 137.793 132.689Z" fill="black"/>
    <path d="M145.448 132.689C146.858 132.689 148 133.832 148 135.241C148 136.65 146.858 137.793 145.448 137.793C144.039 137.793 142.896 136.65 142.896 135.241C142.896 133.832 144.039 132.689 145.448 132.689Z" fill="black"/>
    <path d="M51.0342 137.793H45.9307V142.896H51.0342V137.793Z" fill="black"/>
    <path d="M56.1377 137.793H51.0342V142.896H56.1377V137.793Z" fill="black"/>
    <path d="M61.2412 137.793H56.1378V142.896C58.9563 142.896 61.2412 140.611 61.2412 137.793Z" fill="black"/>
    <path d="M73.9997 137.793C75.4091 137.793 76.5514 138.935 76.5514 140.345C76.5514 141.754 75.4091 142.896 73.9997 142.896C72.5905 142.896 71.448 141.754 71.448 140.345C71.448 138.935 72.5905 137.793 73.9997 137.793Z" fill="black"/>
    <path d="M86.7582 137.793H81.6547V142.896H86.7582V137.793Z" fill="black"/>
    <path d="M91.8617 137.793H86.7582V142.896H91.8617V137.793Z" fill="black"/>
    <path d="M96.9654 137.793H91.862V142.896H96.9654V137.793Z" fill="black"/>
    <path d="M102.069 137.793H96.9652V142.896H102.069V137.793Z" fill="black"/>
    <path d="M107.172 137.793H102.069V142.896H107.172V137.793Z" fill="black"/>
    <path d="M112.276 137.793H107.172V142.896H112.276V137.793Z" fill="black"/>
    <path d="M114.827 142.896C114.233 142.896 112.276 142.896 112.276 142.896C112.276 142.896 112.276 141.159 112.276 140.345C112.276 139.708 112.276 137.793 112.276 137.793C112.276 137.793 114.054 137.793 114.827 137.793C116.237 137.793 117.379 138.935 117.379 140.345C117.379 141.754 116.237 142.896 114.827 142.896Z" fill="black"/>
    <path d="M142.896 140.345C142.896 140.939 142.896 142.896 142.896 142.896C142.896 142.896 141.159 142.896 140.345 142.896C139.709 142.896 137.793 142.896 137.793 142.896C137.793 142.896 137.793 141.118 137.793 140.345C137.793 138.935 138.935 137.793 140.345 137.793C141.754 137.793 142.896 138.935 142.896 140.345Z" fill="black"/>
    <path d="M43.3789 142.897C43.9737 142.897 45.9307 142.897 45.9307 142.897C45.9307 142.897 45.9307 144.634 45.9307 145.448C45.9307 146.084 45.9307 148 45.9307 148C45.9307 148 44.1524 148 43.3789 148C41.9692 148 40.8272 146.857 40.8272 145.448C40.8272 144.039 41.9692 142.897 43.3789 142.897Z" fill="black"/>
    <path d="M51.0342 142.897H45.9307V148C48.7493 148 51.0342 145.715 51.0342 142.897Z" fill="black"/>
    <path d="M63.793 142.897C65.2023 142.897 66.3447 144.039 66.3447 145.448C66.3447 146.858 65.2023 148 63.793 148C62.3837 148 61.2413 146.858 61.2413 145.448C61.2413 144.039 62.3837 142.897 63.793 142.897Z" fill="black"/>
    <path d="M86.7582 148V142.897H81.6547C81.6547 145.715 83.9396 148 86.7582 148Z" fill="black"/>
    <path d="M91.8617 142.897H86.7582V148C89.5768 148 91.8617 145.715 91.8617 142.897Z" fill="black"/>
    <path d="M107.172 148V142.897H102.069C102.069 145.715 104.354 148 107.172 148Z" fill="black"/>
    <path d="M112.276 142.897H107.172V148C109.991 148 112.276 145.715 112.276 142.897Z" fill="black"/>
    <path d="M119.93 142.897C121.34 142.897 122.482 144.039 122.482 145.448C122.482 146.858 121.34 148 119.93 148C118.521 148 117.379 146.858 117.379 145.448C117.379 144.039 118.521 142.897 119.93 142.897Z" fill="black"/>
    <path d="M130.138 142.897C131.547 142.897 132.689 144.039 132.689 145.448C132.689 146.858 131.547 148 130.138 148C128.728 148 127.586 146.858 127.586 145.448C127.586 144.039 128.728 142.897 130.138 142.897Z" fill="black"/>
    <path d="M137.793 145.448C137.793 144.854 137.793 142.897 137.793 142.897C137.793 142.897 139.53 142.897 140.345 142.897C140.981 142.897 142.896 142.897 142.896 142.897C142.896 142.897 142.896 144.675 142.896 145.448C142.896 146.858 141.754 148 140.345 148C138.935 148 137.793 146.858 137.793 145.448Z" fill="black"/>
    <path d="M17.8618 0.349854C8.19072 0.349854 0.349976 8.1906 0.349976 17.8617C0.349976 27.5328 8.19072 35.3735 17.8618 35.3735C27.5329 35.3735 35.3736 27.5328 35.3736 17.8617C35.3736 8.1906 27.5329 0.349854 17.8618 0.349854ZM17.8618 30.12C11.1026 30.12 5.60352 24.6209 5.60352 17.8617C5.60352 11.1025 11.1026 5.6034 17.8618 5.6034C24.621 5.6034 30.1201 11.1025 30.1201 17.8617C30.1201 24.6209 24.621 30.12 17.8618 30.12Z" fill="black"/>
    <path d="M130.138 0.349854C120.466 0.349854 112.626 8.1906 112.626 17.8617C112.626 27.5328 120.466 35.3735 130.138 35.3735C139.809 35.3735 147.649 27.5328 147.649 17.8617C147.649 8.1906 139.809 0.349854 130.138 0.349854ZM130.138 30.12C123.378 30.12 117.879 24.6209 117.879 17.8617C117.879 11.1025 123.378 5.6034 130.138 5.6034C136.897 5.6034 142.396 11.1025 142.396 17.8617C142.396 24.6209 136.897 30.12 130.138 30.12Z" fill="black"/>
    <path d="M17.8618 112.626C8.19072 112.626 0.349976 120.467 0.349976 130.138C0.349976 139.809 8.19072 147.65 17.8618 147.65C27.5329 147.65 35.3736 139.809 35.3736 130.138C35.3736 120.467 27.5329 112.626 17.8618 112.626ZM17.8618 142.396C11.1026 142.396 5.60352 136.897 5.60352 130.138C5.60352 123.379 11.1026 117.88 17.8618 117.88C24.621 117.88 30.1201 123.379 30.1201 130.138C30.1201 136.897 24.621 142.396 17.8618 142.396Z" fill="black"/>
    <path d="M17.7116 25.2164C21.8565 25.2164 25.2166 21.8563 25.2166 17.7114C25.2166 13.5664 21.8565 10.2063 17.7116 10.2063C13.5666 10.2063 10.2065 13.5664 10.2065 17.7114C10.2065 21.8563 13.5666 25.2164 17.7116 25.2164Z" fill="black"/>
    <path d="M129.988 25.2164C134.132 25.2164 137.493 21.8563 137.493 17.7114C137.493 13.5664 134.132 10.2063 129.988 10.2063C125.843 10.2063 122.482 13.5664 122.482 17.7114C122.482 21.8563 125.843 25.2164 129.988 25.2164Z" fill="black"/>
    <path d="M17.7116 137.493C21.8565 137.493 25.2166 134.132 25.2166 129.987C25.2166 125.843 21.8565 122.482 17.7116 122.482C13.5666 122.482 10.2065 125.843 10.2065 129.987C10.2065 134.132 13.5666 137.493 17.7116 137.493Z" fill="black"/>
</svg>
