<svg xmlns="http://www.w3.org/2000/svg" width="96" height="96" fill="none"><path fill="#FFF7DB" fill-rule="evenodd" d="M90 74.4c-.66 0-1.2-.54-1.2-1.2S89.34 72 90 72s1.2.54 1.2 1.2-.54 1.2-1.2 1.2M66 4.8c-.66 0-1.2-.54-1.2-1.2s.54-1.2 1.2-1.2 1.2.54 1.2 1.2-.54 1.2-1.2 1.2m-62.4 60c-.66 0-1.2-.54-1.2-1.2s.54-1.2 1.2-1.2 1.2.54 1.2 1.2-.54 1.2-1.2 1.2" clip-rule="evenodd"/><path fill="#FED980" d="M61.2 25.2H30c-.66 0-1.2-.54-1.2-1.2s.54-1.2 1.2-1.2h31.2c.66 0 1.2.54 1.2 1.2s-.54 1.2-1.2 1.2M54 30H30c-.66 0-1.2-.54-1.2-1.2s.54-1.2 1.2-1.2h24c.66 0 1.2.54 1.2 1.2S54.66 30 54 30m7.2 9.6H30c-.66 0-1.2-.54-1.2-1.2s.54-1.2 1.2-1.2h31.2c.66 0 1.2.54 1.2 1.2s-.54 1.2-1.2 1.2M54 44.4H30c-.66 0-1.2-.54-1.2-1.2S29.34 42 30 42h24c.66 0 1.2.54 1.2 1.2s-.54 1.2-1.2 1.2m19.2 42H46.8c-.42 0-.816-.228-1.032-.588a1.2 1.2 0 0 1-.024-1.188l13.2-24c.42-.768 1.68-.768 2.1 0l13.2 24a1.17 1.17 0 0 1-.024 1.188c-.216.36-.612.588-1.032.588zM48.828 84h22.344L60 63.696z"/><path fill="#FED980" d="M60 76.8c-.66 0-1.2-.54-1.2-1.2v-4.8c0-.66.54-1.2 1.2-1.2s1.2.54 1.2 1.2v4.8c0 .66-.54 1.2-1.2 1.2m0 4.8c-.156 0-.312-.024-.456-.084a1.4 1.4 0 0 1-.396-.264 1.1 1.1 0 0 1-.252-.396c-.06-.144-.096-.3-.096-.456s.036-.312.096-.456q.09-.216.252-.396.18-.162.396-.252a1.2 1.2 0 0 1 .912 0q.216.09.396.252c.108.12.204.252.264.396s.084.3.084.456c0 .324-.12.624-.348.852-.12.108-.252.204-.396.264s-.3.084-.456.084"/><path fill="#0D0C21" d="M22.8 14.4h45.6c.66 0 1.2.54 1.2 1.2v48c.024 1.631-2.376 1.643-2.412 0V16.8H24v62.4h18c1.632 0 1.62 2.387 0 2.387H22.8c-.66 0-1.2-.528-1.2-1.188V15.6c0-.66.54-1.2 1.2-1.2m51.6 58.811V25.055A1.21 1.21 0 0 0 73.2 24h-.144c-.6.072-1.056.588-1.056 1.2v48c.024 1.608 2.412 1.596 2.4 0z"/><path fill="#0D0C21" d="M61.2 54H30c-.66 0-1.2-.54-1.2-1.2s.54-1.2 1.2-1.2h31.2c.66 0 1.2.54 1.2 1.2s-.54 1.2-1.2 1.2M54 58.8H30c-.66 0-1.2-.54-1.2-1.2s.54-1.2 1.2-1.2h24c.66 0 1.2.54 1.2 1.2s-.54 1.2-1.2 1.2m-6 9.6H30c-.66 0-1.2-.54-1.2-1.2S29.34 66 30 66h18c.66 0 1.2.54 1.2 1.2s-.54 1.2-1.2 1.2m-2.4 4.8H30c-.66 0-1.2-.54-1.2-1.2s.54-1.2 1.2-1.2h15.6c.66 0 1.2.54 1.2 1.2s-.54 1.2-1.2 1.2m-6 10.8h-7.344a1.204 1.204 0 0 0 .144 2.4l7.2-.049c1.632.036 1.644-2.364 0-2.352"/></svg>
