<svg xmlns="http://www.w3.org/2000/svg" width="96" height="96" fill="none"><path fill="#FFF7DB" fill-rule="evenodd" d="M18 16.8a1.201 1.201 0 1 1 1.2-1.2c0 .662-.538 1.2-1.2 1.2M6 84a1.201 1.201 0 1 1 1.2-1.2c0 .662-.538 1.2-1.2 1.2m84-7.2a1.201 1.201 0 1 1 1.2-1.2c0 .662-.538 1.2-1.2 1.2M70.8 14.4a1.201 1.201 0 1 1 1.2-1.2c0 .662-.538 1.2-1.2 1.2" clip-rule="evenodd"/><path fill="#FED980" d="M50.578 12c19.882 0 36 16.117 36 36a1.2 1.2 0 1 1-2.4 0c0-18.557-15.043-33.6-33.6-33.6s-33.6 15.043-33.6 33.6c0 18.556 15.043 33.6 33.6 33.6 13.385 0 25.328-7.9 30.694-19.91a1.2 1.2 0 0 1 2.191.978C77.715 75.536 64.92 84 50.578 84c-19.883 0-36-16.118-36-36s16.118-36 36-36"/><path fill="#FED980" d="M85.378 58.31a1.289 1.289 0 1 1-2.578 0 1.289 1.289 0 0 1 2.578 0M17.392 25.238a1.2 1.2 0 0 0-1.682.228 30.7 30.7 0 0 0-6.288 18.667 1.2 1.2 0 1 0 2.4 0A28.3 28.3 0 0 1 17.62 26.92a1.2 1.2 0 0 0-.228-1.682"/><path fill="#0D0C21" fill-rule="evenodd" d="M67.196 41.9c-.852-10.221-6.571-15.5-16.796-15.5s-15.944 5.279-16.796 15.5a1.2 1.2 0 0 0 1.379 1.285l2.217-.34v.524c-.859.165-1.492.394-1.936.725-1.125.84-1.664 2.181-1.664 3.905 0 3.063 1.737 4.8 4.8 4.8q.196 0 .374-.06c1.277 2.476 3.256 4.499 5.66 5.775a1.2 1.2 0 0 0-.034.285 4.8 4.8 0 0 1-1.948 3.861 4.78 4.78 0 0 1-2.852.94h-2.4l-.27.004A7.2 7.2 0 0 0 30 70.8a1.2 1.2 0 1 0 2.4 0 4.8 4.8 0 0 1 4.8-4.8h2.4l.27-.005a7.2 7.2 0 0 0 2.813-.686c1.286 2.025 3.66 2.643 6.808 1.856a1.2 1.2 0 0 0-.582-2.329c-2.244.561-3.554.258-4.253-.91a7.18 7.18 0 0 0 2.113-4.454c1.153.344 2.371.528 3.631.528s2.478-.184 3.63-.528a7.2 7.2 0 0 0 6.9 6.523l.27.005h2.4a4.8 4.8 0 0 1 4.8 4.8 1.2 1.2 0 1 0 2.4 0 7.2 7.2 0 0 0-6.93-7.195l-.27-.005h-2.4a4.8 4.8 0 0 1-4.8-4.8q0-.148-.034-.285c2.404-1.276 4.383-3.299 5.66-5.774q.177.058.374.06c3.063 0 4.8-1.738 4.8-4.8 0-1.725-.539-3.067-1.664-3.906-.607-.452-1.567-.714-2.975-.884a1 1 0 0 0-.157-.01h-.002a1.2 1.2 0 0 0-.796.3 1.2 1.2 0 0 0-.406.918V46.2l-.005.331C61.03 52.685 56.248 57.6 50.4 57.6c-5.951 0-10.8-5.092-10.8-11.4v-3.725l10.983-1.69.141-.03a1.2 1.2 0 0 0 .75-.619l1.2-2.4.055-.129a1.2 1.2 0 0 0-.592-1.48l-.13-.056a1.2 1.2 0 0 0-1.48.592l-.924 1.844-13.435 2.067.022-.155c1.176-7.838 5.814-11.62 14.21-11.62l.43.004c7.982.126 12.465 3.781 13.716 11.214l.062.397-7.917-1.979-.138-.026a1.2 1.2 0 0 0-.444 2.355l9.6 2.4.14.026a1.2 1.2 0 0 0 1.347-1.29M37.2 45.828c-.255.066-.424.133-.501.19-.45.336-.7.956-.7 1.981 0 1.527.512 2.223 1.815 2.37a14.3 14.3 0 0 1-.61-3.814l-.004-.356zm27.6 2.171c0 1.527-.511 2.223-1.814 2.37.4-1.316.614-2.717.614-4.17v-.371c.255.066.424.133.501.19.45.336.699.956.699 1.981" clip-rule="evenodd"/></svg>
