<svg xmlns="http://www.w3.org/2000/svg" width="96" height="96" fill="none"><path fill="#FFF7DB" fill-rule="evenodd" d="M70.8 91.2A1.201 1.201 0 1 1 72 90c0 .662-.538 1.2-1.2 1.2m9.6-81.6a1.201 1.201 0 1 1 1.2-1.2c0 .662-.538 1.2-1.2 1.2M9.6 16.8a1.201 1.201 0 1 1 1.2-1.2c0 .662-.538 1.2-1.2 1.2" clip-rule="evenodd"/><path fill="#FED980" d="M41.466 75.801a1.2 1.2 0 0 0-.666-.201h-24l-.14.008A1.2 1.2 0 0 0 15.6 76.8l.008.14A1.2 1.2 0 0 0 16.8 78h23.646l.12.078C43.015 79.618 45.498 80.4 48 80.4l.441-.009c2.353-.086 4.688-.863 6.993-2.313l.119-.078H79.2l.14-.008a1.2 1.2 0 0 0-.14-2.392h-24l-.141.008a1.2 1.2 0 0 0-.525.193C52.323 77.275 50.151 78 48 78s-4.323-.725-6.534-2.199M55.2 32.4a1.2 1.2 0 1 0-2.4 0 1.2 1.2 0 0 0 2.4 0m0 7.2a1.2 1.2 0 1 0-2.4 0 1.2 1.2 0 0 0 2.4 0m0 7.2a1.2 1.2 0 1 0-2.4 0 1.2 1.2 0 0 0 2.4 0m0 7.2a1.2 1.2 0 1 0-2.4 0 1.2 1.2 0 0 0 2.4 0m0 7.2a1.2 1.2 0 1 0-2.4 0 1.2 1.2 0 0 0 2.4 0M24 28.8a1.2 1.2 0 1 0-2.4 0 1.2 1.2 0 0 0 2.4 0m0 7.2a1.2 1.2 0 1 0-2.4 0 1.2 1.2 0 0 0 2.4 0m0 7.2a1.2 1.2 0 1 0-2.4 0 1.2 1.2 0 0 0 2.4 0m0 7.2a1.2 1.2 0 1 0-2.4 0 1.2 1.2 0 0 0 2.4 0m0 7.2a1.2 1.2 0 1 0-2.4 0 1.2 1.2 0 0 0 2.4 0"/><path fill="#0D0C21" fill-rule="evenodd" d="M44.049 72.848c1.377-1.377 2.677-2.034 3.911-2.048h.079c1.235.014 2.535.67 3.913 2.048a1.2 1.2 0 0 0 .848.352h12l.14-.008A1.2 1.2 0 0 0 66 72l-.008-.14A1.2 1.2 0 0 0 64.8 70.8H53.282l-.207-.191q-.45-.4-.906-.73l.072-.012.784-.127.822-.121.861-.116.9-.11.939-.104.977-.098 1.016-.093 1.054-.087 1.093-.08 1.131-.076 1.77-.103 1.855-.09 1.286-.052 1.323-.046 1.362-.041 2.115-.05 2.2-.038 2.288-.024 2.373-.01.81-.001a1.2 1.2 0 0 0 1.2-1.2V22.62l2.401 3L82.8 48a1.2 1.2 0 0 0 1.06 1.191l.14.009a1.2 1.2 0 0 0 1.192-1.06L85.2 48V25.2a1.2 1.2 0 0 0-.17-.617l-.093-.133-4.779-5.974a1.2 1.2 0 0 0-.885-.475c-12.9-.79-23.325.744-31.273 4.637-7.948-3.893-18.373-5.428-31.273-4.637a1.2 1.2 0 0 0-.886.476l-4.778 5.973-.093.133a1.2 1.2 0 0 0-.17.617v6l.008.14A1.2 1.2 0 0 0 12 32.4l.14-.008A1.2 1.2 0 0 0 13.2 31.2l-.001-5.58 2.401-3V67.2a1.2 1.2 0 0 0 1.2 1.2h.81l2.373.011 2.287.024 2.201.038 2.115.05 1.362.04 1.323.047 1.286.053 1.855.09 1.77.102 1.131.075 1.093.081 1.054.087 1.016.093.977.098.939.104.9.11.86.116.823.12.784.128.072.012q-.456.33-.906.73l-.209.19H13.2v-3.6l-.008-.14a1.2 1.2 0 0 0-2.392.14V72l.008.14A1.2 1.2 0 0 0 12 73.2h31.2l.158-.01a1.2 1.2 0 0 0 .69-.34m2.751-4.816V24.723l-.373-.177c-7.122-3.343-16.409-4.765-27.862-4.24l-.565.028V66l1.255.005 2.399.021 2.308.035 1.489.031 1.448.037 2.098.068 1.348.053 1.308.06 1.269.065 1.228.072 1.188.078 1.149.084 1.108.091 1.069.098 1.029.103.989.11.949.116.91.123q.221.03.44.064l.85.132.81.139.77.145.73.151zm3.058-.15-.658.15V24.723l.373-.177c7.122-3.343 16.409-4.765 27.862-4.24l.565.028V66l-1.255.005-2.399.021-2.308.035-1.489.031-1.448.037-2.098.068-1.348.053-1.308.06-1.269.065-1.228.072-1.188.078-1.149.084-1.108.091-1.069.098-1.029.103-.989.11-.949.116-.91.123q-.221.03-.44.064l-.85.132-.81.139-.77.145z" clip-rule="evenodd"/><path fill="#0D0C21" d="M85.192 55.06A1.2 1.2 0 0 0 84 54l-.14.008A1.2 1.2 0 0 0 82.8 55.2v15.6h-8.4l-.14.008a1.2 1.2 0 0 0 .14 2.392H84l.14-.008A1.2 1.2 0 0 0 85.2 72V55.2zM12 37.2a1.2 1.2 0 0 1 1.192 1.06l.008.14V60a1.2 1.2 0 0 1-2.392.14L10.8 60V38.4a1.2 1.2 0 0 1 1.2-1.2m62.4-8.4a1.2 1.2 0 0 0-1.2-1.2q-1.888 0-4.455.35l-.956.14q-.735.113-1.519.252l-1.069.197-1.114.22-1.16.243-1.205.267-.62.141-1.274.301-1.32.324a1.2 1.2 0 0 0 .583 2.329q.327-.082.647-.16l1.26-.305 1.216-.281.59-.132 1.146-.248 1.1-.224 1.055-.203 1.008-.18.487-.081.939-.146q.458-.067.893-.124l.846-.1Q71.925 30 73.2 30a1.2 1.2 0 0 0 1.2-1.2m-1.2 6a1.2 1.2 0 0 1 0 2.4q-1.275 0-2.922.18l-.846.1q-.435.057-.893.124l-.94.146-.486.081-1.008.18-1.055.203-1.1.224-1.146.248-.59.132-1.215.281-1.26.304-.648.16a1.2 1.2 0 0 1-.582-2.328l1.32-.324 1.273-.3q.312-.073.62-.142l1.205-.267 1.16-.243 1.114-.22 1.07-.197q.784-.14 1.518-.252l.956-.14q2.567-.35 4.455-.35m1.2 8.4a1.2 1.2 0 0 0-1.2-1.2q-1.888 0-4.455.35l-.956.14q-.735.113-1.519.252l-1.069.197-1.114.22-1.16.243-1.205.267-.62.141-1.274.301-1.32.324a1.2 1.2 0 0 0 .583 2.329q.327-.082.647-.16l1.26-.305 1.216-.281.59-.132 1.146-.248 1.1-.224 1.055-.203 1.008-.18.487-.081.939-.146q.458-.067.893-.124l.846-.1q1.647-.18 2.922-.18a1.2 1.2 0 0 0 1.2-1.2m-1.2 6a1.2 1.2 0 0 1 0 2.4q-1.275 0-2.922.18l-.846.1q-.435.057-.893.124l-.94.146-.486.081-1.008.18-1.055.203-1.1.224-1.146.248-.59.132-1.215.281-1.26.304-.648.16a1.2 1.2 0 0 1-.582-2.328l1.32-.324 1.273-.3q.312-.073.62-.142l1.205-.267 1.16-.243 1.114-.22 1.07-.197q.784-.14 1.518-.252l.956-.14q2.567-.35 4.455-.35m1.2 8.4a1.2 1.2 0 0 0-1.2-1.2q-1.888 0-4.455.35l-.956.14q-.735.113-1.519.252l-1.069.197-1.114.22-1.16.243-1.205.267-.62.141-1.274.301-1.32.324a1.2 1.2 0 0 0 .583 2.329q.327-.082.647-.16l1.26-.305 1.216-.281.59-.132 1.146-.248 1.1-.224 1.055-.203 1.008-.18.487-.081.939-.146q.458-.067.893-.124l.846-.1q1.647-.18 2.922-.18a1.2 1.2 0 0 0 1.2-1.2m-48-28.8a1.2 1.2 0 0 1 1.2-1.2q1.888 0 4.455.35l.956.14q.733.113 1.518.252l1.07.197 1.114.22 1.16.243 1.205.267.62.141 1.273.301 1.32.324a1.2 1.2 0 1 1-.582 2.329q-.327-.082-.648-.16l-1.26-.305-1.215-.281-.59-.132-1.146-.248-1.1-.224-1.055-.203-1.008-.18-.487-.081-.939-.146a51 51 0 0 0-.893-.124l-.846-.1A27 27 0 0 0 27.6 30a1.2 1.2 0 0 1-1.2-1.2m1.2 6a1.2 1.2 0 0 0 0 2.4q1.275 0 2.921.18l.847.1q.435.057.893.124l.939.146.487.081 1.008.18 1.054.203 1.1.224 1.147.248.59.132 1.215.281 1.26.304.648.16a1.2 1.2 0 1 0 .582-2.328l-1.32-.324-1.273-.3-.62-.142-1.205-.267-1.16-.243-1.114-.22-1.07-.197a68 68 0 0 0-1.518-.252l-.956-.14q-2.567-.35-4.455-.35m-1.2 8.4a1.2 1.2 0 0 1 1.2-1.2q1.888 0 4.455.35l.956.14q.733.113 1.518.252l1.07.197 1.114.22 1.16.243 1.205.267.62.141 1.273.301 1.32.324a1.2 1.2 0 1 1-.582 2.329q-.327-.082-.648-.16l-1.26-.305-1.215-.281-.59-.132-1.146-.248-1.1-.224-1.055-.203-1.008-.18-.487-.081-.939-.146a51 51 0 0 0-.893-.124l-.846-.1a27 27 0 0 0-2.922-.18 1.2 1.2 0 0 1-1.2-1.2m1.2 6a1.2 1.2 0 0 0 0 2.4q1.275 0 2.921.18l.847.1q.435.057.893.124l.939.146.487.081 1.008.18 1.054.203 1.1.224 1.147.248.59.132 1.215.281 1.26.304.648.16a1.2 1.2 0 1 0 .582-2.328l-1.32-.324-1.273-.3-.62-.142-1.205-.267-1.16-.243-1.114-.22-1.07-.197a69 69 0 0 0-1.518-.252l-.956-.14q-2.567-.35-4.455-.35m-1.2 8.4a1.2 1.2 0 0 1 1.2-1.2q1.888 0 4.455.35l.956.14q.733.113 1.518.252l1.07.197 1.114.22 1.16.243 1.205.267.62.141 1.273.301 1.32.324a1.2 1.2 0 1 1-.582 2.329q-.327-.082-.648-.16l-1.26-.305-1.215-.281-.59-.132-1.146-.248-1.1-.224-1.055-.203-1.008-.18-.487-.081-.939-.146a51 51 0 0 0-.893-.124l-.846-.1a27 27 0 0 0-2.922-.18 1.2 1.2 0 0 1-1.2-1.2"/></svg>
