<svg xmlns="http://www.w3.org/2000/svg" width="80" height="80" fill="none"><path fill="#FFF7DB" fill-rule="evenodd" d="M56 77a1.001 1.001 0 0 1 0-2 1.001 1.001 0 0 1 0 2M8 65a1.001 1.001 0 0 1 0-2 1.001 1.001 0 0 1 0 2m68-7a1.001 1.001 0 0 1 0-2 1.001 1.001 0 0 1 0 2M65 10a1.001 1.001 0 0 1 0-2 1.001 1.001 0 0 1 0 2M24 4a1.001 1.001 0 0 1 0-2 1.001 1.001 0 0 1 0 2" clip-rule="evenodd"/><path fill="#FED980" d="M37.096 15.68c.417 1.14.034 2.476-.72 3.11-.321.269-.604.428-1.087.574l-.315.088-.178.043-.408.092-1.924.393-.241.052.135.07.245.133.468.264a1 1 0 1 1-1 1.732l-.213-.122-.446-.245-1.534-.802-.686-.365-.341-.186-.704-.392-.767-.437a1 1 0 1 1 1-1.732l.747.426.347.195.135.074a1 1 0 0 1 .345-.155l.547-.127 1.044-.232.77-.163 1.58-.321.447-.1.222-.056.173-.051.07-.025.117-.05.09-.052.076-.056c.12-.1.25-.555.128-.889-.206-.562-1.018-1.044-2.73-1.237l-3.383-.348-1.865-.184-2.079-.197-2.125-.188-.959-.076-.155.003-.117.011-.197.034-.15.035-.167.044-.285.088-.456.16-.555.213-.67.27-1.247.527-2.272.987-.108.037-.073.018-.077.011-.04.003h-.086l-.096-.01-.105-.017-.12-.03-.208-.063-.161-.058-.282-.11-.217-.092-.515-.23-.816-.38-2.336-1.119a1 1 0 1 1 .869-1.802l1.753.837.711.332.777.353.471.206.26.105 2.02-.877 1.138-.482.576-.236.659-.257.289-.105.388-.133.343-.103.207-.053.192-.043.18-.033.17-.023.164-.015.08-.004.234-.002.232.012 1.248.101 2.206.198 2.605.25 3.544.361.55.057c2.565.236 4.139 1.132 4.664 2.567M25.793 36.048a1 1 0 0 0 .896-1.785l-2.939-1.696-.104-.053a1 1 0 0 0-.896 1.785l2.939 1.697zm-5.308 2.2a1 1 0 0 1-1.262.419l-.104-.053-4.476-2.584c-.151-.087-.357-.29-.6-.584l-.219-.275-.115-.153-.242-.337-.255-.373-.266-.407-.275-.437-.14-.23-.283-.477-.287-.5-.287-.518-.143-.266-.285-.541-.14-.275-.277-.557-.268-.564-.258-.566-.245-.566q-.12-.282-.23-.562l-.124-.319-.958-.727-2.014-1.507-.365-.282-.207-.169-.09-.08-.088-.088-.032-.042-.074-.13-.088-.165a1 1 0 0 1 1.62-1.07l.061.063.28.223 2.936 2.205.318.249.165.138.128.123.032.04.043.072.118.216a32 32 0 0 0 2.74 5.575l.172.275.335.521q.249.376.475.694l.247.337.175.227.088.108c.004.008 0 .01-.034-.007l4.432 2.56a1 1 0 0 1 .366 1.366M23 40a1 1 0 1 0 0-2 1 1 0 0 0 0 2m31.419 2.661a1 1 0 0 1 .366-1.366l.212-.124.435-.264 1.792-1.134.329-.204.67-.407.723-.427.392-.228a1 1 0 0 1 1 1.732l-.742.434-.389.232a1 1 0 0 1-.024.097q-.164.546-.324 1.054l-.32.997-.648 1.945-.085.275-.063.22-.041.175-.006.032-.008.042-.015.126v.105l.01.093c.027.154.356.494.706.555.59.103 1.414-.36 2.437-1.745l2.276-3.15 1.79-2.508 1.073-1.523.734-1.057.166-.242q.24-.35.472-1.129l.102-.365.1-.407.099-.447.096-.488.095-.528.091-.568.09-.607.043-.318.085-.665.081-.704.015-.112.024-.105.023-.07.051-.106.047-.075.06-.08.116-.132.098-.1.182-.169.319-.27.666-.529 1.312-.999 1.364-1.023a1 1 0 0 1 1.2 1.6l-1.79 1.354-.937.726-.438.349-.362.302-.102.833-.049.374-.102.715c-.348 2.308-.775 3.87-1.322 4.751l-.08.122-.712 1.03-.821 1.172-1.438 2.025-2.3 3.196-.643.887c-1.487 2.103-3.049 3.018-4.555 2.755-1.194-.208-2.16-1.208-2.331-2.177-.08-.455-.068-.802.082-1.382l.096-.34.125-.4.587-1.76-.12.076-.469.285-.23.135a1 1 0 0 1-1.366-.367m9.908-22.834-2.543 1.122-.484.201-.196.071c-.18.058-.27.081-.432.064l-.107-.015a32 32 0 0 0-6.176-.408l-.322.01-.617.03-.57.041q-.135.011-.264.024l-.414.044-.283.039-.136.022c-.009 0-.008-.006.023-.026l-6.306 3.64a1 1 0 0 1-1.098-1.668l.098-.065 6.35-3.665c.198-.115.616-.211 1.19-.284l.404-.045.219-.02.466-.034.502-.026.533-.018.277-.006.572-.005.593.004.61.013.623.023.63.032.635.044.635.054.63.065q.47.053.928.119l.351.053.217-.09 2.764-1.217.27-.114.212-.085.137-.05.06-.02c.219-.07.31-.09.55-.044a1 1 0 0 1-.366 1.966c.068.013.11.025.138.034l.056.021c.019.006.034.002.083-.017zM49 28a1 1 0 1 0 0-2 1 1 0 0 0 0 2"/><path fill="#0D0C21" d="M41.995 27.308A3.5 3.5 0 0 0 35 27.5v1.837a3.5 3.5 0 0 0-5 3.163v14.885l-.608-.714-1.222-1.459-.621-.73-.376-.424-.215-.232-.192-.196-.088-.085-.166-.15a3 3 0 0 0-.226-.176l-.143-.091a2 2 0 0 0-.213-.109l-.148-.059c-.925-.336-2.274 0-3.052.93-.98 1.173-.968 2.984.11 5.322l1.49 3.322 1.447 3.176.765 1.648.536 1.132.07.139c.34.639.972 1.4 1.904 2.303l.452.427q.473.436 1.032.915l.58.49q.302.25.625.51l.258.209V67l.008.126A1 1 0 0 0 34 67v-4.484l-.667-.529-.81-.658-.498-.416-.463-.397-.427-.379-.393-.36-.357-.34q-.17-.164-.322-.32l-.286-.3-.25-.28-.216-.26a3.6 3.6 0 0 1-.428-.65l-.392-.826-.74-1.586-1.216-2.659-1.976-4.4c-.689-1.579-.677-2.523-.293-2.982.228-.273.686-.388.833-.334q.02.007.051.029l.074.06.1.092.28.291.4.448.532.62 1.334 1.588.535.63.485.562.458.518.453.5.47.507A1 1 0 0 0 32 50V32.5l.007-.145A1.5 1.5 0 0 1 35 32.5V45l.007.117A1 1 0 0 0 37 45V27.5l.007-.145A1.5 1.5 0 0 1 40 27.5V45l.007.117A1 1 0 0 0 42 45V30.47l.007-.14A1.49 1.49 0 0 1 43.5 29c.831 0 1.5.661 1.5 1.47V45l.007.117A1 1 0 0 0 47 45V34.47l.007-.14A1.49 1.49 0 0 1 48.5 33c.831 0 1.5.661 1.5 1.47V53l-.003.291c-.043 1.816-.506 3.15-1.832 5.158q-.216.326-.736.867l-.322.326-.37.362-.37.351-1.368 1.265-.51.48-.489.486V67l.007.117A1 1 0 0 0 45 68l.117-.007A1 1 0 0 0 46 67v-3.578l.1-.094 1.635-1.515.404-.383.42-.41c.591-.59 1.007-1.062 1.276-1.47C51.439 57.12 52 55.376 52 53V34.47l-.005-.19c-.1-1.83-1.629-3.28-3.495-3.28a3.5 3.5 0 0 0-1.5.334v-.863l-.005-.191c-.1-1.83-1.629-3.28-3.495-3.28a3.5 3.5 0 0 0-1.504.336z"/></svg>
