<svg width="588" height="331" viewBox="0 0 588 331" fill="none" xmlns="http://www.w3.org/2000/svg">
    <rect width="588" height="330.75" fill="#F9F6F2" />
    <path
        d="M236.79 246.256H261.811V252.511C261.811 255.951 258.996 258.766 255.556 258.766H243.045C239.605 258.766 236.79 255.951 236.79 252.511V246.256Z"
        fill="white" />
    <path
        d="M311.853 246.258H336.874V252.513C336.874 255.953 334.059 258.768 330.619 258.768H318.108C314.668 258.768 311.853 255.953 311.853 252.513V246.258Z"
        fill="white" />
    <path
        d="M236.79 246.256H261.811V252.511C261.811 255.951 258.996 258.766 255.556 258.766H243.045C239.605 258.766 236.79 255.951 236.79 252.511V246.256Z"
        stroke="#161616" stroke-width="4.17021" stroke-linecap="round" stroke-linejoin="round" />
    <path
        d="M311.853 246.258H336.874V252.513C336.874 255.953 334.059 258.768 330.619 258.768H318.108C314.668 258.768 311.853 255.953 311.853 252.513V246.258Z"
        stroke="#161616" stroke-width="4.17021" stroke-linecap="round" stroke-linejoin="round" />
    <path
        d="M349.382 71.1133H224.28C213.916 71.1133 205.515 79.5148 205.515 89.8786V227.491C205.515 237.854 213.916 246.256 224.28 246.256H349.382C359.746 246.256 368.147 237.854 368.147 227.491V89.8786C368.147 79.5148 359.746 71.1133 349.382 71.1133Z"
        fill="#009099" />
    <path d="M374.378 246.256C378.319 241.033 380.664 234.527 380.664 227.49V196.215"
        stroke="#CE614A" stroke-width="4.17021" stroke-linecap="round" stroke-linejoin="round" />
    <path d="M199.291 71.1133C195.35 76.3363 193.005 82.8416 193.005 89.8786V121.154"
        stroke="#CE614A" stroke-width="4.17021" stroke-linecap="round" stroke-linejoin="round" />
    <path
        d="M349.382 71.1133H224.28C213.916 71.1133 205.515 79.5148 205.515 89.8786V227.491C205.515 237.854 213.916 246.256 224.28 246.256H349.382C359.746 246.256 368.147 237.854 368.147 227.491V89.8786C368.147 79.5148 359.746 71.1133 349.382 71.1133Z"
        stroke="#161616" stroke-width="4.17021" stroke-linecap="round" stroke-linejoin="round" />
    <path
        d="M286.832 219.151C320.228 219.151 347.3 192.079 347.3 158.683C347.3 125.287 320.228 98.2148 286.832 98.2148C253.436 98.2148 226.364 125.287 226.364 158.683C226.364 192.079 253.436 219.151 286.832 219.151Z"
        fill="white" />
    <path
        d="M286.831 202.47C311.013 202.47 330.617 182.866 330.617 158.684C330.617 134.502 311.013 114.898 286.831 114.898C262.649 114.898 243.045 134.502 243.045 158.684C243.045 182.866 262.649 202.47 286.831 202.47Z"
        fill="#FDE39C" />
    <path
        d="M286.831 202.47C311.013 202.47 330.617 182.866 330.617 158.684C330.617 134.502 311.013 114.898 286.831 114.898C262.649 114.898 243.045 134.502 243.045 158.684C243.045 182.866 262.649 202.47 286.831 202.47Z"
        stroke="#161616" stroke-width="4.17021" stroke-linecap="round" stroke-linejoin="round" />
    <path
        d="M286.832 219.151C320.228 219.151 347.3 192.079 347.3 158.683C347.3 125.287 320.228 98.2148 286.832 98.2148C253.436 98.2148 226.364 125.287 226.364 158.683C226.364 192.079 253.436 219.151 286.832 219.151Z"
        stroke="#161616" stroke-width="4.17021" stroke-linecap="round" stroke-linejoin="round" />
    <path
        d="M299.341 152.43H274.32C270.866 152.43 268.065 155.23 268.065 158.685V174.323C268.065 177.777 270.866 180.578 274.32 180.578H299.341C302.795 180.578 305.596 177.777 305.596 174.323V158.685C305.596 155.23 302.795 152.43 299.341 152.43Z"
        fill="white" />
    <path
        d="M299.341 152.43H274.32C270.866 152.43 268.065 155.23 268.065 158.685V174.323C268.065 177.777 270.866 180.578 274.32 180.578H299.341C302.795 180.578 305.596 177.777 305.596 174.323V158.685C305.596 155.23 302.795 152.43 299.341 152.43Z"
        stroke="#161616" stroke-width="4.17021" stroke-linecap="round" stroke-linejoin="round" />
    <path
        d="M277.448 152.431V143.049C277.448 137.857 281.639 133.666 286.831 133.666C292.022 133.666 296.213 137.857 296.213 143.049V152.431"
        stroke="#161616" stroke-width="4.17021" stroke-linecap="round" stroke-linejoin="round" />
    <path d="M286.83 164.941V168.069" stroke="#161616" stroke-width="4.17021" stroke-linecap="round"
        stroke-linejoin="round" />
    <path
        d="M286.843 114.921V98.2402M286.843 219.176V202.496M347.316 158.704H330.635M243.06 158.704H226.379M317.821 127.749L329.616 115.954M244.101 201.468L255.896 189.673M329.622 201.468L317.827 189.673M255.902 127.749L244.107 115.954"
        stroke="#161616" stroke-width="4.17021" stroke-linecap="round" stroke-linejoin="round" />
</svg>
