<svg width="588" height="331" viewBox="0 0 588 331" fill="none" xmlns="http://www.w3.org/2000/svg">
    <rect width="588" height="330.75" fill="#F9F6F2" />
    <path
        d="M318.106 202.016V248.931C318.106 254.123 313.915 258.314 308.723 258.314H202.383C197.191 258.314 193 254.123 193 248.931V202.016C193 184.751 200.006 169.113 211.328 157.791C217.083 152.036 223.995 147.376 231.658 144.186L255.553 170.739L279.449 144.186C302.155 153.6 318.106 175.931 318.106 202.016Z"
        fill="#009099" />
    <path
        d="M255.553 139.463C274.554 139.463 289.957 124.059 289.957 105.059C289.957 86.0576 274.554 70.6543 255.553 70.6543C236.552 70.6543 221.149 86.0576 221.149 105.059C221.149 124.059 236.552 139.463 255.553 139.463Z"
        fill="white" />
    <path
        d="M279.447 144.186L255.551 170.739L231.656 144.186C239.006 141.152 247.075 139.463 255.551 139.463C264.027 139.463 272.097 141.152 279.447 144.186Z"
        fill="white" />
    <path d="M224.277 256.751V205.145" stroke="#161616" stroke-width="4.17021"
        stroke-linecap="round" stroke-linejoin="round" />
    <path d="M286.83 255.187V205.145" stroke="#161616" stroke-width="4.17021" stroke-linecap="round"
        stroke-linejoin="round" />
    <path d="M231.656 144.186L255.551 170.739L279.447 144.186" stroke="#161616"
        stroke-width="4.17021" stroke-linecap="round" stroke-linejoin="round" />
    <path
        d="M318.106 248.931V202.016C318.106 167.455 290.114 139.463 255.553 139.463C220.993 139.463 193 167.455 193 202.016V248.931C193 254.123 197.191 258.314 202.383 258.314H308.723C313.915 258.314 318.106 254.123 318.106 248.931Z"
        stroke="#161616" stroke-width="4.17021" stroke-linecap="round" stroke-linejoin="round" />
    <path
        d="M255.553 139.463C274.554 139.463 289.957 124.059 289.957 105.059C289.957 86.0576 274.554 70.6543 255.553 70.6543C236.552 70.6543 221.149 86.0576 221.149 105.059C221.149 124.059 236.552 139.463 255.553 139.463Z"
        stroke="#161616" stroke-width="4.17021" stroke-linecap="round" stroke-linejoin="round" />
    <path
        d="M377.532 167.612H372.215C370.87 167.612 369.713 168.487 369.244 169.77C368.868 170.864 368.43 171.928 367.93 172.96C367.367 174.18 367.523 175.618 368.493 176.588L372.246 180.341C373.466 181.561 373.466 183.531 372.246 184.751L363.395 193.602C362.175 194.822 360.205 194.822 358.985 193.602L355.232 189.849C354.262 188.88 352.823 188.692 351.604 189.286C350.571 189.787 349.508 190.225 348.413 190.6C347.131 191.038 346.255 192.195 346.255 193.571V198.888C346.255 200.608 344.848 202.016 343.128 202.016H330.617C328.897 202.016 327.489 200.608 327.489 198.888V193.571C327.489 192.226 326.614 191.069 325.331 190.6C324.237 190.225 323.173 189.787 322.141 189.286C320.921 188.723 319.483 188.88 318.513 189.849L314.76 193.602C313.54 194.822 311.57 194.822 310.35 193.602L301.498 184.751C300.279 183.531 300.279 181.561 301.498 180.341L305.252 176.588C306.221 175.618 306.409 174.18 305.815 172.96C305.314 171.928 304.876 170.864 304.501 169.77C304.063 168.487 302.906 167.612 301.53 167.612H296.213C294.493 167.612 293.085 166.204 293.085 164.484V151.973C293.085 150.253 294.493 148.846 296.213 148.846H301.53C302.875 148.846 304.032 147.97 304.501 146.688C304.876 145.593 305.314 144.529 305.815 143.497C306.378 142.278 306.221 140.839 305.252 139.869L301.498 136.116C300.279 134.896 300.279 132.926 301.498 131.706L310.35 122.855C311.57 121.635 313.54 121.635 314.76 122.855L318.513 126.608C319.483 127.578 320.921 127.765 322.141 127.171C323.173 126.671 324.237 126.233 325.331 125.857C326.614 125.419 327.489 124.262 327.489 122.886V117.569C327.489 115.849 328.897 114.441 330.617 114.441H343.128C344.848 114.441 346.255 115.849 346.255 117.569V122.886C346.255 124.231 347.131 125.388 348.413 125.857C349.508 126.233 350.571 126.671 351.604 127.171C352.823 127.734 354.262 127.578 355.232 126.608L358.985 122.855C360.205 121.635 362.175 121.635 363.395 122.855L372.246 131.706C373.466 132.926 373.466 134.896 372.246 136.116L368.493 139.869C367.523 140.839 367.336 142.278 367.93 143.497C368.43 144.529 368.868 145.593 369.244 146.688C369.681 147.97 370.839 148.846 372.215 148.846H377.532C379.252 148.846 380.66 150.253 380.66 151.973V164.484C380.66 166.204 379.252 167.612 377.532 167.612Z"
        fill="#FDE39C" />
    <path
        d="M374.623 167.612H374.217C371.777 167.612 369.588 169.113 368.649 171.365C368.649 171.365 368.649 171.427 368.618 171.427C367.68 173.679 368.18 176.275 369.9 177.995L370.182 178.277C372.528 180.623 372.528 184.47 370.182 186.815L365.459 191.538C363.113 193.884 359.266 193.884 356.921 191.538L356.639 191.257C354.919 189.537 352.323 189.036 350.071 189.974H350.008C347.757 190.913 346.255 193.102 346.255 195.542V195.948C346.255 199.295 343.566 201.985 340.219 201.985H333.526C330.179 201.985 327.489 199.295 327.489 195.948V195.542C327.489 193.102 325.988 190.913 323.736 189.974H323.674C321.422 189.036 318.826 189.537 317.106 191.257L316.824 191.538C314.478 193.884 310.631 193.884 308.286 191.538L303.563 186.815C301.217 184.47 301.217 180.623 303.563 178.277L303.844 177.995C305.564 176.275 306.065 173.679 305.127 171.427C305.127 171.427 305.127 171.365 305.095 171.365C304.157 169.113 301.968 167.612 299.528 167.612H299.121C295.775 167.612 293.085 164.922 293.085 161.575V154.882C293.085 151.535 295.775 148.846 299.121 148.846H299.528C301.968 148.846 304.157 147.344 305.095 145.092V145.03C306.034 142.778 305.533 140.182 303.813 138.462L303.531 138.18C301.186 135.835 301.186 131.988 303.531 129.642L308.254 124.919C310.6 122.573 314.447 122.573 316.793 124.919L317.074 125.201C318.794 126.921 321.39 127.421 323.642 126.483C323.642 126.483 323.705 126.483 323.705 126.452C325.957 125.513 327.458 123.324 327.458 120.884V120.478C327.458 117.131 330.148 114.441 333.494 114.441H340.188C343.534 114.441 346.224 117.131 346.224 120.478V120.884C346.224 123.324 347.725 125.513 349.977 126.452C349.977 126.452 350.04 126.452 350.04 126.483C352.292 127.421 354.888 126.921 356.608 125.201L356.889 124.919C359.235 122.573 363.082 122.573 365.428 124.919L370.151 129.642C372.496 131.988 372.496 135.835 370.151 138.18L369.869 138.462C368.149 140.182 367.648 142.778 368.587 145.03V145.092C369.525 147.344 371.714 148.846 374.154 148.846H374.561C377.907 148.846 380.597 151.535 380.597 154.882V161.575C380.597 164.922 377.907 167.612 374.561 167.612H374.623Z"
        stroke="#161616" stroke-width="4.17021" stroke-linecap="round" stroke-linejoin="round" />
    <path d="M255.553 183.251V170.74" stroke="#161616" stroke-width="4.17021" stroke-linecap="round"
        stroke-linejoin="round" />
    <path
        d="M319.859 154.726C322.299 152.005 326.459 151.911 329.055 154.476L332.308 157.666L344.505 144.623C346.976 141.965 351.105 141.902 353.669 144.498C356.234 147.094 356.297 151.379 353.795 154.038L337.124 171.865C334.685 174.493 330.587 174.555 328.023 172.053L320.11 164.265C317.514 161.7 317.389 157.447 319.859 154.757V154.726Z"
        fill="white" stroke="#161616" stroke-width="4.17021" stroke-linecap="round"
        stroke-linejoin="round" />
    <path
        d="M266.47 114.441C264.312 118.195 260.277 120.697 255.648 120.697C251.019 120.697 246.984 118.195 244.826 114.441"
        fill="white" />
    <path
        d="M266.47 114.441C264.312 118.195 260.277 120.697 255.648 120.697C251.019 120.697 246.984 118.195 244.826 114.441"
        stroke="#161616" stroke-width="4.17021" stroke-linecap="round" stroke-linejoin="round" />
    <path
        d="M308.723 109.469C317.012 104.684 326.614 101.932 336.872 101.932C354.575 101.932 370.338 110.095 380.66 122.856"
        stroke="#CE614A" stroke-width="4.17021" stroke-linecap="round" stroke-linejoin="round" />
    <path d="M336.872 214.528C354.575 214.528 370.338 206.364 380.66 193.604" stroke="#CE614A"
        stroke-width="4.17021" stroke-linecap="round" stroke-linejoin="round" />
</svg>
