<svg width="588" height="331" viewBox="0 0 588 331" fill="none" xmlns="http://www.w3.org/2000/svg">
    <rect width="588" height="330.75" fill="#F9F6F2" />
    <path
        d="M352.512 202.361H221.156C205.61 202.361 193.008 214.964 193.008 230.509C193.008 246.055 205.61 258.657 221.156 258.657H352.512C368.057 258.657 380.66 246.055 380.66 230.509C380.66 214.964 368.057 202.361 352.512 202.361Z"
        fill="#FDE39C" />
    <path
        d="M352.512 202.361H221.156C205.61 202.361 193.008 214.964 193.008 230.509C193.008 246.055 205.61 258.657 221.156 258.657H352.512C368.057 258.657 380.66 246.055 380.66 230.509C380.66 214.964 368.057 202.361 352.512 202.361Z"
        stroke="#161616" stroke-width="4.17021" stroke-linecap="round" stroke-linejoin="round" />
    <path
        d="M230.538 221.127V239.892M239.921 224.254L221.156 236.765M221.156 224.254L239.921 236.765M268.068 221.127V239.892M277.451 224.254L258.686 236.765M258.686 224.254L277.451 236.765M305.599 221.127V239.892M314.981 224.254L296.216 236.765M296.216 224.254L314.981 236.765M343.129 221.127V239.892M352.512 224.254L333.747 236.765M333.747 224.254L352.512 236.765"
        stroke="#161616" stroke-width="4.17021" stroke-linecap="round" stroke-linejoin="round" />
    <path
        d="M333.957 83.6782L313.503 118.863C305.653 114.297 296.552 111.67 286.825 111.67C259.397 111.67 236.816 132.436 233.97 159.114C233.626 162.336 230.999 164.838 227.746 164.838H199.505C195.877 164.838 192.968 161.773 193.218 158.145C196.659 109.449 237.254 71.0117 286.825 71.0117C303.995 71.0117 320.102 75.6405 333.957 83.6782Z"
        fill="#009099" />
    <path
        d="M380.42 158.146C380.671 161.774 377.762 164.839 374.134 164.839H345.892C342.64 164.839 340.013 162.337 339.669 159.116C337.823 141.914 327.784 127.152 313.491 118.864L333.945 83.6797C360.06 98.8795 378.169 126.339 380.42 158.146Z"
        fill="#FDE39C" />
    <path
        d="M313.503 118.863C305.653 114.297 296.552 111.67 286.825 111.67C259.397 111.67 236.816 132.436 233.97 159.114C233.626 162.336 230.999 164.838 227.746 164.838H199.505C195.877 164.838 192.968 161.773 193.218 158.145C196.659 109.449 237.254 71.0117 286.825 71.0117C303.995 71.0117 320.102 75.6405 333.957 83.6782"
        stroke="#161616" stroke-width="4.17021" stroke-linecap="round" stroke-linejoin="round" />
    <path
        d="M380.42 158.146C380.671 161.774 377.762 164.839 374.134 164.839H345.892C342.64 164.839 340.013 162.337 339.669 159.116C337.823 141.914 327.784 127.152 313.491 118.864L333.945 83.6797C360.06 98.8795 378.169 126.339 380.42 158.146Z"
        stroke="#161616" stroke-width="4.17021" stroke-linecap="round" stroke-linejoin="round" />
    <path
        d="M296.038 181.185C286.999 186.283 275.552 183.062 270.486 174.023C265.388 164.984 268.609 153.538 277.648 148.471C283.215 145.344 319.713 132.99 346.829 124.045C353.334 121.887 358.088 130.3 352.834 134.741C331.097 153.256 301.636 178.057 296.038 181.185Z"
        fill="white" />
    <path
        d="M296.038 181.185C286.999 186.283 275.552 183.062 270.486 174.023C265.388 164.984 268.609 153.538 277.648 148.471C283.215 145.344 319.713 132.99 346.829 124.045C353.334 121.887 358.088 130.3 352.834 134.741C331.097 153.256 301.636 178.057 296.038 181.185Z"
        stroke="#161616" stroke-width="4.17021" stroke-linecap="round" stroke-linejoin="round" />
    <path d="M286.831 164.832L302.468 155.449" stroke="#161616" stroke-width="4.17021"
        stroke-linecap="round" stroke-linejoin="round" />
    <path d="M337.067 71.0078L340.257 72.8531C357.615 82.9862 371.501 97.5605 380.665 114.762"
        stroke="#CE614A" stroke-width="4.17021" stroke-linecap="round" stroke-linejoin="round" />
</svg>
