<svg width="588" height="331" viewBox="0 0 588 331" fill="none" xmlns="http://www.w3.org/2000/svg">
    <rect width="588" height="330.75" fill="#F9F6F2" />
    <path
        d="M327.491 83.1738H202.387C197.205 83.1738 193.004 87.3746 193.004 92.5566V248.936C193.004 254.118 197.205 258.319 202.387 258.319H327.491C332.673 258.319 336.873 254.118 336.873 248.936V92.5566C336.873 87.3746 332.673 83.1738 327.491 83.1738Z"
        fill="#009099" />
    <path
        d="M327.491 83.1738H202.387C197.205 83.1738 193.004 87.3746 193.004 92.5566V248.936C193.004 254.118 197.205 258.319 202.387 258.319H327.491C332.673 258.319 336.873 254.118 336.873 248.936V92.5566C336.873 87.3746 332.673 83.1738 327.491 83.1738Z"
        stroke="#161616" stroke-width="4.17021" stroke-linecap="round" stroke-linejoin="round" />
    <path d="M321.235 83.1738H208.642V239.554H321.235V83.1738Z" fill="white" stroke="#161616"
        stroke-width="4.17021" stroke-linecap="round" stroke-linejoin="round" />
    <path d="M267.725 126.961H299.345" stroke="#161616" stroke-width="4.17021"
        stroke-linecap="round" stroke-linejoin="round" />
    <path d="M268.067 158.238H299.343" stroke="#161616" stroke-width="4.17021"
        stroke-linecap="round" stroke-linejoin="round" />
    <path d="M268.067 189.514H280.577" stroke="#161616" stroke-width="4.17021"
        stroke-linecap="round" stroke-linejoin="round" />
    <path d="M232.099 124.523L239.918 133.218L253.993 117.58" stroke="#161616"
        stroke-width="4.17021" stroke-linecap="round" stroke-linejoin="round" />
    <path d="M232.099 155.799L239.918 164.493L253.993 148.855" stroke="#161616"
        stroke-width="4.17021" stroke-linecap="round" stroke-linejoin="round" />
    <path d="M232.099 187.074L239.918 195.769L253.993 180.131" stroke="#161616"
        stroke-width="4.17021" stroke-linecap="round" stroke-linejoin="round" />
    <path
        d="M280.577 70.666H249.301C244.119 70.666 239.918 74.8668 239.918 80.0488V86.304C239.918 91.486 244.119 95.6868 249.301 95.6868H280.577C285.759 95.6868 289.96 91.486 289.96 86.304V80.0488C289.96 74.8668 285.759 70.666 280.577 70.666Z"
        fill="#FDE39C" />
    <path
        d="M280.577 70.666H249.301C244.119 70.666 239.918 74.8668 239.918 80.0488V86.304C239.918 91.486 244.119 95.6868 249.301 95.6868H280.577C285.759 95.6868 289.96 91.486 289.96 86.304V80.0488C289.96 74.8668 285.759 70.666 280.577 70.666Z"
        stroke="#161616" stroke-width="4.17021" stroke-linecap="round" stroke-linejoin="round" />
    <path
        d="M304.575 224.415H292.596C290.876 224.415 289.469 223.008 289.469 221.288V209.309C289.469 207.652 290.125 206.057 291.314 204.899L360.246 135.967C363.905 132.308 369.848 132.308 373.507 135.967L377.917 140.377C381.576 144.036 381.576 149.979 377.917 153.638L308.985 222.57C307.796 223.759 306.233 224.415 304.575 224.415Z"
        fill="#FDE39C" />
    <path
        d="M369.066 162.519L308.985 222.6C307.796 223.757 306.233 224.414 304.575 224.414H292.596C290.845 224.414 289.469 223.038 289.469 221.286V209.307C289.469 207.65 290.125 206.086 291.283 204.897L351.364 144.816"
        stroke="#161616" stroke-width="4.17021" stroke-linecap="round" stroke-linejoin="round" />
    <path
        d="M377.914 153.669L369.063 162.52L351.361 144.818L360.212 135.967C363.902 132.308 369.845 132.308 373.504 135.967L377.914 140.377C381.573 144.036 381.573 149.979 377.914 153.669Z"
        fill="white" stroke="#161616" stroke-width="4.17021" stroke-linecap="round"
        stroke-linejoin="round" />
    <path d="M380.658 168.619L352.51 196.767" stroke="#CE614A" stroke-width="4.17021"
        stroke-linecap="round" stroke-linejoin="round" />
    <path
        d="M351.362 127.115C355.553 122.955 361.026 120.703 366.874 120.703C370.659 120.703 374.318 121.673 377.54 123.455"
        stroke="#CE614A" stroke-width="4.17021" stroke-linecap="round" stroke-linejoin="round" />
</svg>
