<svg width="588" height="331" viewBox="0 0 588 331" fill="none" xmlns="http://www.w3.org/2000/svg">
    <rect width="588" height="330.75" fill="#F9F6F2" />
    <path
        d="M212.055 252.055H361.612C373.809 252.024 382.785 241.953 380.22 230.162L370.807 182.562C367.366 165.111 352.26 152.163 334.496 151.975C334.246 151.975 333.996 151.975 333.746 151.975H332.495C339.281 132.991 344.379 96.6809 297.967 73.2873C290.993 69.7845 282.674 69.7845 275.699 73.2873C229.287 96.6809 234.385 132.991 241.172 151.975H239.921C239.671 151.975 239.42 151.975 239.17 151.975C221.406 152.163 206.3 165.111 202.86 182.562L193.446 230.162C190.882 241.953 199.858 252.024 212.055 252.055Z"
        fill="#009099" />
    <path d="M380.666 171.616C376.475 160.451 368.594 151.35 358.617 145.721" stroke="#CE614A"
        stroke-width="4.17021" stroke-linecap="round" stroke-linejoin="round" />
    <path
        d="M332.498 151.977C340.629 151.977 335.813 151.977 336.782 152.039C353.577 152.884 367.432 165.644 370.684 182.157L380.192 230.133C382.788 241.923 373.812 251.994 361.615 252.025H212.058C199.86 252.025 190.884 241.923 193.48 230.133L202.988 182.157C206.272 165.644 220.095 152.884 236.89 152.039C237.891 151.977 238.892 151.977 239.924 151.977"
        stroke="#161616" stroke-width="4.17021" stroke-linecap="round" stroke-linejoin="round" />
    <path
        d="M247.872 76.916C237.363 86.236 230.295 97.2447 226.761 109.786C225.729 113.476 225.072 117.136 224.697 120.701"
        stroke="#CE614A" stroke-width="4.17021" stroke-linecap="round" stroke-linejoin="round" />
    <path
        d="M246.927 164.485C246.927 164.485 210.523 106.157 275.7 73.2873C282.674 69.7845 290.993 69.7845 297.936 73.2873C363.114 106.126 326.709 164.485 326.709 164.485"
        stroke="#161616" stroke-width="4.17021" stroke-linecap="round" stroke-linejoin="round" />
    <path
        d="M236.792 127.862C242.265 125.203 247.644 123.077 252.867 121.419C281.515 112.255 305.847 116.634 320.827 121.638C330.992 125.047 336.871 128.769 336.871 128.769"
        stroke="#161616" stroke-width="4.17021" stroke-linecap="round" stroke-linejoin="round" />
    <path d="M230.538 258.31H343.128L349.383 180.123H224.283L230.538 258.31Z" fill="#FDE39C" />
    <path d="M230.538 258.31H343.128L349.383 180.123H224.283L230.538 258.31Z" stroke="#161616"
        stroke-width="4.17021" stroke-linecap="round" stroke-linejoin="round" />
    <path
        d="M252.429 126.955C252.429 145.97 267.816 161.357 286.831 161.357C305.847 161.357 321.234 145.97 321.234 126.955C321.234 125.141 321.109 123.389 320.827 121.638C305.847 116.634 281.515 112.255 252.867 121.419C252.585 123.233 252.429 125.078 252.429 126.955Z"
        fill="white" />
    <path
        d="M252.429 126.955C252.429 145.97 267.816 161.357 286.831 161.357C305.847 161.357 321.234 145.97 321.234 126.955C321.234 125.141 321.109 123.389 320.827 121.638C305.847 116.634 281.515 112.255 252.867 121.419C252.585 123.233 252.429 125.078 252.429 126.955Z"
        stroke="#161616" stroke-width="4.17021" stroke-linecap="round" stroke-linejoin="round" />
    <path
        d="M280.576 217.653C280.576 221.108 283.377 223.908 286.831 223.908C290.286 223.908 293.086 221.108 293.086 217.653V198.888C293.086 195.434 290.286 192.633 286.831 192.633C283.377 192.633 280.576 195.434 280.576 198.888V217.653Z"
        fill="white" stroke="#161616" stroke-width="4.17021" stroke-linecap="round"
        stroke-linejoin="round" />
    <path
        d="M286.831 245.801C290.286 245.801 293.086 243.001 293.086 239.546C293.086 236.091 290.286 233.291 286.831 233.291C283.377 233.291 280.576 236.091 280.576 239.546C280.576 243.001 283.377 245.801 286.831 245.801Z"
        fill="white" stroke="#161616" stroke-width="4.17021" stroke-linecap="round"
        stroke-linejoin="round" />
    <path d="M227.409 217.653L216.463 214.525" stroke="#161616" stroke-width="4.17021"
        stroke-linecap="round" stroke-linejoin="round" />
    <path d="M346.254 217.653L357.2 214.525" stroke="#161616" stroke-width="4.17021"
        stroke-linecap="round" stroke-linejoin="round" />
</svg>
