<svg width="588" height="331" viewBox="0 0 588 331" fill="none" xmlns="http://www.w3.org/2000/svg">
    <rect width="588" height="330.75" fill="#F9F6F2" />
    <path
        d="M286.824 71.1035H205.5C198.59 71.1035 192.988 76.7051 192.988 83.6149V139.916C192.988 146.826 198.59 152.428 205.5 152.428H286.824C293.734 152.428 299.335 146.826 299.335 139.916V83.6149C299.335 76.7051 293.734 71.1035 286.824 71.1035Z"
        fill="#FDE39C" />
    <path
        d="M286.824 71.1035H205.5C198.59 71.1035 192.988 76.7051 192.988 83.6149V139.916C192.988 146.826 198.59 152.428 205.5 152.428H286.824C293.734 152.428 299.335 146.826 299.335 139.916V83.6149C299.335 76.7051 293.734 71.1035 286.824 71.1035Z"
        stroke="#161616" stroke-width="4.17021" stroke-linecap="round" stroke-linejoin="round" />
    <path
        d="M230.523 114.894C237.433 114.894 243.034 109.292 243.034 102.383C243.034 95.4726 237.433 89.8711 230.523 89.8711C223.613 89.8711 218.011 95.4726 218.011 102.383C218.011 109.292 223.613 114.894 230.523 114.894Z"
        fill="white" stroke="#161616" stroke-width="4.17021" stroke-linecap="round"
        stroke-linejoin="round" />
    <path
        d="M249.29 133.662C249.29 123.308 240.876 114.895 230.522 114.895C220.169 114.895 211.755 123.308 211.755 133.662H249.29Z"
        fill="white" stroke="#161616" stroke-width="4.17021" stroke-linecap="round"
        stroke-linejoin="round" />
    <path d="M264.929 102.383H280.818" stroke="#161616" stroke-width="4.17021"
        stroke-linecap="round" stroke-linejoin="round" />
    <path d="M264.929 121.15H280.818" stroke="#161616" stroke-width="4.17021" stroke-linecap="round"
        stroke-linejoin="round" />
    <path
        d="M289.952 177.449H208.628C201.718 177.449 196.116 183.051 196.116 189.961V246.262C196.116 253.172 201.718 258.773 208.628 258.773H289.952C296.862 258.773 302.463 253.172 302.463 246.262V189.961C302.463 183.051 296.862 177.449 289.952 177.449Z"
        fill="#009099" />
    <path
        d="M289.952 177.449H208.628C201.718 177.449 196.116 183.051 196.116 189.961V246.262C196.116 253.172 201.718 258.773 208.628 258.773H289.952C296.862 258.773 302.463 253.172 302.463 246.262V189.961C302.463 183.051 296.862 177.449 289.952 177.449Z"
        stroke="#161616" stroke-width="4.17021" stroke-linecap="round" stroke-linejoin="round" />
    <path
        d="M233.651 221.24C240.56 221.24 246.162 215.638 246.162 208.728C246.162 201.818 240.56 196.217 233.651 196.217C226.741 196.217 221.139 201.818 221.139 208.728C221.139 215.638 226.741 221.24 233.651 221.24Z"
        fill="#FDE39C" />
    <path
        d="M252.418 240.007C252.418 229.654 244.004 221.24 233.651 221.24C223.297 221.24 214.884 229.654 214.884 240.007H252.418Z"
        fill="white" stroke="#161616" stroke-width="4.17021" stroke-linecap="round"
        stroke-linejoin="round" />
    <path
        d="M233.651 221.24C240.56 221.24 246.162 215.638 246.162 208.728C246.162 201.818 240.56 196.217 233.651 196.217C226.741 196.217 221.139 201.818 221.139 208.728C221.139 215.638 226.741 221.24 233.651 221.24Z"
        fill="white" stroke="#161616" stroke-width="4.17021" stroke-linecap="round"
        stroke-linejoin="round" />
    <path
        d="M252.418 240.007C252.418 229.654 244.004 221.24 233.651 221.24C223.297 221.24 214.884 229.654 214.884 240.007H252.418Z"
        stroke="#161616" stroke-width="4.17021" stroke-linecap="round" stroke-linejoin="round" />
    <path d="M267.813 208.729H283.702" stroke="#161616" stroke-width="4.17021"
        stroke-linecap="round" stroke-linejoin="round" />
    <path d="M267.813 227.496H283.702" stroke="#161616" stroke-width="4.17021"
        stroke-linecap="round" stroke-linejoin="round" />
    <path
        d="M376.84 193.963C371.148 197.717 364.36 196.34 358.417 193.056C341.933 183.891 329.203 171.067 320.32 154.49C318.944 151.893 318.224 149.078 318.224 146.263C318.224 143.104 319.1 139.976 320.883 137.224C323.729 132.845 330.048 132.407 333.457 136.411L342.027 146.451C342.872 147.421 343.247 148.578 343.247 149.735C343.247 151.456 342.371 153.145 340.776 154.083C338.681 155.334 338.024 158.055 339.306 160.12C342.684 165.531 347.001 170.035 352.224 173.663C355.07 175.634 358.824 174.664 361.076 172.037C362.609 170.285 365.33 169.972 367.207 171.536L377.56 180.232C381.939 183.923 381.626 190.804 376.84 193.963Z"
        fill="white" />
    <path
        d="M369.211 208.725C363.706 208.725 358.045 207.129 352.384 204.002C346.847 200.936 341.686 197.464 336.869 193.648"
        stroke="#CE614A" stroke-width="4.17021" stroke-linecap="round" stroke-linejoin="round" />
    <path d="M327.486 121.146C333.46 121.146 339.121 123.743 342.969 128.309L351.539 138.35"
        stroke="#CE614A" stroke-width="4.17021" stroke-linecap="round" stroke-linejoin="round" />
    <path
        d="M376.84 193.963C371.148 197.717 364.36 196.34 358.417 193.056C341.933 183.891 329.203 171.067 320.32 154.49C318.944 151.893 318.224 149.078 318.224 146.263C318.224 143.104 319.1 139.976 320.883 137.224C323.729 132.845 330.048 132.407 333.457 136.411L342.027 146.451C342.872 147.421 343.247 148.578 343.247 149.735C343.247 151.456 342.371 153.145 340.776 154.083C338.681 155.334 338.024 158.055 339.306 160.12C342.684 165.531 347.001 170.035 352.224 173.663C355.07 175.634 358.824 174.664 361.076 172.037C362.609 170.285 365.33 169.972 367.207 171.536L377.56 180.232C381.939 183.923 381.626 190.804 376.84 193.963Z"
        stroke="#161616" stroke-width="4.17021" stroke-linecap="round" stroke-linejoin="round" />
</svg>
