<svg width="588" height="331" viewBox="0 0 588 331" fill="none" xmlns="http://www.w3.org/2000/svg">
    <rect width="588" height="330.75" fill="#F9F6F2" />
    <path
        d="M341.166 93.1046V91.1341C341.166 85.3167 336.443 80.5939 330.626 80.5939H276.83C273.296 80.5939 270.012 78.8424 268.073 75.9024C266.134 72.9624 262.818 71.2109 259.315 71.2109H236.796C230.979 71.2109 226.256 75.9337 226.256 81.7512V93.1046"
        fill="#FDE39C" />
    <path
        d="M341.166 93.1046V91.1341C341.166 85.3167 336.443 80.5939 330.626 80.5939H276.83C273.296 80.5939 270.012 78.8424 268.073 75.9024C266.134 72.9624 262.818 71.2109 259.315 71.2109H236.796C230.979 71.2109 226.256 75.9337 226.256 81.7511V93.1046"
        stroke="#161616" stroke-width="4.17021" stroke-linecap="round" stroke-linejoin="round" />
    <path
        d="M338.413 171.297H229.007C223.972 171.297 219.843 167.325 219.624 162.289L217.247 102.864C217.029 97.5467 221.282 93.1055 226.63 93.1055H340.759C346.076 93.1055 350.361 97.5467 350.142 102.864L347.765 162.289C347.577 167.325 343.417 171.297 338.382 171.297H338.413Z"
        fill="#FDE39C" />
    <path d="M211.849 87.3145C207.72 91.5993 205.499 97.4168 205.75 103.359L206.344 118.122"
        stroke="#CE614A" stroke-width="4.17021" stroke-linecap="round" stroke-linejoin="round" />
    <path d="M361.258 162.79L362.666 127.51" stroke="#CE614A" stroke-width="4.17021"
        stroke-linecap="round" stroke-linejoin="round" />
    <path
        d="M338.413 171.297H229.007C223.972 171.297 219.843 167.325 219.624 162.289L217.247 102.864C217.029 97.5467 221.282 93.1055 226.63 93.1055H340.759C346.076 93.1055 350.361 97.5467 350.142 102.864L347.765 162.289C347.577 167.325 343.417 171.297 338.382 171.297H338.413Z"
        stroke="#161616" stroke-width="4.17021" stroke-linecap="round" stroke-linejoin="round" />
    <path d="M286.83 202.573V171.297" stroke="#161616" stroke-width="4.17021" stroke-linecap="round"
        stroke-linejoin="round" />
    <path
        d="M218.021 202.572C218.021 193.94 225.027 186.934 233.66 186.934H340C348.632 186.934 355.638 193.94 355.638 202.572"
        stroke="#161616" stroke-width="4.17021" stroke-linecap="round" stroke-linejoin="round" />
    <path
        d="M286.83 258.87C302.376 258.87 314.979 246.267 314.979 230.721C314.979 215.175 302.376 202.572 286.83 202.572C271.284 202.572 258.681 215.175 258.681 230.721C258.681 246.267 271.284 258.87 286.83 258.87Z"
        fill="#009099" />
    <path
        d="M218.021 252.615C231.84 252.615 243.043 241.412 243.043 227.594C243.043 213.775 231.84 202.572 218.021 202.572C204.202 202.572 193 213.775 193 227.594C193 241.412 204.202 252.615 218.021 252.615Z"
        fill="#009099" />
    <path
        d="M355.638 252.615C369.457 252.615 380.66 241.412 380.66 227.594C380.66 213.775 369.457 202.572 355.638 202.572C341.819 202.572 330.617 213.775 330.617 227.594C330.617 241.412 341.819 252.615 355.638 252.615Z"
        fill="#009099" />
    <path
        d="M286.83 240.105C293.739 240.105 299.34 234.504 299.34 227.595C299.34 220.685 293.739 215.084 286.83 215.084C279.92 215.084 274.319 220.685 274.319 227.595C274.319 234.504 279.92 240.105 286.83 240.105Z"
        fill="white" />
    <path
        d="M307.429 249.895C302.269 255.431 294.95 258.871 286.818 258.871C278.686 258.871 271.367 255.431 266.207 249.895C271.086 243.921 278.498 240.105 286.818 240.105C295.138 240.105 302.55 243.921 307.429 249.895Z"
        fill="white" />
    <path
        d="M355.638 240.105C362.548 240.105 368.149 234.504 368.149 227.595C368.149 220.685 362.548 215.084 355.638 215.084C348.729 215.084 343.128 220.685 343.128 227.595C343.128 234.504 348.729 240.105 355.638 240.105Z"
        fill="white" />
    <path
        d="M372.456 246.111C368.015 250.145 362.104 252.616 355.63 252.616C349.155 252.616 343.244 250.145 338.803 246.111C343.4 242.357 349.249 240.105 355.63 240.105C362.01 240.105 367.859 242.357 372.456 246.111Z"
        fill="white" />
    <path
        d="M218.021 240.105C224.931 240.105 230.532 234.504 230.532 227.595C230.532 220.685 224.931 215.084 218.021 215.084C211.112 215.084 205.511 220.685 205.511 227.595C205.511 234.504 211.112 240.105 218.021 240.105Z"
        fill="white" />
    <path
        d="M234.839 246.111C230.398 250.145 224.487 252.616 218.012 252.616C211.538 252.616 205.627 250.145 201.186 246.111C205.783 242.357 211.632 240.105 218.012 240.105C224.393 240.105 230.242 242.357 234.839 246.111Z"
        fill="white" />
    <path
        d="M314.979 230.721C314.979 238.102 312.101 244.89 307.441 249.894C302.28 255.43 294.962 258.87 286.83 258.87C278.698 258.87 271.379 255.43 266.219 249.894C261.558 244.89 258.681 238.102 258.681 230.721C258.681 215.177 271.285 202.572 286.83 202.572C302.374 202.572 314.979 215.177 314.979 230.721Z"
        stroke="#161616" stroke-width="4.17021" stroke-linecap="round" stroke-linejoin="round" />
    <path
        d="M218.021 252.615C231.84 252.615 243.043 241.412 243.043 227.594C243.043 213.775 231.84 202.572 218.021 202.572C204.202 202.572 193 213.775 193 227.594C193 241.412 204.202 252.615 218.021 252.615Z"
        stroke="#161616" stroke-width="4.17021" stroke-linecap="round" stroke-linejoin="round" />
    <path
        d="M380.66 227.594C380.66 234.944 377.501 241.543 372.465 246.109C368.024 250.144 362.113 252.615 355.638 252.615C349.164 252.615 343.253 250.144 338.812 246.109C333.776 241.543 330.617 234.944 330.617 227.594C330.617 213.769 341.814 202.572 355.638 202.572C369.463 202.572 380.66 213.769 380.66 227.594Z"
        stroke="#161616" stroke-width="4.17021" stroke-linecap="round" stroke-linejoin="round" />
    <path
        d="M286.83 240.105C293.739 240.105 299.34 234.504 299.34 227.595C299.34 220.685 293.739 215.084 286.83 215.084C279.92 215.084 274.319 220.685 274.319 227.595C274.319 234.504 279.92 240.105 286.83 240.105Z"
        stroke="#161616" stroke-width="4.17021" stroke-linecap="round" stroke-linejoin="round" />
    <path
        d="M266.647 250.333C271.182 244.14 278.532 240.105 286.82 240.105C295.108 240.105 302.458 244.14 306.993 250.333"
        stroke="#161616" stroke-width="4.17021" stroke-linecap="round" stroke-linejoin="round" />
    <path
        d="M218.021 240.105C224.931 240.105 230.532 234.504 230.532 227.595C230.532 220.685 224.931 215.084 218.021 215.084C211.112 215.084 205.511 220.685 205.511 227.595C205.511 234.504 211.112 240.105 218.021 240.105Z"
        stroke="#161616" stroke-width="4.17021" stroke-linecap="round" stroke-linejoin="round" />
    <path
        d="M201.479 246.361C205.889 242.482 211.675 240.105 218.024 240.105C224.373 240.105 230.16 242.482 234.57 246.361"
        stroke="#161616" stroke-width="4.17021" stroke-linecap="round" stroke-linejoin="round" />
    <path
        d="M355.638 240.105C362.548 240.105 368.149 234.504 368.149 227.595C368.149 220.685 362.548 215.084 355.638 215.084C348.729 215.084 343.128 220.685 343.128 227.595C343.128 234.504 348.729 240.105 355.638 240.105Z"
        stroke="#161616" stroke-width="4.17021" stroke-linecap="round" stroke-linejoin="round" />
    <path
        d="M339.096 246.361C343.506 242.482 349.292 240.105 355.641 240.105C361.99 240.105 367.777 242.482 372.187 246.361"
        stroke="#161616" stroke-width="4.17021" stroke-linecap="round" stroke-linejoin="round" />
    <path
        d="M263.885 126.417C266.762 123.165 271.579 123.04 274.613 126.105L278.397 129.952L292.628 114.282C295.537 111.092 300.322 111.029 303.324 114.126C306.296 117.222 306.39 122.383 303.481 125.542L284.027 146.935C281.181 150.062 276.395 150.188 273.424 147.154L264.197 137.802C261.164 134.737 261.039 129.608 263.885 126.386V126.417Z"
        fill="white" stroke="#161616" stroke-width="4.17021" stroke-linecap="round"
        stroke-linejoin="round" />
</svg>
