<svg width="588" height="331" viewBox="0 0 588 331" fill="none" xmlns="http://www.w3.org/2000/svg">
    <rect width="588" height="330.75" fill="#F9F6F2" />
    <path d="M368.149 133.555H205.511V239.895H368.149V133.555Z" fill="white" />
    <path
        d="M368.149 149.195H380.66V258.663H296.213L286.83 252.408L277.447 258.663H193V149.195H205.511V239.897H368.149V149.195Z"
        fill="#009099" />
    <path
        d="M368.149 149.195H380.66V258.663H296.213L286.83 252.408L277.447 258.663H193V149.195H205.511"
        stroke="#161616" stroke-width="4.17021" stroke-linecap="round" stroke-linejoin="round" />
    <path d="M330.617 133.557V158.578L340 152.323L349.383 158.578V133.557" fill="#FDE39C" />
    <path d="M330.617 133.557V158.578L340 152.323L349.383 158.578V133.557" stroke="#161616"
        stroke-width="4.17021" stroke-linecap="round" stroke-linejoin="round" />
    <path d="M368.149 133.557H205.511V239.897H368.149V133.557Z" stroke="#161616"
        stroke-width="4.17021" stroke-linecap="round" stroke-linejoin="round" />
    <path d="M286.83 192.982V239.897" stroke="#161616" stroke-width="4.17021" stroke-linecap="round"
        stroke-linejoin="round" />
    <path
        d="M224.277 177.344H255.553M318.106 177.344H349.383M224.277 196.11H261.809M224.277 214.876H261.809M311.851 196.11H349.383M311.851 214.876H349.383"
        stroke="#161616" stroke-width="4.17021" stroke-linecap="round" stroke-linejoin="round" />
    <path
        d="M320.984 101.211C322.423 113.378 317.512 124.512 309.099 131.643C306.941 133.489 305.596 136.116 305.596 138.931V152.317C305.596 157.509 301.405 161.7 296.213 161.7H277.447C272.255 161.7 268.064 157.509 268.064 152.317V138.931C268.064 136.116 266.75 133.489 264.592 131.643C257.148 125.325 252.426 115.911 252.426 105.402C252.426 85.135 269.909 68.9962 290.614 71.1856C306.315 72.8433 319.107 85.5103 320.984 101.18V101.211Z"
        fill="#FDE39C" />
    <path d="M268.064 149.189H305.596" stroke="#161616" stroke-width="4.17021"
        stroke-linecap="round" stroke-linejoin="round" />
    <path
        d="M320.984 101.211C322.423 113.378 317.512 124.512 309.099 131.643C306.941 133.489 305.596 136.116 305.596 138.931V152.317C305.596 157.509 301.405 161.7 296.213 161.7H277.447C272.255 161.7 268.064 157.509 268.064 152.317V138.931C268.064 136.116 266.75 133.489 264.592 131.643C258.65 126.608 254.459 119.602 252.989 111.658C252.613 109.625 252.426 107.529 252.426 105.402C252.426 85.135 269.909 68.9962 290.614 71.1856C306.315 72.8433 319.107 85.5103 320.984 101.18V101.211Z"
        stroke="#161616" stroke-width="4.17021" stroke-linecap="round" stroke-linejoin="round" />
    <path
        d="M299.309 161.139C299.34 161.326 299.34 161.514 299.34 161.702C299.34 168.614 293.742 174.212 286.83 174.212C279.918 174.212 274.319 168.614 274.319 161.702C274.319 161.514 274.319 161.326 274.35 161.139"
        stroke="#161616" stroke-width="4.17021" stroke-linecap="round" stroke-linejoin="round" />
    <path d="M286.83 114.785V149.189" stroke="#161616" stroke-width="4.17021" stroke-linecap="round"
        stroke-linejoin="round" />
    <path
        d="M286.83 114.785C292.012 114.785 296.213 110.585 296.213 105.403C296.213 100.22 292.012 96.0195 286.83 96.0195C281.648 96.0195 277.447 100.22 277.447 105.403C277.447 110.585 281.648 114.785 286.83 114.785Z"
        fill="white" stroke="#161616" stroke-width="4.17021" stroke-linecap="round"
        stroke-linejoin="round" />
    <path
        d="M328.296 83.5117C329.359 85.5134 330.297 87.609 331.048 89.767C332.799 94.6775 333.738 99.9319 333.738 105.405C333.738 108.627 333.425 111.754 332.799 114.788"
        stroke="#CE614A" stroke-width="4.17021" stroke-linecap="round" stroke-linejoin="round" />
    <path
        d="M240.853 114.788C240.228 111.754 239.915 108.627 239.915 105.405C239.915 99.9319 240.853 94.6775 242.605 89.767C243.355 87.609 244.294 85.5134 245.357 83.5117"
        stroke="#CE614A" stroke-width="4.17021" stroke-linecap="round" stroke-linejoin="round" />
</svg>
