<svg width="588" height="330" viewBox="0 0 588 330" fill="none" xmlns="http://www.w3.org/2000/svg">
    <rect width="588" height="330" fill="#F9F6F2" />
    <path
        d="M298.17 71.0127H198.085C191.176 71.0127 185.574 76.6233 185.574 83.5443V196.329C185.574 203.25 191.176 208.861 198.085 208.861H298.17C305.08 208.861 310.681 203.25 310.681 196.329V83.5443C310.681 76.6233 305.08 71.0127 298.17 71.0127Z"
        fill="#009099" />
    <path
        d="M298.17 71.0127H198.085C191.176 71.0127 185.574 76.6233 185.574 83.5443V196.329C185.574 203.25 191.176 208.861 198.085 208.861H298.17C305.08 208.861 310.681 203.25 310.681 196.329V83.5443C310.681 76.6233 305.08 71.0127 298.17 71.0127Z"
        stroke="#161616" stroke-width="2" stroke-linecap="round" stroke-linejoin="round" />
    <path
        d="M266.894 158.734H229.362C220.725 158.734 213.723 165.748 213.723 174.399C213.723 183.05 220.725 190.063 229.362 190.063H266.894C275.53 190.063 282.532 183.05 282.532 174.399C282.532 165.748 275.53 158.734 266.894 158.734Z"
        fill="white" />
    <path
        d="M266.894 158.734H229.362C220.725 158.734 213.723 165.748 213.723 174.399C213.723 183.05 220.725 190.063 229.362 190.063H266.894C275.53 190.063 282.532 183.05 282.532 174.399C282.532 165.748 275.53 158.734 266.894 158.734Z"
        stroke="#161616" stroke-width="2" stroke-linecap="round" stroke-linejoin="round" />
    <path
        d="M232.489 178.315C234.649 178.315 236.399 176.562 236.399 174.399C236.399 172.236 234.649 170.483 232.489 170.483C230.33 170.483 228.58 172.236 228.58 174.399C228.58 176.562 230.33 178.315 232.489 178.315Z"
        fill="#161616" />
    <path
        d="M248.128 178.315C250.287 178.315 252.037 176.562 252.037 174.399C252.037 172.236 250.287 170.483 248.128 170.483C245.968 170.483 244.218 172.236 244.218 174.399C244.218 176.562 245.968 178.315 248.128 178.315Z"
        fill="#161616" />
    <path
        d="M263.766 178.315C265.925 178.315 267.676 176.562 267.676 174.399C267.676 172.236 265.925 170.483 263.766 170.483C261.607 170.483 259.856 172.236 259.856 174.399C259.856 176.562 261.607 178.315 263.766 178.315Z"
        fill="#161616" />
    <path
        d="M260.638 111.741H235.617C232.162 111.741 229.362 114.546 229.362 118.006V133.671C229.362 137.131 232.162 139.937 235.617 139.937H260.638C264.093 139.937 266.894 137.131 266.894 133.671V118.006C266.894 114.546 264.093 111.741 260.638 111.741Z"
        fill="white" />
    <path
        d="M260.638 111.741H235.617C232.162 111.741 229.362 114.546 229.362 118.006V133.671C229.362 137.131 232.162 139.937 235.617 139.937H260.638C264.093 139.937 266.894 137.131 266.894 133.671V118.006C266.894 114.546 264.093 111.741 260.638 111.741Z"
        stroke="#161616" stroke-width="2" stroke-linecap="round" stroke-linejoin="round" />
    <path
        d="M238.745 111.741V102.342C238.745 97.1412 242.936 92.9431 248.128 92.9431C253.32 92.9431 257.511 97.1412 257.511 102.342V111.741"
        stroke="#161616" stroke-width="2" stroke-linecap="round" stroke-linejoin="round" />
    <path d="M248.128 124.272V127.405" stroke="#161616" stroke-width="2" stroke-linecap="round"
        stroke-linejoin="round" />
    <path
        d="M363.851 121.139H307.553C302.371 121.139 298.17 125.347 298.17 130.538V249.589C298.17 254.779 302.371 258.987 307.553 258.987H363.851C369.033 258.987 373.234 254.779 373.234 249.589V130.538C373.234 125.347 369.033 121.139 363.851 121.139Z"
        fill="#FDE39C" />
    <path
        d="M363.851 121.139H307.553C302.371 121.139 298.17 125.347 298.17 130.538V249.589C298.17 254.779 302.371 258.987 307.553 258.987H363.851C369.033 258.987 373.234 254.779 373.234 249.589V130.538C373.234 125.347 369.033 121.139 363.851 121.139Z"
        stroke="#161616" stroke-width="2" stroke-linecap="round" stroke-linejoin="round" />
    <path
        d="M315.885 192.103C318.762 188.845 323.579 188.72 326.613 191.79L330.397 195.644L344.628 179.948C347.537 176.752 352.322 176.689 355.324 179.791C358.296 182.893 358.39 188.062 355.481 191.226L336.027 212.655C333.181 215.788 328.395 215.913 325.424 212.875L316.197 203.507C313.164 200.437 313.039 195.299 315.885 192.072V192.103Z"
        fill="white" stroke="#161616" stroke-width="2" stroke-linecap="round"
        stroke-linejoin="round" />
    <path d="M326.319 136.804H345.085" stroke="#161616" stroke-width="2" stroke-linecap="round"
        stroke-linejoin="round" />
    <path d="M198.085 221.392H251.255" stroke="#CE614A" stroke-width="2" stroke-linecap="round"
        stroke-linejoin="round" />
    <path d="M329.447 108.608H357.596" stroke="#CE614A" stroke-width="2" stroke-linecap="round"
        stroke-linejoin="round" />
</svg>
