<svg width="588" height="331" viewBox="0 0 588 331" fill="none" xmlns="http://www.w3.org/2000/svg">
    <rect width="588" height="330.75" fill="#F9F6F2" />
    <path
        d="M349.383 196.211H224.277C207.003 196.211 193 210.214 193 227.488C193 244.761 207.003 258.764 224.277 258.764H349.383C366.657 258.764 380.66 244.761 380.66 227.488C380.66 210.214 366.657 196.211 349.383 196.211Z"
        fill="#009099" />
    <path
        d="M349.383 196.211H224.277C207.003 196.211 193 210.214 193 227.488C193 244.761 207.003 258.764 224.277 258.764H349.383C366.657 258.764 380.66 244.761 380.66 227.488C380.66 210.214 366.657 196.211 349.383 196.211Z"
        stroke="#161616" stroke-width="4.17021" stroke-linecap="round" stroke-linejoin="round" />
    <path
        d="M314.979 227.488C314.979 232.68 310.788 236.871 305.596 236.871C300.404 236.871 296.213 232.68 296.213 227.488C296.213 222.297 300.404 218.105 305.596 218.105C310.788 218.105 314.979 222.297 314.979 227.488ZM343.128 218.105C337.936 218.105 333.745 222.297 333.745 227.488C333.745 232.68 337.936 236.871 343.128 236.871C348.32 236.871 352.511 232.68 352.511 227.488C352.511 222.297 348.32 218.105 343.128 218.105ZM268.064 218.105C262.872 218.105 258.681 222.297 258.681 227.488C258.681 232.68 262.872 236.871 268.064 236.871C273.256 236.871 277.447 232.68 277.447 227.488C277.447 222.297 273.256 218.105 268.064 218.105ZM230.532 218.105C225.34 218.105 221.149 222.297 221.149 227.488C221.149 232.68 225.34 236.871 230.532 236.871C235.724 236.871 239.915 232.68 239.915 227.488C239.915 222.297 235.724 218.105 230.532 218.105Z"
        fill="white" />
    <path
        d="M314.979 227.488C314.979 232.68 310.788 236.871 305.596 236.871C300.404 236.871 296.213 232.68 296.213 227.488C296.213 222.297 300.404 218.105 305.596 218.105C310.788 218.105 314.979 222.297 314.979 227.488ZM343.128 218.105C337.936 218.105 333.745 222.297 333.745 227.488C333.745 232.68 337.936 236.871 343.128 236.871C348.32 236.871 352.511 232.68 352.511 227.488C352.511 222.297 348.32 218.105 343.128 218.105ZM268.064 218.105C262.872 218.105 258.681 222.297 258.681 227.488C258.681 232.68 262.872 236.871 268.064 236.871C273.256 236.871 277.447 232.68 277.447 227.488C277.447 222.297 273.256 218.105 268.064 218.105ZM230.532 218.105C225.34 218.105 221.149 222.297 221.149 227.488C221.149 232.68 225.34 236.871 230.532 236.871C235.724 236.871 239.915 232.68 239.915 227.488C239.915 222.297 235.724 218.105 230.532 218.105Z"
        stroke="#161616" stroke-width="4.17021" stroke-linecap="round" stroke-linejoin="round" />
    <path
        d="M324.362 108.637H249.298C245.843 108.637 243.043 111.437 243.043 114.892V171.19C243.043 174.645 245.843 177.445 249.298 177.445H324.362C327.816 177.445 330.617 174.645 330.617 171.19V114.892C330.617 111.437 327.816 108.637 324.362 108.637Z"
        fill="#FDE39C" />
    <path
        d="M324.362 108.637H249.298C245.843 108.637 243.043 111.437 243.043 114.892V171.19C243.043 174.645 245.843 177.445 249.298 177.445H324.362C327.816 177.445 330.617 174.645 330.617 171.19V114.892C330.617 111.437 327.816 108.637 324.362 108.637Z"
        stroke="#161616" stroke-width="4.17021" stroke-linecap="round" stroke-linejoin="round" />
    <path
        d="M258.681 108.637V99.2544C258.681 83.7099 271.285 71.1055 286.83 71.1055C302.374 71.1055 314.979 83.7099 314.979 99.2544V108.637H302.468V99.2544C302.468 90.6221 295.462 83.6161 286.83 83.6161C278.198 83.6161 271.192 90.6221 271.192 99.2544V108.637H258.681Z"
        fill="white" />
    <path
        d="M258.681 108.637V99.2544C258.681 83.7099 271.285 71.1055 286.83 71.1055C302.374 71.1055 314.979 83.7099 314.979 99.2544V108.637H302.468V99.2544C302.468 90.6221 295.462 83.6161 286.83 83.6161C278.198 83.6161 271.192 90.6221 271.192 99.2544V108.637H258.681Z"
        stroke="#161616" stroke-width="4.17021" stroke-linecap="round" stroke-linejoin="round" />
    <path d="M230.532 139.914V113.798C230.532 105.635 235.755 98.6916 243.042 96.127"
        stroke="#CE614A" stroke-width="4.17021" stroke-linecap="round" stroke-linejoin="round" />
    <path d="M343.128 142.016V168.069" stroke="#CE614A" stroke-width="4.17021"
        stroke-linecap="round" stroke-linejoin="round" />
    <path
        d="M304.698 146.581C303.041 154.932 295.691 161.218 286.871 161.218C276.831 161.218 268.699 153.086 268.699 143.047C268.699 133.007 276.831 124.875 286.871 124.875C293.564 124.875 299.413 128.472 302.572 133.851"
        stroke="#161616" stroke-width="4.17021" stroke-linecap="round" stroke-linejoin="round" />
    <path d="M302.579 124.275V133.94H292.914" stroke="#161616" stroke-width="4.17021"
        stroke-linecap="round" stroke-linejoin="round" />
</svg>
