<svg width="588" height="331" viewBox="0 0 588 331" fill="none" xmlns="http://www.w3.org/2000/svg">
    <rect width="588" height="330.75" fill="#F9F6F2" />
    <path
        d="M336.78 184.8L329.713 196.995C327.994 199.966 324.179 200.998 321.208 199.278L317.893 197.402C315.767 196.182 313.109 196.338 311.139 197.808C308.919 199.434 306.511 200.841 303.947 201.998C301.727 202.999 300.289 205.219 300.289 207.658V210.754C300.289 214.662 297.506 217.477 294.066 217.477H279.776C276.336 217.508 273.522 214.725 273.522 211.254V207.689C273.522 205.25 272.084 203.03 269.832 202.029C267.299 200.873 264.892 199.497 262.672 197.871C260.67 196.432 258.044 196.276 255.886 197.495L252.603 199.403C249.632 201.123 245.817 200.122 244.097 197.151L236.968 184.956C235.217 181.954 236.218 178.108 239.251 176.389L242.628 174.419C244.754 173.199 245.942 170.854 245.692 168.415C245.567 167.07 245.505 165.726 245.505 164.35C245.505 162.974 245.567 161.723 245.692 160.472C245.911 158.033 244.723 155.657 242.597 154.437L239.188 152.499C236.186 150.779 235.123 146.933 236.874 143.931L243.941 131.736C245.661 128.765 249.476 127.733 252.446 129.453L255.761 131.329C257.887 132.549 260.545 132.392 262.515 130.923C264.735 129.297 267.143 127.89 269.707 126.733C271.927 125.732 273.366 123.512 273.366 121.073V117.977C273.366 114.068 276.149 111.254 279.588 111.254H293.878C297.318 111.223 300.132 114.006 300.132 117.477V121.042C300.132 123.481 301.571 125.701 303.822 126.701C306.355 127.858 308.763 129.234 310.983 130.86C312.984 132.299 315.611 132.455 317.768 131.235L321.052 129.328C324.022 127.608 327.837 128.609 329.557 131.579L336.686 143.774C338.438 146.776 337.437 150.622 334.404 152.342L331.027 154.312C328.9 155.532 327.712 157.877 327.962 160.316C328.087 161.661 328.15 163.005 328.15 164.381C328.15 165.757 328.087 167.008 327.962 168.258C327.743 170.697 328.932 173.074 331.058 174.293L334.466 176.232C337.468 177.952 338.531 181.798 336.78 184.8ZM286.812 145.619C276.461 145.619 268.05 154.031 268.05 164.381C268.05 174.731 276.461 183.143 286.812 183.143C297.162 183.143 305.573 174.731 305.573 164.381C305.573 154.031 297.162 145.619 286.812 145.619Z"
        fill="#FDE39C" />
    <path
        d="M336.78 184.8L329.713 196.995C327.994 199.966 324.179 200.998 321.208 199.278L317.893 197.402C315.767 196.182 313.109 196.338 311.139 197.808C308.919 199.434 306.511 200.841 303.947 201.998C301.727 202.999 300.289 205.219 300.289 207.658V210.754C300.289 214.662 297.506 217.477 294.066 217.477H279.776C276.336 217.508 273.522 214.725 273.522 211.254V207.689C273.522 205.25 272.084 203.03 269.832 202.029C267.299 200.873 264.892 199.497 262.672 197.871C260.67 196.432 258.044 196.276 255.886 197.495L252.603 199.403C249.632 201.123 245.817 200.122 244.097 197.151L236.968 184.956C235.217 181.954 236.218 178.108 239.251 176.389L242.628 174.419C244.754 173.199 245.942 170.854 245.692 168.415C245.567 167.07 245.505 165.726 245.505 164.35C245.505 162.974 245.567 161.723 245.692 160.472C245.911 158.033 244.723 155.657 242.597 154.437L239.188 152.499C236.186 150.779 235.123 146.933 236.874 143.931L243.941 131.736C245.661 128.765 249.476 127.733 252.446 129.453L255.761 131.329C257.887 132.549 260.545 132.392 262.515 130.923C264.735 129.297 267.143 127.89 269.707 126.733C271.927 125.732 273.366 123.512 273.366 121.073V117.977C273.366 114.068 276.149 111.254 279.588 111.254H293.878C297.318 111.223 300.132 114.006 300.132 117.477V121.042C300.132 123.481 301.571 125.701 303.822 126.701C306.355 127.858 308.763 129.234 310.983 130.86C312.984 132.299 315.611 132.455 317.768 131.235L321.052 129.328C324.022 127.608 327.837 128.609 329.557 131.579L336.686 143.774C338.438 146.776 337.437 150.622 334.404 152.342L331.027 154.312C328.9 155.532 327.712 157.877 327.962 160.316C328.087 161.661 328.15 163.005 328.15 164.381C328.15 165.757 328.087 167.008 327.962 168.258C327.743 170.697 328.932 173.074 331.058 174.293L334.466 176.232C337.468 177.952 338.531 181.798 336.78 184.8ZM286.812 145.619C276.461 145.619 268.05 154.031 268.05 164.381C268.05 174.731 276.461 183.143 286.812 183.143C297.162 183.143 305.573 174.731 305.573 164.381C305.573 154.031 297.162 145.619 286.812 145.619Z"
        stroke="#161616" stroke-width="4.17021" stroke-linecap="round" stroke-linejoin="round" />
    <path
        d="M372.141 205.555C372.548 203.366 370.609 201.49 368.451 201.927L357.007 204.241L345.031 206.649C342.592 207.149 341.654 210.151 343.436 211.934L348.283 216.78C346.907 218.406 345.437 220.001 343.905 221.533C314.762 250.739 268.796 252.959 237.088 228.1C234.493 226.13 231.991 223.91 229.615 221.533C226.425 218.313 223.58 214.935 221.016 211.339C210.947 197.268 205.944 180.695 205.975 164.123C205.975 162.153 204.13 160.683 202.192 161.089L195.625 162.403C194.155 162.684 193.061 163.997 193.092 165.498C193.374 189.138 202.504 212.653 220.516 230.695C220.766 230.945 220.985 231.164 221.235 231.352C257.851 267.374 316.669 267.155 353.067 230.695C354.599 229.194 356.1 227.6 357.445 225.942L362.573 231.071C364.355 232.853 367.42 231.884 367.857 229.413L372.204 205.586L372.141 205.555Z"
        fill="#009099" />
    <path
        d="M371.506 167.694C369.567 168.07 367.722 166.631 367.722 164.661C367.754 148.088 362.75 131.516 352.682 117.444C350.149 113.88 347.272 110.471 344.083 107.25C341.706 104.843 339.205 102.654 336.609 100.684C304.902 75.8246 258.967 78.0448 229.793 107.25C228.26 108.783 226.791 110.377 225.415 112.003L230.262 116.85C232.013 118.601 231.106 121.634 228.667 122.135L216.691 124.542L205.215 126.856C203.057 127.294 201.119 125.418 201.525 123.229L205.809 99.2767C206.309 96.8377 209.311 95.8996 211.093 97.682L216.315 102.873C217.691 101.215 219.161 99.6207 220.693 98.1198C257.091 61.6596 315.878 61.4094 352.525 97.4631C352.807 97.682 352.994 97.9009 353.245 98.1198C371.256 116.162 380.386 139.677 380.668 163.317C380.668 164.818 379.605 166.1 378.135 166.412L371.568 167.726L371.506 167.694Z"
        fill="#009099" />
    <path
        d="M371.516 167.694C369.577 168.07 367.732 166.631 367.732 164.661C367.764 148.088 362.76 131.516 352.692 117.444C350.159 113.88 347.282 110.471 344.093 107.25C341.716 104.843 339.215 102.654 336.619 100.684C304.912 75.8246 258.977 78.0448 229.803 107.25C228.27 108.783 226.801 110.377 225.425 112.003L230.272 116.85C232.023 118.601 231.116 121.634 228.677 122.135L216.701 124.542L205.225 126.856C203.067 127.294 201.128 125.418 201.535 123.229L205.819 99.2767C206.319 96.8377 209.321 95.8996 211.103 97.682L216.325 102.873C217.701 101.215 219.171 99.6207 220.703 98.1198C257.101 61.6596 315.887 61.4094 352.535 97.4631C352.817 97.682 353.004 97.9009 353.255 98.1198C371.266 116.162 380.396 139.677 380.678 163.317C380.678 164.818 379.615 166.1 378.145 166.412L371.578 167.726L371.516 167.694ZM372.141 205.562C372.548 203.373 370.609 201.497 368.451 201.934L357.007 204.248L345.031 206.656C342.592 207.156 341.654 210.158 343.436 211.941L348.283 216.787C346.907 218.413 345.437 220.008 343.905 221.54C314.762 250.746 268.796 252.966 237.088 228.107C234.493 226.137 231.991 223.917 229.615 221.54C226.425 218.32 223.58 214.943 221.016 211.347C210.947 197.275 205.944 180.702 205.975 164.13C205.975 162.16 204.13 160.69 202.192 161.097L195.625 162.41C194.155 162.691 193.061 164.005 193.092 165.506C193.374 189.145 202.504 212.66 220.516 230.702C220.766 230.953 220.985 231.171 221.235 231.359C257.851 267.381 316.669 267.163 353.067 230.702C354.599 229.201 356.1 227.607 357.445 225.949L362.573 231.078C364.355 232.86 367.42 231.891 367.857 229.42L372.204 205.593L372.141 205.562Z"
        stroke="#161616" stroke-width="4.17021" stroke-linecap="round" stroke-linejoin="round" />
    <path d="M336.925 70.5723C355.468 80.4847 370.727 95.7442 380.64 114.287" stroke="#CE614A"
        stroke-width="4.17021" stroke-linecap="round" stroke-linejoin="round" />
    <path d="M193.012 214.473C202.925 233.015 218.184 248.275 236.727 258.187" stroke="#CE614A"
        stroke-width="4.17021" stroke-linecap="round" stroke-linejoin="round" />
</svg>
