<svg xmlns="http://www.w3.org/2000/svg" width="432" height="324" fill="none"><g clip-path="url(#a)"><path fill="#FFF7DB" d="M70.795 125.329c-.026-8.437-.36-16.866-.044-25.309-.308 8.434-.132 16.872.044 25.309m168.302 124.837c.035-.418-.172-.405-.541-.52-.146.463.171.467.541.52m3.301-164.23.04 167.632S138.297 266.874 69.44 278.433c-2.734-69.628.744-216.71.744-216.71l172.21 24.213z"/><path fill="#0D0C21" d="M142.087 180.918c.048.982.088 1.968.167 2.949.031.947.207 2.192 1.22 2.206 1.245-.075 1.113-1.629 1.016-2.663-.053-1.03-.097-2.06-.145-3.086-.194-4.291-.387-8.587-.599-12.887-.545-15.947-1.866-33.025 4.596-47.194 2.28-5.04 5.629-9.516 10.101-11.655 4.226-1.998 9.565-2.637 13.508 1.268 6.827 6.681 10.322 16.871 11.673 26.721.568 3.702.986 7.435 1.294 11.154.058.669.595 1.166 1.114 1.096.999-.154.872-1.435.753-2.381-.524-5.753-1.242-11.541-2.527-17.202-1.888-8.024-5.581-15.907-11.193-21.382-4.397-4.323-10.26-4.063-15.075-1.937-5.075 2.174-8.944 7.051-11.532 12.654-6.03 12.672-5.718 28.073-5.278 42.616.247 6.585.617 13.152.903 19.723z"/><path fill="#0D0C21" d="M146.726 196.968c3.596-3.992 5.049-9.081 4.921-14.64-.061-9.08-.766-18.152-.766-27.25.005-6.871-.101-13.865 1.831-20.379 1.625-5.308 4.393-10.453 8.768-12.778 4.723-2.588 9.327.573 12.012 5.731 1.743 3.328 2.782 7.047 3.442 10.899 1.285 6.721.185 14.943 3.909 20.542.77 1.082 1.778 1.817 2.9 2.13a6.8 6.8 0 0 0 2.509.224c.845-.074 1.145-1.562.467-2.178-.313-.304-.691-.282-1.07-.256-.207.013-.414.027-.612-.013-1.012-.101-2.064-.541-2.733-1.562-2.861-4.604-2.218-11.031-2.998-16.519-1.021-8.619-4.273-19.601-12.249-22.175-5.753-1.563-10.872 3.098-13.794 8.503-4.05 7.201-4.675 16.282-4.631 24.966-.18 10.81.946 21.598.709 32.386-.101 4.97-2.632 9.578-6.18 12.457-.603.493-1.232.942-1.871 1.382-.581.405-1.307.863-1.333 1.738-.009.37.185.758.471.916a1 1 0 0 0 .519.092c1.664-.088 4.723-3.041 5.779-4.225z"/><path fill="#0D0C21" d="M153.61 206.494c6.004-8.649 6.233-20.23 6.233-30.582.066-10.476-4.996-31.343 2.187-38.575 4.045-3.768 6.893 1.752 8.148 6.061 1.285 4.666 1.413 9.578 1.967 14.367.537 5.81 2.166 10.669 5.832 14.507 2.514 2.733 5.639 3.376 8.781 2.39 1.171-.418.788-2.588-.396-2.394-1.501.365-3.09.62-4.573-.062-2.236-.982-3.882-3.31-5.233-5.66-2.936-5.643-2.364-12.672-3.42-19.024-.74-5.638-3.737-15.423-9.807-13.79-11.431 4.243-6.206 28.434-5.771 39.447.199 3.583.155 7.192-.044 10.783-.343 6.453-1.104 13.227-4.291 18.857-1.994 3.644-4.939 6.514-8.204 8.649-.511.33-1.026.642-1.554.937-.506.282-1.158.542-1.4 1.189-.277.713.22 1.457.85 1.461 3.433-.577 8.547-5.383 10.7-8.565z"/><path fill="#0D0C21" d="M167.237 189.874c.445-5.911.388-11.827.111-17.729 3.402 7.799 9.846 13.706 16.62 15.542a9.8 9.8 0 0 0 2.927.074c1.184-.176 1.039-2.535-.132-2.438a8.3 8.3 0 0 1-4.151-.572c-5.585-2.478-10.837-7.47-13.61-14.318-.867-2.118-1.443-4.204-1.998-6.519-.119-.339-.193-.784-.286-1.215-.339-3.666-.77-7.328-1.034-11.013a28 28 0 0 1-.022-2.94c.097-.766-.374-1.54-1.048-1.562-1.206-.014-1.113 1.637-1.105 2.698.031 2.746.357 5.484.625 8.213.37 3.662.722 7.32.929 10.991.383 6.312.559 12.672.172 19.001-.454 11.422-3.165 23.368-10.894 31.718a33.7 33.7 0 0 1-4.908 4.458c-.594.511-1.461.788-1.791 1.62-.141.48-.044.925.282 1.215.171.137.396.185.664.159 2.17-.212 7.003-5.265 8.134-6.713 7.06-8.196 9.948-19.728 10.52-30.657z"/><path fill="#0D0C21" d="M188.061 197.362c-3.613.031-7.249-.977-10.603-2.755a13 13 0 0 1-2.522-1.849c-.445-.497-1.158-.73-1.646-.114-.15.229-.234.453-.264.669a2 2 0 0 0-.075.321c-.234 2.579-.762 5.123-1.374 7.632a77.3 77.3 0 0 1-7.513 19.798c-1.835 3.363-3.825 6.629-6.14 9.657-.594.898-2.483 2.527-1.083 3.372.097.04.198.053.313.04 1.329-.15 3.688-3.816 4.48-4.877 6.651-9.846 11.374-21.572 13.113-33.558.475.331.933.608 1.219.837a24.1 24.1 0 0 0 10.731 3.261c.255.018.563.044.862.031.669-.035 1.316-.286 1.343-1.294 0-.572-.365-1.144-.841-1.166z"/><path fill="#0D0C21" d="M187.278 210.087c-.344-.326-.784-.172-1.189-.128-.832.097-1.668.145-2.5.11a11.6 11.6 0 0 1-3.31-.647 9 9 0 0 1-1.017-.449c-.431-.251-.875-.594-1.382-.303-.325.184-.506.576-.528.981a1.5 1.5 0 0 0-.308.621c-1.157 4.995-2.782 9.925-4.661 14.714-1.03 2.575-2.166 5.185-3.438 7.659a27 27 0 0 1-1.54 2.61c-.515.669-.467 1.761.295 1.937q.105.02.211.008c1.514-.18 3.658-5.286 4.366-6.708 2.276-5.017 4.146-10.233 5.656-15.524.322-1.157.616-2.324.898-3.49 1.602.832 4.041 1.061 5.132 1.065.436 0 .867-.013 1.303-.048q.773-.062 1.545-.19c.841-.149 1.14-1.672.467-2.218"/><path fill="#0D0C21" d="M242.526 89.272a77 77 0 0 0-.084-2.504c.022-1.21-.149-1.779-.77-1.867-.577-.083-.436-.061-1.012-.145a1 1 0 0 0-.15-.013c-1.88-.269-3.759-.546-5.643-.814q-9.653-1.394-19.305-2.8-10.67-1.546-21.334-3.098-10.67-1.554-21.339-3.1c-7.091-1.03-14.177-2.055-21.268-3.085q-10.637-1.546-21.282-3.085-10.821-1.57-21.642-3.134c-6.928-1-13.856-2.003-20.788-2.993-3.341-.48-6.686-.96-10.032-1.426-1.641-.229-3.287-.462-4.93-.682-.739-.102-1.474-.198-2.218-.287-.264-.03-.528-.066-.792-.079-.282-.013-.559 0-.801.128a.74.74 0 0 0-.37.427h-.004c-.308.233-.348.59-.374.911-.084 1.54-.075 3.086-.102 4.63-.206 70.821-.026 141.646-.083 212.467 0 .498.528.911 1.157.911q.244-.001.454-.074c.295-.014.58-.044.871-.071.867-.092 1.734-.202 2.602-.312q2.773-.365 5.541-.762a3330 3330 0 0 0 20.934-3.072c7.139-1.061 14.283-2.126 21.422-3.196 7.003-1.052 14.006-2.099 21.009-3.151l21.673-3.253a39707 39707 0 0 0 21.466-3.226c7.113-1.07 14.222-2.135 21.33-3.209q10.586-1.596 21.172-3.187c2.816-.422 5.633-.849 8.455-1.263 1.237-.18 2.469-.37 3.706-.555.537-.079 1.087-.136 1.62-.237.356-.071.656-.229.818-.493a.76.76 0 0 0 .115-.374.7.7 0 0 0 .145-.436c.013-2.509-.004-5.013 0-7.522-.088-51.987.203-103.978-.172-155.965zm-1.95-.907c-.418 51.771-.092 103.547-.194 155.322.009 2.901-.013 5.806 0 8.706-.022 0-.044.009-.066.009-.383.066-.766.123-1.149.18l-3.829.581c-6.519 1-13.046 1.968-19.574 2.945l-21.563 3.235c-7.064 1.061-14.124 2.122-21.189 3.187q-10.848 1.63-21.69 3.262l-21.141 3.182q-10.696 1.61-21.392 3.226c-7.046 1.07-14.093 2.139-21.136 3.218-3.437.528-6.87 1.06-10.304 1.606-1.646.26-3.292.528-4.93.815q-.943.164-1.888.347v-14.674c-.061-65.909.123-131.813-.088-197.722a346 346 0 0 0-.048-3.02c-.04-.32-.005-.677-.018-1.025.555.097 1.114.185 1.673.273 1.452.229 2.91.449 4.366.669q4.543.68 9.085 1.347a11074 11074 0 0 0 20.599 3.015c7.139 1.043 14.283 2.077 21.422 3.116 7.162 1.039 14.323 2.082 21.484 3.12 7.113 1.035 14.23 2.065 21.343 3.1 7.082 1.025 14.165 2.055 21.247 3.08l21.215 3.077c6.752.982 13.513 1.959 20.265 2.945l5.053.74c.642.092 1.285.188 1.928.28a1 1 0 0 0 .123.023q.238.032.471.07-.048.883-.071 1.765z"/><path fill="#fff" d="M425.771 313.562c-.405 2.883 1.382 10.04-2.069 10.55-11.268-1.756-22.853-2.187-34.266-3.27-19.6-5.951-38.549 1.527-58.153.585-22.813-3.996-39.759-23.007-56.093-37.981-9.825.124-19.913-6.298-28.778-5.629-5.22 1.756-11.611 5.968-11.611 5.968s-1.334 3.394-2.359 8.473c-1.074 5.308-1.092 11.55-4.252 16.862-11.906 20.023-17.329 7.796-21.475-8.244-4.749-8.71-6.087-10.097-5.018-20.594-8.2 5.893-13.218 6.118-13.218 6.118s-1.413-15.806-3.596-21.304c-3.86-13.438 4.204-26.017 9.274-37.932 3.812-25.001 23.487-19.143 40.406-17.981-9.423-13.459-23.108-17.975-36.559-26.03-11.888-1.721-37.303-15.287-27.721-27.505 3.337-4.191 22.087 3.719 33.655 5.783 9.137 1.712 18.869 11.092 27.949 9.904 15.212.999 22.012 18.895 35.723 22.817 30.609 8.75 35.56 23.02 57.348 38.439 24.046 15.837 53.531 32.862 82.41 25.687 13.72 13.597 15.683 36.749 18.403 55.284"/><path fill="#0D0C21" d="M201.372 187.286c1.395.854 2.786 1.707 4.216 2.495a66 66 0 0 0 8.75 4.019c1.51.568 3.055 1.056 4.503 1.769 2.61 1.33 4.714 3.425 6.783 5.458 2.232 2.267 4.428 4.565 6.717 6.774-3.702.066-7.412-.101-11.105-.347-10.973-1.149-22.387.277-26.044 12.399a128 128 0 0 0-1.682 5.572c-.154.585.19 1.206.779 1.369q.147.04.287.04a1.15 1.15 0 0 0 1.082-.819c.564-1.88 1.101-3.772 1.73-5.63 2.65-8.724 10.458-11.224 18.843-10.916 4.719.221 9.433.674 14.164.652a75 75 0 0 0 4.349-.088 70 70 0 0 0 2.364 2.038c3.728 2.988 7.627 5.766 11.496 8.57.177 2.979-.057 5.968-.462 8.926-.163 1.246-.396 2.478-.537 3.724-.035.418-.088.964.344 1.201a.5.5 0 0 0 .224.053c.321 0 .612-.343.867-.871 1.655 2.662 6.127 6.523 6.977 7.143.202.15.409.212.611.212.885 0 1.607-1.237.771-1.95a39.4 39.4 0 0 1-5.841-5.78c-.599-.559-1.017-1.606-1.761-1.976.33-1.413.542-2.852.617-3.292.242-1.937.418-3.953.356-5.938 1.884-.216 5.867-3.072 6.761-3.873.642-.559.268-1.695-.59-1.734-.814.044-1.422.761-2.117 1.126a28 28 0 0 1-3.662 2.056c-.079.039-.167.075-.251.114a8 8 0 0 1-.572-.444c-1.695-1.545-3.601-2.839-5.432-4.217-3.125-2.214-6.153-4.529-8.997-7.078a1 1 0 0 0-.176-.158 66 66 0 0 1-2.667-2.535c-2.434-2.377-4.732-4.895-7.192-7.241a36 36 0 0 0-1.708-1.584c-.013-.005-.026-.014-.035-.018-.066-.04-.123-.093-.181-.137a8 8 0 0 1-.33-.286l-.008-.008.013.013a6 6 0 0 0-.181-.163l-.035-.031a.1.1 0 0 1 .026.022q-.125-.111-.25-.216l-.194-.158-.018-.013-.132-.093-.189-.14c.004 0 .013.008.018.013-.053-.04-.106-.075-.159-.115l-.048-.039a.04.04 0 0 0-.013.017c-1.493-1.083-3.108-1.985-4.869-2.583-3.701-1.312-7.346-2.804-10.779-4.723-1.426-.788-2.817-1.642-4.203-2.496-1.435-.841-2.839-1.805-4.34-2.54l.017-.017c-.145-.062-.29-.132-.436-.194a.03.03 0 0 1-.022-.009c-.167-.07-.33-.141-.501-.202.013 0 .026.009.035.013-.044-.018-.088-.031-.132-.048.013 0 .026.008.039.013-.224-.084-.453-.163-.682-.247l-.255-.079-.009.009a9 9 0 0 0-.995-.238c-3.838-.823-7.469-2.399-10.977-4.133-5.11-2.663-10.581-5.717-13.328-11.039-1.1-2.337-1.906-4.921-1.796-7.527a8 8 0 0 1 .361-1.817 3.2 3.2 0 0 0 .489-.48 3.5 3.5 0 0 1 2.592-1.233c3.244-.092 6.374.947 9.499 1.691a184 184 0 0 0 10.546 2.372c3.702.748 7.236 1.263 10.907 2.491 5.453 1.963 10.445 4.983 15.779 7.219 3.024 1.329 6.242 2.192 9.539 2.491 3.516.286 7.055.832 10.224 2.474 2.892 1.479 5.441 3.53 7.923 5.612 3.403 2.9 6.756 5.858 10.366 8.508 5.136 3.798 10.726 7.047 16.739 9.256 3.781 1.413 7.738 2.373 11.343 4.235 4.78 2.42 9.379 5.616 13.393 9.221 4.12 3.715 8.042 7.817 12.334 11.387 14.723 12.342 31.101 22.742 48.857 30.146 5.29 2.064 10.401 4.775 16.026 5.819 6.034 1.091 12.188 1.302 18.31 1.435q2.146.034 4.292.035c2.988 0 5.977-.049 8.966-.132.611-.018 1.126-.498 1.126-1.127 0-.63-.51-1.145-1.126-1.127-3.442.115-6.884.132-10.322.071-7.21-.102-14.486-.203-21.585-1.585-3.42-.669-6.585-2.174-9.824-3.477a229 229 0 0 1-17.347-7.791c-13.587-6.99-26.233-15.749-37.809-25.701-3.838-3.367-7.346-7.082-11.211-10.422-4.912-4.235-10.41-7.901-16.435-10.335-3.583-1.347-7.258-2.315-10.78-3.856-9.282-3.878-17.034-10.427-24.556-16.95-4.172-3.557-8.944-6.686-14.468-7.501-2.447-.387-4.929-.47-7.363-.955-7.58-1.707-14.024-6.439-21.299-9.001-4.292-1.496-8.83-2.077-13.262-3.015a191 191 0 0 1-8.535-1.963c-3.737-.845-7.588-2.276-11.457-1.615a4.86 4.86 0 0 0-2.676 1.589c-.049.052-.093.114-.141.176a1 1 0 0 0-.189.167c-3.442 4.063-.132 12.571 3.12 16.044 5.097 5.704 15.771 10.814 23.21 12.526 2.438.476 4.467 2.038 6.576 3.262zm7.029 66.468c-.352.466-.837 1.021-.819 1.58a.7.7 0 0 0-.308.576c0 .379.317.7.7.7a.7.7 0 0 0 .554-.281c.071.013.146.022.212.022 1.219 0 2.007-2.17 2.663-3.064a1.164 1.164 0 0 0-.414-1.58c-1.417-.735-1.924 1.188-2.584 2.047z"/><path fill="#0D0C21" d="M424.402 322.121c-7.223.048-14.455-.317-21.656-.96-10.304-.982-20.484-3.292-30.863-3.552-4.362-.163-8.75-.18-13.082.418-4.238.564-8.354 1.748-12.562 2.491-6.386 1.039-13.301 1.114-19.688-.356-16.373-3.746-27.734-17.03-39.878-27.659-3.147-2.65-6.245-5.419-9.608-7.796a65 65 0 0 1 3.107.256c3.949.554 7.677 2.13 11.136 4.071 2.857 1.585 5.621 3.913 8.451 5.661 2.408 1.478 5.093 2.398 7.831 3.054 2.539.656 5.075 1.338 7.641 1.884.083.013.158.018.233.018 1.294 0 1.518-1.911.216-2.21-2.267-.48-4.512-1.061-6.744-1.668-2.478-.665-5.215-1.457-7.491-2.773-2.328-1.36-4.419-3.09-6.682-4.56-4.247-2.742-8.961-4.974-14.001-5.726-3.486-.458-7.02-.366-10.498-.898-9.995-1.519-19.908-4.481-28.592-9.75-3.71-2.284-8.204-4.855-10.071-9.067-.493-1.188-.757-2.456-.937-3.728-.022-.176.136-2.729.568-3.75.937-2.117 2.482-3.94 4.247-5.414 2.276-1.712 5.137-2.355 7.905-2.755 5.7-.687 11.462-.141 17.157.378 5.85.48 11.546 1.523 17.048 3.697 7.016 2.606 13.776 6.528 21.453 7.016 3.27.313 6.787.163 9.666-1.588.36-.221.721-.458 1.038-.736 1.061-.955-.268-2.57-1.399-1.795-.916.686-1.946 1.219-3.055 1.509-4.01.938-8.006.238-11.994-.739-3.275-.907-6.347-2.306-9.468-3.631-4.608-1.946-9.287-3.812-14.213-4.78-6.628-1.264-13.407-1.752-20.15-1.937-2.209-.018-4.498.057-6.721.374.18-.643.286-1.32.387-1.681.3-1.541.52-3.099.647-4.666.062-1.347-1.923-1.479-2.042-.145a22 22 0 0 1-.202 2.271c-.203 1.4-.471 2.791-.713 4.181a8 8 0 0 0-.062.397c-3.803.836-7.276 2.557-9.661 5.999-1.594 2.038-2.897 5.114-2.03 10.396.084.511.216.995.37 1.466a1.1 1.1 0 0 0-.51.158c-.489.335-.938.722-1.431 1.048-.867.616-1.844 1.026-2.812 1.453-.419-1.136-.894-2.25-1.497-3.293-.299-.524-.999-.704-1.523-.4-.88.545-.506 1.443-.066 2.143.445.903.819 1.836 1.153 2.782 1.796 5.049 2.368 10.462 2.021 15.793-.102 1.514-.26 3.032-.361 4.551-.009.365-.036.735-.058 1.105-.127-.168-.25-.339-.387-.502a29 29 0 0 0-3.292-3.57c-1.057-.999-2.558.533-1.558 1.558 3.314 3.064 5.964 7.008 6.813 11.493 1.277 7.06.894 19.798-8.174 21.092-3.574.343-5.449-3.424-6.399-6.312-1.013-3.037-1.915-6.118-3.253-9.032-2.113-4.789-5.176-9.375-5.432-14.749-.215-3.125.427-6.211.674-9.314 3.64-5.044 5.37-11.651 4.723-17.769-.172-.757-.286-2.769-.74-4.243-.009-.044-.026-.084-.039-.128-.308-.937-.766-1.624-1.484-1.553-2.196-2.025-4.723-3.755-7.509-4.811-.713-.405-1.373.523-.788 1.078.828 1.074 2.122 1.664 3.192 2.46 1.553 1.07 2.94 2.276 4.322 3.553.163.501.352 1.003.374 1.43.625 3.033.682 6.255.022 9.296-1.409 8.099-7.575 15.92-16.149 16.726h-.057q.039-.504.039-1.012a34.4 34.4 0 0 0-.334-5.3 80 80 0 0 0-1.052-5.656 153 153 0 0 0-1.426-5.916c-.485-1.853-1-3.697-1.396-5.572-.264-1.307-.484-2.619-.59-3.948a30 30 0 0 1-.008-3.363c.092-1.241.264-2.478.506-3.702a33 33 0 0 1 1.069-3.811c1.171-3.301 2.707-6.453 4.274-9.578.013-.026.022-.048.035-.07.08-.155.168-.335.26-.515.867-1.73 1.748-3.552 2.61-5.379.264-.564-.053-1.259-.607-1.492-.59-.251-1.228.044-1.492.607a244 244 0 0 1-2.434 5.044c-.81 1.624-1.629 3.244-2.386 4.895-.819 1.774-1.602 3.569-2.24 5.414a37 37 0 0 0-.951 3.112 29 29 0 0 0-.612 3.151 28.3 28.3 0 0 0-.194 6.127c.071.92.212 1.831.375 2.742q.252 1.433.598 2.852c.445 1.862.969 3.702 1.435 5.555.497 1.981.968 3.97 1.382 5.973.449 2.201.823 4.424.977 6.668.04.568.08 1.286.124 1.999.026.413.044.832.092 1.241.013.119.031.233.062.352a.92.92 0 0 0-.22.607c.092.916 1.021 1.184 2.095 1.184 1.148 0 2.46-.303 3.107-.444 3.337-.863 6.22-2.615 8.583-4.934-.317 1.976-.515 3.974-.471 5.977-.009 5.594 2.967 10.48 5.269 15.388 1.298 2.777 2.205 5.471 3.138 8.446.924 2.967 2.153 6.097 4.824 7.906 1.127.761 2.386 1.091 3.667 1.087 2.421 0 4.899-1.18 6.633-2.835a12.4 12.4 0 0 0 2.447-3.187c1.338-1.016 2.822-3.534 3.262-4.251 2.962-5.507 4.476-12.061 3.402-18.28 1.466-1.246 2.452-6.602 2.557-8.75q.106.008.212.009c.189 0 .378-.018.563-.031.616-.058 1.232-.194 1.835-.348a21 21 0 0 0 3.513-1.263c2.297-1.061 4.529-2.311 6.536-3.86.049-.036.088-.08.128-.119 6.756 2.931 13.975 4.802 21.242 5.924 1.294.207 2.597.33 3.899.423.093.092.194.18.291.264 2.487 2.042 5.004 4.04 7.465 6.114 15.313 12.799 29.354 30.854 50.732 32.505 5.63.511 11.334.123 16.867-1.004 5.145-1.118 10.233-2.394 15.559-2.491 12.21-.537 24.266 2.012 36.344 3.416 7.086.73 14.208 1.078 21.33 1.157h.673c.555 0 1.114 0 1.664-.026 1.549-.229 1.206-2.28-.079-2.302zm-178.918-44.658c-1.272.845-2.602 1.584-3.966 2.275a35 35 0 0 1-4.12 1.743c-.488.167-.981.33-1.47.502l-.33.119c-.101-2.527-.559-5.062-1.655-7.351-.251-.541-.872-.823-1.435-.581-.541.229-.827.889-.581 1.435a15.5 15.5 0 0 1 1.061 3.24 23.5 23.5 0 0 1 .4 5.422c-.145 1.831-.501 3.583-.99 5.361a18 18 0 0 0-.938-2.447c-.224-.537-.884-.814-1.421-.576-1.395.699-.137 2.103.132 3.125.59 1.747.902 3.574 1.039 5.409.206 4.551-.907 9.125-2.782 13.262.242-1.787.326-3.6.334-5.335.018-4.084-.836-8.222-2.768-11.813.044-.119.075-.247.092-.37.181-.907.26-1.827.37-2.742.484-3.764.845-7.558.55-11.356-.185-2.945-.753-5.885-1.624-8.711 1.73-.422 3.904-1.888 4.925-2.769 2.144 3.852 6.387 6.431 10.084 8.689a62 62 0 0 0 5.678 3.072q-.282.207-.572.401zm-48.892-95.322c.009 0 .022.009.031.009-.013 0-.022-.009-.036-.013zm29.808 10.921s-.023-.018-.036-.023c0 0 .022.018.036.023"/><path fill="#0D0C21" d="M244.102 224.469c-.357.303-.361.783-.441 1.21-.145.929-.237 1.91-.699 2.729-4.912 8.627-13.284 10.713-20.349 11.136-2.024.132-4.309.128-6.298-.537a6 6 0 0 1-.568-.255 40.5 40.5 0 0 0-.977-9.244c-.146-.594-.291-1.201-.515-1.773-.542-1.286-2.492-.59-2.135.743.202.771.436 1.532.585 2.316.652 3.345.854 6.782.661 10.185a37 37 0 0 1-.603 4.551c-.124.458.295 1.193.836 1.294a1.6 1.6 0 0 0 .312.031c1.682 0 1.321-3.108 1.638-4.322.044-.432.075-.868.105-1.299 1.51.493 3.482.66 4.274.687q.39.007.779.009c6.281 0 12.562-1.765 17.835-5.203.401-.286.969-.678 1.585-1.122a.9.9 0 0 0 .247.255c.655.365 1.36.647 1.998 1.047.202.115.4.163.59.163 1.021 0 1.668-1.487.572-2.152-.348-.189-.7-.387-1.065-.541-.172-.067-.348-.137-.529-.199 3.381-5.022 3.381-6.589 3.698-8.715.193-.88-.819-1.641-1.536-.986zm-7.078 26.662s.023 0 .036.005v-.023c-.013.005-.022.014-.036.018m-1.422 12.964s0-.009.005-.013l-.058.035c.018-.009.031-.017.049-.022zm11.766 7.721c1.408.158 2.825-.005 4.102-.617.017 0 .039.005.061.005a.41.41 0 0 0 .397-.238c3.358-1.721 4.987-6.29 5.484-10.123.202-1.536.229-3.077.198-4.626-.031-1.228.568-5.872-2.945-6.347-.114-.04-.233-.066-.352-.102-2.17-.849-4.683-1.043-7.174-.902q-.923 0-1.84.04c-5.999.039-14.569 6.998-9.221 15.537 2.601 4.168 6.496 6.506 11.29 7.368zm7.627-17.056c.177-.273.375-.533.577-.788.462 2.333.04 5.933-.251 7.342-.554 2.403-1.364 5.51-3.305 7.17a42 42 0 0 1-.154-2.364c-.181-3.908.977-8.068 3.133-11.36m-18.394 3.811c.128-3.226 2.514-6.012 5.573-6.906 2.632-.713 5.422-.642 8.121-.466.95.092 1.95.233 2.931.453.317.04.7.185 1.105.33-3.521 3.596-5.15 10.23-4.754 14.93.044.85.075 1.717.194 2.562a5.4 5.4 0 0 1-1.241.145c-1.691-.096-3.733-.744-5.634-1.681a13 13 0 0 1-2.518-1.8c-1.048-.938-1.884-2.117-2.654-3.293-.88-1.254-1.351-2.737-1.127-4.274z"/><path fill="#fff" d="M106.065 101.901v70.803L7.893 187.823l-.709-96.01z"/><path fill="#FFF7DB" d="M55.746 129.532c-2.473.929-6.844 8.372-6.844 8.372l-11.611-1.528s.282-10.145 12.35-16.167c1.391-.748 5.115 8.865 6.105 9.319z"/><path fill="#646370" d="M81.262 146.151c-6.149 14.442-25.05 16.854-37.479 8.5.365-3.02 4.925-6.616 7.843-7.179 2.008-.388 14.063 9.745 22.272-4.208.502-.854 2.39.673 7.368 2.887z"/><path fill="#A7A6B5" d="M50.817 146.368s0 1.932-7.685 7.487c-6.893-4.485-6.893-16.796-6.893-16.796l12.659.849 1.914 8.464z"/><path fill="#0D0C21" d="M82.732 138.053c1.563 8.574-1.72 7.425-8.332 5.282-.493-3.821-1.77-9.345-5.414-12.73-3.68 1.801 3.398-11.157 4.494-8.741 4.811 4.098 8.297 9.921 9.248 16.193z"/><path fill="#FED980" d="M70.698 120.205c2.417.774-.448 3.266-.721 4.789-2.681 8.006-4.001 2.002-13.042 3.701-2.888-.669-3.909-5.55-5.894-7.782 1.844-4.027 15.718-2.06 19.657-.708"/><path fill="#0D0C21" d="M78.375 152.722c1.853-2.051 3.31-4.415 4.208-6.91a20.7 20.7 0 0 0 1.017-3.988q.067-.469.114-.938c.013-.136.035-.281.04-.422l.013-.19.026-.444a19 19 0 0 0-.22-3.869 21 21 0 0 0-.942-3.658c-.907-2.548-2.381-4.991-4.291-7.073a24 24 0 0 0-3.02-2.782 25 25 0 0 0-2.333-1.589c-.127-.075-.26-.163-.4-.233a.85.85 0 0 0-.568-.132 23 23 0 0 0-2.496-1.228c-1.479-.616-3.032-1.131-4.63-1.461a27 27 0 0 0-2.491-.414 30 30 0 0 0-2.553-.176c-1.712-.04-3.464.07-5.154.374-1.748.317-3.478.757-5.12 1.408-1.676.661-3.283 1.471-4.762 2.452-.379.251-.757.506-1.118.779-.167.128-.334.251-.497.383-.137.11-.295.216-.423.339l-.308.255a16 16 0 0 1-.304.26c-2.667 2.333-4.727 5.251-5.942 8.433a20.4 20.4 0 0 0-1.228 5.137c-.185 1.756-.101 3.526.185 5.269.137.84.335 1.681.599 2.495.264.819.554 1.633.92 2.421.726 1.549 1.606 3.028 2.693 4.393a23.9 23.9 0 0 0 8.139 6.501 26 26 0 0 0 4.797 1.805 32 32 0 0 0 2.465.537 27 27 0 0 0 2.35.29 26.4 26.4 0 0 0 6.053-.185.4.4 0 0 0 .075-.009h.017q.064-.005.128-.017h.009a1 1 0 0 0 .154-.027 26 26 0 0 0 3.785-.876 25.3 25.3 0 0 0 4.204-1.721c1.373-.717 2.676-1.531 3.864-2.469a24 24 0 0 0 2.936-2.729zm-6.44-29.688c.137-.238.273-.476.392-.718.141.084.282.172.423.255.449.287.893.59 1.32.903a23 23 0 0 1 2.09 1.752 23 23 0 0 1 1.74 1.875 23 23 0 0 1 1.465 2.033q.654 1.054 1.175 2.161.488 1.07.85 2.179.347 1.11.563 2.245.207 1.149.273 2.311c.04.801.027 1.597-.03 2.399a22 22 0 0 1-.309 2.187 21 21 0 0 1-.647 2.337c-2.139-.814-4.291-1.734-6.576-2.465l-.264-.074c.194-.722.317-1.462.348-2.201.044-1.021-.03-2.047-.277-3.046a11.2 11.2 0 0 0-1.123-2.87 12.4 12.4 0 0 0-2.029-2.658 12.6 12.6 0 0 0-2.887-2.135c.25-.471.501-.938.748-1.409.599-1.131 1.18-2.266 1.796-3.376.281-.506.625-1.096.96-1.685m1.171 16.862q-.025.687-.136 1.36-.118.645-.322 1.285-.205.616-.484 1.211c-.193.396-.413.779-.651 1.157q-.356.535-.77 1.03-.417.484-.885.92-.522.474-1.096.889c-.361.256-.74.489-1.131.713q-.634.344-1.308.621-.665.264-1.364.462c-.502.132-1.008.238-1.527.317q-.771.106-1.55.128-.74.013-1.479-.053a14 14 0 0 1-1.571-.251 14 14 0 0 1-1.44-.414 14 14 0 0 1-1.377-.585q-.661-.342-1.276-.748a13 13 0 0 1-1.11-.854 13 13 0 0 1-1.078-1.083 11 11 0 0 1-.832-1.114 12 12 0 0 1-.704-1.289 10 10 0 0 1-.502-1.374c-.123-.462-.22-.928-.282-1.399q-.08-.721-.061-1.448.032-.753.163-1.493.15-.725.396-1.43c.176-.467.374-.92.612-1.365q.363-.661.814-1.276.449-.593.964-1.14.633-.639 1.347-1.206c.374-.286.761-.563 1.166-.814l.423-.264c.048.008.092.022.14.022.163.004.33-.022.485-.088a.8.8 0 0 0 .176-.102h.052c.133 0 .265-.017.383-.057.01 0 .018 0 .023-.009a.7.7 0 0 0 .167-.075 8 8 0 0 1 .567-.189q.729-.216 1.475-.347a15 15 0 0 1 1.514-.168 14 14 0 0 1 1.616.022c.488.04.977.11 1.456.198.471.097.951.22 1.418.366.457.149.906.325 1.342.519q.643.297 1.246.66a12 12 0 0 1 1.135.797q.557.449 1.048.951c.242.251.537.589.814.946q.398.527.722 1.087.33.582.581 1.189c.15.378.29.792.4 1.21.11.44.19.889.243 1.338q.06.613.048 1.233zm-20.88-19.891a29 29 0 0 1 2.975-.752 32 32 0 0 1 2.654-.352c.484-.036.968-.066 1.452-.071q.78-.006 1.545.013a45 45 0 0 1 1.567.11c.462.044.92.11 1.378.176 1 .168 1.976.379 2.945.643.941.277 1.857.594 2.76.955q.744.318 1.456.669l-.013.018c-.15.207-.286.418-.427.634-.339.519-.66 1.047-.973 1.584-.686 1.18-1.32 2.403-1.967 3.623-.264.493-.533.99-.797 1.487a14.6 14.6 0 0 0-4.529-.972 14.8 14.8 0 0 0-5.031.612c-.176.052-.348.11-.52.162-.532-.858-1.073-1.716-1.615-2.583-.633-1.008-1.267-2.021-1.919-3.037-.383-.599-.77-1.206-1.166-1.805-.18-.273-.361-.55-.542-.823.26-.093.515-.194.78-.282zm-14.319 14.253q.381-1.334.92-2.615.653-1.437 1.497-2.782c.528-.788 1.1-1.536 1.712-2.267a26 26 0 0 1 2.385-2.332 28 28 0 0 1 2.342-1.708 28 28 0 0 1 2.716-1.479c.088-.04.176-.07.264-.11q.217.368.436.731c.347.585.7 1.162 1.051 1.743q.918 1.485 1.836 2.957.985 1.571 1.963 3.121c-.788.348-1.54.766-2.223 1.268-2.21 1.62-3.728 3.9-4.362 6.408-3.49-.484-7.139-.81-10.845-1.395q-.013 0-.03-.009.138-.767.33-1.527zm5.326 18.328a25 25 0 0 1-1.681-1.818 24 24 0 0 1-1.761-2.558 24 24 0 0 1-1.237-2.557 22 22 0 0 1-.827-2.694 22 22 0 0 1-.4-2.693 23 23 0 0 1 .008-2.641c.74.176 1.558.211 2.28.343 2.817.365 5.577.66 8.27.96q.14.038.273.057a10.9 10.9 0 0 0 .955 5.282c.383.823.859 1.611 1.435 2.337-.374.295-.744.594-1.118.889a370 370 0 0 0-3.864 3.103c-.665.541-1.334 1.083-1.98 1.651-.124.11-.234.229-.349.339zm32.254.783a25 25 0 0 1-2.108 1.629q-1.094.733-2.276 1.36c-.783.4-1.584.761-2.416 1.091q-1.268.474-2.588.837-1.328.335-2.694.545h-.026l-.088.014q-.026-.001-.053.004l-.11.018c-.084.008-.167.022-.255.03-.828.106-1.664.163-2.505.19a29 29 0 0 1-2.83-.093l-.167-.013c-1-.106-1.99-.255-2.976-.467a28 28 0 0 1-2.86-.814 27 27 0 0 1-2.897-1.237 27 27 0 0 1-2.804-1.685 28 28 0 0 1-1.325-1.03c.374-.242.722-.511 1.066-.779a214 214 0 0 0 4.163-3.332c.691-.559 1.37-1.118 2.051-1.673a12.6 12.6 0 0 0 2.008 1.558c2.086 1.303 4.582 2.051 7.1 2.126a14.6 14.6 0 0 0 6.263-1.184c2.143-.929 3.992-2.368 5.308-4.124a12 12 0 0 0 1.386-2.403 39 39 0 0 1 2.192.752c1.559.572 3.064 1.219 4.6 1.708-.132.299-.264.599-.414.894a22 22 0 0 1-1.29 2.183 21 21 0 0 1-1.645 2.095 24 24 0 0 1-1.827 1.804zm5.743-26.269a.8.8 0 0 0 .383-.102c.11-.061.212-.149.3-.242.154-.154.29-.325.43-.497.604-.74 1.15-1.523 1.691-2.307q.824-1.194 1.642-2.39c.871-1.263 1.716-2.548 2.606-3.798.026-.031.048-.071.07-.11.03 0 .062.009.097.013q.824.065 1.655.097c1.074.048 2.152.092 3.226.141q2.556.112 5.11.158a1 1 0 0 0 .115.009h.013c.097 0 .185-.009.277-.031a.986.986 0 0 0 .608-1.421.97.97 0 0 0-.603-.463v-.004a1.2 1.2 0 0 0-.278-.035h-.127c-1.268-.022-2.535-.04-3.803-.04-1.255 0-2.505.005-3.76.013-.655.005-1.31.005-1.966.022a16 16 0 0 0-1.017.053c-.242.027-.537.057-.749.207a.97.97 0 0 0-.396.326c-.114.176-.242.365-.37.554q-1.53 2.247-3.054 4.499c-.524.766-1.048 1.531-1.55 2.315-.281.444-.567.889-.827 1.347-.233.418-.598.99-.238 1.444a.61.61 0 0 0 .507.237zm6.471-12.607c3.494.106 6.875.013 10.4.15 1.268.057 1.29-1.827.027-1.805-3.293.027-6.59-.237-9.939 0-.449.075-1.008.242-1.109.762-.084.436.211.792.62.893m4.419-4.948-2.2-.053q-.653-.013-1.307-.022c-.29 0-.647-.044-.929.058-.3.11-.532.339-.603.66a.886.886 0 0 0 .7 1.052c.172.039.343.048.528.057q.392.021.784.035c.572.022 1.148.044 1.72.062l3.368.106c1.589.044 3.182.083 4.771.11h.471c.273.017.541.035.814.044h.035c.493 0 .934-.348.973-.859.04-.488-.347-.999-.858-1.012-.225-.004-.445 0-.67-.004h-.224a128 128 0 0 0-3.446-.128q-1.968-.06-3.935-.106zm7.55 54.459a1 1 0 0 0-.432-.106c-.083 0-.171.005-.25.022-.102 0-.203 0-.304.009q-3.684.114-7.369.26-2.159.086-4.317.211l-1.58.093a.9.9 0 0 0-.155-.234c-.14-.149-.268-.308-.4-.462-.168-.193-.34-.392-.506-.581-.388-.449-.78-.898-1.167-1.342a193 193 0 0 0-2.821-3.213 34 34 0 0 0-1.03-1.105c-.295-.299-.59-.608-.964-.81-.211-.106-.45-.172-.674-.04-.717.427-.061 1.303.273 1.752a36 36 0 0 0 1.228 1.549c.005.009.014.014.018.023.132.158.273.33.414.497 1.17 1.4 4.48 5.806 4.753 5.819.586.022 12.474-.511 14.61-.55q.105.02.22.013a.7.7 0 0 0 .14-.018c.136-.017.269-.066.387-.136h.005a1 1 0 0 0 .189-.159.953.953 0 0 0-.269-1.479z"/><path fill="#0D0C21" d="M88.82 162.002h.127c.819 0 1.638-.022 2.452-.035 2.47-.044 4.943-.115 7.412-.115.159 0 .313.009.471.009.515 0 .924-.497.898-.99-.026-.528-.475-.907-.99-.898-1.594.026-3.187.039-4.785.066-1.36.022-2.716.057-4.076.097q-.984.032-1.963.07c-.343.013-.686.026-1.025.066-.4.044-.814.088-1.074.44-.225.304-.154.735.11.986.312.3.836.278 1.241.286q.6.02 1.202.018m8.944-5.803c-3.337-.044-7.355.022-10.683.339-1.052.036-1.36 1.453-.255 1.699 2.267.075 4.542-.171 6.809-.193 1.303-.036 3.248-.031 4.551-.014.748.049 2.003.221 1.994-.946-.11-1.224-1.571-.832-2.416-.885m-61.486-5.2a1 1 0 0 0-.118.123c-.172.202-.273.475-.383.713q-.19.422-.374.845-.363.827-.705 1.659a193 193 0 0 0-1.655 4.178c-.585 1.509-1.166 3.023-1.751 4.537-.762 1.977-1.541 3.949-2.29 5.929l-.444.014q-.468.02-.937.035a314 314 0 0 0-6.052.215q-1.645.078-3.284.181c-.537.035-1.078.075-1.615.123-.273.027-.55.044-.82.093-.25.048-.554.101-.725.308-.168.202-.203.519-.01.726.146.154.33.224.538.264.198.035.4.053.603.066q.54.026 1.083.031.856.013 1.712.013h.664c2.113-.017 4.221-.062 6.33-.123 1.157-.031 2.315-.093 3.477-.093a.95.95 0 0 0 .638-.22.9.9 0 0 0 .234-.308c.158-.11.29-.268.365-.458.255-.655.502-1.316.753-1.976q1.591-4.179 3.178-8.358c.54-1.431 1.087-2.861 1.602-4.301q.329-.916.638-1.839.146-.441.29-.89c.11-.352.287-.752.194-1.126-.123-.485-.748-.652-1.122-.348z"/><path fill="#0D0C21" d="M27.832 165.694a.8.8 0 0 0-.255-.181 1.2 1.2 0 0 0-.41-.105.8.8 0 0 0-.431.07h-.062c-.554 0-1.157.022-1.76.053-.986.048-1.972.097-2.958.158-1.048.066-2.095.128-3.134.242-.577.067-1.158.119-1.73.207a5.5 5.5 0 0 0-.805.163c-.251.075-.52.185-.555.484-.026.212.15.375.326.445.246.097.52.119.779.145.264.027.524.04.788.049q.812.025 1.624.039h.665c.889 0 1.782-.022 2.671-.044a112 112 0 0 0 4.261-.176c.14.044.29.053.44.022.273-.053.515-.198.665-.422a.85.85 0 0 0 .163-.449.86.86 0 0 0-.282-.7m-.247-3.476a2 2 0 0 0-.347-.022.7.7 0 0 0-.22.036c-.102 0-.198.004-.3.004h-.176c-.348-.004-.744.004-1.14.013-.515.009-1.03.013-1.545.027a279 279 0 0 0-3.882.101c-.783.026-1.571.044-2.35.092-.242.014-.489.036-.731.066a1.7 1.7 0 0 0-.405.097.76.76 0 0 0-.524.748c.01.216.11.405.269.537l.022.018s.009.004.013.013c.009.009.018.013.03.022q.017.012.032.018c.299.18.695.18 1.038.189q.481.013.969.013c.348 0 .7 0 1.047-.004a295 295 0 0 0 3.39-.044 303 303 0 0 0 2.86-.071c.3-.004.6-.004.894-.026q.28-.02.559-.026a1.1 1.1 0 0 0 .462.004l-.004-.009a.9.9 0 0 0 .598-.369c.361-.511.088-1.321-.559-1.431zM16.37 111.426c.67.101 1.338.184 2.008.264 2.407.277 4.824.475 7.244.638 1.1.075 2.206.141 3.306.216q.7.046 1.4.105c.207.018.418.031.625.053l.145.04h.022c.4.493.814.977 1.228 1.457.691.801 1.382 1.606 2.082 2.398.893 1.013 1.796 2.016 2.698 3.02.295.326.59.656.89.981.166.185.338.37.505.555.049.053.102.11.154.163q.074.124.18.229c.137.132.274.251.463.312a.94.94 0 0 0 1.166-.59.9.9 0 0 0-.044-.677q-.035-.073-.083-.146l-.053-.079c-.013-.013-.057-.079-.11-.141a.8.8 0 0 0-.194-.176q-.164-.19-.334-.383c-.203-.224-.4-.449-.603-.673-.498-.555-.995-1.105-1.492-1.66a225 225 0 0 0-3.13-3.393c-.797-.845-1.589-1.686-2.407-2.509a.87.87 0 0 0-.815-.449 1 1 0 0 0-.15.018c-.268-.009-.54-.036-.81-.049a74 74 0 0 1-1.668-.127c-2.324-.194-4.648-.401-6.976-.533a114 114 0 0 0-3.662-.154 63 63 0 0 0-1.791-.018c-.3 0-.604 0-.903.022-.229.014-.488.027-.686.154-.018.014-.036.022-.049.036l-.04.035c-.118.136-.158.343-.043.497.193.264.563.317.867.374.347.071.704.124 1.056.176zm-.497-3.194c.114.053.242.083.365.114q.259.06.524.102c1.285.198 2.584.312 3.878.422 1.386.119 2.777.22 4.164.321q1.774.125 3.543.242.62.039 1.241.084a.8.8 0 0 0 .326.084c.11.004.22.004.334.009.053 0 .106.008.159.008h.053c.07-.008.14-.022.202-.039a.9.9 0 0 0 .524-.352.94.94 0 0 0 .03-1 .92.92 0 0 0-.616-.422c-.079-.013-.154-.018-.228-.031a7 7 0 0 0-.3-.035.9.9 0 0 0-.343.035c-.73-.044-1.461-.11-2.192-.167a645 645 0 0 0-4.155-.304 170 170 0 0 0-3.922-.238 75 75 0 0 0-1.91-.066 11 11 0 0 0-1.012.009 3.2 3.2 0 0 0-.617.084.61.61 0 0 0-.431.528.62.62 0 0 0 .374.616zm.101-3.382c.141.088.277.14.44.18.33.079.678.11 1.013.15 2.53.308 5.075.506 7.61.726q1.741.153 3.482.299c.47.04.942.075 1.413.119q.105.038.224.044h.132l.15.004h.061c.022 0 .049 0 .07-.004h.01c.013 0 .021 0 .035-.004a.92.92 0 0 0 .594-.37c.339-.471.136-1.197-.427-1.387a1.6 1.6 0 0 0-.273-.057 3 3 0 0 0-.18-.031 1 1 0 0 0-.225 0l-.383-.035c-2.077-.176-4.155-.361-6.232-.541a278 278 0 0 0-3.856-.308 94 94 0 0 0-1.998-.128c-.335-.018-.678-.044-1.013-.031a1.5 1.5 0 0 0-.396.053.81.81 0 0 0-.528.475c-.123.291.018.683.277.846"/><path fill="#0D0C21" d="M106.976 104.166c-.009-.4-.022-.801-.053-1.197-.017-.247-.035-.533-.119-.779a.99.99 0 0 0-.07-1.219 1.06 1.06 0 0 0-.7-.339c-1.113-.115-2.227-.234-3.336-.348l-11.317-1.18-12.403-1.294c-4.164-.431-8.323-.867-12.487-1.303l-12.07-1.258-12.53-1.308-12.114-1.258a5427 5427 0 0 0-11.94-1.233c-1.894-.194-3.782-.392-5.679-.555-.933-.079-1.87-.154-2.804-.215-.449-.031-.906-.07-1.355-.07-.212 0-.423 0-.625.061a1 1 0 0 0-.238.119.74.74 0 0 0-.541.215c-.683 1.413-.185 3.205-.361 4.754-.146 30.547-.12 61.12-.049 91.658.194.81 1.237.92 1.717.392q.244-.014.488-.036.615-.044 1.228-.11c1.981-.22 3.957-.493 5.934-.761q2.957-.397 5.915-.814a3776 3776 0 0 0 12.245-1.726c4.173-.594 8.35-1.184 12.523-1.782 4.062-.577 8.12-1.158 12.183-1.739q6.198-.884 12.395-1.774c4.085-.585 8.17-1.166 12.254-1.752 4.08-.585 8.16-1.166 12.236-1.751 3.596-.515 7.192-1.026 10.788-1.545a.95.95 0 0 0 .661-.449c.211-.185.352-.454.352-.753v-20.841c-.027-15.943.07-31.885-.119-47.823zm-1.695-1.426c-.418 23.13-.096 46.278-.189 69.412l-1.008.146c-3.939.563-7.879 1.131-11.818 1.694q-6.06.867-12.126 1.739L67.79 177.5l-12.242 1.756-12.324 1.77q-6.232.896-12.465 1.8-6.105.884-12.21 1.787-2.957.437-5.907.894c-.96.149-1.923.299-2.883.462q-.692.117-1.377.259l-.238.053c.022-1.32-.031-2.649 0-3.974v-14.151c0-18.148 0-36.291-.009-54.439-.04-7.156.035-14.322-.154-21.48q.02.001.035.01c.55.097 1.105.171 1.66.246q1.645.227 3.296.414c3.878.445 7.765.84 11.651 1.25 4.01.423 8.024.84 12.034 1.259 4.08.427 8.165.854 12.245 1.276 4.116.427 8.231.859 12.342 1.286l12.505 1.302q6.172.647 12.346 1.286 5.918.612 11.836 1.232c2.452.255 4.908.515 7.359.77-.004.058-.013.115-.013.172z"/><path fill="#fff" d="M231.535 93.557c-3.944-.286-6.857-4.19-6.532-8.715l1.501-20.828c.326-4.52 3.772-7.971 7.681-7.69.018 0 .031 0 .048.005l62.172 8.108c3.9.295 6.801 4.199 6.475 8.71l-.625 14.574c-.326 4.551-3.764 7.998-7.668 7.729l-63.047-1.893z"/><path fill="#0D0C21" d="M302.88 73.147c.326-4.511-2.579-8.415-6.475-8.71l-62.172-8.108s-.03 0-.048-.004c-3.909-.282-7.355 3.169-7.681 7.69l-1.501 20.827c-.325 4.52 2.588 8.43 6.532 8.715l63.048 1.893c3.904.269 7.337-3.178 7.667-7.73l.625-14.573zm-8.152 20.107h-.035l-63.03-1.893c-2.866-.207-5-3.068-4.763-6.382l1.501-20.828c.238-3.301 2.747-5.824 5.604-5.634l62.167 8.107s.031 0 .048.005c2.866.207 5 3.068 4.758 6.417l-.625 14.574c-.237 3.31-2.764 5.84-5.625 5.634"/><path fill="#0D0C21" d="m293.83 69.066-57.119-7.109c-2.861-.207-5.383 2.32-5.62 5.63l-1.035 14.375c-.237 3.31 1.893 6.167 4.785 6.378l57.444 1.972c2.853.194 5.366-2.324 5.608-5.665l.665-9.204c.237-3.31-1.893-6.166-4.723-6.373zm2.161 15.48c-.149 2.1-1.751 3.702-3.565 3.57h-.031l-57.431-1.968c-1.813-.132-3.169-1.945-3.015-4.045l1.034-14.375c.15-2.1 1.752-3.702 3.535-3.575l57.119 7.109c1.813.132 3.169 1.945 3.015 4.08l-.665 9.204z"/><path fill="#0D0C21" d="M249.85 74.937c-.035 0-.066 0-.101-.004h-.079c-.044 0-.088-.009-.132-.009l-.507-.027-1.382-.066c-.488-.022-.99-.048-1.483-.07a88 88 0 0 0 2.218-1.857c.625-.445.744-1.33-.149-1.616-.815-.176-1.312.634-1.889 1.013-.515.418-1.016.823-1.522 1.228.013-.361.03-.722.039-1.087.013-.471.031-.942.04-1.413l.004-.573c0-.246.009-.515-.141-.735a.8.8 0 0 0-.132-.163c-.356-.338-.99-.334-1.298.022-.22.26-.22.612-.247.934a42 42 0 0 0-.066.999q-.047.805-.088 1.624a32 32 0 0 0-3.327-2.641c-.713-.502-1.796-.062-1.541.77.11.33.449.537.726.762a56 56 0 0 1 3.02 2.535q-.996-.045-1.998-.08a60 60 0 0 0-1.99-.043c-.282 0-.568 0-.845.026-.321.031-.634.119-.814.366-.137.189-.124.43 0 .629.163.264.497.36.805.418.233.044.476.066.713.093.454.044.907.074 1.356.105.216.013.436.031.651.044.572.035 1.132.062 1.699.093l-.171.132c-1.136.862-2.32 1.685-3.451 2.583-.401.317-.343.907.022 1.22 1.03.774 1.901-.55 2.694-1.004q1.153-.853 2.266-1.699c-.052 1.276-.101 2.553-.167 3.825v.079c-.022.45.436.819.916.84h.061c.454-.008.911-.342.938-.765 0-.04.004-.075.009-.114.008-.3.026-.599.039-.898l.132-3.099a317 317 0 0 1 3.152 3.235 1 1 0 0 0 .629.313c.784.097 1.329-.82.819-1.365-.405-.444-.828-.871-1.25-1.307-.559-.572-1.118-1.153-1.682-1.734l1.118.052c.749.036 1.493.067 2.236.102q.033-.001.066.004h.093c.061 0 .15-.009.242-.022a.834.834 0 0 0 .669-.911.915.915 0 0 0-.898-.744zm15.397 1.173q-.045.001-.088-.005h-.071a1 1 0 0 1-.114-.009l-.445-.022q-.601-.032-1.21-.057c-.427-.022-.867-.04-1.299-.061a89 89 0 0 0 1.95-1.743c.55-.419.656-1.25-.123-1.51-.713-.163-1.149.598-1.659.955q-.673.587-1.338 1.153c.013-.339.03-.678.039-1.017.013-.44.031-.88.04-1.32 0-.176.004-.357.004-.537 0-.229.009-.48-.119-.687a.7.7 0 0 0-.114-.15c-.313-.312-.863-.307-1.131.027-.194.242-.194.572-.22.872-.027.312-.044.62-.062.933q-.045.753-.084 1.514a27 27 0 0 0-2.891-2.452c-.621-.462-1.563-.053-1.347.722.092.308.387.502.629.709a50 50 0 0 1 2.619 2.355q-.865-.04-1.743-.067a56 56 0 0 0-1.734-.035c-.247 0-.493 0-.74.027-.281.026-.55.11-.708.343a.55.55 0 0 0-.005.585c.141.247.432.335.7.388.207.04.414.061.621.083q.592.058 1.184.097l.568.04c.497.03.986.053 1.478.079-.052.044-.096.084-.149.123-.995.806-2.029 1.58-3.02 2.421-.347.295-.303.85.014 1.136.893.722 1.659-.52 2.35-.938q1.009-.797 1.985-1.589a301 301 0 0 1-.163 3.574v.079c-.022.423.379.766.797.784h.057c.396-.009.797-.321.823-.718 0-.035.005-.07.005-.105.008-.282.026-.56.039-.84q.067-1.45.128-2.897a416 416 0 0 1 2.742 3.02.83.83 0 0 0 .55.29c.682.088 1.171-.766.722-1.276-.352-.414-.722-.815-1.087-1.22-.489-.532-.973-1.074-1.466-1.615.326.017.656.03.977.048.656.031 1.308.058 1.955.093.017 0 .039 0 .057.004h.079c.057 0 .132-.009.211-.026.388-.075.639-.484.59-.854-.048-.37-.392-.709-.783-.696zm14.195 1.277h-.141a1 1 0 0 1-.101-.009q-.193-.012-.392-.017l-1.065-.053-1.14-.053a76 76 0 0 0 1.725-1.642c.484-.392.585-1.175-.101-1.417-.625-.15-1.017.568-1.461.902-.397.37-.788.73-1.184 1.087l.039-.95c.013-.414.031-.823.04-1.237 0-.167.009-.335.009-.502 0-.216.008-.449-.106-.643a.7.7 0 0 0-.101-.14c-.273-.29-.757-.286-.995.03-.172.23-.176.537-.198.82q-.034.434-.062.875c-.031.47-.053.946-.079 1.422a24 24 0 0 0-2.527-2.285c-.541-.431-1.368-.04-1.184.682.08.291.339.467.551.66a46 46 0 0 1 2.293 2.201c-.511-.021-1.017-.048-1.532-.061-.502-.013-1.012-.03-1.518-.026-.216 0-.432 0-.647.026-.247.026-.485.105-.625.326a.56.56 0 0 0-.009.55c.123.229.374.312.612.36.18.04.361.058.541.075.343.036.691.062 1.034.089.168.013.33.022.498.035q.652.038 1.298.07c-.044.04-.088.075-.132.115-.876.757-1.787 1.483-2.658 2.27-.309.278-.269.793.008 1.066.779.673 1.457-.489 2.065-.885q.89-.752 1.747-1.496a289 289 0 0 1-.158 3.35v.065c-.022.397.33.718.695.735h.049c.347-.008.699-.303.726-.673 0-.035.004-.066.004-.101.009-.264.027-.524.035-.788l.128-2.716q1.215 1.414 2.403 2.822c.128.15.286.25.48.272.603.084 1.034-.721.643-1.201-.308-.388-.634-.762-.955-1.14q-.64-.748-1.286-1.514l.859.04c.576.026 1.153.048 1.721.079h.123c.048 0 .114-.01.185-.022.343-.075.563-.458.523-.806-.039-.343-.343-.665-.691-.647zm12.328 1.186h-.123c-.031 0-.062-.004-.092-.004-.115-.004-.229-.013-.344-.018q-.47-.024-.946-.044c-.335-.017-.673-.03-1.012-.048a56 56 0 0 0 1.531-1.554c.432-.37.524-1.105-.083-1.333-.555-.137-.903.537-1.299.853q-.529.523-1.052 1.026l.04-.893c.013-.388.031-.775.04-1.163 0-.158.008-.312.008-.47 0-.203.009-.423-.088-.603a.5.5 0 0 0-.088-.133.56.56 0 0 0-.88.036c-.154.215-.154.506-.176.77-.022.273-.04.55-.057.823-.027.44-.053.89-.075 1.334a22 22 0 0 0-2.223-2.135c-.475-.4-1.21-.03-1.047.647.07.273.299.436.484.616q1.05.998 2.016 2.06c-.454-.017-.898-.04-1.356-.053a45 45 0 0 0-1.338-.022c-.189 0-.383 0-.568.027-.216.026-.427.1-.55.308a.55.55 0 0 0-.009.515c.106.216.33.29.537.339.159.035.317.053.48.07q.456.045.911.08c.145.008.295.021.44.03.387.027.766.044 1.149.062a3 3 0 0 0-.119.11c-.775.713-1.584 1.4-2.355 2.143-.273.26-.242.749 0 1 .687.629 1.285-.463 1.827-.837.524-.47 1.043-.942 1.549-1.408q-.07 1.577-.154 3.147v.066a.667.667 0 0 0 .612.69h.044a.704.704 0 0 0 .647-.633q-.001-.046.004-.092.014-.37.036-.74.058-1.276.123-2.553 1.07 1.329 2.113 2.65c.11.14.25.238.427.255.532.08.919-.682.576-1.13-.273-.366-.559-.718-.841-1.075-.374-.466-.752-.942-1.131-1.417.251.013.511.026.762.035q.767.032 1.527.07h.106a1 1 0 0 0 .163-.022c.303-.07.501-.43.466-.761-.035-.326-.304-.625-.607-.607z"/><path fill="#FFF7DB" d="M151.863 18.841c7.694 18.53-7.21 40.204-23.685 39.504-19.19-.814-30.141-35.807-14.481-49.355 6.158-7.42 16.717-10.022 24.908-5.295 6.18 1.427 10.023 9.182 13.258 15.146"/><path fill="#FED980" d="M130.894 48.929c-8.882-3.284-17.778-25.071-14.336-27.29 6.479-4.177 9.094-5.444 12.826-9.05 2.857 1.242 8.944 5.516 14.9 8.606 1.69 12.007-5.586 23.434-13.39 27.738z"/><path fill="#0D0C21" d="M154.407 27.874c-.106-2.007-.418-3.988-.85-5.925a31 31 0 0 0-.752-2.72 32 32 0 0 0-3.583-7.588c-1.928-2.997-4.38-5.506-7.1-7.386a23 23 0 0 0-4.436-2.381 18 18 0 0 0-2.285-.762c-.801-.206-1.606-.391-2.421-.501-3.098-.427-6.245-.18-9.256.818a21.5 21.5 0 0 0-3.962 1.761 22.4 22.4 0 0 0-3.164 2.161.76.76 0 0 0-.22.304c-2.566 2.06-4.763 4.767-6.493 7.843-.924 1.642-1.685 3.403-2.324 5.234a30 30 0 0 0-.823 2.795 36 36 0 0 0-.576 2.848 37 37 0 0 0-.445 5.836c.009 1.976.198 3.935.524 5.872a32.8 32.8 0 0 0 3.812 10.735c1.848 3.248 4.26 6.065 7.025 8.16a24.5 24.5 0 0 0 4.335 2.628c1.545.73 3.16 1.22 4.793 1.558.793.163 1.598.26 2.399.322q.748.06 1.497.061.42 0 .84-.022a23 23 0 0 0 2.492-.26 22 22 0 0 0 2.407-.554c1.624-.475 3.191-1.166 4.701-2.02a23 23 0 0 0 2.161-1.409c.33-.237.652-.497.973-.752a20 20 0 0 0 1.004-.859 28 28 0 0 0 1.879-1.888 31 31 0 0 0 1.708-2.095c1.109-1.479 2.077-3.125 2.905-4.855a32.4 32.4 0 0 0 2.02-5.41c.255-.928.48-1.866.656-2.82q.276-1.492.44-3.003c.207-1.892.22-3.812.123-5.713zm-1.651 4.137a34 34 0 0 1-.171 1.893 53 53 0 0 1-.273 1.844 38 38 0 0 1-.335 1.629 38 38 0 0 1-.418 1.624q-.268.911-.576 1.805a31 31 0 0 1-.652 1.685 32 32 0 0 1-.717 1.572q-.37.726-.757 1.439a28 28 0 0 1-.876 1.448q-.455.686-.929 1.351c-.334.445-.665.885-1.021 1.303a50 50 0 0 1-1.109 1.242c-.361.365-.722.726-1.096 1.07-.339.312-.691.61-1.039.906q-.587.47-1.193.906c-.383.273-.779.529-1.171.784-.506.304-1.016.607-1.536.867a31 31 0 0 1-1.584.726c-.449.172-.898.344-1.352.489q-.68.216-1.36.392c-.532.123-1.065.242-1.602.321q-.806.112-1.611.185c-.502.026-1.003.044-1.51.044-.471 0-.946-.031-1.417-.07a24 24 0 0 1-2.936-.49 23 23 0 0 1-1.531-.448 24 24 0 0 1-1.515-.577 27 27 0 0 1-2.504-1.285 24 24 0 0 1-1.453-.955q-.68-.495-1.333-1.03a29 29 0 0 1-2.161-2.047 31 31 0 0 1-1.959-2.372 31 31 0 0 1-1.8-2.813 35 35 0 0 1-1.514-3.13 37 37 0 0 1-1.184-3.415 39 39 0 0 1-.815-3.684 41 41 0 0 1-.374-3.512 39 39 0 0 1 .009-3.658q.125-1.926.44-3.82a39 39 0 0 1 .792-3.438 38 38 0 0 1 1.193-3.385 35 35 0 0 1 1.519-3.112 32 32 0 0 1 1.822-2.821 30 30 0 0 1 2.179-2.593 28 28 0 0 1 1.87-1.76.7.7 0 0 0 .295-.128 27 27 0 0 1 2.386-1.673 22 22 0 0 1 2.768-1.413 21 21 0 0 1 2.95-.968h.008l.049-.013c.955-.22 1.967-.379 2.984-.467a22 22 0 0 1 2.909 0c1.039.093 2.06.264 3.081.502.991.26 1.964.581 2.927.977q1.373.6 2.685 1.374c.929.576 1.818 1.21 2.685 1.914a28 28 0 0 1 2.245 2.126 30 30 0 0 1 2.06 2.527 32 32 0 0 1 1.725 2.733c.542 1 1.03 2.03 1.479 3.094a40 40 0 0 1 1.088 3.117c.325 1.162.594 2.337.814 3.538.097.581.189 1.167.251 1.757q.1.936.167 1.88c.035.686.057 1.372.057 2.063 0 .656-.026 1.312-.061 1.968z"/><path fill="#0D0C21" d="M137.699 24.761c-.361-.339-.876-.246-1.162.176q-.094.144-.194.286a4097 4097 0 0 0-3.548 5.322 188 188 0 0 0-2.178 3.332q-.458.703-.89 1.435c-.426-.498-.858-.986-1.289-1.484-.784-.902-1.567-1.809-2.377-2.68a13 13 0 0 0-.401-.418 4 4 0 0 0-.435-.379c-.291-.282-.744-.176-.969.167a.99.99 0 0 0 .124 1.193l-.066-.07a1 1 0 0 1-.058-.08c.106.19.225.366.353.537q.012.023.026.044c.185.282.387.55.59.815.383.502.779.99 1.179 1.474.779.947 1.572 1.88 2.36 2.813a.75.75 0 0 0 .576.282.7.7 0 0 0 .291-.067c.022 0 .044.005.061.005.322 0 .568-.304.779-.568q.33-.408.639-.836c1.206-1.65 2.407-3.46 3.618-5.26 1.034-1.545 2.06-3.099 3.103-4.635.286-.422.202-1.078-.146-1.408z"/><path fill="#0D0C21" d="M144.68 20.112c-.053-.563-.564-.85-1.083-.889-.854-.176-1.69-.453-2.483-.748-1.465-.555-2.922-1.17-4.322-1.932-1.765-.951-3.464-2.342-4.93-3.79a21 21 0 0 1-1.047-1.11c-.159-.25-.392-.435-.643-.483-.392-.212-.841.057-1.074.484-.317.413-.651.805-.99 1.188-1.387 1.558-3.011 3.073-4.723 4.155-1.36.867-2.782 1.594-4.217 2.254-.779.352-1.598.69-2.438.933-.52.08-1.013.405-1.035.977-.14.506-.127 1.1-.176 1.624-.303 11.964 5.41 22.642 14.697 26.84a.7.7 0 0 0 .493.054c.207.167.484.22.788.057 9.098-4.776 14.349-15.793 13.543-27.721-.083-.62-.083-1.356-.365-1.897zm-9.481 24.746c-1.356 1.188-2.76 2.13-4.252 2.984-.031-.022-.057-.044-.093-.062-1.584-.774-3.076-1.655-4.529-2.795-5.489-4.392-8.803-12.086-9.159-19.987a32 32 0 0 1-.053-2.262c-.009-.22.004-.45.017-.683 2.153-.43 6.198-2.9 7.03-3.415 1.919-1.255 3.648-2.91 5.246-4.705.15-.198.361-.419.568-.66.238.246.484.475.66.677 1.686 1.673 3.499 3.191 5.48 4.296.872.458 5.141 2.667 7.28 2.883.022.317.066.634.066.933.044.753.049 1.51.044 2.263-.022 7.914-3.006 15.805-8.301 20.533z"/><path fill="#FED980" d="M324.729 147.874c.678 4.481 1.039 9.164.158 13.641-.814 4.106-2.552 7.949-4.502 11.435-2.857 4.753-6.809 8.583-11.29 11.034-3.997 2.294-8.438 3.949-12.928 3.39-3.318-.326-6.672-.964-9.753-2.509-3.548-1.941-6.867-4.516-9.635-7.778-4.323-5.321-5.881-12.227-6.101-19.415-.216-3.966-.172-8.011.841-11.831.251-.801.365-1.867 1.043-2.329 2.306-8.754 8.464-15.718 15.674-18.918 3.477-1.461 7.218-1.941 10.894-1.844 8.688.533 14.353 4.75 20 12.267 2.562 3.746 4.692 8.139 5.595 12.857z"/><path fill="#0D0C21" d="M298.192 179.526c-.053.005-.105.014-.154.018a7.5 7.5 0 0 1-1.039-.013 10 10 0 0 1-1.386-.233 14 14 0 0 1-1.866-.612c-.027-.013-.058-.022-.084-.035-.057-.027-.163-.071-.273-.119a17 17 0 0 1-1.29-.634l-.347-.194c-.093-.053-.185-.114-.278-.163 0 0-.008 0-.008-.004a20 20 0 0 1-2.109-1.466 20 20 0 0 1-1.646-1.496 18 18 0 0 1-1.272-1.497 29 29 0 0 1-.497-.7 34 34 0 0 0-.366-.532c-.127-.185-.259-.366-.435-.484-.229-.221-.551-.278-.832-.084-.282.194-.405.572-.348.924.009.238.057.458.15.682.097.251.202.493.33.722.18.335.378.661.594.964 1.193 1.695 2.711 3.064 4.309 4.186 1.611 1.131 3.367 2.034 5.19 2.575.994.295 2.024.493 3.054.493.291 0 .581-.013.867-.048.524-.062.898-.683.828-1.281-.071-.634-.564-1.035-1.087-.977zm-13.015-8.129.048.053q.028.033.049.066c.013.026.031.052.044.079q.013.027.026.061a.9.9 0 0 0-.172-.259zm11.95-39.51c.832.242 1.651.533 2.461.863 3.472 1.474 6.906 3.887 9.137 7.443.176.229.409.33.643.33.506 0 1.021-.471.999-1.131-.004-.59-.423-1.008-.704-1.439-.669-.96-1.4-1.862-2.219-2.641-3.164-2.945-6.989-5.115-10.99-5.841-.788-.093-1.435.907-.925 1.708.383.55 1.061.501 1.594.713zm-11.633 6.002c.458.44 1.03.136 1.514-.075.555-.22 1.122-.41 1.699-.555 3.724-.801 7.751-.634 11.18 1.409 2.962 1.875 5.638 4.846 7.249 8.376 1.329 3.319 1.99 7.157 1.506 10.819-.793 4.305-4.741 6.607-8.245 6.453-3.736-.295-6.888-4.349-7.095-8.694-.035-1.492-1.901-1.496-1.932 0 .004 1.695.502 3.412 1.21 4.891 1.048 2.297 2.734 4.199 4.772 5.233a8.1 8.1 0 0 0 3.622.836c3.583 0 7.245-2.218 8.865-5.995.889-1.941.977-4.207.854-6.364-.238-4.098-1.387-8.315-3.676-11.497-2.557-3.574-5.88-6.576-9.815-7.606-3.777-.911-7.923-.876-11.515.898-.611.33-.748 1.395-.193 1.875z"/><path fill="#0D0C21" d="M310.191 165.187c-3.455 4.81-9.855 6.148-14.587 3.23-1.54-.937-3.059-2.064-4.137-3.745-1.66-2.738-2.549-6.277-2.078-9.631.176-1.083.718-2.174 1.651-2.522 1.166-.436 2.68-.537 3.512.709 1.373 1.875 1.343 4.582 2.606 6.545.854 1.435 2.302 2.332 3.794 2.297 3.055-.035 5.634-2.702 5.894-6.32.233-4.446-1.682-8.773-4.217-11.942-2.764-3.398-6.928-4.973-10.867-4.441-3.196.497-6.361 2.086-8.605 4.859-.388.48-.92 1.14-.669 1.862.206.581.818.727 1.245.41.458-.366.832-.863 1.25-1.286 3.627-3.737 9.138-4.877 13.495-2.284 2.813 1.752 4.908 4.956 5.912 8.477.77 2.373.977 5.489-.819 7.32-1.721 1.554-4.252 1.637-5.242-.977-.458-1.096-.691-2.293-1.057-3.433-.66-2.179-2.174-4.235-4.26-4.327-4.301-.361-6.083 3.468-5.621 8.064.273 3.336 1.386 6.659 3.367 9.102 2.368 2.698 5.537 4.56 8.821 4.978.471.053.942.084 1.421.084 4.125 0 8.368-2.051 10.894-5.933.594-1.391-1.003-2.36-1.712-1.101z"/><path fill="#0D0C21" d="M307.634 173.32c-3.324 1.386-7.012 2.1-10.516 1.351-4.032-1.043-7.641-4.062-9.96-8.068-2.69-4.639-3.011-12.082.066-16.563 2.236-2.821 6.197-3.477 9.133-1.901 2.429 1.461 4.032 5.22 3.935 8.371.031.449.286.802.651.951 1.814.278 1.233-3.195.898-4.406-.585-1.91-1.395-3.789-2.601-5.264-2.293-2.711-5.841-3.253-8.896-2.368-6.646 1.629-8.283 11.092-6.642 17.804 1.84 7.034 7.426 12.404 13.495 13.764.903.176 1.809.251 2.716.251 2.126 0 4.252-.423 6.312-1.021.885-.37 2.144-.392 2.672-1.418.352-.906-.498-1.884-1.263-1.487z"/><path fill="#0D0C21" d="M326.067 152.99c-.119-2.275-.488-4.525-.995-6.725a34 34 0 0 0-.88-3.086 36 36 0 0 0-1.162-3.055 36 36 0 0 0-3.024-5.559c-2.253-3.402-5.114-6.246-8.292-8.38-1.646-1.109-3.385-1.99-5.181-2.703a21 21 0 0 0-2.672-.862 25 25 0 0 0-2.83-.573c-3.618-.484-7.297-.202-10.81.929a25.7 25.7 0 0 0-4.626 1.998c-1.276.713-2.531 1.514-3.697 2.452a.9.9 0 0 0-.26.343c-2.997 2.338-5.563 5.41-7.584 8.9-1.078 1.866-1.972 3.86-2.716 5.938a34 34 0 0 0-.959 3.173 38 38 0 0 0-.674 3.236 41 41 0 0 0-.519 6.619c.009 2.241.233 4.464.612 6.66a36.5 36.5 0 0 0 4.454 12.179c2.161 3.689 4.978 6.88 8.205 9.261a28.7 28.7 0 0 0 5.066 2.98c1.805.827 3.693 1.382 5.603 1.769a23 23 0 0 0 2.804.366c.581.044 1.166.07 1.752.07a26 26 0 0 0 3.891-.326 26 26 0 0 0 2.812-.629c1.897-.542 3.724-1.325 5.493-2.293.867-.476 1.704-1.026 2.527-1.598.387-.269.761-.564 1.135-.854.397-.308.793-.634 1.171-.977a32 32 0 0 0 2.197-2.144 34 34 0 0 0 1.994-2.377c1.294-1.681 2.429-3.547 3.393-5.506a35.5 35.5 0 0 0 2.359-6.14c.3-1.052.559-2.117.766-3.2.216-1.127.383-2.262.511-3.407.242-2.148.255-4.322.141-6.483zm-1.923 4.692c-.053.718-.11 1.435-.203 2.148q-.138 1.048-.317 2.091-.175.93-.391 1.849c-.146.62-.313 1.232-.485 1.844a50 50 0 0 1-.673 2.046 35 35 0 0 1-.757 1.915c-.269.599-.537 1.202-.836 1.783a52 52 0 0 1-.885 1.633c-.33.554-.66 1.109-1.021 1.642a48 48 0 0 1-1.083 1.531 32 32 0 0 1-1.193 1.479q-.64.721-1.298 1.409c-.418.413-.845.823-1.281 1.214-.396.357-.806.692-1.215 1.03-.458.353-.92.7-1.395 1.03-.449.313-.907.603-1.369.89-.59.347-1.184.686-1.796.981-.612.291-1.228.568-1.849.823-.523.198-1.047.387-1.575.555-.529.167-1.057.308-1.589.444-.621.141-1.241.278-1.871.366q-.938.126-1.884.207-.884.047-1.76.048c-.555 0-1.105-.035-1.655-.079a29 29 0 0 1-3.429-.555 29 29 0 0 1-1.787-.51 28 28 0 0 1-1.77-.656 30 30 0 0 1-2.922-1.462 28 28 0 0 1-1.695-1.082 37 37 0 0 1-1.558-1.171 33 33 0 0 1-2.526-2.324 36 36 0 0 1-2.289-2.69 36 36 0 0 1-2.104-3.191 39 39 0 0 1-1.77-3.547 40 40 0 0 1-1.382-3.878 43 43 0 0 1-.95-4.177 43 43 0 0 1-.436-3.984 43 43 0 0 1 .009-4.15c.096-1.462.268-2.901.515-4.336q.375-1.978.928-3.904a42 42 0 0 1 1.391-3.842 38 38 0 0 1 1.778-3.53 38 38 0 0 1 2.126-3.2 35 35 0 0 1 2.544-2.945c.647-.647 1.4-1.342 2.184-1.998a.76.76 0 0 0 .343-.146 30 30 0 0 1 2.786-1.897 26.5 26.5 0 0 1 3.235-1.602 26 26 0 0 1 3.447-1.1h.008l.058-.018a26 26 0 0 1 3.486-.532 26.5 26.5 0 0 1 3.402 0c1.211.105 2.408.299 3.601.572 1.157.295 2.293.66 3.415 1.109 1.07.453 2.113.973 3.138 1.558a29 29 0 0 1 3.134 2.175 33 33 0 0 1 2.619 2.412 34 34 0 0 1 2.408 2.865c.717.99 1.391 2.02 2.016 3.099a41 41 0 0 1 1.73 3.508 44 44 0 0 1 1.267 3.534c.379 1.321.691 2.654.951 4.014.11.661.22 1.325.295 1.994q.117 1.063.194 2.131c.039.779.066 1.558.066 2.341 0 .744-.031 1.488-.071 2.232z"/><path fill="#FED980" d="M86.012 196.681c.823-6.901-.718-17.038-9.125-18.24-2.126 2.289-5.462 2.509-8.442 2.223-2.487-.352-5.3-1.25-5.863-3.873-8.504-.595-12.412 2.922-15.132 11.342-2.68 13.298 2.148 16.128 4.498 16.088.651 1.858.647 6.404-.198 9.384.053 1.858-2.003 5.551.013 6.426 10.269-.435 22.602.251 32.312-1.725.735-5.696-.515-11.506 1.201-16.986 1.255-.765 1.189-3.442.736-4.639"/><path fill="#FFF7DB" d="M57.454 193.195c-.273 0-4.348-.784-4.428-.779-.026 0-2.698-.119-3.217-1.598-.123-.211.092-.493.33-.414.392.211.726.489 1.114.713a.4.4 0 0 1-.053-.057c-.427-.343-.806-.753-.969-1.29-.044-.145-.035-.312.097-.409.211-.158.502-.004.722.07.845.353 1.62.775 2.403 1.237a.33.33 0 0 1 .203-.097q.066-.001.132.005c-.317-.313-1.021-1.462-1.034-1.695.035-.405.457-.378.7-.149 1.954.669 4.93 4.665 4.01 4.463zm17.039 5.594c-.775.409-1.721.902-2.606.872-.634-.022-1.259.198-1.884.048-1.215-.264-4.397-.026-4.723.11-.114.365-.365.66-.796.44-.705-.453.55-4.666.783-5.18.062-.124.18-.15.29-.124.102-.066 3.024-.361 4.327-.193.775.11 6.726-.265 7.575 2.288.295.172-2.174 1.713-2.962 1.735zm11.325 24.705c.541 3.807.106 3.6-3.742 7.385-3.921 1.594-10.009.705-13.776.388-3.755-1.633-12.743.163-16.797-1.955-1.615-.845-3.059-4.454-.488-9.168 1.285-.563 32.787-.757 33.117-.572.845 2.79 1.25 3.23 1.686 3.922m-11.994 47.912c5.823 1.994.717 10.7-3.323 8.702.017-.524-1.32-4.582-1.32-4.582s2.996-2.672 4.643-4.12m-3.574 10.142c.77 4.213-4.283 3.319-5.256.868-.066-1.788.638-2.131.638-2.131s4.015.396 4.618 1.259z"/><path fill="#313144" d="M61.367 291.898c-5.167-.079-1.677-3.508.132-5.678.709-1.558 1.677-3.143 2.782-3.398.977-.225 1.932 1.408 3.125 1.796 1.193.387 2.25-.771 2.685-.484 2.025 1.329-3.393 9.076-8.728 7.764z"/><path fill="#313144" d="M70.232 289.024c-.968-1.096.075-4.283.084-4.538-.163-1.004-.027-5.858 1.734-3.763 1.95-.573 3.209-1.695 4.327-3.306-.07-.665 0-4.798.233-5.114.541-.581 9.714 1.263 2.75 6.188-.021 3.429-5.343 11.726-9.128 10.533"/><path fill="#fff" d="M70.963 180.76c-3.367.238 0-3.869 1.703-2.504.29-.815 1.092-.577 1.519-1.061.154-.709 1.012-1.144 1.285-.273 3.882 1.448-2.865 4.12-4.507 3.838m-5.471-.977c-1.933-1.399-4.987-3.024-.775-4.287.603 2.703.286.603 1.523 2.108.466.656.493 3.183-.748 2.179"/><path fill="#0D0C21" d="M76.83 159.821c-.018-.035-.07-.066-.066-.105-2.31-5.634-10.502-5.744-14.208-1.541-2.051 2.861-4.855 9.239-1.796 11.854 2.456 1.514 2.953-2.126 1.043-2.963-.88-1.619 1.21-2.535 1.22-3.921 1.844-6.629 11.439-3.825 11.531 2.262.176.814.801.101 1.092-.229 1.959-.651 1.672 2.108.95 3.112-.374.691-3.767 2.359-.98 2.025 4.471 2.526 4.018-8.557 1.21-10.494z"/><path fill="#FFF7DB" d="M76.403 164.66c-.678-.009-.99.713-1.4 1.14-.14.013-.299.049-.435.101a7.3 7.3 0 0 0-.696-2.786c-.4-1.285-1.483-2.258-2.632-2.896-1.074-.691-2.905-1.426-5.819-.467a3.28 3.28 0 0 0-2.24 2.377c-.053.322-.542 2.483-.634 2.914-.695.145-.172 2.298.247 2.416.167.898-1.136 2.826 3.349 7.157-.167.326-.29.674-.458 1-.488.048-.642.691-.171.897.752.309 1.46.876 1.39 1.765-.54 2.707 1.69 2.382 1.761 2.369 0 0 .207-.058.3-.119.413.136 1.316-2.21 1.412-2.377.124-.137.308-.079.471-.088.374.022 2.58-.52 2.707-1.017.154-.524-.238-.977-.47-1.417-.296-.691-.34-1.453-.322-2.192.819-.881 1.078-2.153 1.628-3.209.485-.224.678-.788.89-1.241 1.104-.119 2.843-4.19 1.126-4.331z"/><path fill="#fff" d="M63.238 168.106c-2.135-1.078-.96-5.123 1.624-4.238 2.8.242.726 4.973-1.624 4.238m6.875-.336c-2.9-.581-2.029-5.11.907-4.247 2.707.713 1.813 4.52-.907 4.247"/><path fill="#313144" d="M65.822 241.857c.215-3.152.25-6.286-.106-9.428-.365 5.845-3.851 13.847-3.966 19.578-.057 2.861.678 3.952 3.16 6.329.137-5.568.278-11.096.912-16.479m16.8-11.198c-.237 6.242-7.236 14.125-6.862 21.775-.63 3.517 1.215 17.474-1.61 18.909-.753.383-3.42 3.525-5.48 3.525 1.971 3.671 3.74 8.746-2.5 4.662-.243-6.154-1.449-8.465-5.828-13.363-4.96-5.551-8.244-7.597-9.684-12.179-.937-6.854.106-21.872 1.154-24.174 4.634-.766 9.705 1.263 13.724 1.043 5.818.309 11.655 1.928 17.086-.202z"/><path fill="#0D0C21" d="M86.073 223.178c-.308-.915-.929-1.668-1.272-2.562a.5.5 0 0 0 .07-.198.6.6 0 0 0 .071-.207q.018-.342.044-.686c.08-1.395.08-2.782.035-4.177.022-.634.04-1.272.027-1.906a45 45 0 0 1-.005-1.329c.07-1.801.198-3.596.203-5.392.013-.528.03-1.065.022-1.598q.046-1.189.075-2.377c.475-.977.814-2.016.937-3.107.656-2.875.603-5.819.233-8.733a259 259 0 0 0-.664-4.881c-.168-1.669-.793-3.24-1.981-4.446-.96-.876-2.025-1.69-3.165-2.319-.836-.476-1.65-1.035-2.583-1.29-.15-.035-.3-.088-.45-.132-.096-.484-.977-.696-1.333-.977-.383-.366-.674-1.021-1.312-.938-.444.106-.792.365-1.105.674-.215-.938-.576-1.831-.796-2.765a.3.3 0 0 0-.009-.101c.326-.29.66-.638.933-1.043a6.6 6.6 0 0 0 .532-.96c.133-.29.247-.594.335-.902.018-.057.031-.119.049-.176.594.357 3.204.44 3.318.233.053-.096.542-1.408.555-1.439.04-.079.387-1.206.44-1.637.062-.471.084-.942.084-1.413 0-.322-.018-.643-.04-.964a13 13 0 0 0-.11-1.021 12 12 0 0 0-.202-.964 17 17 0 0 0-.247-.925 15 15 0 0 0-.365-1.038c-.123-.313-.247-.63-.383-.938a9 9 0 0 0-.471-.898 10 10 0 0 0-.55-.854c-.78-1.1-1.739-2.06-2.874-2.79-.81-.524-1.765-.942-2.769-1.109a7 7 0 0 0-.933-.093 5 5 0 0 0-1.035.044c-.33.057-.673.132-.981.269a2 2 0 0 0-.387.224c-.005 0-.01.009-.014.013-1.46-.061-1.95.088-2.671.322-4.622 1.487-6.352 7.733-6.061 12.121.083.626.026 1.435.295 2.056.202.255 3.142.894 3.195.894.084.435.233.858.445 1.25.246.457.559.867.898 1.254.33.379.748.739 1.215 1.043l.092.053c-.03.101-.167.59-.216.739a.4.4 0 0 0-.136-.057c-.55-.11-.964.348-1.417.577-.379.246-.77.493-1.114.792-.022 0-.123-.11-.489-.031-.893.146-1.782.322-2.689.366-4.666.066-7.403 1.553-9.644 5.708-2.267 3.821-3.93 8.249-3.525 12.752.061 1.122.176 2.209.43 3.31.208 1.038.358 2.104.784 3.081.423.854 1.127 1.483 1.862 2.09.7.493 1.514.766 2.35.956l-.017.074c-.467 3.178-.682 6.33-.871 9.552-.133 1.875-.427 3.719-.476 5.629 0 .291.19.458.41.511-.925 1.316-1.303 3.002-1.545 4.569a6.7 6.7 0 0 0 .818 3.292c.203.436.33.933.77 1.202.26.202.542.387.85.506-.273 1.615-.651 3.217-.889 4.842-.326 2.244-.321 4.516-.603 6.765a164 164 0 0 0-.335 5.554c-.233 2.888-.374 6.004 1.246 8.548 1.092 1.972 2.68 3.588 4.076 5.339 2.055 2.294 4.036 4.653 6.03 6.999 1.395 1.62 2.58 3.38 4.063 4.934q.092.098.184.202c-.325 2.157.014 4.367-.184 6.532-.066.26.026.445.184.59-.04.066-.074.132-.123.181-.383.519-.506 1.17-.858 1.707a.5.5 0 0 0-.11.15c-.594.11-1.118.533-1.519 1.184a29 29 0 0 1-1.712 2.478l-.343.74c-.145.18-.277.374-.423.554-.77.832-1.646 1.598-2.249 2.575-.273.44.119.854.339 1.219.339.581 1.021.81 1.62 1.039.933.343 1.945.26 2.918.414 1.774-.013 3.548-.806 4.798-2.056.484-.475 1.703-1.54 1.8-1.624.194.484.704.806 1.32.792 2.113.084 4.204-.928 5.414-2.676a21.6 21.6 0 0 0 2.285-4.511c.352-1.114.559-2.276 1.21-3.275.652.207 1.351.106 1.585-.621.449-1.003.977-2.02.906-3.151 0-.185-.14-1.171-.215-1.272-.203-.705-1.448-2.386-3.433-2.566-.753-.093-1.572-.053-2.245.334-.014 0-.027-.009-.04-.009-.163-.008-.317.071-.48.071-.198-.053-.409-.093-.607-.159q.021-.025.044-.057c.286-.761.422-1.58.612-2.372.58-3.795.722-7.725.722-11.572-.018-3.314-.053-6.629.783-9.868.858-2.676 1.92-5.26 2.83-7.941 1.043-2.341 2.232-4.626 2.87-7.117.19-.568.502-1.281.696-1.901.057-.22.136-.511-.022-.705a.5.5 0 0 0-.106-.088q.299-.276.599-.545c.73-.634 1.452-1.29 1.985-2.104 1.047-1.299.655-3.015-.102-4.354zm-33.64-18.099q-.001-.14-.01-.273l.383.066c2.03-.009 4.019-.704 5.956-1.268.664-.149 1.329-.281 1.98-.484v.031c.031.132.146.203.247.269.805.493 1.584 1.016 2.394 1.5 1.624.964 3.06 1.928 4.745 2.857 2.672 1.36 5.59 2.483 8.614 2.579 1.523-.07 2.742-1.135 3.847-2.082.832-.743 1.752-1.399 2.474-2.249v.027s.004-.009.008-.009q.113-.113.225-.233.086-.12.185-.238l.171-.198v-.027q.337-.408.647-.845c-.233.863-.422 1.739-.431 2.637 0 1.8.128 3.6.066 5.401a55 55 0 0 1 0 1.905h-.172a15 15 0 0 1-.48.022c-.378.018-.76.044-1.14.058-.391.013-.783.008-1.175.004-.383 0-.761 0-1.144.013-.77.013-1.545.04-2.315.075-.78.035-1.554.062-2.333.088-.828.027-1.655.066-2.478.079-.801.014-1.602.022-2.399.04q-1.182.028-2.364.048c-.796.014-1.593.049-2.39.066-.81.018-1.62.018-2.425.027-.788.009-1.571.022-2.36.039-.8.018-1.606.018-2.407.022-.788 0-1.575.022-2.359.005-.744-.013-1.492-.053-2.236-.013a7.4 7.4 0 0 0-1.783.295h-.013q.086-.661.159-1.321c.506-2.971 1.06-5.982.321-8.926zm-1.062 14.516.106-1.025c.14-.859.277-1.721.396-2.588l.084.026c.154.04.308.07.466.101l-.057-.013c.3.062.603.097.911.114-.299.766-.405 2.637-.343 3.319a7 7 0 0 0-.625.049c-.313-.04-.62-.071-.929.017zm16.009-3.851c.083 1.197-.286 2.408-.066 3.596.009.035.03.066.044.097q-.949.065-1.91.136c0-.906-.044-1.734-.251-2.667-.044-.123-.159-.766-.317-1.109a47 47 0 0 1 1.127-.027c.457-.004.915-.017 1.368-.026zm-3.09 3.908c-.62.04-1.246.075-1.87.106.043-1.012-.16-2.025-.26-3.033-.044-.268-.044-.563-.124-.827.828-.026 1.66-.062 2.487-.088-.088 1.272-.413 2.575-.233 3.847zm-2.844-3.001a63 63 0 0 0-.184 3.147q-.567.014-1.127.009c-.18-.018-.357-.027-.537-.04.136-1.175-.387-3.226-.462-3.75 0-.009-.01-.018-.014-.027.687-.026 1.37-.052 2.056-.066.119 0 .233-.008.352-.008-.057.259-.057.603-.088.739zm-2.654-.586c-.215.638-.299 1.312-.413 1.976-.066.401-.11.797-.124 1.202-.004.141-.013.295-.008.449-.617-.022-1.233-.04-1.853-.066.154-1.034-.08-2.733-.12-3.195 0-.093-.026-.212-.06-.322.07 0 .131-.009.202-.013.788-.04 1.575-.062 2.363-.097h.04l-.027.071zm-3.35.898c-.078.872-.175 1.774-.078 2.65-.529-.009-1.066-.053-1.602-.075.206-1.078.272-2.249-.01-3.31h.106c.56 0 1.123-.044 1.682-.088-.062.264-.053.55-.097.814zm13.02 1.712c-.052-.405-.206-2.108-.54-2.94.14 0 .285 0 .426-.009.748-.022 1.497-.031 2.245-.053-.009.216.013.458 0 .568.053.973-.26 1.999-.088 2.958-.691.049-1.378.101-2.069.163.066-.211.053-.471.027-.687m5.419.33q-1.07.045-2.14.11c-.149-1.162-.338-2.346-.681-3.459.682-.022 1.368-.049 2.05-.057q.476-.008.951-.009a1.3 1.3 0 0 0-.017.211c-.031 1.061-.194 2.135-.163 3.204m1.135-.044c-.035-.18-.074-.356-.096-.501-.124-.678-.23-1.352-.357-2.029-.08-.265-.075-.586-.176-.841.41 0 .823-.009 1.233-.013q.81-.008 1.624-.009c-.062.436-.053.893-.106 1.325-.035.664-.136 1.333-.062 1.994v.013c-.686.017-1.377.035-2.064.061zm3.495-.427c-.105-.563-.118-1.144-.162-1.716-.036-.423-.062-.845-.124-1.263.665 0 1.334-.018 1.999-.04q.277-.007.554-.022c0 .114.009.224.044.321-.097 1.017-.488 2.007-.44 3.029q-.917.007-1.84.022a.8.8 0 0 0-.03-.331m5.348-1.052c-.04.366-.079.749-.101 1.118a1 1 0 0 0-.132.014c-.656.013-1.303.101-1.95.171-.225-.88.119-1.804.145-2.698.018-.207.04-.418.04-.629.22-.005.44-.018.66-.013h1.391c-.018.677-.04 1.36-.048 2.037zm-8.78-40.736c.263.198.39.533.65.74.23.202.507.343.762.501-.018.027-.04.049-.057.075-.123.146-.269.278-.41.41l-.008.008c-.146.128-.3.256-.458.375a8 8 0 0 1-.687.427 10 10 0 0 1-.977.453c-.506.185-1.026.326-1.55.449-.457.105-.924.171-1.394.216-.38.035-.802.044-1.229.035.124-.194.22-.418.282-.528 1.026-3.011 1.25-.031 4.01-2.285.356-.29.594-.757 1.074-.88zm-14.72-7.628c-.915-4.678.718-11.382 5.731-13.024.45-.123.903-.343 1.369-.466a2 2 0 0 0-.119.317c-.11.299-.405.757.009.95.458.19.871-.726.828-1.215.11-.008.22-.026.33-.039.294-.044.59-.101.889-.128.325-.026.651-.044.981-.031.212.014.418.036.63.075q.468.087.924.233c.269.089.572.212.871.348.317.154.634.33.942.533q.45.298.868.642.48.418.915.881.456.502.858 1.065l.014.026c.272.392.537.819.77 1.259.229.436.458.88.634 1.351q.244.682.409 1.383c.106.488.163.985.207 1.483.03.361.044.775.026 1.193-.017.405-.07.867-.154 1.325-.053.272-.119.559-.185.845a8 8 0 0 1-.171.642q-.02.054-.04.101c-.026.066-.035.133-.048.203q-.001.02-.01.04-.013.043-.034.088-.048.092-.088.184-.033.078-.066.163-.047.112-.102.225c-.04.083-.092.171-.14.264a.62.62 0 0 0-.295.431 11.7 11.7 0 0 0-2.065-.163l.031-.158c.026-.167.053-.335.04-.502v-.013c1.593.48 2.614-3.49 2.143-4.578-.295-.722-1.25-.704-1.787-.268-.286.18-.392.55-.69.7-.208-1.321-.551-2.703-1.414-3.764-1.778-2.112-4.472-3.587-7.253-2.649-2.03.466-3.667 2.504-3.31 4.604-.053.039-.11.074-.159.114a1 1 0 0 0-.123.119 2.2 2.2 0 0 0-.757.766 2.8 2.8 0 0 0-.379 1.135c-.075.859.238 1.743.898 2.316.137.118.29.22.45.308 0 .017-.01.031-.014.048a4.4 4.4 0 0 0-.07.968c0 .133.008.26.017.392-.788-.075-1.55-.471-2.297-.704zm11.246-5.955a2.6 2.6 0 0 0-1.351-.185c-.51.062-1.004.26-1.395.599a3 3 0 0 0-.256.251 2.3 2.3 0 0 0-.554.752c-.022.049-.035.097-.057.146-.383-.19-.89-.058-1.29.026h-.013a2.6 2.6 0 0 0-.388-.599c-.26-.294-.559-.567-.924-.726-.651-.286-1.413-.321-2.073-.048-.062.026-.119.061-.18.092.48-1.774 1.412-3.547 3.415-3.834 2.557-.611 4.85.573 6.444 2.558.489.647.78 1.408.95 2.192-.114.004-.246.031-.338.035-.115.031-.388.044-.612.092-.035-.07-.062-.141-.101-.211a2.87 2.87 0 0 0-1.268-1.14zm.854 2.527c-.004.079-.017.154-.03.233q-.026.099-.058.198c-.03.084-.066.158-.101.238q-.078.152-.176.299-.08.114-.172.22a3 3 0 0 1-.163.163 4 4 0 0 1-.202.154 2 2 0 0 1-.211.123 3 3 0 0 1-.203.084q-.101.031-.202.057-.105.02-.212.026h-.22a2 2 0 0 1-.237-.035 4 4 0 0 1-.322-.092 10 10 0 0 1-.303-.128l-.044-.022a4 4 0 0 1-.278-.167c-.066-.049-.132-.097-.189-.15a4 4 0 0 1-.18-.18c-.058-.066-.106-.132-.159-.203q-.07-.106-.127-.22a4 4 0 0 1-.084-.198q-.034-.113-.062-.224a2 2 0 0 1-.035-.286v-.238q.013-.117.03-.229c.018-.084.045-.167.071-.251.035-.101.08-.198.123-.295.044-.083.106-.189.172-.29l.066-.093a2 2 0 0 1 .137-.127q.09-.074.189-.141c.07-.049.176-.106.282-.163a2 2 0 0 1 .48-.159c.079-.013.158-.026.241-.03h.269c.061.004.15.017.233.035q.166.034.326.088.158.058.308.136.099.053.198.119a2 2 0 0 1 .383.343q.061.072.115.15c.04.062.074.123.11.185 0 .009.008.018.013.026q.046.094.079.194.058.164.097.335.025.144.04.29v.238zm-9.578 1.223c-.057-.066-.105-.132-.158-.198-.048-.07-.088-.141-.132-.211a3 3 0 0 1-.097-.216 3 3 0 0 1-.062-.207 3 3 0 0 1-.04-.273 4 4 0 0 1-.004-.308 2 2 0 0 1 .023-.18c.017-.088.044-.172.07-.26q.053-.147.119-.286c.053-.101.105-.207.167-.304.035-.052.286-.264.374-.312.084-.044.172-.075.26-.11.08-.027.198-.062.317-.093.075-.013.145-.026.22-.03a2.6 2.6 0 0 1 .603.039c.057.013.119.027.176.044q.114.041.22.088.178.093.343.198c.062.04.12.088.176.132q.067.059.128.124.071.084.136.176a1.7 1.7 0 0 1 .207.405q.034.11.062.22c.026.132.048.259.062.391q.005.114.004.22a1.7 1.7 0 0 1-.172.669c-.03.058-.061.119-.097.172a2 2 0 0 1-.145.194 3 3 0 0 1-.176.176q-.08.072-.167.132-.087.059-.18.11c-.058.026-.11.053-.168.075q-.12.039-.246.066c-.08.013-.154.026-.234.031q-.12.006-.242 0-.084-.009-.176-.022a5 5 0 0 1-.352-.093 5 5 0 0 1-.207-.083 3 3 0 0 1-.171-.102 4 4 0 0 1-.251-.189 3 3 0 0 1-.203-.198zm2.285 6.22a7 7 0 0 1-.55-.546 5 5 0 0 1-.344-.454s-.013-.022-.017-.026c-.154-.238-.286-.497-.432-.753-.268-.466-.642-1.619-.664-1.725a7 7 0 0 1-.093-.762c0-.066-.009-.162-.013-.255v-.039a2.5 2.5 0 0 0 .977.189c.163 0 .33-.013.489-.04a2.8 2.8 0 0 0 1.096-.427c.383-.251.713-.568.942-.972.193-.344.33-.722.378-1.114q.032-.257.018-.515c.127-.026.255-.053.387-.044.154-.018.304.022.458.048 0 .181.004.361.035.542q.084.476.313.906c.167.309.4.577.669.793.246.198.532.343.836.427q.343.09.691.088c.11 0 .225-.005.335-.018a3 3 0 0 0 1.743-.783 2.5 2.5 0 0 0 .787-1.528c.027-.171.031-.347.031-.523.282-.088.568-.15.859-.216.21 1.171 1.052.7 1.62.048.228-.207.81-.488.924-.039.013.303.079.682.017.994-.185.89-.625 1.691-1.223 2.364-.309-.158-.56-.519-.93-.493-.408.044-.558.607-.228.85.07.052.145.101.216.154-.01.088-.018.189-.035.29l-.04.163v.009s-.005.013-.005.017v.022s-.004.009-.004.014c-.013.052-.022.114-.035.171q.001.015-.004.031a6 6 0 0 1-.225.788q-.121.33-.282.647a5 5 0 0 1-.281.48l-.01.013q-.276.392-.593.757a6 6 0 0 1-.454.453 8 8 0 0 1-.726.546 5 5 0 0 1-.515.295c-.18.088-.418.189-.656.273-.25.084-.51.158-.77.216a4 4 0 0 1-.541.07 7 7 0 0 1-.854-.009 8 8 0 0 1-.753-.101 7 7 0 0 1-.651-.176 5.5 5.5 0 0 1-1.298-.647 7 7 0 0 1-.586-.453zm1.65 1.888a6.2 6.2 0 0 0 1.748.326h.18c.458 0 .92-.053 1.374-.137a5.9 5.9 0 0 0 1.65-.563 7 7 0 0 0 .63-.361c.052-.035.105-.075.154-.11v.207c.096.955.303 1.936.814 2.755-.308.189-.647.304-.986.44-.656.286-1.4-.048-2.056.282-.81.506-1.003 1.554-1.197 2.421a1 1 0 0 0-.022.123 10 10 0 0 1-.867-.11s-.017 0-.035-.005a11 11 0 0 1-.647-.14c0-.207-.198-.383-.269-.586-.158-.422-.044-.832-.03-1.276.057-1.25-.85-1.444-1.695-2.016-.114-.093-.11-.22-.097-.352 0-.005.009-.009.013-.013.282-.348.546-.731.652-1.171.229.105.458.202.695.281zm-2.174.761c-.255.691.339 1.286.955 1.523.577.234.88.462.74 1.14v-.004c-.093.422-.093.924.052 1.351a13 13 0 0 1-.642-.268 7.6 7.6 0 0 1-1.615-1.039 8 8 0 0 1-.718-.704 5 5 0 0 1-.321-.392 8 8 0 0 1-.34-.515c.071-.027 1.339-.779 1.89-1.087zm-15.92 26.242c-.59-.528-.845-1.338-1.065-2.099-.705-2.914-1.052-5.934-.617-8.927.546-4.097 2.597-7.971 5.335-11.034 1.298-1.36 3.094-2.051 4.93-2.285 1.637-.162 3.323-.185 4.903-.633q0 .027.009.048c.04.224.105.44.207.643.233.479.537.911.933 1.272.25.228.524.444.81.633q.463.298.964.529c.308.145.62.281.946.391q.522.177 1.056.308c.665.163 1.347.26 2.03.313q.607.047 1.214.048.443.001.885-.03a10.7 10.7 0 0 0 1.937-.291q.487-.127.968-.299c.321-.119.643-.238.95-.392a8.2 8.2 0 0 0 1.427-.889c.29-.225.541-.489.788-.757.022-.022.035-.053.057-.079l.084.026c.955.216 1.734.819 2.508 1.387.876.471 1.625 1.118 2.435 1.685 2.121 1.541 2.403 3.574 2.698 5.995.537 3.601 1.153 7.254.493 10.89-.124 1.316-.317 2.645-.982 3.816a12.5 12.5 0 0 1-1.51 2.487.34.34 0 0 0-.158.207 18 18 0 0 1-2.509 2.561c-.761.638-1.5 1.418-2.456 1.783-2.03.775-4.212-.313-6.184-.836-1.29-.586-2.69-1.057-3.878-1.849-1.615-1.004-3.086-2.271-4.85-3.068-.203-.097-.854-.475-1.418-.673.718-.154 1.444-.331 2.02-.788.366-.366.555-.801.67-1.272.299-.053.594-.119.897-.163 1.057-.15 2.03-.74 3.1-.784.686-.022 1.302.339 1.984.383 1.598.216 3.134-.418 4.485-1.215.603-.316 1.343-.396 1.884-.845.476-.396 1.008-.924 1.013-1.58a.23.23 0 0 0-.08-.136c.005-.027.014-.049.01-.079-.054-.445-.164-.881-.265-1.321.062-.207.075-.44.163-.634.863-2.729 2.927-5.079 3.085-8.011.062-.026.058-.105.018-.149-.07-.101-.18.009-.22.088-.594.929-.726 2.038-1.25 3.002-.414.81-.682 1.646-1.145 2.447-.33.599-.66 1.232-.893 1.888-.198-1.329.106-2.707.163-4.049.009-.167.312-1.057-.049-.907-1.012.999-1.07 2.438-.889 3.772.097.757.124 1.527.234 2.289.035.295.119.572.21.849-.452-.347-.941-.642-1.504-.783-1.303-.418-2.68-.321-4.032-.405-1.906-.194-3.896-.489-5.753.088a.56.56 0 0 0-.132-.312c-.475-.577-1.32-.577-2.003-.709-.625-.106-1.25-.194-1.884-.185-1.206-.013-2.359-.471-3.578-.524-.22-.546-1.083-1.686-1.695-2.434a.5.5 0 0 0 .102-.132c.435-.541.44-1.294.655-1.937.463-1.219.56-2.583.212-3.842-.467-.392-.524 1.193-.595 1.457-.083.449-.176.942-.22 1.408.005.216-.14.753-.281 1.321-.132-.907-.476-1.765-.683-2.668a.094.094 0 0 0-.013-.123c-.009-.009-.022-.017-.03-.026-.027-.093-.163-.097-.194-.005-.04.326.061.661.075.991.114.964.303 1.914.409 2.878l-.048-.044c-.626-.581-1.356-1.228-2.228-1.333-.264-.053-.616-.198-.818.066-.34.559.237 1.074.523 1.531.014.018.027.031.04.049a2.3 2.3 0 0 0-.365-.181c-.524-.224-.973-.607-1.545-.708-.612-.251-1.673-.26-1.299.686.04.066.093.124.137.185-.572.013-1.096.59-.766 1.158.484.937 1.505 1.518 2.535 1.708.211.202.647.127.933.18.903.097 1.84.15 2.742.299 1.22.26 2.457.3 3.693.397.568.105 1.132.237 1.713.259.933.04 1.8.071 2.737.225.427.101 1.013.057 1.308.431-.014.049-1.052 2.821-1.255 4.094-.216 1.038.211 2.711-1.188 2.997-1.783.409-3.592.761-5.326 1.36-1.325.335-2.685.806-4.072.942-.814-.07-1.69-.304-2.469-.585-.77-.304-1.33-.859-1.893-1.453zm16.66-6.734q.02-.093.048-.185c.246-.035.502-.048.748-.048.96.008 1.972-.168 2.94-.146.903.049 1.858.194 2.773.172 2.228-.018 3.596.132 5.278 1.721h.013c-.035.141-.114.269-.185.392-.405.695-1.188.999-1.932 1.223-.933.309-1.73.982-2.725 1.083-1.303.291-2.451-.304-3.71-.4-1.483-.093-2.932.321-4.182 1.1.102-.959.022-1.994.37-2.874.194-.674.405-1.36.564-2.042zm-13.179-3.108s-.013-.008-.022-.008c-.818-.225-1.84-.546-2.231-1.374.154-.259.59-.026.924.088.63.502 1.369.903 2.042 1.36a3.2 3.2 0 0 0-.717-.066zm1.673.176c-.73-.506-1.448-1.043-2.2-1.522-.494-.348-1.159-.683-1.348-1.29.634.013 1.241.26 1.818.532.599.229 1.18.537 1.734.863.537.568 1.118 1.087 1.7 1.611a13 13 0 0 0-1.704-.198zm2.214.287c-.15-.282-.489-.665-.691-.872-.845-.955-1.756-1.879-2.447-2.962 1.329.185 2.262 1.316 3.085 2.289.52.545.977 1.131 1.422 1.738-.454-.039-.911-.11-1.37-.189zm19.587 86.177c.352 3.79-1.915 6.677-4.74 2.346-.071-.202-.067-.334-.071-.383 1.84.282 3.618-.589 4.81-1.963m-6.884-3.076q-.001.002.004.017c.392 1.193 1.206 2.241 1.299 3.522 0 .36-.093.717-.137 1.078q0 .073-.009.141c-.682.031-1.32-.137-1.985-.326-.642-.123-1.18-.502-1.796-.7.01-1.307.093-2.614-.07-3.917-.018-.621-.167-1.211-.304-1.809.683.889 1.391 1.87 2.51 1.98.166.018.325.018.483.009zm-3.284 5.546c.053-.26.132-.52.172-.784.154.071.317.132.453.189.863.551 1.893.705 2.888.854.26 0 .611.031.91-.026.014.51.045 1.021.067 1.536-.313.198-.603.401-.911.643-.264.224-.537.488-.911.484-.964-.172-1.669-.942-2.43-1.497a2.6 2.6 0 0 0-.577-.286c.19-.383.3-.867.34-1.113m-.268 2.183c.427.286.787.7 1.215.986.585.321 1.245.612 1.923.629-.634.986-1.202 2.06-2.13 2.791-1.29.158-1.14-1.897-1.198-2.756-.026-.554.12-1.109.19-1.65m-2.452 1.259c.467-.581.902-1.448 1.699-1.576l.128.031c-.102.141-.176.347-.278.457-.686.903-1.39 1.853-2.35 2.487-.101.044-.22.119-.335.176.388-.515.77-1.06 1.14-1.575zm1.004 6.787c-.731.237-1.506-.088-2.258-.115-1.048-.035-2.39-.321-3.029-1.214.405-.586 2.804-3.332 2.848-3.46.026.004.049.013.07.018.859.044 1.515-.661 2.025-1.264.128-.18.643-.708 1.057-1.228-.361 1.347-.45 3.249.563 4.085.339.33.828.299 1.263.242.56-.132.872-.704 1.255-1.087.563-.779 1.166-1.589 1.545-2.483.158-.035.73-.457.792-.493-.04.273-.075.546-.145.81-.19.907-1.409 4.71-5.995 6.193zm17.522-16.471c-.004.726-.057.911-.211 1.237-.251.647-.599 1.259-.894 1.884-.281.053-.572-.013-.84.101a1.18 1.18 0 0 0-.568.581c-.73 1.334-.88 2.896-1.567 4.252-.924 2.174-2.315 4.318-4.622 5.181-.484.105-.933.334-1.435.312-.325 0-.708.075-.99-.132-.172-.207-.026-.528.009-.77a1.5 1.5 0 0 0 .026-.238q.045-.12.084-.207c.321-.7.453-1.584.48-2.368.04-.312-.062-.585-.141-.889-.009-.035-.013-.088-.022-.136.022-.027.427-.837.405-1.083.176.37.391.722.673 1.003.339.287.784.432 1.21.52 2.096.431 3.478-1.391 3.636-3.306.04-.915-.29-1.778-.427-2.667v-.079c.278-.405.507-.837.674-1.29.598-1.4.347-2.953-.088-4.366a.4.4 0 0 0 .035-.167c1.193-.546 4.621.686 4.573 2.618zm-5.67-2.104c.217 1.946.393 4.648-1.346 5.938-.92.801-2.179 1.272-3.407 1.034.04-.207-.171-2.711-1.347-4.3.031.026 2.976-2.196 3.42-2.755.352-.374.625-.81.832-1.277a2.46 2.46 0 0 0 1.814 1.365h.035zm5.736-39.059c-.7 1.699-1.378 3.433-2.108 5.123-1.184 3.077-2.874 5.973-3.605 9.208-.718 3.368-.656 6.827-.572 10.252.026 3.367-.035 6.756-.392 10.106-.08.867-.348 1.716-.458 2.574-.013-.017-.03-.026-.044-.044a1 1 0 0 0-.171-.154c.057-.198.105-.396.14-.603.08-.409.216-.845.124-1.258a.33.33 0 0 0-.282-.207c-.097-.485-.85-1.158-1.056-1.457-.995-1.149-1.928-2.359-2.879-3.548-1.646-1.8-2.91-3.93-4.415-5.85.207-.158.212-.501.176-.757a28 28 0 0 1-.101-1.531c-.14-1.937-.062-3.882-.101-5.824.009-2.53.233-5.044.387-7.592-.017-1.47.08-2.932.053-4.402a38 38 0 0 1-.08-2.245c.084-.281.076-.642.106-.893.075-.762.018-1.536-.25-2.254-.049-.123-.115-.339-.282-.312-.084.022-.137.101-.18.172-.344.651-.3 1.399-.348 2.117.026.242-.053.576-.066.884-.383 1.585-.81 3.156-1.202 4.736-.352 1.972-1.026 3.843-1.36 5.824-.233 1.025-.357 2.134-.634 3.186a17.7 17.7 0 0 0-.757 3.57c-.317-.251-.823-.202-.845.273-.009.26.22.387.422.488.361.291.683.634.934 1.026.827 1.184 1.809 2.245 2.685 3.394.558.572 1.206 1.258 1.712 1.919 1.228 1.637 2.398 3.323 3.829 4.793 1.166 1.58 2.43 3.099 3.728 4.582.031.044.075.07.123.092-.136.568-.237 1.154-.356 1.73-.67 1.572-3.328 3.363-3.781 3.618-.471.242-1.052.352-1.55.146-.299-.256-.519-.573-.8-.872-1.013-1.325-2.166-2.597-3.231-3.891a34 34 0 0 0-2.02-2.548c-2.016-2.404-4.041-4.803-6.15-7.127-1.474-1.813-3.243-3.415-4.265-5.559-1.567-2.94-.779-6.43-.972-9.626.11-3.437.396-6.888.792-10.313.15-.937.3-1.875.44-2.812.075-.634.242-1.299.238-1.946.163.022.325.018.488.009.18-.009.361-.018.537.018 1.374.242 2.787.215 4.177.356 1.506.154 3.024.181 4.53.361 1.157.057 2.244.577 3.415.52 2.932.057 5.89.114 8.795.563 1.593-.018 3.182-.053 4.775-.026.722.035 1.448-.005 2.166-.045.391.018.774-.101 1.113-.294a9 9 0 0 0 .793-.608c-.55.938-1.026 1.919-1.356 2.958zm-16.202 4.142c.035-.11.114-.436.211-.872-.118 2.558-.224 5.115-.431 7.668-.101 2.848-.093 5.695-.172 8.543-.066.933.097 1.853.11 2.786.031.313.018.63.018.947-.942-1.215-1.787-2.514-2.879-3.605.18-2.395.859-4.732 1.21-7.113.282-1.378.595-2.804.991-4.159.343-1.391.506-2.822.942-4.191zm18.927-9.653c-.735.656-1.492 1.418-2.192 2.126-.414.506-1.017.502-1.607.498H80.1c-2.068-.044-4.133-.009-6.206.044-2.632-.317-5.277-.449-7.923-.511-.598-.04-1.201.013-1.796-.084-.545-.11-1.073-.308-1.628-.365-1.479-.233-2.98-.308-4.468-.44-2.178-.269-4.406-.269-6.527-.823-.423-.137-.63-.458-.78-.854-.54-.889-.95-1.897-.932-2.949.264-1.514.735-3.006 1.232-4.463q.1.04.194.061c.546.119 1.109.128 1.664.137.91.066 1.822.061 2.733.035.753.092 1.518.136 2.271.167a58 58 0 0 0 3.706-.163c2.21-.057 4.42-.048 6.607-.338.26-.009.52-.022.783-.022 2.342-.119 4.68-.009 7.012-.177l.876-.013c2.302.093 4.622.119 6.92-.088q.031.128.083.229-.001.059.004.123a.42.42 0 0 0 .172.247 4.9 4.9 0 0 0 .585 1.466c.322.721.581 1.544.92 2.271.845 1.628-.317 2.856-1.492 3.895z"/><path fill="#0D0C21" d="M67.182 171.305c.611.15 1.285.19 1.866-.105.475-.26 1.294-.771.753-1.36-.22-.22-.621-.238-.837 0a1.6 1.6 0 0 1-.325.299c-.45.286-.951.335-1.475.352-.3.027-.599-.066-.871-.185-.075-.039-.168-.083-.26-.013-.14.119-.013.273.057.387.269.339.656.581 1.092.63zm.282-2.203c.391.084.871-.198.748-.643-.07-.277-.357-.391-.62-.365-.34.013-.705-.119-1.026.009-.154.088-.154.295-.07.431.166.37.593.502.968.568"/><path fill="#fff" d="M273.53 82.277v.005l.009.014q.001-.001-.004-.01zm-.008-.019s.004.009.004.013c0 0 0-.009-.004-.013m-3.649 2.035s.004.009.009.014l-.005-.005zm3.675-1.988.005.009q.001-.001-.005-.01m-.607-5.378q.09.074.189.14a.3.3 0 0 0-.101.023q-.045-.081-.088-.163m28.79 20.28c-.211-.03-.396-.242-.352-.462.127-.656.308-1.298.475-1.94-.013-.459.093-.912.11-1.37.009-.136.084-.26.15-.37.009-.162.189-.312.286-.114.484.004.497.665.533 1.026.052.035.118.026.171.017.066-.004.079.093.013.097-.061.009-.132.026-.193 0-.062.52-.22 1.017-.361 1.523a26 26 0 0 1-.383 1.298.415.415 0 0 1-.453.3zm4.137-66.183c3.623 2.632-2.733 2.724-4.427 3.97-3.605 2.79-7.382-9.054-11.286-12.008-1.03.947-3.094 5.3-5.845 5.626-.075 4.77-6.123 3.31-7.408-1.242 1.122-3.736.968-5.026 0-5.554-1.206.325-4.661 1.377-8.112 2.31-.299-2.517-.616-6.94-.85-9.238 2.624-.304 4.952.198 7.527-.476 1.796-1.263 8.077-7.733 9.38-4.071-5.3 3.323-3.447 8.983 2.914 6.62.096.053.118.33.206.387 2.888 1.065.608 2.896 3.957 2.896 2.434 0 3.24 1.158 5.96-.017 1.827 1.866 3.961 7.328 7.984 10.801z"/><path fill="#fff" d="M308.716 102.027c-2.139-1.65-7.121-.378-6.448-4.727.295-1.906.387-3.464 2.214-3.499 1.364-.026 1.474 2.31 1.303 3.174 1.501.664 6.25 3.085 2.931 5.048zm-37.201-16.469c-3.315-.458-2.496-11.788 1.522-9.213 1.757.691.229 3.623.375 4.71.92 2.033 1.333 4.92-1.897 4.502"/><path fill="#0D0C21" d="M315.151 66.944c-5.427-11.84-26.977-3.085-36.237-3.08 5.981-18.214-1.303-33.065-15.894-10.705-1.039 1.364-6.748 6.404-3.667 6.888 3.948.955 6.145 2.668 7.395 4.662.964 5.444.893 10.11 2.966 12.082 2.874-1.523 3.156 1.056 4.177.207 3.997-4.758 2.109-5.89 4.054-9.75 10.59 5.88 15.978 7.06 23.557 12.065 1.153 2.883-.149 9.208 1.417 14.446 2.906-.916 2.289 1.302 3.447.853 9.287-6.95 11.25-24.454 8.79-27.676z"/><path fill="#272771" d="M288.799 17.64a.4.4 0 0 1-.158-.162c0-.01-.009-.018-.009-.023-.277.062-.422-.32-.163-.444.168-.07.33-.15.493-.229.15-.154.33-.29.555-.321.326-.07.572.36.33.598-.062.058-.128.11-.189.168-.242.18-.52.598-.859.413"/><path fill="#646370" d="M285.357 17.06c-4.78-2.49.247-6.487.247-6.487s-.48-.29-.748-.234c-4.314 3.205-3.957 6.057-2.435 7.223 1.449 1.11 3.993.643 2.936-.501m7.258-.185c1.849-4.049 1.717-2.922-1.923-3.45-.643-1.704-.638 2.957-2.927 3.926 2.157.14 1.241 3.063 3.526 2.724 5.079 1.58.114-.845 1.324-3.2"/><path fill="#A7A6B5" d="M311.098 41.787c.374 9.16-14.112 8.152-20.336 11.383-.704 12.069-1.734 8.737-11.404 10.282 0 0 6.395-34.543-11.66-15.762-5.07 4.133-13.002 21.66-10.418 3.724.726-5.049 4.718-11.713.933-16.128-2.13-4.384-6.395-12.887-4.56-16.505 3.077-1.62 5.638-2.606 7.544-3.596 4.296-3.773 7.765-3.35 7.285 8.957 0 0 3.684.647 7.469 3.134 1.492-1.07.766 4.758 7.703 3.728 1.039.264-.145 1.201 1.325 2.055 5.379 3.138 7.117 6.779 11.536 5.823 2.945-.748.744-1.699 1.748-2.447 7.724-5.247 13.041-5.806 12.839 5.352z"/><path fill="#BDCBFC" d="M305.27 100.79q-.033-.009-.066-.022c.013-.005.022-.014.035-.018.022.009.044.022.066.031l.084.039a1 1 0 0 1-.115-.03zm-2.861-1.322s-.018-.044-.018-.066c.08.036.154.075.234.11q-.02.023-.031.044a.2.2 0 0 0-.027.075.37.37 0 0 1-.154-.163zm6.866.688.066.039c-.158-.096-.33-.18-.493-.268l-.994-.533c-.128-.07-.256-.136-.383-.207.647.031 1.501.463 1.857.7a1.3 1.3 0 0 1 .533.625 34 34 0 0 0-.59-.352z"/><path fill="#FED980" d="M285.762 17.17c-3.851-1.044-2.553-6.968 1.51-6.03 4.01 1.13 2.535 6.844-1.51 6.03m9.534 3.445c-4.547-.422-3.006-7.72 1.391-6.294 4.203 1.365 2.579 6.664-1.391 6.294m-14.952 25.418c-1.422-3.926-3.16-5.413-6.382-4.01 3.71-5.47 1.875-6.276 1.998-8.824 1.62-1.427 3.262-2.333 4.296-1.977.722.247 1.893 4.895.352 6.079-.805 1.131 1.677 7.804-.264 8.728z"/><path fill="#0D0C21" d="M293.892 10.871c2.086 4.098-1.285 3.975-4.063 2.452-.84-1.783-3.336-2.769-3.248-3.587-6.043-.282-7.1 2.16-10.071 4.938-.348.168-.889-.026-1.241 0-2.954-1.465-1.91-6.334 2.879-6.496 3.279-2.232 6.373-3.54 9.018-2.038 3.205-.172 5.476 1.492 6.726 4.731"/><path fill="#000" d="M285.987 10.332c-.748-.141-1.334-.713-2.095-.81-.146.14-.37.097-.555.097-.286.004-.577 0-.863 0-.229.061-.629.119-.655-.212-.207-.096-.273-.405-.097-.563.242-.198.581-.15.871-.163.528.013 1.065-.013 1.589.088a.62.62 0 0 1 .427-.537c.172-.132.396-.145.608-.154.132.027.255.075.382.119a.34.34 0 0 1 .146-.035q.086.002.158.044c.273.229.757.4.828.779.431.343.29 1.122-.291 1.193a.52.52 0 0 1-.453.158zM273.636 77.73c-.651-.59-1.461-1.321-2.403-.947-.366.123-.7.326-1.065.427-.353.057-.339-.273-.181-.493.524-.863 1.717-1.114 2.645-.863.568.229 1.079.63 1.515 1.056.493.406.07 1.198-.507.815z"/><path fill="#000" d="M271.506 85.96c-1.924-.141-2.98-2.412-2.571-4.234.216-.964.581-1.783.603-2.751.106-.67-.088-1.374.093-2.025.823-.99.739 1.105.713 1.624-.084 1.51-.744 2.888-.709 4.362.071 2.835 4.441 3.107 4.054.339-.084-.586-.559-1.035-.77-1.58-.251-.44.92-6.057 1.738-4.771-.176 1.311-1.034 2.724-1.122 4.062a.74.74 0 0 0 .15.612c1.54 1.915.47 4.736-2.179 4.362m31.136 8.359c-.251-.273-.286-.67-.378-1.013-.163-.726-.33-1.452-.423-2.196-.519-2.954-.519-5.89-.462-8.865.009-2.482.097-4.912.365-7.373.058-1.28.159-2.57.515-3.802.066-.159.242-.397.423-.251.176.264.114.629.145.933-.018 1.307.088 2.412.049 3.596a178 178 0 0 0-.146 8.68c-.066 2.614.181 5.22.621 7.786.083.73.334 1.47.304 2.2-.097.44-.691.635-1.013.305"/><path fill="#000" d="M301.823 74.606c.229-1.303 2.232-3.345 3.372-4.006.423-.272 1.017.097.955.595-.057.515-.664.651-1.012.937a13.4 13.4 0 0 0-1.871 1.686c-.26.246-1.228 1.558-1.444.792zm3.887 22.229c-.251-1.206.141-1.809-.431-2.46-.286-.29-.775-.194-1.118-.176-.396.022-.771.207-1.109.387-.075.049-.11.141-.128.225.009.066 0 .18-.106.145-.066-.03-.057-.101-.053-.163-.022-.422.221-.761.515-1.043.551-.581 1.572-.81 2.28-.405.529.277.753.854.823 1.417.027.163.058.322.075.489.027.308-.488 1.734-.748 1.58z"/><path fill="#000" d="M308.668 102.465c-1.378-.247-2.83-.929-4.182-1.276-1.232-.291-3.006-.841-2.632-2.575.256-1.184.308-3.196.537-4.393.141-.753.071-.11.458-.106a.24.24 0 0 1 .216.198c-.088 1.365-.366 2.998-.542 4.389l.014.04c.739-.01 1.461.114 2.2.166 1.928.137 3.068.273 4.538.692.7.32 1.118 1.258.841 1.989a1.32 1.32 0 0 1-1.448.88zm.537-.933c.26-.277.163-.951-.154-1.167-.317-.215-.647-.215-1.03-.303-1.268-.3-2.491-.418-3.777-.581-.515-.066-1.091-.084-1.615-.11-.009 0-.018.004-.018.013-.114.867 5.163 2.029 6.233 2.249.132.026.273 0 .361-.101"/><path fill="#000" d="M309.214 102.227a.43.43 0 0 1-.172-.581c.44.08.409-.598.445-.955-.062-.488-.458-1.466-.889-1.712-.625-.352-1.374-.405-1.99-.792-.995-.471-1.219-2.333-.753-3.42.066-.102 1.149-.352 1.303-.207.018.436-.356.673-.656 1.712a1.06 1.06 0 0 0 .625 1.272c.85.348 1.871.392 2.505 1.131.805 1.013 1.008 2.434.128 3.429a.43.43 0 0 1-.551.123zm-.969-68.59.005.004zm.031.024-.009-.009zm.005.004-.005-.005zm-.027-.02-.004-.004zm.005.005h-.005l.005.005zm0 0-.009-.009-.005-.004.009.009zm-.031-.033s.009.005.009.01h.004-.004l.013.013.005.004zm-41.067-2.851s.009.027.014.036c0-.014-.009-.027-.014-.036m19.099-20.559a.37.37 0 0 1 .008-.238.4.4 0 0 1 .115-.154c-.189-.299-.625-.396-.951-.506a3 3 0 0 0-1.972-.075c-.739.22-1.206.859-1.923 1.1.009.032-.009.071-.053.067-.145-.062.009-.207.084-.256a8 8 0 0 0 .545-.475c1.193-1.28 2.967-1.197 4.442-.489.246.102.382.326.497.555a.42.42 0 0 1 .088.427c-.132.339-.757.458-.88.048zm-.995 23.521a.7.7 0 0 0-.101-.343c-.044-.057-.084-.114-.141-.158a.4.4 0 0 1 .171.118.38.38 0 0 1 .075.41v-.027z"/><path fill="#000" d="M286.238 9.902a.93.93 0 0 1-.524.053c-.119-.018-.251-.013-.383-.013a.35.35 0 0 0-.181-.233c-.123-.066-.272-.075-.409-.106-.405-.101-.805-.286-1.237-.229-2.152.471-4.142 1.655-5.612 3.306-.299.334-.603.664-.849 1.043-.203.281-.326.62-.586.858-.013.013-.044.044-.07.044-.335.009-.669-.053-.999.044-.031-.026-.084 0-.084.04.018.163.269.119.388.14.211.014.418.071.629.08.502 0 .709-.577 1.003-.894a52 52 0 0 1 1.581-1.672c1.263-1.136 2.773-2.113 4.476-2.382.55-.096 1.026.344 1.545.45h.031c.286.176.638.202.968.228.247.018.533-.009.704-.207.251-.26-.079-.7-.396-.532z"/><path fill="#0D0C21" d="M269.661 75.103c-.638-1.25-.994-2.615-1.346-3.966-.326-1.28-.568-2.58-.832-3.873-.256-1.682-.401-3.385-.568-5.075-.013-1.325-.022-2.654-.071-3.98 0-1.236.08-2.477-.057-3.71-.031-.255-.039-.528-.154-.761-.101-.159-.326-.19-.449-.036-.114.163-.039.383-.075.568-.145 1.092-.33 2.188-.435 3.284-.102 1.444-.084 2.896-.097 4.34.079 1.47.396 2.914.55 4.375.106.973.379 1.914.568 2.874.493 2.25.981 4.551 2.029 6.616.202.374.405.739.638 1.091.137.203.313.383.568.431.453.062.722-.48.444-.84-.255-.427-.484-.898-.713-1.343z"/><path fill="#0D0C21" d="M316.604 70.208c-.225-1.18-.33-2.382-.867-3.473-.405-1.136-1.14-2.09-1.999-2.923-.554-.572-1.14-1.118-1.835-1.514-.713-.387-1.514-.55-2.267-.84a6.6 6.6 0 0 0-1.404-.436c-1.162-.185-2.333-.361-3.508-.419-1.615 0-3.231.066-4.842.172-3.318.163-6.637.352-9.943.709.036-.233.062-.45.106-.581.132-.95.321-1.915.405-2.879.202-1.496.334-3.002.541-4.498 0-.027.009-.053.013-.084.177 0 .361-.053.524-.088.828-.145 1.655-.352 2.474-.563 1.593-.462 3.204-.854 4.806-1.285 2.756-.727 5.546-1.449 8.112-2.699 2.615-1.135 5.229-3.226 4.974-6.364a13 13 0 0 0-.902-3.187c.167-.176.286-.352.348-.533.347-1.065-.546-3.618-1.004-4.291-.471-.84-.964-1.77-1.884-2.188a1.95 1.95 0 0 0-1.017-.096 6 6 0 0 0-.246.083 33 33 0 0 1-.489-.541c-.704-.77-1.404-1.616-2.104-2.403a37 37 0 0 1-3.054-3.988c-1.026-1.55-3.279-5-3.416-5.141a3.1 3.1 0 0 0 .779-.955 3.5 3.5 0 0 0 .436-1.36v-.036c.031-.36.018-.726-.062-1.087a3.7 3.7 0 0 0-.559-1.294 3.8 3.8 0 0 0-.994-1.026c-.018-.008-.031-.021-.049-.03a3.4 3.4 0 0 0-.766-.388 4 4 0 0 0-.682-.18 3 3 0 0 0-.185-.018c-.154-.167-.519-.202-.735-.198-.119 0-.229.01-.334.014.132-.44.088-.938.074-1.396-.118-.722-.699-1.228-1.179-1.734-.242-.317-.313-.722-.489-1.074-.638-1.505-2.068-2.619-3.561-3.218-.787-.286-1.628-.11-2.438-.206-.621-.154-1.109-.625-1.743-.749a5.5 5.5 0 0 0-2.975.12c-.964.276-1.871.884-2.628 1.544-.568.52-1.281.96-2.025 1.189-.832.246-1.743.022-2.562.37-1.338.497-2.337 1.861-2.178 3.314.066.92.356 1.795.836 2.583q.018.052.044.11c-2.152-.096-4.318-.242-6.466.005a3 3 0 0 0-.128-.308c-.532-1.123-.889-.973-1.993-1.074-.978-.295-2.008-.115-2.905.334-.19.093-.405.194-.586.326-.114.057-.229.119-.348.176-.211.15-.387.365-.475.612-.11.15-.172.383-.216.634-2.037.334-4.009.902-5.77 2.055-.691.458-1.51.775-2.095 1.378-.352.466-.691 1.012-.718 1.61-.092 1.009.498 1.88.678 2.844.537 3.196 1.426 6.418 2.835 9.345.537 1.258 1.241 2.434 1.932 3.613.374.564.735 1.136.977 1.77.471 1.734.009 3.534-.259 5.282-.19 1.126-.322 2.258-.454 3.393-.392 1.726-.81 3.451-1.184 5.168-.361 1.901-1.408 6.844-.374 8.402.101.11 1.391.317 1.422.282 1.003-.929 1.558-2.25 2.381-3.328 1.615-2.253 3.244-4.525 5-6.668 1.294-1.343 2.544-2.73 3.922-3.983 1.334-1.154 2.557-2.43 4.133-3.28 1.1-.462 2.39-.867 3.552-.356.902.242 1.457 1.021 1.928 1.778.48.894.695 1.932.942 2.94.141.89.145 1.796.264 2.69.295 2.372-.106 4.758-.387 7.117-.251 2.487-.63 4.956-1.339 7.355-.532 1.787-.928 3.618-1.61 5.357-.52 1.5-1.246 2.97-1.937 4.419-.431.735-.696 1.567-1.07 2.328-.237.335-.347.814.141.99a.5.5 0 0 0 .132.022c.229 0 .427-.189.506-.409.128-.233.225-.444.37-.722 1.431-2.535 2.676-5.14 3.517-7.94a74 74 0 0 0 1.378-4.736c.541.057 1.351-.066 1.672-.07 1.07-.128 2.144-.26 3.218-.353 1.25-.079 2.465-.321 3.719-.427 1.585-.158 3.173-.339 4.74-.62 2.875-.366 5.762-.546 8.654-.665 2.174-.105 4.362-.14 6.497.361.792.238 1.549.585 2.337.845.924.308 1.65 1.008 2.275 1.734.388.427.766.867 1.061 1.365.682 1.232 1.07 2.575 1.241 3.97.146.647.212 1.303.216 1.963.062 1.73-.229 3.455-.559 5.15-.176 1.118-.462 2.21-.753 3.301-.308 1.233-.453 2.509-.928 3.693-.775 1.893-2.082 3.508-3.284 5.145-.986 1.308-2.025 2.562-2.997 3.882-.405.52-.797 1.048-1.114 1.63 0 0-.502.963.119 1.231.304.102.625-.083.748-.374.225-.409.467-.81.74-1.192.378-.511.708-.986 1.1-1.506 1.237-1.668 2.615-3.23 3.768-4.956.783-1.087 1.54-2.227 1.958-3.508.397-1.1.595-2.258.868-3.394.325-1.263.66-2.42.889-3.728.484-2.35.911-4.731.554-7.139zm-8.979-37.127a.626.626 0 0 1 .757.286c.493.885 2.289 3.658 2.192 4.419-.093.766-.313.814-.696 1-1.395.66-4.199 2.01-5.849 2.486a2.9 2.9 0 0 1-2.905-.792c-.876-.93-2.135-2.439-2.69-3.253a.476.476 0 0 1 .198-.7c1.845-.832 7.333-2.87 8.988-3.45zm-10.023 4.296c.084.162.181.312.282.462-.717.215-1.866.616-2.945.999-.321-.049-5.968-3.429-9.062-5.643-.282-.202-.612-.343-.925-.51-.004-.014-.013-.027-.017-.036-.295-.69-.709-1.435-.766-1.624a.5.5 0 0 0-.044-.11q.054-.172.088-.352c.15-.51.273-1.026.352-1.55.938-.263 1.818-.796 2.553-1.403.871-.722 1.466-1.673 2.091-2.606.118-.225.708-1.193.95-1.91q.284.317.581.629c.278.352.507.735.801 1.074 1.11 1.241 1.783 2.773 2.672 4.168 1.351 2.302 2.778 4.578 4.613 6.532-.396.211-.783.44-1.153.7-.432.3-.33.805-.066 1.184zM274.89 22.909c.7-.234 1.369-.533 2.034-.85q.001.072-.004.15c.048.845.272 1.677.616 2.456a1.4 1.4 0 0 0-.066.185c-.181.488-.383.96-.572 1.44a4 4 0 0 1-.498.276c-.141.093-.475.203-.774.344-1.035-.819-2.157-1.528-3.28-2.227a6.3 6.3 0 0 0-1.523-.59c1.383-.295 2.747-.656 4.063-1.18h.009zm12.329-4.723c-.026-.154-.083-.33-.242-.392-.295-.084-.607-.092-.911-.154a.3.3 0 0 1-.057-.009.1.1 0 0 0-.009-.035c.106.018.775.176 1.514-.03a6 6 0 0 0 .308-.098c.123 0 .242.01.366.04.347.062.594.339.831.585.322.357.436.793.546 1.237-.185-.061-1.58-.567-2.029.168-.638 1.051 1.109 2.17 1.871 2.808l.277.281c-.031.102-.053.207-.088.295-1.083 2.69-2.689 4.978-5.691 5.595a5.7 5.7 0 0 1-2.025-.163c-.647-.269-1.166-.81-1.646-1.312-.541-.563-.99-1.162-1.475-1.791-.629-1.052-1.03-2.205-1.316-3.398.507-.251 1.013-.506 1.523-.744.55-.19 1.127-.374 1.712-.357.665.01 1.295.264 1.955.282.946.062 1.928-.14 2.716-.687.33-.237.607-.541.893-.827.207-.203.484-.317.695-.515.229-.19.353-.48.282-.775zm-4.203-3.909q.032.336.119.665.087.325.233.63c.004.013.026.052.048.096.212.418.506.801.863 1.105.299.255.643.453 1.003.603-1.712.845-4.071-.607-3.389-2.755.326-.639.595-1.312 1.026-1.893.273-.365.568-.713.871-1.056a3.9 3.9 0 0 0-.651 1.28c-.128.432-.176.88-.128 1.33zm2.134 2.54a3 3 0 0 1-.651-.458 4 4 0 0 1-.286-.295 4 4 0 0 1-.255-.343 6 6 0 0 1-.168-.304 3.2 3.2 0 0 1-.246-.797 3 3 0 0 1-.031-.325c0-.123 0-.242.013-.365a3.4 3.4 0 0 1 .176-.81c.036-.097.08-.194.124-.286q.093-.18.206-.352.1-.141.212-.269.153-.167.325-.312c.102-.084.212-.163.322-.238a3.3 3.3 0 0 1 1.223-.475c.132-.023.26-.036.392-.045.128 0 .255 0 .383.01.137.012.269.034.405.06q.183.048.361.107.193.073.378.167c.119.066.234.132.348.211.097.07.194.145.282.224q.12.112.233.238c.079.093.15.185.216.286q.1.16.18.326.084.18.141.365.059.197.097.4c.022.142.04.278.044.419 0 .132 0 .26-.009.387a3 3 0 0 1-.066.4 6 6 0 0 1-.105.37c0 .014-.009.023-.014.036a4 4 0 0 1-.167.383 4 4 0 0 1-.167.281 4 4 0 0 1-.238.304h-.004s-.022.03-.036.044c-.052.062-.14.145-.233.225q-.138.12-.29.22c-.106.07-.22.127-.33.185q-.224.1-.454.176c-.136.04-.295.079-.462.114a4 4 0 0 1-.383.044 2 2 0 0 1-.29.005 3 3 0 0 1-.449-.07 4 4 0 0 1-.41-.12 6 6 0 0 1-.299-.132zm5.036-3.34c.568.726 1.201.915 2.135 1.06.471.101.915-.106 1.373-.176a3.4 3.4 0 0 0-.775.717 3.9 3.9 0 0 0-.651 1.281c-.128.432-.176.88-.128 1.33q.033.335.119.664.087.325.233.63c.005.013.027.052.049.096.211.418.506.802.862 1.105.058.049.119.093.181.141-.26-.018-.515-.035-.775-.062 0 0 0-.004-.009-.008-.114-.097-.242-.168-.361-.251-.594-.432-.92-1.065-1.14-1.757-.29-.884-.29-1.685-.105-2.583-.053-.084-.141-.013-.172.053-.11.233-.273.435-.343.69l-.027.137c-.347-.18-.73-.326-1.126-.29q-.027.001-.066.008c.118-.15.228-.303.321-.466.233-.423.387-.88.436-1.36V14.4a3.7 3.7 0 0 0-.036-.928zm-.216 5.536a2.27 2.27 0 0 0-1.276-1.65 1.5 1.5 0 0 0-.515-.053 3.7 3.7 0 0 0 .906-.634c.022 0 .044.009.066.013.37.062.7.216 1.03.383.132.066.256.154.405.194q.013.452.172.89c.229.743.607 1.456 1.171 1.984-.291-.035-.902-.224-1.299-.198a5 5 0 0 0-.625-.414q.015-.02.022-.04c.058-.158-.057-.312-.07-.47zm-5.85 10.102c-.079.207-.14.431-.184.515-.172.383-.282.819-.383 1.241-.683.053-1.369.027-2.051.075-.502.017-.995-.07-1.475-.194-.453-.33-.929-.63-1.351-.994-.528-.366-.903-.868-1.272-1.383a5 5 0 0 1-.242-.545.2.2 0 0 1 .008-.044c.361-.802.559-1.651.656-2.518.053.097.102.19.159.282.321.506.814.924 1.21 1.395 1.048 1 2.135 2.2 3.693 2.218.414.049.828.031 1.237-.044zm-8.723-1.193c.317-.295.735-.475 1.104-.722v.018c.154 1.457 1.272 3.002 2.527 3.878-.11.052-2.667 1.369-3.367 1.637a.142.142 0 0 1-.19-.11c-.149-1.083-.33-4.168-.074-4.7m.959 5.357c1.162-.4 3.297-1.814 3.306-1.849.039.013.541.194.634.211-.031.29.325 2.355.994 3.689-.009.053-.11 1.39-1.553 1.998-.916.383-2.501 0-2.963-.854-.594-1.091-.589-1.94-.418-3.195m4.534-1.54.053.012c.356.04 2.649.124 2.971-.184.202.647.383 1.294.774 1.861-.119.097-2.46 1.673-2.649 1.761-.669-.726-1.118-3.363-1.149-3.446zm17.421-10.102c.581 1.087 1.298 2.095 1.963 3.134 1.087 1.725 2.333 3.35 3.667 4.89.809.955 1.593 1.936 2.486 2.817-.03.004-.061.017-.092.022-1.065.317-2.121.656-3.129 1.109-1.206.55-2.487.977-3.693 1.536-.071-.11-.159-.211-.238-.312a43 43 0 0 1-1.391-1.788c-.836-1.126-1.567-2.32-2.333-3.49-.541-.937-1.078-1.875-1.655-2.786-.449-.907-1.065-1.7-1.716-2.465a20 20 0 0 0-1.748-1.831c-.413-.436-.796-.898-1.276-1.272-.291-.3-1.492-1-1.074-1.453.449-.655 1.954.639 2.412 1.017.823.735 1.835 1.33 2.967 1.347h-.036.075c.643.075 1.299-.088 1.858-.4.184-.088.484-.247.317-.485a.24.24 0 0 0-.3-.057c-.405.233-.832.418-1.303.462-.519-.026-1.047-.097-1.514-.339-.409-.176-.774-.449-1.131-.74.114.014.233.032.352.04 1.03.097 2.025.436 3.059.515a2.1 2.1 0 0 0 .682-.048c.036.013.577.066 1.132-.097.378-.11.739-.273 1.069-.488.018-.014.075.079.093.132.132.36.343.682.515 1.025zm-3.499-6.924s.017-.004.026-.009a4 4 0 0 1 .405-.097c.132-.022.26-.035.392-.044.128 0 .255 0 .383.01.136.012.268.034.405.06q.183.047.361.107.192.073.378.167c.119.066.234.132.348.211.097.07.194.145.282.224q.12.112.233.238c.079.093.15.185.216.286q.1.16.18.326c.057.119.101.242.141.365q.058.197.097.4c.022.142.039.278.044.419 0 .132 0 .26-.009.387a3 3 0 0 1-.066.4 6 6 0 0 1-.106.37c0 .014-.008.023-.013.036a4 4 0 0 1-.167.383q-.077.144-.167.281a4 4 0 0 1-.238.304h-.004s-.022.03-.036.044a2.4 2.4 0 0 1-.233.225q-.138.12-.29.22c-.106.07-.221.127-.331.185a4 4 0 0 1-.453.176c-.136.04-.295.079-.462.114-.128.022-.242.04-.383.048-.079 0-.114.005-.251.005h-.04q-.068-.006-.136-.018-.218-.038-.436-.083a2 2 0 0 1-.286-.088 6 6 0 0 1-.299-.132 3 3 0 0 1-.652-.458 4 4 0 0 1-.286-.295 4 4 0 0 1-.255-.343c-.048-.084-.11-.19-.167-.304a4 4 0 0 1-.15-.387 3 3 0 0 1-.097-.41 3 3 0 0 1-.031-.326c0-.123 0-.242.014-.365a3.4 3.4 0 0 1 .176-.81 3 3 0 0 1 .123-.286q.094-.179.207-.352a3 3 0 0 1 .211-.268q.153-.166.326-.313a4 4 0 0 1 .321-.238 3.3 3.3 0 0 1 .792-.37zm-23.817.709c.986-.08 1.972-.194 2.962-.317.15-.027.427-.053.727-.093.017 0 .039.01.057.01a.3.3 0 0 0 .158-.04c.502-.08.999-.212 1.048-.489-.005-.048-.057-.088-.106-.07-.277.07-.554.066-.836.057h-.057c-.119-.238-.19-.502-.326-.73-.343-.534-.506-1.132-.594-1.757-.405-1.65 1.083-3.16 2.698-3.165 1.818.141 3.2-.823 4.52-1.936 1.167-.876 2.698-1.383 4.142-1 .669.146 1.171.687 1.849.823.598.124 1.206-.022 1.809.049 1.157.114 2.121.863 2.892 1.703.554.594.757 1.448 1.043 2.192.515.951 1.303 1.131 1.03 2.408-.044.22-.101.436-.031.656-.449.079-.863.18-1.334.264-1.179-.062-2.02-.3-2.663-1.365-.026-.026-.083-.11-.145-.184a3.8 3.8 0 0 0-1.232-1.444c-.018-.01-.031-.022-.049-.031a3.4 3.4 0 0 0-.766-.387 4 4 0 0 0-.682-.18 4 4 0 0 0-.744-.045 3.4 3.4 0 0 0-2.042.784q-.14.12-.273.246.125-.139.255-.277a.1.1 0 0 1-.026.022c.158-.172.942-.753.603-.968-.048-.014-.092.008-.132.035-.423.374-1.004.523-1.373.972-.806.766-3.143 3.21-1.999 5.507 1.277 2.575 3.636 1.474 4.336 1.298.365.044.73.106 1.091.163.115.392-.343.48-.598.63-.383.206-.7.51-1.052.77-1.985 1.598-3.499.26-5.603.642-1.871.423-3.46 1.607-5.278 2.201-1.307.462-2.68.691-4.032.99-.325.07-.677.154-1.003.256-.128.044-.277.07-.396.136.048-.255.105-.506.11-.77-.062-2.09-.304-4.203-.792-6.246-.097-.348-.15-.709-.203-1.07 1.012-.127 2.02-.26 3.041-.255zm-9.221.66h.009a7 7 0 0 1 .097-.594l.039-.159.066-.246.018-.066.039-.141c.022-.092 1.277-.973 1.792-1.136.62-.163 1.259.018 1.884.049.224.022.554.057.805.075.185.184.313.43.405.682q-.018-.001-.044.004h.044c.031.084.062.172.088.255.004.027.128.383.167.542v.004c.044.172.071.348.097.524.027.19.506 3.741.506 5.005-.035 1.157.093 3.468.102 3.468-.577.163-2.483.792-2.914.85-2.381-.379-2.179-.67-2.606-2.897-.378-1.479-.779-2.957-.748-4.533.039-.56.097-1.118.149-1.677zm11.426 25.74a.48.48 0 0 1-.233.225 5.8 5.8 0 0 0-1.188.66c-.471.352-.912.748-1.374 1.113a.1.1 0 0 0-.022.022c-1.008.938-2.029 1.862-2.971 2.87-1.43 1.598-2.892 3.191-4.221 4.882-1.285 1.456-2.359 3.08-3.552 4.612-.251.317-.748 1.127-.779 1.193-.048.115-.356.528-.669.894-.238.277-.695.193-.805-.154a8 8 0 0 1-.212-.819c-.009-.044-.013-.093-.009-.136q.026-.303.044-.612.028-.421.075-.841v.022q.028-.29.062-.581l.066-.643q.014-.13.035-.255a5 5 0 0 1 .049-.343c.022-.141.048-.277.07-.418l.04-.238c.017-.097.039-.19.057-.286v.009c0-.022.009-.04.009-.062.017-.132.039-.264.057-.396.088-.585.167-1.17.273-1.752.092-.515.198-1.03.299-1.545.053-.286.097-.572.163-.854q.094-.428.207-.85c.07-.259.145-.523.207-.783.079-.334.176-.669.273-1.003.017-.084.039-.167.057-.251.163-.982.334-1.959.502-2.971.206-1.567.466-3.213.114-4.78-.009-.031-.018-.057-.026-.088-.436-1.153-1.299-2.082-1.836-3.187-.761-1.285-1.4-2.641-1.972-4.014-.325-.907-.748-1.77-.973-2.716-.167-.78-.374-1.55-.567-2.324-.273-1.048-.313-2.236-.599-3.297-.172-.713-.563-1.382-.48-2.134 0-.031.009-.062.018-.093.119-.44.312-.902.713-1.162.669-.44 1.395-.792 2.095-1.18 1.466-.739 3.094-1.13 4.741-1.364-.014.084-.022.163-.04.22-.374 1.844-.123 3.763.383 5.56 0 .012.009.026.009.039.431 2.487.471 3.49 2.94 3.886a.47.47 0 0 1 .37.295c.603 1.62 2.491 5.947 2.843 6.052.119.031.392-.25.506-.299.194-.154-.717-1.444-.889-2.069-.4-.88-.687-1.818-1.113-2.663l-.067-.189c-.048-.114-.096-.224-.14-.339a2 2 0 0 1-.102-.33c-.03-.114-.07-.22-.088-.334-.008-.058.009-.12.049-.15 0 0 .004-.009.009-.009a.12.12 0 0 1 .088-.009c.396-.132.788-.325 1.223-.409.489-.15 1.004-.211 1.484-.374a.6.6 0 0 0 .184-.203.48.48 0 0 1 .485-.242 9.6 9.6 0 0 1 3.455 1.312c.585.326 1.215.581 1.752.982q.17.133.334.272a.48.48 0 0 1 .137.529 5 5 0 0 0-.124.413c-.154.652-.074 5.247.643 5.353 0 0 .013.008.026.008a.6.6 0 0 0 .207.036.9.9 0 0 0 .304-.058c-.383 1.03-.15 2.368.29 3.191-.008.159-.013.295-.017.454-.634 1.056-1.303 2.082-1.932 3.165-.141.242-.639.915-.951 1.54zm5.951.85c-.766-.938-2.003-1.382-3.182-1.488-.498-.022-.982.101-1.453.264l.036-.066c.202-.405 1.804-2.68 2.306-3.882.493.343 1.092.528 1.695.612q.184.026.369.026c.379 0 .7-.062.991-.154.475 2.315.625 5.115.682 7.218-.348-.91-.814-1.769-1.439-2.53zm10.044 18.455c0 .12-.044.282-.092.454a80 80 0 0 0-3.394.466 39 39 0 0 0-4.243.705c-.475.114-.95.22-1.421.356q.138-.566.264-1.14c.356-2.117.748-4.23.964-6.365.114-1.148.259-2.293.29-3.442.049-1.087-.101-2.165-.211-3.244.114-1.61.136-3.2.101-4.841-.123-2.148-.119-4.358-.858-6.404 1.021-.652 1.289-1.77 1.334-1.933.022 0 .039.005.066 0 .607-.03 1.113-.462 1.655-.7.603-.308 1.082-.774 1.584-1.21l.119-.106c.607.396 1.202.819 1.774 1.255 1.166.858 5.37 3.556 6.351 3.944q.29.12.581.233c-1.012.365-1.804.656-1.866.678-.321.132-.396.603-.106.805.401.273 4.437-1.325 5.991-1.994.079-.053.18-.092.281-.136.287.36.595.713.885 1.074.379.572.88 1.096 1.307 1.646.458.594 1.096 1.06 1.858 1.136q.125.01.251.008c.73 0 5-1.025 7.28-2.333.308.806.678 1.603.779 2.465.189 4.19-5.414 5.938-8.645 6.999-2.328.74-4.705 1.307-7.055 1.967-.991.3-1.994.537-3.002.775-.216.066-.555.101-.858.18.215-1.404.44-2.843.611-4.238.137-1.039.264-2.078.335-3.12-.005-.305.194-1.084-.101-1.251-.04-.009-.088.022-.093.062-.299.937-.59 1.88-.735 2.856a178 178 0 0 0-1.237 8.376c-.246 2.008-.435 4.023-.744 6.026z"/><path fill="#000" d="M284.838 24.67c-.59.105-1.202.153-1.743-.159-.343-.172-.669-.374-.924-.66-.159-.172-.331-.405-.586-.41-.224.027-.189.29-.119.44.308.78 1.189 1.207 1.963 1.4.3.08 1.818.07 1.677-.418a.25.25 0 0 0-.268-.194m.51-3.271c-.374-.216-.814-.216-1.228-.128-.281.062-.594.097-.827.273-.44.431.937.159 1.1.132.678-.14.841.22 1.211.674a.24.24 0 0 0 .321-.018c.154-.145.035-.343-.084-.467-.136-.163-.303-.356-.493-.466"/></g><defs><clipPath id="a"><path fill="#fff" d="M0 0h432v324H0z"/></clipPath></defs></svg>
